<svg width="29.585" height="13.151" xmlns="http://www.w3.org/2000/svg" viewBox="0 0 29.585 13.151">
  <g>
    <path d="M17.721,25.452h-.039l-2.175,1.116-.436-2.026,2.941-1.525h2.267V35.851H17.721Z" transform="translate(-15.071 -22.858)"/>
    <path d="M37.639,35.851V34.107l1.274-1.631c1.664-2.117,3.021-3.877,3.021-5.707A1.572,1.572,0,0,0,40.3,25.014a3.682,3.682,0,0,0-1.926.642l-.456-2a5.566,5.566,0,0,1,2.851-.8,3.406,3.406,0,0,1,3.72,3.719c0,2.409-1.509,4.33-2.981,6.047l-.769.906v.04h3.922v2.281Z" transform="translate(-15.071 -22.858)"/>
    <path d="M33.457,29.372c0,4.61-1.674,6.638-3.754,6.638-2.793,0-3.735-3.211-3.735-6.513,0-3.691,1.175-6.638,3.831-6.638C32.78,22.859,33.457,26.319,33.457,29.372Zm-4.892.063c-.031,3,.336,4.361,1.214,4.361.792,0,1.081-1.42,1.081-4.361,0-2.755-.258-4.362-1.085-4.362C28.963,25.073,28.549,26.462,28.565,29.435Z" transform="translate(-15.071 -22.858)"/>
  </g>
</svg>