<svg width="29.377" height="13.151" xmlns="http://www.w3.org/2000/svg" viewBox="0 0 29.377 13.151">
  <g>
    <path d="M17.721,25.452h-.039l-2.175,1.116-.436-2.026,2.941-1.525h2.267V35.851H17.721Z" transform="translate(-15.071 -22.858)"/>
    <path d="M38,33.4a4.026,4.026,0,0,0,1.91.506,1.78,1.78,0,0,0,1.953-1.86c0-1.431-1.1-2.028-2.409-2.044H39.1v-1.89h.253c.951-.016,2.16-.417,2.16-1.653a1.371,1.371,0,0,0-1.49-1.477,3.084,3.084,0,0,0-1.615.5l-.347-1.944a5.279,5.279,0,0,1,2.638-.677,3.073,3.073,0,0,1,3.4,3.1,3.127,3.127,0,0,1-1.846,2.878v.039a3.256,3.256,0,0,1,2.2,3.265,3.947,3.947,0,0,1-4.294,3.872,5.381,5.381,0,0,1-2.513-.566Z" transform="translate(-15.071 -22.858)"/>
    <path d="M33.457,29.372c0,4.61-1.674,6.638-3.754,6.638-2.793,0-3.735-3.211-3.735-6.513,0-3.691,1.175-6.638,3.831-6.638C32.78,22.859,33.457,26.319,33.457,29.372Zm-4.892.063c-.031,3,.336,4.361,1.214,4.361.792,0,1.081-1.42,1.081-4.361,0-2.755-.258-4.362-1.085-4.362C28.963,25.073,28.549,26.462,28.565,29.435Z" transform="translate(-15.071 -22.858)"/>
  </g>
</svg>