<svg width="30.273" height="13.15" xmlns="http://www.w3.org/2000/svg" viewBox="0 0 30.273 13.15">
  <g>
    <path d="M17.721,25.452h-.039l-2.175,1.116-.436-2.026,2.941-1.525h2.267V35.851H17.721Z" transform="translate(-15.071 -22.859)"/>
    <path d="M41.777,35.851V32.783h-4.4V31.012l4.2-8h2.5v7.7h1.275v2.07H44.07v3.068Zm0-5.138V28.088c0-.68.072-1.432.13-2.115h-.063c-.3.711-.556,1.292-.905,2l-1.364,2.7v.039Z" transform="translate(-15.071 -22.859)"/>
    <path d="M33.457,29.372c0,4.61-1.674,6.638-3.754,6.638-2.793,0-3.735-3.211-3.735-6.513,0-3.691,1.175-6.638,3.831-6.638C32.78,22.859,33.457,26.319,33.457,29.372Zm-4.892.063c-.031,3,.336,4.361,1.214,4.361.792,0,1.081-1.42,1.081-4.361,0-2.755-.258-4.362-1.085-4.362C28.963,25.073,28.549,26.462,28.565,29.435Z" transform="translate(-15.071 -22.859)"/>
  </g>
</svg>