<svg width="29.518" height="13.15" xmlns="http://www.w3.org/2000/svg" viewBox="0 0 29.518 13.15">
  <g>
    <path d="M17.721,25.452h-.039l-2.175,1.116-.436-2.026,2.941-1.525h2.267V35.851H17.721Z" transform="translate(-15.071 -22.859)"/>
    <path d="M44.365,25.266h-3.4l-.3,2.3c.131-.012.254-.012.393-.012a4.084,4.084,0,0,1,2.418.967,3.9,3.9,0,0,1,1.112,2.954,4.3,4.3,0,0,1-4.469,4.534,5.594,5.594,0,0,1-2.411-.515l.394-2.046a4.3,4.3,0,0,0,1.835.44,1.983,1.983,0,0,0,2.1-2.174c0-1.729-1.3-2.3-2.779-2.3a6.361,6.361,0,0,0-.926.048l.717-6.441h5.314Z" transform="translate(-15.071 -22.859)"/>
    <path d="M33.457,29.372c0,4.61-1.674,6.638-3.754,6.638-2.793,0-3.735-3.211-3.735-6.513,0-3.691,1.175-6.638,3.831-6.638C32.78,22.859,33.457,26.319,33.457,29.372Zm-4.892.063c-.031,3,.336,4.361,1.214,4.361.792,0,1.081-1.42,1.081-4.361,0-2.755-.258-4.362-1.085-4.362C28.963,25.073,28.549,26.462,28.565,29.435Z" transform="translate(-15.071 -22.859)"/>
  </g>
</svg>