<svg width="30.112" height="13.151" xmlns="http://www.w3.org/2000/svg" viewBox="0 0 30.112 13.151">
  <g>
    <path d="M17.721,25.452h-.039l-2.175,1.116-.436-2.026,2.941-1.525h2.267V35.851H17.721Z" transform="translate(-15.071 -22.858)"/>
    <path d="M44.158,24.956a7.145,7.145,0,0,0-1.058.134c-1.7.368-2.542,1.8-2.87,3.413H40.3a2.421,2.421,0,0,1,1.979-1.02c1.72,0,2.9,1.559,2.9,3.976,0,2.251-1.161,4.55-3.669,4.55-2.428,0-3.9-2.1-3.9-5.3a8.423,8.423,0,0,1,2.1-5.979,6.067,6.067,0,0,1,3.147-1.739,10.858,10.858,0,0,1,1.3-.135Zm-1.541,6.5c-.015-1.094-.358-2.115-1.2-2.115a1.192,1.192,0,0,0-1.053.857,3.308,3.308,0,0,0-.13,1.129c0,1.677.483,2.812,1.251,2.812C42.341,34.137,42.617,32.983,42.617,31.454Z" transform="translate(-15.071 -22.858)"/>
    <path d="M33.457,29.372c0,4.61-1.674,6.638-3.754,6.638-2.793,0-3.735-3.211-3.735-6.513,0-3.691,1.175-6.638,3.831-6.638C32.78,22.859,33.457,26.319,33.457,29.372Zm-4.892.063c-.031,3,.336,4.361,1.214,4.361.792,0,1.081-1.42,1.081-4.361,0-2.755-.258-4.362-1.085-4.362C28.963,25.073,28.549,26.462,28.565,29.435Z" transform="translate(-15.071 -22.858)"/>
  </g>
</svg>