<svg width="29.854" height="12.992" xmlns="http://www.w3.org/2000/svg" viewBox="0 0 29.854 12.992">
  <g>
    <path d="M17.721,25.452h-.039l-2.175,1.116-.436-2.026,2.941-1.525h2.267V35.851H17.721Z" transform="translate(-15.071 -22.859)"/>
    <path d="M44.925,23.017v1.7L40.887,35.851H38.371L42.3,25.336V25.3H37.931v-2.28Z" transform="translate(-15.071 -22.859)"/>
    <path d="M25.986,35.852V34.108l1.274-1.631c1.664-2.117,3.021-3.877,3.021-5.707a1.572,1.572,0,0,0-1.639-1.755,3.682,3.682,0,0,0-1.926.642l-.456-2a5.566,5.566,0,0,1,2.851-.8,3.407,3.407,0,0,1,3.721,3.719c0,2.409-1.51,4.33-2.982,6.047l-.768.906v.04H33v2.281Z" transform="translate(-15.071 -22.859)"/>
  </g>
</svg>