<svg width="30.112" height="13.151" xmlns="http://www.w3.org/2000/svg" viewBox="0 0 30.112 13.151">
  <g>
    <path d="M17.721,25.452h-.039l-2.175,1.116-.436-2.026,2.941-1.525h2.267V35.851H17.721Z" transform="translate(-15.071 -22.858)"/>
    <path d="M44.158,24.956a7.145,7.145,0,0,0-1.058.134c-1.7.368-2.542,1.8-2.87,3.413H40.3a2.421,2.421,0,0,1,1.979-1.02c1.72,0,2.9,1.559,2.9,3.976,0,2.251-1.161,4.55-3.669,4.55-2.428,0-3.9-2.1-3.9-5.3a8.423,8.423,0,0,1,2.1-5.979,6.067,6.067,0,0,1,3.147-1.739,10.858,10.858,0,0,1,1.3-.135Zm-1.541,6.5c-.015-1.094-.358-2.115-1.2-2.115a1.192,1.192,0,0,0-1.053.857,3.308,3.308,0,0,0-.13,1.129c0,1.677.483,2.812,1.251,2.812C42.341,34.137,42.617,32.983,42.617,31.454Z" transform="translate(-15.071 -22.858)"/>
    <path d="M26.35,33.4a4.026,4.026,0,0,0,1.91.506,1.78,1.78,0,0,0,1.953-1.86c0-1.431-1.1-2.028-2.409-2.044h-.355V28.11H27.7c.95-.016,2.159-.417,2.159-1.653a1.371,1.371,0,0,0-1.489-1.477,3.084,3.084,0,0,0-1.616.5l-.346-1.944a5.272,5.272,0,0,1,2.637-.677,3.073,3.073,0,0,1,3.4,3.1A3.127,3.127,0,0,1,30.6,28.834v.039a3.256,3.256,0,0,1,2.2,3.265A3.947,3.947,0,0,1,28.5,36.01a5.381,5.381,0,0,1-2.513-.566Z" transform="translate(-15.071 -22.858)"/>
  </g>
</svg>