<svg width="29.854" height="13.15" xmlns="http://www.w3.org/2000/svg" viewBox="0 0 29.854 13.15">
  <g>
    <path d="M17.721,25.452h-.039l-2.175,1.116-.436-2.026,2.941-1.525h2.267V35.851H17.721Z" transform="translate(-15.071 -22.859)"/>
    <path d="M44.925,23.017v1.7L40.887,35.851H38.371L42.3,25.336V25.3H37.931v-2.28Z" transform="translate(-15.071 -22.859)"/>
    <path d="M26.35,33.4a4.026,4.026,0,0,0,1.91.506,1.78,1.78,0,0,0,1.953-1.86c0-1.431-1.1-2.028-2.409-2.044h-.355V28.11H27.7c.95-.016,2.159-.417,2.159-1.653a1.371,1.371,0,0,0-1.489-1.477,3.084,3.084,0,0,0-1.616.5l-.346-1.944a5.272,5.272,0,0,1,2.637-.677,3.073,3.073,0,0,1,3.4,3.1A3.127,3.127,0,0,1,30.6,28.834v.039a3.256,3.256,0,0,1,2.2,3.265A3.947,3.947,0,0,1,28.5,36.01a5.381,5.381,0,0,1-2.513-.566Z" transform="translate(-15.071 -22.859)"/>
  </g>
</svg>