<svg width="30.038" height="13.15" xmlns="http://www.w3.org/2000/svg" viewBox="0 0 30.038 13.15">
  <g>
    <path d="M17.721,25.452h-.039l-2.175,1.116-.436-2.026,2.941-1.525h2.267V35.851H17.721Z" transform="translate(-15.071 -22.858)"/>
    <path d="M45.109,29.371c0,4.61-1.673,6.638-3.754,6.638-2.793,0-3.734-3.211-3.734-6.513,0-3.691,1.175-6.638,3.831-6.638C44.433,22.858,45.109,26.318,45.109,29.371Zm-4.891.063c-.031,3,.336,4.361,1.214,4.361.792,0,1.081-1.42,1.081-4.361,0-2.755-.258-4.362-1.085-4.362C40.616,25.072,40.2,26.461,40.218,29.434Z" transform="translate(-15.071 -22.858)"/>
    <path d="M30.125,35.852V32.784h-4.4V31.013l4.2-8h2.5v7.7h1.274v2.07H32.418v3.068Zm0-5.138V28.089c0-.68.071-1.432.129-2.115h-.063c-.295.711-.556,1.292-.9,2l-1.365,2.7v.039Z" transform="translate(-15.071 -22.858)"/>
  </g>
</svg>