<svg width="29.518" height="12.992" xmlns="http://www.w3.org/2000/svg" viewBox="0 0 29.518 12.992">
  <g>
    <path d="M17.721,25.452h-.039l-2.175,1.116-.436-2.026,2.941-1.525h2.267V35.851H17.721Z" transform="translate(-15.071 -23.017)"/>
    <path d="M44.365,25.266h-3.4l-.3,2.3c.131-.012.254-.012.393-.012a4.084,4.084,0,0,1,2.418.967,3.9,3.9,0,0,1,1.112,2.954,4.3,4.3,0,0,1-4.469,4.534,5.594,5.594,0,0,1-2.411-.515l.394-2.046a4.3,4.3,0,0,0,1.835.44,1.983,1.983,0,0,0,2.1-2.174c0-1.729-1.3-2.3-2.779-2.3a6.361,6.361,0,0,0-.926.048l.717-6.441h5.314Z" transform="translate(-15.071 -23.017)"/>
    <path d="M30.125,35.852V32.784h-4.4V31.013l4.2-8h2.5v7.7h1.274v2.07H32.418v3.068Zm0-5.138V28.089c0-.68.071-1.432.129-2.115h-.063c-.295.711-.556,1.292-.9,2l-1.365,2.7v.039Z" transform="translate(-15.071 -23.017)"/>
  </g>
</svg>