<svg width="29.854" height="12.835" xmlns="http://www.w3.org/2000/svg" viewBox="0 0 29.854 12.835">
  <g>
    <path d="M17.721,25.452h-.039l-2.175,1.116-.436-2.026,2.941-1.525h2.267V35.851H17.721Z" transform="translate(-15.071 -23.017)"/>
    <path d="M44.925,23.017v1.7L40.887,35.851H38.371L42.3,25.336V25.3H37.931v-2.28Z" transform="translate(-15.071 -23.017)"/>
    <path d="M30.125,35.852V32.784h-4.4V31.013l4.2-8h2.5v7.7h1.274v2.07H32.418v3.068Zm0-5.138V28.089c0-.68.071-1.432.129-2.115h-.063c-.295.711-.556,1.292-.9,2l-1.365,2.7v.039Z" transform="translate(-15.071 -23.017)"/>
  </g>
</svg>