<svg width="30.03" height="13.151" xmlns="http://www.w3.org/2000/svg" viewBox="0 0 30.03 13.151">
  <g>
    <path d="M17.721,25.452h-.039l-2.175,1.116-.436-2.026,2.941-1.525h2.267V35.851H17.721Z" transform="translate(-15.071 -22.858)"/>
    <path d="M38.619,33.864a5.6,5.6,0,0,0,1.184-.1,3.27,3.27,0,0,0,1.506-.776A4.927,4.927,0,0,0,42.547,30.4h-.055a2.394,2.394,0,0,1-1.831.792c-1.669,0-3.023-1.481-3.023-3.837,0-2.2,1.348-4.5,3.816-4.5,2.39,0,3.648,2.176,3.648,5.277a8.836,8.836,0,0,1-2.112,6.19,5.428,5.428,0,0,1-3.17,1.623,7.179,7.179,0,0,1-1.2.061Zm1.569-6.715c.015,1.243.406,2.264,1.2,2.264a1.141,1.141,0,0,0,.989-.663,3.974,3.974,0,0,0,.119-1.377c0-1.683-.48-2.643-1.172-2.643C40.659,24.73,40.157,25.586,40.188,27.149Z" transform="translate(-15.071 -22.858)"/>
    <path d="M30.125,35.852V32.784h-4.4V31.013l4.2-8h2.5v7.7h1.274v2.07H32.418v3.068Zm0-5.138V28.089c0-.68.071-1.432.129-2.115h-.063c-.295.711-.556,1.292-.9,2l-1.365,2.7v.039Z" transform="translate(-15.071 -22.858)"/>
  </g>
</svg>