<svg width="29.585" height="13.151" xmlns="http://www.w3.org/2000/svg" viewBox="0 0 29.585 13.151">
  <g>
    <path d="M17.721,25.452h-.039l-2.175,1.116-.436-2.026,2.941-1.525h2.267V35.851H17.721Z" transform="translate(-15.071 -22.858)"/>
    <path d="M37.639,35.851V34.107l1.274-1.631c1.664-2.117,3.021-3.877,3.021-5.707A1.572,1.572,0,0,0,40.3,25.014a3.682,3.682,0,0,0-1.926.642l-.456-2a5.566,5.566,0,0,1,2.851-.8,3.406,3.406,0,0,1,3.72,3.719c0,2.409-1.509,4.33-2.981,6.047l-.769.906v.04h3.922v2.281Z" transform="translate(-15.071 -22.858)"/>
    <path d="M32.713,25.267h-3.4l-.3,2.3c.131-.012.254-.012.393-.012a4.082,4.082,0,0,1,2.418.967,3.9,3.9,0,0,1,1.113,2.954,4.3,4.3,0,0,1-4.47,4.534,5.594,5.594,0,0,1-2.411-.515l.394-2.046a4.3,4.3,0,0,0,1.835.44,1.983,1.983,0,0,0,2.1-2.174c0-1.729-1.3-2.3-2.779-2.3a6.527,6.527,0,0,0-.926.047l.717-6.44h5.315Z" transform="translate(-15.071 -22.858)"/>
  </g>
</svg>