<svg width="29.377" height="13.151" xmlns="http://www.w3.org/2000/svg" viewBox="0 0 29.377 13.151">
  <g>
    <path d="M17.721,25.452h-.039l-2.175,1.116-.436-2.026,2.941-1.525h2.267V35.851H17.721Z" transform="translate(-15.071 -22.858)"/>
    <path d="M38,33.4a4.026,4.026,0,0,0,1.91.506,1.78,1.78,0,0,0,1.953-1.86c0-1.431-1.1-2.028-2.409-2.044H39.1v-1.89h.253c.951-.016,2.16-.417,2.16-1.653a1.371,1.371,0,0,0-1.49-1.477,3.084,3.084,0,0,0-1.615.5l-.347-1.944a5.279,5.279,0,0,1,2.638-.677,3.073,3.073,0,0,1,3.4,3.1,3.127,3.127,0,0,1-1.846,2.878v.039a3.256,3.256,0,0,1,2.2,3.265,3.947,3.947,0,0,1-4.294,3.872,5.381,5.381,0,0,1-2.513-.566Z" transform="translate(-15.071 -22.858)"/>
    <path d="M32.713,25.267h-3.4l-.3,2.3c.131-.012.254-.012.393-.012a4.082,4.082,0,0,1,2.418.967,3.9,3.9,0,0,1,1.113,2.954,4.3,4.3,0,0,1-4.47,4.534,5.594,5.594,0,0,1-2.411-.515l.394-2.046a4.3,4.3,0,0,0,1.835.44,1.983,1.983,0,0,0,2.1-2.174c0-1.729-1.3-2.3-2.779-2.3a6.527,6.527,0,0,0-.926.047l.717-6.44h5.315Z" transform="translate(-15.071 -22.858)"/>
  </g>
</svg>