<svg width="30.273" height="12.993" xmlns="http://www.w3.org/2000/svg" viewBox="0 0 30.273 12.993">
  <g>
    <path d="M17.721,25.452h-.039l-2.175,1.116-.436-2.026,2.941-1.525h2.267V35.851H17.721Z" transform="translate(-15.071 -23.017)"/>
    <path d="M41.777,35.851V32.783h-4.4V31.012l4.2-8h2.5v7.7h1.275v2.07H44.07v3.068Zm0-5.138V28.088c0-.68.072-1.432.13-2.115h-.063c-.3.711-.556,1.292-.905,2l-1.364,2.7v.039Z" transform="translate(-15.071 -23.017)"/>
    <path d="M32.713,25.267h-3.4l-.3,2.3c.131-.012.254-.012.393-.012a4.082,4.082,0,0,1,2.418.967,3.9,3.9,0,0,1,1.113,2.954,4.3,4.3,0,0,1-4.47,4.534,5.594,5.594,0,0,1-2.411-.515l.394-2.046a4.3,4.3,0,0,0,1.835.44,1.983,1.983,0,0,0,2.1-2.174c0-1.729-1.3-2.3-2.779-2.3a6.527,6.527,0,0,0-.926.047l.717-6.44h5.315Z" transform="translate(-15.071 -23.017)"/>
  </g>
</svg>