<svg width="30.112" height="13.151" xmlns="http://www.w3.org/2000/svg" viewBox="0 0 30.112 13.151">
  <g>
    <path d="M17.721,25.452h-.039l-2.175,1.116-.436-2.026,2.941-1.525h2.267V35.851H17.721Z" transform="translate(-15.071 -22.858)"/>
    <path d="M44.158,24.956a7.145,7.145,0,0,0-1.058.134c-1.7.368-2.542,1.8-2.87,3.413H40.3a2.421,2.421,0,0,1,1.979-1.02c1.72,0,2.9,1.559,2.9,3.976,0,2.251-1.161,4.55-3.669,4.55-2.428,0-3.9-2.1-3.9-5.3a8.423,8.423,0,0,1,2.1-5.979,6.067,6.067,0,0,1,3.147-1.739,10.858,10.858,0,0,1,1.3-.135Zm-1.541,6.5c-.015-1.094-.358-2.115-1.2-2.115a1.192,1.192,0,0,0-1.053.857,3.308,3.308,0,0,0-.13,1.129c0,1.677.483,2.812,1.251,2.812C42.341,34.137,42.617,32.983,42.617,31.454Z" transform="translate(-15.071 -22.858)"/>
    <path d="M32.713,25.267h-3.4l-.3,2.3c.131-.012.254-.012.393-.012a4.082,4.082,0,0,1,2.418.967,3.9,3.9,0,0,1,1.113,2.954,4.3,4.3,0,0,1-4.47,4.534,5.594,5.594,0,0,1-2.411-.515l.394-2.046a4.3,4.3,0,0,0,1.835.44,1.983,1.983,0,0,0,2.1-2.174c0-1.729-1.3-2.3-2.779-2.3a6.527,6.527,0,0,0-.926.047l.717-6.44h5.315Z" transform="translate(-15.071 -22.858)"/>
  </g>
</svg>