<svg width="30.084" height="13.151" xmlns="http://www.w3.org/2000/svg" viewBox="0 0 30.084 13.151">
  <g>
    <path d="M17.721,25.452h-.039l-2.175,1.116-.436-2.026,2.941-1.525h2.267V35.851H17.721Z" transform="translate(-15.071 -22.858)"/>
    <path d="M37.56,32.507a3.986,3.986,0,0,1,1.931-3.414l-.005-.04a3.362,3.362,0,0,1,2.064-6.195,3.13,3.13,0,0,1,3.3,3.156,3.273,3.273,0,0,1-1.68,2.848v.044a3.708,3.708,0,0,1,1.984,3.344,3.628,3.628,0,0,1-3.844,3.759A3.453,3.453,0,0,1,37.56,32.507Zm5.091-.147a2.637,2.637,0,0,0-1.477-2.371,2.644,2.644,0,0,0-1.111,2.235c0,1.109.448,2.038,1.333,2.038C42.217,34.262,42.651,33.438,42.651,32.36Zm-2.309-6.2A2.122,2.122,0,0,0,41.605,28.1a2.134,2.134,0,0,0,.882-1.833c0-.87-.289-1.672-1.051-1.672S40.342,25.357,40.342,26.163Z" transform="translate(-15.071 -22.858)"/>
    <path d="M32.713,25.267h-3.4l-.3,2.3c.131-.012.254-.012.393-.012a4.082,4.082,0,0,1,2.418.967,3.9,3.9,0,0,1,1.113,2.954,4.3,4.3,0,0,1-4.47,4.534,5.594,5.594,0,0,1-2.411-.515l.394-2.046a4.3,4.3,0,0,0,1.835.44,1.983,1.983,0,0,0,2.1-2.174c0-1.729-1.3-2.3-2.779-2.3a6.527,6.527,0,0,0-.926.047l.717-6.44h5.315Z" transform="translate(-15.071 -22.858)"/>
  </g>
</svg>