<svg width="30.03" height="13.151" xmlns="http://www.w3.org/2000/svg" viewBox="0 0 30.03 13.151">
  <g>
    <path d="M17.721,25.452h-.039l-2.175,1.116-.436-2.026,2.941-1.525h2.267V35.851H17.721Z" transform="translate(-15.071 -22.858)"/>
    <path d="M38.619,33.864a5.6,5.6,0,0,0,1.184-.1,3.27,3.27,0,0,0,1.506-.776A4.927,4.927,0,0,0,42.547,30.4h-.055a2.394,2.394,0,0,1-1.831.792c-1.669,0-3.023-1.481-3.023-3.837,0-2.2,1.348-4.5,3.816-4.5,2.39,0,3.648,2.176,3.648,5.277a8.836,8.836,0,0,1-2.112,6.19,5.428,5.428,0,0,1-3.17,1.623,7.179,7.179,0,0,1-1.2.061Zm1.569-6.715c.015,1.243.406,2.264,1.2,2.264a1.141,1.141,0,0,0,.989-.663,3.974,3.974,0,0,0,.119-1.377c0-1.683-.48-2.643-1.172-2.643C40.659,24.73,40.157,25.586,40.188,27.149Z" transform="translate(-15.071 -22.858)"/>
    <path d="M32.713,25.267h-3.4l-.3,2.3c.131-.012.254-.012.393-.012a4.082,4.082,0,0,1,2.418.967,3.9,3.9,0,0,1,1.113,2.954,4.3,4.3,0,0,1-4.47,4.534,5.594,5.594,0,0,1-2.411-.515l.394-2.046a4.3,4.3,0,0,0,1.835.44,1.983,1.983,0,0,0,2.1-2.174c0-1.729-1.3-2.3-2.779-2.3a6.527,6.527,0,0,0-.926.047l.717-6.44h5.315Z" transform="translate(-15.071 -22.858)"/>
  </g>
</svg>