<svg width="30.038" height="13.151" xmlns="http://www.w3.org/2000/svg" viewBox="0 0 30.038 13.151">
  <g>
    <path d="M17.721,25.452h-.039l-2.175,1.116-.436-2.026,2.941-1.525h2.267V35.851H17.721Z" transform="translate(-15.071 -22.858)"/>
    <path d="M45.109,29.371c0,4.61-1.673,6.638-3.754,6.638-2.793,0-3.734-3.211-3.734-6.513,0-3.691,1.175-6.638,3.831-6.638C44.433,22.858,45.109,26.318,45.109,29.371Zm-4.891.063c-.031,3,.336,4.361,1.214,4.361.792,0,1.081-1.42,1.081-4.361,0-2.755-.258-4.362-1.085-4.362C40.616,25.072,40.2,26.461,40.218,29.434Z" transform="translate(-15.071 -22.858)"/>
    <path d="M32.506,24.957a7.157,7.157,0,0,0-1.059.134c-1.7.367-2.542,1.8-2.869,3.413h.07a2.421,2.421,0,0,1,1.979-1.02c1.721,0,2.9,1.559,2.9,3.976,0,2.251-1.16,4.55-3.669,4.55-2.428,0-3.9-2.1-3.9-5.3a8.423,8.423,0,0,1,2.1-5.979,6.066,6.066,0,0,1,3.148-1.739,10.838,10.838,0,0,1,1.3-.135Zm-1.542,6.5c-.015-1.094-.358-2.115-1.2-2.115a1.192,1.192,0,0,0-1.053.857,3.308,3.308,0,0,0-.13,1.129c0,1.677.483,2.812,1.251,2.812C30.688,34.138,30.964,32.984,30.964,31.455Z" transform="translate(-15.071 -22.858)"/>
  </g>
</svg>