<svg width="29.377" height="13.151" xmlns="http://www.w3.org/2000/svg" viewBox="0 0 29.377 13.151">
  <g>
    <path d="M17.721,25.452h-.039l-2.175,1.116-.436-2.026,2.941-1.525h2.267V35.851H17.721Z" transform="translate(-15.071 -22.858)"/>
    <path d="M38,33.4a4.026,4.026,0,0,0,1.91.506,1.78,1.78,0,0,0,1.953-1.86c0-1.431-1.1-2.028-2.409-2.044H39.1v-1.89h.253c.951-.016,2.16-.417,2.16-1.653a1.371,1.371,0,0,0-1.49-1.477,3.084,3.084,0,0,0-1.615.5l-.347-1.944a5.279,5.279,0,0,1,2.638-.677,3.073,3.073,0,0,1,3.4,3.1,3.127,3.127,0,0,1-1.846,2.878v.039a3.256,3.256,0,0,1,2.2,3.265,3.947,3.947,0,0,1-4.294,3.872,5.381,5.381,0,0,1-2.513-.566Z" transform="translate(-15.071 -22.858)"/>
    <path d="M32.506,24.957a7.157,7.157,0,0,0-1.059.134c-1.7.367-2.542,1.8-2.869,3.413h.07a2.421,2.421,0,0,1,1.979-1.02c1.721,0,2.9,1.559,2.9,3.976,0,2.251-1.16,4.55-3.669,4.55-2.428,0-3.9-2.1-3.9-5.3a8.423,8.423,0,0,1,2.1-5.979,6.066,6.066,0,0,1,3.148-1.739,10.838,10.838,0,0,1,1.3-.135Zm-1.542,6.5c-.015-1.094-.358-2.115-1.2-2.115a1.192,1.192,0,0,0-1.053.857,3.308,3.308,0,0,0-.13,1.129c0,1.677.483,2.812,1.251,2.812C30.688,34.138,30.964,32.984,30.964,31.455Z" transform="translate(-15.071 -22.858)"/>
  </g>
</svg>