<svg width="30.084" height="13.151" xmlns="http://www.w3.org/2000/svg" viewBox="0 0 30.084 13.151">
  <g>
    <path d="M17.721,25.452h-.039l-2.175,1.116-.436-2.026,2.941-1.525h2.267V35.851H17.721Z" transform="translate(-15.071 -22.858)"/>
    <path d="M37.56,32.507a3.986,3.986,0,0,1,1.931-3.414l-.005-.04a3.362,3.362,0,0,1,2.064-6.195,3.13,3.13,0,0,1,3.3,3.156,3.273,3.273,0,0,1-1.68,2.848v.044a3.708,3.708,0,0,1,1.984,3.344,3.628,3.628,0,0,1-3.844,3.759A3.453,3.453,0,0,1,37.56,32.507Zm5.091-.147a2.637,2.637,0,0,0-1.477-2.371,2.644,2.644,0,0,0-1.111,2.235c0,1.109.448,2.038,1.333,2.038C42.217,34.262,42.651,33.438,42.651,32.36Zm-2.309-6.2A2.122,2.122,0,0,0,41.605,28.1a2.134,2.134,0,0,0,.882-1.833c0-.87-.289-1.672-1.051-1.672S40.342,25.357,40.342,26.163Z" transform="translate(-15.071 -22.858)"/>
    <path d="M32.506,24.957a7.157,7.157,0,0,0-1.059.134c-1.7.367-2.542,1.8-2.869,3.413h.07a2.421,2.421,0,0,1,1.979-1.02c1.721,0,2.9,1.559,2.9,3.976,0,2.251-1.16,4.55-3.669,4.55-2.428,0-3.9-2.1-3.9-5.3a8.423,8.423,0,0,1,2.1-5.979,6.066,6.066,0,0,1,3.148-1.739,10.838,10.838,0,0,1,1.3-.135Zm-1.542,6.5c-.015-1.094-.358-2.115-1.2-2.115a1.192,1.192,0,0,0-1.053.857,3.308,3.308,0,0,0-.13,1.129c0,1.677.483,2.812,1.251,2.812C30.688,34.138,30.964,32.984,30.964,31.455Z" transform="translate(-15.071 -22.858)"/>
  </g>
</svg>