<svg width="30.273" height="12.835" xmlns="http://www.w3.org/2000/svg" viewBox="0 0 30.273 12.835">
  <g>
    <path d="M17.721,25.452h-.039l-2.175,1.116-.436-2.026,2.941-1.525h2.267V35.851H17.721Z" transform="translate(-15.071 -23.017)"/>
    <path d="M41.777,35.851V32.783h-4.4V31.012l4.2-8h2.5v7.7h1.275v2.07H44.07v3.068Zm0-5.138V28.088c0-.68.072-1.432.13-2.115h-.063c-.3.711-.556,1.292-.905,2l-1.364,2.7v.039Z" transform="translate(-15.071 -23.017)"/>
    <path d="M33.272,23.018v1.7L29.234,35.852H26.718l3.933-10.515V25.3H26.278v-2.28Z" transform="translate(-15.071 -23.017)"/>
  </g>
</svg>