<svg width="29.377" height="13.151" xmlns="http://www.w3.org/2000/svg" viewBox="0 0 29.377 13.151">
  <g>
    <path d="M17.721,25.452h-.039l-2.175,1.116-.436-2.026,2.941-1.525h2.267V35.851H17.721Z" transform="translate(-15.071 -22.858)"/>
    <path d="M38,33.4a4.026,4.026,0,0,0,1.91.506,1.78,1.78,0,0,0,1.953-1.86c0-1.431-1.1-2.028-2.409-2.044H39.1v-1.89h.253c.951-.016,2.16-.417,2.16-1.653a1.371,1.371,0,0,0-1.49-1.477,3.084,3.084,0,0,0-1.615.5l-.347-1.944a5.279,5.279,0,0,1,2.638-.677,3.073,3.073,0,0,1,3.4,3.1,3.127,3.127,0,0,1-1.846,2.878v.039a3.256,3.256,0,0,1,2.2,3.265,3.947,3.947,0,0,1-4.294,3.872,5.381,5.381,0,0,1-2.513-.566Z" transform="translate(-15.071 -22.858)"/>
    <path d="M25.907,32.508a3.986,3.986,0,0,1,1.931-3.414l-.005-.04A3.362,3.362,0,0,1,29.9,22.859a3.129,3.129,0,0,1,3.3,3.156,3.271,3.271,0,0,1-1.679,2.848v.044A3.708,3.708,0,0,1,33.5,32.251a3.629,3.629,0,0,1-3.845,3.759A3.454,3.454,0,0,1,25.907,32.508ZM31,32.361a2.636,2.636,0,0,0-1.478-2.371,2.644,2.644,0,0,0-1.11,2.235c0,1.109.447,2.038,1.333,2.038C30.564,34.263,31,33.439,31,32.361Zm-2.31-6.2A2.121,2.121,0,0,0,29.953,28.1a2.135,2.135,0,0,0,.881-1.833c0-.87-.289-1.672-1.051-1.672S28.689,25.358,28.689,26.164Z" transform="translate(-15.071 -22.858)"/>
  </g>
</svg>