<svg width="30.112" height="13.151" xmlns="http://www.w3.org/2000/svg" viewBox="0 0 30.112 13.151">
  <g>
    <path d="M17.721,25.452h-.039l-2.175,1.116-.436-2.026,2.941-1.525h2.267V35.851H17.721Z" transform="translate(-15.071 -22.858)"/>
    <path d="M44.158,24.956a7.145,7.145,0,0,0-1.058.134c-1.7.368-2.542,1.8-2.87,3.413H40.3a2.421,2.421,0,0,1,1.979-1.02c1.72,0,2.9,1.559,2.9,3.976,0,2.251-1.161,4.55-3.669,4.55-2.428,0-3.9-2.1-3.9-5.3a8.423,8.423,0,0,1,2.1-5.979,6.067,6.067,0,0,1,3.147-1.739,10.858,10.858,0,0,1,1.3-.135Zm-1.541,6.5c-.015-1.094-.358-2.115-1.2-2.115a1.192,1.192,0,0,0-1.053.857,3.308,3.308,0,0,0-.13,1.129c0,1.677.483,2.812,1.251,2.812C42.341,34.137,42.617,32.983,42.617,31.454Z" transform="translate(-15.071 -22.858)"/>
    <path d="M25.907,32.508a3.986,3.986,0,0,1,1.931-3.414l-.005-.04A3.362,3.362,0,0,1,29.9,22.859a3.129,3.129,0,0,1,3.3,3.156,3.271,3.271,0,0,1-1.679,2.848v.044A3.708,3.708,0,0,1,33.5,32.251a3.629,3.629,0,0,1-3.845,3.759A3.454,3.454,0,0,1,25.907,32.508ZM31,32.361a2.636,2.636,0,0,0-1.478-2.371,2.644,2.644,0,0,0-1.11,2.235c0,1.109.447,2.038,1.333,2.038C30.564,34.263,31,33.439,31,32.361Zm-2.31-6.2A2.121,2.121,0,0,0,29.953,28.1a2.135,2.135,0,0,0,.881-1.833c0-.87-.289-1.672-1.051-1.672S28.689,25.358,28.689,26.164Z" transform="translate(-15.071 -22.858)"/>
  </g>
</svg>