<svg width="30.084" height="13.151" xmlns="http://www.w3.org/2000/svg" viewBox="0 0 30.084 13.151">
  <g>
    <path d="M17.721,25.452h-.039l-2.175,1.116-.436-2.026,2.941-1.525h2.267V35.851H17.721Z" transform="translate(-15.071 -22.858)"/>
    <path d="M37.56,32.507a3.986,3.986,0,0,1,1.931-3.414l-.005-.04a3.362,3.362,0,0,1,2.064-6.195,3.13,3.13,0,0,1,3.3,3.156,3.273,3.273,0,0,1-1.68,2.848v.044a3.708,3.708,0,0,1,1.984,3.344,3.628,3.628,0,0,1-3.844,3.759A3.453,3.453,0,0,1,37.56,32.507Zm5.091-.147a2.637,2.637,0,0,0-1.477-2.371,2.644,2.644,0,0,0-1.111,2.235c0,1.109.448,2.038,1.333,2.038C42.217,34.262,42.651,33.438,42.651,32.36Zm-2.309-6.2A2.122,2.122,0,0,0,41.605,28.1a2.134,2.134,0,0,0,.882-1.833c0-.87-.289-1.672-1.051-1.672S40.342,25.357,40.342,26.163Z" transform="translate(-15.071 -22.858)"/>
    <path d="M25.907,32.508a3.986,3.986,0,0,1,1.931-3.414l-.005-.04A3.362,3.362,0,0,1,29.9,22.859a3.129,3.129,0,0,1,3.3,3.156,3.271,3.271,0,0,1-1.679,2.848v.044A3.708,3.708,0,0,1,33.5,32.251a3.629,3.629,0,0,1-3.845,3.759A3.454,3.454,0,0,1,25.907,32.508ZM31,32.361a2.636,2.636,0,0,0-1.478-2.371,2.644,2.644,0,0,0-1.11,2.235c0,1.109.447,2.038,1.333,2.038C30.564,34.263,31,33.439,31,32.361Zm-2.31-6.2A2.121,2.121,0,0,0,29.953,28.1a2.135,2.135,0,0,0,.881-1.833c0-.87-.289-1.672-1.051-1.672S28.689,25.358,28.689,26.164Z" transform="translate(-15.071 -22.858)"/>
  </g>
</svg>