<svg width="30.03" height="13.151" xmlns="http://www.w3.org/2000/svg" viewBox="0 0 30.03 13.151">
  <g>
    <path d="M17.721,25.452h-.039l-2.175,1.116-.436-2.026,2.941-1.525h2.267V35.851H17.721Z" transform="translate(-15.071 -22.858)"/>
    <path d="M38.619,33.864a5.6,5.6,0,0,0,1.184-.1,3.27,3.27,0,0,0,1.506-.776A4.927,4.927,0,0,0,42.547,30.4h-.055a2.394,2.394,0,0,1-1.831.792c-1.669,0-3.023-1.481-3.023-3.837,0-2.2,1.348-4.5,3.816-4.5,2.39,0,3.648,2.176,3.648,5.277a8.836,8.836,0,0,1-2.112,6.19,5.428,5.428,0,0,1-3.17,1.623,7.179,7.179,0,0,1-1.2.061Zm1.569-6.715c.015,1.243.406,2.264,1.2,2.264a1.141,1.141,0,0,0,.989-.663,3.974,3.974,0,0,0,.119-1.377c0-1.683-.48-2.643-1.172-2.643C40.659,24.73,40.157,25.586,40.188,27.149Z" transform="translate(-15.071 -22.858)"/>
    <path d="M25.907,32.508a3.986,3.986,0,0,1,1.931-3.414l-.005-.04A3.362,3.362,0,0,1,29.9,22.859a3.129,3.129,0,0,1,3.3,3.156,3.271,3.271,0,0,1-1.679,2.848v.044A3.708,3.708,0,0,1,33.5,32.251a3.629,3.629,0,0,1-3.845,3.759A3.454,3.454,0,0,1,25.907,32.508ZM31,32.361a2.636,2.636,0,0,0-1.478-2.371,2.644,2.644,0,0,0-1.11,2.235c0,1.109.447,2.038,1.333,2.038C30.564,34.263,31,33.439,31,32.361Zm-2.31-6.2A2.121,2.121,0,0,0,29.953,28.1a2.135,2.135,0,0,0,.881-1.833c0-.87-.289-1.672-1.051-1.672S28.689,25.358,28.689,26.164Z" transform="translate(-15.071 -22.858)"/>
  </g>
</svg>