<svg width="29.377" height="13.152" xmlns="http://www.w3.org/2000/svg" viewBox="0 0 29.377 13.152">
  <g>
    <path d="M17.721,25.452h-.039l-2.175,1.116-.436-2.026,2.941-1.525h2.267V35.851H17.721Z" transform="translate(-15.071 -22.858)"/>
    <path d="M38,33.4a4.026,4.026,0,0,0,1.91.506,1.78,1.78,0,0,0,1.953-1.86c0-1.431-1.1-2.028-2.409-2.044H39.1v-1.89h.253c.951-.016,2.16-.417,2.16-1.653a1.371,1.371,0,0,0-1.49-1.477,3.084,3.084,0,0,0-1.615.5l-.347-1.944a5.279,5.279,0,0,1,2.638-.677,3.073,3.073,0,0,1,3.4,3.1,3.127,3.127,0,0,1-1.846,2.878v.039a3.256,3.256,0,0,1,2.2,3.265,3.947,3.947,0,0,1-4.294,3.872,5.381,5.381,0,0,1-2.513-.566Z" transform="translate(-15.071 -22.858)"/>
    <path d="M26.966,33.865a5.6,5.6,0,0,0,1.184-.1,3.27,3.27,0,0,0,1.506-.776A4.927,4.927,0,0,0,30.894,30.4h-.055a2.392,2.392,0,0,1-1.831.792c-1.669,0-3.023-1.481-3.023-3.837,0-2.2,1.348-4.495,3.816-4.495,2.39,0,3.648,2.176,3.648,5.277a8.836,8.836,0,0,1-2.111,6.19,5.433,5.433,0,0,1-3.171,1.623,7.179,7.179,0,0,1-1.2.061Zm1.57-6.715c.014,1.243.4,2.264,1.2,2.264a1.139,1.139,0,0,0,.989-.664,3.963,3.963,0,0,0,.119-1.376c0-1.683-.48-2.643-1.172-2.643C29.006,24.731,28.5,25.587,28.536,27.15Z" transform="translate(-15.071 -22.858)"/>
  </g>
</svg>