<svg width="30.112" height="13.152" xmlns="http://www.w3.org/2000/svg" viewBox="0 0 30.112 13.152">
  <g>
    <path d="M17.721,25.452h-.039l-2.175,1.116-.436-2.026,2.941-1.525h2.267V35.851H17.721Z" transform="translate(-15.071 -22.858)"/>
    <path d="M44.158,24.956a7.145,7.145,0,0,0-1.058.134c-1.7.368-2.542,1.8-2.87,3.413H40.3a2.421,2.421,0,0,1,1.979-1.02c1.72,0,2.9,1.559,2.9,3.976,0,2.251-1.161,4.55-3.669,4.55-2.428,0-3.9-2.1-3.9-5.3a8.423,8.423,0,0,1,2.1-5.979,6.067,6.067,0,0,1,3.147-1.739,10.858,10.858,0,0,1,1.3-.135Zm-1.541,6.5c-.015-1.094-.358-2.115-1.2-2.115a1.192,1.192,0,0,0-1.053.857,3.308,3.308,0,0,0-.13,1.129c0,1.677.483,2.812,1.251,2.812C42.341,34.137,42.617,32.983,42.617,31.454Z" transform="translate(-15.071 -22.858)"/>
    <path d="M26.966,33.865a5.6,5.6,0,0,0,1.184-.1,3.27,3.27,0,0,0,1.506-.776A4.927,4.927,0,0,0,30.894,30.4h-.055a2.392,2.392,0,0,1-1.831.792c-1.669,0-3.023-1.481-3.023-3.837,0-2.2,1.348-4.495,3.816-4.495,2.39,0,3.648,2.176,3.648,5.277a8.836,8.836,0,0,1-2.111,6.19,5.433,5.433,0,0,1-3.171,1.623,7.179,7.179,0,0,1-1.2.061Zm1.57-6.715c.014,1.243.4,2.264,1.2,2.264a1.139,1.139,0,0,0,.989-.664,3.963,3.963,0,0,0,.119-1.376c0-1.683-.48-2.643-1.172-2.643C29.006,24.731,28.5,25.587,28.536,27.15Z" transform="translate(-15.071 -22.858)"/>
  </g>
</svg>