<svg width="30.677" height="13.151" xmlns="http://www.w3.org/2000/svg" viewBox="0 0 30.677 13.151">
  <g>
    <path d="M14.668,35.851V34.107l1.275-1.631c1.663-2.117,3.02-3.877,3.02-5.707a1.571,1.571,0,0,0-1.639-1.754,3.694,3.694,0,0,0-1.926.641l-.456-2a5.563,5.563,0,0,1,2.851-.8,3.407,3.407,0,0,1,3.721,3.719c0,2.409-1.511,4.33-2.982,6.046l-.768.906v.04h3.921v2.281Z" transform="translate(-14.668 -22.859)"/>
    <path d="M41.777,35.851V32.783h-4.4V31.012l4.2-8h2.5v7.7h1.275v2.07H44.07v3.068Zm0-5.138V28.088c0-.68.072-1.432.13-2.115h-.063c-.3.711-.556,1.292-.905,2l-1.364,2.7v.039Z" transform="translate(-14.668 -22.859)"/>
    <path d="M33.457,29.372c0,4.61-1.674,6.638-3.754,6.638-2.793,0-3.735-3.211-3.735-6.513,0-3.691,1.175-6.638,3.831-6.638C32.78,22.859,33.457,26.319,33.457,29.372Zm-4.892.063c-.031,3,.336,4.361,1.214,4.361.792,0,1.081-1.42,1.081-4.361,0-2.755-.258-4.362-1.085-4.362C28.963,25.073,28.549,26.462,28.565,29.435Z" transform="translate(-14.668 -22.859)"/>
  </g>
</svg>