<svg width="30.487" height="13.151" xmlns="http://www.w3.org/2000/svg" viewBox="0 0 30.487 13.151">
  <g>
    <path d="M14.668,35.851V34.107l1.275-1.631c1.663-2.117,3.02-3.877,3.02-5.707a1.571,1.571,0,0,0-1.639-1.754,3.694,3.694,0,0,0-1.926.641l-.456-2a5.563,5.563,0,0,1,2.851-.8,3.407,3.407,0,0,1,3.721,3.719c0,2.409-1.511,4.33-2.982,6.046l-.768.906v.04h3.921v2.281Z" transform="translate(-14.668 -22.858)"/>
    <path d="M37.56,32.507a3.986,3.986,0,0,1,1.931-3.414l-.005-.04a3.362,3.362,0,0,1,2.064-6.195,3.13,3.13,0,0,1,3.3,3.156,3.273,3.273,0,0,1-1.68,2.848v.044a3.708,3.708,0,0,1,1.984,3.344,3.628,3.628,0,0,1-3.844,3.759A3.453,3.453,0,0,1,37.56,32.507Zm5.091-.147a2.637,2.637,0,0,0-1.477-2.371,2.644,2.644,0,0,0-1.111,2.235c0,1.109.448,2.038,1.333,2.038C42.217,34.262,42.651,33.438,42.651,32.36Zm-2.309-6.2A2.122,2.122,0,0,0,41.605,28.1a2.134,2.134,0,0,0,.882-1.833c0-.87-.289-1.672-1.051-1.672S40.342,25.357,40.342,26.163Z" transform="translate(-14.668 -22.858)"/>
    <path d="M33.457,29.372c0,4.61-1.674,6.638-3.754,6.638-2.793,0-3.735-3.211-3.735-6.513,0-3.691,1.175-6.638,3.831-6.638C32.78,22.859,33.457,26.319,33.457,29.372Zm-4.892.063c-.031,3,.336,4.361,1.214,4.361.792,0,1.081-1.42,1.081-4.361,0-2.755-.258-4.362-1.085-4.362C28.963,25.073,28.549,26.462,28.565,29.435Z" transform="translate(-14.668 -22.858)"/>
  </g>
</svg>