<svg width="30.677" height="12.993" xmlns="http://www.w3.org/2000/svg" viewBox="0 0 30.677 12.993">
  <g>
    <path d="M14.668,35.851V34.107l1.275-1.631c1.663-2.117,3.02-3.877,3.02-5.707a1.571,1.571,0,0,0-1.639-1.754,3.694,3.694,0,0,0-1.926.641l-.456-2a5.563,5.563,0,0,1,2.851-.8,3.407,3.407,0,0,1,3.721,3.719c0,2.409-1.511,4.33-2.982,6.046l-.768.906v.04h3.921v2.281Z" transform="translate(-14.668 -22.859)"/>
    <path d="M41.777,35.851V32.783h-4.4V31.012l4.2-8h2.5v7.7h1.275v2.07H44.07v3.068Zm0-5.138V28.088c0-.68.072-1.432.13-2.115h-.063c-.3.711-.556,1.292-.905,2l-1.364,2.7v.039Z" transform="translate(-14.668 -22.859)"/>
    <path d="M29.039,25.453H29l-2.175,1.116-.436-2.026,2.941-1.525H31.6V35.852H29.039Z" transform="translate(-14.668 -22.859)"/>
  </g>
</svg>