<svg width="30.487" height="13.15" xmlns="http://www.w3.org/2000/svg" viewBox="0 0 30.487 13.15">
  <g>
    <path d="M14.668,35.851V34.107l1.275-1.631c1.663-2.117,3.02-3.877,3.02-5.707a1.571,1.571,0,0,0-1.639-1.754,3.694,3.694,0,0,0-1.926.641l-.456-2a5.563,5.563,0,0,1,2.851-.8,3.407,3.407,0,0,1,3.721,3.719c0,2.409-1.511,4.33-2.982,6.046l-.768.906v.04h3.921v2.281Z" transform="translate(-14.668 -22.858)"/>
    <path d="M37.56,32.507a3.986,3.986,0,0,1,1.931-3.414l-.005-.04a3.362,3.362,0,0,1,2.064-6.195,3.13,3.13,0,0,1,3.3,3.156,3.273,3.273,0,0,1-1.68,2.848v.044a3.708,3.708,0,0,1,1.984,3.344,3.628,3.628,0,0,1-3.844,3.759A3.453,3.453,0,0,1,37.56,32.507Zm5.091-.147a2.637,2.637,0,0,0-1.477-2.371,2.644,2.644,0,0,0-1.111,2.235c0,1.109.448,2.038,1.333,2.038C42.217,34.262,42.651,33.438,42.651,32.36Zm-2.309-6.2A2.122,2.122,0,0,0,41.605,28.1a2.134,2.134,0,0,0,.882-1.833c0-.87-.289-1.672-1.051-1.672S40.342,25.357,40.342,26.163Z" transform="translate(-14.668 -22.858)"/>
    <path d="M29.039,25.453H29l-2.175,1.116-.436-2.026,2.941-1.525H31.6V35.852H29.039Z" transform="translate(-14.668 -22.858)"/>
  </g>
</svg>