<svg width="18.762" height="12.992" xmlns="http://www.w3.org/2000/svg" viewBox="0 0 18.762 12.992">
  <g>
    <path d="M19.859,35.851V34.107l1.275-1.631c1.664-2.117,3.02-3.877,3.02-5.707a1.572,1.572,0,0,0-1.638-1.755,3.682,3.682,0,0,0-1.926.642l-.456-2a5.562,5.562,0,0,1,2.85-.8,3.407,3.407,0,0,1,3.721,3.719c0,2.409-1.51,4.33-2.981,6.047l-.769.906v.04h3.922v2.281Z" transform="translate(-19.859 -22.858)"/>
    <path d="M31.6,35.851V34.107l1.274-1.631c1.664-2.117,3.02-3.877,3.02-5.707a1.572,1.572,0,0,0-1.638-1.755,3.682,3.682,0,0,0-1.926.642l-.456-2a5.563,5.563,0,0,1,2.851-.8,3.406,3.406,0,0,1,3.72,3.719c0,2.409-1.51,4.33-2.981,6.047l-.769.906v.04h3.922v2.281Z" transform="translate(-19.859 -22.858)"/>
  </g>
</svg>