<svg width="29.921" height="13.151" xmlns="http://www.w3.org/2000/svg" viewBox="0 0 29.921 13.151">
  <g>
    <path d="M14.668,35.851V34.107l1.275-1.631c1.663-2.117,3.02-3.877,3.02-5.707a1.571,1.571,0,0,0-1.639-1.754,3.694,3.694,0,0,0-1.926.641l-.456-2a5.563,5.563,0,0,1,2.851-.8,3.407,3.407,0,0,1,3.721,3.719c0,2.409-1.511,4.33-2.982,6.046l-.768.906v.04h3.921v2.281Z" transform="translate(-14.668 -22.859)"/>
    <path d="M44.365,25.266h-3.4l-.3,2.3c.131-.012.254-.012.393-.012a4.084,4.084,0,0,1,2.418.967,3.9,3.9,0,0,1,1.112,2.954,4.3,4.3,0,0,1-4.469,4.534,5.594,5.594,0,0,1-2.411-.515l.394-2.046a4.3,4.3,0,0,0,1.835.44,1.983,1.983,0,0,0,2.1-2.174c0-1.729-1.3-2.3-2.779-2.3a6.361,6.361,0,0,0-.926.048l.717-6.441h5.314Z" transform="translate(-14.668 -22.859)"/>
    <path d="M26.35,33.4a4.026,4.026,0,0,0,1.91.506,1.78,1.78,0,0,0,1.953-1.86c0-1.431-1.1-2.028-2.409-2.044h-.355V28.11H27.7c.95-.016,2.159-.417,2.159-1.653a1.371,1.371,0,0,0-1.489-1.477,3.084,3.084,0,0,0-1.616.5l-.346-1.944a5.272,5.272,0,0,1,2.637-.677,3.073,3.073,0,0,1,3.4,3.1A3.127,3.127,0,0,1,30.6,28.834v.039a3.256,3.256,0,0,1,2.2,3.265A3.947,3.947,0,0,1,28.5,36.01a5.381,5.381,0,0,1-2.513-.566Z" transform="translate(-14.668 -22.859)"/>
  </g>
</svg>