<svg width="30.487" height="13.151" xmlns="http://www.w3.org/2000/svg" viewBox="0 0 30.487 13.151">
  <g>
    <path d="M14.668,35.851V34.107l1.275-1.631c1.663-2.117,3.02-3.877,3.02-5.707a1.571,1.571,0,0,0-1.639-1.754,3.694,3.694,0,0,0-1.926.641l-.456-2a5.563,5.563,0,0,1,2.851-.8,3.407,3.407,0,0,1,3.721,3.719c0,2.409-1.511,4.33-2.982,6.046l-.768.906v.04h3.921v2.281Z" transform="translate(-14.668 -22.858)"/>
    <path d="M37.56,32.507a3.986,3.986,0,0,1,1.931-3.414l-.005-.04a3.362,3.362,0,0,1,2.064-6.195,3.13,3.13,0,0,1,3.3,3.156,3.273,3.273,0,0,1-1.68,2.848v.044a3.708,3.708,0,0,1,1.984,3.344,3.628,3.628,0,0,1-3.844,3.759A3.453,3.453,0,0,1,37.56,32.507Zm5.091-.147a2.637,2.637,0,0,0-1.477-2.371,2.644,2.644,0,0,0-1.111,2.235c0,1.109.448,2.038,1.333,2.038C42.217,34.262,42.651,33.438,42.651,32.36Zm-2.309-6.2A2.122,2.122,0,0,0,41.605,28.1a2.134,2.134,0,0,0,.882-1.833c0-.87-.289-1.672-1.051-1.672S40.342,25.357,40.342,26.163Z" transform="translate(-14.668 -22.858)"/>
    <path d="M26.35,33.4a4.026,4.026,0,0,0,1.91.506,1.78,1.78,0,0,0,1.953-1.86c0-1.431-1.1-2.028-2.409-2.044h-.355V28.11H27.7c.95-.016,2.159-.417,2.159-1.653a1.371,1.371,0,0,0-1.489-1.477,3.084,3.084,0,0,0-1.616.5l-.346-1.944a5.272,5.272,0,0,1,2.637-.677,3.073,3.073,0,0,1,3.4,3.1A3.127,3.127,0,0,1,30.6,28.834v.039a3.256,3.256,0,0,1,2.2,3.265A3.947,3.947,0,0,1,28.5,36.01a5.381,5.381,0,0,1-2.513-.566Z" transform="translate(-14.668 -22.858)"/>
  </g>
</svg>