<svg width="30.257" height="12.993" xmlns="http://www.w3.org/2000/svg" viewBox="0 0 30.257 12.993">
  <g>
    <path d="M14.668,35.851V34.107l1.275-1.631c1.663-2.117,3.02-3.877,3.02-5.707a1.571,1.571,0,0,0-1.639-1.754,3.694,3.694,0,0,0-1.926.641l-.456-2a5.563,5.563,0,0,1,2.851-.8,3.407,3.407,0,0,1,3.721,3.719c0,2.409-1.511,4.33-2.982,6.046l-.768.906v.04h3.921v2.281Z" transform="translate(-14.668 -22.859)"/>
    <path d="M44.925,23.017v1.7L40.887,35.851H38.371L42.3,25.336V25.3H37.931v-2.28Z" transform="translate(-14.668 -22.859)"/>
    <path d="M30.125,35.852V32.784h-4.4V31.013l4.2-8h2.5v7.7h1.274v2.07H32.418v3.068Zm0-5.138V28.089c0-.68.071-1.432.129-2.115h-.063c-.295.711-.556,1.292-.9,2l-1.365,2.7v.039Z" transform="translate(-14.668 -22.859)"/>
  </g>
</svg>