<svg width="30.441" height="13.151" xmlns="http://www.w3.org/2000/svg" viewBox="0 0 30.441 13.151">
  <g>
    <path d="M14.668,35.851V34.107l1.275-1.631c1.663-2.117,3.02-3.877,3.02-5.707a1.571,1.571,0,0,0-1.639-1.754,3.694,3.694,0,0,0-1.926.641l-.456-2a5.563,5.563,0,0,1,2.851-.8,3.407,3.407,0,0,1,3.721,3.719c0,2.409-1.511,4.33-2.982,6.046l-.768.906v.04h3.921v2.281Z" transform="translate(-14.668 -22.858)"/>
    <path d="M45.109,29.371c0,4.61-1.673,6.638-3.754,6.638-2.793,0-3.734-3.211-3.734-6.513,0-3.691,1.175-6.638,3.831-6.638C44.433,22.858,45.109,26.318,45.109,29.371Zm-4.891.063c-.031,3,.336,4.361,1.214,4.361.792,0,1.081-1.42,1.081-4.361,0-2.755-.258-4.362-1.085-4.362C40.616,25.072,40.2,26.461,40.218,29.434Z" transform="translate(-14.668 -22.858)"/>
    <path d="M32.713,25.267h-3.4l-.3,2.3c.131-.012.254-.012.393-.012a4.082,4.082,0,0,1,2.418.967,3.9,3.9,0,0,1,1.113,2.954,4.3,4.3,0,0,1-4.47,4.534,5.594,5.594,0,0,1-2.411-.515l.394-2.046a4.3,4.3,0,0,0,1.835.44,1.983,1.983,0,0,0,2.1-2.174c0-1.729-1.3-2.3-2.779-2.3a6.527,6.527,0,0,0-.926.047l.717-6.44h5.315Z" transform="translate(-14.668 -22.858)"/>
  </g>
</svg>