<svg width="19.289" height="13.15" xmlns="http://www.w3.org/2000/svg" viewBox="0 0 19.289 13.15">
  <g>
    <path d="M19.859,35.851V34.107l1.275-1.631c1.664-2.117,3.02-3.877,3.02-5.707a1.572,1.572,0,0,0-1.638-1.755,3.682,3.682,0,0,0-1.926.642l-.456-2a5.562,5.562,0,0,1,2.85-.8,3.407,3.407,0,0,1,3.721,3.719c0,2.409-1.51,4.33-2.981,6.047l-.769.906v.04h3.922v2.281Z" transform="translate(-19.859 -22.858)"/>
    <path d="M38.123,24.956a7.157,7.157,0,0,0-1.059.134c-1.7.368-2.542,1.8-2.869,3.413h.071a2.421,2.421,0,0,1,1.979-1.02c1.72,0,2.9,1.559,2.9,3.976,0,2.251-1.16,4.55-3.669,4.55-2.427,0-3.9-2.1-3.9-5.3a8.423,8.423,0,0,1,2.1-5.979,6.063,6.063,0,0,1,3.147-1.739,10.858,10.858,0,0,1,1.295-.135Zm-1.541,6.5c-.016-1.094-.358-2.115-1.2-2.115a1.191,1.191,0,0,0-1.053.857,3.308,3.308,0,0,0-.13,1.129c.005,1.677.483,2.812,1.251,2.812C36.306,34.137,36.582,32.983,36.582,31.454Z" transform="translate(-19.859 -22.858)"/>
  </g>
</svg>