<svg width="19.261" height="13.15" xmlns="http://www.w3.org/2000/svg" viewBox="0 0 19.261 13.15">
  <g>
    <path d="M19.859,35.851V34.107l1.275-1.631c1.664-2.117,3.02-3.877,3.02-5.707a1.572,1.572,0,0,0-1.638-1.755,3.682,3.682,0,0,0-1.926.642l-.456-2a5.562,5.562,0,0,1,2.85-.8,3.407,3.407,0,0,1,3.721,3.719c0,2.409-1.51,4.33-2.981,6.047l-.769.906v.04h3.922v2.281Z" transform="translate(-19.859 -22.858)"/>
    <path d="M31.524,32.507a3.985,3.985,0,0,1,1.932-3.414l-.005-.04a3.362,3.362,0,0,1,2.064-6.195,3.129,3.129,0,0,1,3.3,3.156,3.271,3.271,0,0,1-1.679,2.848v.044A3.708,3.708,0,0,1,39.12,32.25a3.629,3.629,0,0,1-3.845,3.759A3.454,3.454,0,0,1,31.524,32.507Zm5.092-.147a2.637,2.637,0,0,0-1.477-2.371,2.642,2.642,0,0,0-1.111,2.235c0,1.109.448,2.038,1.333,2.038C36.182,34.262,36.616,33.438,36.616,32.36Zm-2.309-6.2A2.122,2.122,0,0,0,35.57,28.1a2.136,2.136,0,0,0,.882-1.833c0-.87-.289-1.672-1.052-1.672S34.307,25.357,34.307,26.163Z" transform="translate(-19.859 -22.858)"/>
  </g>
</svg>