<svg width="19.207" height="13.151" xmlns="http://www.w3.org/2000/svg" viewBox="0 0 19.207 13.151">
  <g>
    <path d="M19.859,35.851V34.107l1.275-1.631c1.664-2.117,3.02-3.877,3.02-5.707a1.572,1.572,0,0,0-1.638-1.755,3.682,3.682,0,0,0-1.926.642l-.456-2a5.562,5.562,0,0,1,2.85-.8,3.407,3.407,0,0,1,3.721,3.719c0,2.409-1.51,4.33-2.981,6.047l-.769.906v.04h3.922v2.281Z" transform="translate(-19.859 -22.858)"/>
    <path d="M32.584,33.864a5.6,5.6,0,0,0,1.184-.1,3.262,3.262,0,0,0,1.505-.776A4.927,4.927,0,0,0,36.512,30.4h-.055a2.394,2.394,0,0,1-1.831.792c-1.669,0-3.023-1.481-3.023-3.837,0-2.2,1.348-4.5,3.816-4.5,2.39,0,3.647,2.176,3.647,5.277a8.836,8.836,0,0,1-2.111,6.19,5.428,5.428,0,0,1-3.17,1.623,7.185,7.185,0,0,1-1.2.061Zm1.569-6.715c.015,1.243.406,2.264,1.2,2.264a1.141,1.141,0,0,0,.989-.663,3.974,3.974,0,0,0,.119-1.377c0-1.683-.48-2.643-1.172-2.643C34.624,24.73,34.122,25.586,34.153,27.149Z" transform="translate(-19.859 -22.858)"/>
  </g>
</svg>