<svg width="19.213" height="13.15" xmlns="http://www.w3.org/2000/svg" viewBox="0 0 19.213 13.15">
  <g>
    <path d="M20.224,33.4a4.023,4.023,0,0,0,1.91.506,1.78,1.78,0,0,0,1.953-1.86c0-1.431-1.105-2.028-2.409-2.044h-.356v-1.89h.254c.95-.016,2.159-.417,2.159-1.653a1.371,1.371,0,0,0-1.489-1.477,3.084,3.084,0,0,0-1.615.5l-.347-1.944a5.273,5.273,0,0,1,2.638-.677,3.072,3.072,0,0,1,3.395,3.1,3.126,3.126,0,0,1-1.845,2.878v.039a3.256,3.256,0,0,1,2.2,3.265,3.947,3.947,0,0,1-4.294,3.872,5.388,5.388,0,0,1-2.514-.566Z" transform="translate(-19.861 -22.858)"/>
    <path d="M39.074,29.371c0,4.61-1.674,6.638-3.754,6.638-2.793,0-3.734-3.211-3.734-6.513,0-3.691,1.175-6.638,3.831-6.638C38.4,22.858,39.074,26.318,39.074,29.371Zm-4.891.063c-.032,3,.336,4.361,1.213,4.361.792,0,1.082-1.42,1.082-4.361,0-2.755-.258-4.362-1.085-4.362C34.581,25.072,34.167,26.461,34.183,29.434Z" transform="translate(-19.861 -22.858)"/>
  </g>
</svg>