<svg width="18.692" height="13.15" xmlns="http://www.w3.org/2000/svg" viewBox="0 0 18.692 13.15">
  <g>
    <path d="M20.224,33.4a4.023,4.023,0,0,0,1.91.506,1.78,1.78,0,0,0,1.953-1.86c0-1.431-1.105-2.028-2.409-2.044h-.356v-1.89h.254c.95-.016,2.159-.417,2.159-1.653a1.371,1.371,0,0,0-1.489-1.477,3.084,3.084,0,0,0-1.615.5l-.347-1.944a5.273,5.273,0,0,1,2.638-.677,3.072,3.072,0,0,1,3.395,3.1,3.126,3.126,0,0,1-1.845,2.878v.039a3.256,3.256,0,0,1,2.2,3.265,3.947,3.947,0,0,1-4.294,3.872,5.388,5.388,0,0,1-2.514-.566Z" transform="translate(-19.861 -22.858)"/>
    <path d="M38.33,25.266h-3.4l-.3,2.3c.131-.012.254-.012.392-.012a4.08,4.08,0,0,1,2.418.967,3.9,3.9,0,0,1,1.113,2.954,4.3,4.3,0,0,1-4.469,4.534,5.594,5.594,0,0,1-2.411-.515l.393-2.046a4.311,4.311,0,0,0,1.835.44A1.983,1.983,0,0,0,36,31.714c0-1.729-1.3-2.3-2.779-2.3a6.352,6.352,0,0,0-.926.048l.717-6.441H38.33Z" transform="translate(-19.861 -22.858)"/>
  </g>
</svg>