<svg width="19.259" height="13.15" xmlns="http://www.w3.org/2000/svg" viewBox="0 0 19.259 13.15">
  <g>
    <path d="M20.224,33.4a4.023,4.023,0,0,0,1.91.506,1.78,1.78,0,0,0,1.953-1.86c0-1.431-1.105-2.028-2.409-2.044h-.356v-1.89h.254c.95-.016,2.159-.417,2.159-1.653a1.371,1.371,0,0,0-1.489-1.477,3.084,3.084,0,0,0-1.615.5l-.347-1.944a5.273,5.273,0,0,1,2.638-.677,3.072,3.072,0,0,1,3.395,3.1,3.126,3.126,0,0,1-1.845,2.878v.039a3.256,3.256,0,0,1,2.2,3.265,3.947,3.947,0,0,1-4.294,3.872,5.388,5.388,0,0,1-2.514-.566Z" transform="translate(-19.861 -22.858)"/>
    <path d="M31.524,32.507a3.985,3.985,0,0,1,1.932-3.414l-.005-.04a3.362,3.362,0,0,1,2.064-6.195,3.129,3.129,0,0,1,3.3,3.156,3.271,3.271,0,0,1-1.679,2.848v.044A3.708,3.708,0,0,1,39.12,32.25a3.629,3.629,0,0,1-3.845,3.759A3.454,3.454,0,0,1,31.524,32.507Zm5.092-.147a2.637,2.637,0,0,0-1.477-2.371,2.642,2.642,0,0,0-1.111,2.235c0,1.109.448,2.038,1.333,2.038C36.182,34.262,36.616,33.438,36.616,32.36Zm-2.309-6.2A2.122,2.122,0,0,0,35.57,28.1a2.136,2.136,0,0,0,.882-1.833c0-.87-.289-1.672-1.052-1.672S34.307,25.357,34.307,26.163Z" transform="translate(-19.861 -22.858)"/>
  </g>
</svg>