<svg width="19.479" height="13.15" xmlns="http://www.w3.org/2000/svg" viewBox="0 0 19.479 13.15">
  <g>
    <path d="M24,35.851V32.783H19.6V31.012l4.2-8h2.5v7.7h1.274v2.07H26.291v3.068Zm0-5.138V28.088c0-.68.071-1.432.13-2.115h-.064c-.294.711-.555,1.292-.9,2l-1.364,2.7v.039Z" transform="translate(-19.595 -22.858)"/>
    <path d="M39.074,29.371c0,4.61-1.674,6.638-3.754,6.638-2.793,0-3.734-3.211-3.734-6.513,0-3.691,1.175-6.638,3.831-6.638C38.4,22.858,39.074,26.318,39.074,29.371Zm-4.891.063c-.032,3,.336,4.361,1.213,4.361.792,0,1.082-1.42,1.082-4.361,0-2.755-.258-4.362-1.085-4.362C34.581,25.072,34.167,26.461,34.183,29.434Z" transform="translate(-19.595 -22.858)"/>
  </g>
</svg>