<svg width="19.026" height="12.992" xmlns="http://www.w3.org/2000/svg" viewBox="0 0 19.026 12.992">
  <g>
    <path d="M24,35.851V32.783H19.6V31.012l4.2-8h2.5v7.7h1.274v2.07H26.291v3.068Zm0-5.138V28.088c0-.68.071-1.432.13-2.115h-.064c-.294.711-.555,1.292-.9,2l-1.364,2.7v.039Z" transform="translate(-19.595 -22.858)"/>
    <path d="M31.6,35.851V34.107l1.274-1.631c1.664-2.117,3.02-3.877,3.02-5.707a1.572,1.572,0,0,0-1.638-1.755,3.682,3.682,0,0,0-1.926.642l-.456-2a5.563,5.563,0,0,1,2.851-.8,3.406,3.406,0,0,1,3.72,3.719c0,2.409-1.51,4.33-2.981,6.047l-.769.906v.04h3.922v2.281Z" transform="translate(-19.595 -22.858)"/>
  </g>
</svg>