<svg width="19.715" height="12.834" xmlns="http://www.w3.org/2000/svg" viewBox="0 0 19.715 12.834">
  <g>
    <path d="M24,35.851V32.783H19.6V31.012l4.2-8h2.5v7.7h1.274v2.07H26.291v3.068Zm0-5.138V28.088c0-.68.071-1.432.13-2.115h-.064c-.294.711-.555,1.292-.9,2l-1.364,2.7v.039Z" transform="translate(-19.595 -23.017)"/>
    <path d="M35.742,35.851V32.783h-4.4V31.012l4.2-8h2.5v7.7H39.31v2.07H38.035v3.068Zm0-5.138V28.088c0-.68.071-1.432.13-2.115h-.063c-.295.711-.556,1.292-.9,2l-1.364,2.7v.039Z" transform="translate(-19.595 -23.017)"/>
  </g>
</svg>