<svg width="18.959" height="12.992" xmlns="http://www.w3.org/2000/svg" viewBox="0 0 18.959 12.992">
  <g>
    <path d="M24,35.851V32.783H19.6V31.012l4.2-8h2.5v7.7h1.274v2.07H26.291v3.068Zm0-5.138V28.088c0-.68.071-1.432.13-2.115h-.064c-.294.711-.555,1.292-.9,2l-1.364,2.7v.039Z" transform="translate(-19.595 -23.017)"/>
    <path d="M38.33,25.266h-3.4l-.3,2.3c.131-.012.254-.012.392-.012a4.08,4.08,0,0,1,2.418.967,3.9,3.9,0,0,1,1.113,2.954,4.3,4.3,0,0,1-4.469,4.534,5.594,5.594,0,0,1-2.411-.515l.393-2.046a4.311,4.311,0,0,0,1.835.44A1.983,1.983,0,0,0,36,31.714c0-1.729-1.3-2.3-2.779-2.3a6.352,6.352,0,0,0-.926.048l.717-6.441H38.33Z" transform="translate(-19.595 -23.017)"/>
  </g>
</svg>