<svg width="19.554" height="13.15" xmlns="http://www.w3.org/2000/svg" viewBox="0 0 19.554 13.15">
  <g>
    <path d="M24,35.851V32.783H19.6V31.012l4.2-8h2.5v7.7h1.274v2.07H26.291v3.068Zm0-5.138V28.088c0-.68.071-1.432.13-2.115h-.064c-.294.711-.555,1.292-.9,2l-1.364,2.7v.039Z" transform="translate(-19.595 -22.858)"/>
    <path d="M38.123,24.956a7.157,7.157,0,0,0-1.059.134c-1.7.368-2.542,1.8-2.869,3.413h.071a2.421,2.421,0,0,1,1.979-1.02c1.72,0,2.9,1.559,2.9,3.976,0,2.251-1.16,4.55-3.669,4.55-2.427,0-3.9-2.1-3.9-5.3a8.423,8.423,0,0,1,2.1-5.979,6.063,6.063,0,0,1,3.147-1.739,10.858,10.858,0,0,1,1.295-.135Zm-1.541,6.5c-.016-1.094-.358-2.115-1.2-2.115a1.191,1.191,0,0,0-1.053.857,3.308,3.308,0,0,0-.13,1.129c.005,1.677.483,2.812,1.251,2.812C36.306,34.137,36.582,32.983,36.582,31.454Z" transform="translate(-19.595 -22.858)"/>
  </g>
</svg>