<svg width="18.691" height="13.15" xmlns="http://www.w3.org/2000/svg" viewBox="0 0 18.691 13.15">
  <g>
    <path d="M26.586,25.266h-3.4l-.3,2.3c.131-.012.254-.012.392-.012a4.08,4.08,0,0,1,2.418.967,3.9,3.9,0,0,1,1.113,2.954,4.3,4.3,0,0,1-4.469,4.534,5.59,5.59,0,0,1-2.411-.515l.393-2.046a4.311,4.311,0,0,0,1.835.44,1.983,1.983,0,0,0,2.1-2.174c0-1.729-1.3-2.3-2.78-2.3a6.346,6.346,0,0,0-.925.048l.716-6.441h5.315Z" transform="translate(-19.93 -22.858)"/>
    <path d="M31.6,35.851V34.107l1.274-1.631c1.664-2.117,3.02-3.877,3.02-5.707a1.572,1.572,0,0,0-1.638-1.755,3.682,3.682,0,0,0-1.926.642l-.456-2a5.563,5.563,0,0,1,2.851-.8,3.406,3.406,0,0,1,3.72,3.719c0,2.409-1.51,4.33-2.981,6.047l-.769.906v.04h3.922v2.281Z" transform="translate(-19.93 -22.858)"/>
  </g>
</svg>