<svg width="19.38" height="12.992" xmlns="http://www.w3.org/2000/svg" viewBox="0 0 19.38 12.992">
  <g>
    <path d="M26.586,25.266h-3.4l-.3,2.3c.131-.012.254-.012.392-.012a4.08,4.08,0,0,1,2.418.967,3.9,3.9,0,0,1,1.113,2.954,4.3,4.3,0,0,1-4.469,4.534,5.59,5.59,0,0,1-2.411-.515l.393-2.046a4.311,4.311,0,0,0,1.835.44,1.983,1.983,0,0,0,2.1-2.174c0-1.729-1.3-2.3-2.78-2.3a6.346,6.346,0,0,0-.925.048l.716-6.441h5.315Z" transform="translate(-19.93 -23.017)"/>
    <path d="M35.742,35.851V32.783h-4.4V31.012l4.2-8h2.5v7.7H39.31v2.07H38.035v3.068Zm0-5.138V28.088c0-.68.071-1.432.13-2.115h-.063c-.295.711-.556,1.292-.9,2l-1.364,2.7v.039Z" transform="translate(-19.93 -23.017)"/>
  </g>
</svg>