<svg width="19.219" height="13.15" xmlns="http://www.w3.org/2000/svg" viewBox="0 0 19.219 13.15">
  <g>
    <path d="M26.586,25.266h-3.4l-.3,2.3c.131-.012.254-.012.392-.012a4.08,4.08,0,0,1,2.418.967,3.9,3.9,0,0,1,1.113,2.954,4.3,4.3,0,0,1-4.469,4.534,5.59,5.59,0,0,1-2.411-.515l.393-2.046a4.311,4.311,0,0,0,1.835.44,1.983,1.983,0,0,0,2.1-2.174c0-1.729-1.3-2.3-2.78-2.3a6.346,6.346,0,0,0-.925.048l.716-6.441h5.315Z" transform="translate(-19.93 -22.858)"/>
    <path d="M38.123,24.956a7.157,7.157,0,0,0-1.059.134c-1.7.368-2.542,1.8-2.869,3.413h.071a2.421,2.421,0,0,1,1.979-1.02c1.72,0,2.9,1.559,2.9,3.976,0,2.251-1.16,4.55-3.669,4.55-2.427,0-3.9-2.1-3.9-5.3a8.423,8.423,0,0,1,2.1-5.979,6.063,6.063,0,0,1,3.147-1.739,10.858,10.858,0,0,1,1.295-.135Zm-1.541,6.5c-.016-1.094-.358-2.115-1.2-2.115a1.191,1.191,0,0,0-1.053.857,3.308,3.308,0,0,0-.13,1.129c.005,1.677.483,2.812,1.251,2.812C36.306,34.137,36.582,32.983,36.582,31.454Z" transform="translate(-19.93 -22.858)"/>
  </g>
</svg>