<svg width="18.96" height="12.992" xmlns="http://www.w3.org/2000/svg" viewBox="0 0 18.96 12.992">
  <g>
    <path d="M26.586,25.266h-3.4l-.3,2.3c.131-.012.254-.012.392-.012a4.08,4.08,0,0,1,2.418.967,3.9,3.9,0,0,1,1.113,2.954,4.3,4.3,0,0,1-4.469,4.534,5.59,5.59,0,0,1-2.411-.515l.393-2.046a4.311,4.311,0,0,0,1.835.44,1.983,1.983,0,0,0,2.1-2.174c0-1.729-1.3-2.3-2.78-2.3a6.346,6.346,0,0,0-.925.048l.716-6.441h5.315Z" transform="translate(-19.93 -23.017)"/>
    <path d="M38.89,23.017v1.7L34.852,35.851H32.336l3.933-10.515V25.3H31.9v-2.28Z" transform="translate(-19.93 -23.017)"/>
  </g>
</svg>