<svg width="19.137" height="13.151" xmlns="http://www.w3.org/2000/svg" viewBox="0 0 19.137 13.151">
  <g>
    <path d="M26.586,25.266h-3.4l-.3,2.3c.131-.012.254-.012.392-.012a4.08,4.08,0,0,1,2.418.967,3.9,3.9,0,0,1,1.113,2.954,4.3,4.3,0,0,1-4.469,4.534,5.59,5.59,0,0,1-2.411-.515l.393-2.046a4.311,4.311,0,0,0,1.835.44,1.983,1.983,0,0,0,2.1-2.174c0-1.729-1.3-2.3-2.78-2.3a6.346,6.346,0,0,0-.925.048l.716-6.441h5.315Z" transform="translate(-19.93 -22.858)"/>
    <path d="M32.584,33.864a5.6,5.6,0,0,0,1.184-.1,3.262,3.262,0,0,0,1.505-.776A4.927,4.927,0,0,0,36.512,30.4h-.055a2.394,2.394,0,0,1-1.831.792c-1.669,0-3.023-1.481-3.023-3.837,0-2.2,1.348-4.5,3.816-4.5,2.39,0,3.647,2.176,3.647,5.277a8.836,8.836,0,0,1-2.111,6.19,5.428,5.428,0,0,1-3.17,1.623,7.185,7.185,0,0,1-1.2.061Zm1.569-6.715c.015,1.243.406,2.264,1.2,2.264a1.141,1.141,0,0,0,.989-.663,3.974,3.974,0,0,0,.119-1.377c0-1.683-.48-2.643-1.172-2.643C34.624,24.73,34.122,25.586,34.153,27.149Z" transform="translate(-19.93 -22.858)"/>
  </g>
</svg>