<svg width="7.566" height="13.15" xmlns="http://www.w3.org/2000/svg" viewBox="0 0 7.566 13.15">
  <path d="M32.506,24.957a7.157,7.157,0,0,0-1.059.134c-1.7.367-2.542,1.8-2.869,3.413h.07a2.421,2.421,0,0,1,1.979-1.02c1.721,0,2.9,1.559,2.9,3.976,0,2.251-1.16,4.55-3.669,4.55-2.428,0-3.9-2.1-3.9-5.3a8.423,8.423,0,0,1,2.1-5.979,6.066,6.066,0,0,1,3.148-1.739,10.838,10.838,0,0,1,1.3-.135Zm-1.542,6.5c-.015-1.094-.358-2.115-1.2-2.115a1.192,1.192,0,0,0-1.053.857,3.308,3.308,0,0,0-.13,1.129c0,1.677.483,2.812,1.251,2.812C30.688,34.138,30.964,32.984,30.964,31.455Z" transform="translate(-25.965 -22.859)"/>
</svg>