<svg width="19.235" height="13.15" xmlns="http://www.w3.org/2000/svg" viewBox="0 0 19.235 13.15">
  <g>
    <path d="M26.379,24.956a7.157,7.157,0,0,0-1.059.134c-1.7.368-2.542,1.8-2.869,3.413h.07a2.425,2.425,0,0,1,1.98-1.02c1.72,0,2.9,1.559,2.9,3.976,0,2.251-1.16,4.55-3.669,4.55-2.427,0-3.9-2.1-3.9-5.3a8.423,8.423,0,0,1,2.1-5.979,6.059,6.059,0,0,1,3.147-1.739,10.858,10.858,0,0,1,1.3-.135Zm-1.541,6.5c-.016-1.094-.359-2.115-1.2-2.115a1.19,1.19,0,0,0-1.053.857,3.308,3.308,0,0,0-.13,1.129c.005,1.677.482,2.812,1.251,2.812C24.562,34.137,24.838,32.983,24.838,31.454Z" transform="translate(-19.839 -22.858)"/>
    <path d="M39.074,29.371c0,4.61-1.674,6.638-3.754,6.638-2.793,0-3.734-3.211-3.734-6.513,0-3.691,1.175-6.638,3.831-6.638C38.4,22.858,39.074,26.318,39.074,29.371Zm-4.891.063c-.032,3,.336,4.361,1.213,4.361.792,0,1.082-1.42,1.082-4.361,0-2.755-.258-4.362-1.085-4.362C34.581,25.072,34.167,26.461,34.183,29.434Z" transform="translate(-19.839 -22.858)"/>
  </g>
</svg>