<svg width="18.574" height="13.15" xmlns="http://www.w3.org/2000/svg" viewBox="0 0 18.574 13.15">
  <g>
    <path d="M26.379,24.956a7.157,7.157,0,0,0-1.059.134c-1.7.368-2.542,1.8-2.869,3.413h.07a2.425,2.425,0,0,1,1.98-1.02c1.72,0,2.9,1.559,2.9,3.976,0,2.251-1.16,4.55-3.669,4.55-2.427,0-3.9-2.1-3.9-5.3a8.423,8.423,0,0,1,2.1-5.979,6.059,6.059,0,0,1,3.147-1.739,10.858,10.858,0,0,1,1.3-.135Zm-1.541,6.5c-.016-1.094-.359-2.115-1.2-2.115a1.19,1.19,0,0,0-1.053.857,3.308,3.308,0,0,0-.13,1.129c.005,1.677.482,2.812,1.251,2.812C24.562,34.137,24.838,32.983,24.838,31.454Z" transform="translate(-19.839 -22.858)"/>
    <path d="M31.968,33.4a4.026,4.026,0,0,0,1.91.506,1.78,1.78,0,0,0,1.953-1.86c0-1.431-1.1-2.028-2.409-2.044h-.356v-1.89h.254c.951-.016,2.159-.417,2.159-1.653a1.371,1.371,0,0,0-1.489-1.477,3.084,3.084,0,0,0-1.615.5l-.347-1.944a5.279,5.279,0,0,1,2.638-.677,3.073,3.073,0,0,1,3.4,3.1,3.127,3.127,0,0,1-1.846,2.878v.039a3.256,3.256,0,0,1,2.2,3.265,3.947,3.947,0,0,1-4.294,3.872,5.388,5.388,0,0,1-2.514-.566Z" transform="translate(-19.839 -22.858)"/>
  </g>
</svg>