<svg width="18.715" height="13.15" xmlns="http://www.w3.org/2000/svg" viewBox="0 0 18.715 13.15">
  <g>
    <path d="M26.379,24.956a7.157,7.157,0,0,0-1.059.134c-1.7.368-2.542,1.8-2.869,3.413h.07a2.425,2.425,0,0,1,1.98-1.02c1.72,0,2.9,1.559,2.9,3.976,0,2.251-1.16,4.55-3.669,4.55-2.427,0-3.9-2.1-3.9-5.3a8.423,8.423,0,0,1,2.1-5.979,6.059,6.059,0,0,1,3.147-1.739,10.858,10.858,0,0,1,1.3-.135Zm-1.541,6.5c-.016-1.094-.359-2.115-1.2-2.115a1.19,1.19,0,0,0-1.053.857,3.308,3.308,0,0,0-.13,1.129c.005,1.677.482,2.812,1.251,2.812C24.562,34.137,24.838,32.983,24.838,31.454Z" transform="translate(-19.839 -22.858)"/>
    <path d="M38.33,25.266h-3.4l-.3,2.3c.131-.012.254-.012.392-.012a4.08,4.08,0,0,1,2.418.967,3.9,3.9,0,0,1,1.113,2.954,4.3,4.3,0,0,1-4.469,4.534,5.594,5.594,0,0,1-2.411-.515l.393-2.046a4.311,4.311,0,0,0,1.835.44A1.983,1.983,0,0,0,36,31.714c0-1.729-1.3-2.3-2.779-2.3a6.352,6.352,0,0,0-.926.048l.717-6.441H38.33Z" transform="translate(-19.839 -22.858)"/>
  </g>
</svg>