<svg width="19.281" height="13.15" xmlns="http://www.w3.org/2000/svg" viewBox="0 0 19.281 13.15">
  <g>
    <path d="M26.379,24.956a7.157,7.157,0,0,0-1.059.134c-1.7.368-2.542,1.8-2.869,3.413h.07a2.425,2.425,0,0,1,1.98-1.02c1.72,0,2.9,1.559,2.9,3.976,0,2.251-1.16,4.55-3.669,4.55-2.427,0-3.9-2.1-3.9-5.3a8.423,8.423,0,0,1,2.1-5.979,6.059,6.059,0,0,1,3.147-1.739,10.858,10.858,0,0,1,1.3-.135Zm-1.541,6.5c-.016-1.094-.359-2.115-1.2-2.115a1.19,1.19,0,0,0-1.053.857,3.308,3.308,0,0,0-.13,1.129c.005,1.677.482,2.812,1.251,2.812C24.562,34.137,24.838,32.983,24.838,31.454Z" transform="translate(-19.839 -22.858)"/>
    <path d="M31.524,32.507a3.985,3.985,0,0,1,1.932-3.414l-.005-.04a3.362,3.362,0,0,1,2.064-6.195,3.129,3.129,0,0,1,3.3,3.156,3.271,3.271,0,0,1-1.679,2.848v.044A3.708,3.708,0,0,1,39.12,32.25a3.629,3.629,0,0,1-3.845,3.759A3.454,3.454,0,0,1,31.524,32.507Zm5.092-.147a2.637,2.637,0,0,0-1.477-2.371,2.642,2.642,0,0,0-1.111,2.235c0,1.109.448,2.038,1.333,2.038C36.182,34.262,36.616,33.438,36.616,32.36Zm-2.309-6.2A2.122,2.122,0,0,0,35.57,28.1a2.136,2.136,0,0,0,.882-1.833c0-.87-.289-1.672-1.052-1.672S34.307,25.357,34.307,26.163Z" transform="translate(-19.839 -22.858)"/>
  </g>
</svg>