<svg width="19.228" height="13.151" xmlns="http://www.w3.org/2000/svg" viewBox="0 0 19.228 13.151">
  <g>
    <path d="M26.379,24.956a7.157,7.157,0,0,0-1.059.134c-1.7.368-2.542,1.8-2.869,3.413h.07a2.425,2.425,0,0,1,1.98-1.02c1.72,0,2.9,1.559,2.9,3.976,0,2.251-1.16,4.55-3.669,4.55-2.427,0-3.9-2.1-3.9-5.3a8.423,8.423,0,0,1,2.1-5.979,6.059,6.059,0,0,1,3.147-1.739,10.858,10.858,0,0,1,1.3-.135Zm-1.541,6.5c-.016-1.094-.359-2.115-1.2-2.115a1.19,1.19,0,0,0-1.053.857,3.308,3.308,0,0,0-.13,1.129c.005,1.677.482,2.812,1.251,2.812C24.562,34.137,24.838,32.983,24.838,31.454Z" transform="translate(-19.839 -22.858)"/>
    <path d="M32.584,33.864a5.6,5.6,0,0,0,1.184-.1,3.262,3.262,0,0,0,1.505-.776A4.927,4.927,0,0,0,36.512,30.4h-.055a2.394,2.394,0,0,1-1.831.792c-1.669,0-3.023-1.481-3.023-3.837,0-2.2,1.348-4.5,3.816-4.5,2.39,0,3.647,2.176,3.647,5.277a8.836,8.836,0,0,1-2.111,6.19,5.428,5.428,0,0,1-3.17,1.623,7.185,7.185,0,0,1-1.2.061Zm1.569-6.715c.015,1.243.406,2.264,1.2,2.264a1.141,1.141,0,0,0,.989-.663,3.974,3.974,0,0,0,.119-1.377c0-1.683-.48-2.643-1.172-2.643C34.624,24.73,34.122,25.586,34.153,27.149Z" transform="translate(-19.839 -22.858)"/>
  </g>
</svg>