<svg width="18.262" height="13.15" xmlns="http://www.w3.org/2000/svg" viewBox="0 0 18.262 13.15">
  <g>
    <path d="M27.146,23.017v1.7L23.107,35.851H20.592l3.932-10.515V25.3H20.151v-2.28Z" transform="translate(-20.151 -22.858)"/>
    <path d="M31.968,33.4a4.026,4.026,0,0,0,1.91.506,1.78,1.78,0,0,0,1.953-1.86c0-1.431-1.1-2.028-2.409-2.044h-.356v-1.89h.254c.951-.016,2.159-.417,2.159-1.653a1.371,1.371,0,0,0-1.489-1.477,3.084,3.084,0,0,0-1.615.5l-.347-1.944a5.279,5.279,0,0,1,2.638-.677,3.073,3.073,0,0,1,3.4,3.1,3.127,3.127,0,0,1-1.846,2.878v.039a3.256,3.256,0,0,1,2.2,3.265,3.947,3.947,0,0,1-4.294,3.872,5.388,5.388,0,0,1-2.514-.566Z" transform="translate(-20.151 -22.858)"/>
  </g>
</svg>