<svg width="19.294" height="13.15" xmlns="http://www.w3.org/2000/svg" viewBox="0 0 19.294 13.15">
  <g>
    <path d="M19.78,32.507a3.985,3.985,0,0,1,1.932-3.414l0-.04a3.362,3.362,0,0,1,2.064-6.195,3.129,3.129,0,0,1,3.3,3.156,3.271,3.271,0,0,1-1.679,2.848v.044a3.708,3.708,0,0,1,1.984,3.344,3.629,3.629,0,0,1-3.845,3.759A3.454,3.454,0,0,1,19.78,32.507Zm5.092-.147A2.637,2.637,0,0,0,23.4,29.989a2.642,2.642,0,0,0-1.111,2.235c0,1.109.447,2.038,1.333,2.038C24.438,34.262,24.872,33.438,24.872,32.36Zm-2.31-6.2A2.121,2.121,0,0,0,23.826,28.1a2.136,2.136,0,0,0,.882-1.833c0-.87-.289-1.672-1.052-1.672S22.562,25.357,22.562,26.163Z" transform="translate(-19.78 -22.858)"/>
    <path d="M39.074,29.371c0,4.61-1.674,6.638-3.754,6.638-2.793,0-3.734-3.211-3.734-6.513,0-3.691,1.175-6.638,3.831-6.638C38.4,22.858,39.074,26.318,39.074,29.371Zm-4.891.063c-.032,3,.336,4.361,1.213,4.361.792,0,1.082-1.42,1.082-4.361,0-2.755-.258-4.362-1.085-4.362C34.581,25.072,34.167,26.461,34.183,29.434Z" transform="translate(-19.78 -22.858)"/>
  </g>
</svg>