<svg width="18.841" height="13.15" xmlns="http://www.w3.org/2000/svg" viewBox="0 0 18.841 13.15">
  <g>
    <path d="M19.78,32.507a3.985,3.985,0,0,1,1.932-3.414l0-.04a3.362,3.362,0,0,1,2.064-6.195,3.129,3.129,0,0,1,3.3,3.156,3.271,3.271,0,0,1-1.679,2.848v.044a3.708,3.708,0,0,1,1.984,3.344,3.629,3.629,0,0,1-3.845,3.759A3.454,3.454,0,0,1,19.78,32.507Zm5.092-.147A2.637,2.637,0,0,0,23.4,29.989a2.642,2.642,0,0,0-1.111,2.235c0,1.109.447,2.038,1.333,2.038C24.438,34.262,24.872,33.438,24.872,32.36Zm-2.31-6.2A2.121,2.121,0,0,0,23.826,28.1a2.136,2.136,0,0,0,.882-1.833c0-.87-.289-1.672-1.052-1.672S22.562,25.357,22.562,26.163Z" transform="translate(-19.78 -22.858)"/>
    <path d="M31.6,35.851V34.107l1.274-1.631c1.664-2.117,3.02-3.877,3.02-5.707a1.572,1.572,0,0,0-1.638-1.755,3.682,3.682,0,0,0-1.926.642l-.456-2a5.563,5.563,0,0,1,2.851-.8,3.406,3.406,0,0,1,3.72,3.719c0,2.409-1.51,4.33-2.981,6.047l-.769.906v.04h3.922v2.281Z" transform="translate(-19.78 -22.858)"/>
  </g>
</svg>