<svg width="19.368" height="13.15" xmlns="http://www.w3.org/2000/svg" viewBox="0 0 19.368 13.15">
  <g>
    <path d="M19.78,32.507a3.985,3.985,0,0,1,1.932-3.414l0-.04a3.362,3.362,0,0,1,2.064-6.195,3.129,3.129,0,0,1,3.3,3.156,3.271,3.271,0,0,1-1.679,2.848v.044a3.708,3.708,0,0,1,1.984,3.344,3.629,3.629,0,0,1-3.845,3.759A3.454,3.454,0,0,1,19.78,32.507Zm5.092-.147A2.637,2.637,0,0,0,23.4,29.989a2.642,2.642,0,0,0-1.111,2.235c0,1.109.447,2.038,1.333,2.038C24.438,34.262,24.872,33.438,24.872,32.36Zm-2.31-6.2A2.121,2.121,0,0,0,23.826,28.1a2.136,2.136,0,0,0,.882-1.833c0-.87-.289-1.672-1.052-1.672S22.562,25.357,22.562,26.163Z" transform="translate(-19.78 -22.858)"/>
    <path d="M38.123,24.956a7.157,7.157,0,0,0-1.059.134c-1.7.368-2.542,1.8-2.869,3.413h.071a2.421,2.421,0,0,1,1.979-1.02c1.72,0,2.9,1.559,2.9,3.976,0,2.251-1.16,4.55-3.669,4.55-2.427,0-3.9-2.1-3.9-5.3a8.423,8.423,0,0,1,2.1-5.979,6.063,6.063,0,0,1,3.147-1.739,10.858,10.858,0,0,1,1.295-.135Zm-1.541,6.5c-.016-1.094-.358-2.115-1.2-2.115a1.191,1.191,0,0,0-1.053.857,3.308,3.308,0,0,0-.13,1.129c.005,1.677.483,2.812,1.251,2.812C36.306,34.137,36.582,32.983,36.582,31.454Z" transform="translate(-19.78 -22.858)"/>
  </g>
</svg>