<svg width="19.286" height="13.151" xmlns="http://www.w3.org/2000/svg" viewBox="0 0 19.286 13.151">
  <g>
    <path d="M19.78,32.507a3.985,3.985,0,0,1,1.932-3.414l0-.04a3.362,3.362,0,0,1,2.064-6.195,3.129,3.129,0,0,1,3.3,3.156,3.271,3.271,0,0,1-1.679,2.848v.044a3.708,3.708,0,0,1,1.984,3.344,3.629,3.629,0,0,1-3.845,3.759A3.454,3.454,0,0,1,19.78,32.507Zm5.092-.147A2.637,2.637,0,0,0,23.4,29.989a2.642,2.642,0,0,0-1.111,2.235c0,1.109.447,2.038,1.333,2.038C24.438,34.262,24.872,33.438,24.872,32.36Zm-2.31-6.2A2.121,2.121,0,0,0,23.826,28.1a2.136,2.136,0,0,0,.882-1.833c0-.87-.289-1.672-1.052-1.672S22.562,25.357,22.562,26.163Z" transform="translate(-19.78 -22.858)"/>
    <path d="M32.584,33.864a5.6,5.6,0,0,0,1.184-.1,3.262,3.262,0,0,0,1.505-.776A4.927,4.927,0,0,0,36.512,30.4h-.055a2.394,2.394,0,0,1-1.831.792c-1.669,0-3.023-1.481-3.023-3.837,0-2.2,1.348-4.5,3.816-4.5,2.39,0,3.647,2.176,3.647,5.277a8.836,8.836,0,0,1-2.111,6.19,5.428,5.428,0,0,1-3.17,1.623,7.185,7.185,0,0,1-1.2.061Zm1.569-6.715c.015,1.243.406,2.264,1.2,2.264a1.141,1.141,0,0,0,.989-.663,3.974,3.974,0,0,0,.119-1.377c0-1.683-.48-2.643-1.172-2.643C34.624,24.73,34.122,25.586,34.153,27.149Z" transform="translate(-19.78 -22.858)"/>
  </g>
</svg>