<svg width="19.216" height="13.151" xmlns="http://www.w3.org/2000/svg" viewBox="0 0 19.216 13.151">
  <g>
    <path d="M20.84,33.864a5.581,5.581,0,0,0,1.183-.1,3.26,3.26,0,0,0,1.506-.776A4.927,4.927,0,0,0,24.768,30.4h-.055a2.394,2.394,0,0,1-1.831.792c-1.669,0-3.024-1.481-3.024-3.837,0-2.2,1.349-4.5,3.817-4.5,2.389,0,3.647,2.176,3.647,5.277a8.836,8.836,0,0,1-2.111,6.19,5.428,5.428,0,0,1-3.17,1.623,7.185,7.185,0,0,1-1.2.061Zm1.569-6.715c.015,1.243.405,2.264,1.2,2.264a1.141,1.141,0,0,0,.99-.663,4,4,0,0,0,.119-1.377c0-1.683-.481-2.643-1.172-2.643C22.88,24.73,22.378,25.586,22.409,27.149Z" transform="translate(-19.858 -22.858)"/>
    <path d="M39.074,29.371c0,4.61-1.674,6.638-3.754,6.638-2.793,0-3.734-3.211-3.734-6.513,0-3.691,1.175-6.638,3.831-6.638C38.4,22.858,39.074,26.318,39.074,29.371Zm-4.891.063c-.032,3,.336,4.361,1.213,4.361.792,0,1.082-1.42,1.082-4.361,0-2.755-.258-4.362-1.085-4.362C34.581,25.072,34.167,26.461,34.183,29.434Z" transform="translate(-19.858 -22.858)"/>
  </g>
</svg>