<svg width="18.763" height="13.151" xmlns="http://www.w3.org/2000/svg" viewBox="0 0 18.763 13.151">
  <g>
    <path d="M20.84,33.864a5.581,5.581,0,0,0,1.183-.1,3.26,3.26,0,0,0,1.506-.776A4.927,4.927,0,0,0,24.768,30.4h-.055a2.394,2.394,0,0,1-1.831.792c-1.669,0-3.024-1.481-3.024-3.837,0-2.2,1.349-4.5,3.817-4.5,2.389,0,3.647,2.176,3.647,5.277a8.836,8.836,0,0,1-2.111,6.19,5.428,5.428,0,0,1-3.17,1.623,7.185,7.185,0,0,1-1.2.061Zm1.569-6.715c.015,1.243.405,2.264,1.2,2.264a1.141,1.141,0,0,0,.99-.663,4,4,0,0,0,.119-1.377c0-1.683-.481-2.643-1.172-2.643C22.88,24.73,22.378,25.586,22.409,27.149Z" transform="translate(-19.858 -22.858)"/>
    <path d="M31.6,35.851V34.107l1.274-1.631c1.664-2.117,3.02-3.877,3.02-5.707a1.572,1.572,0,0,0-1.638-1.755,3.682,3.682,0,0,0-1.926.642l-.456-2a5.563,5.563,0,0,1,2.851-.8,3.406,3.406,0,0,1,3.72,3.719c0,2.409-1.51,4.33-2.981,6.047l-.769.906v.04h3.922v2.281Z" transform="translate(-19.858 -22.858)"/>
  </g>
</svg>