<svg width="18.555" height="13.151" xmlns="http://www.w3.org/2000/svg" viewBox="0 0 18.555 13.151">
  <g>
    <path d="M20.84,33.864a5.581,5.581,0,0,0,1.183-.1,3.26,3.26,0,0,0,1.506-.776A4.927,4.927,0,0,0,24.768,30.4h-.055a2.394,2.394,0,0,1-1.831.792c-1.669,0-3.024-1.481-3.024-3.837,0-2.2,1.349-4.5,3.817-4.5,2.389,0,3.647,2.176,3.647,5.277a8.836,8.836,0,0,1-2.111,6.19,5.428,5.428,0,0,1-3.17,1.623,7.185,7.185,0,0,1-1.2.061Zm1.569-6.715c.015,1.243.405,2.264,1.2,2.264a1.141,1.141,0,0,0,.99-.663,4,4,0,0,0,.119-1.377c0-1.683-.481-2.643-1.172-2.643C22.88,24.73,22.378,25.586,22.409,27.149Z" transform="translate(-19.858 -22.858)"/>
    <path d="M31.968,33.4a4.026,4.026,0,0,0,1.91.506,1.78,1.78,0,0,0,1.953-1.86c0-1.431-1.1-2.028-2.409-2.044h-.356v-1.89h.254c.951-.016,2.159-.417,2.159-1.653a1.371,1.371,0,0,0-1.489-1.477,3.084,3.084,0,0,0-1.615.5l-.347-1.944a5.279,5.279,0,0,1,2.638-.677,3.073,3.073,0,0,1,3.4,3.1,3.127,3.127,0,0,1-1.846,2.878v.039a3.256,3.256,0,0,1,2.2,3.265,3.947,3.947,0,0,1-4.294,3.872,5.388,5.388,0,0,1-2.514-.566Z" transform="translate(-19.858 -22.858)"/>
  </g>
</svg>