<svg width="18.695" height="13.151" xmlns="http://www.w3.org/2000/svg" viewBox="0 0 18.695 13.151">
  <g>
    <path d="M20.84,33.864a5.581,5.581,0,0,0,1.183-.1,3.26,3.26,0,0,0,1.506-.776A4.927,4.927,0,0,0,24.768,30.4h-.055a2.394,2.394,0,0,1-1.831.792c-1.669,0-3.024-1.481-3.024-3.837,0-2.2,1.349-4.5,3.817-4.5,2.389,0,3.647,2.176,3.647,5.277a8.836,8.836,0,0,1-2.111,6.19,5.428,5.428,0,0,1-3.17,1.623,7.185,7.185,0,0,1-1.2.061Zm1.569-6.715c.015,1.243.405,2.264,1.2,2.264a1.141,1.141,0,0,0,.99-.663,4,4,0,0,0,.119-1.377c0-1.683-.481-2.643-1.172-2.643C22.88,24.73,22.378,25.586,22.409,27.149Z" transform="translate(-19.858 -22.858)"/>
    <path d="M38.33,25.266h-3.4l-.3,2.3c.131-.012.254-.012.392-.012a4.08,4.08,0,0,1,2.418.967,3.9,3.9,0,0,1,1.113,2.954,4.3,4.3,0,0,1-4.469,4.534,5.594,5.594,0,0,1-2.411-.515l.393-2.046a4.311,4.311,0,0,0,1.835.44A1.983,1.983,0,0,0,36,31.714c0-1.729-1.3-2.3-2.779-2.3a6.352,6.352,0,0,0-.926.048l.717-6.441H38.33Z" transform="translate(-19.858 -22.858)"/>
  </g>
</svg>