<svg width="19.29" height="13.151" xmlns="http://www.w3.org/2000/svg" viewBox="0 0 19.29 13.151">
  <g>
    <path d="M20.84,33.864a5.581,5.581,0,0,0,1.183-.1,3.26,3.26,0,0,0,1.506-.776A4.927,4.927,0,0,0,24.768,30.4h-.055a2.394,2.394,0,0,1-1.831.792c-1.669,0-3.024-1.481-3.024-3.837,0-2.2,1.349-4.5,3.817-4.5,2.389,0,3.647,2.176,3.647,5.277a8.836,8.836,0,0,1-2.111,6.19,5.428,5.428,0,0,1-3.17,1.623,7.185,7.185,0,0,1-1.2.061Zm1.569-6.715c.015,1.243.405,2.264,1.2,2.264a1.141,1.141,0,0,0,.99-.663,4,4,0,0,0,.119-1.377c0-1.683-.481-2.643-1.172-2.643C22.88,24.73,22.378,25.586,22.409,27.149Z" transform="translate(-19.858 -22.858)"/>
    <path d="M38.123,24.956a7.157,7.157,0,0,0-1.059.134c-1.7.368-2.542,1.8-2.869,3.413h.071a2.421,2.421,0,0,1,1.979-1.02c1.72,0,2.9,1.559,2.9,3.976,0,2.251-1.16,4.55-3.669,4.55-2.427,0-3.9-2.1-3.9-5.3a8.423,8.423,0,0,1,2.1-5.979,6.063,6.063,0,0,1,3.147-1.739,10.858,10.858,0,0,1,1.295-.135Zm-1.541,6.5c-.016-1.094-.358-2.115-1.2-2.115a1.191,1.191,0,0,0-1.053.857,3.308,3.308,0,0,0-.13,1.129c.005,1.677.483,2.812,1.251,2.812C36.306,34.137,36.582,32.983,36.582,31.454Z" transform="translate(-19.858 -22.858)"/>
  </g>
</svg>