<svg width="19.262" height="13.151" xmlns="http://www.w3.org/2000/svg" viewBox="0 0 19.262 13.151">
  <g>
    <path d="M20.84,33.864a5.581,5.581,0,0,0,1.183-.1,3.26,3.26,0,0,0,1.506-.776A4.927,4.927,0,0,0,24.768,30.4h-.055a2.394,2.394,0,0,1-1.831.792c-1.669,0-3.024-1.481-3.024-3.837,0-2.2,1.349-4.5,3.817-4.5,2.389,0,3.647,2.176,3.647,5.277a8.836,8.836,0,0,1-2.111,6.19,5.428,5.428,0,0,1-3.17,1.623,7.185,7.185,0,0,1-1.2.061Zm1.569-6.715c.015,1.243.405,2.264,1.2,2.264a1.141,1.141,0,0,0,.99-.663,4,4,0,0,0,.119-1.377c0-1.683-.481-2.643-1.172-2.643C22.88,24.73,22.378,25.586,22.409,27.149Z" transform="translate(-19.858 -22.858)"/>
    <path d="M31.524,32.507a3.985,3.985,0,0,1,1.932-3.414l-.005-.04a3.362,3.362,0,0,1,2.064-6.195,3.129,3.129,0,0,1,3.3,3.156,3.271,3.271,0,0,1-1.679,2.848v.044A3.708,3.708,0,0,1,39.12,32.25a3.629,3.629,0,0,1-3.845,3.759A3.454,3.454,0,0,1,31.524,32.507Zm5.092-.147a2.637,2.637,0,0,0-1.477-2.371,2.642,2.642,0,0,0-1.111,2.235c0,1.109.448,2.038,1.333,2.038C36.182,34.262,36.616,33.438,36.616,32.36Zm-2.309-6.2A2.122,2.122,0,0,0,35.57,28.1a2.136,2.136,0,0,0,.882-1.833c0-.87-.289-1.672-1.052-1.672S34.307,25.357,34.307,26.163Z" transform="translate(-19.858 -22.858)"/>
  </g>
</svg>