<svg width="60" height="60" xmlns="http://www.w3.org/2000/svg" viewBox="0 0 60 60">
  <rect fill="#ffcd34" height="60" width="60"/>
  <g>
    <g>
      <rect fill="#010101" x="16.803" width="26.374" height="7.657" y="5.433"/>
      <path fill="#010101" d="M42.61,6v6.523H17.37V6H42.61m1.133-1.133H16.237v8.789H43.743V4.867Z" transform="translate(0 0)"/>
    </g>
    <g>
      <polygon fill="#010101" points="16.678 5.601 41.755 5.449 41.591 5.554 16.593 20.84 16.678 5.601"/>
      <path fill="#010101" d="M39.715,6.032,17.169,19.819l.077-13.65,22.469-.137m4.028-1.165-27.632.167-.094,16.827L41.9,6.036l1.847-1.169Z" transform="translate(0 0)"/>
    </g>
    <g>
      <rect fill="#010101" x="40.623" width="1.987" height="22.327" y="11.944"/>
      <path fill="#010101" d="M42.044,12.51V33.7H41.19V12.51h.854m1.133-1.133h-3.12V34.836h3.12V11.377Z" transform="translate(0 0)"/>
    </g>
    <g>
      <rect fill="#010101" x="52.551" width="1.153" height="15.452" y="15.422"/>
      <path fill="#010101" d="M53.138,15.988V30.307h-.02V15.988h.02m1.133-1.133H51.985V31.44h2.286V14.855Z" transform="translate(0 0)"/>
    </g>
    <g>
      <rect fill="#010101" x="28.926" width="2.363" height="12.277" y="12.007"/>
      <path fill="#010101" d="M30.723,12.573V23.717h-1.23V12.573h1.23m1.133-1.133h-3.5V24.85h3.5V11.44Z" transform="translate(0 0)"/>
    </g>
    <g>
      <rect fill="#010101" x="24.655" width="10.719" height="2.803" y="12.005"/>
      <path fill="#010101" d="M34.806,12.571v1.67H25.221v-1.67h9.585m1.133-1.133H24.088v3.936H35.939V11.438Z" transform="translate(0 0)"/>
    </g>
    <g>
      <rect fill="#010101" x="17.714" width="24.008" height="1.099" y="20.944"/>
      <polygon fill="#010101" points="42.289 20.377 17.148 20.377 17.148 22.609 42.289 22.609 42.289 20.377 42.289 20.377"/>
    </g>
    <g>
      <rect fill="#010101" x="15.727" width="9.472" height="5.828" y="29.099"/>
      <path fill="#010101" d="M24.632,29.665v4.7H16.293v-4.7h8.339m1.133-1.133H15.16v6.962H25.765V28.532Z" transform="translate(0 0)"/>
    </g>
    <g>
      <rect fill="#010101" x="34.448" width="9.472" height="5.828" y="29.099"/>
      <path fill="#010101" d="M43.354,29.665v4.7H35.015v-4.7h8.339m1.133-1.133H33.882v6.962H44.487V28.532Z" transform="translate(0 0)"/>
    </g>
    <g>
      <rect fill="#010101" x="24.874" width="10.997" height="6.496" y="21.728"/>
      <path fill="#010101" d="M35.305,22.294v5.364H25.441V22.294h9.864m1.133-1.133H24.308v7.63h12.13v-7.63Z" transform="translate(0 0)"/>
    </g>
    <g>
      <rect fill="#010101" x="18.165" width="4.416" height="7.596" y="34.732"/>
      <path fill="#010101" d="M22.015,35.3v6.462H18.732V35.3h3.283m1.133-1.133H17.6v8.728h5.549V34.166Z" transform="translate(0 0)"/>
    </g>
    <g>
      <rect fill="#010101" x="37.05" width="4.416" height="7.596" y="34.732"/>
      <path fill="#010101" d="M40.9,35.3v6.462H37.616V35.3H40.9m1.133-1.133h-5.55v8.728h5.55V34.166Z" transform="translate(0 0)"/>
    </g>
    <g>
      <rect fill="#010101" x="22.554" width="14.903" height="2.449" y="32.662"/>
      <path fill="#010101" d="M23.121,33.228l13.77,0v1.314H23.121V33.228M21.988,32.1v3.582H38.024V32.1l-16.036,0Z" transform="translate(0 0)"/>
    </g>
    <g>
      <rect fill="#010101" x="18.673" width="8.441" height="6.781" y="27.241"/>
      <path fill="#010101" d="M26.547,27.807v5.647l-7.308,0V27.807h7.308m1.133-1.133H18.106v7.915l9.574,0V26.674Z" transform="translate(0 0)"/>
    </g>
    <g>
      <rect fill="#010101" x="33.338" width="8.933" height="6.506" y="27.243"/>
      <path fill="#010101" d="M41.7,27.81v5.372h-7.8V27.81h7.8m1.133-1.133H32.772v7.638H42.837V26.677Z" transform="translate(0 0)"/>
    </g>
    <g>
      <rect fill="#010101" x="16.593" width="3.46" height="25.104" y="5.374"/>
      <path fill="#010101" d="M19.486,5.941v23.97H17.159V5.941h2.327m1.133-1.133H16.026V31.045l4.593,0V4.808Z" transform="translate(0 0)"/>
    </g>
    <g>
      <polygon fill="#010101" points="24.439 21.438 28.922 18.38 28.922 21.438 24.439 21.438"/>
      <path fill="#010101" d="M28.355,19.452v1.419h-2.08l2.08-1.419m1.133-2.145L22.6,22h6.884v-4.7Z" transform="translate(0 0)"/>
    </g>
    <g>
      <polygon fill="#010101" points="32.407 22.033 32.407 19.136 36.874 22.033 32.407 22.033"/>
      <path fill="#010101" d="M32.96,20.152l2.048,1.328H32.96V20.152m-1.1-2.032v4.464H38.74L31.856,18.12Z" transform="translate(0 0)"/>
    </g>
    <g>
      <rect fill="#010101" x="17.322" width="4.276" height="4.276" y="17.22"/>
      <path fill="#010101" d="M21.032,17.787V20.93H17.889V17.787h3.143m1.133-1.133H16.756v5.409h5.409V16.654Z" transform="translate(0 0)"/>
    </g>
    <g>
      <rect fill="#010101" x="38.693" width="4.275" height="4.278" y="17.467"/>
      <path fill="#010101" d="M42.4,18.034v3.145H39.259V18.034H42.4M43.535,16.9H38.126v5.411h5.409V16.9Z" transform="translate(0 0)"/>
    </g>
    <g>
      <polygon fill="#010101" points="48.821 30.878 44.453 26.396 53.699 26.358 53.621 30.878 48.821 30.878"/>
      <path fill="#010101" d="M53.123,26.926l-.058,3.385H49.059l-3.268-3.353,7.332-.032m1.153-1.138-11.16.048,5.465,5.608h5.6l.1-5.656Z" transform="translate(0 0)"/>
    </g>
    <g>
      <rect fill="#010101" x="43.188" width="9.144" height="4.802" y="21.757"/>
      <path fill="#010101" d="M51.765,22.324v3.668h-8.01V22.324h8.01M52.9,21.191H42.622v5.934H52.9V21.191Z" transform="translate(0 0)"/>
    </g>
    <g>
      <rect fill="#010101" x="42.181" width="1.774" height="2.793" y="19.109"/>
      <path fill="#010101" d="M43.3,19.763v1.485h-.468V19.763H43.3m1.307-1.307H41.527v4.1h3.082v-4.1Z" transform="translate(0 0)"/>
    </g>
    <g>
      <rect fill="#010101" x="47.838" width="4.835" height="1.338" y="15.385"/>
      <path fill="#010101" d="M52.144,15.914V16.2H48.367v-.281h3.777M53.2,14.857H47.31v2.395H53.2V14.857Z" transform="translate(0 0)"/>
    </g>
    <g>
      <polygon fill="#010101" points="43.598 17.617 46.776 15.77 46.768 16.98 43.741 18.787 43.598 17.617"/>
      <path fill="#010101" d="M45.418,17.17l-1.251.747,0-.018,1.253-.729m1.892-2.322-4.278,2.488.284,2.32,3.978-2.375.016-2.433Z" transform="translate(0 0)"/>
    </g>
    <g>
      <polygon fill="#010101" points="18.481 5.401 43.165 5.734 43.156 20.524 18.481 5.401"/>
      <path fill="#010101" d="M20.529,6l22.069.3-.009,13.22L20.529,6M16.484,4.808l1.851,1.171L43.721,21.535l.011-16.36L16.484,4.808Z" transform="translate(0 0)"/>
    </g>
    <g>
      <rect fill="#010101" x="16.017" width="27.738" height="0.637" y="4.812"/>
      <polygon fill="#010101" points="43.755 4.812 16.017 4.812 16.017 5.449 43.755 5.449 43.755 4.812 43.755 4.812"/>
    </g>
  </g>
</svg>