<svg width="60" height="60" xmlns="http://www.w3.org/2000/svg" viewBox="0 0 60 60">
  <rect fill="#999" x="15" width="45" height="60"/>
  <g>
    <rect fill="#999" height="60" width="60"/>
    <polygon fill="#666766" points="31.281 30.545 31.281 0 0 0 31.281 30.545" fill-rule="evenodd"/>
    <polygon fill="#666766" points="60 60 60 30 29.277 30 60 60" fill-rule="evenodd"/>
    <rect fill="#666766" x="2.768" width="57.232" height="32.403"/>
    <rect fill="#cccccb" x="2.768" width="54.496" height="54.702" y="2.649"/>
  </g>
  <g>
    <path fill="#333" d="M10.344,43.408a.647.647,0,0,1-.423-.132.966.966,0,0,1-.267-.408l-2.56-7.357a.551.551,0,0,1,.042-.521.563.563,0,0,1,.494-.21.639.639,0,0,1,.411.12.785.785,0,0,1,.232.384l2.321,6.888h-.44l2.38-6.865a1.106,1.106,0,0,1,.25-.4.538.538,0,0,1,.381-.132.517.517,0,0,1,.375.132,1.132,1.132,0,0,1,.244.408l2.333,6.852h-.392l2.344-6.888a.816.816,0,0,1,.233-.378.6.6,0,0,1,.4-.126.524.524,0,0,1,.459.21.531.531,0,0,1,.03.521L16.617,42.88a1,1,0,0,1-.262.4.62.62,0,0,1-.416.132.64.64,0,0,1-.429-.132.922.922,0,0,1-.25-.408l-2.25-6.492h.262L11,42.88a.963.963,0,0,1-.244.4A.6.6,0,0,1,10.344,43.408Z"/>
    <path fill="#333" d="M21.724,43.431a2.421,2.421,0,0,1-1.089-.239,1.922,1.922,0,0,1-.756-.648,1.617,1.617,0,0,1-.274-.924,1.507,1.507,0,0,1,.328-1.026,1.933,1.933,0,0,1,1.083-.541,10.243,10.243,0,0,1,2.041-.162h.56v.745h-.548a8.6,8.6,0,0,0-1.357.084A1.357,1.357,0,0,0,21,41a.717.717,0,0,0-.209.546.951.951,0,0,0,.31.738,1.231,1.231,0,0,0,.857.282,1.42,1.42,0,0,0,.774-.21,1.524,1.524,0,0,0,.53-.57,1.7,1.7,0,0,0,.2-.828V39.58a1.4,1.4,0,0,0-.286-.985,1.257,1.257,0,0,0-.94-.3,3.534,3.534,0,0,0-.792.095,3.739,3.739,0,0,0-.851.325.52.52,0,0,1-.345.06.371.371,0,0,1-.226-.162.525.525,0,0,1-.089-.276A.559.559,0,0,1,20,38.044a.482.482,0,0,1,.268-.216,4.55,4.55,0,0,1,1.036-.36,4.6,4.6,0,0,1,.964-.108,3,3,0,0,1,1.315.252,1.618,1.618,0,0,1,.768.768,3.055,3.055,0,0,1,.25,1.332V42.8a.66.66,0,0,1-.143.45.529.529,0,0,1-.417.162.554.554,0,0,1-.417-.162.627.627,0,0,1-.154-.45v-.781h.107a1.8,1.8,0,0,1-.351.763,1.66,1.66,0,0,1-.637.485A2.119,2.119,0,0,1,21.724,43.431Z"/>
    <path fill="#333" d="M26.866,43.408a.6.6,0,0,1-.452-.162.627.627,0,0,1-.155-.45V38a.62.62,0,0,1,.155-.456.675.675,0,0,1,.863,0,.636.636,0,0,1,.149.456v.876h-.119a1.889,1.889,0,0,1,.7-1.092,2.5,2.5,0,0,1,1.309-.433.439.439,0,0,1,.34.109.528.528,0,0,1,.136.372.509.509,0,0,1-.106.4.584.584,0,0,1-.4.175l-.226.024a1.8,1.8,0,0,0-1.179.492,1.59,1.59,0,0,0-.405,1.152V42.8a.643.643,0,0,1-.148.45A.6.6,0,0,1,26.866,43.408Z"/>
  </g>
  <g>
    <g>
      <path fill="#cd2037" d="M20.748,19.038l-.027-.014-.027-.013L20.667,19l-.027-.013-.027-.011-.028-.011-.028-.01-.029-.01-.028-.009-.029-.008-.028-.008-.029-.007-.029-.006-.029-.005-.03-.006-.029,0-.029,0-.03,0-.03,0-.03,0H20.03l-.03,0-.03,0-.03,0-.029,0-.03,0a.15.15,0,0,0-.029.006l-.029,0a.182.182,0,0,0-.029.008l-.028.007-.029.009-.029.008-.028.009-.028.011-.028.011-.027.012L19.569,19l-.026.012-.027.014-.026.014-.026.015-.026.015-.026.016-.025.016-.025.017-.024.017a.13.13,0,0,0-.023.018l-.024.019a.13.13,0,0,0-.023.018l-.023.019-.022.02-.021.021-.022.02-.02.021-.021.022-.019.022-.019.022-.019.024-.018.023-.018.025-.018.024-.016.024L19,19.5l-.016.026-.014.026-.015.026-.014.027-.013.027-.012.026-.012.028-.012.027-.011.029-.009.029a.107.107,0,0,0-.009.027l-.01.029-.008.028-.007.029-.007.028c0,.01,0,.02-.005.03l-.006.029,0,.029,0,.03,0,.03,0,.03,0,.029,0,.029v.06a.151.151,0,0,0,0,.03c0,.01,0,.02,0,.03l0,.03a.146.146,0,0,0,0,.029l0,.031,0,.029,0,.03,0,.029a.246.246,0,0,0,.007.029l.006.029.008.029.008.029.009.028.009.028.01.029.01.028a.233.233,0,0,1,.011.028.159.159,0,0,0,.012.027l.012.026.012.027.014.026.015.027.014.026.016.026.016.025.016.025.017.025.017.024.019.024.019.022.018.024.02.021.021.023.02.021.021.021.021.021.023.019.021.021.023.018.024.019.023.018.025.018.024.016.025.017.026.015.026.016.026.015.027.013.026.014.026.012.027.013.028.011a.136.136,0,0,0,.028.011l.029.01.027.009.029.01.028.008.03.008.028.007.029.006.03.006.029,0a.147.147,0,0,0,.029,0l.03,0,.029,0,.03,0,.029,0h.12l.03,0,.029,0,.03,0,.03,0,.03,0,.029-.006.03,0,.028-.006.03-.007.028-.007.029-.009.028-.009.028-.01.029-.01.027-.01.028-.012.027-.012.026-.012.028-.013.026-.014.026-.015.026-.016.026-.015.025-.016.024-.017.025-.017a.181.181,0,0,0,.023-.018l.024-.019.023-.018.022-.019.023-.021.021-.02.022-.021.019-.021.021-.021.02-.022.02-.024.018-.022.018-.023.018-.025.017-.025.016-.024.017-.025.016-.026.014-.026.015-.026.014-.027.012-.028.013-.027.012-.026c0-.009.007-.018.011-.028l.012-.028.009-.029.009-.027.01-.029.008-.028.007-.029.007-.03.006-.029,0-.028,0-.03,0-.03,0-.029,0-.03,0-.029c0-.01,0-.02,0-.03v-.09l0-.029,0-.03,0-.03,0-.03,0-.029,0-.03-.005-.03-.006-.028,0-.029-.009-.029c0-.01,0-.019-.007-.029l-.009-.028-.009-.029-.01-.028-.01-.028-.011-.028-.012-.027-.012-.028a.134.134,0,0,0-.014-.026.21.21,0,0,0-.013-.026l-.014-.027-.016-.026-.015-.025-.016-.025-.017-.026-.016-.024-.018-.025a.13.13,0,0,0-.018-.023l-.019-.024-.018-.022-.021-.022-.019-.022-.02-.022-.021-.021-.022-.021-.022-.02-.022-.019-.023-.018-.023-.02-.024-.017-.024-.018-.025-.017-.024-.016-.026-.015-.026-.016A.146.146,0,0,1,20.748,19.038Z"/>
      <path fill="#cd2037" d="M20.859,20.148h0m.428.654.007-.013v0l.012-.026h0l.012-.025v0l.012-.024a.247.247,0,0,0,.01-.029l.012-.028.01-.028.008-.028.01-.029.008-.028.007-.028.008-.03.006-.029,0-.029.005-.03,0-.029,0-.03,0-.029,0-.03a.143.143,0,0,0,0-.029l0-.03c0-.01,0-.02,0-.03v-.03l0-.03,0-.029,0-.03,0-.03,0-.03,0-.029-.005-.03-.006-.029L21.4,19.89l-.009-.029c0-.009,0-.019-.007-.029l-.009-.028-.008-.029-.011-.027-.01-.029-.011-.028-.012-.026-.011-.028a.215.215,0,0,0-.014-.026.229.229,0,0,0-.014-.027.215.215,0,0,0-.014-.026l-.015-.026-.016-.026-.016-.025-.016-.026-.016-.024-.019-.025c0-.008-.011-.015-.017-.023l-.019-.023-.019-.023-.02-.022-.02-.022-.02-.021-.021-.022-.022-.02-.021-.021-.023-.019-.022-.018-.024-.019-.023-.018-.025-.018-.025-.016-.024-.016-.025-.016-.026-.016-.027-.014-.026-.014-.027-.014L20.668,19l-.027-.012-.026-.011a.145.145,0,0,0-.029-.011l-.028-.01-.029-.01-.028-.009-.029-.009-.028-.007-.029-.007a.136.136,0,0,0-.029-.006c-.009,0-.02,0-.029-.006l-.029,0-.029,0-.03,0-.03,0-.029,0-.03,0h-.119l-.03,0-.03,0-.029,0-.03,0-.03,0-.03.005-.029,0-.028.006-.03.007a.147.147,0,0,0-.028.008l-.029.008-.029.009-.028.009-.027.01-.029.011-.027.012L19.57,19l-.025.012a.243.243,0,0,0-.028.014l-.026.014-.026.015-.025.014-.027.016-.025.016-.024.017-.025.018a.181.181,0,0,0-.023.018l-.024.018-.023.018-.022.02-.022.019-.022.021-.021.02-.021.022-.02.021-.02.022-.019.023-.019.024-.018.023-.018.024-.018.025-.016.024L19,19.5l-.015.026-.015.026-.014.026-.007.014-.007.013-.007.013-.007.014-.011.024v0l-.012.027-.012.028-.01.029-.01.029a.171.171,0,0,0-.009.027l-.009.029-.008.028-.007.029-.007.028a.167.167,0,0,0-.006.029l0,.03L18.813,20l0,.029,0,.031,0,.029,0,.03,0,.029v.06c0,.009,0,.019,0,.029v.03l0,.03c0,.01,0,.02,0,.03l0,.03,0,.03,0,.029,0,.03c0,.01,0,.019.007.029l.006.029.008.028.009.029.008.029.009.028.01.029.01.028a.233.233,0,0,1,.011.028l.012.027.012.026.012.027.014.026.015.027.015.025.015.026.017.026.015.025.018.024.017.025.019.023.018.023.019.023.02.022.02.022.02.022.022.021.021.021.022.019.022.02.023.018.024.019.023.018.024.018.024.016.025.017.026.016.026.016.026.014.027.014.026.013.026.013.028.012.027.012.029.011.028.01.028.009.029.01.028.008.029.008.029.007.029.006.029,0,.03.005a.086.086,0,0,0,.028,0l.031,0,.029,0,.03,0,.028,0h.12l.03,0,.03,0,.03,0,.029,0,.03,0,.029-.006.03,0,.029-.006.029-.007.028-.008.029-.008.028-.009.029-.01.028-.01.027-.011.028-.011.027-.012.027-.012.027-.013.026-.014.026-.016.026-.015.026-.015.025-.016.025-.017.024-.017.023-.018.024-.019.023-.018.022-.02.023-.02.021-.02.022-.021.02-.021.02-.021.02-.022.02-.024.018-.023.018-.022.018-.025.017-.025.016-.024.017-.025.016-.026.013-.024v0l.014-.024v0l0-.014Z"/>
    </g>
    <g>
      <polygon fill="#cd2037" points="24.732 13.673 21.18 20.383 19.183 19.727 21.473 11.818 24.732 13.673"/>
      <path fill="#cd2037" d="M24.348,13.785,21.04,20.034l-1.5-.494,2.112-7.292,2.7,1.537m.769-.224L21.3,11.387l-2.469,8.526,2.492.818,3.8-7.17Z"/>
    </g>
    <g>
      <path fill="#cd2037" d="M21.352,11.479l.076-.007h.066l.09,0,.148.013.176.024.34.068.293.076L23,11.8l.5.175.625.25.549.241.75.364.553.292.353.2.685.412.322.208.431.3.263.2.341.277.244.225.149.155.063.07.058.072.049.067.038.059.03.052c0,.008.026.063.029.071v.013l-.054.013-.076.012-.123,0-.083,0-.151-.013-.207-.03-.325-.067-.347-.091-.478-.15-.371-.133-.712-.284-.7-.312-.469-.228-.685-.361-.662-.381-.569-.357-.454-.309-.391-.294-.216-.176-.256-.229-.165-.166-.1-.109-.1-.123-.045-.068-.031-.054-.024-.058-.007-.029Z"/>
      <path fill="#cd2037" d="M28.485,15.21,28.44,15.2l-.049-.007-.065-.012-.058-.011-.061-.014-.034-.007h-.011c-.029-.008-.058-.014-.069-.016l-.067-.016-.068-.018-.037-.01-.033-.008-.072-.02-.06-.016-.078-.023L27.6,15l-.077-.025-.088-.028-.073-.023-.066-.021-.085-.03-.1-.034-.071-.024-.087-.033-.044-.016-.041-.015-.089-.034-.077-.029-.088-.035-.045-.018-.044-.018-.093-.038-.09-.037-.08-.034-.092-.039-.093-.04-.092-.041-.093-.041-.084-.037-.047-.022-.047-.022-.094-.044-.084-.038-.094-.046-.105-.051-.084-.04-.083-.04-.095-.048-.094-.048-.093-.048-.084-.042-.093-.05-.1-.055c-.024-.013-.048-.025-.082-.045l-.092-.05-.082-.043-.1-.058-.08-.045-.045-.025-.045-.026L24,13.375l-.088-.052-.077-.045-.087-.052-.086-.052-.085-.052-.084-.052-.077-.048-.076-.049-.081-.052-.079-.052-.066-.044-.039-.026-.051-.034-.052-.035-.086-.06-.062-.042-.071-.05-.068-.051-.07-.051-.067-.049-.053-.04-.063-.048-.061-.048-.031-.025-.029-.023-.024-.019-.033-.027-.058-.048-.041-.033c-.023-.021-.046-.04-.052-.045l-.067-.059-.048-.044-.033-.029-.044-.041-.024-.023-.017-.016-.04-.042-.023-.023-.009-.009.045.007.048.008.031.006.033.006.058.011.062.013.063.014.048.01.035.009.052.013.068.017.053.014.037.01.035.009.076.022.062.018.093.028.062.019.079.025.082.026L23,12.1l.085.029.068.023.087.032.085.031.044.015.029.011c.033.013.067.026.089.033l.089.035.089.035.089.036.093.038.089.037.08.034.092.039.047.02.046.019.092.041.082.036.095.042.068.032.015.006.105.05.095.045.083.039.094.045.094.045.095.048.094.047.084.042.093.047.094.05.094.049.082.043.093.05.092.049.092.051.08.045.091.05.024.014.055.031.1.058.088.052.077.045.043.026.043.027.086.051.084.052.084.051.072.045L26.9,14l.041.026.08.053.068.044.078.051.038.026.039.026.038.026.039.026.073.051.074.052.071.05.057.041.069.051.067.049.066.051.05.038.074.058.047.037.058.047.029.024.029.024.057.048.036.03.063.056.039.034.046.043.044.041.023.023.019.018.03.029.041.042m.816.417.009-.02.008-.022,0-.023,0-.024v-.025a.226.226,0,0,0,0-.026l0-.028a.256.256,0,0,0-.005-.027l-.008-.03a.182.182,0,0,0-.011-.03.233.233,0,0,0-.011-.031.23.23,0,0,0-.015-.032.187.187,0,0,0-.015-.032.372.372,0,0,0-.019-.034.39.39,0,0,0-.019-.035c-.008-.013-.015-.025-.023-.036l-.025-.036a.328.328,0,0,0-.027-.038l-.028-.038-.03-.039-.033-.04-.034-.041L28.98,14.9l-.038-.042-.041-.043-.042-.044-.044-.043-.047-.045-.049-.045-.05-.046c-.017-.015-.034-.031-.051-.045l-.053-.048-.056-.047-.057-.048-.058-.048-.06-.049-.063-.049-.064-.05-.065-.05-.066-.05-.068-.051-.07-.051-.071-.051-.073-.051-.073-.052-.076-.051-.077-.052-.076-.052-.08-.053-.08-.051c-.027-.018-.053-.036-.081-.053l-.081-.053-.083-.051c-.029-.018-.056-.036-.085-.053l-.085-.053-.086-.052-.087-.052-.088-.051-.088-.052-.09-.052-.09-.051-.091-.051-.092-.051-.091-.051-.093-.05-.092-.049-.094-.05-.094-.049-.094-.049-.093-.048-.095-.047-.094-.047-.095-.048-.094-.046-.095-.046-.095-.044c-.031-.016-.063-.03-.1-.045L24.8,12.2l-.094-.043-.095-.042-.094-.042-.092-.041L24.328,12l-.092-.039-.093-.039-.09-.037-.093-.038-.09-.035-.089-.035-.09-.035L23.6,11.7l-.087-.031-.087-.032-.086-.031-.084-.03-.085-.029-.083-.028-.082-.026-.081-.026-.079-.024-.078-.024-.078-.022c-.026-.008-.051-.016-.077-.022l-.075-.021-.073-.019-.072-.018-.071-.018-.07-.015c-.022-.006-.045-.011-.067-.015l-.067-.014-.064-.013-.064-.012-.061-.011-.06-.008-.059-.008-.056-.007-.056-.006-.053,0-.052,0-.049,0h-.137l-.043,0a.273.273,0,0,0-.04,0l-.038,0-.035.007a.2.2,0,0,0-.035.007l-.032.008-.03.01-.029.011-.025.011-.025.013-.022.015-.019.016-.018.015L21,11.327l-.014.019-.011.02-.009.021-.008.022a.085.085,0,0,0,0,.023l0,.024v.051l0,.027,0,.028.008.029c0,.01.006.021.01.031l.012.03a.309.309,0,0,0,.014.032l.015.034.019.034.02.033.023.037.024.036.027.038.029.038.03.039.033.04.034.041.037.041.039.041c.013.015.027.029.041.044l.042.044c.015.014.029.028.044.044l.047.044.048.046.05.045.052.046.053.047c.019.015.038.031.056.048l.057.047.058.048.061.049.062.05.064.05c.021.016.043.032.065.05l.066.049.068.051.07.051.07.052.073.052.074.05.075.053.077.051.077.052.079.052.081.053.081.052.081.052.083.052.085.053.085.053.086.051.087.053.089.051.088.052.089.052.09.051.09.05.092.052.092.05.092.05c.031.017.062.034.094.05l.092.049.094.05.094.048.094.048.094.048.095.047.094.046.095.047.094.046.095.046.095.043c.031.016.063.03.094.044l.094.043.095.042.094.042.093.041.093.04.092.04.093.038.091.037.092.038.09.036.09.035.089.034.089.034.087.032.087.032.086.031.084.03.085.029.083.027.082.026.082.026.079.025.078.023.078.023.077.021.075.021.073.019.072.019.071.017.069.016.067.014.067.015.064.012.064.013.061.009.06.008.06.009c.018,0,.037,0,.056.006a.514.514,0,0,0,.055.006l.054,0,.051,0,.049,0h.094l.044,0,.042,0,.04,0,.038,0,.036-.008a.186.186,0,0,0,.034-.006l.032-.009.031-.01.028-.01.026-.012.025-.013.021-.014.019-.015.018-.017.016-.017.014-.019.012-.02Z"/>
    </g>
    <g>
      <polygon fill="#cd2037" points="14.315 7.88 14.905 8.096 15.745 8.433 16.713 8.851 18.117 9.492 19.123 9.97 20.649 10.724 22.268 11.557 23.796 12.374 25.059 13.077 25.918 13.574 26.69 14.036 27.351 14.453 27.855 14.791 28.115 14.975 28.196 15.036 27.745 14.885 27.225 14.689 26.63 14.45 25.977 14.173 24.293 13.414 23.123 12.86 21.907 12.261 20.501 11.545 18.614 10.546 17.339 9.839 16.06 9.097 15.102 8.51 14.607 8.187 14.309 7.982 14.049 7.794 14.315 7.88"/>
      <path fill="#cd2037" d="M25.4,13.606l-.045-.02-.153-.069-.155-.071-.155-.071-.159-.074-.16-.074-.161-.075-.157-.072L24.086,13l-.167-.079-.161-.076-.175-.085-.163-.077-.165-.079-.178-.087-.174-.085-.172-.084-.175-.085-.17-.084-.025-.012-.15-.074-.17-.085-.182-.092-.176-.089-.177-.089-.17-.086-.176-.09-.176-.091-.177-.09-.176-.091-.176-.091-.168-.088-.176-.091-.086-.045-.087-.047-.175-.091-.171-.092-.171-.092-.171-.091-.163-.087-.133-.073-.041-.022-.161-.086-.166-.091-.082-.044-.082-.045-.163-.09-.154-.085-.165-.092-.151-.084-.155-.088-.065-.036-.089-.05L17.329,9.5l-.116-.066-.027-.015-.147-.085-.145-.083-.05-.028.052.023.153.069.154.07.15.068.157.073.168.078.155.072.082.037L18,9.753l.165.078.165.078.168.08.168.08.165.078L19,10.23l.172.084.167.08.173.085.175.085.174.087.152.075.024.012.026.013.15.074.185.094.162.08.176.089.176.09.178.09.17.087.181.094.171.087.175.092.181.1.169.088.026.014.148.078.173.091.167.087.171.092.17.091.175.1.162.087.167.09.165.09.164.09.162.09.161.089.153.084.157.088.156.087.153.086.152.086.149.085.147.085.138.079.051.031m3.531,1.808.006-.016a.081.081,0,0,0,0-.016l0-.02-.008-.02a.1.1,0,0,0-.01-.024l-.015-.024a.234.234,0,0,0-.02-.027l-.022-.03-.027-.031-.03-.032-.035-.035a.461.461,0,0,0-.039-.036l-.042-.039-.046-.04-.049-.043-.055-.045-.057-.045-.062-.048-.065-.049-.068-.052-.073-.053-.076-.055c-.026-.018-.053-.037-.081-.055l-.082-.058-.087-.06L27.8,14.4l-.093-.062-.1-.063-.1-.066-.1-.066-.107-.068-.11-.069-.113-.071-.116-.072-.12-.074-.121-.074-.125-.076-.128-.077-.131-.078-.133-.079-.135-.081-.138-.081-.141-.082-.143-.083-.145-.084-.147-.085-.149-.085-.153-.086-.153-.086-.156-.088-.158-.088-.159-.088L24.26,12.3c-.053-.03-.107-.06-.162-.089l-.164-.091-.165-.089-.167-.091-.168-.091-.169-.091-.171-.091-.171-.092-.174-.091-.173-.092L22.4,11.3l-.175-.091-.175-.092-.175-.091-.177-.09-.175-.091-.176-.09-.178-.09L21,10.575l-.176-.089-.176-.088-.177-.089-.176-.088-.175-.087-.175-.087-.175-.086-.173-.085-.173-.083c-.057-.029-.114-.056-.172-.084l-.171-.082-.17-.082-.169-.08-.168-.08L18.4,9.307l-.166-.078-.163-.076-.162-.075L17.753,9,17.6,8.93c-.053-.025-.106-.048-.158-.071l-.154-.07c-.051-.024-.1-.047-.154-.069l-.15-.067-.15-.067-.146-.065-.144-.062L16.4,8.4l-.14-.06-.137-.058-.134-.057-.132-.056-.129-.053L15.6,8.06l-.123-.05-.121-.049-.117-.047-.115-.045-.112-.043L14.9,7.784c-.035-.014-.07-.026-.105-.039l-.1-.039-.1-.034-.1-.034-.092-.033-.088-.029-.085-.028-.083-.026L14.073,7.5,14,7.477l-.071-.021-.068-.017c-.022-.006-.043-.012-.064-.016l-.059-.014L13.681,7.4l-.053-.011L13.58,7.38a.347.347,0,0,0-.045-.006l-.04,0h-.069l-.029,0-.026,0-.021.006-.017.009-.012.011-.009.013h0l-.005.014a.109.109,0,0,0,0,.018l0,.018.007.022a.239.239,0,0,0,.012.022.226.226,0,0,0,.014.026l.019.026.023.029.026.031c.01.011.021.021.031.033l.034.035.04.037c.013.012.027.026.042.038l.045.04.051.043.053.044.059.046c.019.015.04.031.06.048l.066.049.069.051c.023.018.047.035.073.053l.075.055.08.056.083.059.087.058.09.062.094.062.1.064.1.065.1.066c.036.022.071.046.107.069l.11.069c.037.023.074.047.113.07l.116.073.119.073.122.075c.042.025.084.05.125.076l.128.077.131.078.133.079.134.079.139.081.141.083.142.084.146.084c.049.027.1.056.147.084l.15.085.151.086.155.087.156.088.157.087.16.089.16.088.163.09.164.089.165.091.168.09.167.091.17.091c.056.031.113.061.17.091s.114.062.172.092l.171.092.175.092.173.091.175.091.175.091.176.091.175.091.177.09.176.09.177.091.176.089.177.089.176.089.176.089.176.088.175.087.176.086.175.086.173.084.173.085c.058.027.115.055.172.084l.171.082.17.08.169.082.167.079.167.079c.055.026.11.051.164.078l.164.076.162.075.16.074.159.074.156.071.155.07.154.069.151.067.148.066.147.064.145.064.141.062.14.06.137.058.135.057.131.055.13.054.126.052.124.051.12.048.118.047.114.046c.038.014.076.028.112.043s.073.027.108.041l.105.04.1.037c.033.013.066.024.1.036l.095.034.093.031.089.03.085.028.082.026.078.024.075.022.07.02.067.017.065.016a.434.434,0,0,0,.06.014l.055.012.053.01.049.008.043.005.041,0a.161.161,0,0,0,.037,0h.034l.029,0a.093.093,0,0,0,.024,0l.022-.007.017-.008.013-.012.008-.012Z"/>
    </g>
    <g>
      <path fill="#cd2037" d="M12.737,9.587a.258.258,0,0,0,.022-.037l.007-.014L12.8,9.5l.032-.034.052-.041c.007,0,.04-.023.046-.028l.066-.027c.014,0,.041-.006.054-.01s.077,0,.079,0a.327.327,0,0,0,.057.005l.05.013c.009.005.045.018.054.022l.059.033.05.042a.34.34,0,0,0,.032.034c0,.007.025.035.031.042a.339.339,0,0,0,.029.053.677.677,0,0,0,.028.075c0,.007.005.066.006.077l0,.059c0,.007-.006.047-.006.054l-.037.091-.016.028a.558.558,0,0,0-.039.056.348.348,0,0,0-.044.042.5.5,0,0,0-.047.033c-.006,0-.054.031-.059.032a.4.4,0,0,0-.058.02l-.055.011a.3.3,0,0,0-.06.007l-.037-.007.021,0a.231.231,0,0,0-.069-.006c-.006,0-.048-.02-.054-.021a.376.376,0,0,0-.055-.023.457.457,0,0,0-.057-.041l-.041-.042L12.771,10a.554.554,0,0,0-.03-.053c0-.014-.017-.046-.027-.069L12.7,9.81s0-.052,0-.057,0-.046.005-.063c0,0,.015-.054.018-.068S12.733,9.6,12.737,9.587Z"/>
      <path fill="#cd2037" d="M13.221,9.822l-.007.011v0l0,.006-.009.01-.011.009,0,.005-.018.011-.015.007h0l-.007,0-.012,0h-.044l0,0-.01,0-.01,0h0l-.006,0-.005,0-.012-.007,0,0-.005,0h0l0,0-.008-.01,0,0L13,9.826l0,0,0-.006v0l0,0,0-.009,0-.015V9.762h0V9.757h0l0-.014V9.736h0V9.731h0l0-.007,0-.005L13,9.7l0-.009,0,0,0,0,0,0,0-.005.007-.007,0,0,.005,0,.009-.006.006,0,.007,0,.016-.006,0,0h.005l.015,0h.041l.015,0,.01,0,.006,0,0,0h0l.013.009.008.006,0,0,0,0,.01.012.009.015,0,0,.005.011v0h0l0,.007,0,.015v.041l0,.015h0v0l0,.005,0,.012m.505.276.007-.014.008-.014.006-.014.006-.015.006-.015.007-.015L13.771,10l0-.015.005-.014,0-.016,0-.016,0-.016,0-.015,0-.015,0-.016,0-.016,0-.016V9.826l0-.016,0-.015V9.747s0-.011,0-.016V9.715l0-.017,0-.014,0-.016,0-.017,0-.015,0-.015,0-.015,0-.015,0-.016,0-.015,0-.015L13.77,9.53l-.006-.015,0-.014-.007-.015-.005-.014-.007-.014-.007-.014-.008-.015-.007-.014L13.71,9.4,13.7,9.388l-.008-.014-.009-.013-.01-.013-.01-.013-.009-.012-.011-.012L13.634,9.3l-.011-.012-.01-.012L13.6,9.264l-.011-.011-.011-.011-.012-.01-.013-.011-.011-.01L13.529,9.2l-.012-.01L13.5,9.184l-.014-.009-.013-.008-.014-.008L13.45,9.15l-.014-.007-.014-.007-.014-.007-.015-.007-.014-.006-.015-.006L13.349,9.1l-.014,0-.016-.005-.015,0-.015,0-.015,0-.016,0-.016,0-.016,0-.015,0H13.2l-.016,0-.016,0h-.128l-.015,0-.016,0h-.016l-.015,0-.015,0-.016,0-.015,0-.015,0L12.9,9.1l-.015,0-.015.005-.015.007-.014.005-.015.006-.014.006-.015.007-.014.008-.014.007-.013.007-.014.009-.013.009-.014.008-.013.01-.012.009-.013.01-.012.01-.012.011-.012.01-.012.011-.011.012-.011.011-.011.011-.011.011-.011.013-.01.012-.01.012-.009.013-.009.013-.009.013-.008.014-.008.013h0l-.008.014-.007.014-.008.014-.006.014-.008.015-.006.014h0l-.006.014-.006.015-.005.014-.006.016-.005.014,0,.016,0,.015,0,.016,0,.016,0,.015,0,.016,0,.015v.016l0,.016,0,.016V9.8a143809957443.951,143809957443.951,0,0,0,0,.032v.015l0,.017,0,.015,0,.016,0,.014,0,.016,0,.016,0,.015,0,.015.005.014,0,.015.006.015.005.014.006.015.007.015.006.014.008.014.007.014.007.014.008.014.009.014.009.014.008.014.01.012.009.012.01.013.01.012.011.012.011.012.011.012.011.011.011.011.012.011.012.01.012.01.012.01.013.01.013.01.013.008.013.009.014.008.013.008.014.008.014.008.014.007.014.007.015.006.014.007.014.006.016,0,.014.007.015,0,.016.006.015,0,.016,0,.015,0,.015,0,.016,0,.015,0,.016,0,.016,0h.016l.016,0h.081l.014,0h.017l.015,0h.017l.015,0,.015,0,.015,0,.016,0,.015,0,.015,0,.015-.005.015,0,.015-.006.015-.005.015-.006.014-.007.014,0,.014-.007.014-.007.015-.008.013-.008.014-.008.013-.009.014-.009.014-.009.012-.009.013-.01.012-.01.012-.011.011-.011.012-.011.012-.01.011-.012.011-.011.011-.012.01-.012.01-.012.011-.013.008-.012.01-.014.008-.012.009-.014.008-.014.008-.013.008-.014Z"/>
    </g>
    <g>
      <polygon fill="#cd2037" points="14.692 5.866 15.445 6.232 13.619 9.712 12.874 9.322 14.692 5.866"/>
      <path fill="#cd2037" d="M15.052,6.361,13.5,9.324,13.263,9.2l1.554-2.955.235.114m.785-.258-1.27-.617L12.485,9.444l1.255.656,2.1-4Z"/>
    </g>
    <g>
      <polygon fill="#cd2037" points="15.417 7.354 15.305 8.354 14.528 9.044 15.417 7.354"/>
      <polygon fill="#cd2037" points="15.578 8.495 15.875 5.868 13.537 10.312 15.578 8.495"/>
    </g>
    <g>
      <path fill="#cd2037" d="M27.2,6.474l-.028-.013-.026-.015-.027-.013-.026-.016L27.069,6.4l-.026-.015-.024-.016-.025-.018-.023-.017-.024-.019L26.924,6.3l-.023-.02-.023-.019-.021-.02-.021-.021L26.815,6.2,26.8,6.174l-.02-.022-.02-.023-.018-.024-.019-.022L26.7,6.058l-.017-.024c-.005-.008-.011-.016-.016-.025a.183.183,0,0,1-.016-.026.213.213,0,0,1-.016-.025l-.016-.026-.013-.026-.014-.026-.014-.027-.012-.026L26.553,5.8l-.01-.027-.011-.029-.01-.027-.01-.029L26.5,5.659,26.5,5.63,26.488,5.6c0-.01,0-.019-.007-.029l-.007-.029a.268.268,0,0,1,0-.03l-.005-.028,0-.031a.135.135,0,0,1,0-.029l0-.03,0-.03a.291.291,0,0,1,0-.03l0-.029v-.09l0-.03,0-.029,0-.029,0-.03,0-.029.005-.03,0-.029.007-.029.007-.028.007-.029.01-.029.009-.027.009-.029.011-.029a.231.231,0,0,0,.01-.028l.012-.026.012-.028.014-.027.014-.026.013-.027.015-.026.016-.026.015-.026.016-.024.017-.025.018-.025.018-.023.019-.024.019-.022.019-.022.021-.022.02-.022.021-.02.021-.021L26.89,4.3l.022-.02.022-.019.024-.019.023-.018.025-.017.024-.018.026-.016.025-.016.026-.015.025-.015.027-.015a.13.13,0,0,0,.026-.014l.027-.012.027-.012.028-.011.028-.011.027-.011.028-.01.029-.008.028-.009.03-.007L27.465,4l.029-.007.029-.006.03,0,.029,0,.03,0,.03,0,.029,0,.03,0h.03a.15.15,0,0,1,.03,0h.06l.03,0,.029,0,.03,0,.029,0,.03,0,.029,0,.029.005L28.056,4,28.085,4l.03.008.028.008.029.009.027.009.029.009.028.012.028.012.026.011.027.013.027.014.027.014.026.014.026.015.026.016.025.014.025.017.025.018.023.017.024.019.022.019.023.019.022.019.022.021.021.021.021.021.02.022.02.022.019.023.019.023.018.023.018.024.018.025.015.025a.138.138,0,0,1,.017.025c0,.008.011.016.016.025l.015.026.014.026.014.027.014.026.012.027a.1.1,0,0,1,.011.028l.012.026.01.029c0,.009.008.018.011.027a.161.161,0,0,1,.009.029l.009.028.009.029c0,.01,0,.019.007.029A.182.182,0,0,0,29.057,5l.005.029a.234.234,0,0,1,0,.03.25.25,0,0,1,0,.029.272.272,0,0,1,0,.03.254.254,0,0,1,0,.029l0,.03V5.2a.283.283,0,0,1,0,.03v.119l0,.03,0,.03,0,.029,0,.03,0,.029,0,.029-.006.029-.007.029-.007.028-.009.03-.007.028-.01.029-.009.027L29,5.757l-.012.028a.159.159,0,0,1-.012.027l-.011.027-.014.026-.014.027-.013.027-.015.026-.016.026L28.878,6a.22.22,0,0,1-.017.025l-.016.024-.018.025-.018.023-.019.024-.019.022-.019.022a.223.223,0,0,1-.021.022l-.02.022-.021.021-.022.02-.022.02-.021.019-.023.02-.024.018-.023.018-.024.018-.025.017-.025.016-.025.016-.026.016L28.4,6.44a.174.174,0,0,0-.027.014.165.165,0,0,0-.026.014l-.027.012-.027.013L28.27,6.5l-.028.011-.029.01a.148.148,0,0,1-.027.01l-.029.009-.029.008L28.1,6.56l-.029.008-.029.007-.029.006-.03,0-.029,0-.03,0-.03,0-.03,0-.029,0h-.149l-.03,0-.03,0-.029,0-.03,0-.028,0-.03-.006-.029-.006-.03-.007-.028-.007-.028-.008-.03-.009-.027-.01-.029-.009-.027-.012L27.252,6.5l-.026-.012Z"/>
      <path fill="#cd2037" d="M28.947,5.88l.006-.014.014-.027.011-.026a.236.236,0,0,0,.012-.028L29,5.757a.231.231,0,0,0,.01-.028l.009-.028.01-.029.008-.028.008-.029.007-.029.007-.028.006-.029,0-.03,0-.028a.176.176,0,0,0,0-.031l0-.029,0-.03,0-.029v-.06a.3.3,0,0,0,0-.03V5.233a.156.156,0,0,0,0-.031V5.173l0-.03,0-.03,0-.029-.005-.03,0-.03,0-.028-.007-.03-.008-.028-.009-.029-.009-.028a.14.14,0,0,0-.009-.029l-.011-.028L29,4.8l-.012-.027a.162.162,0,0,0-.011-.028l-.012-.026a.138.138,0,0,0-.014-.027.13.13,0,0,0-.014-.026l-.014-.027L28.9,4.61l-.016-.025-.017-.026-.015-.025-.017-.024-.019-.024L28.8,4.463l-.019-.024-.019-.023-.02-.021-.02-.022L28.7,4.351l-.021-.021-.022-.02-.022-.019-.022-.019-.023-.019-.024-.019-.023-.017L28.521,4.2a.22.22,0,0,1-.025-.017l-.025-.015-.025-.016-.027-.014-.026-.015-.027-.014L28.339,4.1l-.027-.013-.026-.011a.139.139,0,0,0-.028-.012l-.028-.012-.029-.01-.027-.008-.029-.01-.028-.008L28.087,4,28.058,4l-.029,0L28,3.985l-.029,0-.03,0-.029,0-.029,0-.03,0h-.09a.094.094,0,0,0-.029,0H27.7l-.03,0-.03,0-.03,0-.029,0-.03,0-.03.006-.029,0L27.467,4l-.028.008-.03.007-.028.009-.028.009-.029.01-.027.01-.028.012-.028.011-.027.012-.027.012-.026.014-.027.015-.025.014-.026.015-.025.016-.026.017-.024.017-.025.017-.023.018-.023.019-.023.019-.022.02-.023.019-.021.021-.021.021-.02.021-.021.022-.019.022-.019.023-.018.024-.019.023-.017.024-.017.026-.017.023-.015.026-.016.026a.215.215,0,0,0-.014.026l-.014.027-.008.013-.006.014-.014.027-.012.028-.012.025-.01.029c0,.009-.007.018-.011.028l-.009.029a.229.229,0,0,0-.009.028l-.01.029-.007.028-.007.029-.007.028,0,.029,0,.03-.005.03,0,.029,0,.029,0,.03,0,.03v.089c0,.01,0,.02,0,.03s0,.02,0,.03l0,.029,0,.03,0,.03,0,.03,0,.029,0,.03.007.028.007.03.007.028.009.029.009.029.009.028.01.027.011.029a.133.133,0,0,1,.01.028.174.174,0,0,0,.014.027l.012.027a.165.165,0,0,0,.014.026.13.13,0,0,0,.014.026l.014.027.015.026.016.025.016.025.016.025.017.025.018.025.019.022.019.024.019.022.02.022.019.022.022.021.02.021.021.02.023.019a.143.143,0,0,0,.023.02l.023.019.024.019L27,6.352l.025.018a.25.25,0,0,1,.024.016l.026.016.025.015.026.016.027.014.026.014.028.013.027.013.026.012.028.011.028.011.029.01.027.01.03.008.028.008.028.007.03.008.029.006.029,0,.029,0,.03,0,.029,0,.03,0,.029,0,.031,0h.058a.156.156,0,0,0,.031,0h.029l.03,0,.03,0,.03,0a.145.145,0,0,1,.029,0l.03,0,.03,0,.029-.005.029-.008.028-.007a.157.157,0,0,0,.029-.008l.029-.008.028-.009.028-.01.028-.01.028-.012.028-.01a.174.174,0,0,0,.027-.014l.027-.012.026-.013.027-.014.025-.016.026-.015.025-.016.026-.017.024-.017.025-.017.023-.018.024-.019.022-.019.022-.02.022-.019.022-.02.021-.021.02-.022.02-.022.019-.022.019-.023.019-.024.018-.023.018-.024.017-.024L28.881,6l.016-.026.016-.026.014-.026.014-.027.006-.013Z"/>
    </g>
    <g>
      <polygon fill="#cd2037" points="26.844 4.801 28.545 6.038 25.178 12.844 21.765 11.284 26.844 4.801"/>
      <path fill="#cd2037" d="M25.044,12.466l-2.828-1.293L26.9,5.2l1.28.932-3.135,6.338m.268.755,3.6-7.272L26.789,4.405l-5.476,6.989,4,1.827Z"/>
    </g>
    <g>
      <path fill="#cd2037" d="M14.809,5.644a.286.286,0,0,0,.024-.042l.033-.045.012-.013a.224.224,0,0,0,.044-.043l.045-.032s.061-.029.07-.035L15.1,5.42c.012,0,.055-.008.066-.011l.058,0a.231.231,0,0,0,.059,0c.01,0,.043.019.053.021l.06.03.053.033.041.043.051.065a.409.409,0,0,0,.023.047s.019.054.021.058l.01.056,0,.062c0,.014-.007.065-.007.069a.511.511,0,0,0-.013.053.46.46,0,0,0-.025.065.346.346,0,0,0-.031.047l-.043.048-.04.034a.474.474,0,0,0-.051.037.361.361,0,0,0-.049.021l-.054.019-.065.011h-.054c-.014,0-.052-.006-.067-.007s-.052-.017-.062-.019l-.02-.01,0,0-.056-.03-.042-.031L14.878,6.1c-.006-.007-.028-.033-.036-.041a.225.225,0,0,0-.028-.047.2.2,0,0,0-.024-.054.669.669,0,0,0-.02-.077c0-.008,0-.045,0-.053V5.824a.554.554,0,0,0,0-.075.358.358,0,0,0,.014-.054A.354.354,0,0,0,14.809,5.644Z"/>
      <path fill="#cd2037" d="M15.292,5.88l-.008.013h0l0,0,0,0h0l-.008.008,0,0-.017.013h0l-.006,0-.007,0-.016.006-.005,0-.012,0h-.049l-.015,0-.008,0-.007,0-.006,0L15.1,5.922l0,0-.005,0h0L15.081,5.9l0,0-.008-.014v0l-.005-.011v0l0,0,0-.014V5.81l0-.015,0-.011h0v0l0,0,.006-.013.005-.009,0,0h0l.006-.006h0l.007-.008.006,0,.01-.008.005,0,.01-.007.014,0,.01,0,.01,0h.023l.016,0H15.2l.007,0,.014,0,.01,0,.006,0,0,0,.01.006h0l.012.009,0,0,0,0,.008.008v0l0,0,.008.013,0,0,0,.011,0,.008,0,.019v.03l0,.016,0,.01h0v0l0,.015m.505.276.007-.014.008-.014.006-.015.006-.014.007-.015.006-.014.005-.015,0-.015.005-.014,0-.016,0-.015,0-.016,0-.016,0-.015V5.932l0-.016,0-.016,0-.016V5.853l0-.016s0-.011,0-.016V5.805a.086.086,0,0,0,0-.016.1.1,0,0,0,0-.017.092.092,0,0,0,0-.016V5.742l0-.017,0-.016,0-.015,0-.016,0-.015,0-.015,0-.015,0-.015L15.846,5.6l-.005-.014-.006-.014-.005-.015-.006-.015-.006-.014-.007-.014L15.8,5.5,15.8,5.487l-.007-.014-.008-.014-.008-.013-.008-.014-.009-.013-.01-.013-.01-.013-.01-.013-.01-.011-.011-.012-.011-.012-.01-.012-.012-.011-.011-.011L15.65,5.3l-.012-.01-.013-.011-.011-.01L15.6,5.26l-.011-.01-.014-.009-.014-.008-.013-.008-.013-.008-.014-.009L15.506,5.2l-.013-.007-.014-.007-.015-.007-.014-.006-.015-.006-.015-.006-.015-.006-.015,0-.015,0-.015,0-.015,0-.016,0-.016,0-.015,0-.016,0-.016,0-.016,0-.016,0h-.1l-.015,0a.043.043,0,0,0-.016,0l-.016,0-.016,0-.016,0-.015,0-.015,0-.016,0-.015,0-.014,0-.015,0-.016.005-.014.006-.015,0-.015.006-.014.006-.015.006-.014.007-.014.007-.015.008-.013.007-.013.009-.014.009-.014.009-.012.009-.014.009-.012.011-.012.009-.012.011-.012.011-.012.01-.011.012-.012.01-.01.012-.011.011-.011.013-.01.012-.01.012-.009.013-.009.013-.009.013-.008.013h0l-.008.013h0l-.008.013-.008.015-.008.014-.006.014-.007.014-.006.015h0l-.006.013h0l-.006.014,0,.015-.006.015-.005.014,0,.016,0,.015,0,.016,0,.016,0,.015,0,.016,0,.015,0,.016,0,.016,0,.016v.016l0,.016a.086.086,0,0,0,0,.016V5.84a.045.045,0,0,0,0,.016.043.043,0,0,0,0,.016.086.086,0,0,0,0,.016l0,.015,0,.016,0,.016,0,.016,0,.014,0,.016L14.5,6l0,.016,0,.015.006.014.005.016,0,.014.006.015.006.015.005.014.007.014.007.014.008.015.007.014.009.014.007.013.009.013.01.015.009.012.009.012.011.013.01.012.01.012.011.012.011.012.011.011.011.011.012.011.012.01.012.01.012.01.013.01.012.01.014.008.013.009.014.008.013.008.014.008.014.008.014.007.014.007.015.006.015.007.013.006.016,0,.014.007.016,0,.015.006L15,6.5l.016,0,.015,0,.015,0,.016,0,.016,0,.016,0,.016,0,.016,0h.1l.015,0h.016l.015,0,.017,0,.015,0,.016,0,.014,0,.016,0,.015,0,.015,0,.015-.005.015,0,.015-.006.015-.006.014-.006.015-.006.015,0,.014-.007.014-.008.014-.007.013-.008.014-.009.013-.008.014-.009.013-.009.013-.009.012-.011.013-.009.012-.011.012-.011.012-.011.011-.011.012-.011L15.7,6.3l.011-.012.01-.012.01-.012.011-.013.009-.012.009-.014.009-.012.008-.014.008-.014.008-.014.008-.013Z"/>
    </g>
  </g>
  <g>
    <g>
      <path fill="#333" d="M44.339,27.006v-.65l.008-.865.022-1.286.051-1.7.026-.633.072-1.437.076-1.2.122-1.552.069-.744.151-1.427.127-1,.185-1.255.1-.585.153-.815.163-.742.169-.672.114-.4.12-.37L46.2,9.3l.127-.3.091-.186.116-.205.1-.149.042-.052.139-.145.074.042.092.094.043.048.112.17.114.2.056.114.118.268.125.324.11.323.173.584.112.436.111.479.106.5.156.819.147.888.136.946.167,1.353.148,1.448.127,1.532.078,1.193.068,1.227.053,1.252.041,1.271.035,1.718.008,1.3,0,1.315L49.3,29.385l-.045,1.706-.07,1.675-.068,1.225-.11,1.583-.131,1.508-.112,1.077-.125,1.032-.131.962-.1.623c-.014.095-.146.854-.146.854l-.158.8L48,42.914l-.111.455-.112.413-.119.388-.117.344-.117.3-.065.15-.11.233-.115.2-.1.15-.051.061-.07.075-.089.053-.089-.07-.091-.1-.11-.164-.117-.209-.112-.232-.119-.287-.067-.183-.166-.5-.118-.408-.169-.675-.162-.737-.1-.54-.15-.866-.14-.926c-.015-.1-.087-.648-.087-.648l-.084-.683-.078-.7-.143-1.477-.062-.761L44.572,34.4,44.5,33.18l-.076-1.662-.051-1.7-.022-1.3Z"/>
      <path fill="#333" d="M48.815,26.79v.434c0,.142,0,.285,0,.426s0,.292,0,.434l0,.283v.152c0,.137,0,.286-.006.435l-.008.421c0,.14-.007.282-.011.422l-.01.429c0,.147-.007.283-.012.418l-.006.205-.007.232-.016.414-.016.42-.018.411c-.006.145-.012.28-.019.414s-.014.269-.022.4-.014.278-.022.411l-.023.408c-.008.13-.016.261-.026.392l-.026.4c-.009.139-.018.266-.027.392s-.022.26-.031.393-.02.25-.03.375l-.017.2-.017.186-.032.374c-.012.119-.024.247-.035.374l-.017.171-.019.182-.021.2-.015.156-.039.355-.039.335-.041.344c-.013.11-.027.219-.042.326s-.029.223-.043.328l-.045.325-.01.067L48,40.086l-.047.308-.047.29c-.015.107-.03.194-.046.28l-.051.3-.051.278-.049.257c-.018.1-.033.174-.05.253l-.04.193-.016.079c-.015.075-.033.152-.05.229s-.036.163-.053.233l-.057.237-.055.218-.055.211-.057.2-.054.178c-.02.069-.037.123-.054.176s-.038.118-.057.172l-.058.166c-.014.039-.031.084-.049.129-.026.068-.043.111-.06.153l-.049.111c-.024.054-.039.087-.055.119l-.009.02-.011-.022-.054-.119-.051-.122-.057-.139-.041-.112-.059-.186-.056-.17-.06-.188-.055-.187-.056-.2-.051-.194-.055-.223-.055-.226c-.019-.076-.035-.149-.051-.223-.022-.093-.039-.168-.054-.245-.021-.1-.039-.177-.055-.259l-.035-.177-.017-.088c-.016-.083-.033-.167-.048-.254s-.035-.19-.05-.28c-.019-.106-.036-.2-.051-.289l-.048-.291c-.016-.1-.031-.194-.045-.291s-.033-.211-.047-.311-.033-.214-.047-.316-.028-.2-.041-.31l-.046-.344-.04-.324c-.016-.121-.029-.231-.043-.342s-.025-.224-.037-.336c-.015-.127-.027-.241-.039-.358l-.012-.111-.025-.249-.037-.364c-.013-.121-.024-.241-.034-.363s-.025-.253-.035-.375-.021-.246-.03-.37l-.031-.387c-.011-.136-.021-.264-.03-.392l-.024-.329-.005-.065c-.007-.126-.017-.262-.026-.4l-.023-.369-.026-.429c-.006-.13-.014-.27-.022-.411l-.013-.274L45,32.735l-.021-.414-.016-.409c-.007-.147-.013-.284-.019-.422s-.009-.28-.014-.424-.01-.278-.014-.416l-.006-.214-.006-.214c0-.138-.006-.284-.01-.429l-.008-.423-.008-.431c0-.142-.005-.283-.006-.425l0-.239v-.194l0-.434v-1.3l0-.424v-.2l0-.239.006-.424.007-.408.009-.454c0-.138.007-.284.01-.43l0-.139.008-.278c0-.141.009-.28.014-.418s.009-.286.014-.425l.018-.411.017-.429.02-.405.007-.128.014-.285c.008-.13.016-.27.022-.412l.024-.4.025-.4c.009-.124.018-.261.026-.4l0-.054.024-.329c.009-.128.019-.255.03-.382l.03-.386c.01-.134.02-.257.031-.381s.021-.243.033-.363.023-.254.035-.373l.037-.365.025-.25.011-.113c.012-.115.025-.23.038-.344s.026-.236.039-.346.027-.223.041-.332l.043-.349.043-.329.043-.313c.014-.1.029-.2.045-.3s.031-.211.046-.308c.017-.114.032-.209.047-.3l.048-.293c.016-.094.032-.186.049-.276s.034-.192.05-.278c.018-.1.034-.189.05-.272l.017-.087.036-.181c.016-.079.033-.16.051-.241s.036-.166.053-.243.037-.164.054-.235l.056-.234c.018-.078.035-.142.052-.205l.059-.226c.016-.061.033-.122.051-.181l.063-.217.049-.155.058-.176.058-.163.055-.148.054-.135.055-.132.055-.119c.024.053.04.086.054.119.023.053.038.086.051.121.028.068.043.1.057.142.027.068.045.113.061.159l.054.155c.02.058.038.113.056.171s.036.113.052.168l.063.206.056.2.05.194.057.224.054.225.054.24c.018.077.035.152.051.229l.016.078.037.181.037.183.016.082.052.269c.016.086.033.176.048.266l.032.185.017.1.048.291.049.3c.016.1.03.2.045.3l.045.316.044.323c.015.1.029.212.042.319s.03.227.043.336l.041.344.041.348.038.355.015.144.021.207.037.363c.011.116.022.244.035.373l.032.365.033.381c.011.126.02.251.03.377s.021.267.032.4c.009.116.017.243.025.373s.019.268.027.4.019.273.027.4l.022.4c.008.142.016.275.022.409s.017.28.023.415.013.268.018.4l.019.42.016.421.016.424.005.187.007.229.006.214.005.215.011.42c0,.15.007.291.01.431l.008.432c0,.137,0,.286.006.435l0,.14,0,.284c0,.14,0,.282,0,.423s0,.294,0,.436m1.029,0c0-.145,0-.291,0-.433s0-.29,0-.434l-.005-.434c0-.145,0-.29-.006-.434s-.005-.288-.008-.432-.006-.288-.01-.432-.007-.286-.011-.43l-.012-.428c0-.143-.009-.285-.013-.426s-.011-.283-.016-.424-.012-.282-.017-.422-.012-.28-.018-.419-.012-.278-.019-.415-.015-.277-.023-.414-.014-.276-.022-.412-.014-.271-.022-.407l-.027-.4q-.012-.2-.027-.4c-.008-.134-.017-.266-.027-.4s-.021-.261-.031-.391-.02-.258-.031-.387-.022-.256-.033-.382-.021-.253-.032-.379-.024-.249-.035-.372-.025-.246-.037-.366-.026-.243-.038-.362-.026-.24-.039-.358-.027-.235-.041-.35-.027-.232-.041-.345-.028-.228-.043-.34-.028-.222-.043-.333-.03-.219-.045-.326-.031-.214-.045-.318l-.048-.315c-.016-.1-.033-.2-.049-.3s-.033-.2-.049-.3-.033-.194-.049-.29-.033-.192-.051-.286l-.054-.276c-.018-.09-.035-.18-.053-.269s-.036-.176-.054-.262-.036-.171-.055-.253-.038-.166-.056-.245-.038-.161-.057-.239-.039-.152-.058-.228l-.058-.219c-.02-.073-.04-.144-.06-.212s-.04-.137-.061-.2-.039-.13-.06-.193-.041-.127-.061-.187-.041-.119-.062-.177-.042-.111-.064-.166S47.92,9.052,47.9,9s-.042-.1-.064-.15-.042-.1-.063-.14-.043-.088-.064-.129-.044-.083-.066-.121-.044-.077-.067-.113-.044-.07-.066-.1-.043-.064-.066-.094-.045-.057-.067-.083S47.33,8.02,47.308,8l-.068-.064a.832.832,0,0,0-.068-.053.683.683,0,0,0-.2-.1.391.391,0,0,0-.068-.014.382.382,0,0,0-.068-.006.315.315,0,0,0-.067.006.343.343,0,0,0-.068.014c-.021.007-.044.015-.067.025a.616.616,0,0,0-.068.034.5.5,0,0,0-.066.044c-.023.016-.045.034-.068.053L46.363,8l-.068.074c-.022.026-.044.054-.066.083s-.044.061-.066.094-.045.065-.066.1-.044.073-.066.113-.045.079-.066.121-.044.084-.066.129l-.064.14c-.021.047-.042.1-.064.15s-.043.1-.064.158-.041.11-.062.166-.041.117-.061.177-.041.123-.062.187-.041.127-.062.193-.038.136-.059.2-.04.139-.06.212-.038.145-.057.219-.04.152-.058.228-.038.158-.058.239-.037.161-.055.245-.038.169-.056.253-.038.174-.056.262-.035.179-.053.269-.035.184-.051.278-.035.188-.052.284-.035.193-.051.292-.033.2-.049.3-.033.2-.047.307-.033.207-.048.313-.033.211-.048.318-.03.217-.045.327-.028.22-.043.331-.027.226-.041.34-.029.229-.043.345-.027.232-.039.35-.027.238-.04.358-.024.24-.037.362-.024.244-.037.366-.024.248-.035.374-.024.251-.035.377-.021.255-.031.382-.021.258-.031.387-.022.262-.031.393-.02.262-.029.395-.017.266-.027.4l-.024.4-.025.407c-.007.137-.014.274-.022.411s-.014.276-.021.414l-.021.415c-.005.14-.011.28-.016.42s-.014.28-.019.421-.01.283-.014.425-.01.285-.014.427-.008.284-.013.428-.006.286-.01.43-.005.286-.008.43-.005.288-.008.433-.005.289-.006.433,0,.289,0,.434l0,.434v.436c0,.072,0,.145,0,.217s0,.145,0,.217v.436l0,.434c0,.145,0,.29,0,.434s0,.29.006.434,0,.288.008.432.005.288.008.432.007.286.01.43.009.285.013.428.009.283.014.426.01.283.014.424.012.282.019.422.011.28.016.419.014.277.021.415.014.277.021.414.015.274.022.412l.025.407.024.4q.015.2.027.4c.009.133.019.265.029.4s.02.263.031.393.02.258.031.387.02.255.031.382.023.252.035.377.023.251.035.374.025.246.037.366.026.243.037.362.026.24.04.358.025.235.039.35.028.232.043.345.027.228.041.34.031.221.045.331.029.22.043.327.032.214.048.318.031.211.048.315.031.205.047.3.033.2.049.3.034.2.051.29.034.192.052.286.033.185.051.276.035.18.053.269.037.176.056.262.036.171.056.253.036.166.055.245.039.161.058.239.038.152.058.228.038.148.057.22.041.143.06.211l.059.2c.021.065.041.13.062.193s.041.127.062.187.04.119.061.177.041.111.062.166.043.108.064.158.043.1.064.15l.064.14c.022.045.043.088.066.129s.044.083.066.121.044.078.066.113.044.07.066.1.044.064.066.095.044.056.066.082.045.051.068.074.044.043.067.064.044.037.066.054.047.03.068.043.046.025.068.035a.679.679,0,0,0,.067.024.433.433,0,0,0,.068.014.388.388,0,0,0,.067.006.307.307,0,0,0,.068-.006.316.316,0,0,0,.068-.014.535.535,0,0,0,.067-.024.731.731,0,0,0,.068-.035.541.541,0,0,0,.067-.043.846.846,0,0,0,.068-.054c.021-.021.045-.041.068-.064s.044-.048.066-.074l.067-.082c.023-.03.044-.062.066-.095s.045-.065.066-.1.044-.073.067-.113.043-.078.066-.121.043-.084.064-.131.043-.092.063-.14.044-.1.066-.15.041-.1.062-.158.043-.11.064-.166l.062-.177c.02-.06.041-.123.061-.187s.04-.127.06-.193.041-.136.061-.2.039-.139.06-.212.038-.145.058-.219.038-.152.058-.229.038-.157.057-.238.038-.161.056-.245.037-.169.055-.253l.054-.262c.019-.089.037-.179.053-.269s.036-.184.054-.278.033-.188.051-.284.033-.193.049-.292.034-.2.049-.3.033-.2.049-.307.031-.207.048-.313.03-.211.045-.318.03-.217.045-.327.03-.22.043-.331.03-.226.043-.34.028-.229.041-.345.028-.232.041-.35.026-.238.039-.358.025-.24.038-.362.024-.244.037-.366.022-.248.035-.374.021-.251.032-.377L49.492,36c.011-.13.021-.258.031-.387s.02-.262.031-.393.019-.262.027-.395.019-.266.027-.4l.027-.4c.008-.135.015-.271.022-.407s.015-.274.022-.411.016-.276.023-.414.013-.277.019-.415.013-.28.018-.42.011-.28.017-.422.011-.282.016-.424.009-.284.013-.425.009-.286.012-.43.008-.285.011-.428.007-.288.01-.432.005-.289.008-.433,0-.289.006-.433l.005-.434c0-.145,0-.29,0-.434s0-.29,0-.436V26.79Z"/>
    </g>
    <g>
      <polygon fill="#333" points="31.342 26.629 31.629 26.584 32.246 26.498 32.767 26.439 33.524 26.365 35.042 26.248 36.296 26.177 38.083 26.103 40.607 26.042 43.794 26.029 44.944 26.041 46.369 26.07 49.048 26.166 50.27 26.233 51.62 26.33 53.143 26.478 53.77 26.559 54.216 26.629 53.915 26.676 53.312 26.759 52.617 26.837 51.829 26.911 50.738 26.993 49.303 27.079 48.28 27.126 46.932 27.173 44.942 27.217 43.509 27.231 40.892 27.22 38.634 27.173 37.289 27.126 35.768 27.053 34.37 26.963 32.416 26.779 31.777 26.697 31.342 26.629"/>
      <path fill="#333" d="M47.78,26.628l-.052,0c-.1,0-.186.008-.271.01l-.274.008c-.1,0-.188.009-.275.011l-.277.006-.14,0-.139,0c-.089,0-.178,0-.267.006l-.282.006-.285.006-.283,0-.291.006-.241,0h-.047c-.086,0-.187,0-.29,0l-.29,0-.291,0c-.087,0-.189,0-.291,0H42.048c-.087,0-.189,0-.292,0-.086,0-.187,0-.289,0l-.274,0-.3,0h-.03l-.244,0-.273,0-.3,0c-.09,0-.179,0-.269-.006-.107,0-.2,0-.284-.006-.1,0-.193,0-.282-.006l-.139,0-.14,0-.292-.006-.246-.01-.288-.009c-.085,0-.169-.006-.253-.01l-.068,0h.052l.269-.011.274-.008.275-.008.277-.008.14,0,.139,0,.282-.006c.088,0,.178,0,.269-.006l.284-.006.286,0,.3-.007.258,0,.3,0,.289,0,.291,0h.278l.292,0h.875l.278,0H43.8c.086,0,.187,0,.289,0l.276,0,.29.005c.107,0,.2,0,.289,0l.288.006.286,0,.269.006.283.006.3.007.124,0,.14,0,.277.008.276.008.272.009c.086,0,.17,0,.254.009l.068,0m7.928,0a.11.11,0,0,0,0-.027.062.062,0,0,0-.01-.024.123.123,0,0,0-.017-.025l-.022-.024a.15.15,0,0,0-.029-.027l-.037-.025-.043-.024-.049-.025c-.017-.008-.035-.016-.056-.024l-.061-.025-.068-.024-.076-.025-.082-.024c-.028-.008-.056-.016-.086-.022s-.062-.017-.095-.025l-.1-.024-.107-.023c-.035-.008-.072-.015-.11-.022s-.079-.016-.12-.022l-.125-.025-.13-.022c-.043-.008-.089-.014-.136-.021s-.093-.016-.141-.022l-.148-.022c-.051-.008-.1-.015-.155-.021s-.1-.014-.158-.021-.11-.016-.166-.022-.111-.014-.169-.021-.117-.012-.177-.019l-.179-.021c-.061-.006-.124-.013-.187-.018s-.127-.014-.191-.021l-.2-.018-.2-.019-.2-.016c-.07-.007-.14-.014-.21-.019l-.216-.016-.218-.017L51,25.772l-.226-.016-.233-.017c-.078,0-.156-.009-.234-.014s-.16-.009-.241-.014l-.243-.014-.246-.013c-.083,0-.166-.008-.251-.014l-.254-.012c-.084-.005-.171-.008-.257-.011l-.259-.012c-.088-.005-.175-.008-.263-.011l-.265-.012-.27-.009-.269-.01-.274-.008-.275-.008-.278-.008-.28-.009q-.141,0-.282-.006l-.284-.006-.284,0-.286,0c-.095,0-.192,0-.288-.006l-.288,0-.29-.005-.289,0-.29,0h-.292c-.1,0-.194,0-.292,0h-.875c-.1,0-.2,0-.292,0h-.292l-.29,0-.29,0-.289.005-.288,0-.289.006-.286,0-.283,0c-.1,0-.191,0-.284.006l-.282.006-.28.009-.278.008-.276.008-.273.008-.27.01-.269.009-.265.012c-.089,0-.176.006-.264.011l-.259.012c-.086,0-.173.006-.257.011l-.253.012c-.086.006-.169.01-.252.014l-.246.013-.243.014-.241.014-.234.014-.233.017-.226.016-.225.016-.217.017-.216.016c-.07,0-.14.012-.21.019l-.206.016-.2.019-.2.018-.191.021c-.064,0-.126.012-.188.018l-.179.021c-.06.007-.118.014-.176.019l-.171.021c-.055.006-.11.014-.165.022l-.158.021-.155.021-.148.022c-.047.006-.095.014-.141.022l-.136.021-.132.022-.123.025c-.042.006-.081.014-.12.022l-.113.022-.1.023-.1.024-.1.025c-.03.006-.059.014-.088.022l-.08.024-.076.025-.068.024-.061.025c-.021.008-.04.016-.056.024l-.049.025-.043.024-.037.025a.15.15,0,0,0-.029.027.1.1,0,0,0-.023.024.117.117,0,0,0-.016.025.064.064,0,0,0-.011.024.11.11,0,0,0,0,.027.067.067,0,0,0,0,.024.062.062,0,0,0,.011.025.084.084,0,0,0,.016.024.138.138,0,0,0,.023.027.249.249,0,0,0,.029.025l.037.024c.013.008.027.017.043.025l.049.024c.016.008.035.017.056.025l.061.024.068.025.076.024.08.025.088.022.1.025.1.024.1.022c.037.009.075.016.113.023l.12.024.123.022.132.023.136.021.141.022.148.022.155.021.158.022c.054.008.11.014.166.021l.169.021c.057.006.117.013.177.018s.119.014.179.021.124.014.187.021.126.012.192.019l.2.018c.066.005.132.012.2.019s.137.012.2.018l.21.017.216.016c.071.007.143.013.218.018s.149.01.224.015l.226.016.233.016.235.014.24.014.243.015.247.012.251.014.253.013.257.013.259.01.264.013.265.01.27.008c.089,0,.179.008.269.011l.274.008.275.01.278.006.28.008c.094,0,.188.005.282.006s.188,0,.284.006.189,0,.284.006l.286,0,.288.005.288,0,.29,0,.289,0c.1,0,.194,0,.29,0l.292,0h1.459l.292,0c.1,0,.193,0,.29,0l.29,0,.289,0,.288,0,.289-.005.286,0c.1,0,.191,0,.286-.006s.187,0,.281-.006.189,0,.282-.006l.28-.008.278-.006.276-.01.273-.008c.091,0,.181-.006.272-.011l.267-.008.265-.01.263-.013.26-.01.257-.013.253-.013c.085,0,.168-.009.251-.014l.246-.012.243-.015.241-.014.235-.014.232-.016L51,27.486c.075,0,.15-.009.224-.015s.147-.011.218-.018l.216-.016.21-.017c.069-.006.137-.013.206-.018s.133-.014.2-.019l.2-.018c.064-.007.128-.014.191-.019l.188-.021.179-.021c.06,0,.119-.012.176-.018l.169-.021.166-.022.159-.021.154-.021L54,27.179l.142-.022.136-.021.129-.023.125-.022.12-.024c.038-.007.076-.014.113-.023l.1-.022.1-.024.094-.025c.03-.007.059-.014.086-.022l.083-.025.075-.024.068-.025.062-.024.055-.025.049-.024.043-.025a.4.4,0,0,0,.037-.024.187.187,0,0,0,.029-.025l.023-.027a.167.167,0,0,0,.016-.024.186.186,0,0,0,.01-.025.069.069,0,0,0,0-.024Z"/>
    </g>
    <g>
      <polygon fill="#333" points="30.925 27.63 33.34 27.631 32.16 33.3 31.548 33.242 30.925 27.63"/>
      <path fill="#333" d="M32.708,28.145l-.789,3.787-.42-3.788h1.209m1.264-1.028-3.622,0,.732,6.6,1.487.142,1.4-6.739Z"/>
    </g>
    <g>
      <polygon fill="#333" points="30.991 25.627 31.612 20.015 32.224 19.956 33.406 25.626 30.991 25.627"/>
      <path fill="#333" d="M32.774,25.113H31.565l.419-3.788.79,3.788m1.265,1.027L32.633,19.4l-1.487.141-.73,6.6,3.623,0Z"/>
    </g>
    <g>
      <path fill="#333" d="M50.036,20.471h.1c.031,0,.064,0,.1,0s.064,0,.1,0l.1,0,.094,0,.1,0,.094,0,.094.006.095,0,.093.006.094.008c.03,0,.062,0,.093.006l.09.008.093.008.091.008c.03,0,.059.006.088.011l.091.008.086.01.088.013.085.01.086.013.085.012.082.013.083.014.08.013.078.014.078.014.078.016.074.014.074.017.072.016.073.016.069.017c.022.006.045.013.068.018l.066.019c.022,0,.045.012.066.019s.041.011.062.018a.544.544,0,0,1,.061.019l.06.02.059.019.056.021.056.021.051.02.051.021.049.022a.41.41,0,0,0,.048.021l.045.023.043.022.041.022a.361.361,0,0,1,.039.022c.013.007.025.015.037.023a.256.256,0,0,1,.035.022.315.315,0,0,0,.033.022l.031.025a.173.173,0,0,1,.031.022l.027.025.025.022.022.024.021.025c.006.008.013.016.018.024l.017.025.014.022a.186.186,0,0,1,.01.025.128.128,0,0,1,.011.024l.008.025a.21.21,0,0,1,.006.024l0,.025,0,.024a.213.213,0,0,1,0,.027l0,.024a.1.1,0,0,1-.006.025l-.008.024-.009.025-.012.025-.014.022-.017.024-.018.025-.021.024-.022.025-.025.022-.027.025a.244.244,0,0,1-.031.022l-.031.024-.033.023c-.011.008-.023.015-.035.022a.277.277,0,0,1-.037.022l-.039.023c-.013.008-.028.015-.041.022l-.043.022-.045.022-.048.021-.049.022a.389.389,0,0,1-.051.021c-.016.008-.033.014-.051.021l-.056.021-.056.021c-.018.006-.038.013-.059.018s-.039.014-.06.021l-.059.019-.064.018c-.022.007-.044.014-.066.019l-.066.018-.068.019-.069.016-.073.017-.072.016-.074.016-.074.014-.078.017c-.026,0-.052.009-.078.014l-.078.014-.08.013-.083.014-.082.012-.085.013-.086.013-.085.01-.088.013c-.028,0-.057,0-.086.01l-.091.008c-.029,0-.058.008-.088.011l-.091.008-.093.008-.09.008-.093.006-.094.008-.093.006-.095,0-.094.005-.094,0-.1,0c-.031,0-.063,0-.094,0l-.1,0-.1,0-.1,0h-.193c-.033,0-.065,0-.1,0h-.193l-.1,0-.1,0-.1,0-.095,0-.1,0-.094,0c-.032,0-.063,0-.1-.005l-.094,0-.093-.006-.094-.008c-.031,0-.062,0-.093-.006l-.091-.008-.093-.008-.09-.008c-.031,0-.06-.006-.089-.011l-.09-.008c-.028-.005-.057-.007-.086-.01l-.089-.013-.086-.01-.084-.013-.085-.013-.082-.012-.082-.014-.081-.013L47.4,22.45l-.078-.014-.078-.017c-.025,0-.049-.009-.074-.014l-.074-.016-.072-.016-.072-.017-.07-.016-.068-.019-.066-.018c-.022-.005-.044-.012-.066-.019s-.041-.012-.061-.018-.043-.012-.062-.019l-.06-.021a.576.576,0,0,1-.059-.018l-.056-.021-.055-.021-.052-.021-.051-.021-.049-.022-.047-.021-.046-.022-.043-.022L46,22.015c-.014-.007-.026-.015-.039-.023a.277.277,0,0,1-.037-.022c-.012-.007-.024-.014-.035-.022l-.033-.023-.031-.024a.33.33,0,0,1-.03-.022l-.027-.025-.025-.022-.022-.025-.021-.024c-.006-.008-.013-.017-.018-.025l-.017-.024-.014-.022-.012-.025-.009-.025-.008-.024-.006-.025,0-.024a.213.213,0,0,1,0-.027l0-.024a.151.151,0,0,1,.008-.049l.008-.025.009-.024.012-.025.014-.022.017-.025c0-.008.012-.016.018-.024l.021-.025.022-.024.025-.022.027-.025a.2.2,0,0,1,.029-.022l.032-.025.033-.022a.207.207,0,0,1,.035-.022c.012-.008.024-.016.037-.023L46,21.112l.041-.022.043-.022.046-.023.047-.021L46.226,21l.051-.021.052-.02a.448.448,0,0,1,.055-.021c.018-.008.037-.014.056-.021L46.5,20.9l.062-.02a.486.486,0,0,1,.061-.019c.021-.007.041-.013.062-.018s.044-.014.066-.019l.066-.019.068-.018.07-.017.069-.016.075-.016.074-.017.074-.014.078-.016.078-.014.078-.014.08-.013.083-.014.082-.013.085-.012.084-.013.086-.01.088-.013.087-.01.09-.008c.029,0,.058-.008.089-.011l.09-.008.093-.008.091-.008.092-.006.095-.008.093-.006.094,0,.094-.006.095,0,.1,0,.094,0,.1,0c.033,0,.065,0,.1,0s.063,0,.1,0h.1l.1,0h.1Z"/>
      <path fill="#333" d="M51.326,21.566H51.3l-.121.011-.049,0-.046,0-.046,0a.3.3,0,0,0-.042,0l-.076.006-.087.006-.075,0-.044,0-.05,0-.048,0-.047,0-.1,0h-.093l-.078,0c-.031,0-.063,0-.095,0l-.094,0h-.444l-.094,0c-.032,0-.064,0-.095,0l-.078,0h-.093l-.1,0-.046,0-.047,0-.051,0-.044,0-.052,0H48.95l-.087-.006-.04,0c-.014,0-.063-.006-.078-.006l-.049,0-.086-.008-.094-.008-.056-.006h.014l.043,0,.089-.008.052,0,.043,0,.046,0,.042,0,.047,0,.028,0,.088-.006.074,0a.325.325,0,0,0,.044,0l.051,0,.046,0,.048,0,.1,0H49.4l.078,0,.095,0,.094,0h.077l.116,0h.057q.057,0,.117,0h.076l.1,0,.095,0,.078,0h.092l.1,0,.045,0,.047,0,.05,0a.325.325,0,0,0,.044,0l.048,0h.027c.029,0,.058.005.087.006l.076.007.042,0,.051,0,.053,0,.037,0,.089.008.058,0m2.847,0v-.024l0-.025a.105.105,0,0,0-.006-.024l-.008-.025-.011-.024a.186.186,0,0,0-.01-.025l-.014-.022-.017-.025-.018-.024-.021-.025-.022-.024-.025-.022-.027-.025a.173.173,0,0,0-.031-.022l-.031-.025a.315.315,0,0,1-.033-.022.256.256,0,0,0-.035-.022.285.285,0,0,0-.037-.023c-.012-.008-.026-.015-.039-.022a.41.41,0,0,0-.041-.022l-.043-.022-.045-.023-.048-.021-.049-.022-.051-.021-.051-.02a.537.537,0,0,0-.056-.021c-.018-.008-.036-.014-.056-.021s-.038-.013-.059-.019-.039-.014-.06-.02a.544.544,0,0,0-.061-.019l-.062-.019-.066-.018-.066-.019c-.023,0-.045-.012-.068-.018l-.07-.017-.072-.016-.072-.016-.074-.017-.074-.014-.078-.016-.078-.014-.078-.014-.08-.013-.083-.014-.082-.013-.085-.012-.086-.013-.085-.01-.088-.013-.086-.01-.091-.008c-.029,0-.058-.008-.088-.011l-.091-.008-.093-.008-.09-.008-.093-.006-.094-.009c-.031,0-.061,0-.093-.005l-.095,0-.094-.006-.094,0-.1,0-.094,0-.1,0c-.032,0-.065,0-.1,0s-.065,0-.1,0h-.1l-.1,0h-.1l-.1,0h-.1c-.032,0-.065,0-.1,0s-.064,0-.1,0l-.1,0-.095,0-.1,0-.095,0-.094.006-.094,0-.093.005-.094.009q-.046,0-.093.006l-.091.008-.093.008-.09.008c-.031,0-.06.006-.089.011l-.09.008-.086.01-.089.013-.086.01-.084.013-.085.012-.082.013-.082.014-.081.013-.078.014-.078.014-.078.016-.074.014-.074.017-.074.016-.07.016-.07.017c-.023.006-.045.013-.068.018l-.066.019c-.022,0-.044.012-.066.018l-.062.019a.486.486,0,0,0-.061.019l-.062.02-.058.019-.055.021-.056.021-.051.02-.052.021-.049.022-.047.021-.046.023-.043.022a.4.4,0,0,0-.04.022.378.378,0,0,0-.04.022l-.037.023a.256.256,0,0,0-.035.022l-.033.022-.032.025a.2.2,0,0,0-.029.022l-.027.025-.024.022-.023.024-.021.025c-.006.008-.013.016-.018.024l-.016.025-.015.022-.012.025-.008.024-.009.025-.005.024a.107.107,0,0,0,0,.025l0,.024a.213.213,0,0,0,0,.027l0,.024a.184.184,0,0,0,.005.025l.009.024.008.025.012.024a.091.091,0,0,0,.015.023l.016.024c.005.008.012.017.018.025l.021.024.023.025.024.022.027.025a.232.232,0,0,0,.03.022l.031.024.033.023a.3.3,0,0,0,.035.022c.013.008.025.016.037.022s.026.016.04.023l.04.022.043.022.046.022c.015.008.031.014.047.021l.049.022a.471.471,0,0,0,.052.021c.016.008.033.014.051.021l.056.021.055.021c.02.006.039.013.06.018s.038.014.059.021.039.013.062.019l.061.018c.023.007.044.014.066.019s.044.013.067.018l.067.019.07.016.072.017.072.016.074.016.075.014.078.017c.024,0,.05.009.078.014s.052.009.078.014l.08.013.082.014.083.012.084.013.084.012c.029.005.057.008.086.011l.089.013a.839.839,0,0,1,.086.01l.091.008a.846.846,0,0,0,.088.01l.091.009.092.008.091.008.093.006.094.008c.031,0,.062,0,.093.006l.094,0,.095.005.094,0,.1,0c.031,0,.062,0,.094,0l.1,0,.1,0,.1,0h.193c.031,0,.064,0,.1,0h.193l.1,0,.1,0,.1,0,.094,0,.1,0,.094,0,.095-.005.094,0,.093-.006.094-.008c.031,0,.062,0,.093-.006l.091-.008.092-.008.091-.009a.846.846,0,0,0,.088-.01l.091-.008a.808.808,0,0,1,.086-.01l.089-.013c.029,0,.057-.006.084-.011l.086-.012.085-.013.082-.012.083-.014.08-.013.078-.014.078-.014.078-.017c.025,0,.05-.009.074-.014l.075-.016.072-.016.072-.017.07-.016.067-.019.066-.018a.636.636,0,0,0,.066-.019l.064-.018.06-.019.059-.021c.02,0,.04-.012.06-.018l.055-.021.056-.021.051-.021.051-.021.049-.022.048-.021.045-.022.043-.022.041-.022c.014-.007.027-.015.04-.023s.024-.014.037-.022l.035-.022.032-.023.031-.024a.257.257,0,0,0,.032-.022l.026-.025.025-.022.022-.025.021-.024c.007-.008.013-.017.019-.025l.016-.024.014-.023.013-.024.008-.025.008-.024a.183.183,0,0,0,.006-.025l0-.024a.114.114,0,0,0,0-.027Z"/>
    </g>
    <g>
      <path fill="#333" d="M46.234,31.788l.109-.055.117-.051.166-.065L47,31.51l.322-.075.154-.029c.013,0,.555-.087.555-.087l.686-.07.645-.034.774-.006.623.02.717.058.647.086.152.028.435.091.271.072.193.062.19.069c.012.007.105.05.116.055l.072.04s-.084.043-.106.053l-.165.072L53.041,32l-.127.036-.389.1-.168.032-.461.077-.736.083c-.042,0-.573.034-.581.035l-.543.014-.754-.011-.877-.059-.434-.05-.539-.089-.366-.077-.222-.059s-.258-.083-.265-.085l-.23-.092C46.34,31.844,46.274,31.807,46.234,31.788Z"/>
      <path fill="#333" d="M51.326,31.788h-.015l-.043,0-.089.008-.06.005c-.034,0-.081,0-.127.01l-.046,0-.048,0-.044,0a.315.315,0,0,0-.044,0l-.051,0-.048,0-.047,0-.045,0-.05,0-.076,0-.115,0-.076,0-.093,0h-.635l-.093,0-.078,0q-.056,0-.114,0l-.078,0-.048,0-.045,0-.071-.006-.07,0a.325.325,0,0,0-.044,0l-.044,0a.4.4,0,0,0-.048,0l-.051,0-.11-.008-.068-.006-.094-.008-.057,0,.058-.005.088-.008.063-.006.1-.009.093-.006.091-.006.092-.006.074,0,.047,0,.048,0,.1,0,.074,0c.04,0,.078,0,.117,0h.438l.054,0h.289c.037,0,.076,0,.116,0l.034,0h.04l.1,0,.045,0,.048,0,.074,0,.093.006.091.006.092.006.074.007.086.008.093.008.058,0m2.847,0a.209.209,0,0,0,0-.025.194.194,0,0,0,0-.024.114.114,0,0,0-.006-.025l-.008-.024-.011-.025a.244.244,0,0,0-.01-.024l-.014-.025-.017-.024a.231.231,0,0,0-.018-.023l-.021-.024-.022-.025-.025-.024-.027-.022-.031-.025-.031-.022L53.9,31.4l-.035-.024-.037-.022c-.012-.007-.026-.014-.039-.023a.41.41,0,0,1-.041-.022l-.043-.021-.045-.022c-.017-.007-.033-.014-.048-.022s-.033-.014-.049-.021l-.051-.021-.051-.021-.056-.02a.463.463,0,0,0-.056-.021c-.018-.008-.038-.014-.059-.021s-.039-.012-.06-.019-.04-.013-.061-.018l-.062-.021-.066-.016c-.022-.007-.044-.014-.066-.019s-.045-.013-.068-.018l-.07-.017-.072-.016-.072-.016-.074-.017-.074-.016-.078-.014-.078-.014c-.026-.006-.052-.01-.078-.014s-.054-.009-.08-.015l-.083-.012-.082-.013-.085-.012-.086-.013-.085-.013-.088-.01-.086-.01c-.031,0-.06-.006-.091-.011l-.088-.008-.091-.008-.093-.008-.09-.009-.093-.008c-.031,0-.063,0-.094-.006l-.093-.006c-.032,0-.063,0-.095-.006l-.094,0-.094,0-.1,0-.094,0c-.033,0-.066,0-.1,0l-.1,0-.1,0h-.1c-.033,0-.066,0-.1,0h-.1c-.032,0-.064,0-.1,0h-.1l-.1,0-.1,0c-.031,0-.064,0-.1,0l-.095,0-.1,0-.095,0-.094,0c-.031,0-.062,0-.094.006l-.093.006c-.031,0-.063,0-.094.006l-.093.008-.091.009-.093.008-.09.008-.089.008c-.03.005-.06.008-.09.011l-.086.01-.089.01-.086.013-.084.013-.085.012-.082.013-.082.012c-.026.006-.053.01-.081.015a.709.709,0,0,0-.078.014c-.027,0-.053.009-.078.014l-.078.014-.074.016-.074.017-.074.016-.07.016-.07.017c-.023,0-.045.011-.068.018s-.043.012-.066.019l-.066.016-.062.021c-.022,0-.042.012-.061.018s-.041.014-.062.019l-.058.021-.055.021-.056.02-.051.021-.052.021-.049.021-.047.022-.046.022a.43.43,0,0,1-.043.021.4.4,0,0,1-.04.022l-.04.023-.037.022-.035.024a.275.275,0,0,0-.033.023l-.032.022-.029.025a.2.2,0,0,1-.027.022l-.024.024-.023.025-.021.024a.141.141,0,0,0-.018.023l-.016.024a.165.165,0,0,1-.015.025l-.012.024-.008.025-.009.024-.005.025,0,.024,0,.025,0,.024,0,.025a.2.2,0,0,0,.005.024l.009.025.008.024.012.025a.158.158,0,0,0,.015.024l.016.025c.005.008.012.016.018.024l.021.025a.161.161,0,0,0,.023.022l.024.025.027.024.03.022.031.025.033.022.035.023.037.022.04.022a.4.4,0,0,0,.04.022.293.293,0,0,1,.043.023l.046.02a.409.409,0,0,0,.047.023l.049.021.052.022.051.021c.018.007.036.014.056.02a.444.444,0,0,0,.055.019l.06.021.059.021.062.018a.617.617,0,0,1,.061.019l.066.018c.023,0,.044.012.067.019l.067.016c.023.007.047.014.07.019l.072.016.072.016.074.017c.026,0,.05.009.075.014l.078.014.078.016.078.013.08.014.082.014.083.013.084.012.084.013.086.01c.029.005.059.008.089.011l.086.01c.03.005.06.008.091.011l.088.01.091.008.092.008.091.009c.032,0,.062,0,.093.006l.094.005.093.006c.031,0,.063,0,.094.006l.095,0,.094.006.1,0,.094,0,.1.005.1,0h.1c.031,0,.063,0,.1,0h.29c.033,0,.064,0,.1,0h.1l.1,0,.1-.005.094,0,.1,0c.031,0,.063,0,.094-.006l.095,0c.031,0,.063,0,.094-.006s.062,0,.093-.006l.094-.005.093-.006.091-.009.092-.008.091-.008.088-.01c.031,0,.061-.006.091-.011l.086-.01c.031,0,.06-.006.089-.011l.084-.01.086-.013.085-.012.082-.013.083-.014.08-.014.078-.013.078-.016.078-.014.074-.014.075-.017.072-.016.072-.016c.023-.005.047-.012.07-.019l.067-.016c.022-.007.044-.014.066-.019s.045-.012.066-.018.042-.014.064-.019.04-.013.06-.018l.059-.021c.02-.008.04-.014.06-.021a.51.51,0,0,0,.055-.019l.056-.02.051-.021c.018-.007.035-.014.051-.022l.049-.021a.524.524,0,0,0,.048-.023l.045-.02a.45.45,0,0,1,.043-.023.41.41,0,0,0,.041-.022l.04-.022.037-.022a.35.35,0,0,1,.035-.023.362.362,0,0,1,.032-.022l.031-.025.032-.022.026-.024.025-.025a.152.152,0,0,0,.022-.022l.021-.025.019-.024.016-.025c0-.008.009-.016.014-.024l.013-.025.008-.024.008-.025a.21.21,0,0,0,.006-.024l0-.025,0-.024Z"/>
    </g>
    <g>
      <polygon fill="#333" points="30.611 26.644 31.895 24.656 31.895 28.632 30.611 26.644"/>
      <path fill="#333" d="M31.381,26.4v.488l-.157-.244.157-.244m1.029-3.487L30,26.644l2.411,3.732V22.913Z"/>
    </g>
  </g>
  <g>
    <path fill="#333" d="M7.885,31.017a.621.621,0,0,1-.382-.108.416.416,0,0,1-.166-.288.8.8,0,0,1,.071-.408l3.226-7.3a.85.85,0,0,1,.3-.408.738.738,0,0,1,.411-.12.717.717,0,0,1,.4.12.863.863,0,0,1,.3.408l3.226,7.3a.755.755,0,0,1,.083.414.413.413,0,0,1-.155.288.587.587,0,0,1-.369.1.622.622,0,0,1-.417-.132,1.1,1.1,0,0,1-.273-.408l-.833-1.944.559.336H8.8l.548-.336-.822,1.944a1.118,1.118,0,0,1-.261.414A.558.558,0,0,1,7.885,31.017Zm3.44-7.164-1.8,4.3-.3-.288h4.2l-.274.288-1.809-4.3Z"/>
    <path fill="#333" d="M17.157,23.769a.787.787,0,0,1-.553-.18.751.751,0,0,1,0-1.014.966.966,0,0,1,1.106,0,.751.751,0,0,1,0,1.014A.787.787,0,0,1,17.157,23.769Zm0,7.236a.558.558,0,0,1-.44-.174.7.7,0,0,1-.155-.486v-4.68a.679.679,0,0,1,.155-.48.568.568,0,0,1,.44-.168.589.589,0,0,1,.447.168.672.672,0,0,1,.16.48v4.68a.707.707,0,0,1-.155.486A.573.573,0,0,1,17.157,31.005Z"/>
    <path fill="#333" d="M20.062,31.017a.6.6,0,0,1-.453-.162.625.625,0,0,1-.154-.45v-4.8a.621.621,0,0,1,.154-.456.675.675,0,0,1,.863,0,.637.637,0,0,1,.149.456v.876H20.5a1.893,1.893,0,0,1,.7-1.092,2.5,2.5,0,0,1,1.31-.432.431.431,0,0,1,.339.108.529.529,0,0,1,.137.372.513.513,0,0,1-.107.4.582.582,0,0,1-.4.174l-.226.024a1.809,1.809,0,0,0-1.179.492,1.594,1.594,0,0,0-.405,1.152v2.724a.641.641,0,0,1-.148.45A.594.594,0,0,1,20.062,31.017Z"/>
  </g>
  <g>
    <path fill="#333" d="M11.447,55.246a4.259,4.259,0,0,1-2.178-.527,3.49,3.49,0,0,1-1.387-1.506A5.183,5.183,0,0,1,7.4,50.9a5.494,5.494,0,0,1,.274-1.794,3.871,3.871,0,0,1,.791-1.368,3.381,3.381,0,0,1,1.274-.87,4.618,4.618,0,0,1,1.708-.3,4.769,4.769,0,0,1,1.351.192,3.5,3.5,0,0,1,1.125.552.639.639,0,0,1,.268.319.617.617,0,0,1,.024.353.577.577,0,0,1-.161.282.46.46,0,0,1-.3.126.647.647,0,0,1-.4-.132,2.72,2.72,0,0,0-.869-.444,3.439,3.439,0,0,0-1-.143,2.873,2.873,0,0,0-1.524.378,2.378,2.378,0,0,0-.94,1.1,4.944,4.944,0,0,0,0,3.51,2.376,2.376,0,0,0,.94,1.1,2.873,2.873,0,0,0,1.524.378,3.334,3.334,0,0,0,1.006-.15,3.273,3.273,0,0,0,.91-.45.663.663,0,0,1,.387-.119.463.463,0,0,1,.292.119.539.539,0,0,1,.16.27.612.612,0,0,1-.011.336.555.555,0,0,1-.232.294,3.391,3.391,0,0,1-1.155.6A4.738,4.738,0,0,1,11.447,55.246Z"/>
    <path fill="#333" d="M16.2,55.222a.581.581,0,0,1-.441-.162.624.624,0,0,1-.154-.45v-7.4a.623.623,0,0,1,.154-.456A.593.593,0,0,1,16.2,46.6a.551.551,0,0,1,.607.611V50.53h-.167a1.991,1.991,0,0,1,.822-1.014,2.413,2.413,0,0,1,1.285-.341,2.331,2.331,0,0,1,1.149.257,1.588,1.588,0,0,1,.684.781,3.306,3.306,0,0,1,.226,1.313V54.61a.624.624,0,0,1-.155.45.58.58,0,0,1-.44.162.6.6,0,0,1-.452-.162.624.624,0,0,1-.155-.45V51.6a1.71,1.71,0,0,0-.291-1.1,1.123,1.123,0,0,0-.911-.348,1.533,1.533,0,0,0-1.161.456,1.7,1.7,0,0,0-.434,1.224V54.61A.539.539,0,0,1,16.2,55.222Z"/>
    <path fill="#333" d="M24.315,55.246a2.421,2.421,0,0,1-1.089-.239,1.91,1.91,0,0,1-.756-.649,1.615,1.615,0,0,1-.274-.924,1.515,1.515,0,0,1,.327-1.026,1.933,1.933,0,0,1,1.083-.54,10.254,10.254,0,0,1,2.042-.162h.56v.744H25.66a8.587,8.587,0,0,0-1.357.084,1.362,1.362,0,0,0-.708.282.719.719,0,0,0-.209.546.948.948,0,0,0,.31.738,1.225,1.225,0,0,0,.857.283,1.429,1.429,0,0,0,.774-.21,1.516,1.516,0,0,0,.529-.571,1.7,1.7,0,0,0,.2-.828v-1.38a1.4,1.4,0,0,0-.286-.984,1.257,1.257,0,0,0-.94-.3,3.48,3.48,0,0,0-.792.1,3.733,3.733,0,0,0-.851.324.522.522,0,0,1-.345.061.377.377,0,0,1-.226-.163.521.521,0,0,1-.09-.276.574.574,0,0,1,.072-.294.482.482,0,0,1,.268-.216,4.56,4.56,0,0,1,1.035-.36,4.676,4.676,0,0,1,.964-.107,3.006,3.006,0,0,1,1.316.252,1.616,1.616,0,0,1,.768.767,3.074,3.074,0,0,1,.249,1.332V54.61a.657.657,0,0,1-.142.45.527.527,0,0,1-.417.162.549.549,0,0,1-.417-.162.624.624,0,0,1-.154-.45v-.78h.107a1.807,1.807,0,0,1-.351.763,1.67,1.67,0,0,1-.637.485A2.135,2.135,0,0,1,24.315,55.246Z"/>
    <path fill="#333" d="M29.457,55.222a.6.6,0,0,1-.452-.162.62.62,0,0,1-.155-.45v-4.8a.618.618,0,0,1,.155-.456.675.675,0,0,1,.863,0,.637.637,0,0,1,.149.456v.876H29.9a1.891,1.891,0,0,1,.7-1.091,2.491,2.491,0,0,1,1.309-.433.435.435,0,0,1,.34.108.533.533,0,0,1,.136.372.513.513,0,0,1-.107.4.584.584,0,0,1-.4.175l-.227.023a1.806,1.806,0,0,0-1.178.492,1.59,1.59,0,0,0-.405,1.152V54.61a.639.639,0,0,1-.148.45A.6.6,0,0,1,29.457,55.222Z"/>
    <path fill="#333" d="M36.087,55.246a2.6,2.6,0,0,1-1.2-.252,1.6,1.6,0,0,1-.726-.744,2.729,2.729,0,0,1-.238-1.2V50.219h-.714a.514.514,0,0,1-.37-.126.459.459,0,0,1-.13-.343.453.453,0,0,1,.13-.348.53.53,0,0,1,.37-.12h.714V48.047a.6.6,0,0,1,.161-.456.608.608,0,0,1,.446-.157.589.589,0,0,1,.44.157.619.619,0,0,1,.155.456v1.235h1.393a.529.529,0,0,1,.369.12.449.449,0,0,1,.131.348.456.456,0,0,1-.131.343.513.513,0,0,1-.369.126H35.123v2.735a1.473,1.473,0,0,0,.268.96,1.07,1.07,0,0,0,.875.324,1.491,1.491,0,0,0,.375-.042,2.106,2.106,0,0,1,.268-.054.283.283,0,0,1,.214.09.519.519,0,0,1,.083.342.871.871,0,0,1-.065.336.34.34,0,0,1-.232.2,3.157,3.157,0,0,1-.822.132Z"/>
    <path fill="#333" d="M39.992,55.246a5.079,5.079,0,0,1-1.078-.12,3.191,3.191,0,0,1-1.017-.407.61.61,0,0,1-.215-.241.486.486,0,0,1-.041-.27.426.426,0,0,1,.107-.239.365.365,0,0,1,.226-.126.44.44,0,0,1,.292.059,3.421,3.421,0,0,0,.892.366,3.593,3.593,0,0,0,.845.1,1.639,1.639,0,0,0,.953-.228.714.714,0,0,0,.321-.612.59.59,0,0,0-.214-.486,1.58,1.58,0,0,0-.643-.27l-1.131-.227a2.119,2.119,0,0,1-1.119-.553,1.394,1.394,0,0,1-.38-1.008,1.589,1.589,0,0,1,.3-.96,1.915,1.915,0,0,1,.833-.63,3.214,3.214,0,0,1,1.238-.221,3.639,3.639,0,0,1,.988.131,2.989,2.989,0,0,1,.857.4.412.412,0,0,1,.2.223.5.5,0,0,1,.018.269.5.5,0,0,1-.125.234.384.384,0,0,1-.233.121.533.533,0,0,1-.3-.067,2.6,2.6,0,0,0-.708-.324,2.684,2.684,0,0,0-.7-.1,1.572,1.572,0,0,0-.946.235.74.74,0,0,0-.315.63.665.665,0,0,0,.19.491,1.144,1.144,0,0,0,.595.276l1.131.229a2.367,2.367,0,0,1,1.172.527,1.311,1.311,0,0,1,.4,1.008,1.535,1.535,0,0,1-.654,1.308A2.87,2.87,0,0,1,39.992,55.246Z"/>
  </g>
</svg>