<svg xmlns:sodipodi="http://sodipodi.sourceforge.net/DTD/sodipodi-0.dtd" width="60" xmlns:svg="http://www.w3.org/2000/svg" xmlns:inkscape="http://www.inkscape.org/namespaces/inkscape" sodipodi:docname="Air Base 6 allied.svg" inkscape:version="1.1 (c68e22c387, 2021-05-23)" height="60" id="svg86" viewBox="0 0 60 60" xmlns="http://www.w3.org/2000/svg" version="1.1">
  <defs id="defs90"/>
  <sodipodi:namedview bordercolor="#666666" inkscape:window-height="1081" inkscape:pagecheckerboard="0" inkscape:zoom="14.55" id="namedview88" inkscape:current-layer="svg86" inkscape:window-y="186" inkscape:cy="30" inkscape:window-x="317" inkscape:cx="2.9553265" showgrid="false" inkscape:pageopacity="0.0" inkscape:pageshadow="2" inkscape:window-width="1271" inkscape:window-maximized="0" borderopacity="1.0" pagecolor="#ffffff"/>
  <rect fill="#ffcd34" width="60" id="rect60" height="60" style="fill:#ffffff;fill-opacity:1"/>
  <g id="g84">
    <path fill="#231f20" id="path62" d="M47.756,10.137a12.055,12.055,0,0,0-1.513.071c-3.264.385-4.847,2.4-5.232,4.561h.072a4.492,4.492,0,0,1,3.5-1.512c2.688,0,4.777,1.92,4.777,5.088a5.42,5.42,0,0,1-5.5,5.569c-3.792,0-5.881-2.88-5.881-6.721A9.554,9.554,0,0,1,40.7,10.185,9.042,9.042,0,0,1,46.243,7.88a8.44,8.44,0,0,1,1.488-.047Zm-1.393,8.377c0-1.8-.983-3.1-2.712-3.1a2.867,2.867,0,0,0-2.544,1.608,2.016,2.016,0,0,0-.192.936c.048,2.064,1.032,3.745,2.929,3.745C45.38,21.706,46.363,20.386,46.363,18.514Z" style="font-variation-settings:normal;opacity:1;vector-effect:none;fill:#cb2026;fill-opacity:1;stroke-width:1;stroke-linecap:butt;stroke-linejoin:miter;stroke-miterlimit:4;stroke-dasharray:none;stroke-dashoffset:0;stroke-opacity:1;-inkscape-stroke:none;stop-color:#000000;stop-opacity:1" transform="translate(0 0)"/>
    <g id="g82">
      <g style="font-variation-settings:normal;opacity:1;vector-effect:none;fill:#cb2026;fill-opacity:1;stroke-width:1;stroke-linecap:butt;stroke-linejoin:miter;stroke-miterlimit:4;stroke-dasharray:none;stroke-dashoffset:0;stroke-opacity:1;-inkscape-stroke:none;stop-color:#000000;stop-opacity:1" id="g68">
        <rect x="17.835" y="5.456" fill="#010101" width="4.541" style="font-variation-settings:normal;vector-effect:none;fill:#cb2026;fill-opacity:1;stroke-width:1;stroke-linecap:butt;stroke-linejoin:miter;stroke-miterlimit:4;stroke-dasharray:none;stroke-dashoffset:0;stroke-opacity:1;-inkscape-stroke:none;stop-color:#000000;stop-opacity:1" height="36.389" id="rect64"/>
        <path fill="#010101" id="path66" d="M21.792,6.039V41.261H18.418V6.039h3.374m1.167-1.167H17.251V42.428h5.708V4.872Z" style="font-variation-settings:normal;vector-effect:none;fill:#cb2026;fill-opacity:1;stroke-width:1;stroke-linecap:butt;stroke-linejoin:miter;stroke-miterlimit:4;stroke-dasharray:none;stroke-dashoffset:0;stroke-opacity:1;-inkscape-stroke:none;stop-color:#000000;stop-opacity:1" transform="translate(0 0)"/>
      </g>
      <g id="g74">
        <polygon fill="#010101" id="polygon70" style="fill:#cb2026;fill-opacity:1;font-variation-settings:normal;opacity:1;vector-effect:none;stroke-width:1;stroke-linecap:butt;stroke-linejoin:miter;stroke-miterlimit:4;stroke-dasharray:none;stroke-dashoffset:0;stroke-opacity:1;-inkscape-stroke:none;stop-color:#000000;stop-opacity:1" points="10.956 33.535 48.993 33.155 49.044 37.669 11.007 38.049 10.956 33.535"/>
        <path fill="#010101" id="path72" d="M48.4,33.757l.037,3.323L11.6,37.447l-.037-3.322L48.4,33.757m1.179-1.2-39.23.391.064,5.708,39.23-.392-.064-5.707Z" style="fill:#d00101;fill-opacity:1" transform="translate(0 0)"/>
      </g>
      <g style="font-variation-settings:normal;opacity:1;vector-effect:none;fill:#cb2026;fill-opacity:1;stroke-width:1;stroke-linecap:butt;stroke-linejoin:miter;stroke-miterlimit:4;stroke-dasharray:none;stroke-dashoffset:0;stroke-opacity:1;-inkscape-stroke:none;stop-color:#000000;stop-opacity:1" id="g80">
        <polygon fill="#010101" id="polygon76" style="font-variation-settings:normal;vector-effect:none;fill:#cb2026;fill-opacity:1;stroke-width:1;stroke-linecap:butt;stroke-linejoin:miter;stroke-miterlimit:4;stroke-dasharray:none;stroke-dashoffset:0;stroke-opacity:1;-inkscape-stroke:none;stop-color:#000000;stop-opacity:1" points="11.167 11.987 14.384 8.843 45.583 41.801 38.982 41.844 11.167 11.987"/>
        <path fill="#010101" id="path78" d="M14.368,9.673l29.87,31.554-5,.033L11.981,12.006l2.387-2.333m.032-1.66-4.047,3.955L38.73,42.428l8.2-.054L14.4,8.013Z" style="font-variation-settings:normal;vector-effect:none;fill:#cb2026;fill-opacity:1;stroke-width:1;stroke-linecap:butt;stroke-linejoin:miter;stroke-miterlimit:4;stroke-dasharray:none;stroke-dashoffset:0;stroke-opacity:1;-inkscape-stroke:none;stop-color:#000000;stop-opacity:1" transform="translate(0 0)"/>
      </g>
    </g>
  </g>
</svg>