<svg xmlns:sodipodi="http://sodipodi.sourceforge.net/DTD/sodipodi-0.dtd" width="60" xmlns:svg="http://www.w3.org/2000/svg" xmlns:inkscape="http://www.inkscape.org/namespaces/inkscape" sodipodi:docname="Air Base 9 allied.svg" inkscape:version="1.1 (c68e22c387, 2021-05-23)" height="60" id="svg86" viewBox="0 0 60 60" xmlns="http://www.w3.org/2000/svg" version="1.1">
  <defs id="defs90"/>
  <sodipodi:namedview bordercolor="#666666" inkscape:window-height="1081" inkscape:pagecheckerboard="0" inkscape:zoom="10.288404" id="namedview88" inkscape:current-layer="svg86" inkscape:window-y="196" inkscape:cy="28.430066" inkscape:window-x="323" inkscape:cx="25.85435" showgrid="false" inkscape:pageopacity="0.0" inkscape:pageshadow="2" inkscape:window-width="1271" inkscape:window-maximized="0" borderopacity="1.0" pagecolor="#ffffff"/>
  <rect fill="#ffcd34" width="60" id="rect60" height="60" style="fill:#ffffff;fill-opacity:1"/>
  <g id="g84">
    <g id="g82">
      <g style="font-variation-settings:normal;opacity:1;vector-effect:none;fill:#cb2026;fill-opacity:1;stroke-width:1;stroke-linecap:butt;stroke-linejoin:miter;stroke-miterlimit:4;stroke-dasharray:none;stroke-dashoffset:0;stroke-opacity:1;-inkscape-stroke:none;stop-color:#000000;stop-opacity:1" id="g68">
        <rect x="17.835" y="5.456" fill="#010101" width="4.541" style="font-variation-settings:normal;vector-effect:none;fill:#cb2026;fill-opacity:1;stroke-width:1;stroke-linecap:butt;stroke-linejoin:miter;stroke-miterlimit:4;stroke-dasharray:none;stroke-dashoffset:0;stroke-opacity:1;-inkscape-stroke:none;stop-color:#000000;stop-opacity:1" height="36.389" id="rect64"/>
        <path fill="#010101" id="path66" d="M21.792,6.039V41.261H18.418V6.039h3.374m1.167-1.167H17.251V42.428h5.708V4.872Z" style="font-variation-settings:normal;vector-effect:none;fill:#cb2026;fill-opacity:1;stroke-width:1;stroke-linecap:butt;stroke-linejoin:miter;stroke-miterlimit:4;stroke-dasharray:none;stroke-dashoffset:0;stroke-opacity:1;-inkscape-stroke:none;stop-color:#000000;stop-opacity:1" transform="translate(0 0)"/>
      </g>
      <g id="g74">
        <polygon fill="#010101" id="polygon70" style="fill:#cb2026;fill-opacity:1;font-variation-settings:normal;opacity:1;vector-effect:none;stroke-width:1;stroke-linecap:butt;stroke-linejoin:miter;stroke-miterlimit:4;stroke-dasharray:none;stroke-dashoffset:0;stroke-opacity:1;-inkscape-stroke:none;stop-color:#000000;stop-opacity:1" points="10.956 33.535 48.993 33.155 49.044 37.669 11.007 38.049 10.956 33.535"/>
        <path fill="#010101" id="path72" d="M48.4,33.757l.037,3.323L11.6,37.447l-.037-3.322L48.4,33.757m1.179-1.2-39.23.391.064,5.708,39.23-.392-.064-5.707Z" style="fill:#d00101;fill-opacity:1" transform="translate(0 0)"/>
      </g>
      <g style="font-variation-settings:normal;opacity:1;vector-effect:none;fill:#cb2026;fill-opacity:1;stroke-width:1;stroke-linecap:butt;stroke-linejoin:miter;stroke-miterlimit:4;stroke-dasharray:none;stroke-dashoffset:0;stroke-opacity:1;-inkscape-stroke:none;stop-color:#000000;stop-opacity:1" id="g80">
        <polygon fill="#010101" id="polygon76" style="font-variation-settings:normal;vector-effect:none;fill:#cb2026;fill-opacity:1;stroke-width:1;stroke-linecap:butt;stroke-linejoin:miter;stroke-miterlimit:4;stroke-dasharray:none;stroke-dashoffset:0;stroke-opacity:1;-inkscape-stroke:none;stop-color:#000000;stop-opacity:1" points="11.167 11.987 14.384 8.843 45.583 41.801 38.982 41.844 11.167 11.987"/>
        <path fill="#010101" id="path78" d="M14.368,9.673l29.87,31.554-5,.033L11.981,12.006l2.387-2.333m.032-1.66-4.047,3.955L38.73,42.428l8.2-.054L14.4,8.013Z" style="font-variation-settings:normal;vector-effect:none;fill:#cb2026;fill-opacity:1;stroke-width:1;stroke-linecap:butt;stroke-linejoin:miter;stroke-miterlimit:4;stroke-dasharray:none;stroke-dashoffset:0;stroke-opacity:1;-inkscape-stroke:none;stop-color:#000000;stop-opacity:1" transform="translate(0 0)"/>
      </g>
    </g>
  </g>
  <path style="stroke-width:1;font-variation-settings:normal;opacity:1;vector-effect:none;fill:#cb2026;fill-opacity:1;stroke-linecap:butt;stroke-linejoin:miter;stroke-miterlimit:4;stroke-dasharray:none;stroke-dashoffset:0;stroke-opacity:1;-inkscape-stroke:none;stop-color:#000000;stop-opacity:1" id="path2-8" d="m 40.242234,20.226784 a 8.0355153,6.8883684 0 0 0 1.698938,-0.123007 4.692167,4.0223151 0 0 0 2.160979,-0.954531 7.0698185,6.0605341 0 0 0 1.776423,-3.18464 h -0.07892 a 3.432313,2.9423173 0 0 1 -2.627327,0.974212 c -2.39487,0 -4.337743,-1.821727 -4.337743,-4.719762 0,-2.7061446 1.934263,-5.5291456 5.47563,-5.5291456 3.429443,0 5.234564,2.6766231 5.234564,6.4910566 a 12.678895,10.868861 0 0 1 -3.029102,7.614107 7.7958847,6.6829474 0 0 1 -4.550111,1.996397 10.301244,8.8306422 0 0 1 -1.721896,0.07503 z m 2.252814,-8.259892 c 0.02009,1.528972 0.573966,2.784869 1.721896,2.784869 a 1.6343664,1.4010449 0 0 0 1.41913,-0.816764 5.686562,4.8747507 0 0 0 0.170754,-1.69257 c 0,-2.0702 -0.688758,-3.2510635 -1.681718,-3.2510635 -0.955652,0 -1.681719,1.0529365 -1.630062,2.9755285 z"/>
</svg>