<svg xmlns:sodipodi="http://sodipodi.sourceforge.net/DTD/sodipodi-0.dtd" width="60" xmlns:svg="http://www.w3.org/2000/svg" xmlns:inkscape="http://www.inkscape.org/namespaces/inkscape" sodipodi:docname="Air Base 8 allied.svg" inkscape:version="1.1 (c68e22c387, 2021-05-23)" height="60" id="svg86" viewBox="0 0 60 60" xmlns="http://www.w3.org/2000/svg" version="1.1">
  <defs id="defs90"/>
  <sodipodi:namedview bordercolor="#666666" inkscape:window-height="1081" inkscape:pagecheckerboard="0" inkscape:zoom="10.288404" id="namedview88" inkscape:current-layer="svg86" inkscape:window-y="196" inkscape:cy="28.430066" inkscape:window-x="323" inkscape:cx="25.85435" showgrid="false" inkscape:pageopacity="0.0" inkscape:pageshadow="2" inkscape:window-width="1271" inkscape:window-maximized="0" borderopacity="1.0" pagecolor="#ffffff"/>
  <rect fill="#ffcd34" width="60" id="rect60" height="60" style="fill:#ffffff;fill-opacity:1"/>
  <g id="g84">
    <g id="g82">
      <g style="font-variation-settings:normal;opacity:1;vector-effect:none;fill:#cb2026;fill-opacity:1;stroke-width:1;stroke-linecap:butt;stroke-linejoin:miter;stroke-miterlimit:4;stroke-dasharray:none;stroke-dashoffset:0;stroke-opacity:1;-inkscape-stroke:none;stop-color:#000000;stop-opacity:1" id="g68">
        <rect x="17.835" y="5.456" fill="#010101" width="4.541" style="font-variation-settings:normal;vector-effect:none;fill:#cb2026;fill-opacity:1;stroke-width:1;stroke-linecap:butt;stroke-linejoin:miter;stroke-miterlimit:4;stroke-dasharray:none;stroke-dashoffset:0;stroke-opacity:1;-inkscape-stroke:none;stop-color:#000000;stop-opacity:1" height="36.389" id="rect64"/>
        <path fill="#010101" id="path66" d="M21.792,6.039V41.261H18.418V6.039h3.374m1.167-1.167H17.251V42.428h5.708V4.872Z" style="font-variation-settings:normal;vector-effect:none;fill:#cb2026;fill-opacity:1;stroke-width:1;stroke-linecap:butt;stroke-linejoin:miter;stroke-miterlimit:4;stroke-dasharray:none;stroke-dashoffset:0;stroke-opacity:1;-inkscape-stroke:none;stop-color:#000000;stop-opacity:1" transform="translate(0 0)"/>
      </g>
      <g id="g74">
        <polygon fill="#010101" id="polygon70" style="fill:#cb2026;fill-opacity:1;font-variation-settings:normal;opacity:1;vector-effect:none;stroke-width:1;stroke-linecap:butt;stroke-linejoin:miter;stroke-miterlimit:4;stroke-dasharray:none;stroke-dashoffset:0;stroke-opacity:1;-inkscape-stroke:none;stop-color:#000000;stop-opacity:1" points="10.956 33.535 48.993 33.155 49.044 37.669 11.007 38.049 10.956 33.535"/>
        <path fill="#010101" id="path72" d="M48.4,33.757l.037,3.323L11.6,37.447l-.037-3.322L48.4,33.757m1.179-1.2-39.23.391.064,5.708,39.23-.392-.064-5.707Z" style="fill:#d00101;fill-opacity:1" transform="translate(0 0)"/>
      </g>
      <g style="font-variation-settings:normal;opacity:1;vector-effect:none;fill:#cb2026;fill-opacity:1;stroke-width:1;stroke-linecap:butt;stroke-linejoin:miter;stroke-miterlimit:4;stroke-dasharray:none;stroke-dashoffset:0;stroke-opacity:1;-inkscape-stroke:none;stop-color:#000000;stop-opacity:1" id="g80">
        <polygon fill="#010101" id="polygon76" style="font-variation-settings:normal;vector-effect:none;fill:#cb2026;fill-opacity:1;stroke-width:1;stroke-linecap:butt;stroke-linejoin:miter;stroke-miterlimit:4;stroke-dasharray:none;stroke-dashoffset:0;stroke-opacity:1;-inkscape-stroke:none;stop-color:#000000;stop-opacity:1" points="11.167 11.987 14.384 8.843 45.583 41.801 38.982 41.844 11.167 11.987"/>
        <path fill="#010101" id="path78" d="M14.368,9.673l29.87,31.554-5,.033L11.981,12.006l2.387-2.333m.032-1.66-4.047,3.955L38.73,42.428l8.2-.054L14.4,8.013Z" style="font-variation-settings:normal;vector-effect:none;fill:#cb2026;fill-opacity:1;stroke-width:1;stroke-linecap:butt;stroke-linejoin:miter;stroke-miterlimit:4;stroke-dasharray:none;stroke-dashoffset:0;stroke-opacity:1;-inkscape-stroke:none;stop-color:#000000;stop-opacity:1" transform="translate(0 0)"/>
      </g>
    </g>
  </g>
  <path style="stroke-width:1;font-variation-settings:normal;opacity:1;vector-effect:none;fill:#cb2026;fill-opacity:1;stroke-linecap:butt;stroke-linejoin:miter;stroke-miterlimit:4;stroke-dasharray:none;stroke-dashoffset:0;stroke-opacity:1;-inkscape-stroke:none;stop-color:#000000;stop-opacity:1" id="path2" d="m 37.727072,18.790028 a 5.6154446,5.3092318 0 0 1 2.720377,-4.547345 l -0.007,-0.05328 a 4.7363584,4.4780826 0 0 1 2.911973,-8.2515529 4.4081099,4.1677336 0 0 1 4.649014,4.2036969 4.6081584,4.3568733 0 0 1 -2.365362,3.79345 v 0.05861 a 5.2238005,4.9389442 0 0 1 2.787999,4.454107 5.1125059,4.8337185 0 0 1 -5.416805,5.006874 4.8659673,4.6006238 0 0 1 -5.280152,-4.664558 z m 7.174977,-0.1958 a 3.7135755,3.5110725 0 0 0 -2.082194,-3.1581 3.7248458,3.5217283 0 0 0 -1.563759,2.976953 c 0,1.477154 0.62973,2.714554 1.87792,2.714554 1.1538,0 1.768033,-1.097543 1.768033,-2.533407 z M 41.64774,10.336015 a 2.9880477,2.825108 0 0 0 1.779304,2.58269 3.0077708,2.8437556 0 0 0 1.241146,-2.441501 c 0,-1.1588135 -0.407141,-2.2270533 -1.48064,-2.2270533 -1.0735,0 -1.541219,1.016293 -1.541219,2.0898603 z"/>
</svg>