<svg width="60" height="60" xmlns="http://www.w3.org/2000/svg" viewBox="0 0 60 60">
  <rect fill="#ffcd34" height="60" width="60"/>
  <g>
    <g>
      <g>
        <path fill="#010101" stroke-width="0.224" d="M13.74,23.135v.038l0,.013,0,.012,0,.013,0,.013,0,.012,0,.012,0,.013,0,.012,0,.013,0,.012,0,.012-.006.011-.006.012-.005.012-.007.012-.006.011-.007.011-.007.012-.008.01-.008.012-.008.01-.008.011-.009.01-.009.011-.009.009-.01.01-.01.01-.01.01-.01.009-.011.009-.011.009-.011.009-.011.008-.012.008-.012.008-.012.008-.012.008-.012.007-.013.007-.013.008-.013.006L13.4,23.6l-.014.007-.013.006-.014,0-.014,0-.014.006-.014.005-.014,0-.015,0-.014,0-.015,0-.015,0-.015,0-.014,0-.016,0-.015,0-.015,0h-.015l-.015,0h-.124l-.015,0h-.031l-.015,0-.015,0-.016,0-.014,0-.016,0-.014,0-.016,0-.014,0-.015,0-.014,0-.015,0-.014,0-.014-.006-.014,0-.014-.006-.014-.006-.013-.007-.014-.006-.013-.007-.013-.007-.013-.007-.012-.008-.013-.007-.012-.009-.012-.008-.012-.008-.011-.009-.012-.009-.011-.008-.011-.01-.01-.009-.01-.01-.011-.01-.009-.01-.01-.01-.009-.01-.009-.011-.009-.01-.008-.011-.008-.011-.008-.012-.007-.011-.008-.011-.007-.012-.006-.012-.006-.011-.006-.012-.006-.012,0-.012-.005-.012,0-.013,0-.012,0-.012,0-.013,0-.012,0-.013,0-.012,0-.013v-.013l0-.013v-.1l0-.012,0-.013,0-.013,0-.012,0-.013,0-.012,0-.012,0-.013,0-.012.005-.012,0-.012.005-.012.006-.012.006-.012.006-.011.007-.012.006-.011.008-.011.007-.011.008-.011.008-.011.009-.011.009-.01.009-.01.009-.01.009-.01.01-.01.01-.01.011-.008.01-.01.011-.009.011-.008.012-.009.011-.008.012-.008.012-.008.012-.008.012-.007.013-.007.013-.007.013-.007.013-.006.014-.006.013-.006.014-.006.014,0,.014,0,.014-.005.014,0,.015,0,.015,0,.014,0,.015,0,.015,0,.015,0,.015,0,.015,0,.015,0,.015,0,.016,0h.154l.015,0,.015,0,.016,0,.015,0,.015,0,.015,0,.015,0,.015,0,.015,0,.014,0,.015,0,.014,0,.014.005.015,0,.013.006.014,0,.014.007.014.006.013.006.013.007.013.007.013.008.013.007.012.008.012.008.013.008.011.009.012.008.011.009.011.009.011.009.011.01.01.009.01.01.01.01.009.01.009.011.009.01.009.011.008.011.008.011.008.011.008.011.007.011.007.012.006.012.006.012.007.011,0,.012.005.012,0,.013.005.012,0,.012,0,.013,0,.012,0,.013,0,.012,0,.013,0,.013v.012l0,.013,0,.013v.051Z" stroke-linejoin="round" stroke-linecap="round" stroke="#010101"/>
        <path fill="#010101" stroke-width="0.224" d="M5.28,23.106v.038l0,.013,0,.013,0,.012,0,.013,0,.012,0,.013,0,.012,0,.012,0,.012,0,.013-.006.012,0,.012,0,.011-.007.012-.006.012-.006.011L5.2,23.35l-.008.012-.007.011-.008.01-.008.011-.008.011-.009.01-.009.011-.01.01-.009.01-.01.009-.01.01-.01.009-.011.009-.011.009-.011.009-.011.008-.012.009-.012.008-.012.007-.012.008-.013.008-.012.007-.013.006-.013.007-.014.006-.013.007-.013,0-.014.006-.014.006-.014,0-.014.005-.015,0-.014,0-.015,0-.014,0-.015,0-.015,0-.015,0-.015,0-.015,0-.015,0H4.7l-.016,0H4.541l-.015,0H4.511l-.015,0-.015,0-.016,0-.015,0-.015,0-.015,0-.015,0-.014,0-.015,0-.014,0-.015,0-.014,0L4.319,23.6l-.015,0-.013-.006-.014-.006-.014-.007-.013-.006-.013-.007-.013-.007-.013-.007L4.2,23.536l-.012-.008-.012-.007-.012-.009L4.15,23.5,4.138,23.5l-.011-.009-.011-.009-.011-.009-.01-.009-.011-.01-.01-.01-.009-.01-.01-.01-.009-.01L4.037,23.4l-.009-.01-.009-.011-.008-.011L4,23.354,4,23.343l-.007-.011-.007-.012-.006-.011L3.969,23.3l-.006-.012,0-.012-.005-.012,0-.012,0-.012,0-.013,0-.012,0-.013,0-.012,0-.013,0-.012,0-.013,0-.013v-.114l0-.013,0-.013,0-.012,0-.013,0-.012,0-.013,0-.013,0-.012,0-.012,0-.012.006-.012,0-.012,0-.012.006-.012.007-.011.006-.011.007-.012L4,22.8l.008-.011.008-.011.008-.011.008-.01.009-.011.009-.01.01-.01.009-.01.01-.01.01-.009.01-.01.011-.009.011-.008.011-.009.011-.009.012-.008.012-.008.012-.008.012-.008.013-.007.012-.007.013-.007.013-.006.013-.007.013-.006.014-.006.014-.006.014,0,.014,0,.014-.005.015,0,.014,0,.015,0,.014,0,.015,0,.015,0,.015,0,.015,0,.015,0,.015,0,.015,0h.016l.015,0h.139l.015,0,.015,0,.015,0,.015,0,.016,0,.015,0,.015,0,.014,0,.015,0,.015,0,.014,0,.015,0,.014.005.014,0,.015.006.013,0,.014.007.014.006.013.007.013.006.013.007.013.008L5,22.629l.012.008.012.008.012.008.012.008.011.009.012.009.011.009.011.009.01.01.011.009.01.01.009.01.01.01.009.011.009.01.009.011.008.011.009.011.007.011.008.011.007.012.007.011.006.012.007.012.005.012.006.011,0,.012.005.013,0,.012,0,.013,0,.012,0,.012,0,.013,0,.012,0,.013,0,.013,0,.012v.077Z" stroke-linejoin="round" stroke-linecap="round" stroke="#010101"/>
        <path fill="#010101" stroke-width="0.224" d="M6.321,23.91H11.3v.741H6.32Z" stroke-linejoin="round" stroke-linecap="round" stroke="#010101"/>
      </g>
      <g>
        <path fill="none" stroke-width="0.65" d="M10.129,20.094a.14.14,0,0,1,0,.029v.059l0,.03,0,.029,0,.03,0,.029,0,.029-.005.029-.007.029-.006.029-.007.028-.008.029-.009.028-.009.028-.01.028-.01.028-.011.027-.012.027-.012.027-.013.027-.014.026-.014.026-.014.026-.016.025-.015.025-.017.024-.017.024-.017.024-.018.024-.019.023-.019.022-.019.022-.021.022-.02.021-.021.021-.021.02-.022.02-.023.019-.022.019-.024.018-.023.018-.024.017-.025.017-.024.016-.026.016-.025.014-.026.015-.026.014-.027.013-.026.013-.027.012-.027.011-.028.011-.028.01-.028.009-.027.009-.029.008-.029.008-.028.007-.029.006-.029.006-.029.005L9,21.4l-.03,0-.029,0-.029,0-.03,0H8.764l-.029,0-.03,0-.03,0-.029,0-.029,0-.029-.005-.029-.006-.029-.006L8.5,21.375l-.028-.008-.028-.008-.029-.009-.028-.009-.027-.01-.028-.011-.027-.011L8.279,21.3l-.027-.013-.026-.013L8.2,21.257l-.026-.015-.026-.014-.025-.016L8.1,21.2l-.024-.017-.024-.017-.024-.018L8,21.126l-.023-.019-.023-.019-.022-.02-.021-.02-.021-.021-.021-.021-.02-.022-.019-.022-.019-.022L7.8,20.917l-.018-.024-.017-.024-.017-.024-.016-.024L7.711,20.8,7.7,20.771l-.014-.026-.014-.026-.014-.026-.013-.027-.012-.027-.012-.027-.011-.027-.01-.028-.01-.028L7.577,20.5l-.009-.028-.008-.029-.007-.028-.007-.029,0-.029-.006-.029,0-.029,0-.029,0-.03,0-.029v-.03l0-.029v-.089l0-.029v-.029l0-.03,0-.03,0-.029,0-.029.006-.029,0-.029.007-.028.007-.029.008-.029.009-.028.009-.028.01-.028.01-.028.011-.027.012-.027.012-.027.013-.026.014-.027.014-.026.014-.025.015-.026.017-.024.016-.025.017-.024.017-.024L7.8,19.3l.019-.022.019-.023.019-.022.02-.022.021-.021.021-.021.021-.02.022-.02.023-.019L8,19.091l.022-.018.024-.018.024-.017.024-.017.025-.016.025-.015.026-.016L8.2,18.96l.026-.013.026-.014.027-.012.027-.012.027-.012.028-.01.027-.011.028-.009.029-.009.028-.008.028-.008.029-.007.029-.006.029-.006.029,0,.029,0,.029,0,.03,0,.03,0,.029,0h.118l.03,0,.029,0,.029,0,.03,0,.029,0,.029,0,.029.006.029.006.028.007.029.008.029.008.028.009.027.009.028.011.028.01.027.012.027.012.026.012.027.014.026.013.026.015.025.015.026.015.024.016.025.017.024.017.023.018.024.018.022.019.023.019.022.02.021.02.021.021.02.021.021.022.019.022.019.023.019.022.018.024.017.024.017.024.017.025.015.025.016.025.014.025.014.026.014.027.013.026.012.027.012.027.011.027.01.028.01.028.009.028.009.028.008.029.007.029.006.028.007.029.005.029,0,.029,0,.029,0,.03,0,.03,0,.029v.059Z" stroke-linejoin="round" stroke-linecap="round" stroke="#010101"/>
        <path fill="none" stroke-width="0.65" d="M13.343,26.611c-.01.03-.021.062-.034.1s-.026.07-.04.105-.028.069-.043.1-.03.068-.046.1-.031.067-.048.1l-.052.1-.055.1c-.019.032-.038.064-.058.1l-.06.095c-.021.032-.042.063-.064.093s-.043.062-.066.092-.045.061-.068.091l-.071.088-.072.087-.075.085-.077.084-.079.081-.081.081-.082.077c-.028.026-.056.052-.085.077L12,28.519q-.043.038-.087.072c-.03.024-.059.047-.09.07l-.09.069-.093.066-.094.064-.1.062-.1.06-.1.057-.1.055c-.033.019-.067.036-.1.054l-.1.05-.1.049-.1.046-.1.043c-.035.015-.071.029-.106.042l-.107.039-.107.037-.109.034-.109.031c-.036.011-.073.02-.11.029s-.073.019-.11.027-.074.017-.111.024-.074.016-.111.022l-.113.019-.112.017-.113.014-.112.012-.114.009-.113.006-.114,0H8.647l-.114,0-.113-.006-.113-.009-.113-.012-.113-.014-.112-.017-.113-.019c-.037-.006-.074-.014-.111-.022s-.074-.015-.111-.024-.074-.017-.11-.027-.074-.018-.11-.029l-.109-.031L7.2,29.454l-.108-.037-.107-.039c-.035-.013-.071-.027-.106-.042l-.1-.043-.1-.046-.1-.049-.1-.05c-.033-.018-.067-.035-.1-.054l-.1-.055-.1-.057-.1-.06-.1-.062L5.88,28.8l-.093-.066-.09-.069c-.03-.023-.06-.046-.089-.07s-.059-.047-.088-.072l-.086-.074-.085-.076-.082-.078-.081-.08c-.026-.027-.053-.054-.079-.082s-.051-.055-.076-.083l-.075-.085c-.025-.028-.049-.057-.073-.086l-.07-.088L4.745,27.7c-.022-.03-.043-.06-.064-.091s-.042-.06-.063-.091-.04-.061-.059-.092-.038-.062-.056-.094-.035-.062-.052-.093L4.4,27.142c-.015-.032-.031-.064-.045-.1s-.028-.063-.041-.095-.026-.065-.038-.1-.024-.065-.035-.1-.02-.059-.026-.079" stroke-linejoin="round" stroke-linecap="round" stroke="#010101"/>
        <path fill="#010101" stroke-width="0.224" d="M3.69,25.868l2.455,1.754L4.236,28.835Z" stroke-linejoin="round" stroke-linecap="round" stroke="#010101"/>
        <path fill="#010101" stroke-width="0.224" d="M13.836,25.868l-2.455,1.754,1.909,1.213Z" stroke-linejoin="round" stroke-linecap="round" stroke="#010101"/>
        <path fill="#010101" stroke-width="0.224" d="M8.369,21.15h.937v8.186H8.369Z" stroke-linejoin="round" stroke-linecap="round" stroke="#010101"/>
        <path fill="none" stroke-width="0.65" d="M13.274,22.914l-.04-.026-.046-.027-.047-.027-.051-.028-.052-.026-.054-.026-.057-.026-.059-.026-.061-.025-.063-.025-.065-.025-.066-.024-.069-.023-.071-.024-.073-.022-.074-.023-.076-.022-.078-.021-.08-.021-.082-.02-.083-.02-.084-.019-.087-.019-.087-.018-.089-.018-.091-.017L11.4,22.3l-.093-.016-.1-.015-.1-.015-.1-.014-.1-.014-.1-.013-.1-.012-.1-.012-.1-.011-.1-.01-.1-.01-.1-.009-.106-.009-.106-.007-.106-.007-.108-.007-.107-.006-.108,0-.109,0-.109,0-.109,0-.11,0H8.469l-.11,0-.109,0-.109,0-.108,0-.108,0-.108.006-.107.007-.107.007-.106.007-.1.009-.105.009-.1.01-.1.01-.1.011-.1.012-.1.012-.1.013-.1.014-.1.014-.1.015-.094.015L6.2,22.3l-.092.017-.09.017-.09.018-.087.018-.087.019-.084.019-.083.02-.082.02-.079.021-.078.021-.077.022-.074.023-.073.022-.071.024-.068.023-.067.024-.065.025-.063.025-.061.025-.058.026c-.02.008-.039.017-.057.026l-.055.026-.052.026c-.017.009-.034.018-.05.028l-.048.027-.046.027-.035.023" stroke-linejoin="round" stroke-linecap="round" stroke="#010101"/>
        <path fill="#010101" stroke-width="0.224" d="M8.846,28.24l1.232,1.231L8.846,30.7,7.615,29.471Z" stroke-linejoin="round" stroke-linecap="round" stroke="#010101"/>
      </g>
    </g>
    <path fill="#231f20" d="M38.851,20.6a7.729,7.729,0,0,0,3.552.96c2.256,0,3.168-1.272,3.145-2.5,0-1.848-1.729-2.64-3.528-2.64H40.651v-2.16h1.32c1.368,0,3.1-.624,3.1-2.184,0-1.056-.792-1.944-2.5-1.944a6.278,6.278,0,0,0-3.192.984l-.672-2.136a8.415,8.415,0,0,1,4.488-1.2c3.216,0,4.872,1.776,4.872,3.816a3.807,3.807,0,0,1-2.879,3.648V15.3a3.939,3.939,0,0,1,3.432,3.889c0,2.64-2.209,4.728-6.073,4.728a8.515,8.515,0,0,1-4.368-1.08Z"/>
    <g>
      <g>
        <rect fill="#010101" x="17.835" width="4.541" height="36.389" y="5.456"/>
        <path fill="#010101" d="M21.792,6.039V41.261H18.418V6.039h3.374m1.167-1.167H17.251V42.428h5.708V4.872Z"/>
      </g>
      <g>
        <polygon fill="#010101" points="10.956 33.535 48.993 33.155 49.044 37.669 11.007 38.049 10.956 33.535"/>
        <path fill="#010101" d="M48.4,33.757l.037,3.323L11.6,37.447l-.037-3.322L48.4,33.757m1.179-1.2-39.23.391.064,5.708,39.23-.392-.064-5.707Z"/>
      </g>
      <g>
        <polygon fill="#010101" points="11.167 11.987 14.384 8.843 45.583 41.801 38.982 41.844 11.167 11.987"/>
        <path fill="#010101" d="M14.368,9.673l29.87,31.554-5,.033L11.981,12.006l2.387-2.333m.032-1.66-4.047,3.955L38.73,42.428l8.2-.054L14.4,8.013Z"/>
      </g>
    </g>
  </g>
</svg>