<svg xmlns:sodipodi="http://sodipodi.sourceforge.net/DTD/sodipodi-0.dtd" width="60" xmlns:svg="http://www.w3.org/2000/svg" xmlns:inkscape="http://www.inkscape.org/namespaces/inkscape" sodipodi:docname="Air Base 4 allied.svg" inkscape:version="1.1 (c68e22c387, 2021-05-23)" height="60" id="svg86" viewBox="0 0 60 60" xmlns="http://www.w3.org/2000/svg" version="1.1">
  <defs id="defs90"/>
  <sodipodi:namedview bordercolor="#666666" inkscape:window-height="1081" inkscape:pagecheckerboard="0" inkscape:zoom="10.288404" id="namedview88" inkscape:current-layer="svg86" inkscape:window-y="151" inkscape:cy="28.430066" inkscape:window-x="1193" inkscape:cx="34.796457" showgrid="false" inkscape:pageopacity="0.0" inkscape:pageshadow="2" inkscape:window-width="1271" inkscape:window-maximized="0" borderopacity="1.0" pagecolor="#ffffff"/>
  <rect fill="#ffcd34" width="60" id="rect60" height="60" style="fill:#ffffff;fill-opacity:1"/>
  <g id="g84">
    <g id="g82">
      <g style="font-variation-settings:normal;opacity:1;vector-effect:none;fill:#cb2026;fill-opacity:1;stroke-width:1;stroke-linecap:butt;stroke-linejoin:miter;stroke-miterlimit:4;stroke-dasharray:none;stroke-dashoffset:0;stroke-opacity:1;-inkscape-stroke:none;stop-color:#000000;stop-opacity:1" id="g68">
        <rect x="17.835" y="5.456" fill="#010101" width="4.541" style="font-variation-settings:normal;vector-effect:none;fill:#cb2026;fill-opacity:1;stroke-width:1;stroke-linecap:butt;stroke-linejoin:miter;stroke-miterlimit:4;stroke-dasharray:none;stroke-dashoffset:0;stroke-opacity:1;-inkscape-stroke:none;stop-color:#000000;stop-opacity:1" height="36.389" id="rect64"/>
        <path fill="#010101" id="path66" d="M21.792,6.039V41.261H18.418V6.039h3.374m1.167-1.167H17.251V42.428h5.708V4.872Z" style="font-variation-settings:normal;vector-effect:none;fill:#cb2026;fill-opacity:1;stroke-width:1;stroke-linecap:butt;stroke-linejoin:miter;stroke-miterlimit:4;stroke-dasharray:none;stroke-dashoffset:0;stroke-opacity:1;-inkscape-stroke:none;stop-color:#000000;stop-opacity:1" transform="translate(0 0)"/>
      </g>
      <g id="g74">
        <polygon fill="#010101" id="polygon70" style="fill:#cb2026;fill-opacity:1;font-variation-settings:normal;opacity:1;vector-effect:none;stroke-width:1;stroke-linecap:butt;stroke-linejoin:miter;stroke-miterlimit:4;stroke-dasharray:none;stroke-dashoffset:0;stroke-opacity:1;-inkscape-stroke:none;stop-color:#000000;stop-opacity:1" points="10.956 33.535 48.993 33.155 49.044 37.669 11.007 38.049 10.956 33.535"/>
        <path fill="#010101" id="path72" d="M48.4,33.757l.037,3.323L11.6,37.447l-.037-3.322L48.4,33.757m1.179-1.2-39.23.391.064,5.708,39.23-.392-.064-5.707Z" style="fill:#d00101;fill-opacity:1" transform="translate(0 0)"/>
      </g>
      <g style="font-variation-settings:normal;opacity:1;vector-effect:none;fill:#cb2026;fill-opacity:1;stroke-width:1;stroke-linecap:butt;stroke-linejoin:miter;stroke-miterlimit:4;stroke-dasharray:none;stroke-dashoffset:0;stroke-opacity:1;-inkscape-stroke:none;stop-color:#000000;stop-opacity:1" id="g80">
        <polygon fill="#010101" id="polygon76" style="font-variation-settings:normal;vector-effect:none;fill:#cb2026;fill-opacity:1;stroke-width:1;stroke-linecap:butt;stroke-linejoin:miter;stroke-miterlimit:4;stroke-dasharray:none;stroke-dashoffset:0;stroke-opacity:1;-inkscape-stroke:none;stop-color:#000000;stop-opacity:1" points="11.167 11.987 14.384 8.843 45.583 41.801 38.982 41.844 11.167 11.987"/>
        <path fill="#010101" id="path78" d="M14.368,9.673l29.87,31.554-5,.033L11.981,12.006l2.387-2.333m.032-1.66-4.047,3.955L38.73,42.428l8.2-.054L14.4,8.013Z" style="font-variation-settings:normal;vector-effect:none;fill:#cb2026;fill-opacity:1;stroke-width:1;stroke-linecap:butt;stroke-linejoin:miter;stroke-miterlimit:4;stroke-dasharray:none;stroke-dashoffset:0;stroke-opacity:1;-inkscape-stroke:none;stop-color:#000000;stop-opacity:1" transform="translate(0 0)"/>
      </g>
    </g>
  </g>
  <path fill="#cc1f36" id="path873" d="m 43.214218,22.866505 v -3.961 h -7.056 v -1.919 l 6.36,-9.7219997 h 3.48 v 9.4099997 h 2.016 v 2.231 h -2.016 v 3.961 z m 0,-6.192 v -4.249 c 0,-0.888 0.023,-1.8 0.1,-2.7119997 h -0.1 c -0.481,0.9839997 -0.889,1.7759997 -1.368,2.6399997 l -2.857,4.272 -0.024,0.049 z"/>
</svg>