<svg xmlns:sodipodi="http://sodipodi.sourceforge.net/DTD/sodipodi-0.dtd" width="60" xmlns:svg="http://www.w3.org/2000/svg" xmlns:inkscape="http://www.inkscape.org/namespaces/inkscape" sodipodi:docname="Airboat Alighting axis.svg" inkscape:version="1.1 (c68e22c387, 2021-05-23)" height="60" id="svg3292" viewBox="0 0 60 60" xmlns="http://www.w3.org/2000/svg" version="1.1">
  <defs id="defs3296"/>
  <sodipodi:namedview bordercolor="#666666" inkscape:window-height="1081" inkscape:pagecheckerboard="0" inkscape:zoom="14.55" id="namedview3294" inkscape:current-layer="svg3292" inkscape:window-y="176" inkscape:cy="30" inkscape:window-x="1131" inkscape:cx="16.426117" showgrid="false" inkscape:pageopacity="0.0" inkscape:pageshadow="2" inkscape:window-width="1271" inkscape:window-maximized="0" borderopacity="1.0" pagecolor="#ffffff"/>
  <rect fill="#ffcd34" width="60" id="rect3246" height="60" style="fill:#cccccb;fill-opacity:1"/>
  <g id="g3290">
    <g id="g3260">
      <g id="g3252">
        <rect fill="#010101" x="5.116" width="49.767" id="rect3248" y="28.562" height="4.42"/>
        <path fill="#010101" id="path3250" d="M54.137,29.309v2.927H5.863V29.309H54.137m1.493-1.494H4.37V33.73H55.63V27.815Z" transform="translate(0 0)"/>
      </g>
      <g id="g3258">
        <rect x="2.913" y="24.721" transform="translate(-13.577 27.533) rotate(-54.556)" fill="#010101" width="33.993" id="rect3254" height="4.421"/>
        <path fill="#010101" id="path3256" d="M28.14,12.844l2.385,1.7L11.678,41.018l-2.384-1.7L28.14,12.844m-.351-2.083L7.211,39.671l4.818,3.43L32.608,14.19l-4.819-3.429Z" transform="translate(0 0)"/>
      </g>
    </g>
    <path fill="#231f20" id="path3262" d="M42.978,8.778h-.042l-2.5,1.26L40,8.085l3.317-1.638h2.164V20.1h-2.5Z" transform="translate(0 0)"/>
    <g id="g3288">
      <g id="g3270">
        <path stroke-linecap="round" transform="translate(0 0)" fill="#010101" stroke-linejoin="round" id="path3264" d="M17.81,14.01v.038l0,.013,0,.012,0,.013,0,.013,0,.012,0,.012,0,.013,0,.012,0,.013,0,.012,0,.012-.005.011-.006.012-.006.012-.006.012-.007.011-.006.012-.007.011-.008.01-.008.012-.008.01-.009.011-.008.01-.009.011-.009.01-.01.009-.01.01-.01.01-.01.009-.011.009-.011.009-.011.009-.012.008-.011.008-.012.008-.012.008-.012.008-.013.007-.012.007-.013.008-.013.006-.013.007-.014.006-.013.006-.014,0-.014.005-.014.006-.014.005-.015,0-.014,0-.015,0-.014,0-.015,0-.015,0-.015,0-.015,0-.015,0-.015,0-.015,0h-.139l-.015,0h-.031l-.015,0-.016,0-.015,0-.015,0-.015,0-.015,0-.015,0-.015,0-.014,0-.015-.005-.014,0-.014,0-.015-.006-.013-.005-.014-.006-.014-.006-.014-.006-.013-.007-.013-.007-.013-.007-.013-.007-.012-.008-.013-.007-.012-.008-.012-.009-.012-.008L16.67,14.4l-.012-.008-.011-.009-.011-.01-.01-.009-.011-.01-.01-.01-.01-.01-.009-.01-.009-.01-.009-.011-.009-.01-.008-.011-.008-.011-.008-.011-.008-.012-.007-.011-.007-.011-.006-.013L16.5,14.2l0-.012-.006-.012-.006-.012,0-.012,0-.013,0-.012,0-.012,0-.013,0-.012,0-.013,0-.012,0-.013,0-.013v-.115l0-.012,0-.013,0-.013,0-.012,0-.013,0-.012,0-.012,0-.013,0-.012,0-.012.005-.012.006-.012.006-.012.005-.012.007-.011.006-.012.007-.011.008-.011.007-.011.008-.011.008-.011.008-.011.009-.01.009-.01.01-.01.009-.01.01-.01.01-.009.011-.009.01-.01.011-.009.011-.008.011-.009.012-.008.012-.008.012-.008.012-.008.012-.007.013-.007.013-.007.013-.007.013-.006.014-.006.013-.006.014-.006.014-.005.014-.005.014,0,.014-.005.015,0,.014,0,.015,0,.015,0,.015,0,.015,0,.015,0,.015,0,.015,0,.015,0,.015,0H17.2l.015,0,.015,0,.015,0,.016,0,.015,0,.015,0,.015,0,.015,0,.014,0,.015,0,.014,0,.015.005.014,0,.014.005.014.006.014.006.014.006.013.006.014.006.013.007.013.007.013.008.013.007.012.008.012.008.012.008.012.009.012.008.011.009.011.009.011.009.01.01.011.009.01.01.009.01.01.01.009.011.009.01.009.011.008.011.008.011.008.011.007.011.008.011.007.012.006.012.006.012.007.011,0,.012,0,.013.005.012,0,.012,0,.012,0,.013,0,.012,0,.013,0,.012,0,.013,0,.013v.012l0,.013v.064Z" stroke="#010101" stroke-width="0.224"/>
        <path stroke-linecap="round" transform="translate(0 0)" fill="#010101" stroke-linejoin="round" id="path3266" d="M9.35,13.981v.038l0,.013,0,.013,0,.012,0,.013,0,.012,0,.013,0,.012,0,.012,0,.012,0,.013-.005.012-.005.012-.006.011-.006.012-.006.012-.006.011-.008.011-.007.012-.007.011-.008.011-.009.01-.008.011-.009.01-.008.011-.01.01-.009.01-.01.009-.01.01-.011.009-.01.009-.011.009-.011.009-.012.008-.011.009L9.1,14.4l-.012.007-.012.008-.013.008-.012.007-.013.006-.013.007-.014.006L9,14.457l-.014.006-.013.005-.014.006-.014,0-.015.005-.014,0-.014.005-.015,0-.014,0-.015,0-.015,0-.015,0-.015,0-.015,0-.015,0H8.767l-.016,0H8.612l-.015,0H8.582l-.015,0-.016,0-.015,0-.015,0-.015,0-.015,0-.015,0-.014,0-.015,0-.015-.005-.014,0-.015,0-.014-.006-.014-.005-.014-.006-.013-.006-.014-.007-.013-.006-.013-.007L8.3,14.426l-.013-.007-.013-.007L8.257,14.4,8.245,14.4l-.013-.009-.011-.008-.012-.009L8.2,14.361l-.011-.009-.011-.009-.011-.009-.01-.01-.01-.01-.01-.01-.009-.01-.009-.01-.009-.011-.009-.01-.009-.011-.008-.011-.007-.012-.008-.011-.007-.011L8.053,14.2l-.007-.011-.006-.012-.006-.012-.006-.012,0-.012,0-.012-.005-.012,0-.013,0-.012,0-.013,0-.012,0-.013,0-.012,0-.013,0-.013V14l0-.013v-.077l0-.012,0-.013v-.013l0-.012,0-.013,0-.012,0-.013,0-.012,0-.013.005-.012,0-.012,0-.012.006-.012.005-.012.006-.012.007-.011.006-.011.007-.012.007-.011.008-.011.007-.011.009-.011.008-.01.009-.011.009-.01.009-.01.01-.01.01-.01.01-.009.01-.01.011-.008.011-.009L8.2,13.54l.011-.009.012-.008.012-.008.011-.008.013-.008.012-.007.013-.007.013-.007.013-.006.013-.007.013-.006.014-.006.014-.006.014,0,.014-.005.014,0,.014-.005.015,0,.014,0,.015,0,.014,0,.016,0,.014,0,.016,0,.014,0,.016,0,.015,0h.016l.015,0h.138l.016,0,.015,0,.015,0,.015,0,.015,0,.016,0,.014,0,.015,0,.015,0,.015,0,.014,0,.015.005.014,0,.014.005.014.006.014,0,.014.007L9,13.469l.014.007.013.006.013.008.013.007.012.007.013.008.012.008.012.008.012.009.011.008.011.009.012.009.01.009.011.01.01.01.011.009.009.01.01.011.009.01.009.011.009.01.008.011.008.011.008.011.008.011.007.012.006.011.007.012.006.012.006.012.006.011,0,.012.005.013,0,.012,0,.013,0,.012,0,.012,0,.013,0,.012,0,.013,0,.013V13.9l0,.013v.064Z" stroke="#010101" stroke-width="0.224"/>
        <path stroke-linecap="round" transform="translate(0 0)" fill="#010101" stroke-linejoin="round" id="path3268" d="M10.391,14.785h4.975v.741H10.391Z" stroke="#010101" stroke-width="0.224"/>
      </g>
      <g id="g3286">
        <path stroke-linecap="round" transform="translate(0 0)" fill="none" stroke-linejoin="round" id="path3272" d="M14.2,10.969v.059l0,.029,0,.03,0,.029,0,.03,0,.029,0,.029-.006.029-.006.029-.007.029-.007.028-.007.029-.009.028-.009.028-.01.028-.01.028-.011.027-.012.027-.013.027-.013.027-.013.026-.014.026-.015.026-.015.025-.016.025-.016.024-.017.024-.018.024-.017.024-.019.023-.019.022-.02.022-.02.022-.02.021-.021.021-.021.02-.022.02-.023.019L13.713,12l-.023.019-.024.017-.024.017-.024.017-.024.016-.026.016-.025.015-.026.014-.026.014-.027.013-.026.013-.027.012-.028.011-.027.011-.028.01-.028.009-.028.009-.028.008-.029.008-.029.007-.028.006-.029.006-.029,0-.029,0-.03,0-.029,0-.03,0-.029,0h-.118l-.03,0-.029,0-.03,0-.029,0-.029,0-.029,0-.029-.006-.029-.006-.029-.007-.028-.008-.029-.008-.028-.009-.028-.009-.028-.01L12.4,12.2l-.027-.011-.027-.012-.027-.013-.026-.013-.026-.014-.026-.014-.026-.015-.025-.016-.025-.016-.024-.017-.024-.017L12.1,12.02,12.074,12l-.022-.019-.023-.019-.022-.02-.021-.02-.021-.021-.021-.021-.02-.022-.02-.022-.018-.022-.019-.023-.018-.024-.018-.024-.017-.024L11.8,11.7l-.016-.025-.015-.025-.014-.026-.015-.026-.013-.026-.013-.027-.012-.027-.012-.027-.011-.027-.011-.028-.009-.028-.009-.028-.009-.028-.008-.029-.007-.028-.007-.029-.006-.029-.005-.029,0-.029,0-.029,0-.03,0-.029,0-.03V10.91l0-.029,0-.03,0-.029,0-.03,0-.029.005-.029.006-.029.007-.028.007-.029.008-.029.009-.028.009-.028.009-.028.011-.028.011-.027.012-.027.012-.027.013-.026.013-.027.015-.026.014-.025.015-.026.016-.024.016-.025.017-.024.018-.024.018-.023.019-.023.018-.023.02-.022.02-.022.021-.021.021-.021.021-.02.022-.02.023-.019.022-.019.023-.018.024-.018.024-.017.024-.017.025-.016.025-.015.026-.016.026-.014.026-.013.026-.014L12.35,9.8l.027-.012.027-.012.027-.01.028-.011.028-.009.028-.009.029-.008.028-.008L12.6,9.71,12.63,9.7l.029-.006.029-.005.029,0,.029,0,.03,0,.029,0h.03l.029,0h.059l.03,0h.029l.03,0,.029,0,.03,0,.029,0,.029.005.029.006.028.006.029.007.029.008.028.008.029.009.027.009.028.011.027.01.028.012.027.012.026.012.027.014.026.013.026.015.025.015.026.015.024.016.024.017.024.017.024.018.023.018.023.019.023.019.022.02.021.02.021.021.02.021.02.022.02.022.019.023.019.023.017.023.018.024.017.024.016.025.016.025.015.025.015.025.014.026.013.027.013.026.013.027.012.027.011.027.01.028.01.028.009.028.009.028.007.029.008.029.006.028.006.029.006.029,0,.029,0,.03,0,.029,0,.03,0,.029,0,.029Z" stroke="#010101" stroke-width="0.65"/>
        <path stroke-linecap="round" transform="translate(0 0)" fill="none" stroke-linejoin="round" id="path3274" d="M17.414,17.486c-.01.03-.022.062-.034.1l-.04.105c-.014.035-.028.069-.043.1s-.03.068-.046.1-.032.067-.049.1-.033.066-.051.1l-.055.1c-.019.032-.038.064-.058.1s-.04.064-.061.095-.041.063-.063.094l-.066.091c-.022.031-.045.061-.068.091l-.071.088-.073.087c-.024.029-.049.057-.075.085L16.484,19l-.078.081c-.027.028-.054.054-.081.081l-.083.077c-.027.026-.055.052-.084.077l-.086.074q-.043.038-.087.072l-.09.07c-.03.024-.06.047-.091.069l-.092.066-.094.064-.1.062-.1.06-.1.057c-.032.019-.065.037-.1.055s-.067.036-.1.054l-.1.05-.1.049-.1.046-.1.043-.106.042-.107.039-.107.037-.109.034-.109.031-.11.03-.11.026-.111.025c-.037.007-.074.015-.112.021l-.112.019-.112.017-.113.014-.113.012-.113.009-.113.006-.114,0h-.227l-.114,0-.113-.006-.113-.009-.114-.012-.112-.014-.113-.017-.112-.019-.111-.021-.111-.025-.111-.026c-.036-.01-.073-.019-.109-.03l-.109-.031-.109-.034-.107-.037c-.036-.013-.072-.025-.107-.039s-.071-.027-.106-.042l-.1-.043-.1-.046-.1-.049-.1-.05-.1-.054-.1-.055-.1-.057-.1-.06-.1-.062-.093-.064-.093-.066c-.03-.022-.061-.045-.091-.069l-.089-.07q-.044-.035-.087-.072l-.086-.074-.085-.076-.082-.078c-.028-.027-.055-.053-.081-.08l-.079-.081L9.1,18.921c-.026-.028-.051-.056-.075-.085s-.049-.057-.073-.086-.047-.058-.07-.088-.045-.059-.068-.089l-.065-.091c-.021-.03-.042-.06-.062-.091s-.04-.061-.059-.092-.038-.062-.056-.093l-.052-.094-.049-.095q-.024-.048-.045-.1c-.015-.031-.029-.063-.042-.095s-.025-.065-.038-.1-.023-.065-.034-.1-.02-.059-.026-.079" stroke="#010101" stroke-width="0.65"/>
        <path stroke-linecap="round" transform="translate(0 0)" fill="#010101" stroke-linejoin="round" id="path3276" d="M7.761,16.743,10.216,18.5,8.307,19.71Z" stroke="#010101" stroke-width="0.224"/>
        <path stroke-linecap="round" transform="translate(0 0)" fill="#010101" stroke-linejoin="round" id="path3278" d="M17.906,16.743,15.452,18.5l1.909,1.213Z" stroke="#010101" stroke-width="0.224"/>
        <path stroke-linecap="round" transform="translate(0 0)" fill="#010101" stroke-linejoin="round" id="path3280" d="M12.44,12.025h.937v8.186H12.44Z" stroke="#010101" stroke-width="0.224"/>
        <path stroke-linecap="round" transform="translate(0 0)" fill="none" stroke-linejoin="round" id="path3282" d="M17.345,13.789l-.04-.026-.046-.027-.048-.027-.05-.028-.052-.026-.055-.026c-.018-.009-.037-.018-.057-.026l-.058-.026-.061-.025-.063-.025L16.75,13.5l-.067-.024-.068-.023-.071-.024-.073-.022-.074-.023-.076-.022-.079-.021-.079-.021-.082-.02L16,13.282l-.084-.019-.087-.019-.087-.018-.089-.018-.091-.017-.092-.017-.094-.015-.094-.016-.1-.015-.1-.014-.1-.014-.1-.013-.1-.012-.1-.012-.1-.011-.1-.01-.1-.01-.105-.009-.1-.009-.106-.007L13.956,13l-.107-.007-.107-.006-.109-.005-.108,0-.109,0-.109,0-.11,0H12.54l-.11,0-.109,0-.109,0-.109,0L12,12.987l-.108.006L11.78,13l-.106.007-.106.007-.106.009-.1.009-.1.01-.1.01-.1.011-.1.012-.1.012-.1.013-.1.014-.1.014-.1.015-.1.015-.093.016-.092.017-.091.017L10,13.226l-.087.018-.087.019-.084.019-.083.02-.082.02-.08.021-.077.021-.077.022-.074.023-.073.022-.071.024-.069.023-.066.024-.065.025-.063.025-.061.025-.059.026-.056.026-.055.026-.052.026-.051.028-.047.027-.046.027-.035.023" stroke="#010101" stroke-width="0.65"/>
        <path stroke-linecap="round" transform="translate(0 0)" fill="#010101" stroke-linejoin="round" id="path3284" d="M12.917,19.115l1.232,1.231-1.232,1.232-1.231-1.232Z" stroke="#010101" stroke-width="0.224"/>
      </g>
    </g>
  </g>
</svg>