<svg xmlns:sodipodi="http://sodipodi.sourceforge.net/DTD/sodipodi-0.dtd" width="60" xmlns:svg="http://www.w3.org/2000/svg" xmlns:inkscape="http://www.inkscape.org/namespaces/inkscape" sodipodi:docname="Airboat Basin 0 allied.svg" inkscape:version="1.1 (c68e22c387, 2021-05-23)" height="60" id="svg3408" viewBox="0 0 60 60" xmlns="http://www.w3.org/2000/svg" version="1.1">
  <defs id="defs3412"/>
  <sodipodi:namedview bordercolor="#666666" inkscape:window-height="1081" inkscape:pagecheckerboard="0" inkscape:zoom="14.55" id="namedview3410" inkscape:current-layer="g3406" inkscape:window-y="130" inkscape:cy="30" inkscape:window-x="130" inkscape:cx="16.460481" showgrid="false" inkscape:pageopacity="0.0" inkscape:pageshadow="2" inkscape:window-width="1612" inkscape:window-maximized="0" borderopacity="1.0" pagecolor="#ffffff"/>
  <rect fill="#ffcd34" width="60" id="rect3356" height="60" style="fill:#ffffff;fill-opacity:1"/>
  <g id="g3288" transform="translate(-4.2424347,8.8028992)">
    <g style="font-variation-settings:normal;opacity:1;vector-effect:none;fill:#cb2026;fill-opacity:1;stroke:#cb2026;stroke-width:0.224;stroke-linecap:round;stroke-linejoin:round;stroke-miterlimit:4;stroke-dasharray:none;stroke-dashoffset:0;stroke-opacity:1;-inkscape-stroke:none;stop-color:#000000;stop-opacity:1" id="g3270">
      <path stroke-linecap="round" fill="#010101" style="font-variation-settings:normal;vector-effect:none;fill:#cb2026;fill-opacity:1;stroke:#cb2026;stroke-width:0.224;stroke-linecap:round;stroke-linejoin:round;stroke-miterlimit:4;stroke-dasharray:none;stroke-dashoffset:0;stroke-opacity:1;-inkscape-stroke:none;stop-color:#000000;stop-opacity:1" stroke-linejoin="round" id="path3264" d="m 17.81,14.01 v 0.038 0.013 0.012 0.013 0.013 0.012 0.012 0.013 0.012 0.013 0.012 0.012 l -0.005,0.011 -0.006,0.012 -0.006,0.012 -0.006,0.012 -0.007,0.011 -0.006,0.012 -0.007,0.011 -0.008,0.01 -0.008,0.012 -0.008,0.01 -0.009,0.011 -0.008,0.01 -0.009,0.011 -0.009,0.01 -0.01,0.009 -0.01,0.01 -0.01,0.01 -0.01,0.009 -0.011,0.009 -0.011,0.009 -0.011,0.009 -0.012,0.008 -0.011,0.008 -0.012,0.008 -0.012,0.008 -0.012,0.008 -0.013,0.007 -0.012,0.007 -0.013,0.008 -0.013,0.006 -0.013,0.007 -0.014,0.006 -0.013,0.006 h -0.014 l -0.014,0.005 -0.014,0.006 -0.014,0.005 H 17.414 17.4 17.385 17.371 17.356 17.341 17.326 17.311 17.296 17.281 17.266 17.127 17.112 17.081 17.066 17.05 17.035 17.02 17.005 16.99 16.975 16.96 16.946 L 16.931,14.503 H 16.917 16.903 L 16.888,14.497 16.875,14.492 16.861,14.486 16.847,14.48 16.833,14.474 16.82,14.467 16.807,14.46 16.794,14.453 16.781,14.446 16.769,14.438 16.756,14.431 16.744,14.423 16.732,14.414 16.72,14.406 16.67,14.4 l -0.012,-0.008 -0.011,-0.009 -0.011,-0.01 -0.01,-0.009 -0.011,-0.01 -0.01,-0.01 -0.01,-0.01 -0.009,-0.01 -0.009,-0.01 -0.009,-0.011 -0.009,-0.01 L 16.551,14.282 16.543,14.271 16.535,14.26 16.527,14.248 16.52,14.237 16.513,14.226 16.507,14.213 16.5,14.2 V 14.188 L 16.494,14.176 16.488,14.164 V 14.152 14.139 14.127 14.115 14.102 14.09 14.077 14.065 14.052 14.039 13.924 13.912 13.899 13.886 13.874 13.861 13.849 13.837 13.824 13.812 13.8 l 0.005,-0.012 0.006,-0.012 0.006,-0.012 0.005,-0.012 0.007,-0.011 0.006,-0.012 0.007,-0.011 0.008,-0.011 0.007,-0.011 0.008,-0.011 0.008,-0.011 0.008,-0.011 0.009,-0.01 0.009,-0.01 0.01,-0.01 0.009,-0.01 0.01,-0.01 0.01,-0.009 0.011,-0.009 0.01,-0.01 0.011,-0.009 0.011,-0.008 0.011,-0.009 0.012,-0.008 0.012,-0.008 0.012,-0.008 0.012,-0.008 0.012,-0.007 0.013,-0.007 0.013,-0.007 0.013,-0.007 0.013,-0.006 0.014,-0.006 0.013,-0.006 0.014,-0.006 0.014,-0.005 0.014,-0.005 h 0.014 l 0.014,-0.005 h 0.015 0.014 0.015 0.015 0.015 0.015 0.015 0.015 0.015 0.015 0.015 0.147 0.015 0.015 0.015 0.016 0.015 0.015 0.015 0.015 0.014 0.015 0.014 l 0.015,0.005 h 0.014 l 0.014,0.005 0.014,0.006 0.014,0.006 0.014,0.006 0.013,0.006 0.014,0.006 0.013,0.007 0.013,0.007 0.013,0.008 0.013,0.007 0.012,0.008 0.012,0.008 0.012,0.008 0.012,0.009 0.012,0.008 0.011,0.009 0.011,0.009 0.011,0.009 0.01,0.01 0.011,0.009 0.01,0.01 0.009,0.01 0.01,0.01 0.009,0.011 0.009,0.01 0.009,0.011 0.008,0.011 0.008,0.011 0.008,0.011 0.007,0.011 0.008,0.011 0.007,0.012 0.006,0.012 0.006,0.012 0.007,0.011 v 0.012 0.013 l 0.005,0.012 v 0.012 0.012 0.013 0.012 0.013 0.012 0.013 0.013 0.012 0.013 0.064 z" stroke="#010101" stroke-width="0.224"/>
      <path stroke-linecap="round" fill="#010101" style="font-variation-settings:normal;vector-effect:none;fill:#cb2026;fill-opacity:1;stroke:#cb2026;stroke-width:0.224;stroke-linecap:round;stroke-linejoin:round;stroke-miterlimit:4;stroke-dasharray:none;stroke-dashoffset:0;stroke-opacity:1;-inkscape-stroke:none;stop-color:#000000;stop-opacity:1" stroke-linejoin="round" id="path3266" d="m 9.35,13.981 v 0.038 0.013 0.013 0.012 0.013 0.012 0.013 0.012 0.012 0.012 0.013 l -0.005,0.012 -0.005,0.012 -0.006,0.011 -0.006,0.012 -0.006,0.012 -0.006,0.011 -0.008,0.011 -0.007,0.012 -0.007,0.011 -0.008,0.011 -0.009,0.01 -0.008,0.011 -0.009,0.01 -0.008,0.011 -0.01,0.01 -0.009,0.01 -0.01,0.009 -0.01,0.01 -0.011,0.009 -0.01,0.009 L 9.181,14.367 9.17,14.376 9.158,14.384 9.147,14.393 9.1,14.4 9.088,14.407 9.076,14.415 9.063,14.423 9.051,14.43 9.038,14.436 9.025,14.443 9.011,14.449 9,14.457 8.986,14.463 8.973,14.468 8.959,14.474 H 8.945 L 8.93,14.479 H 8.916 L 8.902,14.484 H 8.887 8.873 8.858 8.843 8.828 8.813 8.798 8.783 8.767 8.751 8.612 8.597 8.582 8.567 8.551 8.536 8.521 8.506 8.491 8.476 8.462 8.447 L 8.432,14.479 H 8.418 8.403 L 8.389,14.473 8.375,14.468 8.361,14.462 8.348,14.456 8.334,14.449 8.321,14.443 8.308,14.436 8.3,14.426 8.287,14.419 8.274,14.412 8.257,14.4 H 8.245 L 8.232,14.391 8.221,14.383 8.209,14.374 8.2,14.361 8.189,14.352 8.178,14.343 8.167,14.334 8.157,14.324 8.147,14.314 8.137,14.304 8.128,14.294 8.119,14.284 8.11,14.273 8.101,14.263 8.092,14.252 8.084,14.241 8.077,14.229 8.069,14.218 8.062,14.207 8.053,14.2 8.046,14.189 8.04,14.177 8.034,14.165 8.028,14.153 V 14.141 14.129 L 8.023,14.117 V 14.104 14.092 14.079 14.067 14.054 14.042 14.029 14.016 14 13.987 13.91 13.898 13.885 13.872 13.86 13.847 13.835 13.822 13.81 13.797 l 0.005,-0.012 v -0.012 -0.012 l 0.006,-0.012 0.005,-0.012 0.006,-0.012 0.007,-0.011 0.006,-0.011 0.007,-0.012 0.007,-0.011 0.008,-0.011 0.007,-0.011 0.009,-0.011 0.008,-0.01 0.009,-0.011 0.009,-0.01 0.009,-0.01 0.01,-0.01 0.01,-0.01 0.01,-0.009 0.01,-0.01 L 8.182,13.559 8.193,13.55 8.2,13.54 8.211,13.531 8.223,13.523 8.235,13.515 8.246,13.507 8.259,13.499 8.271,13.492 8.284,13.485 8.297,13.478 8.31,13.472 8.323,13.465 8.336,13.459 8.35,13.453 8.364,13.447 H 8.378 L 8.392,13.442 H 8.406 L 8.42,13.437 H 8.435 8.449 8.464 8.478 8.494 8.508 8.524 8.538 8.554 8.569 8.585 8.6 8.738 8.754 8.769 8.784 8.799 8.814 8.83 8.844 8.859 8.874 8.889 8.903 l 0.015,0.005 h 0.014 l 0.014,0.005 0.014,0.006 H 8.974 L 8.988,13.46 9,13.469 l 0.014,0.007 0.013,0.006 0.013,0.008 0.013,0.007 0.012,0.007 0.013,0.008 0.012,0.008 0.012,0.008 0.012,0.009 0.011,0.008 0.011,0.009 0.012,0.009 0.01,0.009 0.011,0.01 0.01,0.01 0.011,0.009 0.009,0.01 0.01,0.011 0.009,0.01 0.009,0.011 0.009,0.01 0.008,0.011 0.008,0.011 0.008,0.011 0.008,0.011 0.007,0.012 0.006,0.011 0.007,0.012 0.006,0.012 0.006,0.012 0.006,0.011 v 0.012 l 0.005,0.013 v 0.012 0.013 0.012 0.012 0.013 0.012 0.013 0.013 0.008 0.013 0.064 z" stroke="#010101" stroke-width="0.224"/>
      <path stroke-linecap="round" fill="#010101" style="font-variation-settings:normal;vector-effect:none;fill:#cb2026;fill-opacity:1;stroke:#cb2026;stroke-width:0.224;stroke-linecap:round;stroke-linejoin:round;stroke-miterlimit:4;stroke-dasharray:none;stroke-dashoffset:0;stroke-opacity:1;-inkscape-stroke:none;stop-color:#000000;stop-opacity:1" stroke-linejoin="round" id="path3268" d="m 10.391,14.785 h 4.975 v 0.741 h -4.975 z" stroke="#010101" stroke-width="0.224"/>
    </g>
    <g id="g3286">
      <path stroke-linecap="round" fill="none" style="stroke:#cb2026;stroke-opacity:1" stroke-linejoin="round" id="path3272" d="m 14.2,10.969 v 0.059 0.029 0.03 0.029 0.03 0.029 0.029 l -0.006,0.029 -0.006,0.029 -0.007,0.029 -0.007,0.028 -0.007,0.029 -0.009,0.028 -0.009,0.028 -0.01,0.028 -0.01,0.028 -0.011,0.027 -0.012,0.027 -0.013,0.027 -0.013,0.027 -0.013,0.026 -0.014,0.026 -0.015,0.026 -0.015,0.025 -0.016,0.025 -0.016,0.024 -0.017,0.024 -0.018,0.024 -0.017,0.024 -0.019,0.023 -0.019,0.022 -0.02,0.022 -0.02,0.022 -0.02,0.021 -0.021,0.021 -0.021,0.02 -0.022,0.02 -0.023,0.019 -0.041,0.018 -0.023,0.019 -0.024,0.017 -0.024,0.017 -0.024,0.017 -0.024,0.016 -0.026,0.016 -0.025,0.015 -0.026,0.014 -0.026,0.014 -0.027,0.013 -0.026,0.013 -0.027,0.012 -0.028,0.011 -0.027,0.011 -0.028,0.01 -0.028,0.009 -0.028,0.009 -0.028,0.008 -0.029,0.008 -0.029,0.007 -0.028,0.006 -0.029,0.006 h -0.029 -0.029 -0.03 -0.029 -0.03 -0.029 -0.118 -0.03 -0.029 -0.03 -0.029 -0.029 -0.029 L 12.63,12.262 12.601,12.256 12.572,12.249 12.544,12.241 12.515,12.233 12.487,12.224 12.459,12.215 12.431,12.205 12.4,12.2 12.373,12.189 12.346,12.177 12.319,12.164 12.293,12.151 12.267,12.137 12.241,12.123 12.215,12.108 12.19,12.092 12.165,12.076 12.141,12.059 12.117,12.042 12.1,12.02 12.074,12 12.052,11.981 12.029,11.962 12.007,11.942 11.986,11.922 11.965,11.901 11.944,11.88 11.924,11.858 11.904,11.836 11.886,11.814 11.867,11.791 11.849,11.767 11.831,11.743 11.814,11.719 11.8,11.7 11.784,11.675 11.769,11.65 11.755,11.624 11.74,11.598 11.727,11.572 11.714,11.545 11.702,11.518 11.69,11.491 11.679,11.464 11.668,11.436 11.659,11.408 11.65,11.38 11.641,11.352 11.633,11.323 11.626,11.295 11.619,11.266 11.613,11.237 11.608,11.208 v -0.029 -0.029 -0.03 -0.029 -0.03 -0.151 -0.029 -0.03 -0.029 -0.03 -0.029 l 0.005,-0.029 0.006,-0.029 0.007,-0.028 0.007,-0.029 0.008,-0.029 0.009,-0.028 0.009,-0.028 0.009,-0.028 0.011,-0.028 0.011,-0.027 0.012,-0.027 0.012,-0.027 0.013,-0.026 0.013,-0.027 0.015,-0.026 0.014,-0.025 0.015,-0.026 0.016,-0.024 0.016,-0.025 0.017,-0.024 0.018,-0.024 0.018,-0.023 0.019,-0.023 0.018,-0.023 0.02,-0.022 0.02,-0.022 0.021,-0.021 0.021,-0.021 0.021,-0.02 0.022,-0.02 L 12.054,9.985 12.076,9.966 12.099,9.948 12.123,9.93 12.147,9.913 12.171,9.896 12.196,9.88 12.221,9.865 12.247,9.849 12.273,9.835 12.299,9.822 12.325,9.808 12.35,9.8 12.377,9.788 12.404,9.776 12.431,9.766 12.459,9.755 12.487,9.746 12.515,9.737 12.544,9.729 12.572,9.721 12.6,9.71 12.63,9.7 12.659,9.694 12.688,9.689 h 0.029 0.029 0.03 0.029 0.03 0.029 0.059 0.03 0.029 0.03 0.029 0.03 0.029 l 0.029,0.005 0.029,0.006 0.028,0.006 0.029,0.007 0.029,0.008 0.028,0.008 0.029,0.009 0.027,0.009 0.028,0.011 0.027,0.01 0.028,0.012 0.027,0.012 0.026,0.012 0.027,0.014 0.026,0.013 0.026,0.015 0.025,0.015 0.026,0.015 0.024,0.016 0.024,0.017 0.024,0.017 0.024,0.018 0.023,0.018 0.023,0.019 0.023,0.019 0.022,0.02 0.021,0.02 0.021,0.021 0.02,0.021 0.02,0.022 0.02,0.022 0.019,0.023 0.019,0.023 0.017,0.023 0.018,0.024 0.017,0.024 0.016,0.025 0.016,0.025 0.015,0.025 0.015,0.025 0.014,0.026 0.013,0.027 0.013,0.026 0.013,0.027 0.012,0.027 0.011,0.027 0.01,0.028 0.01,0.028 0.009,0.028 0.009,0.028 0.007,0.029 0.008,0.029 0.006,0.028 0.006,0.029 0.006,0.029 v 0.029 0.03 0.029 0.03 0.029 0.029 z" stroke="#010101" stroke-width="0.65"/>
      <path stroke-linecap="round" fill="none" style="stroke:#cb2026;stroke-opacity:1" stroke-linejoin="round" id="path3274" d="m 17.414,17.486 c -0.01,0.03 -0.022,0.062 -0.034,0.1 l -0.04,0.105 c -0.014,0.035 -0.028,0.069 -0.043,0.1 -0.015,0.031 -0.03,0.068 -0.046,0.1 -0.016,0.032 -0.032,0.067 -0.049,0.1 -0.017,0.033 -0.033,0.066 -0.051,0.1 l -0.055,0.1 c -0.019,0.032 -0.038,0.064 -0.058,0.1 -0.02,0.036 -0.04,0.064 -0.061,0.095 -0.021,0.031 -0.041,0.063 -0.063,0.094 l -0.066,0.091 c -0.022,0.031 -0.045,0.061 -0.068,0.091 l -0.071,0.088 -0.073,0.087 c -0.024,0.029 -0.049,0.057 -0.075,0.085 L 16.484,19 16.406,19.081 c -0.027,0.028 -0.054,0.054 -0.081,0.081 l -0.083,0.077 c -0.027,0.026 -0.055,0.052 -0.084,0.077 l -0.086,0.074 q -0.043,0.038 -0.087,0.072 l -0.09,0.07 c -0.03,0.024 -0.06,0.047 -0.091,0.069 l -0.092,0.066 -0.094,0.064 -0.1,0.062 -0.1,0.06 -0.1,0.057 c -0.032,0.019 -0.065,0.037 -0.1,0.055 -0.035,0.018 -0.067,0.036 -0.1,0.054 l -0.1,0.05 -0.1,0.049 -0.1,0.046 -0.1,0.043 -0.106,0.042 -0.107,0.039 -0.107,0.037 -0.109,0.034 -0.109,0.031 -0.11,0.03 -0.11,0.026 -0.111,0.025 c -0.037,0.007 -0.074,0.015 -0.112,0.021 l -0.112,0.019 -0.112,0.017 -0.113,0.014 -0.113,0.012 -0.113,0.009 -0.113,0.006 H 12.947 12.72 12.606 L 12.493,20.563 12.38,20.554 12.266,20.542 12.154,20.528 12.041,20.511 11.929,20.492 11.818,20.471 11.707,20.446 11.596,20.42 C 11.56,20.41 11.523,20.401 11.487,20.39 L 11.378,20.359 11.269,20.325 11.162,20.288 C 11.126,20.275 11.09,20.263 11.055,20.249 11.02,20.235 10.984,20.222 10.949,20.207 l -0.1,-0.043 -0.1,-0.046 -0.1,-0.049 -0.1,-0.05 -0.1,-0.054 -0.1,-0.055 -0.1,-0.057 -0.1,-0.06 -0.1,-0.062 L 9.956,19.667 9.863,19.601 C 9.833,19.579 9.802,19.556 9.772,19.532 L 9.683,19.462 Q 9.639,19.427 9.596,19.39 L 9.51,19.316 9.425,19.24 9.343,19.162 C 9.315,19.135 9.288,19.109 9.262,19.082 L 9.183,19.001 9.1,18.921 C 9.074,18.893 9.049,18.865 9.025,18.836 9.001,18.807 8.976,18.779 8.952,18.75 8.928,18.721 8.905,18.692 8.882,18.662 8.859,18.632 8.837,18.603 8.814,18.573 L 8.749,18.482 C 8.728,18.452 8.707,18.422 8.687,18.391 8.667,18.36 8.647,18.33 8.628,18.299 8.609,18.268 8.59,18.237 8.572,18.206 L 8.52,18.112 8.471,18.017 Q 8.447,17.969 8.426,17.917 C 8.411,17.886 8.397,17.854 8.384,17.822 8.371,17.79 8.359,17.757 8.346,17.722 8.333,17.687 8.323,17.657 8.312,17.622 8.301,17.587 8.292,17.563 8.286,17.543" stroke="#010101" stroke-width="0.65"/>
      <path stroke-linecap="round" fill="#010101" style="fill:#cb2026;fill-opacity:1;stroke:#cb2026;stroke-opacity:1" stroke-linejoin="round" id="path3276" d="M 7.761,16.743 10.216,18.5 8.307,19.71 Z" stroke="#010101" stroke-width="0.224"/>
      <path stroke-linecap="round" fill="#010101" style="font-variation-settings:normal;opacity:1;vector-effect:none;fill:#cb2026;fill-opacity:1;stroke:#cb2026;stroke-width:0.224;stroke-linecap:round;stroke-linejoin:round;stroke-miterlimit:4;stroke-dasharray:none;stroke-dashoffset:0;stroke-opacity:1;-inkscape-stroke:none;stop-color:#000000;stop-opacity:1" stroke-linejoin="round" id="path3278" d="m 17.906,16.743 -2.454,1.757 1.909,1.213 z" stroke="#010101" stroke-width="0.224"/>
      <path stroke-linecap="round" fill="#010101" style="font-variation-settings:normal;opacity:1;vector-effect:none;fill:#cb2026;fill-opacity:1;stroke:#cb2026;stroke-width:0.224;stroke-linecap:round;stroke-linejoin:round;stroke-miterlimit:4;stroke-dasharray:none;stroke-dashoffset:0;stroke-opacity:1;-inkscape-stroke:none;stop-color:#000000;stop-opacity:1" stroke-linejoin="round" id="path3280" d="m 12.44,12.025 h 0.937 v 8.186 H 12.44 Z" stroke="#010101" stroke-width="0.224"/>
      <path stroke-linecap="round" fill="none" style="stroke:#cb2026;stroke-opacity:1" stroke-linejoin="round" id="path3282" d="m 17.345,13.789 -0.04,-0.026 -0.046,-0.027 -0.048,-0.027 -0.05,-0.028 -0.052,-0.026 -0.055,-0.026 C 17.036,13.62 17.017,13.611 16.997,13.603 L 16.939,13.577 16.878,13.552 16.815,13.527 16.75,13.5 16.683,13.476 16.615,13.453 16.544,13.429 16.471,13.407 16.397,13.384 16.321,13.362 16.242,13.341 16.163,13.32 16.081,13.3 16,13.282 15.916,13.263 15.829,13.244 15.742,13.226 15.653,13.208 15.562,13.191 15.47,13.174 l -0.094,-0.015 -0.094,-0.016 -0.1,-0.015 -0.1,-0.014 -0.1,-0.014 -0.1,-0.013 -0.1,-0.012 -0.1,-0.012 -0.1,-0.011 -0.1,-0.01 -0.1,-0.01 -0.105,-0.009 -0.1,-0.009 L 14.071,13.007 13.956,13 13.849,12.993 13.742,12.987 13.633,12.982 H 13.525 13.416 13.307 13.197 12.54 12.43 12.321 12.212 12.103 L 12,12.987 11.892,12.993 11.78,13 l -0.106,0.007 -0.106,0.007 -0.106,0.009 -0.1,0.009 -0.1,0.01 -0.1,0.01 -0.1,0.011 -0.1,0.012 -0.1,0.012 -0.1,0.013 -0.1,0.014 -0.1,0.014 -0.1,0.015 -0.1,0.015 -0.093,0.016 -0.092,0.017 -0.091,0.017 L 10,13.226 9.913,13.244 9.826,13.263 9.742,13.282 9.659,13.302 9.577,13.322 9.497,13.343 9.42,13.364 9.343,13.386 9.269,13.409 9.196,13.431 9.125,13.455 9.056,13.478 8.99,13.502 8.925,13.527 8.862,13.552 8.801,13.577 8.742,13.603 8.686,13.629 8.631,13.655 8.579,13.681 8.528,13.709 8.481,13.736 8.435,13.763 8.4,13.786" stroke="#010101" stroke-width="0.65"/>
      <path stroke-linecap="round" fill="#010101" style="font-variation-settings:normal;opacity:1;vector-effect:none;fill:#cb2026;fill-opacity:1;stroke:#cb2026;stroke-width:0.224;stroke-linecap:round;stroke-linejoin:round;stroke-miterlimit:4;stroke-dasharray:none;stroke-dashoffset:0;stroke-opacity:1;-inkscape-stroke:none;stop-color:#000000;stop-opacity:1" stroke-linejoin="round" id="path3284" d="m 12.917,19.115 1.232,1.231 -1.232,1.232 -1.231,-1.232 z" stroke="#010101" stroke-width="0.224"/>
    </g>
  </g>
  <g id="g3406">
    <g style="font-variation-settings:normal;opacity:1;vector-effect:none;fill:#cb2026;fill-opacity:1;stroke-width:1;stroke-linecap:butt;stroke-linejoin:miter;stroke-miterlimit:4;stroke-dasharray:none;stroke-dashoffset:0;stroke-opacity:1;-inkscape-stroke:none;stop-color:#000000;stop-opacity:1" id="g3404">
      <g style="font-variation-settings:normal;vector-effect:none;fill:#cb2026;fill-opacity:1;stroke-width:1;stroke-linecap:butt;stroke-linejoin:miter;stroke-miterlimit:4;stroke-dasharray:none;stroke-dashoffset:0;stroke-opacity:1;-inkscape-stroke:none;stop-color:#000000;stop-opacity:1" id="g3390">
        <rect x="17.835" y="5.456" fill="#010101" width="4.541" style="font-variation-settings:normal;vector-effect:none;fill:#cb2026;fill-opacity:1;stroke-width:1;stroke-linecap:butt;stroke-linejoin:miter;stroke-miterlimit:4;stroke-dasharray:none;stroke-dashoffset:0;stroke-opacity:1;-inkscape-stroke:none;stop-color:#000000;stop-opacity:1" height="36.389" id="rect3386"/>
        <path fill="#010101" d="M21.792,6.039V41.261H18.418V6.039h3.374m1.167-1.167H17.251V42.428h5.708V4.872Z" id="path3388" style="font-variation-settings:normal;vector-effect:none;fill:#cb2026;fill-opacity:1;stroke-width:1;stroke-linecap:butt;stroke-linejoin:miter;stroke-miterlimit:4;stroke-dasharray:none;stroke-dashoffset:0;stroke-opacity:1;-inkscape-stroke:none;stop-color:#000000;stop-opacity:1"/>
      </g>
      <g style="font-variation-settings:normal;vector-effect:none;fill:#cb2026;fill-opacity:1;stroke-width:1;stroke-linecap:butt;stroke-linejoin:miter;stroke-miterlimit:4;stroke-dasharray:none;stroke-dashoffset:0;stroke-opacity:1;-inkscape-stroke:none;stop-color:#000000;stop-opacity:1" id="g3396">
        <polygon fill="#010101" id="polygon3392" style="font-variation-settings:normal;vector-effect:none;fill:#cb2026;fill-opacity:1;stroke-width:1;stroke-linecap:butt;stroke-linejoin:miter;stroke-miterlimit:4;stroke-dasharray:none;stroke-dashoffset:0;stroke-opacity:1;-inkscape-stroke:none;stop-color:#000000;stop-opacity:1" points="10.956 33.535 48.993 33.155 49.044 37.669 11.007 38.049 10.956 33.535"/>
        <path fill="#010101" d="M48.4,33.757l.037,3.323L11.6,37.447l-.037-3.322L48.4,33.757m1.179-1.2-39.23.391.064,5.708,39.23-.392-.064-5.707Z" id="path3394" style="font-variation-settings:normal;vector-effect:none;fill:#cb2026;fill-opacity:1;stroke-width:1;stroke-linecap:butt;stroke-linejoin:miter;stroke-miterlimit:4;stroke-dasharray:none;stroke-dashoffset:0;stroke-opacity:1;-inkscape-stroke:none;stop-color:#000000;stop-opacity:1"/>
      </g>
      <g style="font-variation-settings:normal;vector-effect:none;fill:#cb2026;fill-opacity:1;stroke-width:1;stroke-linecap:butt;stroke-linejoin:miter;stroke-miterlimit:4;stroke-dasharray:none;stroke-dashoffset:0;stroke-opacity:1;-inkscape-stroke:none;stop-color:#000000;stop-opacity:1" id="g3402">
        <polygon fill="#010101" id="polygon3398" style="font-variation-settings:normal;vector-effect:none;fill:#cb2026;fill-opacity:1;stroke-width:1;stroke-linecap:butt;stroke-linejoin:miter;stroke-miterlimit:4;stroke-dasharray:none;stroke-dashoffset:0;stroke-opacity:1;-inkscape-stroke:none;stop-color:#000000;stop-opacity:1" points="11.167 11.987 14.384 8.843 45.583 41.801 38.982 41.844 11.167 11.987"/>
        <path fill="#010101" d="M14.368,9.673l29.87,31.554-5,.033L11.981,12.006l2.387-2.333m.032-1.66-4.047,3.955L38.73,42.428l8.2-.054L14.4,8.013Z" id="path3400" style="font-variation-settings:normal;vector-effect:none;fill:#cb2026;fill-opacity:1;stroke-width:1;stroke-linecap:butt;stroke-linejoin:miter;stroke-miterlimit:4;stroke-dasharray:none;stroke-dashoffset:0;stroke-opacity:1;-inkscape-stroke:none;stop-color:#000000;stop-opacity:1"/>
      </g>
    </g>
    <path style="font-variation-settings:normal;vector-effect:none;fill:#cb2026;fill-opacity:1;stroke-width:1;stroke-linecap:butt;stroke-linejoin:miter;stroke-miterlimit:4;stroke-dasharray:none;stroke-dashoffset:0;stroke-opacity:1;-inkscape-stroke:none;stop-color:#000000" id="path24" d="m 49.455975,13.434457 c 0,4.951061 -1.864932,8.0504 -5.412605,8.0504 -3.407233,0 -5.222821,-3.225413 -5.251922,-7.902 0,-4.7803353 1.958559,-7.9886761 5.418931,-7.9886761 3.578038,0 5.245596,3.3199698 5.245596,7.8402761 z m -7.850681,0.144461 c -0.0063,3.748097 0.980545,5.686497 2.530437,5.686497 1.661232,0 2.507663,-2.081547 2.507663,-5.763981 0,-3.5813123 -0.809739,-5.6773054 -2.505132,-5.6773054 -1.487897,0 -2.536763,1.9121341 -2.532968,5.7547894 z"/>
  </g>
</svg>