<svg width="60" height="60" xmlns="http://www.w3.org/2000/svg" viewBox="0 0 60 60">
  <rect fill="#fff" height="60" width="60"/>
  <g>
    <path fill="#cb2026" stroke-width="0.124" d="M2.58,33.757H57.526V35.4l-55.241-.1Z" stroke-linejoin="round" stroke-linecap="round" stroke="#cb2026"/>
    <path fill="#cb2026" stroke-width="0.124" d="M56.244,32.606l1.747-.214L57.547,35.4h-3.1Z" stroke-linejoin="round" stroke-linecap="round" stroke="#cb2026"/>
    <path fill="#cb2026" stroke-width="0.124" d="M48.079,32.975l8.376-.372v1.3H48.044Z" stroke-linejoin="round" stroke-linecap="round" stroke="#cb2026"/>
    <path fill="#cb2026" stroke-width="0.124" d="M49.7,32.513h.616v.616H49.7Z" stroke-linejoin="round" stroke-linecap="round" stroke="#cb2026"/>
    <path fill="#cb2026" stroke-width="0.124" d="M48.985,32.619h1.437V33.1H48.985Z" stroke-linejoin="round" stroke-linecap="round" stroke="#cb2026"/>
    <path fill="#cb2026" stroke-width="0.124" d="M48.164,32.731H49.6v.476H48.164Z" stroke-linejoin="round" stroke-linecap="round" stroke="#cb2026"/>
    <path fill="#cb2026" stroke-width="0.124" d="M45.155,31.941h2.216v.774H45.155Z" stroke-linejoin="round" stroke-linecap="round" stroke="#cb2026"/>
    <path fill="#cb2026" stroke-width="0.124" d="M47.349,32.033l.4-.016.33.491-.727.571Z" stroke-linejoin="round" stroke-linecap="round" stroke="#cb2026"/>
    <path fill="#cb2026" stroke-width="0.124" d="M45.8,32.491h2.263v1.453H45.8Z" stroke-linejoin="round" stroke-linecap="round" stroke="#cb2026"/>
    <path fill="#cb2026" stroke-width="0.124" d="M47.654,32.232h2.254v.192H47.654Z" stroke-linejoin="round" stroke-linecap="round" stroke="#cb2026"/>
    <path fill="#cb2026" stroke-width="0.124" d="M45.276,32.684h.314v.561h-.314Z" stroke-linejoin="round" stroke-linecap="round" stroke="#cb2026"/>
    <path fill="#cb2026" stroke-width="0.124" d="M34.208,32.257H44.931V33.9H34.208Z" stroke-linejoin="round" stroke-linecap="round" stroke="#cb2026"/>
    <path fill="#cb2026" stroke-width="0.124" d="M44.808,33.065h1.14v.77h-1.14Z" stroke-linejoin="round" stroke-linecap="round" stroke="#cb2026"/>
    <path fill="#cb2026" stroke-width="0.124" d="M40.77,31.042h2.217v.773H40.77Z" stroke-linejoin="round" stroke-linecap="round" stroke="#cb2026"/>
    <path fill="#cb2026" stroke-width="0.124" d="M42.964,31.134l.4-.017.331.491-.728.572Z" stroke-linejoin="round" stroke-linecap="round" stroke="#cb2026"/>
    <path fill="#cb2026" stroke-width="0.124" d="M41.41,31.592h2.264v1.453H41.41Z" stroke-linejoin="round" stroke-linecap="round" stroke="#cb2026"/>
    <path fill="#cb2026" stroke-width="0.124" d="M43.269,31.333h2.254v.193H43.269Z" stroke-linejoin="round" stroke-linecap="round" stroke="#cb2026"/>
    <path fill="#cb2026" stroke-width="0.124" d="M41.4,30.473h.3v.3h-.3Z" stroke-linejoin="round" stroke-linecap="round" stroke="#cb2026"/>
    <path fill="#cb2026" stroke-width="0.124" d="M41.557,30.176h.122v.947h-.122Z" stroke-linejoin="round" stroke-linecap="round" stroke="#cb2026"/>
    <path fill="#cb2026" stroke-width="0.124" d="M41.869,30.478h.084l-.3.438h-.084Z" stroke-linejoin="round" stroke-linecap="round" stroke="#cb2026"/>
    <path fill="#cb2026" stroke-width="0.124" d="M37.057,29.6h2.458v2.874H37.057Z" stroke-linejoin="round" stroke-linecap="round" stroke="#cb2026"/>
    <path fill="#cb2026" stroke-width="0.124" d="M36.521,30.253h.77v.434h-.77Z" stroke-linejoin="round" stroke-linecap="round" stroke="#cb2026"/>
    <path fill="#cb2026" stroke-width="0.124" d="M37.25,27.9h.406v1.715H37.25Z" stroke-linejoin="round" stroke-linecap="round" stroke="#cb2026"/>
    <path fill="#cb2026" stroke-width="0.124" d="M36.757,28.1h.232v1.1h-.232Z" stroke-linejoin="round" stroke-linecap="round" stroke="#cb2026"/>
    <path fill="#cb2026" stroke-width="0.124" d="M36.9,28.736h1.67v.4H36.9Z" stroke-linejoin="round" stroke-linecap="round" stroke="#cb2026"/>
    <path fill="#cb2026" stroke-width="0.124" d="M36.96,29.1h1.507v.84H36.96Z" stroke-linejoin="round" stroke-linecap="round" stroke="#cb2026"/>
    <path fill="#cb2026" stroke-width="0.124" d="M37.65,28.171h.716v.82H37.65Z" stroke-linejoin="round" stroke-linecap="round" stroke="#cb2026"/>
    <path fill="#cb2026" stroke-width="0.124" d="M38.964,29.076h.715v.82h-.715Z" stroke-linejoin="round" stroke-linecap="round" stroke="#cb2026"/>
    <path fill="#cb2026" stroke-width="0.124" d="M39.837,31.967H40.1v.3h-.262Z" stroke-linejoin="round" stroke-linecap="round" stroke="#cb2026"/>
    <path fill="#cb2026" stroke-width="0.124" d="M43.849,31.909h.306v.579h-.306Z" stroke-linejoin="round" stroke-linecap="round" stroke="#cb2026"/>
    <path fill="#cb2026" stroke-width="0.124" d="M44.355,31.987h.3v.578h-.3Z" stroke-linejoin="round" stroke-linecap="round" stroke="#cb2026"/>
    <path fill="#cb2026" stroke-width="0.124" d="M35.408,30.888H35.7v.324h-.293Z" stroke-linejoin="round" stroke-linecap="round" stroke="#cb2026"/>
    <path fill="#cb2026" stroke-width="0.124" d="M35.483,31.131h.143V32.32h-.143Z" stroke-linejoin="round" stroke-linecap="round" stroke="#cb2026"/>
    <path fill="#cb2026" stroke-width="0.124" d="M34.85,31.316h.143v1.189H34.85Z" stroke-linejoin="round" stroke-linecap="round" stroke="#cb2026"/>
    <path fill="#cb2026" stroke-width="0.124" d="M34.626,31.705H35.3v.612h-.671Z" stroke-linejoin="round" stroke-linecap="round" stroke="#cb2026"/>
    <path fill="#cb2026" stroke-width="0.124" d="M34.914,20.776l.164.012,1.388,11.453-.315.012Z" stroke-linejoin="round" stroke-linecap="round" stroke="#cb2026"/>
    <path fill="#cb2026" stroke-width="0.124" d="M28.8,28.162h1.911l.63,4.257-2.087.114Z" stroke-linejoin="round" stroke-linecap="round" stroke="#cb2026"/>
    <path fill="#cb2026" stroke-width="0.124" d="M30.985,31.48v1.705h4.333Z" stroke-linejoin="round" stroke-linecap="round" stroke="#cb2026"/>
    <path fill="#cb2026" stroke-width="0.124" d="M25.373,32.552h8.963v1.374H25.373Z" stroke-linejoin="round" stroke-linecap="round" stroke="#cb2026"/>
    <path fill="#cb2026" stroke-width="0.124" d="M25.323,28.285l1.135.05.969,4.379-1.5-.013Z" stroke-linejoin="round" stroke-linecap="round" stroke="#cb2026"/>
    <path fill="#cb2026" stroke-width="0.124" d="M15.987,33.031h9.558v1.16H15.987Z" stroke-linejoin="round" stroke-linecap="round" stroke="#cb2026"/>
    <path fill="#cb2026" stroke-width="0.124" d="M15.987,32.208h3.784v1.145H15.987Z" stroke-linejoin="round" stroke-linecap="round" stroke="#cb2026"/>
    <path fill="#cb2026" stroke-width="0.124" d="M19.043,30.112h.872v.735h-.872Z" stroke-linejoin="round" stroke-linecap="round" stroke="#cb2026"/>
    <path fill="#cb2026" stroke-width="0.124" d="M17.936,30.649h.651v.686h-.651Z" stroke-linejoin="round" stroke-linecap="round" stroke="#cb2026"/>
    <path fill="#cb2026" stroke-width="0.124" d="M15.871,31.707h.652v.685h-.652Z" stroke-linejoin="round" stroke-linecap="round" stroke="#cb2026"/>
    <path fill="#cb2026" stroke-width="0.124" d="M17,31.74h2.753v.521H17Z" stroke-linejoin="round" stroke-linecap="round" stroke="#cb2026"/>
    <path fill="#cb2026" stroke-width="0.124" d="M18.052,31.237h1.719v.532H18.052Z" stroke-linejoin="round" stroke-linecap="round" stroke="#cb2026"/>
    <path fill="#cb2026" stroke-width="0.124" d="M19.244,30.7h.419v.615h-.419Z" stroke-linejoin="round" stroke-linecap="round" stroke="#cb2026"/>
    <path fill="#cb2026" stroke-width="0.124" d="M14.007,20.784l.2.016,1.641,13.121-.346.085Z" stroke-linejoin="round" stroke-linecap="round" stroke="#cb2026"/>
    <path fill="#cb2026" stroke-width="0.124" d="M21.39,32.05h2.059v1.319H21.39Z" stroke-linejoin="round" stroke-linecap="round" stroke="#cb2026"/>
    <path fill="#cb2026" stroke-width="0.124" d="M20.25,31.633h4.394v.579H20.25Z" stroke-linejoin="round" stroke-linecap="round" stroke="#cb2026"/>
    <path fill="#cb2026" stroke-width="0.124" d="M14.818,32.7h-.727v.241h.727Z" stroke-linejoin="round" stroke-linecap="round" stroke="#cb2026"/>
    <path fill="#cb2026" stroke-width="0.124" d="M15.209,32.893H12.993v.774h2.216Z" stroke-linejoin="round" stroke-linecap="round" stroke="#cb2026"/>
    <path fill="#cb2026" stroke-width="0.124" d="M13.015,32.986l-.4-.017-.331.491.727.572Z" stroke-linejoin="round" stroke-linecap="round" stroke="#cb2026"/>
    <path fill="#cb2026" stroke-width="0.124" d="M14.569,33.443H12.306V34.9h2.263Z" stroke-linejoin="round" stroke-linecap="round" stroke="#cb2026"/>
    <path fill="#cb2026" stroke-width="0.124" d="M12.71,33.184H10.457v.192H12.71Z" stroke-linejoin="round" stroke-linecap="round" stroke="#cb2026"/>
    <path fill="#cb2026" stroke-width="0.124" d="M14.719,32.423h-.488v.161h.488Z" stroke-linejoin="round" stroke-linecap="round" stroke="#cb2026"/>
    <path fill="#cb2026" stroke-width="0.124" d="M14.453,32.747v-.488h.162v.488Z" stroke-linejoin="round" stroke-linecap="round" stroke="#cb2026"/>
    <path fill="#cb2026" stroke-width="0.124" d="M17.05,31.041H17.5v.449H17.05Z" stroke-linejoin="round" stroke-linecap="round" stroke="#cb2026"/>
    <path fill="#cb2026" stroke-width="0.124" d="M17.122,31.4h.356v.357h-.356Z" stroke-linejoin="round" stroke-linecap="round" stroke="#cb2026"/>
  </g>
  <g>
    <path fill="#cb2026" d="M23.16,50.584l-.436,2.106H21.483l1.8-8.084h1.5l1.672,8.084H25.2l-.429-2.106Zm1.473-1L24.3,47.725c-.1-.529-.2-1.275-.291-1.84h-.035c-.089.57-.209,1.341-.306,1.844l-.354,1.851Z"/>
    <path fill="#cb2026" d="M26.3,54.075a1.2,1.2,0,0,0,.771-.377c.218-.271.274-.7.274-1.685V46.852h1.281v5.441c0,1.266-.231,1.86-.694,2.275a2.551,2.551,0,0,1-1.512.521Zm2.369-8.753a.689.689,0,1,1-.685-.744A.684.684,0,0,1,28.664,45.322Z"/>
    <path fill="#cb2026" d="M32.272,52.69,32.2,52.1h-.029a1.428,1.428,0,0,1-1.236.69,1.555,1.555,0,0,1-1.47-1.726c0-1.5,1.269-2.134,2.59-2.147v-.154c0-.608-.238-1.035-.872-1.035a1.974,1.974,0,0,0-1.089.323l-.246-.873a3.243,3.243,0,0,1,1.613-.418c1.5,0,1.888,1.029,1.888,2.271v2.334a8.994,8.994,0,0,0,.075,1.329Zm-.186-2.923c-.5.006-1.4.145-1.4,1.162,0,.658.351.9.632.9a.777.777,0,0,0,.739-.668,1.242,1.242,0,0,0,.03-.3Z"/>
    <path fill="#cb2026" d="M35.46,46.852l.436,1.135c.128.344.233.689.334,1h.025c.1-.326.215-.676.326-1l.426-1.135H38.3l-1.355,2.877,1.36,2.961h-1.39l-.471-1.2c-.116-.3-.216-.6-.327-.939h-.024c-.1.322-.211.633-.32.946l-.435,1.193H34.05l1.339-2.914-1.314-2.924Z"/>
  </g>
  <g>
    <path fill="#cb2026" d="M17.719,16.065a6.092,6.092,0,0,1-2.45.427,4.46,4.46,0,0,1-4.819-4.756A4.754,4.754,0,0,1,15.5,6.756a5.308,5.308,0,0,1,2.287.417l-.375,1.375a4.483,4.483,0,0,0-1.841-.37,3.142,3.142,0,0,0-3.309,3.472,3.086,3.086,0,0,0,3.287,3.4,5.029,5.029,0,0,0,1.881-.341Z"/>
    <path fill="#cb2026" d="M19.173,6.9H20.9V14.9h3.883v1.447H19.173Z"/>
    <path fill="#cb2026" d="M31.807,14.936a4.177,4.177,0,0,0,2.02.564c1.573,0,2.068-1,2.06-1.763-.015-1.279-1.169-1.82-2.355-1.822h-.688V10.99h.689c.9,0,2.029-.462,2.029-1.536,0-.732-.464-1.373-1.6-1.373a3.337,3.337,0,0,0-1.817.6l-.332-.89A4.308,4.308,0,0,1,34.2,7.085c1.8,0,2.617,1.062,2.617,2.175a2.275,2.275,0,0,1-1.68,2.145v.027a2.356,2.356,0,0,1,2.023,2.335c0,1.453-1.14,2.732-3.322,2.732a4.466,4.466,0,0,1-2.358-.623Z"/>
    <path fill="#cb2026" d="M38.051,16.905l3.9-10.155h.959L38.988,16.905Z"/>
    <path fill="#cb2026" d="M48.694,8.1a5.192,5.192,0,0,0-.931.066,3.661,3.661,0,0,0-3.156,3.236h.034a2.774,2.774,0,0,1,4.951,1.882A3.051,3.051,0,0,1,46.558,16.5c-1.941,0-3.214-1.516-3.214-3.876a5.7,5.7,0,0,1,1.541-4.107A4.94,4.94,0,0,1,47.8,7.167a5.139,5.139,0,0,1,.891-.069Zm-.352,5.261a1.851,1.851,0,0,0-1.872-2.087A2.03,2.03,0,0,0,44.7,12.394a1.165,1.165,0,0,0-.132.54c.019,1.5.709,2.618,2,2.618C47.626,15.552,48.342,14.666,48.342,13.364Z"/>
  </g>
</svg>