<!-- Generator: Adobe Illustrator 25.2.3, SVG Export Plug-In . SVG Version: 6.00 Build 0)  --><svg x="0px" enable-background="new 0 0 60 60" y="0px" width="60px" xmlns:xlink="http://www.w3.org/1999/xlink" viewBox="0 0 60 60" height="60px" id="Layer_1" xmlns="http://www.w3.org/2000/svg" xml:space="preserve" version="1.1">
<rect width="60" x="-0.012" fill="#EF3C23" height="60" id="UnitColor_1_"/>
<rect width="60" fill="#F7EC13" height="19.623" id="CS" y="11.533" display="none"/>
<g id="Gar" display="none">
	<rect width="14.843" fill="none" x="0.73" height="8.039" y="2.802" display="inline"/>
	<path d="M11.03,10.06c-0.472,0.163-1.361,0.379-2.249,0.379c-1.231,0-2.119-0.308-2.739-0.903   C5.424,8.949,5.085,8.072,5.089,7.083C5.097,4.842,6.73,3.567,8.936,3.567c0.87,0,1.539,0.165,1.873,0.323L10.49,5.111   C10.117,4.95,9.664,4.825,8.922,4.825c-1.27,0-2.235,0.714-2.235,2.18c0,1.391,0.878,2.205,2.125,2.205   c0.344,0,0.623-0.04,0.745-0.095V7.699H8.516V6.512h2.514V10.06z" display="inline"/>
</g>
<g id="Eng" display="none">
	<rect width="27.832" fill="none" x="1.1" height="8.039" y="2.802" display="inline"/>
	<path d="M17.011,7.521h-2.479v1.602h2.771v1.248h-4.294V3.634h4.15v1.248h-2.626v1.403h2.479V7.521z" display="inline"/>
</g>
<g id="P2" display="none">
	<path d="M19.024,28.186c0.472-1.148,0.803-2.149,0.992-3.001c0.282-1.24,0.423-2.417,0.423-3.534   c0-1.066-0.099-2.078-0.295-3.035c-0.197-0.957-0.575-2.146-1.135-3.568h1.146c0.628,1.03,1.101,2.092,1.419,3.186   c0.319,1.094,0.478,2.185,0.478,3.274c0,1.094-0.159,2.218-0.476,3.374s-0.786,2.257-1.407,3.305H19.024z" display="inline"/>
</g>
<g id="P1" display="none">
	<path d="M8.327,28.186H7.182c-0.605-1.025-1.071-2.111-1.396-3.257s-0.487-2.257-0.487-3.333   c0-1.162,0.163-2.296,0.489-3.401c0.326-1.105,0.795-2.154,1.408-3.148h1.146c-0.56,1.422-0.938,2.611-1.135,3.568   c-0.197,0.957-0.295,1.969-0.295,3.035c0,1.103,0.139,2.27,0.416,3.5C7.522,26.016,7.855,27.028,8.327,28.186z" display="inline"/>
</g>
<g id="Type">
	<path d="M53.265,12.893v17.022H26.785V12.893H53.265z M28.204,14.312v13.357l4.091-2.454c-0.431-0.213-0.834-0.488-1.18-0.844   c-0.792-0.819-1.217-1.895-1.198-3.033c0.038-2.312,1.878-4.152,4.19-4.189c0.003,0,0.005,0.002,0.007,0.002v-0.002h11.625   l4.729-2.837H28.204z M51.846,28.497V15.139l-4.093,2.456c1.43,0.708,2.412,2.181,2.385,3.878c-0.038,2.311-1.88,4.151-4.189,4.189   c-0.005,0-0.009,0-0.013,0v0.004H34.3l-4.717,2.831H51.846z M31.336,21.36c-0.012,0.758,0.271,1.477,0.8,2.022   c0.482,0.5,1.12,0.788,1.807,0.844l9.433-5.659H34.13C32.589,18.592,31.361,19.819,31.336,21.36z M48.718,21.449   c0.023-1.504-1.136-2.747-2.615-2.865l-9.438,5.664h9.242c0.006,0,0.012-0.004,0.017-0.004   C47.466,24.219,48.693,22.992,48.718,21.449z"/>
</g>
<g id="STK">
	<path d="M13.307,17.911h-0.036l-2.139,1.074l-0.386-1.671l2.857-1.406h1.847v11.703h-2.144V17.911z"/>
</g>
<g id="ECH">
	<rect width="27.832" x="26.078" fill="none" height="8.039" y="2.802"/>
	<path d="M37.905,3.634v6.736h-1.523V3.634H37.905z"/>
	<path d="M40.756,3.634v6.736h-1.523V3.634H40.756z"/>
	<path d="M43.605,3.634v6.736h-1.522V3.634H43.605z"/>
</g>
<g id="PF">
	<rect width="60" x="0" fill="none" height="15.475" y="44.525"/>
	<path d="M17.265,49.086c0.373-0.08,0.865-0.13,1.37-0.13c0.78,0,1.391,0.115,1.831,0.52c0.398,0.354,0.576,0.907,0.576,1.476   c0,0.73-0.22,1.246-0.57,1.621c-0.419,0.445-1.095,0.646-1.638,0.646c-0.089,0-0.175,0-0.264-0.005v2.509h-1.305V49.086z    M18.57,52.148c0.068,0.013,0.137,0.015,0.218,0.015c0.66,0,0.953-0.471,0.953-1.1c0-0.586-0.239-1.052-0.847-1.052   c-0.123,0-0.244,0.021-0.324,0.05V52.148z"/>
	<path d="M25.069,53.261c0,2.037-1.127,2.542-1.867,2.542c-1.168,0-1.87-0.923-1.87-2.511c0-1.753,0.922-2.541,1.893-2.541   C24.377,50.751,25.069,51.721,25.069,53.261z M22.633,53.269c0,0.835,0.134,1.539,0.601,1.539c0.423,0,0.534-0.822,0.534-1.539   c0-0.677-0.11-1.523-0.554-1.523C22.735,51.745,22.633,52.592,22.633,53.269z"/>
	<path d="M25.811,48.807h1.312v6.916h-1.312V48.807z"/>
	<path d="M29.373,49.538c0.008,0.419-0.291,0.709-0.687,0.709c-0.361,0-0.657-0.29-0.648-0.709c-0.008-0.44,0.303-0.717,0.667-0.717   C29.082,48.821,29.373,49.098,29.373,49.538z M28.061,55.723v-4.892h1.312v4.892H28.061z"/>
	<path d="M30.25,54.546c0.191,0.118,0.554,0.258,0.885,0.258c0.334,0,0.53-0.15,0.53-0.436c0-0.257-0.146-0.411-0.571-0.663   c-0.797-0.45-0.993-0.96-0.993-1.406c0-0.879,0.631-1.548,1.611-1.548c0.406,0,0.729,0.101,0.992,0.229l-0.229,0.956   c-0.188-0.108-0.417-0.198-0.683-0.198c-0.334,0-0.489,0.196-0.489,0.417c0,0.216,0.114,0.341,0.572,0.614   c0.72,0.409,0.986,0.919,0.986,1.472c0,1.004-0.717,1.542-1.73,1.542c-0.407,0-0.889-0.109-1.112-0.279L30.25,54.546z"/>
	<path d="M33.531,48.807h1.312v2.536h0.02c0.116-0.17,0.258-0.307,0.424-0.414c0.186-0.11,0.418-0.178,0.661-0.178   c0.896,0,1.248,0.767,1.248,2.008v2.964h-1.312v-2.972c0-0.473-0.089-0.897-0.483-0.897c-0.219,0-0.407,0.127-0.506,0.463   c-0.02,0.081-0.051,0.256-0.051,0.368v3.038h-1.312V48.807z"/>
	<path d="M41.999,55.723l-0.423-1.242c-0.132-0.392-0.246-0.763-0.362-1.193h-0.022c-0.109,0.429-0.218,0.832-0.318,1.219   l-0.356,1.217h-1.298l1.255-3.444l-1.207-3.292h1.364l0.393,1.244c0.106,0.354,0.205,0.7,0.309,1.086h0.02   c0.109-0.407,0.195-0.734,0.284-1.1l0.34-1.23h1.312l-1.263,3.347l1.333,3.39H41.999z"/>
</g>
<g id="Des">
	<rect width="60" x="0" fill="none" height="14.525" y="31.722"/>
	<path d="M12.355,35.361h-0.036l-1.967,1.065l-0.342-1.503l2.587-1.415h1.652v11.703h-1.894V35.361z"/>
	<path d="M20.31,33.257c0.62-0.145,1.4-0.234,2.262-0.234c1.274,0,2.305,0.234,3.022,0.915c0.658,0.612,0.974,1.556,0.974,2.595   c0,1.227-0.342,2.071-0.896,2.72c-0.715,0.849-1.89,1.251-2.911,1.251c-0.196,0-0.363,0-0.539-0.016v4.725H20.31V33.257z    M22.221,38.911c0.139,0.026,0.278,0.034,0.464,0.034c1.264,0,1.965-0.867,1.965-2.262c0-1.143-0.466-2.104-1.762-2.104   c-0.266,0-0.502,0.036-0.667,0.09V38.911z"/>
	<path d="M33.418,40.809c0,3.535-1.821,4.548-3.154,4.548c-1.859,0-3.127-1.556-3.127-4.507c0-3.166,1.555-4.547,3.192-4.547   C32.168,36.303,33.418,37.919,33.418,40.809z M29.054,40.819c0,1.476,0.25,3.053,1.272,3.053c0.956,0,1.175-1.73,1.175-3.053   c0-1.271-0.219-3.033-1.211-3.033C29.262,37.786,29.054,39.548,29.054,40.819z"/>
	<path d="M34.855,32.752h1.922v12.46h-1.922V32.752z"/>
	<path d="M44.387,45.019c-0.354,0.176-0.992,0.302-1.784,0.302c-2.77,0-4.35-2.261-4.35-6.009c0-4.67,2.463-6.344,4.622-6.344   c0.789,0,1.345,0.157,1.586,0.309l-0.354,1.627c-0.285-0.134-0.584-0.249-1.152-0.249c-1.322,0-2.672,1.209-2.672,4.523   c0,3.268,1.224,4.436,2.682,4.436c0.451,0,0.909-0.103,1.197-0.214L44.387,45.019z"/>
	<path d="M46.384,36.446l0.867,4.367c0.126,0.693,0.257,1.478,0.375,2.308h0.044c0.101-0.816,0.231-1.555,0.357-2.308l0.854-4.367   h1.898l-2.324,8.766H46.71l-2.351-8.766H46.384z"/>
</g>
<g>
</g>
<g>
</g>
<g>
</g>
<g>
</g>
<g>
</g>
<g>
</g>
</svg>