<!-- Generator: Adobe Illustrator 25.2.3, SVG Export Plug-In . SVG Version: 6.00 Build 0)  --><svg x="0px" enable-background="new 0 0 60 60" y="0px" width="60px" xmlns:xlink="http://www.w3.org/1999/xlink" viewBox="0 0 60 60" height="60px" id="Layer_1" xmlns="http://www.w3.org/2000/svg" xml:space="preserve" version="1.1">
<rect width="60" x="-0.012" fill="#EF3C23" height="60" id="UnitColor_1_"/>
<rect width="60" fill="#F7EC13" height="19.623" id="CS" y="11.533" display="none"/>
<g id="Gar" display="none">
	<rect width="14.843" fill="none" x="0.73" height="8.039" y="2.802" display="inline"/>
	<path d="M11.03,10.06c-0.472,0.163-1.361,0.379-2.249,0.379c-1.231,0-2.119-0.308-2.739-0.903   C5.424,8.949,5.085,8.072,5.089,7.083C5.097,4.842,6.73,3.567,8.936,3.567c0.87,0,1.539,0.165,1.873,0.323L10.49,5.111   C10.117,4.95,9.664,4.825,8.922,4.825c-1.27,0-2.235,0.714-2.235,2.18c0,1.391,0.878,2.205,2.125,2.205   c0.344,0,0.623-0.04,0.745-0.095V7.699H8.516V6.512h2.514V10.06z" display="inline"/>
</g>
<g id="Eng" display="none">
	<rect width="27.832" fill="none" x="1.1" height="8.039" y="2.802" display="inline"/>
	<path d="M17.011,7.521h-2.479v1.602h2.771v1.248h-4.294V3.634h4.15v1.248h-2.626v1.403h2.479V7.521z" display="inline"/>
</g>
<g id="P2" display="none">
	<path d="M19.024,28.186c0.472-1.148,0.803-2.149,0.992-3.001c0.282-1.24,0.423-2.417,0.423-3.534   c0-1.066-0.099-2.078-0.295-3.035c-0.197-0.957-0.575-2.146-1.135-3.568h1.146c0.628,1.03,1.101,2.092,1.419,3.186   c0.319,1.094,0.478,2.185,0.478,3.274c0,1.094-0.159,2.218-0.476,3.374s-0.786,2.257-1.407,3.305H19.024z" display="inline"/>
</g>
<g id="P1" display="none">
	<path d="M8.327,28.186H7.182c-0.605-1.025-1.071-2.111-1.396-3.257s-0.487-2.257-0.487-3.333   c0-1.162,0.163-2.296,0.489-3.401c0.326-1.105,0.795-2.154,1.408-3.148h1.146c-0.56,1.422-0.938,2.611-1.135,3.568   c-0.197,0.957-0.295,1.969-0.295,3.035c0,1.103,0.139,2.27,0.416,3.5C7.522,26.016,7.855,27.028,8.327,28.186z" display="inline"/>
</g>
<g id="Type">
	<path d="M53.265,12.893v17.022H26.785V12.893H53.265z M28.204,24.525v3.144l2.993-1.796c-0.072,0.005-0.14,0.022-0.212,0.022   C29.851,25.895,28.853,25.353,28.204,24.525z M34.63,18.994l-6.425-3.855v5.036c0.649-0.829,1.646-1.371,2.78-1.371   c0.001,0,0.001,0,0.002,0c1.958,0.001,3.544,1.588,3.544,3.545c0,0.18-0.028,0.353-0.053,0.527l0.784,0.56l3.159-1.896h-1.215   c-0.034,0-0.067-0.014-0.092-0.038c-0.023-0.025-0.038-0.058-0.038-0.092l0.001-0.856c0-0.029,0.015-0.052,0.03-0.074l-1.023-0.615   c-0.003,0.008-0.012,0.025-0.012,0.026c-0.001,0.002-0.017,0.033-0.017,0.034c-0.003,0.005-0.021,0.036-0.023,0.042   c-0.001,0.001-0.027,0.041-0.027,0.041c-0.001,0.001-0.021,0.028-0.021,0.03c-0.003,0.003-0.026,0.031-0.03,0.036l-0.032,0.035   c-0.002,0.002-0.026,0.025-0.028,0.027c-0.003,0.002-0.029,0.024-0.031,0.026c-0.002,0.001-0.029,0.023-0.03,0.024   c-0.003,0.002-0.032,0.022-0.034,0.024l-0.026,0.019c-0.002,0.001-0.033,0.02-0.034,0.02c-0.003,0.001-0.035,0.019-0.038,0.02   L35.638,20.3c-0.002,0.001-0.029,0.011-0.032,0.014c-0.001,0-0.031,0.011-0.031,0.011l-0.04,0.013c-0.001,0-0.035,0.01-0.036,0.01   l-0.033,0.008c-0.003,0.001-0.039,0.009-0.042,0.009c-0.004,0.001-0.043,0.007-0.047,0.007c-0.003,0-0.041,0.004-0.044,0.004   l-0.041,0.004c-0.002,0-0.037,0.001-0.038,0.001c-0.002,0-0.014,0-0.025,0c-0.008,0-0.015,0-0.016,0   c-0.002,0-0.031-0.001-0.033-0.001l-0.007-0.131l-0.025,0.128c-0.002,0-0.032-0.003-0.034-0.003c-0.005,0-0.036-0.004-0.04-0.005   l-0.034-0.006c-0.001,0-0.037-0.007-0.038-0.007l-0.034-0.008c-0.004-0.001-0.041-0.011-0.044-0.012s-0.039-0.013-0.042-0.014   l0.017-0.131l-0.05,0.119l-0.032-0.013c-0.005-0.002-0.04-0.018-0.044-0.02l-0.029-0.015c-0.002,0-0.033-0.018-0.035-0.019   s-0.028-0.017-0.029-0.018s-0.034-0.022-0.035-0.023c-0.004-0.003-0.035-0.027-0.039-0.029l-0.106-0.099   c-0.002-0.002-0.024-0.028-0.026-0.03c-0.002-0.003-0.024-0.03-0.027-0.034c0-0.002-0.029-0.042-0.03-0.044   c0-0.002-0.019-0.032-0.02-0.035c-0.002-0.003-0.025-0.047-0.026-0.05c0-0.001-0.02-0.044-0.02-0.045   c-0.001-0.003-0.012-0.031-0.012-0.033c0-0.001-0.011-0.034-0.011-0.034c-0.001-0.004-0.009-0.036-0.009-0.04   c0-0.003-0.007-0.037-0.007-0.041l0.124-0.041l-0.13-0.002c0-0.004-0.002-0.039-0.002-0.042c0-0.002,0-0.041,0-0.042   c0.001-0.004,0.003-0.035,0.003-0.038c0.001-0.003,0.005-0.031,0.005-0.034c0.001-0.003,0.01-0.051,0.011-0.055l0.13,0.008   l-0.12-0.048c0.001-0.002,0.011-0.029,0.012-0.032s0.011-0.027,0.012-0.031c0-0.002,0.013-0.027,0.014-0.03   s0.016-0.033,0.018-0.035c0-0.001,0.021-0.035,0.021-0.036c0.002-0.004,0.025-0.039,0.027-0.042   c0.002-0.002,0.022-0.029,0.024-0.032c0.002-0.002,0.022-0.027,0.024-0.029l0.112,0.068l-0.09-0.093   c0.005-0.004,0.04-0.039,0.045-0.042l0.062-0.052C34.613,19.004,34.621,18.999,34.63,18.994z M33.112,22.35   c0-1.174-0.952-2.127-2.128-2.127c-1.173,0.002-2.125,0.954-2.126,2.127c0,1.174,0.952,2.127,2.126,2.127   C32.16,24.477,33.112,23.524,33.112,22.35z M39.784,14.312H29.583l6.879,4.129l0.542-0.112c0.002,0,0.111-0.02,0.113-0.02   l0.109-0.018l0.112-0.017l0.112-0.017c0.002,0,0.116-0.016,0.118-0.016l0.353-0.043c0.002,0,0.122-0.012,0.124-0.012   c0.001-0.001,0.121-0.014,0.123-0.014c0.001,0,0.123-0.012,0.124-0.012l0.15,0.363l-0.034-0.374l1.008-0.059   c0,0,0.018-0.001,0.024-0.001v-0.156c-0.026-0.01-0.06-0.023-0.066-0.026l0.066-0.313v-0.035l-0.155,0.309   c-0.011-0.005-0.085-0.043-0.096-0.049c-0.003-0.002-0.096-0.057-0.1-0.059c-0.006-0.004-0.097-0.065-0.103-0.069   c-0.012-0.009-0.077-0.06-0.088-0.069c-0.001-0.001-0.071-0.061-0.073-0.062c-0.005-0.004-0.067-0.064-0.071-0.068   s-0.063-0.066-0.067-0.071c-0.002-0.003-0.063-0.076-0.066-0.08c-0.009-0.01-0.058-0.078-0.065-0.089   c-0.002-0.003-0.062-0.092-0.063-0.096c-0.006-0.009-0.062-0.107-0.067-0.117c-0.003-0.005-0.051-0.104-0.053-0.109   c-0.002-0.005-0.043-0.104-0.044-0.108c-0.004-0.011-0.029-0.086-0.032-0.097c-0.002-0.005-0.026-0.091-0.027-0.094   c-0.002-0.01-0.022-0.103-0.024-0.112c0-0.004-0.015-0.092-0.016-0.096c-0.001-0.007-0.012-0.099-0.012-0.107   c-0.001-0.01-0.006-0.123-0.006-0.133c0-0.01,0.003-0.122,0.004-0.132c0-0.005,0.01-0.112,0.011-0.118   c0.002-0.015,0.021-0.13,0.024-0.146l0.022-0.099c0.003-0.012,0.025-0.088,0.028-0.099c0.002-0.004,0.038-0.105,0.04-0.109   c0.004-0.009,0.034-0.08,0.038-0.088c0.001-0.001,0.046-0.096,0.047-0.098c0.005-0.008,0.054-0.095,0.059-0.103   c0.002-0.003,0.049-0.075,0.051-0.079c0.005-0.008,0.062-0.086,0.066-0.094c0.004-0.004,0.061-0.076,0.064-0.079   c0.007-0.009,0.06-0.066,0.067-0.074c0.005-0.005,0.083-0.082,0.088-0.086c0.008-0.007,0.094-0.08,0.103-0.087   c0.003-0.003,0.088-0.067,0.092-0.069c0.008-0.007,0.075-0.05,0.085-0.056c0.004-0.002,0.096-0.057,0.101-0.059   c0.008-0.004,0.076-0.04,0.084-0.043c0.004-0.002,0.103-0.044,0.106-0.046c0.011-0.003,0.117-0.042,0.128-0.045l0.098-0.029   c0.01-0.001,0.086-0.02,0.095-0.021C39.719,14.323,39.754,14.317,39.784,14.312z M29.583,28.497h10.474   c-0.009-0.006-0.02-0.004-0.026-0.011l-0.942-0.942c-0.013-0.003-0.035-0.006-0.035-0.006l-2.094-0.736l-0.122-0.072   c-0.002-0.001-0.117-0.072-0.119-0.074l-0.953-0.876l-0.894,0.568c-0.021,0.012-0.045,0.02-0.069,0.02   c-0.018,0-0.034-0.003-0.052-0.011c-0.039-0.017-0.068-0.053-0.075-0.096l-0.137-0.737L29.583,28.497z M34.001,24.191l0.262-0.158   l-0.044-0.243C34.156,23.93,34.081,24.062,34.001,24.191z M34.498,19.323 M37.114,26.022l-0.087,0.387l0.191-0.323l1.117,0.512   c0.003,0.001,0.114,0.036,0.117,0.036l0.328,0.076l0.66-0.66v-3.468l-2.921,1.752l0.559,0.399c0.035,0.024,0.055,0.065,0.054,0.108   c0,0.042-0.023,0.083-0.06,0.105l-0.738,0.469l0.094,0.087l-0.172,0.348l0.243-0.286L37.114,26.022z M37.086,18.813l0.048,0.029   l-0.067-0.147L37.086,18.813z M37.332,18.959l2.109,1.266v-1.387l-0.965,0.055l-0.154-0.363l0.034,0.374l-0.154-0.361l0.038,0.373   l-0.118,0.012l-0.156-0.36l0.044,0.374l-0.341,0.042l-0.163-0.355l0.055,0.371l-0.112,0.017l-0.166-0.354L37.332,18.959z    M39.398,17.061l-0.14,0.361l0.236-0.293c0,0,0.084,0.047,0.085,0.047l-0.014,0.065c0.002,0,0.003-0.002,0.005-0.002h0.085   l0.012-0.024l-0.003,0.024h0.808l-0.001-0.003c0.006-0.003,0.097-0.04,0.102-0.042c0.006-0.004,0.086-0.044,0.091-0.048   l0.267,0.276l-0.187-0.327l0.306,0.238l-0.218-0.307l0.31,0.224l-0.232-0.296l0.349,0.171l-0.279-0.25l0.361,0.142l-0.3-0.225   l0.372,0.108l-0.321-0.193l0.055-0.114c0.002-0.007,0.028-0.084,0.031-0.092c0.002-0.009,0.024-0.095,0.026-0.104l0.384-0.009   l-0.365-0.096c0-0.01,0.006-0.095,0.007-0.106l0.374-0.037l-0.374-0.01c-0.002-0.01-0.007-0.086-0.008-0.096   c-0.001-0.005-0.015-0.099-0.016-0.103l0.347-0.161l-0.372,0.062c-0.003-0.007-0.031-0.089-0.033-0.096   c-0.003-0.005-0.042-0.094-0.044-0.098c-0.003-0.003-0.05-0.084-0.052-0.088l0.249-0.298l-0.31,0.211   c-0.005-0.005-0.06-0.07-0.063-0.075c-0.004-0.003-0.072-0.071-0.075-0.074l0.188-0.332l-0.267,0.267   c-0.005-0.003-0.075-0.05-0.08-0.054c0,0-0.083-0.047-0.084-0.047l0.076-0.378l-0.163,0.339l0.037-0.386l-0.128,0.353v-0.388   l-0.105,0.36l-0.027-0.385l-0.077,0.368l-0.059-0.38l-0.05,0.374l-0.12-0.372L39.99,15.04l-0.133-0.361l0.027,0.375l-0.16-0.348   l0.067,0.37l-0.094,0.031l-0.231-0.311l0.119,0.36c-0.002,0.002-0.081,0.046-0.083,0.047c-0.001,0.001-0.095,0.064-0.096,0.065   l-0.31-0.23l0.223,0.303c-0.004,0.004-0.066,0.069-0.071,0.074l-0.351-0.166l0.29,0.238l-0.357-0.141l0.3,0.225l-0.37-0.107   l0.314,0.21c-0.001,0.001-0.037,0.085-0.038,0.086l-0.381-0.045l0.35,0.138c-0.002,0.01-0.025,0.107-0.028,0.118   c0,0.002-0.013,0.095-0.013,0.098l-0.004,0.115c0,0.003,0.007,0.104,0.007,0.106c0.002,0.009,0.015,0.092,0.017,0.101l-0.347,0.164   l0.369-0.072l-0.328,0.202l0.361-0.105l-0.31,0.231l0.349-0.139l-0.285,0.26l0.336-0.168l-0.263,0.282l0.32-0.197l-0.221,0.322   l0.289-0.24l-0.201,0.33l0.267-0.264l-0.172,0.346L39.398,17.061z M39.441,18.486l-0.007-0.021l0.007,0.235V18.486z M40.186,28.496   h10.282l-4.956-2.973l-0.136,0.738c-0.008,0.043-0.036,0.079-0.075,0.096c-0.017,0.008-0.034,0.011-0.052,0.011   c-0.023,0-0.048-0.006-0.069-0.02l-0.841-0.535l-0.122,0.161l-0.105,0.095c-0.002,0.002-0.07,0.06-0.071,0.062l-0.827,0.598   c-0.004,0.002-0.12,0.071-0.124,0.073c-0.002,0.001-0.117,0.064-0.118,0.065l-1.561,0.591c-0.001,0-0.133,0.028-0.136,0.029   L41.199,27.5l-0.986,0.985C40.206,28.493,40.194,28.492,40.186,28.496z M50.468,14.312H40.403c0.032,0.005,0.067,0.011,0.071,0.011   c0.01,0.003,0.087,0.021,0.097,0.023c0.005,0.002,0.104,0.03,0.108,0.031c0.012,0.005,0.124,0.046,0.136,0.051   c0.002,0.001,0.098,0.042,0.1,0.043c0.008,0.005,0.077,0.04,0.085,0.044s0.104,0.062,0.11,0.066   c0.005,0.003,0.096,0.065,0.102,0.069c0.006,0.005,0.076,0.06,0.082,0.064c0.002,0.002,0.071,0.062,0.073,0.063   c0.009,0.008,0.065,0.062,0.073,0.071c0.003,0.003,0.066,0.073,0.069,0.077c0.007,0.007,0.063,0.077,0.07,0.085   c0.002,0.003,0.064,0.088,0.065,0.091c0.007,0.009,0.05,0.077,0.056,0.086c0.004,0.006,0.051,0.087,0.054,0.093   c0.002,0.005,0.042,0.083,0.043,0.088c0.005,0.008,0.05,0.111,0.053,0.121c0.005,0.01,0.041,0.118,0.044,0.129   c0,0.001,0.028,0.101,0.029,0.102c0.002,0.011,0.019,0.088,0.021,0.099c0.001,0.01,0.015,0.087,0.016,0.096l-0.367,0.099   l0.377,0.001c0.001,0.01,0.006,0.09,0.006,0.1l0.001,0.068c0,0.011-0.003,0.088-0.003,0.099c-0.001,0.009-0.01,0.088-0.011,0.097   c0,0.001-0.015,0.103-0.015,0.103c-0.001,0.011-0.018,0.087-0.02,0.097l-0.023,0.099c-0.003,0.01-0.026,0.083-0.029,0.093   c-0.004,0.01-0.03,0.084-0.035,0.095L41.8,16.96c-0.004,0.01-0.039,0.08-0.045,0.09c-0.003,0.006-0.049,0.086-0.052,0.092   c-0.004,0.006-0.055,0.083-0.059,0.089c-0.002,0.004-0.055,0.075-0.057,0.079c-0.004,0.005-0.063,0.079-0.068,0.083   c-0.005,0.005-0.065,0.074-0.07,0.078c-0.006,0.006-0.071,0.071-0.076,0.076c-0.008,0.007-0.066,0.059-0.074,0.065   c-0.004,0.003-0.087,0.069-0.09,0.071c-0.01,0.007-0.074,0.052-0.084,0.058c-0.006,0.004-0.099,0.061-0.104,0.064   c-0.006,0.003-0.103,0.054-0.108,0.057c-0.009,0.005-0.078,0.037-0.087,0.04c-0.002,0-0.024,0.009-0.046,0.018v0.174l0.309,0.012   c0.002,0,0.127,0.007,0.129,0.007l0.624,0.045c0.002,0,0.123,0.012,0.125,0.012l0.119,0.013c0.002,0,0.122,0.012,0.124,0.012   l0.352,0.043c0.002,0,0.117,0.016,0.119,0.016l0.057,0.388l-0.05,0.336l0.088-0.053l-0.037-0.285l0.051-0.371   c0.004,0,0.117,0.018,0.12,0.018l0.653,0.121c0,0,0.027,0.006,0.055,0.012L50.468,14.312z M42.678,18.985l-0.052-0.359   l-0.051,0.372l-0.453-0.058l-0.074-0.384l-0.039,0.373l-0.119-0.012l-0.081-0.384l-0.03,0.374c-0.001,0-0.122-0.01-0.124-0.01   l-0.479-0.034l-0.102-0.381l-0.018,0.375l-0.276-0.011v1.28L42.678,18.985z M43.53,24.336l-2.75-1.649v3.343l0.649,0.648   l0.16-0.044l0.237,0.32l-0.118-0.355l0.684-0.276c0.002-0.001,0.111-0.057,0.114-0.058l0.103-0.055l0.295,0.265l-0.188-0.323   l0.302,0.256l-0.195-0.321l0.108-0.066l0.308,0.247l-0.208-0.312l0.487-0.366l0.344,0.199l-0.248-0.281l0.094-0.096l-0.73-0.464   c-0.036-0.022-0.058-0.062-0.06-0.105c-0.001-0.043,0.02-0.084,0.055-0.108L43.53,24.336z M51.846,20.175v-5.036l-6.384,3.832   c0.008,0.004,0.016,0.008,0.02,0.01l0.029,0.017c0.003,0.002,0.032,0.022,0.035,0.024l0.027,0.019   c0.003,0.002,0.026,0.02,0.028,0.022c0.004,0.003,0.038,0.031,0.041,0.034l0.023,0.021c0.006,0.005,0.022,0.024,0.027,0.029   c0.005,0.005,0.029,0.033,0.032,0.038c0.003,0.002,0.023,0.028,0.026,0.031c0.001,0.001,0.021,0.029,0.022,0.031   c0,0.001,0.019,0.029,0.02,0.031c0.004,0.006,0.014,0.026,0.017,0.032c0.006,0.009,0.013,0.022,0.016,0.031   c0.004,0.007,0.017,0.033,0.02,0.041c0.003,0.008,0.016,0.044,0.018,0.05c0.001,0.003,0.012,0.036,0.013,0.04   c0,0.001,0.01,0.038,0.01,0.038c0.001,0.007,0.008,0.052,0.008,0.061c0,0.005,0.005,0.041,0.005,0.044   c0,0.005-0.001,0.025-0.001,0.043l0.001,0.015c-0.001,0.005-0.004,0.035-0.005,0.04c0,0.001-0.003,0.036-0.003,0.036   c-0.002,0.006-0.011,0.05-0.014,0.057c-0.001,0.005-0.007,0.028-0.009,0.032s-0.011,0.039-0.013,0.042   c-0.002,0.007-0.017,0.041-0.021,0.046c-0.003,0.008-0.011,0.025-0.017,0.033c-0.001,0.002-0.02,0.038-0.021,0.04   c-0.004,0.007-0.021,0.035-0.026,0.041l-0.118-0.056l0.097,0.082c-0.004,0.004-0.02,0.024-0.023,0.028   c-0.005,0.007-0.024,0.03-0.03,0.036c-0.004,0.004-0.03,0.029-0.034,0.032l-0.103-0.078l0.079,0.102   c-0.004,0.003-0.025,0.021-0.03,0.024l-0.025,0.02c-0.003,0.002-0.031,0.021-0.034,0.023l-0.027,0.018   c-0.006,0.003-0.041,0.022-0.046,0.024c-0.006,0.003-0.024,0.014-0.029,0.016l-0.031,0.014l-0.031,0.013   c-0.007,0.003-0.044,0.018-0.051,0.019c-0.003,0.001-0.047,0.014-0.05,0.015l-0.068,0.017c-0.004,0.001-0.04,0.007-0.044,0.008   l-0.035,0.006c-0.008,0.001-0.049,0.005-0.057,0.005l-0.054,0.003c-0.003,0-0.043,0-0.046,0c-0.001,0-0.036,0-0.037,0l-0.016-0.13   l-0.019,0.128c-0.001,0-0.03-0.003-0.032-0.003c-0.006-0.001-0.036-0.006-0.043-0.007l-0.087-0.016   c-0.003-0.001-0.042-0.01-0.045-0.011l-0.065-0.021c-0.001,0-0.032-0.013-0.032-0.013c-0.006-0.002-0.027-0.011-0.032-0.014   l-0.032-0.014c-0.003-0.001-0.036-0.019-0.039-0.02l-0.03-0.017c-0.003-0.002-0.033-0.021-0.036-0.023l-0.027-0.019   c-0.006-0.004-0.025-0.02-0.031-0.024s-0.021-0.015-0.026-0.02c-0.003-0.001-0.021-0.019-0.024-0.021l-0.047-0.044   c-0.002-0.002-0.026-0.027-0.027-0.029c-0.004-0.005-0.027-0.034-0.029-0.039c-0.002-0.002-0.031-0.042-0.032-0.043l-0.025-0.04   c-0.003-0.006-0.014-0.025-0.017-0.032c0-0.001-0.019-0.04-0.02-0.041c0-0.001-0.016-0.037-0.017-0.037   c-0.001-0.003-0.012-0.036-0.013-0.039s-0.008-0.027-0.009-0.031L43,20.447c0.043,0.021,0.078,0.057,0.078,0.108v0.856   c0,0.071-0.059,0.129-0.13,0.129H41.63l3.159,1.895l0.784-0.561c-0.025-0.173-0.053-0.345-0.053-0.525   c0-1.958,1.588-3.545,3.545-3.545C50.199,18.804,51.197,19.346,51.846,20.175z M45.786,24.033l0.263,0.158   c-0.079-0.129-0.155-0.262-0.218-0.402L45.786,24.033z M49.064,24.477c1.175,0,2.127-0.953,2.127-2.127s-0.952-2.127-2.127-2.127   c-1.173,0.002-2.124,0.954-2.126,2.127C46.938,23.524,47.891,24.477,49.064,24.477z M48.854,25.873l2.991,1.796v-3.144   c-0.648,0.828-1.646,1.37-2.78,1.37C48.993,25.895,48.925,25.878,48.854,25.873z"/>
</g>
<g id="STK">
	<path d="M18.101,21.68c0,3.77-1.473,6.13-4.277,6.13c-2.693,0-4.128-2.456-4.151-6.017c0-3.641,1.549-6.083,4.283-6.083   C16.786,15.71,18.101,18.237,18.101,21.68z M11.897,21.789c-0.006,2.854,0.775,4.33,1.998,4.33c1.313,0,1.982-1.585,1.982-4.389   c0-2.727-0.641-4.323-1.98-4.323C12.723,17.407,11.894,18.863,11.897,21.789z"/>
</g>
<g id="ECH">
	<rect width="27.832" x="26.078" fill="none" height="8.039" y="2.802"/>
	<path d="M40.755,3.634v6.736h-1.523V3.634H40.755z"/>
</g>
<g id="PF">
	<rect width="60" x="0" fill="none" height="15.475" y="44.525"/>
	<path d="M29.696,52.494v0.939H27.71v-0.939H29.696z"/>
	<path d="M32.285,52.494v0.939H30.3v-0.939H32.285z"/>
</g>
<g id="Des">
	<rect width="60" x="0" fill="none" height="14.525" y="31.722"/>
	<path d="M10.196,35.361H10.16l-1.967,1.065l-0.342-1.503l2.587-1.415h1.652v11.703h-1.894V35.361z"/>
	<path d="M15.306,33.076h4.982v1.668h-3.06v3.63h2.867v1.606h-2.867v5.231h-1.922V33.076z"/>
	<path d="M29.127,40.525c-0.07-1.359-0.149-3.013-0.116-4.353h-0.06c-0.237,1.325-0.561,2.799-0.855,3.956l-1.252,4.939h-1.318   l-1.193-4.8c-0.31-1.235-0.646-2.74-0.855-4.096h-0.051c-0.015,1.371-0.098,2.978-0.167,4.415l-0.214,4.624H21.37l0.804-12.136   h2.048l1.17,4.913c0.368,1.567,0.674,2.84,0.911,4.216h0.044c0.208-1.363,0.479-2.636,0.829-4.216l1.146-4.913h2.069l0.717,12.136   h-1.745L29.127,40.525z"/>
	<path d="M35.03,34.099v2.348h1.7v1.394h-1.7v4.546c0,1.073,0.417,1.346,0.898,1.346c0.227,0,0.406-0.018,0.594-0.054l0.039,1.496   c-0.291,0.09-0.712,0.146-1.256,0.146c-0.622,0-1.17-0.154-1.553-0.546c-0.423-0.432-0.645-1.066-0.645-2.369V37.84H32.06v-1.394   h1.049v-1.857L35.03,34.099z"/>
	<path d="M45.435,40.525c-0.069-1.359-0.149-3.013-0.115-4.353h-0.06c-0.236,1.325-0.561,2.799-0.854,3.956l-1.253,4.939h-1.318   l-1.192-4.8c-0.31-1.235-0.646-2.74-0.855-4.096h-0.052c-0.015,1.371-0.097,2.978-0.167,4.415l-0.213,4.624h-1.676l0.804-12.136   h2.048l1.17,4.913c0.368,1.567,0.675,2.84,0.911,4.216h0.044c0.209-1.363,0.479-2.636,0.829-4.216l1.146-4.913h2.068l0.718,12.136   h-1.745L45.435,40.525z"/>
	<path d="M49.07,38.916c0-0.812-0.044-1.725-0.072-2.47h1.681l0.098,1.322h0.057c0.339-0.889,1.064-1.466,1.78-1.466   c0.187,0,0.292,0.01,0.408,0.03v1.922c-0.118-0.021-0.244-0.021-0.411-0.021c-0.665,0-1.334,0.556-1.539,1.505   c-0.049,0.211-0.08,0.507-0.08,0.841v4.632H49.07V38.916z"/>
</g>
<g>
</g>
<g>
</g>
<g>
</g>
<g>
</g>
<g>
</g>
<g>
</g>
</svg>