<!-- Generator: Adobe Illustrator 25.2.3, SVG Export Plug-In . SVG Version: 6.00 Build 0)  --><svg x="0px" enable-background="new 0 0 60 60" y="0px" width="60px" xmlns:xlink="http://www.w3.org/1999/xlink" viewBox="0 0 60 60" height="60px" id="Layer_1" xmlns="http://www.w3.org/2000/svg" xml:space="preserve" version="1.1">
<rect width="60" x="-0.012" fill="#EF3C23" height="60" id="UnitColor_1_"/>
<rect width="60" fill="#F7EC13" height="19.623" id="CS" y="11.533" display="none"/>
<g id="Gar" display="none">
	<rect width="14.843" fill="none" x="0.73" height="8.039" y="2.802" display="inline"/>
	<path d="M11.03,10.06c-0.472,0.163-1.361,0.379-2.249,0.379c-1.231,0-2.119-0.308-2.739-0.903   C5.424,8.949,5.085,8.072,5.089,7.083C5.097,4.842,6.73,3.567,8.936,3.567c0.87,0,1.539,0.165,1.873,0.323L10.49,5.111   C10.117,4.95,9.664,4.825,8.922,4.825c-1.27,0-2.235,0.714-2.235,2.18c0,1.391,0.878,2.205,2.125,2.205   c0.344,0,0.623-0.04,0.745-0.095V7.699H8.516V6.512h2.514V10.06z" display="inline"/>
</g>
<g id="Eng" display="none">
	<rect width="27.832" fill="none" x="1.1" height="8.039" y="2.802" display="inline"/>
	<path d="M17.011,7.521h-2.479v1.602h2.771v1.248h-4.294V3.634h4.15v1.248h-2.626v1.403h2.479V7.521z" display="inline"/>
</g>
<g id="P2" display="none">
	<path d="M19.024,28.186c0.472-1.148,0.803-2.149,0.992-3.001c0.282-1.24,0.423-2.417,0.423-3.534   c0-1.066-0.099-2.078-0.295-3.035c-0.197-0.957-0.575-2.146-1.135-3.568h1.146c0.628,1.03,1.101,2.092,1.419,3.186   c0.319,1.094,0.478,2.185,0.478,3.274c0,1.094-0.159,2.218-0.476,3.374s-0.786,2.257-1.407,3.305H19.024z" display="inline"/>
</g>
<g id="P1" display="none">
	<path d="M8.327,28.186H7.182c-0.605-1.025-1.071-2.111-1.396-3.257s-0.487-2.257-0.487-3.333   c0-1.162,0.163-2.296,0.489-3.401c0.326-1.105,0.795-2.154,1.408-3.148h1.146c-0.56,1.422-0.938,2.611-1.135,3.568   c-0.197,0.957-0.295,1.969-0.295,3.035c0,1.103,0.139,2.27,0.416,3.5C7.522,26.016,7.855,27.028,8.327,28.186z" display="inline"/>
</g>
<g id="Type">
	<path d="M53.265,12.893v17.022H26.785V12.893H53.265z M37.969,21.737v-0.739l-9.765-5.859v12.53l9.887-5.932H37.969z    M50.468,14.312H29.583l9.574,5.744v-1.456h-1.186l2.054-3.272l2.054,3.272h-1.185v1.456L50.468,14.312z M37.97,24.541v-1.076   l-8.387,5.032h20.885l-8.387-5.032v1.076h-1.188v2.938h-1.737v-2.938H37.97z M39.156,22.752l-1.01,0.606h1.01V22.752z    M40.894,23.359h1.011l-1.011-0.606V23.359z M51.846,27.669v-12.53l-9.766,5.859v0.739h-0.121L51.846,27.669z"/>
</g>
<g id="STK">
	<path d="M18.101,21.68c0,3.77-1.473,6.13-4.277,6.13c-2.693,0-4.128-2.456-4.151-6.017c0-3.641,1.549-6.083,4.283-6.083   C16.786,15.71,18.101,18.237,18.101,21.68z M11.897,21.789c-0.006,2.854,0.775,4.33,1.998,4.33c1.313,0,1.982-1.585,1.982-4.389   c0-2.727-0.641-4.323-1.98-4.323C12.723,17.407,11.894,18.863,11.897,21.789z"/>
</g>
<g id="ECH">
	<rect width="27.832" x="26.078" fill="none" height="8.039" y="2.802"/>
	<path d="M40.755,3.634v6.736h-1.523V3.634H40.755z"/>
</g>
<g id="PF">
	<rect width="60" x="0" fill="none" height="15.475" y="44.525"/>
	<path d="M17.265,49.086c0.373-0.08,0.865-0.13,1.37-0.13c0.78,0,1.391,0.115,1.831,0.52c0.398,0.354,0.576,0.907,0.576,1.476   c0,0.73-0.22,1.246-0.57,1.621c-0.419,0.445-1.095,0.646-1.638,0.646c-0.089,0-0.175,0-0.264-0.005v2.509h-1.305V49.086z    M18.57,52.148c0.068,0.013,0.137,0.015,0.218,0.015c0.66,0,0.953-0.471,0.953-1.1c0-0.586-0.239-1.052-0.847-1.052   c-0.123,0-0.244,0.021-0.324,0.05V52.148z"/>
	<path d="M25.069,53.261c0,2.037-1.127,2.542-1.867,2.542c-1.168,0-1.87-0.923-1.87-2.511c0-1.753,0.922-2.541,1.893-2.541   C24.377,50.751,25.069,51.721,25.069,53.261z M22.633,53.269c0,0.835,0.134,1.539,0.601,1.539c0.423,0,0.534-0.822,0.534-1.539   c0-0.677-0.11-1.523-0.554-1.523C22.735,51.745,22.633,52.592,22.633,53.269z"/>
	<path d="M25.811,48.807h1.312v6.916h-1.312V48.807z"/>
	<path d="M29.373,49.538c0.008,0.419-0.291,0.709-0.687,0.709c-0.361,0-0.657-0.29-0.648-0.709c-0.008-0.44,0.303-0.717,0.667-0.717   C29.082,48.821,29.373,49.098,29.373,49.538z M28.061,55.723v-4.892h1.312v4.892H28.061z"/>
	<path d="M30.25,54.546c0.191,0.118,0.554,0.258,0.885,0.258c0.334,0,0.53-0.15,0.53-0.436c0-0.257-0.146-0.411-0.571-0.663   c-0.797-0.45-0.993-0.96-0.993-1.406c0-0.879,0.631-1.548,1.611-1.548c0.406,0,0.729,0.101,0.992,0.229l-0.229,0.956   c-0.188-0.108-0.417-0.198-0.683-0.198c-0.334,0-0.489,0.196-0.489,0.417c0,0.216,0.114,0.341,0.572,0.614   c0.72,0.409,0.986,0.919,0.986,1.472c0,1.004-0.717,1.542-1.73,1.542c-0.407,0-0.889-0.109-1.112-0.279L30.25,54.546z"/>
	<path d="M33.531,48.807h1.312v2.536h0.02c0.116-0.17,0.258-0.307,0.424-0.414c0.186-0.11,0.418-0.178,0.661-0.178   c0.896,0,1.248,0.767,1.248,2.008v2.964h-1.312v-2.972c0-0.473-0.089-0.897-0.483-0.897c-0.219,0-0.407,0.127-0.506,0.463   c-0.02,0.081-0.051,0.256-0.051,0.368v3.038h-1.312V48.807z"/>
	<path d="M41.999,55.723l-0.423-1.242c-0.132-0.392-0.246-0.763-0.362-1.193h-0.022c-0.109,0.429-0.218,0.832-0.318,1.219   l-0.356,1.217h-1.298l1.255-3.444l-1.207-3.292h1.364l0.393,1.244c0.106,0.354,0.205,0.7,0.309,1.086h0.02   c0.109-0.407,0.195-0.734,0.284-1.1l0.34-1.23h1.312l-1.263,3.347l1.333,3.39H41.999z"/>
</g>
<g id="Des">
	<rect width="60" x="0" fill="none" height="14.525" y="31.722"/>
	<path d="M7.737,33.076h1.912v5.602h0.046c0.232-0.515,0.44-1.023,0.662-1.527l1.907-4.074h2.122l-2.836,5.236l2.893,6.899h-2.096   l-2.087-5.393l-0.61,1.065v4.327H7.737V33.076z"/>
	<path d="M21.207,40.809c0,3.535-1.822,4.548-3.154,4.548c-1.859,0-3.127-1.556-3.127-4.507c0-3.166,1.555-4.547,3.192-4.547   C19.956,36.303,21.207,37.919,21.207,40.809z M16.842,40.819c0,1.476,0.25,3.053,1.272,3.053c0.957,0,1.175-1.73,1.175-3.053   c0-1.271-0.219-3.033-1.211-3.033C17.05,37.786,16.842,39.548,16.842,40.819z"/>
	<path d="M22.637,39.203c0-1.185-0.044-2.022-0.072-2.757h1.681l0.098,1.061h0.036c0.417-0.816,1.089-1.204,1.847-1.204   c1.742,0,2.63,1.88,2.63,4.511c0,3.183-1.355,4.543-2.788,4.543c-0.759,0-1.24-0.477-1.484-0.925h-0.036v4.237h-1.912V39.203z    M24.548,42.005c0,0.274,0.031,0.539,0.098,0.732c0.222,0.854,0.673,1.033,0.99,1.033c0.972,0,1.304-1.381,1.304-2.931   c0-1.737-0.419-2.91-1.298-2.91c-0.485,0-0.921,0.539-1.013,1.125c-0.059,0.193-0.08,0.419-0.08,0.644V42.005z"/>
	<path d="M30.294,38.916c0-0.99-0.044-1.693-0.072-2.47h1.666l0.098,1.031h0.036c0.416-0.702,1.154-1.175,2.072-1.175   c1.461,0,2.239,1.135,2.239,3.167v5.742h-1.922v-5.559c0-0.876-0.186-1.731-1.022-1.731c-0.478,0-0.905,0.366-1.075,1.072   c-0.057,0.193-0.098,0.477-0.098,0.798v5.42h-1.921V38.916z"/>
	<path d="M37.958,43.396c0.329,0.208,0.931,0.461,1.512,0.461c0.686,0,1.105-0.366,1.105-1.003c0-0.549-0.255-0.91-1.068-1.423   c-1.303-0.776-1.776-1.619-1.776-2.51c0-1.51,1.1-2.619,2.68-2.619c0.71,0,1.26,0.2,1.682,0.427l-0.394,1.419   c-0.334-0.211-0.728-0.373-1.198-0.373c-0.664,0-0.991,0.44-0.991,0.912c0,0.478,0.213,0.75,1.055,1.286   c1.166,0.696,1.787,1.56,1.787,2.654c0,1.782-1.247,2.692-2.896,2.692c-0.688,0-1.485-0.198-1.876-0.505L37.958,43.396z"/>
	<path d="M45.554,40.391h0.036c0.162-0.437,0.304-0.784,0.455-1.115l1.402-2.829h2.076l-2.211,3.678l2.368,5.088h-2.143   l-1.539-3.838l-0.445,0.785v3.053h-1.911v-12.46h1.911V40.391z"/>
	<path d="M52.503,34.149c0.011,0.66-0.434,1.107-1.062,1.107c-0.56,0-1.009-0.447-0.999-1.107c-0.01-0.683,0.46-1.117,1.027-1.117   C52.069,33.032,52.503,33.467,52.503,34.149z M50.526,45.212v-8.766h1.922v8.766H50.526z"/>
</g>
<g>
</g>
<g>
</g>
<g>
</g>
<g>
</g>
<g>
</g>
<g>
</g>
</svg>