<!-- Generator: Adobe Illustrator 25.2.3, SVG Export Plug-In . SVG Version: 6.00 Build 0)  --><svg x="0px" enable-background="new 0 0 60 60" y="0px" width="60px" xmlns:xlink="http://www.w3.org/1999/xlink" viewBox="0 0 60 60" height="60px" id="Layer_1" xmlns="http://www.w3.org/2000/svg" xml:space="preserve" version="1.1">
<rect width="60" x="-0.012" fill="#EF3C23" height="60" id="UnitColor_1_"/>
<rect width="60" fill="#F7EC13" height="19.623" id="CS" y="11.533"/>
<g id="Gar" display="none">
	<rect width="14.843" fill="none" x="0.73" height="8.039" y="2.802" display="inline"/>
	<path d="M11.03,10.06c-0.472,0.163-1.361,0.379-2.249,0.379c-1.231,0-2.119-0.308-2.739-0.903   C5.424,8.949,5.085,8.072,5.089,7.083C5.097,4.842,6.73,3.567,8.936,3.567c0.87,0,1.539,0.165,1.873,0.323L10.49,5.111   C10.117,4.95,9.664,4.825,8.922,4.825c-1.27,0-2.235,0.714-2.235,2.18c0,1.391,0.878,2.205,2.125,2.205   c0.344,0,0.623-0.04,0.745-0.095V7.699H8.516V6.512h2.514V10.06z" display="inline"/>
</g>
<g id="Eng" display="none">
	<rect width="27.832" fill="none" x="1.1" height="8.039" y="2.802" display="inline"/>
	<path d="M17.011,7.521h-2.479v1.602h2.771v1.248h-4.294V3.634h4.15v1.248h-2.626v1.403h2.479V7.521z" display="inline"/>
</g>
<g id="P2">
	<path d="M19.024,28.186c0.472-1.148,0.803-2.149,0.992-3.001c0.282-1.24,0.423-2.417,0.423-3.534c0-1.066-0.099-2.078-0.295-3.035   c-0.197-0.957-0.575-2.146-1.135-3.568h1.146c0.628,1.03,1.101,2.092,1.419,3.186c0.319,1.094,0.478,2.185,0.478,3.274   c0,1.094-0.159,2.218-0.476,3.374s-0.786,2.257-1.407,3.305H19.024z"/>
</g>
<g id="P1">
	<path d="M8.327,28.186H7.182c-0.605-1.025-1.071-2.111-1.396-3.257s-0.487-2.257-0.487-3.333c0-1.162,0.163-2.296,0.489-3.401   c0.326-1.105,0.795-2.154,1.408-3.148h1.146c-0.56,1.422-0.938,2.611-1.135,3.568c-0.197,0.957-0.295,1.969-0.295,3.035   c0,1.103,0.139,2.27,0.416,3.5C7.522,26.016,7.855,27.028,8.327,28.186z"/>
</g>
<g id="Type">
	<path d="M53.265,12.893v17.022H26.785V12.893H53.265z M28.204,15.139v12.53l10.443-6.265L28.204,15.139z M50.468,14.312H29.583   l10.443,6.265L50.468,14.312z M29.583,28.497h20.885l-10.442-6.265L29.583,28.497z M41.404,21.404l10.441,6.265v-12.53   L41.404,21.404z"/>
</g>
<g id="STK">
	<path d="M10.279,25.323c0.464,0.267,1.555,0.718,2.667,0.718c1.69,0,2.373-0.953,2.367-1.875c-0.012-1.379-1.31-1.979-2.66-1.982   h-1.012v-1.615h0.987c1.022-0.003,2.314-0.465,2.314-1.628c0-0.808-0.581-1.468-1.872-1.468c-0.948,0-1.908,0.412-2.395,0.732   l-0.501-1.6c0.666-0.455,1.969-0.896,3.369-0.896c2.419,0,3.65,1.336,3.65,2.864c0,1.221-0.721,2.223-2.148,2.733v0.036   c1.419,0.263,2.565,1.336,2.565,2.918c0,1.978-1.662,3.548-4.555,3.548c-1.427,0-2.645-0.398-3.273-0.811L10.279,25.323z"/>
</g>
<g id="ECH">
	<rect width="27.832" x="26.078" fill="none" height="8.039" y="2.802"/>
	<path d="M41.133,10.37l-0.607-1.219c-0.244-0.472-0.412-0.823-0.598-1.213h-0.021c-0.141,0.391-0.306,0.744-0.524,1.209   l-0.557,1.223h-1.734l1.946-3.411L37.16,3.634h1.752l0.59,1.227c0.197,0.409,0.343,0.742,0.502,1.12h0.025   c0.163-0.428,0.288-0.728,0.46-1.116l0.565-1.23h1.739l-1.898,3.287l1.999,3.449H41.133z"/>
</g>
<g id="PF">
	<rect width="60" x="0" fill="none" height="15.475" y="44.525"/>
	<path d="M29.696,52.494v0.939H27.71v-0.939H29.696z"/>
	<path d="M32.285,52.494v0.939H30.3v-0.939H32.285z"/>
</g>
<g id="Des">
	<rect width="60" x="0" fill="none" height="14.525" y="31.722"/>
	<path d="M13.291,33.257c0.62-0.145,1.4-0.234,2.262-0.234c1.274,0,2.305,0.234,3.022,0.915c0.658,0.612,0.974,1.556,0.974,2.595   c0,1.227-0.342,2.071-0.896,2.72c-0.715,0.849-1.89,1.251-2.911,1.251c-0.196,0-0.363,0-0.539-0.016v4.725h-1.912V33.257z    M15.202,38.911c0.139,0.026,0.278,0.034,0.464,0.034c1.264,0,1.965-0.867,1.965-2.262c0-1.143-0.466-2.104-1.762-2.104   c-0.265,0-0.502,0.036-0.667,0.09V38.911z"/>
	<path d="M26.399,40.809c0,3.535-1.822,4.548-3.154,4.548c-1.859,0-3.127-1.556-3.127-4.507c0-3.166,1.555-4.547,3.192-4.547   C25.149,36.303,26.399,37.919,26.399,40.809z M22.035,40.819c0,1.476,0.25,3.053,1.272,3.053c0.957,0,1.175-1.73,1.175-3.053   c0-1.271-0.219-3.033-1.211-3.033C22.243,37.786,22.035,39.548,22.035,40.819z"/>
	<path d="M27.837,32.752h1.922v12.46h-1.922V32.752z"/>
	<path d="M33.594,34.149c0.011,0.66-0.434,1.107-1.062,1.107c-0.56,0-1.009-0.447-0.999-1.107c-0.01-0.683,0.46-1.117,1.027-1.117   C33.16,33.032,33.594,33.467,33.594,34.149z M31.617,45.212v-8.766h1.922v8.766H31.617z"/>
	<path d="M35.159,43.396c0.329,0.208,0.931,0.461,1.512,0.461c0.686,0,1.105-0.366,1.105-1.003c0-0.549-0.255-0.91-1.068-1.423   c-1.303-0.776-1.776-1.619-1.776-2.51c0-1.51,1.1-2.619,2.68-2.619c0.71,0,1.26,0.2,1.682,0.427l-0.394,1.419   c-0.334-0.211-0.728-0.373-1.198-0.373c-0.664,0-0.991,0.44-0.991,0.912c0,0.478,0.213,0.75,1.055,1.286   c1.166,0.696,1.787,1.56,1.787,2.654c0,1.782-1.247,2.692-2.896,2.692c-0.688,0-1.485-0.198-1.876-0.505L35.159,43.396z"/>
	<path d="M40.851,32.752h1.922v4.62h0.036c0.201-0.306,0.461-0.563,0.751-0.753c0.327-0.198,0.715-0.316,1.176-0.316   c1.387,0,2.154,1.152,2.154,3.372v5.537h-1.922v-5.473c0-0.95-0.196-1.817-1.01-1.817c-0.505,0-0.915,0.335-1.108,1.083   c-0.036,0.164-0.077,0.452-0.077,0.658v5.549h-1.922V32.752z"/>
</g>
<g>
</g>
<g>
</g>
<g>
</g>
<g>
</g>
<g>
</g>
<g>
</g>
</svg>