<!-- Generator: Adobe Illustrator 25.2.3, SVG Export Plug-In . SVG Version: 6.00 Build 0)  --><svg x="0px" enable-background="new 0 0 60 60" y="0px" width="60px" xmlns:xlink="http://www.w3.org/1999/xlink" viewBox="0 0 60 60" height="60px" id="Layer_1" xmlns="http://www.w3.org/2000/svg" xml:space="preserve" version="1.1">
<rect width="60" x="0" fill="#F8F4B2" height="60" id="Yellow"/>
<rect width="60" x="0" fill="#FFFFFF" height="60" id="White"/>
<g id="SGSU">
	<rect width="60" x="0" fill="none" height="19.351" y="2.962"/>
	<path fill="#CB2026" d="M15.532,16.813c0.453,0.273,1.242,0.484,1.882,0.484c1.184,0,1.831-0.693,1.831-1.686   c0-0.981-0.597-1.533-1.59-2.218c-1.342-0.859-2.287-2.068-2.287-3.38c0-1.897,1.289-3.393,3.554-3.393   c0.782,0,1.489,0.231,1.812,0.439l-0.357,1.649c-0.329-0.216-0.843-0.414-1.499-0.414c-1.091,0-1.611,0.742-1.611,1.472   c0,0.94,0.485,1.368,1.721,2.166c1.542,0.998,2.155,2.176,2.155,3.48c0,2.17-1.563,3.559-3.732,3.559   c-0.913,0-1.823-0.258-2.201-0.507L15.532,16.813z"/>
	<path fill="#CB2026" d="M29.015,18.549c-0.515,0.214-1.519,0.425-2.347,0.425c-1.244,0-2.27-0.347-3.077-1.191   c-0.969-0.984-1.54-2.721-1.52-4.871c0.041-4.557,2.512-6.289,4.889-6.289c0.851,0,1.494,0.167,1.872,0.354l-0.365,1.657   c-0.337-0.172-0.782-0.285-1.394-0.285c-1.561,0-3.003,1.155-3.003,4.582c0,3.286,1.265,4.408,2.527,4.408   c0.325,0,0.534-0.047,0.64-0.099v-3.39h-1.301v-1.578h3.08V18.549z"/>
	<path fill="#CB2026" d="M30.562,16.813c0.453,0.273,1.242,0.484,1.881,0.484c1.185,0,1.831-0.693,1.831-1.686   c0-0.981-0.598-1.533-1.59-2.218c-1.342-0.859-2.287-2.068-2.287-3.38c0-1.897,1.289-3.393,3.554-3.393   c0.782,0,1.488,0.231,1.812,0.439l-0.357,1.649c-0.329-0.216-0.844-0.414-1.499-0.414c-1.092,0-1.611,0.742-1.611,1.472   c0,0.94,0.484,1.368,1.722,2.166c1.542,0.998,2.154,2.176,2.154,3.48c0,2.17-1.562,3.559-3.731,3.559   c-0.912,0-1.823-0.258-2.201-0.507L30.562,16.813z"/>
	<path fill="#CB2026" d="M39.532,6.729v7.996c0,1.967,0.618,2.598,1.379,2.598c0.832,0,1.401-0.624,1.401-2.598V6.729h1.922v7.67   c0,3.139-1.235,4.609-3.329,4.609c-2.216,0-3.295-1.502-3.295-4.521V6.729H39.532z"/>
</g>
<g id="Des">
	<rect width="60" x="0" fill="none" height="16.909" y="21.313"/>
	<path fill="#CB2026" d="M8.264,35.995v-1.277l1.079-1.425c1.466-1.935,2.885-3.805,2.885-5.71c0-1.103-0.543-1.821-1.57-1.821   c-0.785,0-1.358,0.379-1.728,0.612l-0.38-1.47c0.478-0.345,1.395-0.757,2.458-0.757c2.284,0,3.12,1.589,3.12,3.305   c0,2.196-1.405,4.122-2.794,5.873l-0.736,0.938v0.036h3.719v1.696H8.264z"/>
	<path fill="#CB2026" d="M17.876,32.832l-0.655,3.163h-1.863l2.699-12.136h2.245l2.509,12.136h-1.878l-0.645-3.163H17.876z    M20.088,31.326L19.58,28.54c-0.145-0.793-0.307-1.913-0.438-2.763h-0.051c-0.134,0.857-0.314,2.014-0.461,2.771l-0.531,2.778   H20.088z"/>
	<path fill="#CB2026" d="M24.021,23.535h1.922v12.46h-1.922V23.535z"/>
	<path fill="#CB2026" d="M27.653,34.18c0.329,0.208,0.93,0.461,1.512,0.461c0.685,0,1.105-0.366,1.105-1.003   c0-0.549-0.254-0.91-1.068-1.423c-1.303-0.776-1.777-1.619-1.777-2.51c0-1.51,1.101-2.619,2.681-2.619   c0.709,0,1.26,0.2,1.681,0.427l-0.394,1.419c-0.334-0.211-0.727-0.373-1.198-0.373c-0.665,0-0.992,0.441-0.992,0.912   c0,0.478,0.214,0.75,1.055,1.286c1.167,0.696,1.788,1.56,1.788,2.654c0,1.782-1.247,2.692-2.896,2.692   c-0.689,0-1.485-0.198-1.876-0.505L27.653,34.18z"/>
	<path fill="#CB2026" d="M37.072,35.995l-0.113-0.893h-0.043c-0.438,0.676-1.088,1.036-1.856,1.036   c-1.257,0-2.206-1.054-2.206-2.592c0-2.252,1.905-3.204,3.888-3.222v-0.232c0-0.913-0.356-1.555-1.31-1.555   c-0.627,0-1.159,0.183-1.635,0.486l-0.369-1.312c0.432-0.272,1.354-0.627,2.422-0.627c2.257,0,2.834,1.545,2.834,3.41v3.503   c0,0.682,0.021,1.415,0.113,1.996H37.072z M36.793,31.605c-0.748,0.011-2.104,0.219-2.104,1.744c0,0.989,0.528,1.347,0.95,1.347   c0.482,0,0.945-0.327,1.107-1.003c0.036-0.137,0.047-0.294,0.047-0.445V31.605z"/>
	<path fill="#CB2026" d="M45.074,35.814c-0.271,0.145-0.828,0.289-1.477,0.289c-2.081,0-3.465-1.541-3.465-4.422   c0-2.625,1.452-4.575,3.776-4.575c0.517,0,1.021,0.126,1.26,0.255l-0.293,1.524c-0.19-0.078-0.507-0.196-0.929-0.196   c-1.252,0-1.897,1.34-1.897,2.954c0,1.792,0.724,2.884,1.897,2.884c0.354,0,0.656-0.069,0.937-0.208L45.074,35.814z"/>
	<path fill="#CB2026" d="M47.562,32.129c0.021,1.958,0.93,2.491,1.953,2.491c0.641,0,1.183-0.145,1.573-0.312l0.272,1.383   c-0.547,0.258-1.393,0.412-2.194,0.412c-2.26,0-3.473-1.64-3.473-4.353c0-2.901,1.391-4.665,3.262-4.665   c1.844,0,2.772,1.666,2.772,4.016c0,0.5-0.021,0.796-0.051,1.027H47.562z M49.948,30.761c0.015-1.407-0.447-2.243-1.129-2.243   c-0.834,0-1.21,1.215-1.249,2.243H49.948z"/>
</g>
<g id="CV">
	<rect width="60" x="0" fill="none" height="16.909" y="38.584"/>
	<path fill="#CB2026" d="M23.159,53.266v-1.277l1.079-1.425c1.466-1.935,2.885-3.805,2.885-5.71c0-1.103-0.543-1.821-1.57-1.821   c-0.785,0-1.358,0.379-1.728,0.612l-0.38-1.47c0.478-0.345,1.395-0.757,2.458-0.757c2.284,0,3.12,1.589,3.12,3.305   c0,2.196-1.405,4.122-2.794,5.873l-0.736,0.938v0.036h3.719v1.696H23.159z"/>
	<path fill="#CB2026" d="M36.312,43.237h-3.125l-0.366,2.557c0.131-0.023,0.247-0.023,0.394-0.023   c0.559,0.011,1.564,0.266,2.213,0.883c0.643,0.622,1.003,1.499,1.003,2.686c0,2.297-1.492,4.07-3.838,4.07   c-0.781,0-1.64-0.2-2.108-0.488l0.339-1.521c0.398,0.208,1.016,0.425,1.654,0.425c1.176,0,2.054-0.814,2.054-2.304   c0-1.698-1.159-2.338-2.585-2.338c-0.374,0-0.644,0.016-0.881,0.052l0.698-5.672h4.549V43.237z"/>
</g>
<g>
</g>
<g>
</g>
<g>
</g>
<g>
</g>
<g>
</g>
<g>
</g>
</svg>