<!-- Generator: Adobe Illustrator 25.2.3, SVG Export Plug-In . SVG Version: 6.00 Build 0)  --><svg x="0px" enable-background="new 0 0 60 60" y="0px" width="60px" xmlns:xlink="http://www.w3.org/1999/xlink" viewBox="0 0 60 60" height="60px" id="Layer_1" xmlns="http://www.w3.org/2000/svg" xml:space="preserve" version="1.1">
<rect width="60" fill="#F8F4B2" x="0" height="60" id="Yellow" display="none"/>
<rect width="60" x="0" fill="#FFFFFF" height="60" id="White"/>
<g id="SGSU">
	<rect width="60" x="0" fill="none" height="19.351" y="2.962"/>
	<path fill="#CC1F36" d="M15.532,16.813c0.453,0.273,1.242,0.484,1.882,0.484c1.184,0,1.831-0.693,1.831-1.686   c0-0.981-0.597-1.533-1.59-2.218c-1.342-0.859-2.287-2.068-2.287-3.38c0-1.897,1.289-3.393,3.554-3.393   c0.782,0,1.489,0.231,1.812,0.439l-0.357,1.649c-0.329-0.216-0.843-0.414-1.499-0.414c-1.091,0-1.611,0.742-1.611,1.472   c0,0.94,0.485,1.368,1.721,2.166c1.542,0.998,2.155,2.176,2.155,3.48c0,2.17-1.563,3.559-3.732,3.559   c-0.913,0-1.823-0.258-2.201-0.507L15.532,16.813z"/>
	<path fill="#CC1F36" d="M29.015,18.549c-0.515,0.214-1.519,0.425-2.347,0.425c-1.244,0-2.27-0.347-3.077-1.191   c-0.969-0.984-1.54-2.721-1.52-4.871c0.041-4.557,2.512-6.289,4.889-6.289c0.851,0,1.494,0.167,1.872,0.354l-0.365,1.657   c-0.337-0.172-0.782-0.285-1.394-0.285c-1.561,0-3.003,1.155-3.003,4.582c0,3.286,1.265,4.408,2.527,4.408   c0.325,0,0.534-0.047,0.64-0.099v-3.39h-1.301v-1.578h3.08V18.549z"/>
	<path fill="#CC1F36" d="M30.562,16.813c0.453,0.273,1.242,0.484,1.881,0.484c1.185,0,1.831-0.693,1.831-1.686   c0-0.981-0.598-1.533-1.59-2.218c-1.342-0.859-2.287-2.068-2.287-3.38c0-1.897,1.289-3.393,3.554-3.393   c0.782,0,1.488,0.231,1.812,0.439l-0.357,1.649c-0.329-0.216-0.844-0.414-1.499-0.414c-1.092,0-1.611,0.742-1.611,1.472   c0,0.94,0.484,1.368,1.722,2.166c1.542,0.998,2.154,2.176,2.154,3.48c0,2.17-1.562,3.559-3.731,3.559   c-0.912,0-1.823-0.258-2.201-0.507L30.562,16.813z"/>
	<path fill="#CC1F36" d="M39.532,6.729v7.996c0,1.967,0.618,2.598,1.379,2.598c0.832,0,1.401-0.624,1.401-2.598V6.729h1.922v7.67   c0,3.139-1.235,4.609-3.329,4.609c-2.216,0-3.295-1.502-3.295-4.521V6.729H39.532z"/>
</g>
<g id="Des">
	<rect width="60" x="0" fill="none" height="16.909" y="21.313"/>
	<path fill="#CC1F36" d="M7.976,33.033c0-1.539,0.875-2.584,1.832-3.225L9.8,29.772c-0.985-0.655-1.479-1.669-1.479-2.613   c0-1.87,1.401-3.012,3.053-3.012c1.672,0,2.789,1.259,2.789,2.818c0,0.892-0.387,1.917-1.551,2.676v0.044   c1.08,0.646,1.837,1.714,1.837,3.113c0,2.013-1.413,3.34-3.277,3.34C9.183,36.139,7.976,34.738,7.976,33.033z M12.58,32.892   c0-1.218-0.726-1.949-1.494-2.408c-0.752,0.487-1.242,1.34-1.242,2.303c0,1.146,0.495,2.013,1.394,2.013   C12.033,34.799,12.58,34.092,12.58,32.892z M10.137,27.074c0,0.991,0.583,1.573,1.283,1.982c0.59-0.371,0.966-1.112,0.966-1.893   c0-0.943-0.351-1.687-1.113-1.687C10.547,25.478,10.137,26.192,10.137,27.074z"/>
	<path fill="#CC1F36" d="M15.392,35.995v-1.277l1.079-1.425c1.466-1.935,2.885-3.805,2.885-5.71c0-1.103-0.543-1.821-1.57-1.821   c-0.785,0-1.358,0.379-1.728,0.612l-0.38-1.47c0.478-0.345,1.395-0.757,2.458-0.757c2.284,0,3.12,1.589,3.12,3.305   c0,2.196-1.405,4.122-2.794,5.873l-0.736,0.938v0.036h3.719v1.696H15.392z"/>
	<path fill="#CC1F36" d="M25.168,23.859v7.996c0,1.967,0.619,2.598,1.379,2.598c0.833,0,1.401-0.624,1.401-2.598v-7.996h1.922v7.67   c0,3.139-1.235,4.609-3.329,4.609c-2.216,0-3.295-1.502-3.295-4.521v-7.758H25.168z"/>
	<path fill="#CC1F36" d="M31.678,33.943c0.452,0.273,1.241,0.484,1.882,0.484c1.184,0,1.83-0.693,1.83-1.686   c0-0.981-0.597-1.533-1.589-2.218c-1.343-0.859-2.287-2.068-2.287-3.38c0-1.897,1.289-3.393,3.555-3.393   c0.781,0,1.488,0.231,1.812,0.44l-0.357,1.649c-0.329-0.216-0.844-0.414-1.499-0.414c-1.092,0-1.612,0.742-1.612,1.472   c0,0.94,0.485,1.368,1.722,2.166c1.543,0.998,2.155,2.176,2.155,3.48c0,2.17-1.563,3.559-3.732,3.559   c-0.912,0-1.822-0.258-2.2-0.507L31.678,33.943z"/>
	<path fill="#CC1F36" d="M40.483,32.832l-0.654,3.163h-1.863l2.699-12.136h2.244l2.51,12.136h-1.878l-0.645-3.163H40.483z    M42.695,31.326l-0.508-2.786c-0.144-0.793-0.306-1.913-0.438-2.763h-0.052c-0.134,0.857-0.313,2.014-0.46,2.771l-0.531,2.778   H42.695z"/>
	<path fill="#CC1F36" d="M46.843,23.859h4.981v1.668h-3.06v3.63h2.866v1.606h-2.866v5.231h-1.922V23.859z"/>
</g>
<g id="CV">
	<rect width="60" x="0" fill="none" height="16.909" y="38.584"/>
	<path fill="#CC1F36" d="M23.159,53.266v-1.277l1.079-1.425c1.466-1.935,2.885-3.805,2.885-5.71c0-1.103-0.543-1.821-1.57-1.821   c-0.785,0-1.358,0.379-1.728,0.612l-0.38-1.47c0.478-0.345,1.395-0.757,2.458-0.757c2.284,0,3.12,1.589,3.12,3.305   c0,2.196-1.405,4.122-2.794,5.873l-0.736,0.938v0.036h3.719v1.696H23.159z"/>
	<path fill="#CC1F36" d="M36.312,43.237h-3.125l-0.366,2.557c0.131-0.023,0.247-0.023,0.394-0.023   c0.559,0.011,1.564,0.266,2.213,0.883c0.643,0.622,1.003,1.499,1.003,2.686c0,2.297-1.492,4.07-3.838,4.07   c-0.781,0-1.64-0.2-2.108-0.488l0.339-1.521c0.398,0.208,1.016,0.425,1.654,0.425c1.176,0,2.054-0.814,2.054-2.304   c0-1.698-1.159-2.338-2.585-2.338c-0.374,0-0.644,0.016-0.881,0.052l0.698-5.672h4.549V43.237z"/>
</g>
<g>
</g>
<g>
</g>
<g>
</g>
<g>
</g>
<g>
</g>
<g>
</g>
</svg>