<!-- Generator: Adobe Illustrator 25.2.3, SVG Export Plug-In . SVG Version: 6.00 Build 0)  --><svg x="0px" enable-background="new 0 0 60 60" y="0px" width="60px" xmlns:xlink="http://www.w3.org/1999/xlink" viewBox="0 0 60 60" height="60px" id="Layer_1" xmlns="http://www.w3.org/2000/svg" xml:space="preserve" version="1.1">
<rect width="60" x="0" fill="#F8F4B2" height="60" id="Yellow"/>
<rect width="60" x="0" fill="#FFFFFF" height="60" id="White"/>
<g id="SGSU">
	<rect width="60" x="0" fill="none" height="19.351" y="2.962"/>
	<path fill="#CB2026" d="M15.532,16.813c0.453,0.273,1.242,0.484,1.882,0.484c1.184,0,1.831-0.693,1.831-1.686   c0-0.981-0.597-1.533-1.59-2.218c-1.342-0.859-2.287-2.068-2.287-3.38c0-1.897,1.289-3.393,3.554-3.393   c0.782,0,1.489,0.231,1.812,0.439l-0.357,1.649c-0.329-0.216-0.843-0.414-1.499-0.414c-1.091,0-1.611,0.742-1.611,1.472   c0,0.94,0.485,1.368,1.721,2.166c1.542,0.998,2.155,2.176,2.155,3.48c0,2.17-1.563,3.559-3.732,3.559   c-0.913,0-1.823-0.258-2.201-0.507L15.532,16.813z"/>
	<path fill="#CB2026" d="M29.015,18.549c-0.515,0.214-1.519,0.425-2.347,0.425c-1.244,0-2.27-0.347-3.077-1.191   c-0.969-0.984-1.54-2.721-1.52-4.871c0.041-4.557,2.512-6.289,4.889-6.289c0.851,0,1.494,0.167,1.872,0.354l-0.365,1.657   c-0.337-0.172-0.782-0.285-1.394-0.285c-1.561,0-3.003,1.155-3.003,4.582c0,3.286,1.265,4.408,2.527,4.408   c0.325,0,0.534-0.047,0.64-0.099v-3.39h-1.301v-1.578h3.08V18.549z"/>
	<path fill="#CB2026" d="M30.562,16.813c0.453,0.273,1.242,0.484,1.881,0.484c1.185,0,1.831-0.693,1.831-1.686   c0-0.981-0.598-1.533-1.59-2.218c-1.342-0.859-2.287-2.068-2.287-3.38c0-1.897,1.289-3.393,3.554-3.393   c0.782,0,1.488,0.231,1.812,0.439l-0.357,1.649c-0.329-0.216-0.844-0.414-1.499-0.414c-1.092,0-1.611,0.742-1.611,1.472   c0,0.94,0.484,1.368,1.722,2.166c1.542,0.998,2.154,2.176,2.154,3.48c0,2.17-1.562,3.559-3.731,3.559   c-0.912,0-1.823-0.258-2.201-0.507L30.562,16.813z"/>
	<path fill="#CB2026" d="M39.532,6.729v7.996c0,1.967,0.618,2.598,1.379,2.598c0.832,0,1.401-0.624,1.401-2.598V6.729h1.922v7.67   c0,3.139-1.235,4.609-3.329,4.609c-2.216,0-3.295-1.502-3.295-4.521V6.729H39.532z"/>
</g>
<g id="Des">
	<rect width="60" x="0" fill="none" height="16.909" y="21.313"/>
	<path fill="#CB2026" d="M8.276,35.995v-2.991H4.315v-1.311l3.82-7.402h1.86v7.166h1.209v1.547H9.995v2.991H8.276z M8.276,31.457   v-2.806c0-0.703,0.056-1.408,0.11-2.099H8.325C8,27.331,7.758,27.869,7.429,28.551l-1.414,2.87v0.036H8.276z"/>
	<path fill="#CB2026" d="M14.705,26.145h-0.036l-1.967,1.065l-0.342-1.503l2.587-1.416h1.652v11.704h-1.894V26.145z"/>
	<path fill="#CB2026" d="M25.485,24.292v1.226l-3.73,10.478h-1.871l3.646-9.972v-0.036h-4.091v-1.696H25.485z"/>
	<path fill="#CB2026" d="M27.159,24.04c0.671-0.16,1.511-0.234,2.315-0.234c1.247,0,2.293,0.216,3.007,0.887   c0.676,0.64,0.915,1.451,0.915,2.453c0,1.414-0.679,2.506-1.906,3.074v0.036c0.854,0.306,1.297,1.111,1.544,2.548   c0.255,1.486,0.546,2.777,0.741,3.191H31.78c-0.159-0.348-0.417-1.538-0.625-2.948c-0.234-1.58-0.683-2.093-1.644-2.093H29.07   v5.041h-1.912V24.04z M29.07,29.471h0.5c1.156,0,1.878-0.898,1.878-2.13c0-1.2-0.482-1.998-1.734-2.019   c-0.242,0-0.489,0.018-0.644,0.072V29.471z"/>
	<path fill="#CB2026" d="M40.706,35.802c-0.354,0.176-0.992,0.302-1.784,0.302c-2.77,0-4.35-2.261-4.35-6.009   c0-4.67,2.463-6.343,4.622-6.343c0.789,0,1.345,0.157,1.586,0.309l-0.354,1.626c-0.285-0.134-0.584-0.249-1.152-0.249   c-1.322,0-2.672,1.209-2.672,4.523c0,3.268,1.224,4.436,2.682,4.436c0.451,0,0.909-0.103,1.197-0.214L40.706,35.802z"/>
	<path fill="#CB2026" d="M43.966,32.832l-0.654,3.163h-1.863l2.699-12.136h2.244l2.51,12.136h-1.878l-0.645-3.163H43.966z    M46.178,31.326L45.67,28.54c-0.144-0.793-0.306-1.913-0.438-2.763h-0.052c-0.134,0.857-0.313,2.014-0.46,2.771l-0.531,2.778   H46.178z"/>
	<path fill="#CB2026" d="M50.323,23.859h4.981v1.668h-3.06v3.63h2.866v1.606h-2.866v5.231h-1.922V23.859z"/>
</g>
<g id="CV">
	<rect width="60" x="0" fill="none" height="16.909" y="38.584"/>
	<path fill="#CB2026" d="M23.159,53.266v-1.277l1.079-1.425c1.466-1.935,2.885-3.805,2.885-5.71c0-1.103-0.543-1.821-1.57-1.821   c-0.785,0-1.358,0.379-1.728,0.612l-0.38-1.47c0.478-0.345,1.395-0.757,2.458-0.757c2.284,0,3.12,1.589,3.12,3.305   c0,2.196-1.405,4.122-2.794,5.873l-0.736,0.938v0.036h3.719v1.696H23.159z"/>
	<path fill="#CB2026" d="M36.312,43.237h-3.125l-0.366,2.557c0.131-0.023,0.247-0.023,0.394-0.023   c0.559,0.011,1.564,0.266,2.213,0.883c0.643,0.622,1.003,1.499,1.003,2.686c0,2.297-1.492,4.07-3.838,4.07   c-0.781,0-1.64-0.2-2.108-0.488l0.339-1.521c0.398,0.208,1.016,0.425,1.654,0.425c1.176,0,2.054-0.814,2.054-2.304   c0-1.698-1.159-2.338-2.585-2.338c-0.374,0-0.644,0.016-0.881,0.052l0.698-5.672h4.549V43.237z"/>
</g>
<g>
</g>
<g>
</g>
<g>
</g>
<g>
</g>
<g>
</g>
<g>
</g>
</svg>