<svg width="60" height="60" xmlns="http://www.w3.org/2000/svg" viewBox="0 0 60 60">
  <rect fill="#fff" height="60" width="60"/>
  <g>
    <path fill="#cb2026" stroke-width="0.124" d="M2.58,33.757H57.526V35.4l-55.241-.1Z" stroke-linejoin="round" stroke-linecap="round" stroke="#cb2026"/>
    <path fill="#cb2026" stroke-width="0.124" d="M56.244,32.606l1.747-.214L57.547,35.4h-3.1Z" stroke-linejoin="round" stroke-linecap="round" stroke="#cb2026"/>
    <path fill="#cb2026" stroke-width="0.124" d="M48.079,32.975l8.376-.372v1.3H48.044Z" stroke-linejoin="round" stroke-linecap="round" stroke="#cb2026"/>
    <path fill="#cb2026" stroke-width="0.124" d="M49.7,32.513h.616v.616H49.7Z" stroke-linejoin="round" stroke-linecap="round" stroke="#cb2026"/>
    <path fill="#cb2026" stroke-width="0.124" d="M48.985,32.619h1.437V33.1H48.985Z" stroke-linejoin="round" stroke-linecap="round" stroke="#cb2026"/>
    <path fill="#cb2026" stroke-width="0.124" d="M48.164,32.731H49.6v.476H48.164Z" stroke-linejoin="round" stroke-linecap="round" stroke="#cb2026"/>
    <path fill="#cb2026" stroke-width="0.124" d="M45.155,31.941h2.216v.774H45.155Z" stroke-linejoin="round" stroke-linecap="round" stroke="#cb2026"/>
    <path fill="#cb2026" stroke-width="0.124" d="M47.349,32.033l.4-.016.33.491-.727.571Z" stroke-linejoin="round" stroke-linecap="round" stroke="#cb2026"/>
    <path fill="#cb2026" stroke-width="0.124" d="M45.8,32.491h2.263v1.453H45.8Z" stroke-linejoin="round" stroke-linecap="round" stroke="#cb2026"/>
    <path fill="#cb2026" stroke-width="0.124" d="M47.654,32.232h2.254v.192H47.654Z" stroke-linejoin="round" stroke-linecap="round" stroke="#cb2026"/>
    <path fill="#cb2026" stroke-width="0.124" d="M45.276,32.684h.314v.561h-.314Z" stroke-linejoin="round" stroke-linecap="round" stroke="#cb2026"/>
    <path fill="#cb2026" stroke-width="0.124" d="M34.208,32.257H44.931V33.9H34.208Z" stroke-linejoin="round" stroke-linecap="round" stroke="#cb2026"/>
    <path fill="#cb2026" stroke-width="0.124" d="M44.808,33.065h1.14v.77h-1.14Z" stroke-linejoin="round" stroke-linecap="round" stroke="#cb2026"/>
    <path fill="#cb2026" stroke-width="0.124" d="M40.77,31.042h2.217v.773H40.77Z" stroke-linejoin="round" stroke-linecap="round" stroke="#cb2026"/>
    <path fill="#cb2026" stroke-width="0.124" d="M42.964,31.134l.4-.017.331.491-.728.572Z" stroke-linejoin="round" stroke-linecap="round" stroke="#cb2026"/>
    <path fill="#cb2026" stroke-width="0.124" d="M41.41,31.592h2.264v1.453H41.41Z" stroke-linejoin="round" stroke-linecap="round" stroke="#cb2026"/>
    <path fill="#cb2026" stroke-width="0.124" d="M43.269,31.333h2.254v.193H43.269Z" stroke-linejoin="round" stroke-linecap="round" stroke="#cb2026"/>
    <path fill="#cb2026" stroke-width="0.124" d="M41.4,30.473h.3v.3h-.3Z" stroke-linejoin="round" stroke-linecap="round" stroke="#cb2026"/>
    <path fill="#cb2026" stroke-width="0.124" d="M41.557,30.176h.122v.947h-.122Z" stroke-linejoin="round" stroke-linecap="round" stroke="#cb2026"/>
    <path fill="#cb2026" stroke-width="0.124" d="M41.869,30.478h.084l-.3.438h-.084Z" stroke-linejoin="round" stroke-linecap="round" stroke="#cb2026"/>
    <path fill="#cb2026" stroke-width="0.124" d="M37.057,29.6h2.458v2.874H37.057Z" stroke-linejoin="round" stroke-linecap="round" stroke="#cb2026"/>
    <path fill="#cb2026" stroke-width="0.124" d="M36.521,30.253h.77v.434h-.77Z" stroke-linejoin="round" stroke-linecap="round" stroke="#cb2026"/>
    <path fill="#cb2026" stroke-width="0.124" d="M37.25,27.9h.406v1.715H37.25Z" stroke-linejoin="round" stroke-linecap="round" stroke="#cb2026"/>
    <path fill="#cb2026" stroke-width="0.124" d="M36.757,28.1h.232v1.1h-.232Z" stroke-linejoin="round" stroke-linecap="round" stroke="#cb2026"/>
    <path fill="#cb2026" stroke-width="0.124" d="M36.9,28.736h1.67v.4H36.9Z" stroke-linejoin="round" stroke-linecap="round" stroke="#cb2026"/>
    <path fill="#cb2026" stroke-width="0.124" d="M36.96,29.1h1.507v.84H36.96Z" stroke-linejoin="round" stroke-linecap="round" stroke="#cb2026"/>
    <path fill="#cb2026" stroke-width="0.124" d="M37.65,28.171h.716v.82H37.65Z" stroke-linejoin="round" stroke-linecap="round" stroke="#cb2026"/>
    <path fill="#cb2026" stroke-width="0.124" d="M38.964,29.076h.715v.82h-.715Z" stroke-linejoin="round" stroke-linecap="round" stroke="#cb2026"/>
    <path fill="#cb2026" stroke-width="0.124" d="M39.837,31.967H40.1v.3h-.262Z" stroke-linejoin="round" stroke-linecap="round" stroke="#cb2026"/>
    <path fill="#cb2026" stroke-width="0.124" d="M43.849,31.909h.306v.579h-.306Z" stroke-linejoin="round" stroke-linecap="round" stroke="#cb2026"/>
    <path fill="#cb2026" stroke-width="0.124" d="M44.355,31.987h.3v.578h-.3Z" stroke-linejoin="round" stroke-linecap="round" stroke="#cb2026"/>
    <path fill="#cb2026" stroke-width="0.124" d="M35.408,30.888H35.7v.324h-.293Z" stroke-linejoin="round" stroke-linecap="round" stroke="#cb2026"/>
    <path fill="#cb2026" stroke-width="0.124" d="M35.483,31.131h.143V32.32h-.143Z" stroke-linejoin="round" stroke-linecap="round" stroke="#cb2026"/>
    <path fill="#cb2026" stroke-width="0.124" d="M34.85,31.316h.143v1.189H34.85Z" stroke-linejoin="round" stroke-linecap="round" stroke="#cb2026"/>
    <path fill="#cb2026" stroke-width="0.124" d="M34.626,31.705H35.3v.612h-.671Z" stroke-linejoin="round" stroke-linecap="round" stroke="#cb2026"/>
    <path fill="#cb2026" stroke-width="0.124" d="M34.914,20.776l.164.012,1.388,11.453-.315.012Z" stroke-linejoin="round" stroke-linecap="round" stroke="#cb2026"/>
    <path fill="#cb2026" stroke-width="0.124" d="M28.8,28.162h1.911l.63,4.257-2.087.114Z" stroke-linejoin="round" stroke-linecap="round" stroke="#cb2026"/>
    <path fill="#cb2026" stroke-width="0.124" d="M30.985,31.48v1.705h4.333Z" stroke-linejoin="round" stroke-linecap="round" stroke="#cb2026"/>
    <path fill="#cb2026" stroke-width="0.124" d="M25.373,32.552h8.963v1.374H25.373Z" stroke-linejoin="round" stroke-linecap="round" stroke="#cb2026"/>
    <path fill="#cb2026" stroke-width="0.124" d="M25.323,28.285l1.135.05.969,4.379-1.5-.013Z" stroke-linejoin="round" stroke-linecap="round" stroke="#cb2026"/>
    <path fill="#cb2026" stroke-width="0.124" d="M15.987,33.031h9.558v1.16H15.987Z" stroke-linejoin="round" stroke-linecap="round" stroke="#cb2026"/>
    <path fill="#cb2026" stroke-width="0.124" d="M15.987,32.208h3.784v1.145H15.987Z" stroke-linejoin="round" stroke-linecap="round" stroke="#cb2026"/>
    <path fill="#cb2026" stroke-width="0.124" d="M19.043,30.112h.872v.735h-.872Z" stroke-linejoin="round" stroke-linecap="round" stroke="#cb2026"/>
    <path fill="#cb2026" stroke-width="0.124" d="M17.936,30.649h.651v.686h-.651Z" stroke-linejoin="round" stroke-linecap="round" stroke="#cb2026"/>
    <path fill="#cb2026" stroke-width="0.124" d="M15.871,31.707h.652v.685h-.652Z" stroke-linejoin="round" stroke-linecap="round" stroke="#cb2026"/>
    <path fill="#cb2026" stroke-width="0.124" d="M17,31.74h2.753v.521H17Z" stroke-linejoin="round" stroke-linecap="round" stroke="#cb2026"/>
    <path fill="#cb2026" stroke-width="0.124" d="M18.052,31.237h1.719v.532H18.052Z" stroke-linejoin="round" stroke-linecap="round" stroke="#cb2026"/>
    <path fill="#cb2026" stroke-width="0.124" d="M19.244,30.7h.419v.615h-.419Z" stroke-linejoin="round" stroke-linecap="round" stroke="#cb2026"/>
    <path fill="#cb2026" stroke-width="0.124" d="M14.007,20.784l.2.016,1.641,13.121-.346.085Z" stroke-linejoin="round" stroke-linecap="round" stroke="#cb2026"/>
    <path fill="#cb2026" stroke-width="0.124" d="M21.39,32.05h2.059v1.319H21.39Z" stroke-linejoin="round" stroke-linecap="round" stroke="#cb2026"/>
    <path fill="#cb2026" stroke-width="0.124" d="M20.25,31.633h4.394v.579H20.25Z" stroke-linejoin="round" stroke-linecap="round" stroke="#cb2026"/>
    <path fill="#cb2026" stroke-width="0.124" d="M14.818,32.7h-.727v.241h.727Z" stroke-linejoin="round" stroke-linecap="round" stroke="#cb2026"/>
    <path fill="#cb2026" stroke-width="0.124" d="M15.209,32.893H12.993v.774h2.216Z" stroke-linejoin="round" stroke-linecap="round" stroke="#cb2026"/>
    <path fill="#cb2026" stroke-width="0.124" d="M13.015,32.986l-.4-.017-.331.491.727.572Z" stroke-linejoin="round" stroke-linecap="round" stroke="#cb2026"/>
    <path fill="#cb2026" stroke-width="0.124" d="M14.569,33.443H12.306V34.9h2.263Z" stroke-linejoin="round" stroke-linecap="round" stroke="#cb2026"/>
    <path fill="#cb2026" stroke-width="0.124" d="M12.71,33.184H10.457v.192H12.71Z" stroke-linejoin="round" stroke-linecap="round" stroke="#cb2026"/>
    <path fill="#cb2026" stroke-width="0.124" d="M14.719,32.423h-.488v.161h.488Z" stroke-linejoin="round" stroke-linecap="round" stroke="#cb2026"/>
    <path fill="#cb2026" stroke-width="0.124" d="M14.453,32.747v-.488h.162v.488Z" stroke-linejoin="round" stroke-linecap="round" stroke="#cb2026"/>
    <path fill="#cb2026" stroke-width="0.124" d="M17.05,31.041H17.5v.449H17.05Z" stroke-linejoin="round" stroke-linecap="round" stroke="#cb2026"/>
    <path fill="#cb2026" stroke-width="0.124" d="M17.122,31.4h.356v.357h-.356Z" stroke-linejoin="round" stroke-linecap="round" stroke="#cb2026"/>
  </g>
  <g>
    <path fill="#cb2026" d="M13.962,50.584l-.436,2.106H12.285l1.8-8.084h1.495L17.25,52.69H16l-.43-2.106Zm1.474-1L15.1,47.725c-.1-.529-.2-1.275-.292-1.84h-.035c-.088.57-.209,1.341-.306,1.844l-.354,1.851Z"/>
    <path fill="#cb2026" d="M18.055,48.5c0-.541-.029-1.149-.048-1.645h1.12l.065.88h.037a1.383,1.383,0,0,1,1.187-.976,1.478,1.478,0,0,1,.271.02v1.281a1.586,1.586,0,0,0-.273-.014,1.143,1.143,0,0,0-1.026,1,2.65,2.65,0,0,0-.053.56V52.69h-1.28Z"/>
    <path fill="#cb2026" d="M22.246,50.115c.014,1.3.62,1.659,1.3,1.659a2.656,2.656,0,0,0,1.048-.208l.181.922a3.713,3.713,0,0,1-1.461.275c-1.505,0-2.313-1.092-2.313-2.9,0-1.932.926-3.107,2.172-3.107,1.228,0,1.847,1.109,1.847,2.675a5.043,5.043,0,0,1-.034.684Zm1.589-.911c.01-.937-.3-1.494-.752-1.494-.555,0-.806.81-.832,1.494Z"/>
    <path fill="#cb2026" d="M27.486,45.287v1.565h1.133v.928H27.486v3.028c0,.714.278.9.6.9a2.008,2.008,0,0,0,.4-.036l.026,1a2.941,2.941,0,0,1-.837.1,1.4,1.4,0,0,1-1.034-.364,2.087,2.087,0,0,1-.429-1.579V47.78h-.7v-.928h.7V45.614Z"/>
    <path fill="#cb2026" d="M29.389,44.391h1.279v3.078h.024a1.746,1.746,0,0,1,.5-.5,1.484,1.484,0,0,1,.784-.211c.923,0,1.435.767,1.435,2.246V52.69h-1.28V49.045c0-.633-.131-1.211-.673-1.211-.337,0-.609.224-.738.722a2.391,2.391,0,0,0-.052.438v3.7H29.389Z"/>
    <path fill="#cb2026" d="M38.526,50.993c0,.635.03,1.2.048,1.7H37.465l-.075-.613h-.024a1.587,1.587,0,0,1-1.3.709c-1.071,0-1.5-.808-1.5-2.327V46.852h1.28V50.3c0,.832.151,1.412.675,1.412a.719.719,0,0,0,.656-.57,1.69,1.69,0,0,0,.071-.508V46.852h1.28Z"/>
    <path fill="#cb2026" d="M39.634,51.481a2.054,2.054,0,0,0,1.007.307.646.646,0,0,0,.736-.668c0-.366-.17-.606-.711-.947A1.962,1.962,0,0,1,39.481,48.5a1.7,1.7,0,0,1,1.787-1.744,2.325,2.325,0,0,1,1.119.284l-.262.945a1.476,1.476,0,0,0-.8-.248.6.6,0,0,0-.661.608c0,.317.143.5.7.856a2.051,2.051,0,0,1,1.191,1.768,1.734,1.734,0,0,1-1.929,1.794,2.278,2.278,0,0,1-1.25-.336Z"/>
    <path fill="#cb2026" d="M45.911,52.69l-.075-.594h-.029a1.428,1.428,0,0,1-1.237.69A1.554,1.554,0,0,1,43.1,51.06c0-1.5,1.268-2.134,2.588-2.147v-.154c0-.608-.237-1.035-.872-1.035a1.974,1.974,0,0,0-1.089.323l-.246-.873a3.248,3.248,0,0,1,1.614-.418c1.5,0,1.887,1.029,1.887,2.271v2.334a8.988,8.988,0,0,0,.076,1.329Zm-.186-2.923c-.5.006-1.4.145-1.4,1.162,0,.658.352.9.633.9a.776.776,0,0,0,.738-.668,1.193,1.193,0,0,0,.031-.3Z"/>
  </g>
  <g>
    <path fill="#cb2026" d="M17.719,16.065a6.092,6.092,0,0,1-2.45.427,4.46,4.46,0,0,1-4.819-4.756A4.754,4.754,0,0,1,15.5,6.756a5.308,5.308,0,0,1,2.287.417l-.375,1.375a4.483,4.483,0,0,0-1.841-.37,3.142,3.142,0,0,0-3.309,3.472,3.086,3.086,0,0,0,3.287,3.4,5.029,5.029,0,0,0,1.881-.341Z"/>
    <path fill="#cb2026" d="M19.173,6.9H20.9V14.9h3.883v1.447H19.173Z"/>
    <path fill="#cb2026" d="M31.807,14.936a4.177,4.177,0,0,0,2.02.564c1.573,0,2.068-1,2.06-1.763-.015-1.279-1.169-1.82-2.355-1.822h-.688V10.99h.689c.9,0,2.029-.462,2.029-1.536,0-.732-.464-1.373-1.6-1.373a3.337,3.337,0,0,0-1.817.6l-.332-.89A4.308,4.308,0,0,1,34.2,7.085c1.8,0,2.617,1.062,2.617,2.175a2.275,2.275,0,0,1-1.68,2.145v.027a2.356,2.356,0,0,1,2.023,2.335c0,1.453-1.14,2.732-3.322,2.732a4.466,4.466,0,0,1-2.358-.623Z"/>
    <path fill="#cb2026" d="M38.051,16.905l3.9-10.155h.959L38.988,16.905Z"/>
    <path fill="#cb2026" d="M48.694,8.1a5.192,5.192,0,0,0-.931.066,3.661,3.661,0,0,0-3.156,3.236h.034a2.774,2.774,0,0,1,4.951,1.882A3.051,3.051,0,0,1,46.558,16.5c-1.941,0-3.214-1.516-3.214-3.876a5.7,5.7,0,0,1,1.541-4.107A4.94,4.94,0,0,1,47.8,7.167a5.139,5.139,0,0,1,.891-.069Zm-.352,5.261a1.851,1.851,0,0,0-1.872-2.087A2.03,2.03,0,0,0,44.7,12.394a1.165,1.165,0,0,0-.132.54c.019,1.5.709,2.618,2,2.618C47.626,15.552,48.342,14.666,48.342,13.364Z"/>
  </g>
</svg>