<!-- Generator: Adobe Illustrator 25.2.3, SVG Export Plug-In . SVG Version: 6.00 Build 0)  --><svg x="0px" enable-background="new 0 0 60 60" y="0px" width="60px" xmlns:xlink="http://www.w3.org/1999/xlink" viewBox="0 0 60 60" height="60px" id="Layer_1" xmlns="http://www.w3.org/2000/svg" xml:space="preserve" version="1.1">
<rect width="60" x="-0.012" fill="#EF3C23" height="60" id="UnitColor_1_"/>
<rect width="60" fill="#640D0D" height="19.623" id="CS_1_" y="11.533" display="none"/>
<g id="Gar" display="none">
	<rect width="14.843" fill="none" x="0.73" height="8.039" y="2.802" display="inline"/>
	<path fill="#FFFFFF" d="M11.03,10.06c-0.472,0.163-1.361,0.379-2.249,0.379c-1.231,0-2.119-0.308-2.739-0.903   C5.424,8.949,5.085,8.072,5.089,7.083C5.097,4.842,6.73,3.567,8.936,3.567c0.87,0,1.539,0.165,1.873,0.323L10.49,5.111   C10.117,4.95,9.664,4.825,8.922,4.825c-1.27,0-2.235,0.714-2.235,2.18c0,1.391,0.878,2.205,2.125,2.205   c0.344,0,0.623-0.04,0.745-0.095V7.699H8.516V6.512h2.514V10.06z" display="inline"/>
</g>
<g id="Eng" display="none">
	<rect width="27.832" fill="none" x="1.1" height="8.039" y="2.802" display="inline"/>
	<path fill="#FFFFFF" d="M17.011,7.521h-2.479v1.602h2.771v1.248h-4.294V3.634h4.15v1.248h-2.626v1.403h2.479   V7.521z" display="inline"/>
</g>
<g id="P2" display="none">
	<path fill="#FFFFFF" d="M19.024,28.186c0.472-1.148,0.803-2.149,0.992-3.001c0.282-1.24,0.423-2.417,0.423-3.534   c0-1.066-0.099-2.078-0.295-3.035c-0.197-0.957-0.575-2.146-1.135-3.568h1.146c0.628,1.03,1.101,2.092,1.419,3.186   c0.319,1.094,0.478,2.185,0.478,3.274c0,1.094-0.159,2.218-0.476,3.374s-0.786,2.257-1.407,3.305H19.024z" display="inline"/>
</g>
<g id="P1" display="none">
	<path fill="#FFFFFF" d="M8.327,28.186H7.182c-0.605-1.025-1.071-2.111-1.396-3.257s-0.487-2.257-0.487-3.333   c0-1.162,0.163-2.296,0.489-3.401c0.326-1.105,0.795-2.154,1.408-3.148h1.146c-0.56,1.422-0.938,2.611-1.135,3.568   c-0.197,0.957-0.295,1.969-0.295,3.035c0,1.103,0.139,2.27,0.416,3.5C7.522,26.016,7.855,27.028,8.327,28.186z" display="inline"/>
</g>
<g id="Type">
	<path fill="#FFFFFF" d="M53.265,12.893v17.022H26.785V12.893H53.265z M51.846,14.312H28.204v14.185h23.642V14.312z M37.26,21.404   c0-1.436,1.238-2.601,2.766-2.601s2.765,1.165,2.765,2.601c0,1.437-1.237,2.601-2.765,2.601S37.26,22.84,37.26,21.404z"/>
</g>
<g id="STK">
	<path fill="#FFFFFF" d="M13.307,17.911h-0.036l-2.139,1.074l-0.386-1.671l2.857-1.406h1.847v11.703h-2.144V17.911z"/>
</g>
<g id="ECH">
	<rect width="27.832" x="26.078" fill="none" height="8.039" y="2.802"/>
	<path fill="#FFFFFF" d="M39.33,3.634v6.736h-1.523V3.634H39.33z"/>
	<path fill="#FFFFFF" d="M42.18,3.634v6.736h-1.522V3.634H42.18z"/>
</g>
<g id="PF">
	<rect width="60" x="0" fill="none" height="15.475" y="44.525"/>
	<path fill="#FFFFFF" d="M21.655,54.717c0.251,0,0.38-0.012,0.599-0.052c0.251-0.053,0.536-0.184,0.763-0.393   c0.275-0.265,0.517-0.731,0.626-1.31h-0.028c-0.212,0.231-0.511,0.401-0.927,0.401c-0.845,0-1.53-0.75-1.53-1.943   c0-1.11,0.683-2.274,1.932-2.274c1.209,0,1.846,1.101,1.846,2.671c0,1.469-0.474,2.498-1.068,3.133   c-0.401,0.437-0.97,0.722-1.604,0.822c-0.208,0.034-0.407,0.03-0.608,0.03V54.717z M22.449,51.318   c0.008,0.629,0.206,1.146,0.606,1.146c0.23,0,0.431-0.171,0.5-0.336c0.048-0.129,0.06-0.268,0.06-0.696   c0-0.852-0.243-1.338-0.593-1.338C22.688,50.094,22.434,50.527,22.449,51.318z"/>
	<path fill="#FFFFFF" d="M28.41,54.185l-0.295,1.538h-1.271l1.463-6.736h1.568l1.31,6.736H29.91l-0.288-1.538H28.41z M29.506,53.168   l-0.225-1.41c-0.065-0.409-0.155-1.086-0.221-1.531h-0.024c-0.072,0.447-0.172,1.144-0.242,1.533l-0.247,1.408H29.506z"/>
	<path fill="#FFFFFF" d="M35.363,54.229c0,0.524,0.021,1.036,0.04,1.493h-1.131l-0.071-0.516h-0.021   c-0.226,0.33-0.623,0.596-1.129,0.596c-0.932,0-1.305-0.688-1.305-2.006v-2.966h1.312v2.821c0,0.64,0.128,1.056,0.489,1.056   c0.222,0,0.365-0.17,0.427-0.335c0.043-0.095,0.075-0.251,0.075-0.417v-3.125h1.312V54.229z"/>
	<path fill="#FFFFFF" d="M36.261,54.546c0.191,0.118,0.554,0.258,0.885,0.258c0.334,0,0.53-0.15,0.53-0.436   c0-0.257-0.146-0.411-0.571-0.663c-0.798-0.45-0.993-0.96-0.993-1.406c0-0.879,0.631-1.548,1.611-1.548   c0.406,0,0.729,0.101,0.992,0.229l-0.229,0.956c-0.188-0.108-0.417-0.198-0.683-0.198c-0.334,0-0.489,0.196-0.489,0.417   c0,0.216,0.114,0.341,0.572,0.614c0.72,0.409,0.986,0.919,0.986,1.472c0,1.004-0.717,1.542-1.73,1.542   c-0.407,0-0.889-0.109-1.112-0.279L36.261,54.546z"/>
</g>
<g id="Des">
	<rect width="60" x="0" fill="none" height="14.525" y="31.722"/>
	<path fill="#FFFFFF" d="M6.185,45.212v-1.277l1.079-1.425c1.466-1.935,2.885-3.805,2.885-5.71c0-1.103-0.543-1.821-1.57-1.821   c-0.785,0-1.358,0.379-1.728,0.612l-0.38-1.47c0.478-0.345,1.395-0.757,2.458-0.757c2.284,0,3.12,1.589,3.12,3.305   c0,2.196-1.405,4.122-2.794,5.873l-0.736,0.938v0.036h3.719v1.696H6.185z"/>
	<path fill="#FFFFFF" d="M12.87,45.933l4.065-13h1.312l-4.065,13H12.87z"/>
	<path fill="#FFFFFF" d="M18.497,42.25c0-1.539,0.875-2.584,1.832-3.225l-0.007-0.036c-0.985-0.655-1.48-1.669-1.48-2.613   c0-1.87,1.401-3.012,3.053-3.012c1.672,0,2.789,1.259,2.789,2.818c0,0.892-0.387,1.917-1.551,2.676v0.044   c1.08,0.646,1.837,1.714,1.837,3.113c0,2.013-1.413,3.341-3.277,3.341C19.704,45.356,18.497,43.955,18.497,42.25z M23.101,42.108   c0-1.218-0.726-1.949-1.494-2.408c-0.752,0.487-1.242,1.34-1.242,2.303c0,1.146,0.495,2.013,1.394,2.013   C22.554,44.016,23.101,43.309,23.101,42.108z M20.658,36.291c0,0.991,0.583,1.573,1.283,1.982c0.59-0.371,0.966-1.112,0.966-1.893   c0-0.943-0.351-1.687-1.113-1.687C21.068,34.694,20.658,35.409,20.658,36.291z"/>
	<path fill="#FFFFFF" d="M28.181,42.049l-0.655,3.163h-1.863l2.699-12.136h2.245l2.509,12.136h-1.878l-0.645-3.163H28.181z    M30.393,40.543l-0.508-2.786c-0.145-0.793-0.307-1.913-0.438-2.763h-0.051c-0.134,0.857-0.314,2.014-0.461,2.771l-0.531,2.778   H30.393z"/>
	<path fill="#FFFFFF" d="M37.384,33.076h4.981v1.668h-3.06v3.63h2.866v1.606h-2.866v5.231h-1.922V33.076z"/>
	<path fill="#FFFFFF" d="M43.775,32.752h1.922v12.46h-1.922V32.752z"/>
	<path fill="#FFFFFF" d="M53.436,32.752v10.091c0,0.719,0.044,1.696,0.072,2.369h-1.65l-0.112-1.04h-0.052   c-0.304,0.623-0.972,1.185-1.829,1.185c-1.695,0-2.648-1.86-2.648-4.502c0-3.076,1.322-4.552,2.739-4.552   c0.722,0,1.252,0.347,1.533,0.952h0.036v-4.503H53.436z M51.524,39.798c0-0.168,0-0.363-0.028-0.541   c-0.082-0.704-0.478-1.327-1.044-1.327c-0.972,0-1.319,1.383-1.319,2.95c0,1.75,0.466,2.891,1.272,2.891   c0.361,0,0.81-0.188,1.052-1.087c0.047-0.149,0.067-0.345,0.067-0.563V39.798z"/>
</g>
<g>
</g>
<g>
</g>
<g>
</g>
<g>
</g>
<g>
</g>
<g>
</g>
</svg>