<!-- Generator: Adobe Illustrator 25.2.3, SVG Export Plug-In . SVG Version: 6.00 Build 0)  --><svg x="0px" enable-background="new 0 0 60 60" y="0px" width="60px" xmlns:xlink="http://www.w3.org/1999/xlink" viewBox="0 0 60 60" height="60px" id="Layer_1" xmlns="http://www.w3.org/2000/svg" xml:space="preserve" version="1.1">
<rect width="60" x="-0.012" fill="#EF3C23" height="60" id="UnitColor_1_"/>
<rect width="60" fill="#640D0D" height="19.623" id="CS_1_" y="11.533" display="none"/>
<g id="Gar" display="none">
	<rect width="14.843" fill="none" x="0.73" height="8.039" y="2.802" display="inline"/>
	<path fill="#FFFFFF" d="M11.03,10.06c-0.472,0.163-1.361,0.379-2.249,0.379c-1.231,0-2.119-0.308-2.739-0.903   C5.424,8.949,5.085,8.072,5.089,7.083C5.097,4.842,6.73,3.567,8.936,3.567c0.87,0,1.539,0.165,1.873,0.323L10.49,5.111   C10.117,4.95,9.664,4.825,8.922,4.825c-1.27,0-2.235,0.714-2.235,2.18c0,1.391,0.878,2.205,2.125,2.205   c0.344,0,0.623-0.04,0.745-0.095V7.699H8.516V6.512h2.514V10.06z" display="inline"/>
</g>
<g id="Eng" display="none">
	<rect width="27.832" fill="none" x="1.1" height="8.039" y="2.802" display="inline"/>
	<path fill="#FFFFFF" d="M17.011,7.521h-2.479v1.602h2.771v1.248h-4.294V3.634h4.15v1.248h-2.626v1.403h2.479   V7.521z" display="inline"/>
</g>
<g id="P2" display="none">
	<path fill="#FFFFFF" d="M19.024,28.186c0.472-1.148,0.803-2.149,0.992-3.001c0.282-1.24,0.423-2.417,0.423-3.534   c0-1.066-0.099-2.078-0.295-3.035c-0.197-0.957-0.575-2.146-1.135-3.568h1.146c0.628,1.03,1.101,2.092,1.419,3.186   c0.319,1.094,0.478,2.185,0.478,3.274c0,1.094-0.159,2.218-0.476,3.374s-0.786,2.257-1.407,3.305H19.024z" display="inline"/>
</g>
<g id="P1" display="none">
	<path fill="#FFFFFF" d="M8.327,28.186H7.182c-0.605-1.025-1.071-2.111-1.396-3.257s-0.487-2.257-0.487-3.333   c0-1.162,0.163-2.296,0.489-3.401c0.326-1.105,0.795-2.154,1.408-3.148h1.146c-0.56,1.422-0.938,2.611-1.135,3.568   c-0.197,0.957-0.295,1.969-0.295,3.035c0,1.103,0.139,2.27,0.416,3.5C7.522,26.016,7.855,27.028,8.327,28.186z" display="inline"/>
</g>
<g id="Type">
	<path fill="#FFFFFF" d="M53.265,12.893v17.022H26.785V12.893H53.265z M28.204,14.312v13.077l10.899-13.077H28.204z M29.127,28.497   h21.794L40.025,15.419L29.127,28.497z M37.26,23.295c0-1.437,1.238-2.601,2.766-2.601s2.765,1.164,2.765,2.601   c0,1.436-1.237,2.601-2.765,2.601S37.26,24.731,37.26,23.295z M51.846,14.312H40.948l10.897,13.077V14.312z"/>
</g>
<g id="STK">
	<path fill="#FFFFFF" d="M13.307,17.911h-0.036l-2.139,1.074l-0.386-1.671l2.857-1.406h1.847v11.703h-2.144V17.911z"/>
</g>
<g id="ECH">
	<rect width="27.832" x="26.078" fill="none" height="8.039" y="2.802"/>
	<path fill="#FFFFFF" d="M37.905,3.634v6.736h-1.523V3.634H37.905z"/>
	<path fill="#FFFFFF" d="M40.756,3.634v6.736h-1.523V3.634H40.756z"/>
	<path fill="#FFFFFF" d="M43.605,3.634v6.736h-1.522V3.634H43.605z"/>
</g>
<g id="PF">
	<rect width="60" x="0" fill="none" height="15.475" y="44.525"/>
	<path fill="#FFFFFF" d="M21.825,54.717c0.251,0,0.38-0.012,0.599-0.052c0.251-0.053,0.536-0.184,0.763-0.393   c0.275-0.265,0.517-0.731,0.626-1.31h-0.028c-0.212,0.231-0.511,0.401-0.927,0.401c-0.845,0-1.53-0.75-1.53-1.943   c0-1.11,0.683-2.274,1.932-2.274c1.209,0,1.846,1.101,1.846,2.671c0,1.469-0.474,2.498-1.068,3.133   c-0.401,0.437-0.97,0.722-1.604,0.822c-0.208,0.034-0.407,0.03-0.608,0.03V54.717z M22.619,51.318   c0.008,0.629,0.206,1.146,0.606,1.146c0.23,0,0.431-0.171,0.5-0.336c0.048-0.129,0.06-0.268,0.06-0.696   c0-0.852-0.243-1.338-0.593-1.338C22.858,50.094,22.604,50.527,22.619,51.318z"/>
	<path fill="#FFFFFF" d="M29.586,55.723l-0.071-0.482h-0.022c-0.267,0.378-0.647,0.562-1.081,0.562   c-0.739,0-1.288-0.618-1.288-1.485c0-1.285,1.13-1.809,2.235-1.819V52.39c0-0.387-0.225-0.668-0.688-0.668   c-0.39,0-0.703,0.105-0.995,0.285l-0.238-0.882c0.271-0.155,0.837-0.374,1.52-0.374c1.485,0,1.729,1.042,1.729,2.033v1.819   c0,0.39,0.016,0.788,0.072,1.119H29.586z M29.398,53.341c-0.433,0.008-1.037,0.156-1.037,0.837c0,0.482,0.271,0.662,0.473,0.662   c0.213,0,0.446-0.125,0.536-0.421c0.02-0.062,0.028-0.142,0.028-0.224V53.341z"/>
	<path fill="#FFFFFF" d="M35.192,54.229c0,0.524,0.021,1.036,0.04,1.493h-1.131l-0.071-0.516H34.01   c-0.226,0.33-0.623,0.596-1.129,0.596c-0.932,0-1.305-0.688-1.305-2.006v-2.966h1.312v2.821c0,0.64,0.128,1.056,0.489,1.056   c0.222,0,0.365-0.17,0.427-0.335c0.043-0.095,0.075-0.251,0.075-0.417v-3.125h1.312V54.229z"/>
	<path fill="#FFFFFF" d="M36.09,54.546c0.191,0.118,0.554,0.258,0.885,0.258c0.334,0,0.53-0.15,0.53-0.436   c0-0.257-0.146-0.411-0.571-0.663c-0.798-0.45-0.993-0.96-0.993-1.406c0-0.879,0.631-1.548,1.611-1.548   c0.406,0,0.729,0.101,0.992,0.229l-0.229,0.956c-0.188-0.108-0.417-0.198-0.683-0.198c-0.334,0-0.489,0.196-0.489,0.417   c0,0.216,0.114,0.341,0.572,0.614c0.72,0.409,0.986,0.919,0.986,1.472c0,1.004-0.717,1.542-1.73,1.542   c-0.407,0-0.889-0.109-1.112-0.279L36.09,54.546z"/>
</g>
<g id="Des">
	<rect width="60" x="0" fill="none" height="14.525" y="31.722"/>
	<path fill="#FFFFFF" d="M8.597,45.212v-1.277l1.079-1.425c1.466-1.935,2.885-3.805,2.885-5.71c0-1.103-0.543-1.821-1.57-1.821   c-0.785,0-1.358,0.379-1.728,0.612l-0.38-1.47c0.478-0.345,1.395-0.757,2.458-0.757c2.284,0,3.12,1.589,3.12,3.305   c0,2.196-1.405,4.122-2.794,5.873l-0.736,0.938v0.036h3.719v1.696H8.597z"/>
	<path fill="#FFFFFF" d="M15.281,45.933l4.065-13h1.312l-4.065,13H15.281z"/>
	<path fill="#FFFFFF" d="M21.265,43.307c0.419,0.25,1.064,0.474,1.718,0.474c1.178,0,1.892-0.788,1.892-1.981   c0-1.407-0.987-2.106-2.272-2.116h-0.324v-1.42h0.247c0.851-0.01,2.033-0.495,2.033-1.765c0-0.997-0.571-1.548-1.441-1.548   c-0.551,0-1.065,0.229-1.469,0.5l-0.309-1.445c0.458-0.329,1.337-0.641,2.268-0.641c1.875,0,2.871,1.263,2.871,2.765   c0,1.17-0.635,2.169-1.711,2.676v0.036c1.093,0.347,2.027,1.321,2.027,3.02c0,1.84-1.306,3.496-3.663,3.496   c-0.863,0-1.694-0.227-2.186-0.528L21.265,43.307z"/>
	<path fill="#FFFFFF" d="M33.437,42.049l-0.655,3.163h-1.862l2.699-12.136h2.244l2.51,12.136h-1.879l-0.645-3.163H33.437z    M35.648,40.543l-0.508-2.786c-0.145-0.793-0.307-1.913-0.438-2.763h-0.052c-0.134,0.857-0.313,2.014-0.461,2.771l-0.53,2.778   H35.648z"/>
	<path fill="#FFFFFF" d="M45.445,42.664c0,0.952,0.044,1.803,0.072,2.548h-1.666l-0.112-0.921h-0.036   c-0.345,0.519-1.036,1.065-1.96,1.065c-1.606,0-2.246-1.214-2.246-3.495v-5.415h1.922v5.182c0,1.248,0.226,2.119,1.012,2.119   c0.589,0,0.89-0.512,0.985-0.856c0.066-0.198,0.107-0.471,0.107-0.762v-5.683h1.922V42.664z"/>
	<path fill="#FFFFFF" d="M47.102,43.396c0.329,0.208,0.931,0.461,1.512,0.461c0.686,0,1.105-0.366,1.105-1.003   c0-0.549-0.255-0.91-1.068-1.423c-1.303-0.776-1.777-1.619-1.777-2.51c0-1.51,1.101-2.619,2.681-2.619c0.71,0,1.26,0.2,1.682,0.427   l-0.394,1.419c-0.334-0.211-0.728-0.373-1.198-0.373c-0.664,0-0.991,0.44-0.991,0.912c0,0.478,0.213,0.75,1.055,1.286   c1.166,0.696,1.787,1.56,1.787,2.654c0,1.782-1.247,2.692-2.896,2.692c-0.688,0-1.485-0.198-1.876-0.505L47.102,43.396z"/>
</g>
<g>
</g>
<g>
</g>
<g>
</g>
<g>
</g>
<g>
</g>
<g>
</g>
</svg>