<!-- Generator: Adobe Illustrator 25.2.3, SVG Export Plug-In . SVG Version: 6.00 Build 0)  --><svg x="0px" enable-background="new 0 0 60 60" y="0px" width="60px" xmlns:xlink="http://www.w3.org/1999/xlink" viewBox="0 0 60 60" height="60px" id="Layer_1" xmlns="http://www.w3.org/2000/svg" xml:space="preserve" version="1.1">
<rect width="60" x="-0.012" fill="#EF3C23" height="60" id="UnitColor_1_"/>
<rect width="60" fill="#640D0D" height="19.623" id="CS_1_" y="11.533"/>
<g id="Gar" display="none">
	<rect width="14.843" fill="none" x="0.73" height="8.039" y="2.802" display="inline"/>
	<path fill="#FFFFFF" d="M11.03,10.06c-0.472,0.163-1.361,0.379-2.249,0.379c-1.231,0-2.119-0.308-2.739-0.903   C5.424,8.949,5.085,8.072,5.089,7.083C5.097,4.842,6.73,3.567,8.936,3.567c0.87,0,1.539,0.165,1.873,0.323L10.49,5.111   C10.117,4.95,9.664,4.825,8.922,4.825c-1.27,0-2.235,0.714-2.235,2.18c0,1.391,0.878,2.205,2.125,2.205   c0.344,0,0.623-0.04,0.745-0.095V7.699H8.516V6.512h2.514V10.06z" display="inline"/>
</g>
<g id="Eng" display="none">
	<rect width="27.832" fill="none" x="1.1" height="8.039" y="2.802" display="inline"/>
	<path fill="#FFFFFF" d="M17.011,7.521h-2.479v1.602h2.771v1.248h-4.294V3.634h4.15v1.248h-2.626v1.403h2.479   V7.521z" display="inline"/>
</g>
<g id="P2">
	<path fill="#FFFFFF" d="M19.024,28.186c0.472-1.148,0.803-2.149,0.992-3.001c0.282-1.24,0.423-2.417,0.423-3.534   c0-1.066-0.099-2.078-0.295-3.035c-0.197-0.957-0.575-2.146-1.135-3.568h1.146c0.628,1.03,1.101,2.092,1.419,3.186   c0.319,1.094,0.478,2.185,0.478,3.274c0,1.094-0.159,2.218-0.476,3.374s-0.786,2.257-1.407,3.305H19.024z"/>
</g>
<g id="P1">
	<path fill="#FFFFFF" d="M8.327,28.186H7.182c-0.605-1.025-1.071-2.111-1.396-3.257s-0.487-2.257-0.487-3.333   c0-1.162,0.163-2.296,0.489-3.401c0.326-1.105,0.795-2.154,1.408-3.148h1.146c-0.56,1.422-0.938,2.611-1.135,3.568   c-0.197,0.957-0.295,1.969-0.295,3.035c0,1.103,0.139,2.27,0.416,3.5C7.522,26.016,7.855,27.028,8.327,28.186z"/>
</g>
<g id="Type">
	<path fill="#FFFFFF" d="M53.265,12.893v17.022H26.785V12.893H53.265z M28.204,15.139v12.53l10.443-6.265L28.204,15.139z    M50.468,14.312H29.583l10.443,6.265L50.468,14.312z M29.583,28.497h20.885l-10.442-6.265L29.583,28.497z M41.404,21.404   l10.441,6.265v-12.53L41.404,21.404z"/>
</g>
<g id="STK">
	<path fill="#FFFFFF" d="M17.277,17.745h-4.502l-0.341,2.34c0.262-0.033,0.496-0.051,0.844-0.051   c1.023,0.003,2.054,0.231,2.834,0.75c0.893,0.561,1.531,1.556,1.531,2.972c0,2.229-1.845,4.054-4.723,4.054   c-1.358,0-2.49-0.342-3.106-0.689l0.454-1.676c0.501,0.271,1.516,0.617,2.578,0.617c1.293,0,2.537-0.741,2.531-2.133   c-0.006-1.337-0.989-2.229-3.322-2.229c-0.659,0-1.144,0.05-1.6,0.113l0.759-5.905h6.062V17.745z"/>
</g>
<g id="ECH">
	<rect width="27.832" x="26.078" fill="none" height="8.039" y="2.802"/>
	<path fill="#FFFFFF" d="M38.123,10.37l-0.608-1.219c-0.243-0.472-0.411-0.823-0.597-1.213h-0.021   c-0.141,0.391-0.306,0.744-0.524,1.209l-0.557,1.223h-1.734l1.946-3.411L34.15,3.634h1.752l0.59,1.227   c0.196,0.409,0.342,0.742,0.502,1.12h0.025c0.163-0.428,0.287-0.728,0.46-1.116l0.565-1.23h1.739l-1.898,3.287l1.999,3.449H38.123z   "/>
	<path fill="#FFFFFF" d="M44.145,10.37l-0.608-1.219c-0.244-0.472-0.411-0.823-0.597-1.213h-0.021   c-0.141,0.391-0.307,0.744-0.524,1.209l-0.558,1.223h-1.734l1.947-3.411l-1.878-3.325h1.751l0.59,1.227   c0.197,0.409,0.343,0.742,0.502,1.12h0.026c0.162-0.428,0.287-0.728,0.459-1.116l0.566-1.23h1.739l-1.899,3.287l2,3.449H44.145z"/>
</g>
<g id="PF">
	<rect width="60" x="0" fill="none" height="15.475" y="44.525"/>
	<path fill="#FFFFFF" d="M29.696,52.494v0.939H27.71v-0.939H29.696z"/>
	<path fill="#FFFFFF" d="M32.285,52.494v0.939H30.3v-0.939H32.285z"/>
</g>
<g id="Des">
	<rect width="60" x="0" fill="none" height="14.525" y="31.722"/>
	<path fill="#FFFFFF" d="M15.564,43.744c0.382,0,0.629-0.025,0.984-0.098c0.513-0.118,1.053-0.395,1.473-0.806   c0.564-0.58,1.038-1.528,1.236-2.791H19.21c-0.407,0.477-0.98,0.838-1.776,0.838c-1.494,0-2.667-1.351-2.667-3.488   c0-2.061,1.198-4.035,3.244-4.035c2.103,0,3.152,2.043,3.152,4.761c0,2.496-0.732,4.33-1.755,5.542   c-0.707,0.853-1.712,1.413-2.808,1.614c-0.371,0.069-0.71,0.075-1.036,0.075V43.744z M16.667,37.245   c0.01,1.395,0.493,2.281,1.309,2.281c0.489,0,0.946-0.348,1.147-0.802c0.083-0.213,0.108-0.424,0.108-1.026   c0-1.949-0.557-2.912-1.317-2.912C17.262,34.786,16.646,35.556,16.667,37.245z"/>
	<path fill="#FFFFFF" d="M27.245,42.049l-0.655,3.163h-1.863l2.699-12.136h2.245l2.509,12.136h-1.878l-0.644-3.163H27.245z    M29.457,40.543l-0.508-2.786c-0.145-0.793-0.307-1.913-0.438-2.763h-0.051c-0.134,0.857-0.314,2.014-0.461,2.771l-0.531,2.778   H29.457z"/>
	<path fill="#FFFFFF" d="M39.253,42.664c0,0.952,0.044,1.803,0.072,2.548h-1.666l-0.112-0.921h-0.036   c-0.345,0.519-1.036,1.065-1.96,1.065c-1.606,0-2.246-1.214-2.246-3.495v-5.415h1.922v5.182c0,1.248,0.226,2.119,1.012,2.119   c0.589,0,0.89-0.512,0.985-0.856c0.066-0.198,0.107-0.471,0.107-0.762v-5.683h1.922V42.664z"/>
	<path fill="#FFFFFF" d="M40.909,43.396c0.329,0.208,0.931,0.461,1.512,0.461c0.686,0,1.105-0.366,1.105-1.003   c0-0.549-0.255-0.91-1.068-1.423c-1.303-0.776-1.776-1.619-1.776-2.51c0-1.51,1.1-2.619,2.68-2.619c0.71,0,1.26,0.2,1.682,0.427   l-0.394,1.419c-0.334-0.211-0.728-0.373-1.198-0.373c-0.664,0-0.991,0.44-0.991,0.912c0,0.478,0.213,0.75,1.055,1.286   c1.166,0.696,1.787,1.56,1.787,2.654c0,1.782-1.247,2.692-2.896,2.692c-0.688,0-1.485-0.198-1.876-0.505L40.909,43.396z"/>
</g>
<g>
</g>
<g>
</g>
<g>
</g>
<g>
</g>
<g>
</g>
<g>
</g>
</svg>