<svg width="37.5" height="60" xmlns="http://www.w3.org/2000/svg" viewBox="0 0 37.5 60">
  <g>
    <rect fill="#999" height="60" width="37.5"/>
    <polygon fill="#666766" points="31.281 30.545 31.281 0 0 0 31.281 30.545" fill-rule="evenodd"/>
    <polygon fill="#666766" points="37.5 60 37.5 30 6.777 30 37.5 60" fill-rule="evenodd"/>
    <rect fill="#666766" x="29.792" width="7.708" height="32.403"/>
    <rect fill="#cccccb" x="2.768" width="32.039" height="54.702" y="2.649"/>
  </g>
  <g>
    <rect fill="#333" x="7.463" width="22.051" height="6.219" y="15.96"/>
    <rect fill="#333" x="7.452" width="22.051" height="6.219" y="15.994" transform="translate(-0.626 37.581) rotate(-90)"/>
    <rect fill="#333" x="23.262" width="0.325" height="6.205" y="8.038"/>
    <rect fill="#333" x="26.211" width="0.325" height="6.205" y="11.037" transform="translate(12.234 40.512) rotate(-90)"/>
    <rect fill="#333" x="10.392" width="0.325" height="6.205" y="11.052" transform="translate(-3.6 24.708) rotate(-90)"/>
    <rect fill="#333" x="13.39" width="0.325" height="6.205" y="8.103" transform="translate(27.106 22.41) rotate(-180)"/>
    <rect fill="#333" x="13.365" width="0.325" height="6.205" y="23.961" transform="translate(27.056 54.126) rotate(-180)"/>
    <rect fill="#333" x="10.417" width="0.325" height="6.205" y="20.962" transform="translate(34.644 13.486) rotate(90)"/>
    <rect fill="#333" x="26.238" width="0.325" height="6.205" y="20.95" transform="translate(50.453 -2.348) rotate(90)"/>
    <rect fill="#333" x="23.239" width="0.325" height="6.205" y="23.899"/>
  </g>
  <path fill="#333" d="M14.646,52.138a1.061,1.061,0,0,1-.779-.252.926.926,0,0,1-.252-.684,1.085,1.085,0,0,1,.132-.516,2.439,2.439,0,0,1,.372-.516l5.375-5.76a10.367,10.367,0,0,0,1.764-2.436,5.148,5.148,0,0,0,.541-2.268,2.743,2.743,0,0,0-.877-2.2,3.808,3.808,0,0,0-2.555-.756,6.122,6.122,0,0,0-2.04.336,6.442,6.442,0,0,0-1.849,1.032.824.824,0,0,1-.563.216.772.772,0,0,1-.445-.192.847.847,0,0,1-.263-.432.914.914,0,0,1,.011-.528.986.986,0,0,1,.372-.48,7.438,7.438,0,0,1,2.256-1.236A8,8,0,0,1,18.535,35a7.011,7.011,0,0,1,2.879.528,3.788,3.788,0,0,1,1.775,1.548,4.811,4.811,0,0,1,.6,2.484,6.251,6.251,0,0,1-.324,1.98,8.642,8.642,0,0,1-.985,1.979,13.849,13.849,0,0,1-1.716,2.088l-5.112,5.4v-.552h8.088a1,1,0,0,1,.684.2.778.778,0,0,1,.228.611.854.854,0,0,1-.228.649.966.966,0,0,1-.684.216Z"/>
</svg>