<svg width="37.5" height="60" xmlns="http://www.w3.org/2000/svg" viewBox="0 0 37.5 60">
  <g>
    <rect fill="#999" height="60" width="37.5"/>
    <polygon fill="#666766" points="31.281 30.545 31.281 0 0 0 31.281 30.545" fill-rule="evenodd"/>
    <polygon fill="#666766" points="37.5 60 37.5 30 6.777 30 37.5 60" fill-rule="evenodd"/>
    <rect fill="#666766" x="29.792" width="7.708" height="32.403"/>
    <rect fill="#cccccb" x="2.768" width="32.039" height="54.702" y="2.649"/>
  </g>
  <g>
    <rect fill="#333" x="7.463" width="22.051" height="6.219" y="15.96"/>
    <rect fill="#333" x="7.452" width="22.051" height="6.219" y="15.994" transform="translate(-0.626 37.581) rotate(-90)"/>
    <rect fill="#333" x="23.262" width="0.325" height="6.205" y="8.038"/>
    <rect fill="#333" x="26.211" width="0.325" height="6.205" y="11.037" transform="translate(12.234 40.512) rotate(-90)"/>
    <rect fill="#333" x="10.392" width="0.325" height="6.205" y="11.052" transform="translate(-3.6 24.708) rotate(-90)"/>
    <rect fill="#333" x="13.39" width="0.325" height="6.205" y="8.103" transform="translate(27.106 22.41) rotate(-180)"/>
    <rect fill="#333" x="13.365" width="0.325" height="6.205" y="23.961" transform="translate(27.056 54.126) rotate(-180)"/>
    <rect fill="#333" x="10.417" width="0.325" height="6.205" y="20.962" transform="translate(34.644 13.486) rotate(90)"/>
    <rect fill="#333" x="26.238" width="0.325" height="6.205" y="20.95" transform="translate(50.453 -2.348) rotate(90)"/>
    <rect fill="#333" x="23.239" width="0.325" height="6.205" y="23.899"/>
  </g>
  <path fill="#333" d="M15.27,52.138a.937.937,0,0,1-.672-.228.836.836,0,0,1-.24-.637.758.758,0,0,1,.24-.611,1.007,1.007,0,0,1,.672-.2h3.12V36.85h1.032l-3.48,2.3a1.048,1.048,0,0,1-.588.144.709.709,0,0,1-.456-.2.981.981,0,0,1-.252-.432.858.858,0,0,1,.024-.528.91.91,0,0,1,.409-.468l3.311-2.184a4.283,4.283,0,0,1,.6-.312,1.483,1.483,0,0,1,.575-.12.747.747,0,0,1,.791.84V50.458h2.881a1.009,1.009,0,0,1,.672.2.758.758,0,0,1,.24.611.83.83,0,0,1-.24.649.976.976,0,0,1-.672.216Z"/>
</svg>