<svg width="60.973" height="60" xmlns="http://www.w3.org/2000/svg" viewBox="0 0 60.973 60">
  <rect fill="#ffcd34" x="0.486" width="60" height="60"/>
  <g>
    <polygon fill="#010101" points="15.276 31.692 22.543 38.952 17.825 47.007 11.526 40.803 15.276 31.692" fill-rule="evenodd"/>
    <path fill="#010101" d="M22.075,51.759l-6.007-6.007,4.107-4.107L30.3,51.765h-.143l-.077.005h-.066l-.12,0h-.618l-.181-.049-.2-.092-.176-.122a1.66,1.66,0,0,0-.279-.3,1.363,1.363,0,0,0-.365-.313.838.838,0,0,0-.31-.081.813.813,0,0,0-.317.044.8.8,0,0,0-.277.16.825.825,0,0,0-.2.254.713.713,0,0,0-.075.184l-.124.045-.019,0-.035,0-.094,0a1.359,1.359,0,0,0-.422.054l-.026,0-.091,0-.049,0h-.055l-.117,0h-.648l-.118,0-.108,0h-.268l-.146,0h-.149l-.017-.011-.15-.133-.128-.127-.058-.061-.032-.047-.063-.113a1.341,1.341,0,0,0-.32-.431.816.816,0,0,0-.325-.145.8.8,0,0,0-.357.006.826.826,0,0,0-.321.155.814.814,0,0,0-.224.277.979.979,0,0,0-.082.184l-.037.112c-.041.1-.065.168-.071.19-.029.084-.045.128-.046.134l-.038.075,0,.009" fill-rule="evenodd" transform="translate(0.486 0)"/>
    <path fill="#010101" d="M25.532,51.572l.064,0h.128l.128.005h.216l.1,0,.016,0a1.456,1.456,0,0,1,.432-.054l.094,0,.035,0,.019,0,.124-.045a.713.713,0,0,1,.075-.184.837.837,0,0,1,.2-.254.839.839,0,0,1,.6-.2.838.838,0,0,1,.31.081,1.363,1.363,0,0,1,.365.313,1.66,1.66,0,0,1,.279.3l.176.122.2.092.181.049h.8l.085-.005.171.007h.389l.113,0,.051,0,.042,0,.047,0c.006,0,.09-.024.251-.061l.011-.042a.643.643,0,0,1,.066-.219.794.794,0,0,1,.177-.256.814.814,0,0,1,.259-.174,1.338,1.338,0,0,1,.463-.068.688.688,0,0,1,.2.051,1.362,1.362,0,0,1,.384.258l.029.023.008,0a2.143,2.143,0,0,1,.287.12,3.123,3.123,0,0,1,.309.12l.113,0h.784l.112,0,.069-.006.037-.005-4.489-4.489-4.553,4.553" fill-rule="evenodd" transform="translate(0.486 0)"/>
    <path fill="#010101" d="M31.1,51.72l-.119.037-1.773-1.773,4.4-4.4,4.4,4.4-1.394,1.394H36.6l-.1,0-.092,0h-.436a1.377,1.377,0,0,0-.447.06l-.182.056-.023,0-.079.005-.048,0-.108,0H33.531l-.113,0a3.123,3.123,0,0,0-.309-.12,2.143,2.143,0,0,0-.287-.12l-.008,0-.029-.023A1.366,1.366,0,0,0,32.412,51a.7.7,0,0,0-.2-.053,1.334,1.334,0,0,0-.366.025.805.805,0,0,0-.225.1.826.826,0,0,0-.318.364.873.873,0,0,0-.068.243l-.007.028" fill-rule="evenodd" transform="translate(0.486 0)"/>
    <path fill="#010101" d="M40.285,51.325l-.142.083,1.414-1.414,1.769,1.769-.06-.013a1.444,1.444,0,0,0-.436-.166l-.09-.038a1.652,1.652,0,0,0-.388-.148h-.026a1.367,1.367,0,0,0-.362-.128h-.072a1.652,1.652,0,0,0-.311-.074l-.049,0-.053,0h-.055l-.057,0h-.058l-.117,0-.108.005-.116,0a1.451,1.451,0,0,0-.526.061" fill-rule="evenodd" transform="translate(0.486 0)"/>
    <rect fill="#010101" x="19.173" width="12.299" height="1.856" y="40.34" transform="translate(-21.278 29.993) rotate(-45)"/>
    <polygon fill="#010101" points="31.543 40.795 31.637 42.129 25.525 42.321 25.492 40.559 31.543 40.795" fill-rule="evenodd"/>
    <rect fill="#010101" x="22.714" width="5.051" height="1.518" y="37.977" transform="translate(-13.933 62.499) rotate(-87.841)"/>
    <path stroke-linecap="round" transform="translate(0.486 0)" fill="none" stroke-linejoin="round" d="M50.768,49.613c0,.038,0,.112-.012.219a1.883,1.883,0,0,1-.047.3c-.024.095-.052.187-.083.277a1.89,1.89,0,0,1-.11.249c-.041.076-.086.153-.136.229a2.323,2.323,0,0,1-.162.218,2.033,2.033,0,0,1-.207.212,2.6,2.6,0,0,1-.262.207,1.707,1.707,0,0,1-.29.164c-.1.045-.183.079-.247.1a2.026,2.026,0,0,1-.255.072,1.983,1.983,0,0,1-.327.048,2.355,2.355,0,0,1-.336,0,2.242,2.242,0,0,1-.954-.285,2.518,2.518,0,0,1-.277-.18,1.961,1.961,0,0,1-.257-.229,2.955,2.955,0,0,1-.22-.257,1.552,1.552,0,0,1-.172-.281c-.048-.1-.087-.191-.116-.265a2.2,2.2,0,0,1-.088-.294,2.8,2.8,0,0,1-.057-.509" stroke="#010101" stroke-width="0.973"/>
    <path stroke-linecap="round" transform="translate(0.486 0)" fill="none" stroke-linejoin="round" d="M55.383,49.612c0,.039,0,.112-.012.22a1.883,1.883,0,0,1-.047.3c-.024.095-.052.187-.083.276a1.78,1.78,0,0,1-.11.249c-.041.077-.086.153-.136.23a2.323,2.323,0,0,1-.162.218,2.136,2.136,0,0,1-.207.212,2.7,2.7,0,0,1-.261.207,1.755,1.755,0,0,1-.291.164c-.1.044-.183.078-.247.1a2.026,2.026,0,0,1-.255.072,2.222,2.222,0,0,1-.327.048,2.355,2.355,0,0,1-.336,0,2.2,2.2,0,0,1-.339-.05,2.357,2.357,0,0,1-.321-.1,2.189,2.189,0,0,1-.294-.139,2.672,2.672,0,0,1-.277-.18,1.961,1.961,0,0,1-.257-.229,2.955,2.955,0,0,1-.22-.257,1.527,1.527,0,0,1-.172-.282c-.048-.1-.087-.19-.116-.265a2.132,2.132,0,0,1-.088-.293,2.816,2.816,0,0,1-.057-.51" stroke="#010101" stroke-width="0.973"/>
    <path stroke-linecap="round" transform="translate(0.486 0)" fill="none" stroke-linejoin="round" d="M41.539,49.608c0,.039,0,.112-.012.22a1.777,1.777,0,0,1-.048.3c-.024.095-.051.187-.083.276a1.778,1.778,0,0,1-.109.249c-.041.077-.087.153-.137.23a2.345,2.345,0,0,1-.161.217,2.16,2.16,0,0,1-.208.213,2.7,2.7,0,0,1-.261.207,1.678,1.678,0,0,1-.291.164q-.15.066-.246.1a2.394,2.394,0,0,1-.256.072,2.183,2.183,0,0,1-.327.048,2.355,2.355,0,0,1-.336,0,2.207,2.207,0,0,1-.338-.05,2.275,2.275,0,0,1-.321-.1,2.183,2.183,0,0,1-.294-.138,2.7,2.7,0,0,1-.278-.181,2.019,2.019,0,0,1-.257-.228,3.316,3.316,0,0,1-.22-.257,1.616,1.616,0,0,1-.171-.282c-.049-.1-.088-.191-.117-.265a2.3,2.3,0,0,1-.087-.293,2.724,2.724,0,0,1-.058-.51" stroke="#010101" stroke-width="0.973"/>
    <path stroke-linecap="round" transform="translate(0.486 0)" fill="none" stroke-linejoin="round" d="M46.154,49.608q0,.059-.012.219a1.773,1.773,0,0,1-.048.3,2.678,2.678,0,0,1-.083.276,1.778,1.778,0,0,1-.109.249c-.041.077-.087.153-.137.23a2.345,2.345,0,0,1-.161.217,2.16,2.16,0,0,1-.208.213,2.7,2.7,0,0,1-.261.207,1.746,1.746,0,0,1-.291.164q-.15.066-.246.1a2.394,2.394,0,0,1-.256.072,2.183,2.183,0,0,1-.327.048,2.691,2.691,0,0,1-.336,0,2.311,2.311,0,0,1-.659-.147,2.313,2.313,0,0,1-.294-.138,2.7,2.7,0,0,1-.278-.181,2.175,2.175,0,0,1-.257-.228,3.316,3.316,0,0,1-.22-.257,1.654,1.654,0,0,1-.171-.282c-.049-.1-.088-.191-.117-.265a2.274,2.274,0,0,1-.087-.294,2.788,2.788,0,0,1-.058-.509" stroke="#010101" stroke-width="0.973"/>
    <path stroke-linecap="round" transform="translate(0.486 0)" fill="none" stroke-linejoin="round" d="M60,49.612q0,.059-.012.219a1.761,1.761,0,0,1-.048.3,2.773,2.773,0,0,1-.083.277,1.764,1.764,0,0,1-.109.249c-.041.076-.086.153-.136.229a2.2,2.2,0,0,1-.162.218,2.14,2.14,0,0,1-.207.212,2.712,2.712,0,0,1-.262.207,1.707,1.707,0,0,1-.29.164c-.1.045-.183.079-.247.1a2,2,0,0,1-.256.072,1.956,1.956,0,0,1-.326.048,2.355,2.355,0,0,1-.336,0,2.086,2.086,0,0,1-.339-.05,2.223,2.223,0,0,1-.321-.1,2.189,2.189,0,0,1-.294-.139,2.426,2.426,0,0,1-.277-.18,1.961,1.961,0,0,1-.257-.229,3,3,0,0,1-.221-.257,1.606,1.606,0,0,1-.171-.281c-.049-.1-.088-.191-.117-.265a2.324,2.324,0,0,1-.087-.294,2.88,2.88,0,0,1-.058-.509" stroke="#010101" stroke-width="0.973"/>
    <path stroke-linecap="round" transform="translate(0.486 0)" fill="none" stroke-linejoin="round" d="M13.845,49.605q0,.057-.012.219a1.883,1.883,0,0,1-.047.3c-.024.095-.052.187-.084.277a1.764,1.764,0,0,1-.109.249c-.041.076-.086.153-.136.229a2.323,2.323,0,0,1-.162.218,2.136,2.136,0,0,1-.207.212,2.6,2.6,0,0,1-.262.207,1.707,1.707,0,0,1-.29.164c-.1.045-.183.078-.247.1a2.026,2.026,0,0,1-.255.072,2.222,2.222,0,0,1-.327.048,2.355,2.355,0,0,1-.336,0,2.242,2.242,0,0,1-.954-.285,2.672,2.672,0,0,1-.277-.18,1.961,1.961,0,0,1-.257-.229,3.157,3.157,0,0,1-.221-.257,1.579,1.579,0,0,1-.171-.282c-.048-.1-.087-.19-.117-.265a2.3,2.3,0,0,1-.087-.293,2.814,2.814,0,0,1-.057-.509" stroke="#010101" stroke-width="0.973"/>
    <path stroke-linecap="round" transform="translate(0.486 0)" fill="none" stroke-linejoin="round" d="M18.46,49.6c0,.039,0,.112-.012.22a1.883,1.883,0,0,1-.047.3q-.036.142-.084.276a1.669,1.669,0,0,1-.109.249c-.041.077-.086.153-.136.23a2.323,2.323,0,0,1-.162.218,2.136,2.136,0,0,1-.207.212,2.6,2.6,0,0,1-.262.207,1.707,1.707,0,0,1-.29.164c-.1.044-.183.078-.247.1a2.435,2.435,0,0,1-.255.072,2.222,2.222,0,0,1-.327.048,2.355,2.355,0,0,1-.336,0,2.2,2.2,0,0,1-.339-.05,2.357,2.357,0,0,1-.321-.1,2.189,2.189,0,0,1-.294-.139,2.847,2.847,0,0,1-.277-.18,1.961,1.961,0,0,1-.257-.229,2.955,2.955,0,0,1-.22-.257,1.527,1.527,0,0,1-.172-.282c-.048-.1-.087-.19-.117-.265a2.3,2.3,0,0,1-.087-.293,2.827,2.827,0,0,1-.057-.51" stroke="#010101" stroke-width="0.973"/>
    <path stroke-linecap="round" transform="translate(0.486 0)" fill="none" stroke-linejoin="round" d="M4.616,49.6c0,.039,0,.112-.012.219a1.773,1.773,0,0,1-.048.3c-.024.1-.051.187-.083.276a1.778,1.778,0,0,1-.109.249c-.041.077-.087.153-.137.23a2.345,2.345,0,0,1-.161.217,2.16,2.16,0,0,1-.208.213,2.7,2.7,0,0,1-.261.207,1.746,1.746,0,0,1-.291.164q-.15.066-.246.1a2.394,2.394,0,0,1-.256.072,2.183,2.183,0,0,1-.327.048,2.512,2.512,0,0,1-.336,0,2.337,2.337,0,0,1-.338-.05,2.275,2.275,0,0,1-.321-.1,2.183,2.183,0,0,1-.294-.138,2.7,2.7,0,0,1-.278-.181,2.019,2.019,0,0,1-.257-.228,3.316,3.316,0,0,1-.22-.257,1.654,1.654,0,0,1-.171-.282c-.049-.1-.088-.191-.117-.265a2.3,2.3,0,0,1-.087-.293A2.724,2.724,0,0,1,0,49.6" stroke="#010101" stroke-width="0.973"/>
    <path stroke-linecap="round" transform="translate(0.486 0)" fill="none" stroke-linejoin="round" d="M9.231,49.6q0,.059-.012.219a1.773,1.773,0,0,1-.048.3c-.024.094-.051.187-.083.276a1.888,1.888,0,0,1-.109.249c-.041.077-.087.153-.137.229a2.36,2.36,0,0,1-.161.218,2.16,2.16,0,0,1-.208.213,2.7,2.7,0,0,1-.261.207,1.746,1.746,0,0,1-.291.164q-.15.066-.246.1a2.206,2.206,0,0,1-.256.071,2.062,2.062,0,0,1-.327.049,2.691,2.691,0,0,1-.336,0,2.337,2.337,0,0,1-.338-.05,2.275,2.275,0,0,1-.321-.1,2.313,2.313,0,0,1-.294-.138,2.7,2.7,0,0,1-.278-.181,2.028,2.028,0,0,1-.257-.229,3.13,3.13,0,0,1-.22-.256,1.654,1.654,0,0,1-.171-.282c-.049-.1-.088-.191-.117-.265a2.274,2.274,0,0,1-.087-.294,2.7,2.7,0,0,1-.058-.509" stroke="#010101" stroke-width="0.973"/>
    <path stroke-linecap="round" transform="translate(0.486 0)" fill="none" stroke-linejoin="round" d="M32.306,49.608q0,.059-.012.219a1.774,1.774,0,0,1-.047.3c-.024.094-.052.187-.083.276a1.888,1.888,0,0,1-.109.249c-.041.077-.087.153-.137.229a2.36,2.36,0,0,1-.161.218,2.16,2.16,0,0,1-.208.213,2.7,2.7,0,0,1-.261.207,1.787,1.787,0,0,1-.291.164c-.1.044-.183.078-.247.1a2.239,2.239,0,0,1-.255.071,2.1,2.1,0,0,1-.327.049,2.691,2.691,0,0,1-.336,0,2.308,2.308,0,0,1-.66-.147,2.449,2.449,0,0,1-.294-.138,2.683,2.683,0,0,1-.277-.181,2.1,2.1,0,0,1-.257-.228,3.316,3.316,0,0,1-.22-.257,1.535,1.535,0,0,1-.171-.282c-.049-.1-.088-.191-.117-.265a2.109,2.109,0,0,1-.088-.294,2.8,2.8,0,0,1-.057-.509" stroke="#010101" stroke-width="0.973"/>
    <path stroke-linecap="round" transform="translate(0.486 0)" fill="none" stroke-linejoin="round" d="M36.921,49.608q0,.059-.012.219a1.747,1.747,0,0,1-.047.3c-.024.095-.051.187-.083.277a1.888,1.888,0,0,1-.109.249c-.041.076-.087.153-.137.229a2.36,2.36,0,0,1-.161.218,2.052,2.052,0,0,1-.208.212,2.7,2.7,0,0,1-.261.207,1.715,1.715,0,0,1-.291.164c-.1.045-.183.079-.247.1a2.026,2.026,0,0,1-.255.072,1.968,1.968,0,0,1-.327.048,2.355,2.355,0,0,1-.336,0,2.216,2.216,0,0,1-.339-.049,2.249,2.249,0,0,1-.614-.235,2.592,2.592,0,0,1-.278-.181,2.028,2.028,0,0,1-.257-.229,3.13,3.13,0,0,1-.22-.256,1.535,1.535,0,0,1-.171-.282c-.049-.1-.088-.191-.117-.265a2.255,2.255,0,0,1-.088-.294,2.8,2.8,0,0,1-.057-.509" stroke="#010101" stroke-width="0.973"/>
    <path stroke-linecap="round" transform="translate(0.486 0)" fill="none" stroke-linejoin="round" d="M23.077,49.6c0,.038,0,.112-.012.219a1.777,1.777,0,0,1-.048.3,2.773,2.773,0,0,1-.083.277,1.888,1.888,0,0,1-.109.249c-.041.076-.086.153-.136.229a2.368,2.368,0,0,1-.162.218,2.049,2.049,0,0,1-.208.212,2.581,2.581,0,0,1-.261.207,1.678,1.678,0,0,1-.291.164q-.15.067-.246.1a2,2,0,0,1-.256.072,1.956,1.956,0,0,1-.326.048,2.369,2.369,0,0,1-.337,0,2.09,2.09,0,0,1-.338-.05,2.223,2.223,0,0,1-.321-.1,2.189,2.189,0,0,1-.294-.139,2.426,2.426,0,0,1-.277-.18,1.961,1.961,0,0,1-.257-.229,3.157,3.157,0,0,1-.221-.257,1.606,1.606,0,0,1-.171-.281c-.049-.1-.088-.191-.117-.265a2.324,2.324,0,0,1-.087-.294,2.88,2.88,0,0,1-.058-.509" stroke="#010101" stroke-width="0.973"/>
    <path stroke-linecap="round" transform="translate(0.486 0)" fill="none" stroke-linejoin="round" d="M27.692,49.6c0,.039,0,.112-.012.22a1.777,1.777,0,0,1-.048.3,2.678,2.678,0,0,1-.083.276,1.778,1.778,0,0,1-.109.249c-.041.077-.086.154-.136.23a2.513,2.513,0,0,1-.162.218,2.154,2.154,0,0,1-.208.212,2.581,2.581,0,0,1-.261.207,1.707,1.707,0,0,1-.29.164c-.1.044-.183.078-.247.1a2,2,0,0,1-.256.072,2.189,2.189,0,0,1-.326.048,2.369,2.369,0,0,1-.337,0,2.207,2.207,0,0,1-.338-.05,2.357,2.357,0,0,1-.321-.1,2.189,2.189,0,0,1-.294-.139,2.57,2.57,0,0,1-.277-.18,1.961,1.961,0,0,1-.257-.229,3.157,3.157,0,0,1-.221-.257,1.579,1.579,0,0,1-.171-.282c-.049-.1-.088-.19-.117-.265a2.3,2.3,0,0,1-.087-.293,2.893,2.893,0,0,1-.058-.51" stroke="#010101" stroke-width="0.973"/>
  </g>
  <g>
    <path d="M12.768,5.448a8.335,8.335,0,0,1,1.858-.182,3.29,3.29,0,0,1,2.25.66A2.166,2.166,0,0,1,17.548,7.6a2.19,2.19,0,0,1-1.4,2.075V9.72a2.28,2.28,0,0,1,1.706,2.324,2.646,2.646,0,0,1-.683,1.861,3.64,3.64,0,0,1-2.831.91,10.32,10.32,0,0,1-1.569-.1Zm1.487,3.8H14.7a1.4,1.4,0,0,0,1.377-1.478A1.2,1.2,0,0,0,14.782,6.4a1.737,1.737,0,0,0-.527.062Zm0,4.364a2.2,2.2,0,0,0,.471.04A1.476,1.476,0,0,0,16.3,12.028a1.553,1.553,0,0,0-1.617-1.661h-.431Z" transform="translate(0.486 0)"/>
    <path d="M19,5.056h1.5v9.693H19Z" transform="translate(0.486 0)"/>
    <path d="M26.562,11.323c0,2.751-1.416,3.538-2.453,3.538-1.447,0-2.434-1.21-2.434-3.506,0-2.463,1.21-3.538,2.484-3.538C25.59,7.817,26.562,9.075,26.562,11.323Zm-3.395.008c0,1.148.194,2.376.99,2.376.744,0,.914-1.347.914-2.376,0-.988-.17-2.359-.942-2.359C23.329,8.972,23.167,10.343,23.167,11.331Z" transform="translate(0.486 0)"/>
    <path d="M31.259,14.608a2.678,2.678,0,0,1-1.148.225c-1.62,0-2.7-1.2-2.7-3.439,0-2.043,1.129-3.56,2.938-3.56a2.349,2.349,0,0,1,.98.2L31.1,9.218a1.849,1.849,0,0,0-.722-.153c-.973,0-1.475,1.043-1.475,2.3,0,1.395.562,2.244,1.475,2.244a1.6,1.6,0,0,0,.729-.162Z" transform="translate(0.486 0)"/>
    <path d="M33.543,11h.028c.126-.34.237-.609.355-.867l1.091-2.2h1.614l-1.719,2.861,1.842,3.958H35.087l-1.2-2.985-.347.61v2.375H32.056V5.056h1.487Z" transform="translate(0.486 0)"/>
    <path d="M38.473,11.741c.015,1.524.723,1.938,1.519,1.938a3.143,3.143,0,0,0,1.224-.242l.212,1.076a4.338,4.338,0,0,1-1.707.32c-1.758,0-2.7-1.275-2.7-3.386,0-2.257,1.081-3.63,2.537-3.63,1.434,0,2.157,1.3,2.157,3.125a5.97,5.97,0,0,1-.04.8Zm1.855-1.064c.012-1.095-.348-1.745-.878-1.745-.648,0-.941.945-.971,1.745Z" transform="translate(0.486 0)"/>
    <path d="M47.373,5.056v7.85c0,.56.034,1.32.057,1.843H46.146l-.088-.809h-.04a1.611,1.611,0,0,1-1.422.921c-1.32,0-2.061-1.447-2.061-3.5,0-2.393,1.028-3.542,2.13-3.542a1.239,1.239,0,0,1,1.193.742h.029v-3.5Zm-1.486,5.481a2.634,2.634,0,0,0-.023-.421c-.063-.548-.371-1.033-.811-1.033-.756,0-1.027,1.076-1.027,2.3,0,1.361.363,2.248.99,2.248.281,0,.63-.147.818-.845a1.534,1.534,0,0,0,.053-.438Z" transform="translate(0.486 0)"/>
  </g>
  <g>
    <path d="M16.447,19.833v3.905H18.69V19.833h1.495v9.441H18.69V25.116H16.447v4.158H14.952V19.833Z" transform="translate(0.486 0)"/>
    <path d="M24.588,29.274,24.5,28.58h-.034a1.666,1.666,0,0,1-1.444.806,1.816,1.816,0,0,1-1.716-2.016c0-1.753,1.482-2.494,3.025-2.507v-.181c0-.71-.278-1.209-1.019-1.209a2.306,2.306,0,0,0-1.272.378l-.288-1.02a3.8,3.8,0,0,1,1.885-.489c1.756,0,2.2,1.2,2.2,2.654v2.725a10.572,10.572,0,0,0,.088,1.553Zm-.217-3.415c-.582.009-1.637.17-1.637,1.357,0,.77.41,1.048.739,1.048a.906.906,0,0,0,.861-.781,1.346,1.346,0,0,0,.037-.346Z" transform="translate(0.486 0)"/>
    <path d="M27.227,24.376c0-.631-.035-1.341-.057-1.921h1.308l.076,1.029H28.6a1.616,1.616,0,0,1,1.385-1.142,1.563,1.563,0,0,1,.317.025v1.495a1.89,1.89,0,0,0-.319-.016,1.335,1.335,0,0,0-1.2,1.171,3.114,3.114,0,0,0-.061.653v3.6h-1.5Z" transform="translate(0.486 0)"/>
    <path d="M30.992,29.274c.022-.507.056-1.283.056-1.843v-7.85h1.487V23.2h.028a1.565,1.565,0,0,1,1.429-.856c1.207,0,1.9,1.374,1.9,3.387,0,2.423-.979,3.657-2.155,3.657a1.421,1.421,0,0,1-1.344-.955h-.041l-.087.843Zm1.543-2.425a1.458,1.458,0,0,0,.061.43c.2.719.545.873.8.873.727,0,1.007-.95,1.007-2.319,0-1.264-.294-2.225-1.019-2.225-.384,0-.7.444-.8.892a2.218,2.218,0,0,0-.054.442Z" transform="translate(0.486 0)"/>
    <path d="M41.627,25.848c0,2.751-1.417,3.538-2.454,3.538-1.446,0-2.433-1.21-2.433-3.506,0-2.463,1.21-3.538,2.484-3.538C40.654,22.342,41.627,23.6,41.627,25.848Zm-3.4.008c0,1.148.2,2.376.991,2.376.744,0,.914-1.347.914-2.376,0-.988-.17-2.359-.943-2.359C38.394,23.5,38.231,24.868,38.231,25.856Z" transform="translate(0.486 0)"/>
    <path d="M42.738,24.376c0-.631-.034-1.341-.055-1.921H43.99l.076,1.029h.044A1.616,1.616,0,0,1,45.5,22.342a1.55,1.55,0,0,1,.317.025v1.495a1.884,1.884,0,0,0-.319-.016,1.334,1.334,0,0,0-1.2,1.171,3.032,3.032,0,0,0-.063.653v3.6H42.738Z" transform="translate(0.486 0)"/>
  </g>
</svg>