<!-- Generator: Adobe Illustrator 25.2.3, SVG Export Plug-In . SVG Version: 6.00 Build 0)  --><svg x="0px" enable-background="new 0 0 60 60" y="0px" width="60px" xmlns:xlink="http://www.w3.org/1999/xlink" viewBox="0 0 60 60" height="60px" id="Layer_1" xmlns="http://www.w3.org/2000/svg" xml:space="preserve" version="1.1">
<rect width="60" fill="#CB2026" x="-0.012" height="60" id="UnitColor_2_" y="-0.085"/>
<rect width="60" fill="#640D0D" height="20.2" id="CS_1_" y="11.533" display="none"/>
<g id="Gar" display="none">
	<rect width="14.843" fill="none" x="0.73" height="8.039" y="2.802" display="inline"/>
	<path fill="#FFFFFF" d="M11.03,10.06c-0.472,0.163-1.361,0.379-2.249,0.379c-1.231,0-2.119-0.308-2.739-0.903   C5.424,8.949,5.085,8.072,5.089,7.083C5.097,4.842,6.73,3.567,8.936,3.567c0.87,0,1.539,0.165,1.873,0.323L10.49,5.111   C10.117,4.95,9.664,4.825,8.922,4.825c-1.27,0-2.235,0.714-2.235,2.18c0,1.391,0.878,2.205,2.125,2.205   c0.344,0,0.623-0.04,0.745-0.095V7.699H8.516V6.512h2.514V10.06z" display="inline"/>
</g>
<g id="Eng" display="none">
	<rect width="27.832" fill="none" x="1.1" height="8.039" y="2.802" display="inline"/>
	<path fill="#FFFFFF" d="M17.011,7.521h-2.479v1.602h2.771v1.248h-4.294V3.634h4.15v1.248h-2.626v1.403h2.479   V7.521z" display="inline"/>
</g>
<g id="P2" display="none">
	<path fill="#FFFFFF" d="M19.024,28.186c0.472-1.148,0.803-2.149,0.992-3.001c0.282-1.24,0.423-2.417,0.423-3.534   c0-1.066-0.099-2.078-0.295-3.035c-0.197-0.957-0.575-2.146-1.135-3.568h1.146c0.628,1.03,1.101,2.092,1.419,3.186   c0.319,1.094,0.478,2.185,0.478,3.274c0,1.094-0.159,2.218-0.476,3.374s-0.786,2.257-1.407,3.305H19.024z" display="inline"/>
</g>
<g id="P1" display="none">
	<path fill="#FFFFFF" d="M8.327,28.186H7.182c-0.605-1.025-1.071-2.111-1.396-3.257s-0.487-2.257-0.487-3.333   c0-1.162,0.163-2.296,0.489-3.401c0.326-1.105,0.795-2.154,1.408-3.148h1.146c-0.56,1.422-0.938,2.611-1.135,3.568   c-0.197,0.957-0.295,1.969-0.295,3.035c0,1.103,0.139,2.27,0.416,3.5C7.522,26.016,7.855,27.028,8.327,28.186z" display="inline"/>
</g>
<g id="Type">
	<path fill="#FFFFFF" d="M53.265,12.893v17.022H26.785V12.893H53.265z M28.204,28.497h4.682c-1.933-0.031-3.49-1.601-3.49-3.54   c0-1.654,1.138-3.033,2.671-3.423c-1.3-0.748-2.178-2.145-2.152-3.748c0.023-1.458,0.766-2.725,1.891-3.474h-3.602V28.497z    M32.941,22.83c-1.175,0.001-2.126,0.952-2.127,2.127c0,1.174,0.953,2.126,2.127,2.126c1.174,0,2.127-0.952,2.127-2.126   C35.068,23.782,34.115,22.83,32.941,22.83z M48.716,17.898c0.024-1.566-1.229-2.861-2.793-2.886H34.141   c-0.004,0-0.008,0.003-0.013,0.003c-1.542,0.024-2.769,1.252-2.795,2.793c-0.025,1.566,1.228,2.861,2.795,2.887   c0.004,0,0.008,0.003,0.013,0.003h11.754c0.01-0.001,0.017-0.006,0.026-0.006C47.463,20.667,48.69,19.44,48.716,17.898z    M37.929,22.117h-2.884c0.87,0.646,1.441,1.673,1.441,2.84c0,1.938-1.558,3.508-3.489,3.54h6.979   c-1.932-0.031-3.489-1.601-3.489-3.54C36.486,23.79,37.058,22.763,37.929,22.117z M40.032,22.83   c-1.175,0.001-2.126,0.952-2.127,2.127c0,1.174,0.952,2.126,2.127,2.126c1.174,0,2.126-0.952,2.126-2.126   C42.158,23.782,41.206,22.83,40.032,22.83z M51.845,28.497V14.311h-3.621c1.168,0.777,1.935,2.107,1.91,3.61   c-0.025,1.556-0.877,2.882-2.128,3.605c1.529,0.395,2.663,1.771,2.663,3.421c0,1.958-1.587,3.544-3.545,3.545   s-3.545-1.586-3.546-3.544c0-1.162,0.566-2.185,1.431-2.831h-2.874c0.871,0.646,1.442,1.673,1.442,2.84   c0,1.938-1.559,3.508-3.489,3.54H51.845z M44.996,24.947c0,1.175,0.952,2.127,2.126,2.127c1.175,0,2.127-0.952,2.127-2.127   c0-1.174-0.952-2.126-2.127-2.126C45.949,22.822,44.997,23.774,44.996,24.947z"/>
</g>
<g id="STK">
	<path fill="#FFFFFF" d="M13.307,17.911h-0.036l-2.139,1.074l-0.386-1.671l2.857-1.406h1.847v11.703h-2.144V17.911z"/>
</g>
<g id="ECH">
	<rect width="27.832" x="26.078" fill="none" height="8.039" y="2.802"/>
	<path fill="#FFFFFF" d="M39.33,3.634v6.736h-1.523V3.634H39.33z"/>
	<path fill="#FFFFFF" d="M42.18,3.634v6.736h-1.522V3.634H42.18z"/>
</g>
<g id="PF">
	<rect width="60" x="0" fill="none" height="15.475" y="44.525"/>
	<path fill="#FFFFFF" d="M29.696,52.494v0.939H27.71v-0.939H29.696z"/>
	<path fill="#FFFFFF" d="M32.285,52.494v0.939H30.3v-0.939H32.285z"/>
</g>
<g id="Des">
	<rect width="60" x="0" fill="none" height="14.525" y="31.722"/>
	<path fill="#FFFFFF" d="M9.134,35.361H9.098L7.13,36.427l-0.342-1.503l2.587-1.415h1.652v11.703H9.134V35.361z"/>
	<path fill="#FFFFFF" d="M17.088,33.257c0.671-0.16,1.511-0.234,2.315-0.234c1.247,0,2.292,0.216,3.007,0.887   c0.676,0.641,0.916,1.451,0.916,2.453c0,1.414-0.68,2.506-1.907,3.074v0.036c0.854,0.306,1.297,1.111,1.544,2.548   c0.255,1.486,0.545,2.777,0.74,3.191h-1.994c-0.16-0.348-0.417-1.538-0.625-2.948c-0.234-1.58-0.683-2.093-1.644-2.093H19v5.041   h-1.912V33.257z M19,38.688h0.5c1.156,0,1.878-0.898,1.878-2.13c0-1.2-0.482-1.998-1.734-2.019c-0.242,0-0.489,0.018-0.644,0.072   V38.688z"/>
	<path fill="#FFFFFF" d="M30.809,40.809c0,3.535-1.822,4.548-3.154,4.548c-1.859,0-3.127-1.556-3.127-4.507   c0-3.166,1.555-4.547,3.192-4.547C29.559,36.303,30.809,37.919,30.809,40.809z M26.444,40.819c0,1.476,0.25,3.053,1.272,3.053   c0.957,0,1.175-1.73,1.175-3.053c0-1.271-0.219-3.033-1.211-3.033C26.653,37.786,26.444,39.548,26.444,40.819z"/>
	<path fill="#FFFFFF" d="M33.417,36.446l0.994,4.776c0.127,0.59,0.207,1.107,0.3,1.619h0.035c0.078-0.471,0.184-1.043,0.284-1.599   l0.865-4.797h1.889l-1.629,6.258c-0.479,1.896-1.07,3.783-2.051,4.998c-0.686,0.833-1.467,1.239-1.809,1.36l-0.621-1.652   c0.403-0.178,0.823-0.495,1.196-0.895c0.337-0.374,0.602-0.838,0.759-1.236c0.072-0.181,0.11-0.281,0.11-0.407   c0-0.107-0.021-0.216-0.057-0.324l-2.318-8.102H33.417z"/>
	<path fill="#FFFFFF" d="M42.329,45.212l-0.113-0.893h-0.043c-0.438,0.676-1.088,1.037-1.856,1.037   c-1.257,0-2.206-1.055-2.206-2.593c0-2.252,1.905-3.204,3.888-3.222V39.31c0-0.913-0.356-1.555-1.31-1.555   c-0.627,0-1.159,0.183-1.635,0.486l-0.369-1.312c0.432-0.272,1.354-0.627,2.422-0.627c2.257,0,2.834,1.545,2.834,3.41v3.503   c0,0.682,0.021,1.415,0.113,1.996H42.329z M42.05,40.822c-0.748,0.011-2.104,0.219-2.104,1.744c0,0.989,0.528,1.347,0.95,1.347   c0.482,0,0.945-0.327,1.107-1.003c0.036-0.137,0.047-0.294,0.047-0.445V40.822z"/>
	<path fill="#FFFFFF" d="M45.729,32.752h1.922v12.46h-1.922V32.752z"/>
	<path fill="#FFFFFF" d="M49.362,43.396c0.329,0.208,0.931,0.461,1.512,0.461c0.686,0,1.105-0.366,1.105-1.003   c0-0.549-0.255-0.91-1.068-1.423c-1.303-0.776-1.776-1.619-1.776-2.51c0-1.51,1.1-2.619,2.68-2.619c0.71,0,1.26,0.2,1.682,0.427   l-0.394,1.419c-0.334-0.211-0.728-0.373-1.198-0.373c-0.664,0-0.991,0.44-0.991,0.912c0,0.478,0.213,0.75,1.055,1.286   c1.166,0.696,1.787,1.56,1.787,2.654c0,1.782-1.247,2.692-2.896,2.692c-0.688,0-1.485-0.198-1.876-0.505L49.362,43.396z"/>
</g>
<g>
</g>
<g>
</g>
<g>
</g>
<g>
</g>
<g>
</g>
<g>
</g>
</svg>