<!-- Generator: Adobe Illustrator 25.2.3, SVG Export Plug-In . SVG Version: 6.00 Build 0)  --><svg x="0px" enable-background="new 0 0 60 60" y="0px" width="60px" xmlns:xlink="http://www.w3.org/1999/xlink" viewBox="0 0 60 60" height="60px" id="Layer_1" xmlns="http://www.w3.org/2000/svg" xml:space="preserve" version="1.1">
<rect width="60" fill="#CB2026" x="-0.012" height="60" id="UnitColor_2_" y="-0.085"/>
<rect width="60" fill="#640D0D" height="20.2" id="CS_1_" y="11.533" display="none"/>
<g id="Gar" display="none">
	<rect width="14.843" fill="none" x="0.73" height="8.039" y="2.802" display="inline"/>
	<path fill="#FFFFFF" d="M11.03,10.06c-0.472,0.163-1.361,0.379-2.249,0.379c-1.231,0-2.119-0.308-2.739-0.903   C5.424,8.949,5.085,8.072,5.089,7.083C5.097,4.842,6.73,3.567,8.936,3.567c0.87,0,1.539,0.165,1.873,0.323L10.49,5.111   C10.117,4.95,9.664,4.825,8.922,4.825c-1.27,0-2.235,0.714-2.235,2.18c0,1.391,0.878,2.205,2.125,2.205   c0.344,0,0.623-0.04,0.745-0.095V7.699H8.516V6.512h2.514V10.06z" display="inline"/>
</g>
<g id="Eng" display="none">
	<rect width="27.832" fill="none" x="1.1" height="8.039" y="2.802" display="inline"/>
	<path fill="#FFFFFF" d="M17.011,7.521h-2.479v1.602h2.771v1.248h-4.294V3.634h4.15v1.248h-2.626v1.403h2.479   V7.521z" display="inline"/>
</g>
<g id="P2" display="none">
	<path fill="#FFFFFF" d="M19.024,28.186c0.472-1.148,0.803-2.149,0.992-3.001c0.282-1.24,0.423-2.417,0.423-3.534   c0-1.066-0.099-2.078-0.295-3.035c-0.197-0.957-0.575-2.146-1.135-3.568h1.146c0.628,1.03,1.101,2.092,1.419,3.186   c0.319,1.094,0.478,2.185,0.478,3.274c0,1.094-0.159,2.218-0.476,3.374s-0.786,2.257-1.407,3.305H19.024z" display="inline"/>
</g>
<g id="P1" display="none">
	<path fill="#FFFFFF" d="M8.327,28.186H7.182c-0.605-1.025-1.071-2.111-1.396-3.257s-0.487-2.257-0.487-3.333   c0-1.162,0.163-2.296,0.489-3.401c0.326-1.105,0.795-2.154,1.408-3.148h1.146c-0.56,1.422-0.938,2.611-1.135,3.568   c-0.197,0.957-0.295,1.969-0.295,3.035c0,1.103,0.139,2.27,0.416,3.5C7.522,26.016,7.855,27.028,8.327,28.186z" display="inline"/>
</g>
<g id="Type">
	<path fill="#FFFFFF" d="M53.265,12.893v17.022H26.785V12.893H53.265z M28.204,15.139v12.53l10.443-6.265L28.204,15.139z    M50.468,14.312H29.583l10.443,6.265L50.468,14.312z M29.583,28.497h20.885l-10.442-6.265L29.583,28.497z M41.404,21.404   l10.441,6.265v-12.53L41.404,21.404z"/>
</g>
<g id="STK">
	<path fill="#FFFFFF" d="M13.307,17.911h-0.036l-2.139,1.074l-0.386-1.671l2.857-1.406h1.847v11.703h-2.144V17.911z"/>
</g>
<g id="ECH">
	<rect width="27.832" x="26.078" fill="none" height="8.039" y="2.802"/>
	<path fill="#FFFFFF" d="M39.33,3.634v6.736h-1.523V3.634H39.33z"/>
	<path fill="#FFFFFF" d="M42.18,3.634v6.736h-1.522V3.634H42.18z"/>
</g>
<g id="PF">
	<rect width="60" x="0" fill="none" height="15.475" y="44.525"/>
	<path fill="#FFFFFF" d="M29.696,52.494v0.939H27.71v-0.939H29.696z"/>
	<path fill="#FFFFFF" d="M32.285,52.494v0.939H30.3v-0.939H32.285z"/>
</g>
<g id="Des">
	<rect width="60" x="0" fill="none" height="14.525" y="31.722"/>
	<path fill="#FFFFFF" d="M10.52,35.361h-0.036l-1.967,1.065l-0.342-1.503l2.587-1.415h1.652v11.703H10.52V35.361z"/>
	<path fill="#FFFFFF" d="M20.396,33.076v5.021h2.883v-5.021H25.2v12.136h-1.922v-5.346h-2.883v5.346h-1.922V33.076H20.396z"/>
	<path fill="#FFFFFF" d="M30.862,45.212l-0.113-0.893h-0.044c-0.437,0.676-1.087,1.037-1.856,1.037   c-1.257,0-2.206-1.055-2.206-2.593c0-2.252,1.905-3.204,3.888-3.222V39.31c0-0.913-0.357-1.555-1.31-1.555   c-0.627,0-1.159,0.183-1.634,0.486l-0.37-1.312c0.432-0.272,1.354-0.627,2.422-0.627c2.256,0,2.834,1.545,2.834,3.41v3.503   c0,0.682,0.021,1.415,0.112,1.996H30.862z M30.582,40.822c-0.748,0.011-2.104,0.219-2.104,1.744c0,0.989,0.528,1.347,0.95,1.347   c0.482,0,0.946-0.327,1.108-1.003c0.036-0.137,0.046-0.294,0.046-0.445V40.822z"/>
	<path fill="#FFFFFF" d="M34.263,38.916c0-0.99-0.043-1.693-0.071-2.47h1.676l0.097,1.047H36c0.417-0.677,1.121-1.19,2.037-1.19   c0.907,0,1.565,0.424,1.877,1.261h0.036c0.224-0.384,0.542-0.724,0.879-0.939c0.353-0.214,0.77-0.321,1.22-0.321   c1.397,0,2.195,1.073,2.195,3.236v5.673h-1.911v-5.311c0-1.061-0.137-2-0.998-2c-0.489,0-0.886,0.376-1.062,1.025   c-0.043,0.176-0.063,0.434-0.063,0.698v5.587h-1.912v-5.608c0-0.783-0.111-1.702-0.979-1.702c-0.456,0-0.904,0.363-1.066,1.072   c-0.047,0.188-0.077,0.44-0.077,0.7v5.538h-1.912V38.916z"/>
	<path fill="#FFFFFF" d="M46.01,39.203c0-1.185-0.044-2.022-0.072-2.757h1.681l0.098,1.061h0.036   c0.417-0.816,1.088-1.204,1.847-1.204c1.742,0,2.63,1.88,2.63,4.511c0,3.183-1.355,4.543-2.787,4.543   c-0.76,0-1.24-0.477-1.484-0.925h-0.036v4.237H46.01V39.203z M47.921,42.005c0,0.274,0.03,0.539,0.098,0.732   c0.222,0.854,0.673,1.033,0.99,1.033c0.971,0,1.303-1.381,1.303-2.931c0-1.737-0.419-2.91-1.298-2.91   c-0.485,0-0.921,0.539-1.014,1.125c-0.059,0.193-0.079,0.419-0.079,0.644V42.005z"/>
</g>
<g>
</g>
<g>
</g>
<g>
</g>
<g>
</g>
<g>
</g>
<g>
</g>
</svg>