<!-- Generator: Adobe Illustrator 25.2.3, SVG Export Plug-In . SVG Version: 6.00 Build 0)  --><svg x="0px" enable-background="new 0 0 60 60" y="0px" width="60px" xmlns:xlink="http://www.w3.org/1999/xlink" viewBox="0 0 60 60" height="60px" id="Layer_1" xmlns="http://www.w3.org/2000/svg" xml:space="preserve" version="1.1">
<rect width="60" fill="#CB2026" x="-0.012" height="60" id="UnitColor_2_" y="-0.085"/>
<rect width="60" fill="#640D0D" height="20.2" id="CS_1_" y="11.533" display="none"/>
<g id="Gar" display="none">
	<rect width="14.843" fill="none" x="0.73" height="8.039" y="2.802" display="inline"/>
	<path fill="#FFFFFF" d="M11.03,10.06c-0.472,0.163-1.361,0.379-2.249,0.379c-1.231,0-2.119-0.308-2.739-0.903   C5.424,8.949,5.085,8.072,5.089,7.083C5.097,4.842,6.73,3.567,8.936,3.567c0.87,0,1.539,0.165,1.873,0.323L10.49,5.111   C10.117,4.95,9.664,4.825,8.922,4.825c-1.27,0-2.235,0.714-2.235,2.18c0,1.391,0.878,2.205,2.125,2.205   c0.344,0,0.623-0.04,0.745-0.095V7.699H8.516V6.512h2.514V10.06z" display="inline"/>
</g>
<g id="Eng" display="none">
	<rect width="27.832" fill="none" x="1.1" height="8.039" y="2.802" display="inline"/>
	<path fill="#FFFFFF" d="M17.011,7.521h-2.479v1.602h2.771v1.248h-4.294V3.634h4.15v1.248h-2.626v1.403h2.479   V7.521z" display="inline"/>
</g>
<g id="P2" display="none">
	<path fill="#FFFFFF" d="M19.024,28.186c0.472-1.148,0.803-2.149,0.992-3.001c0.282-1.24,0.423-2.417,0.423-3.534   c0-1.066-0.099-2.078-0.295-3.035c-0.197-0.957-0.575-2.146-1.135-3.568h1.146c0.628,1.03,1.101,2.092,1.419,3.186   c0.319,1.094,0.478,2.185,0.478,3.274c0,1.094-0.159,2.218-0.476,3.374s-0.786,2.257-1.407,3.305H19.024z" display="inline"/>
</g>
<g id="P1" display="none">
	<path fill="#FFFFFF" d="M8.327,28.186H7.182c-0.605-1.025-1.071-2.111-1.396-3.257s-0.487-2.257-0.487-3.333   c0-1.162,0.163-2.296,0.489-3.401c0.326-1.105,0.795-2.154,1.408-3.148h1.146c-0.56,1.422-0.938,2.611-1.135,3.568   c-0.197,0.957-0.295,1.969-0.295,3.035c0,1.103,0.139,2.27,0.416,3.5C7.522,26.016,7.855,27.028,8.327,28.186z" display="inline"/>
</g>
<g id="Type">
	<path fill="#FFFFFF" d="M53.265,12.893v17.022H26.785V12.893H53.265z M37.969,21.737v-0.739l-9.765-5.859v12.53l9.887-5.932H37.969   z M50.468,14.312H29.583l9.574,5.744v-1.456h-1.186l2.054-3.272l2.054,3.272h-1.185v1.456L50.468,14.312z M37.97,24.541v-1.076   l-8.387,5.032h20.885l-8.387-5.032v1.076h-1.188v2.938h-1.737v-2.938H37.97z M39.156,22.752l-1.01,0.606h1.01V22.752z    M40.894,23.359h1.011l-1.011-0.606V23.359z M51.846,27.669v-12.53l-9.766,5.859v0.739h-0.121L51.846,27.669z"/>
</g>
<g id="STK">
	<path fill="#FFFFFF" d="M13.307,17.911h-0.036l-2.139,1.074l-0.386-1.671l2.857-1.406h1.847v11.703h-2.144V17.911z"/>
</g>
<g id="ECH">
	<rect width="27.832" x="26.078" fill="none" height="8.039" y="2.802"/>
	<path fill="#FFFFFF" d="M39.33,3.634v6.736h-1.523V3.634H39.33z"/>
	<path fill="#FFFFFF" d="M42.18,3.634v6.736h-1.522V3.634H42.18z"/>
</g>
<g id="PF">
	<rect width="60" x="0" fill="none" height="15.475" y="44.525"/>
	<path fill="#FFFFFF" d="M29.389,50.365h-1.722l-0.151,1.164c0.066-0.006,0.128-0.006,0.199-0.006   c0.279,0.008,0.849,0.138,1.224,0.489c0.363,0.348,0.563,0.841,0.563,1.495c0,1.262-0.839,2.295-2.262,2.295   c-0.462,0-0.961-0.116-1.221-0.261l0.199-1.035c0.241,0.117,0.577,0.223,0.929,0.223c0.646,0,1.063-0.41,1.063-1.101   c0-0.875-0.657-1.166-1.406-1.166c-0.184,0-0.333,0.004-0.469,0.023l0.363-3.26h2.69V50.365z"/>
	<path fill="#FFFFFF" d="M31.789,50.459h-0.02l-1.101,0.565l-0.221-1.026l1.489-0.771h1.147v6.496h-1.295V50.459z"/>
</g>
<g id="Des">
	<rect width="60" x="0" fill="none" height="14.525" y="31.722"/>
	<path fill="#FFFFFF" d="M6.038,35.361H6.001l-1.967,1.065l-0.342-1.503l2.587-1.415h1.652v11.703H6.038V35.361z"/>
	<path fill="#FFFFFF" d="M9.926,45.933l4.065-13h1.312l-4.065,13H9.926z"/>
	<path fill="#FFFFFF" d="M21.858,33.509v1.226l-3.73,10.478h-1.871l3.646-9.972v-0.036h-4.091v-1.695H21.858z"/>
	<path fill="#FFFFFF" d="M30.909,40.525c-0.07-1.359-0.149-3.013-0.116-4.353h-0.06c-0.237,1.325-0.561,2.799-0.855,3.956   l-1.252,4.939h-1.318l-1.193-4.8c-0.31-1.235-0.646-2.74-0.855-4.096h-0.051c-0.015,1.371-0.098,2.978-0.167,4.415l-0.214,4.624   h-1.676l0.804-12.136h2.048l1.17,4.913c0.368,1.567,0.674,2.84,0.911,4.216h0.044c0.208-1.363,0.479-2.636,0.829-4.216l1.146-4.913   h2.068l0.718,12.136h-1.745L30.909,40.525z"/>
	<path fill="#FFFFFF" d="M40.395,32.752v10.091c0,0.719,0.044,1.696,0.072,2.369h-1.65l-0.112-1.04h-0.052   c-0.304,0.623-0.972,1.185-1.829,1.185c-1.695,0-2.648-1.86-2.648-4.502c0-3.076,1.322-4.552,2.739-4.552   c0.722,0,1.252,0.347,1.533,0.952h0.036v-4.503H40.395z M38.483,39.798c0-0.168,0-0.363-0.028-0.541   c-0.082-0.704-0.478-1.327-1.044-1.327c-0.972,0-1.319,1.383-1.319,2.95c0,1.75,0.466,2.891,1.272,2.891   c0.361,0,0.81-0.188,1.052-1.087c0.047-0.149,0.067-0.345,0.067-0.563V39.798z"/>
	<path fill="#FFFFFF" d="M42.164,32.752h1.922v12.46h-1.922V32.752z"/>
	<path fill="#FFFFFF" d="M45.797,43.396c0.329,0.208,0.931,0.461,1.512,0.461c0.686,0,1.105-0.366,1.105-1.003   c0-0.549-0.255-0.91-1.068-1.423c-1.303-0.776-1.777-1.619-1.777-2.51c0-1.51,1.101-2.619,2.681-2.619c0.71,0,1.26,0.2,1.682,0.427   l-0.394,1.419c-0.334-0.211-0.728-0.373-1.198-0.373c-0.664,0-0.991,0.44-0.991,0.912c0,0.478,0.213,0.75,1.055,1.286   c1.166,0.696,1.787,1.56,1.787,2.654c0,1.782-1.247,2.692-2.896,2.692c-0.688,0-1.485-0.198-1.876-0.505L45.797,43.396z"/>
	<path fill="#FFFFFF" d="M52.867,36.446l0.654,1.704c0.193,0.517,0.351,1.034,0.503,1.497h0.036   c0.151-0.489,0.322-1.016,0.489-1.497l0.639-1.704h1.943L55.1,40.765l2.039,4.447h-2.086l-0.706-1.802   c-0.175-0.448-0.324-0.898-0.491-1.41h-0.036c-0.145,0.483-0.317,0.949-0.479,1.42l-0.654,1.792H50.75l2.01-4.375l-1.971-4.391   H52.867z"/>
</g>
<g>
</g>
<g>
</g>
<g>
</g>
<g>
</g>
<g>
</g>
<g>
</g>
</svg>