<!-- Generator: Adobe Illustrator 25.2.3, SVG Export Plug-In . SVG Version: 6.00 Build 0)  --><svg x="0px" enable-background="new 0 0 60 60" y="0px" width="60px" xmlns:xlink="http://www.w3.org/1999/xlink" viewBox="0 0 60 60" height="60px" id="Layer_1" xmlns="http://www.w3.org/2000/svg" xml:space="preserve" version="1.1">
<rect width="60" fill="#CB2026" x="-0.012" height="60" id="UnitColor_2_" y="-0.085"/>
<rect width="60" fill="#640D0D" height="20.2" id="CS_1_" y="11.533"/>
<g id="Gar" display="none">
	<rect width="14.843" fill="none" x="0.73" height="8.039" y="2.802" display="inline"/>
	<path fill="#FFFFFF" d="M11.03,10.06c-0.472,0.163-1.361,0.379-2.249,0.379c-1.231,0-2.119-0.308-2.739-0.903   C5.424,8.949,5.085,8.072,5.089,7.083C5.097,4.842,6.73,3.567,8.936,3.567c0.87,0,1.539,0.165,1.873,0.323L10.49,5.111   C10.117,4.95,9.664,4.825,8.922,4.825c-1.27,0-2.235,0.714-2.235,2.18c0,1.391,0.878,2.205,2.125,2.205   c0.344,0,0.623-0.04,0.745-0.095V7.699H8.516V6.512h2.514V10.06z" display="inline"/>
</g>
<g id="Eng" display="none">
	<rect width="27.832" fill="none" x="1.1" height="8.039" y="2.802" display="inline"/>
	<path fill="#FFFFFF" d="M17.011,7.521h-2.479v1.602h2.771v1.248h-4.294V3.634h4.15v1.248h-2.626v1.403h2.479   V7.521z" display="inline"/>
</g>
<g id="P2">
	<path fill="#FFFFFF" d="M19.024,28.186c0.472-1.148,0.803-2.149,0.992-3.001c0.282-1.24,0.423-2.417,0.423-3.534   c0-1.066-0.099-2.078-0.295-3.035c-0.197-0.957-0.575-2.146-1.135-3.568h1.146c0.628,1.03,1.101,2.092,1.419,3.186   c0.319,1.094,0.478,2.185,0.478,3.274c0,1.094-0.159,2.218-0.476,3.374s-0.786,2.257-1.407,3.305H19.024z"/>
</g>
<g id="P1">
	<path fill="#FFFFFF" d="M8.327,28.186H7.182c-0.605-1.025-1.071-2.111-1.396-3.257s-0.487-2.257-0.487-3.333   c0-1.162,0.163-2.296,0.489-3.401c0.326-1.105,0.795-2.154,1.408-3.148h1.146c-0.56,1.422-0.938,2.611-1.135,3.568   c-0.197,0.957-0.295,1.969-0.295,3.035c0,1.103,0.139,2.27,0.416,3.5C7.522,26.016,7.855,27.028,8.327,28.186z"/>
</g>
<g id="Type">
	<path fill="#FFFFFF" d="M53.265,12.893v17.022H26.785V12.893H53.265z M28.204,15.139v12.53l10.443-6.265L28.204,15.139z    M50.468,14.312H29.583l10.443,6.265L50.468,14.312z M29.583,28.497h20.885l-10.442-6.265L29.583,28.497z M41.404,21.404   l10.441,6.265v-12.53L41.404,21.404z"/>
</g>
<g id="STK">
	<path fill="#FFFFFF" d="M9.839,27.611v-1.345l1.388-1.292c2.753-2.546,4.052-3.949,4.066-5.496c0-1.058-0.562-1.97-2.091-1.97   c-1.036,0-1.914,0.524-2.499,0.975l-0.649-1.574c0.841-0.67,2.121-1.199,3.593-1.199c2.595,0,3.865,1.631,3.865,3.545   c0,2.059-1.479,3.712-3.525,5.602l-1.013,0.888v0.036h4.796v1.831H9.839z"/>
</g>
<g id="ECH">
	<rect width="27.832" x="26.078" fill="none" height="8.039" y="2.802"/>
	<path fill="#FFFFFF" d="M41.133,10.37l-0.607-1.219c-0.244-0.472-0.412-0.823-0.598-1.213h-0.021   c-0.141,0.391-0.306,0.744-0.524,1.209l-0.557,1.223h-1.734l1.946-3.411L37.16,3.634h1.752l0.59,1.227   c0.197,0.409,0.343,0.742,0.502,1.12h0.025c0.163-0.428,0.288-0.728,0.46-1.116l0.565-1.23h1.739l-1.898,3.287l1.999,3.449H41.133z   "/>
</g>
<g id="PF">
	<rect width="60" x="0" fill="none" height="15.475" y="44.525"/>
	<path fill="#FFFFFF" d="M28.079,55.723V54.17H25.85v-0.896l2.125-4.047h1.265v3.896h0.645v1.048H29.24v1.553H28.079z    M28.079,53.122v-1.329c0-0.344,0.036-0.725,0.065-1.07h-0.032c-0.15,0.359-0.282,0.654-0.458,1.013l-0.69,1.367v0.02H28.079z"/>
	<path fill="#FFFFFF" d="M32.339,55.723V54.17h-2.229v-0.896l2.125-4.047h1.265v3.896h0.646v1.048h-0.646v1.553H32.339z    M32.339,53.122v-1.329c0-0.344,0.035-0.725,0.065-1.07h-0.032c-0.149,0.359-0.281,0.654-0.458,1.013l-0.69,1.367v0.02H32.339z"/>
</g>
<g id="Des">
	<rect width="60" x="0" fill="none" height="14.525" y="31.722"/>
	<path fill="#FFFFFF" d="M22.283,35.361h-0.036l-1.967,1.065l-0.342-1.503l2.587-1.415h1.652v11.703h-1.894V35.361z"/>
	<path fill="#FFFFFF" d="M27.115,43.307c0.419,0.25,1.064,0.474,1.718,0.474c1.178,0,1.892-0.788,1.892-1.981   c0-1.407-0.987-2.106-2.272-2.116h-0.324v-1.42h0.247c0.851-0.01,2.033-0.495,2.033-1.765c0-0.997-0.571-1.548-1.441-1.548   c-0.55,0-1.065,0.229-1.469,0.5l-0.308-1.445c0.458-0.329,1.336-0.641,2.267-0.641c1.875,0,2.871,1.263,2.871,2.765   c0,1.17-0.635,2.169-1.711,2.676v0.036c1.093,0.347,2.027,1.321,2.027,3.02c0,1.84-1.306,3.496-3.663,3.496   c-0.864,0-1.694-0.227-2.186-0.528L27.115,43.307z"/>
	<path fill="#FFFFFF" d="M34.459,43.307c0.419,0.25,1.064,0.474,1.718,0.474c1.179,0,1.892-0.788,1.892-1.981   c0-1.407-0.987-2.106-2.271-2.116h-0.324v-1.42h0.247c0.852-0.01,2.033-0.495,2.033-1.765c0-0.997-0.572-1.548-1.441-1.548   c-0.551,0-1.065,0.229-1.469,0.5l-0.309-1.445c0.457-0.329,1.336-0.641,2.267-0.641c1.876,0,2.871,1.263,2.871,2.765   c0,1.17-0.635,2.169-1.711,2.676v0.036c1.093,0.347,2.027,1.321,2.027,3.02c0,1.84-1.306,3.496-3.663,3.496   c-0.863,0-1.693-0.227-2.185-0.528L34.459,43.307z"/>
</g>
<g>
</g>
<g>
</g>
<g>
</g>
<g>
</g>
<g>
</g>
<g>
</g>
</svg>