<!-- Generator: Adobe Illustrator 25.2.3, SVG Export Plug-In . SVG Version: 6.00 Build 0)  --><svg x="0px" enable-background="new 0 0 60 60" y="0px" width="60px" xmlns:xlink="http://www.w3.org/1999/xlink" viewBox="0 0 60 60" height="60px" id="Layer_1" xmlns="http://www.w3.org/2000/svg" xml:space="preserve" version="1.1">
<rect width="60" fill="#CB2026" x="-0.012" height="60" id="UnitColor_2_" y="-0.085"/>
<rect width="60" fill="#640D0D" height="20.2" id="CS_1_" y="11.533" display="none"/>
<g id="Gar" display="none">
	<rect width="14.843" fill="none" x="0.73" height="8.039" y="2.802" display="inline"/>
	<path fill="#FFFFFF" d="M11.03,10.06c-0.472,0.163-1.361,0.379-2.249,0.379c-1.231,0-2.119-0.308-2.739-0.903   C5.424,8.949,5.085,8.072,5.089,7.083C5.097,4.842,6.73,3.567,8.936,3.567c0.87,0,1.539,0.165,1.873,0.323L10.49,5.111   C10.117,4.95,9.664,4.825,8.922,4.825c-1.27,0-2.235,0.714-2.235,2.18c0,1.391,0.878,2.205,2.125,2.205   c0.344,0,0.623-0.04,0.745-0.095V7.699H8.516V6.512h2.514V10.06z" display="inline"/>
</g>
<g id="Eng" display="none">
	<rect width="27.832" fill="none" x="1.1" height="8.039" y="2.802" display="inline"/>
	<path fill="#FFFFFF" d="M17.011,7.521h-2.479v1.602h2.771v1.248h-4.294V3.634h4.15v1.248h-2.626v1.403h2.479   V7.521z" display="inline"/>
</g>
<g id="P2" display="none">
	<path fill="#FFFFFF" d="M19.024,28.186c0.472-1.148,0.803-2.149,0.992-3.001c0.282-1.24,0.423-2.417,0.423-3.534   c0-1.066-0.099-2.078-0.295-3.035c-0.197-0.957-0.575-2.146-1.135-3.568h1.146c0.628,1.03,1.101,2.092,1.419,3.186   c0.319,1.094,0.478,2.185,0.478,3.274c0,1.094-0.159,2.218-0.476,3.374s-0.786,2.257-1.407,3.305H19.024z" display="inline"/>
</g>
<g id="P1" display="none">
	<path fill="#FFFFFF" d="M8.327,28.186H7.182c-0.605-1.025-1.071-2.111-1.396-3.257s-0.487-2.257-0.487-3.333   c0-1.162,0.163-2.296,0.489-3.401c0.326-1.105,0.795-2.154,1.408-3.148h1.146c-0.56,1.422-0.938,2.611-1.135,3.568   c-0.197,0.957-0.295,1.969-0.295,3.035c0,1.103,0.139,2.27,0.416,3.5C7.522,26.016,7.855,27.028,8.327,28.186z" display="inline"/>
</g>
<g id="Type">
	<path fill="#FFFFFF" d="M53.265,12.893v17.022H26.785V12.893H53.265z M28.204,14.312v13.077l10.899-13.077H28.204z M29.127,28.497   h21.794L40.025,15.419L29.127,28.497z M37.26,23.295c0-1.437,1.238-2.601,2.766-2.601s2.765,1.164,2.765,2.601   c0,1.436-1.237,2.601-2.765,2.601S37.26,24.731,37.26,23.295z M51.846,14.312H40.948l10.897,13.077V14.312z"/>
</g>
<g id="STK">
	<path fill="#FFFFFF" d="M18.101,21.68c0,3.77-1.473,6.13-4.277,6.13c-2.693,0-4.128-2.456-4.151-6.017   c0-3.641,1.549-6.083,4.283-6.083C16.786,15.71,18.101,18.237,18.101,21.68z M11.897,21.789c-0.006,2.854,0.775,4.33,1.998,4.33   c1.313,0,1.982-1.585,1.982-4.389c0-2.727-0.641-4.323-1.98-4.323C12.723,17.407,11.894,18.863,11.897,21.789z"/>
</g>
<g id="ECH">
	<rect width="27.832" x="26.078" fill="none" height="8.039" y="2.802"/>
	<path fill="#FFFFFF" d="M40.755,3.634v6.736h-1.523V3.634H40.755z"/>
</g>
<g id="PF">
	<rect width="60" x="0" fill="none" height="15.475" y="44.525"/>
	<path fill="#FFFFFF" d="M21.869,50.459h-0.02l-1.101,0.565l-0.221-1.026l1.489-0.771h1.147v6.496h-1.295V50.459z"/>
	<path fill="#FFFFFF" d="M26.679,55.723V54.17h-2.229v-0.896l2.125-4.047h1.265v3.896h0.645v1.048h-0.645v1.553H26.679z    M26.679,53.122v-1.329c0-0.344,0.036-0.725,0.065-1.07h-0.032c-0.15,0.359-0.282,0.654-0.458,1.013l-0.69,1.367v0.02H26.679z"/>
	<path fill="#FFFFFF" d="M28.379,56.122l2.344-7.216h0.852l-2.344,7.216H28.379z"/>
	<path fill="#FFFFFF" d="M35.331,49.227v0.858l-2.044,5.638h-1.273l1.991-5.322v-0.02h-2.214v-1.154H35.331z"/>
	<path fill="#FFFFFF" d="M39.685,52.443c0,2.333-0.848,3.359-1.9,3.359c-1.413,0-1.891-1.625-1.891-3.297   c0-1.868,0.596-3.359,1.939-3.359C39.342,49.146,39.685,50.897,39.685,52.443z M37.209,52.475c-0.017,1.521,0.17,2.207,0.614,2.207   c0.4,0,0.547-0.719,0.547-2.207c0-1.395-0.131-2.208-0.55-2.208C37.41,50.267,37.2,50.97,37.209,52.475z"/>
</g>
<g id="Des">
	<rect width="60" x="0" fill="none" height="14.525" y="31.722"/>
	<path fill="#FFFFFF" d="M25.955,35.361h-0.036l-1.967,1.065l-0.342-1.503l2.587-1.415h1.652v11.703h-1.894V35.361z"/>
	<path fill="#FFFFFF" d="M34.213,45.212v-2.991h-3.96V40.91l3.82-7.401h1.86v7.165h1.21v1.547h-1.21v2.991H34.213z M34.213,40.674   v-2.806c0-0.703,0.057-1.408,0.111-2.099h-0.062c-0.324,0.778-0.566,1.316-0.896,1.998l-1.414,2.87v0.036H34.213z"/>
</g>
<g>
</g>
<g>
</g>
<g>
</g>
<g>
</g>
<g>
</g>
<g>
</g>
</svg>