<!-- Generator: Adobe Illustrator 25.2.3, SVG Export Plug-In . SVG Version: 6.00 Build 0)  --><svg x="0px" enable-background="new 0 0 60 60" y="0px" width="60px" xmlns:xlink="http://www.w3.org/1999/xlink" viewBox="0 0 60 60" height="60px" id="Layer_1" xmlns="http://www.w3.org/2000/svg" xml:space="preserve" version="1.1">
<rect width="60" fill="#CB2026" x="-0.012" height="60" id="UnitColor_2_" y="-0.085"/>
<rect width="60" fill="#640D0D" height="20.2" id="CS_1_" y="11.533" display="none"/>
<g id="Gar" display="none">
	<rect width="14.843" fill="none" x="0.73" height="8.039" y="2.802" display="inline"/>
	<path fill="#FFFFFF" d="M11.03,10.06c-0.472,0.163-1.361,0.379-2.249,0.379c-1.231,0-2.119-0.308-2.739-0.903   C5.424,8.949,5.085,8.072,5.089,7.083C5.097,4.842,6.73,3.567,8.936,3.567c0.87,0,1.539,0.165,1.873,0.323L10.49,5.111   C10.117,4.95,9.664,4.825,8.922,4.825c-1.27,0-2.235,0.714-2.235,2.18c0,1.391,0.878,2.205,2.125,2.205   c0.344,0,0.623-0.04,0.745-0.095V7.699H8.516V6.512h2.514V10.06z" display="inline"/>
</g>
<g id="Eng" display="none">
	<rect width="27.832" fill="none" x="1.1" height="8.039" y="2.802" display="inline"/>
	<path fill="#FFFFFF" d="M17.011,7.521h-2.479v1.602h2.771v1.248h-4.294V3.634h4.15v1.248h-2.626v1.403h2.479   V7.521z" display="inline"/>
</g>
<g id="P2" display="none">
	<path fill="#FFFFFF" d="M19.024,28.186c0.472-1.148,0.803-2.149,0.992-3.001c0.282-1.24,0.423-2.417,0.423-3.534   c0-1.066-0.099-2.078-0.295-3.035c-0.197-0.957-0.575-2.146-1.135-3.568h1.146c0.628,1.03,1.101,2.092,1.419,3.186   c0.319,1.094,0.478,2.185,0.478,3.274c0,1.094-0.159,2.218-0.476,3.374s-0.786,2.257-1.407,3.305H19.024z" display="inline"/>
</g>
<g id="P1" display="none">
	<path fill="#FFFFFF" d="M8.327,28.186H7.182c-0.605-1.025-1.071-2.111-1.396-3.257s-0.487-2.257-0.487-3.333   c0-1.162,0.163-2.296,0.489-3.401c0.326-1.105,0.795-2.154,1.408-3.148h1.146c-0.56,1.422-0.938,2.611-1.135,3.568   c-0.197,0.957-0.295,1.969-0.295,3.035c0,1.103,0.139,2.27,0.416,3.5C7.522,26.016,7.855,27.028,8.327,28.186z" display="inline"/>
</g>
<g id="Type">
	<path fill="#FFFFFF" d="M53.265,12.893v17.022H26.785V12.893H53.265z M28.204,15.139v12.53l10.443-6.265L28.204,15.139z    M50.468,14.312H29.583l10.443,6.265L50.468,14.312z M29.583,28.497h20.885l-10.442-6.265L29.583,28.497z M41.404,21.404   l10.441,6.265v-12.53L41.404,21.404z"/>
</g>
<g id="STK">
	<path fill="#FFFFFF" d="M13.307,17.911h-0.036l-2.139,1.074l-0.386-1.671l2.857-1.406h1.847v11.703h-2.144V17.911z"/>
</g>
<g id="ECH">
	<rect width="27.832" x="26.078" fill="none" height="8.039" y="2.802"/>
	<path fill="#FFFFFF" d="M39.33,3.634v6.736h-1.523V3.634H39.33z"/>
	<path fill="#FFFFFF" d="M42.18,3.634v6.736h-1.522V3.634H42.18z"/>
</g>
<g id="PF">
	<rect width="60" x="0" fill="none" height="15.475" y="44.525"/>
	<path fill="#FFFFFF" d="M19.739,50.459h-0.02l-1.101,0.565l-0.221-1.026l1.489-0.771h1.147v6.496h-1.295V50.459z"/>
	<path fill="#FFFFFF" d="M22.638,54.48c0.257,0.149,0.626,0.257,0.967,0.257c0.637,0,0.989-0.398,0.989-0.941   c0-0.725-0.559-1.027-1.22-1.035h-0.18v-0.957h0.128c0.481-0.008,1.093-0.211,1.093-0.837c0-0.47-0.293-0.747-0.754-0.747   c-0.292,0-0.58,0.104-0.817,0.253l-0.175-0.984c0.267-0.176,0.796-0.342,1.335-0.342c1.142,0,1.719,0.735,1.719,1.567   c0,0.649-0.361,1.187-0.935,1.456v0.021c0.629,0.217,1.112,0.777,1.112,1.652c0,0.995-0.758,1.96-2.173,1.96   c-0.525,0-0.991-0.128-1.272-0.286L22.638,54.48z"/>
	<path fill="#FFFFFF" d="M28.259,50.459h-0.02l-1.101,0.565l-0.221-1.026l1.489-0.771h1.147v6.496h-1.295V50.459z"/>
	<path fill="#FFFFFF" d="M30.509,56.122l2.344-7.216h0.852l-2.345,7.216H30.509z"/>
	<path fill="#FFFFFF" d="M35.868,55.723V54.17h-2.229v-0.896l2.125-4.047h1.265v3.896h0.646v1.048h-0.646v1.553H35.868z    M35.868,53.122v-1.329c0-0.344,0.035-0.725,0.065-1.07h-0.032c-0.149,0.359-0.281,0.654-0.458,1.013l-0.69,1.367v0.02H35.868z"/>
	<path fill="#FFFFFF" d="M40.128,55.723V54.17h-2.229v-0.896l2.125-4.047h1.265v3.896h0.646v1.048h-0.646v1.553H40.128z    M40.128,53.122v-1.329c0-0.344,0.035-0.725,0.065-1.07h-0.032c-0.149,0.359-0.281,0.654-0.458,1.013l-0.69,1.367v0.02H40.128z"/>
</g>
<g id="Des">
	<rect width="60" x="0" fill="none" height="14.525" y="31.722"/>
	<path fill="#FFFFFF" d="M11.087,35.361h-0.036l-1.967,1.065l-0.342-1.503l2.587-1.415h1.652v11.703h-1.894V35.361z"/>
	<path fill="#FFFFFF" d="M14.976,45.933l4.065-13h1.312l-4.065,13H14.976z"/>
	<path fill="#FFFFFF" d="M26.484,35.184h-3.125l-0.366,2.557c0.131-0.022,0.247-0.022,0.394-0.022   c0.559,0.01,1.564,0.265,2.212,0.882c0.643,0.622,1.003,1.499,1.003,2.686c0,2.297-1.492,4.071-3.837,4.071   c-0.782,0-1.64-0.201-2.108-0.489l0.339-1.521c0.398,0.208,1.016,0.425,1.654,0.425c1.175,0,2.054-0.814,2.054-2.304   c0-1.698-1.16-2.338-2.585-2.338c-0.374,0-0.644,0.016-0.88,0.052l0.697-5.672h4.55V35.184z"/>
	<path fill="#FFFFFF" d="M37.978,47.034c-0.987-0.404-2.178-1.003-2.972-1.452c-0.241-0.131-0.419-0.226-0.511-0.226   c-2.203,0-3.63-2.157-3.63-6.232c0-3.615,1.376-6.191,3.825-6.191c2.545,0,3.538,2.791,3.538,6.058   c0,3.145-0.724,4.986-1.928,5.601v0.075c0.787,0.35,1.625,0.62,2.363,0.887L37.978,47.034z M36.229,39.072   c0-2.289-0.376-4.465-1.646-4.465c-1.24,0-1.729,2.196-1.719,4.496c-0.021,2.433,0.428,4.577,1.719,4.577   C35.816,43.681,36.229,41.536,36.229,39.072z"/>
	<path fill="#FFFFFF" d="M39.743,38.916c0-0.99-0.043-1.693-0.071-2.47h1.665l0.098,1.031h0.036   c0.416-0.702,1.154-1.175,2.072-1.175c1.461,0,2.239,1.135,2.239,3.167v5.742H43.86v-5.559c0-0.876-0.186-1.731-1.022-1.731   c-0.478,0-0.905,0.366-1.075,1.072c-0.057,0.193-0.098,0.477-0.098,0.798v5.42h-1.922V38.916z"/>
	<path fill="#FFFFFF" d="M47.407,43.396c0.329,0.208,0.931,0.461,1.512,0.461c0.686,0,1.105-0.366,1.105-1.003   c0-0.549-0.255-0.91-1.068-1.423c-1.303-0.776-1.776-1.619-1.776-2.51c0-1.51,1.1-2.619,2.68-2.619c0.71,0,1.26,0.2,1.682,0.427   l-0.394,1.419c-0.334-0.211-0.728-0.373-1.198-0.373c-0.664,0-0.991,0.44-0.991,0.912c0,0.478,0.213,0.75,1.055,1.286   c1.166,0.696,1.787,1.56,1.787,2.654c0,1.782-1.247,2.692-2.896,2.692c-0.688,0-1.485-0.198-1.876-0.505L47.407,43.396z"/>
</g>
<g>
</g>
<g>
</g>
<g>
</g>
<g>
</g>
<g>
</g>
<g>
</g>
</svg>