<!-- Generator: Adobe Illustrator 25.2.3, SVG Export Plug-In . SVG Version: 6.00 Build 0)  --><svg x="0px" enable-background="new 0 0 60 60" y="0px" width="60px" xmlns:xlink="http://www.w3.org/1999/xlink" viewBox="0 0 60 60" height="60px" id="Layer_1" xmlns="http://www.w3.org/2000/svg" xml:space="preserve" version="1.1">
<rect width="60" fill="#CB2026" x="-0.012" height="60" id="UnitColor_2_" y="-0.085"/>
<rect width="60" fill="#640D0D" height="20.2" id="CS_1_" y="11.533" display="none"/>
<g id="Gar" display="none">
	<rect width="14.843" fill="none" x="0.73" height="8.039" y="2.802" display="inline"/>
	<path fill="#FFFFFF" d="M11.03,10.06c-0.472,0.163-1.361,0.379-2.249,0.379c-1.231,0-2.119-0.308-2.739-0.903   C5.424,8.949,5.085,8.072,5.089,7.083C5.097,4.842,6.73,3.567,8.936,3.567c0.87,0,1.539,0.165,1.873,0.323L10.49,5.111   C10.117,4.95,9.664,4.825,8.922,4.825c-1.27,0-2.235,0.714-2.235,2.18c0,1.391,0.878,2.205,2.125,2.205   c0.344,0,0.623-0.04,0.745-0.095V7.699H8.516V6.512h2.514V10.06z" display="inline"/>
</g>
<g id="Eng" display="none">
	<rect width="27.832" fill="none" x="1.1" height="8.039" y="2.802" display="inline"/>
	<path fill="#FFFFFF" d="M17.011,7.521h-2.479v1.602h2.771v1.248h-4.294V3.634h4.15v1.248h-2.626v1.403h2.479   V7.521z" display="inline"/>
</g>
<g id="P2" display="none">
	<path fill="#FFFFFF" d="M19.024,28.186c0.472-1.148,0.803-2.149,0.992-3.001c0.282-1.24,0.423-2.417,0.423-3.534   c0-1.066-0.099-2.078-0.295-3.035c-0.197-0.957-0.575-2.146-1.135-3.568h1.146c0.628,1.03,1.101,2.092,1.419,3.186   c0.319,1.094,0.478,2.185,0.478,3.274c0,1.094-0.159,2.218-0.476,3.374s-0.786,2.257-1.407,3.305H19.024z" display="inline"/>
</g>
<g id="P1" display="none">
	<path fill="#FFFFFF" d="M8.327,28.186H7.182c-0.605-1.025-1.071-2.111-1.396-3.257s-0.487-2.257-0.487-3.333   c0-1.162,0.163-2.296,0.489-3.401c0.326-1.105,0.795-2.154,1.408-3.148h1.146c-0.56,1.422-0.938,2.611-1.135,3.568   c-0.197,0.957-0.295,1.969-0.295,3.035c0,1.103,0.139,2.27,0.416,3.5C7.522,26.016,7.855,27.028,8.327,28.186z" display="inline"/>
</g>
<g id="Type">
	<path fill="#FFFFFF" d="M53.265,12.893v17.022H26.785V12.893H53.265z M28.204,14.312v13.077l2.718-3.262   c-0.656-0.785-1.021-1.757-1.004-2.789c0.038-2.312,1.878-4.152,4.19-4.189c0.003,0,0.005,0.002,0.007,0.002v-0.002h2.624   l2.364-2.837H28.204z M29.127,28.496h21.794l-2.869-3.443c-0.618,0.367-1.33,0.597-2.104,0.609c-0.005,0-0.009,0-0.013,0v0.003   H34.118c-0.001,0-0.003,0-0.004,0s-0.004,0-0.007,0c-0.758-0.012-1.475-0.236-2.107-0.616L29.127,28.496z M31.846,23.019   l3.71-4.452H34.13c-1.541,0.025-2.769,1.252-2.794,2.794C31.327,21.963,31.51,22.534,31.846,23.019z M37.401,18.567l-4.481,5.379   c0.373,0.185,0.781,0.295,1.21,0.302h11.777c0.006,0,0.012-0.004,0.017-0.004c0.437-0.007,0.841-0.119,1.207-0.298l-4.482-5.379   H37.401z M37.26,21.408c0-1.436,1.238-2.601,2.766-2.601s2.765,1.165,2.765,2.601c0,1.437-1.237,2.601-2.765,2.601   S37.26,22.844,37.26,21.408z M38.584,17.148h2.883l-1.441-1.729L38.584,17.148z M51.846,14.312H40.948l2.364,2.837h2.615   c0.006,0,0.012-0.004,0.019-0.004c2.349,0.039,4.228,1.98,4.19,4.329c-0.018,1.02-0.399,1.937-1.005,2.659l2.714,3.256V14.312z    M44.494,18.567l3.717,4.46c0.311-0.447,0.497-0.989,0.507-1.578c0.025-1.562-1.222-2.854-2.782-2.885v0.003H44.494z"/>
</g>
<g id="STK">
	<path fill="#FFFFFF" d="M13.307,17.911h-0.036l-2.139,1.074l-0.386-1.671l2.857-1.406h1.847v11.703h-2.144V17.911z"/>
</g>
<g id="ECH">
	<rect width="27.832" x="26.078" fill="none" height="8.039" y="2.802"/>
	<path fill="#FFFFFF" d="M37.905,3.634v6.736h-1.523V3.634H37.905z"/>
	<path fill="#FFFFFF" d="M40.756,3.634v6.736h-1.523V3.634H40.756z"/>
	<path fill="#FFFFFF" d="M43.605,3.634v6.736h-1.522V3.634H43.605z"/>
</g>
<g id="PF">
	<rect width="60" x="0" fill="none" height="15.475" y="44.525"/>
	<path fill="#FFFFFF" d="M29.696,52.494v0.939H27.71v-0.939H29.696z"/>
	<path fill="#FFFFFF" d="M32.285,52.494v0.939H30.3v-0.939H32.285z"/>
</g>
<g id="Des">
	<rect width="60" x="0" fill="none" height="14.525" y="31.722"/>
	<path fill="#FFFFFF" d="M22.283,35.361h-0.036l-1.967,1.065l-0.342-1.503l2.587-1.415h1.652v11.703h-1.894V35.361z"/>
	<path fill="#FFFFFF" d="M33.221,39.319c0,4.231-1.447,6.037-3.257,6.037c-2.219,0-3.185-2.584-3.185-5.955   c0-3.627,1.12-6.037,3.309-6.037C32.429,33.364,33.221,36.112,33.221,39.319z M28.708,39.36c-0.021,2.778,0.382,4.349,1.34,4.349   c0.892,0,1.243-1.611,1.243-4.349c0-2.614-0.331-4.349-1.25-4.349C29.131,35.012,28.698,36.603,28.708,39.36z"/>
	<path fill="#FFFFFF" d="M34.174,45.212v-1.277l1.08-1.425c1.465-1.935,2.885-3.805,2.885-5.71c0-1.103-0.543-1.821-1.57-1.821   c-0.785,0-1.358,0.379-1.729,0.612l-0.38-1.47c0.478-0.345,1.396-0.757,2.458-0.757c2.283,0,3.119,1.589,3.119,3.305   c0,2.196-1.404,4.122-2.794,5.873l-0.736,0.938v0.036h3.719v1.696H34.174z"/>
</g>
<g>
</g>
<g>
</g>
<g>
</g>
<g>
</g>
<g>
</g>
<g>
</g>
</svg>