<!-- Generator: Adobe Illustrator 25.2.3, SVG Export Plug-In . SVG Version: 6.00 Build 0)  --><svg x="0px" enable-background="new 0 0 60 60" y="0px" width="60px" xmlns:xlink="http://www.w3.org/1999/xlink" viewBox="0 0 60 60" height="60px" id="Layer_1" xmlns="http://www.w3.org/2000/svg" xml:space="preserve" version="1.1">
<rect width="60" fill="#CB2026" x="-0.012" height="60" id="UnitColor_2_" y="-0.085"/>
<rect width="60" fill="#640D0D" height="20.2" id="CS_1_" y="11.533" display="none"/>
<g id="Gar" display="none">
	<rect width="14.843" fill="none" x="0.73" height="8.039" y="2.802" display="inline"/>
	<path fill="#FFFFFF" d="M11.03,10.06c-0.472,0.163-1.361,0.379-2.249,0.379c-1.231,0-2.119-0.308-2.739-0.903   C5.424,8.949,5.085,8.072,5.089,7.083C5.097,4.842,6.73,3.567,8.936,3.567c0.87,0,1.539,0.165,1.873,0.323L10.49,5.111   C10.117,4.95,9.664,4.825,8.922,4.825c-1.27,0-2.235,0.714-2.235,2.18c0,1.391,0.878,2.205,2.125,2.205   c0.344,0,0.623-0.04,0.745-0.095V7.699H8.516V6.512h2.514V10.06z" display="inline"/>
</g>
<g id="Eng" display="none">
	<rect width="27.832" fill="none" x="1.1" height="8.039" y="2.802" display="inline"/>
	<path fill="#FFFFFF" d="M17.011,7.521h-2.479v1.602h2.771v1.248h-4.294V3.634h4.15v1.248h-2.626v1.403h2.479   V7.521z" display="inline"/>
</g>
<g id="P2" display="none">
	<path fill="#FFFFFF" d="M19.024,28.186c0.472-1.148,0.803-2.149,0.992-3.001c0.282-1.24,0.423-2.417,0.423-3.534   c0-1.066-0.099-2.078-0.295-3.035c-0.197-0.957-0.575-2.146-1.135-3.568h1.146c0.628,1.03,1.101,2.092,1.419,3.186   c0.319,1.094,0.478,2.185,0.478,3.274c0,1.094-0.159,2.218-0.476,3.374s-0.786,2.257-1.407,3.305H19.024z" display="inline"/>
</g>
<g id="P1" display="none">
	<path fill="#FFFFFF" d="M8.327,28.186H7.182c-0.605-1.025-1.071-2.111-1.396-3.257s-0.487-2.257-0.487-3.333   c0-1.162,0.163-2.296,0.489-3.401c0.326-1.105,0.795-2.154,1.408-3.148h1.146c-0.56,1.422-0.938,2.611-1.135,3.568   c-0.197,0.957-0.295,1.969-0.295,3.035c0,1.103,0.139,2.27,0.416,3.5C7.522,26.016,7.855,27.028,8.327,28.186z" display="inline"/>
</g>
<g id="Type">
	<path fill="#FFFFFF" d="M53.265,12.893v17.022H26.785V12.893H53.265z M28.204,14.312v13.357l4.091-2.454   c-0.431-0.213-0.834-0.488-1.18-0.844c-0.792-0.819-1.217-1.895-1.198-3.033c0.038-2.312,1.878-4.152,4.19-4.189   c0.003,0,0.005,0.002,0.007,0.002v-0.002h11.625l4.729-2.837H28.204z M51.846,28.497V15.139l-4.093,2.456   c1.43,0.708,2.412,2.181,2.385,3.878c-0.038,2.311-1.88,4.151-4.189,4.189c-0.005,0-0.009,0-0.013,0v0.004H34.3l-4.717,2.831   H51.846z M31.336,21.36c-0.012,0.758,0.271,1.477,0.8,2.022c0.482,0.5,1.12,0.788,1.807,0.844l9.433-5.659H34.13   C32.589,18.592,31.361,19.819,31.336,21.36z M48.718,21.449c0.023-1.504-1.136-2.747-2.615-2.865l-9.438,5.664h9.242   c0.006,0,0.012-0.004,0.017-0.004C47.466,24.219,48.693,22.992,48.718,21.449z"/>
</g>
<g id="STK">
	<path fill="#FFFFFF" d="M13.307,17.911h-0.036l-2.139,1.074l-0.386-1.671l2.857-1.406h1.847v11.703h-2.144V17.911z"/>
</g>
<g id="ECH">
	<rect width="27.832" x="26.078" fill="none" height="8.039" y="2.802"/>
	<path fill="#FFFFFF" d="M39.33,3.634v6.736h-1.523V3.634H39.33z"/>
	<path fill="#FFFFFF" d="M42.18,3.634v6.736h-1.522V3.634H42.18z"/>
</g>
<g id="PF">
	<rect width="60" x="0" fill="none" height="15.475" y="44.525"/>
	<path fill="#FFFFFF" d="M20.329,50.459h-0.02l-1.101,0.565l-0.221-1.026l1.489-0.771h1.147v6.496h-1.295V50.459z"/>
	<path fill="#FFFFFF" d="M23.228,54.38c0.271,0.156,0.735,0.265,1.108,0.265c0.618,0,0.926-0.321,0.926-0.765   c0-0.481-0.305-0.729-0.876-1.093c-0.92-0.565-1.269-1.271-1.269-1.883c0-1.082,0.717-1.978,2.129-1.978   c0.447,0,0.863,0.124,1.059,0.241l-0.209,1.127c-0.191-0.12-0.479-0.229-0.856-0.229c-0.562,0-0.831,0.339-0.831,0.695   c0,0.404,0.203,0.617,0.927,1.054c0.894,0.536,1.218,1.219,1.218,1.925c0,1.237-0.909,2.043-2.223,2.043   c-0.544,0-1.067-0.136-1.292-0.271L23.228,54.38z"/>
	<path fill="#FFFFFF" d="M27.273,52.381c0-0.587-0.022-1.085-0.04-1.55h1.135l0.067,0.568h0.02c0.205-0.4,0.571-0.648,1.027-0.648   c1.07,0,1.511,1.169,1.511,2.521c0,1.742-0.761,2.53-1.589,2.53c-0.395,0-0.668-0.247-0.806-0.476h-0.02v2.314h-1.305V52.381z    M28.578,53.938c0,0.162,0.023,0.315,0.067,0.414c0.101,0.299,0.275,0.378,0.422,0.378c0.458,0,0.625-0.677,0.625-1.445   c0-0.931-0.226-1.429-0.613-1.429c-0.203,0-0.388,0.188-0.444,0.419c-0.042,0.098-0.057,0.226-0.057,0.348V53.938z"/>
	<path fill="#FFFFFF" d="M33.293,49.514v1.317h0.957v0.929h-0.957v2.236c0,0.566,0.235,0.707,0.494,0.707   c0.127,0,0.228-0.01,0.345-0.029l0.011,1.023c-0.182,0.05-0.459,0.085-0.801,0.085c-0.378,0-0.71-0.088-0.946-0.311   c-0.269-0.256-0.415-0.632-0.415-1.399V51.76h-0.576v-0.929h0.576v-1.005L33.293,49.514z"/>
	<path fill="#FFFFFF" d="M34.18,56.122l2.344-7.216h0.852l-2.345,7.216H34.18z"/>
	<path fill="#FFFFFF" d="M38.989,50.459h-0.02l-1.102,0.565l-0.22-1.026l1.488-0.771h1.147v6.496h-1.295V50.459z"/>
</g>
<g id="Des">
	<rect width="60" x="0" fill="none" height="14.525" y="31.722"/>
	<path fill="#FFFFFF" d="M8.495,35.361H8.459l-1.967,1.065L6.15,34.924l2.587-1.415h1.652v11.703H8.495V35.361z"/>
	<path fill="#FFFFFF" d="M13.043,45.212v-1.277l1.079-1.425c1.466-1.935,2.885-3.805,2.885-5.71c0-1.103-0.543-1.821-1.57-1.821   c-0.785,0-1.358,0.379-1.728,0.612l-0.38-1.47c0.478-0.345,1.395-0.757,2.458-0.757c2.284,0,3.12,1.589,3.12,3.305   c0,2.196-1.405,4.122-2.794,5.873l-0.736,0.938v0.036h3.719v1.696H13.043z"/>
	<path fill="#FFFFFF" d="M23.793,33.076h1.922v10.507h3.243v1.629h-5.165V33.076z"/>
	<path fill="#FFFFFF" d="M33.932,45.212l-0.113-0.893h-0.044c-0.437,0.676-1.087,1.037-1.856,1.037   c-1.257,0-2.206-1.055-2.206-2.593c0-2.252,1.905-3.204,3.888-3.222V39.31c0-0.913-0.357-1.555-1.311-1.555   c-0.627,0-1.158,0.183-1.634,0.486l-0.37-1.312c0.432-0.272,1.354-0.627,2.423-0.627c2.256,0,2.834,1.545,2.834,3.41v3.503   c0,0.682,0.021,1.415,0.112,1.996H33.932z M33.651,40.822c-0.748,0.011-2.104,0.219-2.104,1.744c0,0.989,0.527,1.347,0.95,1.347   c0.481,0,0.945-0.327,1.107-1.003c0.036-0.137,0.046-0.294,0.046-0.445V40.822z"/>
	<path fill="#FFFFFF" d="M37.332,38.916c0-0.99-0.043-1.693-0.071-2.47h1.665l0.098,1.031h0.036   c0.416-0.702,1.154-1.175,2.072-1.175c1.461,0,2.239,1.135,2.239,3.167v5.742h-1.922v-5.559c0-0.876-0.186-1.731-1.022-1.731   c-0.478,0-0.905,0.366-1.075,1.072c-0.057,0.193-0.098,0.477-0.098,0.798v5.42h-1.922V38.916z"/>
	<path fill="#FFFFFF" d="M49.745,45.031c-0.271,0.145-0.828,0.289-1.477,0.289c-2.081,0-3.465-1.541-3.465-4.422   c0-2.625,1.452-4.575,3.776-4.575c0.517,0,1.021,0.126,1.26,0.255l-0.293,1.524c-0.19-0.078-0.507-0.196-0.93-0.196   c-1.251,0-1.896,1.34-1.896,2.954c0,1.792,0.724,2.884,1.897,2.884c0.354,0,0.656-0.069,0.937-0.208L49.745,45.031z"/>
	<path fill="#FFFFFF" d="M50.77,38.916c0-0.812-0.043-1.725-0.071-2.47h1.681l0.098,1.322h0.057c0.339-0.889,1.064-1.466,1.78-1.466   c0.187,0,0.292,0.01,0.408,0.03v1.922c-0.118-0.021-0.244-0.021-0.411-0.021c-0.665,0-1.334,0.556-1.539,1.505   c-0.049,0.211-0.08,0.507-0.08,0.841v4.632H50.77V38.916z"/>
</g>
<g>
</g>
<g>
</g>
<g>
</g>
<g>
</g>
<g>
</g>
<g>
</g>
</svg>