<!-- Generator: Adobe Illustrator 25.2.3, SVG Export Plug-In . SVG Version: 6.00 Build 0)  --><svg x="0px" enable-background="new 0 0 60 60" y="0px" width="60px" xmlns:xlink="http://www.w3.org/1999/xlink" viewBox="0 0 60 60" height="60px" id="Layer_1" xmlns="http://www.w3.org/2000/svg" xml:space="preserve" version="1.1">
<rect width="60" fill="#CB2026" x="-0.012" height="60" id="UnitColor_2_" y="-0.085"/>
<rect width="60" fill="#640D0D" height="20.2" id="CS_1_" y="11.533" display="none"/>
<g id="Gar" display="none">
	<rect width="14.843" fill="none" x="0.73" height="8.039" y="2.802" display="inline"/>
	<path fill="#FFFFFF" d="M11.03,10.06c-0.472,0.163-1.361,0.379-2.249,0.379c-1.231,0-2.119-0.308-2.739-0.903   C5.424,8.949,5.085,8.072,5.089,7.083C5.097,4.842,6.73,3.567,8.936,3.567c0.87,0,1.539,0.165,1.873,0.323L10.49,5.111   C10.117,4.95,9.664,4.825,8.922,4.825c-1.27,0-2.235,0.714-2.235,2.18c0,1.391,0.878,2.205,2.125,2.205   c0.344,0,0.623-0.04,0.745-0.095V7.699H8.516V6.512h2.514V10.06z" display="inline"/>
</g>
<g id="Eng" display="none">
	<rect width="27.832" fill="none" x="1.1" height="8.039" y="2.802" display="inline"/>
	<path fill="#FFFFFF" d="M17.011,7.521h-2.479v1.602h2.771v1.248h-4.294V3.634h4.15v1.248h-2.626v1.403h2.479   V7.521z" display="inline"/>
</g>
<g id="P2" display="none">
	<path fill="#FFFFFF" d="M19.024,28.186c0.472-1.148,0.803-2.149,0.992-3.001c0.282-1.24,0.423-2.417,0.423-3.534   c0-1.066-0.099-2.078-0.295-3.035c-0.197-0.957-0.575-2.146-1.135-3.568h1.146c0.628,1.03,1.101,2.092,1.419,3.186   c0.319,1.094,0.478,2.185,0.478,3.274c0,1.094-0.159,2.218-0.476,3.374s-0.786,2.257-1.407,3.305H19.024z" display="inline"/>
</g>
<g id="P1" display="none">
	<path fill="#FFFFFF" d="M8.327,28.186H7.182c-0.605-1.025-1.071-2.111-1.396-3.257s-0.487-2.257-0.487-3.333   c0-1.162,0.163-2.296,0.489-3.401c0.326-1.105,0.795-2.154,1.408-3.148h1.146c-0.56,1.422-0.938,2.611-1.135,3.568   c-0.197,0.957-0.295,1.969-0.295,3.035c0,1.103,0.139,2.27,0.416,3.5C7.522,26.016,7.855,27.028,8.327,28.186z" display="inline"/>
</g>
<g id="Type">
	<path fill="#FFFFFF" d="M53.265,12.893v17.022H26.785V12.893H53.265z M28.204,15.139v12.53l10.443-6.265L28.204,15.139z    M50.468,14.312H29.583l10.443,6.265L50.468,14.312z M29.583,28.497h20.885l-10.442-6.265L29.583,28.497z M41.404,21.404   l10.441,6.265v-12.53L41.404,21.404z"/>
</g>
<g id="STK">
	<path fill="#FFFFFF" d="M13.307,17.911h-0.036l-2.139,1.074l-0.386-1.671l2.857-1.406h1.847v11.703h-2.144V17.911z"/>
</g>
<g id="ECH">
	<rect width="27.832" x="26.078" fill="none" height="8.039" y="2.802"/>
	<path fill="#FFFFFF" d="M39.33,3.634v6.736h-1.523V3.634H39.33z"/>
	<path fill="#FFFFFF" d="M42.18,3.634v6.736h-1.522V3.634H42.18z"/>
</g>
<g id="PF">
	<rect width="60" x="0" fill="none" height="15.475" y="44.525"/>
	<path fill="#FFFFFF" d="M19.739,50.459h-0.02l-1.101,0.565l-0.221-1.026l1.489-0.771h1.147v6.496h-1.295V50.459z"/>
	<path fill="#FFFFFF" d="M22.638,54.48c0.257,0.149,0.626,0.257,0.967,0.257c0.637,0,0.989-0.398,0.989-0.941   c0-0.725-0.559-1.027-1.22-1.035h-0.18v-0.957h0.128c0.481-0.008,1.093-0.211,1.093-0.837c0-0.47-0.293-0.747-0.754-0.747   c-0.292,0-0.58,0.104-0.817,0.253l-0.175-0.984c0.267-0.176,0.796-0.342,1.335-0.342c1.142,0,1.719,0.735,1.719,1.567   c0,0.649-0.361,1.187-0.935,1.456v0.021c0.629,0.217,1.112,0.777,1.112,1.652c0,0.995-0.758,1.96-2.173,1.96   c-0.525,0-0.991-0.128-1.272-0.286L22.638,54.48z"/>
	<path fill="#FFFFFF" d="M26.898,54.48c0.257,0.149,0.626,0.257,0.967,0.257c0.637,0,0.989-0.398,0.989-0.941   c0-0.725-0.559-1.027-1.22-1.035h-0.18v-0.957h0.128c0.481-0.008,1.093-0.211,1.093-0.837c0-0.47-0.293-0.747-0.754-0.747   c-0.292,0-0.58,0.104-0.817,0.253l-0.175-0.984c0.267-0.176,0.796-0.342,1.335-0.342c1.142,0,1.719,0.735,1.719,1.567   c0,0.649-0.361,1.187-0.935,1.456v0.021c0.629,0.217,1.112,0.777,1.112,1.652c0,0.995-0.758,1.96-2.173,1.96   c-0.525,0-0.991-0.128-1.272-0.286L26.898,54.48z"/>
	<path fill="#FFFFFF" d="M30.509,56.122l2.344-7.216h0.852l-2.345,7.216H30.509z"/>
	<path fill="#FFFFFF" d="M35.868,55.723V54.17h-2.229v-0.896l2.125-4.047h1.265v3.896h0.646v1.048h-0.646v1.553H35.868z    M35.868,53.122v-1.329c0-0.344,0.035-0.725,0.065-1.07h-0.032c-0.149,0.359-0.281,0.654-0.458,1.013l-0.69,1.367v0.02H35.868z"/>
	<path fill="#FFFFFF" d="M40.128,55.723V54.17h-2.229v-0.896l2.125-4.047h1.265v3.896h0.646v1.048h-0.646v1.553H40.128z    M40.128,53.122v-1.329c0-0.344,0.035-0.725,0.065-1.07h-0.032c-0.149,0.359-0.281,0.654-0.458,1.013l-0.69,1.367v0.02H40.128z"/>
</g>
<g id="Des">
	<rect width="60" x="0" fill="none" height="14.525" y="31.722"/>
	<path fill="#FFFFFF" d="M12.692,45.212v-1.277l1.079-1.425c1.466-1.935,2.885-3.805,2.885-5.71c0-1.103-0.543-1.821-1.57-1.821   c-0.785,0-1.358,0.379-1.728,0.612l-0.38-1.47c0.478-0.345,1.395-0.757,2.458-0.757c2.284,0,3.12,1.589,3.12,3.305   c0,2.196-1.405,4.122-2.794,5.873l-0.736,0.938v0.036h3.719v1.696H12.692z"/>
	<path fill="#FFFFFF" d="M20.598,33.257c0.671-0.16,1.511-0.234,2.315-0.234c1.247,0,2.292,0.216,3.007,0.887   c0.676,0.641,0.916,1.451,0.916,2.453c0,1.414-0.68,2.506-1.907,3.074v0.036c0.854,0.306,1.297,1.111,1.544,2.548   c0.255,1.486,0.545,2.777,0.74,3.191H25.22c-0.16-0.348-0.417-1.538-0.625-2.948c-0.234-1.58-0.683-2.093-1.644-2.093H22.51v5.041   h-1.912V33.257z M22.51,38.688h0.5c1.156,0,1.878-0.898,1.878-2.13c0-1.2-0.482-1.998-1.734-2.019   c-0.242,0-0.489,0.018-0.644,0.072V38.688z"/>
	<path fill="#FFFFFF" d="M28.294,43.161c0.453,0.272,1.242,0.483,1.882,0.483c1.184,0,1.83-0.693,1.83-1.686   c0-0.981-0.597-1.533-1.589-2.218c-1.342-0.859-2.287-2.068-2.287-3.38c0-1.897,1.289-3.394,3.555-3.394   c0.781,0,1.488,0.232,1.812,0.44l-0.357,1.649c-0.329-0.216-0.844-0.414-1.499-0.414c-1.092,0-1.612,0.742-1.612,1.472   c0,0.94,0.485,1.368,1.721,2.166c1.543,0.998,2.155,2.176,2.155,3.48c0,2.17-1.563,3.559-3.732,3.559   c-0.913,0-1.823-0.258-2.201-0.507L28.294,43.161z"/>
	<path fill="#FFFFFF" d="M35.116,43.161c0.452,0.272,1.241,0.483,1.882,0.483c1.184,0,1.83-0.693,1.83-1.686   c0-0.981-0.597-1.533-1.589-2.218c-1.343-0.859-2.287-2.068-2.287-3.38c0-1.897,1.289-3.394,3.555-3.394   c0.781,0,1.488,0.232,1.812,0.44l-0.357,1.649c-0.329-0.216-0.844-0.414-1.499-0.414c-1.092,0-1.612,0.742-1.612,1.472   c0,0.94,0.485,1.368,1.722,2.166c1.543,0.998,2.155,2.176,2.155,3.48c0,2.17-1.563,3.559-3.732,3.559   c-0.912,0-1.822-0.258-2.2-0.507L35.116,43.161z"/>
	<path fill="#FFFFFF" d="M43.418,36.446l0.654,1.704c0.193,0.517,0.351,1.034,0.503,1.497h0.036   c0.151-0.489,0.322-1.016,0.489-1.497l0.639-1.704h1.943l-2.032,4.318l2.039,4.447h-2.086l-0.706-1.802   c-0.175-0.448-0.324-0.898-0.491-1.41H44.37c-0.145,0.483-0.317,0.949-0.479,1.42l-0.654,1.792h-1.936l2.01-4.375l-1.971-4.391   H43.418z"/>
</g>
<g>
</g>
<g>
</g>
<g>
</g>
<g>
</g>
<g>
</g>
<g>
</g>
</svg>