<!-- Generator: Adobe Illustrator 25.2.3, SVG Export Plug-In . SVG Version: 6.00 Build 0)  --><svg x="0px" enable-background="new 0 0 60 60" y="0px" width="60px" xmlns:xlink="http://www.w3.org/1999/xlink" viewBox="0 0 60 60" height="60px" id="Layer_1" xmlns="http://www.w3.org/2000/svg" xml:space="preserve" version="1.1">
<rect width="60" fill="#CB2026" x="-0.012" height="60" id="UnitColor_2_" y="-0.085"/>
<rect width="60" fill="#640D0D" height="20.2" id="CS_1_" y="11.533"/>
<g id="Gar" display="none">
	<rect width="14.843" fill="none" x="0.73" height="8.039" y="2.802" display="inline"/>
	<path fill="#FFFFFF" d="M11.03,10.06c-0.472,0.163-1.361,0.379-2.249,0.379c-1.231,0-2.119-0.308-2.739-0.903   C5.424,8.949,5.085,8.072,5.089,7.083C5.097,4.842,6.73,3.567,8.936,3.567c0.87,0,1.539,0.165,1.873,0.323L10.49,5.111   C10.117,4.95,9.664,4.825,8.922,4.825c-1.27,0-2.235,0.714-2.235,2.18c0,1.391,0.878,2.205,2.125,2.205   c0.344,0,0.623-0.04,0.745-0.095V7.699H8.516V6.512h2.514V10.06z" display="inline"/>
</g>
<g id="Eng" display="none">
	<rect width="27.832" fill="none" x="1.1" height="8.039" y="2.802" display="inline"/>
	<path fill="#FFFFFF" d="M17.011,7.521h-2.479v1.602h2.771v1.248h-4.294V3.634h4.15v1.248h-2.626v1.403h2.479   V7.521z" display="inline"/>
</g>
<g id="P2">
	<path fill="#FFFFFF" d="M19.024,28.186c0.472-1.148,0.803-2.149,0.992-3.001c0.282-1.24,0.423-2.417,0.423-3.534   c0-1.066-0.099-2.078-0.295-3.035c-0.197-0.957-0.575-2.146-1.135-3.568h1.146c0.628,1.03,1.101,2.092,1.419,3.186   c0.319,1.094,0.478,2.185,0.478,3.274c0,1.094-0.159,2.218-0.476,3.374s-0.786,2.257-1.407,3.305H19.024z"/>
</g>
<g id="P1">
	<path fill="#FFFFFF" d="M8.327,28.186H7.182c-0.605-1.025-1.071-2.111-1.396-3.257s-0.487-2.257-0.487-3.333   c0-1.162,0.163-2.296,0.489-3.401c0.326-1.105,0.795-2.154,1.408-3.148h1.146c-0.56,1.422-0.938,2.611-1.135,3.568   c-0.197,0.957-0.295,1.969-0.295,3.035c0,1.103,0.139,2.27,0.416,3.5C7.522,26.016,7.855,27.028,8.327,28.186z"/>
</g>
<g id="Type">
	<path fill="#FFFFFF" d="M53.265,12.893v17.022H26.785V12.893H53.265z M51.846,14.312H28.204v14.185h23.642V14.312z M31.115,24.371   c-0.792-0.819-1.217-1.895-1.198-3.033c0.038-2.312,1.878-4.152,4.19-4.189c0.003,0,0.005,0.002,0.007,0.002v-0.002h11.814   c0.006,0,0.012-0.004,0.019-0.004c2.349,0.039,4.228,1.98,4.19,4.329c-0.038,2.311-1.88,4.151-4.189,4.189   c-0.005,0-0.009,0-0.013,0v0.004H34.118c-0.001,0-0.003,0-0.004,0s-0.004,0-0.007,0C32.97,25.647,31.907,25.188,31.115,24.371z    M31.336,21.361c-0.012,0.758,0.271,1.477,0.8,2.022c0.527,0.545,1.235,0.852,1.994,0.864h11.776c0.006,0,0.012-0.004,0.017-0.004   c1.543-0.025,2.771-1.253,2.795-2.794c0.025-1.562-1.222-2.854-2.782-2.885v0.003H34.13C32.589,18.592,31.361,19.819,31.336,21.361   z"/>
</g>
<g id="STK">
	<path fill="#FFFFFF" d="M9.839,27.611v-1.345l1.388-1.292c2.753-2.546,4.052-3.949,4.066-5.496c0-1.058-0.562-1.97-2.091-1.97   c-1.036,0-1.914,0.524-2.499,0.975l-0.649-1.574c0.841-0.67,2.121-1.199,3.593-1.199c2.595,0,3.865,1.631,3.865,3.545   c0,2.059-1.479,3.712-3.525,5.602l-1.013,0.888v0.036h4.796v1.831H9.839z"/>
</g>
<g id="ECH">
	<rect width="27.832" x="26.078" fill="none" height="8.039" y="2.802"/>
	<path fill="#FFFFFF" d="M41.133,10.37l-0.607-1.219c-0.244-0.472-0.412-0.823-0.598-1.213h-0.021   c-0.141,0.391-0.306,0.744-0.524,1.209l-0.557,1.223h-1.734l1.946-3.411L37.16,3.634h1.752l0.59,1.227   c0.197,0.409,0.343,0.742,0.502,1.12h0.025c0.163-0.428,0.288-0.728,0.46-1.116l0.565-1.23h1.739l-1.898,3.287l1.999,3.449H41.133z   "/>
</g>
<g id="PF">
	<rect width="60" x="0" fill="none" height="15.475" y="44.525"/>
	<path fill="#FFFFFF" d="M28.074,54.03c0-0.807,0.442-1.386,0.978-1.729l-0.002-0.02c-0.553-0.362-0.795-0.918-0.795-1.425   c0-1.064,0.834-1.711,1.839-1.711c0.924,0,1.671,0.633,1.671,1.598c0,0.431-0.167,1.016-0.85,1.441v0.021   c0.599,0.324,1.004,0.925,1.004,1.693c0,1.204-0.879,1.902-1.947,1.902C28.855,55.803,28.074,55.096,28.074,54.03z M30.651,53.956   c0-0.617-0.381-1.01-0.748-1.2c-0.332,0.224-0.562,0.629-0.562,1.131c0,0.562,0.226,1.031,0.675,1.031   C30.431,54.918,30.651,54.502,30.651,53.956z M29.482,50.818c0,0.459,0.255,0.775,0.639,0.979c0.273-0.147,0.446-0.548,0.446-0.928   c0-0.44-0.146-0.847-0.532-0.847C29.655,50.022,29.482,50.411,29.482,50.818z"/>
</g>
<g id="Des">
	<rect width="60" x="0" fill="none" height="14.525" y="31.722"/>
	<path fill="#FFFFFF" d="M23.159,45.212v-1.277l1.079-1.425c1.466-1.935,2.885-3.805,2.885-5.71c0-1.103-0.543-1.821-1.57-1.821   c-0.785,0-1.358,0.379-1.728,0.612l-0.38-1.47c0.478-0.345,1.395-0.757,2.458-0.757c2.284,0,3.12,1.589,3.12,3.305   c0,2.196-1.405,4.122-2.794,5.873l-0.736,0.938v0.036h3.719v1.696H23.159z"/>
	<path fill="#FFFFFF" d="M30.787,43.307c0.419,0.25,1.064,0.474,1.718,0.474c1.179,0,1.892-0.788,1.892-1.981   c0-1.407-0.987-2.106-2.271-2.116h-0.324v-1.42h0.247c0.852-0.01,2.033-0.495,2.033-1.765c0-0.997-0.572-1.548-1.441-1.548   c-0.551,0-1.065,0.229-1.469,0.5l-0.309-1.445c0.457-0.329,1.336-0.641,2.267-0.641c1.876,0,2.871,1.263,2.871,2.765   c0,1.17-0.635,2.169-1.711,2.676v0.036c1.093,0.347,2.027,1.321,2.027,3.02c0,1.84-1.306,3.496-3.663,3.496   c-0.863,0-1.694-0.227-2.185-0.528L30.787,43.307z"/>
</g>
<g>
</g>
<g>
</g>
<g>
</g>
<g>
</g>
<g>
</g>
<g>
</g>
</svg>