<!-- Generator: Adobe Illustrator 25.2.3, SVG Export Plug-In . SVG Version: 6.00 Build 0)  --><svg x="0px" enable-background="new 0 0 60 60" y="0px" width="60px" xmlns:xlink="http://www.w3.org/1999/xlink" viewBox="0 0 60 60" height="60px" id="Layer_1" xmlns="http://www.w3.org/2000/svg" xml:space="preserve" version="1.1">
<rect width="60" fill="#CB2026" x="-0.012" height="60" id="UnitColor_2_" y="-0.085"/>
<rect width="60" fill="#640D0D" height="20.2" id="CS_1_" y="11.533" display="none"/>
<g id="Gar" display="none">
	<rect width="14.843" fill="none" x="0.73" height="8.039" y="2.802" display="inline"/>
	<path fill="#FFFFFF" d="M11.03,10.06c-0.472,0.163-1.361,0.379-2.249,0.379c-1.231,0-2.119-0.308-2.739-0.903   C5.424,8.949,5.085,8.072,5.089,7.083C5.097,4.842,6.73,3.567,8.936,3.567c0.87,0,1.539,0.165,1.873,0.323L10.49,5.111   C10.117,4.95,9.664,4.825,8.922,4.825c-1.27,0-2.235,0.714-2.235,2.18c0,1.391,0.878,2.205,2.125,2.205   c0.344,0,0.623-0.04,0.745-0.095V7.699H8.516V6.512h2.514V10.06z" display="inline"/>
</g>
<g id="Eng" display="none">
	<rect width="27.832" fill="none" x="1.1" height="8.039" y="2.802" display="inline"/>
	<path fill="#FFFFFF" d="M17.011,7.521h-2.479v1.602h2.771v1.248h-4.294V3.634h4.15v1.248h-2.626v1.403h2.479   V7.521z" display="inline"/>
</g>
<g id="P2" display="none">
	<path fill="#FFFFFF" d="M19.024,28.186c0.472-1.148,0.803-2.149,0.992-3.001c0.282-1.24,0.423-2.417,0.423-3.534   c0-1.066-0.099-2.078-0.295-3.035c-0.197-0.957-0.575-2.146-1.135-3.568h1.146c0.628,1.03,1.101,2.092,1.419,3.186   c0.319,1.094,0.478,2.185,0.478,3.274c0,1.094-0.159,2.218-0.476,3.374s-0.786,2.257-1.407,3.305H19.024z" display="inline"/>
</g>
<g id="P1" display="none">
	<path fill="#FFFFFF" d="M8.327,28.186H7.182c-0.605-1.025-1.071-2.111-1.396-3.257s-0.487-2.257-0.487-3.333   c0-1.162,0.163-2.296,0.489-3.401c0.326-1.105,0.795-2.154,1.408-3.148h1.146c-0.56,1.422-0.938,2.611-1.135,3.568   c-0.197,0.957-0.295,1.969-0.295,3.035c0,1.103,0.139,2.27,0.416,3.5C7.522,26.016,7.855,27.028,8.327,28.186z" display="inline"/>
</g>
<g id="Type">
	<path fill="#FFFFFF" d="M53.265,12.893v17.022H26.785V12.893H53.265z M51.846,14.312H28.204v14.185h23.642V14.312z M31.115,24.371   c-0.792-0.819-1.217-1.895-1.198-3.033c0.038-2.312,1.878-4.152,4.19-4.189c0.003,0,0.005,0.002,0.007,0.002v-0.002h11.814   c0.006,0,0.012-0.004,0.019-0.004c2.349,0.039,4.228,1.98,4.19,4.329c-0.038,2.311-1.88,4.151-4.189,4.189   c-0.005,0-0.009,0-0.013,0v0.004H34.118c-0.001,0-0.003,0-0.004,0s-0.004,0-0.007,0C32.97,25.647,31.907,25.188,31.115,24.371z    M31.336,21.361c-0.012,0.758,0.271,1.477,0.8,2.022c0.527,0.545,1.235,0.852,1.994,0.864h11.776c0.006,0,0.012-0.004,0.017-0.004   c1.543-0.025,2.771-1.253,2.795-2.794c0.025-1.562-1.222-2.854-2.782-2.885v0.003H34.13C32.589,18.592,31.361,19.819,31.336,21.361   z"/>
</g>
<g id="STK">
	<path fill="#FFFFFF" d="M13.307,17.911h-0.036l-2.139,1.074l-0.386-1.671l2.857-1.406h1.847v11.703h-2.144V17.911z"/>
</g>
<g id="ECH">
	<rect width="27.832" x="26.078" fill="none" height="8.039" y="2.802"/>
	<path fill="#FFFFFF" d="M39.33,3.634v6.736h-1.523V3.634H39.33z"/>
	<path fill="#FFFFFF" d="M42.18,3.634v6.736h-1.522V3.634H42.18z"/>
</g>
<g id="PF">
	<rect width="60" x="0" fill="none" height="15.475" y="44.525"/>
	<path fill="#FFFFFF" d="M19.809,50.459h-0.02l-1.101,0.565l-0.221-1.026l1.489-0.771h1.147v6.496h-1.295V50.459z"/>
	<path fill="#FFFFFF" d="M25.515,54.185l-0.295,1.538h-1.271l1.463-6.736h1.568l1.31,6.736h-1.275l-0.288-1.538H25.515z    M26.611,53.168l-0.225-1.41c-0.065-0.409-0.155-1.086-0.221-1.531h-0.024c-0.072,0.447-0.172,1.144-0.242,1.533l-0.247,1.408   H26.611z"/>
	<path fill="#FFFFFF" d="M28.894,52.303c0-0.486-0.022-1.015-0.04-1.472h1.135l0.067,0.716h0.036   c0.215-0.521,0.611-0.796,0.968-0.796c0.133,0,0.202,0.008,0.279,0.023v1.297c-0.083-0.016-0.168-0.016-0.284-0.016   c-0.273,0-0.649,0.192-0.792,0.695c-0.034,0.108-0.057,0.285-0.057,0.488v2.483h-1.312V52.303z"/>
	<path fill="#FFFFFF" d="M31.826,52.303c0-0.534-0.022-1.006-0.04-1.472h1.139l0.066,0.57h0.021c0.251-0.363,0.661-0.65,1.165-0.65   c0.548,0,0.9,0.253,1.066,0.669h0.021c0.122-0.191,0.306-0.375,0.499-0.495c0.197-0.114,0.434-0.174,0.683-0.174   c0.875,0,1.266,0.694,1.266,1.869v3.103h-1.305v-2.882c0-0.554-0.062-1.003-0.455-1.003c-0.23,0-0.404,0.158-0.493,0.442   c-0.021,0.073-0.037,0.209-0.037,0.348v3.095h-1.305v-3.064c0-0.356-0.035-0.82-0.445-0.82c-0.2,0-0.399,0.145-0.489,0.439   c-0.027,0.087-0.051,0.228-0.051,0.369v3.076h-1.305V52.303z"/>
	<path fill="#FFFFFF" d="M39.524,50.831l0.479,2.548c0.055,0.288,0.097,0.551,0.138,0.817h0.02c0.036-0.25,0.075-0.528,0.118-0.802   l0.404-2.563h1.282l-0.998,3.776c-0.237,0.918-0.562,1.864-1.088,2.491c-0.416,0.486-0.909,0.714-1.114,0.772l-0.393-1.133   c0.222-0.078,0.448-0.226,0.646-0.406c0.178-0.168,0.316-0.37,0.41-0.581c0.04-0.085,0.065-0.143,0.065-0.213   c0-0.06-0.016-0.119-0.035-0.18l-1.345-4.527H39.524z"/>
</g>
<g id="Des">
	<rect width="60" x="0" fill="none" height="14.525" y="31.722"/>
	<path fill="#FFFFFF" d="M14.153,45.212v-2.991h-3.961V40.91l3.82-7.401h1.86v7.165h1.209v1.547h-1.209v2.991H14.153z    M14.153,40.674v-2.806c0-0.703,0.056-1.408,0.11-2.099h-0.062c-0.325,0.778-0.567,1.316-0.896,1.998l-1.414,2.87v0.036H14.153z"/>
	<path fill="#FFFFFF" d="M17.786,45.212v-1.277l1.079-1.425c1.466-1.935,2.885-3.805,2.885-5.71c0-1.103-0.543-1.821-1.57-1.821   c-0.785,0-1.358,0.379-1.728,0.612l-0.38-1.47c0.478-0.345,1.395-0.757,2.458-0.757c2.284,0,3.12,1.589,3.12,3.305   c0,2.196-1.405,4.122-2.794,5.873l-0.736,0.938v0.036h3.719v1.696H17.786z"/>
	<path fill="#FFFFFF" d="M28.536,33.257c0.671-0.16,1.511-0.234,2.315-0.234c1.247,0,2.293,0.216,3.007,0.887   c0.676,0.641,0.915,1.451,0.915,2.453c0,1.414-0.679,2.506-1.906,3.074v0.036c0.854,0.306,1.297,1.111,1.544,2.548   c0.255,1.486,0.546,2.777,0.741,3.191h-1.994c-0.159-0.348-0.417-1.538-0.625-2.948c-0.234-1.58-0.683-2.093-1.644-2.093h-0.441   v5.041h-1.912V33.257z M30.447,38.688h0.5c1.156,0,1.878-0.898,1.878-2.13c0-1.2-0.481-1.998-1.734-2.019   c-0.242,0-0.489,0.018-0.644,0.072V38.688z"/>
	<path fill="#FFFFFF" d="M37.737,34.839h-2.177v-1.763h6.285v1.763h-2.187v10.373h-1.922V34.839z"/>
	<path fill="#FFFFFF" d="M43.151,33.257c0.67-0.16,1.511-0.234,2.314-0.234c1.247,0,2.293,0.216,3.007,0.887   c0.676,0.641,0.915,1.451,0.915,2.453c0,1.414-0.679,2.506-1.906,3.074v0.036c0.854,0.306,1.297,1.111,1.544,2.548   c0.255,1.486,0.546,2.777,0.741,3.191h-1.994c-0.159-0.348-0.417-1.538-0.625-2.948c-0.234-1.58-0.683-2.093-1.644-2.093h-0.441   v5.041h-1.911V33.257z M45.062,38.688h0.5c1.156,0,1.878-0.898,1.878-2.13c0-1.2-0.481-1.998-1.734-2.019   c-0.242,0-0.489,0.018-0.644,0.072V38.688z"/>
</g>
<g>
</g>
<g>
</g>
<g>
</g>
<g>
</g>
<g>
</g>
<g>
</g>
</svg>