<!-- Generator: Adobe Illustrator 25.2.3, SVG Export Plug-In . SVG Version: 6.00 Build 0)  --><svg x="0px" enable-background="new 0 0 60 60" y="0px" width="60px" xmlns:xlink="http://www.w3.org/1999/xlink" viewBox="0 0 60 60" height="60px" id="Layer_1" xmlns="http://www.w3.org/2000/svg" xml:space="preserve" version="1.1">
<rect width="60" fill="#CB2026" x="-0.012" height="60" id="UnitColor_2_" y="-0.085"/>
<rect width="60" fill="#640D0D" height="20.2" id="CS_1_" y="11.533" display="none"/>
<g id="Gar" display="none">
	<rect width="14.843" fill="none" x="0.73" height="8.039" y="2.802" display="inline"/>
	<path fill="#FFFFFF" d="M11.03,10.06c-0.472,0.163-1.361,0.379-2.249,0.379c-1.231,0-2.119-0.308-2.739-0.903   C5.424,8.949,5.085,8.072,5.089,7.083C5.097,4.842,6.73,3.567,8.936,3.567c0.87,0,1.539,0.165,1.873,0.323L10.49,5.111   C10.117,4.95,9.664,4.825,8.922,4.825c-1.27,0-2.235,0.714-2.235,2.18c0,1.391,0.878,2.205,2.125,2.205   c0.344,0,0.623-0.04,0.745-0.095V7.699H8.516V6.512h2.514V10.06z" display="inline"/>
</g>
<g id="Eng" display="none">
	<rect width="27.832" fill="none" x="1.1" height="8.039" y="2.802" display="inline"/>
	<path fill="#FFFFFF" d="M17.011,7.521h-2.479v1.602h2.771v1.248h-4.294V3.634h4.15v1.248h-2.626v1.403h2.479   V7.521z" display="inline"/>
</g>
<g id="P2" display="none">
	<path fill="#FFFFFF" d="M19.024,28.186c0.472-1.148,0.803-2.149,0.992-3.001c0.282-1.24,0.423-2.417,0.423-3.534   c0-1.066-0.099-2.078-0.295-3.035c-0.197-0.957-0.575-2.146-1.135-3.568h1.146c0.628,1.03,1.101,2.092,1.419,3.186   c0.319,1.094,0.478,2.185,0.478,3.274c0,1.094-0.159,2.218-0.476,3.374s-0.786,2.257-1.407,3.305H19.024z" display="inline"/>
</g>
<g id="P1" display="none">
	<path fill="#FFFFFF" d="M8.327,28.186H7.182c-0.605-1.025-1.071-2.111-1.396-3.257s-0.487-2.257-0.487-3.333   c0-1.162,0.163-2.296,0.489-3.401c0.326-1.105,0.795-2.154,1.408-3.148h1.146c-0.56,1.422-0.938,2.611-1.135,3.568   c-0.197,0.957-0.295,1.969-0.295,3.035c0,1.103,0.139,2.27,0.416,3.5C7.522,26.016,7.855,27.028,8.327,28.186z" display="inline"/>
</g>
<g id="Type">
	<path fill="#FFFFFF" d="M53.265,12.893v17.022H26.785V12.893H53.265z M51.846,14.312H28.204v14.185h23.642V14.312z M37.26,21.404   c0-1.436,1.238-2.601,2.766-2.601s2.765,1.165,2.765,2.601c0,1.437-1.237,2.601-2.765,2.601S37.26,22.84,37.26,21.404z"/>
</g>
<g id="STK">
	<path fill="#FFFFFF" d="M13.307,17.911h-0.036l-2.139,1.074l-0.386-1.671l2.857-1.406h1.847v11.703h-2.144V17.911z"/>
</g>
<g id="ECH">
	<rect width="27.832" x="26.078" fill="none" height="8.039" y="2.802"/>
	<path fill="#FFFFFF" d="M39.33,3.634v6.736h-1.523V3.634H39.33z"/>
	<path fill="#FFFFFF" d="M42.18,3.634v6.736h-1.522V3.634H42.18z"/>
</g>
<g id="PF">
	<rect width="60" x="0" fill="none" height="15.475" y="44.525"/>
	<path fill="#FFFFFF" d="M22.472,49.227v0.858l-2.044,5.638h-1.273l1.991-5.322v-0.02h-2.214v-1.154H22.472z"/>
	<path fill="#FFFFFF" d="M23.228,54.38c0.271,0.156,0.735,0.265,1.108,0.265c0.618,0,0.926-0.321,0.926-0.765   c0-0.481-0.305-0.729-0.876-1.093c-0.92-0.565-1.269-1.271-1.269-1.883c0-1.082,0.717-1.978,2.129-1.978   c0.447,0,0.863,0.124,1.059,0.241l-0.209,1.127c-0.191-0.12-0.479-0.229-0.856-0.229c-0.562,0-0.831,0.339-0.831,0.695   c0,0.404,0.203,0.617,0.927,1.054c0.894,0.536,1.218,1.219,1.218,1.925c0,1.237-0.909,2.043-2.223,2.043   c-0.544,0-1.067-0.136-1.292-0.271L23.228,54.38z"/>
	<path fill="#FFFFFF" d="M27.273,52.381c0-0.587-0.022-1.085-0.04-1.55h1.135l0.067,0.568h0.02c0.205-0.4,0.571-0.648,1.027-0.648   c1.07,0,1.511,1.169,1.511,2.521c0,1.742-0.761,2.53-1.589,2.53c-0.395,0-0.668-0.247-0.806-0.476h-0.02v2.314h-1.305V52.381z    M28.578,53.938c0,0.162,0.023,0.315,0.067,0.414c0.101,0.299,0.275,0.378,0.422,0.378c0.458,0,0.625-0.677,0.625-1.445   c0-0.931-0.226-1.429-0.613-1.429c-0.203,0-0.388,0.188-0.444,0.419c-0.042,0.098-0.057,0.226-0.057,0.348V53.938z"/>
	<path fill="#FFFFFF" d="M33.293,49.514v1.317h0.957v0.929h-0.957v2.236c0,0.566,0.235,0.707,0.494,0.707   c0.127,0,0.228-0.01,0.345-0.029l0.011,1.023c-0.182,0.05-0.459,0.085-0.801,0.085c-0.378,0-0.71-0.088-0.946-0.311   c-0.269-0.256-0.415-0.632-0.415-1.399V51.76h-0.576v-0.929h0.576v-1.005L33.293,49.514z"/>
	<path fill="#FFFFFF" d="M34.18,56.122l2.344-7.216h0.852l-2.345,7.216H34.18z"/>
	<path fill="#FFFFFF" d="M41.132,49.227v0.858l-2.044,5.638h-1.273l1.991-5.322v-0.02h-2.214v-1.154H41.132z"/>
</g>
<g id="Des">
	<rect width="60" x="0" fill="none" height="14.525" y="31.722"/>
	<path fill="#FFFFFF" d="M16.673,45.212v-2.991h-3.961V40.91l3.82-7.401h1.86v7.165h1.209v1.547h-1.209v2.991H16.673z    M16.673,40.674v-2.806c0-0.703,0.056-1.408,0.11-2.099h-0.062c-0.325,0.778-0.567,1.316-0.896,1.998l-1.414,2.87v0.036H16.673z"/>
	<path fill="#FFFFFF" d="M23.712,33.257c0.671-0.16,1.511-0.234,2.315-0.234c1.247,0,2.292,0.216,3.007,0.887   c0.676,0.641,0.916,1.451,0.916,2.453c0,1.414-0.68,2.506-1.907,3.074v0.036c0.854,0.306,1.297,1.111,1.544,2.548   c0.255,1.486,0.545,2.777,0.74,3.191h-1.994c-0.16-0.348-0.417-1.538-0.625-2.948c-0.234-1.58-0.683-2.093-1.644-2.093h-0.441   v5.041h-1.912V33.257z M25.624,38.688h0.5c1.156,0,1.878-0.898,1.878-2.13c0-1.2-0.482-1.998-1.734-2.019   c-0.242,0-0.489,0.018-0.644,0.072V38.688z"/>
	<path fill="#FFFFFF" d="M33.608,33.076v5.021h2.883v-5.021h1.922v12.136h-1.922v-5.346h-2.883v5.346h-1.922V33.076H33.608z"/>
	<path fill="#FFFFFF" d="M42.247,42.049l-0.654,3.163h-1.863l2.699-12.136h2.244l2.51,12.136h-1.878l-0.645-3.163H42.247z    M44.459,40.543l-0.508-2.786c-0.144-0.793-0.306-1.913-0.438-2.763h-0.052c-0.134,0.857-0.313,2.014-0.46,2.771l-0.531,2.778   H44.459z"/>
</g>
<g>
</g>
<g>
</g>
<g>
</g>
<g>
</g>
<g>
</g>
<g>
</g>
</svg>