<!-- Generator: Adobe Illustrator 25.2.3, SVG Export Plug-In . SVG Version: 6.00 Build 0)  --><svg x="0px" enable-background="new 0 0 60 60" y="0px" width="60px" xmlns:xlink="http://www.w3.org/1999/xlink" viewBox="0 0 60 60" height="60px" id="Layer_1" xmlns="http://www.w3.org/2000/svg" xml:space="preserve" version="1.1">
<rect width="60" fill="#CB2026" x="-0.012" height="60" id="UnitColor_2_" y="-0.085"/>
<rect width="60" fill="#640D0D" height="20.2" id="CS_1_" y="11.533" display="none"/>
<g id="Gar" display="none">
	<rect width="14.843" fill="none" x="0.73" height="8.039" y="2.802" display="inline"/>
	<path fill="#FFFFFF" d="M11.03,10.06c-0.472,0.163-1.361,0.379-2.249,0.379c-1.231,0-2.119-0.308-2.739-0.903   C5.424,8.949,5.085,8.072,5.089,7.083C5.097,4.842,6.73,3.567,8.936,3.567c0.87,0,1.539,0.165,1.873,0.323L10.49,5.111   C10.117,4.95,9.664,4.825,8.922,4.825c-1.27,0-2.235,0.714-2.235,2.18c0,1.391,0.878,2.205,2.125,2.205   c0.344,0,0.623-0.04,0.745-0.095V7.699H8.516V6.512h2.514V10.06z" display="inline"/>
</g>
<g id="Eng" display="none">
	<rect width="27.832" fill="none" x="1.1" height="8.039" y="2.802" display="inline"/>
	<path fill="#FFFFFF" d="M17.011,7.521h-2.479v1.602h2.771v1.248h-4.294V3.634h4.15v1.248h-2.626v1.403h2.479   V7.521z" display="inline"/>
</g>
<g id="P2" display="none">
	<path fill="#FFFFFF" d="M19.024,28.186c0.472-1.148,0.803-2.149,0.992-3.001c0.282-1.24,0.423-2.417,0.423-3.534   c0-1.066-0.099-2.078-0.295-3.035c-0.197-0.957-0.575-2.146-1.135-3.568h1.146c0.628,1.03,1.101,2.092,1.419,3.186   c0.319,1.094,0.478,2.185,0.478,3.274c0,1.094-0.159,2.218-0.476,3.374s-0.786,2.257-1.407,3.305H19.024z" display="inline"/>
</g>
<g id="P1" display="none">
	<path fill="#FFFFFF" d="M8.327,28.186H7.182c-0.605-1.025-1.071-2.111-1.396-3.257s-0.487-2.257-0.487-3.333   c0-1.162,0.163-2.296,0.489-3.401c0.326-1.105,0.795-2.154,1.408-3.148h1.146c-0.56,1.422-0.938,2.611-1.135,3.568   c-0.197,0.957-0.295,1.969-0.295,3.035c0,1.103,0.139,2.27,0.416,3.5C7.522,26.016,7.855,27.028,8.327,28.186z" display="inline"/>
</g>
<g id="Type">
	<path fill="#FFFFFF" d="M53.265,12.893v17.022H26.785V12.893H53.265z M51.846,14.312H28.204v14.185h23.642V14.312z M37.26,21.404   c0-1.436,1.238-2.601,2.766-2.601s2.765,1.165,2.765,2.601c0,1.437-1.237,2.601-2.765,2.601S37.26,22.84,37.26,21.404z"/>
</g>
<g id="STK">
	<path fill="#FFFFFF" d="M13.307,17.911h-0.036l-2.139,1.074l-0.386-1.671l2.857-1.406h1.847v11.703h-2.144V17.911z"/>
</g>
<g id="ECH">
	<rect width="27.832" x="26.078" fill="none" height="8.039" y="2.802"/>
	<path fill="#FFFFFF" d="M37.905,3.634v6.736h-1.523V3.634H37.905z"/>
	<path fill="#FFFFFF" d="M40.756,3.634v6.736h-1.523V3.634H40.756z"/>
	<path fill="#FFFFFF" d="M43.605,3.634v6.736h-1.522V3.634H43.605z"/>
</g>
<g id="PF">
	<rect width="60" x="0" fill="none" height="15.475" y="44.525"/>
	<path fill="#FFFFFF" d="M28.079,55.723V54.17H25.85v-0.896l2.125-4.047h1.265v3.896h0.645v1.048H29.24v1.553H28.079z    M28.079,53.122v-1.329c0-0.344,0.036-0.725,0.065-1.07h-0.032c-0.15,0.359-0.282,0.654-0.458,1.013l-0.69,1.367v0.02H28.079z"/>
	<path fill="#FFFFFF" d="M32.339,55.723V54.17h-2.229v-0.896l2.125-4.047h1.265v3.896h0.646v1.048h-0.646v1.553H32.339z    M32.339,53.122v-1.329c0-0.344,0.035-0.725,0.065-1.07h-0.032c-0.149,0.359-0.281,0.654-0.458,1.013l-0.69,1.367v0.02H32.339z"/>
</g>
<g id="Des">
	<rect width="60" x="0" fill="none" height="14.525" y="31.722"/>
	<path fill="#FFFFFF" d="M18.546,35.184h-3.125l-0.366,2.557c0.131-0.022,0.247-0.022,0.394-0.022   c0.559,0.01,1.564,0.265,2.212,0.882c0.643,0.622,1.003,1.499,1.003,2.686c0,2.297-1.492,4.071-3.837,4.071   c-0.782,0-1.64-0.201-2.108-0.489l0.339-1.521c0.398,0.208,1.016,0.425,1.654,0.425c1.175,0,2.054-0.814,2.054-2.304   c0-1.698-1.16-2.338-2.585-2.338c-0.374,0-0.644,0.016-0.88,0.052l0.697-5.672h4.55V35.184z"/>
	<path fill="#FFFFFF" d="M20.008,42.25c0-1.539,0.875-2.584,1.832-3.225l-0.007-0.036c-0.985-0.655-1.48-1.669-1.48-2.613   c0-1.87,1.401-3.012,3.053-3.012c1.672,0,2.789,1.259,2.789,2.818c0,0.892-0.387,1.917-1.551,2.676v0.044   c1.08,0.646,1.837,1.714,1.837,3.113c0,2.013-1.413,3.341-3.277,3.341C21.215,45.356,20.008,43.955,20.008,42.25z M24.612,42.108   c0-1.218-0.726-1.949-1.494-2.408c-0.752,0.487-1.242,1.34-1.242,2.303c0,1.146,0.495,2.013,1.394,2.013   C24.065,44.016,24.612,43.309,24.612,42.108z M22.17,36.291c0,0.991,0.583,1.573,1.283,1.982c0.59-0.371,0.966-1.112,0.966-1.893   c0-0.943-0.351-1.687-1.113-1.687C22.58,34.694,22.17,35.409,22.17,36.291z"/>
	<path fill="#FFFFFF" d="M30.831,33.076h4.982v1.668h-3.06v3.63h2.866v1.606h-2.866v5.231h-1.922V33.076z"/>
	<path fill="#FFFFFF" d="M37.223,32.752h1.922v12.46h-1.922V32.752z"/>
	<path fill="#FFFFFF" d="M46.883,32.752v10.091c0,0.719,0.044,1.696,0.072,2.369h-1.65l-0.112-1.04h-0.052   c-0.304,0.623-0.972,1.185-1.829,1.185c-1.695,0-2.648-1.86-2.648-4.502c0-3.076,1.322-4.552,2.739-4.552   c0.722,0,1.252,0.347,1.533,0.952h0.036v-4.503H46.883z M44.972,39.798c0-0.168,0-0.363-0.028-0.541   c-0.082-0.704-0.478-1.327-1.044-1.327c-0.972,0-1.319,1.383-1.319,2.95c0,1.75,0.466,2.891,1.272,2.891   c0.361,0,0.81-0.188,1.052-1.087c0.047-0.149,0.067-0.345,0.067-0.563V39.798z"/>
</g>
<g>
</g>
<g>
</g>
<g>
</g>
<g>
</g>
<g>
</g>
<g>
</g>
</svg>