<!-- Generator: Adobe Illustrator 25.2.3, SVG Export Plug-In . SVG Version: 6.00 Build 0)  --><svg x="0px" enable-background="new 0 0 60 60" y="0px" width="60px" xmlns:xlink="http://www.w3.org/1999/xlink" viewBox="0 0 60 60" height="60px" id="Layer_1" xmlns="http://www.w3.org/2000/svg" xml:space="preserve" version="1.1">
<rect width="60" fill="#CB2026" x="-0.012" height="60" id="UnitColor_2_" y="-0.085"/>
<rect width="60" fill="#640D0D" height="20.2" id="CS_1_" y="11.533" display="none"/>
<g id="Gar" display="none">
	<rect width="14.843" fill="none" x="0.73" height="8.039" y="2.802" display="inline"/>
	<path fill="#FFFFFF" d="M11.03,10.06c-0.472,0.163-1.361,0.379-2.249,0.379c-1.231,0-2.119-0.308-2.739-0.903   C5.424,8.949,5.085,8.072,5.089,7.083C5.097,4.842,6.73,3.567,8.936,3.567c0.87,0,1.539,0.165,1.873,0.323L10.49,5.111   C10.117,4.95,9.664,4.825,8.922,4.825c-1.27,0-2.235,0.714-2.235,2.18c0,1.391,0.878,2.205,2.125,2.205   c0.344,0,0.623-0.04,0.745-0.095V7.699H8.516V6.512h2.514V10.06z" display="inline"/>
</g>
<g id="Eng" display="none">
	<rect width="27.832" fill="none" x="1.1" height="8.039" y="2.802" display="inline"/>
	<path fill="#FFFFFF" d="M17.011,7.521h-2.479v1.602h2.771v1.248h-4.294V3.634h4.15v1.248h-2.626v1.403h2.479   V7.521z" display="inline"/>
</g>
<g id="P2" display="none">
	<path fill="#FFFFFF" d="M19.024,28.186c0.472-1.148,0.803-2.149,0.992-3.001c0.282-1.24,0.423-2.417,0.423-3.534   c0-1.066-0.099-2.078-0.295-3.035c-0.197-0.957-0.575-2.146-1.135-3.568h1.146c0.628,1.03,1.101,2.092,1.419,3.186   c0.319,1.094,0.478,2.185,0.478,3.274c0,1.094-0.159,2.218-0.476,3.374s-0.786,2.257-1.407,3.305H19.024z" display="inline"/>
</g>
<g id="P1" display="none">
	<path fill="#FFFFFF" d="M8.327,28.186H7.182c-0.605-1.025-1.071-2.111-1.396-3.257s-0.487-2.257-0.487-3.333   c0-1.162,0.163-2.296,0.489-3.401c0.326-1.105,0.795-2.154,1.408-3.148h1.146c-0.56,1.422-0.938,2.611-1.135,3.568   c-0.197,0.957-0.295,1.969-0.295,3.035c0,1.103,0.139,2.27,0.416,3.5C7.522,26.016,7.855,27.028,8.327,28.186z" display="inline"/>
</g>
<g id="Type">
	<path fill="#FFFFFF" d="M53.265,12.893v17.022H26.785V12.893H53.265z M28.204,15.139v12.53l10.443-6.265L28.204,15.139z    M50.468,14.312H29.583l10.443,6.265L50.468,14.312z M29.583,28.497h20.885l-10.442-6.265L29.583,28.497z M41.404,21.404   l10.441,6.265v-12.53L41.404,21.404z"/>
</g>
<g id="STK">
	<path fill="#FFFFFF" d="M13.307,17.911h-0.036l-2.139,1.074l-0.386-1.671l2.857-1.406h1.847v11.703h-2.144V17.911z"/>
</g>
<g id="ECH">
	<rect width="27.832" x="26.078" fill="none" height="8.039" y="2.802"/>
	<path fill="#FFFFFF" d="M39.33,3.634v6.736h-1.523V3.634H39.33z"/>
	<path fill="#FFFFFF" d="M42.18,3.634v6.736h-1.522V3.634H42.18z"/>
</g>
<g id="PF">
	<rect width="60" x="0" fill="none" height="15.475" y="44.525"/>
	<path fill="#FFFFFF" d="M19.739,50.459h-0.02l-1.101,0.565l-0.221-1.026l1.489-0.771h1.147v6.496h-1.295V50.459z"/>
	<path fill="#FFFFFF" d="M25.858,50.365h-1.722l-0.151,1.164c0.066-0.006,0.128-0.006,0.199-0.006   c0.279,0.008,0.849,0.138,1.224,0.489c0.363,0.348,0.563,0.841,0.563,1.495c0,1.262-0.839,2.295-2.262,2.295   c-0.462,0-0.961-0.116-1.221-0.261l0.199-1.035c0.241,0.117,0.577,0.223,0.929,0.223c0.646,0,1.063-0.41,1.063-1.101   c0-0.875-0.657-1.166-1.406-1.166c-0.184,0-0.333,0.004-0.469,0.023l0.363-3.26h2.69V50.365z"/>
	<path fill="#FFFFFF" d="M26.898,54.48c0.257,0.149,0.626,0.257,0.967,0.257c0.637,0,0.989-0.398,0.989-0.941   c0-0.725-0.559-1.027-1.22-1.035h-0.18v-0.957h0.128c0.481-0.008,1.093-0.211,1.093-0.837c0-0.47-0.293-0.747-0.754-0.747   c-0.292,0-0.58,0.104-0.817,0.253l-0.175-0.984c0.267-0.176,0.796-0.342,1.335-0.342c1.142,0,1.719,0.735,1.719,1.567   c0,0.649-0.361,1.187-0.935,1.456v0.021c0.629,0.217,1.112,0.777,1.112,1.652c0,0.995-0.758,1.96-2.173,1.96   c-0.525,0-0.991-0.128-1.272-0.286L26.898,54.48z"/>
	<path fill="#FFFFFF" d="M30.509,56.122l2.344-7.216h0.852l-2.345,7.216H30.509z"/>
	<path fill="#FFFFFF" d="M37.178,50.365h-1.722l-0.15,1.164c0.066-0.006,0.128-0.006,0.198-0.006   c0.28,0.008,0.849,0.138,1.224,0.489c0.364,0.348,0.563,0.841,0.563,1.495c0,1.262-0.839,2.295-2.262,2.295   c-0.462,0-0.961-0.116-1.221-0.261l0.199-1.035c0.241,0.117,0.577,0.223,0.929,0.223c0.646,0,1.063-0.41,1.063-1.101   c0-0.875-0.656-1.166-1.406-1.166c-0.184,0-0.333,0.004-0.469,0.023l0.363-3.26h2.689V50.365z"/>
	<path fill="#FFFFFF" d="M39.578,50.459h-0.02l-1.102,0.565l-0.22-1.026l1.488-0.771h1.147v6.496h-1.295V50.459z"/>
</g>
<g id="Des">
	<rect width="60" x="0" fill="none" height="14.525" y="31.722"/>
	<path fill="#FFFFFF" d="M12.219,35.184H9.094L8.728,37.74c0.131-0.022,0.247-0.022,0.394-0.022c0.559,0.01,1.564,0.265,2.212,0.882   c0.643,0.622,1.003,1.499,1.003,2.686c0,2.297-1.492,4.071-3.837,4.071c-0.782,0-1.64-0.201-2.108-0.489l0.339-1.521   c0.398,0.208,1.016,0.425,1.654,0.425c1.175,0,2.054-0.814,2.054-2.304c0-1.698-1.16-2.338-2.585-2.338   c-0.374,0-0.644,0.016-0.88,0.052l0.697-5.672h4.55V35.184z"/>
	<path fill="#FFFFFF" d="M13.094,45.933l4.065-13h1.312l-4.065,13H13.094z"/>
	<path fill="#FFFFFF" d="M25.026,33.509v1.226l-3.73,10.478h-1.871l3.646-9.972v-0.036H18.98v-1.695H25.026z"/>
	<path fill="#FFFFFF" d="M33.083,44.896c-0.515,0.214-1.52,0.425-2.347,0.425c-1.244,0-2.27-0.347-3.077-1.191   c-0.969-0.984-1.54-2.72-1.52-4.871c0.041-4.557,2.512-6.29,4.89-6.29c0.851,0,1.493,0.168,1.871,0.355l-0.365,1.657   c-0.336-0.172-0.781-0.285-1.394-0.285c-1.561,0-3.003,1.155-3.003,4.582c0,3.286,1.265,4.408,2.527,4.408   c0.325,0,0.534-0.047,0.64-0.099v-3.39h-1.301v-1.578h3.08V44.896z"/>
	<path fill="#FFFFFF" d="M34.76,38.916c0-0.812-0.044-1.725-0.072-2.47h1.681l0.098,1.322h0.057c0.339-0.889,1.064-1.466,1.78-1.466   c0.187,0,0.292,0.01,0.408,0.03v1.922c-0.118-0.021-0.244-0.021-0.411-0.021c-0.665,0-1.334,0.556-1.539,1.505   c-0.049,0.211-0.08,0.507-0.08,0.841v4.632H34.76V38.916z"/>
	<path fill="#FFFFFF" d="M45.398,32.752v10.091c0,0.719,0.044,1.696,0.072,2.369h-1.65l-0.112-1.04h-0.052   c-0.304,0.623-0.972,1.185-1.829,1.185c-1.695,0-2.648-1.86-2.648-4.502c0-3.076,1.322-4.552,2.739-4.552   c0.722,0,1.252,0.347,1.533,0.952h0.036v-4.503H45.398z M43.487,39.798c0-0.168,0-0.363-0.028-0.541   c-0.082-0.704-0.478-1.327-1.044-1.327c-0.972,0-1.319,1.383-1.319,2.95c0,1.75,0.466,2.891,1.272,2.891   c0.361,0,0.81-0.188,1.052-1.087c0.047-0.149,0.067-0.345,0.067-0.563V39.798z"/>
	<path fill="#FFFFFF" d="M47.168,38.916c0-0.99-0.043-1.693-0.071-2.47h1.665l0.098,1.031h0.036   c0.416-0.702,1.154-1.175,2.072-1.175c1.461,0,2.239,1.135,2.239,3.167v5.742h-1.922v-5.559c0-0.876-0.186-1.731-1.022-1.731   c-0.478,0-0.905,0.366-1.075,1.072c-0.057,0.193-0.098,0.477-0.098,0.798v5.42h-1.922V38.916z"/>
</g>
<g>
</g>
<g>
</g>
<g>
</g>
<g>
</g>
<g>
</g>
<g>
</g>
</svg>