<!-- Generator: Adobe Illustrator 25.2.3, SVG Export Plug-In . SVG Version: 6.00 Build 0)  --><svg x="0px" enable-background="new 0 0 60 60" y="0px" width="60px" xmlns:xlink="http://www.w3.org/1999/xlink" viewBox="0 0 60 60" height="60px" id="Layer_1" xmlns="http://www.w3.org/2000/svg" xml:space="preserve" version="1.1">
<rect width="60" fill="#CB2026" x="-0.012" height="60" id="UnitColor_2_" y="-0.085"/>
<rect width="60" fill="#640D0D" height="20.2" id="CS_1_" y="11.533" display="none"/>
<g id="Gar" display="none">
	<rect width="14.843" fill="none" x="0.73" height="8.039" y="2.802" display="inline"/>
	<path fill="#FFFFFF" d="M11.03,10.06c-0.472,0.163-1.361,0.379-2.249,0.379c-1.231,0-2.119-0.308-2.739-0.903   C5.424,8.949,5.085,8.072,5.089,7.083C5.097,4.842,6.73,3.567,8.936,3.567c0.87,0,1.539,0.165,1.873,0.323L10.49,5.111   C10.117,4.95,9.664,4.825,8.922,4.825c-1.27,0-2.235,0.714-2.235,2.18c0,1.391,0.878,2.205,2.125,2.205   c0.344,0,0.623-0.04,0.745-0.095V7.699H8.516V6.512h2.514V10.06z" display="inline"/>
</g>
<g id="Eng" display="none">
	<rect width="27.832" fill="none" x="1.1" height="8.039" y="2.802" display="inline"/>
	<path fill="#FFFFFF" d="M17.011,7.521h-2.479v1.602h2.771v1.248h-4.294V3.634h4.15v1.248h-2.626v1.403h2.479   V7.521z" display="inline"/>
</g>
<g id="P2" display="none">
	<path fill="#FFFFFF" d="M19.024,28.186c0.472-1.148,0.803-2.149,0.992-3.001c0.282-1.24,0.423-2.417,0.423-3.534   c0-1.066-0.099-2.078-0.295-3.035c-0.197-0.957-0.575-2.146-1.135-3.568h1.146c0.628,1.03,1.101,2.092,1.419,3.186   c0.319,1.094,0.478,2.185,0.478,3.274c0,1.094-0.159,2.218-0.476,3.374s-0.786,2.257-1.407,3.305H19.024z" display="inline"/>
</g>
<g id="P1" display="none">
	<path fill="#FFFFFF" d="M8.327,28.186H7.182c-0.605-1.025-1.071-2.111-1.396-3.257s-0.487-2.257-0.487-3.333   c0-1.162,0.163-2.296,0.489-3.401c0.326-1.105,0.795-2.154,1.408-3.148h1.146c-0.56,1.422-0.938,2.611-1.135,3.568   c-0.197,0.957-0.295,1.969-0.295,3.035c0,1.103,0.139,2.27,0.416,3.5C7.522,26.016,7.855,27.028,8.327,28.186z" display="inline"/>
</g>
<g id="Type">
	<path fill="#FFFFFF" d="M53.265,12.893v17.022H26.785V12.893H53.265z M28.204,15.139v12.53l10.443-6.265L28.204,15.139z    M50.468,14.312H29.583l10.443,6.265L50.468,14.312z M29.583,28.497h20.885l-10.442-6.265L29.583,28.497z M41.404,21.404   l10.441,6.265v-12.53L41.404,21.404z"/>
</g>
<g id="STK">
	<path fill="#FFFFFF" d="M13.307,17.911h-0.036l-2.139,1.074l-0.386-1.671l2.857-1.406h1.847v11.703h-2.144V17.911z"/>
</g>
<g id="ECH">
	<rect width="27.832" x="26.078" fill="none" height="8.039" y="2.802"/>
	<path fill="#FFFFFF" d="M39.33,3.634v6.736h-1.523V3.634H39.33z"/>
	<path fill="#FFFFFF" d="M42.18,3.634v6.736h-1.522V3.634H42.18z"/>
</g>
<g id="PF">
	<rect width="60" x="0" fill="none" height="15.475" y="44.525"/>
	<path fill="#FFFFFF" d="M23.624,50.208c-0.157,0.008-0.34,0.028-0.536,0.068c-0.862,0.186-1.287,0.909-1.452,1.728h0.036   c0.23-0.308,0.569-0.517,1.002-0.517c0.871,0,1.469,0.789,1.469,2.013c0,1.14-0.587,2.303-1.857,2.303   c-1.229,0-1.973-1.065-1.973-2.682c0-1.42,0.463-2.383,1.062-3.026c0.425-0.466,1.058-0.774,1.593-0.881   c0.305-0.054,0.524-0.058,0.656-0.067V50.208z M22.844,53.497c-0.008-0.554-0.182-1.07-0.606-1.07   c-0.208,0-0.413,0.142-0.533,0.434c-0.036,0.076-0.066,0.271-0.066,0.571c0.002,0.85,0.244,1.424,0.633,1.424   C22.704,54.855,22.844,54.271,22.844,53.497z"/>
	<path fill="#FFFFFF" d="M25.08,54.717c0.251,0,0.38-0.012,0.599-0.052c0.251-0.053,0.536-0.184,0.763-0.393   c0.275-0.265,0.517-0.731,0.626-1.31H27.04c-0.212,0.231-0.511,0.401-0.927,0.401c-0.845,0-1.53-0.75-1.53-1.943   c0-1.11,0.683-2.274,1.932-2.274c1.209,0,1.846,1.101,1.846,2.671c0,1.469-0.474,2.498-1.068,3.133   c-0.401,0.437-0.97,0.722-1.604,0.822c-0.208,0.034-0.407,0.03-0.608,0.03V54.717z M25.874,51.318   c0.008,0.629,0.206,1.146,0.606,1.146c0.23,0,0.431-0.171,0.5-0.336c0.048-0.129,0.06-0.268,0.06-0.696   c0-0.852-0.243-1.338-0.593-1.338C26.113,50.094,25.858,50.527,25.874,51.318z"/>
	<path fill="#FFFFFF" d="M28.379,56.122l2.344-7.216h0.852l-2.344,7.216H28.379z"/>
	<path fill="#FFFFFF" d="M35.048,50.365h-1.722l-0.15,1.164c0.066-0.006,0.128-0.006,0.198-0.006   c0.28,0.008,0.849,0.138,1.224,0.489c0.364,0.348,0.563,0.841,0.563,1.495c0,1.262-0.839,2.295-2.262,2.295   c-0.462,0-0.961-0.116-1.221-0.261l0.199-1.035c0.241,0.117,0.577,0.223,0.929,0.223c0.646,0,1.063-0.41,1.063-1.101   c0-0.875-0.657-1.166-1.406-1.166c-0.184,0-0.333,0.004-0.469,0.023l0.362-3.26h2.69V50.365z"/>
	<path fill="#FFFFFF" d="M39.685,52.443c0,2.333-0.848,3.359-1.9,3.359c-1.413,0-1.891-1.625-1.891-3.297   c0-1.868,0.596-3.359,1.939-3.359C39.342,49.146,39.685,50.897,39.685,52.443z M37.209,52.475c-0.017,1.521,0.17,2.207,0.614,2.207   c0.4,0,0.547-0.719,0.547-2.207c0-1.395-0.131-2.208-0.55-2.208C37.41,50.267,37.2,50.97,37.209,52.475z"/>
</g>
<g id="Des">
	<rect width="60" x="0" fill="none" height="14.525" y="31.722"/>
	<path fill="#FFFFFF" d="M14.965,35.184h-3.125l-0.366,2.557c0.131-0.022,0.247-0.022,0.394-0.022   c0.559,0.01,1.564,0.265,2.212,0.882c0.643,0.622,1.003,1.499,1.003,2.686c0,2.297-1.492,4.071-3.837,4.071   c-0.782,0-1.64-0.201-2.108-0.489l0.339-1.521c0.398,0.208,1.016,0.425,1.654,0.425c1.175,0,2.054-0.814,2.054-2.304   c0-1.698-1.16-2.338-2.585-2.338c-0.374,0-0.644,0.016-0.88,0.052l0.697-5.672h4.55V35.184z"/>
	<path fill="#FFFFFF" d="M24.715,39.683h-2.888v3.861h3.273v1.668h-5.195V33.076h4.982v1.668h-3.06v3.332h2.888V39.683z"/>
	<path fill="#FFFFFF" d="M28.406,45.212v-4.864l-2.672-7.271h2.047l0.938,2.959c0.26,0.811,0.533,1.739,0.755,2.65h0.036   c0.193-0.901,0.446-1.804,0.711-2.704l0.855-2.905h1.997l-2.745,7.195v4.94H28.406z"/>
	<path fill="#FFFFFF" d="M38.937,40.809c0,3.535-1.821,4.548-3.154,4.548c-1.859,0-3.128-1.556-3.128-4.507   c0-3.166,1.556-4.547,3.192-4.547C37.687,36.303,38.937,37.919,38.937,40.809z M34.571,40.819c0,1.476,0.25,3.053,1.272,3.053   c0.957,0,1.176-1.73,1.176-3.053c0-1.271-0.219-3.033-1.211-3.033C34.78,37.786,34.571,39.548,34.571,40.819z"/>
	<path fill="#FFFFFF" d="M40.367,38.916c0-0.812-0.044-1.725-0.072-2.47h1.681l0.098,1.322h0.057   c0.339-0.889,1.064-1.466,1.78-1.466c0.187,0,0.292,0.01,0.408,0.03v1.922c-0.118-0.021-0.244-0.021-0.411-0.021   c-0.665,0-1.334,0.556-1.539,1.505c-0.049,0.211-0.08,0.507-0.08,0.841v4.632h-1.921V38.916z"/>
	<path fill="#FFFFFF" d="M47.192,40.391h0.036c0.162-0.437,0.304-0.784,0.455-1.115l1.402-2.829h2.076l-2.211,3.678l2.368,5.088   h-2.143l-1.539-3.838l-0.445,0.785v3.053h-1.911v-12.46h1.911V40.391z"/>
</g>
<g>
</g>
<g>
</g>
<g>
</g>
<g>
</g>
<g>
</g>
<g>
</g>
</svg>