<!-- Generator: Adobe Illustrator 25.2.3, SVG Export Plug-In . SVG Version: 6.00 Build 0)  --><svg x="0px" enable-background="new 0 0 60 60" y="0px" width="60px" xmlns:xlink="http://www.w3.org/1999/xlink" viewBox="0 0 60 60" height="60px" id="Layer_1" xmlns="http://www.w3.org/2000/svg" xml:space="preserve" version="1.1">
<rect width="60" fill="#CB2026" x="-0.012" height="60" id="UnitColor_2_" y="-0.085"/>
<rect width="60" fill="#640D0D" height="20.2" id="CS_1_" y="11.533" display="none"/>
<g id="Gar" display="none">
	<rect width="14.843" fill="none" x="0.73" height="8.039" y="2.802" display="inline"/>
	<path fill="#FFFFFF" d="M11.03,10.06c-0.472,0.163-1.361,0.379-2.249,0.379c-1.231,0-2.119-0.308-2.739-0.903   C5.424,8.949,5.085,8.072,5.089,7.083C5.097,4.842,6.73,3.567,8.936,3.567c0.87,0,1.539,0.165,1.873,0.323L10.49,5.111   C10.117,4.95,9.664,4.825,8.922,4.825c-1.27,0-2.235,0.714-2.235,2.18c0,1.391,0.878,2.205,2.125,2.205   c0.344,0,0.623-0.04,0.745-0.095V7.699H8.516V6.512h2.514V10.06z" display="inline"/>
</g>
<g id="Eng" display="none">
	<rect width="27.832" fill="none" x="1.1" height="8.039" y="2.802" display="inline"/>
	<path fill="#FFFFFF" d="M17.011,7.521h-2.479v1.602h2.771v1.248h-4.294V3.634h4.15v1.248h-2.626v1.403h2.479   V7.521z" display="inline"/>
</g>
<g id="P2" display="none">
	<path fill="#FFFFFF" d="M19.024,28.186c0.472-1.148,0.803-2.149,0.992-3.001c0.282-1.24,0.423-2.417,0.423-3.534   c0-1.066-0.099-2.078-0.295-3.035c-0.197-0.957-0.575-2.146-1.135-3.568h1.146c0.628,1.03,1.101,2.092,1.419,3.186   c0.319,1.094,0.478,2.185,0.478,3.274c0,1.094-0.159,2.218-0.476,3.374s-0.786,2.257-1.407,3.305H19.024z" display="inline"/>
</g>
<g id="P1" display="none">
	<path fill="#FFFFFF" d="M8.327,28.186H7.182c-0.605-1.025-1.071-2.111-1.396-3.257s-0.487-2.257-0.487-3.333   c0-1.162,0.163-2.296,0.489-3.401c0.326-1.105,0.795-2.154,1.408-3.148h1.146c-0.56,1.422-0.938,2.611-1.135,3.568   c-0.197,0.957-0.295,1.969-0.295,3.035c0,1.103,0.139,2.27,0.416,3.5C7.522,26.016,7.855,27.028,8.327,28.186z" display="inline"/>
</g>
<g id="Type">
	<path fill="#FFFFFF" d="M53.265,12.893v17.022H26.785V12.893H53.265z M28.204,14.312v13.077l10.899-13.077H28.204z M29.127,28.497   h21.794L40.025,15.419L29.127,28.497z M37.26,23.295c0-1.437,1.238-2.601,2.766-2.601s2.765,1.164,2.765,2.601   c0,1.436-1.237,2.601-2.765,2.601S37.26,24.731,37.26,23.295z M51.846,14.312H40.948l10.897,13.077V14.312z"/>
</g>
<g id="STK">
	<path fill="#FFFFFF" d="M13.307,17.911h-0.036l-2.139,1.074l-0.386-1.671l2.857-1.406h1.847v11.703h-2.144V17.911z"/>
</g>
<g id="ECH">
	<rect width="27.832" x="26.078" fill="none" height="8.039" y="2.802"/>
	<path fill="#FFFFFF" d="M37.905,3.634v6.736h-1.523V3.634H37.905z"/>
	<path fill="#FFFFFF" d="M40.756,3.634v6.736h-1.523V3.634H40.756z"/>
	<path fill="#FFFFFF" d="M43.605,3.634v6.736h-1.522V3.634H43.605z"/>
</g>
<g id="PF">
	<rect width="60" x="0" fill="none" height="15.475" y="44.525"/>
	<path fill="#FFFFFF" d="M29.389,50.365h-1.722l-0.151,1.164c0.066-0.006,0.128-0.006,0.199-0.006   c0.279,0.008,0.849,0.138,1.224,0.489c0.363,0.348,0.563,0.841,0.563,1.495c0,1.262-0.839,2.295-2.262,2.295   c-0.462,0-0.961-0.116-1.221-0.261l0.199-1.035c0.241,0.117,0.577,0.223,0.929,0.223c0.646,0,1.063-0.41,1.063-1.101   c0-0.875-0.657-1.166-1.406-1.166c-0.184,0-0.333,0.004-0.469,0.023l0.363-3.26h2.69V50.365z"/>
	<path fill="#FFFFFF" d="M31.789,50.459h-0.02l-1.101,0.565l-0.221-1.026l1.489-0.771h1.147v6.496h-1.295V50.459z"/>
</g>
<g id="Des">
	<rect width="60" x="0" fill="none" height="14.525" y="31.722"/>
	<path fill="#FFFFFF" d="M28.752,34.945c-0.26,0.011-0.558,0.046-0.902,0.118c-1.728,0.402-2.5,1.995-2.79,3.614h0.057   c0.435-0.605,1.06-1.017,1.884-1.017c1.532,0,2.592,1.401,2.592,3.613c0,2.128-1.034,4.082-3.136,4.082   c-2.139,0-3.336-1.987-3.336-4.8c0-2.427,0.727-4.171,1.732-5.372c0.738-0.906,1.867-1.499,2.857-1.702   c0.467-0.085,0.822-0.1,1.043-0.118V34.945z M27.683,41.321c-0.01-1.341-0.461-2.249-1.309-2.249c-0.467,0-0.938,0.314-1.209,0.995   c-0.057,0.129-0.111,0.432-0.111,0.884c0.008,1.92,0.578,2.982,1.389,2.982C27.226,43.934,27.683,43.004,27.683,41.321z"/>
	<path fill="#FFFFFF" d="M33.299,35.361h-0.036l-1.968,1.065l-0.342-1.503l2.587-1.415h1.652v11.703h-1.894V35.361z"/>
</g>
<g>
</g>
<g>
</g>
<g>
</g>
<g>
</g>
<g>
</g>
<g>
</g>
</svg>