<!-- Generator: Adobe Illustrator 25.2.3, SVG Export Plug-In . SVG Version: 6.00 Build 0)  --><svg x="0px" enable-background="new 0 0 60 60" y="0px" width="60px" xmlns:xlink="http://www.w3.org/1999/xlink" viewBox="0 0 60 60" height="60px" id="Layer_1" xmlns="http://www.w3.org/2000/svg" xml:space="preserve" version="1.1">
<rect width="60" fill="#CB2026" x="-0.012" height="60" id="UnitColor_2_" y="-0.085"/>
<rect width="60" fill="#640D0D" height="20.2" id="CS_1_" y="11.533" display="none"/>
<g id="Gar" display="none">
	<rect width="14.843" fill="none" x="0.73" height="8.039" y="2.802" display="inline"/>
	<path fill="#FFFFFF" d="M11.03,10.06c-0.472,0.163-1.361,0.379-2.249,0.379c-1.231,0-2.119-0.308-2.739-0.903   C5.424,8.949,5.085,8.072,5.089,7.083C5.097,4.842,6.73,3.567,8.936,3.567c0.87,0,1.539,0.165,1.873,0.323L10.49,5.111   C10.117,4.95,9.664,4.825,8.922,4.825c-1.27,0-2.235,0.714-2.235,2.18c0,1.391,0.878,2.205,2.125,2.205   c0.344,0,0.623-0.04,0.745-0.095V7.699H8.516V6.512h2.514V10.06z" display="inline"/>
</g>
<g id="Eng" display="none">
	<rect width="27.832" fill="none" x="1.1" height="8.039" y="2.802" display="inline"/>
	<path fill="#FFFFFF" d="M17.011,7.521h-2.479v1.602h2.771v1.248h-4.294V3.634h4.15v1.248h-2.626v1.403h2.479   V7.521z" display="inline"/>
</g>
<g id="P2" display="none">
	<path fill="#FFFFFF" d="M19.024,28.186c0.472-1.148,0.803-2.149,0.992-3.001c0.282-1.24,0.423-2.417,0.423-3.534   c0-1.066-0.099-2.078-0.295-3.035c-0.197-0.957-0.575-2.146-1.135-3.568h1.146c0.628,1.03,1.101,2.092,1.419,3.186   c0.319,1.094,0.478,2.185,0.478,3.274c0,1.094-0.159,2.218-0.476,3.374s-0.786,2.257-1.407,3.305H19.024z" display="inline"/>
</g>
<g id="P1" display="none">
	<path fill="#FFFFFF" d="M8.327,28.186H7.182c-0.605-1.025-1.071-2.111-1.396-3.257s-0.487-2.257-0.487-3.333   c0-1.162,0.163-2.296,0.489-3.401c0.326-1.105,0.795-2.154,1.408-3.148h1.146c-0.56,1.422-0.938,2.611-1.135,3.568   c-0.197,0.957-0.295,1.969-0.295,3.035c0,1.103,0.139,2.27,0.416,3.5C7.522,26.016,7.855,27.028,8.327,28.186z" display="inline"/>
</g>
<g id="Type">
	<path fill="#FFFFFF" d="M53.265,12.893v17.022H26.785V12.893H53.265z M37.969,21.737v-0.739l-9.765-5.859v12.53l9.887-5.932H37.969   z M50.468,14.312H29.583l9.574,5.744v-1.456h-1.186l2.054-3.272l2.054,3.272h-1.185v1.456L50.468,14.312z M37.97,24.541v-1.076   l-8.387,5.032h20.885l-8.387-5.032v1.076h-1.188v2.938h-1.737v-2.938H37.97z M39.156,22.752l-1.01,0.606h1.01V22.752z    M40.894,23.359h1.011l-1.011-0.606V23.359z M51.846,27.669v-12.53l-9.766,5.859v0.739h-0.121L51.846,27.669z"/>
</g>
<g id="STK">
	<path fill="#FFFFFF" d="M13.307,17.911h-0.036l-2.139,1.074l-0.386-1.671l2.857-1.406h1.847v11.703h-2.144V17.911z"/>
</g>
<g id="ECH">
	<rect width="27.832" x="26.078" fill="none" height="8.039" y="2.802"/>
	<path fill="#FFFFFF" d="M39.33,3.634v6.736h-1.523V3.634H39.33z"/>
	<path fill="#FFFFFF" d="M42.18,3.634v6.736h-1.522V3.634H42.18z"/>
</g>
<g id="PF">
	<rect width="60" x="0" fill="none" height="15.475" y="44.525"/>
	<path fill="#FFFFFF" d="M28.079,55.723V54.17H25.85v-0.896l2.125-4.047h1.265v3.896h0.645v1.048H29.24v1.553H28.079z    M28.079,53.122v-1.329c0-0.344,0.036-0.725,0.065-1.07h-0.032c-0.15,0.359-0.282,0.654-0.458,1.013l-0.69,1.367v0.02H28.079z"/>
	<path fill="#FFFFFF" d="M32.339,55.723V54.17h-2.229v-0.896l2.125-4.047h1.265v3.896h0.646v1.048h-0.646v1.553H32.339z    M32.339,53.122v-1.329c0-0.344,0.035-0.725,0.065-1.07h-0.032c-0.149,0.359-0.281,0.654-0.458,1.013l-0.69,1.367v0.02H32.339z"/>
</g>
<g id="Des">
	<rect width="60" x="0" fill="none" height="14.525" y="31.722"/>
	<path fill="#FFFFFF" d="M17.295,34.945c-0.26,0.011-0.558,0.046-0.902,0.118c-1.728,0.402-2.5,1.995-2.79,3.614h0.057   c0.435-0.605,1.06-1.017,1.884-1.017c1.532,0,2.592,1.401,2.592,3.613c0,2.128-1.034,4.082-3.136,4.082   c-2.139,0-3.336-1.987-3.336-4.8c0-2.427,0.727-4.171,1.732-5.372c0.738-0.906,1.867-1.499,2.857-1.702   c0.467-0.085,0.822-0.1,1.043-0.118V34.945z M16.226,41.321c-0.01-1.341-0.461-2.249-1.309-2.249c-0.467,0-0.938,0.314-1.209,0.995   c-0.057,0.129-0.111,0.432-0.111,0.884c0.008,1.92,0.578,2.982,1.389,2.982C15.769,43.934,16.226,43.004,16.226,41.321z"/>
	<path fill="#FFFFFF" d="M28.026,45.019c-0.355,0.176-0.993,0.302-1.785,0.302c-2.77,0-4.35-2.261-4.35-6.009   c0-4.67,2.463-6.344,4.622-6.344c0.79,0,1.345,0.157,1.586,0.309l-0.354,1.627c-0.286-0.134-0.584-0.249-1.153-0.249   c-1.322,0-2.671,1.209-2.671,4.523c0,3.268,1.223,4.436,2.682,4.436c0.451,0,0.908-0.103,1.196-0.214L28.026,45.019z"/>
	<path fill="#FFFFFF" d="M29.241,32.752h1.921v4.62h0.036c0.201-0.306,0.461-0.563,0.751-0.753c0.327-0.198,0.715-0.316,1.176-0.316   c1.387,0,2.154,1.152,2.154,3.372v5.537h-1.922v-5.473c0-0.95-0.196-1.817-1.01-1.817c-0.505,0-0.915,0.335-1.108,1.083   c-0.036,0.164-0.077,0.452-0.077,0.658v5.549h-1.921V32.752z"/>
	<path fill="#FFFFFF" d="M38.58,41.346c0.021,1.958,0.93,2.491,1.953,2.491c0.641,0,1.183-0.145,1.573-0.312l0.272,1.383   c-0.547,0.258-1.393,0.412-2.194,0.412c-2.26,0-3.473-1.64-3.473-4.353c0-2.901,1.391-4.665,3.262-4.665   c1.844,0,2.772,1.666,2.772,4.016c0,0.5-0.021,0.796-0.051,1.027H38.58z M40.966,39.978c0.015-1.407-0.447-2.243-1.129-2.243   c-0.834,0-1.21,1.215-1.249,2.243H40.966z"/>
	<path fill="#FFFFFF" d="M43.996,43.396c0.329,0.208,0.931,0.461,1.512,0.461c0.686,0,1.105-0.366,1.105-1.003   c0-0.549-0.255-0.91-1.068-1.423c-1.303-0.776-1.777-1.619-1.777-2.51c0-1.51,1.101-2.619,2.681-2.619c0.71,0,1.26,0.2,1.682,0.427   l-0.394,1.419c-0.334-0.211-0.728-0.373-1.198-0.373c-0.664,0-0.991,0.44-0.991,0.912c0,0.478,0.213,0.75,1.055,1.286   c1.166,0.696,1.787,1.56,1.787,2.654c0,1.782-1.247,2.692-2.896,2.692c-0.688,0-1.485-0.198-1.876-0.505L43.996,43.396z"/>
</g>
<g>
</g>
<g>
</g>
<g>
</g>
<g>
</g>
<g>
</g>
<g>
</g>
</svg>