<!-- Generator: Adobe Illustrator 25.2.3, SVG Export Plug-In . SVG Version: 6.00 Build 0)  --><svg x="0px" enable-background="new 0 0 60 60" y="0px" width="60px" xmlns:xlink="http://www.w3.org/1999/xlink" viewBox="0 0 60 60" height="60px" id="Layer_1" xmlns="http://www.w3.org/2000/svg" xml:space="preserve" version="1.1">
<rect width="60" fill="#CB2026" x="-0.012" height="60" id="UnitColor_2_" y="-0.085"/>
<rect width="60" fill="#640D0D" height="20.2" id="CS_1_" y="11.533"/>
<g id="Gar" display="none">
	<rect width="14.843" fill="none" x="0.73" height="8.039" y="2.802" display="inline"/>
	<path fill="#FFFFFF" d="M11.03,10.06c-0.472,0.163-1.361,0.379-2.249,0.379c-1.231,0-2.119-0.308-2.739-0.903   C5.424,8.949,5.085,8.072,5.089,7.083C5.097,4.842,6.73,3.567,8.936,3.567c0.87,0,1.539,0.165,1.873,0.323L10.49,5.111   C10.117,4.95,9.664,4.825,8.922,4.825c-1.27,0-2.235,0.714-2.235,2.18c0,1.391,0.878,2.205,2.125,2.205   c0.344,0,0.623-0.04,0.745-0.095V7.699H8.516V6.512h2.514V10.06z" display="inline"/>
</g>
<g id="Eng" display="none">
	<rect width="27.832" fill="none" x="1.1" height="8.039" y="2.802" display="inline"/>
	<path fill="#FFFFFF" d="M17.011,7.521h-2.479v1.602h2.771v1.248h-4.294V3.634h4.15v1.248h-2.626v1.403h2.479   V7.521z" display="inline"/>
</g>
<g id="P2">
	<path fill="#FFFFFF" d="M19.024,28.186c0.472-1.148,0.803-2.149,0.992-3.001c0.282-1.24,0.423-2.417,0.423-3.534   c0-1.066-0.099-2.078-0.295-3.035c-0.197-0.957-0.575-2.146-1.135-3.568h1.146c0.628,1.03,1.101,2.092,1.419,3.186   c0.319,1.094,0.478,2.185,0.478,3.274c0,1.094-0.159,2.218-0.476,3.374s-0.786,2.257-1.407,3.305H19.024z"/>
</g>
<g id="P1">
	<path fill="#FFFFFF" d="M8.327,28.186H7.182c-0.605-1.025-1.071-2.111-1.396-3.257s-0.487-2.257-0.487-3.333   c0-1.162,0.163-2.296,0.489-3.401c0.326-1.105,0.795-2.154,1.408-3.148h1.146c-0.56,1.422-0.938,2.611-1.135,3.568   c-0.197,0.957-0.295,1.969-0.295,3.035c0,1.103,0.139,2.27,0.416,3.5C7.522,26.016,7.855,27.028,8.327,28.186z"/>
</g>
<g id="Type">
	<path fill="#FFFFFF" d="M53.265,12.893v17.022H26.785V12.893H53.265z M34.536,22.832c0,0.41-0.083,0.798-0.212,1.165l4.322-2.593   l-10.443-6.265v5.526c0.649-0.833,1.649-1.378,2.787-1.378c0.001,0,0.001,0,0.002,0C32.95,19.288,34.537,20.875,34.536,22.832z    M28.204,25v2.669l2.244-1.347C29.536,26.182,28.747,25.696,28.204,25z M33.118,22.832c0-1.175-0.952-2.127-2.127-2.127   c-1.174,0.002-2.125,0.953-2.127,2.127c0,1.174,0.952,2.127,2.127,2.127C32.166,24.959,33.118,24.006,33.118,22.832z    M50.468,14.312H29.583l10.443,6.265L50.468,14.312z M29.583,28.497h20.885l-10.442-6.265L29.583,28.497z M51.846,20.65v-5.512   l-10.441,6.265l4.337,2.603c-0.131-0.37-0.215-0.76-0.215-1.174c0-1.958,1.588-3.545,3.545-3.545   C50.201,19.287,51.197,19.826,51.846,20.65z M49.071,24.959c1.175,0,2.127-0.953,2.127-2.127c0-1.175-0.952-2.127-2.127-2.127   c-1.174,0.002-2.125,0.953-2.127,2.127C46.944,24.006,47.897,24.959,49.071,24.959z M49.604,26.323l2.242,1.346v-2.654   C51.302,25.706,50.513,26.185,49.604,26.323z"/>
</g>
<g id="STK">
	<path fill="#FFFFFF" d="M9.839,27.611v-1.345l1.388-1.292c2.753-2.546,4.052-3.949,4.066-5.496c0-1.058-0.562-1.97-2.091-1.97   c-1.036,0-1.914,0.524-2.499,0.975l-0.649-1.574c0.841-0.67,2.121-1.199,3.593-1.199c2.595,0,3.865,1.631,3.865,3.545   c0,2.059-1.479,3.712-3.525,5.602l-1.013,0.888v0.036h4.796v1.831H9.839z"/>
</g>
<g id="ECH">
	<rect width="27.832" x="26.078" fill="none" height="8.039" y="2.802"/>
	<path fill="#FFFFFF" d="M41.133,10.37l-0.607-1.219c-0.244-0.472-0.412-0.823-0.598-1.213h-0.021   c-0.141,0.391-0.306,0.744-0.524,1.209l-0.557,1.223h-1.734l1.946-3.411L37.16,3.634h1.752l0.59,1.227   c0.197,0.409,0.343,0.742,0.502,1.12h0.025c0.163-0.428,0.288-0.728,0.46-1.116l0.565-1.23h1.739l-1.898,3.287l1.999,3.449H41.133z   "/>
</g>
<g id="PF">
	<rect width="60" x="0" fill="none" height="15.475" y="44.525"/>
	<path fill="#FFFFFF" d="M31.802,49.227v0.858l-2.044,5.638h-1.273l1.991-5.322v-0.02h-2.214v-1.154H31.802z"/>
</g>
<g id="Des">
	<rect width="60" x="0" fill="none" height="14.525" y="31.722"/>
	<path fill="#FFFFFF" d="M21.031,33.509v1.226l-3.73,10.478H15.43l3.646-9.972v-0.036h-4.091v-1.695H21.031z"/>
	<path fill="#FFFFFF" d="M32.925,40.525c-0.069-1.359-0.149-3.013-0.116-4.353H32.75c-0.237,1.325-0.562,2.799-0.855,3.956   l-1.252,4.939h-1.318l-1.193-4.8c-0.31-1.235-0.646-2.74-0.855-4.096h-0.051c-0.015,1.371-0.098,2.978-0.167,4.415l-0.214,4.624   h-1.676l0.804-12.136h2.048l1.17,4.913c0.368,1.567,0.674,2.84,0.911,4.216h0.044c0.208-1.363,0.479-2.636,0.829-4.216l1.146-4.913   h2.069l0.717,12.136h-1.745L32.925,40.525z"/>
	<path fill="#FFFFFF" d="M38.827,34.099v2.348h1.7v1.394h-1.7v4.546c0,1.073,0.417,1.346,0.898,1.346   c0.227,0,0.406-0.018,0.594-0.054l0.039,1.496c-0.291,0.09-0.712,0.146-1.256,0.146c-0.622,0-1.17-0.154-1.553-0.546   c-0.423-0.432-0.645-1.066-0.645-2.369V37.84h-1.049v-1.394h1.049v-1.857L38.827,34.099z"/>
	<path fill="#FFFFFF" d="M41.67,38.916c0-0.812-0.043-1.725-0.071-2.47h1.681l0.098,1.322h0.057c0.339-0.889,1.064-1.466,1.78-1.466   c0.187,0,0.292,0.01,0.408,0.03v1.922c-0.118-0.021-0.244-0.021-0.411-0.021c-0.665,0-1.334,0.556-1.539,1.505   c-0.049,0.211-0.08,0.507-0.08,0.841v4.632H41.67V38.916z"/>
</g>
<g>
</g>
<g>
</g>
<g>
</g>
<g>
</g>
<g>
</g>
<g>
</g>
</svg>