<!-- Generator: Adobe Illustrator 25.2.3, SVG Export Plug-In . SVG Version: 6.00 Build 0)  --><svg x="0px" enable-background="new 0 0 60 60" y="0px" width="60px" xmlns:xlink="http://www.w3.org/1999/xlink" viewBox="0 0 60 60" height="60px" id="Layer_1" xmlns="http://www.w3.org/2000/svg" xml:space="preserve" version="1.1">
<rect width="60" fill="#CB2026" x="-0.012" height="60" id="UnitColor_2_" y="-0.085"/>
<rect width="60" fill="#640D0D" height="20.2" id="CS_1_" y="11.533" display="none"/>
<g id="Gar" display="none">
	<rect width="14.843" fill="none" x="0.73" height="8.039" y="2.802" display="inline"/>
	<path fill="#FFFFFF" d="M11.03,10.06c-0.472,0.163-1.361,0.379-2.249,0.379c-1.231,0-2.119-0.308-2.739-0.903   C5.424,8.949,5.085,8.072,5.089,7.083C5.097,4.842,6.73,3.567,8.936,3.567c0.87,0,1.539,0.165,1.873,0.323L10.49,5.111   C10.117,4.95,9.664,4.825,8.922,4.825c-1.27,0-2.235,0.714-2.235,2.18c0,1.391,0.878,2.205,2.125,2.205   c0.344,0,0.623-0.04,0.745-0.095V7.699H8.516V6.512h2.514V10.06z" display="inline"/>
</g>
<g id="Eng" display="none">
	<rect width="27.832" fill="none" x="1.1" height="8.039" y="2.802" display="inline"/>
	<path fill="#FFFFFF" d="M17.011,7.521h-2.479v1.602h2.771v1.248h-4.294V3.634h4.15v1.248h-2.626v1.403h2.479   V7.521z" display="inline"/>
</g>
<g id="P2" display="none">
	<path fill="#FFFFFF" d="M19.024,28.186c0.472-1.148,0.803-2.149,0.992-3.001c0.282-1.24,0.423-2.417,0.423-3.534   c0-1.066-0.099-2.078-0.295-3.035c-0.197-0.957-0.575-2.146-1.135-3.568h1.146c0.628,1.03,1.101,2.092,1.419,3.186   c0.319,1.094,0.478,2.185,0.478,3.274c0,1.094-0.159,2.218-0.476,3.374s-0.786,2.257-1.407,3.305H19.024z" display="inline"/>
</g>
<g id="P1" display="none">
	<path fill="#FFFFFF" d="M8.327,28.186H7.182c-0.605-1.025-1.071-2.111-1.396-3.257s-0.487-2.257-0.487-3.333   c0-1.162,0.163-2.296,0.489-3.401c0.326-1.105,0.795-2.154,1.408-3.148h1.146c-0.56,1.422-0.938,2.611-1.135,3.568   c-0.197,0.957-0.295,1.969-0.295,3.035c0,1.103,0.139,2.27,0.416,3.5C7.522,26.016,7.855,27.028,8.327,28.186z" display="inline"/>
</g>
<g id="Type">
	<path fill="#FFFFFF" d="M53.265,12.893v17.022H26.785V12.893H53.265z M51.846,14.312H28.204v14.185h23.642V14.312z M31.115,24.371   c-0.792-0.819-1.217-1.895-1.198-3.033c0.038-2.312,1.878-4.152,4.19-4.189c0.003,0,0.005,0.002,0.007,0.002v-0.002h11.814   c0.006,0,0.012-0.004,0.019-0.004c2.349,0.039,4.228,1.98,4.19,4.329c-0.038,2.311-1.88,4.151-4.189,4.189   c-0.005,0-0.009,0-0.013,0v0.004H34.118c-0.001,0-0.003,0-0.004,0s-0.004,0-0.007,0C32.97,25.647,31.907,25.188,31.115,24.371z    M31.336,21.361c-0.012,0.758,0.271,1.477,0.8,2.022c0.527,0.545,1.235,0.852,1.994,0.864h11.776c0.006,0,0.012-0.004,0.017-0.004   c1.543-0.025,2.771-1.253,2.795-2.794c0.025-1.562-1.222-2.854-2.782-2.885v0.003H34.13C32.589,18.592,31.361,19.819,31.336,21.361   z"/>
</g>
<g id="STK">
	<path fill="#FFFFFF" d="M13.307,17.911h-0.036l-2.139,1.074l-0.386-1.671l2.857-1.406h1.847v11.703h-2.144V17.911z"/>
</g>
<g id="ECH">
	<rect width="27.832" x="26.078" fill="none" height="8.039" y="2.802"/>
	<path fill="#FFFFFF" d="M39.33,3.634v6.736h-1.523V3.634H39.33z"/>
	<path fill="#FFFFFF" d="M42.18,3.634v6.736h-1.522V3.634H42.18z"/>
</g>
<g id="PF">
	<rect width="60" x="0" fill="none" height="15.475" y="44.525"/>
	<path fill="#FFFFFF" d="M22.194,50.459h-0.02l-1.101,0.565l-0.221-1.026l1.489-0.771h1.147v6.496h-1.295V50.459z"/>
	<path fill="#FFFFFF" d="M26.951,52.494v0.939h-1.986v-0.939H26.951z"/>
	<path fill="#FFFFFF" d="M27.835,48.986h2.93v1.137h-1.618v1.731h1.519v1.089h-1.519v2.779h-1.312V48.986z"/>
	<path fill="#FFFFFF" d="M32.489,53.743c0.016,0.763,0.457,1.045,1.036,1.045c0.373,0,0.693-0.08,0.932-0.166l0.171,0.937   c-0.332,0.136-0.848,0.224-1.341,0.224c-1.333,0-2.065-0.879-2.065-2.407c0-1.645,0.857-2.624,1.957-2.624   c1.053,0,1.667,0.83,1.667,2.311c0,0.35-0.016,0.542-0.039,0.682H32.489z M33.652,52.826c0.005-0.628-0.162-1.12-0.551-1.12   c-0.426,0-0.6,0.626-0.61,1.12H33.652z"/>
	<path fill="#FFFFFF" d="M35.538,55.723c0.018-0.432,0.039-0.984,0.039-1.444v-5.472h1.305v2.523h0.021   c0.236-0.354,0.547-0.579,1.02-0.579c0.947,0,1.384,1.076,1.384,2.392c0,1.714-0.679,2.66-1.595,2.66   c-0.406,0-0.693-0.167-0.959-0.655h-0.024l-0.071,0.575H35.538z M36.882,53.973c0,0.124,0.024,0.239,0.052,0.313   c0.109,0.349,0.293,0.443,0.448,0.443c0.438,0,0.623-0.547,0.623-1.484c0-0.845-0.195-1.39-0.627-1.39   c-0.206,0-0.379,0.212-0.446,0.449c-0.025,0.081-0.05,0.215-0.05,0.303V53.973z"/>
</g>
<g id="Des">
	<rect width="60" x="0" fill="none" height="14.525" y="31.722"/>
	<path fill="#FFFFFF" d="M12.603,43.744c0.382,0,0.629-0.025,0.984-0.098c0.513-0.118,1.053-0.395,1.473-0.806   c0.564-0.58,1.038-1.528,1.236-2.791h-0.046c-0.407,0.477-0.98,0.838-1.776,0.838c-1.494,0-2.667-1.351-2.667-3.488   c0-2.061,1.198-4.035,3.244-4.035c2.103,0,3.152,2.043,3.152,4.761c0,2.496-0.732,4.33-1.755,5.542   c-0.707,0.853-1.712,1.413-2.808,1.614c-0.371,0.069-0.71,0.075-1.036,0.075V43.744z M13.706,37.245   c0.01,1.395,0.493,2.281,1.309,2.281c0.489,0,0.946-0.348,1.147-0.802c0.083-0.213,0.108-0.424,0.108-1.026   c0-1.949-0.557-2.912-1.317-2.912C14.301,34.786,13.685,35.556,13.706,37.245z"/>
	<path fill="#FFFFFF" d="M22.578,33.076H24.5v10.507h3.243v1.629h-5.165V33.076z"/>
	<path fill="#FFFFFF" d="M32.716,45.212l-0.113-0.893H32.56c-0.438,0.676-1.088,1.037-1.856,1.037c-1.257,0-2.206-1.055-2.206-2.593   c0-2.252,1.905-3.204,3.888-3.222V39.31c0-0.913-0.356-1.555-1.31-1.555c-0.627,0-1.159,0.183-1.634,0.486l-0.37-1.312   c0.432-0.272,1.354-0.627,2.422-0.627c2.257,0,2.834,1.545,2.834,3.41v3.503c0,0.682,0.021,1.415,0.113,1.996H32.716z    M32.437,40.822c-0.748,0.011-2.104,0.219-2.104,1.744c0,0.989,0.528,1.347,0.95,1.347c0.482,0,0.945-0.327,1.107-1.003   c0.036-0.137,0.047-0.294,0.047-0.445V40.822z"/>
	<path fill="#FFFFFF" d="M36.116,38.916c0-0.99-0.043-1.693-0.071-2.47h1.665l0.098,1.031h0.036   c0.416-0.702,1.154-1.175,2.072-1.175c1.461,0,2.239,1.135,2.239,3.167v5.742h-1.922v-5.559c0-0.876-0.186-1.731-1.022-1.731   c-0.478,0-0.905,0.366-1.075,1.072c-0.057,0.193-0.098,0.477-0.098,0.798v5.42h-1.922V38.916z"/>
	<path fill="#FFFFFF" d="M48.529,45.031c-0.271,0.145-0.828,0.289-1.477,0.289c-2.081,0-3.465-1.541-3.465-4.422   c0-2.625,1.452-4.575,3.776-4.575c0.517,0,1.021,0.126,1.26,0.255l-0.293,1.524c-0.19-0.078-0.507-0.196-0.929-0.196   c-1.252,0-1.897,1.34-1.897,2.954c0,1.792,0.724,2.884,1.897,2.884c0.354,0,0.656-0.069,0.937-0.208L48.529,45.031z"/>
</g>
<g>
</g>
<g>
</g>
<g>
</g>
<g>
</g>
<g>
</g>
<g>
</g>
</svg>