<!-- Generator: Adobe Illustrator 25.2.3, SVG Export Plug-In . SVG Version: 6.00 Build 0)  --><svg x="0px" enable-background="new 0 0 60 60" y="0px" width="60px" xmlns:xlink="http://www.w3.org/1999/xlink" viewBox="0 0 60 60" height="60px" id="Layer_1" xmlns="http://www.w3.org/2000/svg" xml:space="preserve" version="1.1">
<rect width="60" fill="#CB2026" x="-0.012" height="60" id="UnitColor_2_" y="-0.085"/>
<rect width="60" fill="#640D0D" height="20.2" id="CS_1_" y="11.533" display="none"/>
<g id="Gar" display="none">
	<rect width="14.843" fill="none" x="0.73" height="8.039" y="2.802" display="inline"/>
	<path fill="#FFFFFF" d="M11.03,10.06c-0.472,0.163-1.361,0.379-2.249,0.379c-1.231,0-2.119-0.308-2.739-0.903   C5.424,8.949,5.085,8.072,5.089,7.083C5.097,4.842,6.73,3.567,8.936,3.567c0.87,0,1.539,0.165,1.873,0.323L10.49,5.111   C10.117,4.95,9.664,4.825,8.922,4.825c-1.27,0-2.235,0.714-2.235,2.18c0,1.391,0.878,2.205,2.125,2.205   c0.344,0,0.623-0.04,0.745-0.095V7.699H8.516V6.512h2.514V10.06z" display="inline"/>
</g>
<g id="Eng" display="none">
	<rect width="27.832" fill="none" x="1.1" height="8.039" y="2.802" display="inline"/>
	<path fill="#FFFFFF" d="M17.011,7.521h-2.479v1.602h2.771v1.248h-4.294V3.634h4.15v1.248h-2.626v1.403h2.479   V7.521z" display="inline"/>
</g>
<g id="P2" display="none">
	<path fill="#FFFFFF" d="M19.024,28.186c0.472-1.148,0.803-2.149,0.992-3.001c0.282-1.24,0.423-2.417,0.423-3.534   c0-1.066-0.099-2.078-0.295-3.035c-0.197-0.957-0.575-2.146-1.135-3.568h1.146c0.628,1.03,1.101,2.092,1.419,3.186   c0.319,1.094,0.478,2.185,0.478,3.274c0,1.094-0.159,2.218-0.476,3.374s-0.786,2.257-1.407,3.305H19.024z" display="inline"/>
</g>
<g id="P1" display="none">
	<path fill="#FFFFFF" d="M8.327,28.186H7.182c-0.605-1.025-1.071-2.111-1.396-3.257s-0.487-2.257-0.487-3.333   c0-1.162,0.163-2.296,0.489-3.401c0.326-1.105,0.795-2.154,1.408-3.148h1.146c-0.56,1.422-0.938,2.611-1.135,3.568   c-0.197,0.957-0.295,1.969-0.295,3.035c0,1.103,0.139,2.27,0.416,3.5C7.522,26.016,7.855,27.028,8.327,28.186z" display="inline"/>
</g>
<g id="Type">
	<path fill="#FFFFFF" d="M53.265,12.893v17.022H26.785V12.893H53.265z M28.204,14.312v13.357l10.443-6.265l-5.197-3.119   l-0.667,0.876l-2.51-3.714l4.653,0.898l-0.611,0.805l5.712,3.427l5.696-3.419l-0.619-0.814l4.652-0.898l-2.51,3.714l-0.659-0.866   l-5.182,3.109l10.441,6.265V14.312H28.204z M29.583,28.497h20.885l-10.442-6.265L29.583,28.497z"/>
</g>
<g id="STK">
	<path fill="#FFFFFF" d="M13.307,17.911h-0.036l-2.139,1.074l-0.386-1.671l2.857-1.406h1.847v11.703h-2.144V17.911z"/>
</g>
<g id="ECH">
	<rect width="27.832" x="26.078" fill="none" height="8.039" y="2.802"/>
	<path fill="#FFFFFF" d="M39.33,3.634v6.736h-1.523V3.634H39.33z"/>
	<path fill="#FFFFFF" d="M42.18,3.634v6.736h-1.522V3.634H42.18z"/>
</g>
<g id="PF">
	<rect width="60" x="0" fill="none" height="15.475" y="44.525"/>
	<path fill="#FFFFFF" d="M18.519,54.38c0.271,0.156,0.735,0.265,1.108,0.265c0.618,0,0.926-0.321,0.926-0.765   c0-0.481-0.305-0.729-0.876-1.093c-0.92-0.565-1.269-1.271-1.269-1.883c0-1.082,0.717-1.978,2.129-1.978   c0.447,0,0.863,0.124,1.059,0.241l-0.209,1.127c-0.191-0.12-0.479-0.229-0.856-0.229c-0.562,0-0.831,0.339-0.831,0.695   c0,0.404,0.203,0.617,0.927,1.054c0.894,0.536,1.218,1.219,1.218,1.925c0,1.237-0.909,2.043-2.223,2.043   c-0.544,0-1.067-0.136-1.292-0.271L18.519,54.38z"/>
	<path fill="#FFFFFF" d="M22.564,52.381c0-0.587-0.022-1.085-0.04-1.55h1.135l0.067,0.568h0.02c0.205-0.4,0.571-0.648,1.027-0.648   c1.07,0,1.511,1.169,1.511,2.521c0,1.742-0.761,2.53-1.589,2.53c-0.395,0-0.668-0.247-0.806-0.476h-0.02v2.314h-1.305V52.381z    M23.869,53.938c0,0.162,0.023,0.315,0.067,0.414c0.101,0.299,0.275,0.378,0.422,0.378c0.458,0,0.625-0.677,0.625-1.445   c0-0.931-0.226-1.429-0.613-1.429c-0.203,0-0.388,0.188-0.444,0.419c-0.042,0.098-0.057,0.226-0.057,0.348V53.938z"/>
	<path fill="#FFFFFF" d="M27.008,54.38c0.271,0.156,0.735,0.265,1.108,0.265c0.618,0,0.926-0.321,0.926-0.765   c0-0.481-0.305-0.729-0.876-1.093c-0.92-0.565-1.269-1.271-1.269-1.883c0-1.082,0.717-1.978,2.129-1.978   c0.447,0,0.863,0.124,1.059,0.241l-0.209,1.127c-0.191-0.12-0.479-0.229-0.856-0.229c-0.562,0-0.831,0.339-0.831,0.695   c0,0.404,0.203,0.617,0.927,1.054c0.894,0.536,1.218,1.219,1.218,1.925c0,1.237-0.909,2.043-2.223,2.043   c-0.544,0-1.067-0.136-1.292-0.271L27.008,54.38z"/>
	<path fill="#FFFFFF" d="M32.164,53.743c0.016,0.763,0.457,1.045,1.036,1.045c0.373,0,0.693-0.08,0.933-0.166l0.17,0.937   c-0.332,0.136-0.848,0.224-1.341,0.224c-1.333,0-2.065-0.879-2.065-2.407c0-1.645,0.857-2.624,1.957-2.624   c1.053,0,1.667,0.83,1.667,2.311c0,0.35-0.016,0.542-0.039,0.682H32.164z M33.328,52.826c0.004-0.628-0.163-1.12-0.552-1.12   c-0.426,0-0.6,0.626-0.61,1.12H33.328z"/>
	<path fill="#FFFFFF" d="M35.253,52.303c0-0.486-0.021-1.015-0.039-1.472h1.135l0.067,0.716h0.035   c0.215-0.521,0.61-0.796,0.969-0.796c0.133,0,0.202,0.008,0.279,0.023v1.297c-0.083-0.016-0.169-0.016-0.285-0.016   c-0.272,0-0.648,0.192-0.791,0.695c-0.033,0.108-0.058,0.285-0.058,0.488v2.483h-1.312V52.303z"/>
	<path fill="#FFFFFF" d="M39.396,50.831l0.373,2.187c0.07,0.434,0.137,0.871,0.204,1.367h0.022c0.058-0.498,0.124-0.907,0.194-1.367   l0.374-2.187h1.291l-1.31,4.892h-1.203l-1.338-4.892H39.396z"/>
</g>
<g id="Des">
	<rect width="60" x="0" fill="none" height="14.525" y="31.722"/>
	<path fill="#FFFFFF" d="M23.476,32.933l-0.316,4.46h-0.988l-0.316-4.46H23.476z M26.195,32.933l-0.315,4.46h-0.989l-0.315-4.46   H26.195z"/>
	<path fill="#FFFFFF" d="M28.721,42.049l-0.655,3.163h-1.863l2.699-12.136h2.245l2.51,12.136h-1.879l-0.645-3.163H28.721z    M30.933,40.543l-0.508-2.786c-0.145-0.793-0.307-1.913-0.438-2.763h-0.051c-0.134,0.857-0.314,2.014-0.461,2.771l-0.531,2.778   H30.933z"/>
	<path fill="#FFFFFF" d="M35.445,32.933l-0.315,4.46h-0.989l-0.315-4.46H35.445z M38.165,32.933l-0.316,4.46H36.86l-0.315-4.46   H38.165z"/>
</g>
<g>
</g>
<g>
</g>
<g>
</g>
<g>
</g>
<g>
</g>
<g>
</g>
</svg>