<svg width="60" height="60" xmlns="http://www.w3.org/2000/svg" viewBox="0 0 60 60">
  <rect fill="#fff" height="60" width="60"/>
  <g>
    <path fill="#cc1f36" d="M28.488,26.414v.095l0,.048,0,.047,0,.048-.006.047-.006.047-.008.047-.008.047-.01.047-.011.046-.011.046-.013.046-.014.046-.015.045-.016.045-.016.044-.018.045-.019.043-.02.044-.021.043-.022.042-.022.042-.024.041-.025.041-.025.04-.026.04-.028.039-.028.038-.029.038-.03.037-.031.037-.031.035-.032.035-.033.034-.034.034-.035.033-.035.032-.036.031-.037.03-.038.029-.038.029-.038.028-.04.027-.04.026-.04.025-.041.024-.042.023-.042.022-.043.022-.043.02-.043.019-.044.019-.045.017-.044.016-.045.016-.046.014-.046.013-.046.012-.046.012-.046.01-.047.009-.047.008-.047.007-.048.006-.047,0-.047,0-.048,0-.048,0h-.1l-.047,0-.048,0-.047,0-.048,0-.047-.006-.047-.007L26,28.511l-.047-.009-.046-.01-.047-.012-.046-.012-.046-.013-.045-.014-.045-.016-.045-.016-.044-.017-.044-.019-.044-.019-.043-.02-.042-.022-.042-.022-.042-.023-.041-.024-.041-.025-.04-.026-.039-.027-.039-.028-.038-.029-.037-.029-.037-.03-.036-.031-.035-.032-.035-.033-.034-.034-.033-.034-.032-.035-.032-.035-.031-.037-.029-.037L24.7,27.7l-.029-.038-.027-.039-.026-.04-.026-.04-.024-.041-.024-.041-.023-.042L24.5,27.38l-.02-.043-.02-.044-.019-.043-.018-.045-.017-.044-.016-.045-.014-.045-.014-.046-.013-.046-.012-.046-.01-.046-.01-.047-.009-.047-.007-.047-.007-.047-.005-.047,0-.048,0-.047,0-.048v-.143l0-.047,0-.048,0-.047.005-.048.007-.047.007-.047.009-.047.01-.046.01-.047.012-.046.013-.046.014-.046.014-.045.016-.045.017-.044.018-.044.019-.044.02-.044.02-.042.022-.043.023-.042.024-.041.024-.041.026-.04.026-.04.027-.039.029-.038.029-.038.029-.037.031-.036.032-.036.032-.035.033-.034.034-.034.035-.032.035-.032.036-.032.037-.03.037-.029.038-.029.039-.028.039-.026.04-.026.041-.025.041-.025.042-.023.042-.022.042-.021.043-.021.044-.019.044-.018.044-.018.045-.016.045-.015.045-.015.046-.013.046-.012.047-.011.046-.011L26,24.364l.047-.008.047-.007.047-.006.048,0,.047,0,.048,0h.19l.048,0,.047,0,.047,0,.048.006.047.007.047.008.047.009.046.011.046.011.046.012.046.013.046.015.045.015.044.016.045.018.044.018.043.019.043.021.043.021.042.022.042.023.041.025.04.025.04.026.04.026.038.028.038.029.038.029.037.03.036.032.035.032.035.032.034.034.033.034.032.035.032.036.03.036.03.037.029.038.028.038.028.039.026.04.026.04.024.041.024.041.022.042.022.043.021.043.02.043.019.044.018.044.016.044.016.045.015.045.014.046.013.046.011.046.011.047.01.046.008.047.008.047.006.047.006.048,0,.047,0,.048,0,.047Z" fill-rule="evenodd" transform="translate(0 0)"/>
    <path fill="#cc1f36" d="M21.99,24.265v.095l0,.047,0,.048,0,.047,0,.048-.007.047-.007.047-.009.047-.01.047-.01.046-.012.046-.013.046-.014.046-.014.045-.016.045-.017.044-.018.045-.019.043-.02.044-.02.042-.022.043-.023.042-.024.041-.024.041-.026.04-.026.04-.027.039-.029.038-.029.038-.029.037-.031.036-.032.036-.032.035-.033.034-.034.034-.035.033-.035.031-.036.032-.037.03-.037.029-.038.029-.039.028-.039.027-.04.025-.041.026-.041.024-.041.023-.043.022-.042.021-.043.021-.044.019-.044.018-.044.018-.045.016-.045.015-.045.015-.046.013-.046.012-.046.011-.047.011-.047.009-.047.008-.047.007-.047.006-.048,0-.047,0-.048,0-.047,0h-.095l-.048,0-.048,0-.047,0-.047,0-.048-.006-.047-.007-.047-.008-.047-.009-.046-.011-.046-.011-.046-.012-.046-.013-.046-.015-.045-.015-.044-.016-.045-.018-.044-.018-.043-.019-.043-.021-.043-.021-.042-.022-.042-.023-.041-.024-.04-.026-.04-.025-.04-.027-.038-.028-.038-.029-.038-.029-.037-.03-.036-.032-.035-.031-.035-.033-.033-.034-.034-.034-.032-.035-.031-.036-.031-.036-.03-.037-.029-.038-.028-.038-.028-.039-.026-.04-.025-.04-.025-.041-.024-.041-.022-.042L18,25.23l-.021-.042-.02-.044-.019-.043-.018-.045-.016-.044-.016-.045-.015-.045-.014-.046-.013-.046-.011-.046-.011-.046-.01-.047-.008-.047L17.8,24.6l-.006-.047-.006-.048,0-.047,0-.048,0-.047v-.143l0-.048,0-.047,0-.048.006-.047.006-.047.008-.047.008-.047.01-.047.011-.046.011-.046.013-.046.014-.046.015-.045.016-.045.016-.044.018-.045.019-.043.02-.044L18,23.347l.022-.043.022-.042.024-.041.025-.041.025-.04.026-.04.028-.039.028-.038.029-.038.03-.037.031-.036.031-.036.032-.035.034-.034.033-.034.035-.033.035-.032.036-.031.037-.03.038-.029.038-.029.038-.028.04-.027.04-.026.04-.025.041-.024.042-.023.042-.022.043-.021.043-.021.043-.019.044-.018.045-.018.044-.016.045-.016.046-.014.046-.013.046-.012.046-.012.046-.01.047-.009.047-.008L19.6,22.2l.048-.006.047,0,.047,0,.048,0,.048,0h.095l.047,0,.048,0,.048,0,.047,0,.047.006.047.007.047.008.047.009.047.01.046.012.046.012.046.013.045.014.045.016.045.016.044.018.044.018.044.019.043.021.042.021.043.022.041.023.041.024.041.025.04.026.039.027.039.028.038.029.037.029.037.03.036.031.035.032.035.033.034.034.033.034.032.035.032.036.031.036.029.037.03.038.028.038.027.039.026.04.026.04.024.041.024.041.023.042.022.043.02.042.02.044.019.043.018.045.017.044.016.045.014.045.014.046.013.046.012.046.01.046.01.047.009.047.007.047.007.047,0,.048,0,.047,0,.047,0,.048Z" fill-rule="evenodd" transform="translate(0 0)"/>
    <path fill="#cc1f36" d="M49.332,26.329v.047l0,.048,0,.047,0,.048,0,.047-.006.048-.006.047-.008.047-.008.047-.01.046-.01.047-.012.046-.013.046-.014.045-.014.046-.016.045-.017.044-.018.044-.019.044-.02.043-.02.043-.022.043-.023.042-.024.041-.024.041-.026.04-.026.04-.027.039-.029.038-.029.038-.03.037-.03.036-.032.036-.032.035-.033.034-.034.034-.035.032-.035.032-.036.031-.037.031-.037.029-.038.029-.039.028-.039.026-.04.026-.041.025-.041.025-.042.023-.042.022-.042.021-.043.021-.044.019-.044.018-.044.018-.045.016-.045.015-.046.015-.045.013-.046.012-.047.011-.046.01-.047.01-.047.008-.047.007-.047.005-.048,0-.047,0-.048,0h-.19l-.048,0-.047,0-.048,0-.047-.005-.047-.007-.047-.008-.047-.01-.046-.01-.047-.011-.046-.012-.045-.013-.046-.015-.045-.015-.045-.016-.044-.018-.044-.018-.043-.019-.043-.021-.043-.021-.042-.022-.042-.023-.041-.025-.04-.025-.04-.026-.04-.026-.038-.028-.039-.029-.037-.029-.037-.031-.036-.031-.035-.032-.035-.032-.034-.034-.033-.034-.032-.035-.032-.036-.03-.036-.03-.037-.029-.038-.028-.038-.028-.039-.026-.04-.026-.04-.024-.041-.024-.041-.023-.042-.021-.043-.021-.043-.02-.043-.019-.044-.018-.044-.017-.044-.015-.045-.015-.046L45.2,26.94l-.013-.046-.011-.046-.011-.047-.01-.046-.008-.047-.008-.047-.006-.047-.006-.048,0-.047,0-.048,0-.047v-.048a.368.368,0,0,1,0-.047v-.048l0-.048,0-.047,0-.048.006-.047.006-.047L45.147,26l.008-.047.01-.047.011-.046.011-.046.013-.046.014-.046.015-.045.015-.045.017-.045.018-.044L45.3,25.5l.02-.044.021-.043.021-.042.023-.042.024-.041.024-.041.026-.04.026-.04.028-.039.028-.038.029-.038.03-.037.03-.037.032-.035.032-.035.033-.035.034-.033.035-.033.035-.032.036-.031.037-.03.037-.03.039-.028.038-.028.04-.027.04-.026.04-.025.041-.024.042-.023.042-.022.043-.022.043-.02.043-.019.044-.019.044-.017.045-.016.045-.016.046-.014.045-.013.046-.012.047-.012.046-.01.047-.009.047-.008.047-.007.047-.006.048,0,.047,0,.048,0,.047,0h.1l.047,0,.048,0,.047,0,.048,0,.047.006.047.007.047.008.047.009.046.01.047.012.046.012.045.013.046.014.045.016.045.016.044.017.044.019.044.019.043.02.042.022.042.022.042.023.041.024.041.025.04.026.039.027.039.028.038.028.037.03.037.03.036.031.035.032.035.033.034.033.033.035.032.035.032.035.03.037.03.037.029.038.029.038.027.039.026.04.026.04.024.041.024.041.023.042.022.042.02.043.02.044.019.043.018.044.017.045.016.045.014.045.014.046.013.046.012.046.01.046.01.047L49.3,26l.008.047.006.047.006.047,0,.048,0,.047,0,.048Z" fill-rule="evenodd" transform="translate(0 0)"/>
    <path fill="#cc1f36" d="M54.383,23.852a.384.384,0,0,1,0,.048v.047l0,.048,0,.047,0,.048-.006.047-.006.047-.008.047-.008.047-.01.047-.011.046-.011.047-.013.045-.014.046-.015.045-.015.045-.017.045-.018.044-.019.044-.02.043-.021.043-.021.042-.023.042-.024.041-.024.041-.026.04-.026.04-.028.039-.028.039-.029.037-.03.037-.03.037-.032.036-.032.035-.033.034-.034.033-.035.033-.035.032-.036.031-.037.03-.037.03-.039.028-.038.028-.04.027-.04.026-.04.025-.041.024-.042.023-.042.023-.042.021-.044.02-.043.02-.044.018-.044.017-.045.017-.045.015-.046.014-.045.013-.046.013-.047.011-.046.01-.047.009-.047.008-.047.007-.047.006-.048.005-.047,0-.048,0-.047,0h-.1l-.047,0-.048,0-.047,0-.048-.005-.047-.006-.047-.007-.047-.008-.047-.009-.046-.01-.047-.011-.046-.013-.045-.013-.046-.014-.045-.015-.045-.017-.044-.017-.044-.018-.044-.02-.043-.02-.042-.021-.042-.023-.042-.023-.041-.024-.041-.025-.039-.026-.04-.027-.039-.028-.038-.028-.037-.03-.037-.03-.036-.031-.035-.032-.035-.033-.034-.033-.033-.034-.032-.035-.032-.036-.03-.037-.03-.037-.029-.037-.029-.039-.027-.039-.026-.04-.026-.04-.024-.041-.024-.041-.023-.042-.021-.042-.021-.043-.02-.043-.019-.044-.018-.044L50.3,24.6l-.015-.045-.015-.045-.014-.046-.013-.045-.012-.047-.01-.046-.01-.047-.008-.047-.008-.047-.006-.047-.006-.047,0-.048,0-.047,0-.048,0-.047v-.048l0-.048,0-.047,0-.048,0-.047.006-.047.006-.048.008-.047.008-.046.01-.047.01-.047.012-.046.013-.046.014-.045.014-.045.016-.045.017-.045.018-.044.019-.044.02-.043.021-.043.021-.042.023-.042.024-.042.024-.04.026-.041.026-.039.027-.039.029-.039.029-.037.03-.038.03-.036.032-.036.032-.035.033-.034.034-.033.035-.033.035-.032.036-.031.037-.03.037-.03.038-.029.039-.027.04-.027.039-.026.041-.025.041-.024.042-.023L51.313,22l.042-.021.043-.02.044-.02.044-.018.044-.017.045-.017.045-.015.046-.014.045-.014.046-.012.047-.011.046-.01L51.9,21.8l.047-.008.047-.007.047-.006.048,0,.047,0,.048,0h.19l.048,0,.047,0,.048,0,.047.006.047.007.047.008.047.009.046.01.047.011.046.012.045.014.046.014.045.015.045.017.044.017.044.018.043.02.044.02.042.021.042.023.042.023.041.024.04.025.04.026.04.027.038.027.039.029.037.03.037.03.036.031.035.032.035.033.034.033.033.034.032.035.032.036.03.036.03.038.029.037.028.039.028.039.026.039.026.041.024.04.024.042.023.042.021.042.021.043.02.043.019.044.018.044.017.045.015.045.015.045.014.045.013.046.011.046.011.047.01.047.008.046.008.047.006.048.006.047,0,.047,0,.048,0,.048Z" fill-rule="evenodd" transform="translate(0 0)"/>
    <path fill="#cc1f36" d="M41.1,26.754v.082l0,.041,0,.041,0,.041,0,.041-.006.041-.006.041-.007.04-.009.041-.009.04-.01.04-.011.04-.012.039-.013.039-.014.039-.014.039-.016.038-.016.038-.017.037-.018.037-.019.037-.02.036-.02.036-.021.035-.022.035-.023.034-.024.034-.024.033-.025.033-.026.032-.027.031L40.634,28l-.028.031-.029.029-.029.029-.03.028-.03.028-.032.027-.031.026-.033.026-.033.024-.033.024-.034.024-.035.022-.035.022-.035.021-.036.02-.037.019-.037.018-.037.018L40,28.449l-.038.016-.038.015-.039.014-.039.013-.039.012-.04.012-.039.01-.04.01-.041.009-.04.008-.041.007-.041.006-.04,0-.041,0-.041,0-.042,0H39.2l-.042,0-.041,0-.041,0-.04,0-.041-.006-.041-.007-.04-.008-.041-.009-.04-.01-.039-.01-.04-.012-.039-.012-.039-.013-.039-.014-.038-.015-.038-.016-.038-.017-.037-.018-.037-.018-.037-.019-.036-.02-.035-.021-.035-.022-.035-.022-.034-.024-.033-.024-.033-.024-.033-.026-.031-.026-.032-.027-.03-.028-.03-.028-.029-.029-.029-.029L37.928,28l-.027-.031-.027-.031-.026-.032-.025-.033-.024-.033-.024-.034-.023-.034-.022-.035-.021-.035-.02-.036-.02-.036-.019-.037-.018-.037-.017-.037-.016-.038-.016-.038-.014-.039-.014-.039-.013-.039-.012-.039-.011-.04-.01-.04-.009-.04-.009-.041-.007-.04-.006-.041L37.472,27l-.005-.041,0-.041,0-.041,0-.041v-.123l0-.042,0-.041,0-.041.005-.041.006-.04.006-.041.007-.041.009-.04.009-.04.01-.04.011-.04.012-.039.013-.039.014-.039.014-.039.016-.038.016-.038L37.632,26l.018-.037.019-.037.02-.036.02-.036.021-.035.022-.035.023-.034.024-.034.024-.033.025-.033.026-.032.027-.032.027-.031.028-.03.029-.029.029-.029.03-.029.03-.027.032-.027.031-.026.033-.026L38.2,25.3l.033-.024.034-.023.035-.022.035-.022.035-.021.036-.02.037-.019.037-.019.037-.017.038-.017.038-.016.038-.015.039-.014.039-.013.039-.013.04-.011.039-.011.04-.009.041-.009.04-.008.041-.007.041-.006.04,0,.041,0,.041,0,.042,0h.164l.042,0,.041,0,.041,0,.04,0,.041.006.041.007.04.008L39.69,25l.04.009.039.011.04.011.039.013.039.013.039.014.038.015L40,25.1l.038.017.037.017.037.019.037.019.036.02.035.021.035.022.035.022.034.023.033.024.033.025.033.026.031.026.032.027.03.027.03.029.029.029.029.029.028.03.027.031.027.032.026.032.025.033.024.033.024.034.023.034.022.035.021.035.02.036.02.036.019.037L40.93,26l.017.037.016.038.016.038.014.039.014.039.013.039.012.039.011.04.01.04.009.04.009.04.007.041.006.041.006.04,0,.041,0,.041,0,.041,0,.042Z" fill-rule="evenodd" transform="translate(0 0)"/>
    <path fill="#cc1f36" d="M44.822,26.765v.082l0,.042,0,.041,0,.041,0,.041-.006.041-.006.04-.008.041-.008.04-.009.04-.01.04-.012.04-.011.039-.013.039-.014.039-.015.039-.015.038-.016.038-.017.037-.018.037-.019.037-.02.036-.02.036-.022.035-.022.035-.023.034-.023.034-.025.033-.025.033-.026.032-.026.032-.027.031-.028.03-.029.029-.029.029-.03.029-.031.027-.031.027-.032.026-.032.026-.033.025-.034.024-.034.023-.034.022-.035.022-.036.021-.036.02-.036.019-.037.019-.037.017-.038.017-.038.016-.038.015-.039.014-.039.013-.039.013-.04.011-.04.011-.04.009-.04.009-.04.008-.041.007-.041.006L43.2,28.6l-.041,0-.041,0-.041,0h-.165l-.041,0-.041,0-.041,0-.041-.005-.041-.006-.04-.007-.041-.008-.04-.009-.04-.009-.04-.011-.039-.011-.04-.013-.039-.013-.038-.014-.039-.015-.038-.016-.037-.017-.038-.017-.036-.019-.037-.019-.036-.02-.035-.021-.035-.022-.035-.022-.034-.023-.034-.024-.033-.025-.032-.026-.032-.026-.031-.027-.03-.027-.03-.029-.03-.029-.028-.029-.028-.03-.028-.031-.026-.032-.026-.032-.025-.033-.024-.033-.024-.034-.023-.034-.022-.035-.021-.035-.021-.036-.019-.036-.019-.037-.018-.037-.017-.037-.017-.038L41.3,27.45l-.015-.039-.013-.039-.013-.039-.012-.039-.011-.04-.01-.04-.01-.04-.008-.04-.007-.041-.007-.04-.005-.041,0-.041,0-.041,0-.041v-.206l0-.041,0-.041,0-.041.005-.041.007-.041.007-.04.008-.041.01-.04.01-.04.011-.04.012-.039.013-.039.013-.039.015-.039.015-.038.017-.038.017-.037.018-.037.019-.037.019-.036.021-.036.021-.035.022-.035.023-.034.024-.034.024-.033.025-.033.026-.032.026-.031.028-.031.028-.031L41.7,25.5l.03-.029.03-.028.03-.028.031-.027.032-.026.032-.026.033-.024.034-.024.034-.024.034-.022.036-.022.035-.021.036-.02.037-.019.036-.018.038-.018.037-.017.038-.016.039-.015.038-.014.039-.013.04-.012.039-.012.04-.01.04-.01L42.63,25l.041-.008.04-.007.041-.006.041,0,.041,0,.041,0,.041,0h.165l.041,0,.041,0,.041,0,.041,0,.041.006.041.007.04.008.04.009.04.01.04.01.04.012.039.012.039.013.039.014.038.015.038.016.038.017.037.018.037.018.036.019.036.02.036.021.035.022.034.022.034.024.034.024.033.024.032.026.032.026.031.027.031.028.03.028.029.029.029.029.028.031.027.031.027.031.025.032.025.033.025.033.023.034.023.034.022.035.022.035.02.036.02.036.019.037.018.037.017.037.016.038.015.038.015.039.014.039.013.039.012.039.011.04.01.04.009.04.008.041.008.04.006.041.006.041,0,.041,0,.041,0,.041,0,.041Z" fill-rule="evenodd" transform="translate(0 0)"/>
    <path fill="#cc1f36" d="M36.132,26.765v.082l0,.042,0,.041,0,.041,0,.041-.006.041-.006.04-.007.041-.009.04-.009.04-.01.04-.011.04-.012.039-.013.039-.014.039-.014.039-.016.038-.016.038-.017.037-.018.037-.019.037-.02.036-.02.036-.021.035-.022.035-.023.034-.024.034-.024.033-.025.033-.026.032-.027.032-.027.031-.028.03-.029.029-.029.029-.03.029-.03.027-.032.027-.031.026-.033.026-.033.025-.033.024-.034.023-.035.022-.035.022-.035.021-.036.02-.037.019-.037.019-.037.017-.038.017-.038.016-.038.015-.039.014-.039.013-.039.013-.04.011-.039.011-.04.009-.041.009-.04.008-.041.007-.041.006-.04.005-.041,0-.041,0-.042,0h-.164l-.042,0-.041,0-.041,0-.04-.005-.041-.006-.041-.007-.04-.008-.041-.009-.04-.009-.039-.011-.04-.011-.039-.013-.039-.013-.039-.014-.038-.015-.038-.016-.038-.017-.037-.017-.037-.019-.037-.019-.036-.02-.035-.021-.035-.022L33.3,28.3l-.034-.023-.033-.024-.033-.025-.033-.026-.031-.026-.032-.027-.03-.027-.03-.029-.029-.029-.029-.029-.028-.03-.027-.031-.027-.032-.026-.032-.025-.033-.024-.033-.024-.034-.023-.034-.022-.035-.021-.035-.02-.036-.02-.036-.019-.037-.018-.037-.017-.037-.016-.038-.016-.038-.014-.039-.014-.039-.013-.039-.012-.039-.011-.04-.01-.04-.009-.04-.009-.04-.007-.041-.006-.04-.006-.041-.005-.041,0-.041,0-.041,0-.042v-.123l0-.041,0-.041,0-.041.005-.041.006-.041.006-.041.007-.04.009-.041.009-.04.01-.04.011-.04.012-.039.013-.039.014-.039.014-.039.016-.038.016-.038.017-.037.018-.037.019-.037.02-.036.02-.036.021-.035.022-.035.023-.034.024-.034.024-.033.025-.033.026-.032.027-.031.027-.031.028-.031.029-.029.029-.029.03-.028.03-.028.032-.027.031-.026.033-.026.033-.024.033-.024.034-.024.035-.022.035-.022L33.4,25.2l.036-.02.037-.019.037-.018.037-.018.038-.017.038-.016.038-.015.039-.014.039-.013.039-.012.04-.012.039-.01.04-.01L33.941,25l.04-.008.041-.007.041-.006.04,0,.041,0,.041,0,.042,0h.164l.042,0,.041,0,.041,0,.04,0,.041.006.041.007.04.008.041.009.04.01.039.01.04.012.039.012.039.013.039.014.038.015.038.016.038.017.037.018.037.018.037.019.036.02.035.021.035.022.035.022.034.024.033.024.033.024.033.026.031.026.032.027.03.028.03.028.029.029.029.029.028.031.027.031.027.031.026.032.025.033.024.033.024.034.023.034.022.035.021.035.02.036.02.036.019.037.018.037.017.037.016.038.016.038.014.039.014.039.013.039.012.039.011.04.01.04.009.04.009.041.007.04.006.041.006.041,0,.041,0,.041,0,.041,0,.041Z" fill-rule="evenodd" transform="translate(0 0)"/>
    <path fill="#cc1f36" d="M32.414,26.8v.082l0,.042,0,.041,0,.041-.005.041,0,.04-.007.041-.007.041-.008.04-.01.04-.01.04-.011.04-.012.039-.013.039-.013.039-.015.039-.015.038-.017.038-.017.037-.018.037-.019.037-.019.036-.021.036-.021.035-.022.035-.023.034-.024.034-.024.033-.025.033L32,27.979l-.026.032-.028.03-.028.031-.028.029-.03.029-.03.029-.03.027-.031.027-.032.026-.033.026-.032.025-.034.024-.034.023-.035.022-.035.022L31.5,28.4l-.036.02-.037.019-.036.019-.038.017-.037.017-.038.016-.039.015-.038.014-.039.013-.04.013-.039.011-.04.011L31,28.6l-.04.009-.041.008-.04.007-.041.006-.041,0-.041,0-.041,0-.041,0h-.165l-.041,0-.041,0-.041,0-.041,0L30.3,28.62l-.041-.007-.04-.008-.04-.009-.04-.009-.04-.011-.04-.011-.039-.013-.039-.013-.039-.014-.038-.015-.038-.016-.038-.017L29.8,28.46l-.037-.019-.036-.019-.036-.02-.036-.021-.035-.022-.034-.022-.034-.023-.034-.024-.033-.025-.032-.026-.032-.026-.031-.027-.031-.027-.03-.029L29.3,28.1l-.029-.029-.028-.031-.027-.03-.027-.032-.025-.032-.025-.033-.025-.033-.023-.034-.023-.034-.022-.035-.022-.035L29,27.707l-.02-.036-.019-.037-.018-.037-.017-.037-.016-.038-.015-.038-.015-.039-.014-.039-.013-.039-.012-.039-.011-.04-.01-.04-.009-.04-.008-.04-.008-.041-.006-.041-.006-.04,0-.041,0-.041,0-.041,0-.042v-.123l0-.041,0-.042,0-.041,0-.04.006-.041.006-.041.008-.041.008-.04.009-.04.01-.04.011-.04.012-.039.013-.039.014-.039.015-.039.015-.038.016-.038.017-.037.018-.037.019-.037.02-.036.02-.036.022-.035.022-.035.023-.034.023-.034.025-.033.025-.033.025-.032.027-.031.027-.031.028-.031.029-.029.029-.029.03-.029.031-.027.031-.027.032-.026.032-.026.033-.025.034-.023.034-.024.034-.022.035-.022.036-.021.036-.02.036-.019.037-.018.037-.018.038-.017.038-.016.038-.015.039-.014.039-.013.039-.012.04-.012.04-.01.04-.01.04-.009.04-.008.041-.007.041-.006.041-.005.041,0,.041,0,.041,0h.165l.041,0,.041,0,.041,0,.041.005.041.006.04.007.041.008.04.009.04.01.04.01.039.012.04.012.039.013.038.014.039.015.038.016.037.017.038.018.036.018.037.019.036.02.035.021.035.022.035.022.034.024.034.024.033.024.032.026.032.026.031.027.03.027.03.029.03.029.028.029.028.031.028.031L32,25.66l.026.032.025.033.024.033.024.034.023.034.022.035.021.035.021.036.019.036.019.037.018.037.017.037.017.038.015.038.015.039.013.039.013.039.012.039.011.04.01.04.01.04.008.04.007.041.007.041,0,.041.005.04,0,.042,0,.041,0,.041Z" fill-rule="evenodd" transform="translate(0 0)"/>
    <path fill="#cc1f36" d="M31.84,14.967v.094l0,.031,0,.031,0,.031,0,.031,0,.03,0,.031-.007.031-.007.03-.007.03-.009.03-.009.03-.009.03-.011.029-.011.029-.011.029-.013.029-.013.028L31.7,15.6l-.015.028-.015.027-.015.027-.016.027-.017.026-.017.026-.018.026-.018.025-.019.024-.02.025-.02.023-.021.024-.021.023-.021.022-.023.022L31.4,16l-.023.021-.024.021-.024.019-.024.02-.025.018-.026.019-.025.017-.026.017-.027.017-.027.015-.027.015-.028.015-.027.014-.029.013-.028.013-.029.012-.029.011-.029.011-.03.01-.029.009-.03.009-.03.008-.031.007-.03.007-.031.006-.03.005-.031,0-.031,0-.031,0-.031,0-.031,0H30.4l-.031,0-.031,0-.031,0-.031,0-.031,0-.031-.005-.03-.006-.031-.007-.03-.007-.03-.008-.03-.009-.03-.009L30,16.283l-.029-.011-.029-.011-.029-.012-.029-.013-.028-.013-.028-.014-.027-.015-.027-.015-.027-.015-.027-.017L29.7,16.13l-.026-.017-.025-.019-.025-.018-.024-.02-.024-.019-.024-.021L29.526,16l-.023-.021-.022-.022-.022-.022-.021-.023-.02-.024-.02-.023-.02-.025-.019-.024-.018-.025-.018-.026-.018-.026-.016-.026-.016-.027-.016-.027-.015-.027-.014-.028-.013-.028-.013-.028-.013-.029-.011-.029-.011-.029-.011-.029-.01-.03-.009-.03-.008-.03-.008-.03-.007-.03-.006-.031,0-.031-.005-.03,0-.031,0-.031,0-.031,0-.031v-.156l0-.031,0-.031,0-.031,0-.031.005-.031,0-.03.006-.031.007-.03.008-.03.008-.03.009-.03.01-.03.011-.029.011-.029.011-.029.013-.029.013-.028.013-.028.014-.028.015-.027.016-.027.016-.027.016-.026.018-.026.018-.026.018-.025.019-.025.02-.024.02-.024.02-.023.021-.023.022-.022.022-.022.023-.022.023-.021.024-.02.024-.02.024-.019.025-.019.025-.018.026-.017.026-.017.027-.017.027-.016.027-.015.027-.014.028-.014.028-.014.029-.012.029-.012.029-.012.029-.01.029-.01.03-.01.03-.008.03-.008.03-.008.031-.006.03-.006.031-.006.031,0,.031,0,.031,0,.031,0h.187l.031,0,.031,0,.031,0,.031,0,.03.006.031.006.03.006.031.008.03.008.03.008.029.01.03.01.029.01.029.012.029.012.028.012.029.014.027.014.028.014.027.015.027.016.027.017.026.017.025.017.026.018.025.019.024.019.024.02.024.02.023.021.023.022.022.022.021.022.021.023.021.023.02.024.02.024.019.025.018.025.018.026.017.026.017.026.016.027.016.027.014.027.015.028.013.028.013.028.013.029.011.029.011.029.011.029.009.03.009.03.009.03.007.03.007.03.007.031,0,.03,0,.031,0,.031,0,.031,0,.031,0,.031v.062Z" fill-rule="evenodd" transform="translate(0 0)"/>
    <path fill="#cc1f36" d="M17.133,22.766l-.014-.012-.009-.007-.016-.009,0,0-.013-.008-.018-.009-.015-.007-.011-.006-.015-.008-.008,0L17,22.687l-.02-.007-.007,0-.016-.011-.023-.015-.02-.013-.006,0-.016-.011-.008-.006-.012-.007-.019-.012-.008,0-.013-.007-.019-.012-.02-.01-.021-.011-.009-.006-.018-.012-.019-.011-.014-.007-.021-.01-.009,0-.014-.007-.022-.01-.016-.008-.02-.01-.012,0-.014-.006-.022-.009-.01,0-.021-.009-.011,0-.02-.006-.017-.01-.015-.007L16.45,22.4l-.024,0-.018,0h-.039l.023-.03.023-.029.024-.03.024-.028.025-.029.026-.029.027-.029.027-.028.028-.028.029-.028.029-.028.031-.027.031-.027L16.747,22l.032-.027.033-.026.034-.026.034-.026.034-.026.035-.025.036-.024.036-.025.037-.024.037-.023.038-.024.038-.022.038-.023.039-.021.04-.022.039-.021.04-.02.041-.02.04-.02.041-.019.041-.018.042-.018.041-.018.042-.017.042-.016.042-.016.043-.015.042-.015.043-.014.042-.013.043-.013L18,21.349l.042-.012.043-.011.042-.01.043-.01.042-.009.043-.009.042-.008.042-.007.042-.006.042-.006.041-.006.041,0,.041,0,.041,0,.04,0,.041,0h.2l.037,0,.038,0,.036,0,.037,0,.036,0,.035,0,.035.006.034.007.033.007.033.008.033.009.032.009.031.01.03.01.03.011.029.012.028.012.028.013.027.014.026.014.025.015.025.015.023.016.023.016.022.017.022.018.02.018.02.018.019.019.017.02.017.02.017.02.015.021.014.022.013.022.013.022.011.023.011.023.01.024.009.024.007.024.007.025.006.025,0,.025,0,.026,0,.026,0,.027v.108l0,.028,0,.028,0,.028-.006.028-.007.029-.007.029-.009.028-.009.029-.01.03-.012.029L19.8,22.4l-.013.029-.014.03-.015.029-.016.03-.017.029-.017.03-.019.029-.019.03-.021.029-.021.03-.022.029-.022.029-.024.029-.024.029-.025.029-.026.029-.027.028-.027.028-.028.029-.029.028-.03.027-.03.028-.031.027-.031.027-.033.027-.032.026-.034.026-.034.026-.034.025-.036.025-.035.025-.037.024-.036.024-.037.024-.038.023-.038.023-.039.022-.039.022-.039.021-.04.021-.04.021-.04.02-.041.019-.04.019-.042.019-.041.018-.042.017-.041.017-.043.017-.042.015-.042.016-.042.014-.043.014-.042.014-.043.013-.043.012-.042.011-.043.011-.043.011-.042.01-.043.009-.042.008-.042.008-.042.007-.052.008,0-.007.011-.033,0-.009,0-.01.009-.028,0-.016h0l.013-.032.006-.017a.238.238,0,0,0,.013-.031l0,0,0-.006.011-.017a.305.305,0,0,0,.021-.038l.006-.011c.007-.014.011-.024.013-.029a.307.307,0,0,0,.017-.031l0-.01.013-.024.008-.014.017-.022.009-.017.009-.024h0l.008-.026.027-.02.011-.011,0,0,.005,0,.019-.016a.177.177,0,0,0,.026-.022l.008-.008h0l.019-.015a.183.183,0,0,0,.022-.025l.011-.018.009-.02,0-.022v-.014a.134.134,0,0,0,0-.03l0-.019L17.98,23.1l-.009-.018-.011-.016-.014-.014-.015-.012-.017-.01-.018-.008-.019,0-.016,0h-.022l-.015,0-.014,0-.007,0-.012,0-.019.007-.015.007-.02,0,0,0-.008,0h-.056l-.02-.009h0l-.015-.007-.019-.012h0L17.592,23l-.014-.009-.016-.007-.023-.014,0,0-.018-.012-.023-.014-.018-.015-.019-.011-.01-.006-.009-.005-.02-.014-.014-.007-.008,0h0l-.022-.014-.007,0-.02-.012-.021-.01-.014-.006-.009,0-.01,0h0l-.021-.011-.008,0-.022-.007-.009,0-.008,0-.011,0-.022-.007-.02-.009-.019-.007-.008,0h0" fill-rule="evenodd" transform="translate(0 0)"/>
    <polyline fill="#cc1f36" points="16.203 22.7 16.211 22.704 16.213 22.705 16.2 22.699 16.195 22.697 16.196 22.696" fill-rule="evenodd"/>
    <polyline fill="#cc1f36" points="16.476 22.833 16.479 22.835 16.474 22.832" fill-rule="evenodd"/>
    <rect fill="#cc1f36" x="16.987" width="0.151" height="1.555" y="21.996" transform="translate(-11.049 27.192) rotate(-62.09)"/>
    <polygon fill="#cc1f36" points="17.234 21.681 16.832 22.706 16.327 22.464 16.329 22.19 17.234 21.681" fill-rule="evenodd"/>
    <polygon fill="#cc1f36" points="18.157 21.096 18.416 20.891 18.424 21.459 18.161 21.463 18.157 21.096" fill-rule="evenodd"/>
    <rect fill="#cc1f36" x="18.8" width="33.556" height="4.232" y="21.243"/>
    <rect fill="#cc1f36" x="20.47" width="4.988" height="2.412" y="23.518"/>
    <rect fill="#cc1f36" x="23.972" width="3.537" height="1.71" y="24.55"/>
    <rect fill="#cc1f36" x="26.72" width="3.72" height="2.749" y="24.437"/>
    <rect fill="#cc1f36" x="30.182" width="3.486" height="2.576" y="25.067"/>
    <rect fill="#cc1f36" x="33.692" width="5.882" height="5.882" y="19.998"/>
    <rect fill="#cc1f36" x="39.615" width="3.192" height="3.192" y="24.26" transform="translate(-6.299 15.384) rotate(-19.674)"/>
    <rect fill="#cc1f36" x="42.421" width="3.109" height="3.109" y="23.912" transform="translate(-0.049 0.085) rotate(-0.11)"/>
    <rect fill="#cc1f36" x="47.672" width="3.073" height="3.073" y="22.682" transform="translate(-5.275 17.926) rotate(-19.616)"/>
    <polygon fill="#cc1f36" points="40.877 17.635 44.531 17.635 48.05 19.789 37.66 19.841 40.877 17.635" fill-rule="evenodd"/>
    <rect fill="#cc1f36" x="23.373" width="5.955" height="5.645" y="17.585"/>
    <rect fill="#cc1f36" x="19.903" width="4.647" height="0.65" y="19.636"/>
    <rect fill="#cc1f36" x="20.527" width="2.919" height="3.377" y="19.222"/>
    <rect fill="#cc1f36" x="20.241" width="1.355" height="1.355" y="20.012"/>
    <polygon fill="#cc1f36" points="22.554 18.231 23.91 18.231 23.91 19.586 20.7 19.476 22.554 18.231" fill-rule="evenodd"/>
    <rect fill="#cc1f36" x="27.057" width="1.287" height="1.287" y="16.107"/>
    <rect fill="#cc1f36" x="28.217" width="1.911" height="0.933" y="16.573"/>
    <polygon fill="#cc1f36" points="19.844 14.69 29.506 14.69 29.522 15.423 19.844 15.284 19.844 14.69" fill-rule="evenodd"/>
    <rect fill="#cc1f36" x="28.237" width="0.569" height="0.209" y="16.135"/>
    <rect fill="#cc1f36" x="26.77" width="0.882" height="0.561" y="14.344"/>
    <rect fill="#cc1f36" x="27.337" width="2.272" height="0.766" y="13.982"/>
    <polygon fill="#cc1f36" points="30.724 12.848 39.681 12.848 39.681 17.765 29.104 17.876 30.724 12.848" fill-rule="evenodd"/>
    <rect fill="#cc1f36" x="29.291" width="10.159" height="4.154" y="17.18"/>
    <rect fill="#cc1f36" x="39.241" width="1.605" height="0.656" y="18.218"/>
    <rect fill="#cc1f36" x="39.565" width="1.57" height="4.141" y="12.433"/>
    <rect fill="#cc1f36" x="40.981" width="0.386" height="3.91" y="12.656"/>
    <polygon fill="#cc1f36" points="40.193 16.456 41.308 16.505 41.199 16.696 40.338 16.696 40.193 16.456" fill-rule="evenodd"/>
    <rect fill="#cc1f36" x="41.301" width="0.308" height="0.308" y="16.136"/>
    <rect fill="#cc1f36" x="41.86" width="0.396" height="0.246" y="10.602"/>
    <rect fill="#cc1f36" x="41.943" width="0.22" height="1.002" y="10.525"/>
    <rect fill="#cc1f36" x="41.718" width="0.775" height="1.414" y="11.397"/>
    <rect fill="#cc1f36" x="41.526" width="1.042" height="0.258" y="11.521"/>
    <rect fill="#cc1f36" x="41.583" width="0.487" height="1.124" y="11.718"/>
    <rect fill="#cc1f36" x="41.3" width="0.593" height="0.13" y="12.722"/>
    <polygon fill="#cc1f36" points="42.817 12.747 43.169 12.845 41.885 14.751 41.591 14.503 42.817 12.747" fill-rule="evenodd"/>
    <rect fill="#cc1f36" x="40.719" width="1.568" height="0.257" y="14.954" transform="translate(6.79 42.377) rotate(-58.149)"/>
    <rect fill="#cc1f36" x="41.265" width="1.567" height="0.164" y="13.309" transform="translate(28.505 55.391) rotate(-89.794)"/>
    <rect fill="#cc1f36" x="40.964" width="1.75" height="0.167" y="13.102"/>
    <polygon fill="#cc1f36" points="43.682 12.809 43.833 12.683 41.6 16.352 41.563 16.139 43.682 12.809" fill-rule="evenodd"/>
    <path fill="#cc1f36" d="M47.629,19.03v.083l0,.014,0,.014,0,.013,0,.014,0,.013,0,.014,0,.013,0,.013,0,.013-.005.014,0,.012-.005.013-.006.013-.005.013-.006.012-.007.012-.006.013-.007.012-.007.012-.008.011-.007.012-.008.011-.009.011-.008.011-.009.011-.009.011-.009.01-.009.01-.01.01-.01.01-.01.009-.01.01-.011.009-.01.009-.011.008-.011.008-.012.009-.011.007-.012.008-.011.007-.012.007-.012.007-.013.006-.012.007-.013.006-.012.005-.013.006-.013,0-.013,0-.013.005-.013,0-.014,0-.013,0-.013,0-.014,0-.014,0-.013,0-.014,0h-.014l-.014,0h-.11l-.014,0h-.014l-.013,0-.014,0-.014,0-.013,0-.014,0-.013,0-.013,0-.014,0-.013-.005-.013,0-.013,0-.013-.006-.012-.005-.013-.006-.012-.007-.012-.006-.012-.007-.012-.007-.012-.007-.012-.008-.011-.007-.012-.009-.011-.008-.01-.008-.011-.009L46.61,19.5l-.01-.01-.01-.009-.01-.01-.01-.01-.009-.01-.009-.01-.009-.011-.009-.011-.008-.011-.008-.011-.008-.011-.008-.012L46.5,19.36l-.008-.012-.006-.012-.007-.013-.006-.012-.006-.012-.006-.013-.006-.013-.005-.013-.005-.012,0-.014-.005-.013,0-.013,0-.013,0-.014,0-.013,0-.014,0-.013,0-.014,0-.014,0-.014v-.124l0-.014,0-.014,0-.013,0-.014,0-.014,0-.013,0-.014,0-.013,0-.013.005-.013,0-.013.005-.013.005-.013.006-.013.006-.012.006-.013.006-.012.007-.012.006-.012.008-.012L46.5,18.7l.008-.012.008-.011.008-.011.008-.011.009-.011.009-.011.009-.01.009-.01.01-.01.01-.01.01-.009.01-.01.011-.009.011-.008.01-.009.011-.008.012-.008.011-.008.012-.008.012-.007.012-.007.012-.007.012-.006.012-.006.013-.006.012-.006.013,0,.013-.005.013,0,.013,0,.014,0,.013,0,.013,0,.014,0,.013,0,.014,0,.014,0,.013,0,.014,0,.014,0h.11l.014,0,.014,0,.014,0,.013,0,.014,0,.014,0,.013,0,.013,0,.014,0,.013,0,.013,0,.013,0,.013.005.013,0,.012.006.013.006.012.006.013.006.012.007.012.007.011.007.012.008.011.008.012.008.011.008.011.009.01.008.011.009.01.01.01.009.01.01.01.01.009.01.009.011.009.01.009.011.008.011.009.011.008.011.007.012.008.012.007.012.007.012.006.012.007.012.006.013.005.012.006.013.005.013,0,.013.005.013,0,.013,0,.013,0,.014,0,.013,0,.013,0,.014,0,.014,0,.013,0,.014v.069Z" fill-rule="evenodd" transform="translate(0 0)"/>
    <path fill="#cc1f36" d="M48.754,18.949V19l0,.011,0,.01,0,.011,0,.011,0,.01,0,.011,0,.01,0,.01,0,.011-.006.01-.005.01-.006.01-.007.01-.007.01-.007.009-.007.01-.008.01-.008.009-.009.009-.009.01-.009.009-.009.009-.01.008-.01.009-.011.009-.01.008-.011.008-.012.008-.011.008-.012.008-.012.007-.013.008-.012.007-.013.007-.014.007-.013.006-.014.007-.014.006-.014.006-.014.006-.015.006-.014,0-.015,0-.015.005-.016,0-.015,0-.016,0-.016,0-.016,0-.016,0-.016,0-.016,0-.017,0-.016,0-.017,0-.017,0-.016,0-.017,0H48.1l-.017,0h-.171l-.017,0h-.017l-.017,0-.016,0-.017,0-.017,0-.016,0-.017,0-.016,0-.016,0-.016,0-.016,0-.016,0-.016,0-.015,0-.015,0-.016-.005-.014,0-.015,0-.015-.006-.014-.006-.014-.006-.014-.006-.014-.007-.013-.006-.013-.007L47.5,19.31l-.013-.007L47.47,19.3l-.012-.007-.012-.008-.011-.008-.012-.008-.011-.008-.01-.008-.011-.009-.01-.009-.01-.008-.009-.009-.009-.009-.009-.01-.009-.009-.008-.009-.008-.01-.007-.01-.007-.009-.007-.01-.006-.01-.006-.01-.006-.01-.005-.01,0-.011-.005-.01,0-.01,0-.011,0-.01,0-.011,0-.011,0-.01V19l0-.011v-.075l0-.01V18.9l0-.011,0-.01,0-.011,0-.01,0-.011,0-.01.005-.01,0-.011.005-.01.006-.01.006-.01.006-.01.007-.01.007-.01.007-.009.008-.01.008-.009.009-.01.009-.009.009-.009.009-.009.01-.009.01-.008.011-.009.01-.008.011-.008.012-.008.011-.008.012-.008.012-.007.013-.008L47.5,18.6l.013-.007.013-.007.013-.006.014-.007.014-.006.014-.006.014-.006.015-.006.015,0,.015-.005.015,0,.015,0,.015-.005.016,0,.016,0,.016,0,.016,0,.016,0,.016,0,.017,0,.016,0,.017,0,.017,0,.016,0,.017,0h.017l.017,0h.171l.017,0h.017l.017,0,.017,0,.016,0,.017,0,.016,0,.017,0,.016,0,.016,0,.016,0,.016,0,.016,0,.016,0,.015.005.016,0,.015,0,.015.005.014,0,.015.006.014.006.014.006.014.006.014.007.013.006.014.007.013.007.012.007.013.008.012.007.012.008.011.008.012.008.011.008.01.008.011.009.01.008.01.009.009.009.009.009.009.009.009.01.008.009.008.01.007.009.007.01.007.01.007.01.006.01.005.01.006.01,0,.011,0,.01,0,.01,0,.011,0,.01,0,.011,0,.01,0,.011,0,.011v.043Z" fill-rule="evenodd" transform="translate(0 0)"/>
    <path fill="#cc1f36" d="M51.348,19.025v.032l0,.011,0,.01,0,.011-.005.011,0,.01-.005.011-.007.01-.007.011-.008.01-.008.01-.009.011-.01.01-.01.01-.012.01-.011.01-.013.009-.013.01-.014.01-.014.009-.015.01-.016.009-.016.009-.017.009-.018.009-.018.009-.018.008-.019.009-.02.008-.021.008-.02.008-.022.008-.022.008-.022.007-.023.008-.023.007-.024.007-.025.007-.024.006-.026.007-.025.006-.026.006-.027.006-.027,0-.027.006-.027.005-.028,0-.028,0-.029,0-.029,0-.029,0-.029,0-.03,0-.03,0-.03,0-.03,0-.03,0-.031,0-.031,0-.031,0h-.031l-.031,0h-.377l-.031,0H49.7l-.031,0-.031,0-.031,0-.03,0-.031,0-.03,0-.03,0-.029,0-.029,0-.03,0-.028,0-.029,0-.028,0-.028,0-.028-.005-.027-.006-.026,0-.027-.006-.026-.006-.026-.006-.025-.007-.025-.006-.024-.007-.024-.007-.023-.007-.023-.008-.023-.007-.021-.008-.022-.008-.021-.008-.02-.008-.02-.008-.019-.009-.019-.008L48.8,19.3l-.017-.009-.017-.009-.016-.009-.016-.009-.015-.01-.014-.009-.014-.01-.013-.01-.013-.009-.012-.01-.011-.01-.01-.01-.01-.01-.009-.011-.009-.01-.007-.01-.007-.011-.007-.01-.005-.011-.005-.01,0-.011,0-.011,0-.01,0-.011,0-.01v-.033l0-.01,0-.011,0-.011,0-.01,0-.011.005-.01.005-.011.007-.01.007-.011.007-.01.009-.01.009-.011.01-.01.01-.01.011-.01.012-.01.013-.01.013-.009.014-.01.014-.009.015-.01.016-.009.016-.009.017-.009.017-.009.018-.009.019-.008.019-.009.02-.008.02-.008.021-.008.022-.008.022-.008.022-.008.023-.007.023-.007.024-.007.024-.007.025-.006.025-.007.026-.006.026-.006.027-.006.026-.006.028,0,.027-.005.028,0,.028,0,.029,0,.028,0,.03,0,.029,0,.03,0,.029,0,.03,0,.031,0,.03,0,.031,0,.031,0,.031,0,.031,0h.439l.031,0,.031,0,.031,0,.031,0,.03,0,.03,0,.03,0,.03,0,.03,0,.029,0,.029,0,.029,0,.029,0,.028,0,.028,0,.027.005.027,0,.027.006.027.006.026.006.025.006.026.007.024.006.025.007.024.007.023.007.023.007.022.008.022.008.022.008.02.008.021.008.02.008.019.009.018.008.018.009.018.009.017.009.016.009.016.009.015.01.014.009.014.01.013.009.013.01.011.01.012.01.01.01.01.01.009.011.008.01.008.01.007.011.007.01.005.011,0,.01.005.011,0,.01,0,.011,0,.011v.021Z" fill-rule="evenodd" transform="translate(0 0)"/>
    <path fill="#cc1f36" d="M53.2,19.968l-.025.007-.029.007-.028.008-.03.007L53.056,20l-.03.007-.03.006-.03.005-.031,0-.03,0-.031.005-.031,0-.032,0-.031,0-.032,0-.032,0-.032,0-.032,0-.032,0h-.257l-.032,0-.032,0-.032,0-.032,0-.032,0-.031,0-.031,0-.032,0-.031-.005-.03,0-.031,0-.03-.005-.03-.006L51.927,20,51.9,20l-.029-.007-.029-.008-.029-.007-.028-.008-.028-.009-.027-.008-.027-.009-.027-.009-.026-.01-.026-.01L51.6,19.9l-.025-.01-.024-.011-.024-.011-.024-.011-.023-.012-.022-.012-.022-.012-.021-.012-.021-.013-.02-.012-.02-.013-.019-.014-.019-.013-.017-.014-.018-.013-.016-.015-.016-.014-.016-.014-.014-.015-.015-.014-.013-.015-.013-.015-.012-.016-.011-.015-.011-.015-.01-.016-.009-.016-.009-.016-.008-.015-.007-.016-.007-.016-.005-.017,0-.016-.005-.016,0-.016,0-.017,0-.016V19.3l0-.016,0-.017,0-.016.005-.016,0-.016.005-.016.007-.016.007-.016.008-.016.009-.016.009-.016.01-.015.011-.016.011-.015.012-.015.013-.015.013-.015.015-.015L51.23,19l.016-.014.016-.014.016-.014.018-.014.017-.014.019-.013.019-.014.02-.013.02-.012.021-.013.021-.012.022-.012.022-.012.023-.011.024-.012.024-.011.024-.01.025-.011.025-.01.026-.01.026-.009.027-.01.027-.009.027-.008.028-.009.028-.007.029-.008.029-.007.029-.007.029-.007.03-.006.03-.006.03-.006.031,0,.031,0,.03,0,.032,0,.031,0,.031,0,.032,0,.032,0,.032,0,.032,0h.032l.032,0h.193l.032,0h.032l.032,0,.032,0,.032,0,.032,0,.031,0,.02,0v0l0,.035.005.04,0,.021,0,.019,0,.054.005.054.005.049,0,.046.005.04.009.068,0,.032.006.056,0,.033.008.04,0,.019h0l0,.015h0l0,.038v.015a.6.6,0,0,0,.005.075v.071s0,.014,0,.028v.007l0,.028.005.021,0,.011a.291.291,0,0,0,.012.035v0q.011.04.015.054c.01.026.018.045.024.058s.014.024.022.036l.02.026.017.018.006.006a.4.4,0,0,0,.037.031l.006.006.016.022.029.032.016.015c.009.017.016.029.021.037l.023.032" fill-rule="evenodd" transform="translate(0 0)"/>
    <polygon fill="#cc1f36" points="53.168 21.627 53.168 20.135 54.183 20.135 53.168 21.627" fill-rule="evenodd"/>
    <path fill="#cc1f36" d="M53.481,20.671v.057l0,.028,0,.028,0,.028,0,.028,0,.028-.005.028-.005.028,0,.027-.007.028-.007.027-.007.027-.008.027-.009.027-.009.027-.01.026-.011.026-.011.026-.012.026-.012.025-.013.025-.013.025-.014.024-.015.024-.015.024-.016.024-.016.023-.017.023-.017.022-.017.022-.019.021-.018.022-.019.02-.02.021-.02.019-.021.02-.02.019-.022.018-.022.018-.022.017-.022.017-.023.017-.023.016-.024.015-.024.015-.024.014-.025.014L52.8,21.8l-.025.013-.026.012-.025.011-.026.011-.027.01-.026.01-.027.009-.027.008-.027.008-.027.007-.027.007-.028.006-.028,0-.027.005-.028,0-.028,0-.028,0-.028,0-.029,0h-.112l-.028,0-.029,0-.028,0-.028,0-.027,0-.028-.005-.028,0-.027-.006-.028-.007-.027-.007-.027-.008-.027-.008-.027-.009-.026-.01-.026-.01-.026-.011-.026-.011-.026-.012-.025-.013-.025-.013-.024-.014-.025-.014-.024-.015-.023-.015-.024-.016-.023-.017-.022-.017-.022-.017-.022-.018-.021-.018-.021-.019-.021-.02-.02-.019-.019-.021-.02-.02L51.29,21.5l-.018-.021-.018-.022-.017-.022-.017-.023-.016-.023-.016-.024-.015-.024-.014-.024-.014-.024-.014-.025-.013-.025-.012-.025-.012-.026-.011-.026-.01-.026-.01-.026-.01-.027-.009-.027-.008-.027-.007-.027-.007-.027-.007-.028-.005-.027,0-.028L51,20.868l0-.028,0-.028,0-.028,0-.028v-.141l0-.028,0-.028,0-.028,0-.028.005-.028,0-.028.005-.027.007-.028.007-.027.007-.027.008-.027.009-.027.01-.027.01-.026.01-.026.011-.026.012-.026.012-.025.013-.025.014-.025.014-.024.014-.024.015-.024.016-.024.016-.023.017-.022.017-.023.018-.022.018-.021.018-.021.02-.021.019-.02.02-.02.021-.02.021-.018.021-.019.022-.018.022-.017.022-.017.023-.017.024-.015.023-.016.024-.015.025-.014.024-.014.025-.013.025-.012.026-.012.026-.012.026-.011.026-.01.026-.01.027-.009.027-.008.027-.008.027-.007.028-.007.027-.006.028,0,.028,0,.027,0,.028,0,.028,0,.029,0h.169l.028,0,.028,0,.028,0,.028,0,.027,0,.028,0,.028.006.027.007.027.007.027.008.027.008.027.009.026.01.027.01.026.011.025.012.026.012.025.012.025.013.025.014.024.014.024.015.024.016.023.015.023.017.022.017.022.017.022.018.022.019.02.018.021.02.02.02.02.02.019.021.018.021.019.021.017.022.017.023.017.022.016.023.016.024.015.024.015.024.014.024.013.025.013.025.012.025.012.026.011.026.011.026.01.027.009.026.009.027.008.027.007.027.007.027.007.028,0,.027.005.028.005.028,0,.028,0,.028,0,.028,0,.028,0,.028Z" fill-rule="evenodd" transform="translate(0 0)"/>
    <rect fill="#cc1f36" x="39.114" width="12.297" height="2.468" y="19.204"/>
    <polygon fill="#cc1f36" points="48.818 20.779 55.131 20.815 55.942 21.781 48.818 21.781 48.818 20.779" fill-rule="evenodd"/>
    <polygon fill="#cc1f36" points="55.102 20.853 55.958 21.375 55.959 21.773 55.559 21.774 55.102 20.853" fill-rule="evenodd"/>
    <rect fill="#cc1f36" x="52.458" width="2.041" height="2.041" y="21.664"/>
    <rect fill="#cc1f36" x="52.459" width="2.041" height="2.041" y="21.664"/>
    <path fill="#cc1f36" d="M46.291,28.865l.06.008c.034,0,.079.008.136.012s.1.007.144.008l.1,0H46.8c.022,0,.056,0,.1,0a.684.684,0,0,0,.152-.02.607.607,0,0,0,.1-.027.325.325,0,0,0,.046-.027l.034-.024.014-.016.011-.014.01-.018.013-.024.01-.018.025-.036.018-.019.021-.02a.2.2,0,0,1,.037-.024.253.253,0,0,1,.047-.02.3.3,0,0,1,.045-.009l.051,0h.04l.024,0,.043.009.034.007.028,0a.474.474,0,0,0,.056-.012l.055-.018.048-.018.027-.011.065-.027.081-.035.032-.012.056-.023.1-.039c.033-.014.062-.028.089-.042l.057-.032L48.4,28.3l.016-.012.019-.019.023-.025.013-.012.022-.014a.157.157,0,0,1,.045-.017.177.177,0,0,1,.043-.007l.024,0a.1.1,0,0,1,.027,0l.03.006.02,0,.015,0,.028,0a.6.6,0,0,0,.067-.018q.048-.015.078-.027l.055-.024.057-.025.031-.013.016-.007.018-.009.024-.014.024-.013.042-.019.028-.012.037-.011L49.25,28c.013,0,.035-.012.066-.025a.622.622,0,0,0,.058-.027l.019-.01.021-.013.022-.015.014-.012.015-.014.017-.016.017-.016a.163.163,0,0,1,.025-.015.229.229,0,0,1,.035-.016.181.181,0,0,1,.034-.008l.016,0a.084.084,0,0,1,.021,0l.03,0,.018,0h.016l.028,0,.045-.01a.287.287,0,0,0,.044-.014l.041-.017.04-.018.048-.023L50,27.708l.073-.029.065-.022.044-.011.036-.008.015,0,.026,0,.044-.008a.317.317,0,0,0,.041-.012l.039-.015.03-.015.026-.015.026-.019.021-.016.015-.014.014-.015.017-.016.02-.016.027-.018a.194.194,0,0,1,.03-.014.132.132,0,0,1,.03-.008l.026,0H50.8c.011,0,.031-.006.06-.014a.507.507,0,0,0,.07-.024l.038-.017.035-.021.034-.021.035-.019.041-.02.026-.011.031-.011.039-.01.032-.006.024,0,.041-.008.053-.012.052-.014a.462.462,0,0,0,.06-.019.442.442,0,0,0,.052-.023.259.259,0,0,0,.036-.022.287.287,0,0,0,.03-.026c.012-.011.022-.021.031-.031l.018-.023.01-.014.009-.014.01-.018.011-.016.011-.013.02-.016a.117.117,0,0,1,.031-.017.1.1,0,0,1,.025-.008.047.047,0,0,1,.016,0h.008l.027.01.044.02L51.9,27a.114.114,0,0,0,.026.009.159.159,0,0,0,.034,0l.011,0A.06.06,0,0,0,51.99,27a.1.1,0,0,0,.025-.012l.018-.013.015-.012.016-.011.015-.009.017-.009.015-.008.022-.008.024-.007.018-.007.023-.011.024-.014.021-.014.014-.011.016-.013.019-.014.019-.013.023-.013.026-.009.039-.01.037-.009.035-.01.03-.009.009,0,.018-.009.025-.017.02-.016.015-.015.022-.031a.56.56,0,0,1,.039-.047.4.4,0,0,1,.029-.028.241.241,0,0,1,.036-.023.141.141,0,0,1,.029-.011l.012,0,.024,0a.136.136,0,0,1,.027,0l.03,0,.039,0,.026,0h.043l.051-.01a.375.375,0,0,0,.061-.017.338.338,0,0,0,.048-.023l.044-.026.029-.019.026-.017.032-.024a.2.2,0,0,0,.025-.024l.017-.022.012-.016.008-.009.012-.014.016-.013.025-.014.023-.009.025,0h.059l.032,0,.04-.01a.216.216,0,0,0,.043-.015l.029-.015.015-.011.015-.016.013-.02.01-.019.008-.017.008-.014.016-.022.016-.02.014-.017.015-.019.013-.019.012-.017a.137.137,0,0,1,.024-.016.177.177,0,0,1,.029-.014L53.828,26l.011,0h.093l.021,0,.021,0,.015,0L54,25.984a.367.367,0,0,0,.042-.029l.036-.028.027-.027a.388.388,0,0,0,.032-.037l.014-.019.03-.052.009-.022.007-.015.007-.015.007-.01.013-.013.021-.014.017-.009.022,0,.032-.006.021-.006a.457.457,0,0,0,.059-.033.3.3,0,0,0,.059-.039l.014-.017.014-.024.01-.021.012-.033.014-.04.007-.022,0-.015,0-.016,0-.021,0-.027,0-.026,0-.014.007-.02.012-.025.013-.022.011-.016s.016-.016.041-.04l.045-.043.009-.008.018-.016a.4.4,0,0,0,.036-.041l.032-.038.025-.035.033-.048a.506.506,0,0,0,.031-.052c.008-.016.016-.034.025-.054s.014-.037.018-.049l.028-.086.039-.122c.012-.036.02-.062.025-.079l.011-.042.01-.051c0-.023.01-.057.017-.105s.011-.1.015-.156l.007-.11c0-.017,0-.041.007-.071l.008-.084.008-.067.007-.056.009-.07.008-.057.005-.027.006-.024.008-.025.007-.021,0-.014,0-.018,0-.02a.275.275,0,0,0,0-.035.293.293,0,0,0,0-.053.36.36,0,0,0-.022-.073.57.57,0,0,0-.045-.089.663.663,0,0,0-.047-.065l-.041-.046-.035-.038-.021-.023-.012-.015L54.9,23.05l-.023-.037-.012-.02-.014-.027-.015-.033-.009-.023-.005-.02-.009-.045L54.8,22.8l-.009-.039-.018-.062c-.007-.026-.015-.053-.024-.08l-.018-.056-.017-.04-.017-.037q-.006-.012-.03-.048c-.016-.024-.028-.041-.035-.05l-.03-.036a.774.774,0,0,0-.058-.058c-.026-.025-.045-.042-.058-.052s-.029-.021-.05-.034a.48.48,0,0,0-.047-.025.1.1,0,0,0-.035,0,.124.124,0,0,0-.04.01.132.132,0,0,0-.038.025.293.293,0,0,0-.043.079.634.634,0,0,0-.035.1c-.006.025-.014.077-.025.157s-.018.142-.023.186-.011.107-.017.188-.011.143-.013.187,0,.077,0,.1,0,.064-.006.132-.006.131-.006.189,0,.1,0,.127,0,.062,0,.1-.005.086-.009.133-.01.1-.018.173-.015.127-.022.175-.017.1-.029.146a1.285,1.285,0,0,1-.039.143.814.814,0,0,1-.051.122.623.623,0,0,1-.08.116,1.241,1.241,0,0,1-.12.121l-.168.148c-.066.061-.125.117-.177.17l-.115.118c-.025.025-.06.058-.107.1s-.084.074-.114.1-.079.055-.147.1-.123.073-.163.093-.071.036-.092.045l-.08.039-.077.038c-.018.01-.047.028-.086.055a.562.562,0,0,0-.082.065.419.419,0,0,0-.046.054.473.473,0,0,0-.035.052l-.018.031a.875.875,0,0,0-.05.116c-.006.018-.01.035-.014.052s-.007.038-.011.062-.007.043-.008.058l-.005.049-.006.049-.005.026-.008.02a.07.07,0,0,1-.022.028.092.092,0,0,1-.033.019.077.077,0,0,1-.026.007l-.019,0a.235.235,0,0,1-.035-.015.118.118,0,0,1-.035-.021l-.02-.019-.019-.02-.023-.028-.023-.029-.016-.024-.02-.032-.014-.02L51.8,26.34l-.019-.027a.194.194,0,0,0-.025-.027l-.024-.021-.018-.013-.028-.014-.027-.011-.034-.006-.043,0a.191.191,0,0,0-.041,0l-.04.005-.038.01-.028.009a.328.328,0,0,0-.048.02.393.393,0,0,0-.108.062.387.387,0,0,0-.051.041l-.026.025-.018.021-.016.023-.016.032a.259.259,0,0,0-.014.045.374.374,0,0,0-.009.052.528.528,0,0,0,0,.055v.1c0,.016,0,.032,0,.047a.2.2,0,0,1-.011.049.309.309,0,0,1-.013.038.218.218,0,0,1-.014.025.291.291,0,0,1-.026.029.142.142,0,0,1-.038.026.13.13,0,0,1-.031.012h-.017l-.031-.006a.223.223,0,0,1-.033-.009.17.17,0,0,1-.029-.02c-.012-.011-.024-.02-.033-.03l-.018-.017-.036-.042-.041-.048-.018-.02L50.7,26.72l-.027-.026-.026-.02c-.013-.011-.026-.019-.037-.027l-.034-.018-.019-.008-.02-.006a.118.118,0,0,0-.031,0l-.017,0-.044.007a.336.336,0,0,0-.053.012.289.289,0,0,0-.043.018.727.727,0,0,0-.067.035.565.565,0,0,0-.05.031l-.033.025-.029.024-.02.019-.017.022-.012.02-.01.02c0,.009-.008.023-.014.042l-.009.032-.006.034c0,.021-.006.042-.008.061l0,.038,0,.033c0,.017-.005.031-.007.043l-.01.037a.4.4,0,0,1-.016.043.275.275,0,0,1-.02.042L50,27.269a.189.189,0,0,1-.022.023l-.025.021-.022.009a.1.1,0,0,1-.026.007h-.023l-.017,0a.157.157,0,0,1-.029-.015.207.207,0,0,1-.032-.02l-.035-.033c-.018-.018-.031-.031-.039-.041l-.018-.02-.021-.024-.027-.033-.021-.026-.042-.047a.6.6,0,0,0-.042-.043A.289.289,0,0,0,49.518,27l-.039-.017a.3.3,0,0,0-.039-.008.228.228,0,0,0-.045,0h-.03l-.043,0a.5.5,0,0,0-.056.007l-.043.008-.046.01c-.016,0-.045.011-.087.023s-.086.025-.135.041-.094.032-.135.048l-.113.045-.091.04c-.027.012-.061.028-.1.048l-.093.048-.066.037-.136.073c-.069.036-.125.066-.166.089l-.083.048-.069.043c-.032.02-.091.05-.177.091s-.152.071-.2.089l-.106.042-.08.032-.061.025-.089.036c-.047.018-.094.034-.14.049s-.1.027-.154.039-.115.022-.177.03-.135.016-.217.022l-.18.014-.088.007-.054.007-.028,0-.03,0-.055.011-.047.013c-.011,0-.022.008-.035.013l-.035.018-.028.02a.157.157,0,0,0-.025.026.212.212,0,0,0-.024.037l-.012.02-.01.03c-.007.02-.013.039-.018.058a.676.676,0,0,1-.023.067.29.29,0,0,1-.03.059.227.227,0,0,1-.026.035.133.133,0,0,1-.022.02.15.15,0,0,1-.033.018.128.128,0,0,1-.041.013.077.077,0,0,1-.034,0l-.026-.009-.017-.012a.185.185,0,0,1-.029-.033.475.475,0,0,1-.028-.043.267.267,0,0,1-.014-.034l-.017-.05-.017-.048-.015-.043-.01-.027-.024-.047a.549.549,0,0,0-.039-.067.34.34,0,0,0-.066-.073l-.016-.012a.188.188,0,0,0-.031-.018c-.019-.009-.034-.016-.048-.021a.308.308,0,0,0-.058-.014l-.053-.009H45.1l-.053,0a.3.3,0,0,0-.087.019.481.481,0,0,0-.059.024l-.03.02a.365.365,0,0,0-.032.029l-.024.027a.262.262,0,0,0-.023.033c-.01.017-.018.029-.022.037l-.019.042-.019.042-.02.044c-.01.021-.02.039-.028.054a.425.425,0,0,1-.027.046.553.553,0,0,1-.032.046l-.034.043-.024.03-.018.023a.5.5,0,0,0-.037.051.488.488,0,0,0-.046.08c-.013.029-.021.047-.023.054l0,.02,0,.025a.149.149,0,0,0,0,.024l0,.014.006.016a.107.107,0,0,0,.013.019l.017.019a.217.217,0,0,0,.026.02l.023.015.014.008.011.009,0,0,.008,0,.009,0" fill-rule="evenodd" transform="translate(0 0)"/>
    <path fill="#cc1f36" d="M44.565,28.912l.007-.039.011-.034,0-.02,0-.025a.24.24,0,0,0,0-.038.17.17,0,0,0,0-.04.2.2,0,0,0-.008-.033.507.507,0,0,0-.025-.056c-.014-.028-.03-.056-.048-.085s-.036-.056-.052-.08l-.04-.061-.033-.052-.019-.03-.028-.042-.057-.084q-.03-.043-.054-.072a.564.564,0,0,0-.06-.061c-.024-.022-.042-.038-.053-.046a.286.286,0,0,0-.058-.031.537.537,0,0,0-.129-.034,1.1,1.1,0,0,0-.183-.013c-.064,0-.125,0-.184.007s-.11.006-.154.007-.121,0-.234,0-.2,0-.264,0l-.183,0-.136,0h-.111l-.128,0-.118,0-.128,0H41.92l-.071,0h-.094l-.055,0a.7.7,0,0,0-.071.008l-.034,0-.043.013a.444.444,0,0,0-.071.026.238.238,0,0,0-.049.027.255.255,0,0,0-.03.026l-.021.023a.477.477,0,0,0-.034.059,1.219,1.219,0,0,0-.057.131l-.039.1a.453.453,0,0,1-.026.045.308.308,0,0,1-.033.042l-.021.018-.017.011a.1.1,0,0,1-.029.006.083.083,0,0,1-.023,0l-.02,0a.215.215,0,0,1-.044-.026A.382.382,0,0,1,41,28.422a.279.279,0,0,1-.025-.033.706.706,0,0,1-.033-.064c-.012-.028-.021-.048-.025-.059l-.017-.041-.018-.043c-.006-.013-.015-.032-.028-.055a.579.579,0,0,0-.042-.067.466.466,0,0,0-.042-.054c-.013-.014-.028-.028-.045-.043a.485.485,0,0,0-.065-.044.28.28,0,0,0-.074-.031.182.182,0,0,0-.064-.006.135.135,0,0,0-.054.015.225.225,0,0,0-.041.028.268.268,0,0,0-.044.057.62.62,0,0,0-.05.092c-.014.034-.028.069-.041.106s-.024.071-.033.1l-.021.066a.344.344,0,0,0-.014.059.636.636,0,0,0-.011.084c0,.031,0,.057-.005.076s0,.042,0,.064,0,.042-.006.056l-.005.029-.006.043c0,.024-.005.045-.006.065s0,.039,0,.058l.005.025" fill-rule="evenodd" transform="translate(0 0)"/>
    <path fill="#cc1f36" d="M30.6,13.219l-.028.021-.022.014-.028.018-.024.015-.018.01-.039.022-.045.027-.028.017-.02.012-.02.012-.046.029-.044.027-.03.02-.037.023-.031.02-.031.021-.031.02-.016.01-.022.015L30,13.6l-.032.021-.03.02-.032.021-.025.017-.018.011-.016.01-.032.021-.034.022-.026.018-.031.022-.029.023-.023.019-.018.015-.02.017-.026.025-.026.026-.02.021-.011.012-.009.009-.013.015-.016.019c-.006.007-.013.018-.023.032l-.018.028-.008.018-.008.022,0,.02c0,.008,0,.017,0,.029l0,.027,0,.021,0,.018.008.021.007.018.007.012.016.022.017.02a.368.368,0,0,0,.048.03.471.471,0,0,0,.046.026l.012,0,.017,0,.019,0h.04a.7.7,0,0,0,.075-.016,1.047,1.047,0,0,0,.1-.028l.074-.024.084-.029.07-.025.075-.028c.039-.014.084-.033.136-.057s.094-.043.123-.058l.065-.033.044-.022.029-.015.011-.006.052-.031c.031-.018.058-.034.078-.048l.047-.029.037-.026.042-.033.032-.027L30.9,13.8l.027-.029.024-.029.02-.027.04-.057.043-.062.04-.055.045-.062.034-.052.02-.035.018-.036.018-.042.012-.027.007-.02.008-.025.006-.02,0-.023.007-.04a.3.3,0,0,0,0-.033V13.11l0-.015,0-.02-.008-.024-.009-.019,0-.007-.009-.011L31.222,13l-.015-.01-.008,0-.022-.005a.19.19,0,0,0-.037,0l-.033,0-.03.008-.015.005-.015,0-.018,0-.02,0-.014,0H30.98c-.009,0-.027,0-.055,0l-.065,0-.031,0h-.018l-.016.005" fill-rule="evenodd" transform="translate(0 0)"/>
    <path fill="#cc1f36" d="M31.469,12.668l-.005-.03a.36.36,0,0,0-.009-.042l-.007-.025a.269.269,0,0,0-.02-.035.292.292,0,0,0-.045-.052.343.343,0,0,0-.048-.039.181.181,0,0,0-.039-.02.156.156,0,0,0-.04-.011.347.347,0,0,0-.039,0,.193.193,0,0,0-.034,0l-.043,0-.046.006-.054.01a.546.546,0,0,0-.054.013.163.163,0,0,0-.032.013l-.017.008-.006.005-.021.02a.266.266,0,0,0-.024.029l-.011.021a.266.266,0,0,0-.012.037.341.341,0,0,0-.01.054l0,.045c0,.012,0,.026,0,.042l0,.045,0,.036,0,.022.009.026.011.026.013.02.02.024a.213.213,0,0,0,.022.021.22.22,0,0,0,.025.017.244.244,0,0,0,.028.014.228.228,0,0,0,.036.01.4.4,0,0,0,.05.008l.06,0h.12l.042,0,.049,0,.046,0,.042,0,.075-.006.053-.005h0l.008,0,.01,0,.006,0h0l0,0,0,0,0,0,.01-.009" fill-rule="evenodd" transform="translate(0 0)"/>
    <path fill="#cc1f36" d="M32.647,12.118l-.006,0h-.074a1.06,1.06,0,0,0-.119.008.474.474,0,0,0-.07.014.2.2,0,0,0-.04.016.1.1,0,0,0-.023.014.1.1,0,0,0-.016.018.094.094,0,0,0-.013.024.117.117,0,0,0-.007.033.192.192,0,0,0,0,.048l0,.041,0,.029a.2.2,0,0,1,0,.023l0,.014,0,.009-.007.013a.048.048,0,0,1-.013.016.115.115,0,0,1-.02.015l-.022.012-.019.007-.017,0-.017,0-.027,0-.035,0h-.042l-.05,0-.058,0h-.027l-.036,0-.031,0-.026,0-.035.006-.035.009-.04.015a.481.481,0,0,0-.049.026l-.046.029-.028.02-.03.02a.281.281,0,0,1-.038.02.344.344,0,0,0-.039.019.212.212,0,0,0-.035.023.137.137,0,0,0-.021.02l-.01.016,0,.016a.1.1,0,0,0,0,.032.207.207,0,0,0,0,.04.245.245,0,0,0,.011.037l.016.043.015.039.012.027.013.025.016.029.014.024.012.019.017.021a.126.126,0,0,0,.02.02.231.231,0,0,0,.023.018.258.258,0,0,0,.047.018.316.316,0,0,0,.064.013l.047,0h.163c.046,0,.1,0,.145,0l.114.005.06,0h.076l.09,0,.059,0,.052,0,.088-.007.094-.009.062-.006c.02,0,.04,0,.061-.008l.049-.01L32.9,13.1l.019-.006.018-.009.021-.014a.107.107,0,0,0,.023-.02A.126.126,0,0,0,33,13.01a.168.168,0,0,0,.016-.048l0-.025v-.016l0-.022c0-.007,0-.02-.008-.037L33,12.82l-.006-.026-.007-.026-.008-.037-.006-.035,0-.019v-.031a.34.34,0,0,1,.006-.061l.008-.049,0-.024,0-.025a.183.183,0,0,0,0-.033.127.127,0,0,0-.006-.028l-.011-.022-.012-.018-.013-.014-.008-.007-.013-.008-.017-.011-.027-.014-.025-.013-.013-.01,0-.008-.006-.017-.006-.019-.005-.012,0-.01-.006-.01-.008-.008-.005-.006-.01-.007-.018-.011-.016-.008-.015,0-.01-.005-.008,0-.008-.009-.011-.013-.008-.01-.008-.008-.007,0,0,0-.025-.011Z" fill-rule="evenodd" transform="translate(0 0)"/>
    <path fill="#cc1f36" d="M36.86,11.032l-.036-.024-.034-.019-.059-.032-.055-.029-.039-.017q-.024-.012-.081-.033l-.09-.032-.066-.019-.089-.022-.082-.019-.041-.007-.03,0h-.043l-.04,0-.024,0-.025.007-.032.014-.027.015-.012.007-.016.014a.144.144,0,0,0-.025.024l-.016.022-.009.016-.007.016a.209.209,0,0,0-.008.032l-.005.023,0,.032,0,.06c0,.02,0,.051,0,.091l-.005.07,0,.028c0,.013,0,.033-.007.058a.534.534,0,0,1-.011.059.182.182,0,0,1-.011.035l-.011.023a.161.161,0,0,1-.024.031.182.182,0,0,1-.039.035.192.192,0,0,1-.03.018l-.059.024-.076.03-.042.016-.05.02-.1.04-.105.039c-.028.01-.082.024-.16.043s-.136.032-.17.042a.831.831,0,0,0-.1.031.687.687,0,0,0-.08.034c-.023.011-.043.021-.06.031l-.06.034-.092.056c-.038.024-.073.045-.1.062l-.082.044-.081.04-.066.03-.063.025-.066.024a.444.444,0,0,1-.052.015l-.059.011a.414.414,0,0,1-.055.007l-.044,0H33.86l-.033,0-.051,0-.066.006-.049,0-.035.005-.03.005-.02,0-.012,0h-.018l-.006,0-.009-.005-.014-.011-.011-.012-.012-.014-.016-.02-.016-.017-.014-.012-.013-.009-.015-.008-.022-.009-.033-.009a.451.451,0,0,0-.058-.006.42.42,0,0,0-.06,0,.216.216,0,0,0-.038.006.228.228,0,0,0-.059.029.073.073,0,0,0-.01.024l-.011.037-.01.031-.009.024-.01.015-.014.014-.015.01-.033.012-.026,0-.048,0H32.93l-.021,0-.022,0-.019.006-.016.009-.016.011a.1.1,0,0,0-.016.019l-.009.014,0,.008-.007.022a.127.127,0,0,0,0,.035q0,.02,0,.051c0,.022.005.037.007.046s0,.023.01.04l.014.047.009.037,0,.023.005.024a.558.558,0,0,1,0,.067.72.72,0,0,1,0,.075l0,.065c0,.026,0,.052,0,.079l0,.064c0,.015,0,.039,0,.072a.581.581,0,0,0,.009.1.494.494,0,0,0,.016.078.409.409,0,0,0,.022.06.443.443,0,0,0,.036.063.344.344,0,0,0,.044.053.39.39,0,0,0,.06.045.636.636,0,0,0,.072.039.918.918,0,0,0,.116.038c.054.015.113.028.177.04l.152.026.1.017.09.012.075.01.133.011c.07.006.132.01.187.012l.12.006.1.005c.045,0,.107.006.187.008l.18,0h.146l.076,0,.139-.008.166-.011.222-.018c.1-.009.2-.018.28-.028l.191-.023.106-.015.1-.015.1-.016.087-.016.148-.026c.069-.013.132-.025.187-.037l.125-.027.067-.015.118-.031c.062-.016.112-.03.148-.042s.068-.022.093-.031.063-.025.115-.048" fill-rule="evenodd" transform="translate(0 0)"/>
    <path fill="#cc1f36" d="M40.981,12.656l-.031-.17-.018-.02c-.012-.012-.031-.03-.057-.053l-.051-.046c-.007-.007-.017-.017-.028-.03l-.021-.024-.031-.039-.041-.052-.046-.056c-.021-.026-.04-.048-.056-.065s-.031-.032-.045-.044l-.027-.024-.012-.01-.019-.015-.041-.024a.527.527,0,0,0-.053-.023.445.445,0,0,0-.049-.014.24.24,0,0,0-.04-.006.34.34,0,0,0-.07,0,.447.447,0,0,0-.064.01.2.2,0,0,0-.031.011l-.031.016a.216.216,0,0,0-.031.019l-.029.021-.032.025-.034.026-.042.028-.037.023-.017.008-.013.006a.26.26,0,0,1-.045.009.434.434,0,0,1-.08.008h-.072l-.086,0-.09,0h-.055l-.063,0-.072-.006-.08-.013c-.036-.006-.068-.011-.094-.017l-.133-.031c-.062-.014-.106-.025-.132-.032l-.112-.032c-.048-.015-.1-.033-.165-.055l-.107-.039-.076-.032-.111-.049-.1-.044-.125-.053-.108-.046-.054-.024-.052-.024-.064-.03-.081-.039L37.57,11.5l-.163-.078-.082-.041-.061-.034-.039-.024-.031-.023-.033-.025-.028-.026-.041-.038-.038-.033-.03-.024-.03-.024-.02-.016-.037-.026-.047-.031-.034-.019c-.015-.007-.033-.015-.057-.024L36.748,11A.279.279,0,0,0,36.715,11a.206.206,0,0,0-.045,0,.452.452,0,0,0-.053.006.225.225,0,0,0-.064.029l-.041.026-.023.023a.447.447,0,0,0-.032.035c-.007.01-.019.028-.036.056a.6.6,0,0,0-.036.068l-.018.044c0,.013-.011.036-.019.07s-.015.057-.018.07-.006.037-.011.072l-.014.093c0,.028-.009.055-.014.083s-.01.071-.017.131-.01.117-.01.172a.959.959,0,0,0,.008.141.89.89,0,0,0,.039.155c.022.065.039.112.052.143s.028.063.043.1l.038.083c.011.023.023.049.037.081s.027.062.039.092l.05.119c.02.049.04.091.057.124a.7.7,0,0,0,.149.181.616.616,0,0,0,.08.053,1.162,1.162,0,0,0,.219.072c.115.03.223.056.325.077l.275.056.212.044.189.039.275.056.256.051.119.021.072.006.035,0" fill-rule="evenodd" transform="translate(0 0)"/>
    <path fill="#cc1f36" d="M43.682,12.809h.023a.2.2,0,0,1,.032-.017l.024-.009.01,0,.04-.015.076-.029c.025-.011.045-.02.059-.028l.026-.016L44,12.656a.214.214,0,0,0,.026-.045.112.112,0,0,0,0-.032.1.1,0,0,0-.005-.03l-.008-.022A.062.062,0,0,0,44,12.505a.137.137,0,0,0-.029-.024l-.028-.015a.252.252,0,0,0-.053-.009.457.457,0,0,0-.071,0,.542.542,0,0,0-.064.007l-.064.012-.074.022-.07.023-.037.012-.032.011-.03.011-.034.012-.043.015-.035.011-.025.008-.03.009-.033.01-.025.006-.03.007-.032,0-.026,0h-.027l-.012,0-.019-.007-.021-.011-.016-.008-.011,0-.01,0a.089.089,0,0,0-.022,0,.107.107,0,0,0-.021,0l-.006,0-.026.028c-.016.019-.028.032-.036.04a.32.32,0,0,1-.027.022c-.01.006-.02.013-.032.019l-.019.01-.032.007a.277.277,0,0,1-.045.006.156.156,0,0,1-.033-.005l-.025-.008-.019-.013-.02-.017-.017-.018-.014-.018-.01-.01-.01-.008-.016-.009a.19.19,0,0,0-.033-.014l-.031-.009-.056,0a.778.778,0,0,0-.086,0l-.063.009-.043.009-.033.01-.026.011a.2.2,0,0,0-.023.014l-.012.01-.008.009-.01.014-.006.016,0,.01v.009l0,.013,0,.009.011.016a.179.179,0,0,0,.028.028l.043.034.069.047a.665.665,0,0,1,.063.046l.028.026a.4.4,0,0,1,.034.042l.021.029.012.014.022.024.011.011.013.01.025.014.024.009a.264.264,0,0,0,.041,0,.2.2,0,0,0,.051,0A.172.172,0,0,0,42.7,13.1l.029-.013.031-.02a.183.183,0,0,0,.027-.021l.019-.017.012-.013.02-.019.03-.027.045-.034a.553.553,0,0,1,.049-.032L43,12.877a.273.273,0,0,1,.045-.02.42.42,0,0,1,.059-.017.566.566,0,0,1,.072-.014l.049,0a.326.326,0,0,1,.046,0,.269.269,0,0,1,.054.012l.036.012.012.006.023.014a.212.212,0,0,1,.035.026l.02.018.014.017.016.019.021.027.019.021.011.008a.064.064,0,0,0,.022.006h.017l.017-.006a.117.117,0,0,0,.028-.016.232.232,0,0,0,.03-.026l.005-.007,0-.006" fill-rule="evenodd" transform="translate(0 0)"/>
    <path fill="#cc1f36" d="M42.492,12.328l-.016,0a.327.327,0,0,1,.044.008l.011.005.009.007.008.009.008.012.006.015v.036l0,.021,0,.019,0,.01-.009.007-.007.006-.04.016a.307.307,0,0,1-.07.019l-.045.007-.047.008" fill-rule="evenodd" transform="translate(0 0)"/>
    <path fill="#cc1f36" d="M43.682,12.809l.046-.013a.08.08,0,0,1,.015.016.109.109,0,0,1,.013.027l.007.029a.317.317,0,0,1,.006.043.282.282,0,0,1,0,.05.279.279,0,0,1-.006.043.363.363,0,0,1-.011.045c-.005.017-.009.029-.012.037l-.011.025-.006.015-.015.03-.023.044-.016.03-.015.027-.008.015-.013.021-.03.053-.038.063-.036.057-.023.035-.013.018-.022.027-.021.023a.176.176,0,0,1-.024.019.187.187,0,0,1-.039.022.172.172,0,0,1-.039.012.179.179,0,0,1-.032,0H43.3l-.027-.012-.031-.015-.012-.011-.015-.017-.013-.019-.009-.021a.249.249,0,0,1-.007-.029l0-.023v-.02a.171.171,0,0,1,0-.031l.007-.03c0-.009.008-.021.014-.036l.016-.035.016-.028.02-.032.02-.029.014-.021.011-.017.022-.036a.6.6,0,0,0,.031-.053l.019-.037.011-.022.008-.019.008-.023,0-.017.005-.034a.381.381,0,0,0,0-.043v-.02l0-.017,0-.013-.009-.027-.011-.029-.022-.042" fill-rule="evenodd" transform="translate(0 0)"/>
    <path fill="#cc1f36" d="M9.767,28.753l.06.007c.035,0,.081.008.137.011s.106.006.146.007l.1,0h.175a.925.925,0,0,0,.153-.018.767.767,0,0,0,.1-.024.424.424,0,0,0,.046-.024l.035-.022.014-.014.011-.013.01-.016.013-.021.01-.016.025-.032.018-.018.022-.018a.251.251,0,0,1,.037-.021.316.316,0,0,1,.047-.018l.046-.008a.417.417,0,0,1,.052,0h.04l.024,0,.043.008.034.006.028,0a.472.472,0,0,0,.057-.011l.056-.016.048-.016.027-.009.065-.025.082-.031.032-.011.057-.021.1-.035c.032-.012.062-.024.09-.037l.057-.029.028-.017.016-.01.019-.018.023-.022.013-.01.023-.013a.191.191,0,0,1,.046-.015.225.225,0,0,1,.042-.007H12.1l.027,0,.03,0,.02,0,.016,0,.027,0a.452.452,0,0,0,.068-.016c.033-.009.059-.017.079-.024l.056-.021.057-.023.031-.011.016-.007.019-.008.023-.012.025-.012.042-.017.028-.01L12.7,28l.049-.013c.013,0,.035-.011.066-.023a.46.46,0,0,0,.059-.024l.019-.009.021-.011.022-.014.014-.01.016-.013.017-.014L13,27.85l.025-.014a.232.232,0,0,1,.035-.014l.034-.008.017,0h.02l.031,0,.018,0H13.2l.028,0,.046-.009.045-.012.041-.016.04-.016.048-.02.058-.023c.018-.007.043-.016.073-.025s.052-.017.065-.02l.045-.011.036-.007.015,0,.027,0,.044-.007a.306.306,0,0,0,.041-.01l.039-.014.031-.013.026-.014.027-.017.02-.014.016-.013.014-.013.016-.014.021-.015a.147.147,0,0,1,.028-.016l.03-.013.029-.007.027,0h.142a.582.582,0,0,0,.061-.013.614.614,0,0,0,.07-.021l.038-.016.036-.018.034-.019.035-.017.042-.018.025-.01.032-.009.04-.01.032,0,.024,0,.041-.007.053-.01.053-.012c.02,0,.041-.011.061-.018a.558.558,0,0,0,.052-.021.285.285,0,0,0,.036-.019.221.221,0,0,0,.031-.023.28.28,0,0,0,.03-.028l.019-.02.01-.013.009-.013.01-.015.011-.015.011-.012.02-.014a.127.127,0,0,1,.031-.015l.026-.008a.043.043,0,0,1,.016,0h.008l.027.009.045.018.031.013.027.007a.159.159,0,0,0,.034,0l.012,0a.08.08,0,0,0,.023-.005.156.156,0,0,0,.026-.011l.018-.011.015-.011.016-.01.015-.008.018-.009.015-.006.022-.007.024-.007L15.7,27l.023-.009.024-.013.021-.012.015-.01.016-.012.018-.013.02-.011.023-.011.027-.009.039-.009.037-.008L16,26.874l.03-.009.01,0,.017-.008.026-.015.02-.014.015-.014.023-.027a.564.564,0,0,1,.038-.043l.03-.024a.153.153,0,0,1,.037-.021.2.2,0,0,1,.028-.01l.013,0h.024l.027,0,.03,0,.039,0,.026,0,.022,0h.022a.44.44,0,0,0,.051-.008l.062-.015a.371.371,0,0,0,.048-.021l.044-.023.03-.017.026-.016.032-.021a.164.164,0,0,0,.025-.021l.018-.02.012-.014.008-.009.012-.012.016-.011a.156.156,0,0,1,.026-.013l.022-.008.026,0h.059l.032,0a.32.32,0,0,0,.041-.008.362.362,0,0,0,.043-.014l.029-.013.016-.01.014-.015.014-.017.009-.017.009-.015.008-.013.016-.02.016-.018.015-.015.014-.017.014-.017.012-.015a.129.129,0,0,1,.024-.015l.029-.012.019,0,.011,0h.094l.021,0,.021,0,.016,0,.015-.006a.352.352,0,0,0,.042-.026l.036-.025.027-.025c.014-.013.025-.023.033-.032l.014-.018.03-.046.009-.02.007-.013.007-.013.007-.01.013-.011.021-.013.017-.008.023,0,.032-.006.021,0a.56.56,0,0,0,.06-.029A.383.383,0,0,0,18,25.838l.014-.016.014-.021.01-.019.012-.03.015-.035.007-.019,0-.014,0-.015,0-.019,0-.023,0-.023,0-.013.007-.018.012-.022.013-.021.011-.013a.505.505,0,0,1,.041-.036l.046-.039.009-.007.018-.014c.011-.01.023-.022.037-.037l.031-.034.026-.031.033-.043a.414.414,0,0,0,.031-.046c.008-.015.017-.031.025-.049a.292.292,0,0,0,.018-.044l.028-.076.041-.109.024-.071.011-.038.011-.046c0-.02.009-.051.016-.093s.012-.089.016-.14l.007-.1c0-.015,0-.036.007-.063l.008-.076.008-.059.007-.051.009-.062.008-.051,0-.024.006-.021.008-.023.007-.019,0-.012,0-.016,0-.018a.173.173,0,0,0,0-.032.242.242,0,0,0,0-.047.3.3,0,0,0-.023-.065.516.516,0,0,0-.045-.08c-.018-.024-.034-.043-.047-.058l-.042-.041-.035-.034-.021-.021-.012-.013-.02-.028-.023-.032-.012-.019-.014-.024-.015-.029-.009-.021-.005-.018-.01-.04-.009-.044-.01-.035-.017-.056c-.007-.023-.015-.047-.024-.071l-.019-.05-.017-.036-.017-.033a.466.466,0,0,0-.03-.043.424.424,0,0,0-.036-.045l-.03-.031a.569.569,0,0,0-.058-.053c-.026-.022-.046-.037-.059-.046a.384.384,0,0,0-.05-.03.317.317,0,0,0-.048-.023.1.1,0,0,0-.035,0,.119.119,0,0,0-.04.008.133.133,0,0,0-.038.023.256.256,0,0,0-.044.07.559.559,0,0,0-.035.088c-.006.022-.014.069-.025.14s-.019.127-.024.167-.01.1-.017.168-.011.128-.013.168,0,.068,0,.086,0,.057-.006.118,0,.117-.006.168,0,.09,0,.115,0,.055,0,.092-.005.077-.009.119-.01.094-.018.155-.015.114-.023.156-.017.086-.028.131a1.069,1.069,0,0,1-.04.128.689.689,0,0,1-.051.109.519.519,0,0,1-.081.1,1,1,0,0,1-.121.108c-.045.035-.1.079-.169.133s-.126.1-.178.152l-.116.105c-.025.022-.061.052-.108.089s-.085.066-.115.086a1.64,1.64,0,0,1-.148.086c-.07.038-.124.065-.165.084l-.092.04c-.022.009-.049.02-.081.035s-.059.025-.077.034a.777.777,0,0,0-.087.049.6.6,0,0,0-.083.058.444.444,0,0,0-.047.049.567.567,0,0,0-.035.046l-.018.028c0,.006-.012.021-.024.044a.514.514,0,0,0-.026.059.31.31,0,0,0-.014.047.484.484,0,0,0-.011.055.52.52,0,0,0-.008.052l-.006.044-.006.044,0,.024-.008.017a.084.084,0,0,1-.022.025.124.124,0,0,1-.034.018.144.144,0,0,1-.027,0,.062.062,0,0,1-.018,0,.287.287,0,0,1-.035-.013.221.221,0,0,1-.036-.019l-.02-.017-.019-.018-.024-.025-.022-.026-.016-.022-.021-.029-.014-.017-.012-.015L15.3,26.47a.215.215,0,0,0-.026-.024l-.024-.019-.018-.011a.187.187,0,0,0-.028-.013l-.027-.01-.035,0-.043,0a.3.3,0,0,0-.041,0,.23.23,0,0,0-.04,0l-.039.008-.028.008-.048.018a.623.623,0,0,0-.058.024c-.011.006-.028.016-.051.031s-.04.028-.052.037l-.026.023-.018.019-.016.02-.016.029a.274.274,0,0,0-.015.04c0,.014-.006.03-.008.047a.428.428,0,0,0,0,.049v.089c0,.014,0,.028,0,.041a.293.293,0,0,1-.011.045c-.006.016-.011.027-.014.034a.109.109,0,0,1-.014.021.159.159,0,0,1-.026.026.136.136,0,0,1-.038.024.172.172,0,0,1-.032.011h-.016l-.031-.006-.034-.008a.2.2,0,0,1-.029-.018.337.337,0,0,1-.034-.027l-.018-.015-.036-.037-.042-.043-.018-.019-.033-.03-.027-.023-.026-.018-.038-.024-.033-.016-.02-.008-.02-.005a.176.176,0,0,0-.031,0l-.017,0-.045.007a.306.306,0,0,0-.053.01l-.044.016c-.021.009-.043.019-.068.032l-.05.027-.033.022-.029.022-.02.017-.017.02-.013.018-.009.018a.226.226,0,0,0-.014.037l-.009.028-.006.031c0,.019-.007.038-.009.055l0,.034,0,.029a.262.262,0,0,1-.007.038l-.01.034a.352.352,0,0,1-.016.038.329.329,0,0,1-.02.038l-.015.021-.023.02-.025.019-.022.008-.026.006h-.023l-.018,0-.028-.013a.247.247,0,0,1-.033-.019.442.442,0,0,1-.036-.03l-.039-.036-.018-.017-.021-.023-.027-.029-.022-.023-.041-.042c-.021-.02-.035-.033-.042-.038a.2.2,0,0,0-.077-.039.3.3,0,0,0-.039-.008.34.34,0,0,0-.045,0h-.03l-.043,0-.058.006-.042.007-.046.009c-.017,0-.046.01-.088.021s-.087.023-.136.037-.095.028-.137.042-.08.028-.113.041l-.092.035-.1.043-.094.044-.067.032-.137.066c-.069.032-.125.059-.166.08s-.07.035-.084.042l-.07.039a1.9,1.9,0,0,1-.178.081c-.087.037-.153.064-.2.08l-.107.038-.08.028-.062.023-.09.032c-.047.016-.094.03-.141.043s-.1.024-.155.035-.116.02-.179.027-.135.014-.218.02l-.181.013-.089.006-.055.006-.027,0-.031,0-.056.01-.047.011-.035.012-.036.017-.028.017a.135.135,0,0,0-.025.024.392.392,0,0,0-.025.032l-.011.018-.011.028c-.006.017-.012.035-.018.051a.542.542,0,0,1-.023.06.277.277,0,0,1-.03.053.222.222,0,0,1-.026.031.109.109,0,0,1-.022.018.238.238,0,0,1-.033.017.211.211,0,0,1-.041.011.129.129,0,0,1-.061-.01l-.018-.011a.14.14,0,0,1-.028-.03A.255.255,0,0,1,9,28.362a.18.18,0,0,1-.014-.031l-.017-.044-.017-.043-.015-.038-.011-.024L8.9,28.14a.556.556,0,0,0-.039-.061.341.341,0,0,0-.037-.039.233.233,0,0,0-.031-.026L8.778,28l-.032-.016L8.7,27.968a.455.455,0,0,0-.059-.012.5.5,0,0,0-.054-.008H8.562l-.053,0a.441.441,0,0,0-.088.017l-.06.022c-.01.006-.02.011-.03.018l-.032.026-.025.024c0,.005-.012.015-.022.03l-.023.033-.019.037-.019.038-.021.039-.027.049-.028.041a.515.515,0,0,1-.032.041l-.034.039-.024.026-.019.021c-.007.007-.019.022-.037.045a.468.468,0,0,0-.047.072.5.5,0,0,0-.022.048l-.005.018,0,.022a.155.155,0,0,0,0,.022l0,.013.006.014.013.017.017.017a.236.236,0,0,0,.026.017l.023.014L8,28.778l.011.007,0,0,.008,0,.01,0" fill-rule="evenodd" transform="translate(0 0)"/>
    <path fill="#cc1f36" d="M8.028,28.8l.006-.034.011-.031.005-.018,0-.022c0-.01,0-.021,0-.034a.2.2,0,0,0,0-.036.16.16,0,0,0-.008-.03.45.45,0,0,0-.025-.049c-.014-.025-.031-.051-.049-.077s-.036-.05-.052-.072-.031-.04-.041-.054l-.033-.046-.019-.027-.029-.038q-.026-.036-.057-.075c-.02-.026-.038-.047-.054-.064a.56.56,0,0,0-.06-.055c-.025-.02-.043-.034-.054-.041a.3.3,0,0,0-.059-.028.631.631,0,0,0-.13-.03,1.109,1.109,0,0,0-.184-.012q-.1,0-.186.006c-.059,0-.111.006-.154.007l-.236,0c-.114,0-.2,0-.267,0l-.184,0-.137,0H5.919l-.129,0-.119,0H5.415l-.053,0H5.2l-.056,0a.517.517,0,0,0-.072.007l-.034.005-.043.011a.684.684,0,0,0-.072.023A.375.375,0,0,0,4.87,28a.2.2,0,0,0-.03.023l-.022.021a.462.462,0,0,0-.034.053,1.275,1.275,0,0,0-.058.117l-.039.088a.406.406,0,0,1-.026.04.219.219,0,0,1-.033.037l-.021.017-.018.009a.09.09,0,0,1-.028.006.177.177,0,0,1-.024,0l-.02,0a.155.155,0,0,1-.044-.023.291.291,0,0,1-.041-.03.165.165,0,0,1-.026-.03.556.556,0,0,1-.033-.057c-.013-.025-.021-.043-.026-.053l-.016-.036-.019-.039a.418.418,0,0,0-.028-.049.642.642,0,0,0-.042-.06.565.565,0,0,0-.043-.048.448.448,0,0,0-.045-.038.359.359,0,0,0-.066-.04.284.284,0,0,0-.074-.028.254.254,0,0,0-.065-.006.178.178,0,0,0-.054.014.223.223,0,0,0-.041.026.264.264,0,0,0-.045.05.608.608,0,0,0-.05.083c-.014.03-.028.061-.041.095s-.024.063-.034.089l-.021.059a.28.28,0,0,0-.014.053.5.5,0,0,0-.011.075c0,.028,0,.05,0,.068s0,.037,0,.057a.451.451,0,0,1-.007.051l0,.025-.006.038c0,.022-.005.041-.006.059a.443.443,0,0,0,0,.052l0,.022" fill-rule="evenodd" transform="translate(0 0)"/>
  </g>
</svg>