<svg width="60" height="60" xmlns="http://www.w3.org/2000/svg" viewBox="0 0 60 60">
  <rect fill="#fff" height="60" width="60"/>
  <g>
    <g>
      <path fill="#cb2026" d="M12.8,10.291a6.8,6.8,0,0,1,1.677-.183,3.429,3.429,0,0,1,2.439.782c.774.686,1.247,1.922,1.247,3.815,0,2.023-.506,3.3-1.23,3.993a3.669,3.669,0,0,1-2.758.96,9.219,9.219,0,0,1-1.375-.1Zm1.487,8.1a1.736,1.736,0,0,0,.366.028c1.023,0,1.963-.862,1.963-3.739,0-2.137-.605-3.372-1.9-3.372a1.636,1.636,0,0,0-.429.048Z"/>
      <path fill="#cb2026" d="M23.982,17.61c0,.74.035,1.4.057,1.981h-1.3l-.088-.716h-.028A1.855,1.855,0,0,1,21.1,19.7c-1.25,0-1.749-.945-1.749-2.719V12.772h1.5V16.8c0,.971.176,1.649.787,1.649a.836.836,0,0,0,.766-.666,1.92,1.92,0,0,0,.084-.593V12.772h1.5Z"/>
      <path fill="#cb2026" d="M25.384,14.694c0-.771-.034-1.319-.056-1.922h1.3l.076.814h.028a1.846,1.846,0,0,1,1.584-.926,1.44,1.44,0,0,1,1.46.981h.029a2.177,2.177,0,0,1,.684-.73,1.805,1.805,0,0,1,.948-.251c1.087,0,1.708.835,1.708,2.518v4.413H31.662V15.46c0-.825-.106-1.556-.775-1.556-.382,0-.69.293-.826.8a2.383,2.383,0,0,0-.051.543v4.346H28.523V15.228c0-.609-.086-1.324-.762-1.324-.355,0-.7.283-.83.835a2.44,2.44,0,0,0-.059.544v4.308H25.384Z"/>
      <path fill="#cb2026" d="M34.527,14.694c0-.771-.034-1.319-.056-1.922h1.3l.077.814h.027a1.848,1.848,0,0,1,1.585-.926,1.441,1.441,0,0,1,1.46.981h.028a2.189,2.189,0,0,1,.685-.73,1.8,1.8,0,0,1,.948-.251c1.087,0,1.708.835,1.708,2.518v4.413H40.805V15.46c0-.825-.107-1.556-.776-1.556-.381,0-.69.293-.826.8a2.448,2.448,0,0,0-.05.543v4.346H37.666V15.228c0-.609-.087-1.324-.762-1.324-.355,0-.7.283-.83.835a2.378,2.378,0,0,0-.06.544v4.308H34.527Z"/>
      <path fill="#cb2026" d="M44.565,12.772l.774,3.716c.1.459.16.861.232,1.26H45.6c.06-.367.142-.812.22-1.245l.674-3.731h1.47L46.7,17.64A10.572,10.572,0,0,1,45.1,21.529a3.515,3.515,0,0,1-1.408,1.057L43.209,21.3a2.961,2.961,0,0,0,.931-.695,3.3,3.3,0,0,0,.59-.963.826.826,0,0,0,.086-.316.769.769,0,0,0-.044-.252l-1.8-6.3Z"/>
    </g>
    <g>
      <path fill="#cb2026" d="M14.581,30.471c-.054-1.059-.116-2.344-.09-3.387h-.046c-.184,1.031-.437,2.178-.665,3.077l-.974,3.844H11.78l-.928-3.734c-.241-.961-.5-2.132-.665-3.187h-.041c-.011,1.067-.075,2.316-.129,3.435l-.166,3.6h-1.3l.625-9.441h1.594l.91,3.822c.286,1.22.524,2.209.709,3.28h.033c.163-1.061.373-2.05.645-3.28l.893-3.822h1.609l.558,9.441H14.765Z"/>
      <path fill="#cb2026" d="M18.95,25.51a.8.8,0,1,1-.8-.868A.8.8,0,0,1,18.95,25.51Zm-1.538,8.606V27.3h1.5v6.819Z"/>
      <path fill="#cb2026" d="M20.282,29.219c0-.771-.034-1.319-.056-1.922h1.3l.076.8h.028a1.838,1.838,0,0,1,1.612-.915c1.138,0,1.742.882,1.742,2.464v4.467H23.484V29.792c0-.682-.144-1.348-.8-1.348-.371,0-.7.285-.836.835a2.316,2.316,0,0,0-.076.62v4.217h-1.5Z"/>
      <path fill="#cb2026" d="M27.546,31.108c.016,1.524.724,1.938,1.52,1.938A3.124,3.124,0,0,0,30.29,32.8L30.5,33.88a4.334,4.334,0,0,1-1.707.32c-1.757,0-2.7-1.275-2.7-3.386,0-2.256,1.081-3.629,2.537-3.629,1.434,0,2.157,1.3,2.157,3.125a6.188,6.188,0,0,1-.039.8ZM29.4,30.044c.012-1.095-.348-1.745-.878-1.745-.649,0-.941.945-.972,1.745Z"/>
      <path fill="#cb2026" d="M32.153,34.116V28.381h-.892V27.3h.892v-.4a2.505,2.505,0,0,1,2.785-2.585,3.46,3.46,0,0,1,1.486.3l-.248,1.17a3.181,3.181,0,0,0-1.208-.246c-1.045,0-1.32.653-1.32,1.474V27.3H36.9v6.819H35.4V28.381H33.648v5.735Z"/>
      <path fill="#cb2026" d="M39.46,31.108c.016,1.524.724,1.938,1.519,1.938A3.12,3.12,0,0,0,42.2,32.8l.212,1.076a4.338,4.338,0,0,1-1.707.32c-1.758,0-2.7-1.275-2.7-3.386,0-2.256,1.081-3.629,2.537-3.629,1.435,0,2.157,1.3,2.157,3.125a5.8,5.8,0,0,1-.04.8Zm1.855-1.064c.012-1.095-.347-1.745-.877-1.745-.649,0-.942.945-.972,1.745Z"/>
      <path fill="#cb2026" d="M43.787,24.423h1.495v9.693H43.787Z"/>
      <path fill="#cb2026" d="M51.3,24.423v7.85c0,.56.034,1.32.056,1.843H50.072l-.088-.808h-.04a1.611,1.611,0,0,1-1.422.921c-1.319,0-2.06-1.448-2.06-3.5,0-2.394,1.028-3.542,2.13-3.542a1.24,1.24,0,0,1,1.193.741h.028v-3.5ZM49.813,29.9a2.752,2.752,0,0,0-.022-.421c-.063-.547-.371-1.033-.812-1.033-.755,0-1.026,1.076-1.026,2.3,0,1.361.362,2.248.989,2.248.282,0,.63-.146.819-.845a1.537,1.537,0,0,0,.052-.438Z"/>
    </g>
    <path fill="#cb2026" d="M31.2,48.642l-.712-1.978c-.188-.536-.354-1.044-.543-1.663H29.91c-.181.612-.345,1.169-.5,1.693l-.642,1.948h-1.5l1.838-4.821L27.335,39.2h1.556l.685,1.942c.158.469.309.938.487,1.514h.028c.18-.61.311-1.051.447-1.541l.609-1.915h1.506l-1.8,4.645,1.9,4.8Z"/>
  </g>
</svg>