<svg width="60" height="60" xmlns="http://www.w3.org/2000/svg" viewBox="0 0 60 60">
  <rect fill="#fff" height="60" width="60"/>
  <g>
    <g>
      <path fill="#cb2026" d="M25.568,19.015a7.115,7.115,0,0,1-2.346.424,4.012,4.012,0,0,1-3.077-1.191,6.866,6.866,0,0,1-1.52-4.871c.041-4.557,2.512-6.29,4.889-6.29a4.378,4.378,0,0,1,1.872.355L25.021,9.1a3.014,3.014,0,0,0-1.394-.286c-1.561,0-3,1.156-3,4.582,0,3.287,1.264,4.409,2.526,4.409a1.562,1.562,0,0,0,.64-.1v-3.39h-1.3V12.738h3.079Z"/>
      <path fill="#cb2026" d="M33.152,16.783c0,.952.044,1.8.073,2.548H31.559l-.113-.921H31.41a2.387,2.387,0,0,1-1.959,1.066c-1.607,0-2.247-1.214-2.247-3.5V10.565h1.921v5.182c0,1.248.227,2.119,1.013,2.119a1.077,1.077,0,0,0,.985-.856,2.519,2.519,0,0,0,.107-.762V10.565h1.922Z"/>
      <path fill="#cb2026" d="M34.956,13.035c0-.99-.043-1.693-.071-2.47H36.55l.1,1.032h.037a2.363,2.363,0,0,1,2.072-1.175c1.461,0,2.239,1.135,2.239,3.167v5.742H39.073V13.772c0-.876-.185-1.731-1.022-1.731-.478,0-.905.366-1.075,1.072a2.967,2.967,0,0,0-.1.8v5.42H34.956Z"/>
    </g>
    <g>
      <path fill="#cb2026" d="M18.033,24.044a10.476,10.476,0,0,1,2.315-.234,4.251,4.251,0,0,1,3.007.887,3.148,3.148,0,0,1,.916,2.453,3.209,3.209,0,0,1-1.907,3.074v.036c.854.306,1.3,1.112,1.544,2.549A18.364,18.364,0,0,0,24.648,36H22.655a16.314,16.314,0,0,1-.625-2.948c-.235-1.58-.683-2.094-1.644-2.094h-.441V36H18.033Zm1.912,5.431h.5a1.912,1.912,0,0,0,1.878-2.13c0-1.2-.482-2-1.734-2.018a2.169,2.169,0,0,0-.644.072Z"/>
      <path fill="#cb2026" d="M27.341,32.134c.02,1.958.93,2.491,1.953,2.491a4.036,4.036,0,0,0,1.573-.312L31.14,35.7a5.565,5.565,0,0,1-2.2.412c-2.259,0-3.472-1.639-3.472-4.352,0-2.9,1.389-4.666,3.261-4.666,1.844,0,2.773,1.666,2.773,4.016a7.647,7.647,0,0,1-.052,1.028Zm2.385-1.369c.015-1.407-.447-2.243-1.128-2.243-.834,0-1.211,1.215-1.249,2.243Z"/>
      <path fill="#cb2026" d="M32.9,29.991c0-1.185-.042-2.023-.071-2.757h1.681l.1,1.06h.036a2.021,2.021,0,0,1,1.846-1.2c1.743,0,2.63,1.88,2.63,4.512,0,3.182-1.355,4.543-2.787,4.543a1.673,1.673,0,0,1-1.484-.925h-.036v4.237H32.9Zm1.913,2.8a2.361,2.361,0,0,0,.1.732c.222.855.673,1.034.99,1.034.971,0,1.3-1.381,1.3-2.931,0-1.738-.419-2.911-1.3-2.911-.485,0-.921.539-1.013,1.125a2.261,2.261,0,0,0-.079.644Z"/>
      <path fill="#cb2026" d="M40.023,34.819A1.251,1.251,0,0,1,41.2,33.477a1.2,1.2,0,0,1,1.163,1.342,1.18,1.18,0,0,1-1.172,1.326A1.21,1.21,0,0,1,40.023,34.819Z"/>
    </g>
  </g>
</svg>