<svg width="60" height="60" xmlns="http://www.w3.org/2000/svg" viewBox="0 0 60 60">
  <rect fill="#fff" height="60" width="60"/>
  <g>
    <path fill="#cc1f36" d="M50,29.775q0,.224,0,.45t-.012.453q-.006.226-.021.45c-.008.151-.017.3-.029.453s-.026.3-.041.45-.033.3-.05.45-.041.3-.062.447-.045.3-.071.447-.053.3-.082.444-.06.295-.091.442-.065.294-.1.441-.075.293-.112.438-.079.29-.121.435-.087.289-.132.433-.092.288-.141.429-.1.285-.15.427-.1.282-.159.423-.112.281-.171.418-.116.278-.179.418-.124.273-.188.408-.129.274-.2.409-.136.267-.206.4-.142.266-.215.4-.15.263-.226.395-.154.258-.233.385-.159.257-.241.382-.166.253-.25.377-.173.247-.262.37-.174.243-.264.365l-.277.359c-.094.118-.189.234-.285.35s-.191.233-.291.347-.2.227-.3.338-.205.223-.309.333-.206.217-.312.323-.214.215-.323.321-.217.207-.327.309-.223.2-.335.3-.229.2-.344.3l-.347.285q-.177.141-.356.28c-.12.092-.24.183-.362.273s-.244.175-.368.262-.248.172-.373.256l-.38.247c-.127.08-.256.159-.385.235s-.257.155-.388.23-.263.148-.394.22-.267.143-.4.212-.271.135-.406.2-.272.131-.409.194-.273.123-.412.182-.278.12-.417.177l-.421.165c-.141.053-.282.1-.424.153s-.286.1-.429.147-.286.092-.429.135-.291.085-.436.126-.291.078-.438.115-.291.073-.438.106-.294.068-.441.1-.3.061-.444.088-.3.05-.445.074-.3.048-.447.068-.3.038-.45.055-.3.034-.45.047-.3.026-.45.036-.3.018-.45.023-.3.014-.453.018-.3,0-.452,0-.3,0-.45,0-.3-.01-.453-.018-.3-.013-.45-.023-.3-.022-.453-.036-.3-.029-.45-.047-.3-.036-.447-.055-.3-.043-.447-.068-.3-.048-.448-.074-.294-.056-.441-.088-.3-.062-.444-.1-.291-.069-.438-.106-.29-.075-.435-.115-.293-.083-.436-.126-.289-.088-.432-.135-.285-.1-.426-.147-.286-.1-.427-.153l-.421-.165q-.209-.085-.414-.177c-.139-.059-.278-.119-.415-.182s-.273-.127-.409-.194-.269-.131-.4-.2-.268-.139-.4-.212-.265-.146-.4-.22-.259-.151-.388-.23-.258-.155-.385-.235l-.38-.247c-.125-.084-.25-.17-.373-.256s-.245-.174-.365-.262-.242-.181-.362-.273-.238-.184-.356-.28-.234-.189-.35-.285l-.341-.3q-.17-.15-.335-.3t-.329-.309q-.162-.159-.321-.321c-.106-.106-.211-.213-.315-.323s-.206-.221-.306-.333-.2-.224-.3-.338-.195-.229-.291-.347-.19-.232-.282-.35-.186-.239-.277-.359-.179-.243-.267-.365-.175-.247-.259-.37-.168-.249-.25-.377-.164-.253-.244-.382-.156-.256-.233-.385-.151-.263-.223-.395-.147-.263-.218-.4l-.206-.4q-.1-.2-.2-.409c-.064-.135-.127-.271-.188-.408s-.121-.279-.179-.418-.113-.276-.168-.418-.109-.282-.162-.423-.1-.284-.15-.427-.1-.284-.141-.429-.088-.288-.129-.433-.084-.29-.121-.435-.076-.291-.112-.438-.069-.294-.1-.441-.061-.3-.091-.442-.054-.3-.079-.444-.049-.3-.071-.447-.044-.3-.062-.447-.037-.3-.053-.45-.026-.3-.038-.45-.022-.3-.032-.453-.015-.3-.021-.45-.007-.3-.009-.453,0-.3,0-.45.005-.3.009-.453.013-.3.021-.453.02-.3.032-.45.025-.3.038-.45.034-.3.053-.45.039-.3.062-.447.045-.3.071-.447.052-.3.079-.444.06-.3.091-.442.068-.294.1-.441.073-.293.112-.438.078-.29.121-.435.084-.29.129-.433.092-.288.141-.429.1-.286.15-.427.107-.282.162-.423.111-.281.168-.418.118-.279.179-.418.124-.273.188-.409.131-.273.2-.409.138-.266.206-.4.143-.265.218-.4.147-.262.223-.394.154-.257.233-.385.162-.257.244-.382.166-.253.25-.377.17-.249.259-.371.177-.243.267-.364.183-.24.277-.359.186-.234.282-.35.193-.233.291-.347.2-.227.3-.339.2-.222.306-.332.209-.218.315-.326l.321-.318q.16-.156.329-.309t.335-.3l.341-.3q.174-.144.35-.285t.356-.28c.12-.092.24-.183.362-.273s.241-.176.365-.262.248-.172.373-.256.252-.165.38-.247.256-.159.385-.235.259-.155.388-.23.264-.148.4-.22.265-.144.4-.212.268-.136.4-.2.272-.131.409-.194.276-.124.415-.183.275-.119.414-.176l.421-.165c.141-.053.283-.1.427-.153s.283-.1.426-.147.287-.092.432-.135.289-.085.436-.127.29-.077.435-.114.293-.073.438-.106.3-.068.444-.1.294-.061.441-.088.3-.051.448-.074.3-.048.447-.068l.447-.056c.151-.017.3-.033.45-.047s.3-.025.453-.035.3-.019.45-.026.3-.011.453-.015.3,0,.45,0,.3,0,.452,0,.3.01.453.017.3.014.45.024.3.022.45.035.3.03.45.047l.45.056c.149.02.3.043.447.068s.3.049.445.076.3.054.444.086.294.061.441.1.293.068.438.106.293.075.438.114l.436.127q.215.064.429.135t.429.147c.142.049.283.1.424.153l.421.165c.139.057.278.116.417.176s.277.12.412.183.274.127.409.194.272.131.406.2.266.139.4.212.262.146.394.22.262.151.391.23.255.156.382.238.254.162.38.244.25.17.373.256.246.173.368.262.242.181.362.273.238.186.356.28.233.189.347.285.23.2.344.3.223.2.335.3.219.205.327.309.217.213.323.321.21.213.312.323.207.221.309.332.2.225.3.339.2.229.294.347.188.232.282.35l.277.359c.09.121.179.243.267.364l.259.371c.084.125.168.251.25.377s.163.253.241.382.156.256.233.385.152.263.226.394.144.264.215.4.139.268.206.4.134.268.2.405.127.272.188.409.123.279.179.418.116.278.171.418.108.282.159.423.1.284.15.427.1.286.141.429.089.288.132.433.082.29.121.435.076.291.112.438.068.294.1.441.061.294.091.442.057.3.082.444.049.3.071.447.042.3.062.45.034.3.05.447.029.3.041.45.021.3.029.453.017.3.021.45S50,29.624,50,29.775Z" transform="translate(0 0)"/>
    <path fill="#fff" d="M47.5,29.8c0,.13,0,.262,0,.394s-.005.264-.011.4-.009.264-.018.394-.015.264-.025.4-.023.262-.036.394-.029.262-.044.394-.035.261-.054.391-.04.261-.062.391-.046.258-.072.389-.052.257-.08.386-.056.257-.087.386-.065.256-.1.384-.07.254-.106.38-.076.253-.115.379-.081.252-.124.376-.087.249-.131.373-.091.247-.139.37-.1.246-.149.366-.1.244-.157.365-.108.24-.165.358-.112.239-.173.358-.118.233-.18.35-.124.232-.188.347-.131.23-.2.345-.134.226-.2.337-.139.225-.211.335-.145.221-.219.329-.152.216-.229.325-.153.212-.231.319l-.242.314c-.083.1-.166.205-.25.306s-.167.2-.255.3-.172.2-.26.3-.179.194-.27.29-.18.191-.273.284-.187.188-.283.28-.189.181-.285.27-.2.178-.294.265-.2.175-.3.26-.2.168-.3.25-.206.164-.311.245-.21.16-.317.239-.213.153-.321.229-.217.15-.327.224l-.332.216c-.112.07-.224.139-.337.206s-.225.135-.34.2l-.345.193c-.116.063-.233.125-.35.185s-.237.118-.355.175-.238.115-.358.17-.238.108-.36.159-.244.105-.365.155l-.368.144c-.124.046-.247.091-.371.134s-.25.087-.376.129-.25.08-.375.118-.254.074-.381.111l-.384.1c-.127.033-.255.063-.383.093s-.258.059-.386.085-.258.053-.389.077l-.388.064c-.131.022-.261.042-.392.059s-.263.034-.393.049-.262.029-.394.041-.262.023-.394.031-.263.016-.394.021-.264.012-.4.015-.264,0-.4,0-.264,0-.394,0-.264-.008-.4-.015-.264-.012-.394-.021-.264-.018-.4-.031-.262-.025-.394-.041-.261-.031-.391-.049-.261-.037-.392-.059l-.391-.064c-.128-.024-.257-.05-.386-.077s-.26-.054-.388-.085-.255-.06-.384-.093l-.381-.1c-.128-.037-.255-.073-.381-.111s-.253-.077-.378-.118-.25-.084-.373-.129-.25-.088-.373-.134l-.368-.144c-.122-.05-.243-.1-.363-.155s-.243-.1-.363-.159-.239-.112-.358-.17-.236-.115-.352-.175-.235-.122-.35-.185-.233-.128-.348-.193-.226-.132-.339-.2-.226-.136-.338-.206l-.331-.216c-.11-.074-.219-.149-.327-.224s-.215-.152-.319-.229-.212-.159-.317-.239-.208-.161-.311-.245-.2-.165-.307-.25-.2-.172-.3-.26-.2-.175-.294-.265-.193-.179-.288-.27-.188-.186-.28-.28-.185-.187-.276-.284-.18-.192-.267-.29-.177-.2-.263-.3-.171-.2-.255-.3-.166-.2-.247-.306-.163-.21-.242-.314-.157-.213-.234-.319-.152-.217-.226-.325-.147-.218-.219-.329-.143-.222-.214-.335-.136-.224-.2-.337-.132-.23-.2-.345-.129-.231-.191-.347l-.18-.35c-.058-.119-.116-.238-.172-.358s-.112-.238-.165-.358-.106-.243-.157-.365-.1-.242-.147-.366-.095-.247-.141-.37-.089-.248-.132-.373-.084-.249-.123-.376-.077-.252-.113-.379-.073-.253-.106-.38-.067-.255-.1-.384-.061-.257-.09-.386-.054-.257-.08-.386-.047-.26-.069-.389-.043-.261-.062-.391-.038-.261-.054-.391-.032-.263-.046-.394-.023-.263-.034-.394-.019-.264-.028-.4-.013-.262-.018-.394-.006-.264-.008-.4,0-.262,0-.394.005-.264.008-.4.011-.265.018-.4.018-.261.028-.393.022-.262.034-.394.029-.262.046-.394.034-.261.054-.391.04-.261.062-.391.045-.259.069-.389.053-.257.08-.386.059-.257.09-.386.064-.257.1-.384.068-.254.106-.381.073-.253.113-.378.08-.252.123-.376.087-.249.132-.373.093-.247.141-.37.1-.246.147-.366.1-.244.157-.365.108-.24.165-.358.114-.24.172-.358l.18-.35c.062-.117.125-.232.191-.347s.128-.23.2-.345.135-.226.2-.337.142-.225.214-.335.145-.221.219-.329.149-.218.226-.325.156-.212.234-.319.16-.209.242-.314.163-.2.247-.306.169-.2.255-.3.173-.2.263-.3.176-.194.267-.291.183-.191.276-.285.186-.186.28-.278.191-.181.288-.27.194-.178.294-.266l.3-.26c.1-.083.2-.167.307-.249s.206-.164.311-.245.21-.16.317-.239.211-.154.319-.229.217-.15.327-.224l.331-.216c.112-.071.224-.139.338-.206s.226-.136.339-.2.231-.129.348-.193.231-.125.35-.185.234-.119.352-.175.238-.115.358-.17.241-.108.363-.16.241-.1.363-.154l.368-.144c.123-.047.248-.091.373-.134s.248-.088.373-.129.251-.08.378-.118.253-.075.381-.111l.381-.1q.193-.049.384-.093c.128-.031.258-.059.388-.085s.258-.053.386-.077.261-.044.391-.064.261-.042.392-.06.26-.033.391-.048.263-.029.394-.042.264-.022.4-.031l.394-.023q.2-.008.4-.012c.13,0,.262,0,.394,0s.264,0,.4,0,.264.008.4.015.262.012.394.02.263.019.394.031.263.026.394.042l.393.048c.131.018.261.038.392.06s.258.043.388.067.26.047.389.074.257.054.386.085.256.06.383.093l.384.1.381.111c.125.038.25.077.375.118s.251.084.376.129.247.087.371.134l.368.144c.121.05.243.1.365.154s.242.1.36.16.24.112.358.17.239.115.355.175.234.122.35.185l.345.193q.173.1.342.2c.112.067.223.136.335.208s.222.142.332.214.219.149.327.224.215.152.321.229.212.159.317.239.208.162.311.245.205.166.3.249.2.173.3.26.2.176.294.266.191.179.285.27.191.186.283.28.184.187.273.283.181.193.27.291.174.2.26.3.174.2.258.3l.247.306c.08.105.161.209.242.314s.157.213.234.319.151.217.226.325.147.219.219.329.142.221.211.335.136.224.2.337.133.23.2.345.127.23.188.347.122.234.18.353.118.235.173.355.111.237.165.358.107.243.157.365.1.244.149.366.094.247.139.37.09.248.131.373.084.251.124.376.078.252.115.378.072.254.106.381.067.255.1.384.06.257.087.386.054.257.08.386.05.26.072.389.043.26.062.391.037.261.054.394.03.26.044.391.025.263.036.394.019.264.025.4.015.261.018.394S47.5,29.671,47.5,29.8Z" transform="translate(0 0)"/>
    <path fill="#cc1f36" d="M42.5,29.859q0,.139,0,.282c0,.094,0,.188-.007.283s-.007.188-.013.281-.011.189-.019.283-.015.187-.025.281-.02.187-.032.282-.025.186-.038.279-.028.186-.044.279-.033.185-.052.278-.037.184-.057.276-.04.184-.062.276l-.07.274-.075.272c-.027.09-.055.18-.083.27s-.058.18-.088.268-.062.179-.094.267-.065.176-.1.265-.07.175-.107.261-.073.174-.112.261-.077.171-.118.255-.08.171-.123.256-.084.166-.129.25-.088.166-.134.248-.094.164-.141.246-.1.162-.146.241-.1.161-.15.239-.1.158-.157.235-.108.155-.163.232-.109.152-.166.228l-.172.224c-.059.074-.119.147-.179.219s-.119.146-.182.217-.123.142-.185.211-.128.139-.193.208-.129.136-.2.2-.134.135-.2.2l-.2.193-.21.189c-.071.063-.143.124-.215.186l-.217.178-.222.175-.227.171-.229.163c-.078.054-.155.108-.234.16l-.237.155c-.08.05-.16.1-.241.147s-.16.1-.242.143-.165.093-.247.138-.166.089-.25.132-.169.085-.253.125-.17.082-.256.122-.17.077-.257.114-.174.074-.261.11l-.263.1c-.088.033-.177.065-.265.1s-.179.062-.268.091-.179.058-.269.085l-.272.079-.274.072c-.09.023-.182.045-.273.066s-.184.042-.276.061-.185.038-.278.055l-.277.046c-.093.016-.187.03-.28.042l-.281.035c-.093.011-.187.021-.281.029s-.187.016-.281.022-.189.012-.282.015-.188.009-.283.011L30,42.5l-.281,0c-.095,0-.189-.006-.283-.011s-.188-.008-.282-.015-.188-.013-.283-.022-.186-.018-.281-.029l-.279-.035c-.093-.012-.187-.026-.28-.042l-.279-.046c-.092-.017-.184-.036-.276-.055s-.185-.039-.277-.061l-.274-.066-.272-.072c-.092-.026-.183-.052-.272-.079s-.181-.055-.271-.085-.178-.06-.266-.091-.178-.063-.267-.1l-.263-.1c-.087-.036-.173-.072-.259-.11s-.173-.075-.259-.114-.171-.08-.255-.122-.169-.082-.252-.125-.168-.087-.25-.132-.166-.091-.248-.138-.162-.094-.243-.143-.161-.1-.241-.147l-.237-.155c-.078-.052-.156-.106-.234-.16s-.153-.108-.227-.163l-.227-.171c-.074-.057-.148-.115-.222-.175s-.146-.118-.219-.178l-.213-.186c-.071-.062-.141-.126-.21-.189s-.138-.128-.2-.193-.135-.133-.2-.2-.132-.133-.2-.2-.129-.138-.192-.208-.126-.14-.187-.211-.122-.143-.182-.217-.119-.145-.177-.219-.116-.149-.172-.224-.113-.152-.168-.228-.109-.154-.161-.232-.1-.155-.157-.235-.1-.158-.152-.239-.1-.16-.145-.241-.1-.164-.14-.246-.092-.165-.136-.248l-.129-.25c-.042-.085-.083-.17-.123-.256s-.08-.17-.118-.255-.075-.174-.112-.261-.07-.173-.1-.261-.068-.177-.1-.265-.063-.177-.093-.267-.061-.178-.089-.268-.055-.18-.081-.27-.052-.182-.075-.272-.048-.183-.07-.274-.043-.184-.064-.276-.039-.184-.057-.276-.034-.186-.05-.278-.03-.186-.044-.279-.027-.186-.038-.279-.024-.188-.034-.282-.016-.188-.023-.281-.015-.189-.021-.283-.009-.187-.013-.281,0-.189,0-.283,0-.187,0-.282,0-.188,0-.283.008-.189.013-.283.013-.187.021-.281.015-.187.023-.281.021-.187.034-.282.023-.186.038-.279.028-.186.044-.28.033-.184.05-.277.037-.184.057-.276.042-.184.064-.276.046-.183.07-.274.048-.181.075-.272.053-.18.081-.27.058-.18.089-.268.061-.179.093-.267.067-.176.1-.265.07-.175.1-.261.074-.174.112-.261.077-.171.118-.255.081-.171.123-.256l.129-.25c.044-.083.089-.166.136-.248s.092-.164.14-.246.1-.161.145-.241.1-.161.152-.239.1-.158.157-.235.106-.156.161-.232.111-.152.168-.228.114-.15.172-.224.117-.147.177-.219.121-.146.182-.217.124-.142.187-.211.127-.139.192-.208.13-.137.2-.2.133-.133.2-.2.136-.129.2-.193.139-.127.21-.189.142-.125.213-.186.145-.119.219-.178l.222-.175.227-.171c.074-.055.15-.109.227-.163s.156-.108.234-.16l.237-.155c.08-.05.16-.1.241-.147s.162-.1.243-.143.164-.093.248-.138.165-.09.25-.132.167-.085.252-.125.169-.082.255-.122.172-.077.259-.114.172-.074.259-.11l.263-.1c.089-.033.177-.065.267-.1l.266-.092c.09-.029.18-.057.271-.084s.18-.053.272-.079.181-.048.272-.072l.274-.066c.092-.022.184-.042.277-.061s.184-.038.276-.055l.279-.046c.093-.016.187-.03.28-.042l.279-.035c.1-.011.188-.021.281-.029s.189-.016.283-.023l.282-.016c.094,0,.188-.007.283-.009l.281,0,.283,0c.095,0,.189.006.283.011s.187.008.282.014.188.014.281.023.188.018.281.029l.281.035c.093.012.187.026.28.042l.277.048c.093.016.186.034.278.053s.184.039.276.061.183.043.273.066.184.047.274.072l.272.079c.09.027.179.055.269.084l.268.092c.088.031.177.063.265.1l.263.1c.087.036.174.072.261.11s.173.075.257.114.171.08.256.122.17.082.253.125.167.087.25.132.165.091.247.138.163.094.244.143.159.1.239.149.159.1.237.153.156.106.234.16l.229.163.227.171.222.175c.074.059.146.118.217.178s.144.123.215.186.14.126.21.189l.2.193c.068.066.136.133.2.2s.131.133.2.2.129.138.193.208.124.14.185.211.124.143.184.217.118.145.177.219l.172.224q.086.114.168.228l.161.232c.053.078.105.156.157.235s.1.158.15.239.1.16.146.241.095.164.141.246.09.165.134.248.087.168.129.252.084.168.123.254.08.169.118.255.076.174.112.261.072.174.107.261.067.177.1.265.064.177.094.267.06.179.088.268.056.18.083.27l.075.272c.024.091.048.182.07.274s.043.184.062.276.039.184.057.276.036.186.052.277.03.187.044.28.026.187.038.281.022.186.032.28.018.188.025.281.014.189.019.283.01.187.013.281S42.5,29.765,42.5,29.859Z" transform="translate(0 0)"/>
  </g>
</svg>