<!-- Generator: Adobe Illustrator 25.2.3, SVG Export Plug-In . SVG Version: 6.00 Build 0)  --><svg x="0px" enable-background="new 0 0 60 60" y="0px" width="60px" xmlns:xlink="http://www.w3.org/1999/xlink" viewBox="0 0 60 60" height="60px" id="Layer_1" xmlns="http://www.w3.org/2000/svg" xml:space="preserve" version="1.1">
<rect width="60" fill="#CB2026" x="-0.012" height="60" id="UnitColor_2_" y="-0.085"/>
<rect width="60" fill="#640D0D" height="20.2" id="CS_1_" y="11.533" display="none"/>
<g id="Gar" display="none">
	<rect width="14.843" fill="none" x="0.73" height="8.039" y="2.802" display="inline"/>
	<path fill="#FFFFFF" d="M11.03,10.06c-0.472,0.163-1.361,0.379-2.249,0.379c-1.231,0-2.119-0.308-2.739-0.903   C5.424,8.949,5.085,8.072,5.089,7.083C5.097,4.842,6.73,3.567,8.936,3.567c0.87,0,1.539,0.165,1.873,0.323L10.49,5.111   C10.117,4.95,9.664,4.825,8.922,4.825c-1.27,0-2.235,0.714-2.235,2.18c0,1.391,0.878,2.205,2.125,2.205   c0.344,0,0.623-0.04,0.745-0.095V7.699H8.516V6.512h2.514V10.06z" display="inline"/>
</g>
<g id="Eng" display="none">
	<rect width="27.832" fill="none" x="1.1" height="8.039" y="2.802" display="inline"/>
	<path fill="#FFFFFF" d="M17.011,7.521h-2.479v1.602h2.771v1.248h-4.294V3.634h4.15v1.248h-2.626v1.403h2.479   V7.521z" display="inline"/>
</g>
<g id="P2" display="none">
	<path fill="#FFFFFF" d="M19.024,28.186c0.472-1.148,0.803-2.149,0.992-3.001c0.282-1.24,0.423-2.417,0.423-3.534   c0-1.066-0.099-2.078-0.295-3.035c-0.197-0.957-0.575-2.146-1.135-3.568h1.146c0.628,1.03,1.101,2.092,1.419,3.186   c0.319,1.094,0.478,2.185,0.478,3.274c0,1.094-0.159,2.218-0.476,3.374s-0.786,2.257-1.407,3.305H19.024z" display="inline"/>
</g>
<g id="P1" display="none">
	<path fill="#FFFFFF" d="M8.327,28.186H7.182c-0.605-1.025-1.071-2.111-1.396-3.257s-0.487-2.257-0.487-3.333   c0-1.162,0.163-2.296,0.489-3.401c0.326-1.105,0.795-2.154,1.408-3.148h1.146c-0.56,1.422-0.938,2.611-1.135,3.568   c-0.197,0.957-0.295,1.969-0.295,3.035c0,1.103,0.139,2.27,0.416,3.5C7.522,26.016,7.855,27.028,8.327,28.186z" display="inline"/>
</g>
<g id="Type">
	<path fill="#FFFFFF" d="M53.265,12.893v17.022H26.785V12.893H53.265z M51.846,14.312H28.204v14.185h23.642V14.312z M31.115,24.371   c-0.792-0.819-1.217-1.895-1.198-3.033c0.038-2.312,1.878-4.152,4.19-4.189c0.003,0,0.005,0.002,0.007,0.002v-0.002h11.814   c0.006,0,0.012-0.004,0.019-0.004c2.349,0.039,4.228,1.98,4.19,4.329c-0.038,2.311-1.88,4.151-4.189,4.189   c-0.005,0-0.009,0-0.013,0v0.004H34.118c-0.001,0-0.003,0-0.004,0s-0.004,0-0.007,0C32.97,25.647,31.907,25.188,31.115,24.371z    M31.336,21.361c-0.012,0.758,0.271,1.477,0.8,2.022c0.527,0.545,1.235,0.852,1.994,0.864h11.776c0.006,0,0.012-0.004,0.017-0.004   c1.543-0.025,2.771-1.253,2.795-2.794c0.025-1.562-1.222-2.854-2.782-2.885v0.003H34.13C32.589,18.592,31.361,19.819,31.336,21.361   z"/>
</g>
<g id="STK">
	<path fill="#FFFFFF" d="M13.307,17.911h-0.036l-2.139,1.074l-0.386-1.671l2.857-1.406h1.847v11.703h-2.144V17.911z"/>
</g>
<g id="ECH">
	<rect width="27.832" x="26.078" fill="none" height="8.039" y="2.802"/>
	<path fill="#FFFFFF" d="M39.33,3.634v6.736h-1.523V3.634H39.33z"/>
	<path fill="#FFFFFF" d="M42.18,3.634v6.736h-1.522V3.634H42.18z"/>
</g>
<g id="PF">
	<rect width="60" x="0" fill="none" height="15.475" y="44.525"/>
	<path fill="#FFFFFF" d="M22.414,54.03c0-0.807,0.442-1.386,0.978-1.729l-0.002-0.02c-0.553-0.362-0.795-0.918-0.795-1.425   c0-1.064,0.834-1.711,1.839-1.711c0.924,0,1.671,0.633,1.671,1.598c0,0.431-0.167,1.016-0.85,1.441v0.021   c0.6,0.324,1.004,0.925,1.004,1.693c0,1.204-0.878,1.902-1.946,1.902C23.195,55.803,22.414,55.096,22.414,54.03z M24.991,53.956   c0-0.617-0.381-1.01-0.748-1.2c-0.332,0.224-0.562,0.629-0.562,1.131c0,0.562,0.226,1.031,0.675,1.031   C24.771,54.918,24.991,54.502,24.991,53.956z M23.822,50.818c0,0.459,0.255,0.775,0.639,0.979c0.273-0.147,0.446-0.548,0.446-0.928   c0-0.44-0.146-0.847-0.532-0.847C23.995,50.022,23.822,50.411,23.822,50.818z"/>
	<path fill="#FFFFFF" d="M26.249,56.122l2.344-7.216h0.852L27.1,56.122H26.249z"/>
	<path fill="#FFFFFF" d="M31.059,50.459h-0.02l-1.101,0.565l-0.221-1.026l1.489-0.771h1.147v6.496h-1.295V50.459z"/>
	<path fill="#FFFFFF" d="M37.555,52.443c0,2.333-0.848,3.359-1.9,3.359c-1.413,0-1.891-1.625-1.891-3.297   c0-1.868,0.596-3.359,1.939-3.359C37.212,49.146,37.555,50.897,37.555,52.443z M35.078,52.475   c-0.016,1.521,0.171,2.207,0.615,2.207c0.4,0,0.547-0.719,0.547-2.207c0-1.395-0.131-2.208-0.55-2.208   C35.28,50.267,35.07,50.97,35.078,52.475z"/>
</g>
<g id="Des">
	<rect width="60" x="0" fill="none" height="14.525" y="31.722"/>
	<path fill="#FFFFFF" d="M7.44,45.212V33.076h1.778l2.029,5.18c0.43,1.101,1.038,2.678,1.414,3.847h0.036   c-0.095-1.557-0.208-3.427-0.208-5.598v-3.429h1.702v12.136h-1.778l-2.05-5.166c-0.448-1.114-0.983-2.577-1.331-3.857H8.996   c0.085,1.401,0.146,3.123,0.146,5.632v3.392H7.44z"/>
	<path fill="#FFFFFF" d="M22.008,40.809c0,3.535-1.822,4.548-3.154,4.548c-1.859,0-3.127-1.556-3.127-4.507   c0-3.166,1.555-4.547,3.192-4.547C20.757,36.303,22.008,37.919,22.008,40.809z M17.643,40.819c0,1.476,0.25,3.053,1.272,3.053   c0.957,0,1.175-1.73,1.175-3.053c0-1.271-0.219-3.033-1.211-3.033C17.852,37.786,17.643,39.548,17.643,40.819z"/>
	<path fill="#FFFFFF" d="M25.743,34.099v2.348h1.7v1.394h-1.7v4.546c0,1.073,0.417,1.346,0.898,1.346   c0.226,0,0.406-0.018,0.594-0.054l0.039,1.496c-0.29,0.09-0.711,0.146-1.256,0.146c-0.622,0-1.169-0.154-1.552-0.546   c-0.424-0.432-0.645-1.066-0.645-2.369V37.84h-1.05v-1.394h1.05v-1.857L25.743,34.099z"/>
	<path fill="#FFFFFF" d="M30.891,34.099v2.348h1.7v1.394h-1.7v4.546c0,1.073,0.417,1.346,0.897,1.346   c0.227,0,0.406-0.018,0.594-0.054l0.039,1.496c-0.29,0.09-0.711,0.146-1.256,0.146c-0.622,0-1.169-0.154-1.552-0.546   c-0.424-0.432-0.645-1.066-0.645-2.369V37.84h-1.05v-1.394h1.05v-1.857L30.891,34.099z"/>
	<path fill="#FFFFFF" d="M35.453,45.212v-4.864l-2.673-7.271h2.048l0.938,2.959c0.26,0.811,0.533,1.739,0.755,2.65h0.035   c0.193-0.901,0.446-1.804,0.712-2.704l0.855-2.905h1.996l-2.744,7.195v4.94H35.453z"/>
	<path fill="#FFFFFF" d="M41.569,41.346c0.021,1.958,0.93,2.491,1.953,2.491c0.641,0,1.183-0.145,1.573-0.312l0.272,1.383   c-0.547,0.258-1.393,0.412-2.194,0.412c-2.26,0-3.473-1.64-3.473-4.353c0-2.901,1.391-4.665,3.262-4.665   c1.844,0,2.772,1.666,2.772,4.016c0,0.5-0.021,0.796-0.051,1.027H41.569z M43.955,39.978c0.015-1.407-0.447-2.243-1.129-2.243   c-0.834,0-1.21,1.215-1.249,2.243H43.955z"/>
	<path fill="#FFFFFF" d="M53.075,40.809c0,3.535-1.821,4.548-3.154,4.548c-1.859,0-3.128-1.556-3.128-4.507   c0-3.166,1.556-4.547,3.192-4.547C51.825,36.303,53.075,37.919,53.075,40.809z M48.71,40.819c0,1.476,0.25,3.053,1.272,3.053   c0.957,0,1.176-1.73,1.176-3.053c0-1.271-0.219-3.033-1.211-3.033C48.919,37.786,48.71,39.548,48.71,40.819z"/>
</g>
<g>
</g>
<g>
</g>
<g>
</g>
<g>
</g>
<g>
</g>
<g>
</g>
</svg>