<svg width="60" height="60" xmlns="http://www.w3.org/2000/svg" viewBox="0 0 60 60">
  <rect fill="#fff" height="60" width="60"/>
  <g>
    <g>
      <path fill="#cc1f36" d="M35.911,32.225l.07-.147v0a.9.9,0,0,0,0-.131c0-.084,0-.173,0-.266l0-.193c0-.036,0-.076,0-.122a1.3,1.3,0,0,0-.023-.2c-.007-.011-.015-.027-.026-.046l-.049-.095c-.022-.045-.04-.077-.053-.1s-.025-.041-.038-.061-.029-.046-.047-.076l-.028-.047-.028-.056a1.383,1.383,0,0,1-.059-.159c-.022-.069-.041-.121-.056-.155a.482.482,0,0,0-.033-.07l-.017-.026-.027-.03a.488.488,0,0,0-.046-.044c-.017-.015-.036-.03-.056-.045l-.049-.038-.049-.042A.82.82,0,0,1,35.211,30c-.03-.031-.049-.052-.058-.062l-.013-.016-.018-.028c-.011-.018-.022-.039-.033-.061l-.019-.043-.012-.025a.492.492,0,0,1-.021-.047l-.013-.032,0-.023a.156.156,0,0,1,0-.037.183.183,0,0,1,.009-.043c.006-.018.012-.033.017-.045l.016-.03.014-.028.015-.037.021-.056a.768.768,0,0,0,.022-.11,1.012,1.012,0,0,0,.013-.131q0-.057.009-.165c0-.072.011-.128.017-.169l.014-.091.03-.15a2.571,2.571,0,0,1,.081-.285c.037-.109.067-.188.089-.238s.046-.1.07-.147l.045-.087c.005-.01.015-.026.03-.05s.029-.046.043-.066.03-.044.047-.067.034-.046.051-.068.045-.054.082-.1.068-.075.091-.1.051-.047.086-.075L36,27.236a.807.807,0,0,1,.079-.051.8.8,0,0,1,.1-.054.522.522,0,0,1,.059-.024l.056-.017a.549.549,0,0,1,.067-.017l.058-.01.04,0c.009,0,.045,0,.107-.008s.109,0,.14,0,.061,0,.09,0l.061.008.049.01.072.016.067.016.044.013.079.019.1.024c.028.007.052.015.072.022l.036.013.038.015.04.016a.23.23,0,0,1,.044.021.727.727,0,0,1,.064.037l.054.034.059.041.061.043.04.028.026.02.016.013.046.037a1.426,1.426,0,0,1,.106.1c.043.043.074.077.095.1a.883.883,0,0,1,.06.083.809.809,0,0,1,.05.09c.014.03.031.068.049.114l.055.135c.019.044.033.08.043.107l.023.06c.005.013.013.035.023.066s.019.06.027.089l.02.074c.005.02.011.048.019.085s.012.062.015.074.005.036.01.071.009.082.013.143l.009.137c0,.031,0,.059.007.086s.009.056.016.091.013.064.018.087.011.041.015.054l.012.033c0,.01.009.024.015.043l.011.032a.2.2,0,0,1,.011.036.43.43,0,0,1,.012.058.391.391,0,0,1,0,.062.216.216,0,0,1-.006.057l-.015.052c-.006.021-.014.044-.022.068s-.018.046-.025.065-.016.036-.024.052l-.017.036a1.063,1.063,0,0,1-.069.093c-.042.055-.075.1-.1.127s-.04.053-.052.072a.53.53,0,0,0-.033.057l-.026.055c-.007.015-.017.043-.03.082s-.024.077-.035.116l-.019.068-.014.045-.019.058-.022.068-.023.066q-.008.022-.021.072a1.172,1.172,0,0,0-.028.121,1.1,1.1,0,0,0-.019.12.737.737,0,0,0,0,.094.414.414,0,0,0,.01.074.518.518,0,0,0,.017.056.555.555,0,0,0,.03.069l.036.069.016.029.027.036c.017.024.031.041.042.054l.038.039.032.029a.446.446,0,0,0,.041.034l.041.034.013.01.04.034a1.019,1.019,0,0,1,.075.073l.055.066a.478.478,0,0,1,.031.048c.009.015.022.037.038.068a.714.714,0,0,1,.035.082.516.516,0,0,1,.022.078.847.847,0,0,1,.013.09c0,.031,0,.053,0,.067l0,.031c0,.007,0,.068-.009.184s-.021.253-.045.412-.057.319-.1.48-.075.283-.1.369-.05.151-.066.2-.033.09-.051.132-.044.1-.08.163a1.006,1.006,0,0,1-.128.184.94.94,0,0,1-.137.13,1.169,1.169,0,0,1-.149.092c-.056.03-.1.053-.139.069a1.407,1.407,0,0,1-.41.1,1.367,1.367,0,0,1-.329-.01,2.518,2.518,0,0,1-.28-.051q-.1-.029-.213-.066a1.511,1.511,0,0,1-.2-.087.806.806,0,0,1-.152-.1.725.725,0,0,1-.126-.155,1.176,1.176,0,0,1-.114-.233,2.006,2.006,0,0,1-.09-.353c-.027-.146-.045-.259-.055-.338a2.266,2.266,0,0,1-.015-.257c0-.093,0-.167.008-.223a2.573,2.573,0,0,1,.048-.26c.026-.117.064-.253.113-.409A1.71,1.71,0,0,0,35.911,32.225Z" fill-rule="evenodd"/>
      <path fill="#cc1f36" d="M35.911,32.225c.01-.011.077-.136.2-.374,0,0,.009-.035.028-.1" fill-rule="evenodd"/>
      <path fill="#cc1f36" d="M36.14,31.754a1.2,1.2,0,0,1-.108.148,1.061,1.061,0,0,1-.112.124.53.53,0,0,1-.08.059.358.358,0,0,1-.073.037c-.023.008-.044.015-.064.02l-.078.016c-.032,0-.089.02-.173.044s-.168.05-.253.078-.148.048-.19.064l-.226.083c-.108.039-.2.069-.272.091l-.2.055c-.056.016-.12.035-.19.06a1.5,1.5,0,0,0-.153.058c-.031.015-.071.037-.118.066a1.841,1.841,0,0,0-.2.152,2.393,2.393,0,0,0-.185.172,1.3,1.3,0,0,0-.1.12c-.027.037-.06.083-.1.139s-.1.136-.192.241-.175.2-.258.279-.163.152-.237.212-.163.138-.27.236-.188.178-.246.238-.112.117-.159.171-.112.135-.193.245-.161.22-.237.332l-.183.264c-.045.065-.079.114-.1.148s-.04.064-.054.089a1.173,1.173,0,0,0-.092.241.758.758,0,0,0-.02.1l-.007.045a.542.542,0,0,0,0,.071c0,.038,0,.073.007.1s.009.072.015.121l.016.133c0,.04.007.069.007.087s0,.034,0,.049v.048c0,.017,0,.052,0,.105a.84.84,0,0,0,.008.128c0,.031.012.062.02.094a.646.646,0,0,0,.031.088.547.547,0,0,0,.05.088.781.781,0,0,0,.067.088.756.756,0,0,0,.085.085c.033.03.062.054.087.075a1.424,1.424,0,0,1,.13.136l.1.107.019.035c.011.022.023.047.034.074l.02.05c0,.006.01.028.022.067a1.111,1.111,0,0,1,.027.111c.007.035.016.081.028.139s.021.1.026.138.014.092.024.172.02.14.026.179l.014.082a.5.5,0,0,0,.014.055c.006.02.013.041.021.064a.521.521,0,0,0,.025.06.208.208,0,0,0,.035.048.265.265,0,0,0,.042.037.2.2,0,0,0,.038.02.235.235,0,0,0,.048.01l.037.005a.558.558,0,0,0,.1-.035.731.731,0,0,0,.137-.072,2.354,2.354,0,0,0,.188-.163l.178-.165.091-.086c.034-.032.065-.059.092-.083s.049-.04.064-.052.055-.039.12-.081a1.221,1.221,0,0,1,.151-.089.816.816,0,0,1,.141-.048.689.689,0,0,1,.137-.027.311.311,0,0,1,.083,0,.653.653,0,0,1,.109.038.574.574,0,0,1,.113.058.643.643,0,0,1,.1.09l.066.072s.019.036.047.095.05.113.069.163.032.1.042.133a1.323,1.323,0,0,1,.027.147,1.558,1.558,0,0,1,.009.231,2.06,2.06,0,0,1-.021.261q-.017.12-.033.2c-.01.05-.019.1-.028.154s-.016.113-.021.182-.008.118-.01.146-.006.058-.01.09-.011.078-.021.137-.019.114-.027.166l-.021.12c-.006.029-.013.057-.021.086a1.257,1.257,0,0,1-.048.128l-.078.193c-.029.071-.051.13-.065.176s-.032.108-.054.189-.041.152-.056.216-.024.106-.027.127-.007.06-.013.118-.01.1-.011.13a.848.848,0,0,0,0,.1.385.385,0,0,0,.013.093q.01.038.024.075c.009.026.02.063.033.113a.729.729,0,0,1,.025.119.564.564,0,0,1,.006.069.264.264,0,0,1,0,.055.522.522,0,0,1-.011.063c-.006.023-.012.042-.018.059a.411.411,0,0,1-.037.072l-.032.055-.014.021c-.007.01-.027.049-.061.117a1.192,1.192,0,0,0-.072.171.717.717,0,0,0-.023.185,1.431,1.431,0,0,0,.013.235c.011.079.021.138.03.178s.019.076.029.108.02.086.033.159a1.374,1.374,0,0,1,.02.162.8.8,0,0,1-.017.151,1.222,1.222,0,0,1-.049.183l-.04.113q-.009.027-.012.039l-.019.07a1.2,1.2,0,0,0-.022.218c-.005.106-.006.193,0,.26s.007.143.013.225.012.146.016.189a1.3,1.3,0,0,1,0,.143c0,.053,0,.09,0,.112s0,.049,0,.08,0,.076,0,.135,0,.122,0,.189-.005.128-.01.184-.013.11-.02.159-.016.087-.023.116-.012.049-.015.059-.009.031-.017.063-.017.062-.025.088l-.027.089c-.009.033-.018.066-.025.1s-.015.073-.022.117l-.014.089-.012.075a1.241,1.241,0,0,0-.013.134c0,.055-.006.1-.009.13s-.007.058-.011.081l-.009.044a.334.334,0,0,0,0,.039.261.261,0,0,1,0,.037s0,.031,0,.077a.7.7,0,0,0,0,.117,1.14,1.14,0,0,0,.037.146,1.178,1.178,0,0,0,.072.188,1.209,1.209,0,0,0,.141.217,2.33,2.33,0,0,0,.175.2c.051.051.1.095.137.134a.847.847,0,0,0,.144.109.619.619,0,0,0,.166.074.829.829,0,0,0,.127.025.474.474,0,0,0,.1-.005.564.564,0,0,0,.1-.022.9.9,0,0,0,.172-.106,2.244,2.244,0,0,0,.221-.177c.062-.057.114-.11.157-.158s.077-.088.1-.121l.042-.053s.028-.042.075-.115.079-.129.1-.165a.81.81,0,0,0,.05-.116c.015-.041.027-.076.035-.107s.017-.06.023-.087l.016-.071.028-.119a1.525,1.525,0,0,0,.032-.222,2.29,2.29,0,0,0,.007-.243c0-.074,0-.182.006-.323s.018-.273.033-.4.028-.222.038-.293.019-.141.027-.213.015-.158.024-.259.017-.18.025-.24.018-.128.029-.2.017-.175.021-.3.01-.231.019-.33.022-.194.038-.286.032-.178.045-.26.034-.213.061-.394.05-.319.066-.41.029-.166.038-.221.016-.13.023-.225.018-.192.033-.293a2.19,2.19,0,0,1,.047-.232c.016-.055.044-.134.084-.239s.08-.2.118-.286.092-.2.16-.334.157-.294.265-.472.192-.314.252-.409.107-.172.143-.228l.182-.287c.085-.136.155-.251.21-.346A2.676,2.676,0,0,0,37.6,39.6a2.788,2.788,0,0,0,.1-.263c.018-.059.037-.134.057-.223s.034-.153.042-.191.014-.069.018-.093.013-.078.026-.158.025-.169.035-.267" fill-rule="evenodd"/>
      <path fill="#cc1f36" d="M44.334,32.25l.036-.019a.634.634,0,0,0,.061-.035l.045-.027a.44.44,0,0,1,.085-.026l.023,0h.022l.024,0a.186.186,0,0,0,.047-.018.249.249,0,0,0,.032-.018l.011-.012.023-.03.027-.034a.949.949,0,0,1,.1-.023.268.268,0,0,0,.054,0l.035,0L44.98,32l.012-.006.014-.012.012-.011.012-.013.014-.013.007-.006.015-.008.016-.007.022-.006.025-.005.029-.006.057-.015.069-.023a.531.531,0,0,0,.049-.022l.024-.014a.15.15,0,0,0,.023-.019.237.237,0,0,0,.027-.028l.016-.019,0-.008.005-.019a.148.148,0,0,0,0-.026l0-.022a.2.2,0,0,0-.012-.042A.316.316,0,0,0,45.4,31.6l-.014-.024-.027-.034a.319.319,0,0,0-.039-.041l-.023-.016-.013-.005a.078.078,0,0,0-.023,0l-.03,0-.037.011a.515.515,0,0,0-.055.024l-.056.03-.04.021-.04.017-.044.017-.027.009-.028.007h-.03l-.015,0-.017,0-.019.009-.017.007-.013.01-.017.02-.011.014-.012.016a.089.089,0,0,1-.021.022l-.011.01-.031.014h-.013l-.027,0a.131.131,0,0,0-.028,0l-.03.007-.028.01-.019.011-.018.014-.027.026a.428.428,0,0,1-.033.029c-.01.009-.023.018-.037.029l-.031.021-.047.025a.885.885,0,0,1-.082.038l-.1.04-.085.034q-.029.012-.117.039l-.095.029-.017,0a.092.092,0,0,1-.025-.01l-.019-.012-.011-.008a.214.214,0,0,1-.025-.028c-.013-.016-.023-.03-.031-.041l-.018-.025-.016-.018-.025-.025-.02-.019-.021-.016a.174.174,0,0,0-.041-.021l-.026-.01-.017,0-.027-.005-.023,0a.315.315,0,0,0-.046.006l-.041.007-.022.011a.439.439,0,0,0-.041.028l-.04.026a.244.244,0,0,1-.034.019.148.148,0,0,1-.058.012s-.012-.01-.024-.028a.336.336,0,0,1-.029-.047.238.238,0,0,0-.031-.048.224.224,0,0,0-.053-.048.349.349,0,0,0-.123-.036l-.022.017-.024.023-.023.026c-.01.011-.018.021-.024.029l-.013.02-.006.014-.006.02c0,.01,0,.023-.006.038l-.006.044-.008.042-.006.025-.008.025a.361.361,0,0,1-.016.042l-.011.022-.007.01-.016.022-.034.035a.559.559,0,0,1-.052.045l-.042.031-.047.027-.058.029-.1.048-.118.055-.079.037-.107.05c-.046.022-.091.042-.137.062l-.172.075-.156.07-.072.033-.048.022-.11.051c-.055.025-.1.046-.138.065s-.1.049-.179.092l-.158.08-.065.025-.041.011-.019,0h-.015l-.017,0-.018-.006-.025-.013-.018-.01-.021-.018a.354.354,0,0,1-.044-.05c-.017-.022-.03-.039-.037-.05l-.024-.037L40.6,32.9l-.011-.014-.018-.02-.013-.013-.012-.013-.011-.01-.017-.013-.027-.021-.015-.012-.009-.009-.017-.019-.023-.025-.018-.018-.008-.009a.148.148,0,0,0-.023-.019.185.185,0,0,0-.034-.023l-.026-.016-.02-.013-.045-.025-.055-.029-.033-.018-.057-.028-.081-.039a.463.463,0,0,1-.074-.042.567.567,0,0,1-.057-.04l-.059-.038-.045-.028-.008,0-.074-.033a1.046,1.046,0,0,0-.131-.049l-.112-.033c-.036-.01-.067-.02-.091-.029a.674.674,0,0,1-.088-.042c-.034-.018-.06-.033-.078-.044l-.039-.023-.056-.032-.055-.031c-.008-.005-.024-.012-.048-.023s-.044-.02-.063-.027l-.046-.02-.042-.02c-.016-.008-.035-.017-.056-.029s-.043-.023-.064-.036l-.056-.036-.057-.037-.042-.027-.035-.022-.038-.022-.029-.015-.027-.014-.046-.023c-.024-.012-.046-.023-.067-.032s-.044-.018-.067-.027l-.045-.014-.018,0a.153.153,0,0,0-.031,0,.2.2,0,0,0-.063.016.227.227,0,0,0-.058.027.233.233,0,0,0-.035.027.318.318,0,0,0-.035.037.329.329,0,0,0-.044.071.413.413,0,0,0-.033.08c-.006.022-.013.057-.021.107s-.015.09-.021.117-.01.048-.013.059-.014.048-.035.11-.041.117-.059.166a1.388,1.388,0,0,0-.048.169c-.014.063-.024.118-.03.164s-.009.08-.011.1l0,.05,0,.038,0,.07c0,.032,0,.075,0,.128a1.407,1.407,0,0,0,.009.15c.006.047.014.105.026.174s.021.126.029.172.014.077.016.1.005.036.006.05l0,.032,0,.044q0,.034,0,.117c0,.055,0,.1.008.124s.006.054.01.08l.014.08.01.065q0,.023.015.12c.008.065.019.132.034.2s.027.12.035.153a.8.8,0,0,1,.018.081l.008.046.005.031,0,.022,0,.012s0,0,.012,0a.094.094,0,0,0,.024-.013" fill-rule="evenodd"/>
      <path fill="#cc1f36" d="M44.062,32.31c-.007,0-.032.015-.074.032a.94.94,0,0,0-.132.069c-.046.03-.081.053-.1.071l-.054.042-.1.069c-.051.036-.094.068-.13.1s-.067.053-.092.076l-.073.061-.052.041-.042.03c-.016.012-.03.021-.044.03l-.052.031-.057.035-.066.041-.058.038-.04.025-.041.027-.069.041c-.033.02-.059.034-.078.044l-.05.027-.1.054-.117.065-.079.045-.061.035c-.016.009-.048.027-.1.052l-.145.08c-.048.027-.112.059-.191.1s-.149.07-.211.1-.11.046-.143.062-.058.027-.073.035l-.044.026-.047.034a.356.356,0,0,0-.06.067.5.5,0,0,0-.042.065l-.01.027a.285.285,0,0,0-.01.053c0,.028-.007.051-.009.067s0,.038,0,.062v.053l0,.037c0,.013,0,.03,0,.053s0,.041,0,.056,0,.038.005.067.009.075.017.137.014.111.019.145.009.061.012.079l.012.076c0,.032.01.064.016.095s.01.058.014.081.005.04.006.053l0,.031v.092a1.121,1.121,0,0,0,.007.125c0,.045.008.079.011.1s.009.056.018.1.017.086.025.132.015.087.02.123.009.073.013.113l.013.138q.007.079.012.141c0,.041.006.073.008.1s.005.058.009.108.005.087.006.11,0,.047,0,.073,0,.049,0,.072,0,.052-.006.087-.007.066-.011.093-.007.05-.011.067-.007.037-.013.06a.452.452,0,0,1-.015.055.558.558,0,0,1-.021.059c-.009.025-.02.051-.032.078s-.033.066-.062.117-.046.079-.051.086l-.023.03-.036.043-.032.033-.034.03a.773.773,0,0,1-.086.061.958.958,0,0,1-.131.075c-.044.021-.079.037-.1.047l-.054.023-.068.024-.074.023a.369.369,0,0,1-.045.011l-.048.01c-.018,0-.038.006-.06.009l-.069.005h-.064l-.048,0-.04-.009-.034-.013a.3.3,0,0,1-.037-.021l-.069-.049c-.032-.024-.057-.041-.075-.052l-.033-.02-.035-.019a.332.332,0,0,0-.047-.021l-.039-.01a.3.3,0,0,0-.042-.006.42.42,0,0,0-.049,0l-.058.006-.048.009-.025.006-.065.019a1.291,1.291,0,0,0-.128.049c-.047.021-.107.05-.181.087s-.15.074-.231.112-.146.07-.2.092-.091.041-.126.055l-.15.063a1.774,1.774,0,0,1-.2.067,1.442,1.442,0,0,1-.166.039c-.043.008-.089.013-.136.017a1.486,1.486,0,0,1-.152,0c-.054,0-.1,0-.132-.008a.884.884,0,0,1-.114-.023c-.042-.012-.076-.023-.1-.033a.871.871,0,0,1-.14-.088c-.068-.049-.122-.091-.163-.127a1.337,1.337,0,0,1-.136-.141,2.389,2.389,0,0,1-.163-.217l-.132-.2a1.486,1.486,0,0,1-.079-.142c-.024-.05-.043-.09-.055-.12l-.031-.073a1.059,1.059,0,0,1-.036-.138c-.017-.074-.031-.135-.044-.185s-.024-.087-.031-.11l-.04-.114c-.018-.053-.034-.1-.047-.141s-.039-.109-.077-.2-.068-.168-.088-.215-.041-.1-.062-.157-.036-.1-.044-.126-.016-.054-.022-.08l-.018-.081c-.007-.028-.012-.049-.016-.063l-.011-.044-.016-.055-.011-.035,0-.016-.006-.032-.008-.041-.008-.047-.006-.045,0-.03,0,.005" fill-rule="evenodd"/>
      <path fill="#cc1f36" d="M40.028,37.442v.016a.5.5,0,0,1-.008.072c0,.036-.008.076-.01.12l0,.1c0,.02,0,.048-.007.085a1.257,1.257,0,0,0-.006.133,1.051,1.051,0,0,0,.018.18,1.67,1.67,0,0,0,.055.219c.025.078.046.14.064.186s.033.089.046.13.028.083.043.128.032.1.05.165.04.156.063.274.044.23.063.337l.043.241.03.164c.01.057.02.117.032.18l.036.2c.012.074.021.131.026.171s.01.076.013.109l.009.1c0,.032.007.082.015.149s.016.139.029.214.022.133.028.172.009.066.011.082l0,.035,0,.035c0,.015,0,.03,0,.045s0,.038-.005.069a.32.32,0,0,1-.011.064l-.008.024-.009.015-.007.012a.316.316,0,0,1-.038.033c-.025.02-.045.036-.061.047l-.07.051c-.031.022-.05.036-.055.041l-.023.02a.256.256,0,0,0-.034.04l0,.01.009.014a.269.269,0,0,0,.047.03c.028.016.055.03.082.043s.052.023.076.032a.816.816,0,0,0,.079.024l.077.018.042.009.036.007.05.011a.639.639,0,0,1,.072.025.332.332,0,0,1,.095.058.346.346,0,0,1,.061.064c.012.019.02.032.024.04l.01.023.005.023,0,.027c0,.01,0,.02,0,.03a.315.315,0,0,1,0,.037.464.464,0,0,1-.035.088c-.02.045-.039.085-.056.121S41,42.7,41,42.717s-.021.055-.038.1l-.044.129-.047.138c-.019.054-.034.1-.047.129s-.035.091-.069.176-.059.152-.077.2-.031.085-.039.108-.018.054-.031.1-.024.086-.034.129a.951.951,0,0,0-.021.138,1.227,1.227,0,0,0,0,.16c.005.058.008.112.009.164a.783.783,0,0,1-.005.126.5.5,0,0,1-.013.076c0,.017-.011.038-.019.062s-.021.057-.038.1-.039.091-.067.152l-.064.138c-.015.031-.032.067-.052.106a.729.729,0,0,1-.058.1.654.654,0,0,1-.044.056l-.045.05a1.008,1.008,0,0,1-.073.072l-.066.061c-.015.013-.027.026-.038.037a.629.629,0,0,0-.04.056.541.541,0,0,0-.045.1.416.416,0,0,0-.023.089.258.258,0,0,0,0,.068.357.357,0,0,0,.029.088c.016.034.029.061.039.079a.5.5,0,0,1,.033.074.773.773,0,0,1,.026.076.644.644,0,0,1,.014.089c0,.04,0,.087,0,.142a1.169,1.169,0,0,1-.011.138c-.006.038-.016.089-.032.153s-.032.133-.046.207a1.843,1.843,0,0,0-.03.186c-.005.051-.007.1-.007.139a.948.948,0,0,0,.027.233c.009.043.02.09.031.142a1.052,1.052,0,0,1,.021.151,1.124,1.124,0,0,1,0,.129l0,.085c0,.019,0,.038,0,.056v.046l.006.041a.462.462,0,0,0,.02.081c.011.034.02.065.028.092s.014.05.018.069l.009.046a.652.652,0,0,1,.007.068c0,.033,0,.059,0,.077v.1c0,.048,0,.1,0,.159s0,.1,0,.125,0,.051-.005.076a1.057,1.057,0,0,1-.028.13l-.032.129a.668.668,0,0,0-.013.09.639.639,0,0,0,0,.1c0,.032.007.058.01.079A.616.616,0,0,1,40,49.57a.426.426,0,0,1,0,.059.348.348,0,0,1-.01.064.419.419,0,0,1-.038.092c-.019.033-.036.061-.052.084a.6.6,0,0,1-.123.123.6.6,0,0,1-.062.037.887.887,0,0,1-.219.083c-.052.013-.093.022-.122.027a.571.571,0,0,1-.109.008c-.042,0-.079,0-.111,0s-.059,0-.08,0h-.161l-.054,0-.032,0-.056,0-.1,0-.089-.007c-.025,0-.059,0-.1-.007l-.128-.008c-.045,0-.09,0-.135,0h-.162a.281.281,0,0,1-.045,0l-.03,0-.02-.005-.024-.01-.023-.012-.02-.014c-.008-.006-.019-.016-.035-.031a.244.244,0,0,1-.04-.05.513.513,0,0,1-.027-.05L37.78,49.9l-.013-.037-.024-.065-.028-.068-.023-.056a.193.193,0,0,1-.011-.034l-.006-.028v-.034l.008-.029a.572.572,0,0,1,.03-.076c.015-.032.032-.065.051-.1s.044-.081.074-.14.061-.128.092-.207.055-.143.073-.194.029-.089.037-.119.015-.06.021-.091.011-.053.013-.065l.006-.038c0-.013.007-.043.016-.091s.016-.086.022-.114.016-.084.028-.169.021-.158.026-.219l.013-.147c0-.036.006-.081.01-.137s.008-.147.014-.275.01-.261.014-.4.007-.25.01-.331.006-.191.011-.331.009-.255.012-.345l.009-.281c0-.1.006-.182.008-.254s0-.149,0-.233,0-.165,0-.24,0-.145,0-.208-.005-.12-.008-.17-.007-.112-.014-.187-.014-.144-.022-.206L38.2,43.92c-.014-.108-.028-.209-.041-.3s-.026-.178-.038-.251l-.033-.186-.02-.117-.019-.112c-.009-.049-.019-.112-.033-.189s-.032-.191-.053-.342-.038-.264-.047-.34-.019-.151-.029-.226-.015-.133-.019-.171-.012-.108-.021-.209-.02-.19-.03-.264-.022-.153-.034-.237l-.027-.191c-.006-.043-.021-.131-.046-.264s-.044-.232-.058-.3l-.048-.233q-.027-.133-.042-.2l-.047-.221q-.033-.157-.051-.273t-.03-.2l-.021-.155-.015-.117c0-.032-.007-.085-.011-.158s-.006-.129-.006-.168,0-.083,0-.132,0-.1.006-.14a.955.955,0,0,1,.02-.141c.01-.05.021-.091.03-.124l.044-.149c.02-.068.036-.13.049-.188a.6.6,0,0,0,.017-.106.115.115,0,0,0-.006-.037l0-.016" fill-rule="evenodd"/>
      <path fill="#cc1f36" d="M39.616,50.075l-.024.146c-.007.042-.016.094-.027.157s-.021.113-.028.151-.016.083-.027.137a1.265,1.265,0,0,1-.045.165q-.029.082-.045.135c-.012.035-.024.081-.038.137s-.025.1-.032.143a1.156,1.156,0,0,0-.017.118c0,.039-.006.081-.009.124s0,.077-.006.1a.579.579,0,0,0,0,.061c0,.019.007.047.014.084l-.012.032a.391.391,0,0,1-.023.046.166.166,0,0,1-.022.031l-.016.018-.009.016-.006.012s0,.017,0,.049a.3.3,0,0,0,.005.078.227.227,0,0,0,.019.054.234.234,0,0,0,.033.049.317.317,0,0,0,.034.036l.019.017.021.021a.289.289,0,0,1,.021.028.09.09,0,0,1,.013.026l.01.028a.169.169,0,0,1,0,.035.267.267,0,0,1,0,.04l0,.062a.594.594,0,0,0,0,.067.158.158,0,0,0,.02.053.3.3,0,0,0,.033.046l.024.028.021.025c.008.011.02.028.036.053a.557.557,0,0,1,.043.08.627.627,0,0,1,.027.073c.006.021.011.037.013.048s0,.025,0,.039,0,.03,0,.05v.053a.221.221,0,0,0,0,.039l0,.024,0,.009,0,.01.009.016.016.02.027.032.028.031.047.05c.024.026.043.046.058.06l.025.025.025.023a.536.536,0,0,1,.043.04l.033.034.025.029.016.018.02.022.043.042.035.035.022.019a.438.438,0,0,1,.034.033.408.408,0,0,1,.034.04l.017.023.028.047a.543.543,0,0,1,.042.09,1.2,1.2,0,0,1,.035.12,1.176,1.176,0,0,1,.021.123c0,.037.005.088.005.152s0,.107,0,.128v.07a.565.565,0,0,1,0,.059c0,.013,0,.031-.007.054a.554.554,0,0,1-.021.079c-.01.029-.019.051-.026.067a.352.352,0,0,1-.024.04.193.193,0,0,1-.02.024l-.021.019-.025.018-.034.02-.03.017-.024.009-.036.01-.045.01-.047.006-.03,0h-.284c-.059,0-.1,0-.115,0l-.05,0-.069,0-.065-.005-.038-.005-.06-.012c-.028-.006-.057-.013-.088-.022s-.062-.02-.094-.031l-.078-.029-.057-.021-.095-.034-.086-.032-.039-.017a.478.478,0,0,1-.045-.023.392.392,0,0,1-.042-.024.358.358,0,0,1-.041-.027c-.015-.011-.033-.026-.055-.045l-.056-.047-.051-.041c-.018-.014-.04-.03-.063-.045l-.051-.033-.032-.019-.053-.033c-.024-.015-.043-.028-.058-.039l-.041-.032-.023-.018-.039-.03-.058-.047-.044-.041-.043-.046-.033-.039-.026-.031-.021-.03-.008-.013-.007-.015a.289.289,0,0,1,0-.086.611.611,0,0,1,.013-.121l.018-.072.012-.045c0-.014.013-.04.026-.079s.025-.075.036-.111a1.376,1.376,0,0,0,.035-.136c.012-.055.021-.1.026-.13a1,1,0,0,0,.014-.12c0-.047,0-.076,0-.084s0-.023,0-.042,0-.053-.007-.1,0-.089,0-.117a.515.515,0,0,1,0-.058l0-.024.005-.016,0-.014.009-.02.008-.021.005-.018a.332.332,0,0,0,0-.051V52.4a.312.312,0,0,1,0-.044.22.22,0,0,1,.007-.037l.008-.025.006-.013.008-.015.007-.015,0-.018a.142.142,0,0,0,0-.033.342.342,0,0,0,0-.045l0-.038,0-.025,0-.026,0-.021a.149.149,0,0,1,0-.024.307.307,0,0,1,.006-.051.355.355,0,0,1,.012-.051.2.2,0,0,1,.014-.035l.014-.03.008-.018a.233.233,0,0,0,.008-.041.348.348,0,0,0,0-.074.444.444,0,0,0-.007-.065l-.007-.033-.005-.016-.007-.02-.009-.032-.006-.035-.005-.034,0-.018L38.1,51.41c-.006-.036-.011-.067-.014-.092s-.005-.043-.006-.056a.271.271,0,0,1,0-.029l0-.042.007-.081c0-.031,0-.055,0-.07a.469.469,0,0,0,0-.058q-.006-.034-.012-.057a.429.429,0,0,0-.016-.043l-.014-.021s-.008-.018-.017-.042a.565.565,0,0,1-.026-.082.575.575,0,0,1-.015-.084.538.538,0,0,1,0-.061c0-.015,0-.05,0-.1s0-.112,0-.174,0-.11-.006-.145l0-.1,0-.1c0-.034,0-.062,0-.085s0-.055,0-.1.005-.078.009-.1A.634.634,0,0,1,38,49.6c.007-.025.012-.045.017-.06l.012-.032.008-.021.012-.025.011-.026.012-.032.013-.047.01-.044,0-.016" fill-rule="evenodd"/>
      <path fill="#cc1f36" d="M35.293,48.3l.024.012a.12.12,0,0,1,.026.018l.025.024a.541.541,0,0,1,.044.054c.02.028.037.053.052.076l.041.069a.612.612,0,0,1,.042.085c.014.033.023.059.028.075s.007.032.009.045l0,.037v.021l0,.052a.62.62,0,0,1-.013.087.847.847,0,0,1-.029.093c-.013.036-.024.064-.034.085l-.023.05-.016.036-.025.055a.6.6,0,0,0-.03.076c-.009.025-.017.055-.026.091l-.03.121c-.011.044-.02.078-.026.1l-.018.064q-.009.03-.024.087t-.024.111c-.006.036-.011.071-.014.106s-.006.08-.012.135-.01.1-.016.136a.7.7,0,0,1-.031.122c-.016.045-.028.079-.038.1l-.032.075a1.065,1.065,0,0,1-.048.1c-.021.039-.042.076-.064.109s-.041.061-.057.082l-.067.09c-.029.038-.051.068-.067.091s-.029.044-.04.065a.478.478,0,0,0-.023.046l-.013.033-.008.028c0,.007-.009.036-.019.086s-.022.1-.035.161l-.028.12c-.005.023-.013.062-.023.116s-.021.105-.028.151-.014.082-.018.108l-.011.068c0,.018-.009.047-.017.087s-.016.072-.021.1l-.014.061-.019.081c-.009.039-.017.077-.024.117a.825.825,0,0,0-.015.1c0,.024,0,.077,0,.159s.006.148.009.2.008.107.013.162.011.1.016.134.009.065.014.087l.011.059c0,.017.008.038.014.063s.012.047.018.068.013.046.023.075.02.062.034.1.024.069.031.091.016.072.028.147.024.147.034.215.017.115.022.144l.018.085a.685.685,0,0,1,.014.083.417.417,0,0,1,0,.068.381.381,0,0,1-.005.04l-.009.026-.012.026-.012.018a.4.4,0,0,1-.027.033.376.376,0,0,1-.082.063.748.748,0,0,1-.068.043l-.042.016a.535.535,0,0,1-.084.025l-.076.015-.049,0-.03,0h-.056l-.092,0-.068,0h-.067c-.028,0-.056,0-.083.005l-.061.007-.041.008a.277.277,0,0,0-.041.012.339.339,0,0,0-.032.015.2.2,0,0,0-.033.025l-.034.031-.022.021-.025.024-.034.033-.039.037-.037.035-.047.04-.044.037-.025.019-.041.032c-.019.016-.04.033-.061.052l-.045.038-.055.044-.074.057-.052.038-.039.027c-.013.008-.029.018-.049.028l-.044.023-.027.012-.015.007-.024.01-.041.017-.047.016c-.017.006-.056.015-.118.029l-.137.029-.078.015-.058.012-.039.008-.04.008-.024,0-.046.009-.071.014-.062.009-.055.007-.036,0-.057,0-.09.005a.832.832,0,0,1-.088,0l-.065-.005-.064-.008-.055-.009-.075-.017c-.037-.009-.067-.018-.088-.025l-.045-.018-.021-.01-.019-.011a.4.4,0,0,1-.038-.028l-.043-.036-.032-.033-.018-.02-.017-.023a.371.371,0,0,1-.038-.06.346.346,0,0,1-.03-.068.267.267,0,0,1-.01-.062.181.181,0,0,1,.009-.058.164.164,0,0,1,.038-.056.279.279,0,0,1,.051-.042.444.444,0,0,1,.066-.033c.029-.013.091-.036.186-.071s.175-.062.24-.082.113-.035.144-.043l.072-.021.093-.024.1-.025c.025,0,.057-.013.1-.024s.081-.024.127-.04.088-.033.129-.051l.09-.041.049-.023.055-.026.09-.044a.74.74,0,0,0,.083-.047.238.238,0,0,0,.046-.035.208.208,0,0,0,.032-.043.318.318,0,0,0,.025-.047q.007-.019.021-.069c.01-.033.019-.07.029-.11s.025-.1.044-.167.038-.148.056-.231l.036-.163c0-.026.014-.069.025-.129s.021-.147.03-.264.014-.205.016-.268,0-.11.005-.142l0-.085v-.087c0-.033,0-.085.008-.158s.01-.129.014-.168.011-.088.019-.146.015-.112.021-.161.012-.1.019-.143.012-.088.017-.122.012-.076.021-.127.016-.1.023-.135.013-.08.019-.122l.012-.087.008-.067.013-.1c.006-.036.012-.081.02-.136l.017-.115.009-.059c0-.018.009-.063.019-.133s.02-.125.026-.161l.014-.084.013-.083c.005-.034.016-.1.031-.2s.032-.2.048-.285.026-.158.032-.205.015-.114.026-.2.022-.161.033-.226l.026-.167.026-.169c.011-.067.02-.125.027-.173s.013-.086.018-.113l.014-.079c0-.026.011-.062.021-.111l.033-.142q.018-.069.024-.1a.226.226,0,0,0,0-.052v-.024a.28.28,0,0,0-.01-.033" fill-rule="evenodd"/>
      <path fill="#cc1f36" d="M33.8,49.972l.039.072c.021.038.04.071.059.1a.433.433,0,0,0,.058.071.634.634,0,0,0,.057.047c.017.013.049.033.1.062l.1.062a.354.354,0,0,0,.071.031.41.41,0,0,0,.062.014.143.143,0,0,0,.037,0,.07.07,0,0,0,.023-.011.418.418,0,0,0,.029-.032" fill-rule="evenodd"/>
      <path fill="#cc1f36" d="M33.3,48.494a.2.2,0,0,0-.033.033c-.014.015-.031.036-.052.061a.917.917,0,0,0-.074.111c-.029.048-.051.086-.065.116a.465.465,0,0,0-.034.092.545.545,0,0,0-.014.078l0,.034s0,.026.008.071a1,1,0,0,0,.017.108c.006.026.013.052.021.079s.019.063.033.109.027.085.037.114a.787.787,0,0,1,.024.085.734.734,0,0,1,.017.084c.005.028.008.053.01.074a.482.482,0,0,1,0,.049.2.2,0,0,1-.006.035.1.1,0,0,1-.015.029.08.08,0,0,1-.015.016.248.248,0,0,1-.043.018l-.055.02a.184.184,0,0,0-.038.017.21.21,0,0,0-.045.037.233.233,0,0,0-.048.069.348.348,0,0,0-.027.075.413.413,0,0,0-.005.056.271.271,0,0,0,.009.062c.006.024.012.042.016.054l.022.051.027.059.018.043a.812.812,0,0,1,.026.093.954.954,0,0,1,.023.128q.006.052.009.1c0,.032,0,.071,0,.117s0,.09,0,.13,0,.089,0,.146,0,.1,0,.129,0,.069-.007.121,0,.1,0,.154,0,.091,0,.122,0,.07.009.12.011.106.02.171.016.113.019.146.006.06.008.082,0,.048,0,.078l0,.07v.042c0,.011,0,.034,0,.068s0,.064-.006.089-.007.056-.014.092-.012.067-.017.092-.011.047-.017.068a.719.719,0,0,1-.039.1l-.054.118a.961.961,0,0,0-.044.118l-.036.116c-.011.032-.02.058-.028.079s-.02.054-.037.1-.029.092-.041.129-.02.065-.026.084-.027.059-.06.121-.06.111-.081.144a1.245,1.245,0,0,1-.074.109c-.029.039-.052.072-.07.1s-.036.058-.056.092-.036.059-.048.077l-.038.053a.422.422,0,0,1-.108.111l-.086.068a.842.842,0,0,0-.086.08c-.032.033-.059.061-.081.086l-.056.06-.041.043c-.012.013-.03.029-.051.049a.623.623,0,0,1-.086.062.767.767,0,0,1-.1.051l-.076.031L31.481,55l-.048.023c-.017.009-.04.023-.067.041l-.076.052a.768.768,0,0,0-.063.05.266.266,0,0,0-.039.04l-.01.019,0,.012a.048.048,0,0,0,0,.019.09.09,0,0,0,.011.024.624.624,0,0,0,.069.067.572.572,0,0,0,.125.086.579.579,0,0,0,.115.045.585.585,0,0,0,.1.016.919.919,0,0,0,.1,0,1.161,1.161,0,0,0,.125-.019.741.741,0,0,0,.19-.08c.08-.043.14-.079.18-.1l.089-.061.045-.032.075-.059.147-.121a2.186,2.186,0,0,1,.2-.153c.078-.053.138-.093.182-.119s.091-.054.143-.08l.193-.1c.077-.04.139-.074.187-.1l.109-.07c.025-.018.05-.035.073-.053s.049-.038.076-.062a.38.38,0,0,0,.072-.085.459.459,0,0,0,.048-.1,1.126,1.126,0,0,0,.031-.114,1.317,1.317,0,0,0,.023-.153c.006-.058.009-.11.011-.156s.006-.1.012-.167.011-.115.015-.153l.009-.089,0-.046c0-.008.009-.077.023-.206s.027-.234.036-.316.022-.167.038-.256l.036-.2.027-.14c.01-.05.022-.114.037-.192s.035-.173.059-.286.045-.207.065-.283.034-.13.044-.163l.02-.075c0-.016.013-.048.024-.093l.025-.106c0-.025.011-.053.017-.084l.013-.06.016-.078c.009-.044.021-.095.034-.154s.024-.1.031-.128.019-.082.037-.167.032-.155.042-.213.017-.1.022-.127.01-.074.018-.143.012-.133.014-.19,0-.13-.006-.219-.012-.157-.017-.2l-.011-.1c0-.022-.007-.057-.014-.105s-.014-.1-.022-.142-.014-.089-.019-.127-.009-.073-.012-.1-.008-.068-.013-.111-.011-.09-.016-.143l-.012-.125c0-.031-.007-.075-.013-.132s-.014-.1-.02-.146c0,0,0,0,0-.009" fill-rule="evenodd"/>
      <path fill="#cc1f36" d="M35.47,48.491l-.145.057h-.006l.006-.005.02-.009a.286.286,0,0,1,.036-.01l.055-.018a.237.237,0,0,0,.055-.029.156.156,0,0,0,.037-.035.162.162,0,0,0,.019-.031.145.145,0,0,0,.01-.033.34.34,0,0,0,.007-.049c0-.018,0-.049,0-.093s0-.092,0-.143v-.08a.413.413,0,0,1,.013-.045A.328.328,0,0,1,35.6,47.9c.009-.015.02-.032.033-.05l.032-.044a.33.33,0,0,0,.027-.046.447.447,0,0,0,.025-.06c.006-.021.012-.041.016-.06l.014-.066c.006-.025.016-.063.031-.116s.034-.113.056-.182a1.059,1.059,0,0,0,.046-.177l.021-.131c.005-.039.01-.066.013-.082s.006-.039.01-.068.006-.055.008-.079a.734.734,0,0,1,.011-.087.483.483,0,0,1,.017-.078.321.321,0,0,1,.019-.045L36,46.5l.017-.031.025-.044.032-.057c.01-.018.023-.041.038-.066s.031-.051.048-.077.027-.043.032-.053l.022-.042c.009-.017.024-.052.046-.1a1.411,1.411,0,0,0,.059-.183,1.882,1.882,0,0,0,.041-.209c.01-.071.018-.133.024-.188s.01-.1.014-.132.008-.068.013-.106l.012-.092.013-.1.013-.1c0-.027.011-.069.021-.124s.024-.119.041-.192.034-.133.05-.184.034-.1.051-.143.04-.1.067-.157.047-.1.061-.133.024-.051.029-.065l.033-.076c.016-.036.033-.078.05-.125s.03-.083.038-.108l.02-.065c.005-.018.012-.045.02-.082s.013-.066.017-.089l.009-.06.006-.033.013-.084.016-.107L37,43.031c0-.016.006-.03.009-.04l.011-.028.009-.019.012-.015.011-.009.008,0h.007l.007,0,.011.013a.279.279,0,0,1,.019.05.532.532,0,0,1,.015.062c0,.015.007.04.012.074l.009.068,0,.032,0,.021.009.05c.005.029.01.07.015.124l.011.126c0,.029,0,.051,0,.066l0,.042c0,.012,0,.044-.007.095s-.01.1-.019.161-.014.105-.018.143-.005.064-.006.08l0,.074c0,.034,0,.068,0,.1l0,.084c0,.021,0,.046,0,.073a.734.734,0,0,0,.007.129q.009.087.021.147a.975.975,0,0,0,.023.1.527.527,0,0,0,.022.067.337.337,0,0,0,.033.066.715.715,0,0,0,.054.082c.021.03.036.052.045.067a.451.451,0,0,1,.028.049.423.423,0,0,1,.021.045l.011.033.007.025.005.02c0,.006,0,.022.008.047l.006.039.005.055q.006.056.015.117c0,.042.01.073.014.093l.009.05.015.071.016.08.01.055.018.1c.009.051.019.11.029.176s.019.117.025.153l.01.069.012.068c.006.035.011.061.014.077s.014.067.03.155.031.157.041.207l.032.141.026.108.02.087.012.057.017.079c.01.045.018.083.026.114a.683.683,0,0,1,.013.077.315.315,0,0,1,0,.044.27.27,0,0,1-.007.035.158.158,0,0,1-.016.035.244.244,0,0,1-.026.032l-.033.034-.022.022-.016.018a.362.362,0,0,0-.022.032.229.229,0,0,0-.018.06.357.357,0,0,0-.007.086.464.464,0,0,0,.005.065c0,.015.006.033.011.054l.016.07.015.063.009.043.018.093a.931.931,0,0,1,.018.113.442.442,0,0,1,0,.059.107.107,0,0,1-.007.039.176.176,0,0,1-.017.037l-.014.025-.01.015-.012.017-.006.011-.006.011a.1.1,0,0,0-.008.035.321.321,0,0,0,.012.092c.01.043.02.078.029.106l.021.061.015.041.012.033.006.015.017.047q.015.045.033.093a.579.579,0,0,0,.033.075.219.219,0,0,0,.03.045.131.131,0,0,0,.039.033.171.171,0,0,0,.042.022.23.23,0,0,0,.033.01.125.125,0,0,0,.035,0,.261.261,0,0,0,.04,0l.027-.005.031-.011c.016-.006.038-.015.065-.028a.7.7,0,0,0,.088-.054.59.59,0,0,0,.1-.093,1,1,0,0,0,.076-.095c.016-.023.037-.055.061-.095s.047-.08.071-.122a1.056,1.056,0,0,0,.063-.135.987.987,0,0,0,.041-.137c.008-.042.015-.081.019-.116s.013-.092.025-.17.022-.139.031-.181l.027-.131c.009-.046.018-.1.027-.148s.015-.094.019-.123l.016-.117c.006-.05.013-.1.021-.151s.014-.1.02-.157.012-.094.015-.122.007-.065.012-.109.013-.1.022-.177.016-.138.022-.194.009-.1.011-.13.006-.076.011-.134.007-.1.009-.136,0-.087.006-.162,0-.138,0-.188v-.147q0-.072-.006-.21c0-.091-.007-.173-.011-.245s-.007-.139-.011-.2-.007-.116-.009-.156-.005-.1-.01-.184-.01-.159-.015-.23-.012-.173-.021-.3-.017-.233-.021-.3-.012-.168-.023-.291-.017-.2-.02-.219l-.011-.088c-.005-.035-.009-.075-.014-.122s-.012-.109-.021-.188l-.024-.2-.014-.12c0-.024-.006-.053-.01-.085l-.017-.12c-.006-.048-.013-.1-.02-.151s-.016-.121-.025-.2-.016-.157-.018-.223,0-.123-.005-.171,0-.088,0-.119l0-.138c0-.06,0-.111,0-.152l-.005-.124-.006-.144c0-.055-.007-.12-.016-.2s-.014-.131-.019-.168l-.012-.09c0-.022-.009-.057-.017-.105l-.02-.123q-.009-.052-.027-.15c-.012-.065-.022-.116-.031-.151s-.016-.066-.024-.09-.014-.049-.022-.072-.024-.072-.049-.147-.047-.134-.064-.178-.036-.084-.056-.123-.043-.079-.068-.12l-.063-.1c-.017-.028-.035-.057-.055-.085s-.036-.049-.049-.065l-.035-.039a.6.6,0,0,0-.057-.052.789.789,0,0,0-.119-.079,1.3,1.3,0,0,0-.146-.071,1.107,1.107,0,0,0-.119-.04.9.9,0,0,0-.109-.019.96.96,0,0,0-.1-.01c-.027,0-.056,0-.088,0a.611.611,0,0,0-.124.025.949.949,0,0,0-.122.041l-.09.04-.077.038q-.033.016-.117.072c-.057.037-.1.066-.126.086s-.063.05-.108.088l-.1.088-.068.062c-.022.019-.082.083-.179.193s-.175.2-.231.269-.1.122-.124.156l-.058.077c-.012.017-.045.067-.1.15s-.1.161-.137.234-.067.129-.085.167-.041.087-.068.147-.054.129-.083.206-.052.148-.071.213-.035.127-.05.189-.028.117-.039.167l-.024.113c0,.025-.02.1-.044.232s-.039.2-.043.225-.018.1-.042.228-.043.231-.055.3-.021.116-.026.144l-.017.092-.027.142-.037.2c-.014.072-.024.128-.032.166l-.017.081q-.006.024-.021.111c-.011.059-.019.109-.026.151s-.013.086-.022.131-.016.089-.024.129-.015.083-.022.128-.012.083-.016.111l-.009.085c0,.027-.008.089-.016.184s-.012.165-.015.211-.007.11-.013.193-.012.144-.015.186l-.006.092-.013.192-.018.254c0,.062-.007.115-.01.161l-.006.105c0,.025,0,.065-.006.121s-.007.1-.009.129-.008.1-.016.2-.014.187-.017.243-.006.1-.008.128l0,.068,0,.094-.006.133c0,.041-.006.095-.01.161l-.021.274c-.009.116-.015.215-.018.294s0,.142,0,.19,0,.083,0,.108,0,.089,0,.194,0,.2,0,.285,0,.175,0,.268-.006.162-.009.207l-.007.1a.46.46,0,0,0,0,.064l.01.09" fill-rule="evenodd"/>
      <path fill="#cc1f36" d="M33.479,43.675l.019.027,0,0-.006.011-.013.021-.022.032-.023.037-.021.036-.023.042c-.008.016-.015.032-.022.049l-.014.037L33.344,44l-.006.034c0,.012-.006.057-.013.136s-.009.125-.01.138,0,.036,0,.066v.12c0,.049,0,.087,0,.112s0,.048.005.065l.007.06.006.046q0,.012,0,.078c0,.043,0,.082,0,.116s0,.06,0,.08l.007.063.009.066a.556.556,0,0,0,.017.071.526.526,0,0,0,.028.073.285.285,0,0,0,.035.056.214.214,0,0,0,.04.035.137.137,0,0,0,.056.018.236.236,0,0,0,.065,0,.468.468,0,0,0,.067-.019.415.415,0,0,0,.077-.037.674.674,0,0,0,.061-.037l.05-.036a.683.683,0,0,0,.065-.055.629.629,0,0,0,.054-.057.751.751,0,0,0,.057-.09c.026-.046.046-.082.058-.107l.03-.062.024-.051.037-.09.04-.1.029-.078.025-.073.02-.063c.008-.023.018-.059.032-.107s.027-.094.038-.139l.026-.1.013-.055.036-.146c.021-.084.038-.153.05-.206s.021-.1.027-.131.013-.079.021-.132.014-.1.019-.13.014-.1.025-.207v-.015" fill-rule="evenodd"/>
      <path fill="#cc1f36" d="M33.861,38.11v0l.005.032.009.046.011.05q.006.03.009.057a.691.691,0,0,1,0,.1.99.99,0,0,1-.025.179q-.023.111-.036.165l-.022.084-.012.047-.008.031a.135.135,0,0,0,0,.031.132.132,0,0,0,.006.039.143.143,0,0,0,.012.035.1.1,0,0,0,.019.026.1.1,0,0,0,.021.017.09.09,0,0,0,.024.012l.023.007.029.005A.353.353,0,0,0,34,39.068a.848.848,0,0,0,.094-.014.526.526,0,0,1,.063-.007l.046,0,.051.005.048.006.05,0,.067.007.068,0h.059c.016,0,.035,0,.054-.007a.31.31,0,0,0,.061-.02.286.286,0,0,0,.081-.071.723.723,0,0,0,.08-.11c.02-.035.034-.063.043-.083s.02-.047.033-.082.029-.08.051-.132.037-.092.049-.117l.026-.053.017-.029a.233.233,0,0,1,.033-.036" fill-rule="evenodd"/>
    </g>
    <g>
      <path fill="#cc1f36" d="M11.33,4.521a12.788,12.788,0,0,1,2.254-.167,3.663,3.663,0,0,1,2.387.659A2.282,2.282,0,0,1,16.763,6.8a2.447,2.447,0,0,1-.7,1.835,3.566,3.566,0,0,1-2.555.864,4.147,4.147,0,0,1-.719-.048V12.5H11.33Zm1.463,3.767a3.029,3.029,0,0,0,.719.059c1.1,0,1.776-.539,1.776-1.487,0-.9-.624-1.379-1.644-1.379a4.066,4.066,0,0,0-.851.072Z"/>
      <path fill="#cc1f36" d="M18.038,4.521a14,14,0,0,1,2.23-.167,3.745,3.745,0,0,1,2.5.647,2.045,2.045,0,0,1,.695,1.619A2.156,2.156,0,0,1,22,8.647v.036a2.062,2.062,0,0,1,1.127,1.559,16.158,16.158,0,0,0,.635,2.255H22.235A11.441,11.441,0,0,1,21.7,10.59c-.229-1.055-.613-1.391-1.451-1.415H19.5V12.5H18.038ZM19.5,8.1h.876c1,0,1.62-.528,1.62-1.332,0-.887-.624-1.295-1.583-1.295a4.264,4.264,0,0,0-.913.072Z"/>
      <path fill="#cc1f36" d="M26.341,4.414V12.5H24.866V4.414Z"/>
      <path fill="#cc1f36" d="M28,10.89a4.08,4.08,0,0,0,1.955.516c.947,0,1.475-.444,1.475-1.1,0-.612-.408-.971-1.439-1.343-1.331-.48-2.183-1.188-2.183-2.351,0-1.319,1.1-2.326,2.855-2.326a4.284,4.284,0,0,1,1.942.407l-.36,1.188a3.419,3.419,0,0,0-1.607-.384c-.935,0-1.343.5-1.343.971,0,.624.467.912,1.547,1.332,1.4.527,2.087,1.235,2.087,2.4,0,1.3-.984,2.423-3.07,2.423a4.8,4.8,0,0,1-2.183-.5Z"/>
      <path fill="#cc1f36" d="M41.433,8.371c0,2.711-1.643,4.258-3.874,4.258-2.279,0-3.718-1.739-3.718-4.114,0-2.482,1.559-4.233,3.838-4.233C40.042,4.282,41.433,6.068,41.433,8.371Zm-6.033.12c0,1.643.828,2.95,2.243,2.95s2.231-1.318,2.231-3.01c0-1.523-.756-2.962-2.231-2.962S35.4,6.824,35.4,8.491Z"/>
      <path fill="#cc1f36" d="M42.709,12.5V4.414h1.679l2.087,3.465a22.293,22.293,0,0,1,1.379,2.711h.024c-.1-1.079-.132-2.123-.132-3.358V4.414h1.367V12.5H47.59l-2.111-3.55a28.243,28.243,0,0,1-1.451-2.795l-.036.013c.06,1.043.072,2.11.072,3.441V12.5Z"/>
    </g>
    <g>
      <path fill="#cc1f36" d="M18.421,23.471a8.007,8.007,0,0,1-2.6.455,4.354,4.354,0,0,1-3.167-1.079,4.007,4.007,0,0,1-1.127-2.974c0-2.555,1.823-4.2,4.5-4.2a5.361,5.361,0,0,1,2.147.384l-.323,1.187a4.354,4.354,0,0,0-1.835-.348,2.705,2.705,0,0,0-2.939,2.9,2.672,2.672,0,0,0,2.806,2.927,2.828,2.828,0,0,0,1.116-.168V20.544H15.567V19.381h2.854Z"/>
      <path fill="#cc1f36" d="M21.4,15.759v4.713c0,1.583.661,2.315,1.656,2.315,1.067,0,1.7-.732,1.7-2.315V15.759h1.475v4.617c0,2.495-1.283,3.6-3.226,3.6-1.871,0-3.083-1.043-3.083-3.586V15.759Z"/>
      <path fill="#cc1f36" d="M29.164,21.552l-.7,2.29H26.945l2.591-8.083h1.883l2.626,8.083H32.462l-.732-2.29Zm2.315-1.116-.636-1.991c-.155-.491-.287-1.043-.407-1.511h-.025c-.12.468-.239,1.031-.384,1.511L29.4,20.436Z"/>
      <path fill="#cc1f36" d="M35.177,15.867a13.993,13.993,0,0,1,2.23-.168,3.75,3.75,0,0,1,2.5.647,2.046,2.046,0,0,1,.7,1.619,2.155,2.155,0,0,1-1.463,2.027v.036a2.06,2.06,0,0,1,1.127,1.559,16.158,16.158,0,0,0,.635,2.255H39.374a11.417,11.417,0,0,1-.539-1.906c-.229-1.056-.612-1.392-1.451-1.416H36.64v3.322H35.177Zm1.463,3.574h.876c1,0,1.619-.528,1.619-1.332,0-.887-.624-1.3-1.583-1.3a4.245,4.245,0,0,0-.912.072Z"/>
      <path fill="#cc1f36" d="M42,15.867a14.874,14.874,0,0,1,2.35-.168,4.922,4.922,0,0,1,3.3.935,3.612,3.612,0,0,1,1.26,2.974,4.184,4.184,0,0,1-1.26,3.215A5.392,5.392,0,0,1,44,23.926,16.087,16.087,0,0,1,42,23.818Zm1.475,6.848a5.5,5.5,0,0,0,.816.036,2.768,2.768,0,0,0,3.058-3.094,2.565,2.565,0,0,0-2.867-2.807,4.718,4.718,0,0,0-1.007.084Z"/>
    </g>
  </g>
</svg>