<!-- Generator: Adobe Illustrator 25.2.3, SVG Export Plug-In . SVG Version: 6.00 Build 0)  --><svg x="0px" enable-background="new 0 0 60 60" y="0px" width="60px" xmlns:xlink="http://www.w3.org/1999/xlink" viewBox="0 0 60 60" height="60px" id="Layer_1" xmlns="http://www.w3.org/2000/svg" xml:space="preserve" version="1.1">
<rect width="60" fill="#CB2026" x="-0.012" height="60" id="UnitColor_2_" y="-0.085"/>
<rect width="60" fill="#640D0D" height="20.2" id="CS_1_" y="11.533" display="none"/>
<g id="Gar" display="none">
	<rect width="14.843" fill="none" x="0.73" height="8.039" y="2.802" display="inline"/>
	<path fill="#FFFFFF" d="M11.03,10.06c-0.472,0.163-1.361,0.379-2.249,0.379c-1.231,0-2.119-0.308-2.739-0.903   C5.424,8.949,5.085,8.072,5.089,7.083C5.097,4.842,6.73,3.567,8.936,3.567c0.87,0,1.539,0.165,1.873,0.323L10.49,5.111   C10.117,4.95,9.664,4.825,8.922,4.825c-1.27,0-2.235,0.714-2.235,2.18c0,1.391,0.878,2.205,2.125,2.205   c0.344,0,0.623-0.04,0.745-0.095V7.699H8.516V6.512h2.514V10.06z" display="inline"/>
</g>
<g id="Eng" display="none">
	<rect width="27.832" fill="none" x="1.1" height="8.039" y="2.802" display="inline"/>
	<path fill="#FFFFFF" d="M17.011,7.521h-2.479v1.602h2.771v1.248h-4.294V3.634h4.15v1.248h-2.626v1.403h2.479   V7.521z" display="inline"/>
</g>
<g id="P2" display="none">
	<path fill="#FFFFFF" d="M19.024,28.186c0.472-1.148,0.803-2.149,0.992-3.001c0.282-1.24,0.423-2.417,0.423-3.534   c0-1.066-0.099-2.078-0.295-3.035c-0.197-0.957-0.575-2.146-1.135-3.568h1.146c0.628,1.03,1.101,2.092,1.419,3.186   c0.319,1.094,0.478,2.185,0.478,3.274c0,1.094-0.159,2.218-0.476,3.374s-0.786,2.257-1.407,3.305H19.024z" display="inline"/>
</g>
<g id="P1" display="none">
	<path fill="#FFFFFF" d="M8.327,28.186H7.182c-0.605-1.025-1.071-2.111-1.396-3.257s-0.487-2.257-0.487-3.333   c0-1.162,0.163-2.296,0.489-3.401c0.326-1.105,0.795-2.154,1.408-3.148h1.146c-0.56,1.422-0.938,2.611-1.135,3.568   c-0.197,0.957-0.295,1.969-0.295,3.035c0,1.103,0.139,2.27,0.416,3.5C7.522,26.016,7.855,27.028,8.327,28.186z" display="inline"/>
</g>
<g id="Type">
	<path fill="#FFFFFF" d="M53.265,12.893v17.022H26.785V12.893H53.265z M51.846,14.312H28.204v14.185h23.642V14.312z M31.115,24.371   c-0.792-0.819-1.217-1.895-1.198-3.033c0.038-2.312,1.878-4.152,4.19-4.189c0.003,0,0.005,0.002,0.007,0.002v-0.002h11.814   c0.006,0,0.012-0.004,0.019-0.004c2.349,0.039,4.228,1.98,4.19,4.329c-0.038,2.311-1.88,4.151-4.189,4.189   c-0.005,0-0.009,0-0.013,0v0.004H34.118c-0.001,0-0.003,0-0.004,0s-0.004,0-0.007,0C32.97,25.647,31.907,25.188,31.115,24.371z    M31.336,21.361c-0.012,0.758,0.271,1.477,0.8,2.022c0.527,0.545,1.235,0.852,1.994,0.864h11.776c0.006,0,0.012-0.004,0.017-0.004   c1.543-0.025,2.771-1.253,2.795-2.794c0.025-1.562-1.222-2.854-2.782-2.885v0.003H34.13C32.589,18.592,31.361,19.819,31.336,21.361   z"/>
</g>
<g id="STK">
	<path fill="#FFFFFF" d="M13.307,17.911h-0.036l-2.139,1.074l-0.386-1.671l2.857-1.406h1.847v11.703h-2.144V17.911z"/>
</g>
<g id="ECH">
	<rect width="27.832" x="26.078" fill="none" height="8.039" y="2.802"/>
	<path fill="#FFFFFF" d="M39.33,3.634v6.736h-1.523V3.634H39.33z"/>
	<path fill="#FFFFFF" d="M42.18,3.634v6.736h-1.522V3.634H42.18z"/>
</g>
<g id="PF">
	<rect width="60" x="0" fill="none" height="15.475" y="44.525"/>
	<path fill="#FFFFFF" d="M19.474,50.459h-0.02l-1.101,0.565l-0.221-1.026l1.489-0.771h1.147v6.496h-1.295V50.459z"/>
	<path fill="#FFFFFF" d="M25.97,52.443c0,2.333-0.847,3.359-1.9,3.359c-1.414,0-1.891-1.625-1.891-3.297   c0-1.868,0.595-3.359,1.939-3.359C25.627,49.146,25.97,50.897,25.97,52.443z M23.494,52.475c-0.016,1.521,0.17,2.207,0.614,2.207   c0.401,0,0.547-0.719,0.547-2.207c0-1.395-0.131-2.208-0.549-2.208C23.696,50.267,23.486,50.97,23.494,52.475z"/>
	<path fill="#FFFFFF" d="M28.49,52.494v0.939h-1.986v-0.939H28.49z"/>
	<path fill="#FFFFFF" d="M30.41,54.185l-0.295,1.538h-1.271l1.463-6.736h1.568l1.31,6.736h-1.275l-0.287-1.538H30.41z    M31.507,53.168l-0.226-1.41c-0.064-0.409-0.154-1.086-0.221-1.531h-0.024c-0.072,0.447-0.172,1.144-0.242,1.533l-0.247,1.408   H31.507z"/>
	<path fill="#FFFFFF" d="M37.362,54.229c0,0.524,0.021,1.036,0.04,1.493h-1.131L36.2,55.207H36.18   c-0.226,0.33-0.623,0.596-1.129,0.596c-0.932,0-1.305-0.688-1.305-2.006v-2.966h1.312v2.821c0,0.64,0.128,1.056,0.489,1.056   c0.222,0,0.365-0.17,0.427-0.335c0.043-0.095,0.075-0.251,0.075-0.417v-3.125h1.312V54.229z"/>
	<path fill="#FFFFFF" d="M41.914,50.831c-0.025,0.448-0.048,0.963-0.048,1.55v2.79c0,1.055-0.195,1.627-0.591,2.012   c-0.36,0.344-0.875,0.539-1.588,0.539c-0.453,0-0.872-0.078-1.222-0.232l0.242-1.006c0.246,0.113,0.553,0.204,0.935,0.204   c0.658,0,0.919-0.437,0.919-1.187v-0.294h-0.02c-0.168,0.31-0.512,0.484-0.879,0.484c-1.096,0-1.524-1.198-1.524-2.367   c0-1.627,0.739-2.573,1.646-2.573c0.385,0,0.709,0.207,0.9,0.578h0.02l0.067-0.498H41.914z M40.562,52.617   c0-0.128-0.023-0.264-0.054-0.358c-0.061-0.21-0.197-0.403-0.42-0.403c-0.468,0-0.656,0.639-0.656,1.437   c0,0.911,0.257,1.373,0.635,1.373c0.169,0,0.336-0.089,0.432-0.355c0.048-0.109,0.063-0.251,0.063-0.383V52.617z"/>
</g>
<g id="Des">
	<rect width="60" x="0" fill="none" height="14.525" y="31.722"/>
	<path fill="#FFFFFF" d="M8.873,43.161c0.453,0.272,1.242,0.483,1.882,0.483c1.184,0,1.831-0.693,1.831-1.686   c0-0.981-0.597-1.533-1.59-2.218c-1.342-0.859-2.287-2.068-2.287-3.38c0-1.897,1.289-3.394,3.554-3.394   c0.782,0,1.489,0.232,1.812,0.44l-0.357,1.649c-0.329-0.216-0.843-0.414-1.499-0.414c-1.091,0-1.611,0.742-1.611,1.472   c0,0.94,0.485,1.368,1.721,2.166c1.542,0.998,2.155,2.176,2.155,3.48c0,2.17-1.563,3.559-3.732,3.559   c-0.913,0-1.823-0.258-2.201-0.507L8.873,43.161z"/>
	<path fill="#FFFFFF" d="M20.541,45.031c-0.271,0.145-0.828,0.289-1.476,0.289c-2.082,0-3.465-1.541-3.465-4.422   c0-2.625,1.452-4.575,3.775-4.575c0.517,0,1.021,0.126,1.26,0.255l-0.293,1.524c-0.19-0.078-0.507-0.196-0.929-0.196   c-1.251,0-1.896,1.34-1.896,2.954c0,1.792,0.723,2.884,1.897,2.884c0.355,0,0.656-0.069,0.937-0.208L20.541,45.031z"/>
	<path fill="#FFFFFF" d="M24.176,34.099v2.348h1.7v1.394h-1.7v4.546c0,1.073,0.417,1.346,0.898,1.346   c0.226,0,0.406-0.018,0.594-0.054l0.039,1.496c-0.29,0.09-0.711,0.146-1.256,0.146c-0.622,0-1.169-0.154-1.552-0.546   c-0.424-0.432-0.645-1.066-0.645-2.369V37.84h-1.05v-1.394h1.05v-1.857L24.176,34.099z"/>
	<path fill="#FFFFFF" d="M26.879,43.396c0.329,0.208,0.93,0.461,1.512,0.461c0.685,0,1.105-0.366,1.105-1.003   c0-0.549-0.255-0.91-1.068-1.423c-1.303-0.776-1.777-1.619-1.777-2.51c0-1.51,1.101-2.619,2.681-2.619   c0.709,0,1.26,0.2,1.681,0.427l-0.394,1.419c-0.334-0.211-0.728-0.373-1.198-0.373c-0.665,0-0.992,0.44-0.992,0.912   c0,0.478,0.214,0.75,1.055,1.286c1.166,0.696,1.787,1.56,1.787,2.654c0,1.782-1.247,2.692-2.896,2.692   c-0.689,0-1.485-0.198-1.876-0.505L26.879,43.396z"/>
	<path fill="#FFFFFF" d="M39.132,44.896c-0.515,0.214-1.52,0.425-2.347,0.425c-1.243,0-2.27-0.347-3.077-1.191   c-0.969-0.984-1.54-2.72-1.52-4.871c0.041-4.557,2.513-6.29,4.89-6.29c0.851,0,1.493,0.168,1.871,0.355l-0.365,1.657   c-0.336-0.172-0.781-0.285-1.394-0.285c-1.562,0-3.003,1.155-3.003,4.582c0,3.286,1.264,4.408,2.526,4.408   c0.325,0,0.534-0.047,0.64-0.099v-3.39h-1.302v-1.578h3.08V44.896z"/>
	<path fill="#FFFFFF" d="M40.809,38.916c0-0.812-0.044-1.725-0.072-2.47h1.681l0.098,1.322h0.057   c0.339-0.889,1.064-1.466,1.78-1.466c0.187,0,0.292,0.01,0.408,0.03v1.922c-0.118-0.021-0.244-0.021-0.411-0.021   c-0.665,0-1.334,0.556-1.539,1.505c-0.049,0.211-0.08,0.507-0.08,0.841v4.632h-1.921V38.916z"/>
	<path fill="#FFFFFF" d="M47.457,36.446l0.994,4.776c0.127,0.59,0.207,1.107,0.3,1.619h0.035c0.078-0.471,0.184-1.043,0.284-1.599   l0.865-4.797h1.889l-1.629,6.258c-0.479,1.896-1.07,3.783-2.051,4.998c-0.686,0.833-1.467,1.239-1.809,1.36l-0.621-1.652   c0.403-0.178,0.823-0.495,1.196-0.895c0.337-0.374,0.602-0.838,0.759-1.236c0.072-0.181,0.11-0.281,0.11-0.407   c0-0.107-0.021-0.216-0.057-0.324l-2.319-8.102H47.457z"/>
</g>
<g>
</g>
<g>
</g>
<g>
</g>
<g>
</g>
<g>
</g>
<g>
</g>
</svg>