<!-- Generator: Adobe Illustrator 25.2.3, SVG Export Plug-In . SVG Version: 6.00 Build 0)  --><svg x="0px" enable-background="new 0 0 60 60" y="0px" width="60px" xmlns:xlink="http://www.w3.org/1999/xlink" viewBox="0 0 60 60" height="60px" id="Layer_1" xmlns="http://www.w3.org/2000/svg" xml:space="preserve" version="1.1">
<rect width="60" fill="#CB2026" x="-0.012" height="60" id="UnitColor_2_" y="-0.085"/>
<rect width="60" fill="#640D0D" height="20.2" id="CS_1_" y="11.533"/>
<g id="Gar">
	<rect width="14.843" x="0.73" fill="none" height="8.039" y="2.802"/>
	<path fill="#FFFFFF" d="M11.03,10.06c-0.472,0.163-1.361,0.379-2.249,0.379c-1.231,0-2.119-0.308-2.739-0.903   C5.424,8.949,5.085,8.072,5.089,7.083C5.097,4.842,6.73,3.567,8.936,3.567c0.87,0,1.539,0.165,1.873,0.323L10.49,5.111   C10.117,4.95,9.664,4.825,8.922,4.825c-1.27,0-2.235,0.714-2.235,2.18c0,1.391,0.878,2.205,2.125,2.205   c0.344,0,0.623-0.04,0.745-0.095V7.699H8.516V6.512h2.514V10.06z"/>
</g>
<g id="Eng" display="none">
	<rect width="27.832" fill="none" x="1.1" height="8.039" y="2.802" display="inline"/>
	<path fill="#FFFFFF" d="M17.011,7.521h-2.479v1.602h2.771v1.248h-4.294V3.634h4.15v1.248h-2.626v1.403h2.479   V7.521z" display="inline"/>
</g>
<g id="P2">
	<path fill="#FFFFFF" d="M19.024,28.186c0.472-1.148,0.803-2.149,0.992-3.001c0.282-1.24,0.423-2.417,0.423-3.534   c0-1.066-0.099-2.078-0.295-3.035c-0.197-0.957-0.575-2.146-1.135-3.568h1.146c0.628,1.03,1.101,2.092,1.419,3.186   c0.319,1.094,0.478,2.185,0.478,3.274c0,1.094-0.159,2.218-0.476,3.374s-0.786,2.257-1.407,3.305H19.024z"/>
</g>
<g id="P1">
	<path fill="#FFFFFF" d="M8.327,28.186H7.182c-0.605-1.025-1.071-2.111-1.396-3.257s-0.487-2.257-0.487-3.333   c0-1.162,0.163-2.296,0.489-3.401c0.326-1.105,0.795-2.154,1.408-3.148h1.146c-0.56,1.422-0.938,2.611-1.135,3.568   c-0.197,0.957-0.295,1.969-0.295,3.035c0,1.103,0.139,2.27,0.416,3.5C7.522,26.016,7.855,27.028,8.327,28.186z"/>
</g>
<g id="Type">
	<path fill="#FFFFFF" d="M53.265,12.893v17.022H26.785V12.893H53.265z M28.204,15.139v12.53l10.443-6.265L28.204,15.139z    M50.468,14.312H29.583l10.443,6.265L50.468,14.312z M29.583,28.497h20.885l-10.442-6.265L29.583,28.497z M41.404,21.404   l10.441,6.265v-12.53L41.404,21.404z"/>
</g>
<g id="STK">
	<path fill="#FFFFFF" d="M9.839,27.611v-1.345l1.388-1.292c2.753-2.546,4.052-3.949,4.066-5.496c0-1.058-0.562-1.97-2.091-1.97   c-1.036,0-1.914,0.524-2.499,0.975l-0.649-1.574c0.841-0.67,2.121-1.199,3.593-1.199c2.595,0,3.865,1.631,3.865,3.545   c0,2.059-1.479,3.712-3.525,5.602l-1.013,0.888v0.036h4.796v1.831H9.839z"/>
</g>
<g id="ECH">
	<rect width="27.832" x="26.078" fill="none" height="8.039" y="2.802"/>
	<path fill="#FFFFFF" d="M41.133,10.37l-0.607-1.219c-0.244-0.472-0.412-0.823-0.598-1.213h-0.021   c-0.141,0.391-0.306,0.744-0.524,1.209l-0.557,1.223h-1.734l1.946-3.411L37.16,3.634h1.752l0.59,1.227   c0.197,0.409,0.343,0.742,0.502,1.12h0.025c0.163-0.428,0.288-0.728,0.46-1.116l0.565-1.23h1.739l-1.898,3.287l1.999,3.449H41.133z   "/>
</g>
<g id="PF">
	<rect width="60" x="0" fill="none" height="15.475" y="44.525"/>
	<path fill="#FFFFFF" d="M21.862,53.367c-0.034-0.646-0.076-1.508-0.062-2.234h-0.026c-0.121,0.723-0.3,1.552-0.426,2.075   l-0.585,2.404h-0.929l-0.559-2.366c-0.13-0.545-0.308-1.383-0.411-2.113h-0.024c-0.02,0.735-0.067,1.585-0.102,2.251l-0.114,2.339   h-1.124l0.484-6.736h1.383l0.537,2.438c0.187,0.854,0.357,1.599,0.478,2.36h0.022c0.103-0.748,0.252-1.508,0.429-2.36l0.531-2.438   h1.383l0.409,6.736h-1.173L21.862,53.367z"/>
	<path fill="#FFFFFF" d="M26.227,55.723l-0.071-0.482h-0.022c-0.267,0.378-0.647,0.562-1.081,0.562   c-0.739,0-1.288-0.618-1.288-1.485c0-1.285,1.13-1.809,2.235-1.819V52.39c0-0.387-0.225-0.668-0.688-0.668   c-0.39,0-0.703,0.105-0.995,0.285l-0.238-0.882c0.271-0.155,0.837-0.374,1.52-0.374c1.485,0,1.729,1.042,1.729,2.033v1.819   c0,0.39,0.016,0.788,0.072,1.119H26.227z M26.039,53.341c-0.433,0.008-1.037,0.156-1.037,0.837c0,0.482,0.271,0.662,0.473,0.662   c0.213,0,0.446-0.125,0.536-0.421c0.02-0.062,0.028-0.142,0.028-0.224V53.341z"/>
	<path fill="#FFFFFF" d="M29.698,49.514v1.317h0.957v0.929h-0.957v2.236c0,0.566,0.235,0.707,0.494,0.707   c0.128,0,0.228-0.01,0.345-0.029l0.01,1.023c-0.181,0.05-0.458,0.085-0.8,0.085c-0.378,0-0.71-0.088-0.947-0.311   c-0.268-0.256-0.415-0.632-0.415-1.399V51.76h-0.576v-0.929h0.576v-1.005L29.698,49.514z"/>
	<path fill="#FFFFFF" d="M31.258,52.303c0-0.486-0.021-1.015-0.039-1.472h1.135l0.067,0.716h0.035   c0.215-0.521,0.61-0.796,0.969-0.796c0.133,0,0.202,0.008,0.279,0.023v1.297c-0.083-0.016-0.169-0.016-0.285-0.016   c-0.272,0-0.648,0.192-0.791,0.695c-0.033,0.108-0.058,0.285-0.058,0.488v2.483h-1.312V52.303z"/>
	<path fill="#FFFFFF" d="M37.772,54.229c0,0.524,0.021,1.036,0.04,1.493h-1.131l-0.071-0.516H36.59   c-0.226,0.33-0.623,0.596-1.129,0.596c-0.932,0-1.305-0.688-1.305-2.006v-2.966h1.312v2.821c0,0.64,0.128,1.056,0.489,1.056   c0.222,0,0.365-0.17,0.427-0.335c0.043-0.095,0.075-0.251,0.075-0.417v-3.125h1.312V54.229z"/>
	<path fill="#FFFFFF" d="M38.71,48.807h1.312v2.536h0.02c0.116-0.17,0.258-0.307,0.424-0.414c0.186-0.11,0.418-0.178,0.661-0.178   c0.896,0,1.248,0.767,1.248,2.008v2.964h-1.312v-2.972c0-0.473-0.089-0.897-0.483-0.897c-0.219,0-0.407,0.127-0.506,0.463   c-0.02,0.081-0.051,0.256-0.051,0.368v3.038H38.71V48.807z"/>
</g>
<g id="Des">
	<rect width="60" x="0" fill="none" height="14.525" y="31.722"/>
	<path fill="#FFFFFF" d="M14.785,43.161c0.453,0.272,1.242,0.483,1.882,0.483c1.184,0,1.831-0.693,1.831-1.686   c0-0.981-0.597-1.533-1.59-2.218c-1.342-0.859-2.287-2.068-2.287-3.38c0-1.897,1.289-3.394,3.554-3.394   c0.782,0,1.489,0.232,1.812,0.44l-0.357,1.649c-0.329-0.216-0.843-0.414-1.499-0.414c-1.091,0-1.611,0.742-1.611,1.472   c0,0.94,0.485,1.368,1.721,2.166c1.542,0.998,2.155,2.176,2.155,3.48c0,2.17-1.563,3.559-3.732,3.559   c-0.913,0-1.823-0.258-2.201-0.507L14.785,43.161z"/>
	<path fill="#FFFFFF" d="M23.38,41.346c0.021,1.958,0.93,2.491,1.953,2.491c0.64,0,1.183-0.145,1.573-0.312l0.272,1.383   c-0.547,0.258-1.393,0.412-2.194,0.412c-2.259,0-3.472-1.64-3.472-4.353c0-2.901,1.39-4.665,3.261-4.665   c1.844,0,2.773,1.666,2.773,4.016c0,0.5-0.021,0.796-0.051,1.027H23.38z M25.765,39.978c0.016-1.407-0.447-2.243-1.128-2.243   c-0.834,0-1.21,1.215-1.249,2.243H25.765z"/>
	<path fill="#FFFFFF" d="M28.944,32.752h1.922v12.46h-1.922V32.752z"/>
	<path fill="#FFFFFF" d="M32.644,45.212c0.028-0.652,0.071-1.65,0.071-2.369V32.752h1.912v4.649h0.036   c0.438-0.742,1.037-1.099,1.836-1.099c1.553,0,2.446,1.765,2.446,4.353c0,3.115-1.259,4.701-2.77,4.701   c-0.818,0-1.312-0.408-1.729-1.228h-0.052l-0.112,1.083H32.644z M34.627,42.095c0,0.211,0.03,0.411,0.077,0.553   c0.253,0.924,0.701,1.123,1.028,1.123c0.936,0,1.296-1.223,1.296-2.982c0-1.624-0.379-2.858-1.312-2.858   c-0.492,0-0.902,0.57-1.021,1.146c-0.039,0.164-0.069,0.394-0.069,0.568V42.095z"/>
	<path fill="#FFFFFF" d="M41.543,36.446l0.994,4.776c0.127,0.59,0.207,1.107,0.3,1.619h0.035c0.078-0.471,0.184-1.043,0.284-1.599   l0.865-4.797h1.889l-1.629,6.258c-0.479,1.896-1.07,3.783-2.051,4.998c-0.686,0.833-1.467,1.239-1.809,1.36l-0.621-1.652   c0.403-0.178,0.823-0.495,1.196-0.895c0.337-0.374,0.602-0.838,0.759-1.236c0.072-0.181,0.11-0.281,0.11-0.407   c0-0.107-0.021-0.216-0.057-0.324l-2.319-8.102H41.543z"/>
</g>
<g>
</g>
<g>
</g>
<g>
</g>
<g>
</g>
<g>
</g>
<g>
</g>
</svg>