<svg width="60" height="60" xmlns="http://www.w3.org/2000/svg" viewBox="0 0 60 60">
  <rect fill="#fff" height="60" width="60"/>
  <g>
    <path fill="#cb2026" d="M47.536,22.892c0,.13,0,.262,0,.394s-.006.264-.011.4-.009.264-.018.394-.015.264-.025.4-.023.262-.037.394-.028.262-.043.394-.035.261-.054.391-.04.261-.062.391-.046.259-.072.389-.052.257-.08.386-.057.257-.087.386-.066.257-.1.384-.07.254-.106.38-.076.253-.116.379-.08.252-.123.376-.087.249-.131.373-.091.247-.139.37-.1.246-.15.366-.1.244-.157.365-.108.24-.164.358-.113.239-.173.358-.118.233-.18.35-.124.232-.188.347-.131.23-.2.345-.135.226-.2.337-.139.225-.211.335-.145.221-.219.329-.152.217-.229.325-.153.212-.232.319l-.241.314c-.083.1-.166.205-.25.306s-.167.2-.255.3-.172.2-.26.3-.179.194-.27.291-.18.19-.273.283-.187.188-.283.28-.19.181-.286.27-.2.178-.293.266-.2.174-.3.26-.2.167-.3.249-.206.164-.311.245-.21.16-.317.239-.213.153-.321.229-.217.15-.327.224l-.332.216c-.112.071-.224.139-.337.206s-.225.136-.34.2l-.345.193c-.117.063-.233.125-.35.185s-.237.119-.355.175-.238.115-.358.17-.238.108-.36.16-.244.1-.366.154l-.368.144c-.123.046-.247.091-.37.134s-.251.087-.376.129-.25.08-.376.118-.253.075-.38.111l-.384.1c-.127.033-.255.064-.383.093s-.258.059-.386.085-.259.053-.389.077-.26.044-.389.064-.26.042-.391.059-.263.034-.394.049-.261.03-.393.041-.262.023-.394.031-.263.016-.394.021-.264.012-.4.015-.264,0-.4,0-.264,0-.394,0-.264-.008-.4-.015-.263-.012-.393-.021-.264-.018-.4-.031-.261-.025-.393-.041-.261-.031-.392-.049-.26-.036-.391-.059-.26-.042-.391-.064-.257-.05-.386-.077-.26-.054-.388-.085-.255-.06-.384-.093l-.381-.1c-.129-.036-.255-.073-.381-.111s-.253-.077-.378-.118-.25-.084-.373-.129-.25-.088-.373-.134l-.368-.144c-.122-.05-.243-.1-.363-.154s-.243-.105-.363-.16-.239-.111-.358-.17-.236-.115-.352-.175-.235-.122-.35-.185-.233-.128-.348-.193-.226-.132-.34-.2-.225-.135-.337-.206l-.332-.216c-.109-.074-.218-.148-.326-.224s-.215-.152-.32-.229-.211-.159-.316-.239-.209-.161-.312-.245-.205-.165-.306-.249l-.3-.26c-.1-.088-.2-.176-.294-.266s-.194-.179-.288-.27-.188-.186-.28-.28-.185-.187-.276-.283-.18-.193-.267-.291-.177-.2-.263-.3-.171-.2-.255-.3-.166-.2-.247-.306-.163-.21-.242-.314-.157-.213-.234-.319-.153-.217-.226-.325-.147-.218-.219-.329-.143-.221-.214-.335-.136-.223-.2-.337-.132-.23-.2-.345-.128-.23-.19-.347l-.18-.35c-.059-.119-.116-.238-.173-.358s-.111-.237-.164-.358-.106-.243-.157-.365-.1-.242-.147-.366-.1-.247-.142-.37-.088-.248-.131-.373-.084-.249-.123-.376-.078-.251-.114-.379-.072-.253-.105-.38-.067-.255-.1-.384-.061-.257-.09-.386-.054-.257-.08-.386-.047-.26-.069-.389-.043-.26-.062-.391-.039-.261-.054-.391-.033-.263-.046-.394-.024-.263-.034-.394-.02-.264-.028-.4-.013-.262-.018-.394-.006-.264-.008-.4,0-.262,0-.394,0-.264.008-.4.011-.264.018-.4.018-.261.028-.393.022-.262.034-.394.029-.262.046-.394.033-.261.054-.391.039-.261.062-.391.045-.259.069-.389.053-.257.08-.386.059-.257.09-.386.064-.257.1-.383.068-.254.105-.381.074-.253.114-.379.08-.252.123-.376.087-.249.131-.373.094-.247.142-.37.1-.246.147-.366.1-.244.157-.365.108-.24.164-.358.114-.239.173-.358l.18-.35c.062-.117.125-.232.19-.347s.129-.23.2-.345.135-.226.2-.337.142-.225.214-.335.145-.221.219-.329.149-.218.226-.325.155-.212.234-.319.16-.209.242-.314.163-.205.247-.306.169-.2.255-.3.173-.2.263-.3.176-.194.267-.291.183-.191.276-.285.186-.186.28-.278.191-.181.288-.27.194-.178.294-.266l.3-.26c.1-.083.2-.167.306-.249s.207-.164.312-.245.21-.16.316-.239.211-.153.32-.229l.326-.224.332-.216c.112-.071.224-.139.337-.206s.227-.136.34-.2.231-.129.348-.193.231-.125.35-.185.234-.119.352-.175.238-.115.358-.17.241-.108.363-.16.241-.1.363-.154l.368-.144c.123-.046.248-.091.373-.134s.248-.087.373-.129.251-.08.378-.118.252-.075.381-.111l.381-.1q.194-.049.384-.093c.128-.031.258-.059.388-.085s.257-.053.386-.077.261-.044.391-.064.261-.042.391-.059.261-.034.392-.049.263-.029.393-.041.265-.023.4-.031.261-.017.393-.024l.4-.012c.13,0,.261,0,.394,0s.264,0,.4,0,.264.008.4.015.262.012.394.021.263.018.394.031.263.025.393.041.262.032.394.049.261.037.391.059.259.043.389.067.26.047.389.074.257.054.386.085.256.06.383.093l.384.1c.127.036.253.073.38.111s.251.077.376.118.251.084.376.129.247.088.37.134l.368.144c.122.05.244.1.366.154s.242.1.36.16.24.112.358.17.238.115.355.175.233.122.35.185l.345.193q.172.1.342.2c.112.067.223.136.335.208s.222.142.332.214.219.149.327.224.215.152.321.229.212.159.317.239.208.163.311.245.2.166.3.249.2.173.3.26.2.176.293.266.192.179.286.27.191.186.283.28.184.187.273.283.181.193.27.291.174.2.26.3.173.2.257.3.165.2.248.306l.241.314.235.319c.075.109.151.217.226.325s.147.219.219.329.142.221.211.335.136.224.2.337.133.23.2.345.126.23.188.347.122.235.18.353.118.235.173.355.111.237.164.358.108.243.157.365.1.244.15.366.094.247.139.37.09.248.131.373.084.251.123.376.079.252.116.379.071.253.106.381.067.254.1.383.06.257.087.386.054.257.08.386.05.26.072.389.043.26.062.391.037.261.054.394.03.26.043.391.026.263.037.394.018.264.025.4.015.261.018.394S47.534,22.76,47.536,22.892Z" transform="translate(0 0)"/>
    <path fill="#fff" d="M46,22.909q0,.178,0,.36c0,.121-.005.242-.01.362s-.008.241-.016.36-.014.242-.024.363-.02.239-.033.36-.025.239-.04.36-.032.238-.049.358-.036.238-.056.357-.043.236-.066.356-.048.235-.073.353-.052.235-.08.352l-.09.351q-.047.174-.1.348c-.035.116-.07.232-.106.346s-.074.231-.113.344-.079.228-.12.341-.083.226-.127.339-.089.224-.136.334-.094.223-.144.334-.1.219-.151.327-.1.219-.157.327-.108.214-.165.32-.114.213-.172.318-.12.21-.181.315-.123.207-.186.309-.127.2-.193.3-.132.2-.2.3-.139.2-.209.3-.14.2-.212.292l-.221.287c-.075.094-.151.188-.228.28s-.153.187-.233.278-.158.181-.238.27-.164.178-.247.266-.165.174-.249.259-.171.172-.259.257-.174.165-.261.247l-.269.242c-.091.08-.182.159-.275.238s-.185.153-.278.228l-.284.224c-.1.073-.192.146-.29.218s-.2.141-.294.21-.2.137-.3.2l-.3.2c-.1.064-.205.127-.308.188s-.206.124-.311.184-.21.118-.315.176-.214.115-.32.17-.217.108-.325.16-.217.105-.327.155-.218.1-.329.146-.223.1-.335.141l-.336.132c-.113.042-.226.083-.339.122s-.229.08-.343.118-.229.074-.344.108-.232.068-.348.1-.233.062-.351.092-.233.058-.35.085-.236.054-.353.078-.236.048-.356.07-.237.04-.355.059-.238.038-.357.054l-.36.045c-.12.014-.24.027-.36.037s-.24.021-.36.029-.241.014-.36.019-.242.01-.363.014l-.362,0-.36,0c-.121,0-.242-.008-.363-.014s-.24-.011-.36-.019-.241-.017-.362-.029-.239-.023-.36-.037l-.358-.045q-.178-.024-.357-.054c-.119-.019-.239-.038-.358-.059s-.235-.045-.353-.07-.237-.05-.355-.078-.233-.055-.351-.085-.232-.06-.348-.092-.234-.066-.348-.1-.231-.07-.346-.108-.228-.077-.341-.118-.228-.08-.341-.122L24,37.924c-.111-.045-.222-.092-.332-.141s-.222-.1-.331-.146-.219-.1-.327-.155-.216-.1-.323-.16-.215-.112-.32-.17-.212-.116-.317-.176-.207-.121-.311-.184-.206-.124-.308-.188l-.3-.2c-.1-.067-.2-.135-.3-.2s-.2-.139-.291-.21-.194-.145-.29-.218-.19-.147-.284-.224-.188-.151-.28-.228l-.273-.238c-.091-.08-.181-.161-.269-.242s-.177-.164-.263-.247l-.257-.257c-.084-.085-.168-.171-.251-.259s-.165-.176-.245-.266-.162-.179-.24-.27-.156-.184-.233-.278-.152-.186-.226-.28-.149-.191-.221-.287-.144-.2-.214-.292-.14-.2-.207-.3-.134-.2-.2-.3-.131-.2-.2-.3-.124-.205-.185-.309-.121-.21-.179-.315-.118-.211-.174-.318l-.165-.32c-.053-.108-.106-.217-.158-.327s-.1-.217-.15-.327-.1-.223-.144-.334-.09-.221-.134-.334-.087-.226-.129-.339-.081-.227-.12-.341-.077-.228-.113-.344-.071-.23-.1-.346-.067-.232-.1-.348-.062-.233-.09-.351-.055-.235-.082-.352-.05-.236-.073-.353-.043-.238-.064-.356-.039-.238-.056-.357-.035-.239-.049-.358-.03-.241-.043-.36-.021-.241-.03-.36-.018-.242-.026-.363-.012-.239-.017-.36,0-.241-.007-.362,0-.239,0-.36,0-.242.007-.362.01-.242.017-.363.016-.239.026-.36.019-.239.03-.36.027-.239.043-.36.03-.238.049-.358.036-.238.056-.357.042-.236.064-.355.048-.236.073-.354.054-.235.082-.352.058-.235.09-.351.062-.232.1-.348.068-.232.1-.346.073-.231.113-.344.079-.228.12-.341.085-.226.129-.339.089-.224.134-.334.1-.223.144-.334.1-.219.15-.327.1-.219.158-.327l.165-.32q.084-.161.174-.318c.058-.1.117-.21.179-.315s.123-.207.185-.308.13-.206.2-.306.132-.2.2-.3.136-.2.207-.3.142-.2.214-.292.146-.191.221-.287.149-.187.226-.28.154-.187.233-.278.158-.181.24-.27.161-.178.245-.266.167-.175.251-.261l.257-.255c.086-.083.174-.165.263-.247s.178-.162.269-.242l.273-.238c.092-.076.185-.153.28-.228s.189-.15.284-.223.192-.147.29-.219.193-.141.291-.21.2-.137.3-.2l.3-.2c.1-.064.2-.127.308-.188s.207-.124.311-.184.211-.118.317-.176.212-.115.32-.17.214-.108.323-.16.217-.105.327-.155.22-.1.331-.146.221-.1.332-.141l.337-.132c.113-.042.226-.083.341-.122s.226-.08.341-.118.23-.074.346-.108.23-.068.348-.1.232-.062.348-.092.235-.058.351-.085.236-.054.355-.078.236-.048.353-.07.239-.04.358-.059.238-.038.357-.054l.358-.045c.121-.014.241-.026.36-.037s.242-.021.362-.029l.36-.021q.181-.008.363-.012l.36,0,.362,0c.121,0,.242.008.363.014s.239.012.36.019.24.018.36.029.24.023.36.037l.36.045q.178.024.357.054c.118.019.236.039.355.061s.238.043.356.068.235.05.353.078.234.055.35.085.235.06.351.092.232.066.348.1.229.07.344.108.229.077.343.118.226.08.339.122L36,8.254c.112.045.223.092.335.141s.221.1.329.146.219.1.327.155.218.105.325.16.213.112.32.17.21.116.315.176.209.121.313.184.2.124.306.19.2.13.3.2.2.135.3.2.2.139.294.21.194.145.29.219.19.148.284.223.187.152.278.228.184.158.275.238l.269.242c.087.082.175.164.261.247s.174.171.259.257.167.171.249.259.166.176.247.266.159.179.238.27.158.184.235.278.151.186.226.28l.221.287c.072.1.144.2.214.292l.207.3c.068.1.134.2.2.3s.13.2.193.306.125.2.186.308.122.21.181.315.116.211.172.318.111.214.165.322.107.215.157.325.1.217.151.327.1.223.144.334.092.223.136.334.086.226.127.339.082.227.12.341.077.229.113.344.071.23.106.346.065.232.1.348.062.233.09.351.055.235.08.352.049.236.073.354.045.237.066.355.039.238.056.357.034.24.049.361.028.238.04.357.024.241.033.36.018.242.024.363.013.239.016.36S46,22.788,46,22.909Z" transform="translate(0 0)"/>
    <path stroke-linecap="round" transform="translate(0 0)" fill="#cc1f36" stroke-linejoin="round" d="M24.205,7.7v30.8l-.166-.059L24,38.419l-.078-.036-.11-.059-.27-.151-.277-.144-.1-.051-.143-.085L23,37.876l-.068-.047-.176-.129-.272-.212-.092-.071-.2-.173-.25-.224-.224-.19-.095-.081-.246-.231-.1-.083-.173-.156-.055-.049-.3-.278-.321-.268-.192-.151-.239-.217-.323-.3-.246-.222-.189-.18-.146-.161-.088-.095-.095-.113-.09-.112-.189-.239-.205-.253q-.309-.393-.335-.417l-.1-.107-.192-.21-.319-.344-.192-.18-.25-.249-.222-.222-.1-.1-.146-.154-.216-.241-.2-.227-.185-.227-.136-.188-.161-.239-.129-.2-.005,0-.182-.291-.265-.4-.046-.122-.047-.132-.087-.258-.041-.151-.008-.02-.048-.224-.03-.11-.085-.4-.026-.093-.09-.29-.083-.256-.01-.022-.034-.129-.029-.132-.024-.12-.025-.134v0l-.034-.227-.07-.463,0-.02-.037-.151-.007-.039-.022-.1-.007-.041-.032-.307-.031-.283-.02-.147-.031-.224-.03-.21-.007-.061-.007-.046-.01-.161-.007-.2V23.71c0-.341,0-.531,0-.571l-.008-.175,0-.376,0-.07.01-.073.01-.061.075-.347.068-.312c.064-.317.1-.487.1-.509h0l.055-.407.02-.166.017-.178.044-.334.039-.351.026-.288.03-.266.034-.088.109-.234c.136-.274.208-.421.214-.438l.034-.088.01-.027.1-.212.043-.1.068-.148.044-.1.1-.225.077-.18.1-.242.039-.1.046-.086.015-.027.226-.343.09-.159.182-.3.129-.231.066-.12.156-.256.126-.217.134-.229.012-.022.1-.188.056-.107.027-.058.053-.105.1-.2.095-.161.25-.342.012-.014.142-.19.206-.268.192-.274.166-.243.068-.1.211-.273c.227-.263.344-.4.351-.409l.155-.2.107-.129.141-.166.2-.219.024-.029.294-.3.03-.032.136-.141.058-.049.134-.107q.395-.293.445-.347l.1-.095.149-.126.063-.052.3-.2.306-.213q.4-.293.5-.39l.119-.109.058-.052q.3-.187.426-.28c.185-.133.293-.214.323-.241l.183-.154.17-.115.207-.114.051-.032c.146-.084.277-.165.394-.241l.065-.046.176-.118q.09-.06.165-.114" stroke="#cc1f36" stroke-width="1.218"/>
  </g>
</svg>