<svg width="60" height="60" xmlns="http://www.w3.org/2000/svg" viewBox="0 0 60 60">
  <rect fill="#fff" height="60" width="60"/>
  <g>
    <g>
      <path fill="#cc1f36" d="M17.652,30.35a.409.409,0,0,1,0,.07v.071c0,.023,0,.047,0,.07l-.007.071c0,.023,0,.047,0,.07s-.008.047-.01.071-.005.044-.009.068a.562.562,0,0,0-.01.07l-.013.067a.6.6,0,0,1-.016.071.468.468,0,0,1-.016.067c0,.024-.01.047-.016.071s-.013.044-.019.067-.013.044-.019.068-.016.042-.023.064-.016.046-.022.067-.017.044-.026.068l-.026.064c-.01.021-.02.043-.029.064s-.018.043-.028.064l-.033.064-.032.061c-.01.022-.021.042-.032.061s-.024.042-.035.061-.025.042-.035.061-.026.042-.039.061l-.038.058c-.013.019-.027.038-.042.058s-.027.038-.042.057-.026.036-.041.055l-.045.054-.045.055q-.023.026-.048.051l-.045.052-.052.051q-.023.026-.048.051l-.051.048-.051.045a.511.511,0,0,0-.055.048.556.556,0,0,1-.054.042l-.055.045c-.019.015-.038.029-.058.042a.547.547,0,0,1-.054.041l-.061.039-.058.039-.061.038-.058.035-.064.036c-.019.01-.039.021-.061.031l-.064.033c-.019.008-.04.018-.061.029s-.043.018-.064.028l-.067.026-.065.026-.067.025c-.021.007-.043.014-.064.023l-.068.019-.067.023a.588.588,0,0,0-.07.016l-.068.016-.067.016-.071.012-.067.013a.577.577,0,0,1-.071.01l-.07.01-.071.006-.067.006a.563.563,0,0,1-.071,0c-.023,0-.047,0-.07,0h-.142c-.023,0-.047,0-.07,0a.563.563,0,0,1-.071,0l-.07-.006-.068-.006-.07-.01a.577.577,0,0,1-.071-.01l-.07-.013-.068-.012-.067-.016-.071-.016a.468.468,0,0,0-.067-.016l-.068-.023-.067-.019a.659.659,0,0,0-.067-.023l-.064-.025-.068-.026-.064-.026c-.021-.01-.043-.02-.064-.028s-.043-.021-.064-.029l-.061-.033-.064-.031c-.02-.013-.04-.025-.061-.036s-.04-.024-.061-.035l-.058-.038-.061-.039-.058-.039-.058-.041-.054-.042c-.019-.015-.038-.03-.055-.045a.556.556,0,0,1-.054-.042l-.055-.048-.051-.045-.051-.048-.052-.051q-.023-.026-.048-.051l-.048-.052-.045-.051-.045-.055q-.023-.025-.045-.054c-.015-.019-.029-.038-.041-.055s-.029-.038-.042-.057-.029-.039-.042-.058l-.038-.058c-.013-.019-.026-.039-.039-.061a.511.511,0,0,1-.035-.061.459.459,0,0,1-.035-.061l-.036-.061c-.01-.021-.021-.042-.032-.061s-.018-.042-.029-.064-.02-.043-.029-.064-.02-.043-.028-.064l-.026-.064c-.009-.024-.017-.046-.026-.068a.657.657,0,0,1-.022-.067c-.009-.022-.016-.043-.023-.064s-.012-.046-.019-.068-.013-.046-.019-.067l-.019-.071c-.005-.021-.01-.044-.016-.067l-.013-.071-.013-.067c0-.023-.008-.047-.01-.07s-.007-.047-.009-.068a.577.577,0,0,1-.01-.071l-.006-.07a.563.563,0,0,1,0-.071c0-.023,0-.047,0-.07s0-.047,0-.071v-.07c0-.024,0-.048,0-.071s0-.046,0-.067a.563.563,0,0,1,0-.071l.006-.071a.562.562,0,0,1,.01-.07c0-.024,0-.047.009-.071s.006-.043.01-.067l.013-.071.013-.067c.006-.024.011-.047.016-.071l.019-.067c.006-.021.013-.044.019-.067s.013-.046.019-.068.014-.044.023-.067.014-.043.022-.064.017-.046.026-.068l.026-.064c.008-.021.018-.043.028-.064s.019-.043.029-.064A.6.6,0,0,0,11.758,29l.032-.064c.013-.02.025-.04.036-.061s.022-.04.035-.061.022-.04.035-.061l.039-.058.038-.058c.013-.019.027-.038.042-.058s.027-.038.042-.057a.374.374,0,0,1,.041-.055q.022-.029.045-.054c.015-.02.03-.038.045-.055s.03-.035.045-.055.033-.034.048-.051l.048-.048.052-.051q.025-.023.051-.048l.051-.048.055-.046.054-.044a.57.57,0,0,1,.055-.042l.054-.045.058-.038a.7.7,0,0,1,.058-.042l.061-.039c.019-.01.038-.022.058-.035s.041-.025.061-.035l.061-.036.064-.032.061-.032c.021-.011.042-.02.064-.029l.064-.029c.021-.01.043-.02.064-.028l.068-.026a.483.483,0,0,1,.064-.022c.023-.009.046-.017.067-.023s.046-.016.067-.022l.068-.02.067-.019a.6.6,0,0,0,.071-.016l.067-.013a.589.589,0,0,1,.071-.013.361.361,0,0,1,.067-.012.577.577,0,0,1,.071-.01l.07-.01.068-.006.07-.006a.563.563,0,0,1,.071,0c.023,0,.047,0,.07,0h.142c.023,0,.047,0,.07,0a.563.563,0,0,1,.071,0l.067.006.071.006.07.01a.577.577,0,0,1,.071.01.431.431,0,0,1,.067.012.589.589,0,0,1,.071.013l.067.013a.661.661,0,0,0,.068.016l.07.019.067.02c.022.006.044.013.068.022a.547.547,0,0,1,.064.023l.067.022.065.026.067.028.064.029a.571.571,0,0,1,.061.029l.064.032.061.032c.022.011.043.023.064.036a.5.5,0,0,1,.058.035l.061.035.058.039a.6.6,0,0,1,.061.042c.019.012.037.025.054.038l.058.045c.019.013.037.027.055.042l.054.044c.017.015.035.031.055.046s.034.033.051.048.034.033.051.048.033.034.048.051.035.031.052.048l.045.051.048.055c.015.017.03.035.045.055s.03.035.045.054a.462.462,0,0,1,.041.055q.023.028.042.057c.015.02.029.039.042.058l.038.058.039.058a.532.532,0,0,0,.035.061c.011.021.022.041.035.061l.032.061.032.064.033.064c.01.021.02.042.028.064s.019.043.029.064l.026.064c.009.022.017.044.026.068s.014.042.022.064a.659.659,0,0,0,.023.067c.006.022.012.044.019.068s.013.046.019.067.012.046.016.067a.6.6,0,0,1,.016.071.468.468,0,0,1,.016.067l.013.071a.449.449,0,0,0,.01.067c0,.024.007.047.009.071s.006.047.01.07,0,.048,0,.071l.007.071c0,.023,0,.047,0,.07Z" transform="translate(0 0)"/>
      <path fill="#cc1f36" d="M14.614,27.276h-.142c-.023,0-.047,0-.07,0a.563.563,0,0,0-.071,0l-.07.006-.068.006-.07.01a.577.577,0,0,0-.071.01.361.361,0,0,0-.067.012.589.589,0,0,0-.071.013l-.067.013a.6.6,0,0,1-.071.016l-.067.019-.068.02c-.021.006-.043.013-.067.022s-.044.014-.067.023a.483.483,0,0,0-.064.022l-.068.026a.6.6,0,0,0-.064.029c-.021.008-.043.018-.064.028s-.043.018-.064.029l-.061.032-.064.032L13,27.687c-.02.01-.04.022-.061.035s-.039.025-.058.035l-.061.039a.7.7,0,0,0-.058.042l-.058.038-.054.045a.57.57,0,0,0-.055.042l-.054.044-.055.046-.051.048q-.026.026-.051.048l-.052.051-.048.048q-.023.025-.048.051c-.015.02-.03.038-.045.055s-.03.035-.045.055-.03.035-.045.054a.374.374,0,0,0-.041.055q-.023.028-.042.057c-.015.02-.029.039-.042.058l-.038.058-.039.058c-.013.021-.024.041-.035.061s-.025.041-.035.061-.023.041-.036.061L11.758,29a.6.6,0,0,1-.029.064c-.01.021-.02.042-.029.064s-.02.043-.028.064l-.026.064c-.009.022-.017.044-.026.068s-.016.042-.022.064-.016.046-.023.067-.012.044-.019.068-.013.046-.019.067l-.019.067c-.005.024-.01.047-.016.071l-.013.067-.013.071c0,.024-.008.046-.01.067s-.007.047-.009.071a.562.562,0,0,0-.01.07l-.006.071a.563.563,0,0,0,0,.071c0,.021,0,.043,0,.067s0,.047,0,.071v.07c0,.024,0,.047,0,.071s0,.047,0,.07a.563.563,0,0,0,0,.071l.006.07a.577.577,0,0,0,.01.071c0,.021,0,.044.009.068s.006.047.01.07l.013.067.013.071c.006.023.011.046.016.067l.019.071c.006.021.013.044.019.067s.013.044.019.068.014.042.023.064a.657.657,0,0,0,.022.067c.009.022.017.044.026.068l.026.064c.008.021.018.043.028.064s.019.043.029.064.021.043.029.064.022.04.032.061l.036.061a.459.459,0,0,0,.035.061.511.511,0,0,0,.035.061c.013.022.026.042.039.061l.038.058c.013.019.027.038.042.058s.027.038.042.057.026.036.041.055.03.037.045.054l.045.055.045.051.048.052q.025.026.048.051l.052.051.051.048.051.045.055.048a.556.556,0,0,0,.054.042c.017.015.036.03.055.045l.054.042.058.041.058.039.061.039.058.038c.021.011.041.022.061.035s.041.023.061.036l.064.031.061.033c.021.008.042.018.064.029s.043.018.064.028l.064.026.068.026.064.025a.659.659,0,0,1,.067.023l.067.019.068.023a.468.468,0,0,1,.067.016l.071.016.067.016.068.012.07.013a.577.577,0,0,0,.071.01l.07.01.068.006.07.006c.022,0,.044,0,.066,0h0c.023,0,.047,0,.07,0h.142c.023,0,.047,0,.07,0h.005c.022,0,.044,0,.066,0l.067-.006.071-.006.07-.01a.577.577,0,0,0,.071-.01l.067-.013.071-.012.067-.016.068-.016a.588.588,0,0,1,.07-.016l.067-.023.068-.019c.021-.009.043-.016.064-.023l.067-.025.065-.026.067-.026c.021-.01.043-.02.064-.028s.042-.021.061-.029l.064-.033c.022-.01.042-.021.061-.031l.064-.036.058-.035.061-.038.058-.039.061-.039a.547.547,0,0,0,.054-.041c.02-.013.039-.027.058-.042l.055-.045a.556.556,0,0,0,.054-.042.511.511,0,0,1,.055-.048l.051-.045.051-.048q.026-.026.048-.051l.052-.051.045-.052q.026-.025.048-.051l.045-.055.045-.054c.015-.019.029-.038.041-.055s.029-.038.042-.057.029-.039.042-.058l.038-.058c.013-.019.026-.039.039-.061s.022-.039.035-.061.022-.04.035-.061.022-.039.032-.061l.032-.061.033-.064c.01-.021.02-.043.028-.064s.019-.043.029-.064l.026-.064c.009-.024.017-.046.026-.068s.014-.044.022-.067.014-.043.023-.064.012-.046.019-.068.013-.046.019-.067.012-.047.016-.071a.468.468,0,0,0,.016-.067.6.6,0,0,0,.016-.071l.013-.067a.562.562,0,0,1,.01-.07c0-.024.007-.047.009-.068s.006-.047.01-.071,0-.047,0-.07l.007-.071c0-.023,0-.047,0-.07V30.42a.409.409,0,0,0,0-.07v-.068c0-.023,0-.047,0-.07l-.007-.071c0-.023,0-.047,0-.071s-.008-.047-.01-.07-.005-.047-.009-.071a.449.449,0,0,1-.01-.067l-.013-.071a.468.468,0,0,0-.016-.067.6.6,0,0,0-.016-.071c0-.021-.01-.043-.016-.067s-.013-.044-.019-.067-.013-.046-.019-.068a.659.659,0,0,1-.023-.067c-.008-.022-.016-.043-.022-.064s-.017-.046-.026-.068l-.026-.064c-.01-.021-.02-.043-.029-.064s-.018-.043-.028-.064L17.324,29l-.032-.064-.032-.061c-.013-.02-.024-.04-.035-.061a.532.532,0,0,1-.035-.061l-.039-.058-.038-.058c-.013-.019-.027-.038-.042-.058s-.027-.038-.042-.057a.374.374,0,0,0-.041-.055q-.023-.029-.045-.054c-.015-.02-.03-.038-.045-.055L16.85,28.3l-.045-.051c-.017-.017-.034-.033-.052-.048s-.031-.034-.048-.051-.034-.031-.051-.048-.034-.031-.051-.048-.038-.031-.055-.046l-.054-.044c-.018-.015-.036-.029-.055-.042l-.058-.045c-.017-.013-.035-.026-.054-.038a.6.6,0,0,0-.061-.042l-.058-.039-.061-.035a.5.5,0,0,0-.058-.035c-.021-.013-.042-.025-.064-.036l-.061-.032-.064-.032a.571.571,0,0,0-.061-.029c-.021-.01-.043-.02-.064-.028s-.046-.021-.067-.029l-.065-.026-.067-.022a.547.547,0,0,0-.064-.023c-.024-.009-.046-.016-.068-.022l-.067-.02-.07-.019a.661.661,0,0,1-.068-.016l-.067-.013a.589.589,0,0,0-.071-.013.431.431,0,0,0-.067-.012.577.577,0,0,0-.071-.01l-.07-.01-.071-.006-.067-.006a.563.563,0,0,0-.071,0c-.023,0-.047,0-.07,0Z" transform="translate(0 0)"/>
    </g>
    <g>
      <path fill="#cc1f36" d="M26.176,30.452v.068c0,.023,0,.047,0,.07s0,.047,0,.071,0,.047,0,.07l-.006.071a.562.562,0,0,1-.01.07c0,.024,0,.046-.009.068s-.006.047-.01.07l-.013.071-.013.067c-.006.024-.011.048-.016.071l-.019.067-.019.068-.019.067c-.007.022-.014.044-.023.067s-.014.043-.022.065-.017.046-.026.067l-.026.064a.524.524,0,0,1-.029.064c-.008.022-.018.043-.028.065a.524.524,0,0,0-.029.064l-.032.061c-.013.021-.025.043-.036.064s-.022.039-.035.061l-.035.061-.039.057-.038.058c-.013.019-.027.039-.042.058s-.027.039-.042.058a.426.426,0,0,1-.041.054c-.015.02-.03.038-.045.055l-.045.054c-.015.017-.03.036-.045.055s-.033.034-.048.051l-.048.048-.052.052-.051.048-.051.045a.63.63,0,0,1-.055.048l-.054.045a.523.523,0,0,1-.055.041l-.054.042-.058.042c-.019.015-.039.029-.058.042l-.061.038-.058.035-.061.036-.061.035-.064.032c-.019.011-.039.022-.061.032s-.042.02-.064.029-.043.02-.064.029a.6.6,0,0,0-.064.029c-.024.008-.046.016-.068.022l-.064.026-.067.022a.584.584,0,0,0-.067.023l-.068.019c-.023.006-.046.012-.067.016l-.071.019-.067.013-.071.013-.067.013c-.024,0-.047.007-.071.009a.562.562,0,0,1-.07.01l-.068.006-.07.007c-.024,0-.047,0-.071,0s-.047,0-.07,0h-.142c-.023,0-.047,0-.07,0s-.047,0-.071,0l-.067-.007-.071-.006a.562.562,0,0,1-.07-.01c-.024,0-.047-.005-.071-.009l-.067-.013-.071-.013-.067-.013L22.3,33.5c-.023,0-.047-.01-.07-.016l-.068-.019a.584.584,0,0,0-.067-.023c-.021-.006-.043-.014-.064-.022l-.067-.026c-.022-.006-.043-.014-.065-.022s-.046-.021-.067-.029-.043-.018-.064-.029a.492.492,0,0,1-.061-.029l-.064-.032c-.022-.011-.042-.021-.061-.032s-.043-.022-.064-.035-.039-.023-.058-.036l-.061-.035-.058-.038a.658.658,0,0,1-.061-.042.556.556,0,0,1-.054-.042c-.02-.013-.039-.027-.058-.042a.523.523,0,0,1-.055-.041l-.054-.045L21,32.817l-.051-.045-.051-.048c-.017-.017-.033-.034-.048-.052s-.035-.031-.052-.048l-.045-.051-.048-.055-.045-.054c-.015-.017-.03-.035-.045-.055a.426.426,0,0,1-.041-.054c-.015-.019-.029-.039-.042-.058s-.029-.039-.042-.058l-.038-.058-.039-.057a.4.4,0,0,0-.035-.061A.7.7,0,0,0,20.347,32l-.032-.064-.033-.061-.032-.064c-.01-.022-.02-.043-.028-.065s-.019-.042-.029-.064l-.026-.064c-.009-.021-.017-.044-.026-.067s-.014-.043-.022-.065-.014-.045-.023-.067l-.019-.067-.019-.068a.589.589,0,0,1-.016-.067.562.562,0,0,1-.016-.071.589.589,0,0,1-.016-.067L20,31.01a.562.562,0,0,0-.01-.07c0-.022-.007-.044-.009-.068s-.006-.047-.01-.07l-.006-.071a.548.548,0,0,0,0-.07c0-.024,0-.047,0-.071v-.07a.386.386,0,0,1,0-.068v-.07c0-.024,0-.047,0-.071a.548.548,0,0,0,0-.07l.006-.071c0-.024.008-.047.01-.071s0-.046.009-.067a.552.552,0,0,0,.01-.071l.013-.07a.661.661,0,0,1,.016-.068.468.468,0,0,1,.016-.067.653.653,0,0,1,.016-.071c.006-.021.013-.043.019-.067s.013-.044.019-.067a.678.678,0,0,0,.023-.068c.008-.021.016-.042.022-.064s.017-.046.026-.067l.026-.064c.01-.022.02-.043.029-.065s.018-.042.028-.064l.032-.064.033-.061.032-.064a.7.7,0,0,0,.035-.061.6.6,0,0,0,.035-.058l.039-.061.038-.057c.013-.02.027-.039.042-.058s.027-.039.042-.058.026-.035.041-.054.03-.038.045-.055.03-.037.045-.054.031-.035.048-.052l.045-.051.052-.052q.023-.026.048-.051t.051-.048L21,28.155l.055-.048.054-.045.055-.042c.019-.014.038-.028.058-.041a.556.556,0,0,1,.054-.042l.061-.039.058-.038.061-.039c.019-.012.038-.024.058-.035l.064-.035c.019-.011.039-.022.061-.032l.064-.032.061-.029c.021-.011.043-.02.064-.029L21.9,27.6l.065-.025.067-.026c.021-.009.043-.016.064-.023a.438.438,0,0,0,.067-.022l.068-.019c.023-.006.047-.012.07-.016a.482.482,0,0,1,.068-.016.645.645,0,0,1,.067-.016l.071-.013.067-.013.071-.01c.023,0,.047-.007.07-.009l.071-.007.067-.006c.024,0,.047,0,.071,0a.547.547,0,0,1,.07,0c.024,0,.047,0,.071,0s.047,0,.071,0a.547.547,0,0,1,.07,0c.024,0,.047,0,.071,0l.07.006.068.007c.023,0,.047,0,.07.009l.071.01.067.013.071.013a.468.468,0,0,1,.067.016.6.6,0,0,1,.071.016c.021,0,.044.01.067.016l.068.019a.438.438,0,0,0,.067.022c.021.007.044.014.067.023l.064.026.068.025.064.026c.021.009.043.018.064.029s.043.02.064.029.042.021.061.032l.064.032c.02.013.04.024.061.035l.061.035.058.039.061.038.058.039.058.042.054.041.055.042.054.045a.63.63,0,0,1,.055.048l.051.045q.025.025.051.048l.052.051c.015.017.031.035.048.052s.031.034.048.051l.045.052q.023.026.045.054c.015.017.03.035.045.055s.029.037.041.054.029.039.042.058.029.038.042.058l.038.057.039.061c.013.019.024.039.035.058s.025.042.035.061.023.043.036.064l.032.061a.6.6,0,0,0,.029.064c.01.022.02.043.028.064a.617.617,0,0,1,.029.065l.026.064c.009.023.017.046.026.067s.016.043.022.064.016.046.023.068.012.046.019.067.013.046.019.067l.019.071c.005.021.01.044.016.067l.013.068.013.07c0,.024.008.048.01.071s.007.046.009.067a.577.577,0,0,1,.01.071l.006.071c0,.023,0,.047,0,.07s0,.047,0,.071S26.176,30.429,26.176,30.452Z" transform="translate(0 0)"/>
      <path fill="#cc1f36" d="M24.483,29.97h0M23.1,27.375h-.111c-.022,0-.043,0-.065,0h0q-.033,0-.066,0l-.067.006-.071.007c-.023,0-.047,0-.07.009l-.071.01-.067.013-.071.013a.645.645,0,0,0-.067.016.482.482,0,0,0-.068.016c-.023,0-.047.01-.07.016l-.068.019a.438.438,0,0,1-.067.022c-.021.007-.043.014-.064.023l-.067.026L21.9,27.6l-.067.026c-.021.009-.043.018-.064.029l-.061.029-.064.032c-.022.01-.042.021-.061.032l-.064.035c-.02.011-.039.023-.058.035s-.042.026-.061.039l-.058.038-.061.039a.556.556,0,0,0-.054.042c-.02.013-.039.027-.058.041l-.055.042-.054.045L21,28.155l-.051.045q-.025.025-.051.048t-.048.051l-.052.052-.045.051c-.017.017-.033.035-.048.052s-.03.035-.045.054-.03.035-.045.055-.029.037-.041.054-.029.039-.042.058-.029.038-.042.058l-.038.057-.039.061a.6.6,0,0,1-.035.058.7.7,0,0,1-.035.061l-.032.064-.033.061-.032.064c-.01.022-.02.043-.028.064s-.019.043-.029.065l-.026.064c-.009.021-.017.044-.026.067s-.014.043-.022.064a.678.678,0,0,1-.023.068c-.006.023-.012.046-.019.067s-.013.046-.019.067a.653.653,0,0,0-.016.071.468.468,0,0,0-.016.067.661.661,0,0,0-.016.068l-.013.07a.552.552,0,0,1-.01.071c0,.021-.007.044-.009.067s-.006.047-.01.071l-.006.071a.548.548,0,0,1,0,.07c0,.024,0,.047,0,.071v.07a.386.386,0,0,0,0,.068v.07c0,.024,0,.047,0,.071a.548.548,0,0,1,0,.07l.006.071c0,.023.008.047.01.07s0,.046.009.068a.562.562,0,0,1,.01.07l.013.071a.589.589,0,0,0,.016.067.562.562,0,0,0,.016.071.589.589,0,0,0,.016.067l.019.068.019.067c.009.022.016.044.023.067s.016.043.022.065.017.046.026.067l.026.064c.01.022.02.043.029.064s.018.043.028.065l.032.064.033.061.032.064a.7.7,0,0,1,.035.061.4.4,0,0,1,.035.061l.039.057.038.058c.013.019.027.039.042.058s.027.039.042.058a.426.426,0,0,0,.041.054c.015.02.03.038.045.055l.045.054.048.055.045.051c.017.017.034.033.052.048s.031.035.048.052l.051.048.051.045.055.048.054.045a.523.523,0,0,0,.055.041c.019.015.038.029.058.042a.556.556,0,0,0,.054.042.658.658,0,0,0,.061.042l.058.038.061.035c.019.013.038.025.058.036s.042.024.064.035.039.021.061.032l.064.032a.492.492,0,0,0,.061.029c.021.011.043.02.064.029s.044.018.067.029.043.016.065.022l.067.026c.021.008.043.016.064.022a.584.584,0,0,1,.067.023l.068.019c.023.006.047.012.07.016l.068.019.067.013.071.013.067.013c.024,0,.047.007.071.009a.562.562,0,0,0,.07.01l.071.006.067.007c.024,0,.047,0,.071,0s.047,0,.07,0h.142c.023,0,.047,0,.07,0s.047,0,.071,0l.07-.007.068-.006a.562.562,0,0,0,.07-.01c.024,0,.047-.005.071-.009l.067-.013.071-.013.067-.013.071-.019c.021,0,.044-.01.067-.016l.068-.019a.584.584,0,0,1,.067-.023l.067-.022.064-.026c.022-.006.044-.014.068-.022a.6.6,0,0,1,.064-.029c.021-.009.043-.018.064-.029s.043-.018.064-.029.042-.021.061-.032l.064-.032.061-.035.061-.036.058-.035.061-.038c.019-.013.039-.027.058-.042l.058-.042.054-.042a.523.523,0,0,0,.055-.041l.054-.045a.63.63,0,0,0,.055-.048l.051-.045.051-.048.052-.052.048-.048q.023-.026.048-.051c.015-.019.03-.038.045-.055l.045-.054c.015-.017.03-.035.045-.055a.426.426,0,0,0,.041-.054c.015-.019.029-.039.042-.058s.029-.039.042-.058l.038-.058.039-.057.035-.061c.013-.022.025-.042.035-.061s.023-.043.036-.064l.032-.061a.524.524,0,0,1,.029-.064c.01-.022.02-.043.028-.065a.524.524,0,0,0,.029-.064l.026-.064c.009-.021.017-.044.026-.067s.016-.043.022-.065.016-.045.023-.067l.019-.067.019-.068.019-.067c.005-.023.01-.047.016-.071l.013-.067.013-.071c0-.023.008-.047.01-.07s.007-.044.009-.068a.562.562,0,0,0,.01-.07l.006-.071c0-.023,0-.047,0-.07s0-.047,0-.071,0-.047,0-.07v-.068c0-.023,0-.047,0-.07s0-.047,0-.071,0-.047,0-.07l-.006-.071a.577.577,0,0,0-.01-.071c0-.021,0-.043-.009-.067s-.006-.047-.01-.071l-.013-.07-.013-.068c-.006-.023-.011-.046-.016-.067l-.019-.071c-.006-.021-.013-.043-.019-.067s-.013-.044-.019-.067-.014-.044-.023-.068-.014-.042-.022-.064-.017-.044-.026-.067l-.026-.064a.617.617,0,0,0-.029-.065c-.008-.021-.018-.042-.028-.064a.6.6,0,0,1-.029-.064l-.032-.061c-.013-.021-.025-.042-.036-.064s-.022-.039-.035-.061-.022-.039-.035-.058l-.039-.061-.038-.057c-.013-.02-.027-.039-.042-.058s-.027-.039-.042-.058-.026-.035-.041-.054-.03-.038-.045-.055-.03-.037-.045-.054l-.045-.052q-.025-.026-.048-.051c-.017-.017-.033-.035-.048-.052l-.052-.051q-.026-.023-.051-.048l-.051-.045a.63.63,0,0,0-.055-.048l-.054-.045-.055-.042-.054-.041-.058-.042L24.79,27.9l-.061-.038-.058-.039-.061-.035c-.021-.011-.041-.022-.061-.035l-.064-.032c-.019-.011-.039-.022-.061-.032s-.042-.018-.064-.029-.043-.02-.064-.029l-.064-.026-.068-.025-.064-.026c-.023-.009-.046-.016-.067-.023a.438.438,0,0,1-.067-.022l-.068-.019c-.023-.006-.046-.012-.067-.016a.6.6,0,0,0-.071-.016.468.468,0,0,0-.067-.016l-.071-.013-.067-.013-.071-.01c-.023,0-.047-.007-.07-.009l-.068-.007-.07-.006q-.033,0-.066,0h-.005c-.022,0-.043,0-.065,0H23.1Z" transform="translate(0 0)"/>
    </g>
    <path stroke-linecap="square" transform="translate(0 0)" fill="none" stroke-linejoin="round" d="M51.213,30.106v.115a.578.578,0,0,0,0,.058.549.549,0,0,0,0,.058l-.007.054-.006.058-.007.058q-.006.028-.009.054a.391.391,0,0,0-.01.058l-.013.055-.013.057-.012.055a.421.421,0,0,0-.016.055c-.007.019-.012.037-.017.054s-.012.038-.019.055-.013.037-.019.054-.013.038-.019.055-.014.035-.023.054-.014.034-.022.051-.014.034-.023.052l-.025.051-.026.052c-.009.017-.018.034-.029.051a.292.292,0,0,1-.029.048.44.44,0,0,1-.029.051l-.028.048-.033.045a.445.445,0,0,1-.032.048l-.035.045a.348.348,0,0,1-.035.048.362.362,0,0,1-.036.042l-.038.045c-.011.015-.022.03-.035.045l-.042.042-.038.038a.416.416,0,0,1-.042.042A.514.514,0,0,1,50.4,32l-.042.039-.041.038-.045.036c-.015.012-.03.025-.045.035a.458.458,0,0,1-.045.035l-.048.032a.211.211,0,0,1-.048.032.572.572,0,0,1-.048.032c-.015.011-.031.022-.049.033l-.048.028-.051.026a.44.44,0,0,1-.051.029l-.052.026c-.017.006-.034.014-.051.022s-.034.016-.051.023-.035.016-.052.022l-.054.023-.055.019-.054.019-.055.016a.426.426,0,0,1-.054.016c-.02.005-.038.01-.055.016l-.058.013-.054.013a.451.451,0,0,0-.055.009.378.378,0,0,1-.057.01.37.37,0,0,0-.058.01l-.055.006-.058.006a.546.546,0,0,0-.057,0l-.058,0a.563.563,0,0,1-.058,0h-.112a.563.563,0,0,1-.058,0l-.058,0a.364.364,0,0,1-.057,0l-.058-.006-.055-.006a.378.378,0,0,0-.057-.01.37.37,0,0,1-.058-.01.421.421,0,0,0-.055-.009l-.054-.013-.058-.013L48,32.576a.4.4,0,0,1-.055-.016c-.019-.006-.037-.012-.055-.016l-.054-.019-.055-.019-.054-.023c-.017-.006-.034-.014-.051-.022a.483.483,0,0,1-.052-.023c-.017-.006-.034-.014-.051-.022l-.051-.026a.381.381,0,0,1-.052-.029l-.051-.026-.048-.028-.048-.033a.461.461,0,0,1-.049-.032.211.211,0,0,1-.048-.032l-.048-.032a.458.458,0,0,1-.045-.035c-.015-.01-.03-.023-.045-.035s-.03-.023-.045-.036L47,32.034,46.962,32a.514.514,0,0,1-.042-.038.325.325,0,0,1-.041-.042l-.039-.038-.042-.042-.035-.045-.038-.045a.362.362,0,0,1-.036-.042.457.457,0,0,1-.035-.048c-.011-.015-.022-.03-.035-.045a.445.445,0,0,1-.032-.048l-.032-.045-.029-.048a.44.44,0,0,1-.029-.051.382.382,0,0,1-.029-.048c-.011-.017-.02-.034-.029-.051l-.026-.052-.025-.051c-.009-.018-.016-.034-.023-.052s-.016-.034-.022-.051-.016-.037-.023-.054-.012-.036-.019-.055-.013-.035-.019-.054-.013-.036-.019-.055-.01-.035-.016-.054-.01-.036-.016-.055l-.013-.055-.013-.057-.013-.055a.391.391,0,0,0-.01-.058q0-.026-.009-.054l-.007-.058-.006-.058-.006-.054a.369.369,0,0,0,0-.058.578.578,0,0,0,0-.058v-.173a.468.468,0,0,0,0-.055.364.364,0,0,0,0-.057l.006-.058.006-.058.007-.054c0-.02.007-.039.009-.058a.391.391,0,0,0,.01-.058l.013-.054.013-.055.013-.058c.006-.017.011-.035.016-.054s.011-.038.016-.055.013-.037.019-.054.013-.035.019-.055l.019-.051a.453.453,0,0,1,.023-.055c.006-.017.014-.034.022-.051a.438.438,0,0,1,.023-.054L46.413,29l.026-.051a.382.382,0,0,1,.029-.048c.009-.017.018-.035.029-.052s.018-.031.029-.048a.292.292,0,0,1,.029-.048.572.572,0,0,1,.032-.048l.032-.048c.013-.015.024-.03.035-.045l.035-.045q.017-.023.036-.045l.038-.045.035-.042a.407.407,0,0,1,.042-.041q.019-.023.039-.042l.041-.042.042-.038L47,28.235l.041-.035.045-.038.045-.036a.458.458,0,0,0,.045-.035l.048-.032c.015-.011.031-.021.048-.032s.031-.021.049-.032a.292.292,0,0,1,.048-.029.382.382,0,0,1,.048-.029c.017-.011.034-.02.051-.029l.052-.026.051-.025.051-.026a.338.338,0,0,1,.052-.022c.017-.009.034-.016.051-.023l.054-.019a.332.332,0,0,1,.055-.022.426.426,0,0,1,.054-.017l.055-.019A.535.535,0,0,0,48,27.693l.054-.013.058-.012.054-.013.055-.013a.415.415,0,0,0,.058-.01l.057-.006.055-.007.058-.006.057-.007a.549.549,0,0,0,.058,0h.228a.549.549,0,0,0,.058,0l.057.007.058.006.055.007.058.006a.378.378,0,0,0,.057.01l.055.013.054.013.058.012.055.013a.458.458,0,0,0,.054.016l.055.019a.426.426,0,0,1,.054.017.332.332,0,0,1,.055.022l.054.019c.017.007.035.014.052.023a.374.374,0,0,1,.051.022l.051.026.052.025.051.026c.017.009.034.018.051.029a.382.382,0,0,1,.048.029.264.264,0,0,1,.049.029c.017.011.033.021.048.032s.033.021.048.032l.048.032a.458.458,0,0,0,.045.035q.023.019.045.036l.045.038.041.035.042.039.042.038.042.042.038.042a.407.407,0,0,1,.042.041l.035.042.038.045q.02.023.036.045c.013.015.024.03.035.045l.035.045.032.048q.016.023.033.048a.377.377,0,0,1,.028.048c.011.017.021.034.029.048a.451.451,0,0,1,.029.052c.011.017.02.033.029.048l.026.051.025.052a.438.438,0,0,1,.023.054c.008.017.016.034.022.051a.453.453,0,0,1,.023.055l.019.051c.006.02.013.038.019.055s.013.035.019.054.01.036.017.055a.308.308,0,0,0,.016.054l.012.058.013.055.013.054a.391.391,0,0,0,.01.058c0,.019.005.038.009.058l.007.054.006.058.007.058a.544.544,0,0,0,0,.057.468.468,0,0,0,0,.055Z" stroke="#cc1f36" stroke-width="1.604"/>
    <g>
      <rect fill="#cc1f36" x="8.216" width="25.563" height="9.857" y="12.774"/>
      <path fill="#cc1f36" d="M32.974,13.579v8.247H9.02V13.579H32.974m1.609-1.609H7.411V23.436H34.583V11.97Z" transform="translate(0 0)"/>
    </g>
    <g>
      <polygon fill="#cc1f36" points="28.553 26.066 28.542 25.473 40.639 25.702 40.639 26.556 28.553 26.066"/>
      <polygon fill="#cc1f36" points="27.726 24.655 27.764 26.837 41.441 27.392 41.441 24.915 27.726 24.655 27.726 24.655"/>
    </g>
    <g>
      <polygon fill="#cc1f36" points="38.502 24.392 44.298 24.723 41.191 28.667 38.635 28.7 38.502 24.392"/>
      <path fill="#cc1f36" d="M39.331,25.243l3.385.193L40.8,27.87l-1.387.018-.081-2.645m-1.657-1.7.183,5.97,3.728-.048,4.3-5.454-8.207-.468Z" transform="translate(0 0)"/>
    </g>
    <g>
      <rect fill="#cc1f36" x="37.975" width="2.011" height="8.081" y="20.579"/>
      <path fill="#cc1f36" d="M39.053,21.511v6.217h-.146V21.511h.146m1.865-1.864H37.042v9.945h3.876V19.647Z" transform="translate(0 0)"/>
    </g>
    <g>
      <rect fill="#cc1f36" x="40.253" width="4.478" height="2.557" y="20.693"/>
      <path fill="#cc1f36" d="M43.929,21.5v.953H41.056V21.5h2.873m1.6-1.6H39.452v4.161h6.079l0-4.161Z" transform="translate(0 0)"/>
    </g>
    <g>
      <rect fill="#cc1f36" x="37.905" width="7.052" height="0.786" y="20.456"/>
      <polygon fill="#cc1f36" points="45.759 19.653 37.103 19.653 37.103 22.044 45.759 22.044 45.759 19.653 45.759 19.653"/>
    </g>
    <g>
      <polygon fill="#cc1f36" points="45.16 21.642 45.184 21.595 48.43 21.595 48.503 21.647 45.16 21.642"/>
      <polygon fill="#cc1f36" points="48.688 20.792 44.681 20.792 43.882 22.441 50.992 22.454 48.688 20.792 48.688 20.792"/>
    </g>
    <g>
      <rect fill="#cc1f36" x="37.068" width="1.559" height="11.354" y="14.716"/>
      <polygon fill="#cc1f36" points="38.627 14.716 37.068 14.716 37.068 26.07 38.627 26.07 38.627 14.716 38.627 14.716"/>
    </g>
    <g>
      <rect fill="#cc1f36" x="38.8" width="4.499" height="0.814" y="15.069"/>
      <polygon fill="#cc1f36" points="44.1 14.267 37.998 14.267 37.998 16.686 44.1 16.686 44.1 14.267 44.1 14.267"/>
    </g>
    <g>
      <rect fill="#cc1f36" x="43.731" width="1.514" height="6.744" y="15.046"/>
      <polygon fill="#cc1f36" points="45.246 15.046 43.731 15.046 43.731 21.79 45.246 21.79 45.246 15.046 45.246 15.046"/>
    </g>
    <g>
      <rect fill="#cc1f36" x="28.931" width="4.844" height="4.756" y="21"/>
      <path fill="#cc1f36" d="M32.968,21.808v3.141H29.739V21.808h3.229m1.615-1.616h-6.46v6.372h6.46V20.192Z" transform="translate(0 0)"/>
    </g>
    <g>
      <rect fill="#cc1f36" x="13.488" width="0.943" height="0.943" y="12.082"/>
      <polygon fill="#cc1f36" points="15.233 11.28 12.685 11.28 12.685 13.827 15.233 13.827 15.233 11.28 15.233 11.28"/>
    </g>
    <g>
      <rect fill="#cc1f36" x="20.132" width="0.943" height="0.943" y="12.082"/>
      <polygon fill="#cc1f36" points="21.877 11.28 19.33 11.28 19.33 13.827 21.877 13.827 21.877 11.28 21.877 11.28"/>
    </g>
    <g>
      <rect fill="#cc1f36" x="26.375" width="0.943" height="0.943" y="12.082"/>
      <polygon fill="#cc1f36" points="28.12 11.28 25.573 11.28 25.573 13.827 28.12 13.827 28.12 11.28 28.12 11.28"/>
    </g>
    <g>
      <path fill="#cc1f36" d="M40.94,28.791a2.888,2.888,0,0,1-.427-.066,2.155,2.155,0,0,1-.348-.092,1.349,1.349,0,0,1-.239-.132l-.135-.088c-.029-.033-.063-.072-.1-.116a1.748,1.748,0,0,1-.191-.29,4.1,4.1,0,0,1-.275-.691,6.336,6.336,0,0,1-.23-.817,4.881,4.881,0,0,1-.087-.7,6.241,6.241,0,0,1,.017-.882,4.877,4.877,0,0,1,.148-.867,4.223,4.223,0,0,1,.168-.526c.046-.1.1-.2.153-.289a1.905,1.905,0,0,1,.186-.256,2.59,2.59,0,0,1,.283-.267c.118-.093.222-.174.3-.229s.3-.175.644-.368l.246-.11,3.367.313c.025,0,.05,0,.074,0a.8.8,0,0,0,.57-.239c.155-.034.258-.059.261-.06.158-.031.251-.046.368-.061l.625-.084c.244-.031.438-.052.574-.062s.482-.022,1.027-.037l1.048-.026c.124,0,.213,0,.311.007.151.006.256.011.322.016s.192.029.364.062a3.145,3.145,0,0,1,.492.135,3.1,3.1,0,0,1,.437.2,2.32,2.32,0,0,1,.375.257,1.825,1.825,0,0,1,.293.332,1.314,1.314,0,0,1,.165.278c.023.065.042.119.055.165q-.109-.057-.24-.129a7.254,7.254,0,0,0-.783-.283,3.86,3.86,0,0,0-.876-.153c-.073,0-.15-.007-.23-.007a6.087,6.087,0,0,0-.831.064,5.854,5.854,0,0,0-1.1.254,8.454,8.454,0,0,0-.942.384,6.122,6.122,0,0,0-.964.573,6.876,6.876,0,0,0-.779.653,6.705,6.705,0,0,0-.525.574c-.131.169-.238.316-.327.447s-.212.335-.383.627l-.431.726c-.12.2-.23.38-.33.53s-.2.286-.331.442a3.7,3.7,0,0,1-.384.4,1.892,1.892,0,0,1-.39.26c-.15.075-.246.123-.285.14l-.131.03a1.43,1.43,0,0,1-.255.048,2.043,2.043,0,0,1-.225.011Z" transform="translate(0 0)"/>
      <path fill="#cc1f36" d="M46.249,22.7a6.9,6.9,0,0,0-.906.556,7.507,7.507,0,0,0-.872.732,7.242,7.242,0,0,0-.6.659c-.139.178-.257.34-.354.484s-.229.359-.406.664l-.431.728c-.113.189-.215.354-.308.494-.081.12-.176.247-.279.372a2.748,2.748,0,0,1-.292.3,1.122,1.122,0,0,1-.22.149l-.183.091-.09.025a.828.828,0,0,1-.13.025q-.066.006-.144.006h-.051a2.051,2.051,0,0,1-.3-.049c-.1-.022-.18-.039-.214-.05a1.277,1.277,0,0,1-.114-.068l-.036-.024-.015-.017a1.017,1.017,0,0,1-.109-.173,3.647,3.647,0,0,1-.214-.554,5.793,5.793,0,0,1-.2-.722,4.241,4.241,0,0,1-.071-.59,5.033,5.033,0,0,1,.017-.751,4.007,4.007,0,0,1,.121-.724c.08-.29.121-.4.12-.4h0a2.514,2.514,0,0,1,.118-.225.994.994,0,0,1,.088-.121,1.762,1.762,0,0,1,.181-.175c.111-.088.2-.157.234-.181.081-.052.266-.157.553-.317l.058-.026,3.151.294c.05.005.1.007.149.007a1.6,1.6,0,0,0,.935-.3l.073-.017.067-.013c.057-.011.134-.023.229-.036l.45-.06m2.744-1.746h-.084l-1.01.026c-.565.015-.92.027-1.065.038s-.353.033-.623.067l-.622.084c-.143.019-.257.037-.34.054a1.087,1.087,0,0,0-.148.033l-.26.057a.531.531,0,0,0-.346.209l-3.584-.334-.314.148-.18.08q-.558.311-.7.4t-.366.276a3.335,3.335,0,0,0-.385.369,2.6,2.6,0,0,0-.263.363,4.051,4.051,0,0,0-.193.365,5.151,5.151,0,0,0-.211.645,5.624,5.624,0,0,0-.174,1.014,6.647,6.647,0,0,0-.019.994,5.645,5.645,0,0,0,.1.8,7.327,7.327,0,0,0,.256.918,4.982,4.982,0,0,0,.334.825,2.524,2.524,0,0,0,.3.442c.1.114.159.176.167.186s.085.059.228.151a2.258,2.258,0,0,0,.362.2,2.982,2.982,0,0,0,.5.138,3.477,3.477,0,0,0,.574.083c.039,0,.078,0,.116,0,.111,0,.213-.005.307-.014a2.43,2.43,0,0,0,.392-.074l.227-.064c.02-.007.132-.061.337-.164a2.759,2.759,0,0,0,.559-.375,4.45,4.45,0,0,0,.471-.488c.146-.177.272-.347.379-.507s.224-.349.353-.565l.433-.731q.237-.406.356-.584c.079-.118.175-.249.289-.395a5.711,5.711,0,0,1,.462-.5,5.883,5.883,0,0,1,.686-.575,5.287,5.287,0,0,1,.837-.5,7.609,7.609,0,0,1,.857-.349,5.091,5.091,0,0,1,.953-.219,5.476,5.476,0,0,1,.721-.056c.063,0,.123,0,.18,0a3.129,3.129,0,0,1,.7.122c.222.066.432.139.628.218q.293.16.488.254a1.587,1.587,0,0,0,.257.1.612.612,0,0,0,.122.026h.013a.79.79,0,0,0,.176-.036.578.578,0,0,0,.218-.1.411.411,0,0,0,.106-.138,1.25,1.25,0,0,0,.058-.368,1.465,1.465,0,0,0-.01-.418,3.1,3.1,0,0,0-.1-.324,1.959,1.959,0,0,0-.267-.478,2.6,2.6,0,0,0-.439-.491,3.144,3.144,0,0,0-.507-.346,3.957,3.957,0,0,0-.536-.241,4.027,4.027,0,0,0-.619-.17,4.281,4.281,0,0,0-.449-.073c-.073-.007-.192-.013-.356-.02-.123,0-.23-.007-.321-.007Z" transform="translate(0 0)"/>
    </g>
    <g>
      <path fill="#cc1f36" d="M9.046,26.283a2.4,2.4,0,0,1-.356-.52,4.443,4.443,0,0,1-.251-.547,4.928,4.928,0,0,1-.148-.657q-.085-.468-.1-.549c0-.019,0-.205.007-.513a3.88,3.88,0,0,1,.04-.642L8.3,22.57c0,.014,0,.02,0,.02s.021-.03.039-.065a1.035,1.035,0,0,1,.092-.164.714.714,0,0,1,.11-.111,1.12,1.12,0,0,1,.183-.131A1.462,1.462,0,0,1,8.979,22a1.787,1.787,0,0,1,.294-.084,2.645,2.645,0,0,1,.419-.041c.176-.007.306-.016.389-.023l-.068.007c.009,0,.267.019.736.053q.792.055,1.313.075c.179.007.371.011.577.011s.417,0,.645-.011c.448-.015.761-.027.943-.035l1.525-.1c.43-.029.77-.051,1.025-.063s1.958-.073,1.958-.073c.276-.011.883-.025,1.828-.042q.941-.017,1.542-.017c.2,0,.368,0,.51,0,.421.009.8.027,1.15.055s.635.062.87.093.552.086.967.173a8.791,8.791,0,0,1,1.051.277c.289.1.471.163.547.2.05.025.184.11.384.24s.335.221.376.25c0,0,.068.075.171.183a3,3,0,0,1,.234.27c.042.063.1.159.17.278a2.749,2.749,0,0,1,.157.346,2.49,2.49,0,0,1,.1.365,3,3,0,0,1,.013.566,3.623,3.623,0,0,1-.038.49h0s-.039.088-.171.311c-.049.083-.089.149-.122.2a.618.618,0,0,1-.064.031c.016-.013-.042-.017-.113-.022a1.418,1.418,0,0,1-.22-.03.934.934,0,0,1-.156-.089,3.6,3.6,0,0,1-.43-.406q-.372-.384-.561-.594c-.141-.159-.244-.272-.3-.332-.039-.042-.2-.2-.457-.464a.809.809,0,0,0-.088-.077c-.328-.245-.54-.392-.631-.444s-.2-.106-.3-.151a2.518,2.518,0,0,0-.731-.19,3.982,3.982,0,0,0-.62-.058c-.02,0-.307.016-.309.016a1.609,1.609,0,0,0-.387.065,4.412,4.412,0,0,0-.474.144,4.966,4.966,0,0,0-.551.256q-.287.153-1.179.693l-.693.439a7.018,7.018,0,0,1-.885.469,1.657,1.657,0,0,1-.372.1,1.515,1.515,0,0,1-.194.013q-.063,0-.126-.006a2.6,2.6,0,0,1-.426-.1,3.335,3.335,0,0,1-.619-.284c-.279-.158-.5-.29-.67-.4-.2-.126-.376-.239-.547-.342a6.191,6.191,0,0,0-.559-.294,4.85,4.85,0,0,0-.531-.215,4.437,4.437,0,0,0-.554-.149,3.228,3.228,0,0,0-.694-.072h0a3.362,3.362,0,0,0-.612.046,3.741,3.741,0,0,0-.549.155,4.84,4.84,0,0,0-.558.246c-.172.092-.3.164-.389.222s-.2.137-.327.228-.313.238-.558.448-.471.419-.7.649-.433.432-.631.634c0,0-.224.181-.245.2-.069.008-.352.025-.385.027Z" transform="translate(0 0)"/>
      <path fill="#cc1f36" d="M22.107,22.456c.191,0,.355,0,.493,0l.174,0c-.142.04-.282.085-.423.137a5.6,5.6,0,0,0-.646.3c-.134.072-.406.224-1.24.729l-.658.416a6.131,6.131,0,0,1-.777.416.639.639,0,0,1-.289.06h0a1.642,1.642,0,0,1-.293-.071,2.468,2.468,0,0,1-.464-.219c-.258-.144-.465-.267-.629-.374-.2-.129-.388-.247-.574-.358a6.582,6.582,0,0,0-.613-.323,5.66,5.66,0,0,0-.607-.248,5.221,5.221,0,0,0-.645-.177l-.158-.031.125-.008c.191-.014.5-.035.932-.063s.754-.05,1-.062.57-.025.958-.038.716-.026,1-.035q.4-.016,1.8-.041.933-.017,1.53-.017m-12.094.207q.174.011.68.047c.539.038.984.063,1.338.077q.284.011.608.011l.31,0c-.115.032-.237.072-.371.119a5.685,5.685,0,0,0-.648.289c-.19.1-.335.185-.465.268-.09.06-.2.139-.327.228-.161.115-.359.273-.622.5s-.5.446-.746.689c-.144.142-.282.281-.416.415a3.176,3.176,0,0,1-.158-.35,4.231,4.231,0,0,1-.116-.533c-.04-.221-.067-.376-.081-.454s0-.242,0-.449A4.4,4.4,0,0,1,9.029,23l.024-.12,0-.01.011-.021.01-.009a.346.346,0,0,1,.063-.041.7.7,0,0,1,.124-.054.958.958,0,0,1,.183-.051,1.952,1.952,0,0,1,.272-.023l.293-.011m15.922.216c.17.044.324.09.46.137.212.072.362.125.444.156s.171.106.3.191l.282.185.116.122c.078.083.137.148.15.162.043.063.094.147.139.223a1.823,1.823,0,0,1,.106.233,1.881,1.881,0,0,1,.069.228,2.508,2.508,0,0,1,0,.3c-.208-.216-.367-.385-.47-.5-.16-.182-.274-.3-.319-.349s-.215-.22-.48-.487a1.565,1.565,0,0,0-.174-.152c-.33-.248-.5-.369-.631-.449m-3.828-2.027q-.607,0-1.558.017-1.431.026-1.839.042c-.273.009-.606.02-1,.035s-.715.026-.976.039-.6.034-1.036.064-.748.049-.943.064-.386.025-.568.035-.49.021-.93.036c-.22.006-.426.009-.621.009s-.377,0-.547-.009q-.51-.02-1.287-.074t-.792-.055c-.011,0-.128.008-.353.016a3.44,3.44,0,0,0-.536.055,2.514,2.514,0,0,0-.42.119,2.3,2.3,0,0,0-.385.179,1.833,1.833,0,0,0-.305.219,1.541,1.541,0,0,0-.215.218,1.717,1.717,0,0,0-.176.295,1.262,1.262,0,0,0-.112.253c-.007.037-.025.13-.055.279a4.93,4.93,0,0,0-.058.8c0,.381,0,.588,0,.623s.039.233.1.59a5.576,5.576,0,0,0,.18.776,5.083,5.083,0,0,0,.3.658,3.168,3.168,0,0,0,.484.7l.276.292.021,0c.054,0,.21-.007.467-.021a1.827,1.827,0,0,0,.555-.077,2,2,0,0,0,.247-.173l.247-.206q.293-.3.622-.625t.661-.61q.332-.282.507-.407c.116-.084.212-.151.289-.2s.186-.111.327-.186a3.786,3.786,0,0,1,.456-.2,2.846,2.846,0,0,1,.43-.122,2.3,2.3,0,0,1,.425-.033h.043a2.528,2.528,0,0,1,.533.054,3.681,3.681,0,0,1,.462.125,4.092,4.092,0,0,1,.449.183,5.223,5.223,0,0,1,.481.254q.248.147.52.324c.179.117.418.259.715.426a4,4,0,0,0,.777.353,3.352,3.352,0,0,0,.58.132,2.074,2.074,0,0,0,.209.011,2.112,2.112,0,0,0,.295-.021,2.4,2.4,0,0,0,.552-.147,7.969,7.969,0,0,0,1.033-.543l.68-.43q.863-.522,1.139-.67a4.133,4.133,0,0,1,.452-.212,3.562,3.562,0,0,1,.376-.115c.13-.03.2-.045.208-.045h.01c.026,0,.095,0,.208-.013.028,0,.059,0,.092,0a3.32,3.32,0,0,1,.5.048,2.086,2.086,0,0,1,.51.122c.082.038.163.08.244.125s.261.174.546.388l.462.468c.053.054.144.153.272.3s.324.35.581.616a4.307,4.307,0,0,0,.568.52,1.7,1.7,0,0,0,.327.173,1.745,1.745,0,0,0,.427.074c.095.007.174.011.236.011a.625.625,0,0,0,.136-.011,1,1,0,0,0,.2-.068A1.358,1.358,0,0,0,29,26.577a1.745,1.745,0,0,0,.292-.414,2.6,2.6,0,0,0,.257-.514,5.42,5.42,0,0,0,.038-1.411,3.212,3.212,0,0,0-.141-.5,3.418,3.418,0,0,0-.215-.468c-.079-.135-.147-.244-.2-.327a3.817,3.817,0,0,0-.311-.366q-.228-.24-.279-.279t-.414-.276c-.244-.158-.408-.258-.491-.3s-.291-.114-.616-.225a9.546,9.546,0,0,0-1.149-.3c-.442-.092-.785-.153-1.026-.183s-.547-.064-.908-.1-.762-.049-1.2-.057c-.146,0-.321,0-.524,0Z" transform="translate(0 0)"/>
    </g>
  </g>
</svg>