<!-- Generator: Adobe Illustrator 25.2.3, SVG Export Plug-In . SVG Version: 6.00 Build 0)  --><svg x="0px" enable-background="new 0 0 60 60" y="0px" width="60px" xmlns:xlink="http://www.w3.org/1999/xlink" viewBox="0 0 60 60" height="60px" id="Layer_1" xmlns="http://www.w3.org/2000/svg" xml:space="preserve" version="1.1">
<rect width="60" fill="#CB2026" x="-0.012" height="60" id="UnitColor_2_" y="-0.085"/>
<rect width="60" fill="#640D0D" height="20.2" id="CS_1_" y="11.533" display="none"/>
<g id="Gar" display="none">
	<rect width="14.843" fill="none" x="0.73" height="8.039" y="2.802" display="inline"/>
	<path fill="#FFFFFF" d="M11.03,10.06c-0.472,0.163-1.361,0.379-2.249,0.379c-1.231,0-2.119-0.308-2.739-0.903   C5.424,8.949,5.085,8.072,5.089,7.083C5.097,4.842,6.73,3.567,8.936,3.567c0.87,0,1.539,0.165,1.873,0.323L10.49,5.111   C10.117,4.95,9.664,4.825,8.922,4.825c-1.27,0-2.235,0.714-2.235,2.18c0,1.391,0.878,2.205,2.125,2.205   c0.344,0,0.623-0.04,0.745-0.095V7.699H8.516V6.512h2.514V10.06z" display="inline"/>
</g>
<g id="Eng" display="none">
	<rect width="27.832" fill="none" x="1.1" height="8.039" y="2.802" display="inline"/>
	<path fill="#FFFFFF" d="M17.011,7.521h-2.479v1.602h2.771v1.248h-4.294V3.634h4.15v1.248h-2.626v1.403h2.479   V7.521z" display="inline"/>
</g>
<g id="P2" display="none">
	<path fill="#FFFFFF" d="M19.024,28.186c0.472-1.148,0.803-2.149,0.992-3.001c0.282-1.24,0.423-2.417,0.423-3.534   c0-1.066-0.099-2.078-0.295-3.035c-0.197-0.957-0.575-2.146-1.135-3.568h1.146c0.628,1.03,1.101,2.092,1.419,3.186   c0.319,1.094,0.478,2.185,0.478,3.274c0,1.094-0.159,2.218-0.476,3.374s-0.786,2.257-1.407,3.305H19.024z" display="inline"/>
</g>
<g id="P1" display="none">
	<path fill="#FFFFFF" d="M8.327,28.186H7.182c-0.605-1.025-1.071-2.111-1.396-3.257s-0.487-2.257-0.487-3.333   c0-1.162,0.163-2.296,0.489-3.401c0.326-1.105,0.795-2.154,1.408-3.148h1.146c-0.56,1.422-0.938,2.611-1.135,3.568   c-0.197,0.957-0.295,1.969-0.295,3.035c0,1.103,0.139,2.27,0.416,3.5C7.522,26.016,7.855,27.028,8.327,28.186z" display="inline"/>
</g>
<g id="Type">
	<path fill="#FFFFFF" d="M53.265,12.893v17.022H26.785V12.893H53.265z M34.536,22.832c0,0.41-0.083,0.798-0.212,1.165l4.322-2.593   l-10.443-6.265v5.526c0.649-0.833,1.649-1.378,2.787-1.378c0.001,0,0.001,0,0.002,0C32.95,19.288,34.537,20.875,34.536,22.832z    M28.204,25v2.669l2.244-1.347C29.536,26.182,28.747,25.696,28.204,25z M33.118,22.832c0-1.175-0.952-2.127-2.127-2.127   c-1.174,0.002-2.125,0.953-2.127,2.127c0,1.174,0.952,2.127,2.127,2.127C32.166,24.959,33.118,24.006,33.118,22.832z    M50.468,14.312H29.583l10.443,6.265L50.468,14.312z M29.583,28.497h20.885l-10.442-6.265L29.583,28.497z M51.846,20.65v-5.512   l-10.441,6.265l4.337,2.603c-0.131-0.37-0.215-0.76-0.215-1.174c0-1.958,1.588-3.545,3.545-3.545   C50.201,19.287,51.197,19.826,51.846,20.65z M49.071,24.959c1.175,0,2.127-0.953,2.127-2.127c0-1.175-0.952-2.127-2.127-2.127   c-1.174,0.002-2.125,0.953-2.127,2.127C46.944,24.006,47.897,24.959,49.071,24.959z M49.604,26.323l2.242,1.346v-2.654   C51.302,25.706,50.513,26.185,49.604,26.323z"/>
</g>
<g id="STK">
	<path fill="#FFFFFF" d="M13.307,17.911h-0.036l-2.139,1.074l-0.386-1.671l2.857-1.406h1.847v11.703h-2.144V17.911z"/>
</g>
<g id="ECH">
	<rect width="27.832" x="26.078" fill="none" height="8.039" y="2.802"/>
	<path fill="#FFFFFF" d="M39.33,3.634v6.736h-1.523V3.634H39.33z"/>
	<path fill="#FFFFFF" d="M42.18,3.634v6.736h-1.522V3.634H42.18z"/>
</g>
<g id="PF">
	<rect width="60" x="0" fill="none" height="15.475" y="44.525"/>
	<path fill="#FFFFFF" d="M29.696,52.494v0.939H27.71v-0.939H29.696z"/>
	<path fill="#FFFFFF" d="M32.285,52.494v0.939H30.3v-0.939H32.285z"/>
</g>
<g id="Des">
	<rect width="60" x="0" fill="none" height="14.525" y="31.722"/>
	<path fill="#FFFFFF" d="M8.714,45.212v-4.864l-2.672-7.271h2.047l0.938,2.959c0.26,0.811,0.533,1.739,0.755,2.65h0.036   c0.193-0.901,0.446-1.804,0.711-2.704l0.855-2.905h1.996l-2.745,7.195v4.94H8.714z"/>
	<path fill="#FFFFFF" d="M14.123,38.916c0-0.812-0.044-1.725-0.072-2.47h1.681l0.098,1.322h0.056   c0.339-0.889,1.065-1.466,1.781-1.466c0.187,0,0.292,0.01,0.408,0.03v1.922c-0.118-0.021-0.244-0.021-0.411-0.021   c-0.665,0-1.334,0.556-1.539,1.505c-0.049,0.211-0.08,0.507-0.08,0.841v4.632h-1.922V38.916z"/>
	<path fill="#FFFFFF" d="M20.948,40.391h0.036c0.162-0.437,0.304-0.784,0.455-1.115l1.402-2.829h2.076l-2.21,3.678l2.368,5.088   h-2.143l-1.539-3.838l-0.445,0.785v3.053h-1.912v-12.46h1.912V40.391z"/>
	<path fill="#FFFFFF" d="M26.169,33.257c0.558-0.149,1.329-0.234,2.156-0.234c1.414,0,2.408,0.339,3.135,1.005   c0.995,0.882,1.603,2.471,1.603,4.902c0,2.603-0.65,4.237-1.58,5.134c-0.808,0.832-1.991,1.233-3.545,1.233   c-0.666,0-1.336-0.06-1.768-0.129V33.257z M28.081,43.675c0.16,0.036,0.345,0.036,0.471,0.036c1.314,0,2.522-1.108,2.522-4.807   c0-2.747-0.778-4.335-2.442-4.335c-0.19,0-0.386,0.016-0.551,0.062V43.675z"/>
	<path fill="#FFFFFF" d="M34.57,38.916c0-0.812-0.044-1.725-0.072-2.47h1.681l0.098,1.322h0.057c0.339-0.889,1.064-1.466,1.78-1.466   c0.187,0,0.292,0.01,0.408,0.03v1.922c-0.118-0.021-0.244-0.021-0.411-0.021c-0.665,0-1.334,0.556-1.539,1.505   c-0.049,0.211-0.08,0.507-0.08,0.841v4.632H34.57V38.916z"/>
	<path fill="#FFFFFF" d="M45.312,36.446c-0.038,0.714-0.082,1.572-0.082,2.757v4.956c0,2.078-0.323,3.036-0.974,3.702   c-0.594,0.607-1.473,0.952-2.616,0.952c-0.784,0-1.52-0.157-2.074-0.422l0.386-1.489c0.4,0.193,0.964,0.376,1.656,0.376   c1.146,0,1.711-0.743,1.711-2.374v-0.688h-0.036c-0.299,0.612-0.926,0.955-1.618,0.955c-1.78,0-2.664-1.968-2.664-4.28   c0-3.057,1.387-4.588,2.867-4.588c0.796,0,1.312,0.479,1.62,1.078h0.036l0.098-0.935H45.312z M43.318,39.565   c0-0.227-0.031-0.463-0.085-0.641c-0.129-0.475-0.407-0.995-0.982-0.995c-0.914,0-1.345,1.24-1.345,2.899   c0,1.906,0.57,2.817,1.321,2.817c0.361,0,0.769-0.175,0.987-0.913c0.083-0.232,0.104-0.492,0.104-0.734V39.565z"/>
	<path fill="#FFFFFF" d="M46.961,38.916c0-0.99-0.043-1.693-0.071-2.47h1.665l0.098,1.031h0.036   c0.416-0.702,1.154-1.175,2.072-1.175c1.461,0,2.239,1.135,2.239,3.167v5.742h-1.922v-5.559c0-0.876-0.186-1.731-1.022-1.731   c-0.478,0-0.905,0.366-1.075,1.072c-0.057,0.193-0.098,0.477-0.098,0.798v5.42h-1.922V38.916z"/>
</g>
<g>
</g>
<g>
</g>
<g>
</g>
<g>
</g>
<g>
</g>
<g>
</g>
</svg>