<svg width="60" height="60" xmlns="http://www.w3.org/2000/svg" viewBox="0 0 60 60">
  <rect fill="#fff" height="60" width="60"/>
  <g>
    <g>
      <g>
        <path fill="#cb2026" d="M43.6,31.6v.115c0,.019,0,.039,0,.058a.544.544,0,0,0,0,.057l0,.056c0,.019,0,.038.007.058a.551.551,0,0,0,.006.057l.009.058.009.055c0,.019.007.039.011.058s.007.036.011.055l.014.056a.494.494,0,0,0,.015.055c.005.019.01.038.016.055s.009.037.015.056.013.035.02.053l.018.055.022.054.022.053.022.053.025.051.024.051c.009.018.019.034.029.051l.026.051c.009.016.019.032.029.048l.031.049a.5.5,0,0,0,.031.049l.031.049c.012.015.023.03.034.046l.035.047a.289.289,0,0,0,.036.044l.035.045c.012.014.024.029.038.044a.37.37,0,0,0,.037.042l.04.042c.013.013.027.027.04.042l.04.04.042.038.044.04.045.035.044.038.044.033.047.035.046.034.049.031.047.031.051.031c.016.009.032.018.048.029l.051.026.051.027q.026.014.051.024l.054.024a.4.4,0,0,0,.051.025l.053.022.053.02.055.018.053.02.056.015.055.016.056.015.055.014.058.011.055.011.058.009.057.008.056.007.057,0,.058.005.058,0a.543.543,0,0,0,.057,0h.115l.056,0,.057,0,.058,0a.57.57,0,0,1,.058-.006l.057-.009.056-.009.057-.009.056-.011.055-.013.056-.014a.494.494,0,0,0,.055-.015l.055-.016.056-.017c.018-.008.035-.014.053-.02l.055-.02.054-.022.053-.023.051-.022.053-.026.051-.025.049-.029.051-.026.048-.031c.017-.009.033-.019.049-.029s.033-.023.049-.033l.046-.033a.566.566,0,0,0,.047-.034l.046-.033c.015-.012.03-.024.045-.038l.044-.035.042-.038a.533.533,0,0,0,.042-.04.533.533,0,0,0,.042-.04l.04-.039c.014-.014.027-.028.04-.043a.533.533,0,0,0,.04-.042c.012-.014.024-.029.038-.044s.023-.028.035-.044l.036-.045.035-.044.033-.046.034-.049c.01-.016.02-.032.031-.047l.031-.048.028-.051c.011-.017.02-.033.029-.049s.018-.035.027-.051l.026-.051c.008-.018.016-.036.025-.053l.022-.051c.009-.018.017-.036.024-.053s.013-.036.02-.054a.446.446,0,0,0,.02-.055c.006-.018.013-.036.02-.053s.011-.036.016-.056l.017-.055L48.6,32.3a.512.512,0,0,0,.015-.056.486.486,0,0,0,.011-.055c0-.019.008-.039.011-.058a.488.488,0,0,0,.012-.055l.008-.058c0-.019.006-.038.007-.055s.005-.039.007-.058l0-.058,0-.057a.562.562,0,0,1,0-.058v-.115a.5.5,0,0,1,0-.055.578.578,0,0,1,0-.058l0-.058c0-.019,0-.038-.007-.057a.542.542,0,0,0-.006-.058l-.009-.055-.009-.058c0-.019-.007-.038-.011-.055s-.007-.039-.011-.058l-.014-.055c0-.018-.009-.037-.015-.056s-.01-.036-.016-.055l-.017-.056c0-.017-.011-.035-.018-.053l-.02-.055c-.006-.018-.013-.036-.02-.053l-.022-.054-.022-.051c-.009-.017-.017-.035-.025-.053s-.017-.035-.026-.051l-.027-.051-.026-.051c-.011-.016-.02-.032-.029-.048l-.031-.049-.031-.049-.031-.046L48.2,30.17l-.035-.044-.035-.047-.036-.044c-.012-.015-.024-.03-.038-.045l-.037-.042a.533.533,0,0,1-.04-.042l-.04-.04-.042-.04-.042-.04-.042-.037-.045-.038-.044-.035-.044-.036-.047-.035a.548.548,0,0,1-.046-.034l-.049-.03-.049-.032-.049-.031-.048-.028-.051-.027-.051-.027c-.017-.008-.034-.017-.051-.024s-.036-.017-.054-.024l-.051-.025-.053-.02-.055-.022-.053-.018c-.018-.007-.036-.014-.056-.02l-.053-.015-.055-.015c-.019-.006-.038-.012-.056-.016l-.057-.013-.056-.011-.055-.011-.058-.009a.554.554,0,0,0-.057-.007l-.056-.007a.551.551,0,0,0-.057-.006l-.058,0-.058,0-.057,0h-.058l-.057,0-.058,0-.055,0a.542.542,0,0,0-.058.006l-.058,0-.057.008-.056.009-.057.009-.056.011-.055.013-.058.014a.441.441,0,0,1-.055.015l-.053.018-.056.018-.055.018c-.018.007-.036.014-.053.019l-.054.023-.053.022q-.026.011-.051.024c-.017.007-.035.016-.053.025l-.051.026-.051.027c-.016.008-.032.018-.049.028l-.048.029-.049.031-.049.031a.548.548,0,0,0-.046.034.4.4,0,0,0-.047.033l-.046.035-.045.036-.044.035-.042.04-.045.038-.039.04-.043.04-.037.042c-.013.015-.027.029-.04.042s-.026.029-.038.044l-.035.044-.038.045a.484.484,0,0,0-.033.046.5.5,0,0,0-.033.047c-.012.015-.023.03-.034.046L44,30.3l-.031.049a.476.476,0,0,0-.028.049.421.421,0,0,0-.029.051l-.027.048-.026.054c-.009.016-.017.033-.025.051s-.015.035-.024.053-.015.033-.022.051a.514.514,0,0,0-.02.055c-.008.018-.014.036-.02.053s-.014.036-.02.053l-.018.056c0,.018-.01.036-.015.055s-.01.037-.016.056l-.013.055c-.005.019-.008.038-.011.055l-.014.058-.008.056-.009.057a.573.573,0,0,0-.007.058c0,.017-.005.036-.007.055l0,.058,0,.057A.562.562,0,0,1,43.6,31.6Z" transform="translate(0 0)"/>
        <path fill="#cb2026" d="M45.406,30.433h0m.746-1.309h-.033l-.053,0h-.005l-.053,0h0l-.052,0a.542.542,0,0,0-.058.006l-.058,0-.057.008-.056.009-.057.009-.056.011-.055.013-.058.014a.441.441,0,0,1-.055.015l-.053.018-.056.018-.055.018c-.018.007-.036.014-.053.019l-.054.023-.053.022q-.026.011-.051.024c-.017.007-.035.016-.053.025l-.051.026-.051.027c-.016.008-.032.018-.049.028l-.048.029-.049.031-.049.031a.548.548,0,0,0-.046.034.4.4,0,0,0-.047.033l-.046.035-.045.036-.044.035-.042.04-.045.038-.039.04-.043.04-.037.042c-.013.015-.027.029-.04.042s-.026.029-.038.044l-.035.044-.038.045a.484.484,0,0,0-.033.046.5.5,0,0,0-.033.047c-.012.015-.023.03-.034.046L44,30.3l-.031.049a.476.476,0,0,0-.028.049.421.421,0,0,0-.029.051l-.027.048-.026.054c-.009.016-.017.033-.025.051s-.015.035-.024.053-.015.033-.022.051a.514.514,0,0,0-.02.055c-.008.018-.014.036-.02.053s-.014.036-.02.053l-.018.056c0,.018-.01.036-.015.055s-.01.037-.016.056l-.013.055c-.005.019-.008.038-.011.055l-.014.058-.008.056-.009.057a.573.573,0,0,0-.007.058c0,.017-.005.036-.007.055l0,.058,0,.057a.562.562,0,0,1,0,.058v.115c0,.019,0,.039,0,.058a.544.544,0,0,0,0,.057l0,.056c0,.019,0,.038.007.058a.551.551,0,0,0,.006.057l.009.058.009.055c0,.019.007.039.011.058s.007.036.011.055l.014.056a.494.494,0,0,0,.015.055c.005.019.01.038.016.055s.009.037.015.056.013.035.02.053l.018.055.022.054.022.053.022.053.025.051.024.051c.009.018.019.034.029.051l.026.051c.009.016.019.032.029.048l.031.049a.5.5,0,0,0,.031.049l.031.049c.012.015.023.03.034.046l.035.047a.289.289,0,0,0,.036.044l.035.044c.012.015.024.03.038.045a.37.37,0,0,0,.037.042l.04.042c.013.013.027.027.04.042l.04.04.042.038.044.04.045.035.044.038.044.033.047.035.046.034.049.031.047.031.051.031c.016.009.032.018.048.029l.051.026.051.027q.026.014.051.024l.054.024a.4.4,0,0,0,.051.025l.053.022.053.02.055.018.053.02.056.015.055.016.056.015.055.014.058.011.055.011.058.009.057.008.056.007.057,0,.058.005.058,0a.543.543,0,0,0,.057,0h.115l.052,0h0l.057,0,.058,0a.57.57,0,0,1,.058-.006l.057-.009.056-.009.057-.009.056-.011.055-.013.056-.014a.494.494,0,0,0,.055-.015l.055-.016.056-.017c.018-.008.035-.014.053-.02l.055-.02.054-.022.053-.023.051-.022.053-.026.051-.025.049-.029.051-.026.048-.031c.017-.009.033-.019.049-.029s.033-.023.049-.033l.046-.033a.566.566,0,0,0,.047-.034l.046-.033c.015-.012.03-.024.045-.038l.044-.035.042-.038a.533.533,0,0,0,.042-.04.533.533,0,0,0,.042-.04l.04-.039c.014-.014.027-.028.04-.043a.533.533,0,0,0,.04-.042c.012-.014.024-.029.038-.044s.023-.028.035-.044l.036-.045.035-.044.033-.046.034-.049c.01-.016.02-.032.031-.047l.031-.048.028-.051c.011-.017.02-.033.029-.049s.018-.035.027-.051l.026-.051c.008-.018.016-.036.025-.053l.022-.051c.009-.018.017-.036.024-.053s.013-.036.02-.054a.446.446,0,0,0,.02-.055c.006-.018.013-.036.02-.053s.011-.036.016-.056l.017-.055L48.6,32.3a.512.512,0,0,0,.015-.056.486.486,0,0,0,.011-.055c0-.019.008-.039.011-.058a.488.488,0,0,0,.012-.055l.008-.058c0-.019.006-.038.007-.055s.005-.039.007-.058l0-.058,0-.057a.562.562,0,0,1,0-.058v-.115a.5.5,0,0,1,0-.055.578.578,0,0,1,0-.058l0-.058c0-.019,0-.038-.007-.057a.542.542,0,0,0-.006-.058l-.009-.055-.009-.058c0-.019-.007-.038-.011-.055s-.007-.039-.011-.058l-.014-.055c0-.018-.009-.037-.015-.056s-.01-.036-.016-.055l-.017-.056c0-.017-.011-.035-.018-.053l-.02-.055c-.006-.018-.013-.036-.02-.053l-.022-.054-.022-.051c-.009-.017-.017-.035-.025-.053s-.017-.035-.026-.051l-.027-.051-.026-.051c-.011-.016-.02-.032-.029-.048l-.031-.049-.031-.049-.031-.046L48.2,30.17l-.035-.044-.035-.047-.036-.044c-.012-.015-.024-.03-.038-.045l-.037-.042a.533.533,0,0,1-.04-.042l-.04-.04-.042-.04-.042-.04-.042-.037-.045-.038-.044-.035-.044-.036-.047-.035a.548.548,0,0,1-.046-.034l-.049-.03-.049-.032-.049-.031-.048-.028-.051-.027-.051-.027c-.017-.008-.034-.017-.051-.024s-.036-.017-.054-.024l-.051-.025-.053-.02-.055-.022-.053-.018c-.018-.007-.036-.014-.056-.02l-.053-.015-.055-.015c-.019-.006-.038-.012-.056-.016l-.057-.013-.056-.011-.055-.011-.058-.009a.554.554,0,0,0-.057-.007l-.056-.007a.551.551,0,0,0-.057-.006l-.058,0-.053,0h-.005l-.053,0h-.033Z" transform="translate(0 0)"/>
      </g>
      <g>
        <polygon fill="#cb2026" points="30.905 29.475 45.526 29.676 46.155 33.677 30.585 36.692 30.905 29.475"/>
        <path fill="#cb2026" d="M31.435,30.036l13.617.187.473,3.011L31.17,36.015l.265-5.979m-1.059-1.123L30,37.37l16.785-3.251L46,29.128l-15.625-.215Z" transform="translate(0 0)"/>
      </g>
      <g>
        <path fill="#cb2026" d="M30.17,37.277l-.069-.1-.062-.1-.07-.129-.145-.323-.1-.288-.164-.543-.126-.511-.12-.581-.127-.768-.113-.854-.121-1.291-.067-1.166-.035-1.593.015-1.2.028-.778L29,25.511l.075-.733.153-1.111.089-.522.18-.834.2-.7.144-.4.119-.264.12-.219.065-.1.064-.079.073-.071.043.1.088.12.1.167.122.263.1.248c0,.011.154.465.154.465l.158.6.188.925.116.739.046.335.114,1.07.072.94.057,1.183.02,1-.018,1.493-.036.878-.1,1.428-.064.623c0,.006-.113.865-.113.865l-.131.788-.147.7-.162.617-.151.453-.106.268-.111.235-.112.194c-.013.014-.072.094-.082.11s-.047.045-.07.067Z" transform="translate(0 0)"/>
        <path fill="#cb2026" d="M30.247,21.693l.028.083.031.09.036.121.032.11.031.118.017.063.007.021c.013.056.027.112.033.133l.032.13.029.132.016.071.014.064.029.14.025.119.029.154.028.149.026.153.029.176.023.145.022.134.024.17.026.2.02.144.02.177.011.09.011.084.02.182.017.157.017.181.009.094.009.09.015.193.016.186.013.168.013.19.007.1.007.1.011.193.011.2.009.175,0,.1,0,.1.007.2.008.177,0,.2.006.225c0,.052,0,.1,0,.18l0,.177,0,.2v.586l0,.2,0,.226c0,.052,0,.1,0,.18l0,.2,0,.177-.01.225-.006.175,0,.1,0,.1-.011.2-.011.2-.009.171-.007.1-.007.1-.013.193-.015.191-.016.189-.014.175-.017.173-.018.184-.019.182L30.876,33l-.011.089-.014.119-.013.12-.028.2-.018.143-.024.166-.026.162-.026.164-.026.157-.021.128-.028.149-.028.147-.015.075-.014.069-.013.058-.017.082-.031.141-.021.1c-.015.057-.029.114-.031.13-.015.055-.029.111-.043.167l-.033.12-.021.082-.033.111-.017.059-.013.045-.036.106-.019.059-.009.023-.028-.082-.029-.09-.017-.061-.018-.059-.032-.111-.033-.118-.031-.119-.025-.091-.015-.066-.024-.1-.031-.133-.022-.1-.016-.074-.014-.067-.029-.15-.025-.122-.031-.18-.023-.122-.025-.157-.027-.164-.024-.162-.024-.17-.02-.139-.022-.175-.022-.175-.011-.088-.008-.059c-.006-.069-.014-.138-.02-.181l-.02-.184-.017-.182-.018-.184-.015-.192-.016-.186L29.5,31.75l-.013-.191-.007-.1-.006-.1-.011-.193L29.455,31l-.011-.2-.007-.144v-.031l-.008-.224-.006-.2-.006-.177,0-.2,0-.2,0-.2,0-.2,0-.18v-.2l0-.2,0-.2,0-.179,0-.2,0-.2.006-.2.006-.177.007-.2,0-.056,0-.119.013-.223.011-.2.01-.171.006-.1.007-.1.013-.193.016-.191.015-.189.013-.162.009-.093.009-.093.02-.184.014-.155c.009-.07.017-.139.02-.178l.011-.088.011-.09.011-.089.011-.088.022-.172.024-.17L29.732,24l.02-.133.027-.164.025-.157.029-.157.02-.12.036-.178.021-.113.03-.14.016-.07.015-.071.033-.14.019-.088.042-.159.025-.094.033-.117.032-.111.018-.06.014-.049.024-.077.036-.107m0-1.766-.044,0-.045.007-.044.011-.042.018a.248.248,0,0,0-.044.02l-.045.024-.044.031a.339.339,0,0,0-.042.033l-.044.04a.361.361,0,0,0-.042.045c-.015.014-.03.03-.045.046a.445.445,0,0,0-.042.053.584.584,0,0,0-.042.056c-.015.02-.029.041-.042.062a.706.706,0,0,0-.042.064c-.015.024-.029.047-.042.071s-.027.048-.04.073-.029.053-.042.08-.027.054-.04.082-.027.057-.04.086-.027.06-.04.091-.027.063-.04.095-.024.066-.038.1-.025.068-.037.1-.026.072-.038.109-.024.072-.038.11-.023.075-.035.113l-.035.12-.036.122c-.012.041-.024.083-.035.126s-.023.086-.034.129l-.035.133c-.01.044-.021.09-.031.137s-.023.093-.033.14l-.031.142-.031.146c-.011.05-.02.1-.029.151s-.021.1-.031.153-.018.1-.027.155-.02.1-.029.157l-.026.162-.027.164c-.009.054-.017.11-.024.166s-.017.113-.025.171-.017.113-.024.17l-.022.175-.022.178-.022.177c-.006.06-.013.121-.02.182l-.018.184c-.008.06-.014.121-.02.183l-.018.187c-.006.063-.011.126-.015.188s-.011.127-.016.191-.011.127-.015.192l-.014.193-.013.2c0,.065-.008.13-.011.195s-.008.132-.011.2-.007.133-.011.2l-.009.2c0,.067,0,.133-.007.2s-.005.133-.006.2-.006.133-.007.2l0,.2,0,.2c0,.068,0,.136,0,.2s0,.136,0,.2,0,.136,0,.2v.2c0,.068,0,.136,0,.2s0,.135,0,.2,0,.135,0,.2l0,.2,0,.2c0,.068,0,.135.007.2s0,.136.006.2,0,.133.007.2l.009.2c0,.066.008.133.011.2s.007.131.011.2.007.13.011.2l.013.2.014.192c0,.066.009.13.015.193s.01.127.016.189.009.127.015.19l.018.186.018.184c.007.062.014.124.02.184s.014.121.02.182l.022.177c.007.061.014.12.022.178l.022.175c.007.057.016.114.024.17s.016.115.025.171.015.111.024.166l.027.164.026.162c.009.053.019.105.029.157s.018.1.027.155.02.1.031.153.018.1.029.151l.031.146.031.142c.01.047.021.094.033.14l.031.137.035.133c.011.043.022.086.034.129s.023.085.035.126l.036.122.035.119.035.113c.012.039.025.076.038.111s.024.073.038.109.024.068.037.1.026.067.038.1.027.065.04.1.027.061.04.091.026.058.04.086.026.056.04.082.027.053.042.08.026.049.04.073.027.047.042.071.027.043.042.064.027.042.042.062.027.038.042.056a.445.445,0,0,0,.042.053l.042.046c.015.017.03.031.045.045l.044.04a.471.471,0,0,0,.042.033l.044.031.045.024a.349.349,0,0,0,.044.02.409.409,0,0,0,.042.016.271.271,0,0,0,.044.013l.045.007.044,0,.044,0,.045-.007a.244.244,0,0,0,.044-.013l.044-.016a.443.443,0,0,0,.045-.02l.042-.024.044-.031c.015-.011.03-.021.044-.033l.043-.04c.014-.014.029-.028.044-.045l.042-.046a.445.445,0,0,0,.042-.053c.015-.018.03-.037.044-.056s.028-.04.043-.062l.039-.064.043-.071c.013-.024.027-.048.042-.073l.04-.08c.013-.026.026-.054.039-.082s.027-.057.04-.086.027-.06.04-.091.027-.063.04-.1.026-.065.038-.1.026-.068.037-.1.026-.072.038-.109.026-.072.038-.111l.037-.113.036-.119c.012-.04.024-.081.035-.122s.023-.084.034-.126l.035-.129c.01-.044.021-.089.033-.133s.022-.092.034-.137.02-.093.031-.14l.031-.142.031-.146.031-.151c.009-.05.018-.1.028-.153s.019-.1.029-.155l.027-.157c.009-.053.018-.107.026-.162l.027-.164.027-.166q.011-.084.024-.171l.022-.17c.008-.058.016-.116.025-.175s.014-.117.019-.178l.023-.177c.007-.061.014-.121.02-.182s.014-.122.02-.184l.017-.184.018-.186c.006-.063.011-.126.016-.188s.011-.127.015-.191.011-.127.016-.193l.013-.192.013-.2c0-.065.008-.131.011-.2s.008-.13.011-.2.008-.131.011-.2l.009-.2c0-.067.005-.133.007-.2l.009-.2,0-.2.005-.2c0-.068,0-.136,0-.2l0-.2c0-.069,0-.136,0-.2v-.61q0-.1,0-.2l0-.2c0-.068,0-.136,0-.2l-.005-.2,0-.2-.009-.2c0-.067,0-.133-.007-.2l-.009-.2c0-.067-.006-.133-.011-.2s-.006-.13-.011-.2-.006-.13-.011-.195l-.013-.2-.013-.193c0-.065-.01-.129-.016-.192s-.01-.127-.015-.189-.01-.127-.016-.19l-.018-.187-.017-.183c-.006-.062-.013-.124-.02-.184s-.013-.122-.02-.182l-.023-.177c0-.059-.012-.119-.019-.178s-.016-.117-.025-.175l-.022-.17q-.014-.087-.024-.171c-.009-.056-.018-.112-.027-.166l-.027-.164c-.008-.055-.017-.109-.026-.162s-.018-.106-.027-.157-.02-.1-.029-.155-.019-.1-.028-.153l-.031-.151-.031-.146-.031-.142c-.011-.047-.021-.094-.031-.14s-.023-.093-.034-.137-.023-.089-.033-.133l-.035-.129c-.011-.043-.022-.085-.034-.126s-.023-.082-.035-.122l-.036-.12c-.013-.038-.025-.076-.037-.113s-.025-.075-.038-.11-.024-.073-.038-.109-.024-.068-.037-.1-.025-.067-.038-.1-.027-.064-.04-.095-.026-.061-.04-.091-.026-.058-.04-.086-.026-.056-.039-.082l-.04-.08c-.015-.025-.029-.049-.042-.073l-.043-.071c-.013-.022-.026-.044-.039-.064l-.043-.062c-.014-.02-.029-.038-.044-.056a.445.445,0,0,0-.042-.053l-.042-.046c-.015-.017-.03-.031-.044-.045l-.043-.04a.459.459,0,0,0-.044-.033l-.044-.031-.042-.024a.3.3,0,0,0-.045-.02l-.044-.016a.244.244,0,0,0-.044-.013l-.045-.007-.044,0Z" transform="translate(0 0)"/>
      </g>
      <g>
        <polygon fill="#cb2026" points="30.117 52.419 29.97 51.218 29.811 49.482 29.677 47.455 29.544 44.486 29.482 42.343 29.44 39.734 29.43 37.454 29.467 33.678 29.544 30.805 29.644 28.468 29.812 25.8 29.915 24.606 30.042 23.433 30.169 22.528 30.203 22.341 30.339 23.246 30.573 25.542 30.674 26.94 30.808 29.446 30.895 31.858 30.965 35.56 30.974 38.219 30.914 42.708 30.821 45.515 30.673 48.359 30.506 50.519 30.387 51.652 30.266 52.554 30.203 52.95 30.117 52.419"/>
        <path fill="#cb2026" d="M30.2,28.386l0,.094.016.324.015.327.016.329.013.337.013.338.013.343.013.334.012.363.011.355.011.343.009.374.01.347.009.353.007.38.007.373.006.37.007.374.006.364v.053l0,.324,0,.365,0,.392,0,.382,0,.381,0,.368v1.146l0,.381,0,.381,0,.366,0,.381,0,.188,0,.189,0,.379-.006.374-.007.375-.007.372-.006.357-.007.29,0,.091-.007.352-.011.363,0,.179,0,.18-.012.359-.01.338-.012.375-.013.322-.013.343,0,.144-.008.2-.016.334-.01.258,0,.059-.016.325-.015.322-.006.11-.006-.11-.016-.322-.015-.325-.015-.317-.013-.334-.014-.355c-.006-.105-.01-.209-.013-.329l0-.115-.009-.23-.011-.353-.011-.351-.011-.359-.011-.357-.009-.351-.009-.366-.006-.367-.009-.357-.007-.372-.006-.375,0-.374,0-.327V40.05l0-.322,0-.4,0-.343,0-.381v-.381l0-.384v-.368l0-.394v-.368l0-.381,0-.395,0-.366v-.057l0-.321,0-.377,0-.364.007-.374.007-.372.009-.383.006-.355.009-.365.009-.362.011-.36.011-.357.011-.354.011-.336.013-.348.013-.343.014-.338.013-.336.015-.33.016-.327L30.2,28.5l.006-.111m0-7.641a.106.106,0,0,0-.031,0,.153.153,0,0,0-.029.014.148.148,0,0,0-.031.022l-.029.031a.3.3,0,0,0-.031.037l-.029.047c-.01.018-.02.037-.029.057l-.031.065-.028.073a.832.832,0,0,0-.029.08c-.011.029-.02.06-.029.091s-.02.063-.029.1-.02.07-.029.106-.02.076-.028.116-.02.08-.029.122-.02.087-.029.133-.018.09-.027.137-.02.1-.028.148-.018.1-.027.156-.019.107-.029.161-.018.113-.026.171l-.027.179c-.009.061-.017.123-.024.187l-.027.192-.027.2c-.007.068-.015.138-.024.208s-.017.141-.024.215-.017.147-.025.222-.017.152-.024.23-.016.156-.024.235-.015.161-.023.244-.014.164-.022.248l-.022.257c-.007.086-.015.173-.022.262s-.015.179-.022.27-.013.181-.02.273-.014.187-.02.281-.014.19-.02.286-.014.194-.02.293l-.018.3c-.007.1-.014.2-.02.3l-.017.308c-.006.1-.012.208-.016.313s-.012.211-.018.319-.011.213-.015.321-.011.217-.016.328-.011.22-.015.33l-.014.337-.013.339L29,30.436l-.013.348c0,.116-.009.233-.012.35s-.008.236-.011.354-.008.237-.011.357-.008.24-.011.361l-.009.362-.008.365c0,.123-.006.246-.007.368l-.009.37c0,.124,0,.249-.007.373s0,.25-.006.374l0,.377,0,.376,0,.379c0,.126,0,.252,0,.379l0,.382c0,.127,0,.254,0,.381v.381q0,.191,0,.381v.381c0,.129,0,.256,0,.384V38.6c0,.127,0,.254,0,.381l0,.379c0,.127,0,.254,0,.381l0,.379,0,.377,0,.374q0,.189.006.375c0,.124.006.248.007.372l.009.37c0,.123,0,.246.007.368l.008.366.009.363c0,.12.007.24.011.359s.007.24.011.359.007.236.011.353.007.235.012.352l.013.346c0,.115.007.229.013.343s.009.229.013.341l.014.335c0,.112.009.223.015.332s.01.218.016.326.009.217.015.324l.018.317c0,.106.01.211.016.314l.017.308c.006.1.013.2.02.3s.012.2.018.3.012.2.02.292.012.192.02.286.012.188.02.282.014.184.02.274l.022.268.022.264.022.255.022.251.023.241c.008.08.017.159.024.237s.015.153.024.228.016.15.025.224.015.144.024.215.017.141.024.209.018.134.027.2.018.132.027.2.015.126.024.186.018.12.027.178.017.115.026.17.02.111.029.164.018.1.027.155.018.1.028.147l.027.139c.009.044.018.088.029.131s.018.084.029.124.018.076.028.113.019.072.029.106.019.068.029.1.018.061.029.089.018.055.029.082.02.049.028.073l.031.064c.009.019.019.038.029.055s.02.034.029.047a.464.464,0,0,0,.031.04c.01.012.02.022.029.031l.031.02a.145.145,0,0,0,.029.013.1.1,0,0,0,.03.005h0a.087.087,0,0,0,.028-.005.158.158,0,0,0,.031-.013.2.2,0,0,0,.028-.02.227.227,0,0,0,.031-.031.241.241,0,0,0,.029-.04.3.3,0,0,0,.031-.047l.029-.055c.01-.021.02-.042.029-.064s.021-.048.031-.073.018-.054.029-.082.02-.058.029-.089.019-.066.028-.1.02-.069.029-.106.02-.075.029-.113.018-.081.029-.124.018-.087.029-.131.017-.092.026-.139.019-.1.029-.147.018-.1.027-.155.017-.108.026-.164.018-.111.027-.17.017-.117.026-.178.018-.122.027-.186.018-.129.027-.2.017-.132.024-.2.018-.138.027-.209.015-.142.024-.215.015-.148.024-.224.016-.151.025-.228l.022-.237c.007-.08.015-.16.024-.241l.022-.251.023-.255.022-.264c.007-.088.014-.178.02-.268s.014-.181.022-.274.012-.187.02-.282.012-.19.02-.286.012-.193.02-.292.011-.2.017-.3l.018-.3.018-.308c.006-.1.012-.208.018-.314l.017-.317c0-.107.01-.215.016-.324s.009-.216.015-.326l.014-.332c0-.111.011-.222.015-.335l.013-.341.014-.343.013-.346c0-.117.007-.234.011-.352s.008-.235.011-.353.008-.239.011-.359l.009-.359c0-.121.008-.242.011-.363s0-.243.007-.366l.009-.368c0-.122,0-.246.006-.37s.005-.248.007-.372,0-.249.007-.375,0-.249.006-.374l0-.379,0-.377c0-.127,0-.254,0-.381s0-.252,0-.379,0-.254,0-.381,0-.254,0-.381V37.073c0-.127,0-.254,0-.381s0-.254,0-.381,0-.254,0-.382,0-.253,0-.379l0-.379,0-.376c0-.126,0-.251-.006-.377s0-.249-.007-.374,0-.248-.007-.371,0-.248-.006-.372-.005-.245-.007-.368l-.009-.365c0-.121-.006-.242-.011-.362l-.009-.361c0-.12-.006-.238-.011-.357s-.007-.236-.011-.354-.008-.234-.011-.35l-.013-.348-.014-.344-.013-.339-.013-.337c-.006-.11-.011-.221-.016-.33s-.011-.22-.015-.328-.011-.216-.016-.323l-.017-.317-.018-.313-.018-.308-.018-.3c-.006-.1-.011-.2-.017-.3s-.014-.2-.02-.293-.014-.191-.02-.286-.014-.188-.02-.281l-.022-.273c-.006-.091-.013-.181-.02-.27s-.015-.176-.022-.262l-.023-.257c-.007-.084-.014-.167-.022-.248s-.017-.164-.024-.244-.015-.158-.022-.235-.017-.155-.025-.23-.017-.149-.024-.222-.017-.145-.024-.215-.018-.14-.027-.208-.016-.135-.024-.2l-.027-.192c-.009-.064-.018-.126-.027-.187l-.026-.179q-.014-.087-.027-.171c-.009-.054-.018-.108-.026-.161s-.018-.105-.027-.156-.02-.1-.029-.148-.018-.093-.026-.137-.02-.09-.029-.131-.02-.084-.029-.124-.019-.079-.029-.116-.018-.072-.029-.106-.018-.066-.028-.1-.019-.062-.029-.091l-.029-.08c-.01-.027-.021-.051-.031-.073a.664.664,0,0,0-.029-.065l-.029-.057c-.01-.016-.02-.032-.031-.047a.183.183,0,0,0-.029-.037.227.227,0,0,0-.031-.031.1.1,0,0,0-.028-.022.166.166,0,0,0-.031-.014.092.092,0,0,0-.029,0Z" transform="translate(0 0)"/>
      </g>
      <g>
        <path fill="#cb2026" d="M34.406,53.625h.028c-.017,0-.1,0-.119,0l-.13-.022a.642.642,0,0,0-.109-.045.474.474,0,0,0-.113-.061c-.017-.012-.067-.05-.084-.059s-.067-.078-.087-.095l-.059-.087-.047-.088c-.007-.022-.055-.164-.059-.177s-.013-.1-.016-.12a.708.708,0,0,0,0-.113c0-.009.025-.129.028-.159a1.146,1.146,0,0,0,.044-.11c.015-.019.045-.072.058-.093l.064-.088.078-.078c.015-.01.145-.095.157-.1s.12-.048.128-.051a.409.409,0,0,0,.108-.028c.018,0,.127-.007.144-.009s.086.008.1.008a.57.57,0,0,0,.129.027l.059.027-.017-.008c.013.008.121.062.145.072l.053.041-.034-.023c.015.012.045.038.068.054l.062.064.069.085a.631.631,0,0,0,.06.1c.007.024.057.159.058.162s.023.158.026.171-.01.1-.01.122a.828.828,0,0,0-.025.13l-.041.095a.786.786,0,0,0-.053.1l-.072.095c-.019.017-.083.083-.1.1l-.108.069c-.016.007-.084.037-.1.045l-.135.041c-.019,0-.125.014-.144.018Z" transform="translate(0 0)"/>
        <path fill="#cb2026" d="M34.407,52.591h.029l.013,0,.026.006.025.009.01,0,.034.021.027.021.005.006.009.01.015.017h0l.008.012.01.016,0,0,0,.009.008.021,0,.011,0,0,0,.009,0,.021,0,.019v.034l0,.027,0,.007,0,.014v0l0,.008-.009.022-.005.008-.013.023,0,.006-.008.011,0,0,0,0-.007.008-.013.014-.023.019-.016.009-.013.008-.007,0h0l-.008,0h0l-.025.01-.012,0h0l-.008,0h0l-.015,0H34.4l-.021,0h0l-.007,0-.012,0-.012,0-.018-.006-.008,0-.011-.005-.02-.011-.012-.007-.011-.009L34.235,53l-.007-.008-.006-.007-.016-.023-.012-.02,0-.008-.009-.022,0-.01v0l0-.008v0l-.005-.029,0-.02v-.022l0-.03,0-.018,0-.007,0-.009.011-.027.018-.029,0-.006.014-.017.007-.008h0l.011-.011.022-.017.008-.006.027-.015.011-.005.025-.009.029-.007h.039m.031-1.109h-.062a.152.152,0,0,1-.029,0l-.031,0a.163.163,0,0,0-.031,0,.156.156,0,0,0-.031,0l-.029,0-.031.005-.029,0-.031.007a.136.136,0,0,0-.029.006l-.031.007-.029.007-.028.009-.029.008-.029.012a104847731916.137,104847731916.137,0,0,0-.058.022l-.028.011-.027.011-.029.013-.026.013a.191.191,0,0,1-.027.016.191.191,0,0,0-.027.016l-.026.013-.027.018-.024.015-.024.018-.027.017-.024.018-.023.02-.024.018-.022.02-.025.022-.022.02-.02.022-.022.022-.02.022-.02.023a.159.159,0,0,0-.02.024l-.02.022-.017.025-.018.024-.018.026-.018.025c-.005.009-.011.018-.015.026a.213.213,0,0,0-.016.025c0,.009-.011.017-.015.026l-.016.027-.013.029-.013.026-.013.027-.012.029a.2.2,0,0,0-.011.029.182.182,0,0,0-.011.028.249.249,0,0,0-.011.029l-.009.029-.009.029-.008.029a.191.191,0,0,1-.007.028c0,.011-.005.021-.007.032a.115.115,0,0,0-.006.028l-.005.031-.006.029a.171.171,0,0,0,0,.031l0,.031a.137.137,0,0,0,0,.029.971.971,0,0,1-.005.062v.091a.163.163,0,0,0,0,.031.137.137,0,0,0,0,.029.167.167,0,0,0,0,.031l0,.031a.136.136,0,0,0,0,.029.188.188,0,0,0,.006.031l.005.031.006.028a.206.206,0,0,0,.007.029c0,.011,0,.021.007.031l.008.029.009.029.009.029a.182.182,0,0,0,.011.028.16.16,0,0,0,.011.029l.011.029a.159.159,0,0,0,.012.027l.013.029.013.026.013.027.016.026.015.027c.005.009.01.018.016.027l.015.026.018.025.018.024.018.027.017.022a.231.231,0,0,0,.02.024l.02.024.02.023.02.022.022.022.02.022.022.02a.243.243,0,0,0,.025.02l.022.02a.231.231,0,0,0,.024.02l.023.018.024.02.027.017.024.018a.1.1,0,0,1,.024.016l.027.015.026.015.027.016.027.013.026.014.029.013.027.013.028.011a104531925494.449,104531925494.449,0,0,0,.058.022l.029.009.029.009.028.009.029.009a.155.155,0,0,1,.031.007.136.136,0,0,0,.029.006l.031.007.029,0,.031,0,.029,0,.031,0a.136.136,0,0,0,.029,0h0l.031,0h.029l.031,0,.031,0h.031l.029,0h0l.029,0,.031,0,.028,0,.031,0,.029,0,.031-.007a.124.124,0,0,0,.029-.006.173.173,0,0,1,.031-.007l.029-.009.029-.009.029-.009.028-.009a104847731916.337,104847731916.337,0,0,0,.058-.022l.029-.011.026-.013L35,54.042l.027-.014.026-.013L35.076,54l.027-.015.026-.015a.132.132,0,0,1,.025-.016l.026-.018.024-.017.025-.02.022-.018a.159.159,0,0,0,.024-.02l.025-.02.022-.02.022-.02.02-.022.022-.022.02-.022.02-.023.02-.024a.231.231,0,0,0,.02-.024l.018-.022.017-.027.018-.024.018-.025.015-.026c.006-.009.011-.018.016-.027l.015-.027a.183.183,0,0,0,.016-.026l.013-.027.014-.026.013-.029c0-.009.008-.018.011-.027l.011-.029a.16.16,0,0,0,.011-.029.117.117,0,0,0,.011-.028l.009-.029.009-.029.009-.029a.155.155,0,0,0,.006-.031.123.123,0,0,0,.007-.029l.007-.028,0-.031c0-.011,0-.021.007-.031a.264.264,0,0,0,0-.029l0-.031a.171.171,0,0,0,0-.031.264.264,0,0,0,0-.029c0-.01,0-.021,0-.031v-.091c0-.01,0-.021,0-.031s0-.021,0-.031a.136.136,0,0,0,0-.029l0-.031c0-.01,0-.02,0-.031l-.007-.029,0-.031a.191.191,0,0,0-.007-.028.183.183,0,0,0-.007-.032l-.006-.028-.009-.029-.009-.029-.009-.029a.145.145,0,0,0-.011-.029.182.182,0,0,0-.011-.028.2.2,0,0,0-.011-.029l-.011-.029-.013-.027-.014-.026L35.6,52.2l-.016-.027a.174.174,0,0,0-.015-.026.213.213,0,0,0-.016-.025.243.243,0,0,0-.015-.026l-.018-.025-.018-.026-.017-.024L35.466,52l-.02-.022a.159.159,0,0,0-.02-.024l-.02-.023-.02-.022-.022-.022-.02-.022-.022-.02-.022-.022a.243.243,0,0,1-.025-.02l-.024-.018-.022-.02-.025-.018-.024-.017-.026-.018-.025-.015-.026-.016a.182.182,0,0,0-.027-.015.191.191,0,0,0-.027-.016l-.026-.016L35,51.617l-.029-.013-.026-.011-.029-.011a104531925495.227,104531925495.227,0,0,0-.058-.022l-.028-.012L34.8,51.54l-.029-.009-.029-.007-.031-.007a.124.124,0,0,0-.029-.006l-.031-.007-.029,0-.031-.005-.028,0a.167.167,0,0,0-.031,0l-.031,0-.029,0a.156.156,0,0,1-.031,0Z" transform="translate(0 0)"/>
      </g>
      <g>
        <polygon fill="#cb2026" points="26.335 53.54 26.301 51.929 33.87 52.006 33.855 53.623 26.335 53.54"/>
        <path fill="#cb2026" d="M26.867,52.489l6.444.065-.005.509-6.428-.071-.011-.5m-1.132-1.12.058,2.719,8.611.095.025-2.725-8.694-.089Z" transform="translate(0 0)"/>
      </g>
      <g>
        <polygon fill="#cb2026" points="28.25 50.99 30.06 50.307 31.925 51.031 28.25 50.99"/>
        <polygon fill="#cb2026" points="30.063 49.714 25.299 51.511 34.97 51.619 30.063 49.714 30.063 49.714"/>
      </g>
      <g>
        <path fill="#cb2026" d="M16.4,31.562c0,.019,0,.038,0,.057s0,.039,0,.058v.057l0,.058,0,.058-.005.057a.48.48,0,0,0-.006.056l-.009.057-.009.056a.572.572,0,0,0-.011.057l-.014.056a.293.293,0,0,1-.013.057l-.013.056c0,.018-.01.036-.016.055l-.017.053-.018.056c-.006.017-.013.035-.02.053s-.013.035-.02.053l-.022.053c-.008.018-.016.036-.025.053l-.022.051-.026.054-.027.051c-.009.016-.018.032-.029.048s-.018.035-.028.051-.019.033-.029.049l-.031.049-.034.046a.4.4,0,0,1-.033.047.383.383,0,0,1-.033.046l-.036.045c-.011.016-.023.031-.035.046l-.038.042-.04.045c-.011.013-.024.026-.037.04l-.04.042a.533.533,0,0,0-.042.04l-.042.039a.514.514,0,0,0-.042.038l-.045.038-.044.035c-.015.012-.03.024-.047.036a.459.459,0,0,1-.044.033.525.525,0,0,1-.049.033.383.383,0,0,1-.046.033l-.049.031a.485.485,0,0,1-.049.029.421.421,0,0,1-.051.029l-.048.029L15,33.9q-.027.011-.054.024l-.051.024-.053.022-.053.023-.053.02c-.018.007-.036.014-.053.019l-.056.018-.055.018-.056.015-.055.014-.055.013-.056.013-.057.009a.406.406,0,0,1-.056.009l-.057.009-.058.007-.058.006a.487.487,0,0,1-.055,0l-.058.005h-.172l-.058,0-.058-.005-.057,0-.056-.007c-.019,0-.038,0-.057-.006l-.058-.009-.055-.011a.541.541,0,0,1-.058-.012L13.27,34.1l-.056-.013-.055-.016-.056-.015-.053-.018L13,34.021,12.942,34c-.018-.006-.036-.012-.054-.02l-.053-.022-.053-.024-.051-.025c-.018-.008-.035-.017-.051-.026l-.051-.027-.051-.029c-.016-.008-.032-.018-.049-.028l-.048-.031-.047-.031-.049-.034a.54.54,0,0,0-.046-.033l-.044-.035L12.25,33.6c-.015-.012-.029-.024-.044-.038a.507.507,0,0,1-.044-.037.508.508,0,0,0-.043-.038l-.042-.04-.04-.042L12,33.363c-.014-.015-.026-.029-.038-.044a.514.514,0,0,1-.038-.042c-.013-.015-.026-.03-.037-.045l-.036-.044-.035-.046L11.78,33.1a.527.527,0,0,0-.031-.046c-.011-.017-.023-.033-.033-.049l-.029-.049-.031-.049-.026-.051A.31.31,0,0,1,11.6,32.8c-.009-.016-.018-.033-.026-.051s-.017-.034-.025-.051a.505.505,0,0,1-.024-.053l-.022-.053-.023-.053a.562.562,0,0,0-.019-.053l-.018-.056-.018-.053c-.006-.019-.011-.038-.015-.055s-.012-.038-.016-.056l-.013-.055-.014-.058c0-.017-.006-.036-.011-.055l-.009-.058-.008-.055-.009-.058-.005-.057a.386.386,0,0,1,0-.058l0-.055c0-.02,0-.039,0-.058v-.115c0-.019,0-.039,0-.058a.578.578,0,0,1,0-.058l0-.057,0-.056c0-.019.005-.038.006-.057l.009-.058.009-.055c0-.019.008-.039.011-.058l.013-.055.014-.056.013-.055c.006-.019.011-.038.015-.055l.018-.056.018-.055c.007-.018.014-.036.02-.053s.014-.036.02-.054l.022-.053c.007-.018.015-.035.024-.053s.016-.035.025-.051.015-.035.024-.053.018-.033.027-.051.018-.033.028-.049.019-.035.029-.051l.029-.049.031-.048.033-.047a.548.548,0,0,1,.034-.046.4.4,0,0,1,.033-.047l.035-.044A.429.429,0,0,1,11.909,30l.035-.044.04-.042a.514.514,0,0,1,.038-.042.416.416,0,0,1,.042-.042l.04-.04c.015-.013.029-.027.042-.04a.514.514,0,0,0,.042-.038.507.507,0,0,0,.044-.037l.045-.036.046-.035c.015-.012.031-.023.047-.034s.03-.023.046-.033a.5.5,0,0,1,.047-.033l.049-.031.048-.029.051-.029.049-.026c.018-.01.035-.02.051-.027l.053-.026.051-.025.054-.022.053-.022.053-.02.055-.02.053-.018.056-.018.055-.015.056-.013.055-.014.058-.011.055-.011.058-.009.055-.008a.573.573,0,0,1,.058-.007l.057,0c.02,0,.039,0,.058,0l.055,0h.058a.281.281,0,0,1,.058,0h.057a.562.562,0,0,1,.058,0l.057,0,.058,0,.058.006.055.007.058.009.055.011c.019,0,.039.006.058.011l.055.013.056.014a.494.494,0,0,1,.055.015.441.441,0,0,1,.055.016l.056.017.053.02.053.02.053.02.053.022.054.025q.025.014.051.024l.051.027.051.026a.421.421,0,0,0,.051.029l.048.029.049.031.049.031a.484.484,0,0,0,.046.033c.015.012.031.023.047.034l.044.035.047.035a.514.514,0,0,1,.042.038c.015.012.029.024.044.038a.533.533,0,0,1,.042.04.5.5,0,0,1,.042.037l.04.042.04.042c.013.014.026.028.038.043a.514.514,0,0,1,.038.042c.013.014.025.029.037.044l.036.044a.574.574,0,0,0,.035.047.54.54,0,0,0,.033.046.566.566,0,0,0,.034.047l.031.049.031.048c.009.017.018.033.028.049s.018.035.027.051.02.033.029.051a.4.4,0,0,1,.024.051l.025.051c.008.018.017.036.024.053l.022.053.022.054c.006.017.013.035.02.053l.018.055.018.053c.006.02.011.038.015.056s.011.038.016.055l.013.058.013.055a.463.463,0,0,1,.011.056c0,.019.007.038.011.057s.006.038.007.056l.009.057,0,.058a.554.554,0,0,1,.007.057.543.543,0,0,1,0,.056A.549.549,0,0,1,16.4,31.562Z" transform="translate(0 0)"/>
        <path fill="#cb2026" d="M13.846,29.09h-.087l-.055,0c-.019,0-.038,0-.058,0l-.057,0a.573.573,0,0,0-.058.007l-.055.008-.058.009-.055.011-.058.011-.055.014-.056.013-.055.015-.056.018-.053.018-.055.02-.053.02-.054.022-.053.022-.051.025-.053.026c-.016.007-.033.017-.051.027l-.049.026-.051.029-.048.029-.049.031a.5.5,0,0,0-.047.033c-.016.01-.031.022-.046.033s-.032.022-.047.034l-.046.035-.045.036a.507.507,0,0,1-.044.037.514.514,0,0,1-.042.038c-.013.013-.027.027-.042.04l-.04.04a.416.416,0,0,0-.042.042.514.514,0,0,0-.038.042l-.04.042L11.909,30a.429.429,0,0,0-.038.045l-.035.044a.4.4,0,0,0-.033.047.548.548,0,0,0-.034.046l-.033.047-.031.048-.029.049c-.01.016-.02.033-.029.051s-.02.033-.028.049-.018.035-.027.051-.017.035-.024.053-.017.033-.025.051-.017.035-.024.053l-.022.053c-.006.018-.013.036-.02.054s-.013.035-.02.053l-.018.055-.018.056c0,.017-.009.036-.015.055l-.013.055-.014.056-.013.055c0,.019-.007.039-.011.058l-.009.055-.009.058c0,.019,0,.038-.006.057l0,.056,0,.058a.544.544,0,0,0,0,.057c0,.019,0,.039,0,.058V31.7c0,.019,0,.038,0,.058l0,.055a.386.386,0,0,0,0,.058l.005.057.009.058.008.055.009.058c.005.019.008.038.011.055l.014.058.013.055c0,.018.01.037.016.056s.009.036.015.055l.018.053.017.056a.382.382,0,0,1,.02.053l.023.053.022.053a.505.505,0,0,0,.024.053c.008.017.016.034.025.051s.017.035.026.051a.249.249,0,0,0,.027.051l.026.051.031.049.029.049c.01.016.022.032.033.049a.527.527,0,0,1,.031.046l.034.047.035.046.036.044c.011.015.024.03.037.045a.514.514,0,0,0,.038.042c.012.015.024.029.038.044l.039.04.04.042.042.04a.508.508,0,0,1,.043.038.507.507,0,0,0,.044.037c.015.014.029.026.044.038l.045.036.044.035a.54.54,0,0,1,.046.033l.049.034.047.031.048.031c.017.01.033.02.049.028l.051.029.051.027c.016.009.033.018.051.026l.051.025.053.024.053.022c.018.008.036.014.054.02l.053.022.055.018.053.018.056.015.055.016.056.013.055.013a.541.541,0,0,0,.058.012l.055.011.058.009c.019,0,.038.005.057.006l.056.007.057,0,.058.005.058,0h.172l.058-.005a.487.487,0,0,0,.055,0l.058-.006.058-.007.057-.009a.406.406,0,0,0,.056-.009l.057-.009.056-.013.055-.013.055-.014.056-.015.055-.018.056-.018c.017,0,.035-.012.053-.019l.053-.02.053-.023.053-.022.051-.024q.027-.014.054-.024l.051-.027.048-.029a.421.421,0,0,0,.051-.029.485.485,0,0,0,.049-.029l.049-.031a.383.383,0,0,0,.046-.033.525.525,0,0,0,.049-.033.459.459,0,0,0,.044-.033c.017-.012.032-.024.047-.036l.044-.035.045-.038a.514.514,0,0,1,.042-.038l.042-.039a.533.533,0,0,1,.042-.04l.04-.042c.013-.014.026-.027.037-.04l.04-.045.038-.042c.012-.015.024-.03.035-.046l.036-.045a.383.383,0,0,0,.033-.046.4.4,0,0,0,.033-.047l.034-.046.031-.049c.01-.016.02-.032.029-.049s.019-.033.028-.051.02-.032.029-.048l.027-.051.026-.054.022-.051c.009-.017.017-.035.025-.053l.022-.053c.007-.018.014-.035.02-.053s.014-.036.02-.053l.018-.056.017-.053c.006-.019.011-.037.016-.055l.013-.056a.293.293,0,0,0,.013-.057l.014-.056a.572.572,0,0,1,.011-.057l.009-.056.009-.057a.48.48,0,0,1,.006-.056l.005-.057,0-.058,0-.058v-.057c0-.019,0-.039,0-.058s0-.038,0-.057a.549.549,0,0,0,0-.058.543.543,0,0,0,0-.056.554.554,0,0,0-.007-.057l0-.058-.009-.057c0-.018,0-.036-.007-.056s-.008-.038-.011-.057a.463.463,0,0,0-.011-.056l-.013-.055-.013-.058c0-.017-.01-.036-.016-.055s-.009-.036-.015-.056l-.018-.053-.018-.055c-.007-.018-.014-.036-.02-.053l-.022-.054-.022-.053c-.007-.017-.016-.035-.024-.053l-.025-.051a.4.4,0,0,0-.024-.051c-.009-.018-.019-.035-.029-.051s-.018-.033-.027-.051-.019-.032-.028-.049L16,30.261l-.031-.049a.566.566,0,0,1-.034-.047.54.54,0,0,1-.033-.046.574.574,0,0,1-.035-.047l-.036-.044-.037-.044a.514.514,0,0,0-.038-.042c-.012-.015-.025-.029-.038-.043l-.04-.042-.04-.042a.5.5,0,0,0-.042-.037.533.533,0,0,0-.042-.04c-.015-.014-.029-.026-.044-.038a.514.514,0,0,0-.042-.038l-.047-.035-.044-.036a.5.5,0,0,1-.047-.033.484.484,0,0,1-.046-.033l-.049-.031-.049-.031-.048-.029a.421.421,0,0,1-.051-.029l-.051-.026-.051-.027q-.026-.011-.051-.024l-.054-.025-.053-.022-.053-.02-.053-.02-.053-.02L14.61,29.2a.441.441,0,0,0-.055-.016.494.494,0,0,0-.055-.015l-.056-.014-.055-.013c-.019-.005-.039-.008-.058-.011l-.055-.011-.058-.009-.055-.007-.058-.006-.058,0-.057,0a.562.562,0,0,0-.058,0h-.086Z" transform="translate(0 0)"/>
      </g>
      <g>
        <polygon fill="#cb2026" points="13.842 33.641 14.471 29.64 29.092 29.439 29.414 36.659 13.842 33.641"/>
        <path fill="#cb2026" d="M28.563,30l.266,5.98L14.473,33.2l.473-3.011L28.563,30m1.059-1.123L14,29.093l-.784,4.99L30,37.337l-.377-8.459Z" transform="translate(0 0)"/>
      </g>
      <g>
        <path fill="#cb2026" d="M25.831,53.534h.025c-.016,0-.1,0-.116,0s-.109-.02-.133-.022a.407.407,0,0,0-.1-.042l-.121-.065.018.011c-.012-.01-.074-.056-.088-.064s-.065-.063-.076-.072a.288.288,0,0,0-.07-.086c-.01-.017-.038-.075-.05-.091s-.036-.093-.047-.117a.713.713,0,0,0-.026-.1,1.087,1.087,0,0,0-.012-.128c0-.024.008-.1.008-.121a.912.912,0,0,0,.021-.1,1,1,0,0,0,.048-.133.851.851,0,0,0,.054-.092l.067-.09.154-.138.141-.069c.019-.005.087-.028.095-.031s.083-.018.1-.022a.713.713,0,0,0,.121-.014c.018,0,.092.012.109.012a.515.515,0,0,0,.088.022q.032.012.063.021a.793.793,0,0,0,.113.047c.01.007.029.02.05.032l-.011-.006s.1.074.113.084.066.074.084.091a1.215,1.215,0,0,0,.081.121c0,.014.039.092.045.1s.035.125.037.13a1.022,1.022,0,0,0,.01.11l0,.109-.018.107c-.007.017-.034.1-.039.12l-.053.106-.083.118c-.009.007-.079.075-.088.084l-.149.1c-.021.007-.127.05-.138.055s-.043.011-.058.016-.122.014-.147.019Z" transform="translate(0 0)"/>
        <path fill="#cb2026" d="M25.83,52.5l.03,0h0l.013,0,.01,0h0l.02.006.009,0,.037.018h0l.012.007.011.009.025.022.007.008.015.018h0l.009.012.013.021v0l.012.03v0l0,.012v.006l.005.03,0,.017v.027l0,.027,0,.012,0,.012v0l-.013.033,0,.006-.016.026,0,.005-.014.018,0,0L26,52.909l-.02.018-.009.007-.007.005-.009.005-.008,0-.017.009-.006,0-.006,0-.028.01-.021,0h-.047l-.019,0h-.009l-.015,0h0l-.02-.006-.014-.005-.022-.01-.012-.007-.019-.011-.023-.02-.013-.015-.012-.014-.012-.018-.007-.01,0,0,0-.007-.01-.028,0-.01,0-.014,0-.028,0-.02v-.019l0-.023h0l.006-.028,0-.006,0-.009.007-.02,0,0,0-.009.014-.024.005-.006.014-.017.012-.013.027-.024.016-.009.008,0,.017-.009.006,0,.006,0,.028-.009.02-.005H25.8l.029,0m.031-1.109H25.8a.156.156,0,0,1-.031,0l-.028,0a.156.156,0,0,0-.031,0l-.031,0-.029,0-.031,0-.029,0-.031.007a.137.137,0,0,0-.029.007.17.17,0,0,0-.031.006l-.029.009-.029.007a.117.117,0,0,0-.028.011l-.029.009a.125.125,0,0,0-.029.011.145.145,0,0,0-.029.011L25.3,51.5l-.026.013a.2.2,0,0,0-.029.011l-.027.016-.026.013-.027.016a.135.135,0,0,0-.026.015l-.027.016a.12.12,0,0,1-.024.015l-.027.018-.024.018-.025.017-.024.02-.022.02-.025.02-.022.02-.022.02-.022.022-.02.022-.02.023-.02.022a.159.159,0,0,0-.02.024l-.02.022-.018.025-.017.024-.018.027-.018.024a.182.182,0,0,0-.015.027.143.143,0,0,0-.016.024.182.182,0,0,0-.015.027.226.226,0,0,0-.016.026l-.013.029-.013.027-.014.028c0,.009-.008.018-.011.027a384090049480.945,384090049480.945,0,0,1-.022.058.182.182,0,0,0-.011.028l-.009.029-.009.029-.009.029-.006.029a.282.282,0,0,0-.007.031l-.007.028,0,.031-.007.029,0,.031a.3.3,0,0,1,0,.031l0,.029c0,.011,0,.021,0,.031s0,.021,0,.031v.091c0,.01,0,.021,0,.031a.248.248,0,0,0,0,.029.163.163,0,0,0,0,.031c0,.01,0,.021,0,.031l0,.031.007.029,0,.031.007.029a.191.191,0,0,0,.007.028.155.155,0,0,0,.006.031l.009.029.009.029.009.029a166439021441.512,166439021441.512,0,0,1,.022.058l.011.028.011.027.014.029.013.026.013.027a.269.269,0,0,0,.016.029.174.174,0,0,0,.015.026l.016.025a.243.243,0,0,0,.015.026l.018.025.018.026.017.025.018.024.02.022a.159.159,0,0,0,.02.024l.02.023.02.022.02.022.022.022.022.02.022.02.025.02.022.02a.116.116,0,0,1,.024.02l.025.018.024.017.027.018a.2.2,0,0,1,.024.016.182.182,0,0,0,.027.015.226.226,0,0,0,.026.016.182.182,0,0,0,.027.015l.026.013.027.016a.2.2,0,0,0,.029.011l.026.013.029.011a.145.145,0,0,0,.029.011.126.126,0,0,0,.029.012l.029.008a.086.086,0,0,0,.028.011.137.137,0,0,0,.029.007l.029.009.031.007a.136.136,0,0,0,.029.006l.031.007.029,0,.031.005.029,0a.132.132,0,0,0,.028,0h0a.133.133,0,0,0,.028,0h0l.028,0H25.8l.031,0,.031,0h.029l.031,0h0a.136.136,0,0,0,.029,0h0a.132.132,0,0,0,.028,0l.029,0,.031-.005.029,0,.031-.007a.136.136,0,0,0,.029-.006l.031-.007.029-.009.028-.007a.092.092,0,0,0,.029-.011l.029-.008A.148.148,0,0,0,26.307,54a.145.145,0,0,0,.029-.011l.029-.011.026-.013.029-.011a.226.226,0,0,0,.026-.016l.027-.013a.182.182,0,0,0,.027-.015l.026-.016a.182.182,0,0,0,.027-.015.143.143,0,0,1,.024-.016l.025-.018.026-.017.025-.018.022-.02a.159.159,0,0,0,.024-.02l.022-.02a.157.157,0,0,0,.025-.02l.022-.02.02-.022.022-.022.02-.022.02-.023a.159.159,0,0,0,.02-.024l.02-.022.017-.024.018-.025.018-.026.018-.025a.243.243,0,0,0,.015-.026l.016-.025a.174.174,0,0,0,.015-.026l.016-.029.013-.027.013-.026.014-.029a.153.153,0,0,1,.011-.027l.011-.028A.249.249,0,0,0,27.1,53.2l.011-.029.009-.029.009-.029.008-.029c0-.01,0-.02.007-.031a.191.191,0,0,0,.007-.028L27.153,53l.005-.031.007-.029c0-.01,0-.021,0-.031l0-.031a.162.162,0,0,0,0-.031.129.129,0,0,0,0-.029.162.162,0,0,1,0-.031v-.091a.162.162,0,0,1,0-.031.171.171,0,0,0,0-.031l0-.029,0-.031c0-.01,0-.02,0-.031l-.007-.029-.005-.031-.006-.028a.282.282,0,0,0-.007-.031.246.246,0,0,1-.007-.029l-.008-.029-.009-.029-.009-.029-.011-.028a384090049481.3,384090049481.3,0,0,1-.022-.058l-.011-.027-.014-.028-.013-.027-.013-.029-.016-.026a.182.182,0,0,0-.015-.027.143.143,0,0,0-.016-.024.182.182,0,0,0-.015-.027l-.018-.024-.018-.027-.018-.024-.017-.025-.02-.022a.159.159,0,0,0-.02-.024l-.02-.022-.02-.023-.022-.022-.02-.022-.022-.02a.243.243,0,0,0-.025-.02l-.022-.02a.159.159,0,0,0-.024-.02l-.022-.02-.025-.017-.026-.018-.025-.018a.1.1,0,0,1-.024-.015l-.027-.016a.174.174,0,0,0-.026-.015l-.027-.016-.027-.013-.026-.016-.029-.011-.026-.013-.029-.011a144602496934.594,144602496934.594,0,0,0-.058-.022l-.029-.009a.125.125,0,0,0-.029-.011l-.028-.007-.029-.009-.031-.006a.137.137,0,0,0-.029-.007l-.031-.007-.029,0-.031,0-.029,0-.031,0a.971.971,0,0,1-.062-.005.152.152,0,0,1-.029,0Z" transform="translate(0 0)"/>
      </g>
    </g>
    <g>
      <path fill="#cb2026" d="M6.509,3.644h4.982V5.312H8.431V8.941H11.3v1.607H8.431v5.231H6.509Z" transform="translate(0 0)"/>
      <path fill="#cb2026" d="M15.108,3.644V15.779H13.187V3.644Z" transform="translate(0 0)"/>
      <path fill="#cb2026" d="M23.638,15.463a7.124,7.124,0,0,1-2.347.425A4.013,4.013,0,0,1,18.214,14.7a6.869,6.869,0,0,1-1.52-4.871c.041-4.556,2.513-6.29,4.89-6.29a4.355,4.355,0,0,1,1.871.356L23.09,5.548A3.009,3.009,0,0,0,21.7,5.263c-1.561,0-3,1.155-3,4.582,0,3.286,1.265,4.408,2.527,4.408a1.56,1.56,0,0,0,.639-.1V10.765h-1.3V9.187h3.08Z" transform="translate(0 0)"/>
      <path fill="#cb2026" d="M27.385,3.644v5.02h2.883V3.644h1.921V15.779H30.268V10.434H27.385v5.345H25.463V3.644Z" transform="translate(0 0)"/>
      <path fill="#cb2026" d="M35.672,5.406H33.495V3.644H39.78V5.406H37.594V15.779H35.672Z" transform="translate(0 0)"/>
      <path fill="#cb2026" d="M45.9,10.25H43.008v3.861h3.273v1.668H41.086V3.644h4.981V5.312H43.008V8.644H45.9Z" transform="translate(0 0)"/>
      <path fill="#cb2026" d="M47.854,3.824a10.454,10.454,0,0,1,2.314-.234,4.251,4.251,0,0,1,3.007.887A3.147,3.147,0,0,1,54.09,6.93,3.208,3.208,0,0,1,52.184,10v.036c.854.306,1.3,1.111,1.544,2.548a18.146,18.146,0,0,0,.741,3.191H52.475a16.293,16.293,0,0,1-.625-2.948c-.235-1.58-.683-2.093-1.644-2.093h-.441v5.041H47.854Zm1.911,5.431h.5a1.912,1.912,0,0,0,1.878-2.13c0-1.2-.482-2-1.735-2.019a2.155,2.155,0,0,0-.643.073Z" transform="translate(0 0)"/>
    </g>
  </g>
</svg>