<svg width="60" height="60" xmlns="http://www.w3.org/2000/svg" viewBox="0 0 60 60">
  <rect fill="#fff" height="60" width="60"/>
  <g>
    <polygon fill="#cb2026" points="2.609 31.94 29.793 25.786 26.922 33.714 2.634 33.713 2.609 31.94" fill-rule="evenodd"/>
    <rect fill="#cb2026" x="23.264" width="2.669" height="6.644" y="23.758"/>
    <polygon fill="#cb2026" points="56.914 31.94 29.73 25.786 32.601 33.714 56.889 33.713 56.914 31.94" fill-rule="evenodd"/>
    <rect fill="#cb2026" x="33.59" width="2.669" height="6.644" y="23.758"/>
    <rect fill="#cb2026" x="28.137" width="2.973" height="35.515" y="18.296"/>
    <polygon fill="#cb2026" points="23.452 51.153 28.431 50.006 28.34 54.313 23.436 53.907 23.452 51.153" fill-rule="evenodd"/>
    <polygon fill="#cb2026" points="35.738 51.153 30.759 50.006 30.85 54.313 35.754 53.907 35.738 51.153" fill-rule="evenodd"/>
    <rect fill="#cb2026" x="28.002" width="4.641" height="4.641" y="27.949"/>
    <rect fill="#cb2026" x="26.986" width="5.138" height="2.056" y="29.972"/>
    <polygon fill="#cb2026" points="31.976 32.028 27.483 32.028 25.236 33.045 27.483 34.063 31.976 34.063 34.223 33.045 31.976 32.028" fill-rule="evenodd"/>
  </g>
  <g>
    <path fill="#cc1f36" d="M5.061,8.2H3.142V7.171H8.229V8.2H6.29v5.707H5.061Z"/>
    <path fill="#cc1f36" d="M9.021,7.261a11.662,11.662,0,0,1,1.859-.14,3.115,3.115,0,0,1,2.078.54,1.7,1.7,0,0,1,.581,1.349,1.8,1.8,0,0,1-1.22,1.689v.03a1.713,1.713,0,0,1,.94,1.3,13.288,13.288,0,0,0,.53,1.879h-1.27a9.467,9.467,0,0,1-.45-1.589c-.19-.88-.509-1.159-1.209-1.179h-.62v2.768H9.021Zm1.219,2.978h.73c.83,0,1.349-.44,1.349-1.109,0-.74-.519-1.08-1.319-1.08a3.607,3.607,0,0,0-.76.06Z"/>
    <path fill="#cc1f36" d="M16.129,12l-.579,1.909H14.281L16.44,7.171h1.568l2.19,6.736h-1.32L18.268,12Zm1.93-.929-.53-1.659c-.13-.41-.24-.87-.34-1.26h-.02c-.1.39-.2.86-.32,1.26l-.519,1.659Z"/>
    <path fill="#cc1f36" d="M21.141,13.907V7.171h1.4l1.739,2.889a18.291,18.291,0,0,1,1.149,2.258h.021c-.08-.9-.111-1.769-.111-2.8V7.171h1.14v6.736h-1.27L23.45,10.949A23.456,23.456,0,0,1,22.24,8.62l-.03.01c.05.87.06,1.759.06,2.869v2.408Z"/>
    <path fill="#cc1f36" d="M27.871,12.568A3.4,3.4,0,0,0,29.5,13c.79,0,1.229-.37,1.229-.92,0-.51-.34-.809-1.2-1.119-1.11-.4-1.82-.99-1.82-1.959,0-1.1.92-1.939,2.379-1.939a3.555,3.555,0,0,1,1.619.34l-.3.989a2.849,2.849,0,0,0-1.339-.32c-.779,0-1.119.42-1.119.81,0,.52.389.76,1.289,1.109,1.169.44,1.739,1.03,1.739,2,0,1.08-.82,2.019-2.559,2.019a3.994,3.994,0,0,1-1.818-.42Z"/>
    <path fill="#cc1f36" d="M33.091,7.261a10.641,10.641,0,0,1,1.879-.14,3.052,3.052,0,0,1,1.988.549,1.9,1.9,0,0,1,.66,1.49,2.042,2.042,0,0,1-.58,1.529,2.97,2.97,0,0,1-2.129.72,3.564,3.564,0,0,1-.6-.04v2.538H33.091ZM34.31,10.4a2.473,2.473,0,0,0,.6.05c.92,0,1.48-.449,1.48-1.239,0-.75-.52-1.149-1.369-1.149a3.322,3.322,0,0,0-.71.06Z"/>
    <path fill="#cc1f36" d="M44.657,10.469c0,2.259-1.369,3.548-3.228,3.548a3.113,3.113,0,0,1-3.1-3.428,3.225,3.225,0,0,1,3.2-3.528A3.111,3.111,0,0,1,44.657,10.469Zm-5.027.1c0,1.369.689,2.459,1.869,2.459s1.858-1.1,1.858-2.509c0-1.269-.628-2.469-1.858-2.469S39.63,9.18,39.63,10.569Z"/>
    <path fill="#cc1f36" d="M45.721,7.261a11.648,11.648,0,0,1,1.858-.14,3.12,3.12,0,0,1,2.079.54,1.7,1.7,0,0,1,.58,1.349A1.8,1.8,0,0,1,49.019,10.7v.03a1.715,1.715,0,0,1,.939,1.3,13.612,13.612,0,0,0,.529,1.879H49.219a9.366,9.366,0,0,1-.45-1.589c-.19-.88-.51-1.159-1.209-1.179h-.621v2.768H45.721Zm1.218,2.978h.73c.83,0,1.35-.44,1.35-1.109,0-.74-.52-1.08-1.32-1.08a3.622,3.622,0,0,0-.76.06Z"/>
    <path fill="#cc1f36" d="M52.749,8.2H50.83V7.171h5.087V8.2H53.979v5.707h-1.23Z"/>
  </g>
</svg>