<svg width="45.893" height="45.958" xmlns="http://www.w3.org/2000/svg" viewBox="0 0 45.893 45.958">
  <g>
    <rect rx="0.999" fill="#fff" x="1.377" width="43.088" height="43.121" y="1.409"/>
    <path fill="#333" d="M43.02,1.929V43.052H1.929V1.929H43.02m0-2H1.929a2,2,0,0,0-2,2V43.052a2,2,0,0,0,2,2H43.02a2,2,0,0,0,2-2V1.929a2,2,0,0,0-2-2Z" transform="translate(0.447 0.479)"/>
  </g>
  <g>
    <g>
      <rect rx="0.939" fill="#fff" x="2.69" width="40.513" height="40.542" y="2.766"/>
      <path fill="#fff" d="M41.817,3.226V41.89H3.183V3.226H41.817m0-1.879H3.183A1.879,1.879,0,0,0,1.3,3.226V41.89a1.879,1.879,0,0,0,1.879,1.879H41.817A1.879,1.879,0,0,0,43.7,41.89V3.226a1.879,1.879,0,0,0-1.879-1.879Z" transform="translate(0.447 0.479)"/>
    </g>
    <text fill="#333" font-size="17.521" font-weight="700" font-family="HelveticaNeue-CondensedBold, Helvetica Neue" transform="matrix(0, 0.993, -1, 0, 30.879, 18.804)">1</text>
    <text fill="#333" font-size="17.534" font-weight="700" font-family="HelveticaNeue-CondensedBold, Helvetica Neue" transform="translate(26.761 30.931) rotate(180) scale(0.991 1)">2</text>
    <text fill="#333" font-size="17.534" font-weight="700" font-family="HelveticaNeue-CondensedBold, Helvetica Neue" transform="translate(19.132 15.027) scale(0.991 1)">4</text>
    <text fill="#333" font-size="17.521" font-weight="700" font-family="HelveticaNeue-CondensedBold, Helvetica Neue" transform="matrix(0, -0.993, 1, 0, 15.015, 27.153)">3</text>
  </g>
</svg>