<svg width="45.894" height="45.957" xmlns="http://www.w3.org/2000/svg" viewBox="0 0 45.894 45.957">
  <g>
    <rect rx="0.999" fill="#fff" x="1.376" width="43.088" height="43.121" y="1.409"/>
    <path fill="#333" d="M43.02,1.929V43.052H1.929V1.929H43.02m0-2H1.929a2,2,0,0,0-2,2V43.052a2,2,0,0,0,2,2H43.02a2,2,0,0,0,2-2V1.929a2,2,0,0,0-2-2Z" transform="translate(0.446 0.479)"/>
  </g>
  <g>
    <g>
      <rect rx="0.939" fill="#fff" x="2.69" width="40.513" height="40.543" y="2.649"/>
      <path fill="#fff" d="M41.817,3.11V41.774H3.183V3.11H41.817m0-1.879H3.183A1.879,1.879,0,0,0,1.3,3.11V41.774a1.879,1.879,0,0,0,1.879,1.879H41.817A1.879,1.879,0,0,0,43.7,41.774V3.11a1.879,1.879,0,0,0-1.879-1.879Z" transform="translate(0.446 0.479)"/>
    </g>
    <text fill="#333" font-size="17.521" font-weight="700" font-family="HelveticaNeue-CondensedBold, Helvetica Neue" transform="translate(15.015 27.153) rotate(-90) scale(0.993 1)">7</text>
    <text fill="#333" font-size="17.534" font-weight="700" font-family="HelveticaNeue-CondensedBold, Helvetica Neue" transform="translate(19.132 15.026) scale(0.991 1)">8</text>
    <text fill="#333" font-size="17.534" font-weight="700" font-family="HelveticaNeue-CondensedBold, Helvetica Neue" transform="translate(26.761 30.93) rotate(180) scale(0.991 1)">6</text>
    <text fill="#333" font-size="17.521" font-weight="700" font-family="HelveticaNeue-CondensedBold, Helvetica Neue" transform="translate(30.878 18.804) rotate(90) scale(0.993 1)">5</text>
  </g>
</svg>