<svg width="45.957" height="45.893" xmlns="http://www.w3.org/2000/svg" viewBox="0 0 45.957 45.893">
  <g>
    <rect rx="0.999" fill="#fff" x="1.409" width="43.088" height="43.121" y="1.377"/>
    <path fill="#333" d="M43.02,1.929V43.052H1.929V1.929H43.02m0-2H1.929a2,2,0,0,0-2,2V43.052a2,2,0,0,0,2,2H43.02a2,2,0,0,0,2-2V1.929a2,2,0,0,0-2-2Z" transform="translate(0.479 0.447)"/>
  </g>
  <g>
    <g>
      <rect rx="0.939" fill="#fff" x="2.649" width="40.543" height="40.513" y="2.69"/>
      <path fill="#fff" d="M41.774,3.183V41.817H3.11V3.183H41.774m0-1.879H3.11A1.879,1.879,0,0,0,1.231,3.183V41.817A1.879,1.879,0,0,0,3.11,43.7H41.774a1.879,1.879,0,0,0,1.879-1.879V3.183A1.879,1.879,0,0,0,41.774,1.3Z" transform="translate(0.479 0.447)"/>
    </g>
    <text fill="#333" font-size="17.521" font-weight="700" font-family="HelveticaNeue-CondensedBold, Helvetica Neue" transform="translate(27.153 30.878) rotate(180) scale(0.993 1)">1</text>
    <text fill="#333" font-size="17.534" font-weight="700" font-family="HelveticaNeue-CondensedBold, Helvetica Neue" transform="translate(15.026 26.761) rotate(-90) scale(0.991 1)">2</text>
    <text fill="#333" font-size="17.534" font-weight="700" font-family="HelveticaNeue-CondensedBold, Helvetica Neue" transform="translate(30.93 19.132) rotate(90) scale(0.991 1)">4</text>
    <text fill="#333" font-size="17.521" font-weight="700" font-family="HelveticaNeue-CondensedBold, Helvetica Neue" transform="translate(18.804 15.015) scale(0.993 1)">3</text>
  </g>
</svg>