<svg width="37.5" height="60" xmlns="http://www.w3.org/2000/svg" viewBox="0 0 37.5 60">
  <g>
    <rect fill="#999" height="60" width="37.5"/>
    <polygon fill="#666766" points="31.281 30.545 31.281 0 0 0 31.281 30.545" fill-rule="evenodd"/>
    <polygon fill="#666766" points="37.5 60 37.5 30 6.777 30 37.5 60" fill-rule="evenodd"/>
    <rect fill="#666766" x="29.792" width="7.708" height="32.403"/>
    <rect fill="#cccccb" x="2.768" width="32.039" height="54.702" y="2.649"/>
  </g>
  <g>
    <circle fill="#273476" r="10.912" cx="18.483" cy="19.132"/>
    <circle fill="#fff" r="7.275" cx="18.483" cy="19.132"/>
    <circle fill="#ce2028" r="3.637" cx="18.483" cy="19.132"/>
  </g>
  <path fill="#333" d="M15.27,52.138a.937.937,0,0,1-.672-.228.836.836,0,0,1-.24-.637.758.758,0,0,1,.24-.611,1.007,1.007,0,0,1,.672-.2h3.12V36.85h1.032l-3.48,2.3a1.048,1.048,0,0,1-.588.144.709.709,0,0,1-.456-.2.981.981,0,0,1-.252-.432.858.858,0,0,1,.024-.528.91.91,0,0,1,.409-.468l3.311-2.184a4.283,4.283,0,0,1,.6-.312,1.483,1.483,0,0,1,.575-.12.747.747,0,0,1,.791.84V50.458h2.881a1.009,1.009,0,0,1,.672.2.758.758,0,0,1,.24.611.83.83,0,0,1-.24.649.976.976,0,0,1-.672.216Z"/>
</svg>