<svg width="60" height="60" xmlns="http://www.w3.org/2000/svg" viewBox="0 0 60 60">
  <rect fill="#ffcd34" width="60" height="60"/>
  <g>
    <path d="M14.032,29.2a4.359,4.359,0,0,1-1.785.3c-2.769,0-4.35-2.261-4.35-6.009,0-4.67,2.464-6.343,4.622-6.343a3.288,3.288,0,0,1,1.586.308l-.354,1.627a2.409,2.409,0,0,0-1.153-.249c-1.322,0-2.671,1.209-2.671,4.523,0,3.268,1.223,4.436,2.682,4.436a3.566,3.566,0,0,0,1.2-.214Z" transform="translate(0 0)"/>
    <path d="M20.955,24.986c0,3.535-1.822,4.547-3.155,4.547-1.859,0-3.127-1.555-3.127-4.506,0-3.166,1.555-4.547,3.192-4.547C19.7,20.48,20.955,22.1,20.955,24.986ZM16.59,25c0,1.475.249,3.052,1.272,3.052.957,0,1.176-1.73,1.176-3.052,0-1.272-.219-3.034-1.212-3.034C16.8,21.963,16.59,23.725,16.59,25Z" transform="translate(0 0)"/>
    <path d="M22.393,23.093c0-.99-.044-1.693-.073-2.469h1.666l.1,1.031h.037a2.362,2.362,0,0,1,2.072-1.175c1.461,0,2.239,1.135,2.239,3.167v5.742H26.509V23.831c0-.876-.185-1.732-1.023-1.732-.476,0-.9.366-1.074,1.072a2.967,2.967,0,0,0-.1.8v5.42H22.393Z" transform="translate(0 0)"/>
    <path d="M32.43,18.276v2.348h1.7v1.393h-1.7v4.546c0,1.073.417,1.346.9,1.346a3.012,3.012,0,0,0,.594-.054l.039,1.5A4.409,4.409,0,0,1,32.7,29.5a2.094,2.094,0,0,1-1.552-.546,3.132,3.132,0,0,1-.644-2.369V22.017h-1.05V20.624h1.05V18.766Z" transform="translate(0 0)"/>
    <path d="M39.008,29.389,38.9,28.5h-.043a2.148,2.148,0,0,1-1.857,1.036,2.334,2.334,0,0,1-2.206-2.592c0-2.252,1.905-3.2,3.888-3.222v-.232c0-.913-.357-1.555-1.31-1.555a2.969,2.969,0,0,0-1.635.486l-.369-1.311a4.876,4.876,0,0,1,2.422-.627c2.257,0,2.834,1.545,2.834,3.41v3.5a13.656,13.656,0,0,0,.113,2ZM38.729,25c-.749.01-2.1.218-2.1,1.744,0,.989.528,1.346.95,1.346a1.164,1.164,0,0,0,1.108-1,1.792,1.792,0,0,0,.047-.445Z" transform="translate(0 0)"/>
    <path d="M47.01,29.208a3.451,3.451,0,0,1-1.477.29c-2.081,0-3.465-1.541-3.465-4.422,0-2.625,1.453-4.576,3.777-4.576a3,3,0,0,1,1.259.255l-.292,1.525a2.378,2.378,0,0,0-.929-.2c-1.252,0-1.9,1.34-1.9,2.955,0,1.792.724,2.883,1.9,2.883a2.046,2.046,0,0,0,.936-.208Z" transform="translate(0 0)"/>
    <path d="M50.645,18.276v2.348h1.7v1.393h-1.7v4.546c0,1.073.417,1.346.9,1.346a3.012,3.012,0,0,0,.594-.054l.039,1.5a4.419,4.419,0,0,1-1.256.147,2.1,2.1,0,0,1-1.553-.546,3.132,3.132,0,0,1-.644-2.369V22.017H47.674V20.624h1.049V18.766Z" transform="translate(0 0)"/>
  </g>
</svg>