<svg width="60" height="60" xmlns="http://www.w3.org/2000/svg" viewBox="0 0 60 60">
  <rect fill="#999" x="15" width="45" height="60"/>
  <g>
    <rect fill="#999" height="60" width="60"/>
    <polygon fill="#666766" points="31.281 30.545 31.281 0 0 0 31.281 30.545" fill-rule="evenodd"/>
    <polygon fill="#666766" points="60 60 60 30 29.277 30 60 60" fill-rule="evenodd"/>
    <rect fill="#666766" x="2.768" width="57.232" height="32.403"/>
    <rect fill="#cccccb" x="2.768" width="54.496" height="54.702" y="2.649"/>
  </g>
  <g>
    <path fill="#333" d="M19.412,26.085a6.371,6.371,0,0,1-3.267-.792,5.22,5.22,0,0,1-2.081-2.259,7.77,7.77,0,0,1-.723-3.465,8.259,8.259,0,0,1,.411-2.691,5.8,5.8,0,0,1,1.187-2.052,5.063,5.063,0,0,1,1.911-1.3,6.894,6.894,0,0,1,2.562-.45,7.109,7.109,0,0,1,2.027.288,5.232,5.232,0,0,1,1.687.828.958.958,0,0,1,.4.477.922.922,0,0,1,.036.531.858.858,0,0,1-.242.423.7.7,0,0,1-.455.189.97.97,0,0,1-.6-.2,4.078,4.078,0,0,0-1.3-.666,5.15,5.15,0,0,0-1.5-.216,4.311,4.311,0,0,0-2.286.567,3.574,3.574,0,0,0-1.41,1.647,6.419,6.419,0,0,0-.482,2.628,6.484,6.484,0,0,0,.482,2.637,3.567,3.567,0,0,0,1.41,1.656,4.311,4.311,0,0,0,2.286.567,5.058,5.058,0,0,0,1.509-.225,4.909,4.909,0,0,0,1.365-.675,1,1,0,0,1,.58-.18.7.7,0,0,1,.438.18.807.807,0,0,1,.241.405.905.905,0,0,1-.018.5.814.814,0,0,1-.348.441,5.065,5.065,0,0,1-1.732.9A7.1,7.1,0,0,1,19.412,26.085Z"/>
    <path fill="#333" d="M26.769,26.049a.908.908,0,0,1-.688-.252.973.973,0,0,1-.241-.7V14.187a.946.946,0,0,1,.25-.711.959.959,0,0,1,.7-.243h4.267A4.482,4.482,0,0,1,34.2,14.25,3.68,3.68,0,0,1,35.3,17.1,3.7,3.7,0,0,1,34.2,19.974a4.477,4.477,0,0,1-3.142,1.017H27.7v4.1a1,1,0,0,1-.232.7A.9.9,0,0,1,26.769,26.049ZM27.7,19.5h3.089a2.993,2.993,0,0,0,2.027-.6A2.256,2.256,0,0,0,33.5,17.1a2.233,2.233,0,0,0-.687-1.773,2.993,2.993,0,0,0-2.027-.6H27.7Z"/>
    <path fill="#333" d="M35.946,26.049a.924.924,0,0,1-.571-.162.62.62,0,0,1-.25-.432,1.183,1.183,0,0,1,.107-.612L40.07,13.9a1.285,1.285,0,0,1,.456-.612,1.105,1.105,0,0,1,.616-.18,1.078,1.078,0,0,1,.6.18,1.29,1.29,0,0,1,.455.612l4.839,10.944a1.129,1.129,0,0,1,.125.621.623.623,0,0,1-.232.432.883.883,0,0,1-.553.153.928.928,0,0,1-.625-.2,1.649,1.649,0,0,1-.411-.612l-1.25-2.916.839.5H37.321l.821-.5L36.91,25.239a1.678,1.678,0,0,1-.393.621A.83.83,0,0,1,35.946,26.049ZM41.106,15.3l-2.7,6.444-.447-.432h6.3l-.411.432L41.142,15.3Z"/>
    <path fill="#333" d="M14.484,47.685a6.367,6.367,0,0,1-3.268-.792,5.215,5.215,0,0,1-2.08-2.258,7.756,7.756,0,0,1-.723-3.465,8.265,8.265,0,0,1,.411-2.692,5.8,5.8,0,0,1,1.187-2.051,5.056,5.056,0,0,1,1.91-1.3,6.9,6.9,0,0,1,2.563-.45,7.067,7.067,0,0,1,2.026.288,5.207,5.207,0,0,1,1.688.828.96.96,0,0,1,.4.476.917.917,0,0,1,.035.532.866.866,0,0,1-.241.423.7.7,0,0,1-.455.188.969.969,0,0,1-.6-.2,4.058,4.058,0,0,0-1.3-.666,5.117,5.117,0,0,0-1.5-.216,4.311,4.311,0,0,0-2.286.566,3.579,3.579,0,0,0-1.411,1.648,7.427,7.427,0,0,0,0,5.264,3.573,3.573,0,0,0,1.411,1.657,4.311,4.311,0,0,0,2.286.566,5.015,5.015,0,0,0,1.508-.225,4.953,4.953,0,0,0,1.366-.674,1,1,0,0,1,.58-.181.7.7,0,0,1,.438.181.8.8,0,0,1,.241.4.915.915,0,0,1-.018.5.817.817,0,0,1-.348.44,5.068,5.068,0,0,1-1.732.9A7.1,7.1,0,0,1,14.484,47.685Z"/>
    <path fill="#333" d="M23.876,47.685a4.437,4.437,0,0,1-2.277-.557,3.86,3.86,0,0,1-1.491-1.584,5.15,5.15,0,0,1-.535-2.412,5.488,5.488,0,0,1,.3-1.891,4.2,4.2,0,0,1,.866-1.431,3.7,3.7,0,0,1,1.357-.918,4.786,4.786,0,0,1,1.777-.314,4.384,4.384,0,0,1,2.258.558,3.876,3.876,0,0,1,1.492,1.575,5.137,5.137,0,0,1,.535,2.421,5.541,5.541,0,0,1-.3,1.889,4.052,4.052,0,0,1-.865,1.441,3.759,3.759,0,0,1-1.357.909A4.755,4.755,0,0,1,23.876,47.685Zm0-1.4a2.306,2.306,0,0,0,1.286-.359,2.382,2.382,0,0,0,.865-1.063,4.248,4.248,0,0,0,.313-1.727,3.505,3.505,0,0,0-.679-2.34A2.232,2.232,0,0,0,23.876,40a2.383,2.383,0,0,0-1.3.35,2.32,2.32,0,0,0-.865,1.053,4.238,4.238,0,0,0-.313,1.729,3.555,3.555,0,0,0,.678,2.339A2.235,2.235,0,0,0,23.876,46.281Z"/>
    <path fill="#333" d="M33.231,47.685a7.608,7.608,0,0,1-1.615-.179,4.8,4.8,0,0,1-1.527-.613.884.884,0,0,1-.321-.36.739.739,0,0,1-.063-.4.673.673,0,0,1,.161-.361.565.565,0,0,1,.339-.188.663.663,0,0,1,.438.09,5.158,5.158,0,0,0,1.339.549,5.512,5.512,0,0,0,1.268.153,2.459,2.459,0,0,0,1.428-.343,1.067,1.067,0,0,0,.482-.918.883.883,0,0,0-.322-.728,2.352,2.352,0,0,0-.963-.406l-1.7-.341a3.172,3.172,0,0,1-1.678-.829,2.09,2.09,0,0,1-.572-1.511,2.378,2.378,0,0,1,.447-1.441,2.855,2.855,0,0,1,1.25-.944,4.8,4.8,0,0,1,1.856-.333,5.388,5.388,0,0,1,1.482.2,4.489,4.489,0,0,1,1.286.595.6.6,0,0,1,.3.333.738.738,0,0,1,.027.4.756.756,0,0,1-.188.352.564.564,0,0,1-.348.179.789.789,0,0,1-.456-.1,3.86,3.86,0,0,0-1.062-.487,3.985,3.985,0,0,0-1.045-.143,2.365,2.365,0,0,0-1.419.351,1.116,1.116,0,0,0-.473.945,1,1,0,0,0,.286.737,1.72,1.72,0,0,0,.893.414l1.7.342a3.577,3.577,0,0,1,1.758.792A1.97,1.97,0,0,1,36.82,45a2.3,2.3,0,0,1-.982,1.962A4.316,4.316,0,0,1,33.231,47.685Z"/>
    <path fill="#333" d="M42.444,47.685a3.9,3.9,0,0,1-1.8-.378,2.4,2.4,0,0,1-1.089-1.116,4.105,4.105,0,0,1-.357-1.8V40.143H38.124a.765.765,0,0,1-.554-.188.68.68,0,0,1-.2-.514.671.671,0,0,1,.2-.521.79.79,0,0,1,.554-.181H39.2V36.886a.908.908,0,0,1,.241-.684.921.921,0,0,1,.669-.234.89.89,0,0,1,.661.234.929.929,0,0,1,.232.684v1.853h2.089a.791.791,0,0,1,.554.181.671.671,0,0,1,.2.521.68.68,0,0,1-.2.514.767.767,0,0,1-.554.188H41v4.1a2.213,2.213,0,0,0,.4,1.439,1.61,1.61,0,0,0,1.312.487,2.192,2.192,0,0,0,.563-.064,3.09,3.09,0,0,1,.4-.081.414.414,0,0,1,.321.136.775.775,0,0,1,.125.513,1.3,1.3,0,0,1-.1.5.512.512,0,0,1-.348.306,4.2,4.2,0,0,1-.581.136A3.877,3.877,0,0,1,42.444,47.685Z"/>
    <path fill="#333" d="M48.3,47.685a7.617,7.617,0,0,1-1.616-.179,4.809,4.809,0,0,1-1.527-.613.892.892,0,0,1-.321-.36.739.739,0,0,1-.063-.4.681.681,0,0,1,.161-.361.567.567,0,0,1,.339-.188.663.663,0,0,1,.438.09,5.173,5.173,0,0,0,1.339.549,5.519,5.519,0,0,0,1.268.153,2.455,2.455,0,0,0,1.428-.343,1.068,1.068,0,0,0,.483-.918.886.886,0,0,0-.322-.728,2.363,2.363,0,0,0-.964-.406l-1.7-.341a3.176,3.176,0,0,1-1.679-.829A2.089,2.089,0,0,1,45,41.3a2.384,2.384,0,0,1,.446-1.441,2.861,2.861,0,0,1,1.25-.944,4.8,4.8,0,0,1,1.857-.333,5.393,5.393,0,0,1,1.482.2,4.483,4.483,0,0,1,1.285.595.6.6,0,0,1,.3.333.738.738,0,0,1,.027.4.747.747,0,0,1-.188.352.561.561,0,0,1-.348.179.784.784,0,0,1-.455-.1,3.873,3.873,0,0,0-1.062-.487,4,4,0,0,0-1.045-.143,2.369,2.369,0,0,0-1.42.351,1.116,1.116,0,0,0-.473.945,1,1,0,0,0,.286.737,1.72,1.72,0,0,0,.893.414l1.7.342a3.577,3.577,0,0,1,1.759.792A1.974,1.974,0,0,1,51.89,45a2.3,2.3,0,0,1-.982,1.962A4.318,4.318,0,0,1,48.3,47.685Z"/>
  </g>
</svg>