<svg width="60" height="60" xmlns="http://www.w3.org/2000/svg" viewBox="0 0 60 60">
  <rect fill="#ffcd34" height="60" width="60"/>
  <g>
    <path stroke-linecap="round" transform="translate(0 0)" fill="#010101" stroke-linejoin="round" d="M2.3,28.909H23.189v2.262H2.3Z" stroke="#010101" stroke-width="1.319"/>
    <path stroke-linecap="round" transform="translate(0 0)" fill="#010101" stroke-linejoin="round" d="M37,28.806H57.886v2.262H37Z" stroke="#010101" stroke-width="1.319"/>
    <path stroke-linecap="round" transform="translate(0 0)" fill="#010101" stroke-linejoin="round" d="M31.267,2.289V23.176H29V2.289Z" stroke="#010101" stroke-width="1.319"/>
    <path stroke-linecap="round" transform="translate(0 0)" fill="#010101" stroke-linejoin="round" d="M31.374,36.986V57.872H29.111V36.986Z" stroke="#010101" stroke-width="1.319"/>
    <path stroke-linecap="round" transform="translate(0 0)" fill="#010101" stroke-linejoin="round" d="M33.166,29.9v.134l-.006.066c0,.021,0,.043,0,.066s-.005.043-.008.066l-.006.063-.01.066-.011.066-.01.066c-.005.021-.01.042-.013.063l-.016.066-.016.064q-.007.032-.018.063c-.006.021-.012.042-.019.063l-.021.063-.021.064c-.007.019-.015.04-.024.06s-.017.042-.024.061-.017.041-.026.061a.555.555,0,0,1-.029.06c-.009.02-.018.04-.029.061s-.018.039-.029.058l-.032.058c-.01.02-.022.039-.034.058l-.034.056c-.011.019-.022.037-.034.055l-.037.055c-.013.018-.025.036-.037.056s-.026.035-.04.052-.027.036-.039.053l-.043.05c-.014.018-.028.035-.042.05a.547.547,0,0,1-.045.051l-.045.05-.044.047q-.024.021-.048.045c-.016.016-.031.031-.047.045s-.033.03-.05.044l-.05.045a.5.5,0,0,1-.051.04l-.052.042c-.018.014-.035.028-.053.04s-.035.025-.053.039l-.055.037a.521.521,0,0,1-.056.034c-.017.013-.036.025-.055.037l-.058.032-.058.032-.058.031a.523.523,0,0,1-.058.029.667.667,0,0,1-.061.029l-.06.027-.061.026-.061.024-.063.024-.063.021a.613.613,0,0,1-.061.018.636.636,0,0,1-.066.018.5.5,0,0,1-.063.019l-.063.016c-.021,0-.043.008-.066.013s-.043.008-.064.013l-.066.011-.065.01-.066.008-.064,0-.066.006-.066.005h-.068q-.031,0-.066,0l-.066,0h-.066l-.066-.005-.066-.006-.066,0-.063-.008-.066-.01-.066-.011a.642.642,0,0,0-.066-.013c-.021-.005-.042-.01-.063-.013l-.063-.016a.458.458,0,0,1-.066-.019l-.064-.018-.063-.018L29.27,32.7l-.063-.024a.536.536,0,0,1-.06-.024l-.061-.026-.061-.027a.415.415,0,0,1-.06-.029.448.448,0,0,1-.058-.029l-.058-.031-.058-.032-.058-.032c-.02-.012-.038-.024-.056-.037a.507.507,0,0,1-.055-.034c-.02-.012-.038-.025-.056-.037s-.035-.027-.052-.039-.036-.026-.053-.04l-.053-.042a.625.625,0,0,1-.05-.04l-.05-.045a.524.524,0,0,1-.05-.044l-.048-.045c-.015-.016-.031-.031-.047-.045l-.045-.047-.045-.05a.547.547,0,0,1-.045-.051c-.014-.015-.028-.032-.042-.05s-.028-.032-.042-.05-.027-.035-.04-.053-.027-.035-.039-.052-.025-.038-.037-.056-.025-.036-.037-.055-.025-.036-.037-.055a.521.521,0,0,0-.034-.056l-.032-.058-.031-.058a.523.523,0,0,1-.029-.058.667.667,0,0,1-.029-.061.415.415,0,0,1-.029-.06l-.027-.061A.484.484,0,0,1,27.519,31l-.023-.06-.021-.064-.021-.063a.5.5,0,0,1-.019-.063q-.01-.031-.018-.063l-.016-.064-.016-.066c-.005-.021-.01-.042-.013-.063l-.011-.066a.35.35,0,0,1-.01-.066L27.34,30.3c0-.021,0-.042-.008-.063l0-.066-.005-.066c0-.022,0-.045,0-.066v-.2q0-.032,0-.066l.005-.066,0-.066c0-.021.006-.042.008-.063l.011-.066a.35.35,0,0,1,.01-.066l.011-.066c0-.021.008-.042.013-.063l.016-.066.016-.063c0-.022.011-.043.018-.064a.5.5,0,0,1,.019-.063L27.475,29l.021-.064.023-.06a.553.553,0,0,1,.024-.061l.027-.061a.415.415,0,0,1,.029-.06c.008-.019.018-.04.029-.061a.523.523,0,0,1,.029-.058l.031-.058.032-.058a.507.507,0,0,0,.034-.055c.012-.02.025-.038.037-.056s.025-.038.037-.055.025-.036.037-.056.025-.035.039-.052l.04-.053c.014-.018.028-.034.042-.05s.028-.034.042-.05a.535.535,0,0,1,.045-.05l.045-.05q.021-.024.045-.048c.016-.014.032-.029.047-.045s.032-.03.048-.044a.535.535,0,0,1,.05-.045c.016-.015.032-.029.05-.043a.484.484,0,0,1,.05-.042l.053-.042c.017-.014.035-.027.053-.04s.035-.025.052-.039.036-.025.056-.037a.507.507,0,0,1,.055-.034c.018-.013.036-.025.056-.037l.058-.032.058-.032.058-.031a.627.627,0,0,1,.058-.029.555.555,0,0,1,.06-.029l.061-.027.061-.026a.536.536,0,0,1,.06-.024c.021-.007.042-.014.063-.023l.061-.021c.021-.007.042-.014.063-.019l.064-.018.066-.019.063-.016c.021,0,.042-.008.063-.013a.642.642,0,0,0,.066-.013l.066-.011.066-.01.063-.008.066,0,.066-.006.066,0h.066a.5.5,0,0,1,.066,0,.475.475,0,0,1,.066,0h.068l.066,0,.066.006.064,0,.066.008.065.01.066.011c.021.005.043.01.064.013s.045.01.066.013l.063.016.063.019a.636.636,0,0,1,.066.018.617.617,0,0,1,.061.019l.063.021c.021.009.042.016.063.023l.061.024.061.026.06.027c.02.009.04.018.061.029s.039.018.058.029l.058.031.058.032.058.032c.019.012.038.024.055.037a.521.521,0,0,1,.056.034c.019.012.038.024.055.037s.035.027.053.039l.053.04.052.042a.406.406,0,0,1,.051.042c.017.014.034.028.05.043s.034.029.05.045.031.028.047.044.032.031.048.045l.044.048.045.05a.535.535,0,0,1,.045.05c.014.016.028.032.042.05l.043.05c.012.018.025.035.039.053s.027.035.04.052.024.038.037.056l.037.055c.012.018.023.036.034.056l.034.055c.012.019.024.039.034.058l.032.058c.011.019.02.039.029.058s.02.042.029.061a.555.555,0,0,1,.029.06c.009.02.018.04.026.061s.015.04.024.061.017.041.024.06L33.01,29l.021.063c.007.021.013.042.019.063s.013.042.018.064l.016.063.016.066c0,.021.008.042.013.063l.01.066.011.066.01.066.006.063c0,.023.006.045.008.066s0,.045,0,.066l.006.066Z" stroke="#010101" stroke-width="1.319"/>
  </g>
</svg>