<svg width="60" height="60" xmlns="http://www.w3.org/2000/svg" viewBox="0 0 60 60">
  <rect fill="#ffcd34" height="60" width="60"/>
  <g>
    <path stroke-linecap="round" transform="translate(0 0)" fill="#010101" stroke-linejoin="round" d="M1.129,27.41h58.02v1.677H1.129Z" stroke="#010101" stroke-width="0.969"/>
    <g>
      <rect fill="#010101" x="5.227" width="3.39" height="16.509" y="20.17"/>
      <path fill="#010101" d="M7.935,20.85V36H5.906l0-15.147H7.935M9.3,19.488l-4.75,0,0,17.871,4.753,0V19.488Z" transform="translate(0 0)"/>
    </g>
    <g>
      <rect fill="#010101" x="16.669" width="3.388" height="16.508" y="20.095"/>
      <path fill="#010101" d="M19.376,20.776V35.923H17.35V20.777h2.026m1.362-1.363-4.75,0v17.87l4.75,0V19.413Z" transform="translate(0 0)"/>
    </g>
    <g>
      <rect fill="#010101" x="39.863" width="3.389" height="16.509" y="20.05"/>
      <path fill="#010101" d="M42.571,20.73V35.877H40.544V20.731h2.027m1.361-1.362-4.749,0V37.241l4.749,0V19.368Z" transform="translate(0 0)"/>
    </g>
    <g>
      <rect fill="#010101" x="51.213" width="3.388" height="16.509" y="20.124"/>
      <path fill="#010101" d="M53.92,20.805V35.951l-2.026,0V20.806H53.92m1.361-1.363-4.749,0v17.87l4.749,0V19.442Z" transform="translate(0 0)"/>
    </g>
    <g>
      <rect fill="#010101" x="28.018" width="3.388" height="16.509" y="20.17"/>
      <path fill="#010101" d="M30.725,20.85V36H28.7V20.851h2.026m1.362-1.362-4.75,0V37.361l4.75,0V19.488Z" transform="translate(0 0)"/>
    </g>
    <g>
      <path stroke-linecap="round" transform="translate(0 0)" fill="#fff" stroke-linejoin="round" d="M32.624,13.967l.077,12.2-3.284-.429Z" stroke="#fff" stroke-width="0.969"/>
      <path stroke-linecap="round" transform="translate(0 0)" fill="#fff" stroke-linejoin="round" d="M44.477,28.458l-12.163.929.2-3.307Z" stroke="#fff" stroke-width="0.969"/>
      <path stroke-linecap="round" transform="translate(0 0)" fill="#fff" stroke-linejoin="round" d="M34.012,41.408,29.33,30.146l3.2-.843Z" stroke="#fff" stroke-width="0.969"/>
      <path stroke-linecap="round" transform="translate(0 0)" fill="#fff" stroke-linejoin="round" d="M18.7,34.187l9.888-7.141,1.557,2.923Z" stroke="#fff" stroke-width="0.969"/>
      <path stroke-linecap="round" transform="translate(0 0)" fill="#fff" stroke-linejoin="round" d="M19.313,19.96,30.279,25.3l-1.843,2.752Z" stroke="#fff" stroke-width="0.969"/>
      <path stroke-linecap="round" transform="translate(0 0)" fill="#fff" stroke-linejoin="round" d="M30.009,25.043l2.836,1.3-.358,3.1-3.05.619L27.91,27.341Z" stroke="#fff" stroke-width="0.969"/>
    </g>
    <g>
      <path stroke-linecap="round" transform="translate(0 0)" fill="#fff" stroke-linejoin="round" d="M40.133,18.541,33.2,28.577l-2.444-2.234Z" stroke="#fff" stroke-width="0.969"/>
      <path stroke-linecap="round" transform="translate(0 0)" fill="#fff" stroke-linejoin="round" d="M41.531,37.21l-10.5-6.216L33.1,28.4Z" stroke="#fff" stroke-width="0.969"/>
      <path stroke-linecap="round" transform="translate(0 0)" fill="#fff" stroke-linejoin="round" d="M25.53,41.816l2.625-11.911,3.107,1.146Z" stroke="#fff" stroke-width="0.969"/>
      <path stroke-linecap="round" transform="translate(0 0)" fill="#fff" stroke-linejoin="round" d="M17.13,27.118l12.2-.179-.4,3.288Z" stroke="#fff" stroke-width="0.969"/>
      <path stroke-linecap="round" transform="translate(0 0)" fill="#fff" stroke-linejoin="round" d="M25.792,15.816l5.917,10.666-3.087,1.2Z" stroke="#fff" stroke-width="0.969"/>
      <path stroke-linecap="round" transform="translate(0 0)" fill="#fff" stroke-linejoin="round" d="M31.638,26.114,33.217,28.8l-2.068,2.33L28.3,29.89l.3-3.1Z" stroke="#fff" stroke-width="0.969"/>
    </g>
  </g>
</svg>