<svg width="60" height="60" xmlns="http://www.w3.org/2000/svg" viewBox="0 0 60 60">
  <rect fill="#999" x="15" width="45" height="60"/>
  <g>
    <rect fill="#999" height="60" width="60"/>
    <polygon fill="#666766" points="31.281 30.545 31.281 0 0 0 31.281 30.545" fill-rule="evenodd"/>
    <polygon fill="#666766" points="60 60 60 30 29.277 30 60 60" fill-rule="evenodd"/>
    <rect fill="#666766" x="2.768" width="57.232" height="32.403"/>
    <rect fill="#cccccb" x="2.768" width="54.496" height="54.702" y="2.649"/>
  </g>
  <g>
    <path fill="#333" d="M4.524,26.584a.776.776,0,0,1-.576-.2.792.792,0,0,1-.2-.581V17.5a.791.791,0,0,1,.2-.581.776.776,0,0,1,.576-.2H7.2a5.151,5.151,0,0,1,3.729,1.267,4.854,4.854,0,0,1,1.312,3.661,6.216,6.216,0,0,1-.333,2.114,4,4,0,0,1-.979,1.547,4.317,4.317,0,0,1-1.576.952,6.46,6.46,0,0,1-2.153.329Zm.666-1.218H7.121a4.911,4.911,0,0,0,1.59-.231,2.888,2.888,0,0,0,1.132-.693,2.844,2.844,0,0,0,.68-1.162,5.434,5.434,0,0,0,.223-1.638,3.825,3.825,0,0,0-.91-2.786,3.651,3.651,0,0,0-2.715-.924H5.19Z"/>
    <path fill="#333" d="M14.717,18.226a.922.922,0,0,1-.646-.21.878.878,0,0,1,0-1.183,1.129,1.129,0,0,1,1.292,0,.878.878,0,0,1,0,1.183A.922.922,0,0,1,14.717,18.226Zm0,8.442a.653.653,0,0,1-.514-.2.828.828,0,0,1-.181-.567v-5.46a.8.8,0,0,1,.181-.56.663.663,0,0,1,.514-.2.686.686,0,0,1,.521.2.778.778,0,0,1,.187.56V25.9a.828.828,0,0,1-.18.567A.671.671,0,0,1,14.717,26.668Z"/>
    <path fill="#333" d="M19.772,26.71a5.947,5.947,0,0,1-1.257-.14,3.753,3.753,0,0,1-1.187-.476.694.694,0,0,1-.25-.28.568.568,0,0,1-.049-.315.517.517,0,0,1,.125-.28.443.443,0,0,1,.264-.147.512.512,0,0,1,.34.07,3.985,3.985,0,0,0,1.042.427,4.258,4.258,0,0,0,.986.119,1.922,1.922,0,0,0,1.111-.266.833.833,0,0,0,.375-.714.688.688,0,0,0-.25-.567,1.841,1.841,0,0,0-.75-.315l-1.319-.266a2.465,2.465,0,0,1-1.306-.644A1.628,1.628,0,0,1,17.2,21.74a1.846,1.846,0,0,1,.347-1.12,2.212,2.212,0,0,1,.972-.735,3.743,3.743,0,0,1,1.444-.259,4.183,4.183,0,0,1,1.153.154,3.479,3.479,0,0,1,1,.462.469.469,0,0,1,.236.259.568.568,0,0,1,.021.315.578.578,0,0,1-.146.273.442.442,0,0,1-.271.14.615.615,0,0,1-.354-.077,2.987,2.987,0,0,0-.826-.378,3.063,3.063,0,0,0-.813-.112,1.846,1.846,0,0,0-1.1.273.869.869,0,0,0-.368.735.781.781,0,0,0,.222.574,1.347,1.347,0,0,0,.7.322l1.319.266a2.764,2.764,0,0,1,1.368.616,1.53,1.53,0,0,1,.466,1.176A1.79,1.79,0,0,1,21.8,26.15,3.353,3.353,0,0,1,19.772,26.71Z"/>
    <path fill="#333" d="M26.938,26.71a3.034,3.034,0,0,1-1.4-.294,1.87,1.87,0,0,1-.847-.868,3.183,3.183,0,0,1-.278-1.4v-3.3h-.833a.593.593,0,0,1-.43-.147.524.524,0,0,1-.153-.4.518.518,0,0,1,.153-.406.613.613,0,0,1,.43-.14h.833V18.31a.707.707,0,0,1,.188-.532.716.716,0,0,1,.52-.182.693.693,0,0,1,.514.182.724.724,0,0,1,.181.532v1.442h1.625a.615.615,0,0,1,.43.14.521.521,0,0,1,.153.406.527.527,0,0,1-.153.4.6.6,0,0,1-.43.147H25.813v3.192a1.725,1.725,0,0,0,.312,1.12,1.254,1.254,0,0,0,1.021.378,1.775,1.775,0,0,0,.438-.049,2.2,2.2,0,0,1,.312-.063.325.325,0,0,1,.25.105.606.606,0,0,1,.1.4,1.018,1.018,0,0,1-.076.392.4.4,0,0,1-.271.238,3.251,3.251,0,0,1-.452.105A3.1,3.1,0,0,1,26.938,26.71Z"/>
    <path fill="#333" d="M31.284,26.71a2.819,2.819,0,0,1-1.27-.28,2.241,2.241,0,0,1-.882-.756,1.882,1.882,0,0,1-.319-1.078,1.764,1.764,0,0,1,.381-1.2,2.251,2.251,0,0,1,1.264-.63,11.871,11.871,0,0,1,2.382-.189h.652v.868h-.638a10.055,10.055,0,0,0-1.583.1,1.578,1.578,0,0,0-.827.329.836.836,0,0,0-.243.637,1.109,1.109,0,0,0,.361.861,1.432,1.432,0,0,0,1,.329,1.662,1.662,0,0,0,.9-.245,1.776,1.776,0,0,0,.618-.665,1.993,1.993,0,0,0,.229-.966v-1.61a1.632,1.632,0,0,0-.333-1.148,1.467,1.467,0,0,0-1.1-.35,4.031,4.031,0,0,0-.923.112,4.345,4.345,0,0,0-.993.378.612.612,0,0,1-.4.07.436.436,0,0,1-.264-.189.618.618,0,0,1-.1-.322.657.657,0,0,1,.083-.343.565.565,0,0,1,.313-.252,5.318,5.318,0,0,1,1.208-.42,5.459,5.459,0,0,1,1.125-.126,3.509,3.509,0,0,1,1.535.294,1.892,1.892,0,0,1,.9.9,3.579,3.579,0,0,1,.291,1.554v3.6a.772.772,0,0,1-.166.525.617.617,0,0,1-.487.189.641.641,0,0,1-.486-.189.73.73,0,0,1-.18-.525v-.91h.125a2.112,2.112,0,0,1-.41.889,1.956,1.956,0,0,1-.743.567A2.5,2.5,0,0,1,31.284,26.71Z"/>
    <path fill="#333" d="M37.27,26.682a.676.676,0,0,1-.514-.189.727.727,0,0,1-.181-.525v-5.6a.722.722,0,0,1,.181-.532.787.787,0,0,1,1.007,0,.746.746,0,0,1,.174.532V21.46l-.153-.252a2.321,2.321,0,0,1,.958-1.183,2.817,2.817,0,0,1,1.5-.4,2.7,2.7,0,0,1,1.34.3,1.855,1.855,0,0,1,.8.91,3.869,3.869,0,0,1,.264,1.533v3.6a.73.73,0,0,1-.18.525.679.679,0,0,1-.514.189.7.7,0,0,1-.528-.189.73.73,0,0,1-.18-.525V22.454a1.989,1.989,0,0,0-.341-1.288,1.308,1.308,0,0,0-1.062-.406,1.781,1.781,0,0,0-1.354.532,1.984,1.984,0,0,0-.507,1.428v3.248A.628.628,0,0,1,37.27,26.682Z"/>
    <path fill="#333" d="M47.56,26.71a3.508,3.508,0,0,1-1.8-.441,3.012,3.012,0,0,1-1.174-1.246,4.085,4.085,0,0,1-.416-1.9,4.256,4.256,0,0,1,.236-1.463,3.029,3.029,0,0,1,.673-1.1,2.969,2.969,0,0,1,1.069-.693,3.926,3.926,0,0,1,2.431-.1,3.022,3.022,0,0,1,.993.483.492.492,0,0,1,.229.273.666.666,0,0,1,.014.329.562.562,0,0,1-.153.287.475.475,0,0,1-.285.14.581.581,0,0,1-.36-.091,2.346,2.346,0,0,0-.681-.343,2.306,2.306,0,0,0-.667-.105,2.255,2.255,0,0,0-.881.161,1.732,1.732,0,0,0-.646.462,1.956,1.956,0,0,0-.4.749,3.619,3.619,0,0,0-.132,1.022,2.758,2.758,0,0,0,.534,1.8,1.858,1.858,0,0,0,1.521.651,2.471,2.471,0,0,0,.667-.1,2.2,2.2,0,0,0,.681-.336.535.535,0,0,1,.36-.084.441.441,0,0,1,.271.147.6.6,0,0,1,.139.28.619.619,0,0,1-.021.329.527.527,0,0,1-.236.28,2.934,2.934,0,0,1-.965.462A3.888,3.888,0,0,1,47.56,26.71Z"/>
    <path fill="#333" d="M54.1,26.71a3.989,3.989,0,0,1-1.909-.427,3,3,0,0,1-1.236-1.218,4.261,4.261,0,0,1-.007-3.745,3.17,3.17,0,0,1,1.18-1.246,3.518,3.518,0,0,1,2.972-.217,2.6,2.6,0,0,1,.951.672,2.9,2.9,0,0,1,.6,1.071,4.608,4.608,0,0,1,.2,1.414.442.442,0,0,1-.139.357.629.629,0,0,1-.417.119H51.629v-.868h4.278l-.237.2a3.114,3.114,0,0,0-.2-1.19,1.583,1.583,0,0,0-.6-.749,1.748,1.748,0,0,0-.979-.259,1.908,1.908,0,0,0-1.1.308,1.929,1.929,0,0,0-.687.854,3.179,3.179,0,0,0-.237,1.274v.084A2.648,2.648,0,0,0,52.442,25a2.168,2.168,0,0,0,1.673.623A3.806,3.806,0,0,0,55,25.506a2.906,2.906,0,0,0,.882-.378A.727.727,0,0,1,56.3,25a.472.472,0,0,1,.452.406.57.57,0,0,1-.056.343.818.818,0,0,1-.291.315,3.455,3.455,0,0,1-1.1.483A4.86,4.86,0,0,1,54.1,26.71Z"/>
    <path fill="#333" d="M14.433,43.51a4.958,4.958,0,0,1-2.542-.617,4.059,4.059,0,0,1-1.618-1.757,6.025,6.025,0,0,1-.562-2.694,6.434,6.434,0,0,1,.319-2.094,4.519,4.519,0,0,1,.924-1.595,3.923,3.923,0,0,1,1.485-1.015,5.357,5.357,0,0,1,1.994-.351,5.5,5.5,0,0,1,1.576.225,4.04,4.04,0,0,1,1.312.644.728.728,0,0,1,.312.371.7.7,0,0,1,.028.413.668.668,0,0,1-.187.329.537.537,0,0,1-.354.146.758.758,0,0,1-.466-.153,3.168,3.168,0,0,0-1.013-.518,4.011,4.011,0,0,0-1.167-.168,3.35,3.35,0,0,0-1.777.441A2.779,2.779,0,0,0,11.6,36.4a5,5,0,0,0-.375,2.044,5.05,5.05,0,0,0,.375,2.051,2.777,2.777,0,0,0,1.1,1.288,3.35,3.35,0,0,0,1.777.44,3.914,3.914,0,0,0,1.173-.174,3.817,3.817,0,0,0,1.063-.525.781.781,0,0,1,.451-.14.544.544,0,0,1,.34.14.621.621,0,0,1,.188.315.71.71,0,0,1-.014.392.645.645,0,0,1-.271.343,3.947,3.947,0,0,1-1.347.7A5.539,5.539,0,0,1,14.433,43.51Z"/>
    <path fill="#333" d="M19.973,43.482a.675.675,0,0,1-.513-.189.727.727,0,0,1-.181-.526V34.13a.724.724,0,0,1,.181-.533.69.69,0,0,1,.513-.181.718.718,0,0,1,.521.181.711.711,0,0,1,.188.533v3.878h-.2a2.326,2.326,0,0,1,.958-1.183,2.808,2.808,0,0,1,1.5-.4,2.708,2.708,0,0,1,1.34.3,1.861,1.861,0,0,1,.8.91,3.875,3.875,0,0,1,.264,1.534v3.6a.731.731,0,0,1-.18.526.68.68,0,0,1-.515.189.694.694,0,0,1-.527-.189.727.727,0,0,1-.181-.526V39.254a1.989,1.989,0,0,0-.34-1.288,1.308,1.308,0,0,0-1.062-.407,1.78,1.78,0,0,0-1.354.533,1.985,1.985,0,0,0-.507,1.428v3.247A.629.629,0,0,1,19.973,43.482Z"/>
    <path fill="#333" d="M29.444,43.51a2.806,2.806,0,0,1-1.27-.28,2.235,2.235,0,0,1-.882-.757,1.882,1.882,0,0,1-.319-1.077,1.763,1.763,0,0,1,.382-1.2,2.244,2.244,0,0,1,1.263-.63A11.871,11.871,0,0,1,31,39.38h.652v.868h-.638a10.2,10.2,0,0,0-1.583.1,1.582,1.582,0,0,0-.826.33.833.833,0,0,0-.244.637,1.108,1.108,0,0,0,.361.861,1.432,1.432,0,0,0,1,.329,1.653,1.653,0,0,0,.9-.245,1.776,1.776,0,0,0,.618-.665,1.982,1.982,0,0,0,.229-.966V39.015a1.631,1.631,0,0,0-.333-1.147,1.464,1.464,0,0,0-1.1-.351,4.042,4.042,0,0,0-.924.113,4.345,4.345,0,0,0-.993.378.605.605,0,0,1-.4.07.428.428,0,0,1-.263-.19.606.606,0,0,1-.1-.321.653.653,0,0,1,.083-.344.567.567,0,0,1,.312-.252,5.353,5.353,0,0,1,1.209-.419,5.444,5.444,0,0,1,1.125-.126,3.5,3.5,0,0,1,1.534.294,1.887,1.887,0,0,1,.9.9,3.579,3.579,0,0,1,.291,1.554v3.6a.768.768,0,0,1-.166.526.617.617,0,0,1-.487.189.639.639,0,0,1-.485-.189.727.727,0,0,1-.181-.526v-.909h.125a2.094,2.094,0,0,1-.41.889,1.956,1.956,0,0,1-.743.567A2.5,2.5,0,0,1,29.444,43.51Z"/>
    <path fill="#333" d="M35.444,43.482a.7.7,0,0,1-.528-.189.727.727,0,0,1-.181-.526v-5.6a.722.722,0,0,1,.181-.532.787.787,0,0,1,1.007,0,.741.741,0,0,1,.174.532V38.19h-.139a2.2,2.2,0,0,1,.819-1.274,2.925,2.925,0,0,1,1.528-.5.505.505,0,0,1,.4.126.62.62,0,0,1,.16.433.6.6,0,0,1-.125.47.677.677,0,0,1-.472.2L38,37.672a2.112,2.112,0,0,0-1.375.574,1.859,1.859,0,0,0-.472,1.344v3.177a.751.751,0,0,1-.173.526A.693.693,0,0,1,35.444,43.482Z"/>
    <path fill="#333" d="M43.179,43.51a3.037,3.037,0,0,1-1.4-.294,1.872,1.872,0,0,1-.847-.869,3.186,3.186,0,0,1-.278-1.4v-3.3h-.833a.593.593,0,0,1-.43-.146.53.53,0,0,1-.153-.4.522.522,0,0,1,.153-.405.609.609,0,0,1,.43-.14h.833V35.11a.643.643,0,0,1,.708-.714.7.7,0,0,1,.515.181.73.73,0,0,1,.18.533v1.442h1.625a.61.61,0,0,1,.43.14.522.522,0,0,1,.153.405.53.53,0,0,1-.153.4.594.594,0,0,1-.43.146H42.054v3.193a1.725,1.725,0,0,0,.312,1.12,1.254,1.254,0,0,0,1.021.378,1.775,1.775,0,0,0,.438-.049,2.374,2.374,0,0,1,.312-.064.326.326,0,0,1,.25.106.6.6,0,0,1,.1.4,1,1,0,0,1-.076.393.4.4,0,0,1-.271.238,3.232,3.232,0,0,1-.451.1A3.1,3.1,0,0,1,43.179,43.51Z"/>
    <path fill="#333" d="M47.734,43.51a5.947,5.947,0,0,1-1.257-.14,3.722,3.722,0,0,1-1.187-.477.692.692,0,0,1-.25-.279.568.568,0,0,1-.049-.315.516.516,0,0,1,.125-.281.439.439,0,0,1,.264-.146.518.518,0,0,1,.34.07,3.985,3.985,0,0,0,1.042.427,4.258,4.258,0,0,0,.986.119,1.913,1.913,0,0,0,1.111-.267.83.83,0,0,0,.375-.713.691.691,0,0,0-.25-.567,1.827,1.827,0,0,0-.75-.315l-1.319-.266a2.465,2.465,0,0,1-1.306-.644,1.63,1.63,0,0,1-.444-1.176,1.846,1.846,0,0,1,.347-1.12,2.214,2.214,0,0,1,.972-.736,3.759,3.759,0,0,1,1.444-.258,4.188,4.188,0,0,1,1.153.154,3.492,3.492,0,0,1,1,.462.469.469,0,0,1,.236.259.568.568,0,0,1,.021.315.584.584,0,0,1-.146.272.438.438,0,0,1-.271.141.613.613,0,0,1-.354-.077,2.987,2.987,0,0,0-.826-.378,3.063,3.063,0,0,0-.813-.112,1.846,1.846,0,0,0-1.1.273.869.869,0,0,0-.368.735.783.783,0,0,0,.222.574,1.347,1.347,0,0,0,.7.322l1.319.266a2.782,2.782,0,0,1,1.368.616,1.53,1.53,0,0,1,.465,1.176,1.79,1.79,0,0,1-.764,1.526A3.353,3.353,0,0,1,47.734,43.51Z"/>
  </g>
</svg>