<svg width="60" height="60" xmlns="http://www.w3.org/2000/svg" viewBox="0 0 60 60">
  <rect fill="#ffcd34" height="60" width="60"/>
  <g>
    <path d="M10.026,23.86H7.139v3.861h3.274v1.668h-5.2V17.253H10.2v1.668H7.139v3.332h2.887Z"/>
    <path d="M11.755,23.093c0-.99-.044-1.693-.072-2.469h1.665l.1,1.031h.036a2.363,2.363,0,0,1,2.072-1.175c1.462,0,2.239,1.135,2.239,3.167v5.742H15.872V23.831c0-.876-.185-1.732-1.023-1.732-.477,0-.9.366-1.075,1.072a3.013,3.013,0,0,0-.1.8v5.42H11.755Z"/>
    <path d="M25.549,20.624c-.038.713-.082,1.572-.082,2.756v4.956c0,2.079-.324,3.037-.974,3.7a3.526,3.526,0,0,1-2.616.951,4.911,4.911,0,0,1-2.074-.422l.385-1.488a3.81,3.81,0,0,0,1.656.376c1.147,0,1.711-.744,1.711-2.374v-.689H23.52a1.757,1.757,0,0,1-1.619.955c-1.78,0-2.664-1.968-2.664-4.28,0-3.057,1.387-4.588,2.867-4.588a1.786,1.786,0,0,1,1.621,1.078h.036l.1-.934Zm-1.994,3.119a2.37,2.37,0,0,0-.084-.641c-.129-.475-.408-1-.983-1-.914,0-1.344,1.24-1.344,2.9,0,1.907.569,2.818,1.321,2.818.361,0,.768-.175.988-.913a2.241,2.241,0,0,0,.1-.735Z"/>
    <path d="M30.944,29.389l-.113-.892h-.044a2.144,2.144,0,0,1-1.856,1.036,2.334,2.334,0,0,1-2.206-2.592c0-2.252,1.9-3.2,3.888-3.222v-.232c0-.913-.357-1.555-1.31-1.555a2.963,2.963,0,0,0-1.634.486l-.37-1.311a4.872,4.872,0,0,1,2.422-.627c2.257,0,2.835,1.545,2.835,3.41v3.5a13.662,13.662,0,0,0,.112,2ZM30.664,25c-.748.01-2.1.218-2.1,1.744,0,.989.528,1.346.95,1.346a1.164,1.164,0,0,0,1.108-1,1.792,1.792,0,0,0,.046-.445Z"/>
    <path d="M40.326,20.624c-.038.713-.082,1.572-.082,2.756v4.956c0,2.079-.323,3.037-.973,3.7a3.528,3.528,0,0,1-2.617.951,4.915,4.915,0,0,1-2.074-.422l.386-1.488a3.806,3.806,0,0,0,1.656.376c1.147,0,1.711-.744,1.711-2.374v-.689H38.3a1.755,1.755,0,0,1-1.618.955c-1.781,0-2.664-1.968-2.664-4.28,0-3.057,1.386-4.588,2.867-4.588a1.785,1.785,0,0,1,1.62,1.078h.036l.1-.934Zm-1.993,3.119a2.33,2.33,0,0,0-.085-.641c-.129-.475-.407-1-.982-1-.914,0-1.345,1.24-1.345,2.9,0,1.907.57,2.818,1.321,2.818.362,0,.769-.175.987-.913a2.217,2.217,0,0,0,.1-.735Z"/>
    <path d="M43.521,25.523c.021,1.958.93,2.491,1.954,2.491a4.041,4.041,0,0,0,1.573-.311l.272,1.382a5.556,5.556,0,0,1-2.194.413c-2.26,0-3.473-1.64-3.473-4.353,0-2.9,1.391-4.665,3.262-4.665,1.844,0,2.773,1.666,2.773,4.016a7.838,7.838,0,0,1-.051,1.027Zm2.386-1.368c.015-1.407-.447-2.243-1.129-2.243-.834,0-1.21,1.214-1.249,2.243Z"/>
    <path d="M54.965,16.929V27.02c0,.719.044,1.7.072,2.369h-1.65l-.113-1.04h-.051a2.073,2.073,0,0,1-1.829,1.184c-1.7,0-2.649-1.86-2.649-4.5,0-3.076,1.322-4.552,2.739-4.552a1.6,1.6,0,0,1,1.534.952h.036v-4.5Zm-1.911,7.046a3.447,3.447,0,0,0-.029-.541c-.082-.7-.477-1.327-1.044-1.327-.971,0-1.319,1.383-1.319,2.951,0,1.749.466,2.89,1.273,2.89.361,0,.809-.189,1.051-1.087a1.956,1.956,0,0,0,.068-.564Z"/>
  </g>
</svg>