<svg width="60" height="60" xmlns="http://www.w3.org/2000/svg" viewBox="0 0 60 60">
  <rect fill="#fff" height="60" width="60"/>
  <g>
    <path fill="#cb2026" stroke-width="0.124" d="M2.58,33.757H57.526V35.4l-55.241-.1Z" stroke-linejoin="round" stroke-linecap="round" stroke="#cb2026"/>
    <path fill="#cb2026" stroke-width="0.124" d="M56.244,32.606l1.747-.214L57.547,35.4h-3.1Z" stroke-linejoin="round" stroke-linecap="round" stroke="#cb2026"/>
    <path fill="#cb2026" stroke-width="0.124" d="M48.079,32.975l8.376-.372v1.3H48.044Z" stroke-linejoin="round" stroke-linecap="round" stroke="#cb2026"/>
    <path fill="#cb2026" stroke-width="0.124" d="M49.7,32.513h.616v.616H49.7Z" stroke-linejoin="round" stroke-linecap="round" stroke="#cb2026"/>
    <path fill="#cb2026" stroke-width="0.124" d="M48.985,32.619h1.437V33.1H48.985Z" stroke-linejoin="round" stroke-linecap="round" stroke="#cb2026"/>
    <path fill="#cb2026" stroke-width="0.124" d="M48.164,32.731H49.6v.476H48.164Z" stroke-linejoin="round" stroke-linecap="round" stroke="#cb2026"/>
    <path fill="#cb2026" stroke-width="0.124" d="M45.155,31.941h2.216v.774H45.155Z" stroke-linejoin="round" stroke-linecap="round" stroke="#cb2026"/>
    <path fill="#cb2026" stroke-width="0.124" d="M47.349,32.033l.4-.016.33.491-.727.571Z" stroke-linejoin="round" stroke-linecap="round" stroke="#cb2026"/>
    <path fill="#cb2026" stroke-width="0.124" d="M45.8,32.491h2.263v1.453H45.8Z" stroke-linejoin="round" stroke-linecap="round" stroke="#cb2026"/>
    <path fill="#cb2026" stroke-width="0.124" d="M47.654,32.232h2.254v.192H47.654Z" stroke-linejoin="round" stroke-linecap="round" stroke="#cb2026"/>
    <path fill="#cb2026" stroke-width="0.124" d="M45.276,32.684h.314v.561h-.314Z" stroke-linejoin="round" stroke-linecap="round" stroke="#cb2026"/>
    <path fill="#cb2026" stroke-width="0.124" d="M34.208,32.257H44.931V33.9H34.208Z" stroke-linejoin="round" stroke-linecap="round" stroke="#cb2026"/>
    <path fill="#cb2026" stroke-width="0.124" d="M44.808,33.065h1.14v.77h-1.14Z" stroke-linejoin="round" stroke-linecap="round" stroke="#cb2026"/>
    <path fill="#cb2026" stroke-width="0.124" d="M40.77,31.042h2.217v.773H40.77Z" stroke-linejoin="round" stroke-linecap="round" stroke="#cb2026"/>
    <path fill="#cb2026" stroke-width="0.124" d="M42.964,31.134l.4-.017.331.491-.728.572Z" stroke-linejoin="round" stroke-linecap="round" stroke="#cb2026"/>
    <path fill="#cb2026" stroke-width="0.124" d="M41.41,31.592h2.264v1.453H41.41Z" stroke-linejoin="round" stroke-linecap="round" stroke="#cb2026"/>
    <path fill="#cb2026" stroke-width="0.124" d="M43.269,31.333h2.254v.193H43.269Z" stroke-linejoin="round" stroke-linecap="round" stroke="#cb2026"/>
    <path fill="#cb2026" stroke-width="0.124" d="M41.4,30.473h.3v.3h-.3Z" stroke-linejoin="round" stroke-linecap="round" stroke="#cb2026"/>
    <path fill="#cb2026" stroke-width="0.124" d="M41.557,30.176h.122v.947h-.122Z" stroke-linejoin="round" stroke-linecap="round" stroke="#cb2026"/>
    <path fill="#cb2026" stroke-width="0.124" d="M41.869,30.478h.084l-.3.438h-.084Z" stroke-linejoin="round" stroke-linecap="round" stroke="#cb2026"/>
    <path fill="#cb2026" stroke-width="0.124" d="M37.057,29.6h2.458v2.874H37.057Z" stroke-linejoin="round" stroke-linecap="round" stroke="#cb2026"/>
    <path fill="#cb2026" stroke-width="0.124" d="M36.521,30.253h.77v.434h-.77Z" stroke-linejoin="round" stroke-linecap="round" stroke="#cb2026"/>
    <path fill="#cb2026" stroke-width="0.124" d="M37.25,27.9h.406v1.715H37.25Z" stroke-linejoin="round" stroke-linecap="round" stroke="#cb2026"/>
    <path fill="#cb2026" stroke-width="0.124" d="M36.757,28.1h.232v1.1h-.232Z" stroke-linejoin="round" stroke-linecap="round" stroke="#cb2026"/>
    <path fill="#cb2026" stroke-width="0.124" d="M36.9,28.736h1.67v.4H36.9Z" stroke-linejoin="round" stroke-linecap="round" stroke="#cb2026"/>
    <path fill="#cb2026" stroke-width="0.124" d="M36.96,29.1h1.507v.84H36.96Z" stroke-linejoin="round" stroke-linecap="round" stroke="#cb2026"/>
    <path fill="#cb2026" stroke-width="0.124" d="M37.65,28.171h.716v.82H37.65Z" stroke-linejoin="round" stroke-linecap="round" stroke="#cb2026"/>
    <path fill="#cb2026" stroke-width="0.124" d="M38.964,29.076h.715v.82h-.715Z" stroke-linejoin="round" stroke-linecap="round" stroke="#cb2026"/>
    <path fill="#cb2026" stroke-width="0.124" d="M39.837,31.967H40.1v.3h-.262Z" stroke-linejoin="round" stroke-linecap="round" stroke="#cb2026"/>
    <path fill="#cb2026" stroke-width="0.124" d="M43.849,31.909h.306v.579h-.306Z" stroke-linejoin="round" stroke-linecap="round" stroke="#cb2026"/>
    <path fill="#cb2026" stroke-width="0.124" d="M44.355,31.987h.3v.578h-.3Z" stroke-linejoin="round" stroke-linecap="round" stroke="#cb2026"/>
    <path fill="#cb2026" stroke-width="0.124" d="M35.408,30.888H35.7v.324h-.293Z" stroke-linejoin="round" stroke-linecap="round" stroke="#cb2026"/>
    <path fill="#cb2026" stroke-width="0.124" d="M35.483,31.131h.143V32.32h-.143Z" stroke-linejoin="round" stroke-linecap="round" stroke="#cb2026"/>
    <path fill="#cb2026" stroke-width="0.124" d="M34.85,31.316h.143v1.189H34.85Z" stroke-linejoin="round" stroke-linecap="round" stroke="#cb2026"/>
    <path fill="#cb2026" stroke-width="0.124" d="M34.626,31.705H35.3v.612h-.671Z" stroke-linejoin="round" stroke-linecap="round" stroke="#cb2026"/>
    <path fill="#cb2026" stroke-width="0.124" d="M34.914,20.776l.164.012,1.388,11.453-.315.012Z" stroke-linejoin="round" stroke-linecap="round" stroke="#cb2026"/>
    <path fill="#cb2026" stroke-width="0.124" d="M28.8,28.162h1.911l.63,4.257-2.087.114Z" stroke-linejoin="round" stroke-linecap="round" stroke="#cb2026"/>
    <path fill="#cb2026" stroke-width="0.124" d="M30.985,31.48v1.705h4.333Z" stroke-linejoin="round" stroke-linecap="round" stroke="#cb2026"/>
    <path fill="#cb2026" stroke-width="0.124" d="M25.373,32.552h8.963v1.374H25.373Z" stroke-linejoin="round" stroke-linecap="round" stroke="#cb2026"/>
    <path fill="#cb2026" stroke-width="0.124" d="M25.323,28.285l1.135.05.969,4.379-1.5-.013Z" stroke-linejoin="round" stroke-linecap="round" stroke="#cb2026"/>
    <path fill="#cb2026" stroke-width="0.124" d="M15.987,33.031h9.558v1.16H15.987Z" stroke-linejoin="round" stroke-linecap="round" stroke="#cb2026"/>
    <path fill="#cb2026" stroke-width="0.124" d="M15.987,32.208h3.784v1.145H15.987Z" stroke-linejoin="round" stroke-linecap="round" stroke="#cb2026"/>
    <path fill="#cb2026" stroke-width="0.124" d="M19.043,30.112h.872v.735h-.872Z" stroke-linejoin="round" stroke-linecap="round" stroke="#cb2026"/>
    <path fill="#cb2026" stroke-width="0.124" d="M17.936,30.649h.651v.686h-.651Z" stroke-linejoin="round" stroke-linecap="round" stroke="#cb2026"/>
    <path fill="#cb2026" stroke-width="0.124" d="M15.871,31.707h.652v.685h-.652Z" stroke-linejoin="round" stroke-linecap="round" stroke="#cb2026"/>
    <path fill="#cb2026" stroke-width="0.124" d="M17,31.74h2.753v.521H17Z" stroke-linejoin="round" stroke-linecap="round" stroke="#cb2026"/>
    <path fill="#cb2026" stroke-width="0.124" d="M18.052,31.237h1.719v.532H18.052Z" stroke-linejoin="round" stroke-linecap="round" stroke="#cb2026"/>
    <path fill="#cb2026" stroke-width="0.124" d="M19.244,30.7h.419v.615h-.419Z" stroke-linejoin="round" stroke-linecap="round" stroke="#cb2026"/>
    <path fill="#cb2026" stroke-width="0.124" d="M14.007,20.784l.2.016,1.641,13.121-.346.085Z" stroke-linejoin="round" stroke-linecap="round" stroke="#cb2026"/>
    <path fill="#cb2026" stroke-width="0.124" d="M21.39,32.05h2.059v1.319H21.39Z" stroke-linejoin="round" stroke-linecap="round" stroke="#cb2026"/>
    <path fill="#cb2026" stroke-width="0.124" d="M20.25,31.633h4.394v.579H20.25Z" stroke-linejoin="round" stroke-linecap="round" stroke="#cb2026"/>
    <path fill="#cb2026" stroke-width="0.124" d="M14.818,32.7h-.727v.241h.727Z" stroke-linejoin="round" stroke-linecap="round" stroke="#cb2026"/>
    <path fill="#cb2026" stroke-width="0.124" d="M15.209,32.893H12.993v.774h2.216Z" stroke-linejoin="round" stroke-linecap="round" stroke="#cb2026"/>
    <path fill="#cb2026" stroke-width="0.124" d="M13.015,32.986l-.4-.017-.331.491.727.572Z" stroke-linejoin="round" stroke-linecap="round" stroke="#cb2026"/>
    <path fill="#cb2026" stroke-width="0.124" d="M14.569,33.443H12.306V34.9h2.263Z" stroke-linejoin="round" stroke-linecap="round" stroke="#cb2026"/>
    <path fill="#cb2026" stroke-width="0.124" d="M12.71,33.184H10.457v.192H12.71Z" stroke-linejoin="round" stroke-linecap="round" stroke="#cb2026"/>
    <path fill="#cb2026" stroke-width="0.124" d="M14.719,32.423h-.488v.161h.488Z" stroke-linejoin="round" stroke-linecap="round" stroke="#cb2026"/>
    <path fill="#cb2026" stroke-width="0.124" d="M14.453,32.747v-.488h.162v.488Z" stroke-linejoin="round" stroke-linecap="round" stroke="#cb2026"/>
    <path fill="#cb2026" stroke-width="0.124" d="M17.05,31.041H17.5v.449H17.05Z" stroke-linejoin="round" stroke-linecap="round" stroke="#cb2026"/>
    <path fill="#cb2026" stroke-width="0.124" d="M17.122,31.4h.356v.357h-.356Z" stroke-linejoin="round" stroke-linecap="round" stroke="#cb2026"/>
  </g>
  <g>
    <path fill="#cb2026" d="M17.218,49.007H15.294v2.572h2.181V52.69H14.014V44.606h3.319v1.112H15.294v2.22h1.924Z"/>
    <path fill="#cb2026" d="M22.23,50.993c0,.635.029,1.2.048,1.7h-1.11l-.075-.613h-.024a1.587,1.587,0,0,1-1.3.709c-1.07,0-1.5-.808-1.5-2.327V46.852h1.28V50.3c0,.832.151,1.412.674,1.412a.717.717,0,0,0,.656-.57,1.688,1.688,0,0,0,.072-.508V46.852h1.28Z"/>
    <path fill="#cb2026" d="M23.431,48.5c0-.541-.03-1.149-.048-1.645H24.5l.065.88h.038a1.383,1.383,0,0,1,1.186-.976,1.463,1.463,0,0,1,.271.02v1.281a1.58,1.58,0,0,0-.273-.014,1.142,1.142,0,0,0-1.025,1,2.585,2.585,0,0,0-.053.56V52.69h-1.28Z"/>
    <path fill="#cb2026" d="M27.863,46.852l.662,3.181c.084.393.138.738.2,1.078h.024c.051-.313.122-.694.189-1.064l.576-3.195h1.258L29.687,51.02a9.031,9.031,0,0,1-1.366,3.329,3.011,3.011,0,0,1-1.205.906l-.414-1.1a2.543,2.543,0,0,0,.8-.6A2.8,2.8,0,0,0,28,52.735a.692.692,0,0,0,.074-.271.715.715,0,0,0-.037-.216l-1.545-5.4Z"/>
    <path fill="#cb2026" d="M33.8,52.69l-.076-.594H33.7a1.428,1.428,0,0,1-1.236.69,1.555,1.555,0,0,1-1.47-1.726c0-1.5,1.269-2.134,2.59-2.147v-.154c0-.608-.238-1.035-.873-1.035a1.974,1.974,0,0,0-1.088.323l-.247-.873a3.248,3.248,0,0,1,1.614-.418c1.5,0,1.888,1.029,1.888,2.271v2.334a9.132,9.132,0,0,0,.075,1.329Zm-.187-2.923c-.5.006-1.4.145-1.4,1.162,0,.658.351.9.633.9a.774.774,0,0,0,.737-.668,1.193,1.193,0,0,0,.031-.3Z"/>
    <path fill="#cb2026" d="M36.072,44.391h1.281v8.3H36.072Z"/>
    <path fill="#cb2026" d="M42.521,50.993c0,.635.03,1.2.048,1.7H41.46l-.075-.613h-.024a1.587,1.587,0,0,1-1.3.709c-1.071,0-1.5-.808-1.5-2.327V46.852h1.279V50.3c0,.832.151,1.412.675,1.412a.719.719,0,0,0,.656-.57,1.69,1.69,0,0,0,.071-.508V46.852h1.28Z"/>
    <path fill="#cb2026" d="M43.629,51.481a2.054,2.054,0,0,0,1.007.307.646.646,0,0,0,.736-.668c0-.366-.17-.606-.711-.947A1.961,1.961,0,0,1,43.477,48.5a1.7,1.7,0,0,1,1.786-1.744,2.322,2.322,0,0,1,1.119.284l-.262.945a1.476,1.476,0,0,0-.8-.248.6.6,0,0,0-.661.608c0,.317.143.5.7.856a2.051,2.051,0,0,1,1.191,1.768,1.733,1.733,0,0,1-1.929,1.794,2.278,2.278,0,0,1-1.25-.336Z"/>
  </g>
  <g>
    <g>
      <path fill="#cb2026" d="M42.074,25.18l-1.166,3.3h-.682l3.414-9.441h.647l3.4,9.441H47l-1.187-3.3Zm3.533-.56-1.148-3.155c-.231-.655-.357-1.128-.494-1.664H43.93a16.865,16.865,0,0,1-.491,1.636L42.284,24.62Z"/>
      <path fill="#cb2026" d="M50.265,25.18l-1.166,3.3h-.684l3.415-9.441h.648l3.4,9.441h-.69L54,25.18Zm3.533-.56-1.149-3.155c-.231-.655-.357-1.128-.494-1.664H52.12a16.849,16.849,0,0,1-.49,1.636L50.475,24.62Z"/>
    </g>
    <g>
      <path fill="#cb2026" d="M17.572,16.064a6.1,6.1,0,0,1-2.45.427A4.46,4.46,0,0,1,10.3,11.735a4.754,4.754,0,0,1,5.053-4.98,5.292,5.292,0,0,1,2.287.417l-.374,1.375a4.488,4.488,0,0,0-1.842-.37,3.142,3.142,0,0,0-3.309,3.472,3.087,3.087,0,0,0,3.287,3.4,5.035,5.035,0,0,0,1.882-.341Z"/>
      <path fill="#cb2026" d="M19.025,6.9h1.726V14.9h3.882v1.447H19.025Z"/>
      <path fill="#cb2026" d="M31.359,16.343v-.75l.967-.938c2.324-2.216,3.383-3.4,3.389-4.772A1.618,1.618,0,0,0,33.921,8.1a3.152,3.152,0,0,0-1.938.771l-.392-.862a4,4,0,0,1,2.575-.926,2.557,2.557,0,0,1,2.781,2.642c0,1.691-1.218,3.05-3.135,4.889l-.719.68v.028h4.08v1.02Z"/>
      <path fill="#cb2026" d="M37.9,16.9l3.9-10.155h.959L38.841,16.9Z"/>
      <path fill="#cb2026" d="M48.547,8.1a5.2,5.2,0,0,0-.932.066A3.66,3.66,0,0,0,44.46,11.4h.033a2.774,2.774,0,0,1,4.951,1.882A3.05,3.05,0,0,1,46.41,16.5c-1.94,0-3.214-1.516-3.214-3.876a5.709,5.709,0,0,1,1.541-4.107,4.943,4.943,0,0,1,2.912-1.349A5.146,5.146,0,0,1,48.54,7.1Zm-.353,5.261a1.851,1.851,0,0,0-1.872-2.087,2.029,2.029,0,0,0-1.774,1.117,1.165,1.165,0,0,0-.132.54c.019,1.5.709,2.618,2,2.618C47.479,15.551,48.194,14.665,48.194,13.363Z"/>
    </g>
  </g>
</svg>