<svg width="60" height="60" xmlns="http://www.w3.org/2000/svg" viewBox="0 0 60 60">
  <rect fill="#999" x="15" width="45" height="60"/>
  <g>
    <rect fill="#999" height="60" width="60"/>
    <polygon fill="#666766" points="31.281 30.545 31.281 0 0 0 31.281 30.545" fill-rule="evenodd"/>
    <polygon fill="#666766" points="60 60 60 30 29.277 30 60 60" fill-rule="evenodd"/>
    <rect fill="#666766" x="2.768" width="57.232" height="32.403"/>
    <rect fill="#cccccb" x="2.768" width="54.496" height="54.702" y="2.649"/>
  </g>
  <g>
    <path fill="#333" d="M20.168,48.21a4.554,4.554,0,0,1-1.488-.222,2.715,2.715,0,0,1-1.077-.666,2.89,2.89,0,0,1-.661-1.1,4.7,4.7,0,0,1-.226-1.525V40.181a.625.625,0,0,1,.16-.467.748.748,0,0,1,.917,0,.621.621,0,0,1,.161.467V44.67a2.639,2.639,0,0,0,.565,1.847,2.132,2.132,0,0,0,1.649.613,2.126,2.126,0,0,0,1.654-.613,2.658,2.658,0,0,0,.56-1.847V40.181a.621.621,0,0,1,.161-.467.721.721,0,0,1,.9,0,.635.635,0,0,1,.155.467v4.512a4.379,4.379,0,0,1-.386,1.939,2.583,2.583,0,0,1-1.149,1.181A4.062,4.062,0,0,1,20.168,48.21Z"/>
    <path fill="#333" d="M25.965,48.185a.577.577,0,0,1-.441-.162.623.623,0,0,1-.154-.449v-4.8a.625.625,0,0,1,.154-.456.678.678,0,0,1,.863,0,.64.64,0,0,1,.149.456v.937l-.131-.216a2,2,0,0,1,.822-1.015,2.422,2.422,0,0,1,1.285-.342,2.32,2.32,0,0,1,1.149.258,1.6,1.6,0,0,1,.684.781,3.311,3.311,0,0,1,.226,1.314v3.084a.623.623,0,0,1-.154.449.577.577,0,0,1-.441.162.592.592,0,0,1-.452-.162.623.623,0,0,1-.155-.449V44.561a1.7,1.7,0,0,0-.291-1.1,1.12,1.12,0,0,0-.911-.349,1.53,1.53,0,0,0-1.161.456,1.7,1.7,0,0,0-.434,1.225v2.784A.538.538,0,0,1,25.965,48.185Z"/>
    <path fill="#333" d="M32.821,40.937a.786.786,0,0,1-.553-.179.751.751,0,0,1,0-1.014.963.963,0,0,1,1.107,0,.754.754,0,0,1,0,1.014A.791.791,0,0,1,32.821,40.937Zm0,7.237a.561.561,0,0,1-.44-.174.705.705,0,0,1-.155-.487V42.834a.684.684,0,0,1,.155-.481.572.572,0,0,1,.44-.168.593.593,0,0,1,.447.168.672.672,0,0,1,.16.481v4.679a.71.71,0,0,1-.155.487A.575.575,0,0,1,32.821,48.174Z"/>
    <path fill="#333" d="M37.6,48.21a2.6,2.6,0,0,1-1.2-.252,1.606,1.606,0,0,1-.726-.744,2.736,2.736,0,0,1-.238-1.2V43.181h-.714a.51.51,0,0,1-.369-.126.453.453,0,0,1-.131-.341.448.448,0,0,1,.131-.348.525.525,0,0,1,.369-.12h.714V41.01a.606.606,0,0,1,.161-.457.618.618,0,0,1,.446-.156.6.6,0,0,1,.441.156.624.624,0,0,1,.154.457v1.236h1.393a.525.525,0,0,1,.369.12.445.445,0,0,1,.131.348.449.449,0,0,1-.131.341.51.51,0,0,1-.369.126H36.63v2.737a1.481,1.481,0,0,0,.268.96,1.074,1.074,0,0,0,.875.324,1.538,1.538,0,0,0,.375-.042,2.134,2.134,0,0,1,.268-.055.279.279,0,0,1,.214.091.513.513,0,0,1,.083.342.875.875,0,0,1-.065.336.342.342,0,0,1-.232.2,3.03,3.03,0,0,1-.387.09A2.711,2.711,0,0,1,37.6,48.21Z"/>
    <path fill="#333" d="M41.5,48.21a5.086,5.086,0,0,1-1.078-.12,3.181,3.181,0,0,1-1.017-.409.6.6,0,0,1-.215-.24.5.5,0,0,1-.041-.269.446.446,0,0,1,.107-.241.388.388,0,0,1,.226-.126.448.448,0,0,1,.292.061,3.388,3.388,0,0,0,.893.365,3.583,3.583,0,0,0,.845.1,1.635,1.635,0,0,0,.952-.229.711.711,0,0,0,.321-.611.59.59,0,0,0-.214-.486,1.553,1.553,0,0,0-.643-.27L40.8,45.51a2.122,2.122,0,0,1-1.118-.552A1.394,1.394,0,0,1,39.3,43.95a1.585,1.585,0,0,1,.3-.96,1.913,1.913,0,0,1,.834-.631,3.229,3.229,0,0,1,1.238-.222,3.588,3.588,0,0,1,.987.132,3.024,3.024,0,0,1,.858.4.4.4,0,0,1,.2.221.486.486,0,0,1,.018.271.5.5,0,0,1-.125.233.368.368,0,0,1-.232.12.524.524,0,0,1-.3-.065,2.56,2.56,0,0,0-.708-.324,2.6,2.6,0,0,0-.7-.1,1.575,1.575,0,0,0-.947.235.744.744,0,0,0-.315.629.669.669,0,0,0,.19.493,1.16,1.16,0,0,0,.595.276l1.131.228a2.38,2.38,0,0,1,1.173.528,1.315,1.315,0,0,1,.4,1.008,1.535,1.535,0,0,1-.655,1.307A2.868,2.868,0,0,1,41.5,48.21Z"/>
  </g>
  <g>
    <path fill="#333" d="M28,34.38a2.96,2.96,0,0,1-1.518-.372,2.58,2.58,0,0,1-.994-1.056,3.442,3.442,0,0,1-.357-1.608,3.644,3.644,0,0,1,.2-1.26,2.771,2.771,0,0,1,.577-.954,2.457,2.457,0,0,1,.9-.612A3.194,3.194,0,0,1,28,28.308a2.935,2.935,0,0,1,1.506.372,2.582,2.582,0,0,1,.994,1.05,3.421,3.421,0,0,1,.357,1.614,3.684,3.684,0,0,1-.2,1.26,2.689,2.689,0,0,1-.577.96,2.5,2.5,0,0,1-.905.606A3.151,3.151,0,0,1,28,34.38Zm0-.936a1.537,1.537,0,0,0,.857-.24,1.593,1.593,0,0,0,.578-.708,2.845,2.845,0,0,0,.208-1.152,2.338,2.338,0,0,0-.453-1.56A1.49,1.49,0,0,0,28,29.256a1.589,1.589,0,0,0-.869.234,1.54,1.54,0,0,0-.577.7,2.827,2.827,0,0,0-.209,1.152A2.367,2.367,0,0,0,26.8,32.9,1.488,1.488,0,0,0,28,33.444Z"/>
    <path fill="#333" d="M33.094,34.356a.6.6,0,0,1-.446-.162.612.612,0,0,1-.161-.45V29.352h-.666a.5.5,0,0,1-.358-.126.523.523,0,0,1,0-.69.511.511,0,0,1,.358-.12h1.012l-.346.324v-.432a2.5,2.5,0,0,1,.583-1.794,2.626,2.626,0,0,1,1.7-.714l.37-.024a.451.451,0,0,1,.321.06.379.379,0,0,1,.155.216.56.56,0,0,1,.006.27.544.544,0,0,1-.125.246.346.346,0,0,1-.238.12l-.226.012a1.536,1.536,0,0,0-1.024.4,1.465,1.465,0,0,0-.322,1.038v.468l-.166-.192h1.321a.521.521,0,0,1,.375.12.539.539,0,0,1,0,.69.506.506,0,0,1-.375.126H33.689v4.392A.533.533,0,0,1,33.094,34.356Z"/>
  </g>
  <g>
    <path fill="#333" d="M5.714,20.391a.6.6,0,0,1-.458-.168.648.648,0,0,1-.161-.467V12.4a.644.644,0,0,1,.161-.473.613.613,0,0,1,.458-.163.612.612,0,0,1,.458.163.639.639,0,0,1,.161.473v7.357a.663.663,0,0,1-.155.467A.6.6,0,0,1,5.714,20.391Z"/>
    <path fill="#333" d="M8.75,20.391a.581.581,0,0,1-.441-.162.625.625,0,0,1-.155-.449v-4.8a.623.623,0,0,1,.155-.456.675.675,0,0,1,.863,0,.639.639,0,0,1,.149.456v.936L9.19,15.7a1.99,1.99,0,0,1,.821-1.014,2.416,2.416,0,0,1,1.286-.341,2.313,2.313,0,0,1,1.148.257,1.59,1.59,0,0,1,.685.781,3.308,3.308,0,0,1,.226,1.314V19.78a.625.625,0,0,1-.155.449.58.58,0,0,1-.44.162.6.6,0,0,1-.452-.162.625.625,0,0,1-.155-.449V16.767a1.7,1.7,0,0,0-.292-1.1,1.121,1.121,0,0,0-.91-.348,1.532,1.532,0,0,0-1.161.456A1.7,1.7,0,0,0,9.356,17V19.78A.538.538,0,0,1,8.75,20.391Z"/>
    <path fill="#333" d="M17.2,20.391a.729.729,0,0,1-.434-.131.94.94,0,0,1-.3-.409L14.475,15.2a.778.778,0,0,1-.072-.409.432.432,0,0,1,.179-.306A.694.694,0,0,1,15,14.367a.551.551,0,0,1,.357.108.958.958,0,0,1,.238.372l1.8,4.464h-.333l1.833-4.464a.908.908,0,0,1,.244-.372.619.619,0,0,1,.387-.108.487.487,0,0,1,.339.114.5.5,0,0,1,.155.3.711.711,0,0,1-.065.4l-2.012,4.668a.854.854,0,0,1-.3.409A.759.759,0,0,1,17.2,20.391Z"/>
    <path fill="#333" d="M23.76,20.415a3.426,3.426,0,0,1-1.637-.365,2.585,2.585,0,0,1-1.059-1.044,3.651,3.651,0,0,1-.006-3.211,2.73,2.73,0,0,1,1.011-1.068,3.027,3.027,0,0,1,2.548-.186,2.246,2.246,0,0,1,.815.576,2.5,2.5,0,0,1,.512.918,3.978,3.978,0,0,1,.172,1.212.379.379,0,0,1-.118.306.54.54,0,0,1-.358.1h-4v-.745h3.666l-.2.168a2.689,2.689,0,0,0-.173-1.02,1.364,1.364,0,0,0-.512-.642,1.5,1.5,0,0,0-.839-.221,1.638,1.638,0,0,0-.946.263,1.659,1.659,0,0,0-.59.732,2.732,2.732,0,0,0-.2,1.092v.072a2.272,2.272,0,0,0,.494,1.591,1.86,1.86,0,0,0,1.435.533,3.23,3.23,0,0,0,.755-.095,2.449,2.449,0,0,0,.756-.325.651.651,0,0,1,.364-.108.4.4,0,0,1,.386.349.486.486,0,0,1-.048.294.688.688,0,0,1-.25.27,2.981,2.981,0,0,1-.94.414A4.187,4.187,0,0,1,23.76,20.415Z"/>
    <path fill="#333" d="M28.021,20.391a.58.58,0,0,1-.44-.162.621.621,0,0,1-.155-.449v-4.8a.619.619,0,0,1,.155-.456.673.673,0,0,1,.862,0,.634.634,0,0,1,.149.456v.936l-.131-.216a2,2,0,0,1,.822-1.014,2.413,2.413,0,0,1,1.285-.341,2.32,2.32,0,0,1,1.149.257,1.588,1.588,0,0,1,.684.781,3.308,3.308,0,0,1,.226,1.314V19.78a.624.624,0,0,1-.154.449.581.581,0,0,1-.441.162.6.6,0,0,1-.452-.162.625.625,0,0,1-.155-.449V16.767a1.708,1.708,0,0,0-.291-1.1,1.123,1.123,0,0,0-.911-.348,1.529,1.529,0,0,0-1.16.456A1.7,1.7,0,0,0,28.628,17V19.78A.538.538,0,0,1,28.021,20.391Z"/>
    <path fill="#333" d="M36.758,20.415a2.6,2.6,0,0,1-1.2-.252,1.6,1.6,0,0,1-.726-.744,2.726,2.726,0,0,1-.238-1.2V15.387h-.715a.513.513,0,0,1-.369-.126.452.452,0,0,1-.131-.342.447.447,0,0,1,.131-.347.524.524,0,0,1,.369-.121h.715V13.216a.606.606,0,0,1,.16-.456A.615.615,0,0,1,35.2,12.6a.593.593,0,0,1,.44.157.62.62,0,0,1,.155.456v1.235h1.393a.524.524,0,0,1,.369.121.447.447,0,0,1,.131.347.452.452,0,0,1-.131.342.513.513,0,0,1-.369.126H35.794v2.736a1.473,1.473,0,0,0,.268.96,1.07,1.07,0,0,0,.875.324,1.491,1.491,0,0,0,.375-.042,2.3,2.3,0,0,1,.268-.054.277.277,0,0,1,.213.091.507.507,0,0,1,.084.341.867.867,0,0,1-.065.336.342.342,0,0,1-.232.2,2.741,2.741,0,0,1-.388.09A2.581,2.581,0,0,1,36.758,20.415Z"/>
    <path fill="#333" d="M41.091,20.415a2.954,2.954,0,0,1-1.517-.372,2.558,2.558,0,0,1-.994-1.055,3.434,3.434,0,0,1-.357-1.609,3.648,3.648,0,0,1,.2-1.26A2.8,2.8,0,0,1,39,15.165a2.473,2.473,0,0,1,.9-.612,3.188,3.188,0,0,1,1.184-.209,2.935,2.935,0,0,1,1.506.372,2.579,2.579,0,0,1,.994,1.049,3.426,3.426,0,0,1,.357,1.614,3.7,3.7,0,0,1-.2,1.26,2.706,2.706,0,0,1-.578.96,2.467,2.467,0,0,1-.9.606A3.156,3.156,0,0,1,41.091,20.415Zm0-.936a1.534,1.534,0,0,0,.857-.239,1.592,1.592,0,0,0,.578-.708,2.833,2.833,0,0,0,.208-1.153,2.342,2.342,0,0,0-.452-1.559,1.492,1.492,0,0,0-1.191-.529,1.589,1.589,0,0,0-.869.234,1.552,1.552,0,0,0-.577.7,2.831,2.831,0,0,0-.208,1.152,2.367,2.367,0,0,0,.452,1.56A1.485,1.485,0,0,0,41.091,19.479Z"/>
    <path fill="#333" d="M45.9,20.391a.6.6,0,0,1-.452-.162.621.621,0,0,1-.155-.449v-4.8a.619.619,0,0,1,.155-.456.675.675,0,0,1,.863,0,.639.639,0,0,1,.149.456v.876h-.12a1.894,1.894,0,0,1,.7-1.092,2.5,2.5,0,0,1,1.309-.432.438.438,0,0,1,.339.108.529.529,0,0,1,.137.372.511.511,0,0,1-.107.4.576.576,0,0,1-.4.174l-.226.024a1.8,1.8,0,0,0-1.178.493,1.588,1.588,0,0,0-.405,1.151V19.78a.636.636,0,0,1-.149.449A.593.593,0,0,1,45.9,20.391Z"/>
    <path fill="#333" d="M51.459,22.552a.534.534,0,0,1-.352-.115.428.428,0,0,1-.154-.3.868.868,0,0,1,.065-.4l.81-1.837v.516L49.6,15.2a.838.838,0,0,1-.06-.409.432.432,0,0,1,.179-.306.693.693,0,0,1,.416-.114.554.554,0,0,1,.358.108.946.946,0,0,1,.237.372l1.8,4.477H52.2l1.821-4.477a.806.806,0,0,1,.25-.377.665.665,0,0,1,.393-.1.487.487,0,0,1,.339.114.5.5,0,0,1,.155.3.712.712,0,0,1-.066.4l-2.976,6.9a.811.811,0,0,1-.267.372A.707.707,0,0,1,51.459,22.552Z"/>
  </g>
</svg>