<svg xmlns:sodipodi="http://sodipodi.sourceforge.net/DTD/sodipodi-0.dtd" width="60" xmlns:svg="http://www.w3.org/2000/svg" xmlns:inkscape="http://www.inkscape.org/namespaces/inkscape" sodipodi:docname="Fort3.svg" inkscape:version="1.1 (c68e22c387, 2021-05-23)" height="60" id="svg28" viewBox="0 0 60 60" xmlns="http://www.w3.org/2000/svg" version="1.1">
  <defs id="defs32"/>
  <sodipodi:namedview bordercolor="#666666" inkscape:window-height="1081" inkscape:pagecheckerboard="0" inkscape:zoom="14.55" id="namedview30" inkscape:current-layer="svg28" inkscape:window-y="141" inkscape:cy="30" inkscape:window-x="1149" inkscape:cx="29.965636" showgrid="false" inkscape:pageopacity="0.0" inkscape:pageshadow="2" inkscape:window-width="1271" inkscape:window-maximized="0" borderopacity="1.0" pagecolor="#ffffff"/>
  <rect fill="#ffcd34" width="60" id="rect2" height="60"/>
  <path style="stroke-width:1.12962" id="path43" d="m 27.173276,53.601858 c 0.534657,0.25 1.357696,0.474 2.19222,0.474 1.503164,0 2.41425,-0.788 2.41425,-1.981 0,-1.407 -1.259442,-2.106 -2.899141,-2.116 h -0.413434 v -1.42 h 0.315179 c 1.085902,-0.01 2.59417,-0.495 2.59417,-1.765 0,-0.997 -0.728613,-1.548 -1.83876,-1.548 -0.701816,0 -1.358972,0.229 -1.874489,0.5 l -0.393017,-1.445 c 0.584422,-0.329 1.704777,-0.641 2.892761,-0.641 2.392558,0 3.663484,1.263 3.663484,2.765 0,1.17 -0.810279,2.169 -2.183288,2.676 v 0.036 c 1.394701,0.347 2.586514,1.321 2.586514,3.02 0,1.84 -1.666496,3.496 -4.6741,3.496 -1.102491,0 -2.161596,-0.227 -2.789403,-0.528 z"/>
  <g id="g26">
    <g id="g22">
      <path stroke-linecap="round" transform="translate(0 0)" fill="none" stroke-linejoin="round" id="path4" d="M39.591,22.743q0,.108,0,.216c0,.071,0,.142-.005.214s-.006.144-.011.215-.007.144-.013.216-.012.143-.019.215-.015.142-.024.214l-.03.213c-.01.07-.022.141-.035.212s-.024.141-.037.212-.029.142-.045.212-.03.14-.048.21l-.052.208c-.019.07-.038.139-.058.208s-.041.138-.063.206-.044.136-.067.2-.047.137-.072.2-.049.135-.075.2-.053.135-.081.2-.056.131-.086.2-.059.13-.089.2-.061.13-.093.2l-.1.191c-.033.063-.067.127-.1.19l-.108.187c-.036.062-.073.123-.11.184l-.115.182c-.039.06-.08.12-.121.179s-.082.118-.124.176-.082.118-.126.175-.087.114-.132.171-.089.112-.134.167l-.139.165c-.047.055-.095.109-.142.162s-.1.105-.148.158-.1.1-.149.154l-.154.152q-.076.075-.156.147c-.052.049-.1.1-.16.145s-.108.1-.163.141-.11.092-.166.136l-.169.135c-.057.043-.114.086-.171.127s-.118.086-.176.126-.118.082-.178.121-.121.08-.181.119l-.182.113c-.062.038-.125.074-.187.108s-.125.072-.188.106l-.191.1-.192.1-.195.091c-.065.03-.131.059-.2.086l-.2.085-.2.078c-.068.026-.136.05-.2.073s-.135.048-.2.07-.137.044-.206.065l-.206.06c-.069.019-.138.037-.208.054s-.14.037-.21.052l-.21.046-.212.041-.212.037-.213.03c-.072.01-.143.02-.214.028l-.214.022-.215.017c-.072.005-.144.008-.214.011l-.217.007c-.071,0-.142,0-.214,0s-.145,0-.217,0l-.214-.007c-.073,0-.144-.006-.215-.011l-.216-.017-.213-.022c-.072-.008-.143-.018-.214-.028l-.214-.03-.213-.037-.21-.041-.21-.046c-.071-.015-.141-.033-.21-.052s-.139-.035-.208-.054l-.208-.06-.206-.065c-.068-.022-.135-.045-.2-.07s-.135-.047-.2-.073l-.2-.078-.2-.085c-.065-.027-.13-.056-.2-.086l-.2-.091c-.065-.032-.129-.065-.193-.1s-.129-.066-.191-.1-.126-.07-.188-.106-.124-.07-.186-.108-.124-.075-.184-.113-.121-.078-.18-.119-.119-.079-.178-.121-.117-.082-.175-.126-.115-.084-.171-.127l-.171-.135c-.055-.044-.11-.09-.165-.136s-.11-.093-.165-.141-.106-.1-.158-.145-.106-.1-.158-.147-.1-.1-.151-.152-.1-.1-.152-.154l-.145-.158c-.048-.053-.1-.107-.143-.162l-.139-.165c-.046-.055-.091-.11-.134-.167s-.089-.114-.132-.171-.086-.116-.128-.175-.083-.116-.123-.176-.081-.119-.12-.179-.077-.122-.114-.182l-.113-.184-.106-.187c-.035-.063-.069-.127-.1-.19s-.068-.127-.1-.191l-.093-.2c-.031-.065-.062-.13-.091-.2s-.057-.132-.084-.2-.054-.134-.08-.2-.054-.134-.078-.2-.049-.134-.072-.2-.045-.136-.067-.2-.042-.136-.06-.206-.04-.138-.059-.208-.037-.138-.054-.208l-.048-.21L20.7,24.67l-.039-.212c-.012-.071-.022-.142-.033-.212s-.021-.142-.03-.213-.016-.143-.024-.214-.013-.144-.019-.215-.011-.144-.015-.216-.008-.142-.009-.215,0-.143-.007-.214v-.216c0-.071,0-.143.007-.215s0-.144.009-.217.009-.142.015-.214.012-.142.019-.214.015-.143.024-.215.019-.141.03-.212.021-.142.033-.212l.039-.213.043-.212q.024-.1.048-.21c.017-.069.035-.139.054-.208s.038-.139.059-.208.039-.138.06-.206.044-.136.067-.2.047-.135.072-.2.05-.135.078-.2.052-.135.08-.2.055-.13.084-.2.06-.13.091-.2l.093-.2c.032-.063.065-.127.1-.19s.067-.127.1-.191.07-.124.106-.186l.113-.184c.037-.061.075-.121.114-.182s.079-.121.12-.18.081-.118.123-.175.084-.118.128-.176l.132-.169c.043-.057.088-.114.134-.169l.139-.164c.047-.055.095-.109.143-.163l.145-.158c.05-.052.1-.1.152-.154s.1-.1.151-.151.105-.1.158-.147l.158-.146.165-.14.165-.137.171-.134c.056-.043.113-.087.171-.13l.175-.124.178-.123.18-.117c.06-.038.122-.075.184-.113l.186-.108c.062-.036.125-.071.188-.106s.126-.068.191-.1l.193-.1c.063-.03.128-.061.2-.091l.2-.089.2-.082.2-.078c.067-.026.134-.051.2-.074s.135-.047.2-.069.138-.045.206-.065l.208-.061.208-.054c.069-.019.139-.036.21-.052s.139-.031.21-.045l.21-.042c.071-.012.142-.025.213-.036s.143-.022.214-.031l.214-.028.215-.021.214-.018.215-.011.214-.008c.072,0,.144,0,.217,0s.143,0,.214,0l.217.008.214.011.215.018.214.021.214.028c.071.009.142.019.213.031l.212.036.212.042q.107.021.21.045c.07.016.14.033.21.052l.208.054.206.061c.069.02.138.042.206.065s.136.045.2.069.136.048.2.074l.2.078.2.082c.067.029.133.059.2.089l.195.091c.064.032.129.064.192.1s.127.065.191.1.126.07.188.106.125.071.187.108l.182.113.181.119c.06.039.119.08.178.121l.176.124.171.13.169.134c.056.045.111.091.166.137s.109.093.163.14.108.1.16.146.105.1.156.147l.154.151c.05.051.1.1.149.154s.1.106.148.158.095.108.142.163l.139.164c.045.055.09.112.134.169l.132.169c.044.058.086.116.128.176l.124.175c.04.059.08.119.119.18l.115.182c.037.061.074.122.11.184l.108.186c.035.064.069.127.1.191l.1.19q.048.1.093.2c.03.065.06.13.089.2s.059.133.086.2.055.131.081.2.051.133.075.2.049.135.072.2.045.136.067.2.043.137.063.206.039.139.058.208l.052.208c.018.071.033.141.048.21s.031.142.045.212.026.142.037.213.025.141.035.212l.03.212c.009.072.017.144.024.215s.014.143.019.214.011.144.013.217.008.142.011.214S39.591,22.672,39.591,22.743Z" stroke="#010101" stroke-width="2.859"/>
      <path stroke-linecap="round" transform="translate(0 0)" fill="none" stroke-linejoin="round" id="path6" d="M41.921,11l-4.977,4.968" stroke="#010101" stroke-width="2.859"/>
      <path stroke-linecap="round" transform="translate(0 0)" fill="none" stroke-linejoin="round" id="path8" d="M22.926,29.955l-4.633,4.626" stroke="#010101" stroke-width="2.859"/>
      <path stroke-linecap="round" transform="translate(0 0)" fill="none" stroke-linejoin="round" id="path10" d="M18.278,11.192l4.635,4.626" stroke="#010101" stroke-width="2.859"/>
      <path stroke-linecap="round" transform="translate(0 0)" fill="none" stroke-linejoin="round" id="path12" d="M46.58,22.84l-6.686,0" stroke="#010101" stroke-width="2.859"/>
      <path stroke-linecap="round" transform="translate(0 0)" fill="none" stroke-linejoin="round" id="path14" d="M19.64,22.818l-6.22,0" stroke="#010101" stroke-width="2.859"/>
      <path stroke-linecap="round" transform="translate(0 0)" fill="none" stroke-linejoin="round" id="path16" d="M30.028,6.178l0,6.489" stroke="#010101" stroke-width="2.859"/>
      <path stroke-linecap="round" transform="translate(0 0)" fill="none" stroke-linejoin="round" id="path18" d="M30.05,32.807l.006,6.6" stroke="#010101" stroke-width="2.859"/>
      <path stroke-linecap="round" transform="translate(0 0)" fill="none" stroke-linejoin="round" id="path20" d="M37.007,29.888l4.847,4.838" stroke="#010101" stroke-width="2.859"/>
    </g>
  </g>
</svg>