<svg width="60" height="60" xmlns="http://www.w3.org/2000/svg" viewBox="0 0 60 60">
  <rect fill="#d1e8c6" height="60" width="60"/>
  <g>
    <rect x="22.688" width="13.279" height="3.862" y="51.876"/>
    <polygon points="7.288 29.958 29.194 29.48 29.295 36.199 7.175 33.941 7.288 29.958" fill-rule="evenodd"/>
    <path d="M9.254,31.922v.087l0,.043,0,.043,0,.044,0,.043-.006.043-.007.043-.008.042-.009.043L9.2,32.4l-.011.042-.012.042-.012.042-.014.041-.014.041-.016.04-.016.041-.017.04-.018.039-.019.039-.02.039-.021.038-.021.038-.023.037-.023.036-.024.037-.025.035-.026.035-.026.035-.027.033-.028.034-.029.032-.029.032-.031.031-.03.031-.032.03-.032.029-.033.028-.034.028-.034.027-.034.026-.036.025-.036.024-.036.024-.037.023-.037.022-.038.021-.039.02-.039.02-.039.018-.04.018-.04.017-.04.015-.041.015-.041.014-.041.013-.042.012-.042.012-.042.01-.043.009-.042.008-.043.008-.043.006-.043,0-.043.005-.044,0-.043,0H7.246l-.043,0-.043,0-.043-.005-.043,0-.043-.006-.043-.008-.043-.008L6.9,33.816l-.042-.01-.042-.012-.042-.012-.041-.013-.042-.014-.04-.015-.041-.015-.04-.017-.04-.018-.039-.018-.039-.02-.038-.02-.038-.021-.037-.022-.037-.023-.037-.024-.036-.024L6.2,33.493l-.035-.026-.034-.027L6.1,33.412l-.033-.028-.032-.029L6,33.325l-.031-.031-.03-.031-.029-.032L5.879,33.2l-.028-.034-.027-.033L5.8,33.1l-.026-.035-.024-.035-.024-.037L5.7,32.954l-.022-.037-.022-.038-.02-.038-.02-.039L5.6,32.763l-.018-.039-.017-.04-.017-.041-.015-.04-.015-.041L5.5,32.521l-.013-.042-.011-.042L5.466,32.4l-.01-.042-.008-.043-.008-.042-.007-.043-.006-.043,0-.043,0-.044,0-.043,0-.043v-.131l0-.043,0-.043,0-.044,0-.043.006-.043.007-.043.008-.042.008-.043.01-.042.011-.042.011-.042.013-.042.013-.041.015-.041.015-.04.017-.041.017-.04.018-.039.019-.039.02-.039.02-.038.022-.038.022-.037.024-.036.024-.037.024-.035L5.8,30.79l.027-.035.027-.033.028-.034.029-.032.029-.032.03-.031L6,30.562l.032-.03.032-.029.033-.028.033-.028.034-.027.035-.026.035-.025.036-.024.037-.024.037-.023.037-.022.038-.021.038-.02.039-.02.039-.018.04-.018.04-.017.041-.015.04-.015.042-.014.041-.013.042-.012.042-.012.042-.01.042-.009.043-.008.043-.008.043-.006.043,0,.043,0,.043,0,.044,0H7.42l.043,0,.044,0,.043,0,.043,0,.043.006.043.008.042.008.043.009.042.01.042.012.042.012.041.013.041.014.041.015.04.015.04.017.04.018.039.018.039.02.039.02.038.021.037.022.037.023.036.024.036.024.036.025.034.026.034.027.034.028.033.028.032.029.032.03.03.031.031.031.029.032.029.032.028.034.027.033.026.035.026.035.025.035.024.037.023.036.023.037.021.038.021.038.02.039.019.039.018.039.017.04.016.041.016.04.014.041.014.041.012.042.012.042.011.042.009.042.009.043.008.042.007.043.006.043,0,.043,0,.044,0,.043,0,.043Z" fill-rule="evenodd" transform="translate(0 0)"/>
    <polygon points="51.454 29.958 29.547 29.48 29.447 36.199 51.567 33.941 51.454 29.958" fill-rule="evenodd"/>
    <path d="M49.488,31.922a.309.309,0,0,0,0,.043v.044l0,.043,0,.043,0,.044.005.043.006.043.007.043.008.042.009.043.009.042.011.042.012.042.012.042.014.041.014.041.015.04.017.041.017.04.018.039.019.039.02.039.021.038.021.038.023.037.023.036.024.037.025.035.025.035.027.035.027.033.028.034.029.032.029.032.03.031.031.031.032.03.032.029.033.028.033.028.035.027.034.026.036.025.035.024.037.024.037.023.037.022.038.021.039.02.038.02.04.018.039.018.04.017.041.015.041.015.041.014.041.013.042.012.042.012.042.01.042.009.043.008.043.008.043.006.043,0,.043.005.043,0,.044,0H51.5l.044,0,.043,0,.043-.005.043,0,.043-.006.043-.008.043-.008.042-.009.042-.01.042-.012.042-.012.041-.013.041-.014.041-.015.041-.015.04-.017.039-.018.04-.018.038-.02.039-.02.038-.021.037-.022.037-.023.037-.024.035-.024.036-.025.034-.026.035-.027.033-.028.033-.028.032-.029.032-.03.031-.031.03-.031.029-.032.029-.032.028-.034.027-.033.027-.035.025-.035L53,33.027l.024-.037.024-.036.022-.037.022-.038.02-.038.02-.039.019-.039.018-.039.017-.04.017-.041.015-.04.014-.041.014-.041.012-.042.012-.042.011-.042.01-.042.008-.043.008-.042.007-.043.006-.043.005-.043,0-.044,0-.043,0-.043v-.131l0-.043,0-.043,0-.044-.005-.043-.006-.043-.007-.043-.008-.042-.008-.043-.01-.042-.011-.042-.012-.042-.012-.042-.014-.041-.014-.041-.015-.04-.017-.041-.017-.04-.018-.039-.019-.039-.02-.039-.02-.038-.022-.038-.022-.037-.024-.036L53,30.86l-.025-.035-.025-.035-.027-.035-.027-.033-.028-.034-.029-.032-.029-.032-.03-.031-.031-.031-.032-.03L52.68,30.5l-.033-.028-.033-.028-.035-.027-.034-.026-.036-.025-.035-.024-.037-.024L52.4,30.3l-.037-.022-.038-.021-.039-.02-.038-.02-.04-.018-.039-.018-.04-.017-.041-.015-.041-.015-.041-.014-.041-.013-.042-.012-.042-.012-.042-.01-.042-.009-.043-.008-.043-.008-.043-.006-.043,0-.043,0-.043,0-.044,0h-.173l-.044,0-.043,0-.043,0-.043,0-.043.006-.043.008-.043.008-.042.009-.042.01-.042.012-.042.012-.041.013-.041.014-.041.015-.041.015-.04.017-.039.018-.04.018-.038.02-.039.02-.038.021-.037.022-.037.023-.037.024-.035.024-.036.025-.034.026-.035.027-.033.028-.033.028-.032.029-.032.03-.031.031-.03.031-.029.032-.029.032-.028.034-.027.033-.027.035-.025.035-.025.035L49.8,30.9l-.024.036-.022.037-.021.038-.021.038-.02.039-.019.039-.018.039-.017.04-.017.041-.015.04-.014.041-.014.041-.012.042-.012.042-.011.042-.009.042-.009.043-.008.042-.007.043-.006.043-.005.043,0,.044,0,.043,0,.043Z" fill-rule="evenodd" transform="translate(0 0)"/>
    <rect x="20.764" width="2.891" height="18.455" y="21.184"/>
    <rect x="35.184" width="2.891" height="18.455" y="21.293"/>
    <rect x="28.07" width="2.569" height="30.605" y="21.905"/>
    <g>
      <path d="M2.127,12.954a4.086,4.086,0,0,0,1.955.516c.947,0,1.475-.444,1.475-1.1,0-.612-.408-.971-1.439-1.343-1.331-.48-2.183-1.188-2.183-2.351,0-1.319,1.1-2.326,2.855-2.326a4.277,4.277,0,0,1,1.942.407L6.373,7.94a3.437,3.437,0,0,0-1.607-.383c-.936,0-1.344.5-1.344.971,0,.624.468.912,1.548,1.331,1.4.528,2.086,1.236,2.086,2.4,0,1.3-.983,2.423-3.07,2.423a4.8,4.8,0,0,1-2.183-.5Z" transform="translate(0 0)"/>
      <path d="M12.913,10.975H9.866V13.35h3.406v1.211H8.391V6.478h4.7V7.689H9.866V9.776h3.047Z" transform="translate(0 0)"/>
      <path d="M16.19,12.271l-.7,2.29H13.971l2.591-8.083h1.883l2.626,8.083H19.488l-.732-2.29ZM18.5,11.155l-.635-1.991c-.156-.492-.287-1.043-.408-1.511h-.024c-.12.468-.239,1.031-.384,1.511l-.623,1.991Z" transform="translate(0 0)"/>
      <path d="M24.687,6.585a12.774,12.774,0,0,1,2.255-.168,3.664,3.664,0,0,1,2.387.66,2.285,2.285,0,0,1,.791,1.787,2.447,2.447,0,0,1-.7,1.835,3.563,3.563,0,0,1-2.554.863,4.17,4.17,0,0,1-.72-.047v3.046H24.687Zm1.463,3.767a3.043,3.043,0,0,0,.72.059c1.1,0,1.775-.539,1.775-1.487,0-.9-.624-1.379-1.644-1.379a4.074,4.074,0,0,0-.851.072Z" transform="translate(0 0)"/>
      <path d="M31.4,6.478h1.475v6.848h3.321v1.235H31.4Z" transform="translate(0 0)"/>
      <path d="M38.979,12.271l-.7,2.29H36.76l2.591-8.083h1.882l2.626,8.083H42.276l-.731-2.29Zm2.314-1.116-.636-1.991c-.155-.492-.287-1.043-.407-1.511h-.024c-.121.468-.24,1.031-.384,1.511l-.623,1.991Z" transform="translate(0 0)"/>
      <path d="M44.991,14.561V6.478H46.67l2.087,3.465a22.232,22.232,0,0,1,1.38,2.711h.023c-.1-1.079-.132-2.123-.132-3.358V6.478H51.4v8.083H49.872l-2.11-3.55a27.822,27.822,0,0,1-1.451-2.795l-.037.013c.06,1.043.073,2.11.073,3.441v2.891Z" transform="translate(0 0)"/>
      <path d="M57.624,10.975H54.578V13.35h3.4v1.211H53.1V6.478h4.7V7.689H54.578V9.776h3.046Z" transform="translate(0 0)"/>
    </g>
  </g>
</svg>