<svg width="60" height="60" xmlns="http://www.w3.org/2000/svg" viewBox="0 0 60 60">
  <rect fill="#fff" height="60" width="60"/>
  <rect fill="#d1e8c6" height="60" width="60"/>
  <g>
    <g>
      <g>
        <path fill="#010101" d="M27.959,35.817l-1.744-.03-2.288-.07-2.238-.1-1.637-.1L18.471,35.4l-1.024-.083-1.989-.193-.943-.1-.92-.113s-.733-.1-.872-.117L11.476,34.6l-1.166-.2-.726-.139-.994-.218-.909-.228-.549-.158-.674-.224-.246-.091-.386-.16-.313-.15-.281-.158-.22-.148-.139-.122c0-.005-.091-.115-.1-.12l.072-.12.1-.095.082-.068.2-.135.275-.155.313-.148.2-.088.406-.157.462-.157.524-.159.556-.151.612-.151.654-.146,1.075-.213s1.021-.179,1.149-.2l.839-.131,1.3-.177,1.389-.169,1.451-.151,2.03-.175,2.131-.149,1.651-.091,2.255-.094,2.3-.06,1.721-.025,1.771-.006,1.751.011,2.313.047,1.712.055,1.684.072,1.653.091,1.6.107,2.063.172,1.95.2,1.822.225,1.274.183,1.2.2,1.1.211.669.141.644.151.588.151.785.233.436.147.435.169.362.159.153.075.271.153.228.152.065.057.127.124.056.1-.2.187-.071.055-.2.135-.277.155-.25.123-.4.17-.492.179-.5.162-.533.153-.905.227-1,.219-1.1.206-.788.135-1.689.25-1.355.17-1.921.2-1,.092-2.09.164-1.62.1-1.935.1-.852.036-2.294.069-1.731.03-1.165.011H30Z" transform="translate(0 0)"/>
        <path fill="#010101" d="M30.292,29.81l.587,0q.288,0,.57,0l.382,0h.19l.585.009.582.011c.189,0,.378.008.581.014l.565.013.289.009.289.008.309.009.249.007.572.022.566.022.566.025c.183.007.364.015.544.024s.362.019.558.031l.551.03.533.03c.177.011.353.022.543.036l.538.036c.174.011.346.022.5.034l.54.042c.169.013.337.026.507.041l.513.044L43,30.36l.5.047.49.049.278.029.194.019.478.052.469.056.462.055c.147.017.293.036.452.057l.43.056.434.06.426.061c.135.019.269.039.4.06l.409.066.392.065.14.023.249.043.359.064.362.071.11.021.246.049.244.05.1.022c.1.021.206.044.309.068l.322.073.3.073.3.076.26.068.272.076.277.084c.075.022.148.044.227.07s.152.049.229.076l.209.073c.062.022.123.046.214.082.051.019.1.039.191.077.047.019.092.038.163.07.045.019.089.039.16.073l-.16.073-.177.076-.182.073-.2.074-.219.077-.237.078-.209.067-.292.086-.243.068-.3.08c-.085.023-.17.045-.276.069l-.315.076c-.1.023-.193.045-.317.072-.1.024-.206.047-.327.072l-.325.069-.243.048-.117.023c-.112.022-.226.043-.365.068-.117.022-.236.044-.375.068-.122.022-.245.044-.371.065l-.4.065c-.126.021-.254.041-.408.063-.13.021-.262.041-.414.063l-.407.06-.422.059-.442.058-.47.057c-.147.019-.3.038-.448.056l-.466.052-.463.05-.15.016-.337.034-.491.05-.5.047c-.162.016-.325.031-.488.045s-.333.028-.514.041l-.519.042c-.171.014-.342.028-.515.04l-.443.033-.073.005-.535.036-.542.033-.534.033c-.19.009-.379.019-.554.03l-.384.019-.172.009-.546.027L36.6,35c-.183.009-.368.018-.553.025l-.572.019c-.187.007-.374.014-.563.019l-.375.011-.187,0-.579.014-.611.012-.549.01-.571.009-.323,0-.263,0-.57.006H29.133l-.584-.006-.261,0-.322,0-.573-.009-.581-.011-.569-.01c-.2-.006-.393-.011-.577-.014l-.289-.009-.288-.008c-.186-.005-.372-.012-.56-.019s-.389-.014-.571-.019-.37-.016-.567-.025l-.551-.022-.558-.027-.173-.009-.369-.018c-.19-.012-.379-.022-.553-.031l-.578-.035-.5-.03-.537-.036-.089-.006-.442-.033c-.173-.012-.344-.026-.527-.041L18,34.671c-.167-.012-.333-.026-.5-.04s-.327-.029-.5-.047-.326-.029-.488-.045l-.491-.05-.336-.034-.149-.015-.481-.053c-.152-.016-.3-.033-.452-.051s-.3-.036-.462-.057l-.436-.053-.462-.063-.418-.055c-.138-.02-.273-.04-.426-.064-.135-.019-.268-.039-.418-.063-.131-.019-.259-.039-.391-.06l-.392-.065-.389-.069c-.122-.021-.242-.042-.378-.068-.116-.02-.23-.041-.342-.064l-.119-.023-.238-.047c-.11-.023-.22-.046-.349-.075-.1-.021-.2-.043-.331-.072l-.3-.068-.3-.074-.3-.076-.26-.068-.272-.076L7.355,33,7.1,32.922l-.229-.075-.244-.086-.151-.056-.187-.075-.164-.069-.16-.072-.03-.015.027-.013c.043-.021.087-.041.16-.073l.149-.065.208-.081c.06-.024.121-.048.173-.067l.224-.078c.072-.025.147-.049.232-.076s.144-.046.236-.073l.24-.073.268-.076.284-.074.294-.074.318-.077c.1-.023.193-.045.315-.071.1-.024.208-.047.308-.068l.106-.022.26-.053c.106-.023.213-.044.34-.067l.346-.067.375-.068.409-.069c.115-.021.233-.041.376-.062l.391-.063.414-.063.335-.048.09-.012.438-.061.441-.058c.145-.019.291-.038.44-.055l.463-.056.45-.053.479-.052.209-.021.277-.029.246-.025.23-.023.5-.047.5-.044.25-.021.265-.023c.169-.015.337-.028.5-.041l.529-.041c.169-.013.341-.024.528-.036l.538-.036c.176-.013.352-.024.526-.035l.549-.03.554-.031c.18-.011.361-.02.542-.03s.363-.017.558-.024l.552-.025.566-.022.557-.022.312-.009.276-.008c.183-.007.366-.012.564-.016l.577-.014.568-.013.567-.011.586-.008.2,0,.38,0c.192,0,.382,0,.585,0l.574,0h.584m0-1.385h-.584c-.2,0-.392,0-.587,0s-.389,0-.585,0l-.584.006c-.194,0-.389.007-.584.008l-.582.011-.582.014-.576.014c-.194,0-.387.009-.579.017l-.573.016-.57.022-.568.023c-.189.007-.377.015-.565.025s-.373.015-.56.024l-.556.031c-.185.009-.37.019-.554.03l-.549.031q-.271.016-.543.036t-.537.036c-.179.011-.356.023-.532.036s-.353.028-.529.041-.347.027-.52.042l-.515.044-.507.045-.5.047-.493.049-.488.05c-.162.019-.323.036-.482.053l-.47.055-.466.056c-.153.018-.3.038-.457.058s-.3.038-.446.058l-.44.061-.429.061-.421.064-.413.066c-.137.02-.27.043-.4.067l-.393.066-.382.069-.374.072c-.122.023-.243.046-.363.072l-.351.072c-.115.024-.229.049-.341.075s-.223.049-.33.075l-.321.077-.307.078-.3.078-.285.08-.274.083c-.089.026-.176.053-.261.08l-.252.083-.238.083-.224.086-.213.083c-.071.03-.138.06-.2.089s-.127.056-.188.086-.119.056-.174.086-.112.059-.164.088-.1.059-.152.089-.093.059-.136.089-.087.059-.127.088l-.111.092c-.035.029-.068.059-.1.088l-.086.092c-.025.029-.049.06-.072.091a.817.817,0,0,0-.058.091.664.664,0,0,0-.047.092.7.7,0,0,0-.033.091.47.47,0,0,0-.019.092.453.453,0,0,0-.009.091.476.476,0,0,0,.009.091.538.538,0,0,0,.019.092c.009.029.02.06.033.091a1,1,0,0,0,.047.092c.017.029.036.059.058.091s.047.059.072.089.057.061.086.091l.1.091c.035.03.072.06.111.089s.083.059.127.089.088.059.136.088.1.059.152.089.106.059.164.088.113.06.174.089l.188.086.2.086.213.086.224.083.238.083.252.083.261.083.274.08.285.081c.1.026.195.052.3.077l.307.078c.105.026.212.052.321.077s.217.051.33.075.224.051.341.075.233.051.351.075l.363.072c.122.024.246.047.371.069s.256.047.385.069.26.047.391.069l.4.067.41.064c.14.022.282.043.424.063s.283.044.429.064.291.04.44.058l.446.061.457.056.466.058c.155.018.312.036.47.052s.32.036.482.053l.488.05.493.05.5.047.507.047.515.041c.173.015.347.029.52.042s.352.028.529.041l.532.039.537.036.543.033.549.034.554.03.556.028.56.028.565.022.568.025c.19.005.38.012.57.019s.383.014.573.019l.576.017c.194,0,.387.008.579.014l.582.011.582.011c.193,0,.388.006.584.008l.584.006.585.005h.587l.293,0,.291,0h.587l.585-.005.584-.006c.194,0,.389,0,.584-.008l.582-.011.579-.011c.194-.006.387-.01.579-.014l.576-.017c.192-.005.384-.012.576-.019s.38-.012.57-.019l.568-.025.565-.022.56-.028.556-.028.554-.03.549-.034.543-.033.537-.036.532-.039c.177-.013.353-.026.529-.041s.347-.027.52-.042l.515-.041.507-.047.5-.047.493-.05.488-.05c.162-.017.323-.034.482-.053s.315-.034.47-.052l.466-.058.457-.056.446-.058.44-.061c.144-.02.287-.041.429-.064s.283-.041.421-.063.278-.042.413-.064.27-.044.4-.067.264-.045.393-.069.256-.045.382-.069.252-.045.374-.069l.363-.072q.177-.036.351-.075c.115-.024.229-.049.341-.075s.223-.049.33-.075.216-.051.321-.077.206-.05.307-.078l.3-.077q.147-.039.285-.081l.274-.08.261-.083.252-.083.238-.083.224-.083.213-.086.2-.086.188-.086c.061-.029.119-.059.174-.089s.112-.059.164-.088.1-.059.152-.089.093-.059.136-.088.087-.059.127-.089.076-.059.111-.089l.1-.091c.029-.03.058-.06.086-.091s.049-.06.072-.092a.887.887,0,0,0,.058-.088,1,1,0,0,0,.047-.092c.013-.031.024-.062.033-.091a.538.538,0,0,0,.019-.092.476.476,0,0,0,.009-.091.453.453,0,0,0-.009-.091.47.47,0,0,0-.019-.092.7.7,0,0,0-.033-.091.664.664,0,0,0-.047-.092.817.817,0,0,0-.058-.091c-.023-.031-.047-.062-.072-.091l-.086-.092c-.032-.029-.065-.059-.1-.088l-.111-.092c-.04-.029-.083-.059-.127-.088s-.088-.06-.136-.089-.1-.059-.152-.089-.106-.059-.164-.088-.113-.058-.174-.086-.124-.058-.188-.086-.132-.058-.2-.086-.139-.058-.213-.086l-.224-.086-.238-.083-.252-.083c-.085-.027-.172-.054-.261-.08s-.18-.055-.274-.083l-.285-.08-.3-.078-.307-.078-.321-.077-.33-.075c-.111-.026-.224-.051-.341-.075l-.351-.072-.363-.072-.371-.072c-.128-.024-.256-.047-.385-.069l-.391-.066-.4-.067-.41-.066c-.14-.023-.282-.044-.424-.064l-.429-.061-.438-.061c-.149-.02-.3-.04-.448-.058s-.3-.04-.457-.058l-.466-.056-.47-.055c-.159-.017-.32-.034-.482-.053l-.488-.05-.493-.049-.5-.047-.51-.045-.515-.044c-.173-.015-.347-.029-.52-.042s-.351-.026-.527-.041-.355-.025-.534-.036-.357-.025-.537-.036-.362-.025-.543-.036l-.549-.031c-.182-.011-.367-.021-.554-.03l-.556-.031c-.185-.009-.371-.017-.56-.024s-.376-.018-.565-.025l-.568-.023-.57-.022-.573-.016-.576-.017-.579-.014-.582-.014-.582-.011c-.193,0-.388,0-.584-.008l-.584-.006c-.194,0-.389,0-.585,0s-.391,0-.587,0Z" transform="translate(0 0)"/>
      </g>
      <g>
        <polygon fill="#010101" points="30.418 52.746 30.307 51.886 30.06 49.255 29.939 47.373 29.84 45.324 29.777 43.514 29.714 40.473 29.699 36.95 29.718 35.021 29.777 32.341 29.84 30.527 29.903 29.15 30.019 27.217 30.13 25.748 30.229 24.687 30.334 23.752 30.446 22.94 30.509 22.534 30.603 23.135 30.713 23.979 30.912 26.03 31.042 27.847 31.132 29.493 31.262 33.099 31.301 35.018 31.317 36.567 31.3 40.858 31.218 44.256 31.118 46.662 31.022 48.35 30.865 50.394 30.765 51.413 30.685 52.114 30.57 52.945 30.509 53.332 30.418 52.746"/>
        <path fill="#010101" d="M30.51,31.2l0,.092c.006.112.01.226.013.341l.012.367.011.371.011.374,0,.188,0,.168q0,.2.009.4c0,.121.006.242.008.382,0,.121.006.242.008.362l.006.385c0,.136,0,.272.008.388s0,.245,0,.388l0,.39.006.371c0,.138,0,.274,0,.39v.413c0,.125,0,.249,0,.374v1.18c0,.125,0,.249,0,.393v.374c0,.136,0,.272,0,.39l-.006.391,0,.41c0,.123,0,.245,0,.348,0,.136-.006.272-.008.408l-.006.384c0,.121,0,.242-.008.383,0,.122,0,.242-.008.362s-.007.267-.008.379l-.006.188,0,.188-.011.373-.011.371-.012.368c0,.115-.007.228-.013.363l0,.069,0-.091c-.005-.112-.01-.226-.013-.341l-.012-.388c0-.117-.01-.234-.013-.33,0-.13-.005-.261-.008-.394l-.006-.188-.006-.189c0-.118-.006-.238-.008-.379,0-.119-.006-.239-.008-.382,0-.12-.006-.241-.008-.362l-.006-.4c0-.123-.006-.245-.008-.368l-.005-.328v-.04c0-.136,0-.273,0-.41L30.4,39.7c0-.138,0-.274,0-.391,0-.137,0-.275,0-.393V36.969c0-.137,0-.275,0-.393,0-.136,0-.272,0-.391l.006-.39c0-.138,0-.274,0-.39v-.064l0-.324c0-.123,0-.246.009-.392l0-.381c0-.122,0-.244.008-.385,0-.12,0-.24.009-.379,0-.12,0-.24.007-.359l.006-.188.006-.188c0-.133.006-.264.008-.374s.008-.233.014-.371l.011-.368c0-.115.008-.229.014-.364l0-.068m0-10.674a.1.1,0,0,0-.033.006.226.226,0,0,0-.033.013.165.165,0,0,0-.033.023l-.036.03a.264.264,0,0,0-.034.039.542.542,0,0,0-.033.05c-.011.018-.022.038-.033.058s-.022.042-.033.066-.023.049-.034.075-.022.054-.033.083-.022.06-.033.092-.022.067-.033.1-.023.072-.034.111-.021.075-.03.116-.022.083-.033.128-.022.089-.034.135-.019.093-.03.141-.021.1-.03.153-.023.105-.034.16-.019.11-.03.169-.02.116-.031.175-.018.12-.027.183-.022.126-.031.191-.021.133-.03.2-.019.138-.028.208-.018.141-.028.213-.021.149-.03.224-.019.15-.028.228-.017.157-.025.238-.018.159-.027.241-.019.167-.028.252-.016.171-.025.257-.016.175-.025.263-.016.179-.025.269-.016.185-.025.277l-.022.283c-.007.1-.015.192-.022.29s-.018.194-.025.294-.014.2-.019.3l-.023.3c-.007.1-.014.208-.022.313s-.012.211-.019.316-.012.215-.02.324-.012.216-.019.327l-.017.332c-.007.111-.013.224-.019.338l-.017.341-.016.346c0,.117-.008.233-.014.349l-.017.355c0,.118-.008.237-.013.357l-.012.36c-.005.122-.01.244-.013.366l-.012.368c0,.124-.01.247-.013.371s-.005.248-.009.374l-.011.377c0,.125-.006.252-.008.379s-.007.252-.008.379-.007.256-.009.385l0,.385c0,.13-.007.259-.009.388l0,.388q0,.194,0,.39l0,.391q0,.2,0,.39c0,.131,0,.263,0,.394v1.966q0,.2,0,.393c0,.13,0,.26,0,.391l0,.39c0,.131,0,.262,0,.391l0,.388q0,.194.009.387l0,.385c0,.128.005.255.009.383s0,.256.008.382.005.254.008.379l.011.377c0,.125.007.25.009.374s.008.247.013.371l.012.368c0,.122.008.243.013.363l.012.363c0,.12.01.239.013.357l.017.355c.006.116.01.232.014.349l.016.346.017.34c.006.115.012.228.019.338l.017.333c.007.11.014.219.019.326s.014.218.02.325.014.21.019.315.015.21.022.313.015.2.023.3.012.2.019.3.016.2.025.293.015.2.022.291l.022.283c.009.092.018.184.025.277s.018.18.025.268.018.177.025.263.017.175.025.258.018.169.028.252.018.162.027.241.016.161.025.238.019.153.028.227.018.151.028.225.021.143.03.213.019.139.028.208.019.133.03.2.02.128.031.191.018.124.027.183.022.12.031.177.021.113.03.166.022.109.034.161.019.1.03.152.021.095.03.142.023.093.034.135.022.087.033.128.019.08.03.119.023.073.034.108.022.069.033.1l.033.092c.011.029.022.057.033.083s.022.052.034.075.022.046.033.066a.6.6,0,0,0,.033.058.542.542,0,0,0,.033.05.264.264,0,0,0,.034.039.406.406,0,0,0,.069.052.078.078,0,0,0,.033.014.1.1,0,0,0,.033.006.1.1,0,0,0,.036-.006.078.078,0,0,0,.033-.014.141.141,0,0,0,.034-.022.149.149,0,0,0,.033-.03.225.225,0,0,0,.036-.039.542.542,0,0,0,.033-.05.6.6,0,0,0,.033-.058c.011-.02.023-.042.034-.066s.022-.048.033-.075.022-.054.033-.083l.033-.092c.011-.033.023-.067.034-.1l.033-.108c.011-.039.021-.079.03-.119l.034-.128c.011-.042.022-.088.033-.135s.019-.094.03-.142.021-.1.031-.152.021-.1.03-.161.022-.109.033-.166.02-.116.031-.177.018-.12.028-.183.021-.127.03-.191.019-.133.03-.2.019-.138.028-.208.019-.141.028-.213.021-.148.03-.222.019-.152.028-.23.016-.157.025-.238.018-.16.028-.241.017-.167.025-.252l.027-.258c.008-.086.016-.174.025-.263s.016-.178.025-.268l.022-.277c.01-.094.018-.189.025-.283s.015-.193.022-.291.015-.193.023-.293l.022-.3c.007-.1.014-.2.022-.3s.015-.208.022-.313.012-.21.019-.315.012-.216.02-.325.012-.216.019-.326l.017-.333c0-.11.012-.223.019-.338l.017-.34c0-.115.01-.23.014-.346l.016-.349c.006-.118.01-.237.014-.355L31.885,45l.011-.363c0-.12.01-.241.014-.363l.011-.368.011-.371.011-.374.011-.377c0-.125,0-.252.008-.379s.007-.253.009-.382.006-.255.008-.383l.005-.385q0-.194.009-.387c0-.13,0-.259,0-.388L32,40.09l.006-.39c0-.131,0-.261,0-.391v-.393q0-.2,0-.393v-1.18q0-.2,0-.393v-.394c0-.129,0-.259,0-.39L32,35.775,32,35.385c0-.129,0-.259,0-.388s-.007-.258-.009-.388l-.005-.385c0-.127,0-.254-.008-.382s0-.255-.009-.382-.006-.254-.008-.379l-.011-.377-.011-.374-.011-.371-.011-.368c0-.122-.009-.243-.014-.363l-.011-.363-.017-.357c0-.119-.008-.237-.014-.355l-.016-.349c0-.116-.009-.231-.014-.346l-.017-.341c-.007-.114-.014-.227-.019-.338l-.017-.332c-.007-.109-.014-.218-.019-.327s-.014-.217-.02-.324-.013-.21-.019-.316-.015-.209-.022-.313l-.022-.3c-.008-.1-.015-.2-.022-.3s-.015-.2-.023-.294-.014-.194-.022-.29-.015-.189-.025-.283l-.022-.277c-.009-.09-.017-.18-.025-.269s-.017-.176-.025-.263l-.027-.257c-.008-.085-.016-.169-.025-.252s-.019-.162-.028-.241-.018-.161-.025-.238-.018-.154-.028-.228-.019-.15-.03-.224-.019-.143-.028-.213-.018-.139-.028-.208-.021-.133-.03-.2-.019-.129-.03-.191-.019-.124-.028-.183-.021-.119-.031-.175-.022-.115-.033-.169-.019-.108-.03-.16-.02-.1-.031-.15-.021-.1-.03-.144-.022-.091-.033-.135l-.034-.128c-.009-.041-.019-.079-.03-.116s-.022-.076-.033-.111-.023-.069-.034-.1-.022-.062-.033-.092-.022-.057-.033-.083-.022-.052-.033-.075-.023-.046-.034-.066-.022-.04-.033-.058a.542.542,0,0,0-.033-.05.225.225,0,0,0-.036-.039q-.017-.017-.033-.03a.146.146,0,0,0-.034-.023.091.091,0,0,0-.033-.013.1.1,0,0,0-.036-.006Z" transform="translate(0 0)"/>
      </g>
      <g>
        <polygon fill="#010101" points="21.606 53.054 21.527 52.23 29.16 50.641 29.162 53.893 21.606 53.054"/>
        <path fill="#010101" d="M28.468,51.492V53.12l-5.1-.566,5.1-1.062m1.384-1.7-9.073,1.888.191,2,8.885.986,0-4.877Z" transform="translate(0 0)"/>
      </g>
      <g>
        <polygon fill="#010101" points="31.859 50.552 39.493 52.144 39.414 52.968 31.858 53.804 31.859 50.552"/>
        <path fill="#010101" d="M32.551,51.4l5.1,1.063-5.1.565V51.4m-1.384-1.7,0,4.877,8.884-.983.192-2L31.167,49.7Z" transform="translate(0 0)"/>
      </g>
      <g>
        <path fill="#010101" d="M38.8,28.292v.13c0,.044,0,.088,0,.13v.13c0,.045,0,.088,0,.131s0,.085,0,.13l-.006.13c0,.042,0,.085,0,.127l-.006.131-.006.127c0,.042,0,.085-.008.127l-.005.128c0,.042-.007.084-.009.124l-.011.128c0,.04,0,.082-.008.124l-.011.122-.011.125-.011.122c0,.04-.009.08-.014.119l-.011.122c-.006.038-.01.077-.014.116l-.017.119c0,.039-.008.078-.014.117l-.016.113-.017.114-.016.11c-.006.037-.012.074-.02.111l-.016.108c-.008.035-.014.07-.02.105s-.014.072-.019.106l-.022.1c-.006.033-.012.066-.02.1l-.022.1-.022.1-.022.094-.022.094c-.01.032-.018.062-.025.092s-.016.059-.025.088-.016.059-.025.089-.016.055-.025.083a.816.816,0,0,1-.025.083l-.028.083a.783.783,0,0,1-.025.078l-.027.075c-.01.025-.019.05-.028.074s-.018.047-.028.07-.018.047-.027.069-.02.044-.031.066-.018.044-.028.064-.021.041-.03.061-.019.038-.031.058-.019.037-.03.055a.454.454,0,0,1-.03.053l-.031.05a.466.466,0,0,1-.03.047l-.031.044-.033.045a.272.272,0,0,1-.031.038l-.033.036a.317.317,0,0,1-.03.034q-.016.017-.033.03L37.623,34l-.033.025-.033.022-.031.019-.033.017-.033.011-.033.011a.13.13,0,0,1-.034.008.184.184,0,0,1-.033,0,.184.184,0,0,1-.033,0,.2.2,0,0,1-.036,0,.184.184,0,0,1-.033,0,.151.151,0,0,1-.034-.008l-.033-.011-.033-.011-.033-.017a.2.2,0,0,1-.031-.019l-.033-.022L37.028,34l-.033-.028c-.011-.009-.023-.019-.034-.03l-.03-.034-.033-.036a.259.259,0,0,1-.031-.041q-.016-.02-.033-.042l-.03-.044a.346.346,0,0,1-.031-.047c-.011-.017-.021-.033-.03-.05a.35.35,0,0,1-.031-.053c-.011-.018-.021-.037-.03-.055s-.022-.04-.031-.058-.019-.041-.03-.061-.019-.041-.028-.064-.019-.044-.03-.066-.019-.045-.028-.069-.019-.046-.028-.07-.018-.049-.028-.074l-.027-.075c-.009-.026-.018-.053-.025-.08s-.019-.053-.028-.081-.017-.053-.025-.083-.017-.055-.025-.083-.017-.059-.025-.089-.017-.059-.025-.088-.015-.06-.024-.092l-.023-.094c-.007-.031-.014-.064-.022-.1s-.015-.063-.022-.1l-.022-.1c-.008-.034-.014-.067-.02-.1l-.022-.1c0-.034-.012-.069-.019-.106s-.012-.07-.019-.105l-.017-.108c-.007-.037-.014-.074-.019-.111l-.017-.11-.017-.114-.016-.113c-.006-.039-.01-.078-.014-.117l-.017-.119c0-.039-.008-.078-.014-.116l-.011-.122c0-.039-.01-.079-.014-.119l-.011-.122-.011-.125-.011-.122c0-.042-.006-.084-.008-.124l-.011-.128c0-.04-.005-.082-.008-.124l-.006-.128c0-.042-.006-.085-.008-.127l-.006-.127,0-.131c0-.042,0-.085,0-.127l-.006-.13c0-.045,0-.088,0-.13s0-.086,0-.131v-.26c0-.042,0-.086,0-.13v-.26c0-.045,0-.088,0-.131s0-.086,0-.13l.006-.13c0-.042,0-.085,0-.127l0-.131.006-.127c0-.042,0-.085.008-.127L35.89,27c0-.042.006-.084.008-.124l.011-.128c0-.04.005-.082.008-.124l.011-.122.011-.125.011-.122c0-.04.009-.08.014-.119l.011-.122c.006-.038.011-.077.014-.116l.017-.119c0-.039.008-.077.014-.114l.016-.116.017-.114.017-.11c.005-.037.012-.074.019-.111l.017-.108c.007-.035.013-.07.019-.105s.014-.07.019-.106l.022-.105c.006-.033.012-.066.02-.1l.022-.1c.007-.033.015-.066.022-.1s.015-.066.022-.1l.023-.094c.009-.032.017-.062.024-.092s.016-.059.025-.088.016-.06.025-.089l.025-.086c.008-.027.016-.054.025-.08s.019-.055.028-.08.016-.055.025-.081.018-.051.027-.075.019-.05.028-.074.019-.047.028-.07.018-.047.028-.069.021-.044.03-.066l.028-.064c.011-.02.021-.04.03-.061s.02-.038.031-.058.019-.037.03-.056a.34.34,0,0,1,.031-.052c.009-.017.019-.033.03-.05a.346.346,0,0,1,.031-.047c.011-.015.021-.029.03-.044s.022-.029.033-.042a.259.259,0,0,1,.031-.041q.016-.017.033-.036l.03-.034c.011-.011.023-.021.034-.03l.033-.028.033-.025.033-.022.031-.019.033-.017.033-.011.033-.011a.151.151,0,0,1,.034-.008.184.184,0,0,1,.033,0,.2.2,0,0,1,.036,0,.184.184,0,0,1,.033,0,.184.184,0,0,1,.033,0,.13.13,0,0,1,.034.008l.033.011a.233.233,0,0,1,.033.014.233.233,0,0,1,.033.014l.031.019.033.022.033.025.034.028q.017.014.033.03a.317.317,0,0,1,.03.034q.017.019.033.036a.21.21,0,0,1,.031.041q.017.02.033.042c.009.015.02.029.031.044a.466.466,0,0,1,.03.047l.031.05a.44.44,0,0,1,.03.052c.011.019.021.038.03.056s.022.04.031.058.019.041.03.061l.028.064c.011.022.021.044.031.066s.018.045.027.069.019.046.028.07.018.049.028.074.018.049.027.075a.694.694,0,0,1,.025.081c.01.025.019.052.028.08a.816.816,0,0,1,.025.083c.009.028.017.055.025.083s.017.059.025.089.017.059.025.088a.887.887,0,0,0,.025.092l.022.094c.007.031.015.064.022.1s.015.064.022.1l.022.1c.008.034.014.067.02.1l.022.105c.005.036.012.071.019.106s.012.07.02.105l.016.108c.008.037.014.074.02.111l.016.11.017.114.016.116c.006.037.011.075.014.114l.017.119c0,.039.008.078.014.116l.011.122c.005.039.01.079.014.119l.011.122.011.125.011.122c0,.042.006.084.008.124l.011.128c0,.04.005.082.009.124l.005.128c0,.042.007.085.008.127l.006.127.006.131c0,.042,0,.085,0,.127l.006.13c0,.044,0,.088,0,.13s0,.088,0,.131v.13C38.8,28.206,38.8,28.249,38.8,28.292Z" transform="translate(0 0)"/>
        <path fill="#010101" d="M37.326,26.426l.007.078.01.119,0,.051.006.071.005.068c0,.018,0,.037,0,.056l.008.1c0,.039,0,.078.008.118l0,.036,0,.064c0,.02,0,.04,0,.059l0,.069,0,.063,0,.061.006.133,0,.067c0,.019,0,.038,0,.058l0,.1c0,.043,0,.086,0,.128s0,.086,0,.128v.1c0,.053,0,.105,0,.157V28.4c0,.053,0,.105,0,.156v.1c0,.043,0,.085,0,.127s0,.084,0,.128l0,.1c0,.019,0,.038,0,.057l0,.067,0,.13,0,.064,0,.064,0,.068c0,.02,0,.039,0,.059l-.005.1c0,.04,0,.079-.008.118l0,.038-.005.064c0,.019,0,.038,0,.057l0,.062,0,.057-.007.07-.01.12-.006.058,0,.018-.006-.076-.012-.126-.01-.116,0-.067c0-.019-.006-.086-.008-.105l0-.054c0-.039-.005-.078-.008-.118l0-.031,0-.069c0-.02,0-.039,0-.059l-.005-.068,0-.064,0-.062-.006-.132v-.067c0-.019,0-.039,0-.058l0-.1c0-.044,0-.086,0-.128s0-.084,0-.127v-.234c0-.02,0-.052,0-.072s0-.039,0-.058v-.234c0-.043,0-.085,0-.127s0-.085,0-.128l0-.1c0-.019,0-.039,0-.058v-.068l.006-.129,0-.064,0-.064.005-.067c0-.02,0-.04,0-.06l0-.1c0-.04.006-.079.008-.118l.009-.1,0-.056,0-.063.006-.061.006-.066.014-.163,0-.034m0-3.834a.2.2,0,0,0-.036,0,.184.184,0,0,0-.033,0,.151.151,0,0,0-.034.008l-.033.011-.033.011-.033.017-.031.019-.033.022-.033.025-.033.028c-.011.009-.023.019-.034.03l-.03.034q-.016.019-.033.036a.259.259,0,0,0-.031.041q-.016.02-.033.042c-.009.015-.019.029-.03.044a.346.346,0,0,0-.031.047c-.011.017-.021.033-.03.05a.34.34,0,0,0-.031.052c-.011.019-.021.038-.03.056s-.022.04-.031.058-.019.041-.03.061l-.028.064q-.014.033-.03.066c-.01.022-.019.045-.028.069s-.019.046-.028.07-.018.049-.028.074-.018.049-.027.075-.018.053-.025.081-.019.052-.028.08-.017.053-.025.08l-.025.086c-.009.029-.017.059-.025.089s-.017.059-.025.088-.015.06-.024.092l-.023.094c-.007.031-.014.064-.022.1s-.015.064-.022.1l-.022.1c-.007.034-.014.067-.02.1l-.022.105c0,.036-.012.071-.019.106s-.012.07-.019.105l-.017.108c-.007.037-.014.074-.019.111l-.017.11-.017.114-.016.116c-.006.037-.01.075-.014.114l-.017.119c0,.039-.008.078-.014.116l-.011.122c0,.039-.01.079-.014.119l-.011.122-.011.125-.011.122c0,.042-.006.084-.008.124l-.011.128c0,.04-.005.082-.008.124l-.006.128c0,.042-.006.085-.008.127l-.006.127,0,.131c0,.042,0,.085,0,.127l-.006.13c0,.044,0,.088,0,.13s0,.086,0,.131v.26c0,.044,0,.088,0,.13v.26c0,.045,0,.088,0,.131s0,.085,0,.13l.006.13c0,.042,0,.085,0,.127l0,.131.006.127c0,.042,0,.085.008.127l.006.128c0,.042.006.084.008.124l.011.128c0,.04.005.082.008.124l.011.122.011.125.011.122c0,.04.009.08.014.119l.011.122c.006.038.011.077.014.116l.017.119c0,.039.008.078.014.117l.016.113.017.114.017.11c.005.037.012.074.019.111l.017.108c.007.035.013.07.019.105s.014.072.019.106l.022.1c.006.033.013.066.02.1l.022.1c.007.034.015.066.022.1s.015.066.022.1l.023.094c.009.032.017.062.024.092s.016.059.025.088.016.059.025.089.016.055.025.083.016.057.025.083.019.054.028.081.016.054.025.08l.027.075c.01.025.019.05.028.074s.019.047.028.07.018.047.028.069.021.044.03.066.018.044.028.064.021.041.03.061.02.038.031.058.019.037.03.055a.35.35,0,0,0,.031.053c.009.017.019.033.03.05a.346.346,0,0,0,.031.047l.03.044q.016.023.033.042a.259.259,0,0,0,.031.041l.033.036.03.034c.011.011.023.021.034.03l.033.028.033.025.033.022a.2.2,0,0,0,.031.019l.033.017.033.011.033.011a.151.151,0,0,0,.034.008.184.184,0,0,0,.033,0,.2.2,0,0,0,.036,0,.184.184,0,0,0,.033,0,.184.184,0,0,0,.033,0,.13.13,0,0,0,.034-.008l.033-.011.033-.011.033-.017.031-.019.033-.022L37.623,34l.034-.028q.017-.014.033-.03a.317.317,0,0,0,.03-.034l.033-.036a.272.272,0,0,0,.031-.038l.033-.045.031-.044a.466.466,0,0,0,.03-.047l.031-.05a.454.454,0,0,0,.03-.053c.011-.018.021-.037.031-.055s.021-.04.03-.058.019-.041.03-.061.019-.041.028-.064.021-.044.031-.066.018-.045.027-.069.019-.046.028-.07.018-.049.028-.074l.027-.075a.783.783,0,0,0,.025-.078l.028-.083a.816.816,0,0,0,.025-.083c.009-.028.017-.055.025-.083s.017-.059.025-.089.017-.059.025-.088.015-.06.025-.092l.022-.094.022-.094.022-.1.022-.1c.008-.034.014-.067.02-.1l.022-.1c.005-.034.012-.069.019-.106s.012-.07.02-.105l.016-.108c.008-.037.014-.074.02-.111l.016-.11.017-.114.016-.113c.006-.039.011-.078.014-.117l.017-.119c0-.039.008-.078.014-.116l.011-.122c.005-.039.01-.079.014-.119l.011-.122.011-.125.011-.122c0-.042.006-.084.008-.124l.011-.128c0-.04.005-.082.009-.124l.005-.128c0-.042.007-.085.008-.127l.006-.127.006-.131c0-.042,0-.085,0-.127l.006-.13c0-.045,0-.088,0-.13s0-.086,0-.131v-.13c0-.042,0-.086,0-.13v-.13c0-.043,0-.086,0-.13v-.13c0-.043,0-.086,0-.131s0-.086,0-.13l-.006-.13c0-.042,0-.085,0-.127l-.006-.131-.006-.127c0-.042,0-.085-.008-.127L38.762,27c0-.042-.007-.084-.009-.124l-.011-.128c0-.04,0-.082-.008-.124l-.011-.122-.011-.125-.011-.122c0-.04-.009-.08-.014-.119l-.011-.122c-.006-.038-.01-.077-.014-.116l-.017-.119c0-.039-.008-.077-.014-.114l-.016-.116-.017-.114-.016-.11c-.006-.037-.012-.074-.02-.111l-.016-.108c-.008-.035-.014-.07-.02-.105s-.014-.07-.019-.106l-.022-.105c-.006-.033-.012-.066-.02-.1l-.022-.1c-.007-.033-.015-.066-.022-.1s-.015-.066-.022-.1l-.022-.094a.887.887,0,0,1-.025-.092c-.008-.029-.016-.059-.025-.088s-.016-.06-.025-.089-.016-.055-.025-.083a.816.816,0,0,0-.025-.083c-.009-.028-.018-.055-.028-.08a.694.694,0,0,0-.025-.081q-.014-.039-.027-.075c-.01-.025-.019-.05-.028-.074s-.018-.047-.028-.07-.018-.047-.027-.069-.02-.044-.031-.066l-.028-.064c-.011-.02-.021-.04-.03-.061s-.019-.038-.03-.058l-.031-.056a.44.44,0,0,0-.03-.052l-.031-.05a.466.466,0,0,0-.03-.047c-.011-.015-.022-.029-.031-.044s-.022-.029-.033-.042a.21.21,0,0,0-.031-.041q-.017-.017-.033-.036a.317.317,0,0,0-.03-.034q-.016-.017-.033-.03l-.034-.028-.033-.025-.033-.022-.031-.019a.233.233,0,0,0-.033-.014.233.233,0,0,0-.033-.014l-.033-.011a.13.13,0,0,0-.034-.008.184.184,0,0,0-.033,0,.184.184,0,0,0-.033,0Z" transform="translate(0 0)"/>
      </g>
      <g>
        <path fill="#010101" d="M23.481,33.127l-.122-.31-.115-.357-.079-.3-.1-.491c0-.011-.119-.726-.119-.726l-.069-.584L22.8,29.176l-.014-1.014c0-.011.018-.731.018-.731s.046-.725.048-.782l.111-.991.105-.621.043-.225.129-.523.049-.172.111-.32c.007-.013.1-.222.1-.222l.073-.141.053.095c.007.017.065.142.074.157l.093.256.083.259.1.365.123.586.037.2.116.871.078.965.027.839-.008,1.042-.047.868-.094.924s-.116.73-.118.747l-.038.207-.1.434c0,.012-.144.5-.144.5s-.085.218-.087.223l-.069.158-.074.146C23.538,33.228,23.488,33.138,23.481,33.127Z" transform="translate(0 0)"/>
        <path fill="#010101" d="M23.563,26.426l.008.078.011.125.01.116.009.1c0,.041.005.083.008.124s0,.082.008.123,0,.083.008.125l0,.1,0,.064,0,.061.006.133,0,.054,0,.046c0,.053,0,.105,0,.155l0,.072c0,.02,0,.039,0,.058v.2c0,.019,0,.038,0,.058v.272c0,.02,0,.04,0,.06v.2c0,.02,0,.04,0,.061l0,.07c0,.051,0,.1,0,.157l0,.1-.006.131,0,.063,0,.064,0,.1c0,.042-.006.083-.009.125s-.006.082-.008.123-.006.083-.008.124l-.012.137-.008.084-.01.12-.008.077-.007-.077-.011-.126-.008-.092c0-.052-.006-.1-.011-.148l0-.068c0-.022,0-.043,0-.065l0-.06c0-.019,0-.039,0-.059L23.5,29.5l0-.1c0-.02,0-.04,0-.06l0-.065-.005-.105c0-.051,0-.1,0-.153l0-.1c0-.043,0-.084,0-.125v-.1c0-.02,0-.04,0-.06l0-.07v-.39l0-.07c0-.02,0-.04,0-.06v-.1c0-.041,0-.082,0-.125l0-.1c0-.052,0-.1,0-.155l.005-.1,0-.068c0-.02,0-.04,0-.06l0-.063,0-.064.005-.068c0-.02,0-.04,0-.06l0-.059c0-.022,0-.043,0-.065l0-.062c.006-.062.01-.125.012-.171l.008-.081.01-.119.006-.058v-.02m0-3.834a.184.184,0,0,0-.033,0,.2.2,0,0,0-.034,0,.132.132,0,0,0-.033.008l-.033.011-.033.011-.034.017a.279.279,0,0,1-.033.019l-.033.022-.033.025-.033.028a.177.177,0,0,0-.031.03l-.033.034q-.016.019-.033.036l-.031.041q-.016.02-.033.042c-.009.015-.02.029-.031.044s-.019.031-.03.047l-.031.05a.44.44,0,0,0-.03.052c-.011.019-.021.038-.03.056s-.02.04-.031.058l-.028.061c-.011.022-.021.043-.03.064l-.028.066a.717.717,0,0,0-.03.069c-.009.023-.019.046-.028.07s-.018.049-.028.074-.017.049-.025.075-.018.053-.027.081-.019.052-.028.08-.016.053-.025.08-.016.058-.025.086-.017.059-.025.089-.015.059-.025.088-.014.06-.022.092-.017.063-.025.094-.015.064-.022.1-.015.064-.022.1l-.022.1c-.006.034-.012.067-.02.1s-.013.07-.019.105L22.363,25l-.017.105c-.007.037-.014.073-.019.108s-.012.074-.02.111l-.016.11-.017.114-.016.116c0,.037-.009.075-.014.114s-.01.078-.014.119-.01.078-.014.116-.01.082-.014.122-.008.079-.014.119l-.011.122-.011.125-.011.122c0,.042,0,.084-.008.124s-.007.085-.008.128-.007.082-.009.124-.006.085-.008.128l-.006.127c0,.043-.006.085-.008.127l0,.131c0,.042,0,.085,0,.127l-.006.13c0,.044,0,.088,0,.13v.131c0,.042,0,.085,0,.13v.39c0,.045,0,.088,0,.13v.131c0,.042,0,.085,0,.13l.006.13c0,.042,0,.085,0,.127l0,.131c0,.042,0,.085.008.127l.006.127c0,.043,0,.085.008.128s.005.084.009.124,0,.085.008.128.006.082.008.124l.011.122.011.125.011.122c.006.04.011.08.014.119s.009.081.014.122.008.077.014.116.008.08.014.119.01.078.014.117l.016.113.017.114.016.11c.008.037.014.074.02.111s.012.071.019.108l.017.105c.007.037.015.072.022.106s.012.07.019.1.014.066.02.1l.022.1c.007.034.015.066.022.1s.015.066.022.1.016.063.025.094.015.062.022.092.018.059.025.088.016.059.025.089.018.055.025.083.018.057.025.083.019.054.028.081l.027.08c.008.026.016.051.025.075s.019.05.028.074.019.047.028.07a.717.717,0,0,0,.03.069l.028.066a.54.54,0,0,0,.03.064l.028.061c.011.018.021.038.031.058s.019.037.03.055a.454.454,0,0,0,.03.053l.031.05.03.047.031.044q.016.023.033.042l.031.041.033.036.033.034a.177.177,0,0,0,.031.03l.033.028.033.025.033.022a.279.279,0,0,0,.033.019l.034.017.033.011.033.011a.132.132,0,0,0,.033.008.2.2,0,0,0,.034,0,.547.547,0,0,0,.1,0,.151.151,0,0,0,.034-.008L23.7,34.1l.033-.011.033-.017.034-.019.033-.022a.248.248,0,0,0,.03-.025l.033-.028a.317.317,0,0,0,.034-.03l.033-.034q.014-.018.03-.036l.034-.038q.014-.023.03-.045a.261.261,0,0,0,.031-.044l.033-.047c.009-.017.019-.033.03-.05s.02-.034.031-.053.019-.037.03-.055.019-.04.028-.058.021-.041.03-.061l.031-.064.027-.066c.01-.022.019-.045.028-.069s.019-.046.028-.07.018-.049.028-.074l.027-.075.028-.078c.007-.027.016-.055.025-.083s.017-.053.025-.083l.028-.083.022-.089c.009-.029.017-.059.025-.088s.017-.06.025-.092l.022-.094.022-.094.022-.1.022-.1.022-.1c.006-.035.012-.07.02-.1s.014-.069.019-.106.014-.07.019-.105.012-.073.02-.108l.016-.111.017-.11.017-.114.016-.113.017-.117c0-.039.008-.079.014-.119s.008-.078.014-.116.008-.082.013-.122l.012-.119.011-.122.011-.125.011-.122.011-.124c0-.043,0-.085.008-.128s0-.082.009-.124,0-.085.008-.128l.005-.127.006-.127.005-.131.006-.127c0-.045,0-.088,0-.13s0-.088,0-.13,0-.086,0-.131v-.13c0-.042,0-.086,0-.13v-.13c0-.043,0-.086,0-.13v-.13c0-.043,0-.086,0-.131s0-.086,0-.13,0-.086,0-.13l-.006-.127-.005-.131-.006-.127-.005-.127C25,27.086,25,27.044,25,27s-.007-.084-.009-.124-.006-.085-.008-.128l-.011-.124-.011-.122-.011-.125-.011-.122-.012-.119c0-.04-.01-.081-.013-.122s-.011-.077-.014-.116-.01-.08-.014-.119l-.017-.114-.016-.116-.017-.114-.017-.11-.016-.111c-.008-.035-.014-.071-.02-.108s-.012-.07-.019-.105-.012-.07-.019-.106-.014-.07-.02-.105l-.022-.1-.022-.1c-.007-.033-.015-.066-.022-.1s-.015-.066-.022-.1l-.022-.094c-.008-.03-.016-.06-.025-.092s-.016-.059-.025-.088l-.022-.089-.028-.083c-.008-.03-.016-.057-.025-.083s-.018-.055-.025-.08-.018-.055-.028-.081-.018-.051-.027-.075-.019-.05-.028-.074-.019-.047-.028-.07-.018-.047-.028-.069l-.027-.066c-.011-.021-.021-.042-.031-.064s-.019-.04-.03-.061-.019-.038-.028-.058a.6.6,0,0,1-.03-.056l-.031-.052c-.011-.017-.021-.033-.03-.05l-.033-.047-.031-.044-.03-.042a.494.494,0,0,0-.034-.041.26.26,0,0,1-.03-.036l-.033-.034a.317.317,0,0,0-.034-.03l-.033-.028a.248.248,0,0,0-.03-.025l-.033-.022a.227.227,0,0,1-.034-.019,918768116246.966,918768116246.966,0,0,0-.066-.028l-.033-.011a.151.151,0,0,0-.034-.008,3386581372131.405,3386581372131.405,0,0,1-.066-.006Z" transform="translate(0 0)"/>
      </g>
      <g>
        <polygon fill="#010101" points="27.813 52.587 33.165 52.587 30.489 54.316 27.813 52.587"/>
        <path fill="#010101" d="M30.818,53.279l-.329.213-.329-.213h.658m4.695-1.385H25.465l5.024,3.246,5.024-3.246Z" transform="translate(0 0)"/>
      </g>
    </g>
    <g>
      <path fill="#231f20" d="M7.916,6.585a12.325,12.325,0,0,1,2.147-.168,3.827,3.827,0,0,1,2.314.516,1.705,1.705,0,0,1,.84,1.511A1.878,1.878,0,0,1,11.874,10.2v.024a2.04,2.04,0,0,1,1.631,2,2.1,2.1,0,0,1-.78,1.668,4.5,4.5,0,0,1-3,.755,14.3,14.3,0,0,1-1.811-.108ZM9.379,9.776h.756c1.019,0,1.6-.48,1.6-1.164,0-.755-.576-1.1-1.511-1.1a4.015,4.015,0,0,0-.84.06Zm0,3.718a6.52,6.52,0,0,0,.78.036c.947,0,1.787-.36,1.787-1.356,0-.935-.816-1.319-1.835-1.319H9.379Z" transform="translate(0 0)"/>
      <path fill="#231f20" d="M22,10.436c0,2.71-1.643,4.257-3.875,4.257-2.278,0-3.717-1.739-3.717-4.114,0-2.482,1.559-4.233,3.838-4.233C20.609,6.346,22,8.133,22,10.436Zm-6.033.119c0,1.643.827,2.951,2.242,2.951s2.232-1.319,2.232-3.011c0-1.523-.756-2.962-2.232-2.962S15.967,8.888,15.967,10.555Z" transform="translate(0 0)"/>
      <path fill="#231f20" d="M30.1,11.263c-.048-1.044-.108-2.3-.1-3.394h-.036c-.263.983-.6,2.074-.96,3.094l-1.175,3.5H26.694l-1.079-3.454c-.313-1.032-.6-2.135-.816-3.142h-.024c-.036,1.055-.084,2.339-.144,3.442l-.179,3.25h-1.38l.54-8.083h1.942l1.056,3.25c.288.947.54,1.907.744,2.806h.035c.216-.875.492-1.871.8-2.818l1.115-3.238h1.919l.467,8.083H30.256Z" transform="translate(0 0)"/>
      <path fill="#231f20" d="M33.2,6.585a12.334,12.334,0,0,1,2.147-.168,3.83,3.83,0,0,1,2.315.516A1.707,1.707,0,0,1,38.5,8.444,1.88,1.88,0,0,1,37.157,10.2v.024a2.039,2.039,0,0,1,1.631,2,2.1,2.1,0,0,1-.779,1.668,4.5,4.5,0,0,1-3,.755,14.283,14.283,0,0,1-1.811-.108Zm1.463,3.191h.756c1.02,0,1.595-.48,1.595-1.164,0-.755-.575-1.1-1.511-1.1a4.015,4.015,0,0,0-.84.06Zm0,3.718a6.52,6.52,0,0,0,.78.036c.948,0,1.787-.36,1.787-1.356,0-.935-.816-1.319-1.835-1.319h-.732Z" transform="translate(0 0)"/>
      <path fill="#231f20" d="M44.633,10.975H41.587V13.35h3.4v1.211H40.111V6.478h4.7V7.689H41.587V9.776h3.046Z" transform="translate(0 0)"/>
      <path fill="#231f20" d="M46.291,6.585a13.993,13.993,0,0,1,2.23-.168,3.746,3.746,0,0,1,2.5.648,2.047,2.047,0,0,1,.7,1.619,2.154,2.154,0,0,1-1.463,2.027v.036a2.06,2.06,0,0,1,1.127,1.559,16.163,16.163,0,0,0,.636,2.255H50.488a11.545,11.545,0,0,1-.539-1.907c-.228-1.055-.612-1.391-1.451-1.415h-.744v3.322H46.291Zm1.463,3.575h.876c.995,0,1.619-.528,1.619-1.332,0-.888-.624-1.295-1.583-1.295a4.245,4.245,0,0,0-.912.072Z" transform="translate(0 0)"/>
    </g>
  </g>
</svg>