<svg width="60" height="60" xmlns="http://www.w3.org/2000/svg" viewBox="0 0 60 60">
  <rect fill="#d1e8c6" height="60" width="60"/>
  <g>
    <g>
      <g>
        <polygon fill="#010101" points="30.519 34.481 48.425 35.378 48.501 37.816 30.413 42.151 30.519 34.481"/>
        <path fill="#010101" d="M31.154,35.157l16.646.835.041,1.32L31.069,41.331l.085-6.174M29.884,33.8l-.126,9.166,19.4-4.65-.111-3.555L29.884,33.8Z" transform="translate(0 0)"/>
      </g>
      <g>
        <polygon fill="#010101" points="11.5 37.816 11.578 35.378 29.481 34.481 29.59 42.151 11.5 37.816"/>
        <path fill="#010101" d="M28.847,35.157l.087,6.174L12.16,37.312l.042-1.32,16.645-.835M30.116,33.8l-19.163.961-.114,3.555,19.406,4.65L30.116,33.8Z" transform="translate(0 0)"/>
      </g>
      <g>
        <path fill="#010101" d="M30.01,40.235l-.1-.4-.139-.759-.091-.647-.087-.8-.042-.492c0-.008-.078-1.39-.078-1.39l-.029-1.316.008-1.18.079-1.758.062-.768.087-.8.171-1.119.089-.426.114-.435.051-.163.1.32.093.387.144.786.123.911.1,1.006c0,.008.043.591.043.591,0,.065.059,1.479.059,1.479l.01,1-.031,1.48-.013.333-.1,1.518-.058.575-.089.689-.115.691-.088.426-.068.28-.1.321Z" transform="translate(0 0)"/>
        <path fill="#010101" d="M30.109,32.977l0,.061,0,.081,0,.129c0,.07,0,.139,0,.206l0,.131c0,.068,0,.136,0,.168v.17c0,.067,0,.136,0,.167v.129c0,.069,0,.139,0,.208v.129c0,.07,0,.139,0,.209l0,.128c0,.07,0,.139,0,.168l0,.166,0,.146,0-.146,0-.127c0-.068,0-.137,0-.168,0-.07,0-.139,0-.167,0-.07,0-.139,0-.17v-.378c0-.029,0-.058,0-.127v-.3c0-.07,0-.138,0-.167,0-.07,0-.139,0-.169,0-.068,0-.137,0-.167l0-.168,0-.143m0-6.273a.155.155,0,0,0-.031,0l-.028,0-.031.01-.029.013-.031.018a.339.339,0,0,0-.028.021.215.215,0,0,0-.028.023.373.373,0,0,1-.031.028l-.029.034a.439.439,0,0,1-.028.036.276.276,0,0,0-.028.039.279.279,0,0,0-.029.044c-.01.015-.019.03-.028.046s-.02.034-.028.051-.02.036-.029.054-.018.039-.028.06l-.028.062c-.009.02-.017.042-.026.064s-.018.045-.028.067l-.026.072-.026.077-.026.078-.025.082c-.009.028-.018.056-.026.085s-.017.059-.026.09-.017.06-.026.093-.014.062-.023.093-.016.066-.023.1-.017.066-.026.1-.014.069-.023.105l-.021.106c-.008.036-.016.073-.023.111s-.014.075-.023.113-.014.076-.021.116l-.02.118-.021.122-.02.123q-.011.064-.018.126l-.021.129q-.008.067-.018.132c0,.044-.011.09-.018.136s-.011.089-.018.134l-.016.139c0,.047-.011.094-.018.142L29,30.246l-.016.145q-.008.072-.012.147l-.016.146c0,.052-.008.1-.013.152s-.009.1-.013.152-.007.1-.013.152l-.01.158c-.005.051-.009.1-.013.154l-.01.16-.01.157c0,.053,0,.107-.008.162s-.006.107-.008.16-.006.109-.007.162-.007.11-.008.165-.006.11-.008.165l0,.165,0,.167,0,.165-.006.168c0,.056,0,.112,0,.167s0,.113,0,.17,0,.111,0,.168v.337c0,.057,0,.113,0,.167V34.6c0,.057,0,.113,0,.17s0,.111,0,.167,0,.113,0,.168l.006.167,0,.168,0,.165,0,.167c0,.053,0,.107.008.162s0,.11.008.165,0,.109.007.162,0,.108.008.163.006.106.008.159l.01.16.01.157c0,.054.008.106.013.158l.01.154c.006.051.01.1.013.155s.008.1.013.152.01.1.013.149l.016.147q0,.075.012.147c.006.049.011.1.016.144l.015.144c.007.047.013.093.018.139l.016.139c.007.047.013.092.018.137s.013.089.018.134.013.088.018.131l.021.129q.008.064.018.126l.02.124.021.121c.007.041.014.081.02.119l.021.115c.009.04.016.078.023.114s.015.075.023.111l.021.108c.009.034.016.068.023.1l.026.1c.007.033.015.065.023.1s.016.064.023.095l.026.093.026.087c.008.03.017.058.026.085l.025.083c.009.027.018.054.026.08s.017.05.026.074l.026.072.028.067.026.067c.01.021.019.042.028.062s.018.038.028.057a.463.463,0,0,0,.029.054c.008.017.018.034.028.052l.028.046a.417.417,0,0,0,.029.044.337.337,0,0,0,.028.038.214.214,0,0,0,.028.036l.029.034a.27.27,0,0,0,.031.028.358.358,0,0,0,.028.026l.028.021.031.015.029.016.031.007a.064.064,0,0,0,.028.005.155.155,0,0,0,.031,0l.028,0a.064.064,0,0,0,.028-.005l.031-.007.029-.016.031-.015.028-.021a.358.358,0,0,0,.028-.026.27.27,0,0,0,.031-.028l.029-.034a.214.214,0,0,0,.028-.036.337.337,0,0,0,.028-.038.417.417,0,0,0,.029-.044l.028-.046c.01-.018.02-.035.028-.052a.463.463,0,0,0,.029-.054c.01-.019.019-.038.028-.057s.018-.041.028-.062l.026-.067.028-.067.026-.072c.009-.024.017-.049.026-.074s.017-.053.026-.08l.025-.083c.009-.027.018-.055.026-.085l.026-.087.026-.093c.007-.031.014-.063.023-.095s.016-.065.023-.1l.026-.1c.007-.035.014-.069.023-.1l.021-.108c.008-.036.016-.073.023-.111s.014-.074.023-.114l.021-.115c.006-.038.013-.078.02-.119l.021-.121.02-.124q.01-.061.018-.126l.021-.129c.005-.043.011-.087.018-.131s.013-.089.018-.134.011-.09.018-.137l.016-.139.018-.139.015-.144c0-.046.01-.095.016-.144s.009-.1.012-.147l.016-.147c0-.05.009-.1.013-.149s.009-.1.013-.152.009-.1.012-.155l.011-.154c0-.052.009-.1.013-.158l.01-.157.01-.16c0-.053,0-.106.008-.159s.006-.109.008-.163l.01-.162,0-.165c0-.055.006-.109.008-.162l0-.167.005-.165,0-.168.006-.167c0-.055,0-.111,0-.168s0-.112,0-.167,0-.113,0-.17v-.168c0-.056,0-.113,0-.17V34.09c0-.057,0-.113,0-.167v-.17c0-.057,0-.113,0-.168s0-.113,0-.17,0-.111,0-.167L31.4,33.08l0-.165-.005-.167,0-.165c0-.055,0-.11-.008-.165l0-.162-.01-.165c0-.053,0-.107-.008-.16s-.006-.109-.008-.162l-.01-.157-.01-.16c0-.051-.008-.1-.013-.154L31.3,31.14c0-.051-.007-.1-.012-.152s-.008-.1-.013-.152-.008-.1-.013-.149l-.016-.149q0-.075-.012-.147l-.016-.145-.015-.141-.018-.142-.016-.139c-.007-.045-.013-.089-.018-.134s-.011-.091-.018-.134-.013-.088-.018-.131l-.021-.132q-.008-.062-.018-.126l-.02-.123-.021-.122-.02-.118c-.007-.04-.014-.078-.021-.116s-.016-.075-.023-.113-.015-.075-.023-.111l-.021-.106c-.009-.036-.016-.071-.023-.105s-.017-.068-.026-.1-.015-.067-.023-.1-.016-.064-.023-.095-.018-.063-.026-.093-.017-.061-.026-.09l-.026-.085-.025-.082-.026-.078-.026-.077-.026-.072c-.01-.022-.019-.045-.028-.067s-.017-.044-.026-.064l-.028-.062c-.009-.021-.018-.041-.028-.06s-.018-.036-.029-.054-.018-.034-.028-.051-.018-.031-.028-.046a.279.279,0,0,0-.029-.044A.276.276,0,0,0,30.4,26.9l-.028-.036-.029-.034a.373.373,0,0,1-.031-.028.215.215,0,0,0-.028-.023.339.339,0,0,0-.028-.021l-.031-.018-.029-.013-.031-.01-.028,0-.028,0Z" transform="translate(0 0)"/>
      </g>
      <g>
        <rect fill="#010101" x="24.005" width="12.211" height="2.072" y="53.077"/>
        <path fill="#010101" d="M35.572,53.722v.783H24.65v-.783H35.572m1.288-1.288h-13.5v3.359h13.5V52.434Z" transform="translate(0 0)"/>
      </g>
      <g>
        <rect fill="#010101" x="29.474" width="1.32" height="13.727" y="40.671"/>
        <path fill="#010101" d="M30.149,41.315V53.753h-.031V41.315h.031m1.288-1.29-2.607,0V55.041h2.607V40.025Z" transform="translate(0 0)"/>
      </g>
    </g>
    <g>
      <path d="M12.538,15.662a8.33,8.33,0,0,1,1.858-.183,3.3,3.3,0,0,1,2.25.66,2.166,2.166,0,0,1,.672,1.675,2.188,2.188,0,0,1-1.4,2.075v.044a2.281,2.281,0,0,1,1.706,2.324,2.647,2.647,0,0,1-.683,1.862,3.643,3.643,0,0,1-2.831.91,10.155,10.155,0,0,1-1.569-.1Zm1.487,3.8h.441a1.4,1.4,0,0,0,1.377-1.478,1.2,1.2,0,0,0-1.291-1.37,1.742,1.742,0,0,0-.527.061Zm0,4.365a2.262,2.262,0,0,0,.471.04,1.477,1.477,0,0,0,1.577-1.623,1.552,1.552,0,0,0-1.617-1.661h-.431Z" transform="translate(0 0)"/>
      <path d="M23.435,21.537c0,2.751-1.417,3.538-2.455,3.538-1.446,0-2.433-1.21-2.433-3.506,0-2.464,1.21-3.538,2.484-3.538C22.462,18.031,23.435,19.289,23.435,21.537Zm-3.4.007c0,1.149.194,2.376.99,2.376.744,0,.914-1.346.914-2.376,0-.988-.17-2.359-.942-2.359C20.2,19.185,20.039,20.556,20.039,21.544Z" transform="translate(0 0)"/>
      <path d="M24.553,20.065c0-.771-.034-1.318-.057-1.922h1.3l.076.815H25.9a1.848,1.848,0,0,1,1.585-.927,1.441,1.441,0,0,1,1.46.981h.029a2.177,2.177,0,0,1,.684-.73,1.805,1.805,0,0,1,.948-.251c1.087,0,1.708.835,1.708,2.518v4.413H30.83v-4.13c0-.826-.106-1.557-.775-1.557-.381,0-.691.293-.826.8a2.389,2.389,0,0,0-.05.543v4.346H27.691V20.6c0-.609-.087-1.324-.761-1.324-.356,0-.7.283-.83.835a2.319,2.319,0,0,0-.061.544v4.308H24.553Z" transform="translate(0 0)"/>
      <path d="M33.632,24.962c.021-.506.056-1.283.056-1.842V15.269h1.487v3.617H35.2a1.564,1.564,0,0,1,1.429-.855c1.207,0,1.9,1.374,1.9,3.386,0,2.423-.978,3.658-2.154,3.658a1.423,1.423,0,0,1-1.345-.955h-.04l-.088.842Zm1.543-2.424a1.448,1.448,0,0,0,.06.429c.2.719.545.873.8.873.728,0,1.008-.95,1.008-2.319,0-1.264-.294-2.225-1.02-2.225-.383,0-.7.445-.794.892a2.164,2.164,0,0,0-.054.442Z" transform="translate(0 0)"/>
      <path d="M40.833,21.955c.016,1.523.724,1.937,1.52,1.937a3.119,3.119,0,0,0,1.223-.242l.212,1.076a4.338,4.338,0,0,1-1.707.32c-1.758,0-2.7-1.275-2.7-3.385,0-2.257,1.081-3.63,2.537-3.63,1.435,0,2.157,1.3,2.157,3.125a5.823,5.823,0,0,1-.04.8Zm1.855-1.065c.012-1.095-.347-1.745-.877-1.745-.649,0-.942.945-.972,1.745Z" transform="translate(0 0)"/>
      <path d="M45.153,20.065c0-.632-.034-1.342-.055-1.922h1.307l.076,1.029h.044a1.616,1.616,0,0,1,1.385-1.141,1.657,1.657,0,0,1,.318.024v1.5a2.028,2.028,0,0,0-.32-.015,1.333,1.333,0,0,0-1.2,1.171,3.025,3.025,0,0,0-.063.653v3.6h-1.5Z" transform="translate(0 0)"/>
    </g>
    <g>
      <path d="M20.259,3.777a6.837,6.837,0,0,1,1.677-.183,3.427,3.427,0,0,1,2.439.782c.774.686,1.247,1.922,1.247,3.815,0,2.023-.507,3.3-1.229,3.993a3.669,3.669,0,0,1-2.759.96,9.219,9.219,0,0,1-1.375-.1Zm1.487,8.1a1.677,1.677,0,0,0,.366.029c1.023,0,1.963-.863,1.963-3.74,0-2.136-.605-3.372-1.9-3.372a1.636,1.636,0,0,0-.429.048Z" transform="translate(0 0)"/>
      <path d="M28.334,3.636v9.442h-1.5V3.636Z" transform="translate(0 0)"/>
      <path d="M31.414,13.078,29.285,3.636h1.637l.783,4.237c.189,1.037.421,2.282.564,3.431h.04c.129-1.163.333-2.377.527-3.468l.762-4.2H35.22l-2.173,9.442Z" transform="translate(0 0)"/>
      <path d="M39.876,8.776H37.63v3h2.546v1.3H36.134V3.636H40.01v1.3H37.63V7.526h2.246Z" transform="translate(0 0)"/>
    </g>
  </g>
</svg>