<!-- Generator: Adobe Illustrator 25.2.3, SVG Export Plug-In . SVG Version: 6.00 Build 0)  --><svg x="0px" enable-background="new 0 0 60 60" y="0px" width="60px" xmlns:xlink="http://www.w3.org/1999/xlink" viewBox="0 0 60 60" height="60px" id="Layer_1" xmlns="http://www.w3.org/2000/svg" xml:space="preserve" version="1.1">
<rect width="60" fill="#D1E8C5" x="0" height="60" id="UnitColor" y="-0.085"/>
<rect width="60" fill="#F7EC13" height="20.189" id="CS_2_" y="11.533" display="none"/>
<g id="Gar" display="none">
	<rect width="14.843" fill="none" x="0.73" height="8.039" y="2.802" display="inline"/>
	<path d="M11.03,10.06c-0.472,0.163-1.361,0.379-2.249,0.379c-1.231,0-2.119-0.308-2.739-0.903   C5.424,8.949,5.085,8.072,5.089,7.083C5.097,4.842,6.73,3.567,8.936,3.567c0.87,0,1.539,0.165,1.873,0.323L10.49,5.111   C10.117,4.95,9.664,4.825,8.922,4.825c-1.27,0-2.235,0.714-2.235,2.18c0,1.391,0.878,2.205,2.125,2.205   c0.344,0,0.623-0.04,0.745-0.095V7.699H8.516V6.512h2.514V10.06z" display="inline"/>
</g>
<g id="Eng" display="none">
	<rect width="27.832" fill="none" x="1.1" height="8.039" y="2.802" display="inline"/>
	<path d="M17.011,7.521h-2.479v1.602h2.771v1.248h-4.294V3.634h4.15v1.248h-2.626v1.403h2.479V7.521z" display="inline"/>
</g>
<g id="P2" display="none">
	<path d="M19.024,28.186c0.472-1.148,0.803-2.149,0.992-3.001c0.282-1.24,0.423-2.417,0.423-3.534   c0-1.066-0.099-2.078-0.295-3.035c-0.197-0.957-0.575-2.146-1.135-3.568h1.146c0.628,1.03,1.101,2.092,1.419,3.186   c0.319,1.094,0.478,2.185,0.478,3.274c0,1.094-0.159,2.218-0.476,3.374s-0.786,2.257-1.407,3.305H19.024z" display="inline"/>
</g>
<g id="P1" display="none">
	<path d="M8.327,28.186H7.182c-0.605-1.025-1.071-2.111-1.396-3.257s-0.487-2.257-0.487-3.333   c0-1.162,0.163-2.296,0.489-3.401c0.326-1.105,0.795-2.154,1.408-3.148h1.146c-0.56,1.422-0.938,2.611-1.135,3.568   c-0.197,0.957-0.295,1.969-0.295,3.035c0,1.103,0.139,2.27,0.416,3.5C7.522,26.016,7.855,27.028,8.327,28.186z" display="inline"/>
</g>
<g id="Type">
	<path d="M53.265,12.893v17.022H26.785V12.893H53.265z M28.204,15.139v12.53l10.443-6.265L28.204,15.139z M50.468,14.312H29.583   l10.443,6.265L50.468,14.312z M29.583,28.497h20.885l-10.442-6.265L29.583,28.497z M41.404,21.404l10.441,6.265v-12.53   L41.404,21.404z"/>
</g>
<g id="STK">
	<path d="M18.101,21.68c0,3.77-1.473,6.13-4.277,6.13c-2.693,0-4.128-2.456-4.151-6.017c0-3.641,1.549-6.083,4.283-6.083   C16.786,15.71,18.101,18.237,18.101,21.68z M11.897,21.789c-0.006,2.854,0.775,4.33,1.998,4.33c1.313,0,1.982-1.585,1.982-4.389   c0-2.727-0.641-4.323-1.98-4.323C12.723,17.407,11.894,18.863,11.897,21.789z"/>
</g>
<g id="ECH">
	<rect width="27.832" x="26.078" fill="none" height="8.039" y="2.802"/>
	<path d="M40.755,3.634v6.736h-1.523V3.634H40.755z"/>
</g>
<g id="PF">
	<rect width="60" x="0" fill="none" height="15.475" y="44.525"/>
	<path d="M29.696,52.494v0.939H27.71v-0.939H29.696z"/>
	<path d="M32.285,52.494v0.939H30.3v-0.939H32.285z"/>
</g>
<g id="Des">
	<rect width="60" x="0" fill="none" height="14.525" y="31.722"/>
	<path d="M7.838,35.361H7.802l-1.967,1.065l-0.342-1.503l2.587-1.415h1.652v11.703H7.838V35.361z"/>
	<path d="M12.67,43.307c0.419,0.25,1.064,0.474,1.718,0.474c1.178,0,1.892-0.788,1.892-1.981c0-1.407-0.987-2.106-2.272-2.116   h-0.324v-1.42h0.247c0.851-0.01,2.033-0.495,2.033-1.765c0-0.997-0.571-1.548-1.441-1.548c-0.551,0-1.065,0.229-1.469,0.5   l-0.309-1.445c0.458-0.329,1.337-0.641,2.268-0.641c1.875,0,2.871,1.263,2.871,2.765c0,1.17-0.635,2.169-1.711,2.676v0.036   c1.093,0.347,2.027,1.321,2.027,3.02c0,1.84-1.306,3.496-3.663,3.496c-0.863,0-1.694-0.227-2.186-0.528L12.67,43.307z"/>
	<path d="M19.07,45.933l4.065-13h1.312l-4.065,13H19.07z"/>
	<path d="M25.332,33.257c0.65-0.154,1.48-0.234,2.389-0.234c1.111,0,2.144,0.186,2.892,0.849c0.594,0.521,0.864,1.298,0.864,2.152   c0,1.147-0.613,2.164-1.804,2.667v0.057c1.404,0.392,2.192,1.538,2.192,2.987c0,1.001-0.324,1.799-0.877,2.393   c-0.708,0.784-1.893,1.17-3.639,1.17c-0.893,0-1.553-0.055-2.018-0.129V33.257z M27.244,38.14h0.567c0.979,0,1.77-0.788,1.77-1.9   c0-0.994-0.463-1.762-1.659-1.762c-0.289,0-0.518,0.025-0.677,0.08V38.14z M27.244,43.749c0.16,0.036,0.358,0.052,0.605,0.052   c1.175,0,2.027-0.704,2.027-2.087c0-1.422-0.979-2.127-2.079-2.135h-0.554V43.749z"/>
	<path d="M39.278,32.752v10.091c0,0.719,0.044,1.696,0.072,2.369h-1.649l-0.113-1.04h-0.052c-0.304,0.623-0.972,1.185-1.829,1.185   c-1.695,0-2.648-1.86-2.648-4.502c0-3.076,1.322-4.552,2.739-4.552c0.722,0,1.252,0.347,1.533,0.952h0.036v-4.503H39.278z    M37.367,39.798c0-0.168,0-0.363-0.028-0.541c-0.082-0.704-0.478-1.327-1.044-1.327c-0.972,0-1.319,1.383-1.319,2.95   c0,1.75,0.466,2.891,1.272,2.891c0.361,0,0.81-0.188,1.052-1.087c0.047-0.149,0.067-0.345,0.067-0.563V39.798z"/>
	<path d="M40.969,45.212c0.028-0.652,0.072-1.65,0.072-2.369V32.752h1.911v4.649h0.036c0.438-0.742,1.037-1.099,1.836-1.099   c1.553,0,2.446,1.765,2.446,4.353c0,3.115-1.259,4.701-2.77,4.701c-0.818,0-1.312-0.408-1.729-1.228h-0.052l-0.112,1.083H40.969z    M42.952,42.095c0,0.211,0.03,0.411,0.077,0.553c0.253,0.924,0.701,1.123,1.028,1.123c0.936,0,1.296-1.223,1.296-2.982   c0-1.624-0.379-2.858-1.312-2.858c-0.492,0-0.902,0.57-1.021,1.146c-0.039,0.164-0.069,0.394-0.069,0.568V42.095z"/>
	<path d="M54.68,36.446c-0.038,0.714-0.082,1.572-0.082,2.757v4.956c0,2.078-0.323,3.036-0.974,3.702   c-0.594,0.607-1.473,0.952-2.616,0.952c-0.784,0-1.52-0.157-2.074-0.422l0.386-1.489c0.4,0.193,0.964,0.376,1.656,0.376   c1.146,0,1.711-0.743,1.711-2.374v-0.688H52.65c-0.299,0.612-0.926,0.955-1.618,0.955c-1.78,0-2.664-1.968-2.664-4.28   c0-3.057,1.387-4.588,2.867-4.588c0.796,0,1.312,0.479,1.62,1.078h0.036l0.098-0.935H54.68z M52.687,39.565   c0-0.227-0.031-0.463-0.085-0.641c-0.129-0.475-0.407-0.995-0.982-0.995c-0.914,0-1.345,1.24-1.345,2.899   c0,1.906,0.57,2.817,1.321,2.817c0.361,0,0.769-0.175,0.987-0.913c0.083-0.232,0.104-0.492,0.104-0.734V39.565z"/>
</g>
<g>
</g>
<g>
</g>
<g>
</g>
<g>
</g>
<g>
</g>
<g>
</g>
</svg>