<!-- Generator: Adobe Illustrator 25.2.3, SVG Export Plug-In . SVG Version: 6.00 Build 0)  --><svg x="0px" enable-background="new 0 0 60 60" y="0px" width="60px" xmlns:xlink="http://www.w3.org/1999/xlink" viewBox="0 0 60 60" height="60px" id="Layer_1" xmlns="http://www.w3.org/2000/svg" xml:space="preserve" version="1.1">
<rect width="60" fill="#D1E8C5" x="0" height="60" id="UnitColor" y="-0.085"/>
<rect width="60" fill="#F7EC13" height="20.189" id="CS_2_" y="11.533" display="none"/>
<g id="Gar" display="none">
	<rect width="14.843" fill="none" x="0.73" height="8.039" y="2.802" display="inline"/>
	<path d="M11.03,10.06c-0.472,0.163-1.361,0.379-2.249,0.379c-1.231,0-2.119-0.308-2.739-0.903   C5.424,8.949,5.085,8.072,5.089,7.083C5.097,4.842,6.73,3.567,8.936,3.567c0.87,0,1.539,0.165,1.873,0.323L10.49,5.111   C10.117,4.95,9.664,4.825,8.922,4.825c-1.27,0-2.235,0.714-2.235,2.18c0,1.391,0.878,2.205,2.125,2.205   c0.344,0,0.623-0.04,0.745-0.095V7.699H8.516V6.512h2.514V10.06z" display="inline"/>
</g>
<g id="Eng" display="none">
	<rect width="27.832" fill="none" x="1.1" height="8.039" y="2.802" display="inline"/>
	<path d="M17.011,7.521h-2.479v1.602h2.771v1.248h-4.294V3.634h4.15v1.248h-2.626v1.403h2.479V7.521z" display="inline"/>
</g>
<g id="P2" display="none">
	<path d="M19.024,28.186c0.472-1.148,0.803-2.149,0.992-3.001c0.282-1.24,0.423-2.417,0.423-3.534   c0-1.066-0.099-2.078-0.295-3.035c-0.197-0.957-0.575-2.146-1.135-3.568h1.146c0.628,1.03,1.101,2.092,1.419,3.186   c0.319,1.094,0.478,2.185,0.478,3.274c0,1.094-0.159,2.218-0.476,3.374s-0.786,2.257-1.407,3.305H19.024z" display="inline"/>
</g>
<g id="P1" display="none">
	<path d="M8.327,28.186H7.182c-0.605-1.025-1.071-2.111-1.396-3.257s-0.487-2.257-0.487-3.333   c0-1.162,0.163-2.296,0.489-3.401c0.326-1.105,0.795-2.154,1.408-3.148h1.146c-0.56,1.422-0.938,2.611-1.135,3.568   c-0.197,0.957-0.295,1.969-0.295,3.035c0,1.103,0.139,2.27,0.416,3.5C7.522,26.016,7.855,27.028,8.327,28.186z" display="inline"/>
</g>
<g id="Type">
	<path d="M53.265,12.893v17.022H26.785V12.893H53.265z M51.846,14.312H28.204v14.185h23.642V14.312z M33.251,25.981h-1.328v-9.155   h16.216v1.329h-0.022v7.826h-1.328v-7.826H40.69v7.826h-1.33v-7.826h-6.109V25.981z"/>
</g>
<g id="STK">
	<path d="M18.101,21.68c0,3.77-1.473,6.13-4.277,6.13c-2.693,0-4.128-2.456-4.151-6.017c0-3.641,1.549-6.083,4.283-6.083   C16.786,15.71,18.101,18.237,18.101,21.68z M11.897,21.789c-0.006,2.854,0.775,4.33,1.998,4.33c1.313,0,1.982-1.585,1.982-4.389   c0-2.727-0.641-4.323-1.98-4.323C12.723,17.407,11.894,18.863,11.897,21.789z"/>
</g>
<g id="ECH">
	<rect width="27.832" x="26.078" fill="none" height="8.039" y="2.802"/>
	<path d="M40.755,3.634v6.736h-1.523V3.634H40.755z"/>
</g>
<g id="PF">
	<rect width="60" x="0" fill="none" height="15.475" y="44.525"/>
	<path d="M12.084,55.723V54.84l0.646-0.825c0.842-1.071,1.529-1.963,1.529-2.89c0-0.523-0.291-0.888-0.83-0.888   c-0.408,0-0.737,0.18-0.975,0.325l-0.23-1.012c0.298-0.195,0.853-0.404,1.443-0.404c1.421,0,1.883,0.951,1.883,1.882   c0,1.22-0.765,2.192-1.509,3.062l-0.389,0.459v0.02h1.985v1.154H12.084z"/>
	<path d="M16.304,54.03c0-0.807,0.442-1.386,0.978-1.729l-0.002-0.02c-0.553-0.362-0.795-0.918-0.795-1.425   c0-1.064,0.834-1.711,1.839-1.711c0.924,0,1.671,0.633,1.671,1.598c0,0.431-0.167,1.016-0.85,1.441v0.021   c0.6,0.324,1.004,0.925,1.004,1.693c0,1.204-0.878,1.902-1.946,1.902C17.085,55.803,16.304,55.096,16.304,54.03z M18.881,53.956   c0-0.617-0.381-1.01-0.748-1.2c-0.332,0.224-0.562,0.629-0.562,1.131c0,0.562,0.226,1.031,0.675,1.031   C18.661,54.918,18.881,54.502,18.881,53.956z M17.712,50.818c0,0.459,0.255,0.775,0.639,0.979c0.273-0.147,0.446-0.548,0.446-0.928   c0-0.44-0.146-0.847-0.532-0.847C17.885,50.022,17.712,50.411,17.712,50.818z"/>
	<path d="M20.563,54.03c0-0.807,0.442-1.386,0.978-1.729l-0.002-0.02c-0.553-0.362-0.795-0.918-0.795-1.425   c0-1.064,0.834-1.711,1.839-1.711c0.924,0,1.671,0.633,1.671,1.598c0,0.431-0.167,1.016-0.85,1.441v0.021   c0.6,0.324,1.004,0.925,1.004,1.693c0,1.204-0.878,1.902-1.946,1.902C21.345,55.803,20.563,55.096,20.563,54.03z M23.141,53.956   c0-0.617-0.381-1.01-0.748-1.2c-0.332,0.224-0.562,0.629-0.562,1.131c0,0.562,0.226,1.031,0.675,1.031   C22.921,54.918,23.141,54.502,23.141,53.956z M21.972,50.818c0,0.459,0.255,0.775,0.639,0.979c0.273-0.147,0.446-0.548,0.446-0.928   c0-0.44-0.146-0.847-0.532-0.847C22.145,50.022,21.972,50.411,21.972,50.818z"/>
	<path d="M26.638,54.38c0.271,0.156,0.735,0.265,1.108,0.265c0.618,0,0.926-0.321,0.926-0.765c0-0.481-0.305-0.729-0.876-1.093   c-0.92-0.565-1.269-1.271-1.269-1.883c0-1.082,0.717-1.978,2.129-1.978c0.447,0,0.863,0.124,1.059,0.241l-0.209,1.127   c-0.191-0.12-0.479-0.229-0.856-0.229c-0.562,0-0.831,0.339-0.831,0.695c0,0.404,0.203,0.617,0.927,1.054   c0.894,0.536,1.218,1.219,1.218,1.925c0,1.237-0.909,2.043-2.223,2.043c-0.544,0-1.067-0.136-1.292-0.271L26.638,54.38z"/>
	<path d="M34.263,53.261c0,2.037-1.127,2.542-1.866,2.542c-1.169,0-1.871-0.923-1.871-2.511c0-1.753,0.922-2.541,1.893-2.541   C33.571,50.751,34.263,51.721,34.263,53.261z M31.827,53.269c0,0.835,0.134,1.539,0.601,1.539c0.424,0,0.534-0.822,0.534-1.539   c0-0.677-0.11-1.523-0.554-1.523C31.93,51.745,31.827,52.592,31.827,53.269z"/>
	<path d="M35.005,52.303c0-0.534-0.022-1.006-0.04-1.472h1.131l0.066,0.565h0.021c0.251-0.39,0.676-0.646,1.186-0.646   c0.928,0,1.302,0.741,1.302,1.835v3.137h-1.312v-3.062c0-0.412-0.096-0.808-0.481-0.808c-0.217,0-0.399,0.15-0.491,0.439   c-0.036,0.099-0.067,0.263-0.067,0.452v2.978h-1.312V52.303z"/>
	<path d="M42.611,48.986v6.736h-1.312v-6.736H42.611z"/>
	<path d="M45.091,48.986v6.736h-1.312v-6.736H45.091z"/>
	<path d="M47.57,48.986v6.736h-1.312v-6.736H47.57z"/>
</g>
<g id="Des">
	<rect width="60" x="0" fill="none" height="14.525" y="31.722"/>
	<path d="M19.487,45.212v-1.277l1.079-1.425c1.466-1.935,2.885-3.805,2.885-5.71c0-1.103-0.543-1.821-1.57-1.821   c-0.785,0-1.358,0.379-1.728,0.612l-0.38-1.47c0.478-0.345,1.395-0.757,2.458-0.757c2.284,0,3.12,1.589,3.12,3.305   c0,2.196-1.405,4.122-2.794,5.873l-0.736,0.938v0.036h3.719v1.696H19.487z"/>
	<path d="M26.758,42.25c0-1.539,0.875-2.584,1.832-3.225l-0.007-0.036c-0.985-0.655-1.48-1.669-1.48-2.613   c0-1.87,1.401-3.012,3.053-3.012c1.672,0,2.788,1.259,2.788,2.818c0,0.892-0.387,1.917-1.551,2.676v0.044   c1.08,0.646,1.837,1.714,1.837,3.113c0,2.013-1.413,3.341-3.277,3.341C27.965,45.356,26.758,43.955,26.758,42.25z M31.362,42.108   c0-1.218-0.726-1.949-1.494-2.408c-0.752,0.487-1.242,1.34-1.242,2.303c0,1.146,0.495,2.013,1.394,2.013   C30.815,44.016,31.362,43.309,31.362,42.108z M28.92,36.291c0,0.991,0.583,1.573,1.283,1.982c0.59-0.371,0.966-1.112,0.966-1.893   c0-0.943-0.351-1.687-1.113-1.687C29.33,34.694,28.92,35.409,28.92,36.291z"/>
	<path d="M34.103,42.25c0-1.539,0.875-2.584,1.832-3.225l-0.008-0.036c-0.985-0.655-1.479-1.669-1.479-2.613   c0-1.87,1.4-3.012,3.053-3.012c1.672,0,2.788,1.259,2.788,2.818c0,0.892-0.387,1.917-1.551,2.676v0.044   c1.08,0.646,1.837,1.714,1.837,3.113c0,2.013-1.413,3.341-3.277,3.341C35.309,45.356,34.103,43.955,34.103,42.25z M38.706,42.108   c0-1.218-0.726-1.949-1.493-2.408c-0.753,0.487-1.242,1.34-1.242,2.303c0,1.146,0.494,2.013,1.393,2.013   C38.159,44.016,38.706,43.309,38.706,42.108z M36.264,36.291c0,0.991,0.583,1.573,1.282,1.982c0.591-0.371,0.967-1.112,0.967-1.893   c0-0.943-0.351-1.687-1.113-1.687C36.674,34.694,36.264,35.409,36.264,36.291z"/>
</g>
<g>
</g>
<g>
</g>
<g>
</g>
<g>
</g>
<g>
</g>
<g>
</g>
</svg>