<!-- Generator: Adobe Illustrator 25.2.3, SVG Export Plug-In . SVG Version: 6.00 Build 0)  --><svg x="0px" enable-background="new 0 0 60 60" y="0px" width="60px" xmlns:xlink="http://www.w3.org/1999/xlink" viewBox="0 0 60 60" height="60px" id="Layer_1" xmlns="http://www.w3.org/2000/svg" xml:space="preserve" version="1.1">
<rect width="60" fill="#D1E8C5" x="0" height="60" id="UnitColor" y="-0.085"/>
<rect width="60" fill="#F7EC13" height="20.189" id="CS_2_" y="11.533" display="none"/>
<g id="Gar" display="none">
	<rect width="14.843" fill="none" x="0.73" height="8.039" y="2.802" display="inline"/>
	<path d="M11.03,10.06c-0.472,0.163-1.361,0.379-2.249,0.379c-1.231,0-2.119-0.308-2.739-0.903   C5.424,8.949,5.085,8.072,5.089,7.083C5.097,4.842,6.73,3.567,8.936,3.567c0.87,0,1.539,0.165,1.873,0.323L10.49,5.111   C10.117,4.95,9.664,4.825,8.922,4.825c-1.27,0-2.235,0.714-2.235,2.18c0,1.391,0.878,2.205,2.125,2.205   c0.344,0,0.623-0.04,0.745-0.095V7.699H8.516V6.512h2.514V10.06z" display="inline"/>
</g>
<g id="Eng" display="none">
	<rect width="27.832" fill="none" x="1.1" height="8.039" y="2.802" display="inline"/>
	<path d="M17.011,7.521h-2.479v1.602h2.771v1.248h-4.294V3.634h4.15v1.248h-2.626v1.403h2.479V7.521z" display="inline"/>
</g>
<g id="P2" display="none">
	<path d="M19.024,28.186c0.472-1.148,0.803-2.149,0.992-3.001c0.282-1.24,0.423-2.417,0.423-3.534   c0-1.066-0.099-2.078-0.295-3.035c-0.197-0.957-0.575-2.146-1.135-3.568h1.146c0.628,1.03,1.101,2.092,1.419,3.186   c0.319,1.094,0.478,2.185,0.478,3.274c0,1.094-0.159,2.218-0.476,3.374s-0.786,2.257-1.407,3.305H19.024z" display="inline"/>
</g>
<g id="P1" display="none">
	<path d="M8.327,28.186H7.182c-0.605-1.025-1.071-2.111-1.396-3.257s-0.487-2.257-0.487-3.333   c0-1.162,0.163-2.296,0.489-3.401c0.326-1.105,0.795-2.154,1.408-3.148h1.146c-0.56,1.422-0.938,2.611-1.135,3.568   c-0.197,0.957-0.295,1.969-0.295,3.035c0,1.103,0.139,2.27,0.416,3.5C7.522,26.016,7.855,27.028,8.327,28.186z" display="inline"/>
</g>
<g id="Type">
	<path d="M53.265,12.893v17.022H26.785V12.893H53.265z M37.969,21.737v-0.739l-9.765-5.859v5.526   c0.649-0.833,1.649-1.378,2.787-1.378c0.001,0,0.001,0,0.002,0c1.958,0.001,3.544,1.588,3.543,3.545   c0,0.41-0.083,0.798-0.212,1.165l3.767-2.26H37.969z M28.204,25v2.669l2.244-1.347C29.536,26.182,28.747,25.696,28.204,25z    M33.118,22.832c0-1.175-0.952-2.127-2.127-2.127c-1.174,0.002-2.125,0.953-2.127,2.127c0,1.174,0.952,2.127,2.127,2.127   C32.166,24.959,33.118,24.006,33.118,22.832z M50.468,14.312H29.583l9.574,5.744v-1.456h-1.186l2.054-3.272l2.054,3.272h-1.185   v1.456L50.468,14.312z M29.583,28.497h20.885l-8.387-5.032v1.076h-1.188v2.938h-1.737v-2.938H37.97v-1.076L29.583,28.497z    M39.156,22.752l-1.01,0.606h1.01V22.752z M40.894,23.359h1.011l-1.011-0.606V23.359z M51.846,20.65v-5.512l-9.766,5.859v0.739   h-0.121l3.782,2.27c-0.131-0.37-0.215-0.76-0.215-1.174c0-1.958,1.588-3.545,3.545-3.545C50.201,19.287,51.197,19.826,51.846,20.65   z M49.071,24.959c1.175,0,2.127-0.953,2.127-2.127c0-1.175-0.952-2.127-2.127-2.127c-1.174,0.002-2.125,0.953-2.127,2.127   C46.944,24.006,47.897,24.959,49.071,24.959z M49.604,26.323l2.242,1.346v-2.654C51.302,25.706,50.513,26.185,49.604,26.323z"/>
</g>
<g id="STK">
	<path d="M13.307,17.911h-0.036l-2.139,1.074l-0.386-1.671l2.857-1.406h1.847v11.703h-2.144V17.911z"/>
</g>
<g id="ECH">
	<rect width="27.832" x="26.078" fill="none" height="8.039" y="2.802"/>
	<path d="M39.33,3.634v6.736h-1.523V3.634H39.33z"/>
	<path d="M42.18,3.634v6.736h-1.522V3.634H42.18z"/>
</g>
<g id="PF">
	<rect width="60" x="0" fill="none" height="15.475" y="44.525"/>
	<path d="M12.084,55.723V54.84l0.646-0.825c0.842-1.071,1.529-1.963,1.529-2.89c0-0.523-0.291-0.888-0.83-0.888   c-0.408,0-0.737,0.18-0.975,0.325l-0.23-1.012c0.298-0.195,0.853-0.404,1.443-0.404c1.421,0,1.883,0.951,1.883,1.882   c0,1.22-0.765,2.192-1.509,3.062l-0.389,0.459v0.02h1.985v1.154H12.084z"/>
	<path d="M16.304,54.03c0-0.807,0.442-1.386,0.978-1.729l-0.002-0.02c-0.553-0.362-0.795-0.918-0.795-1.425   c0-1.064,0.834-1.711,1.839-1.711c0.924,0,1.671,0.633,1.671,1.598c0,0.431-0.167,1.016-0.85,1.441v0.021   c0.6,0.324,1.004,0.925,1.004,1.693c0,1.204-0.878,1.902-1.946,1.902C17.085,55.803,16.304,55.096,16.304,54.03z M18.881,53.956   c0-0.617-0.381-1.01-0.748-1.2c-0.332,0.224-0.562,0.629-0.562,1.131c0,0.562,0.226,1.031,0.675,1.031   C18.661,54.918,18.881,54.502,18.881,53.956z M17.712,50.818c0,0.459,0.255,0.775,0.639,0.979c0.273-0.147,0.446-0.548,0.446-0.928   c0-0.44-0.146-0.847-0.532-0.847C17.885,50.022,17.712,50.411,17.712,50.818z"/>
	<path d="M20.563,54.03c0-0.807,0.442-1.386,0.978-1.729l-0.002-0.02c-0.553-0.362-0.795-0.918-0.795-1.425   c0-1.064,0.834-1.711,1.839-1.711c0.924,0,1.671,0.633,1.671,1.598c0,0.431-0.167,1.016-0.85,1.441v0.021   c0.6,0.324,1.004,0.925,1.004,1.693c0,1.204-0.878,1.902-1.946,1.902C21.345,55.803,20.563,55.096,20.563,54.03z M23.141,53.956   c0-0.617-0.381-1.01-0.748-1.2c-0.332,0.224-0.562,0.629-0.562,1.131c0,0.562,0.226,1.031,0.675,1.031   C22.921,54.918,23.141,54.502,23.141,53.956z M21.972,50.818c0,0.459,0.255,0.775,0.639,0.979c0.273-0.147,0.446-0.548,0.446-0.928   c0-0.44-0.146-0.847-0.532-0.847C22.145,50.022,21.972,50.411,21.972,50.818z"/>
	<path d="M26.638,54.38c0.271,0.156,0.735,0.265,1.108,0.265c0.618,0,0.926-0.321,0.926-0.765c0-0.481-0.305-0.729-0.876-1.093   c-0.92-0.565-1.269-1.271-1.269-1.883c0-1.082,0.717-1.978,2.129-1.978c0.447,0,0.863,0.124,1.059,0.241l-0.209,1.127   c-0.191-0.12-0.479-0.229-0.856-0.229c-0.562,0-0.831,0.339-0.831,0.695c0,0.404,0.203,0.617,0.927,1.054   c0.894,0.536,1.218,1.219,1.218,1.925c0,1.237-0.909,2.043-2.223,2.043c-0.544,0-1.067-0.136-1.292-0.271L26.638,54.38z"/>
	<path d="M34.263,53.261c0,2.037-1.127,2.542-1.866,2.542c-1.169,0-1.871-0.923-1.871-2.511c0-1.753,0.922-2.541,1.893-2.541   C33.571,50.751,34.263,51.721,34.263,53.261z M31.827,53.269c0,0.835,0.134,1.539,0.601,1.539c0.424,0,0.534-0.822,0.534-1.539   c0-0.677-0.11-1.523-0.554-1.523C31.93,51.745,31.827,52.592,31.827,53.269z"/>
	<path d="M35.005,52.303c0-0.534-0.022-1.006-0.04-1.472h1.131l0.066,0.565h0.021c0.251-0.39,0.676-0.646,1.186-0.646   c0.928,0,1.302,0.741,1.302,1.835v3.137h-1.312v-3.062c0-0.412-0.096-0.808-0.481-0.808c-0.217,0-0.399,0.15-0.491,0.439   c-0.036,0.099-0.067,0.263-0.067,0.452v2.978h-1.312V52.303z"/>
	<path d="M42.611,48.986v6.736h-1.312v-6.736H42.611z"/>
	<path d="M45.091,48.986v6.736h-1.312v-6.736H45.091z"/>
	<path d="M47.57,48.986v6.736h-1.312v-6.736H47.57z"/>
</g>
<g id="Des">
	<rect width="60" x="0" fill="none" height="14.525" y="31.722"/>
	<path d="M30.542,45.212v-2.991h-3.961V40.91l3.82-7.401h1.86v7.165h1.21v1.547h-1.21v2.991H30.542z M30.542,40.674v-2.806   c0-0.703,0.056-1.408,0.11-2.099H30.59c-0.325,0.778-0.567,1.316-0.896,1.998l-1.414,2.87v0.036H30.542z"/>
</g>
<g>
</g>
<g>
</g>
<g>
</g>
<g>
</g>
<g>
</g>
<g>
</g>
</svg>