<!-- Generator: Adobe Illustrator 25.2.3, SVG Export Plug-In . SVG Version: 6.00 Build 0)  --><svg x="0px" enable-background="new 0 0 60 60" y="0px" width="60px" xmlns:xlink="http://www.w3.org/1999/xlink" viewBox="0 0 60 60" height="60px" id="Layer_1" xmlns="http://www.w3.org/2000/svg" xml:space="preserve" version="1.1">
<rect width="60" fill="#D1E8C5" x="0" height="60" id="UnitColor" y="-0.085"/>
<rect width="60" fill="#F7EC13" height="20.189" id="CS_2_" y="11.533" display="none"/>
<g id="Gar" display="none">
	<rect width="14.843" fill="none" x="0.73" height="8.039" y="2.802" display="inline"/>
	<path d="M11.03,10.06c-0.472,0.163-1.361,0.379-2.249,0.379c-1.231,0-2.119-0.308-2.739-0.903   C5.424,8.949,5.085,8.072,5.089,7.083C5.097,4.842,6.73,3.567,8.936,3.567c0.87,0,1.539,0.165,1.873,0.323L10.49,5.111   C10.117,4.95,9.664,4.825,8.922,4.825c-1.27,0-2.235,0.714-2.235,2.18c0,1.391,0.878,2.205,2.125,2.205   c0.344,0,0.623-0.04,0.745-0.095V7.699H8.516V6.512h2.514V10.06z" display="inline"/>
</g>
<g id="Eng" display="none">
	<rect width="27.832" fill="none" x="1.1" height="8.039" y="2.802" display="inline"/>
	<path d="M17.011,7.521h-2.479v1.602h2.771v1.248h-4.294V3.634h4.15v1.248h-2.626v1.403h2.479V7.521z" display="inline"/>
</g>
<g id="P2" display="none">
	<path d="M19.024,28.186c0.472-1.148,0.803-2.149,0.992-3.001c0.282-1.24,0.423-2.417,0.423-3.534   c0-1.066-0.099-2.078-0.295-3.035c-0.197-0.957-0.575-2.146-1.135-3.568h1.146c0.628,1.03,1.101,2.092,1.419,3.186   c0.319,1.094,0.478,2.185,0.478,3.274c0,1.094-0.159,2.218-0.476,3.374s-0.786,2.257-1.407,3.305H19.024z" display="inline"/>
</g>
<g id="P1" display="none">
	<path d="M8.327,28.186H7.182c-0.605-1.025-1.071-2.111-1.396-3.257s-0.487-2.257-0.487-3.333   c0-1.162,0.163-2.296,0.489-3.401c0.326-1.105,0.795-2.154,1.408-3.148h1.146c-0.56,1.422-0.938,2.611-1.135,3.568   c-0.197,0.957-0.295,1.969-0.295,3.035c0,1.103,0.139,2.27,0.416,3.5C7.522,26.016,7.855,27.028,8.327,28.186z" display="inline"/>
</g>
<g id="Type">
	<path d="M53.265,12.893v17.022H26.785V12.893H53.265z M40.025,20.577l10.442-6.265H34.536v2.972L40.025,20.577z M34.536,23.87   l4.11-2.466l-4.11-2.466V23.87z M34.536,28.497h15.932l-10.442-6.265l-5.489,3.293V28.497z M41.404,21.404l10.441,6.265v-12.53   L41.404,21.404z"/>
</g>
<g id="STK">
	<path d="M18.101,21.68c0,3.77-1.473,6.13-4.277,6.13c-2.693,0-4.128-2.456-4.151-6.017c0-3.641,1.549-6.083,4.283-6.083   C16.786,15.71,18.101,18.237,18.101,21.68z M11.897,21.789c-0.006,2.854,0.775,4.33,1.998,4.33c1.313,0,1.982-1.585,1.982-4.389   c0-2.727-0.641-4.323-1.98-4.323C12.723,17.407,11.894,18.863,11.897,21.789z"/>
</g>
<g id="ECH">
	<rect width="27.832" x="26.078" fill="none" height="8.039" y="2.802"/>
	<path d="M40.755,3.634v6.736h-1.523V3.634H40.755z"/>
</g>
<g id="PF">
	<rect width="60" x="0" fill="none" height="15.475" y="44.525"/>
	<path d="M29.696,52.494v0.939H27.71v-0.939H29.696z"/>
	<path d="M32.285,52.494v0.939H30.3v-0.939H32.285z"/>
</g>
<g id="Des">
	<rect width="60" x="0" fill="none" height="14.525" y="31.722"/>
	<path d="M25.72,33.509v1.226l-3.73,10.478h-1.871l3.646-9.972v-0.036h-4.091v-1.695H25.72z"/>
	<path d="M33.221,39.319c0,4.231-1.447,6.037-3.257,6.037c-2.219,0-3.185-2.584-3.185-5.955c0-3.627,1.12-6.037,3.309-6.037   C32.429,33.364,33.221,36.112,33.221,39.319z M28.708,39.36c-0.021,2.778,0.382,4.349,1.34,4.349c0.892,0,1.243-1.611,1.243-4.349   c0-2.614-0.331-4.349-1.25-4.349C29.131,35.012,28.698,36.603,28.708,39.36z"/>
	<path d="M40.407,33.509v1.226l-3.73,10.478h-1.87l3.646-9.972v-0.036h-4.091v-1.695H40.407z"/>
</g>
<g>
</g>
<g>
</g>
<g>
</g>
<g>
</g>
<g>
</g>
<g>
</g>
</svg>