<!-- Generator: Adobe Illustrator 25.2.3, SVG Export Plug-In . SVG Version: 6.00 Build 0)  --><svg x="0px" enable-background="new 0 0 60 60" y="0px" width="60px" xmlns:xlink="http://www.w3.org/1999/xlink" viewBox="0 0 60 60" height="60px" id="Layer_1" xmlns="http://www.w3.org/2000/svg" xml:space="preserve" version="1.1">
<rect width="60" fill="#D1E8C5" x="0" height="60" id="UnitColor" y="-0.085"/>
<rect width="60" fill="#F7EC13" height="20.189" id="CS_2_" y="11.533" display="none"/>
<g id="Gar" display="none">
	<rect width="14.843" fill="none" x="0.73" height="8.039" y="2.802" display="inline"/>
	<path d="M11.03,10.06c-0.472,0.163-1.361,0.379-2.249,0.379c-1.231,0-2.119-0.308-2.739-0.903   C5.424,8.949,5.085,8.072,5.089,7.083C5.097,4.842,6.73,3.567,8.936,3.567c0.87,0,1.539,0.165,1.873,0.323L10.49,5.111   C10.117,4.95,9.664,4.825,8.922,4.825c-1.27,0-2.235,0.714-2.235,2.18c0,1.391,0.878,2.205,2.125,2.205   c0.344,0,0.623-0.04,0.745-0.095V7.699H8.516V6.512h2.514V10.06z" display="inline"/>
</g>
<g id="Eng" display="none">
	<rect width="27.832" fill="none" x="1.1" height="8.039" y="2.802" display="inline"/>
	<path d="M17.011,7.521h-2.479v1.602h2.771v1.248h-4.294V3.634h4.15v1.248h-2.626v1.403h2.479V7.521z" display="inline"/>
</g>
<g id="P2" display="none">
	<path d="M19.024,28.186c0.472-1.148,0.803-2.149,0.992-3.001c0.282-1.24,0.423-2.417,0.423-3.534   c0-1.066-0.099-2.078-0.295-3.035c-0.197-0.957-0.575-2.146-1.135-3.568h1.146c0.628,1.03,1.101,2.092,1.419,3.186   c0.319,1.094,0.478,2.185,0.478,3.274c0,1.094-0.159,2.218-0.476,3.374s-0.786,2.257-1.407,3.305H19.024z" display="inline"/>
</g>
<g id="P1" display="none">
	<path d="M8.327,28.186H7.182c-0.605-1.025-1.071-2.111-1.396-3.257s-0.487-2.257-0.487-3.333   c0-1.162,0.163-2.296,0.489-3.401c0.326-1.105,0.795-2.154,1.408-3.148h1.146c-0.56,1.422-0.938,2.611-1.135,3.568   c-0.197,0.957-0.295,1.969-0.295,3.035c0,1.103,0.139,2.27,0.416,3.5C7.522,26.016,7.855,27.028,8.327,28.186z" display="inline"/>
</g>
<g id="Type">
	<path d="M53.265,12.893v17.022H26.785V12.893H53.265z M34.536,22.832c0,0.41-0.083,0.798-0.212,1.165l4.322-2.593l-10.443-6.265   v5.526c0.649-0.833,1.649-1.378,2.787-1.378c0.001,0,0.001,0,0.002,0C32.95,19.288,34.537,20.875,34.536,22.832z M28.204,25v2.669   l2.244-1.347C29.536,26.182,28.747,25.696,28.204,25z M33.118,22.832c0-1.175-0.952-2.127-2.127-2.127   c-1.174,0.002-2.125,0.953-2.127,2.127c0,1.174,0.952,2.127,2.127,2.127C32.166,24.959,33.118,24.006,33.118,22.832z    M50.468,14.312H29.583l10.443,6.265L50.468,14.312z M29.583,28.497h20.885l-10.442-6.265L29.583,28.497z M51.846,20.65v-5.512   l-10.441,6.265l4.337,2.603c-0.131-0.37-0.215-0.76-0.215-1.174c0-1.958,1.588-3.545,3.545-3.545   C50.201,19.287,51.197,19.826,51.846,20.65z M49.071,24.959c1.175,0,2.127-0.953,2.127-2.127c0-1.175-0.952-2.127-2.127-2.127   c-1.174,0.002-2.125,0.953-2.127,2.127C46.944,24.006,47.897,24.959,49.071,24.959z M49.604,26.323l2.242,1.346v-2.654   C51.302,25.706,50.513,26.185,49.604,26.323z"/>
</g>
<g id="STK">
	<path d="M13.307,17.911h-0.036l-2.139,1.074l-0.386-1.671l2.857-1.406h1.847v11.703h-2.144V17.911z"/>
</g>
<g id="ECH">
	<rect width="27.832" x="26.078" fill="none" height="8.039" y="2.802"/>
	<path d="M39.33,3.634v6.736h-1.523V3.634H39.33z"/>
	<path d="M42.18,3.634v6.736h-1.522V3.634H42.18z"/>
</g>
<g id="PF">
	<rect width="60" x="0" fill="none" height="15.475" y="44.525"/>
	<path d="M20.634,50.459h-0.02l-1.101,0.565l-0.221-1.026l1.489-0.771h1.147v6.496h-1.295V50.459z"/>
	<path d="M26.649,50.208c-0.157,0.008-0.34,0.028-0.536,0.068c-0.862,0.186-1.287,0.909-1.452,1.728h0.036   c0.23-0.308,0.569-0.517,1.002-0.517c0.87,0,1.469,0.789,1.469,2.013c0,1.14-0.587,2.303-1.857,2.303   c-1.229,0-1.973-1.065-1.973-2.682c0-1.42,0.463-2.383,1.062-3.026c0.425-0.466,1.058-0.774,1.593-0.881   c0.305-0.054,0.524-0.058,0.656-0.067V50.208z M25.869,53.497c-0.008-0.554-0.182-1.07-0.606-1.07   c-0.208,0-0.413,0.142-0.533,0.434c-0.036,0.076-0.066,0.271-0.066,0.571c0.002,0.85,0.244,1.424,0.633,1.424   C25.729,54.855,25.869,54.271,25.869,53.497z"/>
	<path d="M29.704,55.723V54.17h-2.229v-0.896l2.125-4.047h1.266v3.896h0.645v1.048h-0.645v1.553H29.704z M29.704,53.122v-1.329   c0-0.344,0.036-0.725,0.065-1.07h-0.032c-0.15,0.359-0.282,0.654-0.458,1.013l-0.69,1.367v0.02H29.704z"/>
	<path d="M33.795,48.986h1.312v5.626h1.724v1.11h-3.036V48.986z"/>
	<path d="M38.519,53.743c0.017,0.763,0.457,1.045,1.036,1.045c0.373,0,0.694-0.08,0.933-0.166l0.171,0.937   c-0.332,0.136-0.848,0.224-1.341,0.224c-1.333,0-2.065-0.879-2.065-2.407c0-1.645,0.856-2.624,1.957-2.624   c1.052,0,1.666,0.83,1.666,2.311c0,0.35-0.016,0.542-0.039,0.682H38.519z M39.683,52.826c0.004-0.628-0.162-1.12-0.552-1.12   c-0.426,0-0.6,0.626-0.609,1.12H39.683z"/>
</g>
<g id="Des">
	<rect width="60" x="0" fill="none" height="14.525" y="31.722"/>
	<path d="M15.383,33.076v12.136h-1.922V33.076H15.383z"/>
	<path d="M19.451,33.076v12.136h-1.922V33.076H19.451z"/>
	<path d="M20.375,45.933l4.065-13h1.312l-4.065,13H20.375z"/>
	<path d="M26.359,43.307c0.419,0.25,1.064,0.474,1.718,0.474c1.178,0,1.892-0.788,1.892-1.981c0-1.407-0.987-2.106-2.272-2.116   h-0.324v-1.42h0.247c0.851-0.01,2.033-0.495,2.033-1.765c0-0.997-0.571-1.548-1.441-1.548c-0.55,0-1.065,0.229-1.469,0.5   l-0.308-1.445c0.458-0.329,1.336-0.641,2.267-0.641c1.875,0,2.871,1.263,2.871,2.765c0,1.17-0.635,2.169-1.711,2.676v0.036   c1.093,0.347,2.027,1.321,2.027,3.02c0,1.84-1.306,3.496-3.663,3.496c-0.864,0-1.694-0.227-2.186-0.528L26.359,43.307z"/>
	<path d="M33.347,42.25c0-1.539,0.875-2.584,1.832-3.225l-0.008-0.036c-0.985-0.655-1.479-1.669-1.479-2.613   c0-1.87,1.4-3.012,3.053-3.012c1.672,0,2.788,1.259,2.788,2.818c0,0.892-0.387,1.917-1.551,2.676v0.044   c1.08,0.646,1.837,1.714,1.837,3.113c0,2.013-1.413,3.341-3.277,3.341C34.553,45.356,33.347,43.955,33.347,42.25z M37.95,42.108   c0-1.218-0.726-1.949-1.493-2.408c-0.753,0.487-1.242,1.34-1.242,2.303c0,1.146,0.494,2.013,1.393,2.013   C37.403,44.016,37.95,43.309,37.95,42.108z M35.508,36.291c0,0.991,0.583,1.573,1.282,1.982c0.591-0.371,0.967-1.112,0.967-1.893   c0-0.943-0.351-1.687-1.113-1.687C35.918,34.694,35.508,35.409,35.508,36.291z"/>
	<path d="M40.762,45.212v-1.277l1.08-1.425c1.465-1.935,2.885-3.805,2.885-5.71c0-1.103-0.543-1.821-1.57-1.821   c-0.785,0-1.358,0.379-1.729,0.612l-0.38-1.47c0.478-0.345,1.396-0.757,2.458-0.757c2.283,0,3.119,1.589,3.119,3.305   c0,2.196-1.404,4.122-2.794,5.873l-0.736,0.938v0.036h3.719v1.696H40.762z"/>
</g>
<g>
</g>
<g>
</g>
<g>
</g>
<g>
</g>
<g>
</g>
<g>
</g>
</svg>