<!-- Generator: Adobe Illustrator 25.2.3, SVG Export Plug-In . SVG Version: 6.00 Build 0)  --><svg x="0px" enable-background="new 0 0 60 60" y="0px" width="60px" xmlns:xlink="http://www.w3.org/1999/xlink" viewBox="0 0 60 60" height="60px" id="Layer_1" xmlns="http://www.w3.org/2000/svg" xml:space="preserve" version="1.1">
<rect width="60" fill="#D1E8C5" x="0" height="60" id="UnitColor" y="-0.085"/>
<rect width="60" fill="#F7EC13" height="20.189" id="CS_2_" y="11.533" display="none"/>
<g id="Gar" display="none">
	<rect width="14.843" fill="none" x="0.73" height="8.039" y="2.802" display="inline"/>
	<path d="M11.03,10.06c-0.472,0.163-1.361,0.379-2.249,0.379c-1.231,0-2.119-0.308-2.739-0.903   C5.424,8.949,5.085,8.072,5.089,7.083C5.097,4.842,6.73,3.567,8.936,3.567c0.87,0,1.539,0.165,1.873,0.323L10.49,5.111   C10.117,4.95,9.664,4.825,8.922,4.825c-1.27,0-2.235,0.714-2.235,2.18c0,1.391,0.878,2.205,2.125,2.205   c0.344,0,0.623-0.04,0.745-0.095V7.699H8.516V6.512h2.514V10.06z" display="inline"/>
</g>
<g id="Eng" display="none">
	<rect width="27.832" fill="none" x="1.1" height="8.039" y="2.802" display="inline"/>
	<path d="M17.011,7.521h-2.479v1.602h2.771v1.248h-4.294V3.634h4.15v1.248h-2.626v1.403h2.479V7.521z" display="inline"/>
</g>
<g id="P2" display="none">
	<path d="M19.024,28.186c0.472-1.148,0.803-2.149,0.992-3.001c0.282-1.24,0.423-2.417,0.423-3.534   c0-1.066-0.099-2.078-0.295-3.035c-0.197-0.957-0.575-2.146-1.135-3.568h1.146c0.628,1.03,1.101,2.092,1.419,3.186   c0.319,1.094,0.478,2.185,0.478,3.274c0,1.094-0.159,2.218-0.476,3.374s-0.786,2.257-1.407,3.305H19.024z" display="inline"/>
</g>
<g id="P1" display="none">
	<path d="M8.327,28.186H7.182c-0.605-1.025-1.071-2.111-1.396-3.257s-0.487-2.257-0.487-3.333   c0-1.162,0.163-2.296,0.489-3.401c0.326-1.105,0.795-2.154,1.408-3.148h1.146c-0.56,1.422-0.938,2.611-1.135,3.568   c-0.197,0.957-0.295,1.969-0.295,3.035c0,1.103,0.139,2.27,0.416,3.5C7.522,26.016,7.855,27.028,8.327,28.186z" display="inline"/>
</g>
<g id="Type">
	<path d="M53.265,12.893v17.022H26.785V12.893H53.265z M28.204,15.139v12.53l10.443-6.265L28.204,15.139z M50.468,14.312H29.583   l10.443,6.265L50.468,14.312z M29.583,28.497h20.885l-10.442-6.265L29.583,28.497z M41.404,21.404l10.441,6.265v-12.53   L41.404,21.404z"/>
</g>
<g id="STK">
	<path d="M13.307,17.911h-0.036l-2.139,1.074l-0.386-1.671l2.857-1.406h1.847v11.703h-2.144V17.911z"/>
</g>
<g id="ECH">
	<rect width="27.832" x="26.078" fill="none" height="8.039" y="2.802"/>
	<path d="M39.33,3.634v6.736h-1.523V3.634H39.33z"/>
	<path d="M42.18,3.634v6.736h-1.522V3.634H42.18z"/>
</g>
<g id="PF">
	<rect width="60" x="0" fill="none" height="15.475" y="44.525"/>
	<path d="M21.715,54.717c0.251,0,0.38-0.012,0.599-0.052c0.251-0.053,0.536-0.184,0.763-0.393c0.275-0.265,0.517-0.731,0.626-1.31   h-0.028c-0.212,0.231-0.511,0.401-0.927,0.401c-0.845,0-1.53-0.75-1.53-1.943c0-1.11,0.683-2.274,1.932-2.274   c1.209,0,1.846,1.101,1.846,2.671c0,1.469-0.474,2.498-1.068,3.133c-0.401,0.437-0.97,0.722-1.604,0.822   c-0.208,0.034-0.407,0.03-0.608,0.03V54.717z M22.509,51.318c0.008,0.629,0.206,1.146,0.606,1.146c0.23,0,0.431-0.171,0.5-0.336   c0.048-0.129,0.06-0.268,0.06-0.696c0-0.852-0.243-1.338-0.593-1.338C22.748,50.094,22.494,50.527,22.509,51.318z"/>
	<path d="M29.26,52.443c0,2.333-0.847,3.359-1.9,3.359c-1.414,0-1.891-1.625-1.891-3.297c0-1.868,0.595-3.359,1.939-3.359   C28.917,49.146,29.26,50.897,29.26,52.443z M26.784,52.475c-0.016,1.521,0.17,2.207,0.614,2.207c0.401,0,0.547-0.719,0.547-2.207   c0-1.395-0.131-2.208-0.549-2.208C26.986,50.267,26.776,50.97,26.784,52.475z"/>
	<path d="M31.665,48.986h1.312v5.626h1.724v1.11h-3.036V48.986z"/>
	<path d="M36.389,53.743c0.017,0.763,0.457,1.045,1.036,1.045c0.373,0,0.694-0.08,0.933-0.166l0.171,0.937   c-0.332,0.136-0.848,0.224-1.341,0.224c-1.333,0-2.065-0.879-2.065-2.407c0-1.645,0.856-2.624,1.957-2.624   c1.052,0,1.666,0.83,1.666,2.311c0,0.35-0.016,0.542-0.039,0.682H36.389z M37.553,52.826c0.004-0.628-0.162-1.12-0.552-1.12   c-0.426,0-0.6,0.626-0.609,1.12H37.553z"/>
</g>
<g id="Des">
	<rect width="60" x="0" fill="none" height="14.525" y="31.722"/>
	<path d="M17.417,33.076v12.136h-1.922V33.076H17.417z"/>
	<path d="M18.341,45.933l4.065-13h1.312l-4.065,13H18.341z"/>
	<path d="M24.325,43.307c0.419,0.25,1.064,0.474,1.718,0.474c1.178,0,1.892-0.788,1.892-1.981c0-1.407-0.987-2.106-2.272-2.116   h-0.324v-1.42h0.247c0.851-0.01,2.033-0.495,2.033-1.765c0-0.997-0.571-1.548-1.441-1.548c-0.55,0-1.065,0.229-1.469,0.5   L24.4,34.005c0.458-0.329,1.336-0.641,2.267-0.641c1.875,0,2.871,1.263,2.871,2.765c0,1.17-0.635,2.169-1.711,2.676v0.036   c1.093,0.347,2.027,1.321,2.027,3.02c0,1.84-1.306,3.496-3.663,3.496c-0.864,0-1.694-0.227-2.186-0.528L24.325,43.307z"/>
	<path d="M36.978,34.945c-0.26,0.011-0.558,0.046-0.902,0.118c-1.728,0.402-2.499,1.995-2.79,3.614h0.057   c0.435-0.605,1.06-1.017,1.884-1.017c1.532,0,2.592,1.401,2.592,3.613c0,2.128-1.033,4.082-3.136,4.082   c-2.14,0-3.336-1.987-3.336-4.8c0-2.427,0.727-4.171,1.731-5.372c0.737-0.906,1.867-1.499,2.857-1.702   c0.468-0.085,0.822-0.1,1.043-0.118V34.945z M35.908,41.321c-0.01-1.341-0.462-2.249-1.309-2.249c-0.467,0-0.938,0.314-1.209,0.995   c-0.057,0.129-0.11,0.432-0.11,0.884c0.008,1.92,0.577,2.982,1.389,2.982C35.451,43.934,35.908,43.004,35.908,41.321z"/>
	<path d="M41.524,35.361h-0.036l-1.968,1.065l-0.342-1.503l2.587-1.415h1.652v11.703h-1.894V35.361z"/>
</g>
<g>
</g>
<g>
</g>
<g>
</g>
<g>
</g>
<g>
</g>
<g>
</g>
</svg>