<svg width="60" height="60" xmlns="http://www.w3.org/2000/svg" viewBox="0 0 60 60">
  <rect fill="#d1e8c5" height="60" width="60"/>
  <rect fill="#f7ec13" width="60" y="11.618" height="20.189"/>
  <path d="M19.024,28.186a18.981,18.981,0,0,0,.993-3,15.953,15.953,0,0,0,.423-3.535,15.1,15.1,0,0,0-.3-3.035,22.77,22.77,0,0,0-1.135-3.568h1.145a13.221,13.221,0,0,1,1.42,3.185,11.646,11.646,0,0,1,.478,3.275,12.717,12.717,0,0,1-.476,3.373,13.478,13.478,0,0,1-1.407,3.306Z" transform="translate(0 0.085)"/>
  <path d="M8.327,28.186H7.182a13.763,13.763,0,0,1-1.4-3.258A12.192,12.192,0,0,1,5.3,21.6a11.959,11.959,0,0,1,.489-3.4A12.957,12.957,0,0,1,7.2,15.047H8.342a22.559,22.559,0,0,0-1.135,3.568,15.032,15.032,0,0,0-.295,3.035,15.893,15.893,0,0,0,.416,3.5A19.594,19.594,0,0,0,8.327,28.186Z" transform="translate(0 0.085)"/>
  <path d="M53.265,12.893V29.915H26.785V12.893Zm-1.419,1.419H28.2V28.5H51.846ZM31.115,24.371a4.261,4.261,0,0,1,2.992-7.223l.007,0v0H45.929c.006,0,.011,0,.018,0a4.259,4.259,0,0,1,0,8.517h-.012v0H34.107A4.238,4.238,0,0,1,31.115,24.371Zm.221-3.01a2.843,2.843,0,0,0,2.794,2.887H45.906c.006,0,.012,0,.017,0a2.84,2.84,0,0,0,.013-5.68v0H34.13A2.829,2.829,0,0,0,31.336,21.361Z" transform="translate(0 0.085)"/>
  <path d="M9.839,27.611V26.267l1.388-1.292c2.753-2.546,4.052-3.95,4.066-5.5a1.843,1.843,0,0,0-2.09-1.97,4.2,4.2,0,0,0-2.5.974l-.65-1.574a5.85,5.85,0,0,1,3.593-1.2c2.6,0,3.865,1.631,3.865,3.545,0,2.058-1.478,3.712-3.525,5.6l-1.013.888v.036h4.8v1.831Z" transform="translate(0 0.085)"/>
  <g>
    <path d="M34.342,3.634h1.509V6.611h.025c.147-.255.309-.5.463-.734l1.524-2.243h1.872L37.507,6.5l2.347,3.869H38.08l-1.657-2.9-.572.7v2.2H34.342Z" transform="translate(0 0.085)"/>
    <path d="M45.776,10.059a7.462,7.462,0,0,1-2.249.379,3.767,3.767,0,0,1-2.738-.9,3.309,3.309,0,0,1-.952-2.452c.008-2.241,1.641-3.516,3.846-3.516a4.712,4.712,0,0,1,1.873.324l-.319,1.22a3.726,3.726,0,0,0-1.567-.286A2.04,2.04,0,0,0,41.435,7,2.026,2.026,0,0,0,43.56,9.209a2.189,2.189,0,0,0,.745-.095V7.7H43.264V6.511h2.512Z" transform="translate(0 0.085)"/>
  </g>
  <g>
    <path d="M29.7,52.494v.94H27.71v-.94Z" transform="translate(0 0.085)"/>
    <path d="M32.285,52.494v.94H30.3v-.94Z" transform="translate(0 0.085)"/>
  </g>
</svg>