<svg width="60" height="60" xmlns="http://www.w3.org/2000/svg" viewBox="0 0 60 60">
  <rect fill="#d1e8c5" height="60" width="60"/>
  <rect fill="#f7ec13" width="60" y="11.618" height="20.189"/>
  <path d="M19.024,28.186a18.981,18.981,0,0,0,.993-3,15.953,15.953,0,0,0,.423-3.535,15.1,15.1,0,0,0-.3-3.035,22.77,22.77,0,0,0-1.135-3.568h1.145a13.221,13.221,0,0,1,1.42,3.185,11.646,11.646,0,0,1,.478,3.275,12.717,12.717,0,0,1-.476,3.373,13.478,13.478,0,0,1-1.407,3.306Z" transform="translate(0 0.085)"/>
  <path d="M8.327,28.186H7.182a13.763,13.763,0,0,1-1.4-3.258A12.192,12.192,0,0,1,5.3,21.6a11.959,11.959,0,0,1,.489-3.4A12.957,12.957,0,0,1,7.2,15.047H8.342a22.559,22.559,0,0,0-1.135,3.568,15.032,15.032,0,0,0-.295,3.035,15.893,15.893,0,0,0,.416,3.5A19.594,19.594,0,0,0,8.327,28.186Z" transform="translate(0 0.085)"/>
  <path d="M53.265,12.893V29.915H26.785V12.893ZM32.3,17.6,28.2,15.139v12.53L32.3,25.215a4.284,4.284,0,0,1-1.18-.844A4.249,4.249,0,0,1,32.3,17.6Zm18.17-3.284H29.583l4.729,2.836H45.739ZM29.583,28.5H50.468L45.75,25.666H34.3Zm4.369-9.91a2.827,2.827,0,0,0-.01,5.639l4.7-2.822Zm2.712,5.661h6.721l-3.36-2.017Zm3.361-3.671,3.35-2.01h-6.7ZM46.1,24.223a2.827,2.827,0,0,0,0-5.639L41.4,21.4Zm1.653.992,4.09,2.454V15.139L47.752,17.6a4.237,4.237,0,0,1,0,7.62Z" transform="translate(0 0.085)"/>
  <path d="M9.839,27.611V26.267l1.388-1.292c2.753-2.546,4.052-3.95,4.066-5.5a1.843,1.843,0,0,0-2.09-1.97,4.2,4.2,0,0,0-2.5.974l-.65-1.574a5.85,5.85,0,0,1,3.593-1.2c2.6,0,3.865,1.631,3.865,3.545,0,2.058-1.478,3.712-3.525,5.6l-1.013.888v.036h4.8v1.831Z" transform="translate(0 0.085)"/>
  <g>
    <path d="M34.342,3.634h1.509V6.611h.025c.147-.255.309-.5.463-.734l1.524-2.243h1.872L37.507,6.5l2.347,3.869H38.08l-1.657-2.9-.572.7v2.2H34.342Z" transform="translate(0 0.085)"/>
    <path d="M45.776,10.059a7.462,7.462,0,0,1-2.249.379,3.767,3.767,0,0,1-2.738-.9,3.309,3.309,0,0,1-.952-2.452c.008-2.241,1.641-3.516,3.846-3.516a4.712,4.712,0,0,1,1.873.324l-.319,1.22a3.726,3.726,0,0,0-1.567-.286A2.04,2.04,0,0,0,41.435,7,2.026,2.026,0,0,0,43.56,9.209a2.189,2.189,0,0,0,.745-.095V7.7H43.264V6.511h2.512Z" transform="translate(0 0.085)"/>
  </g>
  <g>
    <path d="M29.7,52.494v.94H27.71v-.94Z" transform="translate(0 0.085)"/>
    <path d="M32.285,52.494v.94H30.3v-.94Z" transform="translate(0 0.085)"/>
  </g>
</svg>