<!-- Generator: Adobe Illustrator 25.2.3, SVG Export Plug-In . SVG Version: 6.00 Build 0)  --><svg x="0px" enable-background="new 0 0 60 60" y="0px" width="60px" xmlns:xlink="http://www.w3.org/1999/xlink" viewBox="0 0 60 60" height="60px" id="Layer_1" xmlns="http://www.w3.org/2000/svg" xml:space="preserve" version="1.1">
<rect width="60" fill="#D1E8C5" x="0" height="60" id="UnitColor" y="-0.085"/>
<rect width="60" fill="#F7EC13" height="20.189" id="CS_2_" y="11.533"/>
<g id="Gar" display="none">
	<rect width="14.843" fill="none" x="0.73" height="8.039" y="2.802" display="inline"/>
	<path d="M11.03,10.06c-0.472,0.163-1.361,0.379-2.249,0.379c-1.231,0-2.119-0.308-2.739-0.903   C5.424,8.949,5.085,8.072,5.089,7.083C5.097,4.842,6.73,3.567,8.936,3.567c0.87,0,1.539,0.165,1.873,0.323L10.49,5.111   C10.117,4.95,9.664,4.825,8.922,4.825c-1.27,0-2.235,0.714-2.235,2.18c0,1.391,0.878,2.205,2.125,2.205   c0.344,0,0.623-0.04,0.745-0.095V7.699H8.516V6.512h2.514V10.06z" display="inline"/>
</g>
<g id="Eng" display="none">
	<rect width="27.832" fill="none" x="1.1" height="8.039" y="2.802" display="inline"/>
	<path d="M17.011,7.521h-2.479v1.602h2.771v1.248h-4.294V3.634h4.15v1.248h-2.626v1.403h2.479V7.521z" display="inline"/>
</g>
<g id="P2">
	<path d="M19.024,28.186c0.472-1.148,0.803-2.149,0.992-3.001c0.282-1.24,0.423-2.417,0.423-3.534c0-1.066-0.099-2.078-0.295-3.035   c-0.197-0.957-0.575-2.146-1.135-3.568h1.146c0.628,1.03,1.101,2.092,1.419,3.186c0.319,1.094,0.478,2.185,0.478,3.274   c0,1.094-0.159,2.218-0.476,3.374s-0.786,2.257-1.407,3.305H19.024z"/>
</g>
<g id="P1">
	<path d="M8.327,28.186H7.182c-0.605-1.025-1.071-2.111-1.396-3.257s-0.487-2.257-0.487-3.333c0-1.162,0.163-2.296,0.489-3.401   c0.326-1.105,0.795-2.154,1.408-3.148h1.146c-0.56,1.422-0.938,2.611-1.135,3.568c-0.197,0.957-0.295,1.969-0.295,3.035   c0,1.103,0.139,2.27,0.416,3.5C7.522,26.016,7.855,27.028,8.327,28.186z"/>
</g>
<g id="Type">
	<path d="M53.265,12.893v17.022H26.785V12.893H53.265z M28.204,15.139v12.53l10.443-6.265L28.204,15.139z M50.468,14.312H29.583   l10.443,6.265L50.468,14.312z M29.583,28.497h20.885l-10.442-6.265L29.583,28.497z M41.404,21.404l10.441,6.265v-12.53   L41.404,21.404z"/>
</g>
<g id="STK">
	<path d="M9.839,27.611v-1.345l1.388-1.292c2.753-2.546,4.052-3.949,4.066-5.496c0-1.058-0.562-1.97-2.091-1.97   c-1.036,0-1.914,0.524-2.499,0.975l-0.649-1.574c0.841-0.67,2.121-1.199,3.593-1.199c2.595,0,3.865,1.631,3.865,3.545   c0,2.059-1.479,3.712-3.525,5.602l-1.013,0.888v0.036h4.796v1.831H9.839z"/>
</g>
<g id="ECH">
	<rect width="27.832" x="26.078" fill="none" height="8.039" y="2.802"/>
	<path d="M34.227,3.727c0.401-0.078,1.203-0.146,1.966-0.146c0.929,0,1.5,0.092,1.992,0.378c0.472,0.251,0.803,0.71,0.803,1.328   c0,0.593-0.347,1.151-1.105,1.433v0.025c0.769,0.202,1.341,0.789,1.341,1.651c0,0.617-0.284,1.099-0.701,1.431   c-0.494,0.396-1.307,0.613-2.648,0.613c-0.75,0-1.305-0.05-1.646-0.1V3.727z M35.736,6.306h0.494c0.807,0,1.228-0.335,1.228-0.836   c0-0.512-0.388-0.781-1.076-0.781c-0.333,0-0.521,0.021-0.646,0.047V6.306z M35.736,9.286c0.146,0.024,0.327,0.027,0.584,0.027   c0.691,0,1.3-0.268,1.3-0.977c0-0.675-0.604-0.944-1.363-0.944h-0.521V9.286z"/>
	<path d="M45.892,10.059c-0.472,0.163-1.361,0.379-2.249,0.379c-1.23,0-2.118-0.308-2.738-0.903   c-0.618-0.586-0.956-1.463-0.952-2.452c0.008-2.241,1.641-3.516,3.846-3.516c0.87,0,1.54,0.165,1.873,0.323L45.353,5.11   c-0.374-0.161-0.827-0.286-1.567-0.286c-1.27,0-2.235,0.714-2.235,2.179c0,1.392,0.878,2.206,2.125,2.206   c0.345,0,0.623-0.04,0.745-0.095V7.698h-1.041V6.511h2.513V10.059z"/>
</g>
<g id="PF">
	<rect width="60" x="0" fill="none" height="15.475" y="44.525"/>
	<path d="M29.696,52.494v0.939H27.71v-0.939H29.696z"/>
	<path d="M32.285,52.494v0.939H30.3v-0.939H32.285z"/>
</g>
<g id="Des">
	<rect width="60" x="0" fill="none" height="14.525" y="31.722"/>
	<path d="M9.105,33.257c0.62-0.145,1.4-0.234,2.262-0.234c1.274,0,2.305,0.234,3.022,0.915c0.658,0.612,0.974,1.556,0.974,2.595   c0,1.227-0.342,2.071-0.896,2.72c-0.715,0.849-1.89,1.251-2.911,1.251c-0.196,0-0.363,0-0.539-0.016v4.725H9.105V33.257z    M11.017,38.911c0.139,0.026,0.278,0.034,0.464,0.034c1.264,0,1.965-0.867,1.965-2.262c0-1.143-0.466-2.104-1.762-2.104   c-0.265,0-0.502,0.036-0.667,0.09V38.911z"/>
	<path d="M17.045,45.212V37.84h-1.146v-1.394h1.146v-0.433c0-0.973,0.18-1.909,0.848-2.621c0.515-0.554,1.242-0.784,1.943-0.784   c0.55,0,0.971,0.09,1.269,0.205l-0.247,1.502c-0.183-0.072-0.427-0.132-0.744-0.132c-0.878,0-1.148,0.858-1.148,1.789v0.474h1.557   v1.394h-1.557v7.372H17.045z"/>
	<path d="M22.786,41.346c0.021,1.958,0.93,2.491,1.953,2.491c0.64,0,1.183-0.145,1.573-0.312l0.272,1.383   c-0.547,0.258-1.393,0.412-2.194,0.412c-2.259,0-3.472-1.64-3.472-4.353c0-2.901,1.39-4.665,3.261-4.665   c1.844,0,2.773,1.666,2.773,4.016c0,0.5-0.021,0.796-0.051,1.027H22.786z M25.171,39.978c0.016-1.407-0.447-2.243-1.128-2.243   c-0.834,0-1.21,1.215-1.249,2.243H25.171z"/>
	<path d="M30.326,34.149c0.01,0.66-0.434,1.107-1.063,1.107c-0.56,0-1.009-0.447-0.999-1.107c-0.01-0.683,0.459-1.117,1.027-1.117   C29.892,33.032,30.326,33.467,30.326,34.149z M28.35,45.212v-8.766h1.922v8.766H28.35z"/>
	<path d="M36.633,45.212V37.84H34.32v7.372h-1.922V37.84h-1.147v-1.394h1.147v-0.395c0-0.996,0.241-1.919,0.827-2.531   c0.453-0.479,1.121-0.769,2.059-0.769c0.345,0,0.756,0.08,0.972,0.162L35.922,34.4c-0.162-0.062-0.381-0.113-0.598-0.113   c-0.757,0-1.004,0.667-1.004,1.744v0.415h2.312v-0.433c0-0.973,0.18-1.909,0.848-2.621c0.515-0.554,1.242-0.784,1.943-0.784   c0.55,0,0.971,0.09,1.269,0.205l-0.246,1.502c-0.183-0.072-0.428-0.132-0.744-0.132c-0.878,0-1.147,0.858-1.147,1.789v0.474h1.557   v1.394h-1.557v7.372H36.633z"/>
	<path d="M42.369,41.346c0.021,1.958,0.93,2.491,1.953,2.491c0.641,0,1.183-0.145,1.573-0.312l0.272,1.383   c-0.547,0.258-1.393,0.412-2.194,0.412c-2.26,0-3.473-1.64-3.473-4.353c0-2.901,1.391-4.665,3.262-4.665   c1.844,0,2.772,1.666,2.772,4.016c0,0.5-0.021,0.796-0.051,1.027H42.369z M44.755,39.978c0.015-1.407-0.447-2.243-1.129-2.243   c-0.834,0-1.21,1.215-1.249,2.243H44.755z"/>
	<path d="M47.926,38.916c0-0.812-0.044-1.725-0.072-2.47h1.681l0.098,1.322h0.057c0.339-0.889,1.064-1.466,1.78-1.466   c0.187,0,0.292,0.01,0.408,0.03v1.922c-0.118-0.021-0.244-0.021-0.411-0.021c-0.665,0-1.334,0.556-1.539,1.505   c-0.049,0.211-0.08,0.507-0.08,0.841v4.632h-1.921V38.916z"/>
</g>
<g>
</g>
<g>
</g>
<g>
</g>
<g>
</g>
<g>
</g>
<g>
</g>
</svg>