<!-- Generator: Adobe Illustrator 25.2.3, SVG Export Plug-In . SVG Version: 6.00 Build 0)  --><svg x="0px" enable-background="new 0 0 60 60" y="0px" width="60px" xmlns:xlink="http://www.w3.org/1999/xlink" viewBox="0 0 60 60" height="60px" id="Layer_1" xmlns="http://www.w3.org/2000/svg" xml:space="preserve" version="1.1">
<rect width="60" fill="#D1E8C5" x="0" height="60" id="UnitColor" y="-0.085"/>
<rect width="60" fill="#F7EC13" height="20.189" id="CS_2_" y="11.533"/>
<g id="Gar" display="none">
	<rect width="14.843" fill="none" x="0.73" height="8.039" y="2.802" display="inline"/>
	<path d="M11.03,10.06c-0.472,0.163-1.361,0.379-2.249,0.379c-1.231,0-2.119-0.308-2.739-0.903   C5.424,8.949,5.085,8.072,5.089,7.083C5.097,4.842,6.73,3.567,8.936,3.567c0.87,0,1.539,0.165,1.873,0.323L10.49,5.111   C10.117,4.95,9.664,4.825,8.922,4.825c-1.27,0-2.235,0.714-2.235,2.18c0,1.391,0.878,2.205,2.125,2.205   c0.344,0,0.623-0.04,0.745-0.095V7.699H8.516V6.512h2.514V10.06z" display="inline"/>
</g>
<g id="Eng" display="none">
	<rect width="27.832" fill="none" x="1.1" height="8.039" y="2.802" display="inline"/>
	<path d="M17.011,7.521h-2.479v1.602h2.771v1.248h-4.294V3.634h4.15v1.248h-2.626v1.403h2.479V7.521z" display="inline"/>
</g>
<g id="P2">
	<path d="M19.024,28.186c0.472-1.148,0.803-2.149,0.992-3.001c0.282-1.24,0.423-2.417,0.423-3.534c0-1.066-0.099-2.078-0.295-3.035   c-0.197-0.957-0.575-2.146-1.135-3.568h1.146c0.628,1.03,1.101,2.092,1.419,3.186c0.319,1.094,0.478,2.185,0.478,3.274   c0,1.094-0.159,2.218-0.476,3.374s-0.786,2.257-1.407,3.305H19.024z"/>
</g>
<g id="P1">
	<path d="M8.327,28.186H7.182c-0.605-1.025-1.071-2.111-1.396-3.257s-0.487-2.257-0.487-3.333c0-1.162,0.163-2.296,0.489-3.401   c0.326-1.105,0.795-2.154,1.408-3.148h1.146c-0.56,1.422-0.938,2.611-1.135,3.568c-0.197,0.957-0.295,1.969-0.295,3.035   c0,1.103,0.139,2.27,0.416,3.5C7.522,26.016,7.855,27.028,8.327,28.186z"/>
</g>
<g id="Type">
	<path d="M53.265,12.893v17.022H26.785V12.893H53.265z M40.025,20.577l10.442-6.265H34.54v2.974L40.025,20.577z M34.54,23.868   l4.106-2.464L34.54,18.94V23.868z M34.54,28.497h4.869c-0.246-1.345-1.421-2.369-2.836-2.369c-0.792,0-1.511,0.322-2.033,0.84   V28.497z M45.425,25.471l-5.399-3.24l-4.943,2.966c0.464-0.182,0.964-0.291,1.491-0.291c1.494,0,2.791,0.81,3.511,2.005   c0.184-0.296,0.391-0.579,0.647-0.823c0.794-0.753,1.82-1.143,2.87-1.085c0.001,0,0.001,0,0.002,0   C44.262,25.003,44.876,25.182,45.425,25.471z M43.57,26.223c-0.76-0.028-1.45,0.23-1.998,0.751   c-0.435,0.413-0.724,0.95-0.835,1.522h5.576C46.076,27.188,44.959,26.223,43.57,26.223z M41.404,21.404l10.441,6.265v-12.53   L41.404,21.404z M47.534,28.497h2.934l-4.555-2.733C46.786,26.396,47.387,27.373,47.534,28.497z"/>
</g>
<g id="STK">
	<path d="M10.279,25.323c0.464,0.267,1.555,0.718,2.667,0.718c1.69,0,2.373-0.953,2.367-1.875c-0.012-1.379-1.31-1.979-2.66-1.982   h-1.012v-1.615h0.987c1.022-0.003,2.314-0.465,2.314-1.628c0-0.808-0.581-1.468-1.872-1.468c-0.948,0-1.908,0.412-2.395,0.732   l-0.501-1.6c0.666-0.455,1.969-0.896,3.369-0.896c2.419,0,3.65,1.336,3.65,2.864c0,1.221-0.721,2.223-2.148,2.733v0.036   c1.419,0.263,2.565,1.336,2.565,2.918c0,1.978-1.662,3.548-4.555,3.548c-1.427,0-2.645-0.398-3.273-0.811L10.279,25.323z"/>
</g>
<g id="ECH">
	<rect width="27.832" x="26.078" fill="none" height="8.039" y="2.802"/>
	<path d="M38.123,10.37l-0.608-1.219c-0.243-0.472-0.411-0.823-0.597-1.213h-0.021c-0.141,0.391-0.306,0.744-0.524,1.209   l-0.557,1.223h-1.734l1.946-3.411L34.15,3.634h1.752l0.59,1.227c0.196,0.409,0.342,0.742,0.502,1.12h0.025   c0.163-0.428,0.287-0.728,0.46-1.116l0.565-1.23h1.739l-1.898,3.287l1.999,3.449H38.123z"/>
	<path d="M44.145,10.37l-0.608-1.219c-0.244-0.472-0.411-0.823-0.597-1.213h-0.021c-0.141,0.391-0.307,0.744-0.524,1.209   l-0.558,1.223h-1.734l1.947-3.411l-1.878-3.325h1.751l0.59,1.227c0.197,0.409,0.343,0.742,0.502,1.12h0.026   c0.162-0.428,0.287-0.728,0.459-1.116l0.566-1.23h1.739l-1.899,3.287l2,3.449H44.145z"/>
</g>
<g id="PF">
	<rect width="60" x="0" fill="none" height="15.475" y="44.525"/>
	<path d="M29.696,52.494v0.939H27.71v-0.939H29.696z"/>
	<path d="M32.285,52.494v0.939H30.3v-0.939H32.285z"/>
</g>
<g id="Des">
	<rect width="60" x="0" fill="none" height="14.525" y="31.722"/>
	<path d="M7.881,33.257c0.671-0.16,1.511-0.234,2.315-0.234c1.247,0,2.292,0.216,3.007,0.887c0.676,0.641,0.916,1.451,0.916,2.453   c0,1.414-0.68,2.506-1.907,3.074v0.036c0.854,0.306,1.297,1.111,1.544,2.548c0.255,1.486,0.545,2.777,0.74,3.191h-1.994   c-0.16-0.348-0.417-1.538-0.625-2.948c-0.234-1.58-0.683-2.093-1.644-2.093H9.793v5.041H7.881V33.257z M9.793,38.688h0.5   c1.156,0,1.878-0.898,1.878-2.13c0-1.2-0.482-1.998-1.734-2.019c-0.242,0-0.489,0.018-0.644,0.072V38.688z"/>
	<path d="M19.477,45.212l-0.113-0.893H19.32c-0.437,0.676-1.087,1.037-1.856,1.037c-1.257,0-2.206-1.055-2.206-2.593   c0-2.252,1.905-3.204,3.888-3.222V39.31c0-0.913-0.357-1.555-1.31-1.555c-0.627,0-1.159,0.183-1.634,0.486l-0.37-1.312   c0.432-0.272,1.354-0.627,2.422-0.627c2.256,0,2.834,1.545,2.834,3.41v3.503c0,0.682,0.021,1.415,0.113,1.996H19.477z    M19.197,40.822c-0.748,0.011-2.104,0.219-2.104,1.744c0,0.989,0.528,1.347,0.95,1.347c0.482,0,0.946-0.327,1.108-1.003   c0.036-0.137,0.046-0.294,0.046-0.445V40.822z"/>
	<path d="M22.878,38.916c0-0.99-0.044-1.693-0.072-2.47h1.676l0.098,1.047h0.036c0.416-0.677,1.121-1.19,2.036-1.19   c0.907,0,1.566,0.424,1.877,1.261h0.036c0.224-0.384,0.542-0.724,0.879-0.939c0.352-0.214,0.769-0.321,1.219-0.321   c1.397,0,2.196,1.073,2.196,3.236v5.673h-1.912v-5.311c0-1.061-0.136-2-0.997-2c-0.49,0-0.887,0.376-1.062,1.025   c-0.044,0.176-0.064,0.434-0.064,0.698v5.587h-1.912v-5.608c0-0.783-0.111-1.702-0.979-1.702c-0.457,0-0.905,0.363-1.067,1.072   c-0.046,0.188-0.077,0.44-0.077,0.7v5.538h-1.912V38.916z"/>
	<path d="M39.233,45.031c-0.271,0.145-0.828,0.289-1.477,0.289c-2.081,0-3.465-1.541-3.465-4.422c0-2.625,1.452-4.575,3.776-4.575   c0.517,0,1.021,0.126,1.26,0.255l-0.293,1.524c-0.19-0.078-0.507-0.196-0.93-0.196c-1.251,0-1.896,1.34-1.896,2.954   c0,1.792,0.724,2.884,1.897,2.884c0.354,0,0.656-0.069,0.937-0.208L39.233,45.031z"/>
	<path d="M42.17,40.391h0.036c0.162-0.437,0.304-0.784,0.455-1.115l1.402-2.829h2.076l-2.211,3.678l2.368,5.088h-2.143l-1.539-3.838   l-0.445,0.785v3.053h-1.912v-12.46h1.912V40.391z"/>
	<path d="M48.508,41.346c0.021,1.958,0.93,2.491,1.953,2.491c0.641,0,1.183-0.145,1.573-0.312l0.272,1.383   c-0.547,0.258-1.393,0.412-2.194,0.412c-2.26,0-3.473-1.64-3.473-4.353c0-2.901,1.391-4.665,3.262-4.665   c1.844,0,2.772,1.666,2.772,4.016c0,0.5-0.021,0.796-0.051,1.027H48.508z M50.894,39.978c0.015-1.407-0.447-2.243-1.129-2.243   c-0.834,0-1.21,1.215-1.249,2.243H50.894z"/>
</g>
<g>
</g>
<g>
</g>
<g>
</g>
<g>
</g>
<g>
</g>
<g>
</g>
</svg>