<!-- Generator: Adobe Illustrator 25.2.3, SVG Export Plug-In . SVG Version: 6.00 Build 0)  --><svg x="0px" enable-background="new 0 0 60 60" y="0px" width="60px" xmlns:xlink="http://www.w3.org/1999/xlink" viewBox="0 0 60 60" height="60px" id="Layer_1" xmlns="http://www.w3.org/2000/svg" xml:space="preserve" version="1.1">
<rect width="60" fill="#D1E8C5" x="0" height="60" id="UnitColor" y="-0.085"/>
<rect width="60" fill="#F7EC13" height="20.189" id="CS_2_" y="11.533" display="none"/>
<g id="Gar" display="none">
	<rect width="14.843" fill="none" x="0.73" height="8.039" y="2.802" display="inline"/>
	<path d="M11.03,10.06c-0.472,0.163-1.361,0.379-2.249,0.379c-1.231,0-2.119-0.308-2.739-0.903   C5.424,8.949,5.085,8.072,5.089,7.083C5.097,4.842,6.73,3.567,8.936,3.567c0.87,0,1.539,0.165,1.873,0.323L10.49,5.111   C10.117,4.95,9.664,4.825,8.922,4.825c-1.27,0-2.235,0.714-2.235,2.18c0,1.391,0.878,2.205,2.125,2.205   c0.344,0,0.623-0.04,0.745-0.095V7.699H8.516V6.512h2.514V10.06z" display="inline"/>
</g>
<g id="Eng" display="none">
	<rect width="27.832" fill="none" x="1.1" height="8.039" y="2.802" display="inline"/>
	<path d="M17.011,7.521h-2.479v1.602h2.771v1.248h-4.294V3.634h4.15v1.248h-2.626v1.403h2.479V7.521z" display="inline"/>
</g>
<g id="P2" display="none">
	<path d="M19.024,28.186c0.472-1.148,0.803-2.149,0.992-3.001c0.282-1.24,0.423-2.417,0.423-3.534   c0-1.066-0.099-2.078-0.295-3.035c-0.197-0.957-0.575-2.146-1.135-3.568h1.146c0.628,1.03,1.101,2.092,1.419,3.186   c0.319,1.094,0.478,2.185,0.478,3.274c0,1.094-0.159,2.218-0.476,3.374s-0.786,2.257-1.407,3.305H19.024z" display="inline"/>
</g>
<g id="P1" display="none">
	<path d="M8.327,28.186H7.182c-0.605-1.025-1.071-2.111-1.396-3.257s-0.487-2.257-0.487-3.333   c0-1.162,0.163-2.296,0.489-3.401c0.326-1.105,0.795-2.154,1.408-3.148h1.146c-0.56,1.422-0.938,2.611-1.135,3.568   c-0.197,0.957-0.295,1.969-0.295,3.035c0,1.103,0.139,2.27,0.416,3.5C7.522,26.016,7.855,27.028,8.327,28.186z" display="inline"/>
</g>
<g id="Type">
	<path d="M53.265,12.893v17.022H26.785V12.893H53.265z M28.204,15.139v12.53l10.443-6.265L28.204,15.139z M50.468,14.312H29.583   l10.443,6.265L50.468,14.312z M29.583,28.497h20.885l-10.442-6.265L29.583,28.497z M41.404,21.404l10.441,6.265v-12.53   L41.404,21.404z"/>
</g>
<g id="STK">
	<path d="M18.101,21.68c0,3.77-1.473,6.13-4.277,6.13c-2.693,0-4.128-2.456-4.151-6.017c0-3.641,1.549-6.083,4.283-6.083   C16.786,15.71,18.101,18.237,18.101,21.68z M11.897,21.789c-0.006,2.854,0.775,4.33,1.998,4.33c1.313,0,1.982-1.585,1.982-4.389   c0-2.727-0.641-4.323-1.98-4.323C12.723,17.407,11.894,18.863,11.897,21.789z"/>
</g>
<g id="ECH">
	<rect width="27.832" x="26.078" fill="none" height="8.039" y="2.802"/>
	<path d="M32.104,10.37l-0.608-1.219c-0.244-0.472-0.411-0.823-0.597-1.213h-0.021c-0.141,0.391-0.306,0.744-0.524,1.209   l-0.557,1.223h-1.734l1.946-3.411L28.13,3.634h1.751l0.59,1.227c0.197,0.409,0.342,0.742,0.502,1.12H31   c0.163-0.428,0.288-0.728,0.459-1.116l0.565-1.23h1.74l-1.899,3.287l1.999,3.449H32.104z"/>
	<path d="M38.123,10.37l-0.608-1.219c-0.243-0.472-0.411-0.823-0.597-1.213h-0.021c-0.141,0.391-0.306,0.744-0.524,1.209   l-0.557,1.223h-1.734l1.946-3.411L34.15,3.634h1.752l0.59,1.227c0.196,0.409,0.342,0.742,0.502,1.12h0.025   c0.163-0.428,0.287-0.728,0.46-1.116l0.565-1.23h1.739l-1.898,3.287l1.999,3.449H38.123z"/>
	<path d="M44.144,10.37l-0.608-1.219c-0.244-0.472-0.411-0.823-0.597-1.213h-0.021c-0.141,0.391-0.307,0.744-0.524,1.209   l-0.558,1.223h-1.734l1.947-3.411l-1.878-3.325h1.751l0.59,1.227c0.197,0.409,0.343,0.742,0.502,1.12h0.026   c0.162-0.428,0.287-0.728,0.459-1.116l0.566-1.23h1.739l-1.899,3.287l2,3.449H44.144z"/>
	<path d="M50.164,10.37l-0.608-1.219c-0.244-0.472-0.411-0.823-0.597-1.213h-0.021c-0.141,0.391-0.307,0.744-0.524,1.209   l-0.558,1.223h-1.734l1.947-3.411l-1.878-3.325h1.751l0.59,1.227c0.197,0.409,0.343,0.742,0.502,1.12h0.026   c0.162-0.428,0.287-0.728,0.459-1.116l0.566-1.23h1.739l-1.899,3.287l2,3.449H50.164z"/>
</g>
<g id="PF">
	<rect width="60" x="0" fill="none" height="15.475" y="44.525"/>
	<path d="M23.62,49.086c0.325-0.076,0.81-0.13,1.331-0.13c0.848,0,1.44,0.199,1.872,0.6c0.577,0.521,0.875,1.411,0.875,2.715   c0,1.365-0.351,2.33-0.935,2.854c-0.459,0.436-1.123,0.651-2.06,0.651c-0.416,0-0.827-0.042-1.083-0.076V49.086z M24.925,54.683   c0.069,0.021,0.166,0.021,0.235,0.021c0.633,0,1.181-0.618,1.181-2.475c0-1.385-0.359-2.225-1.154-2.225   c-0.093,0-0.182,0.004-0.262,0.032V54.683z"/>
	<path d="M29.436,54.185l-0.295,1.538h-1.271l1.463-6.736H30.9l1.31,6.736h-1.275l-0.288-1.538H29.436z M30.532,53.168l-0.225-1.41   c-0.065-0.409-0.155-1.086-0.221-1.531h-0.024c-0.072,0.447-0.172,1.144-0.242,1.533l-0.247,1.408H30.532z"/>
	<path d="M32.95,48.986h1.305v3.032h0.028c0.108-0.288,0.211-0.579,0.327-0.874l0.896-2.158h1.443l-1.511,2.933l1.531,3.804h-1.432   l-0.98-2.787l-0.304,0.55v2.237H32.95V48.986z"/>
</g>
<g id="Des">
	<rect width="60" x="0" fill="none" height="14.525" y="31.722"/>
	<path d="M6.207,33.257c0.671-0.16,1.511-0.234,2.315-0.234c1.247,0,2.292,0.216,3.007,0.887c0.676,0.641,0.916,1.451,0.916,2.453   c0,1.414-0.68,2.506-1.907,3.074v0.036c0.854,0.306,1.297,1.111,1.544,2.548c0.255,1.486,0.545,2.777,0.74,3.191h-1.994   c-0.16-0.348-0.417-1.538-0.625-2.948c-0.234-1.58-0.683-2.093-1.644-2.093H8.119v5.041H6.207V33.257z M8.119,38.688h0.5   c1.156,0,1.878-0.898,1.878-2.13c0-1.2-0.482-1.998-1.734-2.019c-0.242,0-0.489,0.018-0.644,0.072V38.688z"/>
	<path d="M19.928,40.809c0,3.535-1.822,4.548-3.154,4.548c-1.859,0-3.127-1.556-3.127-4.507c0-3.166,1.555-4.547,3.192-4.547   C18.678,36.303,19.928,37.919,19.928,40.809z M15.563,40.819c0,1.476,0.25,3.053,1.272,3.053c0.957,0,1.175-1.73,1.175-3.053   c0-1.271-0.219-3.033-1.211-3.033C15.772,37.786,15.563,39.548,15.563,40.819z"/>
	<path d="M21.366,38.916c0-0.99-0.044-1.693-0.072-2.47h1.676l0.098,1.047h0.036c0.416-0.677,1.121-1.19,2.036-1.19   c0.907,0,1.566,0.424,1.877,1.261h0.036c0.224-0.384,0.542-0.724,0.879-0.939c0.352-0.214,0.769-0.321,1.219-0.321   c1.397,0,2.196,1.073,2.196,3.236v5.673h-1.912v-5.311c0-1.061-0.136-2-0.997-2c-0.49,0-0.887,0.376-1.062,1.025   c-0.044,0.176-0.064,0.434-0.064,0.698v5.587h-1.912v-5.608c0-0.783-0.111-1.702-0.979-1.702c-0.457,0-0.905,0.363-1.067,1.072   c-0.046,0.188-0.077,0.44-0.077,0.7v5.538h-1.912V38.916z"/>
	<path d="M33.12,38.916c0-0.99-0.043-1.693-0.071-2.47h1.676l0.097,1.047h0.036c0.417-0.677,1.121-1.19,2.037-1.19   c0.907,0,1.565,0.424,1.877,1.261h0.036c0.224-0.384,0.542-0.724,0.879-0.939c0.353-0.214,0.77-0.321,1.22-0.321   c1.397,0,2.195,1.073,2.195,3.236v5.673H41.19v-5.311c0-1.061-0.137-2-0.998-2c-0.489,0-0.886,0.376-1.062,1.025   c-0.043,0.176-0.063,0.434-0.063,0.698v5.587h-1.912v-5.608c0-0.783-0.111-1.702-0.979-1.702c-0.456,0-0.904,0.363-1.066,1.072   c-0.047,0.188-0.077,0.44-0.077,0.7v5.538H33.12V38.916z"/>
	<path d="M46.402,41.346c0.021,1.958,0.93,2.491,1.953,2.491c0.641,0,1.183-0.145,1.573-0.312l0.272,1.383   c-0.547,0.258-1.393,0.412-2.194,0.412c-2.26,0-3.473-1.64-3.473-4.353c0-2.901,1.391-4.665,3.262-4.665   c1.844,0,2.772,1.666,2.772,4.016c0,0.5-0.021,0.796-0.051,1.027H46.402z M48.788,39.978c0.015-1.407-0.447-2.243-1.129-2.243   c-0.834,0-1.21,1.215-1.249,2.243H48.788z"/>
	<path d="M51.966,32.752h1.922v12.46h-1.922V32.752z"/>
</g>
<g>
</g>
<g>
</g>
<g>
</g>
<g>
</g>
<g>
</g>
<g>
</g>
</svg>