<!-- Generator: Adobe Illustrator 25.2.3, SVG Export Plug-In . SVG Version: 6.00 Build 0)  --><svg x="0px" enable-background="new 0 0 60 60" y="0px" width="60px" xmlns:xlink="http://www.w3.org/1999/xlink" viewBox="0 0 60 60" height="60px" id="Layer_1" xmlns="http://www.w3.org/2000/svg" xml:space="preserve" version="1.1">
<rect x="0" y="0" display="none" fill="#F8F4B2" width="60" height="60" id="Yellow"/>
<rect x="0" y="0" display="none" fill="#FFFFFF" width="60" height="60" id="White"/>
<rect width="60" fill="#D1E8C6" height="60" id="Green" y="0"/>
<g id="CV">
	<rect fill="none" width="60" height="13.553" y="44.257"/>
	<path d="M24.679,55.879v-0.994l0.84-1.107c1.14-1.505,2.244-2.96,2.244-4.443c0-0.857-0.422-1.416-1.221-1.416   c-0.611,0-1.057,0.294-1.344,0.477l-0.296-1.145c0.372-0.268,1.085-0.588,1.912-0.588c1.777,0,2.427,1.235,2.427,2.57   c0,1.709-1.093,3.207-2.174,4.569l-0.573,0.729v0.028h2.893v1.319H24.679z"/>
	<path d="M34.91,48.077h-2.432l-0.284,1.989c0.102-0.019,0.192-0.019,0.307-0.019c0.435,0.009,1.217,0.207,1.721,0.687   c0.5,0.484,0.78,1.167,0.78,2.09c0,1.787-1.16,3.167-2.985,3.167c-0.608,0-1.276-0.156-1.641-0.381l0.264-1.184   c0.31,0.162,0.791,0.33,1.287,0.33c0.914,0,1.598-0.633,1.598-1.791c0-1.322-0.902-1.819-2.012-1.819c-0.29,0-0.5,0.013-0.684,0.04   l0.542-4.412h3.539V48.077z"/>
</g>
<g id="ID2">
	<rect fill="none" width="60" height="13.553" y="31.704"/>
	<path d="M16.659,33.229h1.7v4.979H18.4c0.206-0.458,0.392-0.91,0.588-1.358l1.695-3.621h1.886l-2.521,4.655l2.572,6.133h-1.864   l-1.855-4.794l-0.542,0.947v3.847h-1.7V33.229z"/>
	<path d="M23.603,33.229h1.708v9.34h2.882v1.448h-4.591V33.229z"/>
	<path d="M34.558,43.735c-0.457,0.189-1.351,0.377-2.086,0.377c-1.105,0-2.018-0.308-2.735-1.059   c-0.861-0.875-1.369-2.418-1.351-4.33c0.037-4.051,2.233-5.592,4.347-5.592c0.756,0,1.327,0.148,1.663,0.315l-0.324,1.474   c-0.3-0.152-0.695-0.254-1.239-0.254c-1.388,0-2.67,1.027-2.67,4.073c0,2.922,1.124,3.919,2.246,3.919   c0.289,0,0.475-0.041,0.568-0.087v-3.014H31.82v-1.403h2.737V43.735z"/>
	<path d="M40.693,35.26h-0.032l-1.749,0.947l-0.304-1.337l2.299-1.258h1.469v10.404h-1.683V35.26z"/>
</g>
<g id="ID1">
	<rect width="60" x="0" fill="none" height="13.553" y="17.151"/>
	<path d="M25.06,19.059v1.09l-3.316,9.314h-1.663l3.241-8.864v-0.032h-3.637v-1.508H25.06z"/>
	<path d="M25.46,30.104l3.614-11.557h1.167l-3.614,11.557H25.46z"/>
	<path d="M32.735,18.675v10.788h-1.708V18.675H32.735z"/>
	<path d="M36.352,18.675v10.788h-1.708V18.675H36.352z"/>
	<path d="M39.968,18.675v10.788H38.26V18.675H39.968z"/>
</g>
<g id="SGSU">
	<rect fill="none" width="60" height="13.553" y="2.597"/>
	<path d="M15.532,13.551c0.453,0.272,1.242,0.483,1.882,0.483c1.184,0,1.831-0.693,1.831-1.686c0-0.981-0.597-1.533-1.59-2.218   c-1.342-0.859-2.287-2.068-2.287-3.38c0-1.897,1.289-3.394,3.554-3.394c0.782,0,1.489,0.232,1.812,0.44l-0.357,1.649   c-0.329-0.216-0.843-0.414-1.499-0.414c-1.091,0-1.611,0.742-1.611,1.472c0,0.94,0.485,1.368,1.721,2.166   c1.542,0.998,2.155,2.176,2.155,3.48c0,2.17-1.563,3.559-3.732,3.559c-0.913,0-1.823-0.258-2.201-0.507L15.532,13.551z"/>
	<path d="M29.015,15.286C28.5,15.5,27.496,15.71,26.668,15.71c-1.244,0-2.27-0.347-3.077-1.191c-0.969-0.984-1.54-2.72-1.52-4.871   c0.041-4.557,2.512-6.29,4.889-6.29c0.851,0,1.494,0.168,1.872,0.355l-0.365,1.657c-0.337-0.172-0.782-0.285-1.394-0.285   c-1.561,0-3.003,1.155-3.003,4.582c0,3.286,1.265,4.408,2.527,4.408c0.325,0,0.534-0.047,0.64-0.099v-3.39h-1.301V9.009h3.08   V15.286z"/>
	<path d="M30.562,13.551c0.453,0.272,1.242,0.483,1.881,0.483c1.185,0,1.831-0.693,1.831-1.686c0-0.981-0.598-1.533-1.59-2.218   c-1.342-0.859-2.287-2.068-2.287-3.38c0-1.897,1.289-3.394,3.554-3.394c0.782,0,1.488,0.232,1.812,0.44l-0.357,1.649   c-0.329-0.216-0.844-0.414-1.499-0.414c-1.092,0-1.611,0.742-1.611,1.472c0,0.94,0.484,1.368,1.722,2.166   c1.542,0.998,2.154,2.176,2.154,3.48c0,2.17-1.562,3.559-3.731,3.559c-0.912,0-1.823-0.258-2.201-0.507L30.562,13.551z"/>
	<path d="M39.532,3.466v7.996c0,1.967,0.618,2.598,1.379,2.598c0.832,0,1.401-0.624,1.401-2.598V3.466h1.922v7.67   c0,3.139-1.235,4.61-3.329,4.61c-2.216,0-3.295-1.503-3.295-4.522V3.466H39.532z"/>
</g>
<g>
</g>
<g>
</g>
<g>
</g>
<g>
</g>
<g>
</g>
<g>
</g>
</svg>