<!-- Generator: Adobe Illustrator 25.2.3, SVG Export Plug-In . SVG Version: 6.00 Build 0)  --><svg x="0px" enable-background="new 0 0 60 60" y="0px" width="60px" xmlns:xlink="http://www.w3.org/1999/xlink" viewBox="0 0 60 60" height="60px" id="Layer_1" xmlns="http://www.w3.org/2000/svg" xml:space="preserve" version="1.1">
<rect width="60" fill="#D1E8C5" x="0" height="60" id="UnitColor" y="-0.085"/>
<rect width="60" fill="#F7EC13" height="20.189" id="CS_2_" y="11.533"/>
<g id="Gar" display="none">
	<rect width="14.843" fill="none" x="0.73" height="8.039" y="2.802" display="inline"/>
	<path d="M11.03,10.06c-0.472,0.163-1.361,0.379-2.249,0.379c-1.231,0-2.119-0.308-2.739-0.903   C5.424,8.949,5.085,8.072,5.089,7.083C5.097,4.842,6.73,3.567,8.936,3.567c0.87,0,1.539,0.165,1.873,0.323L10.49,5.111   C10.117,4.95,9.664,4.825,8.922,4.825c-1.27,0-2.235,0.714-2.235,2.18c0,1.391,0.878,2.205,2.125,2.205   c0.344,0,0.623-0.04,0.745-0.095V7.699H8.516V6.512h2.514V10.06z" display="inline"/>
</g>
<g id="Eng" display="none">
	<rect width="27.832" fill="none" x="1.1" height="8.039" y="2.802" display="inline"/>
	<path d="M17.011,7.521h-2.479v1.602h2.771v1.248h-4.294V3.634h4.15v1.248h-2.626v1.403h2.479V7.521z" display="inline"/>
</g>
<g id="P2">
	<path d="M19.024,28.186c0.472-1.148,0.803-2.149,0.992-3.001c0.282-1.24,0.423-2.417,0.423-3.534c0-1.066-0.099-2.078-0.295-3.035   c-0.197-0.957-0.575-2.146-1.135-3.568h1.146c0.628,1.03,1.101,2.092,1.419,3.186c0.319,1.094,0.478,2.185,0.478,3.274   c0,1.094-0.159,2.218-0.476,3.374s-0.786,2.257-1.407,3.305H19.024z"/>
</g>
<g id="P1">
	<path d="M8.327,28.186H7.182c-0.605-1.025-1.071-2.111-1.396-3.257s-0.487-2.257-0.487-3.333c0-1.162,0.163-2.296,0.489-3.401   c0.326-1.105,0.795-2.154,1.408-3.148h1.146c-0.56,1.422-0.938,2.611-1.135,3.568c-0.197,0.957-0.295,1.969-0.295,3.035   c0,1.103,0.139,2.27,0.416,3.5C7.522,26.016,7.855,27.028,8.327,28.186z"/>
</g>
<g id="Type">
	<path d="M53.265,12.893v17.022H26.785V12.893H53.265z M28.204,15.139v12.53l10.443-6.265L28.204,15.139z M50.468,14.312H29.583   l10.443,6.265L50.468,14.312z M29.583,28.497h20.885l-10.442-6.265L29.583,28.497z M41.404,21.404l10.441,6.265v-12.53   L41.404,21.404z"/>
</g>
<g id="STK">
	<path d="M9.839,27.611v-1.345l1.388-1.292c2.753-2.546,4.052-3.949,4.066-5.496c0-1.058-0.562-1.97-2.091-1.97   c-1.036,0-1.914,0.524-2.499,0.975l-0.649-1.574c0.841-0.67,2.121-1.199,3.593-1.199c2.595,0,3.865,1.631,3.865,3.545   c0,2.059-1.479,3.712-3.525,5.602l-1.013,0.888v0.036h4.796v1.831H9.839z"/>
</g>
<g id="ECH">
	<rect width="27.832" x="26.078" fill="none" height="8.039" y="2.802"/>
	<path d="M34.227,3.727c0.401-0.078,1.203-0.146,1.966-0.146c0.929,0,1.5,0.092,1.992,0.378c0.472,0.251,0.803,0.71,0.803,1.328   c0,0.593-0.347,1.151-1.105,1.433v0.025c0.769,0.202,1.341,0.789,1.341,1.651c0,0.617-0.284,1.099-0.701,1.431   c-0.494,0.396-1.307,0.613-2.648,0.613c-0.75,0-1.305-0.05-1.646-0.1V3.727z M35.736,6.306h0.494c0.807,0,1.228-0.335,1.228-0.836   c0-0.512-0.388-0.781-1.076-0.781c-0.333,0-0.521,0.021-0.646,0.047V6.306z M35.736,9.286c0.146,0.024,0.327,0.027,0.584,0.027   c0.691,0,1.3-0.268,1.3-0.977c0-0.675-0.604-0.944-1.363-0.944h-0.521V9.286z"/>
	<path d="M45.892,10.059c-0.472,0.163-1.361,0.379-2.249,0.379c-1.23,0-2.118-0.308-2.738-0.903   c-0.618-0.586-0.956-1.463-0.952-2.452c0.008-2.241,1.641-3.516,3.846-3.516c0.87,0,1.54,0.165,1.873,0.323L45.353,5.11   c-0.374-0.161-0.827-0.286-1.567-0.286c-1.27,0-2.235,0.714-2.235,2.179c0,1.392,0.878,2.206,2.125,2.206   c0.345,0,0.623-0.04,0.745-0.095V7.698h-1.041V6.511h2.513V10.059z"/>
</g>
<g id="PF">
	<rect width="60" x="0" fill="none" height="15.475" y="44.525"/>
	<path d="M29.696,52.494v0.939H27.71v-0.939H29.696z"/>
	<path d="M32.285,52.494v0.939H30.3v-0.939H32.285z"/>
</g>
<g id="Des">
	<rect width="60" x="0" fill="none" height="14.525" y="31.722"/>
	<path d="M8.962,43.161c0.453,0.272,1.242,0.483,1.882,0.483c1.184,0,1.831-0.693,1.831-1.686c0-0.981-0.597-1.533-1.59-2.218   c-1.342-0.859-2.287-2.068-2.287-3.38c0-1.897,1.289-3.394,3.554-3.394c0.782,0,1.489,0.232,1.812,0.44l-0.357,1.649   c-0.329-0.216-0.843-0.414-1.499-0.414c-1.091,0-1.611,0.742-1.611,1.472c0,0.94,0.485,1.368,1.721,2.166   c1.542,0.998,2.155,2.176,2.155,3.48c0,2.17-1.563,3.559-3.732,3.559c-0.913,0-1.823-0.258-2.201-0.507L8.962,43.161z"/>
	<path d="M20.63,45.031c-0.271,0.145-0.828,0.289-1.476,0.289c-2.082,0-3.465-1.541-3.465-4.422c0-2.625,1.452-4.575,3.775-4.575   c0.517,0,1.021,0.126,1.26,0.255l-0.293,1.524c-0.19-0.078-0.507-0.196-0.929-0.196c-1.251,0-1.896,1.34-1.896,2.954   c0,1.792,0.723,2.884,1.897,2.884c0.355,0,0.656-0.069,0.937-0.208L20.63,45.031z"/>
	<path d="M21.663,32.752h1.922v4.62h0.036c0.2-0.306,0.46-0.563,0.751-0.753c0.326-0.198,0.714-0.316,1.175-0.316   c1.386,0,2.154,1.152,2.154,3.372v5.537H25.78v-5.473c0-0.95-0.196-1.817-1.01-1.817c-0.505,0-0.915,0.335-1.108,1.083   c-0.036,0.164-0.077,0.452-0.077,0.658v5.549h-1.922V32.752z"/>
	<path d="M30.62,36.446l0.632,4.005c0.144,0.949,0.296,1.857,0.381,2.722h0.062c0.134-0.864,0.327-1.848,0.513-2.686l0.878-4.041   h1.483l0.834,3.938c0.204,0.985,0.379,1.878,0.508,2.789h0.051c0.086-0.87,0.22-1.783,0.382-2.758l0.67-3.969h1.909l-2.234,8.766   h-1.619l-0.814-3.591c-0.193-0.831-0.342-1.692-0.463-2.692h-0.036c-0.132,1.023-0.313,1.895-0.512,2.723l-0.879,3.561h-1.642   l-2.147-8.766H30.62z"/>
	<path d="M39.998,38.916c0-0.812-0.044-1.725-0.072-2.47h1.681l0.098,1.322h0.057c0.339-0.889,1.064-1.466,1.78-1.466   c0.187,0,0.292,0.01,0.408,0.03v1.922c-0.118-0.021-0.244-0.021-0.411-0.021c-0.665,0-1.334,0.556-1.539,1.505   c-0.049,0.211-0.08,0.507-0.08,0.841v4.632h-1.921V38.916z"/>
	<path d="M44.9,38.916c0-0.99-0.043-1.693-0.071-2.47h1.665l0.098,1.031h0.036c0.416-0.702,1.154-1.175,2.072-1.175   c1.461,0,2.239,1.135,2.239,3.167v5.742h-1.922v-5.559c0-0.876-0.186-1.731-1.022-1.731c-0.478,0-0.905,0.366-1.075,1.072   c-0.057,0.193-0.098,0.477-0.098,0.798v5.42H44.9V38.916z"/>
</g>
<g>
</g>
<g>
</g>
<g>
</g>
<g>
</g>
<g>
</g>
<g>
</g>
</svg>