<!-- Generator: Adobe Illustrator 25.2.3, SVG Export Plug-In . SVG Version: 6.00 Build 0)  --><svg x="0px" enable-background="new 0 0 60 60" y="0px" width="60px" xmlns:xlink="http://www.w3.org/1999/xlink" viewBox="0 0 60 60" height="60px" id="Layer_1" xmlns="http://www.w3.org/2000/svg" xml:space="preserve" version="1.1">
<rect width="60" fill="#D1E8C5" x="0" height="60" id="UnitColor" y="-0.085"/>
<rect width="60" fill="#F7EC13" height="20.189" id="CS_2_" y="11.533" display="none"/>
<g id="Gar" display="none">
	<rect width="14.843" fill="none" x="0.73" height="8.039" y="2.802" display="inline"/>
	<path d="M11.03,10.06c-0.472,0.163-1.361,0.379-2.249,0.379c-1.231,0-2.119-0.308-2.739-0.903   C5.424,8.949,5.085,8.072,5.089,7.083C5.097,4.842,6.73,3.567,8.936,3.567c0.87,0,1.539,0.165,1.873,0.323L10.49,5.111   C10.117,4.95,9.664,4.825,8.922,4.825c-1.27,0-2.235,0.714-2.235,2.18c0,1.391,0.878,2.205,2.125,2.205   c0.344,0,0.623-0.04,0.745-0.095V7.699H8.516V6.512h2.514V10.06z" display="inline"/>
</g>
<g id="Eng" display="none">
	<rect width="27.832" fill="none" x="1.1" height="8.039" y="2.802" display="inline"/>
	<path d="M17.011,7.521h-2.479v1.602h2.771v1.248h-4.294V3.634h4.15v1.248h-2.626v1.403h2.479V7.521z" display="inline"/>
</g>
<g id="P2" display="none">
	<path d="M19.024,28.186c0.472-1.148,0.803-2.149,0.992-3.001c0.282-1.24,0.423-2.417,0.423-3.534   c0-1.066-0.099-2.078-0.295-3.035c-0.197-0.957-0.575-2.146-1.135-3.568h1.146c0.628,1.03,1.101,2.092,1.419,3.186   c0.319,1.094,0.478,2.185,0.478,3.274c0,1.094-0.159,2.218-0.476,3.374s-0.786,2.257-1.407,3.305H19.024z" display="inline"/>
</g>
<g id="P1" display="none">
	<path d="M8.327,28.186H7.182c-0.605-1.025-1.071-2.111-1.396-3.257s-0.487-2.257-0.487-3.333   c0-1.162,0.163-2.296,0.489-3.401c0.326-1.105,0.795-2.154,1.408-3.148h1.146c-0.56,1.422-0.938,2.611-1.135,3.568   c-0.197,0.957-0.295,1.969-0.295,3.035c0,1.103,0.139,2.27,0.416,3.5C7.522,26.016,7.855,27.028,8.327,28.186z" display="inline"/>
</g>
<g id="Type">
	<path d="M53.265,12.893v17.022H26.785V12.893H53.265z M40.025,20.577l10.442-6.265H34.536v2.972L40.025,20.577z M38.646,21.404   l-4.11-2.466v4.933L38.646,21.404z M34.536,26.052c0.001-0.192,0.026-0.378,0.057-0.562l-0.057,0.034V26.052z M34.536,28.497h0.969   c-0.594-0.631-0.964-1.475-0.969-2.408V28.497z M35.955,26.071c0,0.001,0,0.001,0,0.002c0.001,1.175,0.953,2.128,2.129,2.127   c1.175-0.001,2.128-0.953,2.127-2.129c-0.001-1.175-0.954-2.128-2.129-2.127C36.908,23.946,35.957,24.897,35.955,26.071z    M41.627,26.071c0,0.001,0,0.001,0,0.002c0,0.94-0.372,1.789-0.97,2.424h9.811l-10.442-6.265l-0.822,0.493   C40.608,23.195,41.627,24.508,41.627,26.071z M51.846,20.65v-5.512l-10.441,6.265l4.337,2.603c-0.131-0.37-0.215-0.76-0.215-1.174   c0-1.958,1.588-3.545,3.545-3.545C50.201,19.287,51.197,19.826,51.846,20.65z M49.071,24.959c1.175,0,2.127-0.953,2.127-2.127   c0-1.175-0.952-2.127-2.127-2.127c-1.174,0.002-2.125,0.953-2.127,2.127C46.944,24.006,47.897,24.959,49.071,24.959z    M49.604,26.323l2.242,1.346v-2.654C51.302,25.706,50.513,26.185,49.604,26.323z"/>
</g>
<g id="STK">
	<path d="M13.307,17.911h-0.036l-2.139,1.074l-0.386-1.671l2.857-1.406h1.847v11.703h-2.144V17.911z"/>
</g>
<g id="ECH">
	<rect width="27.832" x="26.078" fill="none" height="8.039" y="2.802"/>
	<path d="M39.33,3.634v6.736h-1.523V3.634H39.33z"/>
	<path d="M42.18,3.634v6.736h-1.522V3.634H42.18z"/>
</g>
<g id="PF">
	<rect width="60" x="0" fill="none" height="15.475" y="44.525"/>
	<path d="M16.99,49.086c0.412-0.084,0.931-0.13,1.43-0.13c0.716,0,1.363,0.105,1.796,0.502c0.408,0.372,0.535,0.822,0.535,1.4   c0,0.722-0.353,1.365-1.039,1.683v0.021c0.457,0.185,0.689,0.607,0.817,1.335c0.131,0.746,0.312,1.581,0.431,1.826h-1.368   c-0.084-0.187-0.236-0.867-0.338-1.612c-0.115-0.838-0.329-1.074-0.764-1.074h-0.196v2.687H16.99V49.086z M18.295,52.026h0.238   c0.569,0,0.893-0.464,0.893-1.048c0-0.577-0.228-0.982-0.813-0.998c-0.117,0-0.245,0.01-0.318,0.04V52.026z"/>
	<path d="M23.782,55.723L23.71,55.24h-0.022c-0.267,0.378-0.647,0.562-1.081,0.562c-0.739,0-1.288-0.618-1.288-1.485   c0-1.285,1.13-1.809,2.235-1.819V52.39c0-0.387-0.225-0.668-0.688-0.668c-0.39,0-0.703,0.105-0.995,0.285l-0.238-0.882   c0.271-0.155,0.837-0.374,1.52-0.374c1.485,0,1.729,1.042,1.729,2.033v1.819c0,0.39,0.016,0.788,0.072,1.119H23.782z    M23.594,53.341c-0.433,0.008-1.037,0.156-1.037,0.837c0,0.482,0.271,0.662,0.473,0.662c0.213,0,0.446-0.125,0.536-0.421   c0.02-0.062,0.028-0.142,0.028-0.224V53.341z"/>
	<path d="M25.806,52.303c0-0.534-0.022-1.006-0.04-1.472h1.139l0.067,0.57h0.02c0.251-0.363,0.662-0.65,1.166-0.65   c0.547,0,0.9,0.253,1.066,0.669h0.02c0.122-0.191,0.306-0.375,0.5-0.495c0.198-0.114,0.433-0.174,0.683-0.174   c0.874,0,1.265,0.694,1.265,1.869v3.103h-1.304v-2.882c0-0.554-0.063-1.003-0.455-1.003c-0.23,0-0.404,0.158-0.493,0.442   c-0.022,0.073-0.038,0.209-0.038,0.348v3.095h-1.305v-3.064c0-0.356-0.035-0.82-0.445-0.82c-0.201,0-0.399,0.145-0.489,0.439   c-0.028,0.087-0.052,0.228-0.052,0.369v3.076h-1.305V52.303z"/>
	<path d="M35.319,55.638c-0.135,0.065-0.46,0.145-0.835,0.145c-1.239,0-2.048-0.857-2.048-2.456c0-1.515,0.889-2.56,2.245-2.56   c0.309,0,0.588,0.07,0.715,0.131l-0.172,1.025c-0.107-0.036-0.271-0.089-0.487-0.089c-0.631,0-1,0.6-1,1.451   c0,0.885,0.375,1.432,0.984,1.432c0.188,0,0.348-0.034,0.49-0.103L35.319,55.638z"/>
	<path d="M37.137,52.974h0.021c0.09-0.281,0.164-0.483,0.246-0.68l0.631-1.463h1.416l-1.188,2.05l1.251,2.842h-1.46l-0.693-2.007   l-0.224,0.422v1.585h-1.305v-6.916h1.305V52.974z"/>
	<path d="M40.953,53.743c0.017,0.763,0.457,1.045,1.036,1.045c0.373,0,0.694-0.08,0.933-0.166l0.171,0.937   c-0.332,0.136-0.848,0.224-1.341,0.224c-1.333,0-2.065-0.879-2.065-2.407c0-1.645,0.856-2.624,1.957-2.624   c1.052,0,1.666,0.83,1.666,2.311c0,0.35-0.016,0.542-0.039,0.682H40.953z M42.117,52.826c0.004-0.628-0.162-1.12-0.552-1.12   c-0.426,0-0.6,0.626-0.609,1.12H42.117z"/>
</g>
<g id="Des">
	<rect width="60" x="0" fill="none" height="14.525" y="31.722"/>
	<path d="M18.228,45.212l-2.737-12.136h2.104l1.007,5.445c0.242,1.332,0.541,2.934,0.724,4.411h0.052   c0.167-1.495,0.428-3.056,0.678-4.458l0.979-5.398h2.085l-2.793,12.136H18.228z"/>
	<path d="M27.141,33.257c0.65-0.154,1.48-0.234,2.389-0.234c1.111,0,2.144,0.186,2.892,0.849c0.594,0.521,0.863,1.298,0.863,2.152   c0,1.147-0.612,2.164-1.804,2.667v0.057c1.404,0.392,2.192,1.538,2.192,2.987c0,1.001-0.324,1.799-0.877,2.393   c-0.707,0.784-1.893,1.17-3.639,1.17c-0.893,0-1.553-0.055-2.018-0.129V33.257z M29.052,38.14h0.567c0.979,0,1.77-0.788,1.77-1.9   c0-0.994-0.463-1.762-1.659-1.762c-0.289,0-0.518,0.025-0.677,0.08V38.14z M29.052,43.749c0.16,0.036,0.358,0.052,0.605,0.052   c1.175,0,2.027-0.704,2.027-2.087c0-1.422-0.979-2.127-2.079-2.135h-0.554V43.749z"/>
	<path d="M35.146,38.916c0-0.812-0.044-1.725-0.072-2.47h1.681l0.098,1.322h0.057c0.339-0.889,1.064-1.466,1.78-1.466   c0.187,0,0.292,0.01,0.408,0.03v1.922c-0.118-0.021-0.244-0.021-0.411-0.021c-0.665,0-1.334,0.556-1.539,1.505   c-0.049,0.211-0.08,0.507-0.08,0.841v4.632h-1.921V38.916z"/>
	<path d="M44.507,45.031c-0.271,0.145-0.828,0.289-1.477,0.289c-2.081,0-3.465-1.541-3.465-4.422c0-2.625,1.452-4.575,3.776-4.575   c0.517,0,1.021,0.126,1.26,0.255l-0.293,1.524c-0.19-0.078-0.507-0.196-0.93-0.196c-1.251,0-1.896,1.34-1.896,2.954   c0,1.792,0.724,2.884,1.897,2.884c0.354,0,0.656-0.069,0.937-0.208L44.507,45.031z"/>
</g>
<g>
</g>
<g>
</g>
<g>
</g>
<g>
</g>
<g>
</g>
<g>
</g>
</svg>