<svg width="60" height="60" xmlns="http://www.w3.org/2000/svg" viewBox="0 0 60 60">
  <rect fill="#999" x="15" width="45" height="60"/>
  <g>
    <rect fill="#999" height="60" width="60"/>
    <polygon fill="#666766" points="31.281 30.545 31.281 0 0 0 31.281 30.545" fill-rule="evenodd"/>
    <polygon fill="#666766" points="60 60 60 30 29.277 30 60 60" fill-rule="evenodd"/>
    <rect fill="#666766" x="2.768" width="57.232" height="32.403"/>
    <rect fill="#cccccb" x="2.768" width="54.496" height="54.702" y="2.649"/>
  </g>
  <g>
    <g>
      <path fill="#333" d="M23.073,15.374a4.551,4.551,0,0,1-1.488-.221,2.737,2.737,0,0,1-1.078-.666,2.9,2.9,0,0,1-.66-1.1,4.7,4.7,0,0,1-.226-1.525V7.346a.625.625,0,0,1,.16-.468.752.752,0,0,1,.917,0,.625.625,0,0,1,.16.468v4.488a2.642,2.642,0,0,0,.566,1.848,2.131,2.131,0,0,0,1.649.612,2.126,2.126,0,0,0,1.654-.612,2.661,2.661,0,0,0,.56-1.848V7.346a.553.553,0,0,1,.607-.624.614.614,0,0,1,.452.156.64.64,0,0,1,.155.468v4.512a4.36,4.36,0,0,1-.387,1.938,2.571,2.571,0,0,1-1.149,1.182A4.068,4.068,0,0,1,23.073,15.374Z"/>
      <path fill="#333" d="M28.87,15.35a.581.581,0,0,1-.441-.162.625.625,0,0,1-.155-.449v-4.8a.623.623,0,0,1,.155-.456.675.675,0,0,1,.863,0,.639.639,0,0,1,.149.456v.936l-.131-.216a1.99,1.99,0,0,1,.821-1.014A2.416,2.416,0,0,1,31.417,9.3a2.313,2.313,0,0,1,1.148.257,1.59,1.59,0,0,1,.685.781,3.308,3.308,0,0,1,.226,1.314v3.084a.625.625,0,0,1-.155.449.58.58,0,0,1-.44.162.6.6,0,0,1-.452-.162.625.625,0,0,1-.155-.449V11.726a1.7,1.7,0,0,0-.292-1.1,1.121,1.121,0,0,0-.91-.348,1.532,1.532,0,0,0-1.161.456,1.7,1.7,0,0,0-.434,1.224v2.785A.539.539,0,0,1,28.87,15.35Z"/>
      <path fill="#333" d="M35.726,8.1a.791.791,0,0,1-.554-.18.649.649,0,0,1-.2-.5.651.651,0,0,1,.2-.51.967.967,0,0,1,1.107,0,.645.645,0,0,1,.2.51.643.643,0,0,1-.2.5A.788.788,0,0,1,35.726,8.1Zm0,7.236a.558.558,0,0,1-.44-.174.7.7,0,0,1-.155-.486V10a.681.681,0,0,1,.155-.48.572.572,0,0,1,.44-.168.59.59,0,0,1,.446.168.67.67,0,0,1,.161.48v4.68a.705.705,0,0,1-.155.486A.573.573,0,0,1,35.726,15.338Z"/>
      <path fill="#333" d="M40.5,15.374a2.6,2.6,0,0,1-1.2-.252,1.606,1.606,0,0,1-.726-.744,2.728,2.728,0,0,1-.238-1.2V10.346h-.714a.51.51,0,0,1-.369-.126.454.454,0,0,1-.131-.342.447.447,0,0,1,.131-.347.521.521,0,0,1,.369-.121h.714V8.175a.6.6,0,0,1,.161-.456.614.614,0,0,1,.446-.157.593.593,0,0,1,.44.157.62.62,0,0,1,.155.456V9.41h1.393a.523.523,0,0,1,.369.121.447.447,0,0,1,.131.347.454.454,0,0,1-.131.342.511.511,0,0,1-.369.126H39.535v2.736a1.479,1.479,0,0,0,.268.96,1.07,1.07,0,0,0,.875.324,1.491,1.491,0,0,0,.375-.042,2.3,2.3,0,0,1,.268-.054.279.279,0,0,1,.214.091.514.514,0,0,1,.083.341.867.867,0,0,1-.065.336.34.34,0,0,1-.232.2,2.722,2.722,0,0,1-.387.09A2.6,2.6,0,0,1,40.5,15.374Z"/>
    </g>
    <g>
      <path fill="#333" d="M21.326,53.708a.6.6,0,0,1-.458-.168.65.65,0,0,1-.161-.468V45.716a.648.648,0,0,1,.161-.474.728.728,0,0,1,.916,0,.644.644,0,0,1,.161.474v7.356a.666.666,0,0,1-.155.468A.6.6,0,0,1,21.326,53.708Z"/>
      <path fill="#333" d="M24.361,53.708a.58.58,0,0,1-.44-.162.621.621,0,0,1-.155-.45V48.3a.618.618,0,0,1,.155-.456.675.675,0,0,1,.863,0,.637.637,0,0,1,.149.456v.936l-.131-.216A1.99,1.99,0,0,1,25.623,48a2.414,2.414,0,0,1,1.286-.342,2.316,2.316,0,0,1,1.148.258,1.592,1.592,0,0,1,.685.78,3.314,3.314,0,0,1,.226,1.314V53.1a.626.626,0,0,1-.155.45.58.58,0,0,1-.44.162.6.6,0,0,1-.453-.162.625.625,0,0,1-.154-.45V50.084a1.708,1.708,0,0,0-.292-1.1,1.122,1.122,0,0,0-.91-.348,1.527,1.527,0,0,0-1.161.456,1.7,1.7,0,0,0-.435,1.224V53.1A.539.539,0,0,1,24.361,53.708Z"/>
      <path fill="#333" d="M31.575,53.708a.6.6,0,0,1-.447-.162.615.615,0,0,1-.16-.45V48.7H30.3a.492.492,0,0,1-.357-.126.52.52,0,0,1,0-.69.507.507,0,0,1,.357-.12h1.012l-.345.324V47.66a2.491,2.491,0,0,1,.583-1.794,2.621,2.621,0,0,1,1.7-.714l.369-.024a.455.455,0,0,1,.321.06.375.375,0,0,1,.155.216.572.572,0,0,1,.007.27.544.544,0,0,1-.125.246.349.349,0,0,1-.239.12l-.226.013a1.54,1.54,0,0,0-1.024.4,1.47,1.47,0,0,0-.321,1.038v.468L32,47.768h1.322a.525.525,0,0,1,.375.12.539.539,0,0,1,0,.69.509.509,0,0,1-.375.126H32.17V53.1A.533.533,0,0,1,31.575,53.708Z"/>
      <path fill="#333" d="M37.11,53.732a2.957,2.957,0,0,1-1.518-.372A2.567,2.567,0,0,1,34.6,52.3a3.43,3.43,0,0,1-.357-1.608,3.668,3.668,0,0,1,.2-1.26,2.789,2.789,0,0,1,.578-.954,2.469,2.469,0,0,1,.9-.612,3.19,3.19,0,0,1,1.185-.21,2.935,2.935,0,0,1,1.506.372,2.589,2.589,0,0,1,.994,1.05,3.421,3.421,0,0,1,.357,1.614,3.709,3.709,0,0,1-.2,1.26,2.7,2.7,0,0,1-.577.96,2.483,2.483,0,0,1-.905.606A3.151,3.151,0,0,1,37.11,53.732Zm0-.936a1.529,1.529,0,0,0,.857-.24,1.585,1.585,0,0,0,.577-.708,2.828,2.828,0,0,0,.208-1.152,2.34,2.34,0,0,0-.452-1.56,1.49,1.49,0,0,0-1.19-.528,1.586,1.586,0,0,0-.869.234,1.54,1.54,0,0,0-.577.7,2.827,2.827,0,0,0-.209,1.152,2.367,2.367,0,0,0,.453,1.56A1.488,1.488,0,0,0,37.11,52.8Z"/>
    </g>
  </g>
  <g>
    <rect fill="#333" x="18.98" width="22.051" height="6.219" y="26.858"/>
    <rect fill="#333" x="18.969" width="22.051" height="6.219" y="26.892" transform="translate(-0.007 59.996) rotate(-90)"/>
    <rect fill="#333" x="34.779" width="0.325" height="6.205" y="18.936"/>
    <rect fill="#333" x="37.728" width="0.325" height="6.205" y="21.935" transform="translate(12.853 62.928) rotate(-90)"/>
    <rect fill="#333" x="21.909" width="0.325" height="6.205" y="21.95" transform="translate(-2.981 47.124) rotate(-90)"/>
    <rect fill="#333" x="24.908" width="0.325" height="6.205" y="19.001" transform="translate(50.14 44.207) rotate(-180)"/>
    <rect fill="#333" x="24.883" width="0.325" height="6.205" y="34.859" transform="translate(50.091 75.923) rotate(-180)"/>
    <rect fill="#333" x="21.934" width="0.325" height="6.205" y="31.86" transform="translate(57.059 12.866) rotate(90)"/>
    <rect fill="#333" x="37.755" width="0.325" height="6.205" y="31.849" transform="translate(72.869 -2.967) rotate(90)"/>
    <rect fill="#333" x="34.757" width="0.325" height="6.205" y="34.797"/>
  </g>
</svg>