<svg width="60" height="60" xmlns="http://www.w3.org/2000/svg" viewBox="0 0 60 60">
  <rect fill="#cccccb" height="60" width="60"/>
  <g>
    <g>
      <path d="M14.581,8.958H12.4V7.2h6.285V8.958H16.5V19.331H14.581Z" transform="translate(0)"/>
      <path d="M20.393,15.465c.02,1.958.929,2.491,1.953,2.491a4.041,4.041,0,0,0,1.573-.311l.272,1.382A5.56,5.56,0,0,1,22,19.439c-2.26,0-3.473-1.639-3.473-4.352,0-2.9,1.39-4.665,3.262-4.665,1.843,0,2.773,1.666,2.773,4.016a7.629,7.629,0,0,1-.052,1.027ZM22.777,14.1c.016-1.408-.446-2.243-1.128-2.243-.834,0-1.21,1.214-1.249,2.243Z" transform="translate(0)"/>
      <path d="M25.956,13.035c0-.99-.044-1.693-.072-2.47H27.56l.1,1.047h.036a2.374,2.374,0,0,1,2.036-1.19,1.85,1.85,0,0,1,1.877,1.261h.037a2.844,2.844,0,0,1,.879-.94,2.329,2.329,0,0,1,1.219-.321c1.4,0,2.2,1.073,2.2,3.236v5.673H34.025v-5.31c0-1.061-.136-2-1-2-.489,0-.886.375-1.061,1.025a3.131,3.131,0,0,0-.065.7v5.587H29.991V13.723c0-.784-.111-1.7-.979-1.7-.457,0-.906.363-1.067,1.072a3.023,3.023,0,0,0-.077.7v5.538H25.956Z" transform="translate(0)"/>
      <path d="M37.7,13.322c0-1.184-.044-2.022-.072-2.757h1.681l.1,1.061h.036a2.02,2.02,0,0,1,1.847-1.2c1.742,0,2.63,1.88,2.63,4.511,0,3.182-1.356,4.543-2.787,4.543a1.676,1.676,0,0,1-1.485-.925h-.036v4.237H37.7Zm1.911,2.8a2.359,2.359,0,0,0,.1.732c.222.855.673,1.034.99,1.034.971,0,1.3-1.381,1.3-2.931,0-1.737-.419-2.91-1.3-2.91-.485,0-.921.539-1.014,1.125a2.29,2.29,0,0,0-.079.643Z" transform="translate(0)"/>
      <path d="M44.83,18.15A1.251,1.251,0,0,1,46,16.808a1.2,1.2,0,0,1,1.163,1.342,1.18,1.18,0,0,1-1.173,1.326A1.21,1.21,0,0,1,44.83,18.15Z" transform="translate(0)"/>
    </g>
    <g>
      <path d="M11.85,24.044a10.476,10.476,0,0,1,2.315-.234,4.251,4.251,0,0,1,3.007.887,3.147,3.147,0,0,1,.915,2.453,3.208,3.208,0,0,1-1.906,3.074v.036c.854.306,1.3,1.112,1.544,2.549A18.364,18.364,0,0,0,18.465,36H16.472a16.314,16.314,0,0,1-.625-2.948c-.235-1.58-.683-2.094-1.644-2.094h-.441V36H11.85Zm1.912,5.431h.5a1.912,1.912,0,0,0,1.878-2.13c0-1.2-.482-2-1.734-2.018a2.169,2.169,0,0,0-.644.072Z" transform="translate(0)"/>
      <path d="M21.157,32.134c.021,1.958.93,2.491,1.953,2.491a4.045,4.045,0,0,0,1.574-.312l.272,1.383a5.565,5.565,0,0,1-2.2.412c-2.259,0-3.472-1.639-3.472-4.352,0-2.9,1.39-4.666,3.261-4.666,1.844,0,2.773,1.666,2.773,4.016a7.691,7.691,0,0,1-.051,1.028Zm2.385-1.369c.016-1.407-.447-2.243-1.128-2.243-.834,0-1.21,1.215-1.249,2.243Z" transform="translate(0)"/>
      <path d="M26.713,29.991c0-1.185-.044-2.023-.072-2.757h1.681l.1,1.06h.036a2.022,2.022,0,0,1,1.847-1.2c1.742,0,2.631,1.88,2.631,4.512,0,3.182-1.356,4.543-2.788,4.543a1.674,1.674,0,0,1-1.484-.925h-.036v4.237H26.713Zm1.912,2.8a2.361,2.361,0,0,0,.1.732c.222.855.673,1.034.99,1.034.972,0,1.3-1.381,1.3-2.931,0-1.738-.42-2.911-1.3-2.911-.485,0-.921.539-1.013,1.125a2.261,2.261,0,0,0-.079.644Z" transform="translate(0)"/>
      <path d="M38.1,36l-.114-.893h-.043a2.145,2.145,0,0,1-1.856,1.038,2.335,2.335,0,0,1-2.206-2.593c0-2.252,1.905-3.2,3.888-3.222V30.1c0-.913-.357-1.555-1.31-1.555a2.962,2.962,0,0,0-1.635.487l-.369-1.312a4.886,4.886,0,0,1,2.422-.627c2.257,0,2.834,1.545,2.834,3.41V34a13.518,13.518,0,0,0,.113,2Zm-.28-4.39c-.748.011-2.1.219-2.1,1.744,0,.99.528,1.347.95,1.347a1.164,1.164,0,0,0,1.107-1,1.746,1.746,0,0,0,.047-.445Z" transform="translate(0)"/>
      <path d="M43.475,24.937A1.034,1.034,0,1,1,42.44,23.82,1.027,1.027,0,0,1,43.475,24.937ZM41.5,36V27.234H43.42V36Z" transform="translate(0)"/>
      <path d="M45.18,29.7c0-.812-.043-1.725-.072-2.47h1.681l.1,1.322h.056a2.076,2.076,0,0,1,1.781-1.466,2.1,2.1,0,0,1,.408.031v1.921a2.509,2.509,0,0,0-.411-.02,1.715,1.715,0,0,0-1.539,1.505,3.905,3.905,0,0,0-.08.841V36H45.18Z" transform="translate(0)"/>
    </g>
    <g>
      <path d="M10.068,41.988H15.05v1.668H11.99v3.63h2.867v1.607H11.99v5.231H10.068Z" transform="translate(0)"/>
      <path d="M19.774,54.124l-.112-.893h-.044a2.145,2.145,0,0,1-1.856,1.038,2.335,2.335,0,0,1-2.206-2.593c0-2.252,1.9-3.2,3.887-3.222v-.232c0-.913-.357-1.555-1.309-1.555a2.963,2.963,0,0,0-1.634.486l-.371-1.311a4.877,4.877,0,0,1,2.423-.627c2.256,0,2.834,1.545,2.834,3.41v3.5a13.518,13.518,0,0,0,.113,2Zm-.279-4.39c-.748.011-2.1.219-2.1,1.745,0,.989.527,1.346.95,1.346a1.165,1.165,0,0,0,1.108-1,1.841,1.841,0,0,0,.046-.445Z" transform="translate(0)"/>
      <path d="M27.776,53.943a3.448,3.448,0,0,1-1.476.289c-2.082,0-3.465-1.541-3.465-4.421,0-2.625,1.452-4.576,3.776-4.576a3.01,3.01,0,0,1,1.26.255l-.293,1.525a2.374,2.374,0,0,0-.929-.2c-1.252,0-1.9,1.34-1.9,2.954,0,1.792.724,2.884,1.9,2.884a2.047,2.047,0,0,0,.937-.208Z" transform="translate(0)"/>
      <path d="M30.785,43.062a1.034,1.034,0,1,1-1.035-1.118A1.026,1.026,0,0,1,30.785,43.062ZM28.809,54.124V45.358H30.73v8.766Z" transform="translate(0)"/>
      <path d="M32.5,41.664h1.922v12.46H32.5Z" transform="translate(0)"/>
      <path d="M38.256,43.062a1.034,1.034,0,1,1-1.034-1.118A1.027,1.027,0,0,1,38.256,43.062ZM36.279,54.124V45.358H38.2v8.766Z" transform="translate(0)"/>
      <path d="M42.266,43.011v2.347h1.7v1.394h-1.7V51.3c0,1.073.417,1.346.9,1.346a3.012,3.012,0,0,0,.594-.054l.039,1.5a4.425,4.425,0,0,1-1.256.146,2.1,2.1,0,0,1-1.553-.545,3.133,3.133,0,0,1-.644-2.37V46.752H39.3V45.358h1.049V43.5Z" transform="translate(0)"/>
      <path d="M46.538,45.358l.994,4.777c.127.59.207,1.107.3,1.619h.035c.078-.471.184-1.043.284-1.6l.866-4.8h1.888l-1.629,6.258a13.543,13.543,0,0,1-2.05,5,4.537,4.537,0,0,1-1.809,1.361L44.8,56.322a3.822,3.822,0,0,0,1.2-.894,4.242,4.242,0,0,0,.759-1.237,1.063,1.063,0,0,0,.11-.407,1.027,1.027,0,0,0-.056-.324l-2.319-8.1Z" transform="translate(0)"/>
    </g>
  </g>
</svg>