<svg width="60" height="60" xmlns="http://www.w3.org/2000/svg" viewBox="0 0 60 60">
  <rect fill="#d1e8c6" height="60" width="60"/>
  <g>
    <g>
      <rect fill="#010101" x="22.063" width="15.47" height="2.723" y="49.762"/>
      <rect fill="#010101" x="22.009" width="2.823" height="7.086" y="24.367"/>
      <rect fill="#010101" x="34.717" width="2.823" height="7.086" y="24.493"/>
      <polygon fill="#010101" points="30.515 19.534 29.014 19.503 28.192 27.108 31.219 27.008 30.515 19.534" fill-rule="evenodd"/>
      <polygon fill="#010101" points="2.67 28.84 30.369 26.323 29.614 35.259 2.67 32.114 2.67 28.84" fill-rule="evenodd"/>
      <polygon fill="#010101" points="56.917 28.966 29.218 26.449 29.973 35.385 56.917 32.24 56.917 28.966" fill-rule="evenodd"/>
      <polygon fill="#010101" points="27.827 30.099 31.761 29.864 30.043 53.02 29.507 53.035 27.827 30.099" fill-rule="evenodd"/>
    </g>
    <g>
      <path d="M5.061,8.2H3.142V7.171H8.229V8.2H6.29v5.707H5.061Z" transform="translate(0 0)"/>
      <path d="M9.021,7.261a11.662,11.662,0,0,1,1.859-.14,3.115,3.115,0,0,1,2.078.54,1.7,1.7,0,0,1,.581,1.349,1.8,1.8,0,0,1-1.22,1.689v.03a1.713,1.713,0,0,1,.94,1.3,13.288,13.288,0,0,0,.53,1.879h-1.27a9.467,9.467,0,0,1-.45-1.589c-.19-.88-.509-1.159-1.209-1.179h-.62v2.768H9.021Zm1.219,2.978h.73c.83,0,1.349-.44,1.349-1.109,0-.74-.519-1.08-1.319-1.08a3.607,3.607,0,0,0-.76.06Z" transform="translate(0 0)"/>
      <path d="M16.129,12l-.579,1.909H14.281L16.44,7.171h1.568l2.19,6.736h-1.32L18.268,12Zm1.93-.929-.53-1.659c-.13-.41-.24-.87-.34-1.26h-.02c-.1.39-.2.86-.32,1.26l-.519,1.659Z" transform="translate(0 0)"/>
      <path d="M21.141,13.907V7.171h1.4l1.739,2.889a18.291,18.291,0,0,1,1.149,2.258h.021c-.08-.9-.111-1.769-.111-2.8V7.171h1.14v6.736h-1.27L23.45,10.949A23.456,23.456,0,0,1,22.24,8.62l-.03.01c.05.87.06,1.759.06,2.869v2.408Z" transform="translate(0 0)"/>
      <path d="M27.871,12.568A3.4,3.4,0,0,0,29.5,13c.79,0,1.229-.37,1.229-.92,0-.51-.34-.809-1.2-1.119-1.11-.4-1.82-.99-1.82-1.959,0-1.1.92-1.939,2.379-1.939a3.56,3.56,0,0,1,1.62.34l-.3.989a2.853,2.853,0,0,0-1.34-.32c-.779,0-1.119.42-1.119.81,0,.52.389.76,1.289,1.109,1.17.44,1.74,1.03,1.74,2,0,1.08-.82,2.019-2.56,2.019a3.994,3.994,0,0,1-1.818-.42Z" transform="translate(0 0)"/>
      <path d="M33.092,7.261a10.641,10.641,0,0,1,1.879-.14,3.052,3.052,0,0,1,1.988.549,1.9,1.9,0,0,1,.66,1.49,2.042,2.042,0,0,1-.58,1.529,2.97,2.97,0,0,1-2.129.72,3.564,3.564,0,0,1-.6-.04v2.538H33.092ZM34.311,10.4a2.473,2.473,0,0,0,.6.05c.92,0,1.48-.449,1.48-1.239,0-.75-.52-1.149-1.369-1.149a3.322,3.322,0,0,0-.71.06Z" transform="translate(0 0)"/>
      <path d="M44.658,10.469c0,2.259-1.369,3.548-3.228,3.548a3.113,3.113,0,0,1-3.1-3.428,3.225,3.225,0,0,1,3.2-3.528A3.111,3.111,0,0,1,44.658,10.469Zm-5.027.1c0,1.369.689,2.459,1.869,2.459s1.858-1.1,1.858-2.509c0-1.269-.629-2.469-1.858-2.469S39.631,9.18,39.631,10.569Z" transform="translate(0 0)"/>
      <path d="M45.722,7.261a11.648,11.648,0,0,1,1.858-.14,3.12,3.12,0,0,1,2.079.54,1.7,1.7,0,0,1,.58,1.349A1.8,1.8,0,0,1,49.02,10.7v.03a1.715,1.715,0,0,1,.939,1.3,13.612,13.612,0,0,0,.529,1.879H49.22a9.366,9.366,0,0,1-.45-1.589c-.19-.88-.51-1.159-1.209-1.179H46.94v2.768H45.722Zm1.218,2.978h.73c.83,0,1.35-.44,1.35-1.109,0-.74-.52-1.08-1.32-1.08a3.622,3.622,0,0,0-.76.06Z" transform="translate(0 0)"/>
      <path d="M52.75,8.2H50.831V7.171h5.087V8.2H53.979v5.707H52.75Z" transform="translate(0 0)"/>
    </g>
  </g>
</svg>