<svg width="60" height="60" xmlns="http://www.w3.org/2000/svg" viewBox="0 0 60 60">
  <rect fill="#ffcd34" height="60" width="60"/>
  <g>
    <path d="M20.325,28.038a7.113,7.113,0,0,1-2.346.425A4.017,4.017,0,0,1,14.9,27.271,6.869,6.869,0,0,1,13.382,22.4c.041-4.556,2.512-6.29,4.889-6.29a4.36,4.36,0,0,1,1.872.356l-.365,1.657a3.015,3.015,0,0,0-1.394-.285c-1.561,0-3,1.155-3,4.582,0,3.286,1.265,4.408,2.527,4.408a1.569,1.569,0,0,0,.64-.1V23.34h-1.3V21.762h3.079Z" transform="translate(0 0)"/>
    <path d="M25.826,28.354l-.113-.892h-.044A2.142,2.142,0,0,1,23.813,28.5a2.335,2.335,0,0,1-2.206-2.593c0-2.252,1.905-3.2,3.888-3.221v-.233c0-.913-.357-1.555-1.309-1.555a2.959,2.959,0,0,0-1.635.487l-.37-1.312a4.888,4.888,0,0,1,2.423-.627c2.256,0,2.834,1.545,2.834,3.41v3.5a13.518,13.518,0,0,0,.113,2Zm-.28-4.389c-.748.011-2.1.219-2.1,1.744,0,.989.528,1.347.951,1.347a1.164,1.164,0,0,0,1.107-1,1.8,1.8,0,0,0,.046-.446Z" transform="translate(0 0)"/>
    <path d="M29.227,22.059c0-.991-.044-1.694-.072-2.47h1.676l.1,1.047h.036A2.373,2.373,0,0,1,33,19.445a1.854,1.854,0,0,1,1.878,1.261h.036a2.82,2.82,0,0,1,.879-.939,2.33,2.33,0,0,1,1.22-.322c1.4,0,2.2,1.074,2.2,3.237v5.672H37.3v-5.31c0-1.061-.137-2-1-2-.489,0-.887.376-1.062,1.025a3.147,3.147,0,0,0-.064.7v5.586H33.262V22.746c0-.783-.112-1.7-.98-1.7-.456,0-.9.363-1.066,1.072a3.036,3.036,0,0,0-.077.7v5.538H29.227Z" transform="translate(0 0)"/>
    <path d="M42.509,24.488c.02,1.958.929,2.491,1.953,2.491a4.033,4.033,0,0,0,1.573-.311l.273,1.383a5.562,5.562,0,0,1-2.2.412c-2.259,0-3.472-1.64-3.472-4.353,0-2.9,1.39-4.665,3.261-4.665,1.844,0,2.773,1.666,2.773,4.016a7.838,7.838,0,0,1-.051,1.027ZM44.9,23.12c.014-1.407-.448-2.243-1.129-2.243-.834,0-1.21,1.215-1.249,2.243Z" transform="translate(0 0)"/>
  </g>
  <g>
    <path d="M19.167,33.728H16.99V31.965h6.285v1.763H21.088V44.1H19.167Z" transform="translate(0 0)"/>
    <path d="M29.566,41.553c0,.952.044,1.8.072,2.548H27.973l-.113-.921h-.036a2.387,2.387,0,0,1-1.959,1.065c-1.607,0-2.247-1.214-2.247-3.495V35.335H25.54v5.182c0,1.248.226,2.119,1.012,2.119a1.077,1.077,0,0,0,.985-.857,2.479,2.479,0,0,0,.108-.761V35.335h1.921Z" transform="translate(0 0)"/>
    <path d="M31.362,37.805c0-.812-.044-1.725-.071-2.47h1.681l.1,1.322h.056a1.89,1.89,0,0,1,2.188-1.435v1.922a2.379,2.379,0,0,0-.41-.021,1.715,1.715,0,0,0-1.539,1.505,3.905,3.905,0,0,0-.08.841V44.1H31.362Z" transform="translate(0 0)"/>
    <path d="M36.267,37.805c0-.991-.044-1.694-.073-2.47H37.86l.1,1.031h.036a2.365,2.365,0,0,1,2.073-1.175c1.461,0,2.24,1.135,2.24,3.167V44.1H40.384V38.542c0-.876-.186-1.731-1.024-1.731-.476,0-.9.366-1.074,1.072a2.956,2.956,0,0,0-.1.8V44.1H36.267Z" transform="translate(0 0)"/>
  </g>
</svg>