<svg width="60" height="60" xmlns="http://www.w3.org/2000/svg" viewBox="0 0 60 60">
  <rect fill="#ffcd34" height="60" width="60"/>
  <g>
    <path fill="#231f20" d="M21.824,5.768V8.733h3.134V5.768h1.355v7.415H24.958V9.91H21.824v3.273H20.469V5.768Z" transform="translate(0 0)"/>
    <path fill="#231f20" d="M34.444,9.4c0,2.484-1.505,3.9-3.548,3.9-2.094,0-3.42-1.6-3.42-3.772,0-2.276,1.438-3.886,3.53-3.886C33.169,5.646,34.444,7.281,34.444,9.4Zm-5.538.105c0,1.513.764,2.715,2.059,2.715S33.014,11,33.014,9.451c0-1.4-.7-2.721-2.045-2.721S28.906,7.981,28.906,9.505Z" transform="translate(0 0)"/>
    <path fill="#231f20" d="M36.732,6.905H34.615V5.768h5.611V6.905H38.088v6.278H36.732Z" transform="translate(0 0)"/>
  </g>
  <circle fill="none" stroke-miterlimit="10" r="11.15" cx="30" cy="30" stroke="#231f20"/>
  <g>
    <polygon fill="#231f20" points="30 14.298 27.939 17.867 32.061 17.867 30 14.298"/>
    <polygon fill="#231f20" points="30 45.702 32.061 42.133 27.939 42.133 30 45.702"/>
    <polygon fill="#231f20" points="45.702 29.695 42.133 27.634 42.133 31.756 45.702 29.695"/>
    <polygon fill="#231f20" points="14.298 29.695 17.867 31.756 17.867 27.634 14.298 29.695"/>
  </g>
  <g>
    <polygon fill="#231f20" points="19.005 19.005 20.071 22.986 22.986 20.071 19.005 19.005"/>
    <polygon fill="#231f20" points="41.211 41.211 40.144 37.23 37.23 40.144 41.211 41.211"/>
    <polygon fill="#231f20" points="40.995 18.789 37.014 19.856 39.929 22.77 40.995 18.789"/>
    <polygon fill="#231f20" points="18.789 40.995 22.77 39.929 19.856 37.014 18.789 40.995"/>
  </g>
  <line fill="#231f20" x1="4.808" x2="55.192" y1="52.109" y2="51.814" stroke="#231f20" stroke-miterlimit="10"/>
  <line fill="#231f20" x1="4.808" x2="55.191" y1="50.025" y2="49.73" stroke="#231f20" stroke-miterlimit="10"/>
  <line fill="#231f20" x1="4.772" x2="55.156" y1="47.942" y2="47.647" stroke="#231f20" stroke-miterlimit="10"/>
  <line fill="#231f20" x1="4.808" x2="55.192" y1="54.083" y2="53.788" stroke="#231f20" stroke-miterlimit="10"/>
</svg>