<svg width="60" height="60" xmlns="http://www.w3.org/2000/svg" viewBox="0 0 60 60">
  <rect fill="#999" x="15" width="45" height="60"/>
  <g>
    <rect fill="#999" height="60" width="60"/>
    <polygon fill="#666766" points="31.281 30.545 31.281 0 0 0 31.281 30.545" fill-rule="evenodd"/>
    <polygon fill="#666766" points="60 60 60 30 29.277 30 60 60" fill-rule="evenodd"/>
    <rect fill="#666766" x="2.768" width="57.232" height="32.403"/>
    <rect fill="#cccccb" x="2.768" width="54.496" height="54.702" y="2.649"/>
  </g>
  <g>
    <path fill="#333" d="M5.783,42.1a.624.624,0,0,1-.465-.168.636.636,0,0,1-.166-.467V34.229a.648.648,0,0,1,.161-.474.615.615,0,0,1,.458-.161.616.616,0,0,1,.458.161.648.648,0,0,1,.161.474v6.805h3.69a.56.56,0,0,1,.4.138.514.514,0,0,1,.142.389.542.542,0,0,1-.142.4.55.55,0,0,1-.4.143Z"/>
    <path fill="#333" d="M14.056,42.21a2.955,2.955,0,0,1-1.518-.372,2.567,2.567,0,0,1-.994-1.056,3.43,3.43,0,0,1-.357-1.608,3.644,3.644,0,0,1,.2-1.26,2.78,2.78,0,0,1,.578-.954,2.459,2.459,0,0,1,.9-.613,3.21,3.21,0,0,1,1.185-.21,2.926,2.926,0,0,1,1.506.373,2.593,2.593,0,0,1,.994,1.049,3.437,3.437,0,0,1,.357,1.615,3.707,3.707,0,0,1-.2,1.259,2.7,2.7,0,0,1-.577.96,2.486,2.486,0,0,1-.9.607A3.175,3.175,0,0,1,14.056,42.21Zm0-.937a1.537,1.537,0,0,0,.857-.239,1.59,1.59,0,0,0,.577-.708,2.831,2.831,0,0,0,.208-1.152,2.344,2.344,0,0,0-.452-1.56,1.488,1.488,0,0,0-1.19-.528,1.594,1.594,0,0,0-.869.233,1.553,1.553,0,0,0-.578.7,2.853,2.853,0,0,0-.208,1.153,2.364,2.364,0,0,0,.453,1.559A1.485,1.485,0,0,0,14.056,41.273Z"/>
    <path fill="#333" d="M20.816,42.21a3.009,3.009,0,0,1-1.541-.378,2.577,2.577,0,0,1-1.006-1.069,3.494,3.494,0,0,1-.357-1.626,3.68,3.68,0,0,1,.2-1.253,2.6,2.6,0,0,1,.578-.943,2.561,2.561,0,0,1,.916-.594,3.339,3.339,0,0,1,1.208-.21,3.3,3.3,0,0,1,.875.126,2.575,2.575,0,0,1,.852.415.424.424,0,0,1,.2.234.557.557,0,0,1,.012.281.476.476,0,0,1-.131.246.4.4,0,0,1-.244.12.485.485,0,0,1-.31-.078,2.025,2.025,0,0,0-.583-.294,2,2,0,0,0-.571-.09,1.931,1.931,0,0,0-.756.138,1.507,1.507,0,0,0-.553.4,1.658,1.658,0,0,0-.34.641,3.128,3.128,0,0,0-.113.876,2.365,2.365,0,0,0,.458,1.542,1.593,1.593,0,0,0,1.3.559,2.139,2.139,0,0,0,.571-.084,1.907,1.907,0,0,0,.583-.288.467.467,0,0,1,.31-.073.394.394,0,0,1,.232.126.532.532,0,0,1,.119.241.526.526,0,0,1-.018.282.445.445,0,0,1-.2.239,2.5,2.5,0,0,1-.827.4A3.328,3.328,0,0,1,20.816,42.21Z"/>
    <path fill="#333" d="M25.626,42.21a2.408,2.408,0,0,1-1.089-.24,1.916,1.916,0,0,1-.756-.648,1.618,1.618,0,0,1-.274-.925,1.509,1.509,0,0,1,.328-1.025,1.92,1.92,0,0,1,1.083-.54,10.088,10.088,0,0,1,2.041-.162h.56v.744h-.548a8.587,8.587,0,0,0-1.357.084,1.337,1.337,0,0,0-.708.282.717.717,0,0,0-.209.546.946.946,0,0,0,.31.737,1.22,1.22,0,0,0,.857.282,1.428,1.428,0,0,0,.774-.209,1.527,1.527,0,0,0,.53-.571,1.7,1.7,0,0,0,.2-.827V38.357a1.393,1.393,0,0,0-.286-.983,1.253,1.253,0,0,0-.94-.3,3.425,3.425,0,0,0-.792.1,3.687,3.687,0,0,0-.851.324.519.519,0,0,1-.345.059.367.367,0,0,1-.226-.162.513.513,0,0,1-.089-.275.559.559,0,0,1,.071-.294.479.479,0,0,1,.268-.217,4.5,4.5,0,0,1,1.036-.359,4.668,4.668,0,0,1,.963-.109,3.006,3.006,0,0,1,1.316.252,1.616,1.616,0,0,1,.768.769,3.074,3.074,0,0,1,.249,1.332v3.084a.656.656,0,0,1-.142.449.524.524,0,0,1-.417.162.545.545,0,0,1-.417-.162.623.623,0,0,1-.154-.449v-.78h.107a1.8,1.8,0,0,1-.351.761,1.685,1.685,0,0,1-.637.487A2.152,2.152,0,0,1,25.626,42.21Z"/>
    <path fill="#333" d="M32.637,42.21a2.6,2.6,0,0,1-1.2-.252,1.6,1.6,0,0,1-.726-.744,2.736,2.736,0,0,1-.238-1.2V37.181h-.715a.513.513,0,0,1-.369-.126.453.453,0,0,1-.131-.341.448.448,0,0,1,.131-.348.529.529,0,0,1,.369-.12h.715V35.01a.551.551,0,0,1,.607-.613.592.592,0,0,1,.44.156.624.624,0,0,1,.155.457v1.236h1.392a.53.53,0,0,1,.37.12.448.448,0,0,1,.13.348.452.452,0,0,1-.13.341.514.514,0,0,1-.37.126H31.673v2.737a1.481,1.481,0,0,0,.267.96,1.075,1.075,0,0,0,.875.324,1.527,1.527,0,0,0,.375-.042,2.181,2.181,0,0,1,.269-.055.278.278,0,0,1,.213.091.512.512,0,0,1,.084.342.857.857,0,0,1-.066.336.343.343,0,0,1-.231.2,3.052,3.052,0,0,1-.388.09A2.69,2.69,0,0,1,32.637,42.21Z"/>
    <path fill="#333" d="M35.208,34.937a.791.791,0,0,1-.554-.179.755.755,0,0,1,0-1.015.967.967,0,0,1,1.107,0,.752.752,0,0,1,0,1.015A.788.788,0,0,1,35.208,34.937Zm0,7.237a.561.561,0,0,1-.44-.174.705.705,0,0,1-.155-.487V36.834a.684.684,0,0,1,.155-.481.572.572,0,0,1,.44-.168.592.592,0,0,1,.446.168.672.672,0,0,1,.161.481v4.679A.71.71,0,0,1,35.66,42,.577.577,0,0,1,35.208,42.174Z"/>
    <path fill="#333" d="M40.029,42.21a2.957,2.957,0,0,1-1.518-.372,2.567,2.567,0,0,1-.994-1.056,3.43,3.43,0,0,1-.357-1.608,3.668,3.668,0,0,1,.2-1.26,2.78,2.78,0,0,1,.578-.954,2.459,2.459,0,0,1,.9-.613,3.21,3.21,0,0,1,1.185-.21,2.926,2.926,0,0,1,1.506.373,2.586,2.586,0,0,1,.994,1.049,3.425,3.425,0,0,1,.357,1.615,3.707,3.707,0,0,1-.2,1.259,2.7,2.7,0,0,1-.577.96A2.486,2.486,0,0,1,41.2,42,3.171,3.171,0,0,1,40.029,42.21Zm0-.937a1.537,1.537,0,0,0,.857-.239,1.59,1.59,0,0,0,.577-.708,2.831,2.831,0,0,0,.208-1.152,2.338,2.338,0,0,0-.452-1.56,1.487,1.487,0,0,0-1.19-.528,1.594,1.594,0,0,0-.869.233,1.545,1.545,0,0,0-.577.7,2.836,2.836,0,0,0-.209,1.153,2.364,2.364,0,0,0,.453,1.559A1.485,1.485,0,0,0,40.029,41.273Z"/>
    <path fill="#333" d="M44.826,42.185a.577.577,0,0,1-.441-.162.623.623,0,0,1-.155-.449v-4.8a.625.625,0,0,1,.155-.456.678.678,0,0,1,.863,0,.64.64,0,0,1,.149.456v.937l-.131-.216a2,2,0,0,1,.821-1.015,2.426,2.426,0,0,1,1.286-.342,2.32,2.32,0,0,1,1.149.258,1.6,1.6,0,0,1,.684.781,3.311,3.311,0,0,1,.226,1.314v3.084a.623.623,0,0,1-.155.449.576.576,0,0,1-.44.162.592.592,0,0,1-.452-.162.623.623,0,0,1-.155-.449V38.561a1.7,1.7,0,0,0-.291-1.1,1.122,1.122,0,0,0-.911-.349,1.528,1.528,0,0,0-1.161.456,1.7,1.7,0,0,0-.434,1.225v2.784A.539.539,0,0,1,44.826,42.185Z"/>
    <path fill="#333" d="M53.123,42.21a5.079,5.079,0,0,1-1.078-.12,3.186,3.186,0,0,1-1.018-.409.6.6,0,0,1-.214-.24.477.477,0,0,1-.041-.269.444.444,0,0,1,.106-.241.39.39,0,0,1,.227-.126.448.448,0,0,1,.292.061,3.369,3.369,0,0,0,.892.365,3.589,3.589,0,0,0,.845.1,1.633,1.633,0,0,0,.952-.229.71.71,0,0,0,.322-.611.593.593,0,0,0-.214-.486,1.559,1.559,0,0,0-.643-.27L52.42,39.51a2.125,2.125,0,0,1-1.119-.552,1.4,1.4,0,0,1-.381-1.008,1.586,1.586,0,0,1,.3-.96,1.91,1.91,0,0,1,.833-.631,3.233,3.233,0,0,1,1.238-.222,3.6,3.6,0,0,1,.988.132,3.031,3.031,0,0,1,.857.4.4.4,0,0,1,.2.221.483.483,0,0,1-.106.5.37.37,0,0,1-.233.12.522.522,0,0,1-.3-.065,2.563,2.563,0,0,0-1.405-.421,1.572,1.572,0,0,0-.946.235.743.743,0,0,0-.316.629.67.67,0,0,0,.191.493,1.16,1.16,0,0,0,.595.276l1.131.228a2.376,2.376,0,0,1,1.172.528,1.311,1.311,0,0,1,.4,1.008,1.535,1.535,0,0,1-.655,1.307A2.865,2.865,0,0,1,53.123,42.21Z"/>
  </g>
  <g>
    <path fill="#333" d="M4.393,27.391a.6.6,0,0,1-.458-.168.648.648,0,0,1-.161-.467V19.4a.644.644,0,0,1,.161-.473.612.612,0,0,1,.458-.163.613.613,0,0,1,.458.163.639.639,0,0,1,.161.473v7.357a.663.663,0,0,1-.155.467A.6.6,0,0,1,4.393,27.391Z"/>
    <path fill="#333" d="M7.452,27.391a.578.578,0,0,1-.44-.162.621.621,0,0,1-.155-.449v-4.8a.619.619,0,0,1,.155-.456.675.675,0,0,1,.863,0,.639.639,0,0,1,.148.456v.984l-.13-.264a2.1,2.1,0,0,1,.737-1,2,2,0,0,1,1.2-.359,1.879,1.879,0,0,1,1.178.347,1.805,1.805,0,0,1,.619,1.069h-.167a2.024,2.024,0,0,1,.774-1.039,2.194,2.194,0,0,1,1.274-.377,2.1,2.1,0,0,1,1.1.257,1.575,1.575,0,0,1,.643.781,3.473,3.473,0,0,1,.214,1.314V26.78a.607.607,0,0,1-.161.449.6.6,0,0,1-.446.162.58.58,0,0,1-.44-.162.625.625,0,0,1-.155-.449V23.756a1.865,1.865,0,0,0-.256-1.093.973.973,0,0,0-.839-.348,1.281,1.281,0,0,0-1.036.456,1.908,1.908,0,0,0-.381,1.261V26.78a.625.625,0,0,1-.155.449.58.58,0,0,1-.44.162.6.6,0,0,1-.446-.162.611.611,0,0,1-.161-.449V23.756a1.9,1.9,0,0,0-.25-1.093.956.956,0,0,0-.834-.348,1.263,1.263,0,0,0-1.029.456,1.929,1.929,0,0,0-.375,1.261V26.78A.539.539,0,0,1,7.452,27.391Z"/>
    <path fill="#333" d="M17.737,29.552A.594.594,0,0,1,17.3,29.4a.621.621,0,0,1-.154-.456v-6.96a.623.623,0,0,1,.154-.456.581.581,0,0,1,.429-.156.6.6,0,0,1,.44.156.623.623,0,0,1,.155.456v1.044l-.131-.252a1.881,1.881,0,0,1,.75-1.038,2.25,2.25,0,0,1,1.321-.389A2.369,2.369,0,0,1,22.5,22.76a3.785,3.785,0,0,1,.315,1.619,3.854,3.854,0,0,1-.315,1.614,2.406,2.406,0,0,1-.887,1.057,2.461,2.461,0,0,1-1.357.365,2.262,2.262,0,0,1-1.309-.383,1.853,1.853,0,0,1-.75-1.021h.143v2.928a.608.608,0,0,1-.161.456A.614.614,0,0,1,17.737,29.552Zm2.226-3.073a1.475,1.475,0,0,0,1.44-.947,2.907,2.907,0,0,0,.2-1.153,2.359,2.359,0,0,0-.446-1.559,1.489,1.489,0,0,0-1.2-.529,1.594,1.594,0,0,0-.863.234,1.5,1.5,0,0,0-.578.7,2.905,2.905,0,0,0-.2,1.152,2.373,2.373,0,0,0,.452,1.56A1.476,1.476,0,0,0,19.963,26.479Z"/>
    <path fill="#333" d="M26.7,27.415a2.955,2.955,0,0,1-1.518-.372,2.558,2.558,0,0,1-.994-1.055,3.434,3.434,0,0,1-.357-1.609,3.648,3.648,0,0,1,.2-1.26,2.8,2.8,0,0,1,.578-.954,2.469,2.469,0,0,1,.9-.612,3.19,3.19,0,0,1,1.185-.209,2.935,2.935,0,0,1,1.506.372,2.593,2.593,0,0,1,.994,1.049,3.426,3.426,0,0,1,.357,1.614,3.7,3.7,0,0,1-.2,1.26,2.7,2.7,0,0,1-.577.96,2.471,2.471,0,0,1-.905.606A3.154,3.154,0,0,1,26.7,27.415Zm0-.936a1.537,1.537,0,0,0,.857-.239,1.59,1.59,0,0,0,.577-.708,2.833,2.833,0,0,0,.208-1.153,2.342,2.342,0,0,0-.452-1.559,1.492,1.492,0,0,0-1.19-.529,1.586,1.586,0,0,0-.869.234,1.548,1.548,0,0,0-.578.7,2.848,2.848,0,0,0-.208,1.152,2.367,2.367,0,0,0,.453,1.56A1.485,1.485,0,0,0,26.7,26.479Z"/>
    <path fill="#333" d="M31.508,27.391a.6.6,0,0,1-.452-.162.625.625,0,0,1-.155-.449v-4.8a.623.623,0,0,1,.155-.456.675.675,0,0,1,.863,0,.639.639,0,0,1,.149.456v.876h-.119a1.893,1.893,0,0,1,.7-1.092,2.5,2.5,0,0,1,1.309-.432.441.441,0,0,1,.34.108.533.533,0,0,1,.137.372.511.511,0,0,1-.107.4.58.58,0,0,1-.405.174l-.226.024a1.8,1.8,0,0,0-1.179.493,1.592,1.592,0,0,0-.405,1.151V26.78a.64.64,0,0,1-.148.449A.6.6,0,0,1,31.508,27.391Z"/>
    <path fill="#333" d="M38.139,27.415a2.6,2.6,0,0,1-1.2-.252,1.606,1.606,0,0,1-.726-.744,2.726,2.726,0,0,1-.238-1.2V22.387h-.714a.51.51,0,0,1-.369-.126.452.452,0,0,1-.131-.342.447.447,0,0,1,.131-.347.521.521,0,0,1,.369-.121h.714V20.216a.6.6,0,0,1,.161-.456.614.614,0,0,1,.446-.157.594.594,0,0,1,.441.157.62.62,0,0,1,.154.456v1.235h1.393a.521.521,0,0,1,.369.121.447.447,0,0,1,.131.347.452.452,0,0,1-.131.342.51.51,0,0,1-.369.126H37.174v2.736a1.479,1.479,0,0,0,.268.96,1.071,1.071,0,0,0,.875.324,1.491,1.491,0,0,0,.375-.042,2.3,2.3,0,0,1,.268-.054.279.279,0,0,1,.214.091.508.508,0,0,1,.083.341.867.867,0,0,1-.065.336.34.34,0,0,1-.232.2,2.722,2.722,0,0,1-.387.09A2.6,2.6,0,0,1,38.139,27.415Z"/>
    <path fill="#333" d="M41.864,27.415a2.424,2.424,0,0,1-1.089-.239,1.93,1.93,0,0,1-.756-.648,1.617,1.617,0,0,1-.273-.925,1.515,1.515,0,0,1,.327-1.026,1.926,1.926,0,0,1,1.083-.54,10.168,10.168,0,0,1,2.041-.162h.56v.744H43.21a8.71,8.71,0,0,0-1.357.084,1.357,1.357,0,0,0-.709.283.715.715,0,0,0-.208.546.95.95,0,0,0,.309.737,1.227,1.227,0,0,0,.857.283,1.429,1.429,0,0,0,.774-.21,1.534,1.534,0,0,0,.53-.571,1.694,1.694,0,0,0,.2-.827V23.563a1.4,1.4,0,0,0-.286-.984,1.256,1.256,0,0,0-.94-.3,3.462,3.462,0,0,0-.791.095,3.787,3.787,0,0,0-.852.324.528.528,0,0,1-.345.061.373.373,0,0,1-.226-.163.522.522,0,0,1-.089-.275.556.556,0,0,1,.071-.294.479.479,0,0,1,.268-.217,4.55,4.55,0,0,1,1.036-.36,4.669,4.669,0,0,1,.964-.107,3.02,3.02,0,0,1,1.315.251,1.616,1.616,0,0,1,.768.769,3.055,3.055,0,0,1,.25,1.332V26.78a.658.658,0,0,1-.143.449.525.525,0,0,1-.416.162.549.549,0,0,1-.417-.162.625.625,0,0,1-.155-.449V26h.107a1.774,1.774,0,0,1-.351.762,1.662,1.662,0,0,1-.637.486A2.135,2.135,0,0,1,41.864,27.415Z"/>
    <path fill="#333" d="M47,27.391a.581.581,0,0,1-.441-.162.625.625,0,0,1-.155-.449v-4.8a.623.623,0,0,1,.155-.456.675.675,0,0,1,.863,0,.639.639,0,0,1,.149.456v.936l-.131-.216a1.99,1.99,0,0,1,.821-1.014,2.416,2.416,0,0,1,1.286-.341,2.313,2.313,0,0,1,1.148.257,1.59,1.59,0,0,1,.685.781A3.308,3.308,0,0,1,51.6,23.7V26.78a.625.625,0,0,1-.155.449.58.58,0,0,1-.44.162.6.6,0,0,1-.452-.162.625.625,0,0,1-.155-.449V23.767a1.7,1.7,0,0,0-.292-1.1,1.121,1.121,0,0,0-.91-.348,1.532,1.532,0,0,0-1.161.456A1.7,1.7,0,0,0,47.6,24V26.78A.539.539,0,0,1,47,27.391Z"/>
    <path fill="#333" d="M55.732,27.415a2.6,2.6,0,0,1-1.2-.252,1.606,1.606,0,0,1-.726-.744,2.741,2.741,0,0,1-.238-1.2V22.387h-.714a.51.51,0,0,1-.369-.126.452.452,0,0,1-.131-.342.447.447,0,0,1,.131-.347.521.521,0,0,1,.369-.121h.714V20.216a.606.606,0,0,1,.161-.456.614.614,0,0,1,.446-.157.594.594,0,0,1,.441.157.62.62,0,0,1,.155.456v1.235H56.16a.521.521,0,0,1,.369.121.444.444,0,0,1,.131.347.448.448,0,0,1-.131.342.51.51,0,0,1-.369.126H54.768v2.736a1.479,1.479,0,0,0,.267.96,1.071,1.071,0,0,0,.875.324,1.491,1.491,0,0,0,.375-.042,2.34,2.34,0,0,1,.268-.054.279.279,0,0,1,.214.091.507.507,0,0,1,.084.341.85.85,0,0,1-.066.336.338.338,0,0,1-.232.2,2.689,2.689,0,0,1-.387.09A2.6,2.6,0,0,1,55.732,27.415Z"/>
  </g>
</svg>