<!-- Generator: Adobe Illustrator 25.2.3, SVG Export Plug-In . SVG Version: 6.00 Build 0)  --><svg x="0px" enable-background="new 0 0 60 60" y="0px" width="60px" xmlns:xlink="http://www.w3.org/1999/xlink" viewBox="0 0 60 60" height="60px" id="Layer_1" xmlns="http://www.w3.org/2000/svg" xml:space="preserve" version="1.1">
<rect width="60" fill="#640D0D" x="-0.012" height="60" id="UnitColor_2_" y="-0.085"/>
<rect width="60" fill="#EE1E3A" height="20.189" id="CS_2_" y="11.533" display="none"/>
<g id="Gar" display="none">
	<rect width="14.843" fill="none" x="0.73" height="8.039" y="2.802" display="inline"/>
	<path fill="#FFFFFF" d="M11.03,10.06c-0.472,0.163-1.361,0.379-2.249,0.379c-1.231,0-2.119-0.308-2.739-0.903   C5.424,8.949,5.085,8.072,5.089,7.083C5.097,4.842,6.73,3.567,8.936,3.567c0.87,0,1.539,0.165,1.873,0.323L10.49,5.111   C10.117,4.95,9.664,4.825,8.922,4.825c-1.27,0-2.235,0.714-2.235,2.18c0,1.391,0.878,2.205,2.125,2.205   c0.344,0,0.623-0.04,0.745-0.095V7.699H8.516V6.512h2.514V10.06z" display="inline"/>
</g>
<g id="Eng" display="none">
	<rect width="27.832" fill="none" x="1.1" height="8.039" y="2.802" display="inline"/>
	<path fill="#FFFFFF" d="M17.011,7.521h-2.479v1.602h2.771v1.248h-4.294V3.634h4.15v1.248h-2.626v1.403h2.479   V7.521z" display="inline"/>
</g>
<g id="P2" display="none">
	<path fill="#FFFFFF" d="M19.024,28.186c0.472-1.148,0.803-2.149,0.992-3.001c0.282-1.24,0.423-2.417,0.423-3.534   c0-1.066-0.099-2.078-0.295-3.035c-0.197-0.957-0.575-2.146-1.135-3.568h1.146c0.628,1.03,1.101,2.092,1.419,3.186   c0.319,1.094,0.478,2.185,0.478,3.274c0,1.094-0.159,2.218-0.476,3.374s-0.786,2.257-1.407,3.305H19.024z" display="inline"/>
</g>
<g id="P1" display="none">
	<path fill="#FFFFFF" d="M8.327,28.186H7.182c-0.605-1.025-1.071-2.111-1.396-3.257s-0.487-2.257-0.487-3.333   c0-1.162,0.163-2.296,0.489-3.401c0.326-1.105,0.795-2.154,1.408-3.148h1.146c-0.56,1.422-0.938,2.611-1.135,3.568   c-0.197,0.957-0.295,1.969-0.295,3.035c0,1.103,0.139,2.27,0.416,3.5C7.522,26.016,7.855,27.028,8.327,28.186z" display="inline"/>
</g>
<g id="Type">
	<path fill="#FFFFFF" d="M53.265,12.893v17.022H26.785V12.893H53.265z M28.204,15.139v12.53l10.443-6.265L28.204,15.139z    M50.468,14.312H29.583l10.443,6.265L50.468,14.312z M29.583,28.497h20.885l-10.442-6.265L29.583,28.497z M41.404,21.404   l10.441,6.265v-12.53L41.404,21.404z"/>
</g>
<g id="STK">
	<path fill="#FFFFFF" d="M13.307,17.911h-0.036l-2.139,1.074l-0.386-1.671l2.857-1.406h1.847v11.703h-2.144V17.911z"/>
</g>
<g id="ECH">
	<rect width="27.832" x="26.078" fill="none" height="8.039" y="2.802"/>
	<path fill="#FFFFFF" d="M39.33,3.634v6.736h-1.523V3.634H39.33z"/>
	<path fill="#FFFFFF" d="M42.18,3.634v6.736h-1.522V3.634H42.18z"/>
</g>
<g id="PF">
	<rect width="60" x="0" fill="none" height="15.475" y="44.525"/>
	<path fill="#FFFFFF" d="M19.674,50.459h-0.02l-1.101,0.565l-0.221-1.026l1.489-0.771h1.147v6.496h-1.295V50.459z"/>
	<path fill="#FFFFFF" d="M23.934,50.459h-0.02l-1.101,0.565l-0.221-1.026l1.489-0.771h1.147v6.496h-1.295V50.459z"/>
	<path fill="#FFFFFF" d="M26.184,56.122l2.344-7.216h0.852l-2.344,7.216H26.184z"/>
	<path fill="#FFFFFF" d="M31.543,55.723V54.17h-2.229v-0.896l2.125-4.047h1.266v3.896h0.645v1.048h-0.645v1.553H31.543z    M31.543,53.122v-1.329c0-0.344,0.036-0.725,0.066-1.07h-0.032c-0.149,0.359-0.282,0.654-0.458,1.013l-0.69,1.367v0.02H31.543z"/>
	<path fill="#FFFFFF" d="M36.947,48.986v6.736h-1.312v-6.736H36.947z"/>
	<path fill="#FFFFFF" d="M37.99,52.303c0-0.534-0.022-1.006-0.04-1.472h1.13l0.067,0.565h0.021c0.251-0.39,0.676-0.646,1.186-0.646   c0.928,0,1.302,0.741,1.302,1.835v3.137h-1.312v-3.062c0-0.412-0.096-0.808-0.481-0.808c-0.217,0-0.399,0.15-0.491,0.439   c-0.036,0.099-0.067,0.263-0.067,0.452v2.978H37.99V52.303z"/>
</g>
<g id="Des">
	<rect width="60" x="0" fill="none" height="14.525" y="31.722"/>
	<path fill="#FFFFFF" d="M7.649,35.361H7.613l-1.967,1.065l-0.342-1.503l2.587-1.415h1.652v11.703H7.649V35.361z"/>
	<path fill="#FFFFFF" d="M11.538,45.933l4.065-13h1.312l-4.065,13H11.538z"/>
	<path fill="#FFFFFF" d="M22.83,34.945c-0.26,0.011-0.558,0.046-0.902,0.118c-1.728,0.402-2.5,1.995-2.79,3.614h0.057   c0.435-0.605,1.06-1.017,1.884-1.017c1.532,0,2.592,1.401,2.592,3.613c0,2.128-1.034,4.082-3.136,4.082   c-2.139,0-3.336-1.987-3.336-4.8c0-2.427,0.727-4.171,1.732-5.372c0.738-0.906,1.867-1.499,2.857-1.702   c0.467-0.085,0.822-0.1,1.043-0.118V34.945z M21.761,41.321c-0.01-1.341-0.461-2.249-1.309-2.249c-0.467,0-0.938,0.314-1.209,0.995   c-0.057,0.129-0.111,0.432-0.111,0.884c0.008,1.92,0.578,2.982,1.389,2.982C21.304,43.934,21.761,43.004,21.761,41.321z"/>
	<path fill="#FFFFFF" d="M25.143,33.257c0.671-0.16,1.511-0.234,2.315-0.234c1.247,0,2.292,0.216,3.007,0.887   c0.676,0.641,0.915,1.451,0.915,2.453c0,1.414-0.679,2.506-1.906,3.074v0.036c0.854,0.306,1.297,1.111,1.544,2.548   c0.255,1.486,0.546,2.777,0.741,3.191h-1.994c-0.16-0.348-0.417-1.538-0.625-2.948c-0.234-1.58-0.683-2.093-1.644-2.093h-0.441   v5.041h-1.912V33.257z M27.055,38.688h0.5c1.156,0,1.878-0.898,1.878-2.13c0-1.2-0.482-1.998-1.734-2.019   c-0.242,0-0.489,0.018-0.644,0.072V38.688z"/>
	<path fill="#FFFFFF" d="M36.739,45.212l-0.113-0.893h-0.043c-0.438,0.676-1.088,1.037-1.856,1.037   c-1.257,0-2.206-1.055-2.206-2.593c0-2.252,1.905-3.204,3.888-3.222V39.31c0-0.913-0.356-1.555-1.31-1.555   c-0.627,0-1.159,0.183-1.635,0.486l-0.369-1.312c0.432-0.272,1.354-0.627,2.422-0.627c2.257,0,2.834,1.545,2.834,3.41v3.503   c0,0.682,0.021,1.415,0.113,1.996H36.739z M36.46,40.822c-0.748,0.011-2.104,0.219-2.104,1.744c0,0.989,0.528,1.347,0.95,1.347   c0.482,0,0.945-0.327,1.107-1.003c0.036-0.137,0.047-0.294,0.047-0.445V40.822z"/>
	<path fill="#FFFFFF" d="M38.641,47.291c0.406-0.074,0.869-0.193,1.157-0.566c0.327-0.407,0.412-1.053,0.412-2.53v-7.748h1.922   v8.169c0,1.9-0.347,2.793-1.04,3.415c-0.594,0.521-1.562,0.768-2.271,0.783L38.641,47.291z M42.196,34.149   c0.011,0.66-0.434,1.107-1.055,1.107c-0.567,0-1.017-0.447-1.007-1.107c-0.01-0.683,0.46-1.117,1.035-1.117   C41.763,33.032,42.196,33.467,42.196,34.149z"/>
	<path fill="#FFFFFF" d="M44.062,33.257c0.67-0.16,1.511-0.234,2.314-0.234c1.247,0,2.293,0.216,3.007,0.887   c0.676,0.641,0.915,1.451,0.915,2.453c0,1.414-0.679,2.506-1.906,3.074v0.036c0.854,0.306,1.297,1.111,1.544,2.548   c0.255,1.486,0.546,2.777,0.741,3.191h-1.994c-0.159-0.348-0.417-1.538-0.625-2.948c-0.234-1.58-0.683-2.093-1.644-2.093h-0.441   v5.041h-1.911V33.257z M45.973,38.688h0.5c1.156,0,1.878-0.898,1.878-2.13c0-1.2-0.481-1.998-1.734-2.019   c-0.242,0-0.489,0.018-0.644,0.072V38.688z"/>
	<path fill="#FFFFFF" d="M52.218,45.212V37.84H51.07v-1.394h1.147v-0.433c0-0.973,0.18-1.909,0.848-2.621   c0.515-0.554,1.242-0.784,1.943-0.784c0.55,0,0.971,0.09,1.269,0.205l-0.247,1.502c-0.183-0.072-0.427-0.132-0.743-0.132   c-0.878,0-1.147,0.858-1.147,1.789v0.474h1.556v1.394H54.14v7.372H52.218z"/>
</g>
<g>
</g>
<g>
</g>
<g>
</g>
<g>
</g>
<g>
</g>
<g>
</g>
</svg>