<!-- Generator: Adobe Illustrator 25.2.3, SVG Export Plug-In . SVG Version: 6.00 Build 0)  --><svg x="0px" enable-background="new 0 0 60 60" y="0px" width="60px" xmlns:xlink="http://www.w3.org/1999/xlink" viewBox="0 0 60 60" height="60px" id="Layer_1" xmlns="http://www.w3.org/2000/svg" xml:space="preserve" version="1.1">
<rect width="60" fill="#640D0D" x="-0.012" height="60" id="UnitColor_2_" y="-0.085"/>
<rect width="60" fill="#EE1E3A" height="20.189" id="CS_2_" y="11.533" display="none"/>
<g id="Gar" display="none">
	<rect width="14.843" fill="none" x="0.73" height="8.039" y="2.802" display="inline"/>
	<path fill="#FFFFFF" d="M11.03,10.06c-0.472,0.163-1.361,0.379-2.249,0.379c-1.231,0-2.119-0.308-2.739-0.903   C5.424,8.949,5.085,8.072,5.089,7.083C5.097,4.842,6.73,3.567,8.936,3.567c0.87,0,1.539,0.165,1.873,0.323L10.49,5.111   C10.117,4.95,9.664,4.825,8.922,4.825c-1.27,0-2.235,0.714-2.235,2.18c0,1.391,0.878,2.205,2.125,2.205   c0.344,0,0.623-0.04,0.745-0.095V7.699H8.516V6.512h2.514V10.06z" display="inline"/>
</g>
<g id="Eng" display="none">
	<rect width="27.832" fill="none" x="1.1" height="8.039" y="2.802" display="inline"/>
	<path fill="#FFFFFF" d="M17.011,7.521h-2.479v1.602h2.771v1.248h-4.294V3.634h4.15v1.248h-2.626v1.403h2.479   V7.521z" display="inline"/>
</g>
<g id="P2" display="none">
	<path fill="#FFFFFF" d="M19.024,28.186c0.472-1.148,0.803-2.149,0.992-3.001c0.282-1.24,0.423-2.417,0.423-3.534   c0-1.066-0.099-2.078-0.295-3.035c-0.197-0.957-0.575-2.146-1.135-3.568h1.146c0.628,1.03,1.101,2.092,1.419,3.186   c0.319,1.094,0.478,2.185,0.478,3.274c0,1.094-0.159,2.218-0.476,3.374s-0.786,2.257-1.407,3.305H19.024z" display="inline"/>
</g>
<g id="P1" display="none">
	<path fill="#FFFFFF" d="M8.327,28.186H7.182c-0.605-1.025-1.071-2.111-1.396-3.257s-0.487-2.257-0.487-3.333   c0-1.162,0.163-2.296,0.489-3.401c0.326-1.105,0.795-2.154,1.408-3.148h1.146c-0.56,1.422-0.938,2.611-1.135,3.568   c-0.197,0.957-0.295,1.969-0.295,3.035c0,1.103,0.139,2.27,0.416,3.5C7.522,26.016,7.855,27.028,8.327,28.186z" display="inline"/>
</g>
<g id="Type">
	<path fill="#FFFFFF" d="M53.265,12.893v17.022H26.785V12.893H53.265z M28.204,15.139v12.53l10.443-6.265L28.204,15.139z    M50.468,14.312H29.583l10.443,6.265L50.468,14.312z M29.583,28.497h20.885l-10.442-6.265L29.583,28.497z M41.404,21.404   l10.441,6.265v-12.53L41.404,21.404z"/>
</g>
<g id="STK">
	<path fill="#FFFFFF" d="M13.307,17.911h-0.036l-2.139,1.074l-0.386-1.671l2.857-1.406h1.847v11.703h-2.144V17.911z"/>
</g>
<g id="ECH">
	<rect width="27.832" x="26.078" fill="none" height="8.039" y="2.802"/>
	<path fill="#FFFFFF" d="M39.33,3.634v6.736h-1.523V3.634H39.33z"/>
	<path fill="#FFFFFF" d="M42.18,3.634v6.736h-1.522V3.634H42.18z"/>
</g>
<g id="PF">
	<rect width="60" x="0" fill="none" height="15.475" y="44.525"/>
	<path fill="#FFFFFF" d="M23.664,50.365h-1.722l-0.151,1.164c0.066-0.006,0.128-0.006,0.199-0.006   c0.279,0.008,0.849,0.138,1.224,0.489c0.363,0.348,0.563,0.841,0.563,1.495c0,1.262-0.839,2.295-2.262,2.295   c-0.462,0-0.961-0.116-1.221-0.261l0.199-1.035c0.241,0.117,0.577,0.223,0.929,0.223c0.646,0,1.063-0.41,1.063-1.101   c0-0.875-0.657-1.166-1.407-1.166c-0.183,0-0.333,0.004-0.469,0.023l0.363-3.26h2.69V50.365z"/>
	<path fill="#FFFFFF" d="M24.054,56.122l2.344-7.216h0.852l-2.344,7.216H24.054z"/>
	<path fill="#FFFFFF" d="M29.414,55.723V54.17h-2.229v-0.896l2.125-4.047h1.266v3.896h0.645v1.048h-0.645v1.553H29.414z    M29.414,53.122v-1.329c0-0.344,0.036-0.725,0.065-1.07h-0.032c-0.15,0.359-0.282,0.654-0.458,1.013l-0.69,1.367v0.02H29.414z"/>
	<path fill="#FFFFFF" d="M34.817,48.986v6.736h-1.312v-6.736H34.817z"/>
	<path fill="#FFFFFF" d="M35.86,52.303c0-0.534-0.022-1.006-0.04-1.472h1.131l0.066,0.565h0.021c0.251-0.39,0.676-0.646,1.186-0.646   c0.928,0,1.302,0.741,1.302,1.835v3.137h-1.312v-3.062c0-0.412-0.096-0.808-0.481-0.808c-0.217,0-0.399,0.15-0.491,0.439   c-0.036,0.099-0.067,0.263-0.067,0.452v2.978H35.86V52.303z"/>
</g>
<g id="Des">
	<rect width="60" x="0" fill="none" height="14.525" y="31.722"/>
	<path fill="#FFFFFF" d="M13.76,35.361h-0.036l-1.967,1.065l-0.342-1.503l2.587-1.415h1.652v11.703H13.76V35.361z"/>
	<path fill="#FFFFFF" d="M21.714,33.257c0.671-0.16,1.511-0.234,2.315-0.234c1.247,0,2.292,0.216,3.007,0.887   c0.676,0.641,0.916,1.451,0.916,2.453c0,1.414-0.68,2.506-1.907,3.074v0.036c0.854,0.306,1.297,1.111,1.544,2.548   c0.255,1.486,0.545,2.777,0.74,3.191h-1.994c-0.16-0.348-0.417-1.538-0.625-2.948c-0.234-1.58-0.683-2.093-1.644-2.093h-0.441   v5.041h-1.912V33.257z M23.625,38.688h0.5c1.156,0,1.878-0.898,1.878-2.13c0-1.2-0.482-1.998-1.734-2.019   c-0.242,0-0.489,0.018-0.644,0.072V38.688z"/>
	<path fill="#FFFFFF" d="M29.688,33.076h4.982v1.668h-3.06v3.63h2.866v1.606H31.61v5.231h-1.922V33.076z"/>
	<path fill="#FFFFFF" d="M36.041,43.396c0.329,0.208,0.931,0.461,1.512,0.461c0.686,0,1.105-0.366,1.105-1.003   c0-0.549-0.255-0.91-1.068-1.423c-1.303-0.776-1.777-1.619-1.777-2.51c0-1.51,1.101-2.619,2.681-2.619c0.71,0,1.26,0.2,1.682,0.427   l-0.394,1.419c-0.334-0.211-0.728-0.373-1.198-0.373c-0.664,0-0.991,0.44-0.991,0.912c0,0.478,0.213,0.75,1.055,1.286   c1.166,0.696,1.787,1.56,1.787,2.654c0,1.782-1.247,2.692-2.896,2.692c-0.688,0-1.485-0.198-1.876-0.505L36.041,43.396z"/>
	<path fill="#FFFFFF" d="M41.732,32.752h1.922v12.46h-1.922V32.752z"/>
	<path fill="#FFFFFF" d="M45.506,38.916c0-0.812-0.044-1.725-0.072-2.47h1.681l0.098,1.322h0.057   c0.339-0.889,1.064-1.466,1.78-1.466c0.187,0,0.292,0.01,0.408,0.03v1.922c-0.118-0.021-0.244-0.021-0.411-0.021   c-0.665,0-1.334,0.556-1.539,1.505c-0.049,0.211-0.08,0.507-0.08,0.841v4.632h-1.921V38.916z"/>
</g>
<g>
</g>
<g>
</g>
<g>
</g>
<g>
</g>
<g>
</g>
<g>
</g>
</svg>