<!-- Generator: Adobe Illustrator 25.2.3, SVG Export Plug-In . SVG Version: 6.00 Build 0)  --><svg x="0px" enable-background="new 0 0 60 60" y="0px" width="60px" xmlns:xlink="http://www.w3.org/1999/xlink" viewBox="0 0 60 60" height="60px" id="Layer_1" xmlns="http://www.w3.org/2000/svg" xml:space="preserve" version="1.1">
<rect width="60" fill="#640D0D" x="-0.012" height="60" id="UnitColor_2_" y="-0.085"/>
<rect width="60" fill="#EE1E3A" height="20.189" id="CS_2_" y="11.533" display="none"/>
<g id="Gar" display="none">
	<rect width="14.843" fill="none" x="0.73" height="8.039" y="2.802" display="inline"/>
	<path fill="#FFFFFF" d="M11.03,10.06c-0.472,0.163-1.361,0.379-2.249,0.379c-1.231,0-2.119-0.308-2.739-0.903   C5.424,8.949,5.085,8.072,5.089,7.083C5.097,4.842,6.73,3.567,8.936,3.567c0.87,0,1.539,0.165,1.873,0.323L10.49,5.111   C10.117,4.95,9.664,4.825,8.922,4.825c-1.27,0-2.235,0.714-2.235,2.18c0,1.391,0.878,2.205,2.125,2.205   c0.344,0,0.623-0.04,0.745-0.095V7.699H8.516V6.512h2.514V10.06z" display="inline"/>
</g>
<g id="Eng" display="none">
	<rect width="27.832" fill="none" x="1.1" height="8.039" y="2.802" display="inline"/>
	<path fill="#FFFFFF" d="M17.011,7.521h-2.479v1.602h2.771v1.248h-4.294V3.634h4.15v1.248h-2.626v1.403h2.479   V7.521z" display="inline"/>
</g>
<g id="P2" display="none">
	<path fill="#FFFFFF" d="M19.024,28.186c0.472-1.148,0.803-2.149,0.992-3.001c0.282-1.24,0.423-2.417,0.423-3.534   c0-1.066-0.099-2.078-0.295-3.035c-0.197-0.957-0.575-2.146-1.135-3.568h1.146c0.628,1.03,1.101,2.092,1.419,3.186   c0.319,1.094,0.478,2.185,0.478,3.274c0,1.094-0.159,2.218-0.476,3.374s-0.786,2.257-1.407,3.305H19.024z" display="inline"/>
</g>
<g id="P1" display="none">
	<path fill="#FFFFFF" d="M8.327,28.186H7.182c-0.605-1.025-1.071-2.111-1.396-3.257s-0.487-2.257-0.487-3.333   c0-1.162,0.163-2.296,0.489-3.401c0.326-1.105,0.795-2.154,1.408-3.148h1.146c-0.56,1.422-0.938,2.611-1.135,3.568   c-0.197,0.957-0.295,1.969-0.295,3.035c0,1.103,0.139,2.27,0.416,3.5C7.522,26.016,7.855,27.028,8.327,28.186z" display="inline"/>
</g>
<g id="Type">
	<path fill="#FFFFFF" d="M53.265,12.893v17.022H26.785V12.893H53.265z M28.204,15.139v12.53l10.443-6.265L28.204,15.139z    M50.468,14.312H29.583l10.443,6.265L50.468,14.312z M29.583,28.497h20.885l-10.442-6.265L29.583,28.497z M41.404,21.404   l10.441,6.265v-12.53L41.404,21.404z"/>
</g>
<g id="STK">
	<path fill="#FFFFFF" d="M13.307,17.911h-0.036l-2.139,1.074l-0.386-1.671l2.857-1.406h1.847v11.703h-2.144V17.911z"/>
</g>
<g id="ECH">
	<rect width="27.832" x="26.078" fill="none" height="8.039" y="2.802"/>
	<path fill="#FFFFFF" d="M39.33,3.634v6.736h-1.523V3.634H39.33z"/>
	<path fill="#FFFFFF" d="M42.18,3.634v6.736h-1.522V3.634H42.18z"/>
</g>
<g id="PF">
	<rect width="60" x="0" fill="none" height="15.475" y="44.525"/>
	<path fill="#FFFFFF" d="M15.999,55.723V54.84l0.646-0.825c0.842-1.071,1.529-1.963,1.529-2.89c0-0.523-0.291-0.888-0.83-0.888   c-0.408,0-0.737,0.18-0.975,0.325l-0.23-1.012c0.298-0.195,0.853-0.404,1.443-0.404c1.421,0,1.883,0.951,1.883,1.882   c0,1.22-0.765,2.192-1.509,3.062l-0.389,0.459v0.02h1.985v1.154H15.999z"/>
	<path fill="#FFFFFF" d="M24.041,52.443c0,2.333-0.847,3.359-1.9,3.359c-1.414,0-1.891-1.625-1.891-3.297   c0-1.868,0.595-3.359,1.939-3.359C23.698,49.146,24.041,50.897,24.041,52.443z M21.564,52.475c-0.016,1.521,0.17,2.207,0.614,2.207   c0.401,0,0.547-0.719,0.547-2.207c0-1.395-0.131-2.208-0.549-2.208C21.766,50.267,21.557,50.97,21.564,52.475z"/>
	<path fill="#FFFFFF" d="M24.054,56.122l2.344-7.216h0.852l-2.344,7.216H24.054z"/>
	<path fill="#FFFFFF" d="M28.864,50.459h-0.02l-1.101,0.565l-0.221-1.026l1.489-0.771h1.147v6.496h-1.295V50.459z"/>
	<path fill="#FFFFFF" d="M35.36,52.443c0,2.333-0.848,3.359-1.9,3.359c-1.413,0-1.891-1.625-1.891-3.297   c0-1.868,0.596-3.359,1.939-3.359C35.018,49.146,35.36,50.897,35.36,52.443z M32.885,52.475c-0.017,1.521,0.17,2.207,0.614,2.207   c0.4,0,0.547-0.719,0.547-2.207c0-1.395-0.131-2.208-0.55-2.208C33.086,50.267,32.876,50.97,32.885,52.475z"/>
	<path fill="#FFFFFF" d="M39.077,48.986v6.736h-1.312v-6.736H39.077z"/>
	<path fill="#FFFFFF" d="M40.12,52.303c0-0.534-0.022-1.006-0.04-1.472h1.131l0.066,0.565h0.021c0.251-0.39,0.676-0.646,1.186-0.646   c0.928,0,1.302,0.741,1.302,1.835v3.137h-1.312v-3.062c0-0.412-0.096-0.808-0.481-0.808c-0.217,0-0.399,0.15-0.491,0.439   c-0.036,0.099-0.067,0.263-0.067,0.452v2.978H40.12V52.303z"/>
</g>
<g id="Des">
	<rect width="60" x="0" fill="none" height="14.525" y="31.722"/>
	<path fill="#FFFFFF" d="M14.705,35.361h-0.036l-1.967,1.065l-0.342-1.503l2.587-1.415h1.652v11.703h-1.894V35.361z"/>
	<path fill="#FFFFFF" d="M22.381,43.161c0.453,0.272,1.242,0.483,1.882,0.483c1.184,0,1.831-0.693,1.831-1.686   c0-0.981-0.597-1.533-1.59-2.218c-1.342-0.859-2.287-2.068-2.287-3.38c0-1.897,1.289-3.394,3.554-3.394   c0.782,0,1.489,0.232,1.812,0.44l-0.357,1.649c-0.329-0.216-0.843-0.414-1.499-0.414c-1.091,0-1.611,0.742-1.611,1.472   c0,0.94,0.485,1.368,1.721,2.166c1.542,0.998,2.155,2.176,2.155,3.48c0,2.17-1.563,3.559-3.732,3.559   c-0.913,0-1.823-0.258-2.201-0.507L22.381,43.161z"/>
	<path fill="#FFFFFF" d="M30.899,45.212l-2.188-12.136h1.991l0.784,5.293c0.211,1.449,0.354,2.83,0.505,4.314h0.052   c0.164-1.515,0.432-2.832,0.705-4.329l0.98-5.278h1.581l0.945,5.208c0.245,1.395,0.479,2.758,0.639,4.399h0.044   c0.173-1.66,0.354-2.972,0.541-4.36l0.779-5.247h1.881l-2.236,12.136h-1.955l-0.918-4.84c-0.219-1.202-0.42-2.573-0.574-3.989   H34.42c-0.194,1.427-0.4,2.757-0.666,4.021l-0.989,4.809H30.899z"/>
	<path fill="#FFFFFF" d="M41.505,33.257c0.649-0.154,1.479-0.234,2.389-0.234c1.111,0,2.145,0.186,2.892,0.849   c0.594,0.521,0.864,1.298,0.864,2.152c0,1.147-0.613,2.164-1.804,2.667v0.057c1.404,0.392,2.191,1.538,2.191,2.987   c0,1.001-0.324,1.799-0.877,2.393c-0.707,0.784-1.893,1.17-3.639,1.17c-0.893,0-1.552-0.055-2.017-0.129V33.257z M43.416,38.14   h0.566c0.979,0,1.771-0.788,1.771-1.9c0-0.994-0.464-1.762-1.66-1.762c-0.288,0-0.517,0.025-0.677,0.08V38.14z M43.416,43.749   c0.16,0.036,0.358,0.052,0.605,0.052c1.175,0,2.027-0.704,2.027-2.087c0-1.422-0.979-2.127-2.079-2.135h-0.554V43.749z"/>
</g>
<g>
</g>
<g>
</g>
<g>
</g>
<g>
</g>
<g>
</g>
<g>
</g>
</svg>