<!-- Generator: Adobe Illustrator 25.2.3, SVG Export Plug-In . SVG Version: 6.00 Build 0)  --><svg x="0px" enable-background="new 0 0 60 60" y="0px" width="60px" xmlns:xlink="http://www.w3.org/1999/xlink" viewBox="0 0 60 60" height="60px" id="Layer_1" xmlns="http://www.w3.org/2000/svg" xml:space="preserve" version="1.1">
<rect width="60" fill="#640D0D" x="-0.012" height="60" id="UnitColor_2_" y="-0.085"/>
<rect width="60" fill="#EE1E3A" height="20.189" id="CS_2_" y="11.533" display="none"/>
<g id="Gar" display="none">
	<rect width="14.843" fill="none" x="0.73" height="8.039" y="2.802" display="inline"/>
	<path fill="#FFFFFF" d="M11.03,10.06c-0.472,0.163-1.361,0.379-2.249,0.379c-1.231,0-2.119-0.308-2.739-0.903   C5.424,8.949,5.085,8.072,5.089,7.083C5.097,4.842,6.73,3.567,8.936,3.567c0.87,0,1.539,0.165,1.873,0.323L10.49,5.111   C10.117,4.95,9.664,4.825,8.922,4.825c-1.27,0-2.235,0.714-2.235,2.18c0,1.391,0.878,2.205,2.125,2.205   c0.344,0,0.623-0.04,0.745-0.095V7.699H8.516V6.512h2.514V10.06z" display="inline"/>
</g>
<g id="Eng" display="none">
	<rect width="27.832" fill="none" x="1.1" height="8.039" y="2.802" display="inline"/>
	<path fill="#FFFFFF" d="M17.011,7.521h-2.479v1.602h2.771v1.248h-4.294V3.634h4.15v1.248h-2.626v1.403h2.479   V7.521z" display="inline"/>
</g>
<g id="P2" display="none">
	<path fill="#FFFFFF" d="M19.024,28.186c0.472-1.148,0.803-2.149,0.992-3.001c0.282-1.24,0.423-2.417,0.423-3.534   c0-1.066-0.099-2.078-0.295-3.035c-0.197-0.957-0.575-2.146-1.135-3.568h1.146c0.628,1.03,1.101,2.092,1.419,3.186   c0.319,1.094,0.478,2.185,0.478,3.274c0,1.094-0.159,2.218-0.476,3.374s-0.786,2.257-1.407,3.305H19.024z" display="inline"/>
</g>
<g id="P1" display="none">
	<path fill="#FFFFFF" d="M8.327,28.186H7.182c-0.605-1.025-1.071-2.111-1.396-3.257s-0.487-2.257-0.487-3.333   c0-1.162,0.163-2.296,0.489-3.401c0.326-1.105,0.795-2.154,1.408-3.148h1.146c-0.56,1.422-0.938,2.611-1.135,3.568   c-0.197,0.957-0.295,1.969-0.295,3.035c0,1.103,0.139,2.27,0.416,3.5C7.522,26.016,7.855,27.028,8.327,28.186z" display="inline"/>
</g>
<g id="Type">
	<path fill="#FFFFFF" d="M53.265,12.893v17.022H26.785V12.893H53.265z M28.204,28.497h4.682c-1.933-0.031-3.49-1.601-3.49-3.54   c0-1.654,1.138-3.033,2.671-3.423c-1.3-0.748-2.178-2.145-2.152-3.748c0.023-1.458,0.766-2.725,1.891-3.474h-3.602V28.497z    M32.941,22.83c-1.175,0.001-2.126,0.952-2.127,2.127c0,1.174,0.953,2.126,2.127,2.126c1.174,0,2.127-0.952,2.127-2.126   C35.068,23.782,34.115,22.83,32.941,22.83z M48.716,17.898c0.024-1.566-1.229-2.861-2.793-2.886H34.141   c-0.004,0-0.008,0.003-0.013,0.003c-1.542,0.024-2.769,1.252-2.795,2.793c-0.025,1.566,1.228,2.861,2.795,2.887   c0.004,0,0.008,0.003,0.013,0.003h11.754c0.01-0.001,0.017-0.006,0.026-0.006C47.463,20.667,48.69,19.44,48.716,17.898z    M37.929,22.117h-2.884c0.87,0.646,1.441,1.673,1.441,2.84c0,1.938-1.558,3.508-3.489,3.54h6.979   c-1.932-0.031-3.489-1.601-3.489-3.54C36.486,23.79,37.058,22.763,37.929,22.117z M40.032,22.83   c-1.175,0.001-2.126,0.952-2.127,2.127c0,1.174,0.952,2.126,2.127,2.126c1.174,0,2.126-0.952,2.126-2.126   C42.158,23.782,41.206,22.83,40.032,22.83z M51.845,28.497V14.311h-3.621c1.168,0.777,1.935,2.107,1.91,3.61   c-0.025,1.556-0.877,2.882-2.128,3.605c1.529,0.395,2.663,1.771,2.663,3.421c0,1.958-1.587,3.544-3.545,3.545   s-3.545-1.586-3.546-3.544c0-1.162,0.566-2.185,1.431-2.831h-2.874c0.871,0.646,1.442,1.673,1.442,2.84   c0,1.938-1.559,3.508-3.489,3.54H51.845z M44.996,24.947c0,1.175,0.952,2.127,2.126,2.127c1.175,0,2.127-0.952,2.127-2.127   c0-1.174-0.952-2.126-2.127-2.126C45.949,22.822,44.997,23.774,44.996,24.947z"/>
</g>
<g id="STK">
	<path fill="#FFFFFF" d="M13.307,17.911h-0.036l-2.139,1.074l-0.386-1.671l2.857-1.406h1.847v11.703h-2.144V17.911z"/>
</g>
<g id="ECH">
	<rect width="27.832" x="26.078" fill="none" height="8.039" y="2.802"/>
	<path fill="#FFFFFF" d="M39.33,3.634v6.736h-1.523V3.634H39.33z"/>
	<path fill="#FFFFFF" d="M42.18,3.634v6.736h-1.522V3.634H42.18z"/>
</g>
<g id="PF">
	<rect width="60" x="0" fill="none" height="15.475" y="44.525"/>
	<path fill="#FFFFFF" d="M29.696,52.494v0.939H27.71v-0.939H29.696z"/>
	<path fill="#FFFFFF" d="M32.285,52.494v0.939H30.3v-0.939H32.285z"/>
</g>
<g id="Des">
	<rect width="60" x="0" fill="none" height="14.525" y="31.722"/>
	<path fill="#FFFFFF" d="M13.562,35.361h-0.036l-1.967,1.065l-0.342-1.503l2.587-1.415h1.652v11.703h-1.894V35.361z"/>
	<path fill="#FFFFFF" d="M18.395,43.307c0.419,0.25,1.064,0.474,1.718,0.474c1.178,0,1.892-0.788,1.892-1.981   c0-1.407-0.987-2.106-2.272-2.116h-0.324v-1.42h0.247c0.851-0.01,2.033-0.495,2.033-1.765c0-0.997-0.571-1.548-1.441-1.548   c-0.55,0-1.065,0.229-1.469,0.5l-0.308-1.445c0.458-0.329,1.336-0.641,2.267-0.641c1.875,0,2.871,1.263,2.871,2.765   c0,1.17-0.635,2.169-1.711,2.676v0.036c1.093,0.347,2.027,1.321,2.027,3.02c0,1.84-1.306,3.496-3.663,3.496   c-0.864,0-1.694-0.227-2.186-0.528L18.395,43.307z"/>
	<path fill="#FFFFFF" d="M28.86,33.257c0.558-0.149,1.329-0.234,2.156-0.234c1.413,0,2.408,0.339,3.136,1.005   c0.995,0.882,1.603,2.471,1.603,4.902c0,2.603-0.651,4.237-1.581,5.134c-0.808,0.832-1.99,1.233-3.545,1.233   c-0.666,0-1.336-0.06-1.768-0.129V33.257z M30.771,43.675c0.16,0.036,0.346,0.036,0.472,0.036c1.313,0,2.522-1.108,2.522-4.807   c0-2.747-0.778-4.335-2.442-4.335c-0.19,0-0.387,0.016-0.552,0.062V43.675z"/>
	<path fill="#FFFFFF" d="M42.894,45.019c-0.354,0.176-0.992,0.302-1.784,0.302c-2.77,0-4.35-2.261-4.35-6.009   c0-4.67,2.463-6.344,4.622-6.344c0.789,0,1.345,0.157,1.586,0.309l-0.354,1.627c-0.285-0.134-0.584-0.249-1.152-0.249   c-1.322,0-2.672,1.209-2.672,4.523c0,3.268,1.224,4.436,2.682,4.436c0.451,0,0.909-0.103,1.197-0.214L42.894,45.019z"/>
	<path fill="#FFFFFF" d="M44.25,33.076h1.922v10.507h3.242v1.629H44.25V33.076z"/>
</g>
<g>
</g>
<g>
</g>
<g>
</g>
<g>
</g>
<g>
</g>
<g>
</g>
</svg>