<!-- Generator: Adobe Illustrator 25.2.3, SVG Export Plug-In . SVG Version: 6.00 Build 0)  --><svg x="0px" enable-background="new 0 0 60 60" y="0px" width="60px" xmlns:xlink="http://www.w3.org/1999/xlink" viewBox="0 0 60 60" height="60px" id="Layer_1" xmlns="http://www.w3.org/2000/svg" xml:space="preserve" version="1.1">
<rect width="60" fill="#640D0D" x="-0.012" height="60" id="UnitColor_2_" y="-0.085"/>
<rect width="60" fill="#EE1E3A" height="20.189" id="CS_2_" y="11.533" display="none"/>
<g id="Gar" display="none">
	<rect width="14.843" fill="none" x="0.73" height="8.039" y="2.802" display="inline"/>
	<path fill="#FFFFFF" d="M11.03,10.06c-0.472,0.163-1.361,0.379-2.249,0.379c-1.231,0-2.119-0.308-2.739-0.903   C5.424,8.949,5.085,8.072,5.089,7.083C5.097,4.842,6.73,3.567,8.936,3.567c0.87,0,1.539,0.165,1.873,0.323L10.49,5.111   C10.117,4.95,9.664,4.825,8.922,4.825c-1.27,0-2.235,0.714-2.235,2.18c0,1.391,0.878,2.205,2.125,2.205   c0.344,0,0.623-0.04,0.745-0.095V7.699H8.516V6.512h2.514V10.06z" display="inline"/>
</g>
<g id="Eng" display="none">
	<rect width="27.832" fill="none" x="1.1" height="8.039" y="2.802" display="inline"/>
	<path fill="#FFFFFF" d="M17.011,7.521h-2.479v1.602h2.771v1.248h-4.294V3.634h4.15v1.248h-2.626v1.403h2.479   V7.521z" display="inline"/>
</g>
<g id="P2" display="none">
	<path fill="#FFFFFF" d="M19.024,28.186c0.472-1.148,0.803-2.149,0.992-3.001c0.282-1.24,0.423-2.417,0.423-3.534   c0-1.066-0.099-2.078-0.295-3.035c-0.197-0.957-0.575-2.146-1.135-3.568h1.146c0.628,1.03,1.101,2.092,1.419,3.186   c0.319,1.094,0.478,2.185,0.478,3.274c0,1.094-0.159,2.218-0.476,3.374s-0.786,2.257-1.407,3.305H19.024z" display="inline"/>
</g>
<g id="P1" display="none">
	<path fill="#FFFFFF" d="M8.327,28.186H7.182c-0.605-1.025-1.071-2.111-1.396-3.257s-0.487-2.257-0.487-3.333   c0-1.162,0.163-2.296,0.489-3.401c0.326-1.105,0.795-2.154,1.408-3.148h1.146c-0.56,1.422-0.938,2.611-1.135,3.568   c-0.197,0.957-0.295,1.969-0.295,3.035c0,1.103,0.139,2.27,0.416,3.5C7.522,26.016,7.855,27.028,8.327,28.186z" display="inline"/>
</g>
<g id="Type">
	<path fill="#FFFFFF" d="M53.265,12.893v17.022H26.785V12.893H53.265z M28.204,15.139v12.53l10.443-6.265L28.204,15.139z    M50.468,14.312H29.583l10.443,6.265L50.468,14.312z M29.583,28.497h20.885l-10.442-6.265L29.583,28.497z M41.404,21.404   l10.441,6.265v-12.53L41.404,21.404z"/>
</g>
<g id="STK">
	<path fill="#FFFFFF" d="M13.307,17.911h-0.036l-2.139,1.074l-0.386-1.671l2.857-1.406h1.847v11.703h-2.144V17.911z"/>
</g>
<g id="ECH">
	<rect width="27.832" x="26.078" fill="none" height="8.039" y="2.802"/>
	<path fill="#FFFFFF" d="M39.33,3.634v6.736h-1.523V3.634H39.33z"/>
	<path fill="#FFFFFF" d="M42.18,3.634v6.736h-1.522V3.634H42.18z"/>
</g>
<g id="PF">
	<rect width="60" x="0" fill="none" height="15.475" y="44.525"/>
	<path fill="#FFFFFF" d="M20.755,54.717c0.251,0,0.38-0.012,0.599-0.052c0.251-0.053,0.536-0.184,0.763-0.393   c0.275-0.265,0.517-0.731,0.626-1.31h-0.028c-0.212,0.231-0.511,0.401-0.927,0.401c-0.845,0-1.53-0.75-1.53-1.943   c0-1.11,0.683-2.274,1.932-2.274c1.209,0,1.846,1.101,1.846,2.671c0,1.469-0.474,2.498-1.068,3.133   c-0.401,0.437-0.97,0.722-1.604,0.822c-0.208,0.034-0.407,0.03-0.608,0.03V54.717z M21.549,51.318   c0.008,0.629,0.206,1.146,0.606,1.146c0.23,0,0.431-0.171,0.5-0.336c0.048-0.129,0.06-0.268,0.06-0.696   c0-0.852-0.243-1.338-0.593-1.338C21.788,50.094,21.534,50.527,21.549,51.318z"/>
	<path fill="#FFFFFF" d="M24.054,56.122l2.344-7.216h0.852l-2.344,7.216H24.054z"/>
	<path fill="#FFFFFF" d="M30.723,50.365h-1.722l-0.151,1.164c0.066-0.006,0.128-0.006,0.199-0.006   c0.279,0.008,0.849,0.138,1.224,0.489c0.363,0.348,0.563,0.841,0.563,1.495c0,1.262-0.839,2.295-2.262,2.295   c-0.462,0-0.961-0.116-1.221-0.261l0.199-1.035c0.241,0.117,0.577,0.223,0.929,0.223c0.646,0,1.063-0.41,1.063-1.101   c0-0.875-0.657-1.166-1.407-1.166c-0.183,0-0.333,0.004-0.469,0.023l0.363-3.26h2.69V50.365z"/>
	<path fill="#FFFFFF" d="M34.817,48.986v6.736h-1.312v-6.736H34.817z"/>
	<path fill="#FFFFFF" d="M35.86,52.303c0-0.534-0.022-1.006-0.04-1.472h1.131l0.066,0.565h0.021c0.251-0.39,0.676-0.646,1.186-0.646   c0.928,0,1.302,0.741,1.302,1.835v3.137h-1.312v-3.062c0-0.412-0.096-0.808-0.481-0.808c-0.217,0-0.399,0.15-0.491,0.439   c-0.036,0.099-0.067,0.263-0.067,0.452v2.978H35.86V52.303z"/>
</g>
<g id="Des">
	<rect width="60" x="0" fill="none" height="14.525" y="31.722"/>
	<path fill="#FFFFFF" d="M8.048,45.212v-1.277l1.079-1.425c1.466-1.935,2.885-3.805,2.885-5.71c0-1.103-0.543-1.821-1.57-1.821   c-0.785,0-1.358,0.379-1.728,0.612l-0.38-1.47c0.478-0.345,1.395-0.757,2.458-0.757c2.284,0,3.12,1.589,3.12,3.305   c0,2.196-1.405,4.122-2.794,5.873l-0.736,0.938v0.036h3.719v1.696H8.048z"/>
	<path fill="#FFFFFF" d="M17.373,45.212l-2.188-12.136h1.991l0.784,5.293c0.211,1.449,0.353,2.83,0.505,4.314h0.051   c0.165-1.515,0.432-2.832,0.705-4.329l0.981-5.278h1.581l0.945,5.208c0.245,1.395,0.479,2.758,0.639,4.399h0.043   c0.173-1.66,0.353-2.972,0.541-4.36l0.779-5.247h1.881l-2.236,12.136h-1.955l-0.918-4.84c-0.219-1.202-0.419-2.573-0.574-3.989   h-0.036c-0.195,1.427-0.401,2.757-0.666,4.021l-0.99,4.809H17.373z"/>
	<path fill="#FFFFFF" d="M29.513,45.212v-4.864l-2.672-7.271h2.047l0.938,2.959c0.26,0.811,0.533,1.739,0.755,2.65h0.036   c0.193-0.901,0.446-1.804,0.711-2.704l0.855-2.905h1.996l-2.744,7.195v4.94H29.513z"/>
	<path fill="#FFFFFF" d="M40.043,40.809c0,3.535-1.821,4.548-3.154,4.548c-1.859,0-3.128-1.556-3.128-4.507   c0-3.166,1.556-4.547,3.192-4.547C38.793,36.303,40.043,37.919,40.043,40.809z M35.678,40.819c0,1.476,0.25,3.053,1.272,3.053   c0.957,0,1.176-1.73,1.176-3.053c0-1.271-0.219-3.033-1.211-3.033C35.887,37.786,35.678,39.548,35.678,40.819z"/>
	<path fill="#FFFFFF" d="M41.473,38.916c0-0.812-0.043-1.725-0.071-2.47h1.681l0.098,1.322h0.057   c0.339-0.889,1.064-1.466,1.78-1.466c0.187,0,0.292,0.01,0.408,0.03v1.922c-0.118-0.021-0.244-0.021-0.411-0.021   c-0.665,0-1.334,0.556-1.539,1.505c-0.049,0.211-0.08,0.507-0.08,0.841v4.632h-1.922V38.916z"/>
	<path fill="#FFFFFF" d="M48.299,40.391h0.036c0.162-0.437,0.304-0.784,0.455-1.115l1.402-2.829h2.076l-2.211,3.678l2.368,5.088   h-2.143l-1.539-3.838l-0.445,0.785v3.053h-1.912v-12.46h1.912V40.391z"/>
</g>
<g>
</g>
<g>
</g>
<g>
</g>
<g>
</g>
<g>
</g>
<g>
</g>
</svg>