<!-- Generator: Adobe Illustrator 25.2.3, SVG Export Plug-In . SVG Version: 6.00 Build 0)  --><svg x="0px" enable-background="new 0 0 60 60" y="0px" width="60px" xmlns:xlink="http://www.w3.org/1999/xlink" viewBox="0 0 60 60" height="60px" id="Layer_1" xmlns="http://www.w3.org/2000/svg" xml:space="preserve" version="1.1">
<rect width="60" fill="#640D0D" x="-0.012" height="60" id="UnitColor_2_" y="-0.085"/>
<rect width="60" fill="#EE1E3A" height="20.189" id="CS_2_" y="11.533" display="none"/>
<g id="Gar" display="none">
	<rect width="14.843" fill="none" x="0.73" height="8.039" y="2.802" display="inline"/>
	<path fill="#FFFFFF" d="M11.03,10.06c-0.472,0.163-1.361,0.379-2.249,0.379c-1.231,0-2.119-0.308-2.739-0.903   C5.424,8.949,5.085,8.072,5.089,7.083C5.097,4.842,6.73,3.567,8.936,3.567c0.87,0,1.539,0.165,1.873,0.323L10.49,5.111   C10.117,4.95,9.664,4.825,8.922,4.825c-1.27,0-2.235,0.714-2.235,2.18c0,1.391,0.878,2.205,2.125,2.205   c0.344,0,0.623-0.04,0.745-0.095V7.699H8.516V6.512h2.514V10.06z" display="inline"/>
</g>
<g id="Eng" display="none">
	<rect width="27.832" fill="none" x="1.1" height="8.039" y="2.802" display="inline"/>
	<path fill="#FFFFFF" d="M17.011,7.521h-2.479v1.602h2.771v1.248h-4.294V3.634h4.15v1.248h-2.626v1.403h2.479   V7.521z" display="inline"/>
</g>
<g id="P2" display="none">
	<path fill="#FFFFFF" d="M19.024,28.186c0.472-1.148,0.803-2.149,0.992-3.001c0.282-1.24,0.423-2.417,0.423-3.534   c0-1.066-0.099-2.078-0.295-3.035c-0.197-0.957-0.575-2.146-1.135-3.568h1.146c0.628,1.03,1.101,2.092,1.419,3.186   c0.319,1.094,0.478,2.185,0.478,3.274c0,1.094-0.159,2.218-0.476,3.374s-0.786,2.257-1.407,3.305H19.024z" display="inline"/>
</g>
<g id="P1" display="none">
	<path fill="#FFFFFF" d="M8.327,28.186H7.182c-0.605-1.025-1.071-2.111-1.396-3.257s-0.487-2.257-0.487-3.333   c0-1.162,0.163-2.296,0.489-3.401c0.326-1.105,0.795-2.154,1.408-3.148h1.146c-0.56,1.422-0.938,2.611-1.135,3.568   c-0.197,0.957-0.295,1.969-0.295,3.035c0,1.103,0.139,2.27,0.416,3.5C7.522,26.016,7.855,27.028,8.327,28.186z" display="inline"/>
</g>
<g id="Type">
	<path fill="#FFFFFF" d="M53.265,12.893v17.022H26.785V12.893H53.265z M28.204,15.139v12.53l10.443-6.265L28.204,15.139z    M50.468,14.312H29.583l10.443,6.265L50.468,14.312z M29.583,28.497h20.885l-10.442-6.265L29.583,28.497z M41.404,21.404   l10.441,6.265v-12.53L41.404,21.404z"/>
</g>
<g id="STK">
	<path fill="#FFFFFF" d="M13.307,17.911h-0.036l-2.139,1.074l-0.386-1.671l2.857-1.406h1.847v11.703h-2.144V17.911z"/>
</g>
<g id="ECH">
	<rect width="27.832" x="26.078" fill="none" height="8.039" y="2.802"/>
	<path fill="#FFFFFF" d="M39.33,3.634v6.736h-1.523V3.634H39.33z"/>
	<path fill="#FFFFFF" d="M42.18,3.634v6.736h-1.522V3.634H42.18z"/>
</g>
<g id="PF">
	<rect width="60" x="0" fill="none" height="15.475" y="44.525"/>
	<path fill="#FFFFFF" d="M19.674,50.459h-0.02l-1.101,0.565l-0.221-1.026l1.489-0.771h1.147v6.496h-1.295V50.459z"/>
	<path fill="#FFFFFF" d="M23.934,50.459h-0.02l-1.101,0.565l-0.221-1.026l1.489-0.771h1.147v6.496h-1.295V50.459z"/>
	<path fill="#FFFFFF" d="M26.184,56.122l2.344-7.216h0.852l-2.344,7.216H26.184z"/>
	<path fill="#FFFFFF" d="M31.543,55.723V54.17h-2.229v-0.896l2.125-4.047h1.266v3.896h0.645v1.048h-0.645v1.553H31.543z    M31.543,53.122v-1.329c0-0.344,0.036-0.725,0.066-1.07h-0.032c-0.149,0.359-0.282,0.654-0.458,1.013l-0.69,1.367v0.02H31.543z"/>
	<path fill="#FFFFFF" d="M36.947,48.986v6.736h-1.312v-6.736H36.947z"/>
	<path fill="#FFFFFF" d="M37.99,52.303c0-0.534-0.022-1.006-0.04-1.472h1.13l0.067,0.565h0.021c0.251-0.39,0.676-0.646,1.186-0.646   c0.928,0,1.302,0.741,1.302,1.835v3.137h-1.312v-3.062c0-0.412-0.096-0.808-0.481-0.808c-0.217,0-0.399,0.15-0.491,0.439   c-0.036,0.099-0.067,0.263-0.067,0.452v2.978H37.99V52.303z"/>
</g>
<g id="Des">
	<rect width="60" x="0" fill="none" height="14.525" y="31.722"/>
	<path fill="#FFFFFF" d="M10.181,45.212v-1.277l1.079-1.425c1.466-1.935,2.885-3.805,2.885-5.71c0-1.103-0.543-1.821-1.57-1.821   c-0.785,0-1.358,0.379-1.728,0.612l-0.38-1.47c0.478-0.345,1.395-0.757,2.458-0.757c2.284,0,3.12,1.589,3.12,3.305   c0,2.196-1.405,4.122-2.794,5.873l-0.736,0.938v0.036h3.719v1.696H10.181z"/>
	<path fill="#FFFFFF" d="M26.505,45.019c-0.355,0.176-0.993,0.302-1.785,0.302c-2.77,0-4.35-2.261-4.35-6.009   c0-4.67,2.463-6.344,4.622-6.344c0.79,0,1.345,0.157,1.586,0.309l-0.354,1.627c-0.286-0.134-0.584-0.249-1.153-0.249   c-1.322,0-2.671,1.209-2.671,4.523c0,3.268,1.223,4.436,2.682,4.436c0.451,0,0.908-0.103,1.196-0.214L26.505,45.019z"/>
	<path fill="#FFFFFF" d="M27.702,38.916c0-0.99-0.044-1.693-0.072-2.47h1.676l0.098,1.047h0.036c0.417-0.677,1.121-1.19,2.037-1.19   c0.907,0,1.565,0.424,1.877,1.261h0.036c0.224-0.384,0.542-0.724,0.879-0.939c0.353-0.214,0.77-0.321,1.22-0.321   c1.397,0,2.195,1.073,2.195,3.236v5.673h-1.911v-5.311c0-1.061-0.137-2-0.998-2c-0.489,0-0.886,0.376-1.062,1.025   c-0.043,0.176-0.063,0.434-0.063,0.698v5.587h-1.912v-5.608c0-0.783-0.111-1.702-0.979-1.702c-0.456,0-0.905,0.363-1.066,1.072   c-0.046,0.188-0.077,0.44-0.077,0.7v5.538h-1.912V38.916z"/>
	<path fill="#FFFFFF" d="M39.455,38.916c0-0.99-0.043-1.693-0.071-2.47h1.676l0.097,1.047h0.036c0.417-0.677,1.121-1.19,2.037-1.19   c0.907,0,1.565,0.424,1.877,1.261h0.036c0.224-0.384,0.542-0.724,0.879-0.939c0.353-0.214,0.77-0.321,1.22-0.321   c1.397,0,2.195,1.073,2.195,3.236v5.673h-1.911v-5.311c0-1.061-0.137-2-0.998-2c-0.489,0-0.886,0.376-1.062,1.025   c-0.043,0.176-0.063,0.434-0.063,0.698v5.587H43.49v-5.608c0-0.783-0.111-1.702-0.979-1.702c-0.456,0-0.904,0.363-1.066,1.072   c-0.047,0.188-0.077,0.44-0.077,0.7v5.538h-1.912V38.916z"/>
</g>
<g>
</g>
<g>
</g>
<g>
</g>
<g>
</g>
<g>
</g>
<g>
</g>
</svg>