<!-- Generator: Adobe Illustrator 25.2.3, SVG Export Plug-In . SVG Version: 6.00 Build 0)  --><svg x="0px" enable-background="new 0 0 60 60" y="0px" width="60px" xmlns:xlink="http://www.w3.org/1999/xlink" viewBox="0 0 60 60" height="60px" id="Layer_1" xmlns="http://www.w3.org/2000/svg" xml:space="preserve" version="1.1">
<rect width="60" fill="#640D0D" x="-0.012" height="60" id="UnitColor_2_" y="-0.085"/>
<rect width="60" fill="#EE1E3A" height="20.189" id="CS_2_" y="11.533" display="none"/>
<g id="Gar" display="none">
	<rect width="14.843" fill="none" x="0.73" height="8.039" y="2.802" display="inline"/>
	<path fill="#FFFFFF" d="M11.03,10.06c-0.472,0.163-1.361,0.379-2.249,0.379c-1.231,0-2.119-0.308-2.739-0.903   C5.424,8.949,5.085,8.072,5.089,7.083C5.097,4.842,6.73,3.567,8.936,3.567c0.87,0,1.539,0.165,1.873,0.323L10.49,5.111   C10.117,4.95,9.664,4.825,8.922,4.825c-1.27,0-2.235,0.714-2.235,2.18c0,1.391,0.878,2.205,2.125,2.205   c0.344,0,0.623-0.04,0.745-0.095V7.699H8.516V6.512h2.514V10.06z" display="inline"/>
</g>
<g id="Eng" display="none">
	<rect width="27.832" fill="none" x="1.1" height="8.039" y="2.802" display="inline"/>
	<path fill="#FFFFFF" d="M17.011,7.521h-2.479v1.602h2.771v1.248h-4.294V3.634h4.15v1.248h-2.626v1.403h2.479   V7.521z" display="inline"/>
</g>
<g id="P2" display="none">
	<path fill="#FFFFFF" d="M19.024,28.186c0.472-1.148,0.803-2.149,0.992-3.001c0.282-1.24,0.423-2.417,0.423-3.534   c0-1.066-0.099-2.078-0.295-3.035c-0.197-0.957-0.575-2.146-1.135-3.568h1.146c0.628,1.03,1.101,2.092,1.419,3.186   c0.319,1.094,0.478,2.185,0.478,3.274c0,1.094-0.159,2.218-0.476,3.374s-0.786,2.257-1.407,3.305H19.024z" display="inline"/>
</g>
<g id="P1" display="none">
	<path fill="#FFFFFF" d="M8.327,28.186H7.182c-0.605-1.025-1.071-2.111-1.396-3.257s-0.487-2.257-0.487-3.333   c0-1.162,0.163-2.296,0.489-3.401c0.326-1.105,0.795-2.154,1.408-3.148h1.146c-0.56,1.422-0.938,2.611-1.135,3.568   c-0.197,0.957-0.295,1.969-0.295,3.035c0,1.103,0.139,2.27,0.416,3.5C7.522,26.016,7.855,27.028,8.327,28.186z" display="inline"/>
</g>
<g id="Type">
	<path fill="#FFFFFF" d="M53.265,12.893v17.022H26.785V12.893H53.265z M28.204,15.139v12.53l10.443-6.265L28.204,15.139z    M50.468,14.312H29.583l10.443,6.265L50.468,14.312z M29.583,28.497h20.885l-10.442-6.265L29.583,28.497z M41.404,21.404   l10.441,6.265v-12.53L41.404,21.404z"/>
</g>
<g id="STK">
	<path fill="#FFFFFF" d="M13.307,17.911h-0.036l-2.139,1.074l-0.386-1.671l2.857-1.406h1.847v11.703h-2.144V17.911z"/>
</g>
<g id="ECH">
	<rect width="27.832" x="26.078" fill="none" height="8.039" y="2.802"/>
	<path fill="#FFFFFF" d="M39.33,3.634v6.736h-1.523V3.634H39.33z"/>
	<path fill="#FFFFFF" d="M42.18,3.634v6.736h-1.522V3.634H42.18z"/>
</g>
<g id="PF">
	<rect width="60" x="0" fill="none" height="15.475" y="44.525"/>
	<path fill="#FFFFFF" d="M18.129,55.723V54.84l0.646-0.825c0.842-1.071,1.529-1.963,1.529-2.89c0-0.523-0.291-0.888-0.83-0.888   c-0.408,0-0.737,0.18-0.975,0.325l-0.23-1.012c0.298-0.195,0.853-0.404,1.443-0.404c1.421,0,1.883,0.951,1.883,1.882   c0,1.22-0.765,2.192-1.509,3.062l-0.389,0.459v0.02h1.985v1.154H18.129z"/>
	<path fill="#FFFFFF" d="M22.885,54.717c0.251,0,0.38-0.012,0.599-0.052c0.251-0.053,0.536-0.184,0.763-0.393   c0.275-0.265,0.517-0.731,0.626-1.31h-0.028c-0.212,0.231-0.511,0.401-0.927,0.401c-0.845,0-1.53-0.75-1.53-1.943   c0-1.11,0.683-2.274,1.932-2.274c1.209,0,1.846,1.101,1.846,2.671c0,1.469-0.474,2.498-1.068,3.133   c-0.401,0.437-0.97,0.722-1.604,0.822c-0.208,0.034-0.407,0.03-0.608,0.03V54.717z M23.679,51.318   c0.008,0.629,0.206,1.146,0.606,1.146c0.23,0,0.431-0.171,0.5-0.336c0.048-0.129,0.06-0.268,0.06-0.696   c0-0.852-0.243-1.338-0.593-1.338C23.918,50.094,23.664,50.527,23.679,51.318z"/>
	<path fill="#FFFFFF" d="M26.184,56.122l2.344-7.216h0.852l-2.344,7.216H26.184z"/>
	<path fill="#FFFFFF" d="M32.854,50.365h-1.723l-0.15,1.164c0.066-0.006,0.129-0.006,0.199-0.006   c0.279,0.008,0.849,0.138,1.224,0.489c0.363,0.348,0.563,0.841,0.563,1.495c0,1.262-0.839,2.295-2.262,2.295   c-0.462,0-0.961-0.116-1.221-0.261l0.199-1.035c0.241,0.117,0.577,0.223,0.929,0.223c0.646,0,1.063-0.41,1.063-1.101   c0-0.875-0.657-1.166-1.407-1.166c-0.183,0-0.333,0.004-0.469,0.023l0.363-3.26h2.69V50.365z"/>
	<path fill="#FFFFFF" d="M36.947,48.986v6.736h-1.312v-6.736H36.947z"/>
	<path fill="#FFFFFF" d="M37.99,52.303c0-0.534-0.022-1.006-0.04-1.472h1.13l0.067,0.565h0.021c0.251-0.39,0.676-0.646,1.186-0.646   c0.928,0,1.302,0.741,1.302,1.835v3.137h-1.312v-3.062c0-0.412-0.096-0.808-0.481-0.808c-0.217,0-0.399,0.15-0.491,0.439   c-0.036,0.099-0.067,0.263-0.067,0.452v2.978H37.99V52.303z"/>
</g>
<g id="Des">
	<rect width="60" x="0" fill="none" height="14.525" y="31.722"/>
	<path fill="#FFFFFF" d="M9.926,43.307c0.419,0.25,1.064,0.474,1.718,0.474c1.178,0,1.892-0.788,1.892-1.981   c0-1.407-0.987-2.106-2.272-2.116h-0.324v-1.42h0.247c0.851-0.01,2.033-0.495,2.033-1.765c0-0.997-0.571-1.548-1.441-1.548   c-0.55,0-1.065,0.229-1.469,0.5l-0.308-1.445c0.458-0.329,1.336-0.641,2.267-0.641c1.875,0,2.871,1.263,2.871,2.765   c0,1.17-0.635,2.169-1.711,2.676v0.036c1.093,0.347,2.027,1.321,2.027,3.02c0,1.84-1.306,3.496-3.663,3.496   c-0.864,0-1.694-0.227-2.186-0.528L9.926,43.307z"/>
	<path fill="#FFFFFF" d="M16.326,45.933l4.065-13h1.312l-4.065,13H16.326z"/>
	<path fill="#FFFFFF" d="M22.025,45.212v-1.277l1.079-1.425c1.466-1.935,2.885-3.805,2.885-5.71c0-1.103-0.543-1.821-1.57-1.821   c-0.785,0-1.358,0.379-1.728,0.612l-0.38-1.47c0.478-0.345,1.395-0.757,2.458-0.757c2.284,0,3.12,1.589,3.12,3.305   c0,2.196-1.405,4.122-2.794,5.873l-0.736,0.938v0.036h3.719v1.696H22.025z"/>
	<path fill="#FFFFFF" d="M32.775,33.257c0.619-0.145,1.399-0.234,2.261-0.234c1.274,0,2.306,0.234,3.022,0.915   c0.657,0.612,0.974,1.556,0.974,2.595c0,1.227-0.341,2.071-0.896,2.72c-0.715,0.849-1.891,1.251-2.912,1.251   c-0.195,0-0.363,0-0.538-0.016v4.725h-1.911V33.257z M34.687,38.911c0.14,0.026,0.278,0.034,0.464,0.034   c1.264,0,1.965-0.867,1.965-2.262c0-1.143-0.466-2.104-1.762-2.104c-0.266,0-0.502,0.036-0.667,0.09V38.911z"/>
	<path fill="#FFFFFF" d="M38.856,47.291c0.406-0.074,0.869-0.193,1.157-0.566c0.327-0.407,0.412-1.053,0.412-2.53v-7.748h1.922   v8.169c0,1.9-0.347,2.793-1.04,3.415c-0.594,0.521-1.562,0.768-2.271,0.783L38.856,47.291z M42.412,34.149   c0.011,0.66-0.434,1.107-1.055,1.107c-0.567,0-1.017-0.447-1.007-1.107c-0.01-0.683,0.46-1.117,1.035-1.117   C41.979,33.032,42.412,33.467,42.412,34.149z"/>
	<path fill="#FFFFFF" d="M44.021,45.212c0.028-0.652,0.071-1.65,0.071-2.369V32.752h1.912v4.649h0.036   c0.438-0.742,1.037-1.099,1.836-1.099c1.553,0,2.446,1.765,2.446,4.353c0,3.115-1.259,4.701-2.77,4.701   c-0.818,0-1.312-0.408-1.729-1.228h-0.052l-0.112,1.083H44.021z M46.004,42.095c0,0.211,0.03,0.411,0.077,0.553   c0.253,0.924,0.701,1.123,1.028,1.123c0.936,0,1.296-1.223,1.296-2.982c0-1.624-0.379-2.858-1.312-2.858   c-0.492,0-0.902,0.57-1.021,1.146c-0.039,0.164-0.069,0.394-0.069,0.568V42.095z"/>
</g>
<g>
</g>
<g>
</g>
<g>
</g>
<g>
</g>
<g>
</g>
<g>
</g>
</svg>