<!-- Generator: Adobe Illustrator 25.2.3, SVG Export Plug-In . SVG Version: 6.00 Build 0)  --><svg xmlns:svg="http://www.w3.org/2000/svg" id="Layer_1" sodipodi:docname="IN 31 Fld - 4 In.svg" enable-background="new 0 0 60 60" version="1.1" width="60px" xml:space="preserve" xmlns:sodipodi="http://sodipodi.sourceforge.net/DTD/sodipodi-0.dtd" xmlns:inkscape="http://www.inkscape.org/namespaces/inkscape" inkscape:version="1.1 (c68e22c387, 2021-05-23)" viewBox="0 0 60 60" height="60px" xmlns="http://www.w3.org/2000/svg" x="0px" y="0px"><defs id="defs70"/><sodipodi:namedview bordercolor="#666666" inkscape:window-height="1081" inkscape:pagecheckerboard="0" inkscape:zoom="14.55" id="namedview68" inkscape:current-layer="Layer_1" inkscape:window-y="176" inkscape:cy="30" inkscape:window-x="1208" inkscape:cx="29.965636" showgrid="false" inkscape:pageopacity="0.0" inkscape:pageshadow="2" inkscape:window-width="1271" inkscape:window-maximized="0" borderopacity="1.0" pagecolor="#ffffff"/>
<rect fill="#640D0D" x="-0.012" width="60" y="-0.085" id="UnitColor_2_" height="60"/>
<rect fill="#EE1E3A" width="60" y="11.533" id="CS_2_" height="20.189" display="none"/>
<g id="Gar" display="none">
	<rect x="0.73" y="2.802" display="inline" fill="none" width="14.843" id="rect4" height="8.039"/>
	<path fill="#FFFFFF" id="path6" d="M11.03,10.06c-0.472,0.163-1.361,0.379-2.249,0.379c-1.231,0-2.119-0.308-2.739-0.903   C5.424,8.949,5.085,8.072,5.089,7.083C5.097,4.842,6.73,3.567,8.936,3.567c0.87,0,1.539,0.165,1.873,0.323L10.49,5.111   C10.117,4.95,9.664,4.825,8.922,4.825c-1.27,0-2.235,0.714-2.235,2.18c0,1.391,0.878,2.205,2.125,2.205   c0.344,0,0.623-0.04,0.745-0.095V7.699H8.516V6.512h2.514V10.06z" display="inline"/>
</g>
<g id="Eng" display="none">
	<rect x="1.1" y="2.802" display="inline" fill="none" width="27.832" id="rect9" height="8.039"/>
	<path fill="#FFFFFF" id="path11" d="M17.011,7.521h-2.479v1.602h2.771v1.248h-4.294V3.634h4.15v1.248h-2.626v1.403h2.479   V7.521z" display="inline"/>
</g>
<g id="P2" display="none">
	<path fill="#FFFFFF" id="path14" d="M19.024,28.186c0.472-1.148,0.803-2.149,0.992-3.001c0.282-1.24,0.423-2.417,0.423-3.534   c0-1.066-0.099-2.078-0.295-3.035c-0.197-0.957-0.575-2.146-1.135-3.568h1.146c0.628,1.03,1.101,2.092,1.419,3.186   c0.319,1.094,0.478,2.185,0.478,3.274c0,1.094-0.159,2.218-0.476,3.374s-0.786,2.257-1.407,3.305H19.024z" display="inline"/>
</g>
<g id="P1" display="none">
	<path fill="#FFFFFF" id="path17" d="M8.327,28.186H7.182c-0.605-1.025-1.071-2.111-1.396-3.257s-0.487-2.257-0.487-3.333   c0-1.162,0.163-2.296,0.489-3.401c0.326-1.105,0.795-2.154,1.408-3.148h1.146c-0.56,1.422-0.938,2.611-1.135,3.568   c-0.197,0.957-0.295,1.969-0.295,3.035c0,1.103,0.139,2.27,0.416,3.5C7.522,26.016,7.855,27.028,8.327,28.186z" display="inline"/>
</g>

<g id="STK">
	<path fill="#FFFFFF" id="path23" d="M13.307,17.911h-0.036l-2.139,1.074l-0.386-1.671l2.857-1.406h1.847v11.703h-2.144V17.911z"/>
</g>
<g id="ECH">
	<rect x="26.078" fill="none" width="27.832" id="rect26" y="2.802" height="8.039"/>
	<path fill="#FFFFFF" id="path28" d="M39.33,3.634v6.736h-1.523V3.634H39.33z"/>
	<path fill="#FFFFFF" id="path30" d="M42.18,3.634v6.736h-1.522V3.634H42.18z"/>
</g>
<g id="PF">
	<rect x="0" fill="none" width="60" id="rect33" y="44.525" height="15.475"/>
	<path fill="#FFFFFF" id="path35" d="M25.884,55.723V54.17h-2.229v-0.896l2.125-4.047h1.265v3.896h0.645v1.048h-0.645v1.553H25.884z    M25.884,53.122v-1.329c0-0.344,0.036-0.725,0.065-1.07h-0.032c-0.15,0.359-0.282,0.654-0.458,1.013l-0.69,1.367v0.02H25.884z"/>
	<path fill="#FFFFFF" id="path37" d="M31.287,48.986v6.736h-1.312v-6.736H31.287z"/>
	<path fill="#FFFFFF" id="path39" d="M32.33,52.303c0-0.534-0.022-1.006-0.04-1.472h1.13l0.067,0.565h0.021c0.251-0.39,0.676-0.646,1.186-0.646   c0.928,0,1.302,0.741,1.302,1.835v3.137h-1.312v-3.062c0-0.412-0.096-0.808-0.481-0.808c-0.217,0-0.399,0.15-0.491,0.439   c-0.036,0.099-0.067,0.263-0.067,0.452v2.978H32.33V52.303z"/>
</g>
<g id="Des">
	<rect x="0" fill="none" width="60" id="rect42" y="31.722" height="14.525"/>
	<path fill="#FFFFFF" id="path44" d="M13.021,43.307c0.419,0.25,1.064,0.474,1.718,0.474c1.178,0,1.892-0.788,1.892-1.981   c0-1.407-0.987-2.106-2.272-2.116h-0.324v-1.42h0.247c0.851-0.01,2.033-0.495,2.033-1.765c0-0.997-0.571-1.548-1.441-1.548   c-0.55,0-1.065,0.229-1.469,0.5l-0.308-1.445c0.458-0.329,1.336-0.641,2.267-0.641c1.875,0,2.871,1.263,2.871,2.765   c0,1.17-0.635,2.169-1.711,2.676v0.036c1.093,0.347,2.027,1.321,2.027,3.02c0,1.84-1.306,3.496-3.663,3.496   c-0.864,0-1.694-0.227-2.186-0.528L13.021,43.307z"/>
	<path fill="#FFFFFF" id="path46" d="M22.876,35.361H22.84l-1.967,1.065l-0.342-1.503l2.587-1.415h1.652v11.703h-1.894V35.361z"/>
	<path fill="#FFFFFF" id="path48" d="M30.831,33.076h4.982v1.668h-3.06v3.63h2.866v1.606h-2.866v5.231h-1.922V33.076z"/>
	<path fill="#FFFFFF" id="path50" d="M37.223,32.752h1.922v12.46h-1.922V32.752z"/>
	<path fill="#FFFFFF" id="path52" d="M46.883,32.752v10.091c0,0.719,0.044,1.696,0.072,2.369h-1.65l-0.112-1.04h-0.052   c-0.304,0.623-0.972,1.185-1.829,1.185c-1.695,0-2.648-1.86-2.648-4.502c0-3.076,1.322-4.552,2.739-4.552   c0.722,0,1.252,0.347,1.533,0.952h0.036v-4.503H46.883z M44.972,39.798c0-0.168,0-0.363-0.028-0.541   c-0.082-0.704-0.478-1.327-1.044-1.327c-0.972,0-1.319,1.383-1.319,2.95c0,1.75,0.466,2.891,1.272,2.891   c0.361,0,0.81-0.188,1.052-1.087c0.047-0.149,0.067-0.345,0.067-0.563V39.798z"/>
</g>
<g id="g55">
</g>
<g id="g57">
</g>
<g id="g59">
</g>
<g id="g61">
</g>
<g id="g63">
</g>
<g id="g65">
</g>
<g id="Type-2"><path fill="#ffffff" id="path20-7" d="M 53.265,12.893 V 29.915 H 26.785 V 12.893 Z m -1.419,1.419 H 28.204 V 28.497 H 51.846 Z M 37.26,21.404 c 0,-1.436 1.238,-2.601 2.766,-2.601 1.528,0 2.765,1.165 2.765,2.601 0,1.437 -1.237,2.601 -2.765,2.601 -1.528,0 -2.766,-1.165 -2.766,-2.601 z"/></g></svg>