<!-- Generator: Adobe Illustrator 25.2.3, SVG Export Plug-In . SVG Version: 6.00 Build 0)  --><svg x="0px" enable-background="new 0 0 60 60" y="0px" width="60px" xmlns:xlink="http://www.w3.org/1999/xlink" viewBox="0 0 60 60" height="60px" id="Layer_1" xmlns="http://www.w3.org/2000/svg" xml:space="preserve" version="1.1">
<rect width="60" fill="#640D0D" x="-0.012" height="60" id="UnitColor_2_" y="-0.085"/>
<rect width="60" fill="#EE1E3A" height="20.189" id="CS_2_" y="11.533" display="none"/>
<g id="Gar" display="none">
	<rect width="14.843" fill="none" x="0.73" height="8.039" y="2.802" display="inline"/>
	<path fill="#FFFFFF" d="M11.03,10.06c-0.472,0.163-1.361,0.379-2.249,0.379c-1.231,0-2.119-0.308-2.739-0.903   C5.424,8.949,5.085,8.072,5.089,7.083C5.097,4.842,6.73,3.567,8.936,3.567c0.87,0,1.539,0.165,1.873,0.323L10.49,5.111   C10.117,4.95,9.664,4.825,8.922,4.825c-1.27,0-2.235,0.714-2.235,2.18c0,1.391,0.878,2.205,2.125,2.205   c0.344,0,0.623-0.04,0.745-0.095V7.699H8.516V6.512h2.514V10.06z" display="inline"/>
</g>
<g id="Eng" display="none">
	<rect width="27.832" fill="none" x="1.1" height="8.039" y="2.802" display="inline"/>
	<path fill="#FFFFFF" d="M17.011,7.521h-2.479v1.602h2.771v1.248h-4.294V3.634h4.15v1.248h-2.626v1.403h2.479   V7.521z" display="inline"/>
</g>
<g id="P2" display="none">
	<path fill="#FFFFFF" d="M19.024,28.186c0.472-1.148,0.803-2.149,0.992-3.001c0.282-1.24,0.423-2.417,0.423-3.534   c0-1.066-0.099-2.078-0.295-3.035c-0.197-0.957-0.575-2.146-1.135-3.568h1.146c0.628,1.03,1.101,2.092,1.419,3.186   c0.319,1.094,0.478,2.185,0.478,3.274c0,1.094-0.159,2.218-0.476,3.374s-0.786,2.257-1.407,3.305H19.024z" display="inline"/>
</g>
<g id="P1" display="none">
	<path fill="#FFFFFF" d="M8.327,28.186H7.182c-0.605-1.025-1.071-2.111-1.396-3.257s-0.487-2.257-0.487-3.333   c0-1.162,0.163-2.296,0.489-3.401c0.326-1.105,0.795-2.154,1.408-3.148h1.146c-0.56,1.422-0.938,2.611-1.135,3.568   c-0.197,0.957-0.295,1.969-0.295,3.035c0,1.103,0.139,2.27,0.416,3.5C7.522,26.016,7.855,27.028,8.327,28.186z" display="inline"/>
</g>
<g id="Type">
	<path fill="#FFFFFF" d="M53.265,12.893v17.022H26.785V12.893H53.265z M28.204,15.139v12.53l10.443-6.265L28.204,15.139z    M50.468,14.312H29.583l10.443,6.265L50.468,14.312z M29.583,28.497h20.885l-10.442-6.265L29.583,28.497z M41.404,21.404   l10.441,6.265v-12.53L41.404,21.404z"/>
</g>
<g id="STK">
	<path fill="#FFFFFF" d="M13.307,17.911h-0.036l-2.139,1.074l-0.386-1.671l2.857-1.406h1.847v11.703h-2.144V17.911z"/>
</g>
<g id="ECH">
	<rect width="27.832" x="26.078" fill="none" height="8.039" y="2.802"/>
	<path fill="#FFFFFF" d="M39.33,3.634v6.736h-1.523V3.634H39.33z"/>
	<path fill="#FFFFFF" d="M42.18,3.634v6.736h-1.522V3.634H42.18z"/>
</g>
<g id="PF">
	<rect width="60" x="0" fill="none" height="15.475" y="44.525"/>
	<path fill="#FFFFFF" d="M23.947,49.227v0.858l-2.044,5.638h-1.273L22.62,50.4v-0.02h-2.214v-1.154H23.947z"/>
	<path fill="#FFFFFF" d="M24.054,56.122l2.344-7.216h0.852l-2.344,7.216H24.054z"/>
	<path fill="#FFFFFF" d="M29.414,55.723V54.17h-2.229v-0.896l2.125-4.047h1.266v3.896h0.645v1.048h-0.645v1.553H29.414z    M29.414,53.122v-1.329c0-0.344,0.036-0.725,0.065-1.07h-0.032c-0.15,0.359-0.282,0.654-0.458,1.013l-0.69,1.367v0.02H29.414z"/>
	<path fill="#FFFFFF" d="M34.817,48.986v6.736h-1.312v-6.736H34.817z"/>
	<path fill="#FFFFFF" d="M35.86,52.303c0-0.534-0.022-1.006-0.04-1.472h1.131l0.066,0.565h0.021c0.251-0.39,0.676-0.646,1.186-0.646   c0.928,0,1.302,0.741,1.302,1.835v3.137h-1.312v-3.062c0-0.412-0.096-0.808-0.481-0.808c-0.217,0-0.399,0.15-0.491,0.439   c-0.036,0.099-0.067,0.263-0.067,0.452v2.978H35.86V52.303z"/>
</g>
<g id="Des">
	<rect width="60" x="0" fill="none" height="14.525" y="31.722"/>
	<path fill="#FFFFFF" d="M9.68,45.212v-2.991H5.719V40.91l3.82-7.401h1.86v7.165h1.209v1.547h-1.209v2.991H9.68z M9.68,40.674   v-2.806c0-0.703,0.056-1.408,0.11-2.099H9.729c-0.325,0.778-0.567,1.316-0.896,1.998l-1.414,2.87v0.036H9.68z"/>
	<path fill="#FFFFFF" d="M12.654,45.933l4.065-13h1.312l-4.065,13H12.654z"/>
	<path fill="#FFFFFF" d="M21.149,35.361h-0.036l-1.967,1.065l-0.342-1.503l2.587-1.415h1.652v11.703h-1.894V35.361z"/>
	<path fill="#FFFFFF" d="M31.29,34.945c-0.26,0.011-0.558,0.046-0.902,0.118c-1.728,0.402-2.5,1.995-2.79,3.614h0.057   c0.435-0.605,1.06-1.017,1.884-1.017c1.532,0,2.592,1.401,2.592,3.613c0,2.128-1.033,4.082-3.136,4.082   c-2.139,0-3.336-1.987-3.336-4.8c0-2.427,0.727-4.171,1.732-5.372c0.738-0.906,1.867-1.499,2.857-1.702   c0.467-0.085,0.822-0.1,1.043-0.118V34.945z M30.221,41.321c-0.01-1.341-0.461-2.249-1.309-2.249c-0.467,0-0.938,0.314-1.209,0.995   c-0.057,0.129-0.111,0.432-0.111,0.884c0.008,1.92,0.578,2.982,1.389,2.982C29.764,43.934,30.221,43.004,30.221,41.321z"/>
	<path fill="#FFFFFF" d="M36.447,33.257c0.619-0.145,1.399-0.234,2.261-0.234c1.274,0,2.306,0.234,3.022,0.915   c0.657,0.612,0.974,1.556,0.974,2.595c0,1.227-0.341,2.071-0.896,2.72c-0.715,0.849-1.891,1.251-2.912,1.251   c-0.195,0-0.363,0-0.538-0.016v4.725h-1.911V33.257z M38.358,38.911c0.14,0.026,0.278,0.034,0.464,0.034   c1.264,0,1.965-0.867,1.965-2.262c0-1.143-0.466-2.104-1.762-2.104c-0.266,0-0.502,0.036-0.667,0.09V38.911z"/>
	<path fill="#FFFFFF" d="M42.528,47.291c0.406-0.074,0.869-0.193,1.157-0.566c0.327-0.407,0.412-1.053,0.412-2.53v-7.748h1.922   v8.169c0,1.9-0.347,2.793-1.04,3.415c-0.594,0.521-1.562,0.768-2.271,0.783L42.528,47.291z M46.084,34.149   c0.011,0.66-0.434,1.107-1.055,1.107c-0.567,0-1.017-0.447-1.007-1.107c-0.01-0.683,0.46-1.117,1.035-1.117   C45.65,33.032,46.084,33.467,46.084,34.149z"/>
	<path fill="#FFFFFF" d="M47.692,45.212c0.028-0.652,0.071-1.65,0.071-2.369V32.752h1.912v4.649h0.036   c0.438-0.742,1.037-1.099,1.836-1.099c1.553,0,2.446,1.765,2.446,4.353c0,3.115-1.259,4.701-2.77,4.701   c-0.818,0-1.312-0.408-1.729-1.228h-0.052l-0.112,1.083H47.692z M49.676,42.095c0,0.211,0.03,0.411,0.077,0.553   c0.253,0.924,0.701,1.123,1.028,1.123c0.936,0,1.296-1.223,1.296-2.982c0-1.624-0.379-2.858-1.312-2.858   c-0.492,0-0.902,0.57-1.021,1.146c-0.039,0.164-0.069,0.394-0.069,0.568V42.095z"/>
</g>
<g>
</g>
<g>
</g>
<g>
</g>
<g>
</g>
<g>
</g>
<g>
</g>
</svg>