<!-- Generator: Adobe Illustrator 25.2.3, SVG Export Plug-In . SVG Version: 6.00 Build 0)  --><svg x="0px" enable-background="new 0 0 60 60" y="0px" width="60px" xmlns:xlink="http://www.w3.org/1999/xlink" viewBox="0 0 60 60" height="60px" id="Layer_1" xmlns="http://www.w3.org/2000/svg" xml:space="preserve" version="1.1">
<rect width="60" fill="#640D0D" x="-0.012" height="60" id="UnitColor_2_" y="-0.085"/>
<rect width="60" fill="#EE1E3A" height="20.189" id="CS_2_" y="11.533"/>
<g id="Gar" display="none">
	<rect width="14.843" fill="none" x="0.73" height="8.039" y="2.802" display="inline"/>
	<path fill="#FFFFFF" d="M11.03,10.06c-0.472,0.163-1.361,0.379-2.249,0.379c-1.231,0-2.119-0.308-2.739-0.903   C5.424,8.949,5.085,8.072,5.089,7.083C5.097,4.842,6.73,3.567,8.936,3.567c0.87,0,1.539,0.165,1.873,0.323L10.49,5.111   C10.117,4.95,9.664,4.825,8.922,4.825c-1.27,0-2.235,0.714-2.235,2.18c0,1.391,0.878,2.205,2.125,2.205   c0.344,0,0.623-0.04,0.745-0.095V7.699H8.516V6.512h2.514V10.06z" display="inline"/>
</g>
<g id="Eng" display="none">
	<rect width="27.832" fill="none" x="1.1" height="8.039" y="2.802" display="inline"/>
	<path fill="#FFFFFF" d="M17.011,7.521h-2.479v1.602h2.771v1.248h-4.294V3.634h4.15v1.248h-2.626v1.403h2.479   V7.521z" display="inline"/>
</g>
<g id="P2">
	<path fill="#FFFFFF" d="M19.024,28.186c0.472-1.148,0.803-2.149,0.992-3.001c0.282-1.24,0.423-2.417,0.423-3.534   c0-1.066-0.099-2.078-0.295-3.035c-0.197-0.957-0.575-2.146-1.135-3.568h1.146c0.628,1.03,1.101,2.092,1.419,3.186   c0.319,1.094,0.478,2.185,0.478,3.274c0,1.094-0.159,2.218-0.476,3.374s-0.786,2.257-1.407,3.305H19.024z"/>
</g>
<g id="P1">
	<path fill="#FFFFFF" d="M8.327,28.186H7.182c-0.605-1.025-1.071-2.111-1.396-3.257s-0.487-2.257-0.487-3.333   c0-1.162,0.163-2.296,0.489-3.401c0.326-1.105,0.795-2.154,1.408-3.148h1.146c-0.56,1.422-0.938,2.611-1.135,3.568   c-0.197,0.957-0.295,1.969-0.295,3.035c0,1.103,0.139,2.27,0.416,3.5C7.522,26.016,7.855,27.028,8.327,28.186z"/>
</g>
<g id="Type">
	<path fill="#FFFFFF" d="M53.265,12.893v17.022H26.785V12.893H53.265z M28.204,15.139v12.53l10.443-6.265L28.204,15.139z    M50.468,14.312H29.583l10.443,6.265L50.468,14.312z M29.583,28.497h20.885l-10.442-6.265L29.583,28.497z M41.404,21.404   l10.441,6.265v-12.53L41.404,21.404z"/>
</g>
<g id="STK">
	<path fill="#FFFFFF" d="M9.839,27.611v-1.345l1.388-1.292c2.753-2.546,4.052-3.949,4.066-5.496c0-1.058-0.562-1.97-2.091-1.97   c-1.036,0-1.914,0.524-2.499,0.975l-0.649-1.574c0.841-0.67,2.121-1.199,3.593-1.199c2.595,0,3.865,1.631,3.865,3.545   c0,2.059-1.479,3.712-3.525,5.602l-1.013,0.888v0.036h4.796v1.831H9.839z"/>
</g>
<g id="ECH">
	<rect width="27.832" x="26.078" fill="none" height="8.039" y="2.802"/>
	<path fill="#FFFFFF" d="M41.133,10.37l-0.607-1.219c-0.244-0.472-0.412-0.823-0.598-1.213h-0.021   c-0.141,0.391-0.306,0.744-0.524,1.209l-0.557,1.223h-1.734l1.946-3.411L37.16,3.634h1.752l0.59,1.227   c0.197,0.409,0.343,0.742,0.502,1.12h0.025c0.163-0.428,0.288-0.728,0.46-1.116l0.565-1.23h1.739l-1.898,3.287l1.999,3.449H41.133z   "/>
</g>
<g id="PF">
	<rect width="60" x="0" fill="none" height="15.475" y="44.525"/>
	<path fill="#FFFFFF" d="M25.884,55.723V54.17h-2.229v-0.896l2.125-4.047h1.265v3.896h0.645v1.048h-0.645v1.553H25.884z    M25.884,53.122v-1.329c0-0.344,0.036-0.725,0.065-1.07h-0.032c-0.15,0.359-0.282,0.654-0.458,1.013l-0.69,1.367v0.02H25.884z"/>
	<path fill="#FFFFFF" d="M31.287,48.986v6.736h-1.312v-6.736H31.287z"/>
	<path fill="#FFFFFF" d="M32.33,52.303c0-0.534-0.022-1.006-0.04-1.472h1.13l0.067,0.565h0.021c0.251-0.39,0.676-0.646,1.186-0.646   c0.928,0,1.302,0.741,1.302,1.835v3.137h-1.312v-3.062c0-0.412-0.096-0.808-0.481-0.808c-0.217,0-0.399,0.15-0.491,0.439   c-0.036,0.099-0.067,0.263-0.067,0.452v2.978H32.33V52.303z"/>
</g>
<g id="Des">
	<rect width="60" x="0" fill="none" height="14.525" y="31.722"/>
	<path fill="#FFFFFF" d="M24.747,35.184h-3.125l-0.366,2.557c0.131-0.022,0.247-0.022,0.394-0.022   c0.559,0.01,1.564,0.265,2.212,0.882c0.643,0.622,1.003,1.499,1.003,2.686c0,2.297-1.492,4.071-3.837,4.071   c-0.782,0-1.64-0.201-2.108-0.489l0.339-1.521c0.398,0.208,1.016,0.425,1.654,0.425c1.175,0,2.054-0.814,2.054-2.304   c0-1.698-1.16-2.338-2.585-2.338c-0.374,0-0.644,0.016-0.88,0.052l0.697-5.672h4.55V35.184z"/>
	<path fill="#FFFFFF" d="M31.609,33.076v12.136h-1.922V33.076H31.609z"/>
	<path fill="#FFFFFF" d="M33.756,45.212V33.076h1.778l2.028,5.18c0.431,1.101,1.037,2.678,1.413,3.847h0.036   c-0.095-1.557-0.208-3.427-0.208-5.598v-3.429h1.701v12.136h-1.778l-2.05-5.166c-0.447-1.114-0.982-2.577-1.33-3.857h-0.036   c0.085,1.401,0.146,3.123,0.146,5.632v3.392H33.756z"/>
</g>
<g>
</g>
<g>
</g>
<g>
</g>
<g>
</g>
<g>
</g>
<g>
</g>
</svg>