<!-- Generator: Adobe Illustrator 25.2.3, SVG Export Plug-In . SVG Version: 6.00 Build 0)  --><svg x="0px" enable-background="new 0 0 60 60" y="0px" width="60px" xmlns:xlink="http://www.w3.org/1999/xlink" viewBox="0 0 60 60" height="60px" id="Layer_1" xmlns="http://www.w3.org/2000/svg" xml:space="preserve" version="1.1">
<rect width="60" fill="#640D0D" x="-0.012" height="60" id="UnitColor_2_" y="-0.085"/>
<rect width="60" fill="#EE1E3A" height="20.189" id="CS_2_" y="11.533" display="none"/>
<g id="Gar" display="none">
	<rect width="14.843" fill="none" x="0.73" height="8.039" y="2.802" display="inline"/>
	<path fill="#FFFFFF" d="M11.03,10.06c-0.472,0.163-1.361,0.379-2.249,0.379c-1.231,0-2.119-0.308-2.739-0.903   C5.424,8.949,5.085,8.072,5.089,7.083C5.097,4.842,6.73,3.567,8.936,3.567c0.87,0,1.539,0.165,1.873,0.323L10.49,5.111   C10.117,4.95,9.664,4.825,8.922,4.825c-1.27,0-2.235,0.714-2.235,2.18c0,1.391,0.878,2.205,2.125,2.205   c0.344,0,0.623-0.04,0.745-0.095V7.699H8.516V6.512h2.514V10.06z" display="inline"/>
</g>
<g id="Eng" display="none">
	<rect width="27.832" fill="none" x="1.1" height="8.039" y="2.802" display="inline"/>
	<path fill="#FFFFFF" d="M17.011,7.521h-2.479v1.602h2.771v1.248h-4.294V3.634h4.15v1.248h-2.626v1.403h2.479   V7.521z" display="inline"/>
</g>
<g id="P2" display="none">
	<path fill="#FFFFFF" d="M19.024,28.186c0.472-1.148,0.803-2.149,0.992-3.001c0.282-1.24,0.423-2.417,0.423-3.534   c0-1.066-0.099-2.078-0.295-3.035c-0.197-0.957-0.575-2.146-1.135-3.568h1.146c0.628,1.03,1.101,2.092,1.419,3.186   c0.319,1.094,0.478,2.185,0.478,3.274c0,1.094-0.159,2.218-0.476,3.374s-0.786,2.257-1.407,3.305H19.024z" display="inline"/>
</g>
<g id="P1" display="none">
	<path fill="#FFFFFF" d="M8.327,28.186H7.182c-0.605-1.025-1.071-2.111-1.396-3.257s-0.487-2.257-0.487-3.333   c0-1.162,0.163-2.296,0.489-3.401c0.326-1.105,0.795-2.154,1.408-3.148h1.146c-0.56,1.422-0.938,2.611-1.135,3.568   c-0.197,0.957-0.295,1.969-0.295,3.035c0,1.103,0.139,2.27,0.416,3.5C7.522,26.016,7.855,27.028,8.327,28.186z" display="inline"/>
</g>
<g id="Type">
	<path fill="#FFFFFF" d="M53.265,12.893v17.022H26.785V12.893H53.265z M37.969,21.737v-0.739l-9.765-5.859v12.53l9.887-5.932H37.969   z M50.468,14.312H29.583l9.574,5.744v-1.456h-1.186l2.054-3.272l2.054,3.272h-1.185v1.456L50.468,14.312z M37.97,24.541v-1.076   l-8.387,5.032h20.885l-8.387-5.032v1.076h-1.188v2.938h-1.737v-2.938H37.97z M39.156,22.752l-1.01,0.606h1.01V22.752z    M40.894,23.359h1.011l-1.011-0.606V23.359z M51.846,27.669v-12.53l-9.766,5.859v0.739h-0.121L51.846,27.669z"/>
</g>
<g id="STK">
	<path fill="#FFFFFF" d="M13.307,17.911h-0.036l-2.139,1.074l-0.386-1.671l2.857-1.406h1.847v11.703h-2.144V17.911z"/>
</g>
<g id="ECH">
	<rect width="27.832" x="26.078" fill="none" height="8.039" y="2.802"/>
	<path fill="#FFFFFF" d="M39.33,3.634v6.736h-1.523V3.634H39.33z"/>
	<path fill="#FFFFFF" d="M42.18,3.634v6.736h-1.522V3.634H42.18z"/>
</g>
<g id="PF">
	<rect width="60" x="0" fill="none" height="15.475" y="44.525"/>
	<path fill="#FFFFFF" d="M29.696,52.494v0.939H27.71v-0.939H29.696z"/>
	<path fill="#FFFFFF" d="M32.285,52.494v0.939H30.3v-0.939H32.285z"/>
</g>
<g id="Des">
	<rect width="60" x="0" fill="none" height="14.525" y="31.722"/>
	<path fill="#FFFFFF" d="M14.217,34.945c-0.26,0.011-0.558,0.046-0.902,0.118c-1.728,0.402-2.5,1.995-2.79,3.614h0.057   c0.435-0.605,1.06-1.017,1.884-1.017c1.532,0,2.592,1.401,2.592,3.613c0,2.128-1.034,4.082-3.136,4.082   c-2.139,0-3.336-1.987-3.336-4.8c0-2.427,0.727-4.171,1.732-5.372c0.738-0.906,1.867-1.499,2.857-1.702   c0.467-0.085,0.822-0.1,1.043-0.118V34.945z M13.148,41.321c-0.01-1.341-0.461-2.249-1.309-2.249c-0.467,0-0.938,0.314-1.209,0.995   c-0.057,0.129-0.111,0.432-0.111,0.884c0.008,1.92,0.578,2.982,1.389,2.982C12.691,43.934,13.148,43.004,13.148,41.321z"/>
	<path fill="#FFFFFF" d="M19.374,33.257c0.671-0.16,1.511-0.234,2.315-0.234c1.247,0,2.292,0.216,3.007,0.887   c0.676,0.641,0.916,1.451,0.916,2.453c0,1.414-0.68,2.506-1.907,3.074v0.036c0.854,0.306,1.297,1.111,1.544,2.548   c0.255,1.486,0.545,2.777,0.74,3.191h-1.994c-0.16-0.348-0.417-1.538-0.625-2.948c-0.234-1.58-0.683-2.093-1.644-2.093h-0.441   v5.041h-1.912V33.257z M21.286,38.688h0.5c1.156,0,1.878-0.898,1.878-2.13c0-1.2-0.482-1.998-1.734-2.019   c-0.242,0-0.489,0.018-0.644,0.072V38.688z"/>
	<path fill="#FFFFFF" d="M30.97,45.212l-0.113-0.893h-0.044c-0.437,0.676-1.087,1.037-1.856,1.037c-1.257,0-2.206-1.055-2.206-2.593   c0-2.252,1.905-3.204,3.888-3.222V39.31c0-0.913-0.357-1.555-1.31-1.555c-0.627,0-1.159,0.183-1.634,0.486l-0.37-1.312   c0.432-0.272,1.354-0.627,2.422-0.627c2.256,0,2.834,1.545,2.834,3.41v3.503c0,0.682,0.021,1.415,0.112,1.996H30.97z M30.69,40.822   c-0.748,0.011-2.104,0.219-2.104,1.744c0,0.989,0.528,1.347,0.95,1.347c0.482,0,0.946-0.327,1.108-1.003   c0.036-0.137,0.046-0.294,0.046-0.445V40.822z"/>
	<path fill="#FFFFFF" d="M32.872,47.291c0.406-0.074,0.869-0.193,1.157-0.566c0.327-0.407,0.412-1.053,0.412-2.53v-7.748h1.922   v8.169c0,1.9-0.347,2.793-1.04,3.415c-0.594,0.521-1.562,0.768-2.271,0.783L32.872,47.291z M36.428,34.149   c0.011,0.66-0.434,1.107-1.055,1.107c-0.567,0-1.017-0.447-1.007-1.107c-0.01-0.683,0.46-1.117,1.035-1.117   C35.994,33.032,36.428,33.467,36.428,34.149z"/>
	<path fill="#FFFFFF" d="M38.293,33.257c0.67-0.16,1.511-0.234,2.314-0.234c1.247,0,2.293,0.216,3.007,0.887   c0.676,0.641,0.915,1.451,0.915,2.453c0,1.414-0.679,2.506-1.906,3.074v0.036c0.854,0.306,1.297,1.111,1.544,2.548   c0.255,1.486,0.546,2.777,0.741,3.191h-1.994c-0.159-0.348-0.417-1.538-0.625-2.948c-0.234-1.58-0.683-2.093-1.645-2.093h-0.44   v5.041h-1.911V33.257z M40.204,38.688h0.5c1.156,0,1.878-0.898,1.878-2.13c0-1.2-0.481-1.998-1.734-2.019   c-0.242,0-0.489,0.018-0.644,0.072V38.688z"/>
	<path fill="#FFFFFF" d="M46.267,33.076h4.981v1.668h-3.06v3.63h2.866v1.606h-2.866v5.231h-1.922V33.076z"/>
</g>
<g>
</g>
<g>
</g>
<g>
</g>
<g>
</g>
<g>
</g>
<g>
</g>
</svg>