<svg width="60" height="60" xmlns="http://www.w3.org/2000/svg" viewBox="0 0 60 60">
  <rect fill="#ffcd34" height="60" width="60"/>
  <g>
    <path d="M6.5,16.875V27.663H4.794V16.875Z" transform="translate(0 0)"/>
    <path d="M8.252,22.066c0-.88-.039-1.5-.064-2.2H9.669l.086.917h.033a2.1,2.1,0,0,1,1.842-1.046c1.3,0,1.991,1.009,1.991,2.817v5.1H11.912V22.722c0-.78-.164-1.54-.909-1.54-.424,0-.8.326-.956.954a2.7,2.7,0,0,0-.086.709v4.818H8.252Z" transform="translate(0 0)"/>
    <path d="M16.953,17.829a.912.912,0,0,1-.945.983.9.9,0,0,1-.887-.983.919.919,0,1,1,1.832,0ZM15.2,27.663V19.871h1.709v7.792Z" transform="translate(0 0)"/>
    <path d="M20.518,17.783v2.088h1.511v1.238H20.518V25.15c0,.954.37,1.2.8,1.2a2.683,2.683,0,0,0,.528-.048l.034,1.33a3.918,3.918,0,0,1-1.116.13,1.861,1.861,0,0,1-1.38-.485,2.782,2.782,0,0,1-.572-2.106V21.109h-.934V19.871h.934V18.22Z" transform="translate(0 0)"/>
    <path d="M24.809,17.829a.912.912,0,0,1-.945.983.9.9,0,0,1-.887-.983.919.919,0,1,1,1.832,0Zm-1.757,9.834V19.871h1.709v7.792Z" transform="translate(0 0)"/>
    <path d="M28.374,17.783v2.088h1.511v1.238H28.374V25.15c0,.954.37,1.2.8,1.2A2.683,2.683,0,0,0,29.7,26.3l.034,1.33a3.918,3.918,0,0,1-1.116.13,1.861,1.861,0,0,1-1.38-.485,2.782,2.782,0,0,1-.572-2.106V21.109h-.934V19.871h.934V18.22Z" transform="translate(0 0)"/>
    <path d="M34.221,27.663l-.1-.794h-.039a1.9,1.9,0,0,1-1.649.922,2.075,2.075,0,0,1-1.961-2.3c0-2,1.693-2.848,3.456-2.865v-.206c0-.812-.318-1.382-1.165-1.382a2.625,2.625,0,0,0-1.452.432L30.981,20.3a4.339,4.339,0,0,1,2.153-.558c2.006,0,2.519,1.374,2.519,3.032v3.115a12.116,12.116,0,0,0,.1,1.774Zm-.248-3.9c-.666.01-1.871.194-1.871,1.551,0,.878.469,1.2.844,1.2a1.035,1.035,0,0,0,.985-.892,1.6,1.6,0,0,0,.042-.4Z" transform="translate(0 0)"/>
    <path d="M39.125,17.783v2.088h1.512v1.238H39.125V25.15c0,.954.371,1.2.8,1.2a2.665,2.665,0,0,0,.527-.048l.035,1.33a3.925,3.925,0,0,1-1.117.13,1.857,1.857,0,0,1-1.379-.485,2.777,2.777,0,0,1-.573-2.106V21.109h-.934V19.871h.934V18.22Z" transform="translate(0 0)"/>
    <path d="M43.417,17.829a.912.912,0,0,1-.945.983.9.9,0,0,1-.888-.983.919.919,0,1,1,1.833,0Zm-1.758,9.834V19.871h1.709v7.792Z" transform="translate(0 0)"/>
    <path d="M46.083,19.871l.771,3.882c.112.616.228,1.313.334,2.052h.039c.088-.727.205-1.383.317-2.052l.759-3.882h1.688l-2.067,7.792H46.373l-2.09-7.792Z" transform="translate(0 0)"/>
    <path d="M52.06,24.226c.017,1.741.826,2.214,1.736,2.214a3.581,3.581,0,0,0,1.4-.277l.243,1.231a4.979,4.979,0,0,1-1.952.365c-2.008,0-3.087-1.457-3.087-3.869,0-2.578,1.236-4.148,2.9-4.148,1.639,0,2.465,1.482,2.465,3.57a6.877,6.877,0,0,1-.046.914Zm2.12-1.216c.013-1.251-.4-1.994-1-1.994-.741,0-1.076,1.08-1.111,1.994Z" transform="translate(0 0)"/>
  </g>
</svg>