<svg width="60" height="60" xmlns="http://www.w3.org/2000/svg" viewBox="0 0 60 60">
  <rect fill="#ffcd34" height="60" width="60"/>
  <g>
    <path d="M27.078,15.727V27.863H25.156V15.727Z"/>
    <path d="M29.047,21.567c0-.99-.044-1.693-.072-2.47H30.64l.1,1.031h.036a2.364,2.364,0,0,1,2.073-1.174c1.461,0,2.239,1.134,2.239,3.167v5.742H33.164V22.3c0-.876-.185-1.731-1.022-1.731-.478,0-.906.366-1.076,1.072a3,3,0,0,0-.1.8v5.42H29.047Z"/>
  </g>
  <g>
    <path d="M8.053,33.236H5.876V31.474h6.286v1.762H9.975V43.609H8.053Z"/>
    <path d="M12.545,37.313c0-.811-.044-1.724-.072-2.469h1.681l.1,1.322h.057a2.074,2.074,0,0,1,1.78-1.466,2.18,2.18,0,0,1,.408.03v1.922a2.509,2.509,0,0,0-.411-.02,1.715,1.715,0,0,0-1.539,1.505,3.986,3.986,0,0,0-.079.841v4.631H12.545Z"/>
    <path d="M21.14,43.609l-.113-.892h-.044a2.142,2.142,0,0,1-1.856,1.036,2.334,2.334,0,0,1-2.206-2.592c0-2.252,1.905-3.2,3.888-3.222v-.232c0-.913-.357-1.555-1.309-1.555a2.959,2.959,0,0,0-1.635.487l-.37-1.312a4.886,4.886,0,0,1,2.422-.627c2.257,0,2.834,1.545,2.834,3.41v3.5a13.513,13.513,0,0,0,.114,2Zm-.28-4.389c-.748.01-2.1.218-2.1,1.744,0,.989.528,1.347.951,1.347a1.165,1.165,0,0,0,1.107-1,1.8,1.8,0,0,0,.046-.446Z"/>
    <path d="M26.518,32.547a1.028,1.028,0,0,1-1.063,1.107,1.016,1.016,0,0,1-1-1.107,1.034,1.034,0,1,1,2.062,0ZM24.541,43.609V34.844h1.922v8.765Z"/>
    <path d="M28.231,37.313c0-.99-.044-1.693-.072-2.469h1.665l.1,1.031h.036A2.363,2.363,0,0,1,32.03,34.7c1.461,0,2.24,1.135,2.24,3.167v5.742H32.348V38.051c0-.876-.186-1.732-1.023-1.732-.477,0-.9.367-1.075,1.073a3,3,0,0,0-.1.8v5.42H28.231Z"/>
    <path d="M38.019,32.547a1.034,1.034,0,1,1-1.035-1.117A1.027,1.027,0,0,1,38.019,32.547ZM36.042,43.609V34.844h1.922v8.765Z"/>
    <path d="M39.731,37.313c0-.99-.043-1.693-.071-2.469h1.665l.1,1.031h.036A2.363,2.363,0,0,1,43.531,34.7c1.461,0,2.24,1.135,2.24,3.167v5.742H43.849V38.051c0-.876-.186-1.732-1.023-1.732-.477,0-.905.367-1.075,1.073a2.954,2.954,0,0,0-.1.8v5.42H39.731Z"/>
    <path d="M53.525,34.844c-.038.714-.082,1.572-.082,2.757v4.956c0,2.078-.323,3.036-.973,3.7a3.527,3.527,0,0,1-2.616.951,4.916,4.916,0,0,1-2.075-.422l.386-1.488a3.806,3.806,0,0,0,1.656.376c1.147,0,1.711-.743,1.711-2.374v-.689H51.5a1.753,1.753,0,0,1-1.618.955c-1.78,0-2.664-1.967-2.664-4.28,0-3.057,1.387-4.588,2.867-4.588a1.786,1.786,0,0,1,1.62,1.078h.036l.1-.934Zm-1.993,3.119a2.33,2.33,0,0,0-.085-.641c-.129-.474-.407-1-.982-1-.914,0-1.345,1.24-1.345,2.9,0,1.906.57,2.817,1.321,2.817.362,0,.769-.175.988-.913a2.212,2.212,0,0,0,.1-.735Z"/>
  </g>
</svg>