<!-- Generator: Adobe Illustrator 25.2.3, SVG Export Plug-In . SVG Version: 6.00 Build 0)  --><svg x="0px" enable-background="new 0 0 60 60" y="0px" width="60px" xmlns:xlink="http://www.w3.org/1999/xlink" viewBox="0 0 60 60" height="60px" id="Layer_1" xmlns="http://www.w3.org/2000/svg" xml:space="preserve" version="1.1">
<rect width="60" fill="#FBF49C" x="0" height="60" id="UnitColor" y="-0.085"/>
<rect width="60" fill="#F7EC13" height="20.189" id="CS_2_" y="11.533" display="none"/>
<g id="Gar" display="none">
	<rect width="14.843" fill="none" x="0.73" height="8.039" y="2.802" display="inline"/>
	<path d="M11.03,10.06c-0.472,0.163-1.361,0.379-2.249,0.379c-1.231,0-2.119-0.308-2.739-0.903   C5.424,8.949,5.085,8.072,5.089,7.083C5.097,4.842,6.73,3.567,8.936,3.567c0.87,0,1.539,0.165,1.873,0.323L10.49,5.111   C10.117,4.95,9.664,4.825,8.922,4.825c-1.27,0-2.235,0.714-2.235,2.18c0,1.391,0.878,2.205,2.125,2.205   c0.344,0,0.623-0.04,0.745-0.095V7.699H8.516V6.512h2.514V10.06z" display="inline"/>
</g>
<g id="Eng" display="none">
	<rect width="27.832" fill="none" x="1.1" height="8.039" y="2.802" display="inline"/>
	<path d="M17.011,7.521h-2.479v1.602h2.771v1.248h-4.294V3.634h4.15v1.248h-2.626v1.403h2.479V7.521z" display="inline"/>
</g>
<g id="P2" display="none">
	<path d="M19.024,28.186c0.472-1.148,0.803-2.149,0.992-3.001c0.282-1.24,0.423-2.417,0.423-3.534   c0-1.066-0.099-2.078-0.295-3.035c-0.197-0.957-0.575-2.146-1.135-3.568h1.146c0.628,1.03,1.101,2.092,1.419,3.186   c0.319,1.094,0.478,2.185,0.478,3.274c0,1.094-0.159,2.218-0.476,3.374s-0.786,2.257-1.407,3.305H19.024z" display="inline"/>
</g>
<g id="P1" display="none">
	<path d="M8.327,28.186H7.182c-0.605-1.025-1.071-2.111-1.396-3.257s-0.487-2.257-0.487-3.333   c0-1.162,0.163-2.296,0.489-3.401c0.326-1.105,0.795-2.154,1.408-3.148h1.146c-0.56,1.422-0.938,2.611-1.135,3.568   c-0.197,0.957-0.295,1.969-0.295,3.035c0,1.103,0.139,2.27,0.416,3.5C7.522,26.016,7.855,27.028,8.327,28.186z" display="inline"/>
</g>
<g id="Type">
	<path d="M53.265,12.893v17.022H26.785V12.893H53.265z M28.204,15.139v12.53l10.443-6.265L28.204,15.139z M50.468,14.312H29.583   l10.443,6.265L50.468,14.312z M34.15,25.756l-4.568,2.741h2.933C32.671,27.372,33.274,26.395,34.15,25.756z M33.736,28.497h5.621   c-0.259-1.315-1.42-2.312-2.811-2.312S33.995,27.181,33.736,28.497z M47.528,28.497h2.939l-10.442-6.265l-5.314,3.188   c0.555-0.282,1.173-0.456,1.837-0.456c1.489,0,2.783,0.811,3.497,2.005c0.738-1.176,2.049-1.959,3.524-1.948   C45.601,25.054,47.236,26.543,47.528,28.497z M43.549,26.241c-0.017,0-0.031-0.001-0.048-0.001c-1.366,0-2.519,0.964-2.801,2.256   h5.604C46.03,27.216,44.911,26.264,43.549,26.241z M41.404,21.404l10.441,6.265v-12.53L41.404,21.404z"/>
</g>
<g id="STK">
	<path d="M13.307,17.911h-0.036l-2.139,1.074l-0.386-1.671l2.857-1.406h1.847v11.703h-2.144V17.911z"/>
</g>
<g id="ECH">
	<rect width="27.832" x="26.078" fill="none" height="8.039" y="2.802"/>
	<path d="M39.33,3.634v6.736h-1.523V3.634H39.33z"/>
	<path d="M42.18,3.634v6.736h-1.522V3.634H42.18z"/>
</g>
<g id="PF">
	<rect width="60" x="0" fill="none" height="15.475" y="44.525"/>
	<path d="M19.07,48.986h1.312v5.626h1.723v1.11H19.07V48.986z"/>
	<path d="M24.058,49.538c0.008,0.419-0.291,0.709-0.687,0.709c-0.361,0-0.656-0.29-0.648-0.709c-0.008-0.44,0.303-0.717,0.667-0.717   C23.767,48.821,24.058,49.098,24.058,49.538z M22.746,55.723v-4.892h1.312v4.892H22.746z"/>
	<path d="M24.934,55.723c0.018-0.432,0.04-0.984,0.04-1.444v-5.472h1.305v2.523h0.02c0.236-0.354,0.547-0.579,1.02-0.579   c0.947,0,1.384,1.076,1.384,2.392c0,1.714-0.679,2.66-1.594,2.66c-0.406,0-0.693-0.167-0.959-0.655h-0.024l-0.071,0.575H24.934z    M26.278,53.973c0,0.124,0.023,0.239,0.051,0.313c0.11,0.349,0.293,0.443,0.448,0.443c0.438,0,0.623-0.547,0.623-1.484   c0-0.845-0.194-1.39-0.627-1.39c-0.205,0-0.378,0.212-0.446,0.449c-0.026,0.081-0.049,0.215-0.049,0.303V53.973z"/>
	<path d="M30.355,50.831l0.479,2.548c0.055,0.288,0.097,0.551,0.138,0.817h0.02c0.037-0.25,0.076-0.528,0.119-0.802l0.403-2.563   h1.283l-0.999,3.776c-0.237,0.918-0.561,1.864-1.088,2.491c-0.416,0.486-0.908,0.714-1.113,0.772l-0.394-1.133   c0.222-0.078,0.448-0.226,0.646-0.406c0.179-0.168,0.317-0.37,0.411-0.581c0.04-0.085,0.065-0.143,0.065-0.213   c0-0.06-0.016-0.119-0.036-0.18l-1.344-4.527H30.355z"/>
	<path d="M35.362,55.723L35.29,55.24h-0.021c-0.267,0.378-0.647,0.562-1.081,0.562c-0.739,0-1.288-0.618-1.288-1.485   c0-1.285,1.13-1.809,2.234-1.819V52.39c0-0.387-0.224-0.668-0.688-0.668c-0.39,0-0.702,0.105-0.995,0.285l-0.237-0.882   c0.27-0.155,0.837-0.374,1.52-0.374c1.485,0,1.729,1.042,1.729,2.033v1.819c0,0.39,0.016,0.788,0.071,1.119H35.362z M35.174,53.341   c-0.433,0.008-1.036,0.156-1.036,0.837c0,0.482,0.271,0.662,0.473,0.662c0.212,0,0.445-0.125,0.535-0.421   c0.021-0.062,0.028-0.142,0.028-0.224V53.341z"/>
	<path d="M37.386,52.303c0-0.534-0.022-1.006-0.04-1.472h1.131l0.066,0.565h0.021c0.251-0.39,0.676-0.646,1.186-0.646   c0.928,0,1.302,0.741,1.302,1.835v3.137h-1.312v-3.062c0-0.412-0.096-0.808-0.481-0.808c-0.217,0-0.399,0.15-0.491,0.439   c-0.036,0.099-0.067,0.263-0.067,0.452v2.978h-1.312V52.303z"/>
</g>
<g id="Des">
	<rect width="60" x="0" fill="none" height="14.525" y="31.722"/>
	<path d="M9.53,35.361H9.494l-1.967,1.065l-0.342-1.503l2.587-1.415h1.652v11.703H9.53V35.361z"/>
	<path d="M17.484,33.076h1.922v10.507h3.243v1.629h-5.165V33.076z"/>
	<path d="M25.835,34.149c0.01,0.66-0.434,1.107-1.063,1.107c-0.56,0-1.009-0.447-0.999-1.107c-0.01-0.683,0.459-1.117,1.027-1.117   C25.401,33.032,25.835,33.467,25.835,34.149z M23.859,45.212v-8.766h1.922v8.766H23.859z"/>
	<path d="M27.469,45.212c0.028-0.652,0.072-1.65,0.072-2.369V32.752h1.912v4.649h0.036c0.438-0.742,1.037-1.099,1.836-1.099   c1.552,0,2.445,1.765,2.445,4.353c0,3.115-1.258,4.701-2.769,4.701c-0.819,0-1.313-0.408-1.729-1.228h-0.051l-0.113,1.083H27.469z    M29.453,42.095c0,0.211,0.031,0.411,0.077,0.553c0.252,0.924,0.701,1.123,1.028,1.123c0.935,0,1.295-1.223,1.295-2.982   c0-1.624-0.378-2.858-1.311-2.858c-0.493,0-0.903,0.57-1.021,1.146c-0.039,0.164-0.069,0.394-0.069,0.568V42.095z"/>
	<path d="M35.376,33.257c0.619-0.145,1.399-0.234,2.261-0.234c1.274,0,2.306,0.234,3.022,0.915c0.657,0.612,0.974,1.556,0.974,2.595   c0,1.227-0.341,2.071-0.896,2.72c-0.715,0.849-1.891,1.251-2.912,1.251c-0.195,0-0.363,0-0.538-0.016v4.725h-1.911V33.257z    M37.287,38.911c0.14,0.026,0.278,0.034,0.464,0.034c1.264,0,1.965-0.867,1.965-2.262c0-1.143-0.466-2.104-1.762-2.104   c-0.266,0-0.502,0.036-0.667,0.09V38.911z"/>
	<path d="M46.342,45.212l-0.113-0.893h-0.043c-0.438,0.676-1.088,1.037-1.856,1.037c-1.257,0-2.206-1.055-2.206-2.593   c0-2.252,1.905-3.204,3.888-3.222V39.31c0-0.913-0.356-1.555-1.31-1.555c-0.627,0-1.159,0.183-1.635,0.486l-0.369-1.312   c0.432-0.272,1.354-0.627,2.422-0.627c2.257,0,2.834,1.545,2.834,3.41v3.503c0,0.682,0.021,1.415,0.113,1.996H46.342z    M46.062,40.822c-0.748,0.011-2.104,0.219-2.104,1.744c0,0.989,0.528,1.347,0.95,1.347c0.482,0,0.945-0.327,1.107-1.003   c0.036-0.137,0.047-0.294,0.047-0.445V40.822z"/>
	<path d="M49.734,38.916c0-0.812-0.043-1.725-0.071-2.47h1.681l0.098,1.322h0.057c0.339-0.889,1.064-1.466,1.78-1.466   c0.187,0,0.292,0.01,0.408,0.03v1.922c-0.118-0.021-0.244-0.021-0.411-0.021c-0.665,0-1.334,0.556-1.539,1.505   c-0.049,0.211-0.08,0.507-0.08,0.841v4.632h-1.922V38.916z"/>
</g>
<g>
</g>
<g>
</g>
<g>
</g>
<g>
</g>
<g>
</g>
<g>
</g>
</svg>