<!-- Generator: Adobe Illustrator 25.2.3, SVG Export Plug-In . SVG Version: 6.00 Build 0)  --><svg x="0px" enable-background="new 0 0 60 60" y="0px" width="60px" xmlns:xlink="http://www.w3.org/1999/xlink" viewBox="0 0 60 60" height="60px" id="Layer_1" xmlns="http://www.w3.org/2000/svg" xml:space="preserve" version="1.1">
<rect width="60" fill="#FBF49C" x="0" height="60" id="UnitColor" y="-0.085"/>
<rect width="60" fill="#F7EC13" height="20.189" id="CS_2_" y="11.533"/>
<g id="Gar" display="none">
	<rect width="14.843" fill="none" x="0.73" height="8.039" y="2.802" display="inline"/>
	<path d="M11.03,10.06c-0.472,0.163-1.361,0.379-2.249,0.379c-1.231,0-2.119-0.308-2.739-0.903   C5.424,8.949,5.085,8.072,5.089,7.083C5.097,4.842,6.73,3.567,8.936,3.567c0.87,0,1.539,0.165,1.873,0.323L10.49,5.111   C10.117,4.95,9.664,4.825,8.922,4.825c-1.27,0-2.235,0.714-2.235,2.18c0,1.391,0.878,2.205,2.125,2.205   c0.344,0,0.623-0.04,0.745-0.095V7.699H8.516V6.512h2.514V10.06z" display="inline"/>
</g>
<g id="Eng" display="none">
	<rect width="27.832" fill="none" x="1.1" height="8.039" y="2.802" display="inline"/>
	<path d="M17.011,7.521h-2.479v1.602h2.771v1.248h-4.294V3.634h4.15v1.248h-2.626v1.403h2.479V7.521z" display="inline"/>
</g>
<g id="P2">
	<path d="M19.024,28.186c0.472-1.148,0.803-2.149,0.992-3.001c0.282-1.24,0.423-2.417,0.423-3.534c0-1.066-0.099-2.078-0.295-3.035   c-0.197-0.957-0.575-2.146-1.135-3.568h1.146c0.628,1.03,1.101,2.092,1.419,3.186c0.319,1.094,0.478,2.185,0.478,3.274   c0,1.094-0.159,2.218-0.476,3.374s-0.786,2.257-1.407,3.305H19.024z"/>
</g>
<g id="P1">
	<path d="M8.327,28.186H7.182c-0.605-1.025-1.071-2.111-1.396-3.257s-0.487-2.257-0.487-3.333c0-1.162,0.163-2.296,0.489-3.401   c0.326-1.105,0.795-2.154,1.408-3.148h1.146c-0.56,1.422-0.938,2.611-1.135,3.568c-0.197,0.957-0.295,1.969-0.295,3.035   c0,1.103,0.139,2.27,0.416,3.5C7.522,26.016,7.855,27.028,8.327,28.186z"/>
</g>
<g id="Type">
	<path d="M53.265,12.893v17.022H26.785V12.893H53.265z M32.298,17.596l-4.094-2.457v12.53l4.091-2.454   c-0.431-0.213-0.834-0.488-1.18-0.844c-0.792-0.819-1.217-1.895-1.198-3.033C29.944,19.68,30.906,18.277,32.298,17.596z    M50.468,14.312H29.583l4.729,2.837h11.428L50.468,14.312z M29.583,28.497h20.885l-4.718-2.831H34.301L29.583,28.497z    M33.952,18.587c-1.455,0.114-2.592,1.292-2.616,2.773c-0.012,0.758,0.271,1.477,0.8,2.022c0.482,0.5,1.12,0.788,1.807,0.844   l4.704-2.822L33.952,18.587z M36.664,24.248h6.721l-3.359-2.016L36.664,24.248z M40.025,20.577l3.35-2.01h-6.699L40.025,20.577z    M46.103,24.223c1.455-0.115,2.592-1.294,2.615-2.774c0.023-1.504-1.136-2.747-2.615-2.865l-4.698,2.82L46.103,24.223z    M47.756,25.215l4.09,2.454v-12.53l-4.094,2.456c1.431,0.708,2.412,2.181,2.385,3.878C50.109,23.131,49.147,24.533,47.756,25.215z"/>
</g>
<g id="STK">
	<path d="M9.839,27.611v-1.345l1.388-1.292c2.753-2.546,4.052-3.949,4.066-5.496c0-1.058-0.562-1.97-2.091-1.97   c-1.036,0-1.914,0.524-2.499,0.975l-0.649-1.574c0.841-0.67,2.121-1.199,3.593-1.199c2.595,0,3.865,1.631,3.865,3.545   c0,2.059-1.479,3.712-3.525,5.602l-1.013,0.888v0.036h4.796v1.831H9.839z"/>
</g>
<g id="ECH">
	<rect width="27.832" x="26.078" fill="none" height="8.039" y="2.802"/>
	<path d="M37.905,3.634v6.736h-1.523V3.634H37.905z"/>
	<path d="M40.756,3.634v6.736h-1.523V3.634H40.756z"/>
	<path d="M43.605,3.634v6.736h-1.522V3.634H43.605z"/>
</g>
<g id="PF">
	<rect width="60" x="0" fill="none" height="15.475" y="44.525"/>
	<path d="M29.696,52.494v0.939H27.71v-0.939H29.696z"/>
	<path d="M32.285,52.494v0.939H30.3v-0.939H32.285z"/>
</g>
<g id="Des">
	<rect width="60" x="0" fill="none" height="14.525" y="31.722"/>
	<path d="M15.209,35.361h-0.036l-1.967,1.065l-0.342-1.503l2.587-1.415h1.652v11.703h-1.894V35.361z"/>
	<path d="M26.146,39.319c0,4.231-1.447,6.037-3.257,6.037c-2.219,0-3.185-2.584-3.185-5.955c0-3.627,1.12-6.037,3.309-6.037   C25.355,33.364,26.146,36.112,26.146,39.319z M21.634,39.36c-0.021,2.778,0.382,4.349,1.34,4.349c0.892,0,1.242-1.611,1.242-4.349   c0-2.614-0.33-4.349-1.25-4.349C22.057,35.012,21.624,36.603,21.634,39.36z"/>
	<path d="M30.507,33.257c0.65-0.154,1.479-0.234,2.389-0.234c1.111,0,2.145,0.186,2.893,0.849c0.594,0.521,0.863,1.298,0.863,2.152   c0,1.147-0.612,2.164-1.804,2.667v0.057c1.404,0.392,2.192,1.538,2.192,2.987c0,1.001-0.324,1.799-0.877,2.393   c-0.707,0.784-1.893,1.17-3.639,1.17c-0.893,0-1.553-0.055-2.018-0.129V33.257z M32.419,38.14h0.566c0.979,0,1.77-0.788,1.77-1.9   c0-0.994-0.463-1.762-1.659-1.762c-0.288,0-0.518,0.025-0.677,0.08V38.14z M32.419,43.749c0.159,0.036,0.357,0.052,0.604,0.052   c1.176,0,2.027-0.704,2.027-2.087c0-1.422-0.979-2.127-2.079-2.135h-0.553V43.749z"/>
	<path d="M38.512,38.916c0-0.812-0.043-1.725-0.071-2.47h1.681l0.098,1.322h0.057c0.339-0.889,1.064-1.466,1.78-1.466   c0.187,0,0.292,0.01,0.408,0.03v1.922c-0.118-0.021-0.244-0.021-0.411-0.021c-0.665,0-1.334,0.556-1.539,1.505   c-0.049,0.211-0.08,0.507-0.08,0.841v4.632h-1.922V38.916z"/>
	<path d="M43.286,43.396c0.329,0.208,0.931,0.461,1.512,0.461c0.686,0,1.105-0.366,1.105-1.003c0-0.549-0.255-0.91-1.068-1.423   c-1.303-0.776-1.776-1.619-1.776-2.51c0-1.51,1.1-2.619,2.68-2.619c0.71,0,1.26,0.2,1.682,0.427l-0.394,1.419   c-0.334-0.211-0.728-0.373-1.198-0.373c-0.664,0-0.991,0.44-0.991,0.912c0,0.478,0.213,0.75,1.055,1.286   c1.166,0.696,1.787,1.56,1.787,2.654c0,1.782-1.247,2.692-2.896,2.692c-0.688,0-1.485-0.198-1.876-0.505L43.286,43.396z"/>
</g>
<g>
</g>
<g>
</g>
<g>
</g>
<g>
</g>
<g>
</g>
<g>
</g>
</svg>