<!-- Generator: Adobe Illustrator 25.2.3, SVG Export Plug-In . SVG Version: 6.00 Build 0)  --><svg x="0px" enable-background="new 0 0 60 60" y="0px" width="60px" xmlns:xlink="http://www.w3.org/1999/xlink" viewBox="0 0 60 60" height="60px" id="Layer_1" xmlns="http://www.w3.org/2000/svg" xml:space="preserve" version="1.1">
<rect width="60" fill="#FBF49C" x="0" height="60" id="UnitColor" y="-0.085"/>
<rect width="60" fill="#F7EC13" height="20.189" id="CS_2_" y="11.533" display="none"/>
<g id="Gar" display="none">
	<rect width="14.843" fill="none" x="0.73" height="8.039" y="2.802" display="inline"/>
	<path d="M11.03,10.06c-0.472,0.163-1.361,0.379-2.249,0.379c-1.231,0-2.119-0.308-2.739-0.903   C5.424,8.949,5.085,8.072,5.089,7.083C5.097,4.842,6.73,3.567,8.936,3.567c0.87,0,1.539,0.165,1.873,0.323L10.49,5.111   C10.117,4.95,9.664,4.825,8.922,4.825c-1.27,0-2.235,0.714-2.235,2.18c0,1.391,0.878,2.205,2.125,2.205   c0.344,0,0.623-0.04,0.745-0.095V7.699H8.516V6.512h2.514V10.06z" display="inline"/>
</g>
<g id="Eng" display="none">
	<rect width="27.832" fill="none" x="1.1" height="8.039" y="2.802" display="inline"/>
	<path d="M17.011,7.521h-2.479v1.602h2.771v1.248h-4.294V3.634h4.15v1.248h-2.626v1.403h2.479V7.521z" display="inline"/>
</g>
<g id="P2" display="none">
	<path d="M19.024,28.186c0.472-1.148,0.803-2.149,0.992-3.001c0.282-1.24,0.423-2.417,0.423-3.534   c0-1.066-0.099-2.078-0.295-3.035c-0.197-0.957-0.575-2.146-1.135-3.568h1.146c0.628,1.03,1.101,2.092,1.419,3.186   c0.319,1.094,0.478,2.185,0.478,3.274c0,1.094-0.159,2.218-0.476,3.374s-0.786,2.257-1.407,3.305H19.024z" display="inline"/>
</g>
<g id="P1" display="none">
	<path d="M8.327,28.186H7.182c-0.605-1.025-1.071-2.111-1.396-3.257s-0.487-2.257-0.487-3.333   c0-1.162,0.163-2.296,0.489-3.401c0.326-1.105,0.795-2.154,1.408-3.148h1.146c-0.56,1.422-0.938,2.611-1.135,3.568   c-0.197,0.957-0.295,1.969-0.295,3.035c0,1.103,0.139,2.27,0.416,3.5C7.522,26.016,7.855,27.028,8.327,28.186z" display="inline"/>
</g>
<g id="Type">
	<path d="M53.265,12.893v17.022H26.785V12.893H53.265z M51.846,14.312H28.204v14.185h23.642V14.312z M37.26,21.404   c0-1.436,1.238-2.601,2.766-2.601s2.765,1.165,2.765,2.601c0,1.437-1.237,2.601-2.765,2.601S37.26,22.84,37.26,21.404z"/>
</g>
<g id="STK">
	<path d="M13.307,17.911h-0.036l-2.139,1.074l-0.386-1.671l2.857-1.406h1.847v11.703h-2.144V17.911z"/>
</g>
<g id="ECH">
	<rect width="27.832" x="26.078" fill="none" height="8.039" y="2.802"/>
	<path d="M39.33,3.634v6.736h-1.523V3.634H39.33z"/>
	<path d="M42.18,3.634v6.736h-1.522V3.634H42.18z"/>
</g>
<g id="PF">
	<rect width="60" x="0" fill="none" height="15.475" y="44.525"/>
	<path d="M29.696,52.494v0.939H27.71v-0.939H29.696z"/>
	<path d="M32.285,52.494v0.939H30.3v-0.939H32.285z"/>
</g>
<g id="Des">
	<rect width="60" x="0" fill="none" height="14.525" y="31.722"/>
	<path d="M15.416,35.361h-0.036l-1.967,1.065l-0.342-1.503l2.587-1.415h1.652v11.703h-1.894V35.361z"/>
	<path d="M19.304,45.933l4.065-13h1.312l-4.065,13H19.304z"/>
	<path d="M27.799,35.361h-0.036l-1.967,1.065l-0.342-1.503l2.587-1.415h1.652v11.703h-1.894V35.361z"/>
	<path d="M34.615,42.049l-0.654,3.163h-1.863l2.699-12.136h2.244l2.51,12.136h-1.878l-0.645-3.163H34.615z M36.827,40.543   l-0.508-2.786c-0.144-0.793-0.306-1.913-0.438-2.763H35.83c-0.134,0.857-0.313,2.014-0.46,2.771l-0.531,2.778H36.827z"/>
	<path d="M40.974,33.257c0.67-0.16,1.511-0.234,2.314-0.234c1.247,0,2.293,0.216,3.007,0.887c0.676,0.641,0.915,1.451,0.915,2.453   c0,1.414-0.679,2.506-1.906,3.074v0.036c0.854,0.306,1.297,1.111,1.544,2.548c0.255,1.486,0.546,2.777,0.741,3.191h-1.994   c-0.159-0.348-0.417-1.538-0.625-2.948c-0.234-1.58-0.683-2.093-1.644-2.093h-0.441v5.041h-1.911V33.257z M42.885,38.688h0.5   c1.156,0,1.878-0.898,1.878-2.13c0-1.2-0.481-1.998-1.734-2.019c-0.242,0-0.489,0.018-0.644,0.072V38.688z"/>
</g>
<g>
</g>
<g>
</g>
<g>
</g>
<g>
</g>
<g>
</g>
<g>
</g>
</svg>