<!-- Generator: Adobe Illustrator 25.2.3, SVG Export Plug-In . SVG Version: 6.00 Build 0)  --><svg x="0px" enable-background="new 0 0 60 60" y="0px" width="60px" xmlns:xlink="http://www.w3.org/1999/xlink" viewBox="0 0 60 60" height="60px" id="Layer_1" xmlns="http://www.w3.org/2000/svg" xml:space="preserve" version="1.1">
<rect width="60" fill="#FBF49C" x="0" height="60" id="UnitColor" y="-0.085"/>
<rect width="60" fill="#F7EC13" height="20.189" id="CS_2_" y="11.533" display="none"/>
<g id="Gar" display="none">
	<rect width="14.843" fill="none" x="0.73" height="8.039" y="2.802" display="inline"/>
	<path d="M11.03,10.06c-0.472,0.163-1.361,0.379-2.249,0.379c-1.231,0-2.119-0.308-2.739-0.903   C5.424,8.949,5.085,8.072,5.089,7.083C5.097,4.842,6.73,3.567,8.936,3.567c0.87,0,1.539,0.165,1.873,0.323L10.49,5.111   C10.117,4.95,9.664,4.825,8.922,4.825c-1.27,0-2.235,0.714-2.235,2.18c0,1.391,0.878,2.205,2.125,2.205   c0.344,0,0.623-0.04,0.745-0.095V7.699H8.516V6.512h2.514V10.06z" display="inline"/>
</g>
<g id="Eng" display="none">
	<rect width="27.832" fill="none" x="1.1" height="8.039" y="2.802" display="inline"/>
	<path d="M17.011,7.521h-2.479v1.602h2.771v1.248h-4.294V3.634h4.15v1.248h-2.626v1.403h2.479V7.521z" display="inline"/>
</g>
<g id="P2" display="none">
	<path d="M19.024,28.186c0.472-1.148,0.803-2.149,0.992-3.001c0.282-1.24,0.423-2.417,0.423-3.534   c0-1.066-0.099-2.078-0.295-3.035c-0.197-0.957-0.575-2.146-1.135-3.568h1.146c0.628,1.03,1.101,2.092,1.419,3.186   c0.319,1.094,0.478,2.185,0.478,3.274c0,1.094-0.159,2.218-0.476,3.374s-0.786,2.257-1.407,3.305H19.024z" display="inline"/>
</g>
<g id="P1" display="none">
	<path d="M8.327,28.186H7.182c-0.605-1.025-1.071-2.111-1.396-3.257s-0.487-2.257-0.487-3.333   c0-1.162,0.163-2.296,0.489-3.401c0.326-1.105,0.795-2.154,1.408-3.148h1.146c-0.56,1.422-0.938,2.611-1.135,3.568   c-0.197,0.957-0.295,1.969-0.295,3.035c0,1.103,0.139,2.27,0.416,3.5C7.522,26.016,7.855,27.028,8.327,28.186z" display="inline"/>
</g>
<g id="Type">
	<path d="M53.265,12.893v17.022H26.785V12.893H53.265z M28.204,15.139v12.53l10.443-6.265L28.204,15.139z M50.468,14.312H29.583   l10.443,6.265L50.468,14.312z M34.15,25.756l-4.568,2.741h2.933C32.671,27.372,33.274,26.395,34.15,25.756z M33.736,28.497h5.621   c-0.259-1.315-1.42-2.312-2.811-2.312S33.995,27.181,33.736,28.497z M47.528,28.497h2.939l-10.442-6.265l-5.314,3.188   c0.555-0.282,1.173-0.456,1.837-0.456c1.489,0,2.783,0.811,3.497,2.005c0.738-1.176,2.049-1.959,3.524-1.948   C45.601,25.054,47.236,26.543,47.528,28.497z M43.549,26.241c-0.017,0-0.031-0.001-0.048-0.001c-1.366,0-2.519,0.964-2.801,2.256   h5.604C46.03,27.216,44.911,26.264,43.549,26.241z M41.404,21.404l10.441,6.265v-12.53L41.404,21.404z"/>
</g>
<g id="STK">
	<path d="M13.307,17.911h-0.036l-2.139,1.074l-0.386-1.671l2.857-1.406h1.847v11.703h-2.144V17.911z"/>
</g>
<g id="ECH">
	<rect width="27.832" x="26.078" fill="none" height="8.039" y="2.802"/>
	<path d="M39.33,3.634v6.736h-1.523V3.634H39.33z"/>
	<path d="M42.18,3.634v6.736h-1.522V3.634H42.18z"/>
</g>
<g id="PF">
	<rect width="60" x="0" fill="none" height="15.475" y="44.525"/>
	<path d="M19.07,48.986h1.312v5.626h1.723v1.11H19.07V48.986z"/>
	<path d="M24.058,49.538c0.008,0.419-0.291,0.709-0.687,0.709c-0.361,0-0.656-0.29-0.648-0.709c-0.008-0.44,0.303-0.717,0.667-0.717   C23.767,48.821,24.058,49.098,24.058,49.538z M22.746,55.723v-4.892h1.312v4.892H22.746z"/>
	<path d="M24.934,55.723c0.018-0.432,0.04-0.984,0.04-1.444v-5.472h1.305v2.523h0.02c0.236-0.354,0.547-0.579,1.02-0.579   c0.947,0,1.384,1.076,1.384,2.392c0,1.714-0.679,2.66-1.594,2.66c-0.406,0-0.693-0.167-0.959-0.655h-0.024l-0.071,0.575H24.934z    M26.278,53.973c0,0.124,0.023,0.239,0.051,0.313c0.11,0.349,0.293,0.443,0.448,0.443c0.438,0,0.623-0.547,0.623-1.484   c0-0.845-0.194-1.39-0.627-1.39c-0.205,0-0.378,0.212-0.446,0.449c-0.026,0.081-0.049,0.215-0.049,0.303V53.973z"/>
	<path d="M30.355,50.831l0.479,2.548c0.055,0.288,0.097,0.551,0.138,0.817h0.02c0.037-0.25,0.076-0.528,0.119-0.802l0.403-2.563   h1.283l-0.999,3.776c-0.237,0.918-0.561,1.864-1.088,2.491c-0.416,0.486-0.908,0.714-1.113,0.772l-0.394-1.133   c0.222-0.078,0.448-0.226,0.646-0.406c0.179-0.168,0.317-0.37,0.411-0.581c0.04-0.085,0.065-0.143,0.065-0.213   c0-0.06-0.016-0.119-0.036-0.18l-1.344-4.527H30.355z"/>
	<path d="M35.362,55.723L35.29,55.24h-0.021c-0.267,0.378-0.647,0.562-1.081,0.562c-0.739,0-1.288-0.618-1.288-1.485   c0-1.285,1.13-1.809,2.234-1.819V52.39c0-0.387-0.224-0.668-0.688-0.668c-0.39,0-0.702,0.105-0.995,0.285l-0.237-0.882   c0.27-0.155,0.837-0.374,1.52-0.374c1.485,0,1.729,1.042,1.729,2.033v1.819c0,0.39,0.016,0.788,0.071,1.119H35.362z M35.174,53.341   c-0.433,0.008-1.036,0.156-1.036,0.837c0,0.482,0.271,0.662,0.473,0.662c0.212,0,0.445-0.125,0.535-0.421   c0.021-0.062,0.028-0.142,0.028-0.224V53.341z"/>
	<path d="M37.386,52.303c0-0.534-0.022-1.006-0.04-1.472h1.131l0.066,0.565h0.021c0.251-0.39,0.676-0.646,1.186-0.646   c0.928,0,1.302,0.741,1.302,1.835v3.137h-1.312v-3.062c0-0.412-0.096-0.808-0.481-0.808c-0.217,0-0.399,0.15-0.491,0.439   c-0.036,0.099-0.067,0.263-0.067,0.452v2.978h-1.312V52.303z"/>
</g>
<g id="Des">
	<rect width="60" x="0" fill="none" height="14.525" y="31.722"/>
	<path d="M14.849,35.361h-0.036l-1.967,1.065l-0.342-1.503l2.587-1.415h1.652v11.703h-1.894V35.361z"/>
	<path d="M25.533,45.019c-0.355,0.176-0.993,0.302-1.785,0.302c-2.77,0-4.35-2.261-4.35-6.009c0-4.67,2.463-6.344,4.622-6.344   c0.79,0,1.345,0.157,1.586,0.309l-0.354,1.627c-0.286-0.134-0.584-0.249-1.153-0.249c-1.322,0-2.671,1.209-2.671,4.523   c0,3.268,1.223,4.436,2.682,4.436c0.451,0,0.908-0.103,1.196-0.214L25.533,45.019z"/>
	<path d="M32.211,45.019c-0.355,0.176-0.993,0.302-1.785,0.302c-2.77,0-4.35-2.261-4.35-6.009c0-4.67,2.463-6.344,4.622-6.344   c0.789,0,1.345,0.157,1.587,0.309l-0.354,1.627c-0.286-0.134-0.584-0.249-1.153-0.249c-1.322,0-2.671,1.209-2.671,4.523   c0,3.268,1.223,4.436,2.682,4.436c0.45,0,0.908-0.103,1.196-0.214L32.211,45.019z"/>
	<path d="M33.567,33.257c0.67-0.16,1.511-0.234,2.314-0.234c1.247,0,2.293,0.216,3.007,0.887c0.676,0.641,0.915,1.451,0.915,2.453   c0,1.414-0.679,2.506-1.906,3.074v0.036c0.854,0.306,1.297,1.111,1.544,2.548c0.255,1.486,0.546,2.777,0.741,3.191h-1.994   c-0.159-0.348-0.417-1.538-0.625-2.948c-0.234-1.58-0.683-2.093-1.644-2.093h-0.441v5.041h-1.911V33.257z M35.479,38.688h0.5   c1.156,0,1.878-0.898,1.878-2.13c0-1.2-0.481-1.998-1.734-2.019c-0.242,0-0.489,0.018-0.644,0.072V38.688z"/>
	<path d="M41.541,33.257c0.67-0.16,1.511-0.234,2.314-0.234c1.247,0,2.293,0.216,3.007,0.887c0.676,0.641,0.915,1.451,0.915,2.453   c0,1.414-0.679,2.506-1.906,3.074v0.036c0.854,0.306,1.297,1.111,1.544,2.548c0.255,1.486,0.546,2.777,0.741,3.191h-1.994   c-0.159-0.348-0.417-1.538-0.625-2.948c-0.234-1.58-0.683-2.093-1.645-2.093h-0.44v5.041h-1.911V33.257z M43.452,38.688h0.5   c1.156,0,1.878-0.898,1.878-2.13c0-1.2-0.481-1.998-1.734-2.019c-0.242,0-0.489,0.018-0.644,0.072V38.688z"/>
</g>
<g>
</g>
<g>
</g>
<g>
</g>
<g>
</g>
<g>
</g>
<g>
</g>
</svg>