<!-- Generator: Adobe Illustrator 25.2.3, SVG Export Plug-In . SVG Version: 6.00 Build 0)  --><svg x="0px" enable-background="new 0 0 60 60" y="0px" width="60px" xmlns:xlink="http://www.w3.org/1999/xlink" viewBox="0 0 60 60" height="60px" id="Layer_1" xmlns="http://www.w3.org/2000/svg" xml:space="preserve" version="1.1">
<rect width="60" x="0" height="60" id="UnitColor" y="-0.085"/>
<rect width="60" fill="#F7EC13" height="20.189" id="CS_2_" y="11.533"/>
<g id="Gar" display="none">
	<rect width="14.843" fill="none" x="0.73" height="8.039" y="2.802" display="inline"/>
	<path fill="#FBF49C" d="M11.03,10.06c-0.472,0.163-1.361,0.379-2.249,0.379c-1.231,0-2.119-0.308-2.739-0.903   C5.424,8.949,5.085,8.072,5.089,7.083C5.097,4.842,6.73,3.567,8.936,3.567c0.87,0,1.539,0.165,1.873,0.323L10.49,5.111   C10.117,4.95,9.664,4.825,8.922,4.825c-1.27,0-2.235,0.714-2.235,2.18c0,1.391,0.878,2.205,2.125,2.205   c0.344,0,0.623-0.04,0.745-0.095V7.699H8.516V6.512h2.514V10.06z" display="inline"/>
</g>
<g id="Eng" display="none">
	<rect width="27.832" fill="none" x="1.1" height="8.039" y="2.802" display="inline"/>
	<path fill="#FBF49C" d="M17.011,7.521h-2.479v1.602h2.771v1.248h-4.294V3.634h4.15v1.248h-2.626v1.403h2.479   V7.521z" display="inline"/>
</g>
<g id="P2">
	<path d="M19.024,28.186c0.472-1.148,0.803-2.149,0.992-3.001c0.282-1.24,0.423-2.417,0.423-3.534c0-1.066-0.099-2.078-0.295-3.035   c-0.197-0.957-0.575-2.146-1.135-3.568h1.146c0.628,1.03,1.101,2.092,1.419,3.186c0.319,1.094,0.478,2.185,0.478,3.274   c0,1.094-0.159,2.218-0.476,3.374s-0.786,2.257-1.407,3.305H19.024z"/>
</g>
<g id="P1">
	<path d="M8.327,28.186H7.182c-0.605-1.025-1.071-2.111-1.396-3.257s-0.487-2.257-0.487-3.333c0-1.162,0.163-2.296,0.489-3.401   c0.326-1.105,0.795-2.154,1.408-3.148h1.146c-0.56,1.422-0.938,2.611-1.135,3.568c-0.197,0.957-0.295,1.969-0.295,3.035   c0,1.103,0.139,2.27,0.416,3.5C7.522,26.016,7.855,27.028,8.327,28.186z"/>
</g>
<g id="Type">
	<path d="M53.265,12.893v17.022H26.785V12.893H53.265z M28.204,15.139v12.53l10.443-6.265L28.204,15.139z M50.468,14.312H29.583   l10.443,6.265L50.468,14.312z M29.583,28.497h20.885l-10.442-6.265L29.583,28.497z M41.404,21.404l10.441,6.265v-12.53   L41.404,21.404z"/>
</g>
<g id="STK">
	<path d="M17.277,17.745h-4.502l-0.341,2.34c0.262-0.033,0.496-0.051,0.844-0.051c1.023,0.003,2.054,0.231,2.834,0.75   c0.893,0.561,1.531,1.556,1.531,2.972c0,2.229-1.845,4.054-4.723,4.054c-1.358,0-2.49-0.342-3.106-0.689l0.454-1.676   c0.501,0.271,1.516,0.617,2.578,0.617c1.293,0,2.537-0.741,2.531-2.133c-0.006-1.337-0.989-2.229-3.322-2.229   c-0.659,0-1.144,0.05-1.6,0.113l0.759-5.905h6.062V17.745z"/>
</g>
<g id="ECH">
	<rect width="27.832" x="26.078" fill="none" height="8.039" y="2.802"/>
	<path fill="#FBF49C" d="M38.123,10.37l-0.608-1.219c-0.243-0.472-0.411-0.823-0.597-1.213h-0.021   c-0.141,0.391-0.306,0.744-0.524,1.209l-0.557,1.223h-1.734l1.946-3.411L34.15,3.634h1.752l0.59,1.227   c0.196,0.409,0.342,0.742,0.502,1.12h0.025c0.163-0.428,0.287-0.728,0.46-1.116l0.565-1.23h1.739l-1.898,3.287l1.999,3.449H38.123z   "/>
	<path fill="#FBF49C" d="M44.145,10.37l-0.608-1.219c-0.244-0.472-0.411-0.823-0.597-1.213h-0.021   c-0.141,0.391-0.307,0.744-0.524,1.209l-0.558,1.223h-1.734l1.947-3.411l-1.878-3.325h1.751l0.59,1.227   c0.197,0.409,0.343,0.742,0.502,1.12h0.026c0.162-0.428,0.287-0.728,0.459-1.116l0.566-1.23h1.739l-1.899,3.287l2,3.449H44.145z"/>
</g>
<g id="PF">
	<rect width="60" x="0" fill="none" height="15.475" y="44.525"/>
	<path fill="#FBF49C" d="M23.147,48.807c-0.583,0.905-1.061,2.205-1.061,4.073c0,1.811,0.478,3.105,1.061,4.042h-0.941   c-0.563-0.752-1.154-2.12-1.154-4.05c0.04-1.947,0.591-3.309,1.154-4.065H23.147z"/>
	<path fill="#FBF49C" d="M25.104,50.459h-0.02l-1.101,0.565l-0.221-1.026l1.489-0.771h1.147v6.496h-1.295V50.459z"/>
	<path fill="#FBF49C" d="M31.379,55.624c-0.188,0.089-0.556,0.158-1.01,0.158c-1.722,0-2.544-1.414-2.544-3.326   c0-2.539,1.409-3.529,2.715-3.529c0.464,0,0.784,0.093,0.916,0.176l-0.219,1.104c-0.154-0.072-0.322-0.134-0.609-0.134   c-0.747,0-1.415,0.645-1.415,2.311c0,1.608,0.613,2.236,1.407,2.236c0.22,0,0.471-0.048,0.631-0.099L31.379,55.624z"/>
	<path fill="#FBF49C" d="M32.105,55.723v-6.736h1.202l1.036,2.643c0.204,0.519,0.532,1.381,0.721,1.964h0.021   c-0.047-0.704-0.133-1.88-0.133-3.118v-1.488h1.15v6.736H34.9l-1.021-2.562c-0.229-0.568-0.532-1.42-0.688-2.023h-0.02   c0.038,0.678,0.085,1.717,0.085,3.071v1.515H32.105z"/>
	<path fill="#FBF49C" d="M36.852,56.922c0.583-0.921,1.061-2.255,1.061-4.081c0-1.812-0.478-3.113-1.061-4.034h0.941   c0.562,0.733,1.154,2.062,1.154,4.042c-0.04,1.977-0.592,3.298-1.154,4.073H36.852z"/>
</g>
<g id="Des">
	<rect width="60" x="0" fill="none" height="14.525" y="31.722"/>
	<path fill="#FBF49C" d="M12.527,35.361h-0.036l-1.967,1.065l-0.342-1.503l2.587-1.415h1.652v11.703h-1.894V35.361z"/>
	<path fill="#FBF49C" d="M26.055,45.019c-0.355,0.176-0.993,0.302-1.785,0.302c-2.77,0-4.35-2.261-4.35-6.009   c0-4.67,2.463-6.344,4.622-6.344c0.79,0,1.345,0.157,1.586,0.309l-0.354,1.627c-0.286-0.134-0.584-0.249-1.153-0.249   c-1.322,0-2.671,1.209-2.671,4.523c0,3.268,1.223,4.436,2.682,4.436c0.451,0,0.908-0.103,1.196-0.214L26.055,45.019z"/>
	<path fill="#FBF49C" d="M32.732,45.019c-0.354,0.176-0.992,0.302-1.784,0.302c-2.77,0-4.35-2.261-4.35-6.009   c0-4.67,2.463-6.344,4.622-6.344c0.789,0,1.345,0.157,1.586,0.309l-0.354,1.627c-0.285-0.134-0.584-0.249-1.152-0.249   c-1.322,0-2.672,1.209-2.672,4.523c0,3.268,1.223,4.436,2.682,4.436c0.451,0,0.909-0.103,1.197-0.214L32.732,45.019z"/>
	<path fill="#FBF49C" d="M34.089,45.212V33.076h1.778l2.028,5.18c0.431,1.101,1.037,2.678,1.413,3.847h0.036   c-0.095-1.557-0.208-3.427-0.208-5.598v-3.429h1.701v12.136H39.06l-2.05-5.166c-0.447-1.114-0.982-2.577-1.33-3.857h-0.036   c0.085,1.401,0.146,3.123,0.146,5.632v3.392H34.089z"/>
	<path fill="#FBF49C" d="M42.963,45.212V33.076h1.778l2.028,5.18c0.431,1.101,1.037,2.678,1.413,3.847h0.036   c-0.095-1.557-0.208-3.427-0.208-5.598v-3.429h1.701v12.136h-1.778l-2.05-5.166c-0.447-1.114-0.982-2.577-1.33-3.857h-0.036   c0.085,1.401,0.146,3.123,0.146,5.632v3.392H42.963z"/>
</g>
<g>
</g>
<g>
</g>
<g>
</g>
<g>
</g>
<g>
</g>
<g>
</g>
</svg>