<!-- Generator: Adobe Illustrator 25.2.3, SVG Export Plug-In . SVG Version: 6.00 Build 0)  --><svg x="0px" enable-background="new 0 0 60 60" y="0px" width="60px" xmlns:xlink="http://www.w3.org/1999/xlink" viewBox="0 0 60 60" height="60px" id="Layer_1" xmlns="http://www.w3.org/2000/svg" xml:space="preserve" version="1.1">
<rect width="60" fill="#FBF49C" x="0" height="60" id="UnitColor" y="-0.085"/>
<rect width="60" fill="#F7EC13" height="20.189" id="CS_2_" y="11.533"/>
<g id="Gar" display="none">
	<rect width="14.843" fill="none" x="0.73" height="8.039" y="2.802" display="inline"/>
	<path d="M11.03,10.06c-0.472,0.163-1.361,0.379-2.249,0.379c-1.231,0-2.119-0.308-2.739-0.903   C5.424,8.949,5.085,8.072,5.089,7.083C5.097,4.842,6.73,3.567,8.936,3.567c0.87,0,1.539,0.165,1.873,0.323L10.49,5.111   C10.117,4.95,9.664,4.825,8.922,4.825c-1.27,0-2.235,0.714-2.235,2.18c0,1.391,0.878,2.205,2.125,2.205   c0.344,0,0.623-0.04,0.745-0.095V7.699H8.516V6.512h2.514V10.06z" display="inline"/>
</g>
<g id="Eng">
	<rect width="27.832" x="1.1" fill="none" height="8.039" y="2.802"/>
	<path d="M17.011,7.521h-2.479v1.602h2.771v1.248h-4.294V3.634h4.15v1.248h-2.626v1.403h2.479V7.521z"/>
</g>
<g id="P2">
	<path d="M19.024,28.186c0.472-1.148,0.803-2.149,0.992-3.001c0.282-1.24,0.423-2.417,0.423-3.534c0-1.066-0.099-2.078-0.295-3.035   c-0.197-0.957-0.575-2.146-1.135-3.568h1.146c0.628,1.03,1.101,2.092,1.419,3.186c0.319,1.094,0.478,2.185,0.478,3.274   c0,1.094-0.159,2.218-0.476,3.374s-0.786,2.257-1.407,3.305H19.024z"/>
</g>
<g id="P1">
	<path d="M8.327,28.186H7.182c-0.605-1.025-1.071-2.111-1.396-3.257s-0.487-2.257-0.487-3.333c0-1.162,0.163-2.296,0.489-3.401   c0.326-1.105,0.795-2.154,1.408-3.148h1.146c-0.56,1.422-0.938,2.611-1.135,3.568c-0.197,0.957-0.295,1.969-0.295,3.035   c0,1.103,0.139,2.27,0.416,3.5C7.522,26.016,7.855,27.028,8.327,28.186z"/>
</g>
<g id="Type">
	<path d="M53.265,12.893v17.022H26.785V12.893H53.265z M28.204,15.139v12.53l10.443-6.265L28.204,15.139z M50.468,14.312H29.583   l10.443,6.265L50.468,14.312z M29.583,28.497h20.885l-10.442-6.265L29.583,28.497z M41.404,21.404l10.441,6.265v-12.53   L41.404,21.404z"/>
</g>
<g id="STK">
	<path d="M17.277,17.745h-4.502l-0.341,2.34c0.262-0.033,0.496-0.051,0.844-0.051c1.023,0.003,2.054,0.231,2.834,0.75   c0.893,0.561,1.531,1.556,1.531,2.972c0,2.229-1.845,4.054-4.723,4.054c-1.358,0-2.49-0.342-3.106-0.689l0.454-1.676   c0.501,0.271,1.516,0.617,2.578,0.617c1.293,0,2.537-0.741,2.531-2.133c-0.006-1.337-0.989-2.229-3.322-2.229   c-0.659,0-1.144,0.05-1.6,0.113l0.759-5.905h6.062V17.745z"/>
</g>
<g id="ECH">
	<rect width="27.832" x="26.078" fill="none" height="8.039" y="2.802"/>
	<path d="M38.123,10.37l-0.608-1.219c-0.243-0.472-0.411-0.823-0.597-1.213h-0.021c-0.141,0.391-0.306,0.744-0.524,1.209   l-0.557,1.223h-1.734l1.946-3.411L34.15,3.634h1.752l0.59,1.227c0.196,0.409,0.342,0.742,0.502,1.12h0.025   c0.163-0.428,0.287-0.728,0.46-1.116l0.565-1.23h1.739l-1.898,3.287l1.999,3.449H38.123z"/>
	<path d="M44.145,10.37l-0.608-1.219c-0.244-0.472-0.411-0.823-0.597-1.213h-0.021c-0.141,0.391-0.307,0.744-0.524,1.209   l-0.558,1.223h-1.734l1.947-3.411l-1.878-3.325h1.751l0.59,1.227c0.197,0.409,0.343,0.742,0.502,1.12h0.026   c0.162-0.428,0.287-0.728,0.459-1.116l0.566-1.23h1.739l-1.899,3.287l2,3.449H44.145z"/>
</g>
<g id="PF">
	<rect width="60" x="0" fill="none" height="15.475" y="44.525"/>
	<path d="M29.696,52.494v0.939H27.71v-0.939H29.696z"/>
	<path d="M32.285,52.494v0.939H30.3v-0.939H32.285z"/>
</g>
<g id="Des">
	<rect width="60" x="0" fill="none" height="14.525" y="31.722"/>
	<path d="M5.975,35.361H5.939l-1.967,1.065L3.63,34.924l2.587-1.415h1.652v11.703H5.975V35.361z"/>
	<path d="M10.808,43.307c0.419,0.25,1.064,0.474,1.718,0.474c1.178,0,1.892-0.788,1.892-1.981c0-1.407-0.987-2.106-2.272-2.116   h-0.324v-1.42h0.247c0.851-0.01,2.033-0.495,2.033-1.765c0-0.997-0.571-1.548-1.441-1.548c-0.55,0-1.065,0.229-1.469,0.5   l-0.308-1.445c0.458-0.329,1.336-0.641,2.267-0.641c1.875,0,2.871,1.263,2.871,2.765c0,1.17-0.635,2.169-1.711,2.676v0.036   c1.093,0.347,2.027,1.321,2.027,3.02c0,1.84-1.306,3.496-3.663,3.496c-0.864,0-1.694-0.227-2.186-0.528L10.808,43.307z"/>
	<path d="M23.46,34.945c-0.26,0.011-0.558,0.046-0.902,0.118c-1.728,0.402-2.5,1.995-2.79,3.614h0.057   c0.435-0.605,1.06-1.017,1.884-1.017c1.532,0,2.592,1.401,2.592,3.613c0,2.128-1.034,4.082-3.136,4.082   c-2.139,0-3.336-1.987-3.336-4.8c0-2.427,0.727-4.171,1.732-5.372c0.738-0.906,1.867-1.499,2.857-1.702   c0.467-0.085,0.822-0.1,1.043-0.118V34.945z M22.391,41.321c-0.01-1.341-0.461-2.249-1.309-2.249c-0.467,0-0.938,0.314-1.209,0.995   c-0.057,0.129-0.111,0.432-0.111,0.884c0.008,1.92,0.578,2.982,1.389,2.982C21.934,43.934,22.391,43.004,22.391,41.321z"/>
	<path d="M35,44.896c-0.515,0.214-1.52,0.425-2.347,0.425c-1.243,0-2.27-0.347-3.077-1.191c-0.969-0.984-1.54-2.72-1.52-4.871   c0.041-4.557,2.512-6.29,4.89-6.29c0.851,0,1.493,0.168,1.871,0.355l-0.365,1.657c-0.336-0.172-0.781-0.285-1.394-0.285   c-1.561,0-3.003,1.155-3.003,4.582c0,3.286,1.264,4.408,2.527,4.408c0.325,0,0.534-0.047,0.64-0.099v-3.39H31.92v-1.578H35V44.896z   "/>
	<path d="M43.208,44.896c-0.515,0.214-1.52,0.425-2.347,0.425c-1.243,0-2.27-0.347-3.077-1.191c-0.969-0.984-1.54-2.72-1.52-4.871   c0.041-4.557,2.513-6.29,4.89-6.29c0.851,0,1.493,0.168,1.871,0.355L42.66,34.98c-0.336-0.172-0.781-0.285-1.394-0.285   c-1.562,0-3.003,1.155-3.003,4.582c0,3.286,1.264,4.408,2.526,4.408c0.325,0,0.534-0.047,0.64-0.099v-3.39h-1.302v-1.578h3.08   V44.896z"/>
	<path d="M45.033,33.076h4.981v1.668h-3.06v3.63h2.866v1.606h-2.866v5.231h-1.922V33.076z"/>
	<path d="M51.711,33.076h4.981v1.668h-3.06v3.63h2.866v1.606h-2.866v5.231h-1.922V33.076z"/>
</g>
<g>
</g>
<g>
</g>
<g>
</g>
<g>
</g>
<g>
</g>
<g>
</g>
</svg>