<!-- Generator: Adobe Illustrator 25.2.3, SVG Export Plug-In . SVG Version: 6.00 Build 0)  --><svg x="0px" enable-background="new 0 0 60 60" y="0px" width="60px" xmlns:xlink="http://www.w3.org/1999/xlink" viewBox="0 0 60 60" height="60px" id="Layer_1" xmlns="http://www.w3.org/2000/svg" xml:space="preserve" version="1.1">
<rect width="60" fill="#FBF49C" x="0" height="60" id="UnitColor" y="-0.085"/>
<rect width="60" fill="#F7EC13" height="20.189" id="CS_2_" y="11.533" display="none"/>
<g id="Gar" display="none">
	<rect width="14.843" fill="none" x="0.73" height="8.039" y="2.802" display="inline"/>
	<path d="M11.03,10.06c-0.472,0.163-1.361,0.379-2.249,0.379c-1.231,0-2.119-0.308-2.739-0.903   C5.424,8.949,5.085,8.072,5.089,7.083C5.097,4.842,6.73,3.567,8.936,3.567c0.87,0,1.539,0.165,1.873,0.323L10.49,5.111   C10.117,4.95,9.664,4.825,8.922,4.825c-1.27,0-2.235,0.714-2.235,2.18c0,1.391,0.878,2.205,2.125,2.205   c0.344,0,0.623-0.04,0.745-0.095V7.699H8.516V6.512h2.514V10.06z" display="inline"/>
</g>
<g id="Eng" display="none">
	<rect width="27.832" fill="none" x="1.1" height="8.039" y="2.802" display="inline"/>
	<path d="M17.011,7.521h-2.479v1.602h2.771v1.248h-4.294V3.634h4.15v1.248h-2.626v1.403h2.479V7.521z" display="inline"/>
</g>
<g id="P2" display="none">
	<path d="M19.024,28.186c0.472-1.148,0.803-2.149,0.992-3.001c0.282-1.24,0.423-2.417,0.423-3.534   c0-1.066-0.099-2.078-0.295-3.035c-0.197-0.957-0.575-2.146-1.135-3.568h1.146c0.628,1.03,1.101,2.092,1.419,3.186   c0.319,1.094,0.478,2.185,0.478,3.274c0,1.094-0.159,2.218-0.476,3.374s-0.786,2.257-1.407,3.305H19.024z" display="inline"/>
</g>
<g id="P1" display="none">
	<path d="M8.327,28.186H7.182c-0.605-1.025-1.071-2.111-1.396-3.257s-0.487-2.257-0.487-3.333   c0-1.162,0.163-2.296,0.489-3.401c0.326-1.105,0.795-2.154,1.408-3.148h1.146c-0.56,1.422-0.938,2.611-1.135,3.568   c-0.197,0.957-0.295,1.969-0.295,3.035c0,1.103,0.139,2.27,0.416,3.5C7.522,26.016,7.855,27.028,8.327,28.186z" display="inline"/>
</g>
<g id="Type">
	<path d="M53.265,12.893v17.022H26.785V12.893H53.265z M34.536,22.832c0,0.41-0.083,0.798-0.212,1.165l4.322-2.593l-10.443-6.265   v5.526c0.649-0.833,1.649-1.378,2.787-1.378c0.001,0,0.001,0,0.002,0C32.95,19.288,34.537,20.875,34.536,22.832z M28.204,25v2.669   l2.244-1.347C29.536,26.182,28.747,25.696,28.204,25z M33.118,22.832c0-1.175-0.952-2.127-2.127-2.127   c-1.174,0.002-2.125,0.953-2.127,2.127c0,1.174,0.952,2.127,2.127,2.127C32.166,24.959,33.118,24.006,33.118,22.832z    M50.468,14.312H29.583l10.443,6.265L50.468,14.312z M29.583,28.497h20.885l-10.442-6.265L29.583,28.497z M51.846,20.65v-5.512   l-10.441,6.265l4.337,2.603c-0.131-0.37-0.215-0.76-0.215-1.174c0-1.958,1.588-3.545,3.545-3.545   C50.201,19.287,51.197,19.826,51.846,20.65z M49.071,24.959c1.175,0,2.127-0.953,2.127-2.127c0-1.175-0.952-2.127-2.127-2.127   c-1.174,0.002-2.125,0.953-2.127,2.127C46.944,24.006,47.897,24.959,49.071,24.959z M49.604,26.323l2.242,1.346v-2.654   C51.302,25.706,50.513,26.185,49.604,26.323z"/>
</g>
<g id="STK">
	<path d="M13.307,17.911h-0.036l-2.139,1.074l-0.386-1.671l2.857-1.406h1.847v11.703h-2.144V17.911z"/>
</g>
<g id="ECH">
	<rect width="27.832" x="26.078" fill="none" height="8.039" y="2.802"/>
	<path d="M39.33,3.634v6.736h-1.523V3.634H39.33z"/>
	<path d="M42.18,3.634v6.736h-1.522V3.634H42.18z"/>
</g>
<g id="PF">
	<rect width="60" x="0" fill="none" height="15.475" y="44.525"/>
	<path d="M19.089,50.459h-0.02l-1.101,0.565l-0.221-1.026l1.489-0.771h1.147v6.496h-1.295V50.459z"/>
	<path d="M25.585,52.443c0,2.333-0.847,3.359-1.9,3.359c-1.414,0-1.891-1.625-1.891-3.297c0-1.868,0.595-3.359,1.939-3.359   C25.243,49.146,25.585,50.897,25.585,52.443z M23.109,52.475c-0.016,1.521,0.17,2.207,0.614,2.207c0.401,0,0.547-0.719,0.547-2.207   c0-1.395-0.131-2.208-0.549-2.208C23.311,50.267,23.102,50.97,23.109,52.475z"/>
	<path d="M26.063,55.723V54.84l0.646-0.825c0.842-1.071,1.529-1.963,1.529-2.89c0-0.523-0.291-0.888-0.83-0.888   c-0.408,0-0.737,0.18-0.975,0.325l-0.23-1.012c0.298-0.195,0.853-0.404,1.443-0.404c1.421,0,1.883,0.951,1.883,1.882   c0,1.22-0.765,2.192-1.509,3.062l-0.389,0.459v0.02h1.985v1.154H26.063z"/>
	<path d="M32.866,50.199h-1.188v-1.213h3.697v1.213h-1.196v5.523h-1.312V50.199z"/>
	<path d="M35.643,52.303c0-0.486-0.021-1.015-0.039-1.472h1.135l0.067,0.716h0.035c0.215-0.521,0.61-0.796,0.969-0.796   c0.133,0,0.202,0.008,0.279,0.023v1.297c-0.083-0.016-0.169-0.016-0.285-0.016c-0.272,0-0.648,0.192-0.791,0.695   c-0.033,0.108-0.058,0.285-0.058,0.488v2.483h-1.312V52.303z"/>
	<path d="M38.575,52.303c0-0.534-0.022-1.006-0.04-1.472h1.131l0.066,0.565h0.021c0.251-0.39,0.676-0.646,1.186-0.646   c0.928,0,1.302,0.741,1.302,1.835v3.137h-1.312v-3.062c0-0.412-0.096-0.808-0.481-0.808c-0.217,0-0.399,0.15-0.491,0.439   c-0.036,0.099-0.067,0.263-0.067,0.452v2.978h-1.312V52.303z"/>
</g>
<g id="Des">
	<rect width="60" x="0" fill="none" height="14.525" y="31.722"/>
	<path d="M10.439,35.361h-0.036l-1.967,1.065l-0.342-1.503l2.587-1.415h1.652v11.703h-1.894V35.361z"/>
	<path d="M17.783,35.361h-0.036l-1.967,1.065l-0.342-1.503l2.587-1.415h1.652v11.703h-1.894V35.361z"/>
	<path d="M21.671,45.933l4.065-13h1.312l-4.065,13H21.671z"/>
	<path d="M33.604,33.509v1.226l-3.73,10.478h-1.871l3.646-9.972v-0.036h-4.091v-1.695H33.604z"/>
	<path d="M35.277,33.257c0.649-0.154,1.479-0.234,2.389-0.234c1.111,0,2.145,0.186,2.892,0.849c0.594,0.521,0.864,1.298,0.864,2.152   c0,1.147-0.613,2.164-1.804,2.667v0.057c1.404,0.392,2.191,1.538,2.191,2.987c0,1.001-0.324,1.799-0.877,2.393   c-0.707,0.784-1.893,1.17-3.639,1.17c-0.893,0-1.552-0.055-2.017-0.129V33.257z M37.188,38.14h0.566c0.979,0,1.771-0.788,1.771-1.9   c0-0.994-0.464-1.762-1.66-1.762c-0.288,0-0.517,0.025-0.677,0.08V38.14z M37.188,43.749c0.16,0.036,0.358,0.052,0.605,0.052   c1.175,0,2.027-0.704,2.027-2.087c0-1.422-0.979-2.127-2.079-2.135h-0.554V43.749z"/>
	<path d="M43.281,38.916c0-0.812-0.043-1.725-0.071-2.47h1.681l0.098,1.322h0.057c0.339-0.889,1.064-1.466,1.78-1.466   c0.187,0,0.292,0.01,0.408,0.03v1.922c-0.118-0.021-0.244-0.021-0.411-0.021c-0.665,0-1.334,0.556-1.539,1.505   c-0.049,0.211-0.08,0.507-0.08,0.841v4.632h-1.922V38.916z"/>
	<path d="M48.056,43.396c0.329,0.208,0.931,0.461,1.512,0.461c0.686,0,1.105-0.366,1.105-1.003c0-0.549-0.255-0.91-1.068-1.423   c-1.303-0.776-1.776-1.619-1.776-2.51c0-1.51,1.1-2.619,2.68-2.619c0.71,0,1.26,0.2,1.682,0.427l-0.394,1.419   c-0.334-0.211-0.728-0.373-1.198-0.373c-0.664,0-0.991,0.44-0.991,0.912c0,0.478,0.213,0.75,1.055,1.286   c1.166,0.696,1.787,1.56,1.787,2.654c0,1.782-1.247,2.692-2.896,2.692c-0.688,0-1.485-0.198-1.876-0.505L48.056,43.396z"/>
</g>
<g>
</g>
<g>
</g>
<g>
</g>
<g>
</g>
<g>
</g>
<g>
</g>
</svg>