<!-- Generator: Adobe Illustrator 25.2.3, SVG Export Plug-In . SVG Version: 6.00 Build 0)  --><svg x="0px" enable-background="new 0 0 60 60" y="0px" width="60px" xmlns:xlink="http://www.w3.org/1999/xlink" viewBox="0 0 60 60" height="60px" id="Layer_1" xmlns="http://www.w3.org/2000/svg" xml:space="preserve" version="1.1">
<rect width="60" fill="#FBF49C" x="0" height="60" id="UnitColor" y="-0.085"/>
<rect width="60" fill="#F7EC13" height="20.189" id="CS_2_" y="11.533" display="none"/>
<g id="Gar">
	<rect width="14.843" x="0.73" fill="none" height="8.039" y="2.802"/>
	<path d="M11.03,10.06c-0.472,0.163-1.361,0.379-2.249,0.379c-1.231,0-2.119-0.308-2.739-0.903C5.424,8.949,5.085,8.072,5.089,7.083   C5.097,4.842,6.73,3.567,8.936,3.567c0.87,0,1.539,0.165,1.873,0.323L10.49,5.111C10.117,4.95,9.664,4.825,8.922,4.825   c-1.27,0-2.235,0.714-2.235,2.18c0,1.391,0.878,2.205,2.125,2.205c0.344,0,0.623-0.04,0.745-0.095V7.699H8.516V6.512h2.514V10.06z"/>
</g>
<g id="Eng" display="none">
	<rect width="27.832" fill="none" x="1.1" height="8.039" y="2.802" display="inline"/>
	<path d="M17.011,7.521h-2.479v1.602h2.771v1.248h-4.294V3.634h4.15v1.248h-2.626v1.403h2.479V7.521z" display="inline"/>
</g>
<g id="P2" display="none">
	<path d="M19.024,28.186c0.472-1.148,0.803-2.149,0.992-3.001c0.282-1.24,0.423-2.417,0.423-3.534   c0-1.066-0.099-2.078-0.295-3.035c-0.197-0.957-0.575-2.146-1.135-3.568h1.146c0.628,1.03,1.101,2.092,1.419,3.186   c0.319,1.094,0.478,2.185,0.478,3.274c0,1.094-0.159,2.218-0.476,3.374s-0.786,2.257-1.407,3.305H19.024z" display="inline"/>
</g>
<g id="P1" display="none">
	<path d="M8.327,28.186H7.182c-0.605-1.025-1.071-2.111-1.396-3.257s-0.487-2.257-0.487-3.333   c0-1.162,0.163-2.296,0.489-3.401c0.326-1.105,0.795-2.154,1.408-3.148h1.146c-0.56,1.422-0.938,2.611-1.135,3.568   c-0.197,0.957-0.295,1.969-0.295,3.035c0,1.103,0.139,2.27,0.416,3.5C7.522,26.016,7.855,27.028,8.327,28.186z" display="inline"/>
</g>
<g id="Type">
	<path d="M53.265,12.893v17.022H26.785V12.893H53.265z M34.629,18.994l-6.425-3.855v12.53l6.06-3.635l-0.22-1.196   c-0.01-0.052,0.013-0.104,0.058-0.132c0.044-0.029,0.101-0.025,0.144,0.004l1.018,0.727l3.159-1.896h-1.215   c-0.034,0-0.067-0.014-0.092-0.038c-0.023-0.025-0.038-0.058-0.038-0.092l0.001-0.856c0-0.029,0.015-0.052,0.03-0.074l-1.023-0.615   c-0.003,0.008-0.012,0.025-0.012,0.026c-0.001,0.002-0.017,0.033-0.017,0.034c-0.003,0.005-0.021,0.036-0.023,0.042   c-0.001,0.001-0.027,0.041-0.027,0.041c-0.001,0.001-0.021,0.028-0.021,0.03c-0.003,0.003-0.026,0.031-0.03,0.036l-0.032,0.035   c-0.002,0.002-0.026,0.025-0.028,0.027c-0.003,0.002-0.029,0.024-0.031,0.026c-0.002,0.001-0.029,0.023-0.03,0.024   c-0.003,0.002-0.032,0.022-0.034,0.024l-0.026,0.019c-0.002,0.001-0.033,0.02-0.034,0.02c-0.003,0.001-0.035,0.019-0.038,0.02   L35.638,20.3c-0.002,0.001-0.029,0.011-0.032,0.014c-0.001,0-0.031,0.011-0.031,0.011l-0.04,0.013c-0.001,0-0.035,0.01-0.036,0.01   l-0.033,0.008c-0.003,0.001-0.039,0.009-0.042,0.009c-0.004,0.001-0.043,0.007-0.047,0.007c-0.003,0-0.041,0.004-0.044,0.004   l-0.041,0.004c-0.002,0-0.037,0.001-0.038,0.001c-0.002,0-0.014,0-0.025,0c-0.008,0-0.015,0-0.016,0   c-0.002,0-0.031-0.001-0.033-0.001l-0.007-0.131l-0.025,0.128c-0.002,0-0.032-0.003-0.034-0.003c-0.005,0-0.036-0.004-0.04-0.005   l-0.034-0.006c-0.001,0-0.037-0.007-0.038-0.007l-0.034-0.008c-0.004-0.001-0.041-0.011-0.044-0.012s-0.039-0.013-0.042-0.014   l0.017-0.131l-0.05,0.119l-0.032-0.013c-0.005-0.002-0.04-0.018-0.044-0.02l-0.029-0.015c-0.002,0-0.033-0.018-0.035-0.019   s-0.028-0.017-0.029-0.018s-0.034-0.022-0.035-0.023c-0.004-0.003-0.035-0.027-0.039-0.029l-0.106-0.099   c-0.002-0.002-0.024-0.028-0.026-0.03c-0.002-0.003-0.024-0.03-0.027-0.034c0-0.002-0.029-0.042-0.03-0.044   c0-0.002-0.019-0.032-0.02-0.035c-0.002-0.003-0.025-0.047-0.026-0.05c0-0.001-0.02-0.044-0.02-0.045   c-0.001-0.003-0.012-0.031-0.012-0.033c0-0.001-0.011-0.034-0.011-0.034c-0.001-0.004-0.009-0.036-0.009-0.04   c0-0.003-0.007-0.037-0.007-0.041l0.124-0.041l-0.13-0.002c0-0.004-0.002-0.039-0.002-0.042c0-0.002,0-0.041,0-0.042   c0.001-0.004,0.003-0.035,0.003-0.038c0.001-0.003,0.005-0.031,0.005-0.034c0.001-0.003,0.01-0.051,0.011-0.055l0.13,0.008   l-0.12-0.048c0.001-0.002,0.011-0.029,0.012-0.032s0.011-0.027,0.012-0.031c0-0.002,0.013-0.027,0.014-0.03   s0.016-0.033,0.018-0.035c0-0.001,0.021-0.035,0.021-0.036c0.002-0.004,0.025-0.039,0.027-0.042   c0.002-0.002,0.022-0.029,0.024-0.032c0.002-0.002,0.022-0.027,0.024-0.029l0.112,0.068l-0.09-0.093   c0.005-0.004,0.04-0.039,0.045-0.042l0.062-0.052C34.613,19.004,34.621,18.999,34.629,18.994z M39.784,14.312H29.583l6.879,4.129   l0.542-0.112c0.002,0,0.111-0.02,0.113-0.02l0.109-0.018l0.112-0.017l0.112-0.017c0.002,0,0.116-0.016,0.118-0.016l0.353-0.043   c0.002,0,0.122-0.012,0.124-0.012c0.001-0.001,0.121-0.014,0.123-0.014c0.001,0,0.123-0.012,0.124-0.012l0.15,0.363l-0.034-0.374   l1.008-0.059c0,0,0.018-0.001,0.024-0.001v-0.156c-0.026-0.01-0.06-0.023-0.066-0.026l0.066-0.313v-0.035l-0.155,0.309   c-0.011-0.005-0.085-0.043-0.096-0.049c-0.003-0.002-0.096-0.057-0.1-0.059c-0.006-0.004-0.097-0.065-0.103-0.069   c-0.012-0.009-0.077-0.06-0.088-0.069c-0.001-0.001-0.071-0.061-0.073-0.062c-0.005-0.004-0.067-0.064-0.071-0.068   s-0.063-0.066-0.067-0.071c-0.002-0.003-0.063-0.076-0.066-0.08c-0.009-0.01-0.058-0.078-0.065-0.089   c-0.002-0.003-0.062-0.092-0.063-0.096c-0.006-0.009-0.062-0.107-0.067-0.117c-0.003-0.005-0.051-0.104-0.053-0.109   c-0.002-0.005-0.043-0.104-0.044-0.108c-0.004-0.011-0.029-0.086-0.032-0.097c-0.002-0.005-0.026-0.091-0.027-0.094   c-0.002-0.01-0.022-0.103-0.024-0.112c0-0.004-0.015-0.092-0.016-0.096c-0.001-0.007-0.012-0.099-0.012-0.107   c-0.001-0.01-0.006-0.123-0.006-0.133c0-0.01,0.003-0.122,0.004-0.132c0-0.005,0.01-0.112,0.011-0.118   c0.002-0.015,0.021-0.13,0.024-0.146l0.022-0.099c0.003-0.012,0.025-0.088,0.028-0.099c0.002-0.004,0.038-0.105,0.04-0.109   c0.004-0.009,0.034-0.08,0.038-0.088c0.001-0.001,0.046-0.096,0.047-0.098c0.005-0.008,0.054-0.095,0.059-0.103   c0.002-0.003,0.049-0.075,0.051-0.079c0.005-0.008,0.062-0.086,0.066-0.094c0.004-0.004,0.061-0.076,0.064-0.079   c0.007-0.009,0.06-0.066,0.067-0.074c0.005-0.005,0.083-0.082,0.088-0.086c0.008-0.007,0.094-0.08,0.103-0.087   c0.003-0.003,0.088-0.067,0.092-0.069c0.008-0.007,0.075-0.05,0.085-0.056c0.004-0.002,0.096-0.057,0.101-0.059   c0.008-0.004,0.076-0.04,0.084-0.043c0.004-0.002,0.103-0.044,0.106-0.046c0.011-0.003,0.117-0.042,0.128-0.045l0.098-0.029   c0.01-0.001,0.086-0.02,0.095-0.021C39.719,14.323,39.754,14.317,39.784,14.312z M34.537,25.524l-4.955,2.973h10.473   c-0.009-0.006-0.02-0.004-0.026-0.011l-0.942-0.942c-0.013-0.003-0.035-0.006-0.035-0.006l-2.094-0.736l-0.122-0.072   c-0.002-0.001-0.117-0.072-0.119-0.074l-0.953-0.876l-0.894,0.568c-0.021,0.012-0.045,0.02-0.069,0.02   c-0.018,0-0.034-0.004-0.052-0.011c-0.039-0.017-0.068-0.053-0.075-0.096L34.537,25.524z M34.498,19.323 M37.114,26.022   l-0.087,0.387l0.191-0.323l1.117,0.512c0.003,0.001,0.114,0.036,0.117,0.036l0.328,0.076l0.66-0.66v-3.468l-2.921,1.752   l0.559,0.399c0.035,0.024,0.055,0.065,0.054,0.108c0,0.042-0.023,0.083-0.06,0.105l-0.738,0.469l0.094,0.087l-0.172,0.348   l0.243-0.286L37.114,26.022z M37.086,18.813l0.048,0.029l-0.067-0.147L37.086,18.813z M37.332,18.959l2.109,1.266v-1.387   l-0.965,0.055l-0.154-0.363l0.034,0.374l-0.154-0.361l0.038,0.373l-0.118,0.012l-0.156-0.36l0.044,0.374l-0.341,0.042l-0.163-0.355   l0.055,0.371l-0.112,0.017l-0.166-0.354L37.332,18.959z M39.398,17.061l-0.14,0.361l0.236-0.293c0,0,0.084,0.047,0.085,0.047   l-0.014,0.065c0.002,0,0.003-0.002,0.005-0.002h0.085l0.012-0.024l-0.003,0.024h0.808l-0.001-0.003   c0.006-0.003,0.097-0.04,0.102-0.042c0.006-0.004,0.086-0.044,0.091-0.048l0.267,0.276l-0.187-0.327l0.306,0.238l-0.218-0.307   l0.31,0.224l-0.232-0.296l0.349,0.171l-0.279-0.25l0.361,0.142l-0.3-0.225l0.372,0.108l-0.321-0.193l0.055-0.114   c0.002-0.007,0.028-0.084,0.031-0.092c0.002-0.009,0.024-0.095,0.026-0.104l0.384-0.009l-0.365-0.096   c0-0.01,0.006-0.095,0.007-0.106l0.374-0.037l-0.374-0.01c-0.002-0.01-0.007-0.086-0.008-0.096   c-0.001-0.005-0.015-0.099-0.016-0.103l0.347-0.161l-0.372,0.062c-0.003-0.007-0.031-0.089-0.033-0.096   c-0.003-0.005-0.042-0.094-0.044-0.098c-0.003-0.003-0.05-0.084-0.052-0.088l0.249-0.298l-0.31,0.211   c-0.005-0.005-0.06-0.07-0.063-0.075c-0.004-0.003-0.072-0.071-0.075-0.074l0.188-0.332l-0.267,0.267   c-0.005-0.003-0.075-0.05-0.08-0.054c0,0-0.083-0.047-0.084-0.047l0.076-0.378l-0.163,0.339l0.037-0.386l-0.128,0.353v-0.388   l-0.105,0.36l-0.027-0.385l-0.077,0.368l-0.059-0.38l-0.05,0.374l-0.12-0.372L39.99,15.04l-0.133-0.361l0.027,0.375l-0.16-0.348   l0.067,0.37l-0.094,0.031l-0.231-0.311l0.119,0.36c-0.002,0.002-0.081,0.046-0.083,0.047c-0.001,0.001-0.095,0.064-0.096,0.065   l-0.31-0.23l0.223,0.303c-0.004,0.004-0.066,0.069-0.071,0.074l-0.351-0.166l0.29,0.238l-0.357-0.141l0.3,0.225l-0.37-0.107   l0.314,0.21c-0.001,0.001-0.037,0.085-0.038,0.086l-0.381-0.045l0.35,0.138c-0.002,0.01-0.025,0.107-0.028,0.118   c0,0.002-0.013,0.095-0.013,0.098l-0.004,0.115c0,0.003,0.007,0.104,0.007,0.106c0.002,0.009,0.015,0.092,0.017,0.101l-0.347,0.164   l0.369-0.072l-0.328,0.202l0.361-0.105l-0.31,0.231l0.349-0.139l-0.285,0.26l0.336-0.168l-0.263,0.282l0.32-0.197l-0.221,0.322   l0.289-0.24l-0.201,0.33l0.267-0.264l-0.172,0.346L39.398,17.061z M39.441,18.486l-0.007-0.021l0.007,0.235V18.486z M40.186,28.496   h10.282l-4.956-2.973l-0.136,0.738c-0.008,0.043-0.036,0.079-0.075,0.096c-0.017,0.008-0.034,0.011-0.052,0.011   c-0.023,0-0.048-0.006-0.069-0.02l-0.841-0.535l-0.122,0.161l-0.105,0.095c-0.002,0.002-0.07,0.06-0.071,0.062l-0.827,0.598   c-0.004,0.002-0.12,0.071-0.124,0.073c-0.002,0.001-0.117,0.064-0.118,0.065l-1.561,0.591c-0.001,0-0.133,0.028-0.136,0.029   L41.199,27.5l-0.986,0.985C40.206,28.493,40.194,28.492,40.186,28.496z M50.468,14.312H40.403c0.032,0.005,0.067,0.011,0.071,0.011   c0.01,0.003,0.087,0.021,0.097,0.023c0.005,0.002,0.104,0.03,0.108,0.031c0.012,0.005,0.124,0.046,0.136,0.051   c0.002,0.001,0.098,0.042,0.1,0.043c0.008,0.005,0.077,0.04,0.085,0.044s0.104,0.062,0.11,0.066   c0.005,0.003,0.096,0.065,0.102,0.069c0.006,0.005,0.076,0.06,0.082,0.064c0.002,0.002,0.071,0.062,0.073,0.063   c0.009,0.008,0.065,0.062,0.073,0.071c0.003,0.003,0.066,0.073,0.069,0.077c0.007,0.007,0.063,0.077,0.07,0.085   c0.002,0.003,0.064,0.088,0.065,0.091c0.007,0.009,0.05,0.077,0.056,0.086c0.004,0.006,0.051,0.087,0.054,0.093   c0.002,0.005,0.042,0.083,0.043,0.088c0.005,0.008,0.05,0.111,0.053,0.121c0.005,0.01,0.041,0.118,0.044,0.129   c0,0.001,0.028,0.101,0.029,0.102c0.002,0.011,0.019,0.088,0.021,0.099c0.001,0.01,0.015,0.087,0.016,0.096l-0.367,0.099   l0.377,0.001c0.001,0.01,0.006,0.09,0.006,0.1l0.001,0.068c0,0.011-0.003,0.088-0.003,0.099c-0.001,0.009-0.01,0.088-0.011,0.097   c0,0.001-0.015,0.103-0.015,0.103c-0.001,0.011-0.018,0.087-0.02,0.097l-0.023,0.099c-0.003,0.01-0.026,0.083-0.029,0.093   c-0.004,0.01-0.03,0.084-0.035,0.095L41.8,16.96c-0.004,0.01-0.039,0.08-0.045,0.09c-0.003,0.006-0.049,0.086-0.052,0.092   c-0.004,0.006-0.055,0.083-0.059,0.089c-0.002,0.004-0.055,0.075-0.057,0.079c-0.004,0.005-0.063,0.079-0.068,0.083   c-0.005,0.005-0.065,0.074-0.07,0.078c-0.006,0.006-0.071,0.071-0.076,0.076c-0.008,0.007-0.066,0.059-0.074,0.065   c-0.004,0.003-0.087,0.069-0.09,0.071c-0.01,0.007-0.074,0.052-0.084,0.058c-0.006,0.004-0.099,0.061-0.104,0.064   c-0.006,0.003-0.103,0.054-0.108,0.057c-0.009,0.005-0.078,0.037-0.087,0.04c-0.002,0-0.024,0.009-0.046,0.018v0.174l0.309,0.012   c0.002,0,0.127,0.007,0.129,0.007l0.624,0.045c0.002,0,0.123,0.012,0.125,0.012l0.119,0.013c0.002,0,0.122,0.012,0.124,0.012   l0.352,0.043c0.002,0,0.117,0.016,0.119,0.016l0.057,0.388l-0.05,0.336l0.088-0.053l-0.037-0.285l0.051-0.371   c0.004,0,0.117,0.018,0.12,0.018l0.653,0.121c0,0,0.027,0.006,0.055,0.012L50.468,14.312z M42.678,18.985l-0.052-0.359   l-0.051,0.372l-0.453-0.058l-0.074-0.384l-0.039,0.373l-0.119-0.012l-0.081-0.384l-0.03,0.374c-0.001,0-0.122-0.01-0.124-0.01   l-0.479-0.034l-0.102-0.381l-0.018,0.375l-0.276-0.011v1.28L42.678,18.985z M43.53,24.336l-2.75-1.649v3.343l0.649,0.648   l0.16-0.044l0.237,0.32l-0.118-0.355l0.684-0.276c0.002-0.001,0.111-0.057,0.114-0.058l0.103-0.055l0.295,0.265l-0.188-0.323   l0.302,0.256l-0.195-0.321l0.108-0.066l0.308,0.247l-0.208-0.312l0.487-0.366l0.344,0.199l-0.248-0.281l0.094-0.096l-0.73-0.464   c-0.036-0.022-0.058-0.062-0.06-0.105c-0.001-0.043,0.02-0.084,0.055-0.108L43.53,24.336z M45.786,24.033l6.06,3.636v-12.53   l-6.384,3.832c0.008,0.004,0.016,0.008,0.02,0.01l0.029,0.017c0.003,0.002,0.032,0.022,0.035,0.024l0.027,0.019   c0.003,0.002,0.026,0.02,0.028,0.022c0.004,0.003,0.038,0.031,0.041,0.034l0.023,0.021c0.006,0.005,0.022,0.024,0.027,0.029   c0.005,0.005,0.029,0.033,0.032,0.038c0.003,0.002,0.023,0.028,0.026,0.031c0.001,0.001,0.021,0.029,0.022,0.031   c0,0.001,0.019,0.029,0.02,0.031c0.004,0.006,0.014,0.026,0.017,0.032c0.006,0.009,0.013,0.022,0.016,0.031   c0.004,0.007,0.017,0.033,0.02,0.041c0.003,0.008,0.016,0.044,0.018,0.05c0.001,0.003,0.012,0.036,0.013,0.04   c0,0.001,0.01,0.038,0.01,0.038c0.001,0.007,0.008,0.052,0.008,0.061c0,0.005,0.005,0.041,0.005,0.044   c0,0.005-0.001,0.025-0.001,0.043l0.001,0.015c-0.001,0.005-0.004,0.035-0.005,0.04c0,0.001-0.003,0.036-0.003,0.036   c-0.002,0.006-0.011,0.05-0.014,0.057c-0.001,0.005-0.007,0.028-0.009,0.032s-0.011,0.039-0.013,0.042   c-0.002,0.007-0.017,0.041-0.021,0.046c-0.003,0.008-0.011,0.025-0.017,0.033c-0.001,0.002-0.02,0.038-0.021,0.04   c-0.004,0.007-0.021,0.035-0.026,0.041l-0.118-0.056l0.096,0.082c-0.004,0.004-0.02,0.024-0.023,0.028   c-0.005,0.007-0.024,0.03-0.03,0.036c-0.004,0.004-0.03,0.029-0.034,0.032l-0.103-0.078l0.079,0.102   c-0.004,0.003-0.025,0.021-0.03,0.024l-0.025,0.02c-0.003,0.002-0.031,0.021-0.034,0.023l-0.027,0.018   c-0.006,0.003-0.041,0.022-0.046,0.024c-0.006,0.003-0.024,0.014-0.029,0.016l-0.031,0.014l-0.031,0.013   c-0.007,0.003-0.044,0.018-0.051,0.019c-0.003,0.001-0.047,0.014-0.05,0.015l-0.068,0.017c-0.004,0.001-0.04,0.007-0.044,0.008   l-0.035,0.006c-0.008,0.001-0.049,0.005-0.057,0.005l-0.054,0.003c-0.003,0-0.043,0-0.046,0c-0.001,0-0.036,0-0.037,0l-0.016-0.13   l-0.019,0.128c-0.001,0-0.03-0.003-0.032-0.003c-0.006-0.001-0.036-0.006-0.043-0.007l-0.087-0.016   c-0.003-0.001-0.042-0.01-0.045-0.011l-0.065-0.021c-0.001,0-0.032-0.012-0.032-0.012c-0.006-0.002-0.027-0.011-0.032-0.014   l-0.032-0.014c-0.003-0.001-0.036-0.019-0.039-0.02l-0.03-0.017c-0.003-0.002-0.033-0.021-0.036-0.023l-0.027-0.019   c-0.006-0.004-0.025-0.02-0.031-0.024c-0.005-0.005-0.021-0.015-0.026-0.02c-0.003-0.001-0.021-0.019-0.024-0.021l-0.047-0.044   c-0.002-0.002-0.026-0.027-0.026-0.029c-0.005-0.005-0.028-0.034-0.03-0.039c-0.002-0.002-0.031-0.042-0.032-0.043l-0.025-0.04   c-0.003-0.006-0.014-0.025-0.017-0.032c0-0.001-0.019-0.04-0.02-0.041c0-0.001-0.016-0.037-0.017-0.037   c-0.001-0.003-0.012-0.036-0.013-0.039s-0.008-0.027-0.009-0.031l-1.088,0.652c0.043,0.021,0.078,0.057,0.078,0.108v0.856   c0,0.071-0.059,0.129-0.13,0.129h-1.318l3.159,1.895l1.016-0.726c0.042-0.03,0.099-0.033,0.145-0.004   c0.044,0.029,0.067,0.081,0.058,0.132L45.786,24.033z"/>
</g>
<g id="STK">
	<path d="M13.307,17.911h-0.036l-2.139,1.074l-0.386-1.671l2.857-1.406h1.847v11.703h-2.144V17.911z"/>
</g>
<g id="ECH">
	<rect width="27.832" x="26.078" fill="none" height="8.039" y="2.802"/>
	<path d="M39.33,3.634v6.736h-1.523V3.634H39.33z"/>
	<path d="M42.18,3.634v6.736h-1.522V3.634H42.18z"/>
</g>
<g id="PF">
	<rect width="60" x="0" fill="none" height="15.475" y="44.525"/>
	<path d="M20.797,53.367c-0.034-0.646-0.076-1.508-0.062-2.234h-0.026c-0.121,0.723-0.3,1.552-0.426,2.075l-0.585,2.404h-0.929   l-0.559-2.366c-0.13-0.545-0.308-1.383-0.411-2.113h-0.024c-0.02,0.735-0.067,1.585-0.102,2.251l-0.114,2.339h-1.124l0.484-6.736   h1.383l0.537,2.438c0.187,0.854,0.357,1.599,0.478,2.36h0.022c0.103-0.748,0.252-1.508,0.429-2.36l0.531-2.438h1.383l0.409,6.736   h-1.173L20.797,53.367z"/>
	<path d="M25.162,55.723l-0.071-0.482h-0.022c-0.267,0.378-0.647,0.562-1.081,0.562c-0.739,0-1.288-0.618-1.288-1.485   c0-1.285,1.13-1.809,2.235-1.819V52.39c0-0.387-0.225-0.668-0.688-0.668c-0.39,0-0.703,0.105-0.995,0.285l-0.238-0.882   c0.271-0.155,0.837-0.374,1.52-0.374c1.485,0,1.729,1.042,1.729,2.033v1.819c0,0.39,0.016,0.788,0.072,1.119H25.162z    M24.974,53.341c-0.433,0.008-1.037,0.156-1.037,0.837c0,0.482,0.271,0.662,0.473,0.662c0.213,0,0.446-0.125,0.536-0.421   c0.02-0.062,0.028-0.142,0.028-0.224V53.341z"/>
	<path d="M27.184,52.303c0-0.486-0.022-1.015-0.04-1.472h1.135l0.067,0.716h0.036c0.215-0.521,0.611-0.796,0.969-0.796   c0.132,0,0.202,0.008,0.279,0.023v1.297c-0.083-0.016-0.168-0.016-0.285-0.016c-0.273,0-0.648,0.192-0.791,0.695   c-0.034,0.108-0.057,0.285-0.057,0.488v2.483h-1.312V52.303z"/>
	<path d="M31.429,49.538c0.008,0.419-0.291,0.709-0.687,0.709c-0.361,0-0.657-0.29-0.648-0.709c-0.008-0.44,0.303-0.717,0.667-0.717   C31.138,48.821,31.429,49.098,31.429,49.538z M30.116,55.723v-4.892h1.312v4.892H30.116z"/>
	<path d="M32.347,52.303c0-0.534-0.022-1.006-0.04-1.472h1.131l0.066,0.565h0.021c0.251-0.39,0.676-0.646,1.186-0.646   c0.928,0,1.302,0.741,1.302,1.835v3.137h-1.312v-3.062c0-0.412-0.096-0.808-0.481-0.808c-0.217,0-0.399,0.15-0.491,0.439   c-0.036,0.099-0.067,0.263-0.067,0.452v2.978h-1.312V52.303z"/>
	<path d="M38.024,53.743c0.017,0.763,0.457,1.045,1.036,1.045c0.373,0,0.694-0.08,0.933-0.166l0.171,0.937   c-0.332,0.136-0.848,0.224-1.341,0.224c-1.333,0-2.065-0.879-2.065-2.407c0-1.645,0.856-2.624,1.957-2.624   c1.052,0,1.666,0.83,1.666,2.311c0,0.35-0.016,0.542-0.039,0.682H38.024z M39.188,52.826c0.004-0.628-0.162-1.12-0.552-1.12   c-0.426,0-0.6,0.626-0.609,1.12H39.188z"/>
	<path d="M41.076,54.546c0.191,0.118,0.554,0.258,0.885,0.258c0.334,0,0.53-0.15,0.53-0.436c0-0.257-0.146-0.411-0.571-0.663   c-0.798-0.45-0.993-0.96-0.993-1.406c0-0.879,0.631-1.548,1.611-1.548c0.406,0,0.729,0.101,0.992,0.229l-0.229,0.956   c-0.188-0.108-0.417-0.198-0.683-0.198c-0.334,0-0.489,0.196-0.489,0.417c0,0.216,0.114,0.341,0.572,0.614   c0.72,0.409,0.986,0.919,0.986,1.472c0,1.004-0.717,1.542-1.73,1.542c-0.407,0-0.889-0.109-1.112-0.279L41.076,54.546z"/>
</g>
<g id="Des">
	<rect width="60" x="0" fill="none" height="14.525" y="31.722"/>
	<path d="M29.626,35.361H29.59l-1.967,1.065l-0.342-1.503l2.587-1.415h1.652v11.703h-1.894V35.361z"/>
</g>
<g>
</g>
<g>
</g>
<g>
</g>
<g>
</g>
<g>
</g>
<g>
</g>
</svg>