<!-- Generator: Adobe Illustrator 25.2.3, SVG Export Plug-In . SVG Version: 6.00 Build 0)  --><svg x="0px" enable-background="new 0 0 60 60" y="0px" width="60px" xmlns:xlink="http://www.w3.org/1999/xlink" viewBox="0 0 60 60" height="60px" id="Layer_1" xmlns="http://www.w3.org/2000/svg" xml:space="preserve" version="1.1">
<rect width="60" x="0" height="60" id="UnitColor" y="-0.085"/>
<rect width="60" fill="#F7EC13" height="20.189" id="CS_2_" y="11.533" display="none"/>
<g id="Gar" display="none">
	<rect width="14.843" fill="none" x="0.73" height="8.039" y="2.802" display="inline"/>
	<path fill="#FBF49C" d="M11.03,10.06c-0.472,0.163-1.361,0.379-2.249,0.379c-1.231,0-2.119-0.308-2.739-0.903   C5.424,8.949,5.085,8.072,5.089,7.083C5.097,4.842,6.73,3.567,8.936,3.567c0.87,0,1.539,0.165,1.873,0.323L10.49,5.111   C10.117,4.95,9.664,4.825,8.922,4.825c-1.27,0-2.235,0.714-2.235,2.18c0,1.391,0.878,2.205,2.125,2.205   c0.344,0,0.623-0.04,0.745-0.095V7.699H8.516V6.512h2.514V10.06z" display="inline"/>
</g>
<g id="Eng" display="none">
	<rect width="27.832" fill="none" x="1.1" height="8.039" y="2.802" display="inline"/>
	<path fill="#FBF49C" d="M17.011,7.521h-2.479v1.602h2.771v1.248h-4.294V3.634h4.15v1.248h-2.626v1.403h2.479   V7.521z" display="inline"/>
</g>
<g id="P2" display="none">
	<path fill="#FBF49C" d="M19.024,28.186c0.472-1.148,0.803-2.149,0.992-3.001c0.282-1.24,0.423-2.417,0.423-3.534   c0-1.066-0.099-2.078-0.295-3.035c-0.197-0.957-0.575-2.146-1.135-3.568h1.146c0.628,1.03,1.101,2.092,1.419,3.186   c0.319,1.094,0.478,2.185,0.478,3.274c0,1.094-0.159,2.218-0.476,3.374s-0.786,2.257-1.407,3.305H19.024z" display="inline"/>
</g>
<g id="P1" display="none">
	<path fill="#FBF49C" d="M8.327,28.186H7.182c-0.605-1.025-1.071-2.111-1.396-3.257s-0.487-2.257-0.487-3.333   c0-1.162,0.163-2.296,0.489-3.401c0.326-1.105,0.795-2.154,1.408-3.148h1.146c-0.56,1.422-0.938,2.611-1.135,3.568   c-0.197,0.957-0.295,1.969-0.295,3.035c0,1.103,0.139,2.27,0.416,3.5C7.522,26.016,7.855,27.028,8.327,28.186z" display="inline"/>
</g>
<g id="Type">
	<path fill="#FBF49C" d="M53.265,12.893v17.022H26.785V12.893H53.265z M28.204,15.139v12.53l10.443-6.265L28.204,15.139z    M50.468,14.312H29.583l10.443,6.265L50.468,14.312z M29.583,28.497h20.885l-10.442-6.265L29.583,28.497z M41.404,21.404   l10.441,6.265v-12.53L41.404,21.404z"/>
</g>
<g id="STK">
	<path fill="#FBF49C" d="M13.307,17.911h-0.036l-2.139,1.074l-0.386-1.671l2.857-1.406h1.847v11.703h-2.144V17.911z"/>
</g>
<g id="ECH">
	<rect width="27.832" x="26.078" fill="none" height="8.039" y="2.802"/>
	<path fill="#FBF49C" d="M39.33,3.634v6.736h-1.523V3.634H39.33z"/>
	<path fill="#FBF49C" d="M42.18,3.634v6.736h-1.522V3.634H42.18z"/>
</g>
<g id="PF">
	<rect width="60" x="0" fill="none" height="15.475" y="44.525"/>
	<path fill="#FBF49C" d="M15.769,55.723V54.84l0.646-0.825c0.842-1.071,1.529-1.963,1.529-2.89c0-0.523-0.291-0.888-0.83-0.888   c-0.408,0-0.737,0.18-0.975,0.325l-0.23-1.012c0.298-0.195,0.853-0.404,1.443-0.404c1.421,0,1.883,0.951,1.883,1.882   c0,1.22-0.765,2.192-1.509,3.062l-0.389,0.459v0.02h1.985v1.154H15.769z"/>
	<path fill="#FBF49C" d="M20.213,54.48c0.257,0.149,0.626,0.257,0.967,0.257c0.637,0,0.989-0.398,0.989-0.941   c0-0.725-0.559-1.027-1.22-1.035h-0.18v-0.957h0.128c0.481-0.008,1.093-0.211,1.093-0.837c0-0.47-0.293-0.747-0.754-0.747   c-0.292,0-0.58,0.104-0.817,0.253l-0.175-0.984c0.267-0.176,0.796-0.342,1.335-0.342c1.142,0,1.719,0.735,1.719,1.567   c0,0.649-0.361,1.187-0.935,1.456v0.021c0.629,0.217,1.112,0.777,1.112,1.652c0,0.995-0.758,1.96-2.173,1.96   c-0.525,0-0.991-0.128-1.272-0.286L20.213,54.48z"/>
	<path fill="#FBF49C" d="M24.249,54.03c0-0.807,0.442-1.386,0.978-1.729l-0.002-0.02c-0.553-0.362-0.795-0.918-0.795-1.425   c0-1.064,0.834-1.711,1.839-1.711c0.924,0,1.671,0.633,1.671,1.598c0,0.431-0.167,1.016-0.85,1.441v0.021   c0.6,0.324,1.004,0.925,1.004,1.693c0,1.204-0.878,1.902-1.946,1.902C25.03,55.803,24.249,55.096,24.249,54.03z M26.826,53.956   c0-0.617-0.381-1.01-0.748-1.2c-0.332,0.224-0.562,0.629-0.562,1.131c0,0.562,0.226,1.031,0.675,1.031   C26.606,54.918,26.826,54.502,26.826,53.956z M25.657,50.818c0,0.459,0.255,0.775,0.639,0.979c0.273-0.147,0.446-0.548,0.446-0.928   c0-0.44-0.146-0.847-0.532-0.847C25.83,50.022,25.657,50.411,25.657,50.818z"/>
	<path fill="#FBF49C" d="M28.084,56.122l2.344-7.216h0.852l-2.344,7.216H28.084z"/>
	<path fill="#FBF49C" d="M31.349,55.723V54.84l0.645-0.825c0.843-1.071,1.529-1.963,1.529-2.89c0-0.523-0.29-0.888-0.83-0.888   c-0.407,0-0.736,0.18-0.975,0.325l-0.23-1.012c0.298-0.195,0.854-0.404,1.443-0.404c1.421,0,1.883,0.951,1.883,1.882   c0,1.22-0.765,2.192-1.51,3.062l-0.389,0.459v0.02H34.9v1.154H31.349z"/>
	<path fill="#FBF49C" d="M39.168,55.624c-0.188,0.089-0.556,0.158-1.011,0.158c-1.721,0-2.544-1.414-2.544-3.326   c0-2.539,1.409-3.529,2.715-3.529c0.465,0,0.784,0.093,0.916,0.176l-0.219,1.104c-0.154-0.072-0.322-0.134-0.609-0.134   c-0.747,0-1.415,0.645-1.415,2.311c0,1.608,0.613,2.236,1.408,2.236c0.219,0,0.471-0.048,0.631-0.099L39.168,55.624z"/>
	<path fill="#FBF49C" d="M39.895,55.723v-6.736h1.202l1.036,2.643c0.204,0.519,0.532,1.381,0.721,1.964h0.021   c-0.047-0.704-0.133-1.88-0.133-3.118v-1.488h1.15v6.736h-1.202l-1.021-2.562c-0.229-0.568-0.532-1.42-0.688-2.023h-0.02   c0.038,0.678,0.085,1.717,0.085,3.071v1.515H39.895z"/>
</g>
<g id="Des">
	<rect width="60" x="0" fill="none" height="14.525" y="31.722"/>
	<path fill="#FBF49C" d="M22.283,35.361h-0.036l-1.967,1.065l-0.342-1.503l2.587-1.415h1.652v11.703h-1.894V35.361z"/>
	<path fill="#FBF49C" d="M27.115,43.307c0.419,0.25,1.064,0.474,1.718,0.474c1.178,0,1.892-0.788,1.892-1.981   c0-1.407-0.987-2.106-2.272-2.116h-0.324v-1.42h0.247c0.851-0.01,2.033-0.495,2.033-1.765c0-0.997-0.571-1.548-1.441-1.548   c-0.55,0-1.065,0.229-1.469,0.5l-0.308-1.445c0.458-0.329,1.336-0.641,2.267-0.641c1.875,0,2.871,1.263,2.871,2.765   c0,1.17-0.635,2.169-1.711,2.676v0.036c1.093,0.347,2.027,1.321,2.027,3.02c0,1.84-1.306,3.496-3.663,3.496   c-0.864,0-1.694-0.227-2.186-0.528L27.115,43.307z"/>
	<path fill="#FBF49C" d="M34.103,42.25c0-1.539,0.875-2.584,1.832-3.225l-0.008-0.036c-0.985-0.655-1.479-1.669-1.479-2.613   c0-1.87,1.4-3.012,3.053-3.012c1.672,0,2.788,1.259,2.788,2.818c0,0.892-0.387,1.917-1.551,2.676v0.044   c1.08,0.646,1.837,1.714,1.837,3.113c0,2.013-1.413,3.341-3.277,3.341C35.309,45.356,34.103,43.955,34.103,42.25z M38.706,42.108   c0-1.218-0.726-1.949-1.493-2.408c-0.753,0.487-1.242,1.34-1.242,2.303c0,1.146,0.494,2.013,1.393,2.013   C38.159,44.016,38.706,43.309,38.706,42.108z M36.264,36.291c0,0.991,0.583,1.573,1.282,1.982c0.591-0.371,0.967-1.112,0.967-1.893   c0-0.943-0.351-1.687-1.113-1.687C36.674,34.694,36.264,35.409,36.264,36.291z"/>
</g>
<g>
</g>
<g>
</g>
<g>
</g>
<g>
</g>
<g>
</g>
<g>
</g>
</svg>