<!-- Generator: Adobe Illustrator 25.2.3, SVG Export Plug-In . SVG Version: 6.00 Build 0)  --><svg x="0px" enable-background="new 0 0 60 60" y="0px" width="60px" xmlns:xlink="http://www.w3.org/1999/xlink" viewBox="0 0 60 60" height="60px" id="Layer_1" xmlns="http://www.w3.org/2000/svg" xml:space="preserve" version="1.1">
<rect width="60" fill="#FBF49C" x="0" height="60" id="UnitColor" y="-0.085"/>
<rect width="60" fill="#F7EC13" height="20.189" id="CS_2_" y="11.533"/>
<g id="Gar" display="none">
	<rect width="14.843" fill="none" x="0.73" height="8.039" y="2.802" display="inline"/>
	<path d="M11.03,10.06c-0.472,0.163-1.361,0.379-2.249,0.379c-1.231,0-2.119-0.308-2.739-0.903   C5.424,8.949,5.085,8.072,5.089,7.083C5.097,4.842,6.73,3.567,8.936,3.567c0.87,0,1.539,0.165,1.873,0.323L10.49,5.111   C10.117,4.95,9.664,4.825,8.922,4.825c-1.27,0-2.235,0.714-2.235,2.18c0,1.391,0.878,2.205,2.125,2.205   c0.344,0,0.623-0.04,0.745-0.095V7.699H8.516V6.512h2.514V10.06z" display="inline"/>
</g>
<g id="Eng">
	<rect width="27.832" x="1.1" fill="none" height="8.039" y="2.802"/>
	<path d="M17.011,7.521h-2.479v1.602h2.771v1.248h-4.294V3.634h4.15v1.248h-2.626v1.403h2.479V7.521z"/>
</g>
<g id="P2">
	<path d="M19.024,28.186c0.472-1.148,0.803-2.149,0.992-3.001c0.282-1.24,0.423-2.417,0.423-3.534c0-1.066-0.099-2.078-0.295-3.035   c-0.197-0.957-0.575-2.146-1.135-3.568h1.146c0.628,1.03,1.101,2.092,1.419,3.186c0.319,1.094,0.478,2.185,0.478,3.274   c0,1.094-0.159,2.218-0.476,3.374s-0.786,2.257-1.407,3.305H19.024z"/>
</g>
<g id="P1">
	<path d="M8.327,28.186H7.182c-0.605-1.025-1.071-2.111-1.396-3.257s-0.487-2.257-0.487-3.333c0-1.162,0.163-2.296,0.489-3.401   c0.326-1.105,0.795-2.154,1.408-3.148h1.146c-0.56,1.422-0.938,2.611-1.135,3.568c-0.197,0.957-0.295,1.969-0.295,3.035   c0,1.103,0.139,2.27,0.416,3.5C7.522,26.016,7.855,27.028,8.327,28.186z"/>
</g>
<g id="Type">
	<path d="M53.265,12.893v17.022H26.785V12.893H53.265z M28.204,15.139v12.53l10.443-6.265L28.204,15.139z M50.468,14.312H29.583   l10.443,6.265L50.468,14.312z M34.15,25.756l-4.568,2.741h2.933C32.671,27.372,33.274,26.395,34.15,25.756z M33.736,28.497h5.621   c-0.259-1.315-1.42-2.312-2.811-2.312S33.995,27.181,33.736,28.497z M47.528,28.497h2.939l-10.442-6.265l-5.314,3.188   c0.555-0.282,1.173-0.456,1.837-0.456c1.489,0,2.783,0.811,3.497,2.005c0.738-1.176,2.049-1.959,3.524-1.948   C45.601,25.054,47.236,26.543,47.528,28.497z M43.549,26.241c-0.017,0-0.031-0.001-0.048-0.001c-1.366,0-2.519,0.964-2.801,2.256   h5.604C46.03,27.216,44.911,26.264,43.549,26.241z M41.404,21.404l10.441,6.265v-12.53L41.404,21.404z"/>
</g>
<g id="STK">
	<path d="M17.277,17.745h-4.502l-0.341,2.34c0.262-0.033,0.496-0.051,0.844-0.051c1.023,0.003,2.054,0.231,2.834,0.75   c0.893,0.561,1.531,1.556,1.531,2.972c0,2.229-1.845,4.054-4.723,4.054c-1.358,0-2.49-0.342-3.106-0.689l0.454-1.676   c0.501,0.271,1.516,0.617,2.578,0.617c1.293,0,2.537-0.741,2.531-2.133c-0.006-1.337-0.989-2.229-3.322-2.229   c-0.659,0-1.144,0.05-1.6,0.113l0.759-5.905h6.062V17.745z"/>
</g>
<g id="ECH">
	<rect width="27.832" x="26.078" fill="none" height="8.039" y="2.802"/>
	<path d="M38.123,10.37l-0.608-1.219c-0.243-0.472-0.411-0.823-0.597-1.213h-0.021c-0.141,0.391-0.306,0.744-0.524,1.209   l-0.557,1.223h-1.734l1.946-3.411L34.15,3.634h1.752l0.59,1.227c0.196,0.409,0.342,0.742,0.502,1.12h0.025   c0.163-0.428,0.287-0.728,0.46-1.116l0.565-1.23h1.739l-1.898,3.287l1.999,3.449H38.123z"/>
	<path d="M44.145,10.37l-0.608-1.219c-0.244-0.472-0.411-0.823-0.597-1.213h-0.021c-0.141,0.391-0.307,0.744-0.524,1.209   l-0.558,1.223h-1.734l1.947-3.411l-1.878-3.325h1.751l0.59,1.227c0.197,0.409,0.343,0.742,0.502,1.12h0.026   c0.162-0.428,0.287-0.728,0.459-1.116l0.566-1.23h1.739l-1.899,3.287l2,3.449H44.145z"/>
</g>
<g id="PF">
	<rect width="60" x="0" fill="none" height="15.475" y="44.525"/>
	<path d="M29.696,52.494v0.939H27.71v-0.939H29.696z"/>
	<path d="M32.285,52.494v0.939H30.3v-0.939H32.285z"/>
</g>
<g id="Des">
	<rect width="60" x="0" fill="none" height="14.525" y="31.722"/>
	<path d="M9.737,35.361H9.701l-1.967,1.065l-0.342-1.503l2.587-1.415h1.652v11.703H9.737V35.361z"/>
	<path d="M14.212,42.25c0-1.539,0.875-2.584,1.832-3.225l-0.007-0.036c-0.985-0.655-1.48-1.669-1.48-2.613   c0-1.87,1.401-3.012,3.053-3.012c1.672,0,2.789,1.259,2.789,2.818c0,0.892-0.387,1.917-1.551,2.676v0.044   c1.08,0.646,1.837,1.714,1.837,3.113c0,2.013-1.413,3.341-3.277,3.341C15.419,45.356,14.212,43.955,14.212,42.25z M18.816,42.108   c0-1.218-0.726-1.949-1.494-2.408c-0.752,0.487-1.242,1.34-1.242,2.303c0,1.146,0.495,2.013,1.394,2.013   C18.27,44.016,18.816,43.309,18.816,42.108z M16.374,36.291c0,0.991,0.583,1.573,1.283,1.982c0.59-0.371,0.966-1.112,0.966-1.893   c0-0.943-0.351-1.687-1.113-1.687C16.784,34.694,16.374,35.409,16.374,36.291z"/>
	<path d="M27.438,35.184h-3.125l-0.366,2.557c0.131-0.022,0.247-0.022,0.394-0.022c0.559,0.01,1.564,0.265,2.212,0.882   c0.643,0.622,1.003,1.499,1.003,2.686c0,2.297-1.492,4.071-3.837,4.071c-0.782,0-1.64-0.201-2.108-0.489l0.339-1.521   c0.398,0.208,1.016,0.425,1.654,0.425c1.175,0,2.054-0.814,2.054-2.304c0-1.698-1.16-2.338-2.585-2.338   c-0.374,0-0.644,0.016-0.88,0.052l0.697-5.672h4.55V35.184z"/>
	<path d="M29.535,33.076h4.982v1.668h-3.06v3.63h2.866v1.606h-2.866v5.231h-1.922V33.076z"/>
	<path d="M41.582,40.809c0,3.535-1.821,4.548-3.154,4.548c-1.859,0-3.128-1.556-3.128-4.507c0-3.166,1.556-4.547,3.192-4.547   C40.332,36.303,41.582,37.919,41.582,40.809z M37.217,40.819c0,1.476,0.25,3.053,1.272,3.053c0.957,0,1.176-1.73,1.176-3.053   c0-1.271-0.219-3.033-1.211-3.033C37.426,37.786,37.217,39.548,37.217,40.819z"/>
	<path d="M43.02,32.752h1.922v12.46H43.02V32.752z"/>
	<path d="M52.782,36.446c-0.038,0.714-0.082,1.572-0.082,2.757v4.956c0,2.078-0.323,3.036-0.974,3.702   c-0.594,0.607-1.473,0.952-2.616,0.952c-0.784,0-1.52-0.157-2.074-0.422l0.386-1.489c0.4,0.193,0.964,0.376,1.656,0.376   c1.146,0,1.711-0.743,1.711-2.374v-0.688h-0.036c-0.299,0.612-0.926,0.955-1.618,0.955c-1.78,0-2.664-1.968-2.664-4.28   c0-3.057,1.387-4.588,2.867-4.588c0.796,0,1.312,0.479,1.62,1.078h0.036l0.098-0.935H52.782z M50.789,39.565   c0-0.227-0.031-0.463-0.085-0.641c-0.129-0.475-0.407-0.995-0.982-0.995c-0.914,0-1.345,1.24-1.345,2.899   c0,1.906,0.57,2.817,1.321,2.817c0.361,0,0.769-0.175,0.987-0.913c0.083-0.232,0.104-0.492,0.104-0.734V39.565z"/>
</g>
<g>
</g>
<g>
</g>
<g>
</g>
<g>
</g>
<g>
</g>
<g>
</g>
</svg>