<!-- Generator: Adobe Illustrator 25.2.3, SVG Export Plug-In . SVG Version: 6.00 Build 0)  --><svg x="0px" enable-background="new 0 0 60 60" y="0px" width="60px" xmlns:xlink="http://www.w3.org/1999/xlink" viewBox="0 0 60 60" height="60px" id="Layer_1" xmlns="http://www.w3.org/2000/svg" xml:space="preserve" version="1.1">
<rect width="60" fill="#FBF49C" x="0" height="60" id="UnitColor" y="-0.085"/>
<rect width="60" fill="#F7EC13" height="20.189" id="CS_2_" y="11.533"/>
<g id="Gar" display="none">
	<rect width="14.843" fill="none" x="0.73" height="8.039" y="2.802" display="inline"/>
	<path d="M11.03,10.06c-0.472,0.163-1.361,0.379-2.249,0.379c-1.231,0-2.119-0.308-2.739-0.903   C5.424,8.949,5.085,8.072,5.089,7.083C5.097,4.842,6.73,3.567,8.936,3.567c0.87,0,1.539,0.165,1.873,0.323L10.49,5.111   C10.117,4.95,9.664,4.825,8.922,4.825c-1.27,0-2.235,0.714-2.235,2.18c0,1.391,0.878,2.205,2.125,2.205   c0.344,0,0.623-0.04,0.745-0.095V7.699H8.516V6.512h2.514V10.06z" display="inline"/>
</g>
<g id="Eng">
	<rect width="27.832" x="1.1" fill="none" height="8.039" y="2.802"/>
	<path d="M17.011,7.521h-2.479v1.602h2.771v1.248h-4.294V3.634h4.15v1.248h-2.626v1.403h2.479V7.521z"/>
</g>
<g id="P2">
	<path d="M19.024,28.186c0.472-1.148,0.803-2.149,0.992-3.001c0.282-1.24,0.423-2.417,0.423-3.534c0-1.066-0.099-2.078-0.295-3.035   c-0.197-0.957-0.575-2.146-1.135-3.568h1.146c0.628,1.03,1.101,2.092,1.419,3.186c0.319,1.094,0.478,2.185,0.478,3.274   c0,1.094-0.159,2.218-0.476,3.374s-0.786,2.257-1.407,3.305H19.024z"/>
</g>
<g id="P1">
	<path d="M8.327,28.186H7.182c-0.605-1.025-1.071-2.111-1.396-3.257s-0.487-2.257-0.487-3.333c0-1.162,0.163-2.296,0.489-3.401   c0.326-1.105,0.795-2.154,1.408-3.148h1.146c-0.56,1.422-0.938,2.611-1.135,3.568c-0.197,0.957-0.295,1.969-0.295,3.035   c0,1.103,0.139,2.27,0.416,3.5C7.522,26.016,7.855,27.028,8.327,28.186z"/>
</g>
<g id="Type">
	<path d="M53.265,12.893v17.022H26.785V12.893H53.265z M28.204,15.139v12.53l10.443-6.265L28.204,15.139z M50.468,14.312H29.583   l10.443,6.265L50.468,14.312z M29.583,28.497h20.885l-10.442-6.265L29.583,28.497z M41.404,21.404l10.441,6.265v-12.53   L41.404,21.404z"/>
</g>
<g id="STK">
	<path d="M17.277,17.745h-4.502l-0.341,2.34c0.262-0.033,0.496-0.051,0.844-0.051c1.023,0.003,2.054,0.231,2.834,0.75   c0.893,0.561,1.531,1.556,1.531,2.972c0,2.229-1.845,4.054-4.723,4.054c-1.358,0-2.49-0.342-3.106-0.689l0.454-1.676   c0.501,0.271,1.516,0.617,2.578,0.617c1.293,0,2.537-0.741,2.531-2.133c-0.006-1.337-0.989-2.229-3.322-2.229   c-0.659,0-1.144,0.05-1.6,0.113l0.759-5.905h6.062V17.745z"/>
</g>
<g id="ECH">
	<rect width="27.832" x="26.078" fill="none" height="8.039" y="2.802"/>
	<path d="M38.123,10.37l-0.608-1.219c-0.243-0.472-0.411-0.823-0.597-1.213h-0.021c-0.141,0.391-0.306,0.744-0.524,1.209   l-0.557,1.223h-1.734l1.946-3.411L34.15,3.634h1.752l0.59,1.227c0.196,0.409,0.342,0.742,0.502,1.12h0.025   c0.163-0.428,0.287-0.728,0.46-1.116l0.565-1.23h1.739l-1.898,3.287l1.999,3.449H38.123z"/>
	<path d="M44.145,10.37l-0.608-1.219c-0.244-0.472-0.411-0.823-0.597-1.213h-0.021c-0.141,0.391-0.307,0.744-0.524,1.209   l-0.558,1.223h-1.734l1.947-3.411l-1.878-3.325h1.751l0.59,1.227c0.197,0.409,0.343,0.742,0.502,1.12h0.026   c0.162-0.428,0.287-0.728,0.459-1.116l0.566-1.23h1.739l-1.899,3.287l2,3.449H44.145z"/>
</g>
<g id="PF">
	<rect width="60" x="0" fill="none" height="15.475" y="44.525"/>
	<path d="M29.696,52.494v0.939H27.71v-0.939H29.696z"/>
	<path d="M32.285,52.494v0.939H30.3v-0.939H32.285z"/>
</g>
<g id="Des">
	<rect width="60" x="0" fill="none" height="14.525" y="31.722"/>
	<path d="M5.816,45.212v-1.277l1.079-1.425c1.466-1.935,2.885-3.805,2.885-5.71c0-1.103-0.543-1.821-1.57-1.821   c-0.785,0-1.358,0.379-1.728,0.612l-0.38-1.47c0.478-0.345,1.395-0.757,2.458-0.757c2.284,0,3.12,1.589,3.12,3.305   c0,2.196-1.405,4.122-2.794,5.873l-0.736,0.938v0.036h3.719v1.696H5.816z"/>
	<path d="M16.566,33.076h1.922v10.507h3.243v1.629h-5.165V33.076z"/>
	<path d="M24.917,34.149c0.01,0.66-0.434,1.107-1.063,1.107c-0.56,0-1.009-0.447-0.999-1.107c-0.01-0.683,0.459-1.117,1.027-1.117   C24.483,33.032,24.917,33.467,24.917,34.149z M22.941,45.212v-8.766h1.922v8.766H22.941z"/>
	<path d="M26.551,45.212c0.028-0.652,0.072-1.65,0.072-2.369V32.752h1.912v4.649h0.036c0.438-0.742,1.037-1.099,1.836-1.099   c1.552,0,2.445,1.765,2.445,4.353c0,3.115-1.258,4.701-2.769,4.701c-0.819,0-1.312-0.408-1.729-1.228h-0.051l-0.113,1.083H26.551z    M28.535,42.095c0,0.211,0.031,0.411,0.077,0.553c0.252,0.924,0.701,1.123,1.028,1.123c0.936,0,1.296-1.223,1.296-2.982   c0-1.624-0.378-2.858-1.311-2.858c-0.493,0-0.903,0.57-1.021,1.146c-0.039,0.164-0.069,0.394-0.069,0.568V42.095z"/>
	<path d="M35.451,36.446l0.994,4.776c0.127,0.59,0.207,1.107,0.3,1.619h0.035c0.078-0.471,0.184-1.043,0.284-1.599l0.865-4.797   h1.889l-1.629,6.258c-0.479,1.896-1.07,3.783-2.051,4.998c-0.686,0.833-1.467,1.239-1.809,1.36l-0.621-1.652   c0.403-0.178,0.823-0.495,1.196-0.895c0.337-0.374,0.602-0.838,0.759-1.236c0.072-0.181,0.11-0.281,0.11-0.407   c0-0.107-0.021-0.216-0.057-0.324l-2.319-8.102H35.451z"/>
	<path d="M44.362,45.212l-0.113-0.893h-0.043c-0.438,0.676-1.088,1.037-1.856,1.037c-1.257,0-2.206-1.055-2.206-2.593   c0-2.252,1.905-3.204,3.888-3.222V39.31c0-0.913-0.356-1.555-1.31-1.555c-0.627,0-1.159,0.183-1.635,0.486l-0.369-1.312   c0.432-0.272,1.354-0.627,2.422-0.627c2.257,0,2.834,1.545,2.834,3.41v3.503c0,0.682,0.021,1.415,0.113,1.996H44.362z    M44.083,40.822c-0.748,0.011-2.104,0.219-2.104,1.744c0,0.989,0.528,1.347,0.95,1.347c0.482,0,0.945-0.327,1.107-1.003   c0.036-0.137,0.047-0.294,0.047-0.445V40.822z"/>
	<path d="M47.763,38.916c0-0.99-0.043-1.693-0.071-2.47h1.665l0.098,1.031h0.036c0.416-0.702,1.154-1.175,2.072-1.175   c1.461,0,2.239,1.135,2.239,3.167v5.742H51.88v-5.559c0-0.876-0.186-1.731-1.022-1.731c-0.478,0-0.905,0.366-1.075,1.072   c-0.057,0.193-0.098,0.477-0.098,0.798v5.42h-1.922V38.916z"/>
</g>
<g>
</g>
<g>
</g>
<g>
</g>
<g>
</g>
<g>
</g>
<g>
</g>
</svg>