<!-- Generator: Adobe Illustrator 25.2.3, SVG Export Plug-In . SVG Version: 6.00 Build 0)  --><svg x="0px" enable-background="new 0 0 60 60" y="0px" width="60px" xmlns:xlink="http://www.w3.org/1999/xlink" viewBox="0 0 60 60" height="60px" id="Layer_1" xmlns="http://www.w3.org/2000/svg" xml:space="preserve" version="1.1">
<rect width="60" fill="#FBF49C" x="0" height="60" id="UnitColor" y="-0.085"/>
<rect width="60" fill="#F7EC13" height="20.189" id="CS_2_" y="11.533" display="none"/>
<g id="Gar" display="none">
	<rect width="14.843" fill="none" x="0.73" height="8.039" y="2.802" display="inline"/>
	<path d="M11.03,10.06c-0.472,0.163-1.361,0.379-2.249,0.379c-1.231,0-2.119-0.308-2.739-0.903   C5.424,8.949,5.085,8.072,5.089,7.083C5.097,4.842,6.73,3.567,8.936,3.567c0.87,0,1.539,0.165,1.873,0.323L10.49,5.111   C10.117,4.95,9.664,4.825,8.922,4.825c-1.27,0-2.235,0.714-2.235,2.18c0,1.391,0.878,2.205,2.125,2.205   c0.344,0,0.623-0.04,0.745-0.095V7.699H8.516V6.512h2.514V10.06z" display="inline"/>
</g>
<g id="Eng" display="none">
	<rect width="27.832" fill="none" x="1.1" height="8.039" y="2.802" display="inline"/>
	<path d="M17.011,7.521h-2.479v1.602h2.771v1.248h-4.294V3.634h4.15v1.248h-2.626v1.403h2.479V7.521z" display="inline"/>
</g>
<g id="P2" display="none">
	<path d="M19.024,28.186c0.472-1.148,0.803-2.149,0.992-3.001c0.282-1.24,0.423-2.417,0.423-3.534   c0-1.066-0.099-2.078-0.295-3.035c-0.197-0.957-0.575-2.146-1.135-3.568h1.146c0.628,1.03,1.101,2.092,1.419,3.186   c0.319,1.094,0.478,2.185,0.478,3.274c0,1.094-0.159,2.218-0.476,3.374s-0.786,2.257-1.407,3.305H19.024z" display="inline"/>
</g>
<g id="P1" display="none">
	<path d="M8.327,28.186H7.182c-0.605-1.025-1.071-2.111-1.396-3.257s-0.487-2.257-0.487-3.333   c0-1.162,0.163-2.296,0.489-3.401c0.326-1.105,0.795-2.154,1.408-3.148h1.146c-0.56,1.422-0.938,2.611-1.135,3.568   c-0.197,0.957-0.295,1.969-0.295,3.035c0,1.103,0.139,2.27,0.416,3.5C7.522,26.016,7.855,27.028,8.327,28.186z" display="inline"/>
</g>
<g id="Type">
	<path d="M53.265,12.893v17.022H26.785V12.893H53.265z M51.846,14.312H28.204v14.185h23.642V14.312z M37.26,21.404   c0-1.436,1.238-2.601,2.766-2.601s2.765,1.165,2.765,2.601c0,1.437-1.237,2.601-2.765,2.601S37.26,22.84,37.26,21.404z"/>
</g>
<g id="STK">
	<path d="M13.307,17.911h-0.036l-2.139,1.074l-0.386-1.671l2.857-1.406h1.847v11.703h-2.144V17.911z"/>
</g>
<g id="ECH">
	<rect width="27.832" x="26.078" fill="none" height="8.039" y="2.802"/>
	<path d="M37.905,3.634v6.736h-1.523V3.634H37.905z"/>
	<path d="M40.756,3.634v6.736h-1.523V3.634H40.756z"/>
	<path d="M43.605,3.634v6.736h-1.522V3.634H43.605z"/>
</g>
<g id="PF">
	<rect width="60" x="0" fill="none" height="15.475" y="44.525"/>
	<path d="M22.879,50.208c-0.157,0.008-0.34,0.028-0.536,0.068c-0.862,0.186-1.287,0.909-1.452,1.728h0.036   c0.23-0.308,0.569-0.517,1.002-0.517c0.871,0,1.469,0.789,1.469,2.013c0,1.14-0.587,2.303-1.857,2.303   c-1.229,0-1.973-1.065-1.973-2.682c0-1.42,0.463-2.383,1.062-3.026c0.425-0.466,1.058-0.774,1.593-0.881   c0.305-0.054,0.524-0.058,0.656-0.067V50.208z M22.099,53.497c-0.008-0.554-0.182-1.07-0.606-1.07   c-0.208,0-0.413,0.142-0.533,0.434c-0.036,0.076-0.066,0.271-0.066,0.571c0.002,0.85,0.244,1.424,0.633,1.424   C21.959,54.855,22.099,54.271,22.099,53.497z"/>
	<path d="M25.934,55.723V54.17h-2.229v-0.896l2.125-4.047h1.265v3.896h0.645v1.048h-0.645v1.553H25.934z M25.934,53.122v-1.329   c0-0.344,0.036-0.725,0.065-1.07h-0.032c-0.15,0.359-0.282,0.654-0.458,1.013l-0.69,1.367v0.02H25.934z"/>
	<path d="M33.248,55.624c-0.188,0.089-0.556,0.158-1.011,0.158c-1.721,0-2.543-1.414-2.543-3.326c0-2.539,1.409-3.529,2.714-3.529   c0.465,0,0.784,0.093,0.916,0.176l-0.219,1.104c-0.154-0.072-0.322-0.134-0.609-0.134c-0.747,0-1.415,0.645-1.415,2.311   c0,1.608,0.613,2.236,1.408,2.236c0.219,0,0.471-0.048,0.631-0.099L33.248,55.624z"/>
	<path d="M36.087,55.723l-0.072-0.482h-0.021c-0.267,0.378-0.647,0.562-1.081,0.562c-0.739,0-1.288-0.618-1.288-1.485   c0-1.285,1.13-1.809,2.234-1.819V52.39c0-0.387-0.224-0.668-0.688-0.668c-0.39,0-0.702,0.105-0.995,0.285l-0.237-0.882   c0.27-0.155,0.837-0.374,1.52-0.374c1.485,0,1.729,1.042,1.729,2.033v1.819c0,0.39,0.016,0.788,0.071,1.119H36.087z M35.898,53.341   c-0.433,0.008-1.036,0.156-1.036,0.837c0,0.482,0.271,0.662,0.473,0.662c0.212,0,0.445-0.125,0.535-0.421   c0.021-0.062,0.028-0.142,0.028-0.224V53.341z"/>
	<path d="M39.558,49.514v1.317h0.957v0.929h-0.957v2.236c0,0.566,0.235,0.707,0.494,0.707c0.127,0,0.228-0.01,0.345-0.029   l0.011,1.023c-0.181,0.05-0.459,0.085-0.801,0.085c-0.378,0-0.71-0.088-0.946-0.311c-0.269-0.256-0.415-0.632-0.415-1.399V51.76   h-0.576v-0.929h0.576v-1.005L39.558,49.514z"/>
</g>
<g id="Des">
	<rect width="60" x="0" fill="none" height="14.525" y="31.722"/>
	<path d="M19.487,45.212v-1.277l1.079-1.425c1.466-1.935,2.885-3.805,2.885-5.71c0-1.103-0.543-1.821-1.57-1.821   c-0.785,0-1.358,0.379-1.728,0.612l-0.38-1.47c0.478-0.345,1.395-0.757,2.458-0.757c2.284,0,3.12,1.589,3.12,3.305   c0,2.196-1.405,4.122-2.794,5.873l-0.736,0.938v0.036h3.719v1.696H19.487z"/>
	<path d="M33.221,39.319c0,4.231-1.447,6.037-3.257,6.037c-2.219,0-3.185-2.584-3.185-5.955c0-3.627,1.12-6.037,3.309-6.037   C32.429,33.364,33.221,36.112,33.221,39.319z M28.708,39.36c-0.021,2.778,0.382,4.349,1.34,4.349c0.892,0,1.243-1.611,1.243-4.349   c0-2.614-0.331-4.349-1.25-4.349C29.131,35.012,28.698,36.603,28.708,39.36z"/>
	<path d="M34.459,43.307c0.419,0.25,1.064,0.474,1.718,0.474c1.179,0,1.892-0.788,1.892-1.981c0-1.407-0.987-2.106-2.271-2.116   h-0.324v-1.42h0.247c0.852-0.01,2.033-0.495,2.033-1.765c0-0.997-0.572-1.548-1.441-1.548c-0.551,0-1.065,0.229-1.469,0.5   l-0.309-1.445c0.457-0.329,1.336-0.641,2.267-0.641c1.876,0,2.871,1.263,2.871,2.765c0,1.17-0.635,2.169-1.711,2.676v0.036   c1.093,0.347,2.027,1.321,2.027,3.02c0,1.84-1.306,3.496-3.663,3.496c-0.863,0-1.693-0.227-2.185-0.528L34.459,43.307z"/>
</g>
<g>
</g>
<g>
</g>
<g>
</g>
<g>
</g>
<g>
</g>
<g>
</g>
</svg>