<!-- Generator: Adobe Illustrator 25.2.3, SVG Export Plug-In . SVG Version: 6.00 Build 0)  --><svg x="0px" enable-background="new 0 0 60 60" y="0px" width="60px" xmlns:xlink="http://www.w3.org/1999/xlink" viewBox="0 0 60 60" height="60px" id="Layer_1" xmlns="http://www.w3.org/2000/svg" xml:space="preserve" version="1.1">
<rect width="60" fill="#FBF49C" x="0" height="60" id="UnitColor" y="-0.085"/>
<rect width="60" fill="#F7EC13" height="20.189" id="CS_2_" y="11.533" display="none"/>
<g id="Gar" display="none">
	<rect width="14.843" fill="none" x="0.73" height="8.039" y="2.802" display="inline"/>
	<path d="M11.03,10.06c-0.472,0.163-1.361,0.379-2.249,0.379c-1.231,0-2.119-0.308-2.739-0.903   C5.424,8.949,5.085,8.072,5.089,7.083C5.097,4.842,6.73,3.567,8.936,3.567c0.87,0,1.539,0.165,1.873,0.323L10.49,5.111   C10.117,4.95,9.664,4.825,8.922,4.825c-1.27,0-2.235,0.714-2.235,2.18c0,1.391,0.878,2.205,2.125,2.205   c0.344,0,0.623-0.04,0.745-0.095V7.699H8.516V6.512h2.514V10.06z" display="inline"/>
</g>
<g id="Eng" display="none">
	<rect width="27.832" fill="none" x="1.1" height="8.039" y="2.802" display="inline"/>
	<path d="M17.011,7.521h-2.479v1.602h2.771v1.248h-4.294V3.634h4.15v1.248h-2.626v1.403h2.479V7.521z" display="inline"/>
</g>
<g id="P2" display="none">
	<path d="M19.024,28.186c0.472-1.148,0.803-2.149,0.992-3.001c0.282-1.24,0.423-2.417,0.423-3.534   c0-1.066-0.099-2.078-0.295-3.035c-0.197-0.957-0.575-2.146-1.135-3.568h1.146c0.628,1.03,1.101,2.092,1.419,3.186   c0.319,1.094,0.478,2.185,0.478,3.274c0,1.094-0.159,2.218-0.476,3.374s-0.786,2.257-1.407,3.305H19.024z" display="inline"/>
</g>
<g id="P1" display="none">
	<path d="M8.327,28.186H7.182c-0.605-1.025-1.071-2.111-1.396-3.257s-0.487-2.257-0.487-3.333   c0-1.162,0.163-2.296,0.489-3.401c0.326-1.105,0.795-2.154,1.408-3.148h1.146c-0.56,1.422-0.938,2.611-1.135,3.568   c-0.197,0.957-0.295,1.969-0.295,3.035c0,1.103,0.139,2.27,0.416,3.5C7.522,26.016,7.855,27.028,8.327,28.186z" display="inline"/>
</g>
<g id="Type">
	<path d="M53.265,12.893v17.022H26.785V12.893H53.265z M34.536,22.832c0,0.41-0.083,0.798-0.212,1.165l4.322-2.593l-10.443-6.265   v5.526c0.649-0.833,1.649-1.378,2.787-1.378c0.001,0,0.001,0,0.002,0C32.95,19.288,34.537,20.875,34.536,22.832z M28.204,25v2.669   l2.244-1.347C29.536,26.182,28.747,25.696,28.204,25z M33.118,22.832c0-1.175-0.952-2.127-2.127-2.127   c-1.174,0.002-2.125,0.953-2.127,2.127c0,1.174,0.952,2.127,2.127,2.127C32.166,24.959,33.118,24.006,33.118,22.832z    M50.468,14.312H29.583l10.443,6.265L50.468,14.312z M29.583,28.497h20.885l-10.442-6.265L29.583,28.497z M51.846,20.65v-5.512   l-10.441,6.265l4.337,2.603c-0.131-0.37-0.215-0.76-0.215-1.174c0-1.958,1.588-3.545,3.545-3.545   C50.201,19.287,51.197,19.826,51.846,20.65z M49.071,24.959c1.175,0,2.127-0.953,2.127-2.127c0-1.175-0.952-2.127-2.127-2.127   c-1.174,0.002-2.125,0.953-2.127,2.127C46.944,24.006,47.897,24.959,49.071,24.959z M49.604,26.323l2.242,1.346v-2.654   C51.302,25.706,50.513,26.185,49.604,26.323z"/>
</g>
<g id="STK">
	<path d="M13.307,17.911h-0.036l-2.139,1.074l-0.386-1.671l2.857-1.406h1.847v11.703h-2.144V17.911z"/>
</g>
<g id="ECH">
	<rect width="27.832" x="26.078" fill="none" height="8.039" y="2.802"/>
	<path d="M39.33,3.634v6.736h-1.523V3.634H39.33z"/>
	<path d="M42.18,3.634v6.736h-1.522V3.634H42.18z"/>
</g>
<g id="PF">
	<rect width="60" x="0" fill="none" height="15.475" y="44.525"/>
	<path d="M17.595,48.986h1.312v5.626h1.723v1.11h-3.036V48.986z"/>
	<path d="M22.583,49.538c0.008,0.419-0.291,0.709-0.687,0.709c-0.361,0-0.657-0.29-0.648-0.709c-0.008-0.44,0.303-0.717,0.667-0.717   C22.292,48.821,22.583,49.098,22.583,49.538z M21.271,55.723v-4.892h1.312v4.892H21.271z"/>
	<path d="M25.048,49.514v1.317h0.957v0.929h-0.957v2.236c0,0.566,0.235,0.707,0.494,0.707c0.128,0,0.228-0.01,0.345-0.029   l0.01,1.023c-0.181,0.05-0.458,0.085-0.8,0.085c-0.378,0-0.71-0.088-0.947-0.311c-0.268-0.256-0.415-0.632-0.415-1.399V51.76   h-0.576v-0.929h0.576v-1.005L25.048,49.514z"/>
	<path d="M28.158,49.514v1.317h0.957v0.929h-0.957v2.236c0,0.566,0.235,0.707,0.494,0.707c0.128,0,0.228-0.01,0.345-0.029   l0.01,1.023c-0.181,0.05-0.458,0.085-0.8,0.085c-0.378,0-0.71-0.088-0.947-0.311c-0.268-0.256-0.415-0.632-0.415-1.399V51.76   h-0.576v-0.929h0.576v-1.005L28.158,49.514z"/>
	<path d="M33.229,53.261c0,2.037-1.128,2.542-1.867,2.542c-1.168,0-1.87-0.923-1.87-2.511c0-1.753,0.922-2.541,1.893-2.541   C32.536,50.751,33.229,51.721,33.229,53.261z M30.792,53.269c0,0.835,0.134,1.539,0.601,1.539c0.423,0,0.534-0.822,0.534-1.539   c0-0.677-0.111-1.523-0.555-1.523C30.895,51.745,30.792,52.592,30.792,53.269z"/>
	<path d="M33.968,52.303c0-0.486-0.021-1.015-0.039-1.472h1.135l0.067,0.716h0.035c0.215-0.521,0.61-0.796,0.969-0.796   c0.133,0,0.202,0.008,0.279,0.023v1.297c-0.083-0.016-0.169-0.016-0.285-0.016c-0.272,0-0.648,0.192-0.791,0.695   c-0.033,0.108-0.058,0.285-0.058,0.488v2.483h-1.312V52.303z"/>
	<path d="M38.211,49.538c0.008,0.419-0.291,0.709-0.687,0.709c-0.361,0-0.656-0.29-0.648-0.709c-0.008-0.44,0.303-0.717,0.666-0.717   C37.92,48.821,38.211,49.098,38.211,49.538z M36.899,55.723v-4.892h1.312v4.892H36.899z"/>
	<path d="M42.696,53.261c0,2.037-1.127,2.542-1.866,2.542c-1.169,0-1.87-0.923-1.87-2.511c0-1.753,0.922-2.541,1.893-2.541   C42.005,50.751,42.696,51.721,42.696,53.261z M40.261,53.269c0,0.835,0.134,1.539,0.601,1.539c0.424,0,0.534-0.822,0.534-1.539   c0-0.677-0.11-1.523-0.554-1.523C40.363,51.745,40.261,52.592,40.261,53.269z"/>
</g>
<g id="Des">
	<rect width="60" x="0" fill="none" height="14.525" y="31.722"/>
	<path d="M3.971,45.212v-1.277L5.05,42.51c1.466-1.935,2.885-3.805,2.885-5.71c0-1.103-0.543-1.821-1.57-1.821   c-0.785,0-1.358,0.379-1.728,0.612l-0.38-1.47c0.478-0.345,1.395-0.757,2.458-0.757c2.284,0,3.12,1.589,3.12,3.305   c0,2.196-1.405,4.122-2.794,5.873l-0.736,0.938v0.036h3.719v1.696H3.971z"/>
	<path d="M11.6,43.307c0.419,0.25,1.064,0.474,1.718,0.474c1.178,0,1.892-0.788,1.892-1.981c0-1.407-0.987-2.106-2.272-2.116h-0.324   v-1.42h0.247c0.851-0.01,2.033-0.495,2.033-1.765c0-0.997-0.571-1.548-1.441-1.548c-0.55,0-1.065,0.229-1.469,0.5l-0.308-1.445   c0.458-0.329,1.336-0.641,2.267-0.641c1.875,0,2.871,1.263,2.871,2.765c0,1.17-0.635,2.169-1.711,2.676v0.036   c1.093,0.347,2.027,1.321,2.027,3.02c0,1.84-1.306,3.496-3.663,3.496c-0.864,0-1.694-0.227-2.186-0.528L11.6,43.307z"/>
	<path d="M18,45.933l4.065-13h1.312l-4.065,13H18z"/>
	<path d="M26.495,35.361h-0.036l-1.967,1.065l-0.342-1.503l2.587-1.415h1.652v11.703h-1.894V35.361z"/>
	<path d="M31.042,45.212v-1.277l1.08-1.425c1.465-1.935,2.885-3.805,2.885-5.71c0-1.103-0.543-1.821-1.57-1.821   c-0.785,0-1.358,0.379-1.728,0.612l-0.381-1.47c0.478-0.345,1.396-0.757,2.458-0.757c2.283,0,3.119,1.589,3.119,3.305   c0,2.196-1.404,4.122-2.794,5.873l-0.736,0.938v0.036h3.719v1.696H31.042z"/>
	<path d="M38.949,33.257c0.649-0.154,1.479-0.234,2.389-0.234c1.111,0,2.145,0.186,2.892,0.849c0.594,0.521,0.864,1.298,0.864,2.152   c0,1.147-0.613,2.164-1.804,2.667v0.057c1.404,0.392,2.191,1.538,2.191,2.987c0,1.001-0.324,1.799-0.877,2.393   c-0.707,0.784-1.893,1.17-3.639,1.17c-0.893,0-1.552-0.055-2.017-0.129V33.257z M40.86,38.14h0.566c0.979,0,1.771-0.788,1.771-1.9   c0-0.994-0.464-1.762-1.66-1.762c-0.288,0-0.517,0.025-0.677,0.08V38.14z M40.86,43.749c0.16,0.036,0.358,0.052,0.605,0.052   c1.175,0,2.027-0.704,2.027-2.087c0-1.422-0.979-2.127-2.079-2.135H40.86V43.749z"/>
	<path d="M46.953,38.916c0-0.812-0.043-1.725-0.071-2.47h1.681l0.098,1.322h0.057c0.339-0.889,1.064-1.466,1.78-1.466   c0.187,0,0.292,0.01,0.408,0.03v1.922c-0.118-0.021-0.244-0.021-0.411-0.021c-0.665,0-1.334,0.556-1.539,1.505   c-0.049,0.211-0.08,0.507-0.08,0.841v4.632h-1.922V38.916z"/>
	<path d="M51.728,43.396c0.329,0.208,0.931,0.461,1.512,0.461c0.686,0,1.105-0.366,1.105-1.003c0-0.549-0.255-0.91-1.068-1.423   c-1.303-0.776-1.776-1.619-1.776-2.51c0-1.51,1.1-2.619,2.68-2.619c0.71,0,1.26,0.2,1.682,0.427l-0.394,1.419   c-0.334-0.211-0.728-0.373-1.198-0.373c-0.664,0-0.991,0.44-0.991,0.912c0,0.478,0.213,0.75,1.055,1.286   c1.166,0.696,1.787,1.56,1.787,2.654c0,1.782-1.247,2.692-2.896,2.692c-0.688,0-1.485-0.198-1.876-0.505L51.728,43.396z"/>
</g>
<g>
</g>
<g>
</g>
<g>
</g>
<g>
</g>
<g>
</g>
<g>
</g>
</svg>