<!-- Generator: Adobe Illustrator 25.2.3, SVG Export Plug-In . SVG Version: 6.00 Build 0)  --><svg x="0px" enable-background="new 0 0 60 60" y="0px" width="60px" xmlns:xlink="http://www.w3.org/1999/xlink" viewBox="0 0 60 60" height="60px" id="Layer_1" xmlns="http://www.w3.org/2000/svg" xml:space="preserve" version="1.1">
<rect width="60" fill="#FBF49C" x="0" height="60" id="UnitColor" y="-0.085"/>
<rect width="60" fill="#F7EC13" height="20.189" id="CS_2_" y="11.533"/>
<g id="Gar">
	<rect width="14.843" x="0.73" fill="none" height="8.039" y="2.802"/>
	<path d="M11.03,10.06c-0.472,0.163-1.361,0.379-2.249,0.379c-1.231,0-2.119-0.308-2.739-0.903C5.424,8.949,5.085,8.072,5.089,7.083   C5.097,4.842,6.73,3.567,8.936,3.567c0.87,0,1.539,0.165,1.873,0.323L10.49,5.111C10.117,4.95,9.664,4.825,8.922,4.825   c-1.27,0-2.235,0.714-2.235,2.18c0,1.391,0.878,2.205,2.125,2.205c0.344,0,0.623-0.04,0.745-0.095V7.699H8.516V6.512h2.514V10.06z"/>
</g>
<g id="Eng">
	<rect width="27.832" x="1.1" fill="none" height="8.039" y="2.802"/>
	<path d="M17.011,7.521h-2.479v1.602h2.771v1.248h-4.294V3.634h4.15v1.248h-2.626v1.403h2.479V7.521z"/>
</g>
<g id="P2">
	<path d="M19.024,28.186c0.472-1.148,0.803-2.149,0.992-3.001c0.282-1.24,0.423-2.417,0.423-3.534c0-1.066-0.099-2.078-0.295-3.035   c-0.197-0.957-0.575-2.146-1.135-3.568h1.146c0.628,1.03,1.101,2.092,1.419,3.186c0.319,1.094,0.478,2.185,0.478,3.274   c0,1.094-0.159,2.218-0.476,3.374s-0.786,2.257-1.407,3.305H19.024z"/>
</g>
<g id="P1">
	<path d="M8.327,28.186H7.182c-0.605-1.025-1.071-2.111-1.396-3.257s-0.487-2.257-0.487-3.333c0-1.162,0.163-2.296,0.489-3.401   c0.326-1.105,0.795-2.154,1.408-3.148h1.146c-0.56,1.422-0.938,2.611-1.135,3.568c-0.197,0.957-0.295,1.969-0.295,3.035   c0,1.103,0.139,2.27,0.416,3.5C7.522,26.016,7.855,27.028,8.327,28.186z"/>
</g>
<g id="Type">
	<path d="M53.265,12.893v17.022H26.785V12.893H53.265z M28.204,15.139v12.53l10.443-6.265L28.204,15.139z M50.468,14.312H29.583   l10.443,6.265L50.468,14.312z M29.583,28.497h20.885l-10.442-6.265L29.583,28.497z M41.404,21.404l10.441,6.265v-12.53   L41.404,21.404z"/>
</g>
<g id="STK">
	<path d="M9.839,27.611v-1.345l1.388-1.292c2.753-2.546,4.052-3.949,4.066-5.496c0-1.058-0.562-1.97-2.091-1.97   c-1.036,0-1.914,0.524-2.499,0.975l-0.649-1.574c0.841-0.67,2.121-1.199,3.593-1.199c2.595,0,3.865,1.631,3.865,3.545   c0,2.059-1.479,3.712-3.525,5.602l-1.013,0.888v0.036h4.796v1.831H9.839z"/>
</g>
<g id="ECH">
	<rect width="27.832" x="26.078" fill="none" height="8.039" y="2.802"/>
	<path d="M37.905,3.634v6.736h-1.523V3.634H37.905z"/>
	<path d="M40.756,3.634v6.736h-1.523V3.634H40.756z"/>
	<path d="M43.605,3.634v6.736h-1.522V3.634H43.605z"/>
</g>
<g id="PF">
	<rect width="60" x="0" fill="none" height="15.475" y="44.525"/>
	<path d="M19.39,50.199h-1.188v-1.213h3.697v1.213h-1.196v5.523H19.39V50.199z"/>
	<path d="M25.579,53.261c0,2.037-1.127,2.542-1.867,2.542c-1.168,0-1.87-0.923-1.87-2.511c0-1.753,0.922-2.541,1.893-2.541   C24.887,50.751,25.579,51.721,25.579,53.261z M23.143,53.269c0,0.835,0.134,1.539,0.601,1.539c0.423,0,0.534-0.822,0.534-1.539   c0-0.677-0.11-1.523-0.554-1.523C23.245,51.745,23.143,52.592,23.143,53.269z"/>
	<path d="M26.278,55.723c0.018-0.432,0.04-0.984,0.04-1.444v-5.472h1.305v2.523h0.02c0.236-0.354,0.547-0.579,1.02-0.579   c0.947,0,1.384,1.076,1.384,2.392c0,1.714-0.679,2.66-1.594,2.66c-0.406,0-0.693-0.167-0.959-0.655h-0.024l-0.071,0.575H26.278z    M27.623,53.973c0,0.124,0.023,0.239,0.051,0.313c0.11,0.349,0.293,0.443,0.448,0.443c0.438,0,0.623-0.547,0.623-1.484   c0-0.845-0.194-1.39-0.627-1.39c-0.205,0-0.378,0.212-0.446,0.449c-0.026,0.081-0.049,0.215-0.049,0.303V53.973z"/>
	<path d="M30.788,52.303c0-0.486-0.022-1.015-0.04-1.472h1.135l0.067,0.716h0.036c0.214-0.521,0.61-0.796,0.968-0.796   c0.133,0,0.202,0.008,0.279,0.023v1.297c-0.083-0.016-0.168-0.016-0.284-0.016c-0.273,0-0.648,0.192-0.791,0.695   c-0.034,0.108-0.058,0.285-0.058,0.488v2.483h-1.312V52.303z"/>
	<path d="M37.303,54.229c0,0.524,0.021,1.036,0.04,1.493h-1.131l-0.071-0.516H36.12c-0.226,0.33-0.623,0.596-1.129,0.596   c-0.932,0-1.305-0.688-1.305-2.006v-2.966h1.312v2.821c0,0.64,0.128,1.056,0.489,1.056c0.222,0,0.365-0.17,0.427-0.335   c0.043-0.095,0.075-0.251,0.075-0.417v-3.125h1.312V54.229z"/>
	<path d="M39.542,52.974h0.021c0.09-0.281,0.164-0.483,0.246-0.68l0.631-1.463h1.416l-1.188,2.05l1.251,2.842h-1.46l-0.693-2.007   l-0.224,0.422v1.585h-1.305v-6.916h1.305V52.974z"/>
</g>
<g id="Des">
	<rect width="60" x="0" fill="none" height="14.525" y="31.722"/>
	<path d="M10.952,43.307c0.419,0.25,1.064,0.474,1.718,0.474c1.178,0,1.892-0.788,1.892-1.981c0-1.407-0.987-2.106-2.272-2.116   h-0.324v-1.42h0.247c0.851-0.01,2.033-0.495,2.033-1.765c0-0.997-0.571-1.548-1.441-1.548c-0.551,0-1.065,0.229-1.469,0.5   l-0.309-1.445c0.458-0.329,1.337-0.641,2.268-0.641c1.875,0,2.871,1.263,2.871,2.765c0,1.17-0.635,2.169-1.711,2.676v0.036   c1.093,0.347,2.027,1.321,2.027,3.02c0,1.84-1.306,3.496-3.663,3.496c-0.863,0-1.694-0.227-2.186-0.528L10.952,43.307z"/>
	<path d="M20.807,35.361h-0.036l-1.967,1.065l-0.342-1.503l2.587-1.415H22.7v11.703h-1.894V35.361z"/>
	<path d="M35.144,44.896c-0.514,0.214-1.519,0.425-2.347,0.425c-1.243,0-2.269-0.347-3.077-1.191c-0.969-0.984-1.54-2.72-1.52-4.871   c0.041-4.557,2.512-6.29,4.889-6.29c0.851,0,1.493,0.168,1.872,0.355l-0.365,1.657c-0.337-0.172-0.781-0.285-1.395-0.285   c-1.561,0-3.003,1.155-3.003,4.582c0,3.286,1.265,4.408,2.526,4.408c0.325,0,0.534-0.047,0.64-0.099v-3.39h-1.301v-1.578h3.079   V44.896z"/>
	<path d="M40.645,45.212l-0.113-0.893h-0.043c-0.438,0.676-1.088,1.037-1.856,1.037c-1.257,0-2.206-1.055-2.206-2.593   c0-2.252,1.905-3.204,3.888-3.222V39.31c0-0.913-0.356-1.555-1.31-1.555c-0.627,0-1.159,0.183-1.635,0.486L37,36.93   c0.432-0.272,1.354-0.627,2.422-0.627c2.257,0,2.834,1.545,2.834,3.41v3.503c0,0.682,0.021,1.415,0.113,1.996H40.645z    M40.365,40.822c-0.748,0.011-2.104,0.219-2.104,1.744c0,0.989,0.528,1.347,0.95,1.347c0.482,0,0.945-0.327,1.107-1.003   c0.036-0.137,0.047-0.294,0.047-0.445V40.822z"/>
	<path d="M44.223,33.076h4.981v1.668h-3.06v3.63h2.866v1.606h-2.866v5.231h-1.922V33.076z"/>
</g>
<g>
</g>
<g>
</g>
<g>
</g>
<g>
</g>
<g>
</g>
<g>
</g>
</svg>