<!-- Generator: Adobe Illustrator 25.2.3, SVG Export Plug-In . SVG Version: 6.00 Build 0)  --><svg x="0px" enable-background="new 0 0 60 60" y="0px" width="60px" xmlns:xlink="http://www.w3.org/1999/xlink" viewBox="0 0 60 60" height="60px" id="Layer_1" xmlns="http://www.w3.org/2000/svg" xml:space="preserve" version="1.1">
<rect width="60" fill="#FBF49C" x="0" height="60" id="UnitColor" y="-0.085"/>
<rect width="60" fill="#F7EC13" height="20.189" id="CS_2_" y="11.533"/>
<g id="Gar">
	<rect width="14.843" x="0.73" fill="none" height="8.039" y="2.802"/>
	<path d="M11.03,10.06c-0.472,0.163-1.361,0.379-2.249,0.379c-1.231,0-2.119-0.308-2.739-0.903C5.424,8.949,5.085,8.072,5.089,7.083   C5.097,4.842,6.73,3.567,8.936,3.567c0.87,0,1.539,0.165,1.873,0.323L10.49,5.111C10.117,4.95,9.664,4.825,8.922,4.825   c-1.27,0-2.235,0.714-2.235,2.18c0,1.391,0.878,2.205,2.125,2.205c0.344,0,0.623-0.04,0.745-0.095V7.699H8.516V6.512h2.514V10.06z"/>
</g>
<g id="Eng">
	<rect width="27.832" x="1.1" fill="none" height="8.039" y="2.802"/>
	<path d="M17.011,7.521h-2.479v1.602h2.771v1.248h-4.294V3.634h4.15v1.248h-2.626v1.403h2.479V7.521z"/>
</g>
<g id="P2">
	<path d="M19.024,28.186c0.472-1.148,0.803-2.149,0.992-3.001c0.282-1.24,0.423-2.417,0.423-3.534c0-1.066-0.099-2.078-0.295-3.035   c-0.197-0.957-0.575-2.146-1.135-3.568h1.146c0.628,1.03,1.101,2.092,1.419,3.186c0.319,1.094,0.478,2.185,0.478,3.274   c0,1.094-0.159,2.218-0.476,3.374s-0.786,2.257-1.407,3.305H19.024z"/>
</g>
<g id="P1">
	<path d="M8.327,28.186H7.182c-0.605-1.025-1.071-2.111-1.396-3.257s-0.487-2.257-0.487-3.333c0-1.162,0.163-2.296,0.489-3.401   c0.326-1.105,0.795-2.154,1.408-3.148h1.146c-0.56,1.422-0.938,2.611-1.135,3.568c-0.197,0.957-0.295,1.969-0.295,3.035   c0,1.103,0.139,2.27,0.416,3.5C7.522,26.016,7.855,27.028,8.327,28.186z"/>
</g>
<g id="Type">
	<path d="M53.265,12.893v17.022H26.785V12.893H53.265z M28.204,15.139v12.53l10.443-6.265L28.204,15.139z M50.468,14.312H29.583   l10.443,6.265L50.468,14.312z M29.583,28.497h20.885l-10.442-6.265L29.583,28.497z M41.404,21.404l10.441,6.265v-12.53   L41.404,21.404z"/>
</g>
<g id="STK">
	<path d="M9.839,27.611v-1.345l1.388-1.292c2.753-2.546,4.052-3.949,4.066-5.496c0-1.058-0.562-1.97-2.091-1.97   c-1.036,0-1.914,0.524-2.499,0.975l-0.649-1.574c0.841-0.67,2.121-1.199,3.593-1.199c2.595,0,3.865,1.631,3.865,3.545   c0,2.059-1.479,3.712-3.525,5.602l-1.013,0.888v0.036h4.796v1.831H9.839z"/>
</g>
<g id="ECH">
	<rect width="27.832" x="26.078" fill="none" height="8.039" y="2.802"/>
	<path d="M37.905,3.634v6.736h-1.523V3.634H37.905z"/>
	<path d="M40.756,3.634v6.736h-1.523V3.634H40.756z"/>
	<path d="M43.605,3.634v6.736h-1.522V3.634H43.605z"/>
</g>
<g id="PF">
	<rect width="60" x="0" fill="none" height="15.475" y="44.525"/>
	<path d="M19.135,49.086c0.396-0.088,0.922-0.13,1.491-0.13c0.624,0,1.241,0.081,1.704,0.476c0.36,0.306,0.51,0.756,0.51,1.228   c0,0.598-0.31,1.175-0.975,1.47v0.036c0.78,0.224,1.193,0.867,1.193,1.607c0,0.558-0.18,0.994-0.494,1.324   c-0.401,0.438-1.085,0.68-2.213,0.68c-0.498,0-0.917-0.03-1.216-0.076V49.086z M20.44,51.755h0.282   c0.475,0,0.833-0.397,0.833-0.945c0-0.494-0.233-0.877-0.767-0.877c-0.145,0-0.263,0.013-0.348,0.043V51.755z M20.44,54.744   c0.084,0.02,0.179,0.023,0.292,0.023c0.534,0,0.969-0.328,0.969-1.011c0-0.678-0.46-1.027-0.979-1.029H20.44V54.744z"/>
	<path d="M26.057,55.723l-0.071-0.482h-0.022c-0.267,0.378-0.647,0.562-1.081,0.562c-0.739,0-1.288-0.618-1.288-1.485   c0-1.285,1.13-1.809,2.235-1.819V52.39c0-0.387-0.225-0.668-0.688-0.668c-0.39,0-0.703,0.105-0.995,0.285l-0.238-0.882   c0.271-0.155,0.837-0.374,1.52-0.374c1.485,0,1.729,1.042,1.729,2.033v1.819c0,0.39,0.016,0.788,0.072,1.119H26.057z    M25.869,53.341c-0.433,0.008-1.037,0.156-1.037,0.837c0,0.482,0.271,0.662,0.473,0.662c0.213,0,0.446-0.125,0.536-0.421   c0.02-0.062,0.028-0.142,0.028-0.224V53.341z"/>
	<path d="M28.079,52.303c0-0.486-0.022-1.015-0.04-1.472h1.135l0.067,0.716h0.036c0.215-0.521,0.611-0.796,0.969-0.796   c0.132,0,0.202,0.008,0.279,0.023v1.297c-0.083-0.016-0.168-0.016-0.285-0.016c-0.273,0-0.648,0.192-0.791,0.695   c-0.034,0.108-0.057,0.285-0.057,0.488v2.483h-1.312V52.303z"/>
	<path d="M34.532,48.807v5.472c0,0.46,0.022,0.996,0.04,1.444h-1.127l-0.071-0.553H33.35c-0.179,0.348-0.569,0.633-1.017,0.633   c-1.043,0-1.521-1.153-1.521-2.514c0-1.703,0.747-2.538,1.571-2.538c0.436,0,0.697,0.217,0.825,0.493h0.02v-2.438H34.532z    M33.228,52.711c0-0.087,0-0.19-0.018-0.285c-0.048-0.299-0.201-0.57-0.468-0.57c-0.458,0-0.629,0.667-0.629,1.461   c0,0.93,0.254,1.413,0.616,1.413c0.17,0,0.353-0.087,0.454-0.424c0.028-0.076,0.044-0.18,0.044-0.306V52.711z"/>
	<path d="M36.764,49.538c0.008,0.419-0.291,0.709-0.687,0.709c-0.361,0-0.656-0.29-0.648-0.709c-0.008-0.44,0.303-0.717,0.666-0.717   C36.473,48.821,36.764,49.098,36.764,49.538z M35.452,55.723v-4.892h1.312v4.892H35.452z"/>
	<path d="M39.878,55.723l-0.072-0.482h-0.021c-0.267,0.378-0.647,0.562-1.081,0.562c-0.739,0-1.288-0.618-1.288-1.485   c0-1.285,1.13-1.809,2.234-1.819V52.39c0-0.387-0.224-0.668-0.688-0.668c-0.39,0-0.702,0.105-0.995,0.285l-0.237-0.882   c0.27-0.155,0.837-0.374,1.52-0.374c1.485,0,1.729,1.042,1.729,2.033v1.819c0,0.39,0.016,0.788,0.071,1.119H39.878z M39.689,53.341   c-0.433,0.008-1.036,0.156-1.036,0.837c0,0.482,0.271,0.662,0.473,0.662c0.212,0,0.445-0.125,0.535-0.421   c0.021-0.062,0.028-0.142,0.028-0.224V53.341z"/>
</g>
<g id="Des">
	<rect width="60" x="0" fill="none" height="14.525" y="31.722"/>
	<path d="M10.952,43.307c0.419,0.25,1.064,0.474,1.718,0.474c1.178,0,1.892-0.788,1.892-1.981c0-1.407-0.987-2.106-2.272-2.116   h-0.324v-1.42h0.247c0.851-0.01,2.033-0.495,2.033-1.765c0-0.997-0.571-1.548-1.441-1.548c-0.551,0-1.065,0.229-1.469,0.5   l-0.309-1.445c0.458-0.329,1.337-0.641,2.268-0.641c1.875,0,2.871,1.263,2.871,2.765c0,1.17-0.635,2.169-1.711,2.676v0.036   c1.093,0.347,2.027,1.321,2.027,3.02c0,1.84-1.306,3.496-3.663,3.496c-0.863,0-1.694-0.227-2.186-0.528L10.952,43.307z"/>
	<path d="M24.4,39.319c0,4.231-1.447,6.037-3.257,6.037c-2.219,0-3.185-2.584-3.185-5.955c0-3.627,1.12-6.037,3.309-6.037   C23.609,33.364,24.4,36.112,24.4,39.319z M19.888,39.36c-0.021,2.778,0.382,4.349,1.34,4.349c0.892,0,1.242-1.611,1.242-4.349   c0-2.614-0.33-4.349-1.25-4.349C20.311,35.012,19.878,36.603,19.888,39.36z"/>
	<path d="M35.144,44.896c-0.514,0.214-1.519,0.425-2.347,0.425c-1.243,0-2.269-0.347-3.077-1.191c-0.969-0.984-1.54-2.72-1.52-4.871   c0.041-4.557,2.512-6.29,4.889-6.29c0.851,0,1.493,0.168,1.872,0.355l-0.365,1.657c-0.337-0.172-0.781-0.285-1.395-0.285   c-1.561,0-3.003,1.155-3.003,4.582c0,3.286,1.265,4.408,2.526,4.408c0.325,0,0.534-0.047,0.64-0.099v-3.39h-1.301v-1.578h3.079   V44.896z"/>
	<path d="M40.645,45.212l-0.113-0.893h-0.043c-0.438,0.676-1.088,1.037-1.856,1.037c-1.257,0-2.206-1.055-2.206-2.593   c0-2.252,1.905-3.204,3.888-3.222V39.31c0-0.913-0.356-1.555-1.31-1.555c-0.627,0-1.159,0.183-1.635,0.486L37,36.93   c0.432-0.272,1.354-0.627,2.422-0.627c2.257,0,2.834,1.545,2.834,3.41v3.503c0,0.682,0.021,1.415,0.113,1.996H40.645z    M40.365,40.822c-0.748,0.011-2.104,0.219-2.104,1.744c0,0.989,0.528,1.347,0.95,1.347c0.482,0,0.945-0.327,1.107-1.003   c0.036-0.137,0.047-0.294,0.047-0.445V40.822z"/>
	<path d="M44.223,33.076h4.981v1.668h-3.06v3.63h2.866v1.606h-2.866v5.231h-1.922V33.076z"/>
</g>
<g>
</g>
<g>
</g>
<g>
</g>
<g>
</g>
<g>
</g>
<g>
</g>
</svg>