<!-- Generator: Adobe Illustrator 25.2.3, SVG Export Plug-In . SVG Version: 6.00 Build 0)  --><svg x="0px" enable-background="new 0 0 60 60" y="0px" width="60px" xmlns:xlink="http://www.w3.org/1999/xlink" viewBox="0 0 60 60" height="60px" id="Layer_1" xmlns="http://www.w3.org/2000/svg" xml:space="preserve" version="1.1">
<rect width="60" fill="#FBF49C" x="0" height="60" id="UnitColor" y="-0.085"/>
<rect width="60" fill="#F7EC13" height="20.189" id="CS_2_" y="11.533"/>
<g id="Gar" display="none">
	<rect width="14.843" fill="none" x="0.73" height="8.039" y="2.802" display="inline"/>
	<path d="M11.03,10.06c-0.472,0.163-1.361,0.379-2.249,0.379c-1.231,0-2.119-0.308-2.739-0.903   C5.424,8.949,5.085,8.072,5.089,7.083C5.097,4.842,6.73,3.567,8.936,3.567c0.87,0,1.539,0.165,1.873,0.323L10.49,5.111   C10.117,4.95,9.664,4.825,8.922,4.825c-1.27,0-2.235,0.714-2.235,2.18c0,1.391,0.878,2.205,2.125,2.205   c0.344,0,0.623-0.04,0.745-0.095V7.699H8.516V6.512h2.514V10.06z" display="inline"/>
</g>
<g id="Eng" display="none">
	<rect width="27.832" fill="none" x="1.1" height="8.039" y="2.802" display="inline"/>
	<path d="M17.011,7.521h-2.479v1.602h2.771v1.248h-4.294V3.634h4.15v1.248h-2.626v1.403h2.479V7.521z" display="inline"/>
</g>
<g id="P2">
	<path d="M19.024,28.186c0.472-1.148,0.803-2.149,0.992-3.001c0.282-1.24,0.423-2.417,0.423-3.534c0-1.066-0.099-2.078-0.295-3.035   c-0.197-0.957-0.575-2.146-1.135-3.568h1.146c0.628,1.03,1.101,2.092,1.419,3.186c0.319,1.094,0.478,2.185,0.478,3.274   c0,1.094-0.159,2.218-0.476,3.374s-0.786,2.257-1.407,3.305H19.024z"/>
</g>
<g id="P1">
	<path d="M8.327,28.186H7.182c-0.605-1.025-1.071-2.111-1.396-3.257s-0.487-2.257-0.487-3.333c0-1.162,0.163-2.296,0.489-3.401   c0.326-1.105,0.795-2.154,1.408-3.148h1.146c-0.56,1.422-0.938,2.611-1.135,3.568c-0.197,0.957-0.295,1.969-0.295,3.035   c0,1.103,0.139,2.27,0.416,3.5C7.522,26.016,7.855,27.028,8.327,28.186z"/>
</g>
<g id="Type">
	<path d="M53.265,12.893v17.022H26.785V12.893H53.265z M28.204,15.139v12.53l10.443-6.265L28.204,15.139z M50.468,14.312H29.583   l10.443,6.265L50.468,14.312z M29.583,28.497h20.885l-10.442-6.265L29.583,28.497z M41.404,21.404l10.441,6.265v-12.53   L41.404,21.404z"/>
</g>
<g id="STK">
	<path d="M9.839,27.611v-1.345l1.388-1.292c2.753-2.546,4.052-3.949,4.066-5.496c0-1.058-0.562-1.97-2.091-1.97   c-1.036,0-1.914,0.524-2.499,0.975l-0.649-1.574c0.841-0.67,2.121-1.199,3.593-1.199c2.595,0,3.865,1.631,3.865,3.545   c0,2.059-1.479,3.712-3.525,5.602l-1.013,0.888v0.036h4.796v1.831H9.839z"/>
</g>
<g id="ECH">
	<rect width="27.832" x="26.078" fill="none" height="8.039" y="2.802"/>
	<path d="M37.905,3.634v6.736h-1.523V3.634H37.905z"/>
	<path d="M40.756,3.634v6.736h-1.523V3.634H40.756z"/>
	<path d="M43.605,3.634v6.736h-1.522V3.634H43.605z"/>
</g>
<g id="PF">
	<rect width="60" x="0" fill="none" height="15.475" y="44.525"/>
	<path d="M19.484,55.723V54.84l0.646-0.825c0.842-1.071,1.529-1.963,1.529-2.89c0-0.523-0.291-0.888-0.83-0.888   c-0.408,0-0.737,0.18-0.975,0.325l-0.23-1.012c0.298-0.195,0.853-0.404,1.443-0.404c1.421,0,1.883,0.951,1.883,1.882   c0,1.22-0.765,2.192-1.509,3.062l-0.389,0.459v0.02h1.985v1.154H19.484z"/>
	<path d="M27.148,50.365h-1.722l-0.151,1.164c0.066-0.006,0.128-0.006,0.199-0.006c0.279,0.008,0.849,0.138,1.224,0.489   c0.363,0.348,0.563,0.841,0.563,1.495c0,1.262-0.839,2.295-2.262,2.295c-0.462,0-0.961-0.116-1.221-0.261l0.199-1.035   c0.241,0.117,0.577,0.223,0.929,0.223c0.646,0,1.063-0.41,1.063-1.101c0-0.875-0.657-1.166-1.406-1.166   c-0.184,0-0.333,0.004-0.469,0.023l0.363-3.26h2.69V50.365z"/>
	<path d="M29.93,49.086c0.396-0.088,0.922-0.13,1.491-0.13c0.623,0,1.24,0.081,1.703,0.476c0.36,0.306,0.511,0.756,0.511,1.228   c0,0.598-0.31,1.175-0.975,1.47v0.036c0.779,0.224,1.192,0.867,1.192,1.607c0,0.558-0.18,0.994-0.493,1.324   c-0.401,0.438-1.086,0.68-2.213,0.68c-0.498,0-0.917-0.03-1.217-0.076V49.086z M31.234,51.755h0.281   c0.476,0,0.834-0.397,0.834-0.945c0-0.494-0.233-0.877-0.768-0.877c-0.145,0-0.264,0.013-0.348,0.043V51.755z M31.234,54.744   c0.084,0.02,0.179,0.023,0.292,0.023c0.534,0,0.97-0.328,0.97-1.011c0-0.678-0.46-1.027-0.979-1.029h-0.283V54.744z"/>
	<path d="M38.223,53.261c0,2.037-1.127,2.542-1.866,2.542c-1.169,0-1.87-0.923-1.87-2.511c0-1.753,0.922-2.541,1.893-2.541   C37.531,50.751,38.223,51.721,38.223,53.261z M35.787,53.269c0,0.835,0.134,1.539,0.601,1.539c0.424,0,0.534-0.822,0.534-1.539   c0-0.677-0.11-1.523-0.554-1.523C35.89,51.745,35.787,52.592,35.787,53.269z"/>
	<path d="M38.965,48.807h1.312v6.916h-1.312V48.807z"/>
</g>
<g id="Des">
	<rect width="60" x="0" fill="none" height="14.525" y="31.722"/>
	<path d="M26.87,45.212v-2.991h-3.961V40.91l3.82-7.401h1.86v7.165h1.209v1.547h-1.209v2.991H26.87z M26.87,40.674v-2.806   c0-0.703,0.056-1.408,0.11-2.099h-0.062c-0.325,0.778-0.567,1.316-0.896,1.998l-1.414,2.87v0.036H26.87z"/>
	<path d="M36.893,39.319c0,4.231-1.447,6.037-3.258,6.037c-2.219,0-3.185-2.584-3.185-5.955c0-3.627,1.12-6.037,3.309-6.037   C36.101,33.364,36.893,36.112,36.893,39.319z M32.38,39.36c-0.021,2.778,0.382,4.349,1.34,4.349c0.893,0,1.243-1.611,1.243-4.349   c0-2.614-0.33-4.349-1.251-4.349C32.803,35.012,32.37,36.603,32.38,39.36z"/>
</g>
<g>
</g>
<g>
</g>
<g>
</g>
<g>
</g>
<g>
</g>
<g>
</g>
</svg>