<!-- Generator: Adobe Illustrator 25.2.3, SVG Export Plug-In . SVG Version: 6.00 Build 0)  --><svg x="0px" enable-background="new 0 0 60 60" y="0px" width="60px" xmlns:xlink="http://www.w3.org/1999/xlink" viewBox="0 0 60 60" height="60px" id="Layer_1" xmlns="http://www.w3.org/2000/svg" xml:space="preserve" version="1.1">
<rect width="60" fill="#FBF49C" x="0" height="60" id="UnitColor" y="-0.085"/>
<rect width="60" fill="#F7EC13" height="20.189" id="CS_2_" y="11.533"/>
<g id="Gar" display="none">
	<rect width="14.843" fill="none" x="0.73" height="8.039" y="2.802" display="inline"/>
	<path d="M11.03,10.06c-0.472,0.163-1.361,0.379-2.249,0.379c-1.231,0-2.119-0.308-2.739-0.903   C5.424,8.949,5.085,8.072,5.089,7.083C5.097,4.842,6.73,3.567,8.936,3.567c0.87,0,1.539,0.165,1.873,0.323L10.49,5.111   C10.117,4.95,9.664,4.825,8.922,4.825c-1.27,0-2.235,0.714-2.235,2.18c0,1.391,0.878,2.205,2.125,2.205   c0.344,0,0.623-0.04,0.745-0.095V7.699H8.516V6.512h2.514V10.06z" display="inline"/>
</g>
<g id="Eng" display="none">
	<rect width="27.832" fill="none" x="1.1" height="8.039" y="2.802" display="inline"/>
	<path d="M17.011,7.521h-2.479v1.602h2.771v1.248h-4.294V3.634h4.15v1.248h-2.626v1.403h2.479V7.521z" display="inline"/>
</g>
<g id="P2">
	<path d="M19.024,28.186c0.472-1.148,0.803-2.149,0.992-3.001c0.282-1.24,0.423-2.417,0.423-3.534c0-1.066-0.099-2.078-0.295-3.035   c-0.197-0.957-0.575-2.146-1.135-3.568h1.146c0.628,1.03,1.101,2.092,1.419,3.186c0.319,1.094,0.478,2.185,0.478,3.274   c0,1.094-0.159,2.218-0.476,3.374s-0.786,2.257-1.407,3.305H19.024z"/>
</g>
<g id="P1">
	<path d="M8.327,28.186H7.182c-0.605-1.025-1.071-2.111-1.396-3.257s-0.487-2.257-0.487-3.333c0-1.162,0.163-2.296,0.489-3.401   c0.326-1.105,0.795-2.154,1.408-3.148h1.146c-0.56,1.422-0.938,2.611-1.135,3.568c-0.197,0.957-0.295,1.969-0.295,3.035   c0,1.103,0.139,2.27,0.416,3.5C7.522,26.016,7.855,27.028,8.327,28.186z"/>
</g>
<g id="Type">
	<path d="M53.265,12.893v17.022H26.785V12.893H53.265z M28.204,15.139v12.53l10.443-6.265L28.204,15.139z M50.468,14.312H29.583   l10.443,6.265L50.468,14.312z M29.583,28.497h20.885l-10.442-6.265L29.583,28.497z M41.404,21.404l10.441,6.265v-12.53   L41.404,21.404z"/>
</g>
<g id="STK">
	<path d="M17.277,17.745h-4.502l-0.341,2.34c0.262-0.033,0.496-0.051,0.844-0.051c1.023,0.003,2.054,0.231,2.834,0.75   c0.893,0.561,1.531,1.556,1.531,2.972c0,2.229-1.845,4.054-4.723,4.054c-1.358,0-2.49-0.342-3.106-0.689l0.454-1.676   c0.501,0.271,1.516,0.617,2.578,0.617c1.293,0,2.537-0.741,2.531-2.133c-0.006-1.337-0.989-2.229-3.322-2.229   c-0.659,0-1.144,0.05-1.6,0.113l0.759-5.905h6.062V17.745z"/>
</g>
<g id="ECH">
	<rect width="27.832" x="26.078" fill="none" height="8.039" y="2.802"/>
	<path d="M38.123,10.37l-0.608-1.219c-0.243-0.472-0.411-0.823-0.597-1.213h-0.021c-0.141,0.391-0.306,0.744-0.524,1.209   l-0.557,1.223h-1.734l1.946-3.411L34.15,3.634h1.752l0.59,1.227c0.196,0.409,0.342,0.742,0.502,1.12h0.025   c0.163-0.428,0.287-0.728,0.46-1.116l0.565-1.23h1.739l-1.898,3.287l1.999,3.449H38.123z"/>
	<path d="M44.145,10.37l-0.608-1.219c-0.244-0.472-0.411-0.823-0.597-1.213h-0.021c-0.141,0.391-0.307,0.744-0.524,1.209   l-0.558,1.223h-1.734l1.947-3.411l-1.878-3.325h1.751l0.59,1.227c0.197,0.409,0.343,0.742,0.502,1.12h0.026   c0.162-0.428,0.287-0.728,0.459-1.116l0.566-1.23h1.739l-1.899,3.287l2,3.449H44.145z"/>
</g>
<g id="PF">
	<rect width="60" x="0" fill="none" height="15.475" y="44.525"/>
	<path d="M20.434,50.208c-0.157,0.008-0.34,0.028-0.536,0.068c-0.862,0.186-1.287,0.909-1.452,1.728h0.036   c0.23-0.308,0.569-0.517,1.002-0.517c0.87,0,1.469,0.789,1.469,2.013c0,1.14-0.587,2.303-1.857,2.303   c-1.229,0-1.973-1.065-1.973-2.682c0-1.42,0.463-2.383,1.062-3.026c0.425-0.466,1.058-0.774,1.593-0.881   c0.305-0.054,0.524-0.058,0.656-0.067V50.208z M19.654,53.497c-0.008-0.554-0.182-1.07-0.606-1.07   c-0.208,0-0.413,0.142-0.533,0.434c-0.036,0.076-0.066,0.271-0.066,0.571c0.002,0.85,0.244,1.424,0.633,1.424   C19.514,54.855,19.654,54.271,19.654,53.497z"/>
	<path d="M21.394,55.723V54.84l0.646-0.825c0.842-1.071,1.529-1.963,1.529-2.89c0-0.523-0.291-0.888-0.83-0.888   c-0.408,0-0.737,0.18-0.975,0.325l-0.23-1.012c0.298-0.195,0.853-0.404,1.443-0.404c1.421,0,1.883,0.951,1.883,1.882   c0,1.22-0.765,2.192-1.509,3.062l-0.389,0.459v0.02h1.985v1.154H21.394z"/>
	<path d="M31.696,53.367c-0.034-0.646-0.076-1.508-0.062-2.234h-0.026c-0.121,0.723-0.301,1.552-0.427,2.075l-0.585,2.404h-0.929   l-0.559-2.366c-0.13-0.545-0.308-1.383-0.411-2.113h-0.024c-0.02,0.735-0.067,1.585-0.102,2.251l-0.114,2.339h-1.124l0.484-6.736   H29.2l0.537,2.438c0.187,0.854,0.357,1.599,0.478,2.36h0.022c0.103-0.748,0.252-1.508,0.429-2.36l0.531-2.438h1.383l0.409,6.736   h-1.173L31.696,53.367z"/>
	<path d="M33.832,52.303c0-0.486-0.021-1.015-0.039-1.472h1.135l0.067,0.716h0.035c0.215-0.521,0.61-0.796,0.969-0.796   c0.133,0,0.202,0.008,0.279,0.023v1.297c-0.083-0.016-0.169-0.016-0.285-0.016c-0.272,0-0.648,0.192-0.791,0.695   c-0.033,0.108-0.058,0.285-0.058,0.488v2.483h-1.312V52.303z"/>
	<path d="M36.765,52.303c0-0.534-0.022-1.006-0.04-1.472h1.139l0.066,0.57h0.021c0.251-0.363,0.661-0.65,1.165-0.65   c0.548,0,0.9,0.253,1.066,0.669h0.021c0.122-0.191,0.306-0.375,0.499-0.495c0.197-0.114,0.434-0.174,0.683-0.174   c0.875,0,1.266,0.694,1.266,1.869v3.103h-1.305v-2.882c0-0.554-0.062-1.003-0.455-1.003c-0.23,0-0.404,0.158-0.493,0.442   c-0.021,0.073-0.037,0.209-0.037,0.348v3.095h-1.305v-3.064c0-0.356-0.035-0.82-0.445-0.82c-0.2,0-0.399,0.145-0.489,0.439   c-0.027,0.087-0.051,0.228-0.051,0.369v3.076h-1.305V52.303z"/>
</g>
<g id="Des">
	<rect width="60" x="0" fill="none" height="14.525" y="31.722"/>
	<path d="M13.407,34.945c-0.26,0.011-0.558,0.046-0.902,0.118c-1.728,0.402-2.5,1.995-2.79,3.614h0.057   c0.435-0.605,1.06-1.017,1.884-1.017c1.532,0,2.592,1.401,2.592,3.613c0,2.128-1.034,4.082-3.136,4.082   c-2.139,0-3.336-1.987-3.336-4.8c0-2.427,0.727-4.171,1.732-5.372c0.738-0.906,1.867-1.499,2.857-1.702   c0.467-0.085,0.822-0.1,1.043-0.118V34.945z M12.338,41.321c-0.01-1.341-0.461-2.249-1.309-2.249c-0.467,0-0.938,0.314-1.209,0.995   c-0.057,0.129-0.111,0.432-0.111,0.884c0.008,1.92,0.578,2.982,1.389,2.982C11.881,43.934,12.338,43.004,12.338,41.321z"/>
	<path d="M15.158,45.212v-1.277l1.079-1.425c1.466-1.935,2.885-3.805,2.885-5.71c0-1.103-0.543-1.821-1.57-1.821   c-0.785,0-1.358,0.379-1.728,0.612l-0.38-1.47c0.478-0.345,1.395-0.757,2.458-0.757c2.284,0,3.12,1.589,3.12,3.305   c0,2.196-1.405,4.122-2.794,5.873l-0.736,0.938v0.036h3.719v1.696H15.158z"/>
	<path d="M33.284,40.525c-0.069-1.359-0.149-3.013-0.115-4.353h-0.06c-0.236,1.325-0.561,2.799-0.854,3.956l-1.253,4.939h-1.318   l-1.193-4.8c-0.31-1.235-0.646-2.74-0.855-4.096h-0.051c-0.015,1.371-0.098,2.978-0.167,4.415l-0.214,4.624h-1.676l0.804-12.136   h2.048l1.17,4.913c0.368,1.567,0.674,2.84,0.911,4.216h0.044c0.208-1.363,0.479-2.636,0.829-4.216l1.146-4.913h2.068l0.718,12.136   h-1.745L33.284,40.525z"/>
	<path d="M36.92,38.916c0-0.812-0.044-1.725-0.072-2.47h1.681l0.098,1.322h0.057c0.339-0.889,1.064-1.466,1.78-1.466   c0.187,0,0.292,0.01,0.408,0.03v1.922c-0.118-0.021-0.244-0.021-0.411-0.021c-0.665,0-1.334,0.556-1.539,1.505   c-0.049,0.211-0.08,0.507-0.08,0.841v4.632H36.92V38.916z"/>
	<path d="M41.823,38.916c0-0.99-0.043-1.693-0.071-2.47h1.676l0.097,1.047h0.036c0.417-0.677,1.121-1.19,2.037-1.19   c0.907,0,1.565,0.424,1.877,1.261h0.036c0.224-0.384,0.542-0.724,0.879-0.939c0.353-0.214,0.77-0.321,1.22-0.321   c1.397,0,2.195,1.073,2.195,3.236v5.673h-1.911v-5.311c0-1.061-0.137-2-0.998-2c-0.489,0-0.886,0.376-1.062,1.025   c-0.043,0.176-0.063,0.434-0.063,0.698v5.587h-1.912v-5.608c0-0.783-0.111-1.702-0.979-1.702c-0.456,0-0.904,0.363-1.066,1.072   c-0.047,0.188-0.077,0.44-0.077,0.7v5.538h-1.912V38.916z"/>
</g>
<g>
</g>
<g>
</g>
<g>
</g>
<g>
</g>
<g>
</g>
<g>
</g>
</svg>