<!-- Generator: Adobe Illustrator 25.2.3, SVG Export Plug-In . SVG Version: 6.00 Build 0)  --><svg x="0px" enable-background="new 0 0 60 60" y="0px" width="60px" xmlns:xlink="http://www.w3.org/1999/xlink" viewBox="0 0 60 60" height="60px" id="Layer_1" xmlns="http://www.w3.org/2000/svg" xml:space="preserve" version="1.1">
<rect width="60" fill="#FBF49C" x="0" height="60" id="UnitColor" y="-0.085"/>
<rect width="60" fill="#F7EC13" height="20.189" id="CS_2_" y="11.533"/>
<g id="Gar" display="none">
	<rect width="14.843" fill="none" x="0.73" height="8.039" y="2.802" display="inline"/>
	<path d="M11.03,10.06c-0.472,0.163-1.361,0.379-2.249,0.379c-1.231,0-2.119-0.308-2.739-0.903   C5.424,8.949,5.085,8.072,5.089,7.083C5.097,4.842,6.73,3.567,8.936,3.567c0.87,0,1.539,0.165,1.873,0.323L10.49,5.111   C10.117,4.95,9.664,4.825,8.922,4.825c-1.27,0-2.235,0.714-2.235,2.18c0,1.391,0.878,2.205,2.125,2.205   c0.344,0,0.623-0.04,0.745-0.095V7.699H8.516V6.512h2.514V10.06z" display="inline"/>
</g>
<g id="Eng" display="none">
	<rect width="27.832" fill="none" x="1.1" height="8.039" y="2.802" display="inline"/>
	<path d="M17.011,7.521h-2.479v1.602h2.771v1.248h-4.294V3.634h4.15v1.248h-2.626v1.403h2.479V7.521z" display="inline"/>
</g>
<g id="P2">
	<path d="M19.024,28.186c0.472-1.148,0.803-2.149,0.992-3.001c0.282-1.24,0.423-2.417,0.423-3.534c0-1.066-0.099-2.078-0.295-3.035   c-0.197-0.957-0.575-2.146-1.135-3.568h1.146c0.628,1.03,1.101,2.092,1.419,3.186c0.319,1.094,0.478,2.185,0.478,3.274   c0,1.094-0.159,2.218-0.476,3.374s-0.786,2.257-1.407,3.305H19.024z"/>
</g>
<g id="P1">
	<path d="M8.327,28.186H7.182c-0.605-1.025-1.071-2.111-1.396-3.257s-0.487-2.257-0.487-3.333c0-1.162,0.163-2.296,0.489-3.401   c0.326-1.105,0.795-2.154,1.408-3.148h1.146c-0.56,1.422-0.938,2.611-1.135,3.568c-0.197,0.957-0.295,1.969-0.295,3.035   c0,1.103,0.139,2.27,0.416,3.5C7.522,26.016,7.855,27.028,8.327,28.186z"/>
</g>
<g id="Type">
	<path d="M53.265,12.893v17.022H26.785V12.893H53.265z M28.204,15.139v12.53l10.443-6.265L28.204,15.139z M50.468,14.312H29.583   l10.443,6.265L50.468,14.312z M29.583,28.497h20.885l-10.442-6.265L29.583,28.497z M41.404,21.404l10.441,6.265v-12.53   L41.404,21.404z"/>
</g>
<g id="STK">
	<path d="M17.277,17.745h-4.502l-0.341,2.34c0.262-0.033,0.496-0.051,0.844-0.051c1.023,0.003,2.054,0.231,2.834,0.75   c0.893,0.561,1.531,1.556,1.531,2.972c0,2.229-1.845,4.054-4.723,4.054c-1.358,0-2.49-0.342-3.106-0.689l0.454-1.676   c0.501,0.271,1.516,0.617,2.578,0.617c1.293,0,2.537-0.741,2.531-2.133c-0.006-1.337-0.989-2.229-3.322-2.229   c-0.659,0-1.144,0.05-1.6,0.113l0.759-5.905h6.062V17.745z"/>
</g>
<g id="ECH">
	<rect width="27.832" x="26.078" fill="none" height="8.039" y="2.802"/>
	<path d="M38.123,10.37l-0.608-1.219c-0.243-0.472-0.411-0.823-0.597-1.213h-0.021c-0.141,0.391-0.306,0.744-0.524,1.209   l-0.557,1.223h-1.734l1.946-3.411L34.15,3.634h1.752l0.59,1.227c0.196,0.409,0.342,0.742,0.502,1.12h0.025   c0.163-0.428,0.287-0.728,0.46-1.116l0.565-1.23h1.739l-1.898,3.287l1.999,3.449H38.123z"/>
	<path d="M44.145,10.37l-0.608-1.219c-0.244-0.472-0.411-0.823-0.597-1.213h-0.021c-0.141,0.391-0.307,0.744-0.524,1.209   l-0.558,1.223h-1.734l1.947-3.411l-1.878-3.325h1.751l0.59,1.227c0.197,0.409,0.343,0.742,0.502,1.12h0.026   c0.162-0.428,0.287-0.728,0.459-1.116l0.566-1.23h1.739l-1.899,3.287l2,3.449H44.145z"/>
</g>
<g id="PF">
	<rect width="60" x="0" fill="none" height="15.475" y="44.525"/>
	<path d="M29.696,52.494v0.939H27.71v-0.939H29.696z"/>
	<path d="M32.285,52.494v0.939H30.3v-0.939H32.285z"/>
</g>
<g id="Des">
	<rect width="60" x="0" fill="none" height="14.525" y="31.722"/>
	<path d="M16.404,34.945c-0.26,0.011-0.558,0.046-0.902,0.118c-1.728,0.402-2.5,1.995-2.79,3.614h0.057   c0.435-0.605,1.06-1.017,1.884-1.017c1.532,0,2.592,1.401,2.592,3.613c0,2.128-1.034,4.082-3.136,4.082   c-2.139,0-3.336-1.987-3.336-4.8c0-2.427,0.727-4.171,1.732-5.372c0.738-0.906,1.867-1.499,2.857-1.702   c0.467-0.085,0.822-0.1,1.043-0.118V34.945z M15.335,41.321c-0.01-1.341-0.461-2.249-1.309-2.249c-0.467,0-0.938,0.314-1.209,0.995   c-0.057,0.129-0.111,0.432-0.111,0.884c0.008,1.92,0.578,2.982,1.389,2.982C14.878,43.934,15.335,43.004,15.335,41.321z"/>
	<path d="M24.544,39.319c0,4.231-1.447,6.037-3.257,6.037c-2.219,0-3.185-2.584-3.185-5.955c0-3.627,1.12-6.037,3.309-6.037   C23.753,33.364,24.544,36.112,24.544,39.319z M20.032,39.36c-0.021,2.778,0.382,4.349,1.34,4.349c0.892,0,1.242-1.611,1.242-4.349   c0-2.614-0.33-4.349-1.25-4.349C20.455,35.012,20.022,36.603,20.032,39.36z"/>
	<path d="M28.627,43.161c0.453,0.272,1.242,0.483,1.882,0.483c1.184,0,1.83-0.693,1.83-1.686c0-0.981-0.597-1.533-1.589-2.218   c-1.342-0.859-2.287-2.068-2.287-3.38c0-1.897,1.289-3.394,3.555-3.394c0.781,0,1.488,0.232,1.812,0.44l-0.357,1.649   c-0.329-0.216-0.844-0.414-1.499-0.414c-1.092,0-1.612,0.742-1.612,1.472c0,0.94,0.485,1.368,1.721,2.166   c1.543,0.998,2.155,2.176,2.155,3.48c0,2.17-1.563,3.559-3.732,3.559c-0.913,0-1.823-0.258-2.201-0.507L28.627,43.161z"/>
	<path d="M39.529,45.212l-0.113-0.893h-0.043c-0.438,0.676-1.088,1.037-1.856,1.037c-1.257,0-2.206-1.055-2.206-2.593   c0-2.252,1.905-3.204,3.888-3.222V39.31c0-0.913-0.356-1.555-1.31-1.555c-0.627,0-1.159,0.183-1.635,0.486l-0.369-1.312   c0.432-0.272,1.354-0.627,2.422-0.627c2.257,0,2.834,1.545,2.834,3.41v3.503c0,0.682,0.021,1.415,0.113,1.996H39.529z    M39.25,40.822c-0.748,0.011-2.104,0.219-2.104,1.744c0,0.989,0.528,1.347,0.95,1.347c0.482,0,0.945-0.327,1.107-1.003   c0.036-0.137,0.047-0.294,0.047-0.445V40.822z"/>
	<path d="M42.851,45.212c0.028-0.652,0.071-1.65,0.071-2.369V32.752h1.912v4.649h0.036c0.438-0.742,1.037-1.099,1.836-1.099   c1.553,0,2.446,1.765,2.446,4.353c0,3.115-1.259,4.701-2.77,4.701c-0.818,0-1.312-0.408-1.729-1.228h-0.052l-0.112,1.083H42.851z    M44.834,42.095c0,0.211,0.03,0.411,0.077,0.553c0.253,0.924,0.701,1.123,1.028,1.123c0.936,0,1.296-1.223,1.296-2.982   c0-1.624-0.379-2.858-1.312-2.858c-0.492,0-0.902,0.57-1.021,1.146c-0.039,0.164-0.069,0.394-0.069,0.568V42.095z"/>
</g>
<g>
</g>
<g>
</g>
<g>
</g>
<g>
</g>
<g>
</g>
<g>
</g>
</svg>