<!-- Generator: Adobe Illustrator 25.2.3, SVG Export Plug-In . SVG Version: 6.00 Build 0)  --><svg x="0px" enable-background="new 0 0 60 60" y="0px" width="60px" xmlns:xlink="http://www.w3.org/1999/xlink" viewBox="0 0 60 60" height="60px" id="Layer_1" xmlns="http://www.w3.org/2000/svg" xml:space="preserve" version="1.1">
<rect width="60" x="0" height="60" id="UnitColor" y="-0.085"/>
<rect width="60" fill="#F7EC13" height="20.189" id="CS_2_" y="11.533" display="none"/>
<g id="Gar" display="none">
	<rect width="14.843" fill="none" x="0.73" height="8.039" y="2.802" display="inline"/>
	<path fill="#FBF49C" d="M11.03,10.06c-0.472,0.163-1.361,0.379-2.249,0.379c-1.231,0-2.119-0.308-2.739-0.903   C5.424,8.949,5.085,8.072,5.089,7.083C5.097,4.842,6.73,3.567,8.936,3.567c0.87,0,1.539,0.165,1.873,0.323L10.49,5.111   C10.117,4.95,9.664,4.825,8.922,4.825c-1.27,0-2.235,0.714-2.235,2.18c0,1.391,0.878,2.205,2.125,2.205   c0.344,0,0.623-0.04,0.745-0.095V7.699H8.516V6.512h2.514V10.06z" display="inline"/>
</g>
<g id="Eng" display="none">
	<rect width="27.832" fill="none" x="1.1" height="8.039" y="2.802" display="inline"/>
	<path fill="#FBF49C" d="M17.011,7.521h-2.479v1.602h2.771v1.248h-4.294V3.634h4.15v1.248h-2.626v1.403h2.479   V7.521z" display="inline"/>
</g>
<g id="P2" display="none">
	<path fill="#FBF49C" d="M19.024,28.186c0.472-1.148,0.803-2.149,0.992-3.001c0.282-1.24,0.423-2.417,0.423-3.534   c0-1.066-0.099-2.078-0.295-3.035c-0.197-0.957-0.575-2.146-1.135-3.568h1.146c0.628,1.03,1.101,2.092,1.419,3.186   c0.319,1.094,0.478,2.185,0.478,3.274c0,1.094-0.159,2.218-0.476,3.374s-0.786,2.257-1.407,3.305H19.024z" display="inline"/>
</g>
<g id="P1" display="none">
	<path fill="#FBF49C" d="M8.327,28.186H7.182c-0.605-1.025-1.071-2.111-1.396-3.257s-0.487-2.257-0.487-3.333   c0-1.162,0.163-2.296,0.489-3.401c0.326-1.105,0.795-2.154,1.408-3.148h1.146c-0.56,1.422-0.938,2.611-1.135,3.568   c-0.197,0.957-0.295,1.969-0.295,3.035c0,1.103,0.139,2.27,0.416,3.5C7.522,26.016,7.855,27.028,8.327,28.186z" display="inline"/>
</g>
<g id="Type">
	<path fill="#FBF49C" d="M53.265,12.893v17.022H26.785V12.893H53.265z M28.204,15.139v12.53l10.443-6.265L28.204,15.139z    M50.468,14.312H29.583l10.443,6.265L50.468,14.312z M29.583,28.497h20.885l-10.442-6.265L29.583,28.497z M41.404,21.404   l10.441,6.265v-12.53L41.404,21.404z"/>
</g>
<g id="STK">
	<path fill="#FBF49C" d="M13.307,17.911h-0.036l-2.139,1.074l-0.386-1.671l2.857-1.406h1.847v11.703h-2.144V17.911z"/>
</g>
<g id="ECH">
	<rect width="27.832" x="26.078" fill="none" height="8.039" y="2.802"/>
	<path fill="#FBF49C" d="M39.33,3.634v6.736h-1.523V3.634H39.33z"/>
	<path fill="#FBF49C" d="M42.18,3.634v6.736h-1.522V3.634H42.18z"/>
</g>
<g id="PF">
	<rect width="60" x="0" fill="none" height="15.475" y="44.525"/>
	<path fill="#FBF49C" d="M17.442,49.227v0.858l-2.044,5.638h-1.273l1.991-5.322v-0.02h-2.214v-1.154H17.442z"/>
	<path fill="#FBF49C" d="M23.164,55.624c-0.188,0.089-0.555,0.158-1.01,0.158c-1.722,0-2.544-1.414-2.544-3.326   c0-2.539,1.409-3.529,2.715-3.529c0.464,0,0.784,0.093,0.916,0.176l-0.219,1.104c-0.154-0.072-0.322-0.134-0.609-0.134   c-0.747,0-1.415,0.645-1.415,2.311c0,1.608,0.613,2.236,1.407,2.236c0.22,0,0.472-0.048,0.631-0.099L23.164,55.624z"/>
	<path fill="#FBF49C" d="M26.993,55.624c-0.188,0.089-0.556,0.158-1.01,0.158c-1.722,0-2.544-1.414-2.544-3.326   c0-2.539,1.409-3.529,2.715-3.529c0.464,0,0.784,0.093,0.916,0.176l-0.219,1.104c-0.154-0.072-0.322-0.134-0.609-0.134   c-0.747,0-1.415,0.645-1.415,2.311c0,1.608,0.613,2.236,1.407,2.236c0.22,0,0.472-0.048,0.631-0.099L26.993,55.624z"/>
	<path fill="#FBF49C" d="M27.719,55.723v-6.736h1.202l1.036,2.643c0.204,0.519,0.532,1.381,0.721,1.964h0.02   c-0.046-0.704-0.133-1.88-0.133-3.118v-1.488h1.15v6.736h-1.202l-1.021-2.562c-0.229-0.568-0.533-1.42-0.688-2.023h-0.02   c0.039,0.678,0.086,1.717,0.086,3.071v1.515H27.719z"/>
	<path fill="#FBF49C" d="M32.879,55.723v-6.736h1.202l1.036,2.643c0.204,0.519,0.532,1.381,0.721,1.964h0.021   c-0.047-0.704-0.133-1.88-0.133-3.118v-1.488h1.15v6.736h-1.202l-1.021-2.562c-0.229-0.568-0.532-1.42-0.688-2.023h-0.02   c0.038,0.678,0.085,1.717,0.085,3.071v1.515H32.879z"/>
	<path fill="#FBF49C" d="M40.941,48.986v6.736h-1.312v-6.736H40.941z"/>
	<path fill="#FBF49C" d="M43.421,48.986v6.736h-1.312v-6.736H43.421z"/>
	<path fill="#FBF49C" d="M45.9,48.986v6.736h-1.312v-6.736H45.9z"/>
</g>
<g id="Des">
	<rect width="60" x="0" fill="none" height="14.525" y="31.722"/>
	<path fill="#FBF49C" d="M33.063,33.509v1.226l-3.73,10.478h-1.871l3.646-9.972v-0.036h-4.091v-1.695H33.063z"/>
</g>
<g>
</g>
<g>
</g>
<g>
</g>
<g>
</g>
<g>
</g>
<g>
</g>
</svg>