<!-- Generator: Adobe Illustrator 25.2.3, SVG Export Plug-In . SVG Version: 6.00 Build 0)  --><svg x="0px" enable-background="new 0 0 60 60" y="0px" width="60px" xmlns:xlink="http://www.w3.org/1999/xlink" viewBox="0 0 60 60" height="60px" id="Layer_1" xmlns="http://www.w3.org/2000/svg" xml:space="preserve" version="1.1">
<rect width="60" x="0" height="60" id="UnitColor" y="-0.085"/>
<rect width="60" fill="#F7EC13" height="20.189" id="CS_2_" y="11.533" display="none"/>
<g id="Gar" display="none">
	<rect width="14.843" fill="none" x="0.73" height="8.039" y="2.802" display="inline"/>
	<path fill="#FBF49C" d="M11.03,10.06c-0.472,0.163-1.361,0.379-2.249,0.379c-1.231,0-2.119-0.308-2.739-0.903   C5.424,8.949,5.085,8.072,5.089,7.083C5.097,4.842,6.73,3.567,8.936,3.567c0.87,0,1.539,0.165,1.873,0.323L10.49,5.111   C10.117,4.95,9.664,4.825,8.922,4.825c-1.27,0-2.235,0.714-2.235,2.18c0,1.391,0.878,2.205,2.125,2.205   c0.344,0,0.623-0.04,0.745-0.095V7.699H8.516V6.512h2.514V10.06z" display="inline"/>
</g>
<g id="Eng" display="none">
	<rect width="27.832" fill="none" x="1.1" height="8.039" y="2.802" display="inline"/>
	<path fill="#FBF49C" d="M17.011,7.521h-2.479v1.602h2.771v1.248h-4.294V3.634h4.15v1.248h-2.626v1.403h2.479   V7.521z" display="inline"/>
</g>
<g id="P2" display="none">
	<path fill="#FBF49C" d="M19.024,28.186c0.472-1.148,0.803-2.149,0.992-3.001c0.282-1.24,0.423-2.417,0.423-3.534   c0-1.066-0.099-2.078-0.295-3.035c-0.197-0.957-0.575-2.146-1.135-3.568h1.146c0.628,1.03,1.101,2.092,1.419,3.186   c0.319,1.094,0.478,2.185,0.478,3.274c0,1.094-0.159,2.218-0.476,3.374s-0.786,2.257-1.407,3.305H19.024z" display="inline"/>
</g>
<g id="P1" display="none">
	<path fill="#FBF49C" d="M8.327,28.186H7.182c-0.605-1.025-1.071-2.111-1.396-3.257s-0.487-2.257-0.487-3.333   c0-1.162,0.163-2.296,0.489-3.401c0.326-1.105,0.795-2.154,1.408-3.148h1.146c-0.56,1.422-0.938,2.611-1.135,3.568   c-0.197,0.957-0.295,1.969-0.295,3.035c0,1.103,0.139,2.27,0.416,3.5C7.522,26.016,7.855,27.028,8.327,28.186z" display="inline"/>
</g>
<g id="Type">
	<path fill="#FBF49C" d="M53.265,12.893v17.022H26.785V12.893H53.265z M28.204,15.139v12.53l10.443-6.265L28.204,15.139z    M50.468,14.312H29.583l10.443,6.265L50.468,14.312z M29.583,28.497h20.885l-10.442-6.265L29.583,28.497z M41.404,21.404   l10.441,6.265v-12.53L41.404,21.404z"/>
</g>
<g id="STK">
	<path fill="#FBF49C" d="M13.307,17.911h-0.036l-2.139,1.074l-0.386-1.671l2.857-1.406h1.847v11.703h-2.144V17.911z"/>
</g>
<g id="ECH">
	<rect width="27.832" x="26.078" fill="none" height="8.039" y="2.802"/>
	<path fill="#FBF49C" d="M39.33,3.634v6.736h-1.523V3.634H39.33z"/>
	<path fill="#FBF49C" d="M42.18,3.634v6.736h-1.522V3.634H42.18z"/>
</g>
<g id="PF">
	<rect width="60" x="0" fill="none" height="15.475" y="44.525"/>
	<path fill="#FBF49C" d="M14.619,55.723V54.84l0.646-0.825c0.842-1.071,1.529-1.963,1.529-2.89c0-0.523-0.291-0.888-0.83-0.888   c-0.408,0-0.737,0.18-0.975,0.325l-0.23-1.012c0.298-0.195,0.853-0.404,1.443-0.404c1.421,0,1.883,0.951,1.883,1.882   c0,1.22-0.765,2.192-1.509,3.062l-0.389,0.459v0.02h1.985v1.154H14.619z"/>
	<path fill="#FBF49C" d="M22.283,50.365h-1.722l-0.151,1.164c0.066-0.006,0.128-0.006,0.199-0.006   c0.279,0.008,0.849,0.138,1.224,0.489c0.363,0.348,0.563,0.841,0.563,1.495c0,1.262-0.839,2.295-2.262,2.295   c-0.462,0-0.961-0.116-1.221-0.261l0.199-1.035c0.241,0.117,0.577,0.223,0.929,0.223c0.646,0,1.063-0.41,1.063-1.101   c0-0.875-0.657-1.166-1.406-1.166c-0.184,0-0.333,0.004-0.469,0.023l0.363-3.26h2.69V50.365z"/>
	<path fill="#FBF49C" d="M26.92,52.443c0,2.333-0.847,3.359-1.9,3.359c-1.414,0-1.891-1.625-1.891-3.297   c0-1.868,0.595-3.359,1.939-3.359C26.577,49.146,26.92,50.897,26.92,52.443z M24.444,52.475c-0.016,1.521,0.17,2.207,0.614,2.207   c0.401,0,0.547-0.719,0.547-2.207c0-1.395-0.131-2.208-0.549-2.208C24.646,50.267,24.436,50.97,24.444,52.475z"/>
	<path fill="#FBF49C" d="M27.734,48.986h1.312v5.626h1.723v1.11h-3.036V48.986z"/>
	<path fill="#FBF49C" d="M34.995,50.831c-0.026,0.448-0.048,0.963-0.048,1.55v2.79c0,1.055-0.195,1.627-0.592,2.012   c-0.359,0.344-0.874,0.539-1.588,0.539c-0.453,0-0.872-0.078-1.222-0.232l0.242-1.006c0.247,0.113,0.553,0.204,0.936,0.204   c0.658,0,0.919-0.437,0.919-1.187v-0.294h-0.021c-0.168,0.31-0.512,0.484-0.878,0.484c-1.097,0-1.525-1.198-1.525-2.367   c0-1.627,0.739-2.573,1.646-2.573c0.385,0,0.709,0.207,0.899,0.578h0.021l0.066-0.498H34.995z M33.643,52.617   c0-0.128-0.024-0.264-0.054-0.358c-0.061-0.21-0.197-0.403-0.421-0.403c-0.468,0-0.656,0.639-0.656,1.437   c0,0.911,0.257,1.373,0.635,1.373c0.17,0,0.337-0.089,0.433-0.355c0.048-0.109,0.063-0.251,0.063-0.383V52.617z"/>
	<path fill="#FBF49C" d="M35.84,52.303c0-0.534-0.022-1.006-0.04-1.472h1.13l0.067,0.565h0.021c0.251-0.39,0.676-0.646,1.186-0.646   c0.928,0,1.302,0.741,1.302,1.835v3.137h-1.312v-3.062c0-0.412-0.096-0.808-0.481-0.808c-0.217,0-0.399,0.15-0.491,0.439   c-0.036,0.099-0.067,0.263-0.067,0.452v2.978H35.84V52.303z"/>
	<path fill="#FBF49C" d="M44.308,55.723l-0.423-1.242c-0.132-0.392-0.246-0.763-0.362-1.193H43.5   c-0.109,0.429-0.218,0.832-0.318,1.219l-0.356,1.217h-1.298l1.255-3.444l-1.207-3.292h1.364l0.393,1.244   c0.106,0.354,0.205,0.7,0.309,1.086h0.02c0.109-0.407,0.195-0.734,0.284-1.1l0.34-1.23h1.312l-1.263,3.347l1.333,3.39H44.308z"/>
</g>
<g id="Des">
	<rect width="60" x="0" fill="none" height="14.525" y="31.722"/>
	<path fill="#FBF49C" d="M23.086,42.25c0-1.539,0.875-2.584,1.832-3.225l-0.007-0.036c-0.985-0.655-1.48-1.669-1.48-2.613   c0-1.87,1.401-3.012,3.053-3.012c1.672,0,2.789,1.259,2.789,2.818c0,0.892-0.387,1.917-1.551,2.676v0.044   c1.08,0.646,1.837,1.714,1.837,3.113c0,2.013-1.413,3.341-3.277,3.341C24.293,45.356,23.086,43.955,23.086,42.25z M27.69,42.108   c0-1.218-0.726-1.949-1.494-2.408c-0.752,0.487-1.242,1.34-1.242,2.303c0,1.146,0.495,2.013,1.394,2.013   C27.144,44.016,27.69,43.309,27.69,42.108z M25.248,36.291c0,0.991,0.583,1.573,1.283,1.982c0.59-0.371,0.966-1.112,0.966-1.893   c0-0.943-0.351-1.687-1.113-1.687C25.658,34.694,25.248,35.409,25.248,36.291z"/>
	<path fill="#FBF49C" d="M33.299,35.361h-0.036l-1.968,1.065l-0.342-1.503l2.587-1.415h1.652v11.703h-1.894V35.361z"/>
</g>
<g>
</g>
<g>
</g>
<g>
</g>
<g>
</g>
<g>
</g>
<g>
</g>
</svg>