<!-- Generator: Adobe Illustrator 25.2.3, SVG Export Plug-In . SVG Version: 6.00 Build 0)  --><svg x="0px" enable-background="new 0 0 60 60" y="0px" width="60px" xmlns:xlink="http://www.w3.org/1999/xlink" viewBox="0 0 60 60" height="60px" id="Layer_1" xmlns="http://www.w3.org/2000/svg" xml:space="preserve" version="1.1">
<rect width="60" x="0" height="60" id="UnitColor" y="-0.085"/>
<rect width="60" fill="#F7EC13" height="20.189" id="CS_2_" y="11.533"/>
<g id="Gar" display="none">
	<rect width="14.843" fill="none" x="0.73" height="8.039" y="2.802" display="inline"/>
	<path fill="#FBF49C" d="M11.03,10.06c-0.472,0.163-1.361,0.379-2.249,0.379c-1.231,0-2.119-0.308-2.739-0.903   C5.424,8.949,5.085,8.072,5.089,7.083C5.097,4.842,6.73,3.567,8.936,3.567c0.87,0,1.539,0.165,1.873,0.323L10.49,5.111   C10.117,4.95,9.664,4.825,8.922,4.825c-1.27,0-2.235,0.714-2.235,2.18c0,1.391,0.878,2.205,2.125,2.205   c0.344,0,0.623-0.04,0.745-0.095V7.699H8.516V6.512h2.514V10.06z" display="inline"/>
</g>
<g id="Eng" display="none">
	<rect width="27.832" fill="none" x="1.1" height="8.039" y="2.802" display="inline"/>
	<path fill="#FBF49C" d="M17.011,7.521h-2.479v1.602h2.771v1.248h-4.294V3.634h4.15v1.248h-2.626v1.403h2.479   V7.521z" display="inline"/>
</g>
<g id="P2">
	<path d="M19.024,28.186c0.472-1.148,0.803-2.149,0.992-3.001c0.282-1.24,0.423-2.417,0.423-3.534c0-1.066-0.099-2.078-0.295-3.035   c-0.197-0.957-0.575-2.146-1.135-3.568h1.146c0.628,1.03,1.101,2.092,1.419,3.186c0.319,1.094,0.478,2.185,0.478,3.274   c0,1.094-0.159,2.218-0.476,3.374s-0.786,2.257-1.407,3.305H19.024z"/>
</g>
<g id="P1">
	<path d="M8.327,28.186H7.182c-0.605-1.025-1.071-2.111-1.396-3.257s-0.487-2.257-0.487-3.333c0-1.162,0.163-2.296,0.489-3.401   c0.326-1.105,0.795-2.154,1.408-3.148h1.146c-0.56,1.422-0.938,2.611-1.135,3.568c-0.197,0.957-0.295,1.969-0.295,3.035   c0,1.103,0.139,2.27,0.416,3.5C7.522,26.016,7.855,27.028,8.327,28.186z"/>
</g>
<g id="Type">
	<path d="M53.265,12.893v17.022H26.785V12.893H53.265z M28.204,15.139v12.53l10.443-6.265L28.204,15.139z M50.468,14.312H29.583   l10.443,6.265L50.468,14.312z M29.583,28.497h20.885l-10.442-6.265L29.583,28.497z M41.404,21.404l10.441,6.265v-12.53   L41.404,21.404z"/>
</g>
<g id="STK">
	<path d="M9.839,27.611v-1.345l1.388-1.292c2.753-2.546,4.052-3.949,4.066-5.496c0-1.058-0.562-1.97-2.091-1.97   c-1.036,0-1.914,0.524-2.499,0.975l-0.649-1.574c0.841-0.67,2.121-1.199,3.593-1.199c2.595,0,3.865,1.631,3.865,3.545   c0,2.059-1.479,3.712-3.525,5.602l-1.013,0.888v0.036h4.796v1.831H9.839z"/>
</g>
<g id="ECH">
	<rect width="27.832" x="26.078" fill="none" height="8.039" y="2.802"/>
	<path fill="#FBF49C" d="M37.905,3.634v6.736h-1.523V3.634H37.905z"/>
	<path fill="#FBF49C" d="M40.756,3.634v6.736h-1.523V3.634H40.756z"/>
	<path fill="#FBF49C" d="M43.605,3.634v6.736h-1.522V3.634H43.605z"/>
</g>
<g id="PF">
	<rect width="60" x="0" fill="none" height="15.475" y="44.525"/>
	<path fill="#FBF49C" d="M29.696,52.494v0.939H27.71v-0.939H29.696z"/>
	<path fill="#FBF49C" d="M32.285,52.494v0.939H30.3v-0.939H32.285z"/>
</g>
<g id="Des">
	<rect width="60" x="0" fill="none" height="14.525" y="31.722"/>
	<path fill="#FBF49C" d="M11.928,43.744c0.382,0,0.629-0.025,0.984-0.098c0.513-0.118,1.053-0.395,1.473-0.806   c0.564-0.58,1.038-1.528,1.236-2.791h-0.046c-0.407,0.477-0.98,0.838-1.776,0.838c-1.494,0-2.667-1.351-2.667-3.488   c0-2.061,1.198-4.035,3.244-4.035c2.103,0,3.152,2.043,3.152,4.761c0,2.496-0.732,4.33-1.755,5.542   c-0.707,0.853-1.712,1.413-2.808,1.614c-0.371,0.069-0.71,0.075-1.036,0.075V43.744z M13.031,37.245   c0.01,1.395,0.493,2.281,1.309,2.281c0.489,0,0.946-0.348,1.147-0.802c0.083-0.213,0.108-0.424,0.108-1.026   c0-1.949-0.557-2.912-1.317-2.912C13.626,34.786,13.01,35.556,13.031,37.245z"/>
	<path fill="#FBF49C" d="M24.633,45.019c-0.355,0.176-0.993,0.302-1.785,0.302c-2.77,0-4.35-2.261-4.35-6.009   c0-4.67,2.463-6.344,4.622-6.344c0.79,0,1.345,0.157,1.586,0.309l-0.354,1.627c-0.286-0.134-0.584-0.249-1.153-0.249   c-1.322,0-2.671,1.209-2.671,4.523c0,3.268,1.223,4.436,2.682,4.436c0.451,0,0.908-0.103,1.196-0.214L24.633,45.019z"/>
	<path fill="#FBF49C" d="M31.311,45.019c-0.354,0.176-0.992,0.302-1.784,0.302c-2.77,0-4.35-2.261-4.35-6.009   c0-4.67,2.463-6.344,4.622-6.344c0.79,0,1.345,0.157,1.586,0.309l-0.354,1.627c-0.286-0.134-0.584-0.249-1.153-0.249   c-1.322,0-2.671,1.209-2.671,4.523c0,3.268,1.223,4.436,2.682,4.436c0.451,0,0.908-0.103,1.197-0.214L31.311,45.019z"/>
	<path fill="#FBF49C" d="M32.667,45.212V33.076h1.778l2.028,5.18c0.431,1.101,1.037,2.678,1.413,3.847h0.036   c-0.095-1.557-0.208-3.427-0.208-5.598v-3.429h1.701v12.136h-1.778l-2.05-5.166c-0.447-1.114-0.982-2.577-1.33-3.857h-0.036   c0.085,1.401,0.146,3.123,0.146,5.632v3.392H32.667z"/>
	<path fill="#FBF49C" d="M41.541,45.212V33.076h1.778l2.028,5.18c0.431,1.101,1.037,2.678,1.413,3.847h0.036   c-0.095-1.557-0.208-3.427-0.208-5.598v-3.429h1.701v12.136h-1.778l-2.05-5.166c-0.447-1.114-0.982-2.577-1.33-3.857h-0.036   c0.085,1.401,0.146,3.123,0.146,5.632v3.392H41.541z"/>
</g>
<g>
</g>
<g>
</g>
<g>
</g>
<g>
</g>
<g>
</g>
<g>
</g>
</svg>