<svg width="60" height="60" xmlns="http://www.w3.org/2000/svg" viewBox="0 0 60 60">
  <rect fill="#faf39f" height="60" width="60"/>
  <g>
    <g>
      <g>
        <path fill="#010101" d="M18.229,34.687v.135c0,.023,0,.045,0,.067l-.006.066-.006.066-.006.07q-.006.033-.009.066l-.012.066-.012.066-.012.067c-.006.021-.011.044-.015.066l-.018.063-.018.066-.019.064q-.012.033-.021.066l-.024.063q-.012.03-.024.063L18,35.868a.6.6,0,0,1-.027.063q-.015.03-.027.06l-.03.06-.03.061c-.012.02-.023.04-.034.06a.53.53,0,0,1-.033.057l-.036.06-.036.054c-.012.02-.024.04-.036.058s-.025.036-.039.054-.025.036-.039.054l-.043.054-.042.054c-.014.016-.028.034-.042.052s-.029.032-.045.048a.547.547,0,0,1-.045.051l-.048.048-.049.049q-.024.024-.048.045t-.048.045L17.172,37l-.054.042c-.016.014-.034.028-.052.042s-.036.027-.054.04-.036.027-.054.039a.572.572,0,0,1-.057.039c-.018.012-.037.024-.058.036l-.057.036a.53.53,0,0,1-.057.033l-.057.033a.608.608,0,0,0-.06.034l-.061.03q-.03.012-.06.027l-.063.027a.6.6,0,0,1-.063.027l-.061.024-.063.024q-.033.009-.066.021l-.063.021-.064.018-.066.018c-.022,0-.044.01-.066.016s-.044.009-.066.015l-.067.012-.066.012-.066.009-.066.009-.067.006-.069.006-.066,0-.067,0h-.135l-.066,0-.07,0-.066-.006-.066-.006-.066-.009-.07-.009-.066-.012-.066-.012-.063-.015c-.023-.006-.045-.012-.067-.016l-.066-.018c-.022-.005-.043-.012-.063-.018s-.044-.015-.067-.021a.581.581,0,0,0-.063-.021l-.063-.024-.063-.024q-.03-.012-.06-.027a.535.535,0,0,1-.064-.027q-.03-.015-.06-.027l-.06-.03a.608.608,0,0,0-.06-.034.461.461,0,0,1-.058-.033l-.06-.033-.057-.036L13.6,37.2a.587.587,0,0,1-.058-.039q-.027-.018-.054-.039c-.018-.013-.036-.025-.054-.04l-.054-.042L13.326,37l-.052-.045q-.024-.021-.048-.045a.547.547,0,0,1-.051-.045l-.048-.049q-.021-.024-.045-.048a.557.557,0,0,1-.046-.051q-.024-.024-.045-.048a.559.559,0,0,0-.045-.052l-.042-.054q-.018-.027-.039-.054t-.039-.054c-.014-.018-.028-.036-.04-.054a.587.587,0,0,1-.039-.058l-.036-.054q-.018-.03-.033-.06a.53.53,0,0,1-.033-.057q-.018-.03-.033-.06l-.03-.061-.031-.06q-.015-.03-.027-.06a.6.6,0,0,1-.027-.063.665.665,0,0,0-.027-.061q-.012-.033-.021-.063l-.024-.063q-.009-.033-.021-.066l-.018-.064-.018-.066-.018-.063c0-.022-.009-.045-.015-.066l-.012-.067-.012-.066-.013-.066q-.006-.033-.009-.066l-.006-.07a.368.368,0,0,1-.006-.066l-.006-.066c0-.022,0-.044,0-.067v-.069a.364.364,0,0,1,0-.066v-.069c0-.023,0-.045,0-.067l.006-.066a.42.42,0,0,1,.006-.069l.006-.067q0-.033.009-.066l.013-.066.012-.066.012-.067q.009-.033.015-.066l.018-.063.018-.066.018-.064c.008-.021.015-.044.021-.066s.016-.041.024-.063.013-.041.021-.063a.665.665,0,0,0,.027-.061c.008-.021.017-.043.027-.063s.017-.04.027-.06l.031-.063c.01-.02.02-.04.03-.058s.021-.04.033-.06a.53.53,0,0,1,.033-.057q.015-.03.033-.06l.036-.057c.012-.018.025-.037.039-.055l.04-.057q.018-.027.039-.054a.491.491,0,0,0,.039-.051l.042-.054c.016-.017.031-.034.045-.052l.045-.051c.014-.016.03-.032.046-.048s.031-.032.045-.048l.048-.049c.016-.015.033-.031.051-.045l.048-.045.052-.045.051-.042.054-.042c.018-.014.036-.028.054-.04s.036-.027.054-.039a.587.587,0,0,1,.058-.039l.054-.036.057-.036.06-.033a.461.461,0,0,1,.058-.033c.02-.012.04-.024.06-.034l.06-.03.06-.027a.535.535,0,0,1,.064-.027l.06-.027.063-.024.063-.024a.581.581,0,0,0,.063-.021c.023-.006.045-.013.067-.021l.063-.018.066-.018.067-.015.063-.016.066-.012.066-.012a.463.463,0,0,0,.07-.009q.033,0,.066-.009l.066-.006.066-.006c.022,0,.046,0,.07,0s.044,0,.066,0h.135c.023,0,.045,0,.067,0s.044,0,.066,0l.069.006.067.006q.033.006.066.009a.374.374,0,0,0,.066.009l.066.012.067.012.066.016c.022.006.044.01.066.015l.066.018.064.018.063.021q.033.012.066.021l.063.024.061.024a.6.6,0,0,1,.063.027l.063.027.06.027.061.03c.02.01.04.022.06.034l.057.033a.53.53,0,0,1,.057.033l.057.036c.021.012.04.024.058.036a.572.572,0,0,1,.057.039q.027.018.054.039c.018.012.036.026.054.04s.036.028.052.042l.054.042.051.045.048.045c.016.014.032.03.048.045l.049.049.048.048q.024.024.045.048l.045.051.042.052.042.054.043.051q.021.027.039.054l.039.057.036.055a.654.654,0,0,1,.036.057l.036.06a.53.53,0,0,1,.033.057.608.608,0,0,1,.034.06l.03.061.03.06q.012.03.027.06c.01.02.019.042.027.063l.024.061q.012.033.024.063l.024.063c.006.022.013.045.021.066l.019.064.018.066.018.063q.006.033.015.066l.012.067.012.066.012.066q0,.033.009.066l.006.067.006.069.006.066c0,.022,0,.044,0,.067Z"/>
        <path fill="#010101" d="M15.316,31.738h-.135q-.033,0-.066,0c-.024,0-.048,0-.07,0l-.066.006-.066.006q-.033.006-.066.009a.463.463,0,0,1-.07.009l-.066.012-.066.012-.063.016-.067.015-.066.018-.063.018c-.022.008-.044.015-.067.021a.581.581,0,0,1-.063.021l-.063.024-.063.024-.061.027a.6.6,0,0,0-.063.027l-.06.027-.06.03c-.02.01-.04.022-.06.034a.461.461,0,0,0-.058.033l-.06.033-.057.036-.054.036a.587.587,0,0,0-.058.039q-.027.018-.054.039c-.018.012-.036.026-.054.04l-.054.042-.051.042-.052.045-.048.045c-.018.014-.035.03-.051.045l-.048.049q-.021.024-.045.048c-.016.016-.032.032-.046.048l-.045.051c-.014.018-.029.035-.045.052l-.042.054a.491.491,0,0,1-.039.051q-.021.027-.039.054l-.04.057c-.014.018-.027.037-.039.055l-.036.057q-.018.03-.033.06a.53.53,0,0,0-.033.057q-.018.03-.033.06c-.01.018-.02.038-.03.058l-.031.063q-.015.03-.027.06c-.01.02-.019.042-.027.063a.665.665,0,0,1-.027.061q-.012.033-.021.063t-.024.063c-.006.022-.013.045-.021.066l-.018.064-.018.066-.018.063q-.006.033-.015.066l-.012.067-.012.066-.013.066q-.006.033-.009.066l-.006.067a.42.42,0,0,0-.006.069l-.006.066c0,.022,0,.044,0,.067v.069a.364.364,0,0,0,0,.066v.07q0,.033,0,.066l.006.066a.368.368,0,0,0,.006.066l.006.07q0,.033.009.066l.013.066.012.066.012.067c.006.021.011.044.015.066l.018.063.018.066.018.064q.012.033.021.066l.024.063q.009.03.021.063a.665.665,0,0,1,.027.061.6.6,0,0,0,.027.063q.012.03.027.06l.031.06.03.061q.015.03.033.06a.53.53,0,0,0,.033.057q.015.03.033.06l.036.054a.587.587,0,0,0,.039.058c.012.018.026.036.04.054s.025.036.039.054.027.036.039.054l.042.054a.559.559,0,0,1,.045.052q.021.024.045.048a.557.557,0,0,0,.046.051q.024.024.045.048l.048.049a.547.547,0,0,0,.051.045q.024.024.048.045l.052.045.051.042.054.042c.018.015.036.027.054.04s.036.027.054.039a.587.587,0,0,0,.058.039l.054.036.057.036.06.033a.461.461,0,0,0,.058.033.608.608,0,0,1,.06.034l.06.03q.03.012.06.027a.6.6,0,0,0,.063.027l.061.027.063.024.063.024a.581.581,0,0,1,.063.021c.023.006.045.013.067.021s.041.013.063.018l.066.018c.022,0,.044.01.067.016l.063.015.066.012.066.012.07.009.066.009.066.006.066.006.07,0,.066,0h.135l.067,0,.066,0,.069-.006.067-.006.066-.009.066-.009.066-.012.067-.012q.033-.009.066-.015c.022-.006.044-.012.066-.016l.066-.018.064-.018.063-.021q.033-.012.066-.021l.063-.024.061-.024a.6.6,0,0,0,.063-.027l.063-.027q.03-.015.06-.027l.061-.03a.608.608,0,0,1,.06-.034l.057-.033a.53.53,0,0,0,.057-.033l.057-.036c.021-.012.04-.024.058-.036a.572.572,0,0,0,.057-.039q.027-.018.054-.039c.018-.013.036-.025.054-.04s.036-.028.052-.042L17.172,37l.051-.045q.024-.021.048-.045t.048-.045l.049-.049.048-.048a.547.547,0,0,0,.045-.051q.024-.024.045-.048c.014-.018.028-.036.042-.052l.042-.054.043-.054q.021-.027.039-.054t.039-.054c.012-.018.024-.038.036-.058l.036-.054.036-.06a.53.53,0,0,0,.033-.057c.011-.02.022-.04.034-.06l.03-.061.03-.06q.012-.03.027-.06A.6.6,0,0,0,18,35.868l.024-.061q.012-.033.024-.063l.024-.063q.009-.033.021-.066l.019-.064.018-.066.018-.063c0-.022.009-.045.015-.066l.012-.067.012-.066.012-.066q0-.033.009-.066l.006-.07.006-.066.006-.066q0-.033,0-.066v-.2c0-.023,0-.045,0-.067l-.006-.066-.006-.069-.006-.067q-.006-.033-.009-.066l-.012-.066-.012-.066-.012-.067q-.009-.033-.015-.066l-.018-.063-.018-.066-.019-.064c-.008-.021-.015-.044-.021-.066l-.024-.063q-.012-.03-.024-.063L18,33.572c-.008-.021-.017-.043-.027-.063s-.019-.04-.027-.06l-.03-.06-.03-.061a.608.608,0,0,0-.034-.06.53.53,0,0,0-.033-.057l-.036-.06a.654.654,0,0,0-.036-.057l-.036-.055-.039-.057q-.018-.027-.039-.054l-.043-.051-.042-.054-.042-.052-.045-.051q-.021-.024-.045-.048l-.048-.048-.049-.049c-.016-.015-.032-.031-.048-.045l-.048-.045-.051-.045-.054-.042c-.016-.014-.034-.028-.052-.042s-.036-.028-.054-.04-.036-.027-.054-.039a.572.572,0,0,0-.057-.039c-.018-.012-.037-.024-.058-.036l-.057-.036a.53.53,0,0,0-.057-.033l-.057-.033c-.02-.012-.04-.024-.06-.034l-.061-.03-.06-.027-.063-.027a.6.6,0,0,0-.063-.027l-.061-.024-.063-.024q-.033-.009-.066-.021l-.063-.021-.064-.018-.066-.018c-.022,0-.044-.009-.066-.015L15.85,31.8l-.067-.012-.066-.012a.374.374,0,0,1-.066-.009q-.033,0-.066-.009l-.067-.006-.069-.006q-.033,0-.066,0c-.022,0-.044,0-.067,0Z"/>
      </g>
      <g>
        <path fill="#010101" d="M47.785,34.687v.066q0,.033,0,.069c0,.023,0,.045,0,.067s0,.044,0,.066l-.006.066c0,.024-.005.047-.009.07s-.005.044-.009.066-.005.044-.009.066l-.012.066c-.006.022-.011.044-.015.067s-.009.044-.015.066-.011.043-.015.063l-.018.066c-.008.022-.015.043-.021.064s-.014.044-.022.066-.013.041-.021.063-.016.041-.024.063-.017.04-.027.061-.016.043-.024.063l-.03.06-.03.06-.03.061-.03.06c-.012.02-.024.039-.037.057s-.021.04-.033.06l-.036.054a.587.587,0,0,1-.039.058l-.036.054-.042.054q-.018.027-.039.054l-.043.054-.045.052-.042.048-.048.051q-.021.024-.045.048l-.049.049q-.024.024-.048.045l-.051.045a.547.547,0,0,1-.051.045l-.051.042-.055.042c-.018.015-.036.027-.054.04s-.036.027-.054.039-.036.027-.054.039l-.057.036-.058.036-.057.033q-.03.018-.06.033a.608.608,0,0,0-.06.034l-.061.03-.06.027q-.03.015-.06.027l-.063.027-.064.024-.063.024-.063.021a.581.581,0,0,0-.063.021l-.067.018-.066.018c-.02,0-.041.01-.063.016s-.044.009-.066.015l-.067.012-.066.012-.066.009-.066.009-.07.006-.066.006-.066,0q-.036,0-.069,0h-.133l-.069,0c-.022,0-.044,0-.067,0l-.066-.006-.069-.006-.066-.009c-.022,0-.045-.007-.067-.009l-.066-.012-.066-.012q-.033-.009-.066-.015c-.022-.006-.045-.012-.067-.016l-.063-.018-.066-.018-.063-.021-.064-.021-.063-.024-.063-.024a.6.6,0,0,1-.063-.027c-.02-.008-.041-.017-.061-.027A.6.6,0,0,0,43.5,37.4l-.06-.03a.408.408,0,0,0-.057-.034c-.02-.01-.041-.021-.061-.033a.53.53,0,0,1-.057-.033l-.057-.036L43.15,37.2q-.027-.018-.054-.039a.489.489,0,0,1-.058-.039.5.5,0,0,1-.051-.04l-.054-.042L42.882,37c-.018-.014-.035-.029-.052-.045a.547.547,0,0,1-.051-.045q-.024-.021-.048-.045l-.048-.049-.048-.048-.045-.051-.046-.048c-.014-.018-.028-.036-.042-.052l-.042-.054-.042-.054q-.018-.027-.039-.054T42.34,36.4c-.013-.018-.025-.038-.037-.058l-.036-.054-.036-.06-.033-.057-.03-.06c-.012-.021-.023-.041-.033-.061s-.019-.04-.027-.06l-.031-.06q-.012-.03-.027-.063l-.024-.061L42,35.744q-.012-.033-.021-.063t-.021-.066c-.008-.021-.015-.042-.021-.064l-.018-.066a.581.581,0,0,1-.015-.063c-.006-.022-.011-.045-.015-.066s-.011-.045-.015-.067l-.012-.066q-.006-.033-.009-.066t-.009-.066c0-.023-.007-.046-.009-.07l-.007-.066q0-.033,0-.066c0-.022,0-.044,0-.067s0-.047,0-.069v-.066q0-.033,0-.069c0-.023,0-.045,0-.067s0-.044,0-.066l.007-.069c0-.022,0-.044.009-.067s.005-.044.009-.066.005-.044.009-.066l.012-.066c0-.022.009-.044.015-.067s.009-.044.015-.066a.581.581,0,0,1,.015-.063l.018-.066c.006-.022.013-.043.021-.064s.013-.044.021-.066.013-.041.021-.063l.024-.063.024-.061c.01-.021.019-.043.027-.063l.031-.06a.6.6,0,0,1,.027-.063.545.545,0,0,1,.033-.058l.03-.06.033-.057.036-.06q.018-.027.036-.057l.037-.055a.572.572,0,0,0,.039-.057q.021-.027.039-.054t.042-.051l.042-.054.042-.052c.016-.016.031-.033.046-.051s.031-.032.045-.048l.048-.048.048-.049c.016-.015.032-.031.048-.045a.547.547,0,0,1,.051-.045c.017-.016.034-.031.052-.045l.051-.042.054-.042a.5.5,0,0,1,.051-.04.489.489,0,0,1,.058-.039q.027-.021.054-.039l.057-.036.057-.036a.53.53,0,0,1,.057-.033c.02-.012.041-.023.061-.033l.057-.034.06-.03.063-.027c.02-.01.041-.019.061-.027a.6.6,0,0,1,.063-.027l.063-.024.063-.024.064-.021.063-.021.066-.018.063-.018c.022,0,.045-.009.067-.015L44.2,31.8l.066-.012.066-.012a.385.385,0,0,0,.067-.009q.033,0,.066-.009l.069-.006.066-.006.067,0q.033,0,.069,0h.133l.069,0q.033,0,.066,0l.066.006.07.006q.033.006.066.009a.374.374,0,0,0,.066.009l.066.012.067.012.066.016.063.015.066.018.067.018a.581.581,0,0,0,.063.021l.063.021.063.024.064.024.063.027q.03.012.06.027l.06.027.061.03c.02.01.04.022.06.034s.04.021.06.033l.057.033.058.036.057.036q.027.018.054.039t.054.039c.018.012.036.026.054.04l.055.042.051.042a.547.547,0,0,1,.051.045l.051.045c.016.014.032.03.048.045l.049.049q.024.024.045.048l.048.048q.021.027.042.051l.045.052.043.054.039.051.042.054a.572.572,0,0,0,.039.057l.036.055.036.057q.018.03.033.06c.013.018.025.037.037.057l.03.06.03.061.03.06.03.06.024.063c.01.021.019.041.027.061s.016.043.024.063.015.043.021.063.016.045.022.066.013.042.021.064l.018.066q.006.03.015.063t.015.066c0,.023.009.045.015.067l.012.066q.006.033.009.066t.009.066c0,.023.007.045.009.067l.006.069q0,.033,0,.066c0,.022,0,.044,0,.067S47.785,34.665,47.785,34.687Z"/>
        <path fill="#010101" d="M44.87,31.738h-.133q-.036,0-.069,0l-.067,0-.066.006-.069.006q-.033.006-.066.009a.385.385,0,0,1-.067.009l-.066.012L44.2,31.8l-.066.016c-.022.006-.045.01-.067.015l-.063.018-.066.018-.063.021-.064.021-.063.024-.063.024a.6.6,0,0,0-.063.027c-.02.008-.041.017-.061.027l-.063.027-.06.03-.057.034c-.02.01-.041.021-.061.033a.53.53,0,0,0-.057.033l-.057.036-.057.036q-.027.018-.054.039a.489.489,0,0,0-.058.039.5.5,0,0,0-.051.04l-.054.042-.051.042c-.018.014-.035.029-.052.045a.547.547,0,0,0-.051.045c-.016.014-.032.03-.048.045l-.048.049-.048.048c-.014.016-.029.032-.046.048a.547.547,0,0,1-.045.051l-.042.052-.042.054q-.021.027-.042.051t-.039.054a.572.572,0,0,1-.039.057l-.037.055q-.018.03-.036.057l-.036.06-.033.057-.03.06a.545.545,0,0,0-.033.058.6.6,0,0,0-.027.063l-.031.06c-.008.02-.017.042-.027.063l-.024.061L42,33.7q-.012.033-.021.063c-.008.022-.015.045-.021.066s-.015.042-.021.064l-.018.066a.581.581,0,0,0-.015.063q-.009.033-.015.066c-.006.023-.011.045-.015.067l-.012.066q-.006.033-.009.066t-.009.066c0,.023-.007.045-.009.067l-.007.069q0,.033,0,.066c0,.022,0,.044,0,.067s0,.047,0,.069v.066c0,.022,0,.045,0,.07s0,.044,0,.066,0,.044,0,.066l.007.066c0,.024,0,.047.009.07s.005.044.009.066.005.044.009.066l.012.066c0,.022.009.044.015.067s.009.044.015.066a.581.581,0,0,0,.015.063l.018.066c.006.022.013.043.021.064s.013.044.021.066.013.041.021.063l.024.063.024.061q.015.033.027.063l.031.06q.012.03.027.06c.01.02.021.04.033.061l.03.06.033.057.036.06.036.054c.012.02.024.04.037.058s.027.036.039.054.027.036.039.054l.042.054.042.054c.014.016.028.034.042.052s.031.032.045.048l.046.051.048.048.048.049q.024.024.048.045a.547.547,0,0,0,.051.045c.017.016.034.031.052.045l.051.042.054.042a.5.5,0,0,0,.051.04.489.489,0,0,0,.058.039q.027.021.054.039l.057.036.057.036a.53.53,0,0,0,.057.033c.02.012.041.023.061.033a.408.408,0,0,1,.057.034l.06.03a.6.6,0,0,1,.063.027c.02.01.041.019.061.027a.6.6,0,0,0,.063.027l.063.024.063.024.064.021.063.021.066.018.063.018c.022,0,.045.01.067.016s.044.009.066.015l.066.012.066.012c.022,0,.045.005.067.009l.066.009.069.006.066.006c.023,0,.045,0,.067,0l.069,0h.133q.033,0,.069,0l.066,0,.066-.006.07-.006.066-.009.066-.009.066-.012.067-.012q.033-.009.066-.015c.022-.006.043-.012.063-.016l.066-.018.067-.018a.581.581,0,0,1,.063-.021l.063-.021.063-.024.064-.024.063-.027q.03-.012.06-.027l.06-.027.061-.03a.608.608,0,0,1,.06-.034q.03-.015.06-.033l.057-.033.058-.036.057-.036q.027-.018.054-.039t.054-.039c.018-.013.036-.025.054-.04l.055-.042L46.725,37a.547.547,0,0,0,.051-.045l.051-.045q.024-.021.048-.045l.049-.049q.024-.024.045-.048l.048-.051.042-.048.045-.052.043-.054q.021-.027.039-.054l.042-.054.036-.054a.587.587,0,0,0,.039-.058l.036-.054q.018-.03.033-.06c.013-.018.025-.037.037-.057l.03-.06.03-.061.03-.06.03-.06q.012-.03.024-.063c.01-.021.019-.041.027-.061s.016-.043.024-.063.015-.043.021-.063.016-.044.022-.066.013-.042.021-.064l.018-.066q.006-.03.015-.063c.006-.022.011-.045.015-.066s.009-.045.015-.067l.012-.066q.006-.033.009-.066t.009-.066c0-.023.007-.046.009-.07l.006-.066q0-.033,0-.066t0-.066c0-.025,0-.048,0-.07v-.066q0-.033,0-.069c0-.023,0-.045,0-.067s0-.044,0-.066l-.006-.069c0-.022-.005-.044-.009-.067s-.005-.044-.009-.066-.005-.044-.009-.066l-.012-.066c-.006-.022-.011-.044-.015-.067s-.009-.044-.015-.066-.011-.043-.015-.063l-.018-.066c-.008-.022-.015-.043-.021-.064s-.014-.044-.022-.066-.013-.041-.021-.063-.016-.041-.024-.063-.017-.04-.027-.061l-.024-.063-.03-.06-.03-.06-.03-.061-.03-.06c-.012-.02-.024-.039-.037-.057s-.021-.04-.033-.06l-.036-.057-.036-.055a.572.572,0,0,1-.039-.057l-.042-.054-.039-.051-.043-.054-.045-.052q-.021-.024-.042-.051l-.048-.048q-.021-.024-.045-.048l-.049-.049c-.016-.015-.032-.031-.048-.045l-.051-.045a.547.547,0,0,0-.051-.045l-.051-.042-.055-.042c-.018-.014-.036-.028-.054-.04s-.036-.027-.054-.039-.036-.027-.054-.039L46.4,32.2l-.058-.036-.057-.033q-.03-.018-.06-.033c-.02-.012-.04-.024-.06-.034l-.061-.03-.06-.027q-.03-.015-.06-.027l-.063-.027-.064-.024-.063-.024-.063-.021a.581.581,0,0,1-.063-.021l-.067-.018-.066-.018-.063-.015-.066-.016-.067-.012-.066-.012a.374.374,0,0,1-.066-.009q-.033,0-.066-.009l-.07-.006-.066-.006q-.033,0-.066,0l-.069,0Z"/>
      </g>
      <g>
        <path fill="#010101" d="M28.731,54.365l-.813-.047-.544-.05-.493-.066-.835-.146a.718.718,0,0,0-.115-.028l-.509-.126-.467-.148c-.025-.011-.321-.127-.328-.129l-.132-.058-.255-.132c-.033-.022-.144-.091-.152-.1L24,53.271l-.095-.087a.289.289,0,0,0-.049-.064c.023-.031.045-.062.05-.071s.09-.073.107-.091l.207-.135s.181-.1.19-.1.129-.065.151-.076l.516-.2a.737.737,0,0,0,.114-.039l.053-.011.129-.042.594-.147.447-.092c.019,0,.374-.062.374-.062s.707-.089.768-.1l.774-.06.8-.028.286,0,.824.018,1.079.079c.013,0,.841.113.841.113l.567.1c.013,0,.37.085.376.086s.342.087.342.087c.056.02.35.111.35.111l.362.138.258.116.19.1.256.176c0,.005.082.086.093.1a.2.2,0,0,0,.019.035l-.013.022-.122.115-.106.077-.146.1c-.018.008-.28.142-.284.143l-.224.095-.284.1L33.4,53.9l-.679.165-.681.122-.565.074-.99.086-.819.028-.256,0Z"/>
        <path fill="#010101" d="M29.417,51.111v1.506l.073,0h.2l.082,0h.133l.15.007h.063l.078,0,.074,0,.1.006.077,0c.052.005.1.007.112.007.054,0,.107.008.159.011l.046,0,.107.009.1.009.076.007.064,0,.095.009.129.014.033,0,.071.009.062.007.071.008.06.009.067.009.129.018.1.014.113.018.122.021.088.017c.025.005.091.016.117.019l.15.03.076.016.051.011c.029.008.081.019.11.025s.09.022.114.027.094.024.119.029l.085.023.108.027.06.017c.05.017.1.032.129.04h0l-.1.029c-.029.008-.088.025-.115.035s-.067.016-.092.023l-.122.032-.114.027-.118.027c-.044.009-.089.02-.135.031l-.074.015-.057.011-.118.022-.076.013-.086.017-.119.02-.134.021-.094.013-.12.017-.063.009-.069.009-.065.008-.073.008-.091.012-.1.01-.059.006-.074.008-.069.006-.066.006-.067.006-.072.006-.108.01-.135.008-.138.009-.12.005-.141.006-.136.006-.109,0c-.047,0-.093,0-.139,0l-.141,0h-.177l-.082,0-.078,0h-.179c-.043,0-.088,0-.139,0s-.088,0-.138,0l-.119,0-.133-.006-.05,0-.128-.005-.08,0-.136-.009-.135-.008-.108-.01-.069-.006-.076-.006-.119-.011-.084-.009-.064-.007-.063-.005-.035,0-.1-.013-.073-.008-.075-.009-.117-.016-.165-.023-.06-.008-.122-.02-.123-.021-.1-.018-.052-.009-.056-.01-.053-.01-.063-.013-.065-.013-.019,0c-.051-.013-.108-.026-.179-.041-.03-.008-.065-.016-.095-.022s-.138-.036-.169-.042l-.061-.017c-.026-.007-.083-.022-.108-.027s-.07-.024-.106-.034l-.076-.022c.049-.014.1-.029.1-.033l.115-.031.077-.02L25.869,53c.032-.007.069-.015.1-.024s.093-.021.123-.029l.055-.012.1-.022.071-.014.107-.022.1-.019c.041-.006.081-.013.122-.021l.129-.021.115-.019.095-.013.178-.025.084-.011.062-.007.067-.008.072-.009.035,0,.125-.014.1-.009.074-.006.064-.006.144-.013.065-.005.045,0c.045,0,.09-.005.134-.009l.135-.008.113-.005.076-.005h.057l.154-.006.055,0,.086,0,.076,0h.063l.078,0h.208l.083,0,0-1.506m0,0H29.4l-.133,0h-.145l-.141,0c-.049,0-.1,0-.142,0l-.142.006-.144.006c-.046,0-.092,0-.139.006l-.141.006-.142.009-.138.009-.139.012-.138.012-.139.012-.136.012-.135.015-.133.018c-.046,0-.091.009-.135.016s-.087.012-.13.018l-.132.018-.13.018-.126.021c-.042.008-.084.015-.127.021s-.084.015-.126.021l-.124.024-.12.024-.121.024-.117.027-.115.027c-.04.009-.078.018-.114.028s-.076.017-.114.027l-.109.03q-.054.012-.108.027l-.106.03-.105.033-.1.03q-.048.018-.1.033c-.032.012-.064.024-.1.034l-.094.036q-.048.015-.093.033l-.09.036-.088.036-.084.036-.081.036c-.027.015-.053.027-.079.04s-.051.025-.075.039-.051.025-.075.039-.049.025-.073.039-.044.025-.066.039-.044.027-.066.039l-.063.042-.058.043a.572.572,0,0,0-.057.039l-.054.042a.547.547,0,0,0-.051.045l-.045.042c-.016.014-.032.028-.046.043s-.028.029-.042.045-.027.028-.039.042a.372.372,0,0,0-.033.045q-.018.021-.033.042l-.03.045c-.008.016-.016.032-.024.046l-.025.045q-.009.021-.018.045a.3.3,0,0,0-.015.045.375.375,0,0,0-.024.09l-.006.046a.319.319,0,0,0,0,.045v.045a.319.319,0,0,0,0,.045l.006.045a.312.312,0,0,0,.009.046,1059645274701.951,1059645274701.951,0,0,0,.03.09q.009.024.018.045l.025.045q.012.021.024.045c.01.014.02.029.03.046s.021.028.033.042a.372.372,0,0,0,.033.045q.018.021.039.042l.042.045c.014.014.03.028.046.042s.029.029.045.043l.051.045.054.042.057.039.058.042.063.042c.022.013.044.025.066.04s.044.027.066.039.049.027.073.039.049.027.075.039.049.027.075.039l.079.039.081.037.087.036.085.036.09.036q.045.018.093.033l.094.036q.048.015.1.033l.1.03c.035.013.069.024.1.034l.105.03c.034.012.07.023.106.033s.072.019.108.027l.109.03.114.027q.054.015.114.027l.115.027c.04.008.079.017.117.028l.121.024.123.024.121.021.126.024c.043.006.085.013.127.021s.084.013.126.021l.13.018.132.018.13.018q.066.009.135.015l.133.018.135.013.136.015.139.012.138.012.139.012q.069,0,.138.009l.142.009.141.006.139.006.144.006.142.006h.01l.132,0h.01c.044,0,.088,0,.131,0h.145l.141,0c.048,0,.1,0,.145,0H29.7l.135,0h.01c.043,0,.087,0,.131,0h.011l.141-.006.142-.006.141-.006.142-.006q.069-.006.138-.009l.142-.009.138-.012.139-.012.136-.012.138-.015.136-.013L31.647,55l.133-.015.132-.018.13-.018.129-.018.13-.021.126-.021.124-.024q.063-.009.123-.021c.04-.009.081-.016.121-.024l.12-.024c.04-.011.079-.02.118-.028s.079-.017.117-.027l.115-.027q.057-.012.111-.027l.111-.03c.037-.008.073-.017.109-.027s.071-.021.105-.033l.106-.03c.034-.01.067-.021.1-.034l.1-.03.1-.033.1-.036.091-.033.09-.036.087-.036.085-.036.081-.037.081-.039c.026-.012.051-.025.076-.039s.051-.025.075-.039A1015338471852.528,1015338471852.528,0,0,1,35,54.06l.064-.04.063-.042.06-.042.057-.042c.018-.014.037-.027.055-.039s.032-.031.048-.045l.048-.043.045-.042.042-.045.036-.042a.554.554,0,0,0,.037-.045q.018-.021.033-.042l.027-.046.027-.045a.31.31,0,0,0,.021-.045.31.31,0,0,0,.021-.045.3.3,0,0,0,.015-.045l.012-.045a.312.312,0,0,0,.009-.046.3.3,0,0,0,.009-.045.364.364,0,0,1,0-.045V53.1a.364.364,0,0,1,0-.045.34.34,0,0,0-.009-.046.3.3,0,0,0-.009-.045l-.012-.045a.3.3,0,0,0-.015-.045,851087823364.9,851087823364.9,0,0,1-.042-.09l-.027-.046-.027-.045q-.015-.021-.033-.042a.554.554,0,0,0-.037-.045q-.018-.021-.036-.045l-.042-.042a.614.614,0,0,0-.045-.043l-.048-.042-.048-.045c-.018-.014-.037-.027-.055-.039l-.057-.042-.06-.043-.063-.042L35,52.183a.769.769,0,0,0-.069-.039.769.769,0,0,0-.069-.039q-.036-.021-.075-.039c-.025-.014-.05-.027-.076-.039s-.053-.025-.081-.04l-.081-.036-.085-.036-.087-.036-.09-.036L34.2,51.81l-.1-.036-.1-.034-.1-.033-.1-.03c-.036-.01-.072-.021-.106-.033l-.105-.03c-.036-.01-.072-.019-.109-.027l-.111-.03q-.054-.015-.111-.027L33.15,51.5q-.057-.015-.117-.027c-.039-.009-.078-.019-.118-.027l-.12-.024-.121-.024q-.06-.012-.123-.021l-.124-.024-.126-.021-.13-.021-.129-.018-.13-.018-.132-.018c-.045-.007-.089-.012-.133-.016l-.132-.018c-.047,0-.092-.009-.136-.015l-.138-.012-.136-.012-.139-.012-.138-.012-.142-.009q-.069,0-.138-.009l-.142-.006q-.069-.006-.141-.009c-.047,0-.094,0-.142,0l-.141-.006-.142,0c-.048,0-.1,0-.145,0h-.141c-.045,0-.091,0-.136,0Z"/>
      </g>
      <g>
        <path fill="#010101" d="M29.273,54.525l-.1-.458-.11-.557-.1-.608L28.8,51.755l-.141-1.263-.121-1.384L28.4,47l-.071-1.6-.054-1.985-.015-2.707.015-1.343L28.3,38.04l.093-2.256.114-1.837.146-1.679L28.8,31l.161-1.14.137-.788s.127-.6.128-.61l.161-.628.077-.242.069.216.15.578.1.474.135.744.13.843.162,1.307.131,1.343.185,2.68.093,2.259.041,2.005.006,2.025-.039,2.351-.056,1.631-.1,1.879-.155,2.03-.107,1.063-.182,1.457-.169,1.029-.106.554-.142.6-.081.3-.07.223Z"/>
        <path fill="#010101" d="M29.462,31.826l0,.022c.009.073.017.148.027.258.009.076.017.153.027.264.009.079.017.159.027.267.008.082.016.164.023.242l.024.283.024.287.024.286c.007.086.014.172.021.29.007.087.014.176.021.3.007.09.014.18.021.3.007.093.014.186.019.275l.018.311.018.308.018.312c.006.1.01.194.015.319.006.1.01.194.015.319.006.1.01.2.014.293l0,.122.009.231c.005.09.009.181.011.3l.012.328,0,.122.007.182c0,.119.006.239.009.331,0,.121.006.242.009.334l.006.337.006.338.006.337,0,.2,0,.107c0,.123,0,.245,0,.34,0,.121,0,.243,0,.34v1.335c0,.124,0,.246,0,.341,0,.123,0,.245,0,.339l-.006.341L29.9,43.4l-.006.337,0,.308c0,.121-.008.242-.009.334,0,.122-.008.242-.009.334l0,.123-.008.207-.013.356c0,.091,0,.182-.011.3l-.012.323c0,.1-.008.2-.015.324,0,.1-.008.194-.015.319,0,.1-.008.192-.014.287l-.009.156-.009.157-.009.156-.01.171-.017.291c-.005.092-.012.183-.021.3,0,.09-.012.18-.021.3,0,.09-.012.178-.021.3,0,.089-.012.177-.019.263l-.012.144-.012.145-.024.283-.024.278c-.007.081-.015.163-.027.277-.006.079-.014.156-.026.268-.007.078-.015.155-.027.265-.007.077-.015.154-.023.227l0,.022,0-.017-.016-.137-.011-.095c-.009-.1-.019-.2-.027-.268l-.027-.3c-.008-.081-.016-.163-.023-.244l-.024-.278-.024-.283-.012-.145-.012-.142c-.007-.088-.014-.176-.021-.295l-.022-.268c-.007-.107-.014-.216-.021-.3l-.018-.3-.011-.185-.007-.121-.009-.157-.009-.156-.009-.157-.009-.157c-.006-.094-.01-.189-.015-.314-.006-.1-.01-.194-.015-.318-.006-.1-.01-.2-.014-.3,0-.116-.01-.232-.015-.321l-.012-.328c0-.1-.006-.2-.009-.328l-.012-.33c0-.1-.006-.207-.009-.336,0-.1-.007-.2-.008-.306l-.007-.361c0-.1-.007-.207-.008-.284,0-.121,0-.243,0-.364l-.006-.314c0-.121,0-.243,0-.34,0-.121,0-.243,0-.34V40.736c0-.121,0-.244,0-.34,0-.122,0-.244,0-.341v-.082l.005-.282c0-.1,0-.207,0-.31s0-.207.009-.338l.006-.337c0-.1,0-.2.009-.334,0-.1,0-.2.008-.3l.011-.3,0-.059c0-.1,0-.2.008-.3l.011-.3c.006-.117.012-.235.016-.353,0-.1.008-.2.015-.321,0-.1.008-.194.015-.319,0-.1.008-.194.014-.29l.018-.313.018-.31L29.2,34.9l.016-.273c.009-.111.016-.221.021-.3.009-.11.016-.219.021-.3l.024-.292.024-.287.025-.3.022-.266.027-.274.015-.17.006-.068c.011-.1.021-.2.027-.265l.029-.257,0-.022m0-5.509h-.022l-.045.009a.352.352,0,0,0-.042.015.31.31,0,0,0-.045.021l-.045.034a.269.269,0,0,0-.042.036.3.3,0,0,0-.046.048.635.635,0,0,0-.042.054.469.469,0,0,0-.045.06c-.014.022-.028.046-.042.07L29,26.74c-.014.026-.028.054-.043.084s-.028.059-.042.091-.028.065-.042.1-.028.069-.042.105-.028.075-.042.115-.028.078-.042.12-.027.083-.04.127-.028.089-.042.135-.027.094-.039.142-.027.1-.039.147l-.042.157c-.012.052-.025.106-.039.163l-.036.169c-.015.058-.028.117-.04.177s-.024.118-.036.181-.025.125-.039.19-.024.129-.036.2-.023.134-.033.2-.024.138-.036.208-.024.139-.036.211-.022.145-.034.22-.021.149-.033.226-.021.153-.033.232-.02.157-.03.237-.021.159-.033.241l-.03.247-.03.253c-.008.087-.017.173-.027.259s-.021.174-.031.262-.017.178-.027.268l-.024.272c-.01.092-.019.184-.027.277l-.024.283c-.008.094-.016.189-.024.286s-.016.191-.024.289-.016.194-.024.292-.013.2-.021.3-.013.2-.021.3l-.019.3-.018.31-.018.31-.018.314c-.006.106-.011.212-.015.319s-.011.213-.015.319-.011.214-.015.322-.009.217-.015.326l-.012.328c0,.109-.007.218-.009.328l-.012.332c0,.11-.007.22-.009.331s-.007.224-.009.334l-.006.338c0,.112-.007.225-.009.337s0,.225,0,.337l-.006.338c0,.114,0,.227,0,.34s0,.228,0,.34v1.362c0,.114,0,.228,0,.34s0,.228,0,.34l.006.341c0,.112,0,.225,0,.337s0,.225.009.337l.006.335c0,.112,0,.224.009.334s0,.222.009.334l.012.332c0,.108.005.217.009.328l.012.328c.006.109.011.216.015.323s.009.216.015.325.009.213.015.319.009.212.015.316l.018.314.018.313.018.307.019.3c.008.1.015.2.021.3s.016.2.024.3.013.2.021.3l.024.289c.008.1.016.192.024.286s.016.188.024.28.017.185.027.277.016.183.024.271.019.18.027.268l.031.265c.01.087.019.172.027.256s.02.171.03.254.02.166.03.246.023.164.033.244.02.159.03.235.023.156.033.232.023.152.033.226.023.148.034.22.024.144.036.214l.036.208q.015.1.033.2c.012.067.024.132.036.2s.027.125.039.187l.036.184c.012.06.025.118.04.175s.024.114.036.168.027.11.039.163.028.106.042.156.025.1.039.148.025.1.039.142.028.091.042.135.026.087.04.129l.042.121q.021.057.042.111c.014.037.028.072.042.106l.042.1c.014.032.028.064.042.094L29,56.04l.045.078c.014.024.028.047.042.067a.717.717,0,0,0,.045.063l.042.054a.392.392,0,0,0,.046.045l.042.039a.319.319,0,0,0,.045.03l.045.025.042.015a.186.186,0,0,0,.045.006h.046a.152.152,0,0,0,.042-.006.3.3,0,0,0,.045-.015l.045-.025.042-.03a.419.419,0,0,0,.045-.039l.046-.045.042-.054q.021-.03.045-.06l.042-.07q.021-.036.042-.078t.045-.081c.015-.03.029-.062.043-.094l.042-.1c.014-.034.028-.069.042-.106s.028-.073.042-.111l.042-.121q.018-.063.039-.129l.043-.132c.012-.047.025-.095.039-.145s.027-.1.039-.148.027-.1.039-.156.027-.107.039-.163.027-.11.039-.168.026-.117.04-.175l.036-.184.036-.187c.012-.064.024-.129.036-.2l.036-.2.036-.208c.012-.07.023-.142.033-.214s.025-.145.037-.22.021-.149.033-.226.02-.153.03-.232.023-.154.033-.235.02-.161.03-.244.02-.162.03-.246.02-.167.03-.254.02-.169.03-.256.019-.176.028-.265.019-.177.027-.268.019-.178.027-.271.019-.184.027-.277.016-.186.024-.28.016-.19.024-.286l.024-.289c.008-.1.015-.2.021-.3s.015-.2.021-.3.015-.2.021-.3.015-.2.021-.3l.019-.307.018-.313.018-.314c.006-.1.011-.21.015-.316s.011-.213.015-.319.011-.217.015-.325l.012-.323c.006-.11.01-.22.012-.328l.012-.328.012-.332c0-.11,0-.221.009-.334s0-.222.009-.334l.006-.335.006-.337.006-.337.006-.341c0-.112,0-.225,0-.34s0-.226,0-.34V40.709c0-.114,0-.228,0-.34s0-.226,0-.34l-.006-.338-.006-.337-.006-.337-.006-.338c0-.11-.007-.222-.009-.334s-.007-.221-.009-.331l-.012-.332-.012-.328c0-.111-.006-.22-.012-.328l-.012-.326c0-.108-.009-.215-.015-.322s-.009-.213-.015-.319-.009-.213-.015-.319l-.018-.314-.018-.31-.019-.31c-.006-.1-.013-.2-.021-.3s-.013-.2-.021-.3-.013-.2-.021-.3-.013-.2-.021-.292-.016-.2-.024-.289-.016-.192-.024-.286l-.024-.283c-.008-.093-.017-.185-.027-.277s-.017-.181-.027-.272-.017-.179-.027-.268-.018-.175-.028-.262l-.03-.259-.03-.253-.03-.247c-.01-.082-.02-.162-.03-.241s-.021-.159-.033-.237-.02-.156-.03-.232-.023-.152-.033-.226-.025-.147-.037-.217-.021-.144-.033-.214-.024-.14-.036-.208l-.036-.2q-.018-.1-.036-.2c-.012-.065-.024-.128-.036-.19s-.024-.123-.036-.181-.028-.119-.04-.177-.025-.113-.039-.169-.025-.109-.039-.163-.025-.1-.039-.157-.025-.1-.039-.147-.027-.1-.039-.142-.028-.091-.043-.135-.027-.086-.039-.127-.028-.082-.042-.12-.028-.078-.042-.115-.028-.071-.042-.105-.028-.067-.042-.1-.028-.063-.043-.091a.829.829,0,0,0-.045-.084q-.021-.039-.042-.075c-.014-.024-.028-.048-.042-.07l-.045-.06a.635.635,0,0,0-.042-.054c-.016-.018-.031-.034-.046-.048a.216.216,0,0,0-.045-.036.418.418,0,0,0-.042-.034l-.045-.021a.3.3,0,0,0-.045-.015.315.315,0,0,0-.042-.009Z"/>
      </g>
      <g>
        <polygon fill="#010101" points="28.146 36.298 26.625 32.121 28.146 27.943 30.676 27.943 32.197 32.121 30.676 36.298 28.146 36.298"/>
        <path fill="#010101" d="M30.148,28.7,31.4,32.121l-1.247,3.424H28.673l-1.247-3.424L28.673,28.7h1.475M31.2,27.19H27.619l-1.795,4.931,1.795,4.93H31.2L33,32.121,31.2,27.19Z"/>
      </g>
      <g>
        <rect fill="#010101" x="15.825" width="28.453" height="4.458" y="32.491"/>
        <path fill="#010101" d="M43.526,33.244V36.2H16.578V33.244H43.526m1.506-1.506H15.072V37.7h29.96V31.738Z"/>
      </g>
    </g>
    <g>
      <path d="M8.526,3.846H13.2V5.061H10v2.23h2.973V8.5H10V11.93H8.526Z"/>
      <path d="M16.112,3.846V11.93H14.634V3.846Z"/>
      <path d="M24.287,11.561a8.224,8.224,0,0,1-2.6.45,4.342,4.342,0,0,1-3.167-1.077,4.034,4.034,0,0,1-1.135-2.969c.007-2.565,1.831-4.2,4.506-4.2a5.406,5.406,0,0,1,2.145.38l-.328,1.188a4.307,4.307,0,0,0-1.838-.345,2.706,2.706,0,0,0-2.936,2.9,2.669,2.669,0,0,0,2.806,2.923,2.928,2.928,0,0,0,1.117-.161V8.633H21.431V7.473h2.856Z"/>
      <path d="M27.271,3.846V7.08h3.417V3.846h1.477V11.93H30.688V8.362H27.271V11.93H25.794V3.846Z"/>
      <path d="M35.41,5.087H33.1V3.846h6.115V5.087h-2.33V11.93H35.41Z"/>
      <path d="M44.682,8.344H41.635v2.371h3.406V11.93H40.157V3.846h4.706V5.061H41.635V7.139h3.047Z"/>
      <path d="M46.337,3.957a13.287,13.287,0,0,1,2.24-.174,3.752,3.752,0,0,1,2.492.652,2.033,2.033,0,0,1,.7,1.624A2.137,2.137,0,0,1,50.3,8.078v.034a2.038,2.038,0,0,1,1.128,1.565,17.7,17.7,0,0,0,.638,2.253H50.546A10.393,10.393,0,0,1,50,10.022c-.232-1.053-.615-1.395-1.454-1.415H47.8V11.93H46.337ZM47.8,7.524h.874c1,0,1.618-.527,1.618-1.331,0-.88-.62-1.293-1.574-1.3a4.068,4.068,0,0,0-.918.076Z"/>
    </g>
    <g>
      <path d="M11.221,14.989a12.355,12.355,0,0,1,2.155-.174,3.917,3.917,0,0,1,2.313.514,1.724,1.724,0,0,1,.834,1.521,1.862,1.862,0,0,1-1.345,1.742v.031a2.042,2.042,0,0,1,1.636,2,2.132,2.132,0,0,1-.773,1.669,4.547,4.547,0,0,1-3,.746,14.212,14.212,0,0,1-1.816-.105Zm1.465,3.193h.756c1.025,0,1.594-.483,1.594-1.166,0-.759-.576-1.109-1.5-1.109a3.99,3.99,0,0,0-.845.066Zm0,3.707a4.57,4.57,0,0,0,.781.042c.945,0,1.8-.355,1.8-1.353,0-.939-.827-1.324-1.842-1.326h-.734Z"/>
      <path d="M19.658,15.489a.784.784,0,0,1-.842.8.8.8,0,1,1,.842-.8Zm-1.564,7.473V17.123h1.477v5.839Z"/>
      <path d="M21.165,19.059c0-.757-.021-1.387-.048-1.936h1.3l.073.9h.024a2.262,2.262,0,0,1,2-1.03c1.338,0,2.449,1.147,2.449,2.969,0,2.118-1.325,3.134-2.655,3.134a1.9,1.9,0,0,1-1.641-.78h-.024v3.023H21.165Zm1.476,1.459a1.785,1.785,0,0,0,.041.4,1.337,1.337,0,0,0,1.3,1.033c.936,0,1.486-.778,1.486-1.925,0-1.034-.5-1.874-1.452-1.874a1.383,1.383,0,0,0-1.318,1.094,1.5,1.5,0,0,0-.053.372Z"/>
      <path d="M28.186,14.446h1.477v8.516H28.186Z"/>
      <path d="M34.554,22.962l-.1-.65h-.035a2.138,2.138,0,0,1-1.721.782,1.73,1.73,0,0,1-1.841-1.737c0-1.473,1.313-2.219,3.463-2.211v-.1c0-.384-.152-1.022-1.185-1.018a3.116,3.116,0,0,0-1.57.436l-.293-.958a4.218,4.218,0,0,1,2.117-.519A2.179,2.179,0,0,1,35.8,19.453v2.1a8.671,8.671,0,0,0,.091,1.406Zm-.2-2.859c-1.042-.014-2.038.206-2.038,1.094a.779.779,0,0,0,.842.841,1.2,1.2,0,0,0,1.155-.808,1.068,1.068,0,0,0,.041-.321Z"/>
      <path d="M37.365,18.859c0-.674-.021-1.23-.048-1.736h1.29l.074.877h.034a2.124,2.124,0,0,1,1.86-1.009c1.018,0,2.075.655,2.075,2.5v3.468H41.173V19.668c0-.838-.308-1.477-1.113-1.477a1.228,1.228,0,0,0-1.15.867,1.459,1.459,0,0,0-.067.468v3.436H37.365Z"/>
      <path d="M45.269,20.451a1.593,1.593,0,0,0,1.8,1.521,4.449,4.449,0,0,0,1.612-.271l.218,1.017a5.286,5.286,0,0,1-2.041.37,2.766,2.766,0,0,1-3.006-2.96,2.889,2.889,0,0,1,2.856-3.137c1.9,0,2.516,1.561,2.516,2.84a3.114,3.114,0,0,1-.052.62Zm2.568-1.029A1.258,1.258,0,0,0,46.619,18a1.443,1.443,0,0,0-1.352,1.423Z"/>
    </g>
  </g>
</svg>