<svg width="60" height="60" xmlns="http://www.w3.org/2000/svg" viewBox="0 0 60 60">
  <rect fill="#cccccb" height="60" width="60"/>
  <g>
    <path d="M27.619,27.422V27.5l0,.038,0,.039,0,.038,0,.038-.005.038-.006.037-.007.038-.008.037-.008.038-.01.037-.01.037-.011.036-.012.037-.013.036-.013.035-.015.036-.015.035-.016.035-.016.034-.018.034-.018.034-.019.033-.02.033-.02.032-.022.032-.021.031-.023.031-.023.03-.024.03-.025.029-.025.029-.026.028-.027.027-.027.027-.028.027-.028.025-.029.025-.03.025-.03.023-.03.023-.031.022-.032.022-.032.021-.032.02-.033.019-.034.019-.034.018-.034.017-.034.016L26.6,29l-.036.014-.035.014-.036.013-.036.013-.037.011-.037.011-.037.01-.037.009-.037.008-.038.007-.037.007-.038.005-.038,0-.038,0-.038,0-.038,0h-.153l-.038,0-.039,0-.038,0-.038,0-.037-.005-.038-.007-.038-.007-.037-.008-.037-.009-.037-.01-.037-.011-.036-.011-.036-.013-.036-.013-.036-.014L25.258,29l-.035-.016-.035-.016-.034-.017-.034-.018-.033-.019-.033-.019-.033-.02-.032-.021-.031-.022-.031-.022-.031-.023-.03-.023-.029-.025-.029-.025-.029-.025-.028-.027-.027-.027L24.7,28.6l-.026-.028-.026-.029-.024-.029-.024-.03-.024-.03-.022-.031L24.53,28.4l-.021-.032-.021-.032-.019-.033-.019-.033-.019-.034-.017-.034-.017-.034-.016-.035-.015-.035-.014-.036-.014-.035-.013-.036-.011-.037-.011-.036-.011-.037-.009-.037-.009-.038-.007-.037-.007-.038-.006-.037-.006-.038,0-.038,0-.038,0-.038,0-.039V27.46a.241.241,0,0,1,0-.038v-.038l0-.039,0-.038,0-.038,0-.038.006-.038.006-.037.007-.038.007-.038.009-.037.009-.037.011-.037.011-.036.011-.037.013-.036.014-.035.014-.036.015-.035.016-.035.017-.034.017-.034.019-.034.019-.033.019-.033.021-.032.021-.032.022-.031.022-.031.024-.03.024-.03.024-.029.026-.029.026-.028.026-.028.027-.026.028-.027.029-.025.029-.025.029-.025.03-.023.031-.023.031-.022.031-.022.032-.021.033-.02.033-.019.033-.019.034-.018.034-.017.035-.016.035-.016.035-.014.036-.014.036-.014.036-.012.036-.011.037-.011.037-.01.037-.009.037-.008.038-.007.038-.007.038,0,.037,0,.038,0,.039,0,.038,0H26l.038,0,.038,0,.038,0,.038,0,.038,0,.037.007.038.007.037.008.038.009.036.01.037.011.037.011.036.012.036.014.035.014.036.014.035.016.034.016.034.017.034.018.034.019.033.019.032.02.032.021.032.022.031.022.03.023.03.023.03.025.029.025.028.025.028.027.027.026.027.028.026.028.025.029.025.029.024.03.023.03.023.031.022.031.021.032.02.032.02.033.019.033.018.034.018.034.016.034.016.035.015.035.015.036.013.035.013.036.012.037.011.036.01.037.01.037.008.038.008.037.007.038.006.037.005.038,0,.038,0,.038,0,.038,0,.039Z" fill-rule="evenodd"/>
    <path d="M22.4,25.7a.241.241,0,0,1,0,.038v.038l0,.038,0,.039,0,.038,0,.038-.006.037L22.378,26l-.007.038-.007.037-.009.038-.009.037-.01.036-.012.037-.011.036L22.3,26.3l-.014.036-.014.036-.015.035-.016.035-.017.034-.017.034-.018.034-.019.033-.02.032-.021.033-.021.032-.022.031-.022.031-.024.03-.024.03-.024.029-.026.029-.026.028-.026.027-.027.027-.028.026-.029.026-.028.025-.03.024-.03.024-.031.023-.031.022-.031.022-.032.021-.033.02-.033.019-.033.019-.034.018-.034.017-.035.016-.035.016-.035.014-.036.014-.036.013-.036.013-.036.011-.037.011-.037.01-.037.009-.037.008-.038.007-.038.006-.037.006-.038,0-.038,0-.039,0-.038,0h-.153l-.038,0-.038,0-.038,0-.038,0-.038-.006-.037-.006-.038-.007-.037-.008-.037-.009-.037-.01-.037-.011-.037-.011-.036-.013-.036-.013-.035-.014-.036-.014-.035-.016-.034-.016-.034-.017L19.9,27.2l-.034-.019-.033-.019-.032-.02-.032-.021-.032-.022-.031-.022-.03-.023-.03-.024-.03-.024-.029-.025-.028-.026-.028-.026-.027-.027-.027-.027-.026-.028-.025-.029-.025-.029-.024-.03-.023-.03-.023-.031-.021-.031-.022-.032-.02-.032-.02-.033-.019-.033-.018-.034-.018-.034-.016-.034-.016-.035-.015-.035-.015-.036-.013-.036-.013-.036-.012-.036-.011-.037-.01-.036-.01-.037-.008-.038-.008-.037L19.043,26l-.006-.037,0-.038,0-.038,0-.038,0-.039,0-.038v-.114l0-.039,0-.038,0-.038,0-.038,0-.038.006-.038.007-.037.008-.038.008-.037.01-.037.01-.037.011-.036.012-.037.013-.036.013-.036.015-.035.015-.035.016-.035.016-.034.018-.034.018-.034.019-.033.02-.033.02-.032.022-.032.021-.031.023-.031.023-.03.024-.03.025-.029.025-.029.026-.028.027-.028.027-.027.028-.026.028-.025.029-.025.03-.025.03-.023.03-.023.031-.023.032-.021.032-.021.032-.02.033-.019.034-.019.034-.018.034-.017.034-.016.035-.016.036-.015.035-.014.036-.013.036-.012.037-.011.037-.011.037-.01.037-.009.037-.008.038-.007.037-.007.038-.005.038,0,.038,0,.038,0,.038,0h.153l.038,0,.039,0,.038,0,.038,0,.037.005.038.007.038.007.037.008.037.009.037.01.037.011.036.011.036.012.036.014.036.013.035.015.035.016.035.016.034.017.034.018.033.019.033.019.033.02.032.021.031.021.031.023.031.023.03.023.03.025.028.025.029.025.028.026.027.027.026.028.026.028.026.029.024.029.024.03.024.03.022.031.022.031.021.032.021.032.02.033.019.033.018.034.017.034.017.034.016.035.015.035.014.036.014.035.013.036.011.037.012.036.01.037.009.037.009.037.007.038.007.037.006.038.006.038,0,.038,0,.038,0,.038,0,.039Z" fill-rule="evenodd"/>
    <path d="M44.35,27.353v.077l0,.038,0,.038,0,.038,0,.038-.005.038-.006.038-.007.038-.008.037-.009.037-.009.037-.01.037-.011.037-.012.036-.013.036-.014.036-.014.035-.015.035-.016.035-.017.035-.017.034-.018.033-.019.033-.02.033-.021.032-.021.032-.022.032-.022.03-.024.031-.024.03-.024.029-.025.028-.026.029-.027.027-.027.027-.028.026-.028.026-.029.025-.03.024-.03.024-.03.023-.032.022-.031.021-.032.021-.033.02-.033.02-.033.018-.034.018-.034.017-.035.017-.035.015-.035.015-.035.014-.036.013-.037.012-.036.012-.037.01-.037.01-.037.009L43,29.029l-.038.008-.037.006-.038.006-.038,0-.038,0-.038,0-.039,0h-.152l-.039,0-.038,0-.038,0-.038,0-.038-.006-.037-.006-.038-.008-.037-.008-.037-.009L42.205,29l-.037-.01-.036-.012-.037-.012-.036-.013-.035-.014-.035-.015-.035-.015-.035-.017-.034-.017-.034-.018-.033-.018-.033-.02-.033-.02-.032-.021-.031-.021-.032-.022-.03-.023-.03-.024-.03-.024-.029-.025-.028-.026-.028-.026-.027-.027-.027-.027-.026-.029-.025-.028-.024-.029-.024-.03-.024-.031-.022-.03-.022-.032-.021-.032-.021-.032-.02-.033L41.18,28.2l-.018-.033-.017-.034-.017-.035-.016-.035-.015-.035-.014-.035-.014-.036-.013-.036-.012-.036-.011-.037-.01-.037-.009-.037-.009-.037L41,27.7l-.007-.038-.006-.038-.005-.038,0-.038,0-.038,0-.038,0-.038v-.115l0-.038,0-.038,0-.038,0-.038.005-.038.006-.038L41,27.049l.008-.037.009-.037.009-.037.01-.037.011-.037.012-.036.013-.036.014-.036.014-.035.015-.035.016-.035.017-.035.017-.034.018-.033.019-.033.02-.033.021-.032.021-.032.022-.032.022-.03.024-.031.024-.03.024-.029.025-.028.026-.028.027-.028.027-.027.028-.026.028-.026.029-.025.03-.024.03-.024.03-.023.032-.022.031-.021.032-.021.033-.02.033-.02.033-.018.034-.018.034-.017.035-.017.035-.015.035-.015.035-.014.036-.013.037-.012.036-.012.037-.01.037-.01.037-.009.037-.008.038-.008.037-.006.038-.006.038,0,.038,0,.038,0,.039,0h.152l.039,0,.038,0,.038,0,.038,0,.038.006.037.006.038.008.037.008.037.009.037.01.037.01.036.012.037.012.036.013.035.014.035.015.035.015.035.017.034.017.034.018.033.018.033.02.033.02.032.021.032.021.031.022.03.023.03.024.03.024.029.025.028.026.028.026.027.027.027.028.026.028.025.028.024.03.024.029.024.031.022.03.022.032.022.032.02.032.02.033.019.033.018.033.017.034.017.035.016.035.015.035.015.035.013.036.013.036.012.036.011.037.01.037.009.037.009.037.008.038.007.037.006.038.005.038,0,.038,0,.038,0,.038,0,.038Z" fill-rule="evenodd"/>
    <path d="M48.405,25.366v.076l0,.038,0,.038,0,.038,0,.038-.005.038-.006.038-.007.038-.008.037-.009.037-.009.037-.01.037-.011.037-.012.036-.013.036L48.289,26l-.015.036-.015.035-.016.034-.016.035-.018.034-.018.033-.019.034-.02.032-.02.033-.022.031-.022.032-.022.031-.023.03-.024.03-.025.029-.025.029-.026.028-.027.027-.027.027-.028.026-.028.026-.029.025-.03.024-.03.024-.03.023-.031.022-.032.022-.032.021-.033.02-.033.019-.033.019-.034.017-.034.018-.035.016-.034.015-.036.015-.035.014-.036.013-.036.012L47.2,27l-.037.011-.037.009-.037.009-.037.009-.038.007-.037.006-.038.006-.038,0-.038,0-.038,0-.038,0h-.153l-.039,0-.038,0-.038,0-.038,0-.037-.006-.038-.006-.038-.007-.037-.009-.037-.009-.037-.009L46.223,27l-.036-.012-.037-.012-.035-.013-.036-.014-.035-.015-.035-.015-.035-.016-.034-.018-.034-.017-.033-.019-.033-.019-.033-.02-.032-.021-.031-.022-.031-.022-.031-.023-.03-.024-.03-.024-.029-.025-.028-.026-.028-.026-.027-.027-.026-.027-.026-.028-.026-.029-.024-.029-.024-.03-.024-.03-.022-.031-.022-.032-.021-.031-.021-.033-.02-.032-.019-.034-.018-.033-.017-.034-.017-.035-.016-.034-.015-.035L45.138,26l-.014-.036-.013-.036-.012-.036-.011-.037-.01-.037-.009-.037-.009-.037-.008-.037-.006-.038-.006-.038-.006-.038,0-.038,0-.038,0-.038,0-.038v-.115l0-.038,0-.038,0-.038,0-.038.006-.038.006-.038.006-.037.008-.038.009-.037.009-.037.01-.037.011-.037.012-.036.013-.036.014-.036.014-.035.015-.035.016-.035.017-.034.017-.034.018-.034.019-.033.02-.033.021-.032.021-.032.022-.031.022-.031.024-.031.024-.029.024-.03.026-.028.026-.028.026-.028.027-.027.028-.026.028-.026.029-.025.03-.024.03-.023.031-.023L45.744,24l.031-.021.032-.021.033-.02.033-.02.033-.018.034-.018.034-.017.035-.016.035-.016.035-.015.036-.014.035-.013.037-.012.036-.012.037-.01.037-.01.037-.009.037-.008.038-.007.038-.007.037-.006.038,0,.038,0,.038,0,.039,0,.038,0h.076l.039,0,.038,0,.038,0,.038,0,.038,0,.038.006.037.007.038.007.037.008.037.009.037.01.037.01.037.012.036.012.036.013.035.014.036.015.034.016.035.016.034.017.034.018.033.018.033.02.033.02.032.021.032.021.031.023.03.023.03.023.03.024.029.025.028.026.028.026.027.027.027.028.026.028.025.028.025.03.024.029.023.031.022.031.022.031.022.032.02.032.02.033.019.033.018.034.018.034.016.034.016.035.015.035.015.035.013.036.013.036.012.037.011.036.01.037.009.037.009.037.008.038.007.037.006.038.005.038,0,.038,0,.038,0,.038,0,.038Z" fill-rule="evenodd"/>
    <path d="M37.745,27.7a.182.182,0,0,1,0,.033v.033l0,.033,0,.033,0,.033,0,.033,0,.032,0,.033-.006.033-.007.032-.008.032-.008.032-.009.032-.009.032-.01.031-.011.032-.012.03-.012.031-.014.03-.013.031-.015.029-.015.03-.016.029-.016.029-.017.028-.018.028-.018.027-.019.027-.02.027-.02.026-.021.026-.021.025-.022.025-.022.024-.023.024-.024.023-.024.023-.024.022-.025.022-.026.021-.026.02-.026.02-.027.02-.028.018-.027.018-.028.018-.029.016L36.98,29l-.029.016-.03.015-.03.014-.03.013-.03.013-.031.012-.031.011-.032.011-.031.01-.032.009-.032.009-.032.007-.032.007-.033.007-.032,0-.033.005-.033,0-.033,0-.033,0-.033,0h-.132l-.033,0-.033,0-.033,0-.033,0-.032-.005-.033,0-.033-.006-.032-.008-.032-.007-.032-.009-.032-.009-.031-.01-.032-.011-.031-.011-.03-.012-.031-.013-.03-.013-.03-.014-.03-.015L35.584,29l-.029-.016-.028-.016-.028-.018-.028-.018-.028-.018-.026-.02-.027-.02-.026-.02-.025-.021-.025-.022-.025-.022-.024-.023-.023-.023-.023-.024-.023-.024-.022-.025-.021-.025-.021-.026-.02-.026-.02-.027-.019-.027-.018-.027-.018-.028-.017-.028L35,28.424l-.016-.029-.015-.03-.014-.029-.014-.031-.013-.03-.013-.031-.011-.03-.011-.032-.011-.031-.009-.032-.009-.032-.008-.032-.008-.032-.006-.032-.006-.033-.006-.033,0-.032,0-.033,0-.033,0-.033v-.165l0-.033,0-.033,0-.033,0-.033.006-.033.006-.032.006-.033.008-.032.008-.032.009-.032.009-.031.011-.032.011-.031.011-.031.013-.031.013-.03.014-.03.014-.03.015-.029L35,27l.016-.029.017-.028.018-.028.018-.028.019-.027.02-.027.02-.026.021-.025.021-.026.022-.025.023-.024.023-.024.023-.023.024-.023.025-.022.025-.021.025-.021.026-.021.027-.02.026-.019.028-.019.028-.018.028-.017.028-.017.029-.016.029-.015.03-.015.03-.014.03-.014.031-.012.03-.012.031-.012.032-.01.031-.01.032-.01.032-.008.032-.008.032-.007.033-.006.033-.006.032,0,.033,0,.033,0,.033,0,.033,0h.132l.033,0,.033,0,.033,0,.033,0,.033,0,.032.006.033.006.032.007.032.008.032.008.032.01.031.01.032.01.031.012.031.012.03.012.03.014.03.014.03.015.029.015.029.016.029.017.028.017.027.018.028.019.027.019.026.02.026.021.026.021.025.021.024.022.024.023.024.023.023.024.022.024.022.025.021.026.021.025.02.027.02.026.019.027.018.028.018.028.017.028L37.56,27l.016.029.015.029.015.03.013.03.014.03.012.031.012.031.011.031.01.032.009.031.009.032.008.032.008.033.007.032.006.032,0,.033,0,.033,0,.033,0,.033,0,.033,0,.033Z" fill-rule="evenodd"/>
    <path d="M40.73,27.7v.066l0,.033,0,.033,0,.033,0,.033,0,.033,0,.032L40.7,28l-.007.032-.007.032-.008.032-.009.032-.01.032-.01.031-.011.032-.012.031-.012.03-.013.031-.014.03-.015.029-.015.03-.016.029-.016.029-.017.028-.018.028-.018.027-.019.027-.02.027-.02.026-.02.026-.022.025-.022.025-.022.024-.023.024-.024.023-.024.023-.024.022-.025.022-.026.021-.026.02-.026.02-.027.02-.027.018-.028.018-.028.018-.029.016-.029.017-.029.015-.03.015-.029.014-.031.013-.03.013-.031.012-.031.011-.031.011-.032.01-.032.009-.032.009-.032.008-.032.007-.033.006-.032,0-.033.005-.033,0-.033,0-.033,0-.033,0H39.2l-.033,0-.033,0-.033,0-.033,0-.032-.005-.033,0-.032-.006-.033-.007-.032-.008-.032-.009-.032-.009-.031-.01L38.78,29.1l-.031-.011-.031-.012-.031-.013-.03-.013-.03-.014-.03-.015-.029-.015-.029-.017-.028-.016-.028-.018-.028-.018-.027-.018L38.4,28.9l-.027-.02-.026-.02-.025-.021-.025-.022-.025-.022-.024-.022-.023-.024-.023-.024L38.18,28.7l-.022-.025-.021-.025-.021-.026L38.1,28.6l-.019-.027-.019-.027-.019-.027-.017-.028L38,28.462l-.016-.029-.016-.029-.015-.03-.014-.029-.014-.03-.013-.031-.013-.03-.011-.031-.011-.032-.011-.031-.009-.032-.009-.032-.008-.032-.008-.032L37.83,28l-.006-.033,0-.032-.005-.033,0-.033,0-.033,0-.033v-.165l0-.033,0-.033,0-.033.005-.033,0-.033.006-.032.006-.032.008-.033.008-.032.009-.032.009-.031.011-.032.011-.031.011-.031.013-.03.013-.031.014-.03.014-.03.015-.029.016-.029L38,26.979l.018-.028.017-.028.019-.028.019-.027.019-.026.02-.027.021-.025.021-.026.022-.025.023-.024.023-.024.023-.023.024-.023.025-.022.025-.021.025-.021.026-.021.027-.02.027-.019.027-.019.028-.018.028-.017.028-.017.029-.016.029-.015.03-.015.03-.014.03-.014.031-.012.031-.012.031-.012.031-.01.031-.01.032-.01.032-.008.032-.008.033-.007L39,26.281l.033-.006.032,0,.033,0,.033,0,.033,0,.033,0h.132l.033,0,.033,0,.033,0,.033,0,.033,0,.032.006.033.006.032.007.032.008.032.008.032.01.032.01.031.01.031.012.031.012.03.012.031.014.029.014.03.015.029.015.029.016.029.017.028.017.028.018.027.019.027.019.026.02.026.021.026.021.025.021.024.022.024.023.024.023.023.024.022.025.022.024.022.026.02.025.02.027.02.026.019.027.018.028.018.028.017.028.017.029.015.029.015.029.015.03.014.03.013.031.012.03.012.031.011.031.01.032.01.031.009.032.008.032.007.033.007.032.006.032,0,.033,0,.033,0,.033,0,.033,0,.033,0,.033Z" fill-rule="evenodd"/>
    <path d="M33.754,27.7a.182.182,0,0,1,0,.033v.033l0,.033,0,.033,0,.033,0,.033,0,.033,0,.032L33.728,28l-.007.032-.008.032-.008.032-.009.032-.009.032-.01.031-.011.032-.012.031-.012.03-.014.031-.013.03-.015.029-.015.03-.016.029-.016.029-.017.028-.018.028-.018.027-.019.027-.02.027-.02.026-.021.026-.021.025-.022.025-.022.024-.023.024-.024.023-.024.023-.024.022-.025.022-.026.021-.026.02-.026.02-.027.02-.028.018-.027.018-.028.018-.029.016-.029.017-.029.015-.03.015-.03.014-.03.013-.03.013-.031.012-.031.011-.032.011-.031.01-.032.009-.032.009-.032.008-.032.007-.033.006-.032,0-.033.005-.033,0-.033,0-.033,0-.033,0h-.132l-.033,0-.033,0-.033,0-.033,0-.032-.005-.033,0L32,29.154l-.032-.007-.032-.008L31.9,29.13l-.032-.009-.031-.01L31.8,29.1l-.031-.011-.03-.012-.031-.013-.03-.013-.03-.014-.03-.015-.029-.015-.029-.017-.028-.016-.028-.018-.028-.018-.028-.018-.026-.02-.027-.02-.026-.02-.025-.021-.025-.022L31.3,28.8l-.024-.022-.023-.024-.023-.024-.023-.024-.022-.025-.021-.025-.021-.026-.02-.026-.02-.027-.019-.027-.018-.027-.018-.028-.017-.028-.016-.029L31,28.4l-.015-.03-.014-.029-.014-.03-.013-.031-.013-.03-.011-.031-.011-.032L30.9,28.16l-.009-.032-.009-.032-.008-.032-.008-.032L30.855,28l-.006-.033-.006-.032,0-.033,0-.033,0-.033,0-.033v-.165l0-.033,0-.033,0-.033,0-.033.006-.033.006-.032.006-.032.008-.033.008-.032.009-.032.009-.031.011-.032.011-.031.011-.031.013-.03.013-.031.014-.03.014-.03L31,27.037l.016-.029.016-.029.017-.028.018-.028.018-.028.019-.027.02-.026.02-.027.021-.025.021-.026.022-.025.023-.024.023-.024.023-.023.024-.023.025-.022.025-.021.025-.021.026-.021.027-.02.026-.019.028-.019.028-.018.028-.017.028-.017.029-.016.029-.015.03-.015.03-.014.03-.014.031-.012.03-.012.031-.012.032-.01.031-.01.032-.01.032-.008.032-.008L32,26.287l.033-.006.033-.006.032,0,.033,0,.033,0,.033,0,.033,0h.132l.033,0,.033,0,.033,0,.033,0,.033,0,.032.006.033.006.032.007.032.008.032.008.032.01.031.01.032.01.031.012.031.012.03.012.03.014.03.014.03.015.029.015.029.016.029.017.028.017.027.018.028.019.027.019.026.02.026.021.026.021.025.021.024.022.024.023.024.023.023.024.022.025.022.024.021.026.021.025.02.027.02.026.019.027.018.028.018.028.017.028.016.029.016.029.015.029.015.03.013.03.014.031.012.03.012.031.011.031.01.032.009.031.009.032.008.032.008.033.007.032.006.032,0,.033,0,.033,0,.033,0,.033,0,.033,0,.033Z" fill-rule="evenodd"/>
    <path d="M30.77,27.731v.1l0,.033,0,.033,0,.033,0,.033-.006.032-.006.033-.006.032-.008.033-.008.032-.009.032-.009.031-.011.032-.011.031-.011.031-.013.03-.013.031-.014.03-.014.03-.015.029-.016.029-.016.029-.017.028-.018.028-.018.028L30.5,28.6l-.02.026-.02.027-.021.025-.021.026-.022.024-.022.025-.023.023-.024.024-.024.022-.025.023-.025.021-.025.021-.026.021-.027.02-.026.019-.028.018-.028.018L30.062,29l-.028.017-.029.016-.029.015-.03.015-.03.014-.03.014-.031.012-.03.012-.031.012-.032.01-.031.01-.032.009-.032.009-.032.008-.032.007-.033.006-.033.006-.032,0-.033,0-.033,0-.033,0h-.033l-.033,0h-.066l-.033,0h-.033l-.033,0-.033,0-.033,0-.033,0-.032-.006-.033-.006-.032-.007-.032-.008-.032-.009-.032-.009-.031-.01-.032-.01-.031-.012-.031-.012-.03-.012-.03-.014-.03-.014-.03-.015-.029-.015-.029-.016L28.552,29l-.029-.018-.027-.018-.028-.018-.027-.019-.026-.02-.026-.021-.026-.021-.025-.021-.024-.023L28.29,28.8l-.024-.024-.023-.023-.022-.025L28.2,28.7l-.021-.026-.021-.025-.02-.027-.02-.026-.019-.027-.018-.028-.018-.028-.017-.028-.016-.029-.016-.029L28,28.4l-.015-.03-.013-.03-.013-.031-.013-.03-.012-.031-.011-.031-.01-.032-.009-.031-.009-.032-.008-.032-.008-.033-.007-.032-.005-.033-.006-.032,0-.033,0-.033,0-.033,0-.033,0-.033v-.1l0-.033,0-.033,0-.033,0-.033,0-.033.006-.032.005-.033.007-.032.008-.032.008-.033.009-.031.009-.032.01-.031.011-.032.012-.031.013-.03.013-.031.013-.03L28,27.094l.015-.03.016-.029.016-.029.017-.028.018-.028.018-.027.019-.028.02-.026.02-.026.021-.026.021-.025.022-.025.022-.025.023-.023.024-.024.024-.022.024-.022.025-.022.026-.021.026-.021.026-.019.027-.02.028-.018.027-.018.028-.018.029-.017.029-.016.029-.015.03-.015.03-.014.03-.013.03-.013.031-.012.031-.012.032-.01.031-.01.032-.009.032-.009.032-.008.032-.007.033-.006.032-.006.033,0,.033,0,.033,0,.033,0,.033,0h.132l.033,0,.033,0,.033,0,.033,0,.033,0,.032.006.033.006.032.007.032.008.032.009.032.009.031.01.032.01.031.012.03.012.031.013.03.013.03.014.03.015.029.015.029.016.028.017.029.018.027.018.028.018.026.02.027.019.026.021.025.021.025.022.025.022.024.022.024.024.023.023.022.025.022.025.021.025.021.026.02.026.02.026.019.028.018.027.018.028.017.028.016.029.016.029.015.03.015.029.013.03.013.031.013.03.011.031.011.032.011.031.009.032.009.031.008.033.008.032.006.032.006.033.006.032,0,.033,0,.033,0,.033,0,.033v.066Z" fill-rule="evenodd"/>
    <path d="M30.309,18.234v.05l0,.025v.025l0,.025,0,.024,0,.025,0,.025,0,.025-.005.024-.006.024-.006.025-.007.024-.007.024-.008.023-.008.024-.009.023-.009.024-.01.023-.011.022-.01.023-.012.022-.012.022-.012.022-.013.021-.014.021-.013.021-.015.021-.015.02-.015.02-.015.019-.017.019-.016.019-.017.018-.017.018-.018.018-.018.017-.019.017-.019.016-.019.016-.02.016-.02.015-.02.014-.021.014-.021.014-.021.013-.022.013-.022.012-.022.012-.022.011-.023.01-.022.011-.024.009-.023.009-.023.009-.024.008-.024.007-.024.007-.024.007-.024.006-.025,0-.024.005-.025,0-.025,0-.025,0-.024,0-.025,0-.025,0h-.1l-.025,0-.025,0-.025,0-.025,0-.025,0-.024,0-.025-.005-.024,0-.025-.006-.024-.007-.024-.007-.024-.007-.023-.008-.024-.009-.023-.009-.023-.009-.023-.011-.023-.01-.022-.011-.022-.012-.022-.012-.022-.013-.021-.013-.021-.014-.021-.014-.02-.014-.02-.015-.019-.016-.02-.016-.019-.016-.018-.017-.018-.017-.018-.018-.018-.018-.017-.018-.016-.019-.016-.019-.016-.019-.015-.02-.015-.02-.014-.021-.014-.021-.014-.021-.012-.021-.013-.022-.012-.022-.011-.022-.011-.023-.011-.022-.01-.023-.009-.024-.009-.023-.008-.024-.008-.023-.007-.024-.007-.024-.006-.025-.006-.024,0-.024,0-.025,0-.025,0-.025,0-.024,0-.025,0-.025v-.125l0-.025,0-.025,0-.025,0-.025,0-.024,0-.025,0-.024.006-.025.006-.024.007-.024.007-.024.008-.024.008-.023.009-.024.009-.023.01-.023.011-.023.011-.022.011-.023.012-.022.013-.021.012-.022.014-.021.014-.021.014-.02.015-.02.015-.02.016-.02.016-.019.016-.018.017-.019.018-.018.018-.017.018-.018.018-.016.019-.017.02-.016.019-.015.02-.015.02-.015.021-.014.021-.013.021-.013.022-.013.022-.012.022-.012.022-.011.023-.011.023-.01.023-.01.023-.009.024-.008.023-.008.024-.008.024-.007.024-.006.025-.006.024,0,.025,0,.024,0,.025,0,.025,0,.025,0,.025,0h.15l.025,0,.024,0,.025,0,.025,0,.025,0,.024,0,.025,0,.024.006.024.006.024.007.024.008.024.008.023.008.023.009.024.01.022.01.023.011.022.011.022.012.022.012.022.013.021.013.021.013.021.014.02.015.02.015.02.015.019.016.019.017.019.016.018.018.018.017.017.018.017.019.016.018.017.019.015.02.015.02.015.02.015.02.013.021.014.021.013.022.012.022.012.021.012.023.01.022.011.023.01.023.009.023.009.024.008.023.008.024.007.024.007.024.006.024.006.025.005.024,0,.025,0,.024,0,.025,0,.025,0,.025v.025l0,.025Z" fill-rule="evenodd"/>
    <path d="M18.5,24.494l-.011-.01-.008-.005-.012-.007,0,0-.01-.006-.015-.008-.012-.006-.009,0-.011-.007-.007,0-.01,0-.017-.006-.005,0-.013-.008-.018-.013-.016-.01-.005,0-.013-.009-.007,0-.009-.007-.015-.009-.007,0-.01-.006-.016-.009-.015-.009-.017-.008-.007,0-.015-.01-.015-.008-.011-.006-.017-.008-.007,0-.012-.006-.018-.008-.012-.006-.016-.008-.01,0-.011-.005-.018-.007-.008,0-.017-.007-.008,0-.017-.005-.013-.008-.012,0-.013,0-.02,0-.014,0h-.031l.018-.024.019-.024.019-.023.019-.023.02-.023.021-.023.021-.023.022-.023.023-.023.023-.022.024-.022.024-.022.025-.022.025-.022.026-.021.027-.022.026-.02.028-.021.027-.021.029-.02.028-.02.029-.019.03-.019.03-.019.03-.019.03-.018.031-.018L18.6,23.6l.031-.017.032-.017.032-.016.033-.016.032-.016.033-.015.033-.015.033-.014.034-.014.033-.014.034-.013.034-.013.034-.012.034-.012.034-.011.034-.011.034-.01.035-.01.034-.009.034-.009.034-.008.034-.008.034-.008.034-.006.034-.007.034-.006.034-.005.033,0,.033,0,.034,0,.032,0,.033,0,.033,0,.032,0h.156l.031,0,.03,0,.029,0,.029,0,.029,0,.028,0,.028,0,.028,0,.027.006.026.006.026.007.026.008.025.007.024.009.024.009.023.009.023.01.022.01.022.011.021.012.02.011.02.013.019.012.018.014.018.013.017.014.016.015.016.015.015.015.015.016.013.016.013.016.012.017.012.017.011.018.01.018.009.018.008.019.008.019.007.019.006.02.006.019,0,.021,0,.02,0,.021,0,.021,0,.021v.087l0,.022,0,.023,0,.022,0,.023-.005.023-.006.023-.007.023-.007.023-.009.024-.009.023-.01.024-.01.023-.011.024-.012.023-.013.024-.014.024-.014.024-.015.023-.015.024-.016.023-.017.024-.018.024-.018.023-.019.023-.02.024-.02.023-.021.023-.021.023-.022.022-.022.023-.024.022-.023.023-.025.022-.024.022-.026.021-.026.022-.026.021-.027.021-.027.02-.028.021-.028.02-.029.02-.029.019-.029.02-.03.018-.03.019-.031.018-.031.018-.031.018-.032.017-.031.017-.033.016-.032.016-.033.016-.032.015-.033.015-.034.014-.033.014-.034.014-.033.013-.034.013-.034.012-.034.012-.034.011-.035.011-.034.01-.034.01-.034.009-.034.009L19.1,25.3l-.034.007-.034.008L19,25.322l-.034.006-.033.006-.042.006,0-.006.008-.027,0-.006,0-.009.008-.022,0-.013h0l.011-.025,0-.014.011-.025,0,0,0,0,.009-.013.017-.031,0-.009.011-.023L19,25.083l0-.008.01-.019.007-.012.014-.018.007-.013.006-.019h0l.007-.021.022-.016.009-.009,0,0,0,0,.016-.013.02-.017.007-.007h0l.015-.013.018-.02.009-.015.007-.016,0-.017v-.012a.142.142,0,0,0,0-.023l0-.016,0-.014-.007-.014-.009-.013-.011-.012-.013-.009-.013-.008-.015-.006-.015,0-.013,0h-.029l-.012,0h0l-.01,0-.015.006-.012.006-.016,0h0l-.007,0h-.045l-.015-.006h0l-.012-.006-.016-.01h0l-.015-.012-.01-.006-.014-.007-.018-.011h0l-.014-.01-.019-.011-.014-.012-.015-.009-.008,0-.007,0-.016-.011-.011-.006-.007,0h0l-.018-.011-.006,0-.016-.009-.017-.008-.011,0-.008,0-.007,0h0l-.017-.008-.007,0-.017,0-.008,0-.006,0-.009,0-.017-.006-.016-.007-.015,0-.007,0h0" fill-rule="evenodd"/>
    <polyline points="17.758 24.441 17.764 24.444 17.765 24.445 17.755 24.44 17.751 24.438 17.752 24.438" fill-rule="evenodd"/>
    <polyline points="17.977 24.548 17.979 24.549 17.975 24.547" fill-rule="evenodd"/>
    <rect x="18.387" width="0.121" height="1.248" y="23.876" transform="translate(-11.838 29.334) rotate(-62.09)"/>
    <polygon points="18.585 23.623 18.262 24.445 17.857 24.251 17.858 24.031 18.585 23.623" fill-rule="evenodd"/>
    <polygon points="19.326 23.153 19.534 22.989 19.54 23.445 19.329 23.448 19.326 23.153" fill-rule="evenodd"/>
    <rect x="19.842" width="26.935" height="3.397" y="23.271"/>
    <rect x="21.182" width="4.004" height="1.936" y="25.098"/>
    <rect x="23.994" width="2.839" height="1.373" y="25.926"/>
    <rect x="26.2" width="2.986" height="2.206" y="25.835"/>
    <rect x="28.979" width="2.798" height="2.067" y="26.341"/>
    <rect x="31.796" width="4.721" height="4.721" y="22.272"/>
    <rect x="36.55" width="2.562" height="2.562" y="25.693" transform="translate(-6.873 14.311) rotate(-19.674)"/>
    <rect x="38.802" width="2.495" height="2.495" y="25.413" transform="translate(-0.051 0.077) rotate(-0.11)"/>
    <rect x="43.018" width="2.467" height="2.467" y="24.426" transform="matrix(0.942, -0.336, 0.336, 0.942, -6.046, 16.345)"/>
    <polygon points="37.563 20.375 40.496 20.375 43.321 22.104 34.981 22.146 37.563 20.375" fill-rule="evenodd"/>
    <rect x="23.513" width="4.78" height="4.532" y="20.335"/>
    <rect x="20.727" width="3.73" height="0.522" y="21.982"/>
    <rect x="21.228" width="2.343" height="2.711" y="21.649"/>
    <rect x="20.998" width="1.088" height="1.088" y="22.283"/>
    <polygon points="22.856 20.854 23.944 20.854 23.944 21.941 21.367 21.853 22.856 20.854" fill-rule="evenodd"/>
    <rect x="26.47" width="1.033" height="1.033" y="19.149"/>
    <rect x="27.401" width="1.534" height="0.749" y="19.523"/>
    <polygon points="20.68 18.012 28.436 18.012 28.448 18.599 20.68 18.488 20.68 18.012" fill-rule="evenodd"/>
    <rect x="27.417" width="0.456" height="0.167" y="19.171"/>
    <rect x="26.239" width="0.708" height="0.45" y="17.734"/>
    <rect x="26.695" width="1.823" height="0.615" y="17.443"/>
    <polygon points="29.413 16.532 36.603 16.532 36.603 20.48 28.113 20.569 29.413 16.532" fill-rule="evenodd"/>
    <rect x="28.263" width="8.155" height="3.334" y="20.01"/>
    <rect x="36.25" width="1.289" height="0.527" y="20.843"/>
    <rect x="36.51" width="1.26" height="3.324" y="16.2"/>
    <rect x="37.647" width="0.309" height="3.138" y="16.378"/>
    <polygon points="37.014 19.429 37.909 19.468 37.822 19.621 37.131 19.621 37.014 19.429" fill-rule="evenodd"/>
    <rect x="37.904" width="0.247" height="0.247" y="19.172"/>
    <rect x="38.352" width="0.318" height="0.198" y="14.73"/>
    <rect x="38.419" width="0.176" height="0.804" y="14.668"/>
    <rect x="38.238" width="0.622" height="1.135" y="15.368"/>
    <rect x="38.084" width="0.836" height="0.207" y="15.467"/>
    <rect x="38.13" width="0.391" height="0.902" y="15.625"/>
    <rect x="37.903" width="0.476" height="0.105" y="16.432"/>
    <polygon points="39.121 16.451 39.403 16.53 38.372 18.06 38.137 17.861 39.121 16.451" fill-rule="evenodd"/>
    <rect x="37.436" width="1.259" height="0.206" y="18.223" transform="translate(2.411 40.989) rotate(-58.149)"/>
    <rect x="37.875" width="1.257" height="0.132" y="16.903" transform="translate(21.396 55.411) rotate(-89.794)"/>
    <rect x="37.633" width="1.405" height="0.134" y="16.737"/>
    <polygon points="39.814 16.502 39.936 16.4 38.143 19.345 38.114 19.174 39.814 16.502" fill-rule="evenodd"/>
    <polygon points="42.983 21.495 42.983 21.506 42.983 21.517 42.982 21.528 42.982 21.539 42.981 21.551 42.979 21.562 42.978 21.573 42.976 21.584 42.974 21.595 42.972 21.605 42.969 21.616 42.967 21.627 42.964 21.638 42.96 21.648 42.957 21.659 42.953 21.67 42.949 21.68 42.945 21.69 42.941 21.7 42.936 21.711 42.931 21.721 42.926 21.73 42.921 21.74 42.915 21.75 42.91 21.759 42.904 21.769 42.898 21.778 42.891 21.787 42.885 21.796 42.878 21.805 42.871 21.814 42.864 21.822 42.856 21.83 42.849 21.839 42.841 21.847 42.833 21.854 42.825 21.862 42.817 21.87 42.808 21.877 42.8 21.884 42.791 21.891 42.782 21.897 42.773 21.904 42.764 21.91 42.755 21.916 42.745 21.922 42.736 21.928 42.726 21.933 42.716 21.938 42.706 21.943 42.696 21.948 42.686 21.953 42.676 21.957 42.665 21.961 42.655 21.965 42.644 21.968 42.634 21.972 42.623 21.975 42.612 21.978 42.601 21.98 42.59 21.983 42.58 21.985 42.569 21.987 42.558 21.988 42.547 21.99 42.535 21.991 42.524 21.992 42.513 21.992 42.502 21.993 42.491 21.993 42.48 21.993 42.469 21.992 42.458 21.992 42.447 21.991 42.436 21.99 42.425 21.988 42.414 21.987 42.403 21.985 42.392 21.983 42.381 21.98 42.37 21.978 42.359 21.975 42.349 21.972 42.338 21.968 42.327 21.965 42.317 21.961 42.307 21.957 42.296 21.953 42.286 21.948 42.276 21.943 42.266 21.938 42.256 21.933 42.247 21.928 42.237 21.922 42.228 21.916 42.218 21.91 42.209 21.904 42.2 21.897 42.191 21.891 42.182 21.884 42.174 21.877 42.165 21.87 42.157 21.862 42.149 21.854 42.141 21.847 42.133 21.839 42.126 21.83 42.118 21.822 42.111 21.814 42.104 21.805 42.098 21.796 42.091 21.787 42.085 21.778 42.078 21.769 42.072 21.759 42.067 21.75 42.061 21.74 42.056 21.73 42.051 21.721 42.046 21.711 42.041 21.7 42.037 21.69 42.033 21.68 42.029 21.67 42.025 21.659 42.022 21.648 42.018 21.638 42.015 21.627 42.013 21.616 42.01 21.605 42.008 21.595 42.006 21.584 42.004 21.573 42.003 21.562 42.001 21.551 42 21.539 42 21.528 41.999 21.517 41.999 21.506 41.999 21.495 41.999 21.484 42 21.473 42 21.462 42.001 21.451 42.003 21.44 42.004 21.429 42.006 21.418 42.008 21.407 42.01 21.396 42.013 21.385 42.015 21.374 42.018 21.363 42.022 21.353 42.025 21.342 42.029 21.332 42.033 21.321 42.037 21.311 42.041 21.301 42.046 21.291 42.051 21.281 42.056 21.271 42.061 21.261 42.067 21.251 42.072 21.242 42.078 21.232 42.085 21.223 42.091 21.214 42.098 21.205 42.104 21.196 42.111 21.188 42.118 21.179 42.126 21.171 42.133 21.163 42.141 21.155 42.149 21.147 42.157 21.139 42.165 21.132 42.174 21.124 42.182 21.117 42.191 21.11 42.2 21.104 42.209 21.097 42.218 21.091 42.228 21.085 42.237 21.079 42.247 21.073 42.256 21.068 42.266 21.063 42.276 21.058 42.286 21.053 42.296 21.049 42.307 21.044 42.317 21.04 42.327 21.036 42.338 21.033 42.349 21.03 42.359 21.026 42.37 21.024 42.381 21.021 42.392 21.019 42.403 21.016 42.414 21.015 42.425 21.013 42.436 21.012 42.447 21.01 42.458 21.01 42.469 21.009 42.48 21.009 42.491 21.008 42.502 21.009 42.513 21.009 42.524 21.01 42.536 21.01 42.547 21.012 42.558 21.013 42.569 21.015 42.58 21.016 42.59 21.019 42.601 21.021 42.612 21.024 42.623 21.026 42.634 21.03 42.644 21.033 42.655 21.036 42.665 21.04 42.676 21.044 42.686 21.049 42.696 21.053 42.706 21.058 42.716 21.063 42.726 21.068 42.736 21.073 42.745 21.079 42.755 21.085 42.764 21.091 42.773 21.097 42.782 21.104 42.791 21.11 42.8 21.117 42.808 21.124 42.817 21.132 42.825 21.139 42.833 21.147 42.841 21.155 42.849 21.163 42.856 21.171 42.864 21.179 42.871 21.188 42.878 21.196 42.885 21.205 42.891 21.214 42.898 21.223 42.904 21.232 42.91 21.242 42.915 21.251 42.921 21.261 42.926 21.271 42.931 21.281 42.936 21.291 42.941 21.301 42.945 21.311 42.949 21.321 42.953 21.332 42.957 21.342 42.961 21.353 42.964 21.363 42.967 21.374 42.969 21.385 42.972 21.396 42.974 21.407 42.976 21.418 42.978 21.429 42.979 21.44 42.981 21.451 42.982 21.462 42.982 21.473 42.983 21.484 42.983 21.495" fill-rule="evenodd"/>
    <path d="M43.886,21.43v.043l0,.008,0,.009,0,.008,0,.009,0,.008,0,.008,0,.009,0,.008,0,.008,0,.009,0,.008,0,.008-.005.008-.006.008,0,.007-.006.008-.007.008-.006.007-.007.008-.007.007-.007.008-.008.007-.008.007-.008.007-.008.007-.009.006-.009.007-.009.006-.009.007-.01.006-.01.006-.01.006-.01.006-.01.005-.011.006-.011,0-.011,0-.011,0-.011.005-.012,0-.011,0-.012,0-.012,0-.012,0-.013,0-.012,0-.012,0-.013,0-.013,0-.013,0-.013,0-.013,0-.013,0-.013,0-.014,0-.013,0-.014,0H43.36l-.013,0H43.21l-.014,0h-.027l-.014,0-.013,0-.013,0-.014,0-.013,0-.013,0-.013,0-.013,0-.013,0-.012,0-.013,0-.012,0-.013,0-.012,0-.012,0-.012,0-.011,0-.012,0-.011-.005-.011,0-.011,0-.011,0-.011-.006-.01-.005-.01-.006-.01-.006-.01-.006-.01-.006-.009-.007-.009-.006-.009-.007L42.8,21.67l-.009-.007-.008-.007-.008-.007-.007-.007-.008-.008-.007-.007-.007-.008-.006-.007-.006-.008-.006-.008-.006-.007-.006-.008,0-.008-.005-.008,0-.008,0-.009,0-.008,0-.008,0-.009,0-.008,0-.008,0-.009,0-.008,0-.009v-.008l0-.009V21.4l0-.009v-.008l0-.009,0-.008,0-.009,0-.008,0-.009,0-.008,0-.008,0-.009,0-.008,0-.008.005-.008,0-.008.006-.008.006-.008.006-.007.006-.008.006-.008.007-.007.007-.008.008-.007.007-.007.008-.007.008-.007L42.8,21.2l.008-.007.009-.006.009-.007.009-.006.01-.006.01-.006.01-.006.01-.006.01,0,.011-.006.011,0,.011-.005.011,0,.011,0,.012-.005.011,0,.012,0,.012,0,.012,0,.013,0,.012,0,.013,0,.012,0,.013,0,.013,0,.013,0,.013,0,.013,0,.014,0,.013,0h.013l.014,0h.013l.014,0h.164l.014,0h.013l.014,0h.013l.014,0,.013,0,.013,0,.013,0,.013,0,.013,0,.013,0,.013,0,.012,0,.012,0,.013,0,.012,0,.012,0,.012,0,.011,0,.012.005.011,0,.011,0,.011.005.011,0,.011.006.01,0,.01.006.01.006.01.006.01.006.009.006.009.007.009.006.009.007.008.007.008.007.008.007.008.007.007.007.007.008.007.007.006.008.007.008.006.007,0,.008.006.008.005.008,0,.008,0,.008,0,.008,0,.009,0,.008,0,.008,0,.009,0,.008,0,.009,0,.008,0,.009,0,.008v.035Z" fill-rule="evenodd"/>
    <path d="M45.968,21.491v.026l0,.008,0,.009,0,.008,0,.009,0,.008,0,.009-.005.008-.006.009-.006.008-.007.008-.007.008-.008.008-.009.009-.009.008-.009.008-.01.007-.011.008-.011.008-.011.008-.012.007-.013.008L45.8,21.7l-.013.007-.014.007-.015.007-.015.007-.015.007-.016.007-.017.006-.016.007-.017.006-.018.006-.018.006-.018.006-.019.006-.019,0-.02.006-.02,0-.02,0-.021.005-.02,0-.022,0-.021,0-.022,0-.022,0-.023,0-.022,0-.023,0-.023,0-.024,0-.023,0-.024,0-.024,0-.024,0-.024,0-.025,0-.024,0-.025,0-.025,0h-.4l-.024,0-.025,0-.025,0-.024,0-.024,0-.025,0-.024,0-.023,0-.024,0-.023,0-.023,0-.023,0-.023,0-.022,0-.022,0-.022,0-.022,0-.021,0-.021,0-.02-.005-.021,0-.02,0-.019-.006-.019,0-.019-.006-.018-.006-.018-.006-.018-.006-.017-.006L44,21.743l-.016-.006-.016-.007-.016-.007-.014-.007-.015-.007L43.91,21.7,43.9,21.7l-.013-.007-.012-.008-.012-.007-.012-.008-.011-.008-.01-.008-.01-.007-.01-.008-.009-.008-.008-.009-.008-.008-.007-.008-.007-.008-.006-.008-.006-.009-.005-.008-.005-.009,0-.008,0-.009,0-.008,0-.009,0-.008v-.043l0-.009,0-.008,0-.009,0-.008,0-.009.005-.008.005-.009.006-.008.006-.008.007-.009.007-.008.008-.008.008-.008.009-.008.01-.008.01-.008.01-.008.011-.007.012-.008.012-.008.012-.007L43.9,21.3l.014-.008.014-.007.015-.007.015-.007.015-.006.016-.007L44,21.247l.017-.006.017-.006.018-.007.018-.006.018-.006.019-.005.019-.006.019,0,.02-.006.021,0,.02,0,.021-.005.021,0,.022,0,.022,0,.022,0,.022,0,.023,0,.023,0,.023,0,.023,0,.024,0,.023,0,.024,0,.025,0,.024,0,.024,0,.025,0h.025l.024,0,.025,0h.353l.025,0,.025,0H45.1l.024,0,.025,0,.024,0,.024,0,.024,0,.024,0,.024,0,.023,0,.023,0,.023,0,.023,0,.022,0,.022,0,.022,0,.021,0,.022,0,.02.005.021,0,.02,0,.02.006.02,0,.019.006.019.005.018.006.018.006.018.007.017.006.016.006.017.007.016.007.015.006.015.007.015.007.014.007.013.008.013.007.013.007.012.008.011.008.011.007.011.008.01.008.01.008.008.008.009.008.008.008.007.008.007.009.006.008.006.008.005.009,0,.008,0,.009,0,.008,0,.009,0,.008,0,.009v.017Z" fill-rule="evenodd"/>
    <path d="M47.452,22.247l-.02.006-.023.006-.023.006-.023.006-.024,0-.024,0-.024.005-.024,0-.025,0-.024,0-.025,0-.025,0-.025,0-.026,0-.025,0-.025,0-.026,0-.026,0h-.258l-.026,0-.025,0-.026,0-.025,0-.025,0-.026,0-.025,0-.024,0-.025,0-.025,0-.024,0-.024-.005-.024,0-.024,0-.023-.006-.023-.006-.023-.006-.023-.006L46.3,22.24l-.022-.007-.022-.007-.021-.007-.021-.008-.021-.008-.02-.008-.02-.008-.02-.009-.019-.009-.019-.009-.018-.009-.018-.01-.018-.009-.017-.01L46,22.112l-.017-.011-.015-.01-.016-.011-.014-.01-.015-.011-.014-.011-.013-.012-.013-.011-.012-.012L45.862,22l-.011-.012-.011-.012-.01-.012-.01-.012-.009-.013-.009-.012-.008-.013-.007-.012-.007-.013-.007-.013-.006-.013-.005-.012,0-.013,0-.013,0-.013,0-.013,0-.014,0-.013v-.065l0-.014,0-.013,0-.013,0-.013,0-.013,0-.013.006-.013.005-.012.007-.013.007-.013.007-.013.008-.012.009-.012.009-.013.01-.012.01-.012.011-.012.011-.012.012-.012.012-.011.013-.012.013-.011.014-.011.015-.011.014-.011.016-.01.015-.011.017-.01.016-.01.017-.01.018-.01.018-.009.018-.009.019-.009.019-.009.02-.009.02-.008.02-.008.021-.008.021-.008.021-.007.022-.007.022-.007.022-.007.023-.006.023-.007.023,0,.024-.006.023,0,.024,0,.024-.005.024,0,.025,0,.025,0,.024,0,.025,0,.026,0,.025,0,.025,0,.026,0,.025,0h.026l.026,0h.207l.025,0h.026l.026,0,.025,0,.026,0,.025,0,.016,0v0l0,.027,0,.032,0,.017,0,.015,0,.044,0,.044,0,.038,0,.037,0,.032.007.055,0,.026.005.045,0,.027.006.031,0,.016h0v.012h0l0,.031v.012c0,.021,0,.041,0,.06v.058a.2.2,0,0,0,0,.021v.006l0,.023,0,.017,0,.008.01.028v0a.429.429,0,0,0,.013.043.315.315,0,0,0,.019.047.275.275,0,0,0,.017.029l.016.021.014.015.005,0,.03.025,0,0,.014.017.023.026.012.012.018.03.018.026" fill-rule="evenodd"/>
    <polygon points="47.429 23.579 47.429 22.382 48.243 22.382 47.429 23.579" fill-rule="evenodd"/>
    <path d="M47.681,22.813v.09l0,.022,0,.023,0,.022,0,.023,0,.022,0,.022-.005.022-.006.022-.006.022-.007.022-.007.021-.007.021-.008.022-.009.021-.009.02-.009.021-.01.02-.01.02-.011.02-.011.02-.012.019-.012.019-.013.019-.013.019-.013.018-.014.018-.014.018-.015.017-.014.017-.016.016-.016.017-.016.016-.016.015-.017.015-.017.015-.017.015-.018.014-.018.013-.019.013-.018.013-.019.012-.02.012-.019.012-.02.011-.02.01-.02.01-.021.01-.02.009-.021.009-.021.008-.022.008-.021.007-.022.007-.021.006-.022.006L46.9,23.8l-.022,0-.022.005-.023,0-.022,0-.023,0-.022,0-.023,0h-.135l-.023,0-.022,0-.023,0-.022,0-.023,0-.022-.005-.022,0-.022-.006-.022-.006-.021-.006-.022-.007-.021-.007-.022-.008-.021-.008-.021-.009-.02-.009-.021-.01-.02-.01-.02-.01-.02-.011-.019-.012-.02-.012-.019-.012-.018-.013-.019-.013-.018-.013-.017-.014-.018-.015-.017-.015L46,23.559l-.016-.015-.016-.016-.016-.017-.016-.016-.014-.017-.015-.017-.014-.018-.014-.018-.013-.018-.013-.019-.013-.019-.012-.019-.012-.019-.011-.02-.011-.02-.01-.02-.01-.02-.009-.021-.009-.02-.009-.021-.008-.022-.007-.021-.007-.021-.007-.022-.006-.022-.006-.022-.005-.022,0-.022,0-.022,0-.023,0-.022,0-.023,0-.022v-.158l0-.023,0-.022,0-.023,0-.022,0-.022,0-.022.005-.023.006-.021.006-.022.007-.022.007-.021.007-.022.008-.021.009-.021.009-.021.009-.02.01-.021.01-.02.011-.02.011-.019.012-.02.012-.019.013-.019.013-.018.013-.018.014-.018.014-.018.015-.017.014-.017.016-.017.016-.016.016-.016L46,22.088l.017-.015.017-.015.017-.014.018-.014.018-.013L46.106,22l.018-.012.019-.013.02-.012.019-.011.02-.011.02-.011.02-.01.021-.009.02-.01L46.3,21.9l.021-.009.022-.007.021-.008.022-.006.021-.007.022-.006.022-.005.022,0,.022,0,.023,0,.022,0,.023,0,.022,0,.023,0h.135l.023,0,.022,0,.023,0,.022,0,.023,0,.022,0,.022,0,.022.005.022.006.021.007.022.006.021.008.022.007.021.009.021.008.02.01.021.009.02.01.02.011.02.011.019.011.02.012.019.013.018.012.019.014.018.013.018.014.017.014.017.015.017.015.016.016.016.016.016.016.016.017.015.017.014.017.014.018.014.018.013.018.013.018.013.019.012.019.012.02.011.019.011.02.01.02.01.021.009.02.009.021.009.021.008.021.007.022.007.021.007.022.006.022.006.021.005.023,0,.022,0,.022,0,.022,0,.023,0,.022,0,.023v.068Z" fill-rule="evenodd"/>
    <rect x="36.148" width="9.871" height="1.981" y="21.634"/>
    <polygon points="43.937 22.899 49.005 22.928 49.656 23.703 43.937 23.703 43.937 22.899" fill-rule="evenodd"/>
    <polygon points="48.982 22.958 49.669 23.377 49.67 23.697 49.348 23.697 48.982 22.958" fill-rule="evenodd"/>
    <rect x="46.86" width="1.638" height="1.638" y="23.609"/>
    <rect x="46.86" width="1.638" height="1.638" y="23.609"/>
    <path d="M41.909,29.389l.048.006c.027,0,.064.008.109.011l.116.006.08,0h.059c.018,0,.045,0,.08,0a.583.583,0,0,0,.122-.017.729.729,0,0,0,.083-.021l.036-.022.028-.02.011-.013.009-.011L42.7,29.3l.01-.019.009-.015.02-.028.014-.016.017-.016a.181.181,0,0,1,.029-.019.224.224,0,0,1,.038-.016.22.22,0,0,1,.037-.007.254.254,0,0,1,.041,0h.032l.019,0,.034.007.027,0,.023,0a.284.284,0,0,0,.045-.01l.045-.014.037-.014.022-.009.052-.022.066-.027.025-.011.046-.018.077-.031c.025-.011.049-.022.071-.034l.046-.026.022-.015.013-.01.015-.015.018-.02.011-.009.018-.012a.124.124,0,0,1,.036-.013.143.143,0,0,1,.034-.006h.02a.09.09,0,0,1,.021,0l.024,0,.016,0,.013,0,.022,0a.4.4,0,0,0,.054-.015l.062-.021.045-.019.045-.02.025-.011.013-.006.015-.007.018-.011.02-.011.034-.015.022-.009.03-.009.038-.011.053-.021.047-.021.015-.009.017-.01.017-.012.012-.01.012-.011.013-.013.014-.012.02-.013.028-.012a.108.108,0,0,1,.027-.007l.013,0h.017l.025,0,.014,0h.012l.023,0,.036-.008.036-.011.033-.014L44.8,28.5l.038-.018.046-.02c.015-.007.034-.014.058-.023l.052-.018.036-.009.029-.007.012,0,.021,0,.035-.006.033-.01.031-.012.024-.012.021-.013.021-.014.017-.014.012-.011L45.3,28.3l.012-.012.017-.014.022-.014.024-.011.023-.007.022,0a.185.185,0,0,1,.024,0h.089a.282.282,0,0,0,.048-.011.4.4,0,0,0,.056-.019l.03-.014.029-.017.027-.016.028-.016.033-.016.021-.009.025-.008.031-.009.026,0,.019,0,.033-.006.042-.009.042-.011.049-.016a.409.409,0,0,0,.07-.036.2.2,0,0,0,.024-.021l.025-.025.015-.018.008-.012.007-.011.008-.014.009-.013.008-.01.016-.013a.089.089,0,0,1,.025-.014l.021-.007h.019l.021.008.036.016.025.012.021.007.028,0h.009l.018,0,.021-.011.014-.01.012-.009.013-.009.012-.007.014-.008.012-.006.017-.006.019-.007.015-.005.018-.009.02-.011.017-.011.011-.009.013-.01.015-.012.015-.01.019-.01.021-.008.031-.008.03-.007.028-.008.023-.008.008,0,.014-.008.021-.013.015-.013.012-.012.018-.025c.014-.018.024-.031.031-.038l.024-.022a.127.127,0,0,1,.029-.018l.023-.01.01,0h.064l.032,0,.021,0h.034l.041-.008.05-.013c.011,0,.024-.011.038-.019l.035-.021.023-.015.021-.014.026-.02a.131.131,0,0,0,.02-.018l.014-.018.009-.013.007-.007.01-.011.012-.011.021-.011.017-.007.021,0h.024l.023,0,.026,0,.032-.007a.22.22,0,0,0,.034-.013l.024-.012.012-.008.011-.014.011-.015.008-.016.007-.013.006-.011.013-.018.013-.016.011-.014.012-.015.011-.015.009-.014a.138.138,0,0,1,.02-.013l.022-.011.016-.005h.1l.017,0,.012,0,.012,0a.221.221,0,0,0,.034-.023l.029-.023.021-.022a.2.2,0,0,0,.026-.029l.012-.016.023-.042.008-.017.005-.012.006-.012,0-.008.011-.011.017-.011.013-.007.018,0,.026-.005.017,0,.047-.027a.453.453,0,0,0,.048-.031l.011-.014.011-.02.008-.016.009-.027.012-.032.006-.017,0-.013,0-.013,0-.017,0-.021,0-.021,0-.011.006-.016.009-.02.011-.018.009-.013.033-.032.036-.035.007-.006.014-.013a.325.325,0,0,0,.03-.032l.025-.031.021-.028.026-.039a.377.377,0,0,0,.025-.041l.02-.044.014-.039.022-.069.032-.1c.01-.029.016-.05.02-.063l.009-.034.008-.041c0-.018.008-.046.013-.084s.01-.08.013-.125l0-.089.006-.057.007-.068.006-.053,0-.045.008-.056.006-.046,0-.022,0-.019.007-.02.006-.017,0-.011,0-.014,0-.016v-.029a.3.3,0,0,0,0-.043.315.315,0,0,0-.018-.058.434.434,0,0,0-.037-.071.484.484,0,0,0-.037-.052l-.033-.038-.028-.029-.017-.019-.01-.012-.015-.025-.018-.03-.01-.016-.011-.022-.012-.026-.007-.019-.005-.016-.007-.036-.008-.039-.007-.031-.014-.05c-.006-.021-.012-.043-.019-.065l-.015-.044-.014-.033-.013-.029a.294.294,0,0,0-.024-.039c-.013-.019-.023-.033-.029-.04l-.024-.028a.6.6,0,0,0-.046-.048l-.047-.041a.34.34,0,0,0-.04-.027.241.241,0,0,0-.038-.02.064.064,0,0,0-.028,0,.1.1,0,0,0-.032.007.1.1,0,0,0-.03.021.225.225,0,0,0-.035.063.556.556,0,0,0-.028.079c-.005.02-.011.061-.02.126s-.015.114-.019.149-.008.086-.013.151-.009.115-.011.15l0,.077c0,.016,0,.052-.005.106s0,.106,0,.152,0,.08,0,.1,0,.05,0,.083,0,.069-.007.107-.008.084-.014.139-.012.1-.018.14-.014.077-.023.118-.02.079-.032.115a.812.812,0,0,1-.04.1.512.512,0,0,1-.065.093.876.876,0,0,1-.1.1l-.135.12c-.053.048-.1.093-.142.136s-.072.074-.092.094-.049.047-.086.08-.068.059-.092.077a1.082,1.082,0,0,1-.118.078c-.055.033-.1.058-.131.075l-.073.036-.065.031-.061.03a.73.73,0,0,0-.069.045.438.438,0,0,0-.066.051.574.574,0,0,0-.038.044c-.012.017-.021.031-.028.042l-.014.025-.019.04c-.009.02-.016.038-.021.052a.389.389,0,0,0-.011.043c0,.013-.006.03-.009.049l-.007.047,0,.039,0,.039,0,.022-.007.016a.077.077,0,0,1-.017.022.092.092,0,0,1-.027.016l-.021.005-.015,0a.138.138,0,0,1-.028-.011.182.182,0,0,1-.028-.017l-.017-.016-.014-.016L46.4,27.46l-.018-.023-.013-.02-.017-.026-.011-.016-.009-.013-.015-.021a.139.139,0,0,0-.021-.022l-.019-.016-.014-.011-.023-.011-.021-.009-.028,0-.034,0-.033,0-.032,0-.031.008-.022.007L46,27.3l-.045.022a.382.382,0,0,0-.041.028.359.359,0,0,0-.041.033l-.021.02-.015.017-.012.019-.013.026a.19.19,0,0,0-.012.036.386.386,0,0,0-.007.041c0,.016,0,.03,0,.044v.08l0,.038a.356.356,0,0,1-.009.039l-.011.031-.011.019a.2.2,0,0,1-.021.024.161.161,0,0,1-.03.021.134.134,0,0,1-.026.009h-.013l-.024,0a.121.121,0,0,1-.028-.007l-.022-.016a.164.164,0,0,1-.027-.024l-.014-.014-.029-.033-.033-.039-.015-.016-.026-.027-.022-.021-.021-.016-.03-.022a.174.174,0,0,0-.027-.014l-.015-.007-.016-.005-.025,0h-.013l-.036,0-.043.01-.034.014c-.017.008-.035.018-.054.029l-.04.024-.027.02-.023.02-.015.015-.014.018-.01.016-.008.016a.226.226,0,0,0-.011.034l-.007.025,0,.028c0,.017-.005.033-.007.049l0,.03,0,.026c0,.014,0,.025-.006.035l-.008.03a.254.254,0,0,1-.013.034.216.216,0,0,1-.016.034l-.012.019-.018.018-.02.016-.017.008a.063.063,0,0,1-.021,0,.108.108,0,0,1-.018,0l-.014,0-.023-.012-.026-.017A.329.329,0,0,1,44.7,28.1l-.031-.033-.014-.016-.017-.02L44.612,28l-.017-.021-.033-.037-.033-.035-.029-.021-.032-.013-.031-.007a.219.219,0,0,0-.036,0h-.024l-.035,0-.045.006-.034.006-.037.008c-.013,0-.037.009-.07.019s-.069.02-.108.033-.076.025-.109.038-.064.025-.091.037l-.073.031-.08.039-.075.039-.053.029-.109.059c-.056.029-.1.053-.133.072l-.066.038-.056.034a1.548,1.548,0,0,1-.142.074c-.069.032-.122.056-.159.071l-.085.034-.063.025-.05.021-.071.028c-.038.015-.075.028-.112.039s-.079.022-.124.032-.092.017-.142.024-.108.013-.174.018l-.144.011-.071.006-.044,0-.022,0-.024,0-.045.009a.23.23,0,0,0-.037.01l-.028.01a.249.249,0,0,0-.028.015l-.023.015a.111.111,0,0,0-.02.022.181.181,0,0,0-.019.029l-.009.016-.009.025a.475.475,0,0,0-.014.046c0,.015-.011.033-.019.053a.212.212,0,0,1-.024.048.187.187,0,0,1-.02.028l-.018.016a.1.1,0,0,1-.027.015.1.1,0,0,1-.032.01.087.087,0,0,1-.028,0,.117.117,0,0,1-.021-.008l-.014-.009a.157.157,0,0,1-.023-.027.255.255,0,0,1-.022-.034l-.012-.028-.013-.04-.013-.039-.013-.034-.008-.021-.019-.038a.442.442,0,0,0-.031-.054.351.351,0,0,0-.029-.036.211.211,0,0,0-.025-.023l-.012-.009L41.1,28.7l-.038-.017-.047-.011-.043-.007h-.019l-.042,0a.282.282,0,0,0-.07.015.51.51,0,0,0-.048.02l-.024.016a.265.265,0,0,0-.025.024l-.02.021-.018.026-.018.03-.015.034-.015.033-.017.036c-.008.017-.015.031-.022.043L40.594,29l-.026.037-.027.035-.02.024-.015.018c-.005.007-.015.02-.029.041a.409.409,0,0,0-.037.064.285.285,0,0,0-.018.043l0,.016,0,.021a.092.092,0,0,0,0,.019l0,.011.005.013.01.016.014.015.02.015.019.012.011.007.008.007,0,0,.006,0,.008,0" fill-rule="evenodd"/>
    <path d="M40.524,29.427l.005-.031.009-.028,0-.016,0-.019V29.3a.316.316,0,0,0,0-.032l-.007-.027a.364.364,0,0,0-.02-.044.6.6,0,0,0-.039-.069c-.014-.023-.028-.045-.041-.064l-.032-.049-.027-.042-.015-.024-.023-.034-.046-.067c-.016-.023-.03-.042-.043-.058a.431.431,0,0,0-.048-.049c-.019-.018-.033-.03-.042-.037a.265.265,0,0,0-.047-.025.457.457,0,0,0-.1-.027.878.878,0,0,0-.147-.01l-.147.005-.123.006-.188,0c-.091,0-.162,0-.213,0l-.146,0-.11,0h-.089l-.1,0-.095,0-.1,0h-.276l-.044,0-.057.006-.028,0-.034.01a.341.341,0,0,0-.057.021.221.221,0,0,0-.039.021l-.024.021-.017.019a.3.3,0,0,0-.027.047c-.014.026-.029.061-.047.105s-.027.071-.031.079a.339.339,0,0,1-.047.07l-.016.015-.015.008a.09.09,0,0,1-.022,0,.111.111,0,0,1-.019,0l-.016,0a.108.108,0,0,1-.035-.021.182.182,0,0,1-.033-.027l-.021-.027a.384.384,0,0,1-.026-.051.469.469,0,0,1-.02-.048l-.013-.032-.015-.035c0-.011-.012-.025-.022-.044s-.022-.037-.034-.054-.024-.032-.034-.043-.023-.023-.036-.034a.347.347,0,0,0-.053-.036.208.208,0,0,0-.059-.025.157.157,0,0,0-.051,0,.1.1,0,0,0-.043.013.172.172,0,0,0-.033.022.182.182,0,0,0-.036.046.4.4,0,0,0-.039.074.837.837,0,0,0-.033.085c-.011.03-.02.057-.027.08l-.017.053a.346.346,0,0,0-.012.047.607.607,0,0,0-.008.068l0,.061c0,.016,0,.033,0,.051l-.005.045,0,.023-.005.035c0,.019,0,.036-.005.052V29.4l0,.019" fill-rule="evenodd"/>
    <path d="M29.317,16.831l-.022.016-.018.012-.023.014-.019.012-.014.008-.031.018-.037.021-.022.014-.016.01-.016.01-.037.022-.035.022L29,17.026l-.029.019-.025.016-.025.016-.025.017-.013.008-.017.012-.032.021-.026.018-.025.016-.025.016-.02.014-.014.008-.013.008-.026.017-.027.018-.021.015-.025.018-.024.018-.018.015-.015.012-.015.014-.021.02-.021.021-.016.017-.009.009-.007.008-.011.012-.012.015-.019.025-.014.023-.007.015-.006.017,0,.016a.163.163,0,0,0,0,.024v.021l0,.017,0,.014.006.017.006.015.005.009.013.018.014.016a.348.348,0,0,0,.038.024l.038.021.009,0,.014,0,.015,0h.032c.008,0,.028,0,.06-.013s.06-.015.082-.022l.059-.02.067-.023.056-.02.061-.022c.031-.012.067-.027.109-.046l.1-.047.052-.026.035-.018.023-.012.009-.005.042-.025c.025-.014.046-.027.063-.038l.037-.024.03-.02.034-.026.025-.023.018-.018.022-.024.019-.022.016-.023.032-.045.035-.05.032-.044.035-.05c.011-.015.02-.029.028-.042l.016-.027.014-.03.015-.033.009-.021.006-.017.006-.02.005-.016,0-.018.005-.032a.212.212,0,0,0,0-.027v-.024l0-.016-.006-.02-.008-.015,0-.006-.007-.008-.013-.012-.012-.007-.007,0-.017,0a.126.126,0,0,0-.029,0l-.027,0-.024.006-.012,0-.012,0-.015,0-.016,0-.011,0h-.012l-.044,0-.053,0-.024,0h-.015l-.013,0" fill-rule="evenodd"/>
    <path d="M30.011,16.388l0-.024L30,16.33l-.006-.019a.128.128,0,0,0-.016-.029.247.247,0,0,0-.035-.041.292.292,0,0,0-.039-.032.184.184,0,0,0-.031-.016.168.168,0,0,0-.032-.009l-.032,0h-.027l-.035,0-.036,0-.044.008-.044.011-.025.01-.013.007-.006,0-.016.016a.1.1,0,0,0-.019.024l-.009.016a.143.143,0,0,0-.01.03.325.325,0,0,0-.008.043l0,.036c0,.01,0,.021,0,.034l0,.036,0,.029,0,.017.007.022.009.02.011.017.016.019.018.017.019.013.023.011a.171.171,0,0,0,.029.008.27.27,0,0,0,.04.007l.048,0h.13l.039,0,.037,0,.034,0,.06,0,.042,0h.011l.008,0,0,0,0,0,0,0,0,0,0,0,.009-.008" fill-rule="evenodd"/>
    <path d="M30.957,15.946h-.065c-.039,0-.071,0-.095.006a.554.554,0,0,0-.056.011.21.21,0,0,0-.032.013l-.018.012L30.678,16a.077.077,0,0,0-.011.019q0,.01-.006.027a.175.175,0,0,0,0,.039l0,.033,0,.022a.142.142,0,0,1,0,.019l0,.011,0,.008,0,.01-.011.013-.016.012-.018.009-.015.006-.014,0-.014,0-.021,0-.028,0h-.034l-.04,0-.047,0H30.38l-.028,0-.025,0-.021,0-.028,0-.028.008-.032.012-.04.02-.036.023-.023.017-.024.016-.03.015-.032.016a.17.17,0,0,0-.028.018.089.089,0,0,0-.017.016l-.008.014,0,.012a.157.157,0,0,0,0,.026.253.253,0,0,0,0,.032l.009.029.013.036.012.031.01.021.01.02.013.023.011.02.01.015.014.017.015.016.019.014a.134.134,0,0,0,.038.015.2.2,0,0,0,.051.01l.038,0h.13c.038,0,.077,0,.117,0l.092,0,.048,0h.061l.072,0,.047,0,.042,0,.071-.006L31,16.76l.05-.005.049-.006.04-.008.022-.006.015-.006.015-.007.016-.011.019-.016a.1.1,0,0,0,.019-.032.161.161,0,0,0,.013-.039l0-.02v-.03l-.007-.03-.008-.033-.006-.021,0-.022-.007-.029,0-.029v-.039a.291.291,0,0,1,.005-.049l.006-.04,0-.019,0-.02a.217.217,0,0,0,0-.026.077.077,0,0,0-.006-.023l-.008-.018-.01-.014-.01-.011-.007-.006-.01-.007-.014-.009-.022-.01-.02-.011-.01-.008,0-.006,0-.014,0-.015,0-.01,0-.008,0-.008-.006-.007,0,0-.008-.006-.014-.009-.013-.006-.012,0-.009,0-.006,0-.006-.006L31,15.978,31,15.97l-.007-.006-.006-.005,0,0-.02-.009Z" fill-rule="evenodd"/>
    <path d="M34.339,15.075l-.029-.019-.027-.015-.048-.026-.044-.023-.031-.015-.065-.026-.072-.025-.053-.015-.072-.018c-.03-.007-.052-.013-.066-.015l-.033-.006-.024,0h-.034l-.032,0-.019,0-.02.006-.026.011-.022.012-.009.006-.014.011-.02.019-.012.018-.008.013,0,.013-.007.026,0,.018v.025l0,.049,0,.073,0,.056,0,.022-.006.047c0,.021-.006.036-.008.048l-.009.028-.009.018a.233.233,0,0,1-.019.025.165.165,0,0,1-.032.028l-.024.014-.047.02-.061.024-.034.012-.04.017-.081.032-.085.031c-.022.008-.065.019-.128.034s-.109.026-.136.034a.773.773,0,0,0-.077.025c-.025.009-.046.018-.065.027l-.048.025-.048.028-.073.045-.084.049c-.024.014-.046.026-.065.035l-.065.032-.053.025-.051.02c-.022.009-.04.015-.053.019a.421.421,0,0,1-.042.012.326.326,0,0,1-.047.009L32,16.021H31.9l-.041,0-.053,0-.039.005-.028,0-.025,0-.016,0h-.028l-.007,0-.011-.009-.01-.01-.009-.011L31.624,16l-.013-.014-.011-.01-.011-.007-.012-.007-.017-.007-.026-.007a.354.354,0,0,0-.047,0,.419.419,0,0,0-.048,0l-.031.005a.208.208,0,0,0-.047.023l-.008.02-.009.03-.008.024-.007.02-.008.011-.012.012-.011.008-.027.009-.021,0-.039,0h-.044l-.017,0-.016.006-.013.006-.012.01a.064.064,0,0,0-.013.015l-.007.011,0,.007-.005.017a.12.12,0,0,0,0,.028.343.343,0,0,0,0,.041l.005.037.009.032.011.038.007.03,0,.018,0,.02c0,.01,0,.027,0,.053s0,.046,0,.06l0,.053,0,.063v.051a.543.543,0,0,0,0,.058.552.552,0,0,0,.007.08.476.476,0,0,0,.013.063.288.288,0,0,0,.018.048.33.33,0,0,0,.029.051.3.3,0,0,0,.035.042.333.333,0,0,0,.048.036.472.472,0,0,0,.058.031.574.574,0,0,0,.093.031c.043.012.091.023.142.032l.123.021.081.014.072.01.06.007.107.009c.056,0,.106.008.15.01l.1.005.084,0,.15.006.145,0h.117l.061,0,.112-.006.133-.009.178-.015c.082-.007.157-.014.225-.022s.119-.014.153-.019l.085-.011.078-.012.079-.013.07-.013.119-.021c.056-.01.106-.02.151-.03l.1-.021.054-.013.094-.024c.05-.013.09-.024.119-.034l.075-.024.092-.039" fill-rule="evenodd"/>
    <path d="M37.647,16.378l-.025-.136-.015-.016c-.009-.01-.024-.024-.045-.043l-.041-.036-.023-.025-.016-.019-.026-.031-.033-.042-.036-.045c-.017-.021-.032-.038-.045-.052l-.036-.035-.022-.02-.01-.008-.015-.011a.284.284,0,0,0-.033-.02.348.348,0,0,0-.043-.018.227.227,0,0,0-.038-.012l-.033,0a.316.316,0,0,0-.056,0,.382.382,0,0,0-.052.009l-.024.009-.025.012-.025.015-.023.018-.026.02-.028.02-.033.023-.03.018-.014.007-.01,0a.2.2,0,0,1-.036.008.347.347,0,0,1-.064.006h-.058l-.069,0-.073,0h-.043l-.051,0-.058-.006-.064-.009-.076-.014-.106-.025-.106-.026c-.021-.005-.051-.014-.09-.026s-.083-.026-.132-.044-.078-.028-.086-.031l-.061-.026-.09-.039-.081-.035-.1-.043-.086-.037-.044-.019-.042-.019-.051-.024-.065-.032-.126-.06-.13-.062-.066-.033-.049-.027-.032-.019-.024-.018-.026-.021-.023-.02-.033-.031-.03-.027-.024-.019-.025-.02-.016-.012-.03-.021-.037-.025-.028-.015a.358.358,0,0,0-.045-.019l-.041-.014-.027-.005a.2.2,0,0,0-.036,0,.193.193,0,0,0-.042,0,.156.156,0,0,0-.051.023l-.034.02-.018.019a.268.268,0,0,0-.025.028.479.479,0,0,0-.03.045.409.409,0,0,0-.028.055l-.015.035c0,.01-.008.029-.015.056l-.014.056a.579.579,0,0,0-.01.058l-.011.075-.011.066c0,.022-.008.057-.013.106a1.348,1.348,0,0,0-.009.138.742.742,0,0,0,.007.113.719.719,0,0,0,.031.125c.018.051.031.09.042.114s.022.051.034.077l.031.067.029.065.032.073.04.1c.016.04.032.073.046.1a.435.435,0,0,0,.057.082.462.462,0,0,0,.063.063.544.544,0,0,0,.064.043,1.02,1.02,0,0,0,.175.058c.092.024.179.044.261.061l.221.045.17.035.152.032.221.045.2.041.095.016a.413.413,0,0,0,.058,0h.029" fill-rule="evenodd"/>
    <path d="M39.814,16.5h.019a.134.134,0,0,1,.026-.014l.019-.008.008,0,.032-.011.061-.024a.366.366,0,0,0,.048-.023l.02-.012.021-.027a.155.155,0,0,0,.02-.037.091.091,0,0,0,0-.05l-.006-.017a.077.077,0,0,0-.013-.017.11.11,0,0,0-.023-.02l-.023-.012a.213.213,0,0,0-.043-.007.288.288,0,0,0-.056,0l-.052.006a.483.483,0,0,0-.052.01.607.607,0,0,0-.059.017l-.056.019-.03.009-.025.009-.025.009-.026.01-.035.012-.029.009-.019.006-.025.007-.026.008-.02,0-.024,0-.026,0h-.052l-.015-.006-.017-.008L39.3,16.34l-.009,0-.008,0a.047.047,0,0,0-.017,0l-.017,0-.006,0-.02.022a.258.258,0,0,1-.029.032l-.022.018-.026.015-.015.008-.025.006-.036,0a.147.147,0,0,1-.026,0l-.021-.006-.015-.01-.016-.014-.014-.015-.011-.014-.008-.008-.008-.006-.013-.008-.026-.011-.025-.007-.045,0c-.026,0-.049,0-.069,0l-.051.007-.035.008-.026.008-.021.008-.018.012-.01.008L38.6,16.4l-.009.011,0,.013,0,.008v.007l0,.011,0,.007.009.013a.147.147,0,0,0,.022.022l.035.027.055.039c.025.017.042.029.05.036l.023.021c.007.008.016.019.027.034l.018.023.009.011.017.019.009.009.011.008.02.012.019.007.033,0a.173.173,0,0,0,.041,0,.154.154,0,0,0,.03-.009l.024-.011.025-.016.022-.016.014-.014.01-.01.016-.016.025-.021.036-.028.038-.025.036-.018a.253.253,0,0,1,.036-.016.358.358,0,0,1,.047-.014.5.5,0,0,1,.059-.011l.039,0a.137.137,0,0,1,.037,0,.25.25,0,0,1,.043.009l.029.01.01,0,.018.011a.17.17,0,0,1,.028.021l.016.015.012.013.012.015.017.022.015.017.01.007a.035.035,0,0,0,.017,0,.026.026,0,0,0,.013,0l.014,0,.023-.013a.151.151,0,0,0,.023-.021l0-.006,0,0" fill-rule="evenodd"/>
    <path d="M38.86,16.116l-.013,0a.158.158,0,0,1,.035.007l.009,0,.007.006.007.006.006.01,0,.012,0,.009V16.2l0,.015,0,.008-.006.006-.006,0-.032.012a.312.312,0,0,1-.057.016l-.036,0-.037.007" fill-rule="evenodd"/>
    <path d="M39.814,16.5l.038-.011.012.013a.084.084,0,0,1,.01.022l.006.023c0,.008,0,.02,0,.034a.267.267,0,0,1,0,.04.339.339,0,0,1,0,.035c0,.01-.005.023-.009.036l-.01.029-.008.021-.006.012-.011.024-.019.035-.013.024-.012.022-.007.012-.01.017-.024.042-.03.051-.029.046-.018.028-.011.014-.018.022-.017.019-.019.015a.134.134,0,0,1-.031.017.165.165,0,0,1-.032.01H39.51l-.022-.01-.025-.012-.009-.008-.013-.014-.01-.016-.007-.016-.006-.024,0-.018V17.02l0-.025.005-.024.011-.029.013-.028.013-.023.016-.025.016-.024.012-.017.008-.013.018-.029.024-.042.016-.03.009-.018.006-.015.006-.019,0-.013,0-.028a.23.23,0,0,0,0-.034v-.016l0-.014,0-.01-.007-.022-.009-.023-.018-.034" fill-rule="evenodd"/>
    <path d="M12.592,29.3l.048.006.11.009.117.006.08,0h.141a.653.653,0,0,0,.123-.014.612.612,0,0,0,.083-.02.332.332,0,0,0,.037-.019l.028-.018.011-.011.008-.01.009-.013.01-.017.009-.013.02-.026.014-.014.017-.014a.126.126,0,0,1,.03-.017.149.149,0,0,1,.038-.014.22.22,0,0,1,.037-.007c.013,0,.026,0,.041,0h.033l.019,0,.034.006.028.005.022,0,.046-.009.045-.013.038-.013.022-.007.052-.02.066-.025.026-.009.046-.016.077-.029a.6.6,0,0,0,.072-.03l.046-.023L14.3,28.9l.013-.009.015-.014.019-.017.01-.009.018-.01a.146.146,0,0,1,.037-.012.223.223,0,0,1,.034-.006h.02a.061.061,0,0,1,.022,0l.024,0,.016,0h.013a.09.09,0,0,0,.022,0l.054-.013.063-.02.045-.017.046-.018.025-.009.013-.006.015-.006.018-.01.02-.009.034-.014.023-.008.03-.008.039-.01c.01,0,.028-.009.053-.019a.376.376,0,0,0,.047-.019l.016-.007.017-.009.017-.011.011-.009.013-.01.013-.011.014-.011.02-.012.028-.011.028-.006.013,0h.017l.025,0,.014,0h.013l.022,0,.037-.007.036-.01.033-.013.032-.013.039-.016.046-.018.059-.021.052-.016.036-.008.029-.006.012,0,.022,0,.035-.006.033-.009.032-.011.024-.01.021-.011.021-.014.017-.011.012-.01.012-.011.013-.011.016-.012.023-.013.024-.01.024-.006.021,0h.114a.415.415,0,0,0,.049-.01.317.317,0,0,0,.056-.017l.031-.012.028-.015.028-.015.028-.014.033-.014.021-.008.026-.008.031-.007.026,0,.02,0,.032-.006.043-.008.043-.01.048-.014c.016-.006.03-.011.042-.017l.029-.015.025-.019.024-.022.015-.017.008-.01.007-.01.009-.013.009-.012.008-.009.016-.011A.085.085,0,0,1,17,27.932l.021-.006h.019l.022.007.036.014.025.011.022.006a.1.1,0,0,0,.027,0h.009l.019-.005.021-.009.014-.009.013-.008.012-.008.012-.007.014-.006.012-.006.018-.006.019-.005.015,0,.019-.008.019-.01.017-.01.012-.008.013-.009.014-.01.016-.009.019-.01.021-.007.031-.007.03-.006.029-.007.024-.007.008,0,.013-.007.021-.012.016-.011.012-.011.018-.022a.434.434,0,0,1,.031-.034.254.254,0,0,1,.024-.02.108.108,0,0,1,.03-.016l.023-.009.01,0h.065l.031,0,.021,0h.035l.041-.006a.482.482,0,0,0,.05-.013.23.23,0,0,0,.039-.016l.035-.019.024-.013.021-.013.026-.017.02-.017.014-.016.009-.011.007-.007.01-.01.012-.009.021-.01.018-.007.021,0h.047l.026,0,.033-.006.034-.011.024-.011.012-.008.012-.012.011-.014.008-.013.006-.013.007-.01.012-.016.013-.014.012-.012.012-.014.011-.013.01-.012a.061.061,0,0,1,.019-.012l.023-.01.016,0,.009,0h.091l.018,0,.012,0,.012,0a.244.244,0,0,0,.034-.021l.029-.02.022-.02a.315.315,0,0,0,.026-.026l.011-.014.024-.037.008-.016,0-.011.006-.01L19,27.048l.01-.009.017-.01.014-.006.018,0,.026,0,.017,0,.047-.023a.348.348,0,0,0,.048-.028l.011-.013.012-.017.007-.015.01-.024.012-.028.006-.016,0-.011,0-.012,0-.015,0-.019,0-.018,0-.011.006-.014.01-.018.011-.016.008-.011.034-.029.036-.031.007-.006.015-.011c.009-.008.018-.018.029-.029l.025-.028.021-.025.027-.035a.345.345,0,0,0,.025-.037c.006-.011.013-.024.02-.039a.192.192,0,0,0,.014-.035l.023-.061.032-.088c.01-.026.016-.045.02-.057l.009-.03.008-.037c0-.016.008-.041.014-.075s.009-.071.012-.112l.006-.079.005-.051.007-.061L19.7,25.7l.006-.041.007-.05.007-.041,0-.019.005-.017.007-.018.006-.016,0-.009,0-.013,0-.015v-.025a.225.225,0,0,0,0-.038.216.216,0,0,0-.019-.053.355.355,0,0,0-.036-.063.447.447,0,0,0-.038-.047l-.033-.033-.028-.027-.017-.017-.01-.011-.016-.022-.018-.026-.01-.015-.011-.019L19.5,25.04l-.007-.017-.005-.014-.007-.032-.008-.035-.008-.028-.013-.045c-.006-.019-.013-.038-.02-.057l-.015-.04-.014-.029-.013-.027a.38.38,0,0,0-.024-.035.4.4,0,0,0-.029-.035l-.024-.026c-.01-.01-.026-.024-.047-.042l-.047-.037a.411.411,0,0,0-.041-.024.286.286,0,0,0-.038-.018.082.082,0,0,0-.028,0,.132.132,0,0,0-.032.007.109.109,0,0,0-.031.018.22.22,0,0,0-.035.057.477.477,0,0,0-.028.07c0,.018-.011.055-.02.113s-.015.1-.019.134-.009.077-.014.135-.008.1-.01.134l0,.069c0,.014,0,.046,0,.1s-.005.094-.005.135,0,.072,0,.092a.668.668,0,0,1,0,.074c0,.03,0,.062-.007.095s-.008.076-.014.125-.012.091-.018.125-.014.069-.023.106a.939.939,0,0,1-.032.1.59.59,0,0,1-.041.087.479.479,0,0,1-.065.084,1.059,1.059,0,0,1-.1.087l-.136.106c-.054.044-.1.084-.143.122l-.093.085c-.02.018-.049.042-.087.071s-.068.053-.092.069a1.363,1.363,0,0,1-.119.07c-.056.029-.1.052-.132.066l-.074.033-.065.028-.062.027a.73.73,0,0,0-.07.04.366.366,0,0,0-.066.046.354.354,0,0,0-.038.039c-.012.015-.022.028-.028.037l-.015.022-.019.036c-.009.019-.016.035-.021.047a.318.318,0,0,0-.011.038l-.009.044-.007.042,0,.036-.005.034,0,.02-.007.014a.06.06,0,0,1-.017.02.1.1,0,0,1-.028.014l-.021,0a.044.044,0,0,1-.015,0,.2.2,0,0,1-.028-.01.161.161,0,0,1-.028-.015l-.017-.014-.015-.015-.019-.019-.018-.021-.013-.018-.017-.023-.011-.014-.009-.012-.016-.019a.093.093,0,0,0-.02-.019l-.02-.015-.014-.009-.023-.011-.022-.008-.027,0-.035,0H16.84l-.032,0-.031.007-.023.006-.039.015-.046.019c-.009,0-.023.013-.041.025a.4.4,0,0,0-.041.03l-.021.018-.015.015-.013.017-.012.023a.175.175,0,0,0-.012.032.2.2,0,0,0-.007.037c0,.014,0,.027,0,.039v.072l0,.033a.135.135,0,0,1-.009.036l-.011.027-.011.018a.206.206,0,0,1-.021.021.135.135,0,0,1-.031.019l-.025.008h-.013l-.025,0-.028-.007L16.3,27.9l-.027-.021-.014-.012-.029-.03L16.2,27.8l-.014-.015-.027-.024-.022-.018-.02-.015-.031-.019-.027-.013-.015-.006-.016,0-.025,0h-.014l-.036.005-.043.008-.035.013c-.017.007-.035.016-.054.026l-.041.022-.026.018-.024.017-.015.014-.014.016-.01.014-.008.014a.252.252,0,0,0-.011.031l-.008.022,0,.025-.007.044,0,.027,0,.024-.006.03-.008.027-.012.031a.139.139,0,0,1-.017.03l-.011.017-.019.016-.02.015-.017.007-.021,0h-.019l-.014,0-.023-.01-.026-.015-.029-.024-.031-.029-.015-.014-.017-.018-.021-.024-.018-.018-.033-.034-.034-.031-.029-.018a.165.165,0,0,0-.032-.012.221.221,0,0,0-.032-.007l-.036,0a.18.18,0,0,0-.024,0l-.035,0a.4.4,0,0,0-.046,0l-.034.006-.037.007c-.014,0-.037.008-.071.016l-.109.03c-.039.011-.076.023-.11.034l-.091.033-.073.028-.081.035-.075.034-.054.027-.11.052-.134.064-.067.035-.056.03a1.376,1.376,0,0,1-.143.066c-.07.029-.123.051-.16.064l-.086.03-.064.023-.05.018-.072.026c-.038.013-.075.024-.113.035s-.079.019-.124.028-.094.015-.144.021-.109.012-.175.017l-.146.009-.071.006-.044,0-.022,0-.025,0-.045.008-.037.009-.028.01-.029.013-.023.014a.086.086,0,0,0-.02.019.256.256,0,0,0-.02.026l-.009.015-.008.021a.429.429,0,0,0-.015.042.43.43,0,0,1-.018.047.3.3,0,0,1-.024.043.208.208,0,0,1-.021.025l-.018.015a.113.113,0,0,1-.027.013.117.117,0,0,1-.033.009.087.087,0,0,1-.028,0l-.021-.007-.014-.008A.155.155,0,0,1,12,29.016a.213.213,0,0,1-.022-.03l-.012-.025-.014-.035-.013-.035-.013-.031-.008-.019-.019-.034a.369.369,0,0,0-.031-.048.227.227,0,0,0-.03-.032.268.268,0,0,0-.024-.021L11.8,28.7l-.025-.013a.252.252,0,0,0-.039-.015.247.247,0,0,0-.047-.01.261.261,0,0,0-.043-.006h-.019l-.043,0a.347.347,0,0,0-.07.014.448.448,0,0,0-.048.017.194.194,0,0,0-.024.015.2.2,0,0,0-.026.021l-.02.019-.018.024-.018.026-.015.03-.016.03-.016.032-.023.039-.021.033-.026.033-.028.031-.019.022-.015.016a.452.452,0,0,0-.03.036.356.356,0,0,0-.037.058.2.2,0,0,0-.018.039l0,.014,0,.018v.018l0,.009,0,.012.01.014.015.013.02.014.019.011.011.006.009.007,0,0,.007,0,.007,0" fill-rule="evenodd"/>
    <path d="M11.2,29.334l.006-.028.008-.025,0-.015,0-.017a.226.226,0,0,0,0-.027.272.272,0,0,0,0-.03l-.006-.023a.225.225,0,0,0-.021-.04c-.011-.02-.024-.04-.038-.061L11.1,29.01l-.032-.044-.026-.037-.016-.021-.023-.031c-.014-.019-.029-.039-.046-.06s-.031-.038-.043-.051a.45.45,0,0,0-.049-.045l-.043-.032a.226.226,0,0,0-.047-.023.489.489,0,0,0-.1-.024.9.9,0,0,0-.149-.009c-.051,0-.1,0-.148.005l-.124,0-.19,0H9.85l-.147,0-.111,0H9.5l-.1,0-.1,0H8.922l-.045,0-.057,0-.028.005-.034.008a.439.439,0,0,0-.058.019.308.308,0,0,0-.04.019l-.024.019-.017.017a.254.254,0,0,0-.027.042.814.814,0,0,0-.047.094c-.017.04-.028.063-.031.071s-.011.018-.021.032a.171.171,0,0,1-.027.03l-.016.013-.015.008a.1.1,0,0,1-.023,0,.056.056,0,0,1-.019,0l-.016,0a.184.184,0,0,1-.035-.019.2.2,0,0,1-.033-.024l-.021-.024a.5.5,0,0,1-.026-.046l-.021-.043-.013-.029-.015-.031a.415.415,0,0,0-.023-.039.391.391,0,0,0-.034-.049.468.468,0,0,0-.034-.038c-.01-.01-.023-.02-.036-.031a.46.46,0,0,0-.053-.032.232.232,0,0,0-.06-.022.194.194,0,0,0-.052,0,.125.125,0,0,0-.043.012.17.17,0,0,0-.033.02.174.174,0,0,0-.036.041.429.429,0,0,0-.04.066.756.756,0,0,0-.033.076q-.016.041-.027.072l-.017.047a.285.285,0,0,0-.012.042.361.361,0,0,0-.008.061l0,.055c0,.014,0,.029,0,.045l-.006.041,0,.02,0,.031a.445.445,0,0,0-.005.047l0,.042,0,.017" fill-rule="evenodd"/>
  </g>
</svg>