<!-- Generator: Adobe Illustrator 25.2.3, SVG Export Plug-In . SVG Version: 6.00 Build 0)  --><svg x="0px" enable-background="new 0 0 60 60" y="0px" width="60px" xmlns:xlink="http://www.w3.org/1999/xlink" viewBox="0 0 60 60" height="60px" id="Layer_1" xmlns="http://www.w3.org/2000/svg" xml:space="preserve" version="1.1">
<rect width="60" fill="#FBF49C" x="0" height="60" id="UnitColor" y="-0.085"/>
<rect width="60" fill="#F7EC13" height="20.189" id="CS_2_" y="11.533" display="none"/>
<g id="Gar">
	<rect width="14.843" x="0.73" fill="none" height="8.039" y="2.802"/>
	<path d="M11.03,10.06c-0.472,0.163-1.361,0.379-2.249,0.379c-1.231,0-2.119-0.308-2.739-0.903C5.424,8.949,5.085,8.072,5.089,7.083   C5.097,4.842,6.73,3.567,8.936,3.567c0.87,0,1.539,0.165,1.873,0.323L10.49,5.111C10.117,4.95,9.664,4.825,8.922,4.825   c-1.27,0-2.235,0.714-2.235,2.18c0,1.391,0.878,2.205,2.125,2.205c0.344,0,0.623-0.04,0.745-0.095V7.699H8.516V6.512h2.514V10.06z"/>
</g>
<g id="Eng" display="none">
	<rect width="27.832" fill="none" x="1.1" height="8.039" y="2.802" display="inline"/>
	<path d="M17.011,7.521h-2.479v1.602h2.771v1.248h-4.294V3.634h4.15v1.248h-2.626v1.403h2.479V7.521z" display="inline"/>
</g>
<g id="P2" display="none">
	<path d="M19.024,28.186c0.472-1.148,0.803-2.149,0.992-3.001c0.282-1.24,0.423-2.417,0.423-3.534   c0-1.066-0.099-2.078-0.295-3.035c-0.197-0.957-0.575-2.146-1.135-3.568h1.146c0.628,1.03,1.101,2.092,1.419,3.186   c0.319,1.094,0.478,2.185,0.478,3.274c0,1.094-0.159,2.218-0.476,3.374s-0.786,2.257-1.407,3.305H19.024z" display="inline"/>
</g>
<g id="P1" display="none">
	<path d="M8.327,28.186H7.182c-0.605-1.025-1.071-2.111-1.396-3.257s-0.487-2.257-0.487-3.333   c0-1.162,0.163-2.296,0.489-3.401c0.326-1.105,0.795-2.154,1.408-3.148h1.146c-0.56,1.422-0.938,2.611-1.135,3.568   c-0.197,0.957-0.295,1.969-0.295,3.035c0,1.103,0.139,2.27,0.416,3.5C7.522,26.016,7.855,27.028,8.327,28.186z" display="inline"/>
</g>
<g id="Type">
	<path d="M53.265,12.893v17.022H26.785V12.893H53.265z M28.204,14.312v13.077l10.899-13.077H28.204z M29.127,28.497h21.795   l-3.793-4.552H32.921L29.127,28.497z M34.104,22.525h11.844l-5.922-7.106L34.104,22.525z M51.846,14.312H40.948l10.897,13.077   V14.312z"/>
</g>
<g id="STK">
	<path d="M18.101,21.68c0,3.77-1.473,6.13-4.277,6.13c-2.693,0-4.128-2.456-4.151-6.017c0-3.641,1.549-6.083,4.283-6.083   C16.786,15.71,18.101,18.237,18.101,21.68z M11.897,21.789c-0.006,2.854,0.775,4.33,1.998,4.33c1.313,0,1.982-1.585,1.982-4.389   c0-2.727-0.641-4.323-1.98-4.323C12.723,17.407,11.894,18.863,11.897,21.789z"/>
</g>
<g id="ECH">
	<rect width="27.832" x="26.078" fill="none" height="8.039" y="2.802"/>
	<path d="M40.755,3.634v6.736h-1.523V3.634H40.755z"/>
</g>
<g id="PF">
	<rect width="60" x="0" fill="none" height="15.475" y="44.525"/>
	<path d="M18.255,49.086c0.396-0.088,0.922-0.13,1.491-0.13c0.624,0,1.241,0.081,1.704,0.476c0.36,0.306,0.51,0.756,0.51,1.228   c0,0.598-0.31,1.175-0.975,1.47v0.036c0.78,0.224,1.193,0.867,1.193,1.607c0,0.558-0.18,0.994-0.494,1.324   c-0.401,0.438-1.085,0.68-2.213,0.68c-0.498,0-0.917-0.03-1.216-0.076V49.086z M19.56,51.755h0.282   c0.475,0,0.833-0.397,0.833-0.945c0-0.494-0.233-0.877-0.767-0.877c-0.145,0-0.263,0.013-0.348,0.043V51.755z M19.56,54.744   c0.084,0.02,0.179,0.023,0.292,0.023c0.534,0,0.969-0.328,0.969-1.011c0-0.678-0.46-1.027-0.979-1.029H19.56V54.744z"/>
	<path d="M24.08,53.743c0.016,0.763,0.457,1.045,1.036,1.045c0.373,0,0.694-0.08,0.933-0.166l0.171,0.937   c-0.333,0.136-0.848,0.224-1.341,0.224c-1.333,0-2.066-0.879-2.066-2.407c0-1.645,0.857-2.624,1.958-2.624   c1.052,0,1.667,0.83,1.667,2.311c0,0.35-0.016,0.542-0.04,0.682H24.08z M25.243,52.826c0.004-0.628-0.162-1.12-0.552-1.12   c-0.425,0-0.599,0.626-0.61,1.12H25.243z"/>
	<path d="M27.171,52.303c0-0.534-0.022-1.006-0.04-1.472h1.131l0.067,0.565h0.02c0.25-0.39,0.676-0.646,1.186-0.646   c0.927,0,1.302,0.741,1.302,1.835v3.137h-1.312v-3.062c0-0.412-0.097-0.808-0.482-0.808c-0.216,0-0.399,0.15-0.491,0.439   c-0.036,0.099-0.067,0.263-0.067,0.452v2.978h-1.312V52.303z"/>
	<path d="M33.062,49.538c0.008,0.419-0.291,0.709-0.687,0.709c-0.361,0-0.656-0.29-0.648-0.709c-0.008-0.44,0.303-0.717,0.666-0.717   C32.771,48.821,33.062,49.098,33.062,49.538z M31.751,55.723v-4.892h1.312v4.892H31.751z"/>
	<path d="M33.98,52.303c0-0.534-0.022-1.006-0.04-1.472h1.13l0.067,0.565h0.021c0.251-0.39,0.676-0.646,1.186-0.646   c0.928,0,1.302,0.741,1.302,1.835v3.137h-1.312v-3.062c0-0.412-0.096-0.808-0.481-0.808c-0.217,0-0.399,0.15-0.491,0.439   c-0.036,0.099-0.067,0.263-0.067,0.452v2.978H33.98V52.303z"/>
	<path d="M40.757,55.723l-0.072-0.482h-0.021c-0.267,0.378-0.647,0.562-1.081,0.562c-0.739,0-1.288-0.618-1.288-1.485   c0-1.285,1.13-1.809,2.234-1.819V52.39c0-0.387-0.224-0.668-0.688-0.668c-0.39,0-0.702,0.105-0.995,0.285l-0.237-0.882   c0.27-0.155,0.837-0.374,1.52-0.374c1.485,0,1.729,1.042,1.729,2.033v1.819c0,0.39,0.016,0.788,0.071,1.119H40.757z M40.568,53.341   c-0.433,0.008-1.036,0.156-1.036,0.837c0,0.482,0.271,0.662,0.473,0.662c0.212,0,0.445-0.125,0.535-0.421   c0.021-0.062,0.028-0.142,0.028-0.224V53.341z"/>
</g>
<g id="Des">
	<rect width="60" x="0" fill="none" height="14.525" y="31.722"/>
	<path d="M10.176,33.257c0.65-0.154,1.48-0.234,2.389-0.234c1.111,0,2.144,0.186,2.892,0.849c0.594,0.521,0.864,1.298,0.864,2.152   c0,1.147-0.613,2.164-1.804,2.667v0.057c1.405,0.392,2.192,1.538,2.192,2.987c0,1.001-0.324,1.799-0.877,2.393   c-0.707,0.784-1.892,1.17-3.638,1.17c-0.893,0-1.553-0.055-2.018-0.129V33.257z M12.088,38.14h0.567c0.979,0,1.77-0.788,1.77-1.9   c0-0.994-0.463-1.762-1.659-1.762c-0.289,0-0.518,0.025-0.677,0.08V38.14z M12.088,43.749c0.16,0.036,0.358,0.052,0.605,0.052   c1.175,0,2.027-0.704,2.027-2.087c0-1.422-0.979-2.127-2.079-2.135h-0.554V43.749z"/>
	<path d="M19.771,41.346c0.021,1.958,0.93,2.491,1.953,2.491c0.64,0,1.183-0.145,1.573-0.312l0.272,1.383   c-0.547,0.258-1.393,0.412-2.194,0.412c-2.259,0-3.472-1.64-3.472-4.353c0-2.901,1.39-4.665,3.261-4.665   c1.844,0,2.773,1.666,2.773,4.016c0,0.5-0.021,0.796-0.051,1.027H19.771z M22.156,39.978c0.016-1.407-0.447-2.243-1.128-2.243   c-0.834,0-1.21,1.215-1.249,2.243H22.156z"/>
	<path d="M25.335,38.916c0-0.99-0.044-1.693-0.072-2.47h1.666l0.098,1.031h0.036c0.416-0.702,1.154-1.175,2.072-1.175   c1.461,0,2.24,1.135,2.24,3.167v5.742h-1.922v-5.559c0-0.876-0.185-1.731-1.023-1.731c-0.477,0-0.905,0.366-1.074,1.072   c-0.057,0.193-0.098,0.477-0.098,0.798v5.42h-1.922V38.916z"/>
	<path d="M35.123,34.149c0.011,0.66-0.434,1.107-1.062,1.107c-0.56,0-1.009-0.447-0.999-1.107c-0.01-0.683,0.46-1.117,1.027-1.117   C34.689,33.032,35.123,33.467,35.123,34.149z M33.146,45.212v-8.766h1.922v8.766H33.146z"/>
	<path d="M36.836,38.916c0-0.99-0.043-1.693-0.071-2.47h1.665l0.098,1.031h0.036c0.416-0.702,1.154-1.175,2.072-1.175   c1.461,0,2.239,1.135,2.239,3.167v5.742h-1.922v-5.559c0-0.876-0.186-1.731-1.022-1.731c-0.478,0-0.905,0.366-1.075,1.072   c-0.057,0.193-0.098,0.477-0.098,0.798v5.42h-1.922V38.916z"/>
	<path d="M48.375,45.212l-0.113-0.893h-0.043c-0.438,0.676-1.088,1.037-1.856,1.037c-1.257,0-2.206-1.055-2.206-2.593   c0-2.252,1.905-3.204,3.888-3.222V39.31c0-0.913-0.356-1.555-1.31-1.555c-0.627,0-1.159,0.183-1.635,0.486L44.73,36.93   c0.432-0.272,1.354-0.627,2.422-0.627c2.257,0,2.834,1.545,2.834,3.41v3.503c0,0.682,0.021,1.415,0.113,1.996H48.375z    M48.096,40.822c-0.748,0.011-2.104,0.219-2.104,1.744c0,0.989,0.528,1.347,0.95,1.347c0.482,0,0.945-0.327,1.107-1.003   c0.036-0.137,0.047-0.294,0.047-0.445V40.822z"/>
</g>
<g>
</g>
<g>
</g>
<g>
</g>
<g>
</g>
<g>
</g>
<g>
</g>
</svg>