<!-- Generator: Adobe Illustrator 25.2.3, SVG Export Plug-In . SVG Version: 6.00 Build 0)  --><svg x="0px" enable-background="new 0 0 60 60" y="0px" width="60px" xmlns:xlink="http://www.w3.org/1999/xlink" viewBox="0 0 60 60" height="60px" id="Layer_1" xmlns="http://www.w3.org/2000/svg" xml:space="preserve" version="1.1">
<rect width="60" fill="#FBF49C" x="0" height="60" id="UnitColor" y="-0.085"/>
<rect width="60" fill="#F7EC13" height="20.189" id="CS_2_" y="11.533" display="none"/>
<g id="Gar" display="none">
	<rect width="14.843" fill="none" x="0.73" height="8.039" y="2.802" display="inline"/>
	<path d="M11.03,10.06c-0.472,0.163-1.361,0.379-2.249,0.379c-1.231,0-2.119-0.308-2.739-0.903   C5.424,8.949,5.085,8.072,5.089,7.083C5.097,4.842,6.73,3.567,8.936,3.567c0.87,0,1.539,0.165,1.873,0.323L10.49,5.111   C10.117,4.95,9.664,4.825,8.922,4.825c-1.27,0-2.235,0.714-2.235,2.18c0,1.391,0.878,2.205,2.125,2.205   c0.344,0,0.623-0.04,0.745-0.095V7.699H8.516V6.512h2.514V10.06z" display="inline"/>
</g>
<g id="Eng" display="none">
	<rect width="27.832" fill="none" x="1.1" height="8.039" y="2.802" display="inline"/>
	<path d="M17.011,7.521h-2.479v1.602h2.771v1.248h-4.294V3.634h4.15v1.248h-2.626v1.403h2.479V7.521z" display="inline"/>
</g>
<g id="P2" display="none">
	<path d="M19.024,28.186c0.472-1.148,0.803-2.149,0.992-3.001c0.282-1.24,0.423-2.417,0.423-3.534   c0-1.066-0.099-2.078-0.295-3.035c-0.197-0.957-0.575-2.146-1.135-3.568h1.146c0.628,1.03,1.101,2.092,1.419,3.186   c0.319,1.094,0.478,2.185,0.478,3.274c0,1.094-0.159,2.218-0.476,3.374s-0.786,2.257-1.407,3.305H19.024z" display="inline"/>
</g>
<g id="P1" display="none">
	<path d="M8.327,28.186H7.182c-0.605-1.025-1.071-2.111-1.396-3.257s-0.487-2.257-0.487-3.333   c0-1.162,0.163-2.296,0.489-3.401c0.326-1.105,0.795-2.154,1.408-3.148h1.146c-0.56,1.422-0.938,2.611-1.135,3.568   c-0.197,0.957-0.295,1.969-0.295,3.035c0,1.103,0.139,2.27,0.416,3.5C7.522,26.016,7.855,27.028,8.327,28.186z" display="inline"/>
</g>
<g id="Type">
	<path d="M53.265,12.893v17.022H26.785V12.893H53.265z M51.846,14.312H28.204v14.185h23.642V14.312z M31.115,24.371   c-0.792-0.819-1.217-1.895-1.198-3.033c0.038-2.312,1.878-4.152,4.19-4.189c0.003,0,0.005,0.002,0.007,0.002v-0.002h11.814   c0.006,0,0.012-0.004,0.019-0.004c2.349,0.039,4.228,1.98,4.19,4.329c-0.038,2.311-1.88,4.151-4.189,4.189   c-0.005,0-0.009,0-0.013,0v0.004H34.118c-0.001,0-0.003,0-0.004,0s-0.004,0-0.007,0C32.97,25.647,31.907,25.188,31.115,24.371z    M31.336,21.361c-0.012,0.758,0.271,1.477,0.8,2.022c0.527,0.545,1.235,0.852,1.994,0.864h11.776c0.006,0,0.012-0.004,0.017-0.004   c1.543-0.025,2.771-1.253,2.795-2.794c0.025-1.562-1.222-2.854-2.782-2.885v0.003H34.13C32.589,18.592,31.361,19.819,31.336,21.361   z M37.26,21.404c0-1.436,1.238-2.601,2.766-2.601s2.765,1.165,2.765,2.601c0,1.437-1.237,2.601-2.765,2.601   S37.26,22.84,37.26,21.404z"/>
</g>
<g id="STK">
	<path d="M13.307,17.911h-0.036l-2.139,1.074l-0.386-1.671l2.857-1.406h1.847v11.703h-2.144V17.911z"/>
</g>
<g id="ECH">
	<rect width="27.832" x="26.078" fill="none" height="8.039" y="2.802"/>
	<path d="M39.33,3.634v6.736h-1.523V3.634H39.33z"/>
	<path d="M42.18,3.634v6.736h-1.522V3.634H42.18z"/>
</g>
<g id="PF">
	<rect width="60" x="0" fill="none" height="15.475" y="44.525"/>
	<path d="M29.696,52.494v0.939H27.71v-0.939H29.696z"/>
	<path d="M32.285,52.494v0.939H30.3v-0.939H32.285z"/>
</g>
<g id="Des">
	<rect width="60" x="0" fill="none" height="14.525" y="31.722"/>
	<path d="M18.006,33.257c0.558-0.149,1.329-0.234,2.156-0.234c1.414,0,2.408,0.339,3.135,1.005c0.995,0.882,1.603,2.471,1.603,4.902   c0,2.603-0.651,4.237-1.581,5.134c-0.807,0.832-1.99,1.233-3.545,1.233c-0.666,0-1.336-0.06-1.768-0.129V33.257z M19.918,43.675   c0.16,0.036,0.345,0.036,0.471,0.036c1.314,0,2.522-1.108,2.522-4.807c0-2.747-0.778-4.335-2.442-4.335   c-0.19,0-0.386,0.016-0.551,0.062V43.675z"/>
	<path d="M26.466,33.076h1.922v10.507h3.243v1.629h-5.165V33.076z"/>
	<path d="M33.987,45.212L31.25,33.076h2.104l1.008,5.445c0.242,1.332,0.541,2.934,0.724,4.411h0.052   c0.167-1.495,0.428-3.056,0.678-4.458l0.979-5.398h2.086l-2.793,12.136H33.987z"/>
	<path d="M41.979,33.076v12.136h-1.922V33.076H41.979z"/>
</g>
<g>
</g>
<g>
</g>
<g>
</g>
<g>
</g>
<g>
</g>
<g>
</g>
</svg>