<!-- Generator: Adobe Illustrator 25.2.3, SVG Export Plug-In . SVG Version: 6.00 Build 0)  --><svg x="0px" enable-background="new 0 0 60 60" y="0px" width="60px" xmlns:xlink="http://www.w3.org/1999/xlink" viewBox="0 0 60 60" height="60px" id="Layer_1" xmlns="http://www.w3.org/2000/svg" xml:space="preserve" version="1.1">
<rect width="60" fill="#FBF49C" x="0" height="60" id="UnitColor" y="-0.085"/>
<rect width="60" fill="#F7EC13" height="20.189" id="CS_2_" y="11.533" display="none"/>
<g id="Gar">
	<rect width="14.843" x="0.73" fill="none" height="8.039" y="2.802"/>
	<path d="M11.03,10.06c-0.472,0.163-1.361,0.379-2.249,0.379c-1.231,0-2.119-0.308-2.739-0.903C5.424,8.949,5.085,8.072,5.089,7.083   C5.097,4.842,6.73,3.567,8.936,3.567c0.87,0,1.539,0.165,1.873,0.323L10.49,5.111C10.117,4.95,9.664,4.825,8.922,4.825   c-1.27,0-2.235,0.714-2.235,2.18c0,1.391,0.878,2.205,2.125,2.205c0.344,0,0.623-0.04,0.745-0.095V7.699H8.516V6.512h2.514V10.06z"/>
</g>
<g id="Eng" display="none">
	<rect width="27.832" fill="none" x="1.1" height="8.039" y="2.802" display="inline"/>
	<path d="M17.011,7.521h-2.479v1.602h2.771v1.248h-4.294V3.634h4.15v1.248h-2.626v1.403h2.479V7.521z" display="inline"/>
</g>
<g id="P2" display="none">
	<path d="M19.024,28.186c0.472-1.148,0.803-2.149,0.992-3.001c0.282-1.24,0.423-2.417,0.423-3.534   c0-1.066-0.099-2.078-0.295-3.035c-0.197-0.957-0.575-2.146-1.135-3.568h1.146c0.628,1.03,1.101,2.092,1.419,3.186   c0.319,1.094,0.478,2.185,0.478,3.274c0,1.094-0.159,2.218-0.476,3.374s-0.786,2.257-1.407,3.305H19.024z" display="inline"/>
</g>
<g id="P1" display="none">
	<path d="M8.327,28.186H7.182c-0.605-1.025-1.071-2.111-1.396-3.257s-0.487-2.257-0.487-3.333   c0-1.162,0.163-2.296,0.489-3.401c0.326-1.105,0.795-2.154,1.408-3.148h1.146c-0.56,1.422-0.938,2.611-1.135,3.568   c-0.197,0.957-0.295,1.969-0.295,3.035c0,1.103,0.139,2.27,0.416,3.5C7.522,26.016,7.855,27.028,8.327,28.186z" display="inline"/>
</g>
<g id="Type">
	<path d="M53.265,12.893v17.022H26.785V12.893H53.265z M40.025,20.577l10.442-6.265H34.536v2.972L40.025,20.577z M34.536,23.87   l4.11-2.466l-4.11-2.466V23.87z M34.536,28.497h15.932l-10.442-6.265l-5.489,3.293V28.497z M41.404,21.404l10.441,6.265v-12.53   L41.404,21.404z"/>
</g>
<g id="STK">
	<path d="M13.307,17.911h-0.036l-2.139,1.074l-0.386-1.671l2.857-1.406h1.847v11.703h-2.144V17.911z"/>
</g>
<g id="ECH">
	<rect width="27.832" x="26.078" fill="none" height="8.039" y="2.802"/>
	<path d="M39.33,3.634v6.736h-1.523V3.634H39.33z"/>
	<path d="M42.18,3.634v6.736h-1.522V3.634H42.18z"/>
</g>
<g id="PF">
	<rect width="60" x="0" fill="none" height="15.475" y="44.525"/>
	<path d="M19.555,48.986h2.93v1.137h-1.618v1.731h1.519v1.089h-1.519v2.779h-1.312V48.986z"/>
	<path d="M24.818,49.514v1.317h0.957v0.929h-0.957v2.236c0,0.566,0.235,0.707,0.494,0.707c0.128,0,0.228-0.01,0.345-0.029   l0.01,1.023c-0.181,0.05-0.458,0.085-0.8,0.085c-0.378,0-0.71-0.088-0.947-0.311c-0.268-0.256-0.415-0.632-0.415-1.399V51.76   h-0.576v-0.929h0.576v-1.005L24.818,49.514z"/>
	<path d="M30.622,53.367c-0.034-0.646-0.076-1.508-0.062-2.234h-0.026c-0.121,0.723-0.3,1.552-0.426,2.075l-0.585,2.404h-0.929   l-0.559-2.366c-0.13-0.545-0.308-1.383-0.411-2.113h-0.024c-0.02,0.735-0.067,1.585-0.102,2.251l-0.114,2.339h-1.124l0.484-6.736   h1.383l0.537,2.438c0.187,0.854,0.357,1.599,0.478,2.36h0.022c0.103-0.748,0.252-1.508,0.429-2.36l0.531-2.438h1.383l0.409,6.736   h-1.173L30.622,53.367z"/>
	<path d="M34.987,55.723l-0.072-0.482h-0.021c-0.267,0.378-0.647,0.562-1.081,0.562c-0.739,0-1.288-0.618-1.288-1.485   c0-1.285,1.13-1.809,2.234-1.819V52.39c0-0.387-0.224-0.668-0.688-0.668c-0.39,0-0.702,0.105-0.995,0.285l-0.237-0.882   c0.27-0.155,0.837-0.374,1.52-0.374c1.485,0,1.729,1.042,1.729,2.033v1.819c0,0.39,0.016,0.788,0.071,1.119H34.987z M34.799,53.341   c-0.433,0.008-1.036,0.156-1.036,0.837c0,0.482,0.271,0.662,0.473,0.662c0.212,0,0.445-0.125,0.535-0.421   c0.021-0.062,0.028-0.142,0.028-0.224V53.341z"/>
	<path d="M40.562,48.807v5.472c0,0.46,0.022,0.996,0.04,1.444h-1.127l-0.071-0.553h-0.024c-0.179,0.348-0.569,0.633-1.017,0.633   c-1.043,0-1.521-1.153-1.521-2.514c0-1.703,0.746-2.538,1.57-2.538c0.436,0,0.697,0.217,0.825,0.493h0.02v-2.438H40.562z    M39.257,52.711c0-0.087,0-0.19-0.018-0.285c-0.048-0.299-0.201-0.57-0.468-0.57c-0.458,0-0.629,0.667-0.629,1.461   c0,0.93,0.254,1.413,0.616,1.413c0.17,0,0.353-0.087,0.454-0.424c0.028-0.076,0.044-0.18,0.044-0.306V52.711z"/>
</g>
<g id="Des">
	<rect width="60" x="0" fill="none" height="14.525" y="31.722"/>
	<path d="M12.21,33.076h4.982v1.668h-3.06v3.63H17v1.606h-2.867v5.231H12.21V33.076z"/>
	<path d="M20.9,34.099v2.348h1.7v1.394h-1.7v4.546c0,1.073,0.417,1.346,0.898,1.346c0.226,0,0.406-0.018,0.594-0.054l0.039,1.496   c-0.29,0.09-0.711,0.146-1.256,0.146c-0.622,0-1.169-0.154-1.552-0.546c-0.424-0.432-0.645-1.066-0.645-2.369V37.84h-1.05v-1.394   h1.05v-1.857L20.9,34.099z"/>
	<path d="M31.305,40.525c-0.069-1.359-0.149-3.013-0.115-4.353h-0.06c-0.237,1.325-0.561,2.799-0.855,3.956l-1.252,4.939h-1.318   l-1.193-4.8c-0.31-1.235-0.646-2.74-0.855-4.096h-0.051c-0.015,1.371-0.098,2.978-0.167,4.415l-0.214,4.624h-1.676l0.804-12.136   h2.048l1.17,4.913c0.368,1.567,0.674,2.84,0.911,4.216h0.044c0.208-1.363,0.479-2.636,0.829-4.216l1.146-4.913h2.068l0.718,12.136   h-1.745L31.305,40.525z"/>
	<path d="M38.692,45.212l-0.113-0.893h-0.043c-0.438,0.676-1.088,1.037-1.856,1.037c-1.257,0-2.206-1.055-2.206-2.593   c0-2.252,1.905-3.204,3.888-3.222V39.31c0-0.913-0.356-1.555-1.31-1.555c-0.627,0-1.159,0.183-1.635,0.486l-0.369-1.312   c0.432-0.272,1.354-0.627,2.422-0.627c2.257,0,2.834,1.545,2.834,3.41v3.503c0,0.682,0.021,1.415,0.113,1.996H38.692z    M38.413,40.822c-0.748,0.011-2.104,0.219-2.104,1.744c0,0.989,0.528,1.347,0.95,1.347c0.482,0,0.945-0.327,1.107-1.003   c0.036-0.137,0.047-0.294,0.047-0.445V40.822z"/>
	<path d="M47.973,32.752v10.091c0,0.719,0.044,1.696,0.072,2.369h-1.65l-0.112-1.04H46.23c-0.304,0.623-0.972,1.185-1.829,1.185   c-1.695,0-2.648-1.86-2.648-4.502c0-3.076,1.322-4.552,2.739-4.552c0.722,0,1.252,0.347,1.533,0.952h0.036v-4.503H47.973z    M46.062,39.798c0-0.168,0-0.363-0.028-0.541c-0.082-0.704-0.478-1.327-1.044-1.327c-0.972,0-1.319,1.383-1.319,2.95   c0,1.75,0.466,2.891,1.272,2.891c0.361,0,0.81-0.188,1.052-1.087c0.047-0.149,0.067-0.345,0.067-0.563V39.798z"/>
</g>
<g>
</g>
<g>
</g>
<g>
</g>
<g>
</g>
<g>
</g>
<g>
</g>
</svg>