<!-- Generator: Adobe Illustrator 25.2.3, SVG Export Plug-In . SVG Version: 6.00 Build 0)  --><svg x="0px" enable-background="new 0 0 60 60" y="0px" width="60px" xmlns:xlink="http://www.w3.org/1999/xlink" viewBox="0 0 60 60" height="60px" id="Layer_1" xmlns="http://www.w3.org/2000/svg" xml:space="preserve" version="1.1">
<rect width="60" fill="#FBF49C" x="0" height="60" id="UnitColor" y="-0.085"/>
<rect width="60" fill="#F7EC13" height="20.189" id="CS_2_" y="11.533" display="none"/>
<g id="Gar">
	<rect width="14.843" x="0.73" fill="none" height="8.039" y="2.802"/>
	<path d="M11.03,10.06c-0.472,0.163-1.361,0.379-2.249,0.379c-1.231,0-2.119-0.308-2.739-0.903C5.424,8.949,5.085,8.072,5.089,7.083   C5.097,4.842,6.73,3.567,8.936,3.567c0.87,0,1.539,0.165,1.873,0.323L10.49,5.111C10.117,4.95,9.664,4.825,8.922,4.825   c-1.27,0-2.235,0.714-2.235,2.18c0,1.391,0.878,2.205,2.125,2.205c0.344,0,0.623-0.04,0.745-0.095V7.699H8.516V6.512h2.514V10.06z"/>
</g>
<g id="Eng" display="none">
	<rect width="27.832" fill="none" x="1.1" height="8.039" y="2.802" display="inline"/>
	<path d="M17.011,7.521h-2.479v1.602h2.771v1.248h-4.294V3.634h4.15v1.248h-2.626v1.403h2.479V7.521z" display="inline"/>
</g>
<g id="P2" display="none">
	<path d="M19.024,28.186c0.472-1.148,0.803-2.149,0.992-3.001c0.282-1.24,0.423-2.417,0.423-3.534   c0-1.066-0.099-2.078-0.295-3.035c-0.197-0.957-0.575-2.146-1.135-3.568h1.146c0.628,1.03,1.101,2.092,1.419,3.186   c0.319,1.094,0.478,2.185,0.478,3.274c0,1.094-0.159,2.218-0.476,3.374s-0.786,2.257-1.407,3.305H19.024z" display="inline"/>
</g>
<g id="P1" display="none">
	<path d="M8.327,28.186H7.182c-0.605-1.025-1.071-2.111-1.396-3.257s-0.487-2.257-0.487-3.333   c0-1.162,0.163-2.296,0.489-3.401c0.326-1.105,0.795-2.154,1.408-3.148h1.146c-0.56,1.422-0.938,2.611-1.135,3.568   c-0.197,0.957-0.295,1.969-0.295,3.035c0,1.103,0.139,2.27,0.416,3.5C7.522,26.016,7.855,27.028,8.327,28.186z" display="inline"/>
</g>
<g id="Type">
	<path d="M53.265,12.893v17.022H26.785V12.893H53.265z M28.204,14.312v13.077l10.899-13.077H28.204z M29.127,28.497h21.795   l-3.793-4.552H32.921L29.127,28.497z M34.104,22.525h11.844l-5.922-7.106L34.104,22.525z M51.846,14.312H40.948l10.897,13.077   V14.312z"/>
</g>
<g id="STK">
	<path d="M18.101,21.68c0,3.77-1.473,6.13-4.277,6.13c-2.693,0-4.128-2.456-4.151-6.017c0-3.641,1.549-6.083,4.283-6.083   C16.786,15.71,18.101,18.237,18.101,21.68z M11.897,21.789c-0.006,2.854,0.775,4.33,1.998,4.33c1.313,0,1.982-1.585,1.982-4.389   c0-2.727-0.641-4.323-1.98-4.323C12.723,17.407,11.894,18.863,11.897,21.789z"/>
</g>
<g id="ECH">
	<rect width="27.832" x="26.078" fill="none" height="8.039" y="2.802"/>
	<path d="M40.755,3.634v6.736h-1.523V3.634H40.755z"/>
</g>
<g id="PF">
	<rect width="60" x="0" fill="none" height="15.475" y="44.525"/>
	<path d="M23.75,55.545c-0.288,0.114-0.903,0.237-1.393,0.237c-0.771,0-1.356-0.216-1.8-0.665c-0.58-0.568-0.888-1.561-0.872-2.722   c0.031-2.452,1.427-3.469,2.859-3.469c0.512,0,0.89,0.102,1.1,0.203l-0.227,1.129c-0.193-0.098-0.447-0.154-0.771-0.154   c-0.889,0-1.597,0.615-1.597,2.368c0,1.617,0.629,2.203,1.238,2.203c0.119,0,0.207-0.013,0.261-0.037v-1.621h-0.604v-1.071h1.806   V55.545z"/>
	<path d="M24.618,52.303c0-0.486-0.022-1.015-0.04-1.472h1.135l0.067,0.716h0.036c0.215-0.521,0.611-0.796,0.969-0.796   c0.132,0,0.202,0.008,0.279,0.023v1.297c-0.083-0.016-0.168-0.016-0.285-0.016c-0.273,0-0.648,0.192-0.791,0.695   c-0.034,0.108-0.057,0.285-0.057,0.488v2.483h-1.312V52.303z"/>
	<path d="M27.518,55.723c0.018-0.432,0.04-0.984,0.04-1.444v-5.472h1.305v2.523h0.02c0.236-0.354,0.547-0.579,1.02-0.579   c0.947,0,1.384,1.076,1.384,2.392c0,1.714-0.679,2.66-1.594,2.66c-0.406,0-0.693-0.167-0.959-0.655h-0.024l-0.071,0.575H27.518z    M28.863,53.973c0,0.124,0.023,0.239,0.051,0.313c0.11,0.349,0.293,0.443,0.448,0.443c0.438,0,0.623-0.547,0.623-1.484   c0-0.845-0.194-1.39-0.627-1.39c-0.205,0-0.378,0.212-0.446,0.449c-0.026,0.081-0.049,0.215-0.049,0.303V53.973z"/>
	<path d="M35.612,54.229c0,0.524,0.021,1.036,0.04,1.493h-1.131l-0.071-0.516H34.43c-0.226,0.33-0.623,0.596-1.129,0.596   c-0.932,0-1.305-0.688-1.305-2.006v-2.966h1.312v2.821c0,0.64,0.128,1.056,0.489,1.056c0.222,0,0.365-0.17,0.427-0.335   c0.043-0.095,0.075-0.251,0.075-0.417v-3.125h1.312V54.229z"/>
	<path d="M36.508,55.723c0.018-0.432,0.039-0.984,0.039-1.444v-5.472h1.305v2.523h0.021c0.236-0.354,0.547-0.579,1.02-0.579   c0.947,0,1.384,1.076,1.384,2.392c0,1.714-0.679,2.66-1.595,2.66c-0.406,0-0.693-0.167-0.959-0.655h-0.024l-0.071,0.575H36.508z    M37.852,53.973c0,0.124,0.024,0.239,0.052,0.313c0.109,0.349,0.293,0.443,0.448,0.443c0.438,0,0.623-0.547,0.623-1.484   c0-0.845-0.195-1.39-0.627-1.39c-0.206,0-0.379,0.212-0.446,0.449c-0.025,0.081-0.05,0.215-0.05,0.303V53.973z"/>
</g>
<g id="Des">
	<rect width="60" x="0" fill="none" height="14.525" y="31.722"/>
	<path d="M19.368,44.896c-0.515,0.214-1.519,0.425-2.347,0.425c-1.244,0-2.27-0.347-3.077-1.191c-0.969-0.984-1.54-2.72-1.52-4.871   c0.041-4.557,2.512-6.29,4.889-6.29c0.851,0,1.494,0.168,1.872,0.355L18.82,34.98c-0.337-0.172-0.782-0.285-1.394-0.285   c-1.561,0-3.003,1.155-3.003,4.582c0,3.286,1.265,4.408,2.527,4.408c0.325,0,0.534-0.047,0.64-0.099v-3.39h-1.301v-1.578h3.08   V44.896z"/>
	<path d="M21.044,38.916c0-0.812-0.044-1.725-0.072-2.47h1.681l0.098,1.322h0.056c0.339-0.889,1.064-1.466,1.781-1.466   c0.187,0,0.292,0.01,0.408,0.03v1.922c-0.118-0.021-0.244-0.021-0.411-0.021c-0.665,0-1.334,0.556-1.539,1.505   c-0.049,0.211-0.08,0.507-0.08,0.841v4.632h-1.922V38.916z"/>
	<path d="M25.886,45.212c0.028-0.652,0.072-1.65,0.072-2.369V32.752h1.912v4.649h0.036c0.438-0.742,1.037-1.099,1.836-1.099   c1.552,0,2.445,1.765,2.445,4.353c0,3.115-1.258,4.701-2.769,4.701c-0.819,0-1.312-0.408-1.729-1.228h-0.051l-0.113,1.083H25.886z    M27.87,42.095c0,0.211,0.031,0.411,0.077,0.553c0.252,0.924,0.701,1.123,1.028,1.123c0.936,0,1.296-1.223,1.296-2.982   c0-1.624-0.378-2.858-1.311-2.858c-0.493,0-0.903,0.57-1.021,1.146c-0.039,0.164-0.069,0.394-0.069,0.568V42.095z"/>
	<path d="M39.516,42.664c0,0.952,0.044,1.803,0.072,2.548h-1.666l-0.112-0.921h-0.036c-0.345,0.519-1.036,1.065-1.96,1.065   c-1.606,0-2.246-1.214-2.246-3.495v-5.415h1.922v5.182c0,1.248,0.226,2.119,1.012,2.119c0.589,0,0.89-0.512,0.985-0.856   c0.066-0.198,0.107-0.471,0.107-0.762v-5.683h1.922V42.664z"/>
	<path d="M41.24,45.212c0.028-0.652,0.072-1.65,0.072-2.369V32.752h1.911v4.649h0.036c0.438-0.742,1.037-1.099,1.836-1.099   c1.553,0,2.446,1.765,2.446,4.353c0,3.115-1.259,4.701-2.77,4.701c-0.818,0-1.312-0.408-1.729-1.228h-0.052l-0.112,1.083H41.24z    M43.224,42.095c0,0.211,0.03,0.411,0.077,0.553c0.253,0.924,0.701,1.123,1.028,1.123c0.936,0,1.296-1.223,1.296-2.982   c0-1.624-0.379-2.858-1.312-2.858c-0.492,0-0.902,0.57-1.021,1.146c-0.039,0.164-0.069,0.394-0.069,0.568V42.095z"/>
</g>
<g>
</g>
<g>
</g>
<g>
</g>
<g>
</g>
<g>
</g>
<g>
</g>
</svg>