<!-- Generator: Adobe Illustrator 25.2.3, SVG Export Plug-In . SVG Version: 6.00 Build 0)  --><svg x="0px" enable-background="new 0 0 60 60" y="0px" width="60px" xmlns:xlink="http://www.w3.org/1999/xlink" viewBox="0 0 60 60" height="60px" id="Layer_1" xmlns="http://www.w3.org/2000/svg" xml:space="preserve" version="1.1">
<rect width="60" fill="#FBF49C" x="0" height="60" id="UnitColor" y="-0.085"/>
<rect width="60" fill="#F7EC13" height="20.189" id="CS_2_" y="11.533" display="none"/>
<g id="Gar">
	<rect width="14.843" x="0.73" fill="none" height="8.039" y="2.802"/>
	<path d="M11.03,10.06c-0.472,0.163-1.361,0.379-2.249,0.379c-1.231,0-2.119-0.308-2.739-0.903C5.424,8.949,5.085,8.072,5.089,7.083   C5.097,4.842,6.73,3.567,8.936,3.567c0.87,0,1.539,0.165,1.873,0.323L10.49,5.111C10.117,4.95,9.664,4.825,8.922,4.825   c-1.27,0-2.235,0.714-2.235,2.18c0,1.391,0.878,2.205,2.125,2.205c0.344,0,0.623-0.04,0.745-0.095V7.699H8.516V6.512h2.514V10.06z"/>
</g>
<g id="Eng" display="none">
	<rect width="27.832" fill="none" x="1.1" height="8.039" y="2.802" display="inline"/>
	<path d="M17.011,7.521h-2.479v1.602h2.771v1.248h-4.294V3.634h4.15v1.248h-2.626v1.403h2.479V7.521z" display="inline"/>
</g>
<g id="P2" display="none">
	<path d="M19.024,28.186c0.472-1.148,0.803-2.149,0.992-3.001c0.282-1.24,0.423-2.417,0.423-3.534   c0-1.066-0.099-2.078-0.295-3.035c-0.197-0.957-0.575-2.146-1.135-3.568h1.146c0.628,1.03,1.101,2.092,1.419,3.186   c0.319,1.094,0.478,2.185,0.478,3.274c0,1.094-0.159,2.218-0.476,3.374s-0.786,2.257-1.407,3.305H19.024z" display="inline"/>
</g>
<g id="P1" display="none">
	<path d="M8.327,28.186H7.182c-0.605-1.025-1.071-2.111-1.396-3.257s-0.487-2.257-0.487-3.333   c0-1.162,0.163-2.296,0.489-3.401c0.326-1.105,0.795-2.154,1.408-3.148h1.146c-0.56,1.422-0.938,2.611-1.135,3.568   c-0.197,0.957-0.295,1.969-0.295,3.035c0,1.103,0.139,2.27,0.416,3.5C7.522,26.016,7.855,27.028,8.327,28.186z" display="inline"/>
</g>
<g id="Type">
	<path d="M53.265,12.893v17.022H26.785V12.893H53.265z M28.204,15.139v12.53l10.443-6.265L28.204,15.139z M50.468,14.312H29.583   l10.443,6.265L50.468,14.312z M29.583,28.497h20.885l-10.442-6.265L29.583,28.497z M41.404,21.404l10.441,6.265v-12.53   L41.404,21.404z"/>
</g>
<g id="STK">
	<path d="M13.307,17.911h-0.036l-2.139,1.074l-0.386-1.671l2.857-1.406h1.847v11.703h-2.144V17.911z"/>
</g>
<g id="ECH">
	<rect width="27.832" x="26.078" fill="none" height="8.039" y="2.802"/>
	<path d="M39.33,3.634v6.736h-1.523V3.634H39.33z"/>
	<path d="M42.18,3.634v6.736h-1.522V3.634H42.18z"/>
</g>
<g id="PF">
	<rect width="60" x="0" fill="none" height="15.475" y="44.525"/>
	<path d="M18.898,54.48c0.257,0.149,0.626,0.257,0.967,0.257c0.637,0,0.989-0.398,0.989-0.941c0-0.725-0.559-1.027-1.22-1.035h-0.18   v-0.957h0.128c0.481-0.008,1.093-0.211,1.093-0.837c0-0.47-0.293-0.747-0.754-0.747c-0.292,0-0.58,0.104-0.817,0.253l-0.175-0.984   c0.267-0.176,0.796-0.342,1.335-0.342c1.142,0,1.719,0.735,1.719,1.567c0,0.649-0.361,1.187-0.935,1.456v0.021   c0.629,0.217,1.112,0.777,1.112,1.652c0,0.995-0.758,1.96-2.173,1.96c-0.525,0-0.991-0.128-1.272-0.286L18.898,54.48z"/>
	<path d="M22.974,55.723V54.84l0.646-0.825c0.842-1.071,1.529-1.963,1.529-2.89c0-0.523-0.291-0.888-0.83-0.888   c-0.408,0-0.737,0.18-0.975,0.325l-0.23-1.012c0.298-0.195,0.853-0.404,1.443-0.404c1.421,0,1.883,0.951,1.883,1.882   c0,1.22-0.765,2.192-1.509,3.062l-0.389,0.459v0.02h1.985v1.154H22.974z"/>
	<path d="M32.894,55.545c-0.287,0.114-0.902,0.237-1.393,0.237c-0.771,0-1.356-0.216-1.8-0.665c-0.58-0.568-0.888-1.561-0.872-2.722   c0.031-2.452,1.427-3.469,2.858-3.469c0.512,0,0.891,0.102,1.101,0.203l-0.227,1.129c-0.193-0.098-0.447-0.154-0.771-0.154   c-0.889,0-1.597,0.615-1.597,2.368c0,1.617,0.629,2.203,1.238,2.203c0.119,0,0.207-0.013,0.261-0.037v-1.621h-0.604v-1.071h1.806   V55.545z"/>
	<path d="M36.042,55.723L35.97,55.24h-0.021c-0.267,0.378-0.647,0.562-1.081,0.562c-0.739,0-1.288-0.618-1.288-1.485   c0-1.285,1.13-1.809,2.234-1.819V52.39c0-0.387-0.224-0.668-0.688-0.668c-0.39,0-0.702,0.105-0.995,0.285l-0.237-0.882   c0.27-0.155,0.837-0.374,1.52-0.374c1.485,0,1.729,1.042,1.729,2.033v1.819c0,0.39,0.016,0.788,0.071,1.119H36.042z M35.854,53.341   c-0.433,0.008-1.036,0.156-1.036,0.837c0,0.482,0.271,0.662,0.473,0.662c0.212,0,0.445-0.125,0.535-0.421   c0.021-0.062,0.028-0.142,0.028-0.224V53.341z"/>
	<path d="M38.189,48.986h2.93v1.137h-1.617v1.731h1.52v1.089h-1.52v2.779h-1.312V48.986z"/>
</g>
<g id="Des">
	<rect width="60" x="0" fill="none" height="14.525" y="31.722"/>
	<path d="M28.919,33.076v12.136h-1.922V33.076H28.919z"/>
	<path d="M32.987,33.076v12.136h-1.922V33.076H32.987z"/>
</g>
<g>
</g>
<g>
</g>
<g>
</g>
<g>
</g>
<g>
</g>
<g>
</g>
</svg>