<!-- Generator: Adobe Illustrator 25.2.3, SVG Export Plug-In . SVG Version: 6.00 Build 0)  --><svg x="0px" enable-background="new 0 0 60 60" y="0px" width="60px" xmlns:xlink="http://www.w3.org/1999/xlink" viewBox="0 0 60 60" height="60px" id="Layer_1" xmlns="http://www.w3.org/2000/svg" xml:space="preserve" version="1.1">
<rect width="60" fill="#FBF49C" x="0" height="60" id="UnitColor" y="-0.085"/>
<rect width="60" fill="#F7EC13" height="20.189" id="CS_2_" y="11.533" display="none"/>
<g id="Gar" display="none">
	<rect width="14.843" fill="none" x="0.73" height="8.039" y="2.802" display="inline"/>
	<path d="M11.03,10.06c-0.472,0.163-1.361,0.379-2.249,0.379c-1.231,0-2.119-0.308-2.739-0.903   C5.424,8.949,5.085,8.072,5.089,7.083C5.097,4.842,6.73,3.567,8.936,3.567c0.87,0,1.539,0.165,1.873,0.323L10.49,5.111   C10.117,4.95,9.664,4.825,8.922,4.825c-1.27,0-2.235,0.714-2.235,2.18c0,1.391,0.878,2.205,2.125,2.205   c0.344,0,0.623-0.04,0.745-0.095V7.699H8.516V6.512h2.514V10.06z" display="inline"/>
</g>
<g id="Eng" display="none">
	<rect width="27.832" fill="none" x="1.1" height="8.039" y="2.802" display="inline"/>
	<path d="M17.011,7.521h-2.479v1.602h2.771v1.248h-4.294V3.634h4.15v1.248h-2.626v1.403h2.479V7.521z" display="inline"/>
</g>
<g id="P2" display="none">
	<path d="M19.024,28.186c0.472-1.148,0.803-2.149,0.992-3.001c0.282-1.24,0.423-2.417,0.423-3.534   c0-1.066-0.099-2.078-0.295-3.035c-0.197-0.957-0.575-2.146-1.135-3.568h1.146c0.628,1.03,1.101,2.092,1.419,3.186   c0.319,1.094,0.478,2.185,0.478,3.274c0,1.094-0.159,2.218-0.476,3.374s-0.786,2.257-1.407,3.305H19.024z" display="inline"/>
</g>
<g id="P1" display="none">
	<path d="M8.327,28.186H7.182c-0.605-1.025-1.071-2.111-1.396-3.257s-0.487-2.257-0.487-3.333   c0-1.162,0.163-2.296,0.489-3.401c0.326-1.105,0.795-2.154,1.408-3.148h1.146c-0.56,1.422-0.938,2.611-1.135,3.568   c-0.197,0.957-0.295,1.969-0.295,3.035c0,1.103,0.139,2.27,0.416,3.5C7.522,26.016,7.855,27.028,8.327,28.186z" display="inline"/>
</g>
<g id="Type">
	<path d="M53.265,12.893v17.022H26.785V12.893H53.265z M28.204,15.139v12.53l10.443-6.265L28.204,15.139z M50.468,14.312H29.583   l10.443,6.265L50.468,14.312z M29.583,28.497h20.885l-10.442-6.265L29.583,28.497z M41.404,21.404l10.441,6.265v-12.53   L41.404,21.404z"/>
</g>
<g id="STK">
	<path d="M13.307,17.911h-0.036l-2.139,1.074l-0.386-1.671l2.857-1.406h1.847v11.703h-2.144V17.911z"/>
</g>
<g id="ECH">
	<rect width="27.832" x="26.078" fill="none" height="8.039" y="2.802"/>
	<path d="M39.33,3.634v6.736h-1.523V3.634H39.33z"/>
	<path d="M42.18,3.634v6.736h-1.522V3.634H42.18z"/>
</g>
<g id="PF">
	<rect width="60" x="0" fill="none" height="15.475" y="44.525"/>
	<path d="M19.484,55.723V54.84l0.646-0.825c0.842-1.071,1.529-1.963,1.529-2.89c0-0.523-0.291-0.888-0.83-0.888   c-0.408,0-0.737,0.18-0.975,0.325l-0.23-1.012c0.298-0.195,0.853-0.404,1.443-0.404c1.421,0,1.883,0.951,1.883,1.882   c0,1.22-0.765,2.192-1.509,3.062l-0.389,0.459v0.02h1.985v1.154H19.484z"/>
	<path d="M27.148,50.365h-1.722l-0.151,1.164c0.066-0.006,0.128-0.006,0.199-0.006c0.279,0.008,0.849,0.138,1.224,0.489   c0.363,0.348,0.563,0.841,0.563,1.495c0,1.262-0.839,2.295-2.262,2.295c-0.462,0-0.961-0.116-1.221-0.261l0.199-1.035   c0.241,0.117,0.577,0.223,0.929,0.223c0.646,0,1.063-0.41,1.063-1.101c0-0.875-0.657-1.166-1.406-1.166   c-0.184,0-0.333,0.004-0.469,0.023l0.363-3.26h2.69V50.365z"/>
	<path d="M29.93,49.086c0.396-0.088,0.922-0.13,1.491-0.13c0.623,0,1.24,0.081,1.703,0.476c0.36,0.306,0.511,0.756,0.511,1.228   c0,0.598-0.31,1.175-0.975,1.47v0.036c0.779,0.224,1.192,0.867,1.192,1.607c0,0.558-0.18,0.994-0.493,1.324   c-0.401,0.438-1.086,0.68-2.213,0.68c-0.498,0-0.917-0.03-1.217-0.076V49.086z M31.234,51.755h0.281   c0.476,0,0.834-0.397,0.834-0.945c0-0.494-0.233-0.877-0.768-0.877c-0.145,0-0.264,0.013-0.348,0.043V51.755z M31.234,54.744   c0.084,0.02,0.179,0.023,0.292,0.023c0.534,0,0.97-0.328,0.97-1.011c0-0.678-0.46-1.027-0.979-1.029h-0.283V54.744z"/>
	<path d="M38.223,53.261c0,2.037-1.127,2.542-1.866,2.542c-1.169,0-1.87-0.923-1.87-2.511c0-1.753,0.922-2.541,1.893-2.541   C37.531,50.751,38.223,51.721,38.223,53.261z M35.787,53.269c0,0.835,0.134,1.539,0.601,1.539c0.424,0,0.534-0.822,0.534-1.539   c0-0.677-0.11-1.523-0.554-1.523C35.89,51.745,35.787,52.592,35.787,53.269z"/>
	<path d="M38.965,48.807h1.312v6.916h-1.312V48.807z"/>
</g>
<g id="Des">
	<rect width="60" x="0" fill="none" height="14.525" y="31.722"/>
	<path d="M21.089,33.076v12.136h-1.922V33.076H21.089z"/>
	<path d="M22.013,45.933l4.065-13h1.312l-4.065,13H22.013z"/>
	<path d="M27.997,43.307c0.419,0.25,1.064,0.474,1.718,0.474c1.178,0,1.892-0.788,1.892-1.981c0-1.407-0.988-2.106-2.272-2.116   h-0.324v-1.42h0.247c0.851-0.01,2.033-0.495,2.033-1.765c0-0.997-0.572-1.548-1.442-1.548c-0.55,0-1.065,0.229-1.469,0.5   l-0.308-1.445c0.458-0.329,1.336-0.641,2.267-0.641c1.875,0,2.871,1.263,2.871,2.765c0,1.17-0.635,2.169-1.711,2.676v0.036   c1.093,0.347,2.027,1.321,2.027,3.02c0,1.84-1.306,3.496-3.663,3.496c-0.864,0-1.694-0.227-2.186-0.528L27.997,43.307z"/>
	<path d="M35.831,43.744c0.383,0,0.63-0.025,0.984-0.098c0.513-0.118,1.053-0.395,1.473-0.806c0.563-0.58,1.038-1.528,1.235-2.791   h-0.046c-0.406,0.477-0.98,0.838-1.776,0.838c-1.494,0-2.666-1.351-2.666-3.488c0-2.061,1.198-4.035,3.243-4.035   c2.104,0,3.152,2.043,3.152,4.761c0,2.496-0.732,4.33-1.755,5.542c-0.708,0.853-1.713,1.413-2.809,1.614   c-0.37,0.069-0.709,0.075-1.036,0.075V43.744z M36.934,37.245c0.011,1.395,0.493,2.281,1.31,2.281c0.489,0,0.945-0.348,1.147-0.802   c0.082-0.213,0.107-0.424,0.107-1.026c0-1.949-0.557-2.912-1.316-2.912C37.53,34.786,36.913,35.556,36.934,37.245z"/>
</g>
<g>
</g>
<g>
</g>
<g>
</g>
<g>
</g>
<g>
</g>
<g>
</g>
</svg>