<!-- Generator: Adobe Illustrator 25.2.3, SVG Export Plug-In . SVG Version: 6.00 Build 0)  --><svg x="0px" enable-background="new 0 0 60 60" y="0px" width="60px" xmlns:xlink="http://www.w3.org/1999/xlink" viewBox="0 0 60 60" height="60px" id="Layer_1" xmlns="http://www.w3.org/2000/svg" xml:space="preserve" version="1.1">
<rect width="60" fill="#FBF49C" x="0" height="60" id="UnitColor" y="-0.085"/>
<rect width="60" fill="#F7EC13" height="20.189" id="CS_2_" y="11.533" display="none"/>
<g id="Gar" display="none">
	<rect width="14.843" fill="none" x="0.73" height="8.039" y="2.802" display="inline"/>
	<path d="M11.03,10.06c-0.472,0.163-1.361,0.379-2.249,0.379c-1.231,0-2.119-0.308-2.739-0.903   C5.424,8.949,5.085,8.072,5.089,7.083C5.097,4.842,6.73,3.567,8.936,3.567c0.87,0,1.539,0.165,1.873,0.323L10.49,5.111   C10.117,4.95,9.664,4.825,8.922,4.825c-1.27,0-2.235,0.714-2.235,2.18c0,1.391,0.878,2.205,2.125,2.205   c0.344,0,0.623-0.04,0.745-0.095V7.699H8.516V6.512h2.514V10.06z" display="inline"/>
</g>
<g id="Eng" display="none">
	<rect width="27.832" fill="none" x="1.1" height="8.039" y="2.802" display="inline"/>
	<path d="M17.011,7.521h-2.479v1.602h2.771v1.248h-4.294V3.634h4.15v1.248h-2.626v1.403h2.479V7.521z" display="inline"/>
</g>
<g id="P2" display="none">
	<path d="M19.024,28.186c0.472-1.148,0.803-2.149,0.992-3.001c0.282-1.24,0.423-2.417,0.423-3.534   c0-1.066-0.099-2.078-0.295-3.035c-0.197-0.957-0.575-2.146-1.135-3.568h1.146c0.628,1.03,1.101,2.092,1.419,3.186   c0.319,1.094,0.478,2.185,0.478,3.274c0,1.094-0.159,2.218-0.476,3.374s-0.786,2.257-1.407,3.305H19.024z" display="inline"/>
</g>
<g id="P1" display="none">
	<path d="M8.327,28.186H7.182c-0.605-1.025-1.071-2.111-1.396-3.257s-0.487-2.257-0.487-3.333   c0-1.162,0.163-2.296,0.489-3.401c0.326-1.105,0.795-2.154,1.408-3.148h1.146c-0.56,1.422-0.938,2.611-1.135,3.568   c-0.197,0.957-0.295,1.969-0.295,3.035c0,1.103,0.139,2.27,0.416,3.5C7.522,26.016,7.855,27.028,8.327,28.186z" display="inline"/>
</g>
<g id="Type">
	<path d="M53.265,12.893v17.022H26.785V12.893H53.265z M28.204,15.139v12.53l10.443-6.265L28.204,15.139z M50.468,14.312H29.583   l10.443,6.265L50.468,14.312z M29.583,28.497h20.885l-10.442-6.265L29.583,28.497z M41.404,21.404l10.441,6.265v-12.53   L41.404,21.404z"/>
</g>
<g id="STK">
	<path d="M13.307,17.911h-0.036l-2.139,1.074l-0.386-1.671l2.857-1.406h1.847v11.703h-2.144V17.911z"/>
</g>
<g id="ECH">
	<rect width="27.832" x="26.078" fill="none" height="8.039" y="2.802"/>
	<path d="M39.33,3.634v6.736h-1.523V3.634H39.33z"/>
	<path d="M42.18,3.634v6.736h-1.522V3.634H42.18z"/>
</g>
<g id="PF">
	<rect width="60" x="0" fill="none" height="15.475" y="44.525"/>
	<path d="M20.509,50.459h-0.02l-1.101,0.565l-0.221-1.026l1.489-0.771h1.147v6.496h-1.295V50.459z"/>
	<path d="M26.912,49.227v0.858l-2.044,5.638h-1.273l1.991-5.322v-0.02h-2.214v-1.154H26.912z"/>
	<path d="M29.41,49.086c0.373-0.08,0.865-0.13,1.37-0.13c0.779,0,1.392,0.115,1.831,0.52c0.397,0.354,0.576,0.907,0.576,1.476   c0,0.73-0.221,1.246-0.57,1.621c-0.419,0.445-1.095,0.646-1.638,0.646c-0.089,0-0.175,0-0.264-0.005v2.509H29.41V49.086z    M30.714,52.148c0.068,0.013,0.137,0.015,0.218,0.015c0.659,0,0.952-0.471,0.952-1.1c0-0.586-0.238-1.052-0.846-1.052   c-0.124,0-0.244,0.021-0.325,0.05V52.148z"/>
	<path d="M35.901,55.723l-0.072-0.482h-0.021c-0.267,0.378-0.647,0.562-1.081,0.562c-0.739,0-1.288-0.618-1.288-1.485   c0-1.285,1.13-1.809,2.234-1.819V52.39c0-0.387-0.224-0.668-0.688-0.668c-0.39,0-0.702,0.105-0.995,0.285l-0.237-0.882   c0.27-0.155,0.837-0.374,1.52-0.374c1.485,0,1.729,1.042,1.729,2.033v1.819c0,0.39,0.016,0.788,0.071,1.119H35.901z M35.713,53.341   c-0.433,0.008-1.036,0.156-1.036,0.837c0,0.482,0.271,0.662,0.473,0.662c0.212,0,0.445-0.125,0.535-0.421   c0.021-0.062,0.028-0.142,0.028-0.224V53.341z"/>
	<path d="M38.767,50.831l0.373,2.187c0.07,0.434,0.137,0.871,0.204,1.367h0.022c0.058-0.498,0.124-0.907,0.194-1.367l0.374-2.187   h1.291l-1.31,4.892h-1.203l-1.338-4.892H38.767z"/>
</g>
<g id="Des">
	<rect width="60" x="0" fill="none" height="14.525" y="31.722"/>
	<path d="M21.089,33.076v12.136h-1.922V33.076H21.089z"/>
	<path d="M22.013,45.933l4.065-13h1.312l-4.065,13H22.013z"/>
	<path d="M27.712,45.212v-1.277l1.079-1.425c1.466-1.935,2.885-3.805,2.885-5.71c0-1.103-0.543-1.821-1.57-1.821   c-0.785,0-1.358,0.379-1.728,0.612l-0.38-1.47c0.478-0.345,1.395-0.757,2.458-0.757c2.284,0,3.12,1.589,3.12,3.305   c0,2.196-1.404,4.122-2.794,5.873l-0.736,0.938v0.036h3.719v1.696H27.712z"/>
	<path d="M41.289,33.509v1.226l-3.73,10.478h-1.87l3.646-9.972v-0.036h-4.091v-1.695H41.289z"/>
</g>
<g>
</g>
<g>
</g>
<g>
</g>
<g>
</g>
<g>
</g>
<g>
</g>
</svg>