<!-- Generator: Adobe Illustrator 25.2.3, SVG Export Plug-In . SVG Version: 6.00 Build 0)  --><svg x="0px" enable-background="new 0 0 60 60" y="0px" width="60px" xmlns:xlink="http://www.w3.org/1999/xlink" viewBox="0 0 60 60" height="60px" id="Layer_1" xmlns="http://www.w3.org/2000/svg" xml:space="preserve" version="1.1">
<rect width="60" fill="#FBF49C" x="0" height="60" id="UnitColor" y="-0.085"/>
<rect width="60" fill="#F7EC13" height="20.189" id="CS_2_" y="11.533" display="none"/>
<g id="Gar" display="none">
	<rect width="14.843" fill="none" x="0.73" height="8.039" y="2.802" display="inline"/>
	<path d="M11.03,10.06c-0.472,0.163-1.361,0.379-2.249,0.379c-1.231,0-2.119-0.308-2.739-0.903   C5.424,8.949,5.085,8.072,5.089,7.083C5.097,4.842,6.73,3.567,8.936,3.567c0.87,0,1.539,0.165,1.873,0.323L10.49,5.111   C10.117,4.95,9.664,4.825,8.922,4.825c-1.27,0-2.235,0.714-2.235,2.18c0,1.391,0.878,2.205,2.125,2.205   c0.344,0,0.623-0.04,0.745-0.095V7.699H8.516V6.512h2.514V10.06z" display="inline"/>
</g>
<g id="Eng" display="none">
	<rect width="27.832" fill="none" x="1.1" height="8.039" y="2.802" display="inline"/>
	<path d="M17.011,7.521h-2.479v1.602h2.771v1.248h-4.294V3.634h4.15v1.248h-2.626v1.403h2.479V7.521z" display="inline"/>
</g>
<g id="P2" display="none">
	<path d="M19.024,28.186c0.472-1.148,0.803-2.149,0.992-3.001c0.282-1.24,0.423-2.417,0.423-3.534   c0-1.066-0.099-2.078-0.295-3.035c-0.197-0.957-0.575-2.146-1.135-3.568h1.146c0.628,1.03,1.101,2.092,1.419,3.186   c0.319,1.094,0.478,2.185,0.478,3.274c0,1.094-0.159,2.218-0.476,3.374s-0.786,2.257-1.407,3.305H19.024z" display="inline"/>
</g>
<g id="P1" display="none">
	<path d="M8.327,28.186H7.182c-0.605-1.025-1.071-2.111-1.396-3.257s-0.487-2.257-0.487-3.333   c0-1.162,0.163-2.296,0.489-3.401c0.326-1.105,0.795-2.154,1.408-3.148h1.146c-0.56,1.422-0.938,2.611-1.135,3.568   c-0.197,0.957-0.295,1.969-0.295,3.035c0,1.103,0.139,2.27,0.416,3.5C7.522,26.016,7.855,27.028,8.327,28.186z" display="inline"/>
</g>
<g id="Type">
	<path d="M53.265,12.893v17.022H26.785V12.893H53.265z M37.969,21.737v-0.739l-9.765-5.859v12.53l9.887-5.932H37.969z    M50.468,14.312H29.583l9.574,5.744v-1.456h-1.186l2.054-3.272l2.054,3.272h-1.185v1.456L50.468,14.312z M37.97,24.541v-1.076   l-8.387,5.032h20.885l-8.387-5.032v1.076h-1.188v2.938h-1.737v-2.938H37.97z M39.156,22.752l-1.01,0.606h1.01V22.752z    M40.894,23.359h1.011l-1.011-0.606V23.359z M51.846,27.669v-12.53l-9.766,5.859v0.739h-0.121L51.846,27.669z"/>
</g>
<g id="STK">
	<path d="M13.307,17.911h-0.036l-2.139,1.074l-0.386-1.671l2.857-1.406h1.847v11.703h-2.144V17.911z"/>
</g>
<g id="ECH">
	<rect width="27.832" x="26.078" fill="none" height="8.039" y="2.802"/>
	<path d="M40.755,3.634v6.736h-1.523V3.634H40.755z"/>
</g>
<g id="PF">
	<rect width="60" x="0" fill="none" height="15.475" y="44.525"/>
	<path d="M29.696,52.494v0.939H27.71v-0.939H29.696z"/>
	<path d="M32.285,52.494v0.939H30.3v-0.939H32.285z"/>
</g>
<g id="Des">
	<rect width="60" x="0" fill="none" height="14.525" y="31.722"/>
	<path d="M14.015,33.076v12.136h-1.922V33.076H14.015z"/>
	<path d="M17.976,45.212l-2.737-12.136h2.104l1.007,5.445c0.242,1.332,0.541,2.934,0.724,4.411h0.052   c0.167-1.495,0.428-3.056,0.678-4.458l0.979-5.398h2.085l-2.793,12.136H17.976z"/>
	<path d="M33.271,44.896c-0.514,0.214-1.519,0.425-2.346,0.425c-1.244,0-2.27-0.347-3.077-1.191c-0.969-0.984-1.54-2.72-1.52-4.871   c0.041-4.557,2.512-6.29,4.889-6.29c0.851,0,1.493,0.168,1.872,0.355l-0.365,1.657c-0.337-0.172-0.781-0.285-1.395-0.285   c-1.561,0-3.003,1.155-3.003,4.582c0,3.286,1.265,4.408,2.527,4.408c0.325,0,0.534-0.047,0.639-0.099v-3.39h-1.301v-1.578h3.079   V44.896z"/>
	<path d="M36.483,41.346c0.021,1.958,0.93,2.491,1.953,2.491c0.641,0,1.183-0.145,1.573-0.312l0.272,1.383   c-0.547,0.258-1.393,0.412-2.194,0.412c-2.26,0-3.473-1.64-3.473-4.353c0-2.901,1.391-4.665,3.262-4.665   c1.844,0,2.772,1.666,2.772,4.016c0,0.5-0.021,0.796-0.051,1.027H36.483z M38.869,39.978c0.015-1.407-0.447-2.243-1.129-2.243   c-0.834,0-1.21,1.215-1.249,2.243H38.869z"/>
	<path d="M42.047,38.916c0-0.99-0.043-1.693-0.071-2.47h1.665l0.098,1.031h0.036c0.416-0.702,1.154-1.175,2.072-1.175   c1.461,0,2.239,1.135,2.239,3.167v5.742h-1.922v-5.559c0-0.876-0.186-1.731-1.022-1.731c-0.478,0-0.905,0.366-1.075,1.072   c-0.057,0.193-0.098,0.477-0.098,0.798v5.42h-1.922V38.916z"/>
</g>
<g>
</g>
<g>
</g>
<g>
</g>
<g>
</g>
<g>
</g>
<g>
</g>
</svg>