<!-- Generator: Adobe Illustrator 25.2.3, SVG Export Plug-In . SVG Version: 6.00 Build 0)  --><svg x="0px" enable-background="new 0 0 60 60" y="0px" width="60px" xmlns:xlink="http://www.w3.org/1999/xlink" viewBox="0 0 60 60" height="60px" id="Layer_1" xmlns="http://www.w3.org/2000/svg" xml:space="preserve" version="1.1">
<rect width="60" fill="#FBF49C" x="0" height="60" id="UnitColor" y="-0.085"/>
<rect width="60" fill="#F7EC13" height="20.189" id="CS_2_" y="11.533" display="none"/>
<g id="Gar" display="none">
	<rect width="14.843" fill="none" x="0.73" height="8.039" y="2.802" display="inline"/>
	<path d="M11.03,10.06c-0.472,0.163-1.361,0.379-2.249,0.379c-1.231,0-2.119-0.308-2.739-0.903   C5.424,8.949,5.085,8.072,5.089,7.083C5.097,4.842,6.73,3.567,8.936,3.567c0.87,0,1.539,0.165,1.873,0.323L10.49,5.111   C10.117,4.95,9.664,4.825,8.922,4.825c-1.27,0-2.235,0.714-2.235,2.18c0,1.391,0.878,2.205,2.125,2.205   c0.344,0,0.623-0.04,0.745-0.095V7.699H8.516V6.512h2.514V10.06z" display="inline"/>
</g>
<g id="Eng" display="none">
	<rect width="27.832" fill="none" x="1.1" height="8.039" y="2.802" display="inline"/>
	<path d="M17.011,7.521h-2.479v1.602h2.771v1.248h-4.294V3.634h4.15v1.248h-2.626v1.403h2.479V7.521z" display="inline"/>
</g>
<g id="P2" display="none">
	<path d="M19.024,28.186c0.472-1.148,0.803-2.149,0.992-3.001c0.282-1.24,0.423-2.417,0.423-3.534   c0-1.066-0.099-2.078-0.295-3.035c-0.197-0.957-0.575-2.146-1.135-3.568h1.146c0.628,1.03,1.101,2.092,1.419,3.186   c0.319,1.094,0.478,2.185,0.478,3.274c0,1.094-0.159,2.218-0.476,3.374s-0.786,2.257-1.407,3.305H19.024z" display="inline"/>
</g>
<g id="P1" display="none">
	<path d="M8.327,28.186H7.182c-0.605-1.025-1.071-2.111-1.396-3.257s-0.487-2.257-0.487-3.333   c0-1.162,0.163-2.296,0.489-3.401c0.326-1.105,0.795-2.154,1.408-3.148h1.146c-0.56,1.422-0.938,2.611-1.135,3.568   c-0.197,0.957-0.295,1.969-0.295,3.035c0,1.103,0.139,2.27,0.416,3.5C7.522,26.016,7.855,27.028,8.327,28.186z" display="inline"/>
</g>
<g id="Type">
	<path d="M53.265,12.893v17.022H26.785V12.893H53.265z M28.204,15.139v12.53l10.443-6.265L28.204,15.139z M50.468,14.312H29.583   l10.443,6.265L50.468,14.312z M29.583,28.497h20.885l-10.442-6.265L29.583,28.497z M41.404,21.404l10.441,6.265v-12.53   L41.404,21.404z"/>
</g>
<g id="STK">
	<path d="M13.307,17.911h-0.036l-2.139,1.074l-0.386-1.671l2.857-1.406h1.847v11.703h-2.144V17.911z"/>
</g>
<g id="ECH">
	<rect width="27.832" x="26.078" fill="none" height="8.039" y="2.802"/>
	<path d="M39.33,3.634v6.736h-1.523V3.634H39.33z"/>
	<path d="M42.18,3.634v6.736h-1.522V3.634H42.18z"/>
</g>
<g id="PF">
	<rect width="60" x="0" fill="none" height="15.475" y="44.525"/>
	<path d="M23.899,50.208c-0.157,0.008-0.34,0.028-0.536,0.068c-0.862,0.186-1.287,0.909-1.452,1.728h0.036   c0.23-0.308,0.569-0.517,1.002-0.517c0.871,0,1.469,0.789,1.469,2.013c0,1.14-0.587,2.303-1.857,2.303   c-1.229,0-1.973-1.065-1.973-2.682c0-1.42,0.463-2.383,1.062-3.026c0.425-0.466,1.058-0.774,1.593-0.881   c0.305-0.054,0.524-0.058,0.656-0.067V50.208z M23.119,53.497c-0.008-0.554-0.182-1.07-0.606-1.07   c-0.208,0-0.413,0.142-0.533,0.434c-0.036,0.076-0.066,0.271-0.066,0.571c0.002,0.85,0.244,1.424,0.633,1.424   C22.979,54.855,23.119,54.271,23.119,53.497z"/>
	<path d="M25.043,54.48c0.257,0.149,0.626,0.257,0.967,0.257c0.637,0,0.989-0.398,0.989-0.941c0-0.725-0.559-1.027-1.22-1.035H25.6   v-0.957h0.128c0.481-0.008,1.093-0.211,1.093-0.837c0-0.47-0.293-0.747-0.754-0.747c-0.292,0-0.58,0.104-0.817,0.253l-0.175-0.984   c0.267-0.176,0.796-0.342,1.335-0.342c1.142,0,1.719,0.735,1.719,1.567c0,0.649-0.361,1.187-0.935,1.456v0.021   c0.629,0.217,1.112,0.777,1.112,1.652c0,0.995-0.758,1.96-2.173,1.96c-0.525,0-0.991-0.128-1.272-0.286L25.043,54.48z"/>
	<path d="M34.269,55.624c-0.188,0.089-0.556,0.158-1.011,0.158c-1.721,0-2.543-1.414-2.543-3.326c0-2.539,1.409-3.529,2.714-3.529   c0.465,0,0.784,0.093,0.916,0.176l-0.219,1.104c-0.154-0.072-0.322-0.134-0.609-0.134c-0.747,0-1.415,0.645-1.415,2.311   c0,1.608,0.613,2.236,1.408,2.236c0.219,0,0.471-0.048,0.631-0.099L34.269,55.624z"/>
	<path d="M36.242,49.538c0.008,0.419-0.291,0.709-0.687,0.709c-0.361,0-0.656-0.29-0.648-0.709c-0.008-0.44,0.303-0.717,0.666-0.717   C35.951,48.821,36.242,49.098,36.242,49.538z M34.931,55.723v-4.892h1.312v4.892H34.931z"/>
	<path d="M37.157,52.303c0-0.486-0.021-1.015-0.039-1.472h1.135l0.067,0.716h0.035c0.215-0.521,0.61-0.796,0.969-0.796   c0.133,0,0.202,0.008,0.279,0.023v1.297c-0.083-0.016-0.169-0.016-0.285-0.016c-0.272,0-0.648,0.192-0.791,0.695   c-0.033,0.108-0.058,0.285-0.058,0.488v2.483h-1.312V52.303z"/>
</g>
<g id="Des">
	<rect width="60" x="0" fill="none" height="14.525" y="31.722"/>
	<path d="M17.417,33.076v12.136h-1.922V33.076H17.417z"/>
	<path d="M18.341,45.933l4.065-13h1.312l-4.065,13H18.341z"/>
	<path d="M26.836,35.361H26.8l-1.967,1.065l-0.342-1.503l2.587-1.415h1.652v11.703h-1.894V35.361z"/>
	<path d="M37.193,35.184h-3.125l-0.366,2.557c0.131-0.022,0.247-0.022,0.394-0.022c0.559,0.01,1.564,0.265,2.213,0.882   c0.643,0.622,1.003,1.499,1.003,2.686c0,2.297-1.492,4.071-3.838,4.071c-0.781,0-1.641-0.201-2.108-0.489l0.339-1.521   c0.398,0.208,1.017,0.425,1.654,0.425c1.176,0,2.054-0.814,2.054-2.304c0-1.698-1.159-2.338-2.585-2.338   c-0.374,0-0.644,0.016-0.881,0.052l0.698-5.672h4.549V35.184z"/>
	<path d="M44.961,33.509v1.226l-3.73,10.478h-1.87l3.646-9.972v-0.036h-4.091v-1.695H44.961z"/>
</g>
<g>
</g>
<g>
</g>
<g>
</g>
<g>
</g>
<g>
</g>
<g>
</g>
</svg>