<!-- Generator: Adobe Illustrator 25.2.3, SVG Export Plug-In . SVG Version: 6.00 Build 0)  --><svg x="0px" enable-background="new 0 0 60 60" y="0px" width="60px" xmlns:xlink="http://www.w3.org/1999/xlink" viewBox="0 0 60 60" height="60px" id="Layer_1" xmlns="http://www.w3.org/2000/svg" xml:space="preserve" version="1.1">
<rect width="60" fill="#FBF49C" x="0" height="60" id="UnitColor" y="-0.085"/>
<rect width="60" fill="#F7EC13" height="20.189" id="CS_2_" y="11.533" display="none"/>
<g id="Gar" display="none">
	<rect width="14.843" fill="none" x="0.73" height="8.039" y="2.802" display="inline"/>
	<path d="M11.03,10.06c-0.472,0.163-1.361,0.379-2.249,0.379c-1.231,0-2.119-0.308-2.739-0.903   C5.424,8.949,5.085,8.072,5.089,7.083C5.097,4.842,6.73,3.567,8.936,3.567c0.87,0,1.539,0.165,1.873,0.323L10.49,5.111   C10.117,4.95,9.664,4.825,8.922,4.825c-1.27,0-2.235,0.714-2.235,2.18c0,1.391,0.878,2.205,2.125,2.205   c0.344,0,0.623-0.04,0.745-0.095V7.699H8.516V6.512h2.514V10.06z" display="inline"/>
</g>
<g id="Eng" display="none">
	<rect width="27.832" fill="none" x="1.1" height="8.039" y="2.802" display="inline"/>
	<path d="M17.011,7.521h-2.479v1.602h2.771v1.248h-4.294V3.634h4.15v1.248h-2.626v1.403h2.479V7.521z" display="inline"/>
</g>
<g id="P2" display="none">
	<path d="M19.024,28.186c0.472-1.148,0.803-2.149,0.992-3.001c0.282-1.24,0.423-2.417,0.423-3.534   c0-1.066-0.099-2.078-0.295-3.035c-0.197-0.957-0.575-2.146-1.135-3.568h1.146c0.628,1.03,1.101,2.092,1.419,3.186   c0.319,1.094,0.478,2.185,0.478,3.274c0,1.094-0.159,2.218-0.476,3.374s-0.786,2.257-1.407,3.305H19.024z" display="inline"/>
</g>
<g id="P1" display="none">
	<path d="M8.327,28.186H7.182c-0.605-1.025-1.071-2.111-1.396-3.257s-0.487-2.257-0.487-3.333   c0-1.162,0.163-2.296,0.489-3.401c0.326-1.105,0.795-2.154,1.408-3.148h1.146c-0.56,1.422-0.938,2.611-1.135,3.568   c-0.197,0.957-0.295,1.969-0.295,3.035c0,1.103,0.139,2.27,0.416,3.5C7.522,26.016,7.855,27.028,8.327,28.186z" display="inline"/>
</g>
<g id="Type">
	<path d="M53.265,12.893v17.022H26.785V12.893H53.265z M37.969,21.737v-0.739l-9.765-5.859v5.526   c0.649-0.833,1.649-1.378,2.787-1.378c0.001,0,0.001,0,0.002,0c1.958,0.001,3.544,1.588,3.543,3.545   c0,0.41-0.083,0.798-0.212,1.165l3.767-2.26H37.969z M28.204,25v2.669l2.244-1.347C29.536,26.182,28.747,25.696,28.204,25z    M33.118,22.832c0-1.175-0.952-2.127-2.127-2.127c-1.174,0.002-2.125,0.953-2.127,2.127c0,1.174,0.952,2.127,2.127,2.127   C32.166,24.959,33.118,24.006,33.118,22.832z M50.468,14.312H29.583l9.574,5.744v-1.456h-1.186l2.054-3.272l2.054,3.272h-1.185   v1.456L50.468,14.312z M29.583,28.497h20.885l-8.387-5.032v1.076h-1.188v2.938h-1.737v-2.938H37.97v-1.076L29.583,28.497z    M39.156,22.752l-1.01,0.606h1.01V22.752z M40.894,23.359h1.011l-1.011-0.606V23.359z M51.846,20.65v-5.512l-9.766,5.859v0.739   h-0.121l3.782,2.27c-0.131-0.37-0.215-0.76-0.215-1.174c0-1.958,1.588-3.545,3.545-3.545C50.201,19.287,51.197,19.826,51.846,20.65   z M49.071,24.959c1.175,0,2.127-0.953,2.127-2.127c0-1.175-0.952-2.127-2.127-2.127c-1.174,0.002-2.125,0.953-2.127,2.127   C46.944,24.006,47.897,24.959,49.071,24.959z M49.604,26.323l2.242,1.346v-2.654C51.302,25.706,50.513,26.185,49.604,26.323z"/>
</g>
<g id="STK">
	<path d="M18.101,21.68c0,3.77-1.473,6.13-4.277,6.13c-2.693,0-4.128-2.456-4.151-6.017c0-3.641,1.549-6.083,4.283-6.083   C16.786,15.71,18.101,18.237,18.101,21.68z M11.897,21.789c-0.006,2.854,0.775,4.33,1.998,4.33c1.313,0,1.982-1.585,1.982-4.389   c0-2.727-0.641-4.323-1.98-4.323C12.723,17.407,11.894,18.863,11.897,21.789z"/>
</g>
<g id="ECH">
	<rect width="27.832" x="26.078" fill="none" height="8.039" y="2.802"/>
	<path d="M40.755,3.634v6.736h-1.523V3.634H40.755z"/>
</g>
<g id="PF">
	<rect width="60" x="0" fill="none" height="15.475" y="44.525"/>
	<path d="M18.74,49.086c0.412-0.084,0.931-0.13,1.43-0.13c0.716,0,1.363,0.105,1.796,0.502c0.408,0.372,0.535,0.822,0.535,1.4   c0,0.722-0.353,1.365-1.039,1.683v0.021c0.457,0.185,0.689,0.607,0.817,1.335c0.131,0.746,0.312,1.581,0.431,1.826h-1.368   c-0.084-0.187-0.236-0.867-0.338-1.612c-0.115-0.838-0.329-1.074-0.764-1.074h-0.196v2.687H18.74V49.086z M20.045,52.026h0.238   c0.569,0,0.893-0.464,0.893-1.048c0-0.577-0.228-0.982-0.813-0.998c-0.117,0-0.245,0.01-0.318,0.04V52.026z"/>
	<path d="M26.287,52.761h-1.535v1.825h1.732v1.137H23.44v-6.736h2.93v1.137h-1.618v1.549h1.535V52.761z"/>
	<path d="M30.604,55.624c-0.188,0.089-0.556,0.158-1.01,0.158c-1.722,0-2.544-1.414-2.544-3.326c0-2.539,1.409-3.529,2.715-3.529   c0.464,0,0.784,0.093,0.916,0.176l-0.219,1.104c-0.154-0.072-0.322-0.134-0.609-0.134c-0.747,0-1.415,0.645-1.415,2.311   c0,1.608,0.613,2.236,1.407,2.236c0.22,0,0.472-0.048,0.631-0.099L30.604,55.624z"/>
	<path d="M32.555,54.185l-0.295,1.538h-1.271l1.463-6.736h1.568l1.31,6.736h-1.275l-0.287-1.538H32.555z M33.651,53.168l-0.226-1.41   c-0.064-0.409-0.154-1.086-0.221-1.531h-0.024c-0.072,0.447-0.172,1.144-0.242,1.533l-0.246,1.408H33.651z"/>
	<path d="M40.166,53.367c-0.034-0.646-0.077-1.508-0.062-2.234h-0.026c-0.12,0.723-0.301,1.552-0.426,2.075l-0.586,2.404h-0.929   l-0.56-2.366c-0.13-0.545-0.309-1.383-0.411-2.113h-0.024c-0.019,0.735-0.067,1.585-0.102,2.251l-0.113,2.339h-1.124l0.484-6.736   h1.382l0.538,2.438c0.187,0.854,0.356,1.599,0.477,2.36h0.022c0.103-0.748,0.253-1.508,0.43-2.36l0.531-2.438h1.383l0.409,6.736   h-1.173L40.166,53.367z"/>
</g>
<g id="Des">
	<rect width="60" x="0" fill="none" height="14.525" y="31.722"/>
	<path d="M14.96,33.076v12.136h-1.922V33.076H14.96z"/>
	<path d="M15.884,45.933l4.065-13h1.312l-4.065,13H15.884z"/>
	<path d="M21.868,43.161c0.453,0.272,1.242,0.483,1.882,0.483c1.184,0,1.831-0.693,1.831-1.686c0-0.981-0.597-1.533-1.59-2.218   c-1.342-0.859-2.287-2.068-2.287-3.38c0-1.897,1.289-3.394,3.554-3.394c0.782,0,1.489,0.232,1.812,0.44l-0.357,1.649   c-0.329-0.216-0.843-0.414-1.499-0.414c-1.091,0-1.611,0.742-1.611,1.472c0,0.94,0.485,1.368,1.721,2.166   c1.542,0.998,2.155,2.176,2.155,3.48c0,2.17-1.563,3.559-3.732,3.559c-0.913,0-1.823-0.258-2.201-0.507L21.868,43.161z"/>
	<path d="M28.899,38.916c0-0.99-0.044-1.693-0.072-2.47h1.666l0.098,1.031h0.036c0.416-0.702,1.154-1.175,2.072-1.175   c1.461,0,2.239,1.135,2.239,3.167v5.742h-1.922v-5.559c0-0.876-0.186-1.731-1.022-1.731c-0.478,0-0.905,0.366-1.075,1.072   c-0.056,0.193-0.097,0.477-0.097,0.798v5.42h-1.922V38.916z"/>
	<path d="M38.936,34.099v2.348h1.7v1.394h-1.7v4.546c0,1.073,0.417,1.346,0.898,1.346c0.227,0,0.406-0.018,0.594-0.054l0.039,1.496   c-0.291,0.09-0.712,0.146-1.256,0.146c-0.622,0-1.17-0.154-1.553-0.546c-0.423-0.432-0.645-1.066-0.645-2.369V37.84h-1.049v-1.394   h1.049v-1.857L38.936,34.099z"/>
	<path d="M45.514,45.212L45.4,44.319h-0.043c-0.438,0.676-1.088,1.037-1.856,1.037c-1.257,0-2.206-1.055-2.206-2.593   c0-2.252,1.905-3.204,3.888-3.222V39.31c0-0.913-0.356-1.555-1.31-1.555c-0.627,0-1.159,0.183-1.635,0.486l-0.369-1.312   c0.432-0.272,1.354-0.627,2.422-0.627c2.257,0,2.834,1.545,2.834,3.41v3.503c0,0.682,0.021,1.415,0.113,1.996H45.514z    M45.234,40.822c-0.748,0.011-2.104,0.219-2.104,1.744c0,0.989,0.528,1.347,0.95,1.347c0.482,0,0.945-0.327,1.107-1.003   c0.036-0.137,0.047-0.294,0.047-0.445V40.822z"/>
</g>
<g>
</g>
<g>
</g>
<g>
</g>
<g>
</g>
<g>
</g>
<g>
</g>
</svg>