<!-- Generator: Adobe Illustrator 25.2.3, SVG Export Plug-In . SVG Version: 6.00 Build 0)  --><svg x="0px" enable-background="new 0 0 60 60" y="0px" width="60px" xmlns:xlink="http://www.w3.org/1999/xlink" viewBox="0 0 60 60" height="60px" id="Layer_1" xmlns="http://www.w3.org/2000/svg" xml:space="preserve" version="1.1">
<rect width="60" fill="#FBF49C" x="0" height="60" id="UnitColor" y="-0.085"/>
<rect width="60" fill="#F7EC13" height="20.189" id="CS_2_" y="11.533" display="none"/>
<g id="Gar" display="none">
	<rect width="14.843" fill="none" x="0.73" height="8.039" y="2.802" display="inline"/>
	<path d="M11.03,10.06c-0.472,0.163-1.361,0.379-2.249,0.379c-1.231,0-2.119-0.308-2.739-0.903   C5.424,8.949,5.085,8.072,5.089,7.083C5.097,4.842,6.73,3.567,8.936,3.567c0.87,0,1.539,0.165,1.873,0.323L10.49,5.111   C10.117,4.95,9.664,4.825,8.922,4.825c-1.27,0-2.235,0.714-2.235,2.18c0,1.391,0.878,2.205,2.125,2.205   c0.344,0,0.623-0.04,0.745-0.095V7.699H8.516V6.512h2.514V10.06z" display="inline"/>
</g>
<g id="Eng" display="none">
	<rect width="27.832" fill="none" x="1.1" height="8.039" y="2.802" display="inline"/>
	<path d="M17.011,7.521h-2.479v1.602h2.771v1.248h-4.294V3.634h4.15v1.248h-2.626v1.403h2.479V7.521z" display="inline"/>
</g>
<g id="P2" display="none">
	<path d="M19.024,28.186c0.472-1.148,0.803-2.149,0.992-3.001c0.282-1.24,0.423-2.417,0.423-3.534   c0-1.066-0.099-2.078-0.295-3.035c-0.197-0.957-0.575-2.146-1.135-3.568h1.146c0.628,1.03,1.101,2.092,1.419,3.186   c0.319,1.094,0.478,2.185,0.478,3.274c0,1.094-0.159,2.218-0.476,3.374s-0.786,2.257-1.407,3.305H19.024z" display="inline"/>
</g>
<g id="P1" display="none">
	<path d="M8.327,28.186H7.182c-0.605-1.025-1.071-2.111-1.396-3.257s-0.487-2.257-0.487-3.333   c0-1.162,0.163-2.296,0.489-3.401c0.326-1.105,0.795-2.154,1.408-3.148h1.146c-0.56,1.422-0.938,2.611-1.135,3.568   c-0.197,0.957-0.295,1.969-0.295,3.035c0,1.103,0.139,2.27,0.416,3.5C7.522,26.016,7.855,27.028,8.327,28.186z" display="inline"/>
</g>
<g id="Type">
	<path d="M53.265,12.893v17.022H26.785V12.893H53.265z M28.204,28.497h4.682c-1.933-0.031-3.49-1.601-3.49-3.54   c0-1.654,1.138-3.033,2.671-3.423c-1.3-0.748-2.178-2.145-2.152-3.748c0.023-1.458,0.766-2.725,1.891-3.474h-3.602V28.497z    M32.941,22.83c-1.175,0.001-2.126,0.952-2.127,2.127c0,1.174,0.953,2.126,2.127,2.126c1.174,0,2.127-0.952,2.127-2.126   C35.068,23.782,34.115,22.83,32.941,22.83z M48.716,17.898c0.024-1.566-1.229-2.861-2.793-2.886H34.141   c-0.004,0-0.008,0.003-0.013,0.003c-1.542,0.024-2.769,1.252-2.795,2.793c-0.025,1.566,1.228,2.861,2.795,2.887   c0.004,0,0.008,0.003,0.013,0.003h11.754c0.01-0.001,0.017-0.006,0.026-0.006C47.463,20.667,48.69,19.44,48.716,17.898z    M37.929,22.117h-2.884c0.87,0.646,1.441,1.673,1.441,2.84c0,1.938-1.558,3.508-3.489,3.54h6.979   c-1.932-0.031-3.489-1.601-3.489-3.54C36.486,23.79,37.058,22.763,37.929,22.117z M40.032,22.83   c-1.175,0.001-2.126,0.952-2.127,2.127c0,1.174,0.952,2.126,2.127,2.126c1.174,0,2.126-0.952,2.126-2.126   C42.158,23.782,41.206,22.83,40.032,22.83z M51.845,28.497V14.311h-3.621c1.168,0.777,1.935,2.107,1.91,3.61   c-0.025,1.556-0.877,2.882-2.128,3.605c1.529,0.395,2.663,1.771,2.663,3.421c0,1.958-1.587,3.544-3.545,3.545   s-3.545-1.586-3.546-3.544c0-1.162,0.566-2.185,1.431-2.831h-2.874c0.871,0.646,1.442,1.673,1.442,2.84   c0,1.938-1.559,3.508-3.489,3.54H51.845z M44.996,24.947c0,1.175,0.952,2.127,2.126,2.127c1.175,0,2.127-0.952,2.127-2.127   c0-1.174-0.952-2.126-2.127-2.126C45.949,22.822,44.997,23.774,44.996,24.947z"/>
</g>
<g id="STK">
	<path d="M13.307,17.911h-0.036l-2.139,1.074l-0.386-1.671l2.857-1.406h1.847v11.703h-2.144V17.911z"/>
</g>
<g id="ECH">
	<rect width="27.832" x="26.078" fill="none" height="8.039" y="2.802"/>
	<path d="M39.33,3.634v6.736h-1.523V3.634H39.33z"/>
	<path d="M42.18,3.634v6.736h-1.522V3.634H42.18z"/>
</g>
<g id="PF">
	<rect width="60" x="0" fill="none" height="15.475" y="44.525"/>
	<path d="M20.169,50.459h-0.02l-1.101,0.565l-0.221-1.026l1.489-0.771h1.147v6.496h-1.295V50.459z"/>
	<path d="M26.184,50.208c-0.157,0.008-0.34,0.028-0.536,0.068c-0.862,0.186-1.287,0.909-1.452,1.728h0.036   c0.23-0.308,0.569-0.517,1.002-0.517c0.87,0,1.469,0.789,1.469,2.013c0,1.14-0.587,2.303-1.857,2.303   c-1.229,0-1.973-1.065-1.973-2.682c0-1.42,0.463-2.383,1.062-3.026c0.425-0.466,1.058-0.774,1.593-0.881   c0.305-0.054,0.524-0.058,0.656-0.067V50.208z M25.404,53.497c-0.008-0.554-0.182-1.07-0.606-1.07   c-0.208,0-0.413,0.142-0.533,0.434c-0.036,0.076-0.066,0.271-0.066,0.571c0.002,0.85,0.244,1.424,0.633,1.424   C25.264,54.855,25.404,54.271,25.404,53.497z"/>
	<path d="M29.07,49.086c0.373-0.08,0.865-0.13,1.37-0.13c0.779,0,1.392,0.115,1.831,0.52c0.397,0.354,0.576,0.907,0.576,1.476   c0,0.73-0.221,1.246-0.57,1.621c-0.419,0.445-1.095,0.646-1.638,0.646c-0.089,0-0.175,0-0.264-0.005v2.509H29.07V49.086z    M30.375,52.148c0.068,0.013,0.137,0.015,0.218,0.015c0.659,0,0.952-0.471,0.952-1.1c0-0.586-0.238-1.052-0.846-1.052   c-0.123,0-0.244,0.021-0.324,0.05V52.148z"/>
	<path d="M34.808,49.538c0.008,0.419-0.291,0.709-0.687,0.709c-0.361,0-0.656-0.29-0.648-0.709c-0.008-0.44,0.303-0.717,0.666-0.717   C34.517,48.821,34.808,49.098,34.808,49.538z M33.496,55.723v-4.892h1.312v4.892H33.496z"/>
	<path d="M35.686,54.546c0.191,0.118,0.554,0.258,0.885,0.258c0.334,0,0.53-0.15,0.53-0.436c0-0.257-0.146-0.411-0.571-0.663   c-0.798-0.45-0.993-0.96-0.993-1.406c0-0.879,0.631-1.548,1.611-1.548c0.406,0,0.729,0.101,0.992,0.229l-0.229,0.956   c-0.188-0.108-0.417-0.198-0.683-0.198c-0.334,0-0.489,0.196-0.489,0.417c0,0.216,0.114,0.341,0.572,0.614   c0.72,0.409,0.986,0.919,0.986,1.472c0,1.004-0.717,1.542-1.73,1.542c-0.407,0-0.889-0.109-1.112-0.279L35.686,54.546z"/>
	<path d="M40.513,49.514v1.317h0.957v0.929h-0.957v2.236c0,0.566,0.235,0.707,0.494,0.707c0.127,0,0.228-0.01,0.345-0.029   l0.011,1.023c-0.181,0.05-0.459,0.085-0.801,0.085c-0.378,0-0.71-0.088-0.946-0.311c-0.269-0.256-0.415-0.632-0.415-1.399V51.76   h-0.576v-0.929H39.2v-1.005L40.513,49.514z"/>
</g>
<g id="Des">
	<rect width="60" x="0" fill="none" height="14.525" y="31.722"/>
	<path d="M9.947,33.076v12.136H8.025V33.076H9.947z"/>
	<path d="M14.015,33.076v12.136h-1.922V33.076H14.015z"/>
	<path d="M18.083,33.076v12.136h-1.922V33.076H18.083z"/>
	<path d="M30.45,40.525c-0.07-1.359-0.149-3.013-0.116-4.353h-0.06c-0.237,1.325-0.561,2.799-0.855,3.956l-1.252,4.939h-1.318   l-1.193-4.8c-0.31-1.235-0.646-2.74-0.855-4.096H24.75c-0.015,1.371-0.098,2.978-0.167,4.415l-0.214,4.624h-1.676l0.804-12.136   h2.048l1.17,4.913c0.368,1.567,0.674,2.84,0.911,4.216h0.044c0.208-1.363,0.479-2.636,0.829-4.216l1.146-4.913h2.068l0.718,12.136   h-1.745L30.45,40.525z"/>
	<path d="M39.998,40.809c0,3.535-1.821,4.548-3.154,4.548c-1.859,0-3.128-1.556-3.128-4.507c0-3.166,1.556-4.547,3.192-4.547   C38.748,36.303,39.998,37.919,39.998,40.809z M35.633,40.819c0,1.476,0.25,3.053,1.272,3.053c0.957,0,1.176-1.73,1.176-3.053   c0-1.271-0.219-3.033-1.211-3.033C35.842,37.786,35.633,39.548,35.633,40.819z"/>
	<path d="M41.436,38.916c0-0.99-0.043-1.693-0.071-2.47h1.665l0.098,1.031h0.036c0.416-0.702,1.154-1.175,2.072-1.175   c1.461,0,2.239,1.135,2.239,3.167v5.742h-1.922v-5.559c0-0.876-0.186-1.731-1.022-1.731c-0.478,0-0.905,0.366-1.075,1.072   c-0.057,0.193-0.098,0.477-0.098,0.798v5.42h-1.922V38.916z"/>
	<path d="M49.607,45.212V37.84H48.46v-1.394h1.147v-0.433c0-0.973,0.18-1.909,0.848-2.621c0.515-0.554,1.242-0.784,1.943-0.784   c0.55,0,0.971,0.09,1.269,0.205l-0.247,1.502c-0.183-0.072-0.427-0.132-0.743-0.132c-0.878,0-1.147,0.858-1.147,1.789v0.474h1.556   v1.394h-1.556v7.372H49.607z"/>
</g>
<g>
</g>
<g>
</g>
<g>
</g>
<g>
</g>
<g>
</g>
<g>
</g>
</svg>