<!-- Generator: Adobe Illustrator 25.2.3, SVG Export Plug-In . SVG Version: 6.00 Build 0)  --><svg x="0px" enable-background="new 0 0 60 60" y="0px" width="60px" xmlns:xlink="http://www.w3.org/1999/xlink" viewBox="0 0 60 60" height="60px" id="Layer_1" xmlns="http://www.w3.org/2000/svg" xml:space="preserve" version="1.1">
<rect width="60" fill="#FBF49C" x="0" height="60" id="UnitColor" y="-0.085"/>
<rect width="60" fill="#F7EC13" height="20.189" id="CS_2_" y="11.533" display="none"/>
<g id="Gar" display="none">
	<rect width="14.843" fill="none" x="0.73" height="8.039" y="2.802" display="inline"/>
	<path d="M11.03,10.06c-0.472,0.163-1.361,0.379-2.249,0.379c-1.231,0-2.119-0.308-2.739-0.903   C5.424,8.949,5.085,8.072,5.089,7.083C5.097,4.842,6.73,3.567,8.936,3.567c0.87,0,1.539,0.165,1.873,0.323L10.49,5.111   C10.117,4.95,9.664,4.825,8.922,4.825c-1.27,0-2.235,0.714-2.235,2.18c0,1.391,0.878,2.205,2.125,2.205   c0.344,0,0.623-0.04,0.745-0.095V7.699H8.516V6.512h2.514V10.06z" display="inline"/>
</g>
<g id="Eng" display="none">
	<rect width="27.832" fill="none" x="1.1" height="8.039" y="2.802" display="inline"/>
	<path d="M17.011,7.521h-2.479v1.602h2.771v1.248h-4.294V3.634h4.15v1.248h-2.626v1.403h2.479V7.521z" display="inline"/>
</g>
<g id="P2" display="none">
	<path d="M19.024,28.186c0.472-1.148,0.803-2.149,0.992-3.001c0.282-1.24,0.423-2.417,0.423-3.534   c0-1.066-0.099-2.078-0.295-3.035c-0.197-0.957-0.575-2.146-1.135-3.568h1.146c0.628,1.03,1.101,2.092,1.419,3.186   c0.319,1.094,0.478,2.185,0.478,3.274c0,1.094-0.159,2.218-0.476,3.374s-0.786,2.257-1.407,3.305H19.024z" display="inline"/>
</g>
<g id="P1" display="none">
	<path d="M8.327,28.186H7.182c-0.605-1.025-1.071-2.111-1.396-3.257s-0.487-2.257-0.487-3.333   c0-1.162,0.163-2.296,0.489-3.401c0.326-1.105,0.795-2.154,1.408-3.148h1.146c-0.56,1.422-0.938,2.611-1.135,3.568   c-0.197,0.957-0.295,1.969-0.295,3.035c0,1.103,0.139,2.27,0.416,3.5C7.522,26.016,7.855,27.028,8.327,28.186z" display="inline"/>
</g>
<g id="Type">
	<path d="M53.265,12.893v17.022H26.785V12.893H53.265z M34.536,22.832c0,0.41-0.083,0.798-0.212,1.165l4.322-2.593l-10.443-6.265   v5.526c0.649-0.833,1.649-1.378,2.787-1.378c0.001,0,0.001,0,0.002,0C32.95,19.288,34.537,20.875,34.536,22.832z M28.204,25v2.669   l2.244-1.347C29.536,26.182,28.747,25.696,28.204,25z M33.118,22.832c0-1.175-0.952-2.127-2.127-2.127   c-1.174,0.002-2.125,0.953-2.127,2.127c0,1.174,0.952,2.127,2.127,2.127C32.166,24.959,33.118,24.006,33.118,22.832z    M50.468,14.312H29.583l10.443,6.265L50.468,14.312z M29.583,28.497h20.885l-10.442-6.265L29.583,28.497z M51.846,20.65v-5.512   l-10.441,6.265l4.337,2.603c-0.131-0.37-0.215-0.76-0.215-1.174c0-1.958,1.588-3.545,3.545-3.545   C50.201,19.287,51.197,19.826,51.846,20.65z M49.071,24.959c1.175,0,2.127-0.953,2.127-2.127c0-1.175-0.952-2.127-2.127-2.127   c-1.174,0.002-2.125,0.953-2.127,2.127C46.944,24.006,47.897,24.959,49.071,24.959z M49.604,26.323l2.242,1.346v-2.654   C51.302,25.706,50.513,26.185,49.604,26.323z"/>
</g>
<g id="STK">
	<path d="M13.307,17.911h-0.036l-2.139,1.074l-0.386-1.671l2.857-1.406h1.847v11.703h-2.144V17.911z"/>
</g>
<g id="ECH">
	<rect width="27.832" x="26.078" fill="none" height="8.039" y="2.802"/>
	<path d="M39.33,3.634v6.736h-1.523V3.634H39.33z"/>
	<path d="M42.18,3.634v6.736h-1.522V3.634H42.18z"/>
</g>
<g id="PF">
	<rect width="60" x="0" fill="none" height="15.475" y="44.525"/>
	<path d="M21.937,53.367c-0.034-0.646-0.076-1.508-0.062-2.234h-0.026c-0.121,0.723-0.3,1.552-0.426,2.075l-0.585,2.404h-0.929   l-0.559-2.366c-0.13-0.545-0.308-1.383-0.411-2.113h-0.024c-0.02,0.735-0.067,1.585-0.102,2.251l-0.114,2.339h-1.124l0.484-6.736   h1.383l0.537,2.438c0.187,0.854,0.357,1.599,0.478,2.36h0.022c0.103-0.748,0.252-1.508,0.429-2.36l0.531-2.438h1.383l0.409,6.736   h-1.173L21.937,53.367z"/>
	<path d="M26.302,55.723l-0.071-0.482h-0.022c-0.267,0.378-0.647,0.562-1.081,0.562c-0.739,0-1.288-0.618-1.288-1.485   c0-1.285,1.13-1.809,2.235-1.819V52.39c0-0.387-0.225-0.668-0.688-0.668c-0.39,0-0.703,0.105-0.995,0.285l-0.238-0.882   c0.271-0.155,0.837-0.374,1.52-0.374c1.485,0,1.729,1.042,1.729,2.033v1.819c0,0.39,0.016,0.788,0.072,1.119H26.302z    M26.114,53.341c-0.433,0.008-1.037,0.156-1.037,0.837c0,0.482,0.271,0.662,0.473,0.662c0.213,0,0.446-0.125,0.536-0.421   c0.02-0.062,0.028-0.142,0.028-0.224V53.341z"/>
	<path d="M28.326,48.807h1.312v6.916h-1.312V48.807z"/>
	<path d="M31.674,53.743c0.017,0.763,0.457,1.045,1.036,1.045c0.373,0,0.694-0.08,0.933-0.166l0.171,0.937   c-0.332,0.136-0.848,0.224-1.341,0.224c-1.333,0-2.066-0.879-2.066-2.407c0-1.645,0.857-2.624,1.958-2.624   c1.052,0,1.666,0.83,1.666,2.311c0,0.35-0.016,0.542-0.039,0.682H31.674z M32.838,52.826c0.004-0.628-0.162-1.12-0.552-1.12   c-0.426,0-0.6,0.626-0.609,1.12H32.838z"/>
	<path d="M36.312,49.514v1.317h0.957v0.929h-0.957v2.236c0,0.566,0.235,0.707,0.494,0.707c0.127,0,0.228-0.01,0.345-0.029   l0.011,1.023c-0.182,0.05-0.459,0.085-0.801,0.085c-0.378,0-0.71-0.088-0.946-0.311C35.146,55.216,35,54.84,35,54.072V51.76h-0.576   v-0.929H35v-1.005L36.312,49.514z"/>
	<path d="M39.423,49.514v1.317h0.957v0.929h-0.957v2.236c0,0.566,0.235,0.707,0.494,0.707c0.127,0,0.228-0.01,0.345-0.029   l0.011,1.023c-0.181,0.05-0.459,0.085-0.801,0.085c-0.378,0-0.71-0.088-0.946-0.311c-0.269-0.256-0.415-0.632-0.415-1.399V51.76   h-0.576v-0.929h0.576v-1.005L39.423,49.514z"/>
	<path d="M42.298,49.538c0.008,0.419-0.291,0.709-0.687,0.709c-0.361,0-0.656-0.29-0.648-0.709c-0.008-0.44,0.303-0.717,0.666-0.717   C42.007,48.821,42.298,49.098,42.298,49.538z M40.986,55.723v-4.892h1.312v4.892H40.986z"/>
</g>
<g id="Des">
	<rect width="60" x="0" fill="none" height="14.525" y="31.722"/>
	<path d="M12.08,33.076v12.136h-1.922V33.076H12.08z"/>
	<path d="M13.004,45.933l4.065-13h1.312l-4.065,13H13.004z"/>
	<path d="M21.5,35.361h-0.036l-1.967,1.065l-0.342-1.503l2.587-1.415h1.652v11.703H21.5V35.361z"/>
	<path d="M26.61,33.076h1.922v10.507h3.243v1.629H26.61V33.076z"/>
	<path d="M32.905,45.212c0.028-0.652,0.071-1.65,0.071-2.369V32.752h1.912v4.649h0.036c0.438-0.742,1.037-1.099,1.836-1.099   c1.553,0,2.446,1.765,2.446,4.353c0,3.115-1.259,4.701-2.77,4.701c-0.818,0-1.312-0.408-1.729-1.228h-0.052l-0.112,1.083H32.905z    M34.889,42.095c0,0.211,0.03,0.411,0.077,0.553c0.253,0.924,0.701,1.123,1.028,1.123c0.936,0,1.296-1.223,1.296-2.982   c0-1.624-0.379-2.858-1.312-2.858c-0.492,0-0.902,0.57-1.021,1.146c-0.039,0.164-0.069,0.394-0.069,0.568V42.095z"/>
	<path d="M48.188,40.525c-0.069-1.359-0.149-3.013-0.115-4.353h-0.06c-0.236,1.325-0.561,2.799-0.854,3.956l-1.253,4.939h-1.318   l-1.192-4.8c-0.31-1.235-0.646-2.74-0.855-4.096h-0.052c-0.015,1.371-0.097,2.978-0.167,4.415l-0.213,4.624h-1.676l0.804-12.136   h2.048l1.17,4.913c0.368,1.567,0.675,2.84,0.911,4.216h0.044c0.209-1.363,0.479-2.636,0.829-4.216l1.146-4.913h2.068l0.718,12.136   h-1.745L48.188,40.525z"/>
</g>
<g>
</g>
<g>
</g>
<g>
</g>
<g>
</g>
<g>
</g>
<g>
</g>
</svg>