<svg width="60" height="60" xmlns="http://www.w3.org/2000/svg" viewBox="0 0 60 60">
  <rect fill="#fff" height="60" width="60"/>
  <rect fill="#faf39f" height="60" width="60"/>
  <g>
    <g>
      <path d="M21.989,7.2V19.331H20.067V7.2Z" transform="translate(0 0)"/>
      <path d="M24.135,19.331V7.2h1.779l2.028,5.18c.431,1.1,1.038,2.678,1.414,3.847h.036c-.1-1.557-.208-3.427-.208-5.6V7.2h1.7V19.331H29.107l-2.05-5.166a37.332,37.332,0,0,1-1.331-3.857H25.69c.085,1.4.147,3.123.147,5.631v3.392Z" transform="translate(0 0)"/>
      <path d="M33.01,7.2h4.981V8.863H34.932v3.63H37.8V14.1H34.932v5.231H33.01Z" transform="translate(0 0)"/>
      <path d="M37.99,18.15a1.251,1.251,0,0,1,1.173-1.342,1.2,1.2,0,0,1,1.163,1.342,1.18,1.18,0,0,1-1.173,1.326A1.21,1.21,0,0,1,37.99,18.15Z" transform="translate(0 0)"/>
    </g>
    <g>
      <path d="M18.033,24.044a10.476,10.476,0,0,1,2.315-.234,4.251,4.251,0,0,1,3.007.887,3.148,3.148,0,0,1,.916,2.453,3.209,3.209,0,0,1-1.907,3.074v.036c.854.306,1.3,1.112,1.544,2.549A18.364,18.364,0,0,0,24.648,36H22.655a16.314,16.314,0,0,1-.625-2.948c-.235-1.58-.683-2.094-1.644-2.094h-.441V36H18.033Zm1.912,5.431h.5a1.912,1.912,0,0,0,1.878-2.13c0-1.2-.482-2-1.734-2.018a2.169,2.169,0,0,0-.644.072Z" transform="translate(0 0)"/>
      <path d="M27.341,32.134c.02,1.958.93,2.491,1.953,2.491a4.036,4.036,0,0,0,1.573-.312L31.14,35.7a5.565,5.565,0,0,1-2.2.412c-2.259,0-3.472-1.639-3.472-4.352,0-2.9,1.389-4.666,3.261-4.666,1.844,0,2.773,1.666,2.773,4.016a7.647,7.647,0,0,1-.052,1.028Zm2.385-1.369c.015-1.407-.447-2.243-1.128-2.243-.834,0-1.211,1.215-1.249,2.243Z" transform="translate(0 0)"/>
      <path d="M32.9,29.991c0-1.185-.042-2.023-.071-2.757h1.681l.1,1.06h.036a2.021,2.021,0,0,1,1.846-1.2c1.743,0,2.63,1.88,2.63,4.512,0,3.182-1.355,4.543-2.787,4.543a1.673,1.673,0,0,1-1.484-.925h-.036v4.237H32.9Zm1.913,2.8a2.361,2.361,0,0,0,.1.732c.222.855.673,1.034.99,1.034.971,0,1.3-1.381,1.3-2.931,0-1.738-.419-2.911-1.3-2.911-.485,0-.921.539-1.013,1.125a2.261,2.261,0,0,0-.079.644Z" transform="translate(0 0)"/>
      <path d="M40.023,34.819A1.251,1.251,0,0,1,41.2,33.477a1.2,1.2,0,0,1,1.163,1.342,1.18,1.18,0,0,1-1.172,1.326A1.21,1.21,0,0,1,40.023,34.819Z" transform="translate(0 0)"/>
    </g>
  </g>
</svg>