<!-- Generator: Adobe Illustrator 25.2.3, SVG Export Plug-In . SVG Version: 6.00 Build 0)  --><svg x="0px" enable-background="new 0 0 60 60" y="0px" width="60px" xmlns:xlink="http://www.w3.org/1999/xlink" viewBox="0 0 60 60" height="60px" id="Layer_1" xmlns="http://www.w3.org/2000/svg" xml:space="preserve" version="1.1">
<rect width="60" fill="#FBF49C" x="0" height="60" id="UnitColor" y="-0.085"/>
<rect width="60" fill="#F7EC13" height="20.189" id="CS_2_" y="11.533"/>
<g id="Gar" display="none">
	<rect width="14.843" fill="none" x="0.73" height="8.039" y="2.802" display="inline"/>
	<path d="M11.03,10.06c-0.472,0.163-1.361,0.379-2.249,0.379c-1.231,0-2.119-0.308-2.739-0.903   C5.424,8.949,5.085,8.072,5.089,7.083C5.097,4.842,6.73,3.567,8.936,3.567c0.87,0,1.539,0.165,1.873,0.323L10.49,5.111   C10.117,4.95,9.664,4.825,8.922,4.825c-1.27,0-2.235,0.714-2.235,2.18c0,1.391,0.878,2.205,2.125,2.205   c0.344,0,0.623-0.04,0.745-0.095V7.699H8.516V6.512h2.514V10.06z" display="inline"/>
</g>
<g id="Eng" display="none">
	<rect width="27.832" fill="none" x="1.1" height="8.039" y="2.802" display="inline"/>
	<path d="M17.011,7.521h-2.479v1.602h2.771v1.248h-4.294V3.634h4.15v1.248h-2.626v1.403h2.479V7.521z" display="inline"/>
</g>
<g id="P2">
	<path d="M19.024,28.186c0.472-1.148,0.803-2.149,0.992-3.001c0.282-1.24,0.423-2.417,0.423-3.534c0-1.066-0.099-2.078-0.295-3.035   c-0.197-0.957-0.575-2.146-1.135-3.568h1.146c0.628,1.03,1.101,2.092,1.419,3.186c0.319,1.094,0.478,2.185,0.478,3.274   c0,1.094-0.159,2.218-0.476,3.374s-0.786,2.257-1.407,3.305H19.024z"/>
</g>
<g id="P1">
	<path d="M8.327,28.186H7.182c-0.605-1.025-1.071-2.111-1.396-3.257s-0.487-2.257-0.487-3.333c0-1.162,0.163-2.296,0.489-3.401   c0.326-1.105,0.795-2.154,1.408-3.148h1.146c-0.56,1.422-0.938,2.611-1.135,3.568c-0.197,0.957-0.295,1.969-0.295,3.035   c0,1.103,0.139,2.27,0.416,3.5C7.522,26.016,7.855,27.028,8.327,28.186z"/>
</g>
<g id="Type">
	<path d="M53.265,12.893v17.022H26.785V12.893H53.265z M28.204,15.139v12.53l10.443-6.265L28.204,15.139z M50.468,14.312H29.583   l10.443,6.265L50.468,14.312z M34.15,25.756l-4.568,2.741h2.933C32.671,27.372,33.274,26.395,34.15,25.756z M33.736,28.497h5.621   c-0.259-1.315-1.42-2.312-2.811-2.312S33.995,27.181,33.736,28.497z M47.528,28.497h2.939l-10.442-6.265l-5.314,3.188   c0.555-0.282,1.173-0.456,1.837-0.456c1.489,0,2.783,0.811,3.497,2.005c0.738-1.176,2.049-1.959,3.524-1.948   C45.601,25.054,47.236,26.543,47.528,28.497z M43.549,26.241c-0.017,0-0.031-0.001-0.048-0.001c-1.366,0-2.519,0.964-2.801,2.256   h5.604C46.03,27.216,44.911,26.264,43.549,26.241z M41.404,21.404l10.441,6.265v-12.53L41.404,21.404z"/>
</g>
<g id="STK">
	<path d="M9.839,27.611v-1.345l1.388-1.292c2.753-2.546,4.052-3.949,4.066-5.496c0-1.058-0.562-1.97-2.091-1.97   c-1.036,0-1.914,0.524-2.499,0.975l-0.649-1.574c0.841-0.67,2.121-1.199,3.593-1.199c2.595,0,3.865,1.631,3.865,3.545   c0,2.059-1.479,3.712-3.525,5.602l-1.013,0.888v0.036h4.796v1.831H9.839z"/>
</g>
<g id="ECH">
	<rect width="27.832" x="26.078" fill="none" height="8.039" y="2.802"/>
	<path d="M37.905,3.634v6.736h-1.523V3.634H37.905z"/>
	<path d="M40.756,3.634v6.736h-1.523V3.634H40.756z"/>
	<path d="M43.605,3.634v6.736h-1.522V3.634H43.605z"/>
</g>
<g id="PF">
	<rect width="60" x="0" fill="none" height="15.475" y="44.525"/>
	<path d="M29.696,52.494v0.939H27.71v-0.939H29.696z"/>
	<path d="M32.285,52.494v0.939H30.3v-0.939H32.285z"/>
</g>
<g id="Des">
	<rect width="60" x="0" fill="none" height="14.525" y="31.722"/>
	<path d="M11.472,33.076h1.922v10.507h3.243v1.629h-5.165V33.076z"/>
	<path d="M19.824,34.149c0.01,0.66-0.434,1.107-1.063,1.107c-0.56,0-1.009-0.447-0.999-1.107c-0.01-0.683,0.459-1.117,1.027-1.117   C19.39,33.032,19.824,33.467,19.824,34.149z M17.847,45.212v-8.766h1.922v8.766H17.847z"/>
	<path d="M21.457,45.212c0.028-0.652,0.072-1.65,0.072-2.369V32.752h1.912v4.649h0.036c0.438-0.742,1.037-1.099,1.836-1.099   c1.552,0,2.446,1.765,2.446,4.353c0,3.115-1.258,4.701-2.77,4.701c-0.819,0-1.312-0.408-1.729-1.228H23.21l-0.113,1.083H21.457z    M23.441,42.095c0,0.211,0.031,0.411,0.077,0.553c0.252,0.924,0.701,1.123,1.028,1.123c0.936,0,1.296-1.223,1.296-2.982   c0-1.624-0.378-2.858-1.311-2.858c-0.493,0-0.903,0.57-1.021,1.146c-0.039,0.164-0.069,0.394-0.069,0.568V42.095z"/>
	<path d="M30.357,36.446l0.994,4.776c0.126,0.59,0.206,1.107,0.299,1.619h0.036c0.077-0.471,0.183-1.043,0.283-1.599l0.866-4.797   h1.889l-1.629,6.258c-0.479,1.896-1.071,3.783-2.051,4.998c-0.687,0.833-1.467,1.239-1.809,1.36l-0.622-1.652   c0.404-0.178,0.823-0.495,1.196-0.895c0.337-0.374,0.603-0.838,0.759-1.236c0.072-0.181,0.11-0.281,0.11-0.407   c0-0.107-0.021-0.216-0.057-0.324l-2.319-8.102H30.357z"/>
	<path d="M39.269,45.212l-0.113-0.893h-0.043c-0.438,0.676-1.088,1.037-1.856,1.037c-1.257,0-2.206-1.055-2.206-2.593   c0-2.252,1.905-3.204,3.888-3.222V39.31c0-0.913-0.356-1.555-1.31-1.555c-0.627,0-1.159,0.183-1.635,0.486l-0.369-1.312   c0.432-0.272,1.354-0.627,2.422-0.627c2.257,0,2.834,1.545,2.834,3.41v3.503c0,0.682,0.021,1.415,0.113,1.996H39.269z    M38.989,40.822c-0.748,0.011-2.104,0.219-2.104,1.744c0,0.989,0.528,1.347,0.95,1.347c0.482,0,0.945-0.327,1.107-1.003   c0.036-0.137,0.047-0.294,0.047-0.445V40.822z"/>
	<path d="M42.669,38.916c0-0.99-0.043-1.693-0.071-2.47h1.665l0.098,1.031h0.036c0.416-0.702,1.154-1.175,2.072-1.175   c1.461,0,2.239,1.135,2.239,3.167v5.742h-1.922v-5.559c0-0.876-0.186-1.731-1.022-1.731c-0.478,0-0.905,0.366-1.075,1.072   c-0.057,0.193-0.098,0.477-0.098,0.798v5.42h-1.922V38.916z"/>
</g>
<g>
</g>
<g>
</g>
<g>
</g>
<g>
</g>
<g>
</g>
<g>
</g>
</svg>