<!-- Generator: Adobe Illustrator 25.2.3, SVG Export Plug-In . SVG Version: 6.00 Build 0)  --><svg x="0px" enable-background="new 0 0 60 60" y="0px" width="60px" xmlns:xlink="http://www.w3.org/1999/xlink" viewBox="0 0 60 60" height="60px" id="Layer_1" xmlns="http://www.w3.org/2000/svg" xml:space="preserve" version="1.1">
<rect width="60" fill="#FBF49C" x="0" height="60" id="UnitColor" y="-0.085"/>
<rect width="60" fill="#F7EC13" height="20.189" id="CS_2_" y="11.533" display="none"/>
<g id="Gar" display="none">
	<rect width="14.843" fill="none" x="0.73" height="8.039" y="2.802" display="inline"/>
	<path d="M11.03,10.06c-0.472,0.163-1.361,0.379-2.249,0.379c-1.231,0-2.119-0.308-2.739-0.903   C5.424,8.949,5.085,8.072,5.089,7.083C5.097,4.842,6.73,3.567,8.936,3.567c0.87,0,1.539,0.165,1.873,0.323L10.49,5.111   C10.117,4.95,9.664,4.825,8.922,4.825c-1.27,0-2.235,0.714-2.235,2.18c0,1.391,0.878,2.205,2.125,2.205   c0.344,0,0.623-0.04,0.745-0.095V7.699H8.516V6.512h2.514V10.06z" display="inline"/>
</g>
<g id="Eng" display="none">
	<rect width="27.832" fill="none" x="1.1" height="8.039" y="2.802" display="inline"/>
	<path d="M17.011,7.521h-2.479v1.602h2.771v1.248h-4.294V3.634h4.15v1.248h-2.626v1.403h2.479V7.521z" display="inline"/>
</g>
<g id="P2" display="none">
	<path d="M19.024,28.186c0.472-1.148,0.803-2.149,0.992-3.001c0.282-1.24,0.423-2.417,0.423-3.534   c0-1.066-0.099-2.078-0.295-3.035c-0.197-0.957-0.575-2.146-1.135-3.568h1.146c0.628,1.03,1.101,2.092,1.419,3.186   c0.319,1.094,0.478,2.185,0.478,3.274c0,1.094-0.159,2.218-0.476,3.374s-0.786,2.257-1.407,3.305H19.024z" display="inline"/>
</g>
<g id="P1" display="none">
	<path d="M8.327,28.186H7.182c-0.605-1.025-1.071-2.111-1.396-3.257s-0.487-2.257-0.487-3.333   c0-1.162,0.163-2.296,0.489-3.401c0.326-1.105,0.795-2.154,1.408-3.148h1.146c-0.56,1.422-0.938,2.611-1.135,3.568   c-0.197,0.957-0.295,1.969-0.295,3.035c0,1.103,0.139,2.27,0.416,3.5C7.522,26.016,7.855,27.028,8.327,28.186z" display="inline"/>
</g>
<g id="Type">
	<path d="M53.265,12.893v17.022H26.785V12.893H53.265z M28.204,28.497h4.682c-1.933-0.031-3.49-1.601-3.49-3.54   c0-1.654,1.138-3.033,2.671-3.423c-1.3-0.748-2.178-2.145-2.152-3.748c0.023-1.458,0.766-2.725,1.891-3.474h-3.602V28.497z    M32.941,22.83c-1.175,0.001-2.126,0.952-2.127,2.127c0,1.174,0.953,2.126,2.127,2.126c1.174,0,2.127-0.952,2.127-2.126   C35.068,23.782,34.115,22.83,32.941,22.83z M48.716,17.898c0.024-1.566-1.229-2.861-2.793-2.886H34.141   c-0.004,0-0.008,0.003-0.013,0.003c-1.542,0.024-2.769,1.252-2.795,2.793c-0.025,1.566,1.228,2.861,2.795,2.887   c0.004,0,0.008,0.003,0.013,0.003h11.754c0.01-0.001,0.017-0.006,0.026-0.006C47.463,20.667,48.69,19.44,48.716,17.898z    M37.929,22.117h-2.884c0.87,0.646,1.441,1.673,1.441,2.84c0,1.938-1.558,3.508-3.489,3.54h6.979   c-1.932-0.031-3.489-1.601-3.489-3.54C36.486,23.79,37.058,22.763,37.929,22.117z M40.032,22.83   c-1.175,0.001-2.126,0.952-2.127,2.127c0,1.174,0.952,2.126,2.127,2.126c1.174,0,2.126-0.952,2.126-2.126   C42.158,23.782,41.206,22.83,40.032,22.83z M51.845,28.497V14.311h-3.621c1.168,0.777,1.935,2.107,1.91,3.61   c-0.025,1.556-0.877,2.882-2.128,3.605c1.529,0.395,2.663,1.771,2.663,3.421c0,1.958-1.587,3.544-3.545,3.545   s-3.545-1.586-3.546-3.544c0-1.162,0.566-2.185,1.431-2.831h-2.874c0.871,0.646,1.442,1.673,1.442,2.84   c0,1.938-1.559,3.508-3.489,3.54H51.845z M44.996,24.947c0,1.175,0.952,2.127,2.126,2.127c1.175,0,2.127-0.952,2.127-2.127   c0-1.174-0.952-2.126-2.127-2.126C45.949,22.822,44.997,23.774,44.996,24.947z"/>
</g>
<g id="STK">
	<path d="M13.307,17.911h-0.036l-2.139,1.074l-0.386-1.671l2.857-1.406h1.847v11.703h-2.144V17.911z"/>
</g>
<g id="ECH">
	<rect width="27.832" x="26.078" fill="none" height="8.039" y="2.802"/>
	<path d="M39.33,3.634v6.736h-1.523V3.634H39.33z"/>
	<path d="M42.18,3.634v6.736h-1.522V3.634H42.18z"/>
</g>
<g id="PF">
	<rect width="60" x="0" fill="none" height="15.475" y="44.525"/>
	<path d="M17.595,48.986h1.312v5.626h1.723v1.11h-3.036V48.986z"/>
	<path d="M22.583,49.538c0.008,0.419-0.291,0.709-0.687,0.709c-0.361,0-0.657-0.29-0.648-0.709c-0.008-0.44,0.303-0.717,0.667-0.717   C22.292,48.821,22.583,49.098,22.583,49.538z M21.271,55.723v-4.892h1.312v4.892H21.271z"/>
	<path d="M25.048,49.514v1.317h0.957v0.929h-0.957v2.236c0,0.566,0.235,0.707,0.494,0.707c0.128,0,0.228-0.01,0.345-0.029   l0.01,1.023c-0.181,0.05-0.458,0.085-0.8,0.085c-0.378,0-0.71-0.088-0.947-0.311c-0.268-0.256-0.415-0.632-0.415-1.399V51.76   h-0.576v-0.929h0.576v-1.005L25.048,49.514z"/>
	<path d="M28.158,49.514v1.317h0.957v0.929h-0.957v2.236c0,0.566,0.235,0.707,0.494,0.707c0.128,0,0.228-0.01,0.345-0.029   l0.01,1.023c-0.181,0.05-0.458,0.085-0.8,0.085c-0.378,0-0.71-0.088-0.947-0.311c-0.268-0.256-0.415-0.632-0.415-1.399V51.76   h-0.576v-0.929h0.576v-1.005L28.158,49.514z"/>
	<path d="M33.229,53.261c0,2.037-1.128,2.542-1.867,2.542c-1.168,0-1.87-0.923-1.87-2.511c0-1.753,0.922-2.541,1.893-2.541   C32.536,50.751,33.229,51.721,33.229,53.261z M30.792,53.269c0,0.835,0.134,1.539,0.601,1.539c0.423,0,0.534-0.822,0.534-1.539   c0-0.677-0.111-1.523-0.555-1.523C30.895,51.745,30.792,52.592,30.792,53.269z"/>
	<path d="M33.968,52.303c0-0.486-0.021-1.015-0.039-1.472h1.135l0.067,0.716h0.035c0.215-0.521,0.61-0.796,0.969-0.796   c0.133,0,0.202,0.008,0.279,0.023v1.297c-0.083-0.016-0.169-0.016-0.285-0.016c-0.272,0-0.648,0.192-0.791,0.695   c-0.033,0.108-0.058,0.285-0.058,0.488v2.483h-1.312V52.303z"/>
	<path d="M38.211,49.538c0.008,0.419-0.291,0.709-0.687,0.709c-0.361,0-0.656-0.29-0.648-0.709c-0.008-0.44,0.303-0.717,0.666-0.717   C37.92,48.821,38.211,49.098,38.211,49.538z M36.899,55.723v-4.892h1.312v4.892H36.899z"/>
	<path d="M42.696,53.261c0,2.037-1.127,2.542-1.866,2.542c-1.169,0-1.87-0.923-1.87-2.511c0-1.753,0.922-2.541,1.893-2.541   C42.005,50.751,42.696,51.721,42.696,53.261z M40.261,53.269c0,0.835,0.134,1.539,0.601,1.539c0.424,0,0.534-0.822,0.534-1.539   c0-0.677-0.11-1.523-0.554-1.523C40.363,51.745,40.261,52.592,40.261,53.269z"/>
</g>
<g id="Des">
	<rect width="60" x="0" fill="none" height="14.525" y="31.722"/>
	<path d="M6.099,33.076h1.922v10.507h3.243v1.629H6.099V33.076z"/>
	<path d="M16.237,45.212l-0.113-0.893h-0.044c-0.437,0.676-1.087,1.037-1.856,1.037c-1.257,0-2.206-1.055-2.206-2.593   c0-2.252,1.905-3.204,3.888-3.222V39.31c0-0.913-0.357-1.555-1.31-1.555c-0.627,0-1.159,0.183-1.634,0.486l-0.37-1.312   c0.432-0.272,1.354-0.627,2.422-0.627c2.256,0,2.834,1.545,2.834,3.41v3.503c0,0.682,0.021,1.415,0.113,1.996H16.237z    M15.958,40.822c-0.748,0.011-2.104,0.219-2.104,1.744c0,0.989,0.528,1.347,0.95,1.347c0.482,0,0.946-0.327,1.108-1.003   c0.036-0.137,0.046-0.294,0.046-0.445V40.822z"/>
	<path d="M19.638,38.916c0-0.99-0.044-1.693-0.072-2.47h1.666l0.098,1.031h0.036c0.416-0.702,1.154-1.175,2.072-1.175   c1.461,0,2.239,1.135,2.239,3.167v5.742h-1.922v-5.559c0-0.876-0.186-1.731-1.023-1.731c-0.477,0-0.905,0.366-1.075,1.072   c-0.056,0.193-0.097,0.477-0.097,0.798v5.42h-1.922V38.916z"/>
	<path d="M32.052,45.031c-0.271,0.145-0.829,0.289-1.477,0.289c-2.082,0-3.465-1.541-3.465-4.422c0-2.625,1.452-4.575,3.775-4.575   c0.517,0,1.021,0.126,1.261,0.255l-0.294,1.524c-0.189-0.078-0.507-0.196-0.929-0.196c-1.251,0-1.896,1.34-1.896,2.954   c0,1.792,0.723,2.884,1.897,2.884c0.355,0,0.656-0.069,0.937-0.208L32.052,45.031z"/>
	<path d="M33.262,45.212V33.076h1.778l2.028,5.18c0.431,1.101,1.037,2.678,1.413,3.847h0.036c-0.095-1.557-0.208-3.427-0.208-5.598   v-3.429h1.701v12.136h-1.778l-2.05-5.166c-0.447-1.114-0.982-2.577-1.33-3.857h-0.036c0.085,1.401,0.146,3.123,0.146,5.632v3.392   H33.262z"/>
	<path d="M47.828,40.809c0,3.535-1.821,4.548-3.154,4.548c-1.859,0-3.128-1.556-3.128-4.507c0-3.166,1.556-4.547,3.192-4.547   C46.578,36.303,47.828,37.919,47.828,40.809z M43.463,40.819c0,1.476,0.25,3.053,1.272,3.053c0.957,0,1.176-1.73,1.176-3.053   c0-1.271-0.219-3.033-1.211-3.033C43.672,37.786,43.463,39.548,43.463,40.819z"/>
	<path d="M50.408,36.446l0.867,4.367c0.126,0.693,0.257,1.478,0.375,2.308h0.044c0.101-0.816,0.231-1.555,0.357-2.308l0.854-4.367   h1.898l-2.324,8.766h-1.745l-2.35-8.766H50.408z"/>
</g>
<g>
</g>
<g>
</g>
<g>
</g>
<g>
</g>
<g>
</g>
<g>
</g>
</svg>