<!-- Generator: Adobe Illustrator 25.2.3, SVG Export Plug-In . SVG Version: 6.00 Build 0)  --><svg x="0px" enable-background="new 0 0 60 60" y="0px" width="60px" xmlns:xlink="http://www.w3.org/1999/xlink" viewBox="0 0 60 60" height="60px" id="Layer_1" xmlns="http://www.w3.org/2000/svg" xml:space="preserve" version="1.1">
<rect width="60" fill="#FBF49C" x="0" height="60" id="UnitColor" y="-0.085"/>
<rect width="60" fill="#F7EC13" height="20.189" id="CS_2_" y="11.533" display="none"/>
<g id="Gar">
	<rect width="14.843" x="0.73" fill="none" height="8.039" y="2.802"/>
	<path d="M11.03,10.06c-0.472,0.163-1.361,0.379-2.249,0.379c-1.231,0-2.119-0.308-2.739-0.903C5.424,8.949,5.085,8.072,5.089,7.083   C5.097,4.842,6.73,3.567,8.936,3.567c0.87,0,1.539,0.165,1.873,0.323L10.49,5.111C10.117,4.95,9.664,4.825,8.922,4.825   c-1.27,0-2.235,0.714-2.235,2.18c0,1.391,0.878,2.205,2.125,2.205c0.344,0,0.623-0.04,0.745-0.095V7.699H8.516V6.512h2.514V10.06z"/>
</g>
<g id="Eng" display="none">
	<rect width="27.832" fill="none" x="1.1" height="8.039" y="2.802" display="inline"/>
	<path d="M17.011,7.521h-2.479v1.602h2.771v1.248h-4.294V3.634h4.15v1.248h-2.626v1.403h2.479V7.521z" display="inline"/>
</g>
<g id="P2" display="none">
	<path d="M19.024,28.186c0.472-1.148,0.803-2.149,0.992-3.001c0.282-1.24,0.423-2.417,0.423-3.534   c0-1.066-0.099-2.078-0.295-3.035c-0.197-0.957-0.575-2.146-1.135-3.568h1.146c0.628,1.03,1.101,2.092,1.419,3.186   c0.319,1.094,0.478,2.185,0.478,3.274c0,1.094-0.159,2.218-0.476,3.374s-0.786,2.257-1.407,3.305H19.024z" display="inline"/>
</g>
<g id="P1" display="none">
	<path d="M8.327,28.186H7.182c-0.605-1.025-1.071-2.111-1.396-3.257s-0.487-2.257-0.487-3.333   c0-1.162,0.163-2.296,0.489-3.401c0.326-1.105,0.795-2.154,1.408-3.148h1.146c-0.56,1.422-0.938,2.611-1.135,3.568   c-0.197,0.957-0.295,1.969-0.295,3.035c0,1.103,0.139,2.27,0.416,3.5C7.522,26.016,7.855,27.028,8.327,28.186z" display="inline"/>
</g>
<g id="Type">
	<path d="M53.265,12.893v17.022H26.785V12.893H53.265z M40.025,20.577l10.442-6.265H34.536v2.972L40.025,20.577z M34.536,23.87   l4.11-2.466l-4.11-2.466V23.87z M34.536,28.497h15.932l-10.442-6.265l-5.489,3.293V28.497z M41.404,21.404l10.441,6.265v-12.53   L41.404,21.404z"/>
</g>
<g id="STK">
	<path d="M13.307,17.911h-0.036l-2.139,1.074l-0.386-1.671l2.857-1.406h1.847v11.703h-2.144V17.911z"/>
</g>
<g id="ECH">
	<rect width="27.832" x="26.078" fill="none" height="8.039" y="2.802"/>
	<path d="M39.33,3.634v6.736h-1.523V3.634H39.33z"/>
	<path d="M42.18,3.634v6.736h-1.522V3.634H42.18z"/>
</g>
<g id="PF">
	<rect width="60" x="0" fill="none" height="15.475" y="44.525"/>
	<path d="M22.157,53.367c-0.034-0.646-0.076-1.508-0.062-2.234h-0.026c-0.121,0.723-0.3,1.552-0.426,2.075l-0.585,2.404h-0.929   l-0.559-2.366c-0.13-0.545-0.308-1.383-0.411-2.113h-0.024c-0.02,0.735-0.067,1.585-0.102,2.251l-0.114,2.339h-1.124l0.484-6.736   h1.383l0.537,2.438c0.187,0.854,0.357,1.599,0.478,2.36h0.022c0.103-0.748,0.252-1.508,0.429-2.36l0.531-2.438h1.383l0.409,6.736   h-1.173L22.157,53.367z"/>
	<path d="M25.385,53.743c0.016,0.763,0.457,1.045,1.036,1.045c0.373,0,0.694-0.08,0.933-0.166l0.171,0.937   c-0.333,0.136-0.848,0.224-1.341,0.224c-1.333,0-2.066-0.879-2.066-2.407c0-1.645,0.857-2.624,1.958-2.624   c1.052,0,1.667,0.83,1.667,2.311c0,0.35-0.016,0.542-0.04,0.682H25.385z M26.548,52.826c0.004-0.628-0.163-1.12-0.552-1.12   c-0.425,0-0.599,0.626-0.61,1.12H26.548z"/>
	<path d="M31.19,55.638c-0.135,0.065-0.46,0.145-0.835,0.145c-1.239,0-2.048-0.857-2.048-2.456c0-1.515,0.889-2.56,2.245-2.56   c0.309,0,0.588,0.07,0.715,0.131l-0.172,1.025c-0.108-0.036-0.271-0.089-0.487-0.089c-0.631,0-1,0.6-1,1.451   c0,0.885,0.375,1.432,0.985,1.432c0.188,0,0.347-0.034,0.49-0.103L31.19,55.638z"/>
	<path d="M31.706,48.807h1.312v2.536h0.02c0.116-0.17,0.258-0.307,0.424-0.414c0.186-0.11,0.418-0.178,0.661-0.178   c0.896,0,1.248,0.767,1.248,2.008v2.964h-1.312v-2.972c0-0.473-0.089-0.897-0.483-0.897c-0.219,0-0.407,0.127-0.506,0.463   c-0.02,0.081-0.051,0.256-0.051,0.368v3.038h-1.312V48.807z"/>
	<path d="M37.598,49.538c0.008,0.419-0.291,0.709-0.687,0.709c-0.361,0-0.656-0.29-0.648-0.709c-0.008-0.44,0.303-0.717,0.666-0.717   C37.307,48.821,37.598,49.098,37.598,49.538z M36.286,55.723v-4.892h1.312v4.892H36.286z"/>
	<path d="M38.516,48.807h1.312v6.916h-1.312V48.807z"/>
	<path d="M42.077,49.538c0.008,0.419-0.291,0.709-0.687,0.709c-0.361,0-0.656-0.29-0.648-0.709c-0.008-0.44,0.303-0.717,0.666-0.717   C41.786,48.821,42.077,49.098,42.077,49.538z M40.766,55.723v-4.892h1.312v4.892H40.766z"/>
</g>
<g id="Des">
	<rect width="60" x="0" fill="none" height="14.525" y="31.722"/>
	<path d="M17.014,40.525c-0.07-1.359-0.149-3.013-0.116-4.353h-0.06c-0.237,1.325-0.561,2.799-0.855,3.956l-1.252,4.939h-1.318   l-1.193-4.8c-0.31-1.235-0.646-2.74-0.855-4.096h-0.051c-0.015,1.371-0.098,2.978-0.167,4.415l-0.214,4.624H9.257l0.804-12.136   h2.048l1.17,4.913c0.368,1.567,0.674,2.84,0.911,4.216h0.044c0.208-1.363,0.479-2.636,0.829-4.216l1.146-4.913h2.069l0.717,12.136   H17.25L17.014,40.525z"/>
	<path d="M22.148,41.346c0.021,1.958,0.93,2.491,1.953,2.491c0.64,0,1.183-0.145,1.573-0.312l0.272,1.383   c-0.547,0.258-1.393,0.412-2.194,0.412c-2.259,0-3.472-1.64-3.472-4.353c0-2.901,1.39-4.665,3.261-4.665   c1.844,0,2.773,1.666,2.773,4.016c0,0.5-0.021,0.796-0.051,1.027H22.148z M24.533,39.978c0.016-1.407-0.447-2.243-1.128-2.243   c-0.834,0-1.21,1.215-1.249,2.243H24.533z"/>
	<path d="M32.312,45.031c-0.271,0.145-0.828,0.289-1.476,0.289c-2.082,0-3.465-1.541-3.465-4.422c0-2.625,1.452-4.575,3.776-4.575   c0.517,0,1.021,0.126,1.26,0.255l-0.293,1.524c-0.19-0.078-0.507-0.196-0.929-0.196c-1.252,0-1.897,1.34-1.897,2.954   c0,1.792,0.723,2.884,1.897,2.884c0.354,0,0.656-0.069,0.937-0.208L32.312,45.031z"/>
	<path d="M33.345,32.752h1.922v4.62h0.036c0.201-0.306,0.461-0.563,0.751-0.753c0.327-0.198,0.715-0.316,1.176-0.316   c1.387,0,2.154,1.152,2.154,3.372v5.537h-1.922v-5.473c0-0.95-0.196-1.817-1.01-1.817c-0.505,0-0.915,0.335-1.108,1.083   c-0.036,0.164-0.077,0.452-0.077,0.658v5.549h-1.922V32.752z"/>
	<path d="M43.133,34.149c0.011,0.66-0.434,1.107-1.062,1.107c-0.56,0-1.009-0.447-0.999-1.107c-0.01-0.683,0.46-1.117,1.027-1.117   C42.699,33.032,43.133,33.467,43.133,34.149z M41.156,45.212v-8.766h1.922v8.766H41.156z"/>
	<path d="M44.846,32.752h1.922v12.46h-1.922V32.752z"/>
	<path d="M50.603,34.149c0.011,0.66-0.434,1.107-1.062,1.107c-0.56,0-1.009-0.447-0.999-1.107c-0.01-0.683,0.46-1.117,1.027-1.117   C50.169,33.032,50.603,33.467,50.603,34.149z M48.626,45.212v-8.766h1.922v8.766H48.626z"/>
</g>
<g>
</g>
<g>
</g>
<g>
</g>
<g>
</g>
<g>
</g>
<g>
</g>
</svg>