<svg width="60" height="60" xmlns="http://www.w3.org/2000/svg" viewBox="0 0 60 60">
  <rect fill="#faf39f" height="60" width="60"/>
  <g>
    <g>
      <path d="M8.526,3.846H13.2V5.061H10v2.23h2.973V8.5H10V11.93H8.526Z" transform="translate(0 0)"/>
      <path d="M16.112,3.846V11.93H14.634V3.846Z" transform="translate(0 0)"/>
      <path d="M24.287,11.561a8.224,8.224,0,0,1-2.6.45,4.342,4.342,0,0,1-3.167-1.077,4.034,4.034,0,0,1-1.135-2.969c.007-2.565,1.831-4.2,4.506-4.2a5.406,5.406,0,0,1,2.145.38l-.328,1.188a4.307,4.307,0,0,0-1.838-.345,2.706,2.706,0,0,0-2.936,2.9,2.669,2.669,0,0,0,2.806,2.923,2.928,2.928,0,0,0,1.117-.161V8.633H21.431V7.473h2.856Z" transform="translate(0 0)"/>
      <path d="M27.271,3.846V7.08h3.417V3.846h1.477V11.93H30.688V8.362H27.271V11.93H25.794V3.846Z" transform="translate(0 0)"/>
      <path d="M35.41,5.087H33.1V3.846h6.115V5.087h-2.33V11.93H35.41Z" transform="translate(0 0)"/>
      <path d="M44.682,8.344H41.635v2.371h3.406V11.93H40.157V3.846h4.706V5.061H41.635V7.139h3.047Z" transform="translate(0 0)"/>
      <path d="M46.337,3.957a13.287,13.287,0,0,1,2.24-.174,3.752,3.752,0,0,1,2.492.652,2.033,2.033,0,0,1,.7,1.624A2.137,2.137,0,0,1,50.3,8.078v.034a2.038,2.038,0,0,1,1.128,1.565,17.7,17.7,0,0,0,.638,2.253H50.546A10.393,10.393,0,0,1,50,10.022c-.232-1.053-.615-1.395-1.454-1.415H47.8V11.93H46.337ZM47.8,7.524h.874c1,0,1.618-.527,1.618-1.331,0-.88-.62-1.293-1.574-1.3a4.068,4.068,0,0,0-.918.076Z" transform="translate(0 0)"/>
    </g>
    <g>
      <path d="M11.545,19.856c-.041-.87-.086-1.916-.081-2.834h-.027c-.223.827-.5,1.735-.795,2.587l-.989,2.915H8.707l-.894-2.875c-.264-.864-.5-1.779-.681-2.627H7.11c-.029.882-.069,1.958-.121,2.875L6.839,22.6H5.692l.449-6.736H7.757l.878,2.705c.242.8.458,1.6.619,2.347h.03c.181-.736.412-1.559.673-2.352l.935-2.7h1.6l.387,6.736h-1.2Z" transform="translate(0 0)"/>
      <path d="M18.756,20.124a2.412,2.412,0,0,1-2.5,2.591,2.352,2.352,0,0,1-2.434-2.507,2.4,2.4,0,0,1,2.517-2.579A2.334,2.334,0,0,1,18.756,20.124Zm-3.67.053c0,.936.468,1.643,1.21,1.643.705,0,1.2-.68,1.2-1.66,0-.764-.338-1.638-1.187-1.638S15.086,19.365,15.086,20.177Z" transform="translate(0 0)"/>
      <path d="M19.773,19.186c0-.562-.017-1.026-.04-1.447h1.076l.06.731H20.9a1.774,1.774,0,0,1,1.551-.841c.849,0,1.73.546,1.73,2.085V22.6H22.947V19.859c0-.7-.257-1.23-.928-1.23a1.02,1.02,0,0,0-.957.722,1.179,1.179,0,0,0-.057.39V22.6H19.773Z" transform="translate(0 0)"/>
      <path d="M30.116,20.124a2.412,2.412,0,0,1-2.5,2.591,2.352,2.352,0,0,1-2.434-2.507A2.4,2.4,0,0,1,27.7,17.629,2.334,2.334,0,0,1,30.116,20.124Zm-3.67.053c0,.936.468,1.643,1.21,1.643.705,0,1.2-.68,1.2-1.66,0-.764-.339-1.638-1.188-1.638S26.446,19.365,26.446,20.177Z" transform="translate(0 0)"/>
      <path d="M31.132,19.352c0-.631-.018-1.156-.04-1.613h1.081l.06.747h.02a1.886,1.886,0,0,1,1.668-.857A2.2,2.2,0,0,1,35.962,20.1a2.313,2.313,0,0,1-2.212,2.611,1.579,1.579,0,0,1-1.368-.651h-.02v2.519h-1.23Zm1.23,1.215a1.555,1.555,0,0,0,.034.336,1.116,1.116,0,0,0,1.081.861c.78,0,1.238-.649,1.238-1.6,0-.862-.419-1.561-1.21-1.561a1.153,1.153,0,0,0-1.1.91,1.3,1.3,0,0,0-.044.31Z" transform="translate(0 0)"/>
      <path d="M36.982,15.509h1.232V22.6H36.982Z" transform="translate(0 0)"/>
      <path d="M42.29,22.6l-.084-.542h-.03a1.779,1.779,0,0,1-1.434.653,1.442,1.442,0,0,1-1.534-1.447c0-1.229,1.095-1.85,2.887-1.843v-.08c0-.321-.127-.852-.989-.849a2.583,2.583,0,0,0-1.307.363l-.244-.8a3.508,3.508,0,0,1,1.763-.432,1.816,1.816,0,0,1,2.006,2.052v1.752A7.48,7.48,0,0,0,43.4,22.6Zm-.163-2.382c-.868-.012-1.7.171-1.7.912a.65.65,0,0,0,.7.7,1,1,0,0,0,.963-.674.941.941,0,0,0,.034-.267Z" transform="translate(0 0)"/>
      <path d="M44.633,19.186c0-.562-.018-1.026-.04-1.447h1.075l.061.731h.028a1.773,1.773,0,0,1,1.551-.841c.848,0,1.729.546,1.729,2.085V22.6h-1.23V19.859c0-.7-.257-1.23-.929-1.23a1.022,1.022,0,0,0-.957.722,1.205,1.205,0,0,0-.057.39V22.6H44.633Z" transform="translate(0 0)"/>
      <path d="M51.219,20.512a1.327,1.327,0,0,0,1.5,1.267,3.717,3.717,0,0,0,1.342-.225l.182.846a4.393,4.393,0,0,1-1.7.309,2.3,2.3,0,0,1-2.505-2.467,2.406,2.406,0,0,1,2.38-2.613A2.113,2.113,0,0,1,54.517,20a2.617,2.617,0,0,1-.043.517Zm2.139-.858a1.046,1.046,0,0,0-1.014-1.185,1.2,1.2,0,0,0-1.127,1.185Z" transform="translate(0 0)"/>
    </g>
    <g>
      <g>
        <path fill="#010101" d="M16.418,35.459v.066q0,.033,0,.066t0,.069c0,.022,0,.045,0,.067l-.006.066q0,.036-.009.069t-.009.066c0,.023-.005.045-.009.067l-.012.066q-.006.033-.015.066t-.015.066c0,.02-.009.042-.015.064l-.019.066a.581.581,0,0,1-.021.063q-.009.033-.021.066c-.006.02-.013.042-.021.064l-.024.063-.024.06c-.01.022-.019.044-.027.063l-.03.061q-.012.03-.027.06t-.033.06l-.031.06L16.008,37q-.018.03-.036.057t-.036.057q-.018.03-.036.057c-.014.018-.027.037-.039.055s-.027.036-.039.054l-.043.054-.042.054q-.021.024-.042.051l-.045.049-.045.051-.049.048-.048.048q-.024.021-.048.045c-.016.016-.033.031-.051.046l-.051.045c-.016.014-.033.028-.052.042l-.054.042a.491.491,0,0,1-.051.039.572.572,0,0,1-.057.039c-.018.014-.036.028-.054.04l-.058.036-.057.036a.53.53,0,0,1-.057.033l-.06.033-.061.03a.28.28,0,0,1-.06.03l-.06.031q-.03.015-.06.027l-.064.027-.063.024-.063.024-.063.021-.064.018-.066.021a.581.581,0,0,1-.063.015l-.066.018-.067.012q-.033.009-.066.015t-.066.009l-.066.013a.513.513,0,0,0-.067.009l-.069.006-.066.006a.486.486,0,0,0-.066,0l-.07,0H13.37c-.022,0-.045,0-.07,0a.486.486,0,0,0-.066,0l-.066-.006-.069-.006a.513.513,0,0,0-.067-.009l-.066-.013q-.033,0-.066-.009t-.066-.015l-.067-.012L12.7,38.38l-.063-.015-.066-.021-.064-.018-.063-.021-.063-.024-.063-.024c-.021-.01-.042-.019-.064-.027s-.04-.017-.06-.027l-.06-.031a.42.42,0,0,1-.06-.03l-.061-.03-.06-.033-.057-.033-.057-.036-.058-.036c-.018-.012-.036-.026-.054-.04l-.054-.039-.054-.039-.055-.042-.051-.042-.051-.045-.051-.046q-.024-.024-.048-.045l-.049-.048q-.024-.024-.045-.048t-.048-.051l-.042-.049-.045-.051-.042-.054c-.014-.018-.028-.036-.04-.054l-.042-.054c-.012-.018-.025-.037-.039-.055s-.024-.037-.036-.057-.024-.037-.036-.057A.53.53,0,0,1,10.867,37c-.012-.018-.024-.037-.036-.058l-.031-.06-.03-.06-.03-.06-.03-.061c-.008-.019-.016-.041-.024-.063s-.019-.04-.027-.06l-.024-.063c-.008-.022-.015-.044-.021-.064s-.015-.044-.021-.066-.013-.041-.021-.063l-.019-.066a.6.6,0,0,0-.015-.064q-.009-.033-.015-.066t-.015-.066l-.012-.066c0-.022-.007-.044-.009-.067s-.007-.044-.009-.066-.007-.045-.009-.069l-.006-.066c0-.022,0-.045,0-.067s0-.045,0-.069,0-.044,0-.066v-.066c0-.025,0-.048,0-.07s0-.044,0-.066,0-.044,0-.066l.006-.07q0-.033.009-.066t.009-.066q0-.033.009-.066l.012-.067q.006-.033.015-.066t.015-.066q.009-.033.015-.066l.019-.064q.012-.033.021-.066t.021-.063c.006-.02.013-.041.021-.064s.016-.041.024-.063.017-.041.027-.063l.024-.06.03-.06c.01-.022.02-.044.03-.064l.03-.06c.01-.018.021-.037.031-.057l.036-.06.033-.058q.018-.027.036-.057l.036-.054.039-.057.042-.054a.512.512,0,0,1,.04-.052l.042-.054.045-.051q.021-.024.042-.051l.048-.049q.021-.024.045-.048l.049-.048.048-.045.051-.045c.016-.016.033-.031.051-.046l.051-.042.055-.042q.027-.021.054-.039t.054-.039q.027-.021.054-.039l.058-.036.057-.037.057-.033q.03-.018.06-.033c.02-.012.04-.023.061-.033l.06-.03.06-.027.06-.027.064-.028.063-.024.063-.024.063-.021c.022-.006.043-.013.064-.021l.066-.018L12.7,32.6l.066-.015.067-.015.066-.012.066-.012.066-.009c.022,0,.045-.007.067-.009l.069-.006.066-.006.066,0,.07,0H13.5c.024,0,.047,0,.07,0l.066,0,.066.006.069.006c.022,0,.045.005.067.009l.066.009.066.012.066.012c.022.006.045.011.067.015l.066.015.063.018.066.018c.021.008.042.015.064.021l.063.021.063.024.063.024c.023.009.044.018.064.028l.06.027.06.027q.033.015.06.03c.021.01.041.021.061.033s.04.021.06.033a.53.53,0,0,1,.057.033l.057.037.058.036q.027.018.054.039a.572.572,0,0,1,.057.039.491.491,0,0,1,.051.039l.054.042c.019.014.036.028.052.042s.035.03.051.046a.547.547,0,0,1,.051.045l.048.045.048.048.049.048c.014.017.029.033.045.049a.547.547,0,0,0,.045.051q.021.027.042.051l.042.054.043.052q.018.027.039.054l.039.057.036.054q.018.03.036.057c.012.021.024.04.036.058s.021.04.033.06l.031.06a.53.53,0,0,1,.033.057.614.614,0,0,1,.027.064l.03.06q.012.03.027.06t.024.063q.012.033.024.063c.008.023.015.044.021.064s.015.043.021.063.015.044.021.066l.019.064q.009.033.015.066t.015.066q.009.033.015.066l.012.067q.006.033.009.066t.009.066q.006.033.009.066l.006.07q0,.033,0,.066t0,.066C16.417,35.411,16.418,35.434,16.418,35.459Z" transform="translate(0 0)"/>
        <path fill="#010101" d="M13.478,34.016l.051,0,.049,0,.058.006h0l.065.012h0l.071.016.039.009h0l.036.01.053.017.035.011.059.023.037.016.056.026.006,0,.01.005a.576.576,0,0,0,.06.033c.019.012.039.022.059.033s.063.047.1.068l.016.013.028.02.025.022.059.052h0l.025.02.026.029h0l.016.016.016.017.025.028.039.049.031.038.016.022.009.013.018.028.032.05.006.01.021.039c.01.02.021.04.032.06s.02.044.031.065l.006.013.009.02.012.031h0l.005.012c0,.018.008.027.016.049s.013.04.02.06l0,.014c0,.019.008.039.013.058s.009.041.014.061l0,.013c0,.02.005.04.008.06s0,.04.008.059v.013l0,.061,0,.06V35.5l0,.064,0,.059v.016c0,.019,0,.038-.008.057s-.006.04-.008.06l0,.013c-.005.019-.009.039-.013.058l-.008.037-.008.029q-.017.048-.03.1l-.033.083-.012.025-.027.057c-.011.019-.021.039-.031.059l-.01.02c-.011.016-.015.023-.027.043l-.03.046-.018.026c-.024.031-.043.058-.053.071h0l-.024.029-.033.037-.023.026-.02.02-.018.018-.04.038-.027.023-.021.019-.058.045,0,0c-.017.011-.032.022-.059.043l-.066.041-.018.011-.058.029-.027.014-.023.011-.041.021-.057.024-.041.015-.025.009-.041.012-.033.01-.048.012-.013,0h0l-.076.016-.06.009-.053.008h0l-.025,0-.054,0-.042,0h-.04l-.045,0-.072,0h-.018l-.033-.005h0l-.08-.013-.064-.013h0l-.013,0a.369.369,0,0,0-.048-.012l-.033-.01-.041-.012-.032-.011h0l-.029-.011-.071-.031-.032-.016-.024-.011-.026-.014-.028-.012-.054-.031-.049-.032-.036-.026c-.011-.009-.015-.011-.037-.026l-.029-.02-.06-.053-.023-.021-.041-.038c-.016-.018-.021-.022-.042-.043l-.036-.042-.023-.027c-.018-.024-.035-.049-.054-.072l-.014-.019-.011-.015-.021-.032-.006-.01c-.014-.026-.029-.051-.045-.076l-.024-.049-.028-.057c-.012-.031-.026-.062-.04-.093s-.014-.044-.022-.066l.007.02c-.006-.022-.013-.044-.02-.066S12,35.834,12,35.815l-.012-.05,0-.013c0-.02-.005-.04-.008-.06s0-.037-.008-.056v-.017l0-.059,0-.064v-.012l0-.06,0-.061V35.35c0-.019,0-.039.008-.059s.005-.04.008-.06l0-.013c.005-.02.01-.039.014-.059l.015-.062c.007-.022.013-.043.019-.064s.011-.03.017-.051l.009-.021.025-.06v0l0,0,.032-.068.015-.03.023-.041h0l.026-.045.027-.042.018-.026.013-.017.037-.05.013-.016.026-.03.023-.027c.023-.023.048-.048.07-.073l.049-.043.025-.023.01-.009.034-.026.039-.029c.028-.019.026-.017.048-.034l.064-.042.03-.017.058-.031.021-.011.049-.022.063-.026.039-.015.033-.011.053-.018h0l.034-.01.041-.01.071-.016h0l.053-.01.069-.006.073-.007h.112M13.5,32.51H13.37l-.07,0-.066,0-.066.006-.069.006c-.022,0-.045.005-.067.009l-.066.009-.066.012-.066.012-.067.015L12.7,32.6l-.063.018-.066.018c-.021.008-.042.015-.064.021l-.063.021-.063.024-.063.024-.064.028-.06.027-.06.027-.06.03c-.021.01-.041.021-.061.033s-.04.021-.06.033l-.057.033-.057.037-.058.036q-.027.018-.054.039t-.054.039q-.027.018-.054.039l-.055.042-.051.042c-.018.015-.035.03-.051.046l-.051.045-.048.045-.049.048q-.024.024-.045.048l-.048.049q-.021.027-.042.051l-.045.051-.042.054a.512.512,0,0,0-.04.052l-.042.054-.039.057-.036.054q-.018.03-.036.057l-.033.058-.036.06c-.01.02-.021.039-.031.057l-.03.06c-.01.02-.02.042-.03.064l-.03.06-.024.06q-.015.033-.027.063t-.024.063c-.008.023-.015.044-.021.064s-.015.043-.021.063-.013.044-.021.066l-.019.064q-.006.033-.015.066t-.015.066q-.009.033-.015.066l-.012.067q-.006.033-.009.066t-.009.066q-.006.033-.009.066l-.006.07q0,.033,0,.066t0,.066c0,.022,0,.045,0,.07v.066q0,.033,0,.066t0,.069c0,.022,0,.045,0,.067l.006.066q0,.036.009.069t.009.066c0,.023.005.045.009.067l.012.066q.006.033.015.066t.015.066a.6.6,0,0,1,.015.064l.019.066q.012.033.021.063t.021.066c.006.02.013.042.021.064l.024.063q.012.03.027.06c.008.022.016.044.024.063l.03.061.03.06.03.06.031.06c.012.021.024.04.036.058a.53.53,0,0,0,.033.057q.018.03.036.057t.036.057c.014.018.027.037.039.055l.042.054c.012.018.026.036.04.054l.042.054.045.051.042.049q.024.027.048.051t.045.048l.049.048q.024.021.048.045l.051.046.051.045.051.042.055.042.054.039.054.039c.018.014.036.028.054.04l.058.036.057.036.057.033.06.033.061.03a.42.42,0,0,0,.06.03l.06.031q.03.015.06.027c.022.008.043.017.064.027l.063.024.063.024.063.021.064.018.066.021.063.015.066.018.067.012q.033.009.066.015t.066.009l.066.013a.513.513,0,0,1,.067.009l.069.006.066.006a.486.486,0,0,1,.066,0c.025,0,.048,0,.07,0H13.5l.07,0a.486.486,0,0,1,.066,0l.066-.006.069-.006a.513.513,0,0,1,.067-.009l.066-.013q.033,0,.066-.009t.066-.015l.067-.012.066-.018a.581.581,0,0,0,.063-.015l.066-.021.064-.018.063-.021.063-.024.063-.024.064-.027q.03-.012.06-.027l.06-.031a.28.28,0,0,0,.06-.03l.061-.03.06-.033a.53.53,0,0,0,.057-.033l.057-.036.058-.036c.018-.012.036-.026.054-.04A.572.572,0,0,0,15.2,37.9a.491.491,0,0,0,.051-.039l.054-.042c.019-.014.036-.028.052-.042l.051-.045c.018-.015.035-.03.051-.046s.032-.031.048-.045l.048-.048.049-.048.045-.051.045-.049q.021-.027.042-.051l.042-.054.043-.054q.018-.027.039-.054c.012-.018.025-.037.039-.055s.024-.037.036-.057.024-.037.036-.057.024-.037.036-.057l.033-.058.031-.06q.018-.03.033-.06t.027-.06l.03-.061c.008-.019.017-.041.027-.063l.024-.06.024-.063c.008-.022.015-.044.021-.064s.015-.044.021-.066a.581.581,0,0,0,.021-.063l.019-.066c.006-.022.011-.044.015-.064s.011-.044.015-.066.011-.044.015-.066l.012-.066c0-.022.007-.044.009-.067s.007-.044.009-.066.007-.045.009-.069l.006-.066c0-.022,0-.045,0-.067s0-.045,0-.069,0-.044,0-.066v-.066c0-.025,0-.048,0-.07s0-.044,0-.066,0-.044,0-.066l-.006-.07q0-.033-.009-.066t-.009-.066q0-.033-.009-.066l-.012-.067q-.006-.033-.015-.066t-.015-.066q-.006-.033-.015-.066L16.3,34.66q-.009-.033-.021-.066t-.021-.063c-.006-.02-.013-.041-.021-.064s-.016-.041-.024-.063-.016-.041-.024-.063-.019-.04-.027-.06l-.03-.06a.614.614,0,0,0-.027-.064.53.53,0,0,0-.033-.057l-.031-.06q-.018-.03-.033-.06c-.012-.018-.024-.037-.036-.058s-.024-.037-.036-.057l-.036-.054-.039-.057q-.021-.027-.039-.054l-.043-.052-.042-.054q-.021-.024-.042-.051a.547.547,0,0,1-.045-.051c-.016-.016-.031-.032-.045-.049l-.049-.048-.048-.048L15.46,33.3a.547.547,0,0,0-.051-.045c-.016-.016-.033-.031-.051-.046s-.033-.028-.052-.042l-.054-.042a.491.491,0,0,0-.051-.039.572.572,0,0,0-.057-.039q-.027-.021-.054-.039l-.058-.036-.057-.037a.53.53,0,0,0-.057-.033q-.03-.018-.06-.033c-.02-.012-.04-.023-.061-.033s-.038-.02-.06-.03l-.06-.027-.06-.027c-.02-.01-.041-.019-.064-.028L14.49,32.7l-.063-.024-.063-.021c-.022-.006-.043-.013-.064-.021l-.066-.018-.063-.018-.066-.015c-.022,0-.045-.009-.067-.015l-.066-.012-.066-.012-.066-.009c-.022,0-.045-.007-.067-.009l-.069-.006-.066-.006-.066,0c-.023,0-.046,0-.07,0Z" transform="translate(0 0)"/>
      </g>
      <g>
        <path fill="#010101" d="M48.668,35.459a.364.364,0,0,1,0,.066v.066q0,.036,0,.069l-.006.067-.006.066-.006.069q-.006.033-.009.066l-.012.067-.012.066-.012.066q-.009.033-.015.066l-.018.064-.018.066-.018.063q-.012.033-.021.066c-.008.02-.017.042-.025.064a.5.5,0,0,1-.024.063l-.024.06a.519.519,0,0,1-.027.063c-.008.02-.017.041-.027.061l-.03.06-.03.06q-.015.03-.033.06a.461.461,0,0,1-.033.058c-.013.02-.024.039-.034.057s-.024.039-.036.057l-.039.057c-.012.018-.025.037-.039.055s-.025.036-.039.054l-.042.054a.406.406,0,0,1-.043.054q-.021.024-.042.051c-.014.017-.029.033-.045.049a.547.547,0,0,1-.045.051l-.048.048q-.021.024-.045.048l-.052.045-.048.046a.547.547,0,0,0-.051.045l-.054.042-.051.042-.055.039-.054.039a.581.581,0,0,1-.057.04l-.054.036-.058.036q-.03.018-.06.033a.53.53,0,0,1-.057.033l-.06.03a.383.383,0,0,1-.061.03l-.06.031a.6.6,0,0,1-.063.027l-.06.027-.064.024-.063.024a.581.581,0,0,0-.063.021l-.066.018a.534.534,0,0,1-.064.021l-.066.015-.066.018-.063.012c-.022.006-.045.011-.067.015s-.044.007-.066.009l-.069.013a.5.5,0,0,0-.066.009l-.067.006-.066.006a.516.516,0,0,0-.069,0l-.066,0H45.62l-.066,0a.524.524,0,0,0-.07,0l-.066-.006-.066-.006a.5.5,0,0,0-.066-.009l-.067-.013q-.033,0-.066-.009t-.066-.015l-.066-.012-.067-.018-.066-.015-.063-.021-.063-.018-.067-.021-.063-.024-.063-.024-.06-.027-.064-.027-.06-.031a.42.42,0,0,1-.06-.03l-.06-.03-.058-.033a.53.53,0,0,1-.057-.033l-.06-.036-.054-.036a.6.6,0,0,1-.058-.04l-.054-.039-.054-.039-.051-.042-.054-.042c-.017-.016-.034-.031-.052-.045l-.048-.046q-.024-.024-.048-.045a.543.543,0,0,1-.048-.048l-.048-.048a.441.441,0,0,1-.046-.051c-.016-.016-.031-.032-.045-.049s-.028-.035-.042-.051l-.042-.054-.042-.054q-.021-.027-.039-.054a.636.636,0,0,1-.04-.055q-.018-.027-.036-.057a.341.341,0,0,1-.036-.057q-.018-.027-.036-.057a.461.461,0,0,1-.033-.058q-.018-.03-.033-.06l-.03-.06-.031-.06c-.01-.02-.019-.041-.027-.061a.519.519,0,0,1-.027-.063l-.024-.06q-.012-.033-.024-.063c-.008-.022-.016-.044-.024-.064s-.013-.044-.021-.066l-.018-.063-.018-.066-.018-.064q-.006-.033-.015-.066l-.012-.066-.013-.066-.012-.067q0-.033-.009-.066l-.006-.069-.006-.066-.006-.067q0-.033,0-.069v-.2q0-.033,0-.066l.006-.066.006-.07.006-.066q.006-.033.009-.066l.012-.066.013-.067.012-.066q.009-.033.015-.066l.018-.066.018-.064.018-.066a.581.581,0,0,0,.021-.063c.008-.02.016-.041.024-.064s.016-.041.024-.063.016-.041.024-.063.017-.04.027-.06.017-.04.027-.06.021-.044.031-.064l.03-.06.033-.057q.015-.03.033-.06c.012-.018.024-.037.036-.058a.654.654,0,0,1,.036-.057l.036-.054a.449.449,0,0,1,.04-.057q.018-.027.039-.054c.014-.018.028-.036.042-.052l.042-.054q.021-.024.042-.051l.045-.051c.014-.016.029-.032.046-.049l.048-.048a.543.543,0,0,1,.048-.048l.048-.045.048-.045.052-.046.054-.042.051-.042q.027-.021.054-.039t.054-.039a.587.587,0,0,1,.058-.039l.054-.036.06-.037a.53.53,0,0,1,.057-.033l.058-.033q.03-.018.06-.033l.06-.03.06-.027.064-.027.06-.028c.022-.008.043-.015.063-.024s.043-.015.063-.024l.067-.021.063-.021.063-.018.066-.018.067-.015q.033-.006.066-.015l.066-.012.066-.012c.022,0,.045-.007.067-.009l.066-.009.066-.006.066-.006.07,0,.066,0h.136l.066,0,.069,0,.066.006.067.006.066.009.069.009.066.012.067.012a.581.581,0,0,0,.063.015l.066.015.066.018.064.018q.033.012.066.021a.581.581,0,0,0,.063.021c.02.009.041.016.063.024s.042.016.064.024l.06.028a.6.6,0,0,1,.063.027l.06.027.061.03q.03.015.06.033a.53.53,0,0,1,.057.033q.03.015.06.033l.058.037.054.036a.572.572,0,0,1,.057.039q.027.018.054.039l.055.039.054.042.051.042.051.046.048.045c.018.014.035.029.052.045s.031.032.045.048l.048.048.045.049.045.051q.021.027.042.051a.406.406,0,0,1,.043.054c.014.016.028.034.042.052s.027.036.039.054a.572.572,0,0,1,.039.057q.018.027.039.054t.036.057a.368.368,0,0,0,.034.058q.018.03.033.06t.033.06l.03.057c.01.02.02.042.03.064s.019.04.027.06.019.04.027.06.016.043.024.063a.5.5,0,0,1,.024.063c.008.023.017.044.025.064a.581.581,0,0,0,.021.063l.018.066.018.064.018.066q.006.033.015.066l.012.066.012.067.012.066q0,.033.009.066l.006.066.006.07.006.066q0,.033,0,.066Z" transform="translate(0 0)"/>
        <path fill="#010101" d="M45.728,34.016l.056,0,.036,0,.066.007h0l.067.012h0l.065.015.049.011.03.008.044.015.055.018.029.011.08.035.03.013.021.011.028.015.069.04.021.013.024.016.031.02c.021.016.042.032.064.047l.014.011a.373.373,0,0,0,.039.031c.02.021.042.041.064.06l.032.034.024.022.023.026c.019.024.039.047.061.072l-.012-.014.019.022,0,0,0,0,0,0,.026.037.011.018.037.053.025.042.018.031c.011.021.024.048.036.069l.011.024c.008.018.015.035.023.052l.017.044,0,.008,0,.007.013.035.015.043h0l.018.063.005.02.012.05h0l.012.069,0,.017,0,.03v.019l.005.057,0,.042v.135l0,.031-.007.078v.012l-.006.045h0l-.011.065,0,.019-.006.026-.007.025-.021.076-.011.035-.012.03-.005.013-.009.023-.015.038-.016.036-.019.037-.01.024-.026.045-.007.013-.037.063,0,.008c-.017.022-.035.046-.051.069l-.035.045-.013.018-.016.019c-.017.017-.033.036-.049.054l-.021.021-.026.027c-.019.017-.024.021-.039.036l-.065.057-.065.047-.025.018-.018.012-.026.017-.018.011-.058.033-.025.012-.026.014-.024.011-.028.014-.081.035-.017.007-.033.011-.013,0c-.023.006-.046.013-.068.021l-.049.012-.02.005-.02,0-.043.009-.073.012h0l-.04.005-.016,0h-.012l-.058,0-.042,0h-.04l-.042,0-.073,0-.05-.007h0l-.081-.013-.064-.013h0l-.012,0-.052-.013-.076-.023-.038-.012-.014-.005-.084-.037-.026-.013-.023-.011L45,36.8l-.025-.012-.053-.03-.026-.016-.024-.016-.018-.012-.048-.033.014.01-.015-.01c-.02-.017-.04-.034-.061-.05l-.008-.006-.03-.026c-.019-.019-.039-.038-.058-.055l-.013-.014-.016-.015a.5.5,0,0,0-.047-.051l-.037-.047-.032-.041-.026-.034-.033-.052c-.011-.019-.023-.037-.036-.057l-.017-.027-.025-.05-.021-.042-.021-.047L44.3,36l-.011-.03-.015-.045h0l-.014-.042,0-.023h0l-.008-.025-.006-.026,0-.016-.013-.068,0-.018,0-.027v-.011l-.007-.079v-.016l0-.031v-.1l0-.03,0-.027.005-.06,0-.016,0-.03,0-.017.013-.069h0l.012-.054.023-.079,0-.01.011-.033.024-.061.012-.033c.008-.017.016-.034.023-.052l.019-.041.005-.011a.453.453,0,0,0,.031-.054l.064-.107-.025.043h0l.032-.049.018-.026.056-.07.038-.047.042-.042.033-.034c.02-.018.024-.021.045-.042l.017-.015.013-.011.051-.04.028-.022.039-.027.018-.012.022-.014.032-.02,0,0,.056-.032.027-.015.024-.012.019-.009c.029-.011.058-.024.087-.037h0l.033-.012.054-.018.044-.015h0l.02,0,.044-.01.086-.019.026,0,.029-.005.054,0,.048-.005.057,0h.08m.028-1.506H45.62l-.066,0-.07,0-.066.006-.066.006-.066.009c-.022,0-.045.005-.067.009l-.066.012-.066.012q-.033.009-.066.015l-.067.015-.066.018-.063.018-.063.021-.067.021c-.02.009-.041.016-.063.024l-.063.024-.06.028-.064.027-.06.027-.06.03q-.03.015-.06.033l-.058.033a.53.53,0,0,0-.057.033l-.06.037-.054.036a.587.587,0,0,0-.058.039q-.027.018-.054.039t-.054.039l-.051.042-.054.042-.052.046-.048.045-.048.045a.543.543,0,0,0-.048.048l-.048.048c-.017.017-.032.033-.046.049l-.045.051q-.021.027-.042.051l-.042.054c-.014.016-.028.034-.042.052s-.027.036-.039.054a.449.449,0,0,0-.04.057l-.036.054a.654.654,0,0,0-.036.057c-.012.021-.024.04-.036.058s-.023.04-.033.06l-.033.057-.03.06c-.01.02-.021.042-.031.064s-.019.04-.027.06-.019.04-.027.06-.016.043-.024.063-.016.043-.024.063-.016.044-.024.064a.581.581,0,0,1-.021.063l-.018.066-.018.064-.018.066q-.006.033-.015.066l-.012.066-.013.067-.012.066q0,.033-.009.066l-.006.066-.006.07-.006.066q0,.033,0,.066v.2q0,.036,0,.069l.006.067.006.066.006.069q.006.033.009.066l.012.067.013.066.012.066q.009.033.015.066l.018.064.018.066.018.063q.012.033.021.066c.008.02.016.042.024.064s.016.041.024.063l.024.06a.519.519,0,0,0,.027.063c.008.02.017.041.027.061l.031.06.03.06q.015.03.033.06a.461.461,0,0,0,.033.058q.018.03.036.057a.341.341,0,0,0,.036.057q.018.03.036.057a.636.636,0,0,0,.04.055q.018.027.039.054l.042.054.042.054q.021.024.042.051c.014.017.029.033.045.049a.441.441,0,0,0,.046.051l.048.048a.543.543,0,0,0,.048.048q.024.021.048.045l.048.046c.018.014.035.029.052.045l.054.042.051.042.054.039.054.039a.6.6,0,0,0,.058.04l.054.036.06.036a.53.53,0,0,0,.057.033l.058.033.06.03a.42.42,0,0,0,.06.03l.06.031.064.027.06.027.063.024.063.024.067.021.063.018.063.021.066.015.067.018.066.012q.033.009.066.015t.066.009l.067.013a.5.5,0,0,1,.066.009l.066.006.066.006a.524.524,0,0,1,.07,0l.066,0h.136l.066,0a.516.516,0,0,1,.069,0l.066-.006.067-.006a.5.5,0,0,1,.066-.009l.069-.013q.033,0,.066-.009c.022,0,.045-.009.067-.015l.063-.012.066-.018.066-.015a.534.534,0,0,0,.064-.021l.066-.018a.581.581,0,0,1,.063-.021l.063-.024.064-.024.06-.027a.6.6,0,0,0,.063-.027l.06-.031a.383.383,0,0,0,.061-.03l.06-.03a.53.53,0,0,0,.057-.033q.03-.015.06-.033l.058-.036.054-.036a.581.581,0,0,0,.057-.04l.054-.039.055-.039.051-.042.054-.042a.547.547,0,0,1,.051-.045l.048-.046.052-.045q.024-.024.045-.048l.048-.048a.547.547,0,0,0,.045-.051c.016-.016.031-.032.045-.049s.028-.035.042-.051a.406.406,0,0,0,.043-.054l.042-.054q.021-.027.039-.054c.014-.018.027-.037.039-.055l.039-.057q.018-.027.036-.057c.01-.018.021-.037.034-.057a.461.461,0,0,0,.033-.058q.018-.03.033-.06l.03-.06.03-.06c.01-.02.019-.041.027-.061a.519.519,0,0,0,.027-.063l.024-.06a.5.5,0,0,0,.024-.063c.008-.022.017-.044.025-.064s.013-.044.021-.066l.018-.063.018-.066c.006-.022.012-.044.018-.064s.009-.044.015-.066l.012-.066.012-.066.012-.067q0-.033.009-.066l.006-.069.006-.066.006-.067q0-.033,0-.069v-.066a.364.364,0,0,0,0-.066v-.07q0-.033,0-.066l-.006-.066-.006-.07-.006-.066q-.006-.033-.009-.066l-.012-.066-.012-.067-.012-.066q-.009-.033-.015-.066l-.018-.066-.018-.064-.018-.066a.581.581,0,0,1-.021-.063c-.008-.02-.017-.041-.025-.064a.5.5,0,0,0-.024-.063q-.012-.03-.024-.063t-.027-.06q-.012-.03-.027-.06c-.01-.022-.02-.044-.03-.064l-.03-.057q-.015-.03-.033-.06t-.033-.06a.368.368,0,0,1-.034-.058q-.018-.027-.036-.057t-.039-.054a.572.572,0,0,0-.039-.057q-.018-.027-.039-.054c-.014-.018-.028-.036-.042-.052a.406.406,0,0,0-.043-.054q-.021-.024-.042-.051l-.045-.051-.045-.049-.048-.048q-.021-.024-.045-.048c-.017-.016-.034-.031-.052-.045l-.048-.045-.051-.046-.051-.042-.054-.042-.055-.039q-.027-.021-.054-.039a.572.572,0,0,0-.057-.039l-.054-.036-.058-.037q-.03-.018-.06-.033a.53.53,0,0,0-.057-.033q-.03-.018-.06-.033l-.061-.03-.06-.027a.6.6,0,0,0-.063-.027l-.06-.028-.064-.024c-.022-.008-.043-.015-.063-.024a.581.581,0,0,1-.063-.021q-.033-.009-.066-.021l-.064-.018-.066-.018-.066-.015a.581.581,0,0,1-.063-.015l-.067-.012-.066-.012-.069-.009-.066-.009-.067-.006-.066-.006-.069,0-.066,0Z" transform="translate(0 0)"/>
      </g>
      <g>
        <path fill="#010101" d="M28.794,54.372l-.847-.042-.785-.076-.493-.068-.7-.129c-.009,0-.284-.066-.34-.076l-.589-.167h0a.631.631,0,0,0-.1-.034h0a.648.648,0,0,0-.09-.031l-.46-.188c-.016-.009-.229-.126-.26-.141l-.173-.112-.066-.054-.064-.061a.369.369,0,0,0-.059-.074c0-.006.1-.1.113-.12l.094-.072.109-.076c.015-.008.229-.125.257-.142l.22-.1.175-.073.268-.1.042-.009.527-.154c.021,0,.433-.1.433-.1l.568-.1.48-.069.8-.082.935-.051.825,0,.82.03.659.051.763.093.827.145.635.158.344.1.314.114.329.145c.03.019.186.1.22.118l.091.055.087.065.089.076.076.077.014.027-.045.061-.132.123s-.183.114-.208.131l-.09.05-.255.122-.293.116-.3.1c-.085.024-.315.093-.315.093s-.327.081-.383.1l-.746.143-.619.09-.815.078-.562.032-.649.016Z" transform="translate(0 0)"/>
        <path fill="#010101" d="M27.593,51.192l.22,1.492.089-.008.085-.005.059,0,.065-.006.043,0,.134-.008.074,0,.087,0,.089,0,.073,0,.075,0,.112,0,.136,0c.047,0,.094,0,.14,0h.514l.141,0,.138,0,.114,0,.148.006.1,0,.075,0,.071,0,.15.01.094.008.059,0,.074,0,.144.013.063.006.079.007.067.007.059.006.083.01.053.005.065.008.067.008.112.013.105.015.11.015.051.008.1.016.075.01.111.019.082.016.123.021.124.024.085.017c.052.013.107.025.185.042l.108.026.112.027.091.024.109.031.083.024.106.03c-.044.012-.087.026-.129.04l-.061.017-.07.02-.149.037-.063.017-.1.024-.024.005-.059.013-.049.011-.065.014-.095.02-.138.027-.085.016-.142.025-.057.01c-.051.007-.1.016-.157.025l-.108.015-.114.016-.139.019-.1.014-.127.014-.129.014-.063.006-.051,0-.13.012-.069.006-.069.006-.07.006-.038,0-.135.009c-.047,0-.093.005-.139.009l-.113,0-.156.009h-.061l-.072,0-.133.006h-.079l-.069,0h-.075l-.168,0h-.233l-.168,0h-.076l-.069,0-.116,0-.095,0-.072,0h-.062c-.053,0-.105-.007-.158-.009l-.112,0-.138-.009-.134-.009-.039,0-.069-.006-.069-.006-.07-.006-.07-.006-.085-.008-.086-.007-.132-.015-.129-.015-.1-.013-.136-.019-.117-.016-.1-.014c-.053-.01-.105-.018-.153-.025l-.064-.011-.145-.025-.1-.02-.1-.02-.113-.023-.061-.014-.05-.011-.058-.013-.025-.005-.105-.025-.027-.007-.035-.009c-.048-.013-.1-.026-.145-.037l-.078-.022-.032-.008-.151-.047.1-.028.084-.024.108-.03.13-.035c.034-.007.079-.018.112-.027s.084-.019.109-.026c.051-.01.1-.022.152-.034l.085-.017.11-.022.062-.01.058-.01.059-.012.037-.007.116-.019.033-.005.066-.009.057-.009.063-.011.063-.009.085-.011.108-.015.068-.008.074-.008.065-.008.061-.006.068-.008.065-.007.065-.007.1-.009-.133-1.5m2.024-.077h-.572c-.047,0-.094,0-.142,0l-.142,0-.141.006-.145.006-.138.006-.142.006c-.048,0-.095.007-.141.009l-.139.012-.139.009-.138.013L27.5,51.2l-.135.015c-.046,0-.092.009-.136.015l-.132.015c-.046,0-.092.009-.136.015l-.129.018L26.7,51.3l-.129.021-.127.018q-.063.012-.126.021l-.127.024q-.06.009-.12.021l-.124.024-.12.025c-.039.009-.078.019-.118.027l-.114.027c-.04.008-.079.017-.115.027l-.114.027-.109.03-.108.03-.106.03-.105.031q-.051.015-.1.033l-.1.03-.1.036c-.032.01-.063.021-.094.033l-.093.033-.09.036-.085.037q-.045.016-.087.036l-.081.039-.079.036q-.039.018-.075.039t-.075.039q-.036.018-.072.039a.658.658,0,0,0-.067.04q-.033.021-.066.039l-.063.042-.057.042c-.021.014-.04.028-.058.042l-.054.042c-.018.014-.035.028-.051.043l-.045.042-.045.042a.614.614,0,0,0-.043.045q-.021.021-.039.042l-.033.046a.339.339,0,0,0-.033.042q-.015.024-.03.045t-.024.045l-.024.045-.018.045a.311.311,0,0,0-.016.046.3.3,0,0,0-.015.045.447.447,0,0,1-.009.045l-.006.045a.364.364,0,0,0,0,.045v.045a.323.323,0,0,0,0,.046l.006.045a.447.447,0,0,1,.009.045,2.4,2.4,0,0,0,.031.09l.018.045c.008.016.016.032.024.046s.016.031.024.045l.03.045q.015.021.033.042a.307.307,0,0,0,.033.045l.039.046.043.042.045.042.045.045.051.042.054.043.058.042.057.039.063.042.066.039a.668.668,0,0,0,.07.039.769.769,0,0,0,.069.039q.036.021.075.039a.672.672,0,0,0,.075.04c.027.012.053.025.079.039l.084.036.084.036.085.036.09.036c.03.012.061.023.093.034l.094.036.1.033c.034.01.068.021.1.033l.1.03.105.033.106.03.108.031a1.083,1.083,0,0,1,.109.027l.114.03c.038.008.077.017.115.027l.114.024.118.027.12.024.124.024.12.024.127.021.126.022c.042,0,.084.013.127.021l.129.018.133.018.129.018L27.1,55l.132.015c.046,0,.092.009.136.015l.135.012.139.012.138.012.139.012.139.009.141.009.142.006.141.009c.046,0,.094,0,.142,0s.093,0,.141.006.094,0,.142,0,.1,0,.145,0l.141,0h.286l.142,0c.048,0,.1,0,.144,0l.142,0c.048,0,.1,0,.142-.006s.095,0,.141,0l.142-.009.141-.006c.046,0,.093-.007.139-.009l.141-.009.139-.012.138-.012.136-.012.139-.012q.066-.009.135-.015c.044-.006.088-.011.133-.015l.132-.018.133-.018.129-.018.13-.018c.044-.008.087-.016.129-.021l.127-.022.123-.021.124-.024.123-.024.118-.024q.06-.012.12-.027l.115-.024q.057-.015.114-.027l.112-.03q.057-.017.111-.027l.108-.031.106-.03q.051-.018.105-.033l.1-.03.1-.033.1-.033.1-.036.09-.034.091-.036.087-.036.084-.036.082-.036.081-.039a.672.672,0,0,0,.075-.04l.076-.036.069-.042a.769.769,0,0,0,.069-.039q.033-.018.066-.039l.061-.042.06-.042c.02-.012.039-.026.057-.039l.054-.043.048-.042.049-.045.045-.042.042-.042c.012-.016.024-.032.036-.046s.024-.029.036-.045.023-.028.033-.042.02-.031.028-.045a.335.335,0,0,0,.027-.045.322.322,0,0,0,.021-.046.31.31,0,0,0,.021-.045.3.3,0,0,0,.015-.045l.012-.045.012-.045.006-.045a.393.393,0,0,1,0-.046V53.1a.319.319,0,0,1,0-.045l-.006-.045-.012-.045-.012-.045a.4.4,0,0,0-.036-.091q-.009-.021-.021-.045l-.027-.045c-.008-.014-.018-.029-.028-.045a.339.339,0,0,0-.033-.042c-.012-.017-.024-.032-.036-.046l-.036-.042q-.021-.024-.042-.045l-.045-.042-.049-.042-.048-.043-.054-.042-.057-.042-.06-.042-.061-.042q-.033-.018-.066-.039a.59.59,0,0,0-.069-.04.769.769,0,0,0-.069-.039c-.025-.014-.05-.027-.076-.039s-.049-.027-.075-.039l-.081-.036c-.026-.014-.054-.027-.082-.039s-.056-.025-.084-.036-.057-.025-.087-.037l-.091-.036q-.045-.015-.09-.033c-.032-.012-.064-.023-.1-.033l-.1-.036-.1-.03c-.032-.012-.066-.023-.1-.033l-.105-.031-.106-.03-.108-.03-.111-.03c-.037-.01-.074-.019-.112-.027l-.114-.027c-.038-.01-.077-.019-.115-.027s-.08-.018-.12-.027l-.118-.025L32.6,51.4c-.04-.008-.082-.015-.124-.021l-.123-.024c-.042-.006-.085-.013-.127-.021l-.129-.018c-.042-.008-.086-.015-.13-.021l-.129-.018L31.7,51.26l-.132-.015-.133-.015-.135-.015-.139-.015-.136-.012-.138-.013-.139-.009-.141-.012c-.046,0-.093,0-.139-.009l-.141-.006-.142-.006-.141-.006-.142-.006c-.048,0-.095,0-.142,0l-.144,0Z" transform="translate(0 0)"/>
      </g>
      <g>
        <path fill="#010101" d="M29.229,54.849l-.084-.317c0-.011-.105-.465-.105-.465l-.109-.552-.1-.613-.188-1.371L28.525,50.5l-.166-1.975L28.252,46.7,28.2,45.4l-.063-2.664-.006-2.03.03-2.01.051-1.646.113-2.2.131-1.756.159-1.615.148-1.138.171-1.064.141-.7.1-.413.09-.335.075-.239c.006.024.14.483.14.483l.156.665.175.943.1.64.123.929.165,1.574.072.854.136,2.106.071,1.6.063,2.664.006,2.029-.029,2.013-.04,1.314-.07,1.591-.138,2.121-.071.852-.107,1.062-.12.993-.09.643-.14.842-.13.658-.161.663-.109.369Z" transform="translate(0 0)"/>
        <path fill="#010101" d="M29.332,31.824l0,.022c.008.074.016.149.026.258.009.077.017.153.027.265.009.078.017.158.027.274.009.078.017.157.024.241l.024.278.023.283.025.289c.007.085.013.172.02.293l.022.263.009.15.011.178c.008.093.014.185.019.28l.018.306.018.308.018.316c.006.095.01.191.015.315.006.1.01.194.015.319.006.1.01.195.014.293l0,.125.008.228c.006.1.011.2.013.273,0,.117.006.236.01.355l0,.1.008.208c0,.12,0,.239.009.331,0,.122,0,.243.009.334l.006.356.006.319,0,.169,0,.168,0,.314c0,.121,0,.243,0,.337,0,.124,0,.246,0,.341v1.337c0,.122,0,.243,0,.338,0,.123,0,.246,0,.34l-.006.34-.006.338,0,.192,0,.145-.006.308c0,.121-.007.241-.009.334,0,.121-.007.241-.009.333l-.008.237,0,.095c0,.119-.007.237-.009.328s-.008.2-.015.327l-.006.163-.006.161c0,.1-.008.2-.015.323,0,.1-.008.194-.015.319,0,.1-.008.192-.014.288l-.018.314-.018.309-.018.307c0,.092-.011.183-.021.3l-.016.27-.026.326c0,.089-.011.177-.018.262l-.024.289-.024.284-.024.28c-.007.081-.015.161-.027.275-.007.08-.015.159-.027.271-.007.078-.015.155-.027.265-.007.076-.015.15-.023.225l0,.021,0-.018c-.009-.077-.017-.154-.027-.265l-.026-.229-.028-.306c-.008-.078-.016-.158-.023-.242L29.2,49.62l-.024-.283-.018-.21-.006-.077c-.007-.088-.013-.176-.021-.295l-.022-.268-.02-.329c-.007-.09-.014-.181-.019-.273l-.018-.307-.018-.308-.018-.317c-.006-.094-.01-.19-.015-.315-.006-.1-.01-.193-.015-.317-.006-.1-.01-.2-.014-.295,0-.117-.01-.235-.015-.325l-.012-.328c0-.1-.006-.2-.009-.328l-.006-.165-.006-.166c0-.1-.006-.2-.009-.334,0-.1-.006-.2-.008-.307l-.006-.334L28.9,43.4l-.006-.337-.006-.314c0-.121,0-.244,0-.341,0-.121,0-.243,0-.34V40.736c0-.122,0-.244,0-.341,0-.121,0-.243,0-.338l.006-.34v-.066l0-.271,0-.138,0-.2,0-.192,0-.145c0-.1,0-.205.009-.334,0-.1,0-.2.008-.3l.006-.165.007-.193c0-.1,0-.2.008-.3l.011-.3c.006-.117.012-.235.016-.353,0-.1.008-.2.015-.321,0-.1.008-.194.015-.319,0-.1.009-.194.014-.29l.018-.313.018-.31.018-.306c.006-.092.012-.185.021-.3l.009-.151.007-.118.026-.329c0-.087.012-.173.019-.259l.006-.079.018-.21.024-.283.024-.281c.007-.081.015-.16.027-.274l.02-.239.033-.3q.01-.114.024-.225l0-.022m.023-5.507H29.31l-.046.009a.352.352,0,0,0-.042.015.2.2,0,0,0-.045.024.439.439,0,0,0-.045.03q-.021.018-.042.039a.392.392,0,0,0-.045.046.485.485,0,0,0-.043.054.469.469,0,0,0-.045.06q-.021.033-.042.069l-.045.076-.042.084-.043.09-.042.1q-.021.051-.042.1c-.014.036-.028.074-.042.115s-.028.078-.042.12-.027.085-.039.127-.028.089-.043.135-.027.094-.039.142-.027.1-.039.15l-.042.154-.036.162c-.014.057-.027.113-.039.169s-.027.118-.039.178l-.037.181q-.018.093-.039.189l-.036.2c-.012.066-.023.134-.033.2s-.024.138-.036.208-.024.141-.036.214-.021.145-.033.22-.022.148-.034.223-.021.153-.033.231l-.03.238c-.01.081-.021.161-.033.241l-.03.247-.03.253c-.008.087-.017.173-.027.259s-.019.174-.027.262-.021.178-.031.269-.016.181-.024.274-.019.182-.027.277-.016.186-.024.28-.016.19-.024.286l-.024.289c-.008.1-.015.194-.021.292s-.016.2-.024.3l-.018.3c-.008.1-.015.2-.021.307s-.012.2-.018.307l-.019.31-.018.314c-.006.106-.011.213-.015.319s-.011.213-.015.319-.011.214-.015.323-.009.216-.015.325l-.012.328c0,.109-.007.218-.009.328l-.012.332c0,.11-.007.221-.009.331s-.007.224-.009.334l-.006.338-.006.337-.006.337-.006.341c0,.112,0,.225,0,.337s0,.228,0,.341V42.07c0,.115,0,.228,0,.34s0,.228,0,.341l.006.34.006.338.006.337.006.334c0,.113.005.224.009.334s.005.224.009.335l.012.331c0,.111,0,.22.009.329l.012.328c.006.108.011.217.015.325s.009.214.015.322.009.213.015.32.009.211.015.316l.018.316.019.31.018.308c.006.1.013.2.021.3s.012.2.018.3.016.2.024.3.013.2.021.295l.024.29.024.286c.008.094.016.188.024.28s.017.187.027.277.016.184.024.274l.031.265c.008.089.017.177.027.265s.02.172.03.256.017.171.027.253.02.168.03.25.023.161.033.241.02.16.03.238.023.153.033.229.024.152.034.226.023.148.033.22.024.144.036.214l.036.208q.015.1.033.2c.012.067.025.132.039.2s.024.127.036.187.025.123.037.184.025.118.039.174.025.116.039.172l.036.16q.021.081.042.156c.012.051.025.1.039.151s.025.095.039.141.029.091.043.133.025.087.039.13l.042.12q.021.057.042.111c.014.039.028.075.042.109s.028.066.042.1l.043.094.042.084.045.075.042.07q.021.03.045.06a.485.485,0,0,0,.043.054.478.478,0,0,0,.045.045q.021.021.042.039a.333.333,0,0,0,.045.031.2.2,0,0,0,.045.024l.042.015a.264.264,0,0,0,.046.006h.045a.2.2,0,0,0,.042-.006.3.3,0,0,0,.045-.015.2.2,0,0,0,.045-.024.333.333,0,0,0,.045-.031.522.522,0,0,0,.043-.039l.045-.045a.635.635,0,0,0,.042-.054l.045-.06.042-.07.043-.075q.024-.042.045-.084c.014-.03.028-.062.042-.094s.028-.062.042-.1.028-.07.042-.109.028-.073.042-.111l.043-.12c.012-.043.025-.086.039-.13s.028-.086.042-.133.025-.093.039-.141.027-.1.039-.151.027-.1.039-.156.027-.106.04-.16.027-.113.039-.172.025-.114.039-.174l.036-.184c.012-.06.024-.123.036-.187s.024-.129.036-.2.024-.133.036-.2.024-.138.037-.208.023-.142.033-.214.024-.146.036-.22.021-.149.033-.226l.03-.229c.012-.078.023-.157.033-.238l.03-.241c.012-.082.023-.165.033-.25s.02-.166.028-.253.02-.169.03-.256.019-.173.027-.262.019-.178.027-.268.019-.182.027-.274.019-.183.027-.277.016-.186.024-.28l.024-.286.024-.29c.008-.1.015-.2.022-.295s.016-.2.024-.3.012-.2.018-.3.015-.2.021-.3l.018-.308c.006-.1.012-.2.018-.31l.018-.316c.006-.1.011-.21.015-.316s.011-.213.015-.32.011-.216.015-.322l.012-.325c.006-.109.011-.218.015-.328s0-.218.009-.329l.012-.331c0-.111.005-.222.009-.335s.005-.221.009-.334l.006-.334.006-.337.006-.338.007-.34c0-.113,0-.226,0-.341s0-.224,0-.337V40.709c0-.113,0-.226,0-.341s0-.225,0-.337l-.007-.341-.006-.337-.006-.337-.006-.338c0-.11-.007-.222-.009-.334s-.007-.221-.009-.331l-.012-.332c0-.11-.007-.219-.009-.328s-.009-.22-.015-.328L31.2,36.7c0-.109-.009-.217-.015-.323s-.009-.213-.015-.319-.009-.212-.015-.316l-.018-.317-.018-.31c-.006-.1-.012-.207-.018-.307s-.013-.2-.021-.307l-.018-.3-.024-.295c-.007-.1-.014-.2-.022-.3l-.024-.289c-.008-.1-.016-.192-.024-.286s-.016-.188-.024-.28-.017-.187-.027-.277-.017-.184-.027-.274-.017-.18-.027-.269-.017-.175-.027-.262l-.03-.259c-.008-.084-.017-.168-.028-.253s-.021-.164-.033-.247l-.03-.241c-.01-.08-.021-.159-.033-.238s-.02-.155-.03-.231-.023-.149-.033-.223-.024-.148-.036-.22-.021-.144-.033-.214-.025-.14-.037-.208-.024-.136-.036-.2l-.036-.2q-.018-.1-.036-.189l-.036-.181c-.014-.06-.027-.12-.039-.178s-.025-.112-.039-.169-.026-.108-.04-.162-.025-.1-.039-.154-.025-.1-.039-.15-.027-.1-.039-.142l-.042-.135c-.014-.042-.027-.085-.039-.127s-.029-.082-.043-.12l-.042-.115q-.021-.054-.042-.1l-.042-.1-.042-.09q-.021-.042-.045-.084l-.043-.076q-.021-.036-.042-.069l-.045-.06a.635.635,0,0,0-.042-.054l-.045-.046a.522.522,0,0,0-.043-.039.439.439,0,0,0-.045-.03.2.2,0,0,0-.045-.024.3.3,0,0,0-.045-.015.315.315,0,0,0-.042-.009Z" transform="translate(0 0)"/>
      </g>
      <g>
        <polygon fill="#010101" points="28.588 37.157 27.458 32.793 28.588 28.428 30.076 28.428 31.206 32.793 30.076 37.157 28.588 37.157"/>
        <path fill="#010101" d="M29.493,29.181l.936,3.612L29.493,36.4h-.322l-.935-3.611.935-3.612h.322m1.166-1.506H28.005L26.68,32.793l1.325,5.117h2.654l1.325-5.117-1.325-5.118Z" transform="translate(0 0)"/>
      </g>
      <g>
        <rect fill="#010101" x="13.975" width="31.142" height="4.414" y="33.271"/>
        <path fill="#010101" d="M44.356,34.032v2.892H14.736V34.032h29.62m1.522-1.522H13.214v5.937H45.878V32.51Z" transform="translate(0 0)"/>
      </g>
      <g>
        <polygon fill="#010101" points="29.436 39.199 35.585 39.199 29.436 40.083 29.436 39.199"/>
        <polygon fill="#010101" points="46.117 38.447 28.683 38.447 28.683 40.953 46.117 38.447 46.117 38.447"/>
      </g>
      <g>
        <polygon fill="#010101" points="23.27 39.194 29.399 39.194 29.399 40.088 23.27 39.194"/>
        <polygon fill="#010101" points="30.147 38.447 12.953 38.447 30.147 40.953 30.147 38.447 30.147 38.447"/>
      </g>
    </g>
  </g>
</svg>