<!-- Generator: Adobe Illustrator 25.2.3, SVG Export Plug-In . SVG Version: 6.00 Build 0)  --><svg x="0px" enable-background="new 0 0 60 60" y="0px" width="60px" xmlns:xlink="http://www.w3.org/1999/xlink" viewBox="0 0 60 60" height="60px" id="Layer_1" xmlns="http://www.w3.org/2000/svg" xml:space="preserve" version="1.1">
<rect width="60" fill="#FBF49C" x="0" height="60" id="UnitColor" y="-0.085"/>
<rect width="60" fill="#F7EC13" height="20.189" id="CS_2_" y="11.533" display="none"/>
<g id="Gar" display="none">
	<rect width="14.843" fill="none" x="0.73" height="8.039" y="2.802" display="inline"/>
	<path d="M11.03,10.06c-0.472,0.163-1.361,0.379-2.249,0.379c-1.231,0-2.119-0.308-2.739-0.903   C5.424,8.949,5.085,8.072,5.089,7.083C5.097,4.842,6.73,3.567,8.936,3.567c0.87,0,1.539,0.165,1.873,0.323L10.49,5.111   C10.117,4.95,9.664,4.825,8.922,4.825c-1.27,0-2.235,0.714-2.235,2.18c0,1.391,0.878,2.205,2.125,2.205   c0.344,0,0.623-0.04,0.745-0.095V7.699H8.516V6.512h2.514V10.06z" display="inline"/>
</g>
<g id="Eng" display="none">
	<rect width="27.832" fill="none" x="1.1" height="8.039" y="2.802" display="inline"/>
	<path d="M17.011,7.521h-2.479v1.602h2.771v1.248h-4.294V3.634h4.15v1.248h-2.626v1.403h2.479V7.521z" display="inline"/>
</g>
<g id="P2" display="none">
	<path d="M19.024,28.186c0.472-1.148,0.803-2.149,0.992-3.001c0.282-1.24,0.423-2.417,0.423-3.534   c0-1.066-0.099-2.078-0.295-3.035c-0.197-0.957-0.575-2.146-1.135-3.568h1.146c0.628,1.03,1.101,2.092,1.419,3.186   c0.319,1.094,0.478,2.185,0.478,3.274c0,1.094-0.159,2.218-0.476,3.374s-0.786,2.257-1.407,3.305H19.024z" display="inline"/>
</g>
<g id="P1" display="none">
	<path d="M8.327,28.186H7.182c-0.605-1.025-1.071-2.111-1.396-3.257s-0.487-2.257-0.487-3.333   c0-1.162,0.163-2.296,0.489-3.401c0.326-1.105,0.795-2.154,1.408-3.148h1.146c-0.56,1.422-0.938,2.611-1.135,3.568   c-0.197,0.957-0.295,1.969-0.295,3.035c0,1.103,0.139,2.27,0.416,3.5C7.522,26.016,7.855,27.028,8.327,28.186z" display="inline"/>
</g>
<g id="Type">
	<path d="M53.265,12.893v17.022H26.785V12.893H53.265z M28.204,28.497h4.682c-1.933-0.031-3.49-1.601-3.49-3.54   c0-1.654,1.138-3.033,2.671-3.423c-1.3-0.748-2.178-2.145-2.152-3.748c0.023-1.458,0.766-2.725,1.891-3.474h-3.602V28.497z    M32.941,22.83c-1.175,0.001-2.126,0.952-2.127,2.127c0,1.174,0.953,2.126,2.127,2.126c1.174,0,2.127-0.952,2.127-2.126   C35.068,23.782,34.115,22.83,32.941,22.83z M48.716,17.898c0.024-1.566-1.229-2.861-2.793-2.886H34.141   c-0.004,0-0.008,0.003-0.013,0.003c-1.542,0.024-2.769,1.252-2.795,2.793c-0.025,1.566,1.228,2.861,2.795,2.887   c0.004,0,0.008,0.003,0.013,0.003h11.754c0.01-0.001,0.017-0.006,0.026-0.006C47.463,20.667,48.69,19.44,48.716,17.898z    M37.929,22.117h-2.884c0.87,0.646,1.441,1.673,1.441,2.84c0,1.938-1.558,3.508-3.489,3.54h6.979   c-1.932-0.031-3.489-1.601-3.489-3.54C36.486,23.79,37.058,22.763,37.929,22.117z M40.032,22.83   c-1.175,0.001-2.126,0.952-2.127,2.127c0,1.174,0.952,2.126,2.127,2.126c1.174,0,2.126-0.952,2.126-2.126   C42.158,23.782,41.206,22.83,40.032,22.83z M51.845,28.497V14.311h-3.621c1.168,0.777,1.935,2.107,1.91,3.61   c-0.025,1.556-0.877,2.882-2.128,3.605c1.529,0.395,2.663,1.771,2.663,3.421c0,1.958-1.587,3.544-3.545,3.545   s-3.545-1.586-3.546-3.544c0-1.162,0.566-2.185,1.431-2.831h-2.874c0.871,0.646,1.442,1.673,1.442,2.84   c0,1.938-1.559,3.508-3.489,3.54H51.845z M44.996,24.947c0,1.175,0.952,2.127,2.126,2.127c1.175,0,2.127-0.952,2.127-2.127   c0-1.174-0.952-2.126-2.127-2.126C45.949,22.822,44.997,23.774,44.996,24.947z"/>
</g>
<g id="STK">
	<path d="M13.307,17.911h-0.036l-2.139,1.074l-0.386-1.671l2.857-1.406h1.847v11.703h-2.144V17.911z"/>
</g>
<g id="ECH">
	<rect width="27.832" x="26.078" fill="none" height="8.039" y="2.802"/>
	<path d="M39.33,3.634v6.736h-1.523V3.634H39.33z"/>
	<path d="M42.18,3.634v6.736h-1.522V3.634H42.18z"/>
</g>
<g id="PF">
	<rect width="60" x="0" fill="none" height="15.475" y="44.525"/>
	<path d="M21.065,54.185l-0.295,1.538h-1.271l1.463-6.736h1.568l1.31,6.736h-1.275l-0.288-1.538H21.065z M22.162,53.168l-0.225-1.41   c-0.065-0.409-0.155-1.086-0.221-1.531h-0.024c-0.072,0.447-0.172,1.144-0.242,1.533l-0.247,1.408H22.162z"/>
	<path d="M24.444,52.303c0-0.486-0.022-1.015-0.04-1.472h1.135l0.067,0.716h0.036c0.215-0.521,0.611-0.796,0.969-0.796   c0.132,0,0.202,0.008,0.279,0.023v1.297c-0.083-0.016-0.168-0.016-0.285-0.016c-0.273,0-0.648,0.192-0.791,0.695   c-0.034,0.108-0.057,0.285-0.057,0.488v2.483h-1.312V52.303z"/>
	<path d="M28.688,49.538c0.008,0.419-0.291,0.709-0.687,0.709c-0.361,0-0.656-0.29-0.648-0.709c-0.008-0.44,0.303-0.717,0.667-0.717   C28.396,48.821,28.688,49.098,28.688,49.538z M27.375,55.723v-4.892h1.312v4.892H27.375z"/>
	<path d="M30.704,53.743c0.016,0.763,0.457,1.045,1.036,1.045c0.373,0,0.693-0.08,0.932-0.166l0.171,0.937   c-0.332,0.136-0.848,0.224-1.341,0.224c-1.333,0-2.065-0.879-2.065-2.407c0-1.645,0.857-2.624,1.957-2.624   c1.053,0,1.667,0.83,1.667,2.311c0,0.35-0.016,0.542-0.039,0.682H30.704z M31.867,52.826c0.005-0.628-0.162-1.12-0.551-1.12   c-0.426,0-0.6,0.626-0.61,1.12H31.867z"/>
	<path d="M35.343,49.514v1.317H36.3v0.929h-0.957v2.236c0,0.566,0.235,0.707,0.494,0.707c0.127,0,0.228-0.01,0.345-0.029   l0.011,1.023c-0.181,0.05-0.459,0.085-0.801,0.085c-0.378,0-0.71-0.088-0.946-0.311c-0.269-0.256-0.415-0.632-0.415-1.399V51.76   h-0.576v-0.929h0.576v-1.005L35.343,49.514z"/>
	<path d="M37.943,53.743c0.017,0.763,0.457,1.045,1.036,1.045c0.373,0,0.694-0.08,0.933-0.166l0.171,0.937   c-0.332,0.136-0.848,0.224-1.341,0.224c-1.333,0-2.065-0.879-2.065-2.407c0-1.645,0.856-2.624,1.957-2.624   c1.052,0,1.666,0.83,1.666,2.311c0,0.35-0.016,0.542-0.039,0.682H37.943z M39.107,52.826c0.004-0.628-0.162-1.12-0.552-1.12   c-0.426,0-0.6,0.626-0.609,1.12H39.107z"/>
</g>
<g id="Des">
	<rect width="60" x="0" fill="none" height="14.525" y="31.722"/>
	<path d="M11.508,45.212V33.076h1.779l2.028,5.18c0.43,1.101,1.038,2.678,1.414,3.847h0.036c-0.095-1.557-0.208-3.427-0.208-5.598   v-3.429h1.702v12.136H16.48l-2.05-5.166c-0.448-1.114-0.983-2.577-1.331-3.857h-0.036c0.085,1.401,0.146,3.123,0.146,5.632v3.392   H11.508z"/>
	<path d="M22.182,34.149c0.01,0.66-0.434,1.107-1.063,1.107c-0.56,0-1.009-0.447-0.999-1.107c-0.01-0.683,0.459-1.117,1.027-1.117   C21.748,33.032,22.182,33.467,22.182,34.149z M20.206,45.212v-8.766h1.922v8.766H20.206z"/>
	<path d="M23.318,44.017l2.428-4.583c0.26-0.468,0.588-0.997,0.766-1.363v-0.046h-2.898v-1.578h5.005v1.296l-2.388,4.465   c-0.27,0.488-0.578,1.008-0.776,1.381v0.046h3.204v1.578h-5.342V44.017z"/>
	<path d="M35.658,45.019c-0.354,0.176-0.992,0.302-1.784,0.302c-2.77,0-4.35-2.261-4.35-6.009c0-4.67,2.463-6.344,4.622-6.344   c0.789,0,1.345,0.157,1.586,0.309l-0.354,1.627c-0.285-0.134-0.584-0.249-1.152-0.249c-1.322,0-2.672,1.209-2.672,4.523   c0,3.268,1.224,4.436,2.682,4.436c0.451,0,0.909-0.103,1.197-0.214L35.658,45.019z"/>
	<path d="M40.528,45.212l-0.113-0.893h-0.043c-0.438,0.676-1.088,1.037-1.856,1.037c-1.257,0-2.206-1.055-2.206-2.593   c0-2.252,1.905-3.204,3.888-3.222V39.31c0-0.913-0.356-1.555-1.31-1.555c-0.627,0-1.159,0.183-1.635,0.486l-0.369-1.312   c0.432-0.272,1.354-0.627,2.422-0.627c2.257,0,2.834,1.545,2.834,3.41v3.503c0,0.682,0.021,1.415,0.113,1.996H40.528z    M40.249,40.822c-0.748,0.011-2.104,0.219-2.104,1.744c0,0.989,0.528,1.347,0.95,1.347c0.482,0,0.945-0.327,1.107-1.003   c0.036-0.137,0.047-0.294,0.047-0.445V40.822z"/>
	<path d="M44.999,36.446l0.867,4.367c0.126,0.693,0.257,1.478,0.375,2.308h0.044c0.101-0.816,0.231-1.555,0.357-2.308l0.854-4.367   h1.898l-2.324,8.766h-1.745l-2.351-8.766H44.999z"/>
</g>
<g>
</g>
<g>
</g>
<g>
</g>
<g>
</g>
<g>
</g>
<g>
</g>
</svg>