<svg width="60" height="60" xmlns="http://www.w3.org/2000/svg" viewBox="0 0 60 60">
  <rect fill="#cccccb" height="60" width="60"/>
  <g>
    <path d="M6.146,15.71a26.817,26.817,0,0,1,4.524-.333A7.25,7.25,0,0,1,15.434,16.7a4.551,4.551,0,0,1,1.584,3.581,4.938,4.938,0,0,1-1.379,3.665,7.152,7.152,0,0,1-5.114,1.741,7.242,7.242,0,0,1-1.447-.113v6.106H6.146Zm2.932,7.541a5.847,5.847,0,0,0,1.448.135c2.208,0,3.557-1.1,3.557-3,0-1.783-1.248-2.741-3.294-2.741a8.485,8.485,0,0,0-1.711.141Z" transform="translate(0)"/>
    <path d="M33.925,23.43c0,5.417-3.284,8.515-7.741,8.515-4.57,0-7.464-3.49-7.464-8.228,0-4.967,3.139-8.477,7.7-8.477C31.142,15.24,33.925,18.806,33.925,23.43Zm-12.084.227c0,3.3,1.668,5.924,4.493,5.924,2.854,0,4.47-2.657,4.47-6.041,0-3.053-1.515-5.936-4.463-5.936C23.416,17.6,21.841,20.334,21.841,23.657Z" transform="translate(0)"/>
    <path d="M39,31.682,35.05,15.5H38.2l1.542,7.348c.4,1.97.779,4.026,1.052,5.629h.053c.26-1.689.7-3.622,1.172-5.664L43.76,15.5h3.111l1.6,7.446c.393,1.91.739,3.718.98,5.47H49.5c.284-1.79.674-3.633,1.1-5.606l1.682-7.31h3.01l-4.36,16.179H47.778L46.1,24.062a50.238,50.238,0,0,1-.91-5.119h-.048a49.23,49.23,0,0,1-1.067,5.124L42.2,31.682Z" transform="translate(0)"/>
  </g>
</svg>