<svg width="60" height="60" xmlns="http://www.w3.org/2000/svg" viewBox="0 0 60 60">
  <rect fill="#cccccb" height="60" width="60"/>
  <g>
    <line stroke-linecap="round" fill="none" x1="14.026" x2="4.545" y1="32.449" stroke-linejoin="round" y2="41.914" stroke="#010101" stroke-width="1.689"/>
    <line stroke-linecap="round" fill="none" x1="4.545" x2="14.026" y1="32.449" stroke-linejoin="round" y2="41.914" stroke="#010101" stroke-width="1.689"/>
    <line stroke-linecap="round" fill="none" x1="34.583" x2="25.102" y1="32.397" stroke-linejoin="round" y2="41.863" stroke="#010101" stroke-width="1.689"/>
    <line stroke-linecap="round" fill="none" x1="25.102" x2="34.583" y1="32.397" stroke-linejoin="round" y2="41.863" stroke="#010101" stroke-width="1.689"/>
    <line stroke-linecap="round" fill="none" x1="55.157" x2="45.675" y1="32.275" stroke-linejoin="round" y2="41.741" stroke="#010101" stroke-width="1.689"/>
    <line stroke-linecap="round" fill="none" x1="45.675" x2="55.157" y1="32.275" stroke-linejoin="round" y2="41.741" stroke="#010101" stroke-width="1.689"/>
    <line stroke-linecap="round" fill="none" x1="59.491" x2="0.509" y1="37.117" stroke-linejoin="round" y2="37.068" stroke="#010101" stroke-width="1.689"/>
    <g>
      <path fill="#231f20" d="M11.724,5.23a12.782,12.782,0,0,1,2.255-.168,3.659,3.659,0,0,1,2.387.66,2.285,2.285,0,0,1,.791,1.787,2.45,2.45,0,0,1-.7,1.835,3.567,3.567,0,0,1-2.554.863,4.14,4.14,0,0,1-.719-.048v3.047H11.724ZM13.188,9a2.964,2.964,0,0,0,.719.06c1.1,0,1.775-.54,1.775-1.487,0-.9-.624-1.38-1.643-1.38a4.13,4.13,0,0,0-.851.072Z"/>
      <path fill="#231f20" d="M18.432,5.23a14,14,0,0,1,2.231-.168,3.75,3.75,0,0,1,2.5.647,2.051,2.051,0,0,1,.7,1.62A2.154,2.154,0,0,1,22.39,9.355v.037a2.056,2.056,0,0,1,1.127,1.559,16.163,16.163,0,0,0,.636,2.255H22.629A11.578,11.578,0,0,1,22.09,11.3c-.228-1.056-.612-1.392-1.451-1.416H19.9v3.323H18.432ZM19.9,8.8h.876c.995,0,1.619-.528,1.619-1.331,0-.888-.624-1.3-1.583-1.3a4.162,4.162,0,0,0-.912.073Z"/>
      <path fill="#231f20" d="M26.736,5.122v8.084H25.26V5.122Z"/>
      <path fill="#231f20" d="M28.391,11.6a4.083,4.083,0,0,0,1.955.515c.948,0,1.476-.444,1.476-1.1,0-.612-.408-.971-1.44-1.344C29.051,9.188,28.2,8.48,28.2,7.317,28.2,6,29.3,4.99,31.055,4.99A4.266,4.266,0,0,1,33,5.4l-.359,1.187A3.426,3.426,0,0,0,31.03,6.2c-.936,0-1.343.5-1.343.971,0,.623.467.911,1.547,1.331,1.4.528,2.087,1.235,2.087,2.4,0,1.3-.983,2.423-3.071,2.423a4.808,4.808,0,0,1-2.182-.5Z"/>
      <path fill="#231f20" d="M41.828,9.08c0,2.711-1.642,4.257-3.874,4.257-2.278,0-3.718-1.738-3.718-4.113,0-2.483,1.56-4.234,3.838-4.234C40.438,4.99,41.828,6.777,41.828,9.08ZM35.8,9.2c0,1.643.827,2.95,2.242,2.95s2.232-1.319,2.232-3.01c0-1.523-.756-2.963-2.232-2.963S35.8,7.533,35.8,9.2Z"/>
      <path fill="#231f20" d="M43.1,13.206V5.122h1.679L46.87,8.588A22.232,22.232,0,0,1,48.25,11.3h.023c-.1-1.08-.131-2.123-.131-3.359V5.122h1.367v8.084H47.985l-2.11-3.55a28.038,28.038,0,0,1-1.451-2.8l-.036.012c.059,1.044.072,2.111.072,3.442v2.891Z"/>
    </g>
    <g>
      <path fill="#231f20" d="M20.671,25.433a5.131,5.131,0,0,1-2.087.359,3.814,3.814,0,0,1-4.126-4.065,4.066,4.066,0,0,1,4.318-4.27,4.645,4.645,0,0,1,1.967.36l-.324,1.175a3.928,3.928,0,0,0-1.583-.312,2.693,2.693,0,0,0-2.831,2.975,2.654,2.654,0,0,0,2.819,2.914,4.13,4.13,0,0,0,1.607-.3Z"/>
      <path fill="#231f20" d="M23.637,23.382l-.7,2.29H21.418l2.59-8.083h1.883l2.627,8.083H26.935l-.731-2.29Zm2.315-1.116-.636-1.991c-.156-.491-.288-1.043-.408-1.511h-.024c-.12.468-.24,1.031-.384,1.511l-.624,1.991Z"/>
      <path fill="#231f20" d="M36.438,22.374c-.048-1.043-.109-2.3-.1-3.394h-.036c-.264.983-.6,2.075-.96,3.094l-1.175,3.5h-1.14l-1.079-3.454c-.311-1.031-.6-2.135-.815-3.142h-.025c-.036,1.056-.084,2.339-.143,3.442l-.179,3.25H29.41l.54-8.083h1.942l1.055,3.25c.288.948.54,1.907.744,2.807h.036c.216-.876.492-1.872.8-2.819l1.116-3.238h1.918l.468,8.083H36.594Z"/>
      <path fill="#231f20" d="M39.537,17.7a12.782,12.782,0,0,1,2.255-.168,3.665,3.665,0,0,1,2.387.659,2.287,2.287,0,0,1,.791,1.788,2.45,2.45,0,0,1-.7,1.835,3.566,3.566,0,0,1-2.554.863,4.16,4.16,0,0,1-.72-.048v3.046H39.537ZM41,21.463a2.986,2.986,0,0,0,.72.059c1.1,0,1.775-.539,1.775-1.486,0-.9-.624-1.38-1.643-1.38a4.078,4.078,0,0,0-.852.072Z"/>
    </g>
  </g>
</svg>