<!-- Generator: Adobe Illustrator 25.2.3, SVG Export Plug-In . SVG Version: 6.00 Build 0)  --><svg x="0px" enable-background="new 0 0 60 60" y="0px" width="60px" xmlns:xlink="http://www.w3.org/1999/xlink" viewBox="0 0 60 60" height="60px" id="Layer_1" xmlns="http://www.w3.org/2000/svg" xml:space="preserve" version="1.1">
<rect width="60" fill="#FBF49C" x="0" height="60" id="UnitColor" y="-0.085"/>
<rect width="60" fill="#F7EC13" height="20.189" id="CS_2_" y="11.533" display="none"/>
<g id="Gar" display="none">
	<rect width="14.843" fill="none" x="0.73" height="8.039" y="2.802" display="inline"/>
	<path d="M11.03,10.06c-0.472,0.163-1.361,0.379-2.249,0.379c-1.231,0-2.119-0.308-2.739-0.903   C5.424,8.949,5.085,8.072,5.089,7.083C5.097,4.842,6.73,3.567,8.936,3.567c0.87,0,1.539,0.165,1.873,0.323L10.49,5.111   C10.117,4.95,9.664,4.825,8.922,4.825c-1.27,0-2.235,0.714-2.235,2.18c0,1.391,0.878,2.205,2.125,2.205   c0.344,0,0.623-0.04,0.745-0.095V7.699H8.516V6.512h2.514V10.06z" display="inline"/>
</g>
<g id="Eng" display="none">
	<rect width="27.832" fill="none" x="1.1" height="8.039" y="2.802" display="inline"/>
	<path d="M17.011,7.521h-2.479v1.602h2.771v1.248h-4.294V3.634h4.15v1.248h-2.626v1.403h2.479V7.521z" display="inline"/>
</g>
<g id="P2" display="none">
	<path d="M19.024,28.186c0.472-1.148,0.803-2.149,0.992-3.001c0.282-1.24,0.423-2.417,0.423-3.534   c0-1.066-0.099-2.078-0.295-3.035c-0.197-0.957-0.575-2.146-1.135-3.568h1.146c0.628,1.03,1.101,2.092,1.419,3.186   c0.319,1.094,0.478,2.185,0.478,3.274c0,1.094-0.159,2.218-0.476,3.374s-0.786,2.257-1.407,3.305H19.024z" display="inline"/>
</g>
<g id="P1" display="none">
	<path d="M8.327,28.186H7.182c-0.605-1.025-1.071-2.111-1.396-3.257s-0.487-2.257-0.487-3.333   c0-1.162,0.163-2.296,0.489-3.401c0.326-1.105,0.795-2.154,1.408-3.148h1.146c-0.56,1.422-0.938,2.611-1.135,3.568   c-0.197,0.957-0.295,1.969-0.295,3.035c0,1.103,0.139,2.27,0.416,3.5C7.522,26.016,7.855,27.028,8.327,28.186z" display="inline"/>
</g>
<g id="Type">
	<path d="M53.265,12.893v17.022H26.785V12.893H53.265z M51.846,14.312H28.204v14.185h23.642V14.312z M37.26,21.404   c0-1.436,1.238-2.601,2.766-2.601s2.765,1.165,2.765,2.601c0,1.437-1.237,2.601-2.765,2.601S37.26,22.84,37.26,21.404z"/>
</g>
<g id="STK">
	<path d="M13.307,17.911h-0.036l-2.139,1.074l-0.386-1.671l2.857-1.406h1.847v11.703h-2.144V17.911z"/>
</g>
<g id="ECH">
	<rect width="27.832" x="26.078" fill="none" height="8.039" y="2.802"/>
	<path d="M37.905,3.634v6.736h-1.523V3.634H37.905z"/>
	<path d="M40.756,3.634v6.736h-1.523V3.634H40.756z"/>
	<path d="M43.605,3.634v6.736h-1.522V3.634H43.605z"/>
</g>
<g id="PF">
	<rect width="60" x="0" fill="none" height="15.475" y="44.525"/>
	<path d="M18.74,49.086c0.412-0.084,0.931-0.13,1.43-0.13c0.716,0,1.363,0.105,1.796,0.502c0.408,0.372,0.535,0.822,0.535,1.4   c0,0.722-0.353,1.365-1.039,1.683v0.021c0.457,0.185,0.689,0.607,0.817,1.335c0.131,0.746,0.312,1.581,0.431,1.826h-1.368   c-0.084-0.187-0.236-0.867-0.338-1.612c-0.115-0.838-0.329-1.074-0.764-1.074h-0.196v2.687H18.74V49.086z M20.045,52.026h0.238   c0.569,0,0.893-0.464,0.893-1.048c0-0.577-0.228-0.982-0.813-0.998c-0.117,0-0.245,0.01-0.318,0.04V52.026z"/>
	<path d="M26.287,52.761h-1.535v1.825h1.732v1.137H23.44v-6.736h2.93v1.137h-1.618v1.549h1.535V52.761z"/>
	<path d="M30.604,55.624c-0.188,0.089-0.556,0.158-1.01,0.158c-1.722,0-2.544-1.414-2.544-3.326c0-2.539,1.409-3.529,2.715-3.529   c0.464,0,0.784,0.093,0.916,0.176l-0.219,1.104c-0.154-0.072-0.322-0.134-0.609-0.134c-0.747,0-1.415,0.645-1.415,2.311   c0,1.608,0.613,2.236,1.407,2.236c0.22,0,0.472-0.048,0.631-0.099L30.604,55.624z"/>
	<path d="M32.555,54.185l-0.295,1.538h-1.271l1.463-6.736h1.568l1.31,6.736h-1.275l-0.287-1.538H32.555z M33.651,53.168l-0.226-1.41   c-0.064-0.409-0.154-1.086-0.221-1.531h-0.024c-0.072,0.447-0.172,1.144-0.242,1.533l-0.246,1.408H33.651z"/>
	<path d="M40.166,53.367c-0.034-0.646-0.077-1.508-0.062-2.234h-0.026c-0.12,0.723-0.301,1.552-0.426,2.075l-0.586,2.404h-0.929   l-0.56-2.366c-0.13-0.545-0.309-1.383-0.411-2.113h-0.024c-0.019,0.735-0.067,1.585-0.102,2.251l-0.113,2.339h-1.124l0.484-6.736   h1.382l0.538,2.438c0.187,0.854,0.356,1.599,0.477,2.36h0.022c0.103-0.748,0.253-1.508,0.43-2.36l0.531-2.438h1.383l0.409,6.736   h-1.173L40.166,53.367z"/>
</g>
<g id="Des">
	<rect width="60" x="0" fill="none" height="14.525" y="31.722"/>
	<path d="M10.554,33.257c0.671-0.16,1.511-0.234,2.315-0.234c1.247,0,2.292,0.216,3.007,0.887c0.676,0.641,0.916,1.451,0.916,2.453   c0,1.414-0.68,2.506-1.907,3.074v0.036c0.854,0.306,1.297,1.111,1.544,2.548c0.255,1.486,0.545,2.777,0.74,3.191h-1.994   c-0.16-0.348-0.417-1.538-0.625-2.948c-0.234-1.58-0.683-2.093-1.644-2.093h-0.441v5.041h-1.912V33.257z M12.466,38.688h0.5   c1.156,0,1.878-0.898,1.878-2.13c0-1.2-0.482-1.998-1.734-2.019c-0.242,0-0.489,0.018-0.644,0.072V38.688z"/>
	<path d="M23.337,39.683H20.45v3.861h3.273v1.668h-5.195V33.076h4.982v1.668h-3.06v3.332h2.887V39.683z"/>
	<path d="M30.87,45.019c-0.355,0.176-0.993,0.302-1.785,0.302c-2.77,0-4.35-2.261-4.35-6.009c0-4.67,2.463-6.344,4.622-6.344   c0.79,0,1.345,0.157,1.586,0.309l-0.354,1.627c-0.286-0.134-0.584-0.249-1.153-0.249c-1.322,0-2.671,1.209-2.671,4.523   c0,3.268,1.223,4.436,2.682,4.436c0.451,0,0.908-0.103,1.196-0.214L30.87,45.019z"/>
	<path d="M34.13,42.049l-0.654,3.163h-1.863l2.699-12.136h2.244l2.51,12.136h-1.878l-0.645-3.163H34.13z M36.342,40.543   l-0.508-2.786c-0.144-0.793-0.306-1.913-0.438-2.763h-0.052c-0.134,0.857-0.313,2.014-0.46,2.771l-0.531,2.778H36.342z"/>
	<path d="M47.792,40.525c-0.069-1.359-0.149-3.013-0.115-4.353h-0.06c-0.236,1.325-0.561,2.799-0.854,3.956l-1.253,4.939h-1.318   l-1.192-4.8c-0.31-1.235-0.646-2.74-0.855-4.096h-0.052c-0.015,1.371-0.097,2.978-0.167,4.415l-0.213,4.624h-1.676l0.804-12.136   h2.048l1.17,4.913c0.368,1.567,0.675,2.84,0.911,4.216h0.044c0.209-1.363,0.479-2.636,0.829-4.216l1.146-4.913h2.068l0.718,12.136   h-1.745L47.792,40.525z"/>
</g>
<g>
</g>
<g>
</g>
<g>
</g>
<g>
</g>
<g>
</g>
<g>
</g>
</svg>