<!-- Generator: Adobe Illustrator 25.2.3, SVG Export Plug-In . SVG Version: 6.00 Build 0)  --><svg x="0px" enable-background="new 0 0 60 60" y="0px" width="60px" xmlns:xlink="http://www.w3.org/1999/xlink" viewBox="0 0 60 60" height="60px" id="Layer_1" xmlns="http://www.w3.org/2000/svg" xml:space="preserve" version="1.1">
<rect width="60" x="0" fill="#F8F4B2" height="60" id="Yellow"/>
<g id="SGSU">
	<rect width="60" x="0" fill="none" height="19.351" y="2.962"/>
	<path fill="#353428" d="M13.121,17.512c0.527,0.317,1.448,0.563,2.194,0.563c1.38,0,2.134-0.809,2.134-1.965   c0-1.145-0.696-1.788-1.854-2.586c-1.565-1.003-2.667-2.412-2.667-3.941c0-2.213,1.502-3.957,4.145-3.957   c0.912,0,1.736,0.271,2.114,0.513l-0.417,1.924c-0.384-0.252-0.983-0.482-1.748-0.482c-1.272,0-1.879,0.865-1.879,1.715   c0,1.098,0.565,1.597,2.007,2.526c1.799,1.164,2.513,2.537,2.513,4.059c0,2.53-1.823,4.149-4.352,4.149   c-1.064,0-2.125-0.3-2.566-0.591L13.121,17.512z"/>
	<path fill="#353428" d="M28.847,19.534c-0.6,0.249-1.771,0.495-2.737,0.495c-1.45,0-2.646-0.404-3.588-1.389   c-1.13-1.148-1.796-3.172-1.772-5.681c0.048-5.313,2.93-7.334,5.702-7.334c0.992,0,1.741,0.194,2.182,0.414l-0.425,1.933   c-0.393-0.201-0.912-0.333-1.626-0.333c-1.82,0-3.502,1.348-3.502,5.343c0,3.832,1.475,5.141,2.946,5.141   c0.379,0,0.623-0.055,0.746-0.114v-3.953h-1.517v-1.84h3.591V19.534z"/>
	<path fill="#353428" d="M30.655,17.512c0.527,0.317,1.448,0.563,2.194,0.563c1.381,0,2.135-0.809,2.135-1.965   c0-1.145-0.696-1.788-1.854-2.586c-1.564-1.003-2.666-2.412-2.666-3.941c0-2.213,1.503-3.957,4.145-3.957   c0.912,0,1.736,0.271,2.113,0.513l-0.416,1.924c-0.384-0.252-0.984-0.482-1.748-0.482c-1.273,0-1.88,0.865-1.88,1.715   c0,1.098,0.565,1.597,2.008,2.526c1.799,1.164,2.513,2.537,2.513,4.059c0,2.53-1.822,4.149-4.352,4.149   c-1.064,0-2.125-0.3-2.566-0.591L30.655,17.512z"/>
	<path fill="#353428" d="M41.12,5.752v9.323c0,2.294,0.721,3.03,1.607,3.03c0.971,0,1.634-0.728,1.634-3.03V5.752h2.241v8.943   c0,3.66-1.44,5.376-3.882,5.376c-2.584,0-3.842-1.752-3.842-5.272V5.752H41.12z"/>
</g>
<g id="Des">
	<rect width="60" x="0" fill="none" height="16.909" y="22.313"/>
	<path fill="#353428" d="M8.714,38.033v-1.49l1.259-1.66c1.709-2.256,3.364-4.437,3.364-6.659c0-1.286-0.633-2.124-1.831-2.124   c-0.916,0-1.584,0.442-2.016,0.715L9.048,25.1c0.557-0.402,1.627-0.882,2.866-0.882c2.663,0,3.638,1.853,3.638,3.854   c0,2.562-1.638,4.807-3.258,6.849l-0.858,1.094v0.042h4.336v1.978H8.714z"/>
	<path fill="#353428" d="M24.734,31.162c0,4.934-1.688,7.039-3.798,7.039c-2.587,0-3.713-3.013-3.713-6.944   c0-4.229,1.305-7.039,3.858-7.039C23.811,24.218,24.734,27.422,24.734,31.162z M19.472,31.209c-0.024,3.24,0.445,5.071,1.562,5.071   c1.04,0,1.449-1.879,1.449-5.071c0-3.048-0.385-5.07-1.458-5.07C19.965,26.139,19.46,27.993,19.472,31.209z"/>
	<path fill="#353428" d="M26.755,36.322c0.446,0,0.734-0.03,1.147-0.114c0.598-0.139,1.228-0.46,1.717-0.94   c0.658-0.676,1.21-1.781,1.441-3.254h-0.055c-0.474,0.556-1.143,0.977-2.07,0.977c-1.743,0-3.109-1.575-3.109-4.067   c0-2.403,1.397-4.705,3.782-4.705c2.453,0,3.675,2.382,3.675,5.552c0,2.91-0.853,5.049-2.046,6.462   c-0.825,0.994-1.998,1.648-3.274,1.883c-0.432,0.081-0.828,0.087-1.208,0.087V36.322z M28.041,28.743   c0.012,1.626,0.574,2.66,1.526,2.66c0.571,0,1.103-0.405,1.338-0.935c0.096-0.249,0.125-0.494,0.125-1.197   c0-2.272-0.649-3.396-1.536-3.396C28.735,25.876,28.017,26.772,28.041,28.743z"/>
	<path fill="#353428" d="M34.867,30.691c0-1.154-0.051-1.975-0.084-2.88h1.942l0.114,1.203h0.042   c0.485-0.819,1.346-1.371,2.416-1.371c1.704,0,2.611,1.323,2.611,3.693v6.696h-2.241v-6.482c0-1.021-0.216-2.019-1.192-2.019   c-0.556,0-1.055,0.427-1.253,1.251c-0.066,0.225-0.114,0.555-0.114,0.93v6.32h-2.241V30.691z"/>
	<path fill="#353428" d="M50.838,23.504v11.767c0,0.839,0.052,1.979,0.084,2.763h-1.924l-0.132-1.212h-0.06   c-0.354,0.726-1.134,1.38-2.133,1.38c-1.978,0-3.088-2.169-3.088-5.249c0-3.587,1.541-5.309,3.193-5.309   c0.842,0,1.46,0.404,1.788,1.11h0.042v-5.25H50.838z M48.609,31.72c0-0.195,0-0.424-0.033-0.631   c-0.096-0.82-0.557-1.548-1.218-1.548c-1.132,0-1.537,1.613-1.537,3.441c0,2.04,0.543,3.369,1.483,3.369   c0.421,0,0.944-0.219,1.227-1.267c0.054-0.174,0.078-0.402,0.078-0.657V31.72z"/>
</g>
<g id="CV">
	<path fill="#353428" d="M20.956,55.225V53.88l1.388-1.292c2.752-2.546,4.051-3.949,4.067-5.496c0-1.058-0.562-1.97-2.092-1.97   c-1.036,0-1.915,0.524-2.499,0.975l-0.649-1.574c0.84-0.67,2.121-1.199,3.592-1.199c2.595,0,3.865,1.631,3.865,3.545   c0,2.059-1.479,3.712-3.525,5.602l-1.013,0.888v0.036h4.796v1.831H20.956z"/>
	<path fill="#353428" d="M38.864,49.293c0,3.77-1.473,6.13-4.277,6.13c-2.693,0-4.128-2.456-4.151-6.017   c0-3.641,1.549-6.083,4.283-6.083C37.549,43.323,38.864,45.851,38.864,49.293z M32.66,49.402c-0.006,2.854,0.775,4.33,1.998,4.33   c1.313,0,1.982-1.585,1.982-4.389c0-2.727-0.641-4.323-1.98-4.323C33.486,45.021,32.657,46.477,32.66,49.402z"/>
</g>
<g>
</g>
<g>
</g>
<g>
</g>
<g>
</g>
<g>
</g>
<g>
</g>
</svg>