<!-- Generator: Adobe Illustrator 25.2.3, SVG Export Plug-In . SVG Version: 6.00 Build 0)  --><svg x="0px" enable-background="new 0 0 60 60" y="0px" width="60px" xmlns:xlink="http://www.w3.org/1999/xlink" viewBox="0 0 60 60" height="60px" id="Layer_1" xmlns="http://www.w3.org/2000/svg" xml:space="preserve" version="1.1">
<rect width="60" x="0" fill="#F8F4B2" height="60" id="Yellow"/>
<g id="SGSU">
	<rect width="60" x="0" fill="none" height="19.351" y="2.962"/>
	<path fill="#353428" d="M13.121,17.512c0.527,0.317,1.448,0.563,2.194,0.563c1.38,0,2.134-0.809,2.134-1.965   c0-1.145-0.696-1.788-1.854-2.586c-1.565-1.003-2.667-2.412-2.667-3.941c0-2.213,1.502-3.957,4.145-3.957   c0.912,0,1.736,0.271,2.114,0.513l-0.417,1.924c-0.384-0.252-0.983-0.482-1.748-0.482c-1.272,0-1.879,0.865-1.879,1.715   c0,1.098,0.565,1.597,2.007,2.526c1.799,1.164,2.513,2.537,2.513,4.059c0,2.53-1.823,4.149-4.352,4.149   c-1.064,0-2.125-0.3-2.566-0.591L13.121,17.512z"/>
	<path fill="#353428" d="M28.847,19.534c-0.6,0.249-1.771,0.495-2.737,0.495c-1.45,0-2.646-0.404-3.588-1.389   c-1.13-1.148-1.796-3.172-1.772-5.681c0.048-5.313,2.93-7.334,5.702-7.334c0.992,0,1.741,0.194,2.182,0.414l-0.425,1.933   c-0.393-0.201-0.912-0.333-1.626-0.333c-1.82,0-3.502,1.348-3.502,5.343c0,3.832,1.475,5.141,2.946,5.141   c0.379,0,0.623-0.055,0.746-0.114v-3.953h-1.517v-1.84h3.591V19.534z"/>
	<path fill="#353428" d="M30.655,17.512c0.527,0.317,1.448,0.563,2.194,0.563c1.381,0,2.135-0.809,2.135-1.965   c0-1.145-0.696-1.788-1.854-2.586c-1.564-1.003-2.666-2.412-2.666-3.941c0-2.213,1.503-3.957,4.145-3.957   c0.912,0,1.736,0.271,2.113,0.513l-0.416,1.924c-0.384-0.252-0.984-0.482-1.748-0.482c-1.273,0-1.88,0.865-1.88,1.715   c0,1.098,0.565,1.597,2.008,2.526c1.799,1.164,2.513,2.537,2.513,4.059c0,2.53-1.822,4.149-4.352,4.149   c-1.064,0-2.125-0.3-2.566-0.591L30.655,17.512z"/>
	<path fill="#353428" d="M41.12,5.752v9.323c0,2.294,0.721,3.03,1.607,3.03c0.971,0,1.634-0.728,1.634-3.03V5.752h2.241v8.943   c0,3.66-1.44,5.376-3.882,5.376c-2.584,0-3.842-1.752-3.842-5.272V5.752H41.12z"/>
</g>
<g id="Des">
	<rect width="60" x="0" fill="none" height="16.909" y="22.313"/>
	<path fill="#353428" d="M10.506,35.812c0.488,0.291,1.241,0.553,2.003,0.553c1.374,0,2.206-0.919,2.206-2.311   c0-1.642-1.152-2.457-2.649-2.469h-0.378V29.93h0.288c0.993-0.012,2.37-0.577,2.37-2.058c0-1.162-0.667-1.805-1.681-1.805   c-0.642,0-1.242,0.268-1.712,0.582l-0.36-1.685c0.534-0.384,1.559-0.747,2.644-0.747c2.188,0,3.348,1.472,3.348,3.224   c0,1.365-0.741,2.529-1.995,3.12v0.042c1.274,0.404,2.364,1.541,2.364,3.521c0,2.146-1.523,4.076-4.271,4.076   c-1.006,0-1.975-0.264-2.548-0.615L10.506,35.812z"/>
	<path fill="#353428" d="M18.658,34.579c0-1.795,1.021-3.013,2.137-3.76l-0.009-0.042c-1.148-0.765-1.725-1.947-1.725-3.048   c0-2.18,1.633-3.512,3.56-3.512c1.95,0,3.252,1.468,3.252,3.287c0,1.039-0.451,2.235-1.809,3.12v0.051   c1.26,0.754,2.142,1.998,2.142,3.63c0,2.347-1.648,3.896-3.822,3.896C20.065,38.201,18.658,36.568,18.658,34.579z M24.026,34.414   c0-1.42-0.846-2.272-1.741-2.808c-0.878,0.567-1.449,1.562-1.449,2.685c0,1.337,0.577,2.348,1.625,2.348   C23.389,36.639,24.026,35.814,24.026,34.414z M21.179,27.63c0,1.157,0.68,1.835,1.496,2.312c0.688-0.434,1.126-1.297,1.126-2.207   c0-1.1-0.409-1.967-1.297-1.967C21.657,25.769,21.179,26.603,21.179,27.63z"/>
	<path fill="#353428" d="M31.637,38.033v-3.487h-4.618v-1.529l4.454-8.631h2.17v8.355h1.41v1.805h-1.41v3.487H31.637z    M31.637,32.741V29.47c0-0.82,0.066-1.643,0.129-2.447h-0.071c-0.379,0.908-0.661,1.535-1.045,2.33L29,32.699v0.042H31.637z"/>
	<path fill="#353428" d="M39.006,25.074v2.738h1.982v1.625h-1.982v5.301c0,1.251,0.486,1.569,1.047,1.569   c0.264,0,0.474-0.021,0.692-0.062l0.046,1.744c-0.339,0.105-0.83,0.171-1.465,0.171c-0.725,0-1.363-0.18-1.81-0.636   c-0.494-0.504-0.752-1.244-0.752-2.764v-5.323h-1.224v-1.625h1.224v-2.166L39.006,25.074z"/>
	<path fill="#353428" d="M42.334,23.504h2.24v5.388h0.042c0.234-0.357,0.537-0.657,0.876-0.879c0.381-0.231,0.833-0.369,1.371-0.369   c1.616,0,2.512,1.344,2.512,3.933v6.457h-2.241v-6.381c0-1.108-0.229-2.12-1.177-2.12c-0.59,0-1.067,0.391-1.293,1.263   c-0.042,0.192-0.09,0.527-0.09,0.768v6.471h-2.24V23.504z"/>
</g>
<g id="CV">
	<path fill="#353428" d="M20.956,55.225V53.88l1.388-1.292c2.752-2.546,4.051-3.949,4.067-5.496c0-1.058-0.562-1.97-2.092-1.97   c-1.036,0-1.915,0.524-2.499,0.975l-0.649-1.574c0.84-0.67,2.121-1.199,3.592-1.199c2.595,0,3.865,1.631,3.865,3.545   c0,2.059-1.479,3.712-3.525,5.602l-1.013,0.888v0.036h4.796v1.831H20.956z"/>
	<path fill="#353428" d="M38.864,49.293c0,3.77-1.473,6.13-4.277,6.13c-2.693,0-4.128-2.456-4.151-6.017   c0-3.641,1.549-6.083,4.283-6.083C37.549,43.323,38.864,45.851,38.864,49.293z M32.66,49.402c-0.006,2.854,0.775,4.33,1.998,4.33   c1.313,0,1.982-1.585,1.982-4.389c0-2.727-0.641-4.323-1.98-4.323C33.486,45.021,32.657,46.477,32.66,49.402z"/>
</g>
<g>
</g>
<g>
</g>
<g>
</g>
<g>
</g>
<g>
</g>
<g>
</g>
</svg>