<!-- Generator: Adobe Illustrator 25.2.3, SVG Export Plug-In . SVG Version: 6.00 Build 0)  --><svg x="0px" enable-background="new 0 0 60 60" y="0px" width="60px" xmlns:xlink="http://www.w3.org/1999/xlink" viewBox="0 0 60 60" height="60px" id="Layer_1" xmlns="http://www.w3.org/2000/svg" xml:space="preserve" version="1.1">
<rect width="60" x="0" fill="#F8F4B2" height="60" id="Yellow"/>
<g id="SGSU">
	<rect width="60" x="0" fill="none" height="19.351" y="2.962"/>
	<path fill="#353428" d="M13.121,17.512c0.527,0.317,1.448,0.563,2.194,0.563c1.38,0,2.134-0.809,2.134-1.965   c0-1.145-0.696-1.788-1.854-2.586c-1.565-1.003-2.667-2.412-2.667-3.941c0-2.213,1.502-3.957,4.145-3.957   c0.912,0,1.736,0.271,2.114,0.513l-0.417,1.924c-0.384-0.252-0.983-0.482-1.748-0.482c-1.272,0-1.879,0.865-1.879,1.715   c0,1.098,0.565,1.597,2.007,2.526c1.799,1.164,2.513,2.537,2.513,4.059c0,2.53-1.823,4.149-4.352,4.149   c-1.064,0-2.125-0.3-2.566-0.591L13.121,17.512z"/>
	<path fill="#353428" d="M28.847,19.534c-0.6,0.249-1.771,0.495-2.737,0.495c-1.45,0-2.646-0.404-3.588-1.389   c-1.13-1.148-1.796-3.172-1.772-5.681c0.048-5.313,2.93-7.334,5.702-7.334c0.992,0,1.741,0.194,2.182,0.414l-0.425,1.933   c-0.393-0.201-0.912-0.333-1.626-0.333c-1.82,0-3.502,1.348-3.502,5.343c0,3.832,1.475,5.141,2.946,5.141   c0.379,0,0.623-0.055,0.746-0.114v-3.953h-1.517v-1.84h3.591V19.534z"/>
	<path fill="#353428" d="M30.655,17.512c0.527,0.317,1.448,0.563,2.194,0.563c1.381,0,2.135-0.809,2.135-1.965   c0-1.145-0.696-1.788-1.854-2.586c-1.564-1.003-2.666-2.412-2.666-3.941c0-2.213,1.503-3.957,4.145-3.957   c0.912,0,1.736,0.271,2.113,0.513l-0.416,1.924c-0.384-0.252-0.984-0.482-1.748-0.482c-1.273,0-1.88,0.865-1.88,1.715   c0,1.098,0.565,1.597,2.008,2.526c1.799,1.164,2.513,2.537,2.513,4.059c0,2.53-1.822,4.149-4.352,4.149   c-1.064,0-2.125-0.3-2.566-0.591L30.655,17.512z"/>
	<path fill="#353428" d="M41.12,5.752v9.323c0,2.294,0.721,3.03,1.607,3.03c0.971,0,1.634-0.728,1.634-3.03V5.752h2.241v8.943   c0,3.66-1.44,5.376-3.882,5.376c-2.584,0-3.842-1.752-3.842-5.272V5.752H41.12z"/>
</g>
<g id="Des">
	<rect width="60" x="0" fill="none" height="16.909" y="22.313"/>
	<path fill="#353428" d="M10.832,35.812c0.488,0.291,1.241,0.553,2.003,0.553c1.374,0,2.206-0.919,2.206-2.311   c0-1.642-1.152-2.457-2.649-2.469h-0.378V29.93h0.288c0.993-0.012,2.37-0.577,2.37-2.058c0-1.162-0.667-1.805-1.681-1.805   c-0.642,0-1.242,0.268-1.712,0.582l-0.36-1.685c0.534-0.384,1.559-0.747,2.644-0.747c2.188,0,3.348,1.472,3.348,3.224   c0,1.365-0.741,2.529-1.995,3.12v0.042c1.274,0.404,2.364,1.541,2.364,3.521c0,2.146-1.523,4.076-4.271,4.076   c-1.006,0-1.975-0.264-2.548-0.615L10.832,35.812z"/>
	<path fill="#353428" d="M25.842,26.34h-3.645l-0.427,2.981c0.153-0.027,0.288-0.027,0.459-0.027   c0.651,0.012,1.824,0.309,2.58,1.028c0.75,0.727,1.169,1.749,1.169,3.132c0,2.679-1.739,4.747-4.475,4.747   c-0.911,0-1.913-0.233-2.458-0.57l0.396-1.774c0.464,0.243,1.185,0.495,1.928,0.495c1.371,0,2.396-0.948,2.396-2.686   c0-1.98-1.353-2.727-3.015-2.727c-0.436,0-0.75,0.019-1.026,0.061l0.813-6.614h5.305V26.34z"/>
	<path fill="#353428" d="M27.968,35.812c0.488,0.291,1.241,0.553,2.003,0.553c1.375,0,2.206-0.919,2.206-2.311   c0-1.642-1.151-2.457-2.649-2.469H29.15V29.93h0.288c0.993-0.012,2.371-0.577,2.371-2.058c0-1.162-0.667-1.805-1.681-1.805   c-0.642,0-1.242,0.268-1.712,0.582l-0.36-1.685c0.534-0.384,1.559-0.747,2.644-0.747c2.187,0,3.348,1.472,3.348,3.224   c0,1.365-0.741,2.529-1.995,3.12v0.042c1.274,0.404,2.363,1.541,2.363,3.521c0,2.146-1.522,4.076-4.271,4.076   c-1.006,0-1.975-0.264-2.548-0.615L27.968,35.812z"/>
	<path fill="#353428" d="M36.644,30.691c0-0.946-0.051-2.011-0.084-2.88h1.96l0.114,1.542h0.065c0.396-1.037,1.241-1.71,2.076-1.71   c0.219,0,0.341,0.012,0.476,0.036v2.241c-0.138-0.023-0.284-0.023-0.479-0.023c-0.775,0-1.556,0.647-1.795,1.755   c-0.057,0.246-0.093,0.591-0.093,0.979v5.401h-2.241V30.691z"/>
	<path fill="#353428" d="M49.053,23.504v11.767c0,0.839,0.052,1.979,0.084,2.763h-1.924l-0.132-1.212h-0.06   c-0.354,0.726-1.134,1.38-2.133,1.38c-1.978,0-3.088-2.169-3.088-5.249c0-3.587,1.541-5.309,3.193-5.309   c0.842,0,1.46,0.404,1.788,1.11h0.042v-5.25H49.053z M46.824,31.72c0-0.195,0-0.424-0.033-0.631   c-0.096-0.82-0.557-1.548-1.218-1.548c-1.132,0-1.537,1.613-1.537,3.441c0,2.04,0.543,3.369,1.483,3.369   c0.421,0,0.944-0.219,1.227-1.267c0.054-0.174,0.078-0.402,0.078-0.657V31.72z"/>
</g>
<g id="CV">
	<path fill="#353428" d="M20.956,55.225V53.88l1.388-1.292c2.752-2.546,4.051-3.949,4.067-5.496c0-1.058-0.562-1.97-2.092-1.97   c-1.036,0-1.915,0.524-2.499,0.975l-0.649-1.574c0.84-0.67,2.121-1.199,3.592-1.199c2.595,0,3.865,1.631,3.865,3.545   c0,2.059-1.479,3.712-3.525,5.602l-1.013,0.888v0.036h4.796v1.831H20.956z"/>
	<path fill="#353428" d="M38.864,49.293c0,3.77-1.473,6.13-4.277,6.13c-2.693,0-4.128-2.456-4.151-6.017   c0-3.641,1.549-6.083,4.283-6.083C37.549,43.323,38.864,45.851,38.864,49.293z M32.66,49.402c-0.006,2.854,0.775,4.33,1.998,4.33   c1.313,0,1.982-1.585,1.982-4.389c0-2.727-0.641-4.323-1.98-4.323C33.486,45.021,32.657,46.477,32.66,49.402z"/>
</g>
<g>
</g>
<g>
</g>
<g>
</g>
<g>
</g>
<g>
</g>
<g>
</g>
</svg>