<svg width="60" height="60" xmlns="http://www.w3.org/2000/svg" viewBox="0 0 60 60">
  <rect fill="#fff" height="60" width="60"/>
  <rect fill="#cccccb" height="60" width="60"/>
  <g>
    <g>
      <rect x="24.557" width="5.828" height="14.621" y="32.43" transform="translate(-0.438 0.306) rotate(-0.634)"/>
      <path d="M29.688,33.031l.143,13.37-4.577.048-.141-13.368,4.575-.05m1.238-1.265-7.078.078.168,15.87,7.08-.075-.17-15.873Z"/>
    </g>
    <g>
      <polygon points="30.203 38.836 39.984 38.82 40.163 41.493 30.382 41.511 30.203 38.836"/>
      <path d="M39.4,39.446l.095,1.423-8.527.015-.095-1.424,8.527-.014m1.17-1.253-11.035.018.263,3.926,11.035-.02-.263-3.924Z"/>
    </g>
    <g>
      <polygon points="34.52 22.271 36.558 22.213 36.63 39.835 34.595 39.891 34.52 22.271"/>
      <path d="M35.934,22.857,36,39.226l-.784.021-.07-16.368.786-.022M37.18,21.57l-3.288.092.08,18.871,3.286-.09L37.18,21.57Z"/>
    </g>
    <g>
      <polygon points="30.385 32.396 34.015 32.36 34.115 40.785 30.485 40.82 30.385 32.396"/>
      <path d="M33.4,32.992l.085,7.173-2.377.023-.086-7.173,2.378-.023m1.237-1.264-4.881.048.115,9.676,4.881-.048-.115-9.676Z"/>
    </g>
    <g>
      <polygon points="25.853 25.628 26.508 25.85 24.027 35.993 22.351 36.355 25.853 25.628"/>
      <path d="M24.144,32.88l-.632,2.584-.228.049.86-2.633m1.311-8.047L21.418,37.2l3.123-.676,2.711-11.08-1.8-.608Z"/>
    </g>
    <g>
      <path d="M8.551,36.458a.773.773,0,0,0-.107-.019c-.009,0-.127-.041-.154-.047l-.127-.068c-.02-.015-.084-.061-.106-.074l-.037-.033.02.017c0-.005-.084-.084-.089-.088s-.055-.076-.067-.091-.052-.088-.065-.108-.047-.1-.054-.118-.03-.133-.033-.141l-.009-.114,0-.132.017-.109.034-.113.049-.116a.943.943,0,0,0,.065-.122c.011-.012.059-.062.069-.077l.081-.079c.025-.016.119-.087.142-.107s.047-.025.071-.037l-.071.041s.15-.066.183-.079l.071-.022.112-.018a1.071,1.071,0,0,0,.14-.013A.677.677,0,0,0,8.8,34.6c.016,0,.105.022.121.023s.1.043.124.053c0,0,.1.05.106.056s.038.027.05.034.082.066.1.08.073.077.086.091.076.111.087.124a.641.641,0,0,0,.054.1c0,.011.028.1.032.109a.584.584,0,0,0,.025.1s.01.132.012.148c0,0-.006.091-.007.1l-.009.065a.658.658,0,0,0-.023.107l-.065.163-.065.115a.643.643,0,0,0-.068.082s-.105.1-.123.117-.086.053-.1.064c0,0-.123.061-.149.076s-.082.02-.108.03l-.042.008.012,0-.115.017-.059,0S8.585,36.458,8.551,36.458Z"/>
      <path d="M8.656,35.223h0l.03,0h.023l.009,0,.01,0,.006,0,.029.01.022.009.011,0,.01.005h0l.015.011.019.012.01.007.009.007.013.012.005.005.026.034.016.024.007.012.009.017.006.013,0,.009v0c0,.019.008.038.013.057l0,.007h0V35.5l0,.025v.016l0,.022h0l0,.022-.011.045,0,.007h0l0,.007h0l-.006.012-.012.024v0l0,.007h0l0,.005,0,.006-.034.042-.01.011-.012.01-.029.021h0l-.019.013-.012,0-.045.019h0l-.029.009-.021,0h0l-.035,0h0l-.035,0h0l-.02,0-.009,0-.031-.01h0l-.022-.009L8.506,35.8l-.031-.02-.012-.008,0,0-.017-.015-.013-.013-.007-.008,0,0-.011-.015-.021-.032,0-.007-.008-.017-.007-.014,0-.011h0l-.006-.018-.008-.029v-.021h0v-.049l0-.036,0-.009h0l0-.007h0l.01-.035,0-.011.005-.009.012-.025,0-.008.018-.027.01-.014,0-.006.005,0,.012-.012.017-.014.02-.015.028-.019.024-.011.007,0,.028-.01.031-.009H8.6l.022,0,.03,0h0m.035-1.252h-.07l-.035,0a.207.207,0,0,0-.035,0,1.235,1.235,0,0,1-.07.005l-.035,0-.035.005L8.376,34A.241.241,0,0,1,8.341,34l-.035.008a.261.261,0,0,0-.033.008l-.035.009-.032.011-.035.009a.252.252,0,0,0-.033.013l-.032.01-.036.013-.032.015-.03.015-.033.015-.032.015-.03.015-.03.017-.033.02-.03.018-.027.02a.131.131,0,0,0-.03.02.339.339,0,0,0-.028.02l-.03.02-.027.022-.028.023-.025.022-.028.023-.025.025-.025.025-.025.025c-.008.008-.015.017-.022.025l-.025.028-.023.027-.022.028-.02.027-.02.028a.3.3,0,0,0-.023.03c-.006.01-.012.02-.017.03l-.02.027a.174.174,0,0,0-.018.033.228.228,0,0,0-.017.03.238.238,0,0,0-.018.03l-.015.032-.015.03-.015.033-.015.032-.013.033-.012.033a.362.362,0,0,0-.013.035l-.01.032-.01.033-.01.035-.01.035a.206.206,0,0,1-.007.032.2.2,0,0,1-.008.035l0,.035,0,.035,0,.035,0,.035a.217.217,0,0,1,0,.036.2.2,0,0,0,0,.035.211.211,0,0,1,0,.035v.1a.2.2,0,0,1,0,.035.207.207,0,0,0,0,.035.2.2,0,0,1,0,.035l0,.035,0,.035,0,.035,0,.035a.221.221,0,0,1,.008.035.246.246,0,0,1,.007.033l.01.035.01.035.01.032.01.035.013.033L7.2,36.1l.013.033.015.032.015.033.015.03.015.032a.248.248,0,0,0,.018.031l.017.032a.238.238,0,0,0,.018.03l.02.028c.005.01.011.02.017.03a.3.3,0,0,0,.023.03l.02.027.02.028.022.027.023.028.025.027.022.025.025.025.025.025.025.025.028.023a.246.246,0,0,0,.025.022l.028.023.027.023.03.02.028.02a.174.174,0,0,0,.03.02l.027.02.03.02.033.017.03.018.03.015.032.015.033.015.03.015.032.012.036.015.032.01a.252.252,0,0,0,.033.013l.035.01.032.01.035.01a.246.246,0,0,1,.033.007,1.311,1.311,0,0,0,.07.015l.035.005.035,0,.035.005a3.709,3.709,0,0,1,.105.008l.033,0h.074l.033,0a1.235,1.235,0,0,1,.07-.005.2.2,0,0,0,.035,0l.035-.005.035,0,.035-.005.035-.007a.233.233,0,0,0,.036-.008.15.15,0,0,1,.032-.007l.035-.01.033-.01.035-.01L9.174,37l.033-.01.032-.015a.161.161,0,0,0,.033-.012l.032-.015.033-.015.032-.015L9.4,36.9l.03-.018a.255.255,0,0,1,.033-.017l.028-.02.03-.02a.174.174,0,0,0,.03-.02l.027-.02.03-.02.028-.023.027-.023a.171.171,0,0,0,.025-.022.311.311,0,0,1,.028-.023l.025-.025.025-.025L9.79,36.6l.022-.025.025-.027.023-.028.02-.027a.311.311,0,0,0,.023-.028l.02-.027.02-.03.02-.03.02-.028a.228.228,0,0,1,.017-.03l.018-.032a.238.238,0,0,1,.017-.031l.015-.032.015-.03.015-.033.015-.032a.252.252,0,0,1,.013-.033l.012-.032a.252.252,0,0,1,.013-.033l.01-.035.01-.032.01-.035a.241.241,0,0,0,.007-.035l.01-.033.005-.035a.221.221,0,0,0,.008-.035l.005-.035,0-.035.005-.035c0-.012,0-.024,0-.035a.207.207,0,0,1,0-.035c0-.012,0-.024,0-.035v-.1c0-.012,0-.024,0-.035a.216.216,0,0,1,0-.035c0-.012,0-.024,0-.036l-.005-.035,0-.035-.005-.035a.249.249,0,0,0-.008-.035L10.18,35.2l-.01-.032a.2.2,0,0,0-.007-.035l-.01-.035-.01-.033-.01-.032c0-.012-.009-.024-.013-.035l-.012-.033-.013-.033L10.08,34.9l-.015-.033-.015-.03-.015-.032a.228.228,0,0,1-.017-.03.238.238,0,0,0-.018-.03l-.017-.033-.02-.027-.02-.03-.02-.03-.02-.028a.2.2,0,0,0-.023-.027l-.02-.028-.023-.027-.025-.028a.246.246,0,0,0-.022-.025l-.025-.025-.025-.025-.025-.025-.028-.023-.025-.022-.027-.023-.028-.022-.03-.02a.316.316,0,0,0-.027-.02.131.131,0,0,0-.03-.02l-.028-.02-.03-.018a.263.263,0,0,1-.033-.02l-.03-.017-.03-.015-.032-.015L9.3,34.114,9.272,34.1a.162.162,0,0,0-.033-.013l-.032-.015-.033-.01-.032-.013-.035-.009-.033-.011-.035-.009-.032-.008L8.971,34A.241.241,0,0,1,8.936,34L8.9,33.991l-.035-.005-.035,0a1.235,1.235,0,0,1-.07-.005.2.2,0,0,0-.035,0l-.035,0Z"/>
    </g>
    <g>
      <polygon points="11.341 25.032 11.891 23.977 23.812 28.984 23.778 32.406 11.341 25.032"/>
      <path d="M12.18,24.777l11,4.621-.019,1.916L12.17,24.8l.01-.019m-.578-1.6-1.089,2.093L24.394,33.5l.047-4.928L11.6,23.176Z"/>
    </g>
    <path fill="none" stroke-width="3.474" d="M19.846,46.863a.955.955,0,0,1,0,.107c0,.037,0,.073,0,.108s0,.073-.005.11l0,.108-.01.107c-.005.037-.01.074-.013.11l-.015.108c0,.035-.011.071-.017.108l-.021.105c-.006.037-.014.072-.022.108s-.014.069-.023.1-.017.07-.027.105l-.03.1-.03.105c-.012.035-.024.069-.035.1l-.035.1c-.014.035-.027.069-.04.1l-.04.1c-.014.033-.028.067-.043.1l-.045.1-.047.1-.051.095c-.016.033-.034.065-.052.1s-.034.063-.053.095-.037.063-.057.093-.038.062-.058.092l-.06.09c-.02.031-.041.061-.062.091l-.065.087-.066.085-.067.085-.07.085-.073.08-.075.081-.075.077q-.038.041-.078.078c-.025.025-.05.05-.077.075l-.083.072c-.026.024-.054.047-.082.07l-.083.071c-.028.021-.057.044-.085.067l-.088.065-.087.063-.09.06a.919.919,0,0,1-.093.06q-.045.03-.093.057c-.03.019-.06.037-.092.055s-.064.036-.095.053-.064.036-.1.053-.063.03-.095.047-.067.031-.1.048-.064.029-.1.042-.067.03-.1.043l-.1.04-.1.037-.1.035q-.052.015-.1.033l-.105.03-.105.028-.106.025-.107.022-.105.023-.108.017-.108.015-.107.015-.11.01-.108.01-.108,0-.11.005h-.217l-.108-.005-.11,0-.108-.01-.107-.01-.108-.015-.108-.015-.107-.017-.108-.023-.1-.022-.105-.025-.105-.028-.105-.03q-.053-.018-.1-.033l-.1-.035c-.033-.013-.068-.025-.1-.037l-.1-.04c-.033-.013-.067-.028-.1-.043s-.067-.027-.1-.042l-.1-.048c-.033-.017-.066-.032-.1-.047l-.1-.053a1.068,1.068,0,0,1-.095-.053l-.1-.055-.092-.057q-.045-.027-.09-.06l-.09-.06c-.03-.02-.06-.041-.088-.063l-.088-.065c-.028-.023-.056-.046-.085-.067l-.085-.071c-.028-.023-.056-.046-.082-.07l-.08-.072-.081-.075-.077-.078-.075-.077-.073-.081c-.025-.026-.049-.053-.072-.08l-.07-.085c-.024-.028-.046-.056-.068-.085s-.046-.056-.068-.085-.042-.058-.062-.087-.043-.06-.063-.091-.041-.06-.06-.09l-.06-.092c-.018-.03-.037-.061-.055-.093l-.055-.095c-.017-.03-.033-.062-.05-.1s-.035-.063-.05-.095-.033-.066-.048-.1-.031-.067-.045-.1l-.045-.1-.04-.1c-.013-.034-.026-.068-.037-.1s-.026-.067-.038-.1-.022-.068-.032-.1-.023-.07-.033-.105-.019-.07-.027-.1-.02-.07-.028-.105l-.025-.1c-.008-.036-.016-.071-.023-.108l-.02-.105-.015-.108c-.006-.037-.011-.072-.015-.108s-.009-.073-.012-.11l-.01-.107c0-.035-.006-.071-.008-.108l-.005-.11c0-.035,0-.071,0-.108v-.107c0-.037,0-.074,0-.11l.005-.108c0-.037,0-.073.008-.11l.01-.108c0-.036.007-.072.012-.107s.009-.073.015-.108l.015-.108L10.31,46c.007-.035.015-.07.023-.1s.017-.073.025-.108.018-.07.028-.1.017-.07.027-.105.021-.069.033-.1.02-.07.032-.1.024-.067.038-.1.024-.067.037-.1l.04-.1.045-.1c.014-.033.029-.067.045-.1s.031-.066.048-.1.032-.066.05-.1l.05-.095.055-.095c.018-.03.037-.061.055-.093l.06-.093c.019-.029.039-.06.06-.09s.041-.059.063-.087.041-.059.062-.088.045-.059.068-.087.044-.057.068-.086l.07-.082.072-.083c.024-.026.048-.052.073-.077l.075-.08c.027-.025.052-.05.077-.075l.081-.076c.026-.025.053-.049.08-.072s.054-.05.082-.073.057-.046.085-.067L12.1,43.1l.088-.065c.028-.022.058-.044.088-.065l.09-.06.09-.06c.032-.019.062-.038.092-.058l.1-.055.095-.052.1-.05c.031-.017.064-.033.1-.048s.065-.033.1-.048l.1-.045.1-.04.1-.04.1-.037.1-.035q.052-.018.1-.033l.105-.03.105-.027.105-.028c.035-.008.07-.016.1-.022l.108-.02.107-.02.108-.015c.035-.005.071-.01.108-.013l.107-.012c.037,0,.073-.006.108-.008s.073-.006.11-.007l.108,0c.036,0,.073,0,.11,0s.071,0,.107,0,.074,0,.11,0,.071,0,.108.007.073,0,.108.008l.11.012c.035,0,.071.008.107.013l.108.015.108.02.105.02c.035.006.071.014.107.022l.106.028.105.027.105.03.1.033.1.035c.035.011.069.024.1.037s.067.027.1.04l.1.04.1.045c.033.015.067.031.1.048l.1.048.095.05c.031.018.063.036.095.052l.092.055.093.058.093.06q.045.03.09.063l.087.062c.03.022.06.043.088.065s.057.044.085.068.056.044.083.067.056.048.082.073.056.047.083.072.052.05.077.076l.078.075.075.08c.025.025.05.051.075.08l.073.08c.023.028.046.056.07.082l.067.086q.033.042.066.087l.065.088c.021.028.042.057.062.087l.06.09.058.093.057.093c.019.031.036.063.053.095s.036.063.052.095.034.064.051.1.032.064.047.1l.045.1c.015.032.029.065.043.1s.026.069.04.1l.04.1c.011.035.023.069.035.1l.035.1.03.1.03.105q.015.052.027.1c.009.035.016.071.023.108s.016.07.022.1l.021.107c.006.036.012.071.017.108l.015.108c0,.035.008.071.013.107l.01.108c0,.037,0,.073.007.11s0,.071,0,.108S19.846,46.826,19.846,46.863Z" stroke-linejoin="round" stroke="#000"/>
    <g>
      <rect x="5.452" width="1.234" height="1.233" y="43.379"/>
      <polygon points="7.312 42.753 4.827 42.753 4.827 45.238 7.312 45.238 7.312 42.753 7.312 42.753"/>
    </g>
    <g>
      <rect x="7.728" width="20.215" height="1.533" y="36.049"/>
      <path d="M27.317,36.674v.283H8.353v-.283H27.317m1.251-1.251H7.1v2.785H28.568V35.423Z"/>
    </g>
    <g>
      <path d="M24.12,47.063c-.034-.071-.065-.119-.093-.168-.048-.083-.1-.178-.15-.287s-.1-.213-.139-.3c-.029-.072-.055-.142-.074-.2l-.066-.211-.36-1.264c-.036-.124-.072-.24-.109-.354s-.074-.224-.114-.334L22.9,43.62l-.133-.332c-.052-.122-.1-.237-.16-.353s-.113-.235-.176-.354-.132-.24-.2-.358-.144-.236-.224-.352-.165-.234-.26-.362-.19-.25-.282-.359l-.235-.273c-.078-.087-.321-.345-.322-.347l-.551-.549c-.246-.208-.422-.351-.56-.461-.157-.123-.268-.205-.336-.25s-.162-.107-.28-.18-.251-.154-.416-.252-.311-.179-.427-.24-.228-.119-.3-.153c-.049-.021-.112-.048-.189-.077l7.34-.547.058.089c.045.094.123.251.2.416s.138.291.178.393.095.241.15.394.12.37.2.652a6.333,6.333,0,0,1,.159.673,5.3,5.3,0,0,1,.052.57c.008.206.007.393,0,.557s-.02.33-.033.473l-.042.409c-.012.115-.027.23-.045.342l-.127.654-.127.529-.278,1.05-.092.313c-.041.14-.077.254-.113.355s-.072.2-.116.3c-.033.079-.055.129-.069.157l-.142.245a2.775,2.775,0,0,1-.159.253,1.994,1.994,0,0,1-.164.181,1,1,0,0,1-.141.127,1.407,1.407,0,0,1-.3.089C24.185,47.052,24.151,47.059,24.12,47.063Z"/>
      <path d="M24.817,38.476c.021.043.042.086.063.131.068.14.121.255.161.355s.086.218.135.357.114.351.187.615a5.843,5.843,0,0,1,.141.594,4.744,4.744,0,0,1,.047.5c.007.189.007.357,0,.5-.009.165-.019.317-.03.439l-.042.412c-.011.1-.025.207-.039.294-.019.112-.04.223-.067.351-.021.113-.04.21-.052.267l-.061.259-.06.249-.076.289-.066.248c-.025.089-.049.179-.066.248s-.027.106-.037.148l-.033.121c-.02.07-.05.17-.093.311-.035.12-.068.226-.106.335-.026.078-.058.16-.1.26-.016.039-.029.07-.04.094-.026.045-.07.12-.129.224-.028.047-.052.088-.073.122-.022-.048-.041-.091-.057-.127-.027-.065-.049-.121-.056-.142l-.067-.218c-.021-.07-.042-.146-.069-.245l-.072-.25-.074-.267q-.025-.081-.057-.192l-.089-.313c-.037-.126-.075-.248-.112-.362s-.079-.237-.121-.357-.081-.22-.129-.347l-.141-.35c-.052-.12-.107-.241-.163-.359s-.124-.256-.192-.385-.141-.258-.214-.379-.162-.264-.251-.4-.174-.247-.269-.373q-.159-.216-.311-.4l-.249-.29c-.077-.086-.162-.179-.264-.286l-.3-.31-.333-.326c-.022-.021-.045-.042-.069-.062-.218-.182-.4-.33-.546-.447-.095-.074-.176-.135-.241-.184l.055,0c.148-.01.3-.022.43-.033l.138-.009.311-.022c.139-.011.277-.022.431-.032.138-.012.276-.022.416-.032s.3-.021.43-.032l.431-.033.443-.031.431-.033.42-.031.429-.032.43-.033.092-.007m.683-1.3-.431.03c-.143.012-.287.023-.43.033l-.431.032c-.143.012-.287.023-.43.033l-.433.032c-.144.01-.287.021-.431.033l-.43.03-.43.032c-.144.012-.287.023-.431.033l-.43.032c-.144.01-.287.021-.431.033l-.433.03c-.143.012-.287.023-.43.032s-.287.023-.431.033-.287.023-.43.033-.287.02-.431.032l-.43.03c-.144.012-.287.023-.431.033l-.433.032c-.143.012-.287.023-.43.033l-.431.032c-.143.01-.287.021-.43.033l-.431.03c-.143.012-.287.022-.43.032s-.287.023-.431.033l-.433.032-.43.03c-.144.012-.287.023-.431.033s-.287.021-.43.033l-.431.03-.43.03-.428.03a1.239,1.239,0,0,0,.168-.008l.157-.012.3-.018c.124-.007.244-.012.361-.015s.227-.006.335-.007l.3,0,.308.005c.111,0,.261.009.448.018s.35.019.49.032.229.023.261.028l.147.025.273.04.315.052c.095.015.181.03.256.045s.173.044.295.08.234.072.338.106.219.071.348.115l.348.115.337.12c.121.043.212.079.276.108s.151.072.263.132.244.135.4.228.293.175.4.245.2.124.258.165.161.116.3.223.306.247.513.421l.328.32.277.285c.085.09.163.175.233.253l.228.265c.083.1.169.208.258.328s.171.234.245.341.14.213.2.323.127.217.185.327.114.221.166.331.1.215.145.32.086.213.127.318.079.208.115.31.073.21.108.318.069.217.1.331l.085.3c.025.088.047.164.067.228s.039.137.06.217.049.165.076.261.05.184.075.267.048.158.07.228.055.154.095.251.092.206.15.33.116.23.168.32a1.864,1.864,0,0,0,.17.253,1.12,1.12,0,0,0,.16.175.5.5,0,0,0,.105.068.189.189,0,0,0,.067.009c.02,0,.044,0,.071,0,.067-.007.159-.021.278-.043a2.6,2.6,0,0,0,.3-.07.949.949,0,0,0,.23-.107,1.627,1.627,0,0,0,.248-.213,2.593,2.593,0,0,0,.22-.248,3.509,3.509,0,0,0,.2-.315c.082-.142.131-.226.146-.251a2.075,2.075,0,0,0,.1-.215c.052-.12.1-.235.133-.345s.078-.236.12-.378.076-.252.1-.331l.037-.135c0-.013.013-.06.035-.14s.041-.158.063-.235.043-.165.07-.265.052-.2.077-.293.046-.189.068-.28.043-.179.063-.266.039-.192.062-.315.048-.245.07-.371.037-.249.05-.377.028-.268.043-.416.025-.315.035-.5.011-.386,0-.618a5.924,5.924,0,0,0-.06-.643,7.025,7.025,0,0,0-.172-.741q-.126-.447-.213-.7c-.059-.163-.111-.3-.158-.415s-.109-.254-.193-.425-.163-.339-.245-.5l-.26-.393Z"/>
    </g>
    <g>
      <polygon points="26.075 24.871 26.655 22.912 33.28 22.331 33.285 24.871 26.075 24.871"/>
      <path d="M32.656,23.013l0,1.232H26.913l.221-.747,5.522-.485M33.9,21.647l-7.728.679-.939,3.17h8.675L33.9,21.647Z"/>
    </g>
    <g>
      <rect x="40.427" width="13.292" height="31.279" y="10.212"/>
      <path d="M53.093,10.838V40.866H41.052V10.838H53.093m1.251-1.252H39.8V42.117H54.344V9.586Z"/>
    </g>
  </g>
</svg>