<!-- Generator: Adobe Illustrator 25.2.3, SVG Export Plug-In . SVG Version: 6.00 Build 0)  --><svg x="0px" enable-background="new 0 0 60 60" y="0px" width="60px" xmlns:xlink="http://www.w3.org/1999/xlink" viewBox="0 0 60 60" height="60px" id="Layer_1" xmlns="http://www.w3.org/2000/svg" xml:space="preserve" version="1.1">
<rect width="60" fill="#FBF49C" x="0" height="60" id="UnitColor" y="-0.085"/>
<rect width="60" fill="#F7EC13" height="20.189" id="CS_2_" y="11.533" display="none"/>
<g id="Gar">
	<rect width="14.843" x="0.73" fill="none" height="8.039" y="2.802"/>
	<path d="M11.03,10.06c-0.472,0.163-1.361,0.379-2.249,0.379c-1.231,0-2.119-0.308-2.739-0.903C5.424,8.949,5.085,8.072,5.089,7.083   C5.097,4.842,6.73,3.567,8.936,3.567c0.87,0,1.539,0.165,1.873,0.323L10.49,5.111C10.117,4.95,9.664,4.825,8.922,4.825   c-1.27,0-2.235,0.714-2.235,2.18c0,1.391,0.878,2.205,2.125,2.205c0.344,0,0.623-0.04,0.745-0.095V7.699H8.516V6.512h2.514V10.06z"/>
</g>
<g id="Eng" display="none">
	<rect width="27.832" fill="none" x="1.1" height="8.039" y="2.802" display="inline"/>
	<path d="M17.011,7.521h-2.479v1.602h2.771v1.248h-4.294V3.634h4.15v1.248h-2.626v1.403h2.479V7.521z" display="inline"/>
</g>
<g id="P2" display="none">
	<path d="M19.024,28.186c0.472-1.148,0.803-2.149,0.992-3.001c0.282-1.24,0.423-2.417,0.423-3.534   c0-1.066-0.099-2.078-0.295-3.035c-0.197-0.957-0.575-2.146-1.135-3.568h1.146c0.628,1.03,1.101,2.092,1.419,3.186   c0.319,1.094,0.478,2.185,0.478,3.274c0,1.094-0.159,2.218-0.476,3.374s-0.786,2.257-1.407,3.305H19.024z" display="inline"/>
</g>
<g id="P1" display="none">
	<path d="M8.327,28.186H7.182c-0.605-1.025-1.071-2.111-1.396-3.257s-0.487-2.257-0.487-3.333   c0-1.162,0.163-2.296,0.489-3.401c0.326-1.105,0.795-2.154,1.408-3.148h1.146c-0.56,1.422-0.938,2.611-1.135,3.568   c-0.197,0.957-0.295,1.969-0.295,3.035c0,1.103,0.139,2.27,0.416,3.5C7.522,26.016,7.855,27.028,8.327,28.186z" display="inline"/>
</g>
<g id="Type">
	<path d="M53.265,12.893v17.022H26.785V12.893H53.265z M28.204,14.312v13.077l10.899-13.077H28.204z M29.127,28.497h21.795   l-3.793-4.552H32.921L29.127,28.497z M34.104,22.525h11.844l-5.922-7.106L34.104,22.525z M51.846,14.312H40.948l10.897,13.077   V14.312z"/>
</g>
<g id="STK">
	<path d="M13.307,17.911h-0.036l-2.139,1.074l-0.386-1.671l2.857-1.406h1.847v11.703h-2.144V17.911z"/>
</g>
<g id="ECH">
	<rect width="27.832" x="26.078" fill="none" height="8.039" y="2.802"/>
	<path d="M39.33,3.634v6.736h-1.523V3.634H39.33z"/>
	<path d="M42.18,3.634v6.736h-1.522V3.634H42.18z"/>
</g>
<g id="PF">
	<rect width="60" x="0" fill="none" height="15.475" y="44.525"/>
	<path d="M19.39,50.199h-1.188v-1.213h3.697v1.213h-1.196v5.523H19.39V50.199z"/>
	<path d="M25.579,53.261c0,2.037-1.127,2.542-1.867,2.542c-1.168,0-1.87-0.923-1.87-2.511c0-1.753,0.922-2.541,1.893-2.541   C24.887,50.751,25.579,51.721,25.579,53.261z M23.143,53.269c0,0.835,0.134,1.539,0.601,1.539c0.423,0,0.534-0.822,0.534-1.539   c0-0.677-0.11-1.523-0.554-1.523C23.245,51.745,23.143,52.592,23.143,53.269z"/>
	<path d="M26.278,55.723c0.018-0.432,0.04-0.984,0.04-1.444v-5.472h1.305v2.523h0.02c0.236-0.354,0.547-0.579,1.02-0.579   c0.947,0,1.384,1.076,1.384,2.392c0,1.714-0.679,2.66-1.594,2.66c-0.406,0-0.693-0.167-0.959-0.655h-0.024l-0.071,0.575H26.278z    M27.623,53.973c0,0.124,0.023,0.239,0.051,0.313c0.11,0.349,0.293,0.443,0.448,0.443c0.438,0,0.623-0.547,0.623-1.484   c0-0.845-0.194-1.39-0.627-1.39c-0.205,0-0.378,0.212-0.446,0.449c-0.026,0.081-0.049,0.215-0.049,0.303V53.973z"/>
	<path d="M30.788,52.303c0-0.486-0.022-1.015-0.04-1.472h1.135l0.067,0.716h0.036c0.214-0.521,0.61-0.796,0.968-0.796   c0.133,0,0.202,0.008,0.279,0.023v1.297c-0.083-0.016-0.168-0.016-0.284-0.016c-0.273,0-0.648,0.192-0.791,0.695   c-0.034,0.108-0.058,0.285-0.058,0.488v2.483h-1.312V52.303z"/>
	<path d="M37.303,54.229c0,0.524,0.021,1.036,0.04,1.493h-1.131l-0.071-0.516H36.12c-0.226,0.33-0.623,0.596-1.129,0.596   c-0.932,0-1.305-0.688-1.305-2.006v-2.966h1.312v2.821c0,0.64,0.128,1.056,0.489,1.056c0.222,0,0.365-0.17,0.427-0.335   c0.043-0.095,0.075-0.251,0.075-0.417v-3.125h1.312V54.229z"/>
	<path d="M39.542,52.974h0.021c0.09-0.281,0.164-0.483,0.246-0.68l0.631-1.463h1.416l-1.188,2.05l1.251,2.842h-1.46l-0.693-2.007   l-0.224,0.422v1.585h-1.305v-6.916h1.305V52.974z"/>
</g>
<g id="Des">
	<rect width="60" x="0" fill="none" height="14.525" y="31.722"/>
	<path d="M13.681,34.839h-2.176v-1.763h6.285v1.763h-2.187v10.373h-1.922V34.839z"/>
	<path d="M18.694,45.212c0.028-0.652,0.072-1.65,0.072-2.369V32.752h1.912v4.649h0.036c0.438-0.742,1.037-1.099,1.836-1.099   c1.552,0,2.446,1.765,2.446,4.353c0,3.115-1.258,4.701-2.77,4.701c-0.819,0-1.312-0.408-1.729-1.228h-0.051l-0.113,1.083H18.694z    M20.678,42.095c0,0.211,0.031,0.411,0.077,0.553c0.252,0.924,0.701,1.123,1.028,1.123c0.936,0,1.296-1.223,1.296-2.982   c0-1.624-0.378-2.858-1.311-2.858c-0.493,0-0.903,0.57-1.021,1.146c-0.039,0.164-0.069,0.394-0.069,0.568V42.095z"/>
	<path d="M26.417,38.916c0-0.812-0.044-1.725-0.072-2.47h1.681l0.098,1.322h0.056c0.339-0.889,1.065-1.466,1.781-1.466   c0.187,0,0.292,0.01,0.408,0.03v1.922c-0.118-0.021-0.244-0.021-0.411-0.021c-0.665,0-1.334,0.556-1.539,1.505   c-0.049,0.211-0.08,0.507-0.08,0.841v4.632h-1.922V38.916z"/>
	<path d="M33.242,40.391h0.036c0.162-0.437,0.304-0.784,0.455-1.115l1.402-2.829h2.076l-2.211,3.678l2.368,5.088h-2.143   l-1.539-3.838l-0.445,0.785v3.053H31.33v-12.46h1.912V40.391z"/>
	<path d="M38.464,33.076h1.922v10.507h3.242v1.629h-5.164V33.076z"/>
	<path d="M46.774,34.099v2.348h1.7v1.394h-1.7v4.546c0,1.073,0.417,1.346,0.898,1.346c0.227,0,0.406-0.018,0.594-0.054l0.039,1.496   c-0.291,0.09-0.712,0.146-1.256,0.146c-0.622,0-1.17-0.154-1.553-0.546c-0.423-0.432-0.645-1.066-0.645-2.369V37.84h-1.049v-1.394   h1.049v-1.857L46.774,34.099z"/>
</g>
<g>
</g>
<g>
</g>
<g>
</g>
<g>
</g>
<g>
</g>
<g>
</g>
</svg>