<!-- Generator: Adobe Illustrator 25.2.3, SVG Export Plug-In . SVG Version: 6.00 Build 0)  --><svg xmlns:svg="http://www.w3.org/2000/svg" id="Layer_1" sodipodi:docname="IT V - 31-Tbk.svg" enable-background="new 0 0 60 60" version="1.1" width="60px" xml:space="preserve" xmlns:sodipodi="http://sodipodi.sourceforge.net/DTD/sodipodi-0.dtd" xmlns:inkscape="http://www.inkscape.org/namespaces/inkscape" inkscape:version="1.1 (c68e22c387, 2021-05-23)" viewBox="0 0 60 60" height="60px" xmlns="http://www.w3.org/2000/svg" x="0px" y="0px"><defs id="defs70"/><sodipodi:namedview bordercolor="#666666" inkscape:window-height="1081" inkscape:pagecheckerboard="0" inkscape:zoom="14.55" id="namedview68" inkscape:current-layer="Layer_1" inkscape:window-y="78" inkscape:cy="30" inkscape:window-x="795" inkscape:cx="29.965636" showgrid="false" inkscape:pageopacity="0.0" inkscape:pageshadow="2" inkscape:window-width="1271" inkscape:window-maximized="0" borderopacity="1.0" pagecolor="#ffffff"/>
<rect fill="#FBF49C" x="0" width="60" y="-0.085" id="UnitColor" height="60"/>
<rect fill="#F7EC13" width="60" y="11.533" id="CS_2_" height="20.189" display="none"/>
<g id="Gar">
	<rect x="0.73" fill="none" width="14.843" id="rect4" y="2.802" height="8.039"/>
	<path id="path6" d="M11.03,10.06c-0.472,0.163-1.361,0.379-2.249,0.379c-1.231,0-2.119-0.308-2.739-0.903C5.424,8.949,5.085,8.072,5.089,7.083   C5.097,4.842,6.73,3.567,8.936,3.567c0.87,0,1.539,0.165,1.873,0.323L10.49,5.111C10.117,4.95,9.664,4.825,8.922,4.825   c-1.27,0-2.235,0.714-2.235,2.18c0,1.391,0.878,2.205,2.125,2.205c0.344,0,0.623-0.04,0.745-0.095V7.699H8.516V6.512h2.514V10.06z"/>
</g>
<g id="Eng" display="none">
	<rect x="1.1" y="2.802" display="inline" fill="none" width="27.832" id="rect9" height="8.039"/>
	<path id="path11" d="M17.011,7.521h-2.479v1.602h2.771v1.248h-4.294V3.634h4.15v1.248h-2.626v1.403h2.479V7.521z" display="inline"/>
</g>
<g id="P2" display="none">
	<path id="path14" d="M19.024,28.186c0.472-1.148,0.803-2.149,0.992-3.001c0.282-1.24,0.423-2.417,0.423-3.534   c0-1.066-0.099-2.078-0.295-3.035c-0.197-0.957-0.575-2.146-1.135-3.568h1.146c0.628,1.03,1.101,2.092,1.419,3.186   c0.319,1.094,0.478,2.185,0.478,3.274c0,1.094-0.159,2.218-0.476,3.374s-0.786,2.257-1.407,3.305H19.024z" display="inline"/>
</g>
<g id="P1" display="none">
	<path id="path17" d="M8.327,28.186H7.182c-0.605-1.025-1.071-2.111-1.396-3.257s-0.487-2.257-0.487-3.333   c0-1.162,0.163-2.296,0.489-3.401c0.326-1.105,0.795-2.154,1.408-3.148h1.146c-0.56,1.422-0.938,2.611-1.135,3.568   c-0.197,0.957-0.295,1.969-0.295,3.035c0,1.103,0.139,2.27,0.416,3.5C7.522,26.016,7.855,27.028,8.327,28.186z" display="inline"/>
</g>
<g id="Type-7"><path id="path20-8" d="M 53.265,12.893 V 29.915 H 26.785 V 12.893 Z m -1.419,1.419 H 28.204 V 28.497 H 51.846 Z M 37.26,21.404 c 0,-1.436 1.238,-2.601 2.766,-2.601 1.528,0 2.765,1.165 2.765,2.601 0,1.437 -1.237,2.601 -2.765,2.601 -1.528,0 -2.766,-1.165 -2.766,-2.601 z"/></g>
<g id="STK">
	<path id="path23" d="M13.307,17.911h-0.036l-2.139,1.074l-0.386-1.671l2.857-1.406h1.847v11.703h-2.144V17.911z"/>
</g>
<g id="ECH">
	<rect x="26.078" fill="none" width="27.832" id="rect26" y="2.802" height="8.039"/>
	<path id="path28" d="M37.905,3.634v6.736h-1.523V3.634H37.905z"/>
	<path id="path30" d="M40.756,3.634v6.736h-1.523V3.634H40.756z"/>
	<path id="path32" d="M43.605,3.634v6.736h-1.522V3.634H43.605z"/>
</g>
<g id="PF">
	<rect x="0" fill="none" width="60" id="rect35" y="44.525" height="15.475"/>
	<path id="path37" d="M19.39,50.199h-1.188v-1.213h3.697v1.213h-1.196v5.523H19.39V50.199z"/>
	<path id="path39" d="M25.579,53.261c0,2.037-1.127,2.542-1.867,2.542c-1.168,0-1.87-0.923-1.87-2.511c0-1.753,0.922-2.541,1.893-2.541   C24.887,50.751,25.579,51.721,25.579,53.261z M23.143,53.269c0,0.835,0.134,1.539,0.601,1.539c0.423,0,0.534-0.822,0.534-1.539   c0-0.677-0.11-1.523-0.554-1.523C23.245,51.745,23.143,52.592,23.143,53.269z"/>
	<path id="path41" d="M26.278,55.723c0.018-0.432,0.04-0.984,0.04-1.444v-5.472h1.305v2.523h0.02c0.236-0.354,0.547-0.579,1.02-0.579   c0.947,0,1.384,1.076,1.384,2.392c0,1.714-0.679,2.66-1.594,2.66c-0.406,0-0.693-0.167-0.959-0.655h-0.024l-0.071,0.575H26.278z    M27.623,53.973c0,0.124,0.023,0.239,0.051,0.313c0.11,0.349,0.293,0.443,0.448,0.443c0.438,0,0.623-0.547,0.623-1.484   c0-0.845-0.194-1.39-0.627-1.39c-0.205,0-0.378,0.212-0.446,0.449c-0.026,0.081-0.049,0.215-0.049,0.303V53.973z"/>
	<path id="path43" d="M30.788,52.303c0-0.486-0.022-1.015-0.04-1.472h1.135l0.067,0.716h0.036c0.214-0.521,0.61-0.796,0.968-0.796   c0.133,0,0.202,0.008,0.279,0.023v1.297c-0.083-0.016-0.168-0.016-0.284-0.016c-0.273,0-0.648,0.192-0.791,0.695   c-0.034,0.108-0.058,0.285-0.058,0.488v2.483h-1.312V52.303z"/>
	<path id="path45" d="M37.303,54.229c0,0.524,0.021,1.036,0.04,1.493h-1.131l-0.071-0.516H36.12c-0.226,0.33-0.623,0.596-1.129,0.596   c-0.932,0-1.305-0.688-1.305-2.006v-2.966h1.312v2.821c0,0.64,0.128,1.056,0.489,1.056c0.222,0,0.365-0.17,0.427-0.335   c0.043-0.095,0.075-0.251,0.075-0.417v-3.125h1.312V54.229z"/>
	<path id="path47" d="M39.542,52.974h0.021c0.09-0.281,0.164-0.483,0.246-0.68l0.631-1.463h1.416l-1.188,2.05l1.251,2.842h-1.46l-0.693-2.007   l-0.224,0.422v1.585h-1.305v-6.916h1.305V52.974z"/>
</g>
<g id="Des">
	<rect x="0" fill="none" width="60" id="rect50" y="31.722" height="14.525"/>
	<path id="path52" d="M28.938,45.212l-2.737-12.136h2.104l1.007,5.445c0.242,1.332,0.541,2.934,0.724,4.411h0.052   c0.167-1.495,0.428-3.056,0.678-4.458l0.979-5.398h2.086l-2.794,12.136H28.938z"/>
</g>
<g id="g55">
</g>
<g id="g57">
</g>
<g id="g59">
</g>
<g id="g61">
</g>
<g id="g63">
</g>
<g id="g65">
</g>
</svg>