<!-- Generator: Adobe Illustrator 25.2.3, SVG Export Plug-In . SVG Version: 6.00 Build 0)  --><svg x="0px" enable-background="new 0 0 60 60" y="0px" width="60px" xmlns:xlink="http://www.w3.org/1999/xlink" viewBox="0 0 60 60" height="60px" id="Layer_1" xmlns="http://www.w3.org/2000/svg" xml:space="preserve" version="1.1">
<rect width="60" fill="#FBF49C" x="0" height="60" id="UnitColor" y="-0.085"/>
<rect width="60" fill="#F7EC13" height="20.189" id="CS_2_" y="11.533" display="none"/>
<g id="Gar" display="none">
	<rect width="14.843" fill="none" x="0.73" height="8.039" y="2.802" display="inline"/>
	<path d="M11.03,10.06c-0.472,0.163-1.361,0.379-2.249,0.379c-1.231,0-2.119-0.308-2.739-0.903   C5.424,8.949,5.085,8.072,5.089,7.083C5.097,4.842,6.73,3.567,8.936,3.567c0.87,0,1.539,0.165,1.873,0.323L10.49,5.111   C10.117,4.95,9.664,4.825,8.922,4.825c-1.27,0-2.235,0.714-2.235,2.18c0,1.391,0.878,2.205,2.125,2.205   c0.344,0,0.623-0.04,0.745-0.095V7.699H8.516V6.512h2.514V10.06z" display="inline"/>
</g>
<g id="Eng" display="none">
	<rect width="27.832" fill="none" x="1.1" height="8.039" y="2.802" display="inline"/>
	<path d="M17.011,7.521h-2.479v1.602h2.771v1.248h-4.294V3.634h4.15v1.248h-2.626v1.403h2.479V7.521z" display="inline"/>
</g>
<g id="P2" display="none">
	<path d="M19.024,28.186c0.472-1.148,0.803-2.149,0.992-3.001c0.282-1.24,0.423-2.417,0.423-3.534   c0-1.066-0.099-2.078-0.295-3.035c-0.197-0.957-0.575-2.146-1.135-3.568h1.146c0.628,1.03,1.101,2.092,1.419,3.186   c0.319,1.094,0.478,2.185,0.478,3.274c0,1.094-0.159,2.218-0.476,3.374s-0.786,2.257-1.407,3.305H19.024z" display="inline"/>
</g>
<g id="P1" display="none">
	<path d="M8.327,28.186H7.182c-0.605-1.025-1.071-2.111-1.396-3.257s-0.487-2.257-0.487-3.333   c0-1.162,0.163-2.296,0.489-3.401c0.326-1.105,0.795-2.154,1.408-3.148h1.146c-0.56,1.422-0.938,2.611-1.135,3.568   c-0.197,0.957-0.295,1.969-0.295,3.035c0,1.103,0.139,2.27,0.416,3.5C7.522,26.016,7.855,27.028,8.327,28.186z" display="inline"/>
</g>
<g id="Type">
	<path d="M53.265,12.893v17.022H26.785V12.893H53.265z M37.969,21.737v-0.739l-9.765-5.859v12.53l9.887-5.932H37.969z    M50.468,14.312H29.583l9.574,5.744v-1.456h-1.186l2.054-3.272l2.054,3.272h-1.185v1.456L50.468,14.312z M37.97,24.541v-1.076   l-8.387,5.032h20.885l-8.387-5.032v1.076h-1.188v2.938h-1.737v-2.938H37.97z M39.156,22.752l-1.01,0.606h1.01V22.752z    M40.894,23.359h1.011l-1.011-0.606V23.359z M51.846,27.669v-12.53l-9.766,5.859v0.739h-0.121L51.846,27.669z"/>
</g>
<g id="STK">
	<path d="M13.307,17.911h-0.036l-2.139,1.074l-0.386-1.671l2.857-1.406h1.847v11.703h-2.144V17.911z"/>
</g>
<g id="ECH">
	<rect width="27.832" x="26.078" fill="none" height="8.039" y="2.802"/>
	<path d="M39.33,3.634v6.736h-1.523V3.634H39.33z"/>
	<path d="M42.18,3.634v6.736h-1.522V3.634H42.18z"/>
</g>
<g id="PF">
	<rect width="60" x="0" fill="none" height="15.475" y="44.525"/>
	<path d="M29.696,52.494v0.939H27.71v-0.939H29.696z"/>
	<path d="M32.285,52.494v0.939H30.3v-0.939H32.285z"/>
</g>
<g id="Des">
	<rect width="60" x="0" fill="none" height="14.525" y="31.722"/>
	<path d="M15.06,45.212l-2.737-12.136h2.104l1.007,5.445c0.242,1.332,0.541,2.934,0.724,4.411h0.052   c0.167-1.495,0.428-3.056,0.678-4.458l0.979-5.398h2.085l-2.793,12.136H15.06z"/>
	<path d="M23.051,33.076v12.136h-1.922V33.076H23.051z"/>
	<path d="M29.747,42.049l-0.655,3.163h-1.863l2.699-12.136h2.244l2.51,12.136h-1.878l-0.645-3.163H29.747z M31.958,40.543   l-0.508-2.786c-0.144-0.793-0.306-1.913-0.438-2.763h-0.051c-0.134,0.857-0.314,2.014-0.461,2.771l-0.531,2.778H31.958z"/>
	<path d="M41.726,40.809c0,3.535-1.821,4.548-3.154,4.548c-1.859,0-3.128-1.556-3.128-4.507c0-3.166,1.556-4.547,3.192-4.547   C40.476,36.303,41.726,37.919,41.726,40.809z M37.36,40.819c0,1.476,0.25,3.053,1.272,3.053c0.957,0,1.176-1.73,1.176-3.053   c0-1.271-0.219-3.033-1.211-3.033C37.569,37.786,37.36,39.548,37.36,40.819z"/>
	<path d="M43.016,43.396c0.329,0.208,0.931,0.461,1.512,0.461c0.686,0,1.105-0.366,1.105-1.003c0-0.549-0.255-0.91-1.068-1.423   c-1.303-0.776-1.777-1.619-1.777-2.51c0-1.51,1.101-2.619,2.681-2.619c0.71,0,1.26,0.2,1.682,0.427l-0.394,1.419   c-0.334-0.211-0.728-0.373-1.198-0.373c-0.664,0-0.991,0.44-0.991,0.912c0,0.478,0.213,0.75,1.055,1.286   c1.166,0.696,1.787,1.56,1.787,2.654c0,1.782-1.247,2.692-2.896,2.692c-0.688,0-1.485-0.198-1.876-0.505L43.016,43.396z"/>
</g>
<g>
</g>
<g>
</g>
<g>
</g>
<g>
</g>
<g>
</g>
<g>
</g>
</svg>