<!-- Generator: Adobe Illustrator 25.2.3, SVG Export Plug-In . SVG Version: 6.00 Build 0)  --><svg x="0px" enable-background="new 0 0 60 60" y="0px" width="60px" xmlns:xlink="http://www.w3.org/1999/xlink" viewBox="0 0 60 60" height="60px" id="Layer_1" xmlns="http://www.w3.org/2000/svg" xml:space="preserve" version="1.1">
<rect width="60" fill="#FBF49C" x="0" height="60" id="UnitColor" y="-0.085"/>
<rect width="60" fill="#F7EC13" height="20.189" id="CS_2_" y="11.533" display="none"/>
<g id="Gar">
	<rect width="14.843" x="0.73" fill="none" height="8.039" y="2.802"/>
	<path d="M11.03,10.06c-0.472,0.163-1.361,0.379-2.249,0.379c-1.231,0-2.119-0.308-2.739-0.903C5.424,8.949,5.085,8.072,5.089,7.083   C5.097,4.842,6.73,3.567,8.936,3.567c0.87,0,1.539,0.165,1.873,0.323L10.49,5.111C10.117,4.95,9.664,4.825,8.922,4.825   c-1.27,0-2.235,0.714-2.235,2.18c0,1.391,0.878,2.205,2.125,2.205c0.344,0,0.623-0.04,0.745-0.095V7.699H8.516V6.512h2.514V10.06z"/>
</g>
<g id="Eng" display="none">
	<rect width="27.832" fill="none" x="1.1" height="8.039" y="2.802" display="inline"/>
	<path d="M17.011,7.521h-2.479v1.602h2.771v1.248h-4.294V3.634h4.15v1.248h-2.626v1.403h2.479V7.521z" display="inline"/>
</g>
<g id="P2" display="none">
	<path d="M19.024,28.186c0.472-1.148,0.803-2.149,0.992-3.001c0.282-1.24,0.423-2.417,0.423-3.534   c0-1.066-0.099-2.078-0.295-3.035c-0.197-0.957-0.575-2.146-1.135-3.568h1.146c0.628,1.03,1.101,2.092,1.419,3.186   c0.319,1.094,0.478,2.185,0.478,3.274c0,1.094-0.159,2.218-0.476,3.374s-0.786,2.257-1.407,3.305H19.024z" display="inline"/>
</g>
<g id="P1" display="none">
	<path d="M8.327,28.186H7.182c-0.605-1.025-1.071-2.111-1.396-3.257s-0.487-2.257-0.487-3.333   c0-1.162,0.163-2.296,0.489-3.401c0.326-1.105,0.795-2.154,1.408-3.148h1.146c-0.56,1.422-0.938,2.611-1.135,3.568   c-0.197,0.957-0.295,1.969-0.295,3.035c0,1.103,0.139,2.27,0.416,3.5C7.522,26.016,7.855,27.028,8.327,28.186z" display="inline"/>
</g>
<g id="Type">
	<path d="M53.265,12.893v17.022H26.785V12.893H53.265z M28.204,14.312v6.014l9.836-6.014H28.204z M28.204,28.497h10.09l-10.09-6.034   V28.497z M50.968,21.401l-10.942-6.691l-10.944,6.692l10.944,6.545L50.968,21.401z M37.26,21.404c0-1.436,1.238-2.601,2.766-2.601   s2.765,1.165,2.765,2.601c0,1.437-1.237,2.601-2.765,2.601S37.26,22.84,37.26,21.404z M51.846,28.497v-6.034l-10.089,6.034H51.846z    M51.846,14.312H42.01l9.836,6.014V14.312z"/>
</g>
<g id="STK">
	<path d="M18.101,21.68c0,3.77-1.473,6.13-4.277,6.13c-2.693,0-4.128-2.456-4.151-6.017c0-3.641,1.549-6.083,4.283-6.083   C16.786,15.71,18.101,18.237,18.101,21.68z M11.897,21.789c-0.006,2.854,0.775,4.33,1.998,4.33c1.313,0,1.982-1.585,1.982-4.389   c0-2.727-0.641-4.323-1.98-4.323C12.723,17.407,11.894,18.863,11.897,21.789z"/>
</g>
<g id="ECH">
	<rect width="27.832" x="26.078" fill="none" height="8.039" y="2.802"/>
	<path d="M37.905,3.634v6.736h-1.523V3.634H37.905z"/>
	<path d="M40.756,3.634v6.736h-1.523V3.634H40.756z"/>
	<path d="M43.605,3.634v6.736h-1.522V3.634H43.605z"/>
</g>
<g id="PF">
	<rect width="60" x="0" fill="none" height="15.475" y="44.525"/>
	<path d="M19.135,49.086c0.396-0.088,0.922-0.13,1.491-0.13c0.624,0,1.241,0.081,1.704,0.476c0.36,0.306,0.51,0.756,0.51,1.228   c0,0.598-0.31,1.175-0.975,1.47v0.036c0.78,0.224,1.193,0.867,1.193,1.607c0,0.558-0.18,0.994-0.494,1.324   c-0.401,0.438-1.085,0.68-2.213,0.68c-0.498,0-0.917-0.03-1.216-0.076V49.086z M20.44,51.755h0.282   c0.475,0,0.833-0.397,0.833-0.945c0-0.494-0.233-0.877-0.767-0.877c-0.145,0-0.263,0.013-0.348,0.043V51.755z M20.44,54.744   c0.084,0.02,0.179,0.023,0.292,0.023c0.534,0,0.969-0.328,0.969-1.011c0-0.678-0.46-1.027-0.979-1.029H20.44V54.744z"/>
	<path d="M26.057,55.723l-0.071-0.482h-0.022c-0.267,0.378-0.647,0.562-1.081,0.562c-0.739,0-1.288-0.618-1.288-1.485   c0-1.285,1.13-1.809,2.235-1.819V52.39c0-0.387-0.225-0.668-0.688-0.668c-0.39,0-0.703,0.105-0.995,0.285l-0.238-0.882   c0.271-0.155,0.837-0.374,1.52-0.374c1.485,0,1.729,1.042,1.729,2.033v1.819c0,0.39,0.016,0.788,0.072,1.119H26.057z    M25.869,53.341c-0.433,0.008-1.037,0.156-1.037,0.837c0,0.482,0.271,0.662,0.473,0.662c0.213,0,0.446-0.125,0.536-0.421   c0.02-0.062,0.028-0.142,0.028-0.224V53.341z"/>
	<path d="M28.079,52.303c0-0.486-0.022-1.015-0.04-1.472h1.135l0.067,0.716h0.036c0.215-0.521,0.611-0.796,0.969-0.796   c0.132,0,0.202,0.008,0.279,0.023v1.297c-0.083-0.016-0.168-0.016-0.285-0.016c-0.273,0-0.648,0.192-0.791,0.695   c-0.034,0.108-0.057,0.285-0.057,0.488v2.483h-1.312V52.303z"/>
	<path d="M34.532,48.807v5.472c0,0.46,0.022,0.996,0.04,1.444h-1.127l-0.071-0.553H33.35c-0.179,0.348-0.569,0.633-1.017,0.633   c-1.043,0-1.521-1.153-1.521-2.514c0-1.703,0.747-2.538,1.571-2.538c0.436,0,0.697,0.217,0.825,0.493h0.02v-2.438H34.532z    M33.228,52.711c0-0.087,0-0.19-0.018-0.285c-0.048-0.299-0.201-0.57-0.468-0.57c-0.458,0-0.629,0.667-0.629,1.461   c0,0.93,0.254,1.413,0.616,1.413c0.17,0,0.353-0.087,0.454-0.424c0.028-0.076,0.044-0.18,0.044-0.306V52.711z"/>
	<path d="M36.764,49.538c0.008,0.419-0.291,0.709-0.687,0.709c-0.361,0-0.656-0.29-0.648-0.709c-0.008-0.44,0.303-0.717,0.666-0.717   C36.473,48.821,36.764,49.098,36.764,49.538z M35.452,55.723v-4.892h1.312v4.892H35.452z"/>
	<path d="M39.878,55.723l-0.072-0.482h-0.021c-0.267,0.378-0.647,0.562-1.081,0.562c-0.739,0-1.288-0.618-1.288-1.485   c0-1.285,1.13-1.809,2.234-1.819V52.39c0-0.387-0.224-0.668-0.688-0.668c-0.39,0-0.702,0.105-0.995,0.285l-0.237-0.882   c0.27-0.155,0.837-0.374,1.52-0.374c1.485,0,1.729,1.042,1.729,2.033v1.819c0,0.39,0.016,0.788,0.071,1.119H39.878z M39.689,53.341   c-0.433,0.008-1.036,0.156-1.036,0.837c0,0.482,0.271,0.662,0.473,0.662c0.212,0,0.445-0.125,0.535-0.421   c0.021-0.062,0.028-0.142,0.028-0.224V53.341z"/>
</g>
<g id="Des">
	<rect width="60" x="0" fill="none" height="14.525" y="31.722"/>
	<path d="M19.821,45.212l-2.737-12.136h2.104l1.007,5.445c0.242,1.332,0.541,2.934,0.724,4.411h0.052   c0.167-1.495,0.428-3.056,0.678-4.458l0.979-5.398h2.085l-2.793,12.136H19.821z"/>
	<path d="M34.308,45.019c-0.354,0.176-0.992,0.302-1.784,0.302c-2.77,0-4.35-2.261-4.35-6.009c0-4.67,2.463-6.344,4.622-6.344   c0.789,0,1.345,0.157,1.586,0.309l-0.354,1.627c-0.285-0.134-0.584-0.249-1.152-0.249c-1.322,0-2.672,1.209-2.672,4.523   c0,3.268,1.224,4.436,2.682,4.436c0.451,0,0.909-0.103,1.197-0.214L34.308,45.019z"/>
	<path d="M35.664,33.257c0.558-0.149,1.328-0.234,2.155-0.234c1.413,0,2.408,0.339,3.136,1.005c0.995,0.882,1.603,2.471,1.603,4.902   c0,2.603-0.651,4.237-1.581,5.134c-0.808,0.832-1.99,1.233-3.545,1.233c-0.665,0-1.336-0.06-1.768-0.129V33.257z M37.575,43.675   c0.16,0.036,0.346,0.036,0.472,0.036c1.313,0,2.522-1.108,2.522-4.807c0-2.747-0.778-4.335-2.442-4.335   c-0.19,0-0.387,0.016-0.552,0.062V43.675z"/>
</g>
<g>
</g>
<g>
</g>
<g>
</g>
<g>
</g>
<g>
</g>
<g>
</g>
</svg>