<!-- Generator: Adobe Illustrator 25.2.3, SVG Export Plug-In . SVG Version: 6.00 Build 0)  --><svg x="0px" enable-background="new 0 0 60 60" y="0px" width="60px" xmlns:xlink="http://www.w3.org/1999/xlink" viewBox="0 0 60 60" height="60px" id="Layer_1" xmlns="http://www.w3.org/2000/svg" xml:space="preserve" version="1.1">
<rect width="60" fill="#FBF49C" x="0" height="60" id="UnitColor" y="-0.085"/>
<rect width="60" fill="#F7EC13" height="20.189" id="CS_2_" y="11.533" display="none"/>
<g id="Gar" display="none">
	<rect width="14.843" fill="none" x="0.73" height="8.039" y="2.802" display="inline"/>
	<path d="M11.03,10.06c-0.472,0.163-1.361,0.379-2.249,0.379c-1.231,0-2.119-0.308-2.739-0.903   C5.424,8.949,5.085,8.072,5.089,7.083C5.097,4.842,6.73,3.567,8.936,3.567c0.87,0,1.539,0.165,1.873,0.323L10.49,5.111   C10.117,4.95,9.664,4.825,8.922,4.825c-1.27,0-2.235,0.714-2.235,2.18c0,1.391,0.878,2.205,2.125,2.205   c0.344,0,0.623-0.04,0.745-0.095V7.699H8.516V6.512h2.514V10.06z" display="inline"/>
</g>
<g id="Eng" display="none">
	<rect width="27.832" fill="none" x="1.1" height="8.039" y="2.802" display="inline"/>
	<path d="M17.011,7.521h-2.479v1.602h2.771v1.248h-4.294V3.634h4.15v1.248h-2.626v1.403h2.479V7.521z" display="inline"/>
</g>
<g id="P2" display="none">
	<path d="M19.024,28.186c0.472-1.148,0.803-2.149,0.992-3.001c0.282-1.24,0.423-2.417,0.423-3.534   c0-1.066-0.099-2.078-0.295-3.035c-0.197-0.957-0.575-2.146-1.135-3.568h1.146c0.628,1.03,1.101,2.092,1.419,3.186   c0.319,1.094,0.478,2.185,0.478,3.274c0,1.094-0.159,2.218-0.476,3.374s-0.786,2.257-1.407,3.305H19.024z" display="inline"/>
</g>
<g id="P1" display="none">
	<path d="M8.327,28.186H7.182c-0.605-1.025-1.071-2.111-1.396-3.257s-0.487-2.257-0.487-3.333   c0-1.162,0.163-2.296,0.489-3.401c0.326-1.105,0.795-2.154,1.408-3.148h1.146c-0.56,1.422-0.938,2.611-1.135,3.568   c-0.197,0.957-0.295,1.969-0.295,3.035c0,1.103,0.139,2.27,0.416,3.5C7.522,26.016,7.855,27.028,8.327,28.186z" display="inline"/>
</g>
<g id="Type">
	<path d="M53.265,12.893v17.022H26.785V12.893H53.265z M51.846,14.312H28.204v14.185h23.642V14.312z M31.115,24.371   c-0.792-0.819-1.217-1.895-1.198-3.033c0.038-2.312,1.878-4.152,4.19-4.189c0.003,0,0.005,0.002,0.007,0.002v-0.002h11.814   c0.006,0,0.012-0.004,0.019-0.004c2.349,0.039,4.228,1.98,4.19,4.329c-0.038,2.311-1.88,4.151-4.189,4.189   c-0.005,0-0.009,0-0.013,0v0.004H34.118c-0.001,0-0.003,0-0.004,0s-0.004,0-0.007,0C32.97,25.647,31.907,25.188,31.115,24.371z    M31.336,21.361c-0.012,0.758,0.271,1.477,0.8,2.022c0.527,0.545,1.235,0.852,1.994,0.864h11.776c0.006,0,0.012-0.004,0.017-0.004   c1.543-0.025,2.771-1.253,2.795-2.794c0.025-1.562-1.222-2.854-2.782-2.885v0.003H34.13C32.589,18.592,31.361,19.819,31.336,21.361   z"/>
</g>
<g id="STK">
	<path d="M13.307,17.911h-0.036l-2.139,1.074l-0.386-1.671l2.857-1.406h1.847v11.703h-2.144V17.911z"/>
</g>
<g id="ECH">
	<rect width="27.832" x="26.078" fill="none" height="8.039" y="2.802"/>
	<path d="M39.33,3.634v6.736h-1.523V3.634H39.33z"/>
	<path d="M42.18,3.634v6.736h-1.522V3.634H42.18z"/>
</g>
<g id="PF">
	<rect width="60" x="0" fill="none" height="15.475" y="44.525"/>
	<path d="M14.024,50.459h-0.02l-1.101,0.565l-0.221-1.026l1.489-0.771h1.147v6.496h-1.295V50.459z"/>
	<path d="M16.923,54.48c0.257,0.149,0.626,0.257,0.967,0.257c0.637,0,0.989-0.398,0.989-0.941c0-0.725-0.559-1.027-1.22-1.035h-0.18   v-0.957h0.128c0.481-0.008,1.093-0.211,1.093-0.837c0-0.47-0.293-0.747-0.754-0.747c-0.292,0-0.58,0.104-0.817,0.253l-0.175-0.984   c0.267-0.176,0.796-0.342,1.335-0.342c1.142,0,1.719,0.735,1.719,1.567c0,0.649-0.361,1.187-0.935,1.456v0.021   c0.629,0.217,1.112,0.777,1.112,1.652c0,0.995-0.758,1.96-2.173,1.96c-0.525,0-0.991-0.128-1.272-0.286L16.923,54.48z"/>
	<path d="M20.999,55.723V54.84l0.646-0.825c0.842-1.071,1.529-1.963,1.529-2.89c0-0.523-0.291-0.888-0.83-0.888   c-0.408,0-0.737,0.18-0.975,0.325l-0.23-1.012c0.298-0.195,0.853-0.404,1.443-0.404c1.421,0,1.883,0.951,1.883,1.882   c0,1.22-0.765,2.192-1.509,3.062l-0.389,0.459v0.02h1.985v1.154H20.999z"/>
	<path d="M28.25,54.185l-0.295,1.538h-1.271l1.463-6.736h1.568l1.31,6.736H29.75l-0.288-1.538H28.25z M29.346,53.168l-0.225-1.41   c-0.065-0.409-0.155-1.086-0.221-1.531h-0.024c-0.072,0.447-0.172,1.144-0.242,1.533l-0.247,1.408H29.346z"/>
	<path d="M31.628,52.303c0-0.486-0.021-1.015-0.039-1.472h1.135l0.067,0.716h0.035c0.215-0.521,0.61-0.796,0.969-0.796   c0.133,0,0.202,0.008,0.279,0.023v1.297c-0.083-0.016-0.169-0.016-0.285-0.016c-0.272,0-0.648,0.192-0.791,0.695   c-0.033,0.108-0.058,0.285-0.058,0.488v2.483h-1.312V52.303z"/>
	<path d="M35.872,49.538c0.008,0.419-0.291,0.709-0.687,0.709c-0.361,0-0.656-0.29-0.648-0.709c-0.008-0.44,0.303-0.717,0.666-0.717   C35.581,48.821,35.872,49.098,35.872,49.538z M34.561,55.723v-4.892h1.312v4.892H34.561z"/>
	<path d="M37.888,53.743c0.017,0.763,0.457,1.045,1.036,1.045c0.373,0,0.694-0.08,0.933-0.166l0.171,0.937   c-0.332,0.136-0.848,0.224-1.341,0.224c-1.333,0-2.065-0.879-2.065-2.407c0-1.645,0.856-2.624,1.957-2.624   c1.052,0,1.666,0.83,1.666,2.311c0,0.35-0.016,0.542-0.039,0.682H37.888z M39.052,52.826c0.004-0.628-0.162-1.12-0.552-1.12   c-0.426,0-0.6,0.626-0.609,1.12H39.052z"/>
	<path d="M42.526,49.514v1.317h0.957v0.929h-0.957v2.236c0,0.566,0.235,0.707,0.494,0.707c0.127,0,0.228-0.01,0.345-0.029   l0.011,1.023c-0.181,0.05-0.459,0.085-0.801,0.085c-0.378,0-0.71-0.088-0.946-0.311c-0.269-0.256-0.415-0.632-0.415-1.399V51.76   h-0.576v-0.929h0.576v-1.005L42.526,49.514z"/>
	<path d="M45.127,53.743c0.017,0.763,0.457,1.045,1.036,1.045c0.373,0,0.694-0.08,0.933-0.166l0.171,0.937   c-0.332,0.136-0.848,0.224-1.341,0.224c-1.333,0-2.065-0.879-2.065-2.407c0-1.645,0.856-2.624,1.957-2.624   c1.052,0,1.666,0.83,1.666,2.311c0,0.35-0.016,0.542-0.039,0.682H45.127z M46.291,52.826c0.004-0.628-0.162-1.12-0.552-1.12   c-0.426,0-0.6,0.626-0.609,1.12H46.291z"/>
</g>
<g id="Des">
	<rect width="60" x="0" fill="none" height="14.525" y="31.722"/>
	<path d="M14.682,45.212l-2.737-12.136h2.104l1.007,5.445c0.242,1.332,0.541,2.934,0.724,4.411h0.052   c0.167-1.495,0.428-3.056,0.678-4.458l0.979-5.398h2.085L16.78,45.212H14.682z"/>
	<path d="M22.673,33.076v12.136h-1.922V33.076H22.673z"/>
	<path d="M26.741,33.076v12.136h-1.922V33.076H26.741z"/>
	<path d="M32.06,32.752c-1.039,1.623-1.896,4.006-1.896,7.331c0,3.246,0.856,5.626,1.896,7.289H30.64   c-0.982-1.357-2.032-3.804-2.032-7.3c0.051-3.523,1.049-5.959,2.032-7.32H32.06z"/>
	<path d="M40.871,40.525c-0.069-1.359-0.149-3.013-0.115-4.353h-0.06c-0.236,1.325-0.561,2.799-0.854,3.956l-1.253,4.939h-1.318   l-1.192-4.8c-0.31-1.235-0.646-2.74-0.855-4.096h-0.052c-0.015,1.371-0.097,2.978-0.167,4.415l-0.213,4.624h-1.676l0.804-12.136   h2.048l1.17,4.913c0.368,1.567,0.675,2.84,0.911,4.216h0.044c0.209-1.363,0.479-2.636,0.829-4.216l1.146-4.913h2.068l0.718,12.136   h-1.745L40.871,40.525z"/>
	<path d="M43.956,47.372c1.039-1.643,1.896-4.074,1.896-7.341c0-3.253-0.856-5.636-1.896-7.279h1.419   c0.982,1.33,2.032,3.725,2.032,7.29c-0.052,3.558-1.05,5.941-2.032,7.33H43.956z"/>
</g>
<g>
</g>
<g>
</g>
<g>
</g>
<g>
</g>
<g>
</g>
<g>
</g>
</svg>