<!-- Generator: Adobe Illustrator 25.2.3, SVG Export Plug-In . SVG Version: 6.00 Build 0)  --><svg x="0px" enable-background="new 0 0 60 60" y="0px" width="60px" xmlns:xlink="http://www.w3.org/1999/xlink" viewBox="0 0 60 60" height="60px" id="Layer_1" xmlns="http://www.w3.org/2000/svg" xml:space="preserve" version="1.1">
<rect width="60" fill="#FBF49C" x="0" height="60" id="UnitColor" y="-0.085"/>
<rect width="60" fill="#F7EC13" height="20.189" id="CS_2_" y="11.533" display="none"/>
<g id="Gar">
	<rect width="14.843" x="0.73" fill="none" height="8.039" y="2.802"/>
	<path d="M11.03,10.06c-0.472,0.163-1.361,0.379-2.249,0.379c-1.231,0-2.119-0.308-2.739-0.903C5.424,8.949,5.085,8.072,5.089,7.083   C5.097,4.842,6.73,3.567,8.936,3.567c0.87,0,1.539,0.165,1.873,0.323L10.49,5.111C10.117,4.95,9.664,4.825,8.922,4.825   c-1.27,0-2.235,0.714-2.235,2.18c0,1.391,0.878,2.205,2.125,2.205c0.344,0,0.623-0.04,0.745-0.095V7.699H8.516V6.512h2.514V10.06z"/>
</g>
<g id="Eng" display="none">
	<rect width="27.832" fill="none" x="1.1" height="8.039" y="2.802" display="inline"/>
	<path d="M17.011,7.521h-2.479v1.602h2.771v1.248h-4.294V3.634h4.15v1.248h-2.626v1.403h2.479V7.521z" display="inline"/>
</g>
<g id="P2" display="none">
	<path d="M19.024,28.186c0.472-1.148,0.803-2.149,0.992-3.001c0.282-1.24,0.423-2.417,0.423-3.534   c0-1.066-0.099-2.078-0.295-3.035c-0.197-0.957-0.575-2.146-1.135-3.568h1.146c0.628,1.03,1.101,2.092,1.419,3.186   c0.319,1.094,0.478,2.185,0.478,3.274c0,1.094-0.159,2.218-0.476,3.374s-0.786,2.257-1.407,3.305H19.024z" display="inline"/>
</g>
<g id="P1" display="none">
	<path d="M8.327,28.186H7.182c-0.605-1.025-1.071-2.111-1.396-3.257s-0.487-2.257-0.487-3.333   c0-1.162,0.163-2.296,0.489-3.401c0.326-1.105,0.795-2.154,1.408-3.148h1.146c-0.56,1.422-0.938,2.611-1.135,3.568   c-0.197,0.957-0.295,1.969-0.295,3.035c0,1.103,0.139,2.27,0.416,3.5C7.522,26.016,7.855,27.028,8.327,28.186z" display="inline"/>
</g>
<g id="Type">
	<path d="M53.265,12.893v17.022H26.785V12.893H53.265z M28.204,14.312v13.077l10.899-13.077H28.204z M29.127,28.497h21.795   l-3.793-4.552H32.921L29.127,28.497z M34.104,22.525h11.844l-5.922-7.106L34.104,22.525z M51.846,14.312H40.948l10.897,13.077   V14.312z"/>
</g>
<g id="STK">
	<path d="M13.307,17.911h-0.036l-2.139,1.074l-0.386-1.671l2.857-1.406h1.847v11.703h-2.144V17.911z"/>
</g>
<g id="ECH">
	<rect width="27.832" x="26.078" fill="none" height="8.039" y="2.802"/>
	<path d="M39.33,3.634v6.736h-1.523V3.634H39.33z"/>
	<path d="M42.18,3.634v6.736h-1.522V3.634H42.18z"/>
</g>
<g id="PF">
	<rect width="60" x="0" fill="none" height="15.475" y="44.525"/>
	<path d="M16.375,49.086c0.396-0.088,0.922-0.13,1.491-0.13c0.624,0,1.241,0.081,1.704,0.476c0.36,0.306,0.51,0.756,0.51,1.228   c0,0.598-0.31,1.175-0.975,1.47v0.036c0.78,0.224,1.193,0.867,1.193,1.607c0,0.558-0.18,0.994-0.494,1.324   c-0.401,0.438-1.085,0.68-2.213,0.68c-0.498,0-0.917-0.03-1.216-0.076V49.086z M17.68,51.755h0.282   c0.475,0,0.833-0.397,0.833-0.945c0-0.494-0.233-0.877-0.767-0.877c-0.145,0-0.263,0.013-0.348,0.043V51.755z M17.68,54.744   c0.084,0.02,0.179,0.023,0.292,0.023c0.534,0,0.969-0.328,0.969-1.011c0-0.678-0.46-1.027-0.979-1.029H17.68V54.744z"/>
	<path d="M22.2,53.743c0.016,0.763,0.457,1.045,1.036,1.045c0.373,0,0.694-0.08,0.933-0.166l0.171,0.937   c-0.333,0.136-0.848,0.224-1.341,0.224c-1.333,0-2.066-0.879-2.066-2.407c0-1.645,0.857-2.624,1.958-2.624   c1.052,0,1.667,0.83,1.667,2.311c0,0.35-0.016,0.542-0.04,0.682H22.2z M23.363,52.826c0.004-0.628-0.162-1.12-0.552-1.12   c-0.425,0-0.599,0.626-0.61,1.12H23.363z"/>
	<path d="M25.291,52.303c0-0.534-0.022-1.006-0.04-1.472h1.131l0.067,0.565h0.02c0.25-0.39,0.676-0.646,1.186-0.646   c0.927,0,1.302,0.741,1.302,1.835v3.137h-1.312v-3.062c0-0.412-0.097-0.808-0.482-0.808c-0.216,0-0.399,0.15-0.491,0.439   c-0.036,0.099-0.067,0.263-0.067,0.452v2.978h-1.312V52.303z"/>
	<path d="M33.486,50.831c-0.026,0.448-0.048,0.963-0.048,1.55v2.79c0,1.055-0.195,1.627-0.592,2.012   c-0.359,0.344-0.874,0.539-1.588,0.539c-0.453,0-0.872-0.078-1.222-0.232l0.243-1.006c0.247,0.113,0.553,0.204,0.935,0.204   c0.658,0,0.919-0.437,0.919-1.187v-0.294h-0.021c-0.168,0.31-0.512,0.484-0.878,0.484c-1.096,0-1.525-1.198-1.525-2.367   c0-1.627,0.739-2.573,1.646-2.573c0.385,0,0.709,0.207,0.899,0.578h0.021l0.066-0.498H33.486z M32.134,52.617   c0-0.128-0.024-0.264-0.054-0.358c-0.061-0.21-0.197-0.403-0.421-0.403c-0.468,0-0.656,0.639-0.656,1.437   c0,0.911,0.257,1.373,0.635,1.373c0.17,0,0.337-0.089,0.433-0.355c0.048-0.109,0.063-0.251,0.063-0.383V52.617z"/>
	<path d="M34.341,48.807h1.312v2.536h0.02c0.116-0.17,0.258-0.307,0.424-0.414c0.186-0.11,0.418-0.178,0.661-0.178   c0.896,0,1.248,0.767,1.248,2.008v2.964h-1.312v-2.972c0-0.473-0.089-0.897-0.483-0.897c-0.219,0-0.407,0.127-0.506,0.463   c-0.02,0.081-0.051,0.256-0.051,0.368v3.038h-1.312V48.807z"/>
	<path d="M38.646,54.903l1.201-2.18c0.157-0.275,0.363-0.598,0.458-0.794v-0.027h-1.513v-1.071h2.937v0.893l-1.17,2.097   c-0.165,0.29-0.355,0.604-0.466,0.803v0.028h1.683v1.071h-3.13V54.903z"/>
	<path d="M43.742,49.538c0.008,0.419-0.291,0.709-0.687,0.709c-0.361,0-0.656-0.29-0.648-0.709c-0.008-0.44,0.303-0.717,0.666-0.717   C43.451,48.821,43.742,49.098,43.742,49.538z M42.431,55.723v-4.892h1.312v4.892H42.431z"/>
</g>
<g id="Des">
	<rect width="60" x="0" fill="none" height="14.525" y="31.722"/>
	<path d="M15.753,45.212l-2.737-12.136h2.104l1.007,5.445c0.242,1.332,0.541,2.934,0.724,4.411h0.052   c0.167-1.495,0.428-3.056,0.678-4.458l0.979-5.398h2.085l-2.793,12.136H15.753z"/>
	<path d="M23.744,33.076v12.136h-1.922V33.076H23.744z"/>
	<path d="M27.812,33.076v12.136H25.89V33.076H27.812z"/>
	<path d="M38.376,45.019c-0.354,0.176-0.992,0.302-1.784,0.302c-2.77,0-4.35-2.261-4.35-6.009c0-4.67,2.463-6.344,4.622-6.344   c0.789,0,1.345,0.157,1.586,0.309l-0.354,1.627c-0.285-0.134-0.584-0.249-1.152-0.249c-1.322,0-2.672,1.209-2.672,4.523   c0,3.268,1.224,4.436,2.682,4.436c0.451,0,0.909-0.103,1.197-0.214L38.376,45.019z"/>
	<path d="M39.732,33.257c0.558-0.149,1.328-0.234,2.155-0.234c1.413,0,2.408,0.339,3.136,1.005c0.995,0.882,1.603,2.471,1.603,4.902   c0,2.603-0.651,4.237-1.581,5.134c-0.808,0.832-1.99,1.233-3.545,1.233c-0.665,0-1.336-0.06-1.768-0.129V33.257z M41.644,43.675   c0.16,0.036,0.346,0.036,0.472,0.036c1.313,0,2.522-1.108,2.522-4.807c0-2.747-0.778-4.335-2.442-4.335   c-0.19,0-0.387,0.016-0.552,0.062V43.675z"/>
</g>
<g>
</g>
<g>
</g>
<g>
</g>
<g>
</g>
<g>
</g>
<g>
</g>
</svg>