<svg width="56" height="56" xmlns="http://www.w3.org/2000/svg" viewBox="0 0 56 56">
  <rect fill="#faf29c" height="56" width="56"/>
  <g>
    <path d="M39.4,5.15v5.389H38.37V5.15Z" transform="translate(-2.011 -1.914)"/>
    <path d="M41.614,5.15v5.389H40.586V5.15Z" transform="translate(-2.011 -1.914)"/>
  </g>
  <path fill="#0b0b0b" d="M13.672,17.521h-.036L11.5,18.6l-.386-1.671,2.857-1.407h1.847v11.7H13.672Z" transform="translate(-2.011 -1.914)"/>
  <g>
    <path d="M17.241,49.845h-.019l-1.1.565-.22-1.026,1.489-.772h1.147v6.5h-1.3Z" transform="translate(-2.011 -1.914)"/>
    <path d="M21.882,48.372h1.312V54h1.724v1.11H21.882Z" transform="translate(-2.011 -1.914)"/>
    <path d="M26.869,48.924a.667.667,0,0,1-.686.709.657.657,0,0,1-.649-.709.669.669,0,1,1,1.335,0Zm-1.311,6.184V50.217H26.87v4.891Z" transform="translate(-2.011 -1.914)"/>
    <path d="M27.746,55.108c.018-.431.039-.984.039-1.444V48.192h1.3v2.524h.02a1.158,1.158,0,0,1,1.02-.579c.947,0,1.384,1.076,1.384,2.391,0,1.714-.679,2.66-1.595,2.66a1.015,1.015,0,0,1-.959-.655h-.024l-.072.575Zm1.344-1.75a.94.94,0,0,0,.052.314c.109.349.293.443.448.443.438,0,.623-.547.623-1.484,0-.845-.2-1.39-.627-1.39-.206,0-.379.212-.446.449a1.178,1.178,0,0,0-.05.3Z" transform="translate(-2.011 -1.914)"/>
    <path d="M33.167,50.217l.479,2.548c.055.288.1.55.138.817h.02c.036-.25.075-.528.118-.8l.4-2.563h1.282l-1,3.775a6.5,6.5,0,0,1-1.088,2.492,2.556,2.556,0,0,1-1.114.773l-.392-1.133a1.984,1.984,0,0,0,.646-.406,1.806,1.806,0,0,0,.41-.581.493.493,0,0,0,.066-.213.61.61,0,0,0-.035-.18l-1.345-4.527Z" transform="translate(-2.011 -1.914)"/>
    <path d="M38.174,55.108l-.072-.482H38.08A1.277,1.277,0,0,1,37,55.188,1.351,1.351,0,0,1,35.711,53.7c0-1.285,1.13-1.808,2.234-1.819v-.109a.622.622,0,0,0-.687-.668,1.818,1.818,0,0,0-.994.286l-.239-.882a3.216,3.216,0,0,1,1.52-.374c1.485,0,1.729,1.042,1.729,2.033v1.819a7.025,7.025,0,0,0,.072,1.119Zm-.189-2.381c-.432.007-1.036.156-1.036.836,0,.484.271.663.473.663a.556.556,0,0,0,.535-.421.735.735,0,0,0,.028-.224Z" transform="translate(-2.011 -1.914)"/>
    <path d="M40.2,51.688c0-.534-.022-1.005-.04-1.471h1.131l.066.565h.021a1.392,1.392,0,0,1,1.186-.645c.927,0,1.3.741,1.3,1.835v3.136H42.551V52.047c0-.412-.1-.808-.482-.808-.216,0-.4.151-.491.44a1.4,1.4,0,0,0-.067.452v2.977H40.2Z" transform="translate(-2.011 -1.914)"/>
  </g>
  <g>
    <rect x="26.328" y="11.355" fill="none" width="23" height="15" stroke="#231f20" stroke-width="1.25" stroke-miterlimit="10"/>
    <g>
      <line fill="none" x1="26.328" x2="49.328" y1="26.355" y2="11.355" stroke="#231f20" stroke-width="1.25" stroke-miterlimit="10"/>
      <line fill="none" x1="49.328" x2="26.328" y1="26.355" y2="11.355" stroke="#231f20" stroke-width="1.25" stroke-miterlimit="10"/>
    </g>
  </g>
  <g>
    <path d="M20.6,44.3l-.915-2.542c-.242-.69-.455-1.343-.7-2.138h-.044c-.232.787-.443,1.5-.644,2.176l-.825,2.5H15.554l2.363-6.2-2.281-5.94h2l.882,2.495c.2.605.4,1.206.626,1.947h.035c.232-.785.4-1.35.574-1.98l.785-2.462h1.934l-2.318,5.97L22.6,44.3Z" transform="translate(-2.011 -1.914)"/>
    <path d="M25.649,32.162V44.3H23.727V32.162Z" transform="translate(-2.011 -1.914)"/>
    <path d="M26.573,45.018l4.066-13H31.95l-4.064,13Z" transform="translate(-2.011 -1.914)"/>
    <path d="M32.272,44.3V43.021L33.353,41.6c1.464-1.935,2.884-3.8,2.884-5.71,0-1.1-.543-1.822-1.57-1.822a3.144,3.144,0,0,0-1.729.613l-.379-1.47a4.41,4.41,0,0,1,2.458-.757c2.283,0,3.119,1.589,3.119,3.305,0,2.2-1.405,4.122-2.794,5.873l-.737.937V42.6h3.719v1.7Z" transform="translate(-2.011 -1.914)"/>
    <path d="M40.18,32.162H42.1V42.668h3.242V44.3H40.18Z" transform="translate(-2.011 -1.914)"/>
  </g>
</svg>