<!-- Generator: Adobe Illustrator 25.2.3, SVG Export Plug-In . SVG Version: 6.00 Build 0)  --><svg x="0px" enable-background="new 0 0 60 60" y="0px" width="60px" xmlns:xlink="http://www.w3.org/1999/xlink" viewBox="0 0 60 60" height="60px" id="Layer_1" xmlns="http://www.w3.org/2000/svg" xml:space="preserve" version="1.1">
<rect width="60" fill="#FBF49C" x="0" height="60" id="UnitColor" y="-0.085"/>
<rect width="60" fill="#F7EC13" height="20.189" id="CS_2_" y="11.533" display="none"/>
<g id="Gar" display="none">
	<rect width="14.843" fill="none" x="0.73" height="8.039" y="2.802" display="inline"/>
	<path d="M11.03,10.06c-0.472,0.163-1.361,0.379-2.249,0.379c-1.231,0-2.119-0.308-2.739-0.903   C5.424,8.949,5.085,8.072,5.089,7.083C5.097,4.842,6.73,3.567,8.936,3.567c0.87,0,1.539,0.165,1.873,0.323L10.49,5.111   C10.117,4.95,9.664,4.825,8.922,4.825c-1.27,0-2.235,0.714-2.235,2.18c0,1.391,0.878,2.205,2.125,2.205   c0.344,0,0.623-0.04,0.745-0.095V7.699H8.516V6.512h2.514V10.06z" display="inline"/>
</g>
<g id="Eng" display="none">
	<rect width="27.832" fill="none" x="1.1" height="8.039" y="2.802" display="inline"/>
	<path d="M17.011,7.521h-2.479v1.602h2.771v1.248h-4.294V3.634h4.15v1.248h-2.626v1.403h2.479V7.521z" display="inline"/>
</g>
<g id="P2" display="none">
	<path d="M19.024,28.186c0.472-1.148,0.803-2.149,0.992-3.001c0.282-1.24,0.423-2.417,0.423-3.534   c0-1.066-0.099-2.078-0.295-3.035c-0.197-0.957-0.575-2.146-1.135-3.568h1.146c0.628,1.03,1.101,2.092,1.419,3.186   c0.319,1.094,0.478,2.185,0.478,3.274c0,1.094-0.159,2.218-0.476,3.374s-0.786,2.257-1.407,3.305H19.024z" display="inline"/>
</g>
<g id="P1" display="none">
	<path d="M8.327,28.186H7.182c-0.605-1.025-1.071-2.111-1.396-3.257s-0.487-2.257-0.487-3.333   c0-1.162,0.163-2.296,0.489-3.401c0.326-1.105,0.795-2.154,1.408-3.148h1.146c-0.56,1.422-0.938,2.611-1.135,3.568   c-0.197,0.957-0.295,1.969-0.295,3.035c0,1.103,0.139,2.27,0.416,3.5C7.522,26.016,7.855,27.028,8.327,28.186z" display="inline"/>
</g>
<g id="Type">
	<path d="M53.265,12.893v17.022H26.785V12.893H53.265z M28.204,15.139v12.53l10.443-6.265L28.204,15.139z M50.468,14.312H29.583   l10.443,6.265L50.468,14.312z M29.583,28.497h20.885l-10.442-6.265L29.583,28.497z M41.404,21.404l10.441,6.265v-12.53   L41.404,21.404z"/>
</g>
<g id="STK">
	<path d="M13.307,17.911h-0.036l-2.139,1.074l-0.386-1.671l2.857-1.406h1.847v11.703h-2.144V17.911z"/>
</g>
<g id="ECH">
	<rect width="27.832" x="26.078" fill="none" height="8.039" y="2.802"/>
	<path d="M39.33,3.634v6.736h-1.523V3.634H39.33z"/>
	<path d="M42.18,3.634v6.736h-1.522V3.634H42.18z"/>
</g>
<g id="PF">
	<rect width="60" x="0" fill="none" height="15.475" y="44.525"/>
	<path d="M31.347,49.366l-0.99,1.172l0.008,0.028l1.406-0.256v0.908l-1.412-0.264l-0.016,0.028l1.002,1.136L30.5,52.585   l-0.527-1.444l-0.02,0.032l-0.572,1.421l-0.746-0.469l0.99-1.191l-0.024-0.012l-1.376,0.297v-0.908l1.364,0.252l0.023-0.028   l-0.976-1.151l0.821-0.468l0.529,1.406h0.028l0.513-1.415L31.347,49.366z"/>
</g>
<g id="Des">
	<rect width="60" x="0" fill="none" height="14.525" y="31.722"/>
	<path d="M9.291,45.212L8.376,42.67c-0.242-0.689-0.455-1.343-0.697-2.138H7.635c-0.232,0.787-0.443,1.503-0.644,2.176l-0.825,2.504   H4.244l2.363-6.196l-2.28-5.939h1.999l0.881,2.495c0.203,0.604,0.396,1.206,0.626,1.947h0.036c0.232-0.785,0.399-1.351,0.574-1.98   l0.784-2.462h1.935l-2.318,5.97l2.444,6.166H9.291z"/>
	<path d="M16.491,45.212l-0.915-2.542c-0.242-0.689-0.455-1.343-0.697-2.138h-0.044c-0.232,0.787-0.443,1.503-0.644,2.176   l-0.825,2.504h-1.922l2.363-6.196l-2.28-5.939h1.999l0.881,2.495c0.203,0.604,0.396,1.206,0.626,1.947h0.036   c0.232-0.785,0.399-1.351,0.574-1.98l0.784-2.462h1.935l-2.318,5.97l2.444,6.166H16.491z"/>
	<path d="M23.69,45.212l-0.915-2.542c-0.242-0.689-0.455-1.343-0.697-2.138h-0.044c-0.232,0.787-0.443,1.503-0.644,2.176   l-0.825,2.504h-1.922l2.363-6.196l-2.28-5.939h1.999l0.881,2.495c0.203,0.604,0.396,1.206,0.626,1.947h0.036   c0.232-0.785,0.399-1.351,0.574-1.98l0.784-2.462h1.935l-2.318,5.97l2.444,6.166H23.69z"/>
	<path d="M28.738,33.076v12.136h-1.922V33.076H28.738z"/>
	<path d="M32.807,33.076v12.136h-1.922V33.076H32.807z"/>
	<path d="M36.875,33.076v12.136h-1.922V33.076H36.875z"/>
	<path d="M39.021,33.076h1.922v10.507h3.242v1.629h-5.164V33.076z"/>
	<path d="M47.372,34.149c0.011,0.66-0.434,1.107-1.062,1.107c-0.56,0-1.009-0.447-0.999-1.107c-0.01-0.683,0.46-1.117,1.027-1.117   C46.938,33.032,47.372,33.467,47.372,34.149z M45.396,45.212v-8.766h1.922v8.766H45.396z"/>
	<path d="M49.006,45.212c0.028-0.652,0.072-1.65,0.072-2.369V32.752h1.911v4.649h0.036c0.438-0.742,1.037-1.099,1.836-1.099   c1.553,0,2.446,1.765,2.446,4.353c0,3.115-1.259,4.701-2.77,4.701c-0.818,0-1.312-0.408-1.729-1.228h-0.052l-0.112,1.083H49.006z    M50.989,42.095c0,0.211,0.03,0.411,0.077,0.553c0.253,0.924,0.701,1.123,1.028,1.123c0.936,0,1.296-1.223,1.296-2.982   c0-1.624-0.379-2.858-1.312-2.858c-0.492,0-0.902,0.57-1.021,1.146c-0.039,0.164-0.069,0.394-0.069,0.568V42.095z"/>
</g>
<g>
</g>
<g>
</g>
<g>
</g>
<g>
</g>
<g>
</g>
<g>
</g>
</svg>