<!-- Generator: Adobe Illustrator 25.2.3, SVG Export Plug-In . SVG Version: 6.00 Build 0)  --><svg x="0px" enable-background="new 0 0 60 60" y="0px" width="60px" xmlns:xlink="http://www.w3.org/1999/xlink" viewBox="0 0 60 60" height="60px" id="Layer_1" xmlns="http://www.w3.org/2000/svg" xml:space="preserve" version="1.1">
<rect width="60" fill="#FBF49C" x="0" height="60" id="UnitColor" y="-0.085"/>
<rect width="60" fill="#F7EC13" height="20.189" id="CS_2_" y="11.533" display="none"/>
<g id="Gar" display="none">
	<rect width="14.843" fill="none" x="0.73" height="8.039" y="2.802" display="inline"/>
	<path d="M11.03,10.06c-0.472,0.163-1.361,0.379-2.249,0.379c-1.231,0-2.119-0.308-2.739-0.903   C5.424,8.949,5.085,8.072,5.089,7.083C5.097,4.842,6.73,3.567,8.936,3.567c0.87,0,1.539,0.165,1.873,0.323L10.49,5.111   C10.117,4.95,9.664,4.825,8.922,4.825c-1.27,0-2.235,0.714-2.235,2.18c0,1.391,0.878,2.205,2.125,2.205   c0.344,0,0.623-0.04,0.745-0.095V7.699H8.516V6.512h2.514V10.06z" display="inline"/>
</g>
<g id="Eng" display="none">
	<rect width="27.832" fill="none" x="1.1" height="8.039" y="2.802" display="inline"/>
	<path d="M17.011,7.521h-2.479v1.602h2.771v1.248h-4.294V3.634h4.15v1.248h-2.626v1.403h2.479V7.521z" display="inline"/>
</g>
<g id="P2" display="none">
	<path d="M19.024,28.186c0.472-1.148,0.803-2.149,0.992-3.001c0.282-1.24,0.423-2.417,0.423-3.534   c0-1.066-0.099-2.078-0.295-3.035c-0.197-0.957-0.575-2.146-1.135-3.568h1.146c0.628,1.03,1.101,2.092,1.419,3.186   c0.319,1.094,0.478,2.185,0.478,3.274c0,1.094-0.159,2.218-0.476,3.374s-0.786,2.257-1.407,3.305H19.024z" display="inline"/>
</g>
<g id="P1" display="none">
	<path d="M8.327,28.186H7.182c-0.605-1.025-1.071-2.111-1.396-3.257s-0.487-2.257-0.487-3.333   c0-1.162,0.163-2.296,0.489-3.401c0.326-1.105,0.795-2.154,1.408-3.148h1.146c-0.56,1.422-0.938,2.611-1.135,3.568   c-0.197,0.957-0.295,1.969-0.295,3.035c0,1.103,0.139,2.27,0.416,3.5C7.522,26.016,7.855,27.028,8.327,28.186z" display="inline"/>
</g>
<g id="Type">
	<path d="M53.265,12.893v17.022H26.785V12.893H53.265z M51.846,14.312H28.204v14.185h23.642V14.312z M31.115,24.371   c-0.792-0.819-1.217-1.895-1.198-3.033c0.038-2.312,1.878-4.152,4.19-4.189c0.003,0,0.005,0.002,0.007,0.002v-0.002h11.814   c0.006,0,0.012-0.004,0.019-0.004c2.349,0.039,4.228,1.98,4.19,4.329c-0.038,2.311-1.88,4.151-4.189,4.189   c-0.005,0-0.009,0-0.013,0v0.004H34.118c-0.001,0-0.003,0-0.004,0s-0.004,0-0.007,0C32.97,25.647,31.907,25.188,31.115,24.371z    M31.336,21.361c-0.012,0.758,0.271,1.477,0.8,2.022c0.527,0.545,1.235,0.852,1.994,0.864h11.776c0.006,0,0.012-0.004,0.017-0.004   c1.543-0.025,2.771-1.253,2.795-2.794c0.025-1.562-1.222-2.854-2.782-2.885v0.003H34.13C32.589,18.592,31.361,19.819,31.336,21.361   z"/>
</g>
<g id="STK">
	<path d="M13.307,17.911h-0.036l-2.139,1.074l-0.386-1.671l2.857-1.406h1.847v11.703h-2.144V17.911z"/>
</g>
<g id="ECH">
	<rect width="27.832" x="26.078" fill="none" height="8.039" y="2.802"/>
	<path d="M39.33,3.634v6.736h-1.523V3.634H39.33z"/>
	<path d="M42.18,3.634v6.736h-1.522V3.634H42.18z"/>
</g>
<g id="PF">
	<rect width="60" x="0" fill="none" height="15.475" y="44.525"/>
	<path d="M20.991,54.185l-0.295,1.538h-1.271l1.463-6.736h1.568l1.31,6.736H22.49l-0.288-1.538H20.991z M22.087,53.168l-0.225-1.41   c-0.065-0.409-0.155-1.086-0.221-1.531h-0.024c-0.072,0.447-0.172,1.144-0.242,1.533l-0.247,1.408H22.087z"/>
	<path d="M24.369,52.303c0-0.486-0.022-1.015-0.04-1.472h1.135l0.067,0.716h0.036c0.215-0.521,0.611-0.796,0.969-0.796   c0.132,0,0.202,0.008,0.279,0.023v1.297c-0.083-0.016-0.168-0.016-0.285-0.016c-0.273,0-0.648,0.192-0.791,0.695   c-0.034,0.108-0.057,0.285-0.057,0.488v2.483h-1.312V52.303z"/>
	<path d="M26.635,56.122l2.344-7.216h0.852l-2.344,7.216H26.635z"/>
	<path d="M30.235,48.986h1.312v5.626h1.724v1.11h-3.036V48.986z"/>
	<path d="M34.211,50.199h-1.188v-1.213h3.697v1.213h-1.196v5.523h-1.312V50.199z"/>
	<path d="M40.509,55.624c-0.188,0.089-0.556,0.158-1.011,0.158c-1.721,0-2.544-1.414-2.544-3.326c0-2.539,1.409-3.529,2.715-3.529   c0.465,0,0.784,0.093,0.916,0.176l-0.219,1.104c-0.154-0.072-0.322-0.134-0.609-0.134c-0.747,0-1.415,0.645-1.415,2.311   c0,1.608,0.613,2.236,1.408,2.236c0.219,0,0.471-0.048,0.631-0.099L40.509,55.624z"/>
</g>
<g id="Des">
	<rect width="60" x="0" fill="none" height="14.525" y="31.722"/>
	<path d="M18.021,45.212l-0.915-2.542c-0.242-0.689-0.455-1.343-0.697-2.138h-0.044c-0.232,0.787-0.443,1.503-0.644,2.176   l-0.825,2.504h-1.922l2.363-6.196l-2.28-5.939h1.999l0.881,2.495c0.203,0.604,0.396,1.206,0.626,1.947h0.036   c0.232-0.785,0.399-1.351,0.574-1.98l0.784-2.462h1.935l-2.318,5.97l2.444,6.166H18.021z"/>
	<path d="M25.221,45.212l-0.915-2.542c-0.242-0.689-0.455-1.343-0.697-2.138h-0.044c-0.232,0.787-0.443,1.503-0.644,2.176   l-0.825,2.504h-1.922l2.363-6.196l-2.28-5.939h1.999l0.881,2.495c0.203,0.604,0.396,1.206,0.626,1.947h0.036   c0.232-0.785,0.399-1.351,0.574-1.98l0.784-2.462h1.935l-2.318,5.97l2.444,6.166H25.221z"/>
	<path d="M30.269,33.076v12.136h-1.922V33.076H30.269z"/>
	<path d="M35.588,32.752c-1.039,1.623-1.896,4.006-1.896,7.331c0,3.246,0.856,5.626,1.896,7.289h-1.42   c-0.982-1.357-2.031-3.804-2.031-7.3c0.051-3.523,1.049-5.959,2.031-7.32H35.588z"/>
	<path d="M37.023,33.076h1.922v10.507h3.242v1.629h-5.164V33.076z"/>
	<path d="M42.876,47.372c1.039-1.643,1.896-4.074,1.896-7.341c0-3.253-0.856-5.636-1.896-7.279h1.419   c0.982,1.33,2.032,3.725,2.032,7.29c-0.052,3.558-1.05,5.941-2.032,7.33H42.876z"/>
</g>
<g>
</g>
<g>
</g>
<g>
</g>
<g>
</g>
<g>
</g>
<g>
</g>
</svg>