<svg width="60" height="60" xmlns="http://www.w3.org/2000/svg" viewBox="0 0 60 60">
  <rect fill="#fbf49c" width="60" y="-0.085" height="60"/>
  <path d="M53.265,12.893V29.915H26.785V12.893Zm-1.419,1.419H28.2V28.5H51.846ZM37.26,21.4A2.77,2.77,0,1,1,40.025,24,2.687,2.687,0,0,1,37.26,21.4Z"/>
  <path d="M13.307,17.911h-.036l-2.139,1.074-.385-1.671L13.6,15.908h1.847v11.7H13.307Z"/>
  <g>
    <path d="M37.905,3.634V10.37H36.382V3.634Z"/>
    <path d="M40.756,3.634V10.37H39.232V3.634Z"/>
    <path d="M43.605,3.634V10.37H42.083V3.634Z"/>
  </g>
  <g>
    <path d="M29.7,52.494v.94H27.71v-.94Z"/>
    <path d="M32.285,52.494v.94H30.3v-.94Z"/>
  </g>
  <g>
    <path d="M18.606,45.212l-.915-2.542c-.242-.69-.455-1.343-.7-2.138H16.95c-.232.787-.443,1.5-.644,2.176l-.825,2.5H13.559l2.362-6.2-2.28-5.94h2l.881,2.495c.2.605.4,1.206.626,1.948h.036c.232-.786.4-1.351.574-1.981l.785-2.462h1.934l-2.318,5.97L20.6,45.212Z"/>
    <path d="M25.806,45.212l-.915-2.542c-.242-.69-.455-1.343-.7-2.138h-.044c-.232.787-.442,1.5-.643,2.176l-.825,2.5H20.758l2.363-6.2-2.28-5.94h2l.881,2.495c.2.605.4,1.206.626,1.948h.036c.232-.786.4-1.351.574-1.981l.784-2.462h1.935l-2.318,5.97L27.8,45.212Z"/>
    <path d="M30.854,33.076V45.212H28.932V33.076Z"/>
    <path d="M38.573,45.019a4.37,4.37,0,0,1-1.784.3c-2.769,0-4.35-2.26-4.35-6.008,0-4.67,2.463-6.344,4.623-6.344a3.3,3.3,0,0,1,1.585.308L38.293,34.9a2.416,2.416,0,0,0-1.152-.249c-1.323,0-2.672,1.209-2.672,4.524,0,3.267,1.223,4.435,2.681,4.435a3.549,3.549,0,0,0,1.2-.214Z"/>
    <path d="M39.762,39.2c0-1.184-.043-2.022-.072-2.757h1.681l.1,1.061h.036a2.02,2.02,0,0,1,1.847-1.2c1.742,0,2.629,1.88,2.629,4.51,0,3.183-1.355,4.543-2.787,4.543a1.674,1.674,0,0,1-1.484-.924h-.036v4.237H39.762Zm1.912,2.8a2.361,2.361,0,0,0,.1.732c.222.855.673,1.034.991,1.034.97,0,1.3-1.381,1.3-2.931,0-1.737-.418-2.91-1.3-2.91-.486,0-.921.539-1.014,1.125a2.254,2.254,0,0,0-.079.643Z"/>
  </g>
</svg>