<svg width="60" height="60" xmlns="http://www.w3.org/2000/svg" viewBox="0 0 60 60">
  <rect fill="#faf39f" height="60" width="60"/>
  <g>
    <g>
      <path d="M11.01,31.355V31.4c0,.016,0,.031,0,.045s0,.032,0,.046a.319.319,0,0,1,0,.045L11,31.582l0,.045a.3.3,0,0,1-.008.045.34.34,0,0,1-.007.046.3.3,0,0,1-.007.045l-.009.046-.01.043q0,.021-.012.045a.345.345,0,0,1-.012.043.345.345,0,0,0-.012.043l-.014.043c-.005.014-.011.028-.017.043l-.014.043-.019.043c0,.014-.011.028-.017.041l-.019.043-.019.04c-.008.013-.015.027-.022.041a.3.3,0,0,0-.021.04l-.024.039c-.008.012-.016.026-.024.04l-.024.038-.024.039c-.009.011-.018.023-.026.035l-.029.039-.026.036c-.01.01-.019.023-.029.035l-.028.034a.313.313,0,0,0-.031.033l-.031.034c-.012.011-.022.022-.032.033s-.022.022-.033.031l-.033.034-.034.028c-.011.011-.022.022-.033.031s-.025.019-.036.029-.023.019-.036.029L10.186,33l-.038.026-.036.026-.038.024a.169.169,0,0,1-.041.024l-.038.024-.04.022a.317.317,0,0,1-.041.021.4.4,0,0,1-.041.022l-.04.019-.041.019-.043.017a.375.375,0,0,1-.043.016l-.043.017-.043.014a.345.345,0,0,1-.043.012l-.043.015-.045.012-.043.009-.046.01-.045.009a.321.321,0,0,1-.043.007.43.43,0,0,1-.045.008l-.046,0-.045,0-.046.005-.045,0H9.04l-.046,0a.319.319,0,0,1-.045,0H8.9l-.045,0-.045-.005-.046,0-.045,0a.3.3,0,0,1-.045-.008.34.34,0,0,1-.046-.007l-.045-.009-.043-.01L8.5,33.333a.3.3,0,0,0-.043-.012l-.045-.015a.345.345,0,0,1-.043-.012l-.043-.014-.043-.017a.375.375,0,0,1-.043-.016L8.2,33.23l-.043-.019-.04-.019-.041-.022-.04-.021-.039-.022-.04-.024a.173.173,0,0,1-.038-.024l-.039-.024c-.012-.008-.025-.016-.038-.026A.332.332,0,0,1,7.8,33l-.038-.026c-.011-.01-.023-.019-.036-.029L7.7,32.919a.267.267,0,0,1-.036-.031l-.033-.028-.034-.034a.3.3,0,0,1-.031-.031l-.033-.033c-.01-.012-.02-.023-.031-.034L7.468,32.7l-.029-.034c-.011-.012-.02-.025-.028-.035l-.029-.036a.44.44,0,0,1-.026-.039l-.027-.035c-.009-.013-.018-.026-.026-.039l-.024-.038c-.008-.014-.016-.028-.024-.04a.372.372,0,0,1-.021-.039l-.022-.04-.021-.041a.378.378,0,0,0-.022-.04c-.006-.015-.012-.029-.016-.043l-.02-.041c-.006-.014-.011-.029-.016-.043a.383.383,0,0,1-.017-.043l-.014-.043-.015-.043-.014-.043a.345.345,0,0,0-.012-.043l-.009-.045a.4.4,0,0,1-.012-.043l-.01-.046c0-.014,0-.029-.007-.045A.34.34,0,0,1,7,31.672c0-.014,0-.029-.007-.045l0-.045-.005-.046c0-.014,0-.029,0-.045a.38.38,0,0,0,0-.046v-.136a.319.319,0,0,0,0-.045c0-.014,0-.029,0-.045l.005-.046,0-.045c0-.014,0-.029.007-.046a.414.414,0,0,1,.007-.045c0-.014,0-.029.007-.043l.01-.045a.448.448,0,0,1,.012-.046l.009-.043a.3.3,0,0,0,.012-.043l.014-.045.015-.043.014-.043a.383.383,0,0,1,.017-.043c0-.014.01-.028.016-.041l.02-.043a.278.278,0,0,1,.016-.04l.022-.041a.317.317,0,0,1,.021-.041c.007-.014.014-.027.022-.04l.021-.041.024-.038L7.3,30.28c.008-.013.017-.025.026-.038a.456.456,0,0,1,.027-.039l.026-.035a.351.351,0,0,1,.029-.036.193.193,0,0,1,.028-.036c.01-.011.019-.023.029-.036l.029-.033.031-.034.033-.033.031-.031a.328.328,0,0,1,.034-.031c.011-.011.022-.022.033-.031a.351.351,0,0,1,.036-.029l.033-.029c.013-.009.025-.019.036-.028l.038-.029.036-.026a.328.328,0,0,0,.038-.027l.039-.024.038-.023.04-.024.039-.022a.3.3,0,0,0,.04-.021l.041-.019a.237.237,0,0,1,.04-.019l.043-.02.041-.019a.375.375,0,0,0,.043-.016l.043-.015.043-.014.043-.014a.3.3,0,0,1,.045-.012l.043-.012a.345.345,0,0,1,.046-.012l.043-.01.045-.007.046-.01.045,0,.045-.008.046,0a.319.319,0,0,1,.045,0l.045,0a.346.346,0,0,1,.046,0H9.04a.354.354,0,0,1,.045,0l.045,0,.046,0,.045,0,.046.008.045,0,.043.01L9.4,29.4l.046.01.043.012a.3.3,0,0,1,.045.012.345.345,0,0,1,.043.012l.043.014.043.014.043.015a.375.375,0,0,0,.043.016l.043.019.041.02a.147.147,0,0,1,.04.019l.041.019.041.021.04.022.038.024.041.023.038.024a.242.242,0,0,0,.036.027l.038.026a.351.351,0,0,1,.036.029l.036.028c.011.01.023.019.036.029l.033.029c.011.009.022.02.034.031s.022.02.033.031l.033.031c.01.011.02.022.032.033s.021.022.031.034l.031.035.028.034c.01.011.019.023.029.036a.236.236,0,0,1,.026.036c.01.012.019.024.029.035s.017.026.026.039l.024.038.024.038.024.038.024.041.021.04.022.041.019.041.019.04c.006.015.012.029.017.043l.019.041.014.043c.006.014.012.029.017.043l.014.043q0,.021.012.045a1128710545641.838,1128710545641.838,0,0,1,.024.086l.01.046.009.045a.321.321,0,0,1,.007.043.414.414,0,0,1,.007.045c0,.017.006.032.008.046l0,.045.005.046a.364.364,0,0,1,0,.045c0,.016,0,.031,0,.045S11.009,31.34,11.01,31.355Z" transform="translate(0 0)"/>
      <path d="M9.009,30.557l.036,0h.029l.043.007c.019,0,.037.007.056.009l.034.009.051.014.008,0v0l.029.009.041.019.038.018.023.012h0l.054.033.031.022.064.053.036.034.035.036h0l0,0h0l.008.01.019.026.02.027.015.024h0l.005.007h0l.024.041,0,.005.024.048c.007.018.014.035.022.053s.01.031.018.051l0,.015.009.035.007.032,0,.027.006.037,0,.032,0,.04v.033a.461.461,0,0,0,0,.063l0,.023-.006.036-.007.05-.013.044-.008.031-.014.036-.021.05-.009.022,0,0-.009.017v0h0l-.026.049-.021.03h0l0,.005-.006.007h0l-.015.023-.024.028-.025.028-.022.023-.024.023-.03.028-.016.013-.028.021-.03.021-.012.007-.013.008-.016.01-.031.016-.039.021-.017.008-.029.011-.035.013-.056.017-.035.01h0v0l-.022,0-.029.006L9.05,32.2H8.943l-.056-.006h-.01l-.057-.008h0v0l-.03-.008c-.034-.011-.043-.016-.072-.023l-.035-.013-.032-.014h0l-.066-.036-.013-.008-.016-.01-.022-.014h0l-.046-.034-.007-.006L8.459,32l-.02-.018-.018-.018-.013-.013-.02-.02-.024-.026h0l-.022-.028-.049-.071L8.286,31.8l-.028-.052h0l-.008-.016-.009-.021c0-.01-.006-.016-.016-.038l0,0-.014-.055v-.007h0v0l0-.008-.015-.061,0-.023-.008-.054,0-.031V31.4h0v-.095h0l0-.021.006-.04.005-.028.015-.061,0-.008h0l.008-.03.016-.039.014-.032.009-.02,0-.01q.017-.028.03-.057l.028-.048a.575.575,0,0,0,.044-.054l.029-.035.021-.023.035-.031.044-.037.012-.01.031-.022.026-.019.02-.01h0l.027-.015h0l.035-.017.006,0,.039-.017.014-.006L8.72,30.6v0l0,0,.071-.019.025-.007h0l.026-.005.065-.009h.029a.341.341,0,0,0,.05,0h.015m.031-1.194H8.949a.346.346,0,0,0-.046,0h0l-.042,0h0a.277.277,0,0,0-.042,0l-.046,0-.045.008-.045,0-.046.01-.045.007-.043.01a.345.345,0,0,0-.046.012l-.043.012a.3.3,0,0,0-.045.012l-.043.014-.043.014-.043.015a.375.375,0,0,1-.043.016l-.041.019-.043.02a.237.237,0,0,0-.04.019l-.041.019a.3.3,0,0,1-.04.021l-.039.022-.04.024-.038.023-.039.024a.328.328,0,0,1-.038.027l-.036.026-.038.029c-.011.009-.023.019-.036.028l-.033.029a.351.351,0,0,0-.036.029c-.011.009-.022.02-.033.031a.328.328,0,0,0-.034.031l-.031.031-.033.033-.031.034-.029.033c-.01.013-.019.025-.029.036a.193.193,0,0,0-.028.036.351.351,0,0,0-.029.036l-.026.035a.456.456,0,0,0-.027.039c-.009.013-.018.025-.026.038l-.024.038-.024.038-.021.041c-.008.013-.015.026-.022.04a.317.317,0,0,0-.021.041l-.022.041a.278.278,0,0,0-.016.04l-.02.043c-.006.013-.011.027-.016.041a.383.383,0,0,0-.017.043l-.014.043-.015.043-.014.045a.3.3,0,0,1-.012.043l-.009.043a.448.448,0,0,0-.012.046l-.01.045c0,.014,0,.029-.007.043A.414.414,0,0,0,7,31.082c0,.017,0,.032-.007.046l0,.045-.005.046c0,.016,0,.031,0,.045a.319.319,0,0,1,0,.045v.136a.38.38,0,0,1,0,.046c0,.016,0,.031,0,.045l.005.046,0,.045c0,.016,0,.031.007.045a.34.34,0,0,0,.007.046c0,.016,0,.031.007.045l.01.046a.4.4,0,0,0,.012.043l.009.045a.345.345,0,0,1,.012.043l.014.043.015.043.014.043a.383.383,0,0,0,.017.043c0,.014.01.029.016.043l.02.041c0,.014.01.028.016.043a.378.378,0,0,1,.022.04l.021.041.022.04a.372.372,0,0,0,.021.039c.008.012.016.026.024.04l.024.038c.008.013.017.026.026.039l.027.035a.44.44,0,0,0,.026.039l.029.036c.008.01.017.023.028.035l.029.034.029.033c.011.011.021.022.031.034l.033.033a.3.3,0,0,0,.031.031l.034.034.033.028a.267.267,0,0,0,.036.031l.033.029c.013.01.025.019.036.029L7.8,33a.332.332,0,0,0,.036.026c.013.01.026.018.038.026l.039.024a.173.173,0,0,0,.038.024l.04.024.039.022.04.021.041.022.04.019.043.019.041.017a.375.375,0,0,0,.043.016l.043.017.043.014a.345.345,0,0,0,.043.012l.045.015a.3.3,0,0,1,.043.012l.046.009.043.01.045.009a.34.34,0,0,0,.046.007.3.3,0,0,0,.045.008l.045,0,.046,0,.045.005.045,0h.046a.319.319,0,0,0,.045,0l.046,0h.045l.045,0,.046-.005.045,0,.046,0a.43.43,0,0,0,.045-.008.321.321,0,0,0,.043-.007l.045-.009.046-.01.043-.009.045-.012.043-.015a.345.345,0,0,0,.043-.012l.043-.014.043-.017a.375.375,0,0,0,.043-.016l.043-.017.041-.019.04-.019a.4.4,0,0,0,.041-.022.317.317,0,0,0,.041-.021l.04-.022.038-.024a.169.169,0,0,0,.041-.024l.038-.024.036-.026L10.186,33l.036-.026c.013-.01.025-.019.036-.029s.023-.019.036-.029.022-.02.033-.031l.034-.028.033-.034c.011-.009.022-.02.033-.031s.02-.022.032-.033l.031-.034a.313.313,0,0,1,.031-.033l.028-.034c.01-.012.019-.025.029-.035l.026-.036.029-.039c.008-.012.017-.024.026-.035l.024-.039.024-.038c.008-.014.016-.028.024-.04l.024-.039a.3.3,0,0,1,.021-.04c.007-.014.014-.028.022-.041l.019-.04.019-.043c.006-.013.012-.027.017-.041l.019-.043.014-.043c.006-.015.012-.029.017-.043l.014-.043a.345.345,0,0,1,.012-.043.345.345,0,0,0,.012-.043q.007-.024.012-.045l.01-.043.009-.046a.3.3,0,0,0,.007-.045.34.34,0,0,0,.007-.046.3.3,0,0,0,.008-.045l0-.045L11,31.536a.319.319,0,0,0,0-.045c0-.014,0-.03,0-.046s0-.029,0-.045v-.045c0-.015,0-.03,0-.046s0-.029,0-.045a.364.364,0,0,0,0-.045L11,31.173l0-.045c0-.014,0-.029-.008-.046a.414.414,0,0,0-.007-.045.321.321,0,0,0-.007-.043l-.009-.045-.01-.046a1128710545641.838,1128710545641.838,0,0,0-.024-.086q-.008-.024-.012-.045l-.014-.043c-.005-.014-.011-.029-.017-.043l-.014-.043-.019-.041c0-.014-.011-.028-.017-.043l-.019-.04-.019-.041-.022-.041-.021-.04-.024-.041-.024-.038-.024-.038-.024-.038c-.009-.013-.018-.026-.026-.039s-.019-.023-.029-.035a.236.236,0,0,0-.026-.036c-.01-.013-.019-.025-.029-.036l-.028-.034-.031-.035c-.01-.012-.02-.023-.031-.034s-.022-.022-.032-.033l-.033-.031c-.011-.011-.022-.022-.033-.031s-.023-.022-.034-.031l-.033-.029c-.013-.01-.025-.019-.036-.029l-.036-.028a.351.351,0,0,0-.036-.029l-.038-.026a.242.242,0,0,1-.036-.027l-.038-.024-.041-.023-.038-.024-.04-.022-.041-.021-.041-.019a.147.147,0,0,0-.04-.019l-.041-.02-.043-.019a.375.375,0,0,1-.043-.016l-.043-.015-.043-.014-.043-.014a.345.345,0,0,0-.043-.012.3.3,0,0,0-.045-.012l-.043-.012L9.4,29.4,9.355,29.4l-.043-.01-.045,0-.046-.008-.045,0-.042,0h0l-.042,0h0a.354.354,0,0,0-.045,0Z" transform="translate(0 0)"/>
    </g>
    <g>
      <polygon points="9.41 32.937 9.529 29.926 28.455 29.19 28.536 36.618 9.41 32.937"/>
      <path d="M27.864,29.811l.066,6.083-17.9-3.447L10.1,30.5l17.76-.69m1.181-1.241-20.091.781-.16,4.075L29.14,37.343l-.095-8.773Z" transform="translate(0 0)"/>
    </g>
    <g>
      <path d="M50.526,32.567l-.119-.011-.239-.058a1.117,1.117,0,0,0-.135-.054l-.207-.125-.086-.064-.076-.067a.572.572,0,0,0-.1-.095c-.013-.018-.083-.114-.1-.129l-.06-.1a1.249,1.249,0,0,0-.064-.119c-.011-.028-.043-.11-.058-.137l-.039-.156c0-.01-.027-.209-.029-.218l0-.145.009-.1.015-.1.028-.11.03-.1c.008-.015.059-.144.063-.153s.049-.086.055-.1.137-.2.141-.2.173-.165.173-.165c.028-.017.185-.125.19-.128l.105-.058c.016-.006.117-.045.132-.052l.214-.06.273-.024.224.022a1.05,1.05,0,0,0,.112.02l.22.078.128.063c.018.015.182.123.182.123s.11.094.121.1l.1.109c.011.017.07.095.082.11l.105.182a.463.463,0,0,0,.039.095c0,.017.043.129.049.145s.03.133.034.147l.01.1s0,.214,0,.239l-.01.1c0,.008-.057.231-.061.245-.013.03-.05.121-.059.152l-.128.212-.071.089c-.014.013-.078.084-.092.1l-.112.1c-.024.015-.125.089-.147.107l-.1.053-.106.046c-.016,0-.091.03-.105.036l-.1.026c-.032,0-.114.022-.146.029l-.135.011Z" transform="translate(0 0)"/>
      <path d="M50.636,30.332h.037l.025,0,.021,0,.035,0,.019,0,.02,0,.024,0,.01,0,.027.006.034.01.048.018.035.014a.439.439,0,0,0,.044.021.634.634,0,0,0,.06.036h0c.025.018.016.01.042.027l.059.048.01.01.04.038h0l.016.017.026.03,0,.006.03.04.008.012.016.025.031.051.012.024.008.016c.007.018.014.036.022.054v0l.013.035.009.032.009.033.005.025.006.037.007.04v.012a.417.417,0,0,0,0,.057v.055l0,.031,0,.031,0,.012a.432.432,0,0,0-.011.064l-.005.023-.008.03-.007.026-.014.039c-.009.02-.017.04-.025.06l-.006.013h0l-.014.026h0c-.011.017-.032.051-.041.069h0l-.042.058-.033.041h0l-.06.056c-.019.015-.038.03-.049.04l-.017.012c-.017.011-.033.021-.049.033s-.033.018-.052.03l0,.006,0,0v0l-.023.008v0l-.023.011-.028.011-.048.018-.034.01-.027.006-.008,0-.037.007-.007,0-.034.006-.016,0-.044,0-.03,0h-.057l-.022,0-.038,0h0l-.042-.007-.028-.006-.027,0-.048-.013h0l-.019-.006-.035-.013-.025-.01-.026-.012h0l-.028-.013-.039-.023-.009,0-.034-.023-.051-.037-.03-.024-.008-.007a.581.581,0,0,0-.055-.057l-.009-.01L50,31.676l-.017-.023-.039-.054,0,0-.013-.022-.021-.039-.023-.044-.005-.012c-.007-.02-.015-.04-.023-.06h0l-.014-.044,0-.016-.008-.03-.006-.04a.443.443,0,0,0-.008-.049l0-.021v-.042h0v-.09l0-.024.007-.04,0-.035.007-.029,0-.012,0-.008.015-.046h0c.009-.021.017-.042.025-.064l.005-.013.02-.039c.01-.017.02-.034.027-.048l.007-.012a.522.522,0,0,0,.045-.066h0l.005-.006.029-.033.007-.008c.016-.015.031-.031.046-.048l.008-.007,0,0,.038-.031a.56.56,0,0,0,.049-.036l.037-.025.008,0,.04-.023h0l.026-.014.043-.016c.017-.006.029-.01.052-.02l.015,0,.027-.008h0l.049-.011.022,0,.03,0,.031,0,.019,0h.02l.045,0m.046-1.194h-.091a.362.362,0,0,1-.046,0,.371.371,0,0,0-.047,0l-.046,0a.242.242,0,0,0-.045,0l-.043,0-.046.007-.045.007-.045.01a.207.207,0,0,0-.043.01l-.046.009-.043.012-.045.012-.043.014-.043.015-.043.016-.043.017a.3.3,0,0,0-.041.017l-.043.019-.04.019-.041.019-.04.022-.041.024a.282.282,0,0,0-.038.021l-.038.024-.039.026-.038.027a.236.236,0,0,0-.036.026l-.038.026-.036.029-.033.028c-.013.01-.025.019-.036.029l-.034.031c-.011.011-.022.022-.033.031s-.021.022-.031.034l-.033.031c-.01.011-.02.022-.032.033s-.019.025-.028.036l-.031.033c-.01.013-.019.025-.029.036a.332.332,0,0,1-.026.036.428.428,0,0,0-.026.038.242.242,0,0,0-.027.036l-.026.038-.024.039-.024.04c-.008.013-.015.026-.021.038s-.016.028-.024.041l-.019.04c-.008.013-.015.027-.022.041l-.019.041c-.005.014-.01.028-.017.043a.316.316,0,0,0-.016.043.283.283,0,0,0-.017.04l-.014.043-.015.046-.014.043a.4.4,0,0,1-.012.043q0,.021-.012.045l-.009.043-.01.045a.34.34,0,0,0-.007.046.3.3,0,0,0-.007.045.358.358,0,0,0-.008.043l0,.046-.005.045c0,.016,0,.031,0,.045a.333.333,0,0,1,0,.046v.138a.344.344,0,0,1,0,.046c0,.014,0,.029,0,.045l.005.045,0,.046a.43.43,0,0,0,.008.045.3.3,0,0,0,.007.043.34.34,0,0,0,.007.046l.01.045.009.043q.008.024.012.045a.4.4,0,0,1,.012.043l.014.046.015.043.014.043a.24.24,0,0,0,.017.04.316.316,0,0,0,.016.043c.007.015.012.029.017.043l.019.041c.007.014.014.028.022.041l.019.04c.008.015.016.028.024.041a.359.359,0,0,0,.021.038l.024.041.024.038c.008.013.017.025.026.038a.242.242,0,0,0,.027.036.428.428,0,0,0,.026.038c.009.011.019.023.028.036l.027.036.031.033c.009.013.019.025.028.036a.34.34,0,0,1,.032.034l.033.031.031.033.033.031.034.031c.011.01.023.019.036.029l.033.028.036.029a.428.428,0,0,0,.038.026c.011.01.023.019.036.029l.038.024.039.026.038.024c.012.008.025.015.038.022l.041.023.04.022.041.019.04.019.043.019a.3.3,0,0,0,.041.017l.043.017a.375.375,0,0,0,.043.016l.043.015.043.014.045.012.043.012.046.01a.205.205,0,0,0,.043.009l.045.01.045.007.046.007.043.007.045,0,.046,0a.371.371,0,0,0,.047,0l.046,0h.091l.045,0,.045,0,.046,0,.045,0,.045-.007.046-.007L51,33.137l.045-.01a.266.266,0,0,0,.046-.009l.043-.01a.3.3,0,0,0,.045-.012.345.345,0,0,1,.043-.012l.043-.014.043-.015a.375.375,0,0,0,.043-.016l.043-.017a.383.383,0,0,0,.043-.017l.041-.019.04-.019.041-.019.04-.022.041-.023c.013-.007.026-.014.038-.022l.038-.024a.24.24,0,0,0,.039-.026l.038-.024.038-.029.036-.026a.351.351,0,0,0,.036-.029c.011-.009.023-.019.036-.028l.033-.029L52,32.635l.033-.031.033-.033.031-.031.032-.034.031-.036.028-.033c.01-.013.019-.025.029-.036l.026-.036.029-.038.026-.036.024-.038.024-.038.024-.041.024-.038.021-.041.022-.04.019-.041.019-.041c.006-.014.012-.028.017-.043l.019-.043.014-.04c.006-.014.012-.029.017-.043l.014-.043a.345.345,0,0,1,.012-.046.3.3,0,0,0,.012-.043.3.3,0,0,0,.012-.045l.009-.043.01-.045a.34.34,0,0,0,.007-.046.3.3,0,0,0,.007-.043.43.43,0,0,0,.008-.045l0-.046.005-.045a.354.354,0,0,0,0-.045.367.367,0,0,0,0-.046v-.045a.338.338,0,0,0,0-.045v-.048a.38.38,0,0,0,0-.046.354.354,0,0,0,0-.045l-.005-.045,0-.046a.358.358,0,0,0-.008-.043.3.3,0,0,0-.007-.045.34.34,0,0,0-.007-.046l-.01-.045-.009-.043a.3.3,0,0,0-.012-.045.3.3,0,0,0-.012-.043.4.4,0,0,1-.012-.043l-.014-.046c-.005-.014-.011-.028-.017-.043l-.014-.04-.019-.043c0-.015-.011-.029-.017-.043l-.019-.041-.019-.041-.022-.04-.021-.041-.024-.038-.024-.04-.024-.039-.024-.038-.026-.036-.029-.038-.026-.036c-.01-.011-.019-.023-.029-.036l-.028-.033a.211.211,0,0,1-.031-.036c-.01-.011-.02-.022-.032-.033s-.021-.02-.031-.031l-.033-.034c-.011-.009-.022-.02-.033-.031l-.034-.031-.033-.029c-.013-.009-.025-.019-.036-.028a.351.351,0,0,0-.036-.029l-.036-.026a.428.428,0,0,0-.038-.026l-.038-.027a.24.24,0,0,0-.039-.026l-.038-.024a.282.282,0,0,0-.038-.021l-.041-.024-.04-.022-.041-.019-.04-.019-.041-.019a.383.383,0,0,0-.043-.017l-.043-.017-.043-.016-.043-.015-.043-.014a.345.345,0,0,1-.043-.012.3.3,0,0,0-.045-.012l-.043-.009a.272.272,0,0,0-.046-.01L51,29.171l-.043-.007-.046-.007-.045,0a.242.242,0,0,0-.045,0l-.046,0-.045,0a.324.324,0,0,1-.045,0Z" transform="translate(0 0)"/>
    </g>
    <g>
      <polygon points="31.174 28.963 50.187 29.682 50.498 32.654 31.095 36.394 31.174 28.963"/>
      <path d="M31.764,29.582l17.883.677.2,1.912L31.7,35.669l.064-6.087m-1.181-1.239-.093,8.776,20.66-3.982-.423-4.032-20.144-.762Z" transform="translate(0 0)"/>
    </g>
    <g>
      <polygon points="29.034 35.975 28.232 28.877 29.034 21.781 29.708 21.781 30.51 28.877 29.708 35.975 29.034 35.975"/>
      <path d="M29.371,24.115l.538,4.763-.538,4.762-.538-4.762.538-4.763m.871-2.931H28.5l-.869,7.694.869,7.694h1.742l.869-7.694-.869-7.694Z" transform="translate(0 0)"/>
    </g>
    <g>
      <polygon points="29.142 55.201 27.784 36.677 31.208 36.677 29.547 55.201 29.142 55.201"/>
      <path d="M30.555,37.274,29.384,50.339l-.958-13.065h2.129m1.306-1.194h-4.72L28.586,55.8h1.508L31.861,36.08Z" transform="translate(0 0)"/>
    </g>
    <g>
      <polygon points="23.379 53.738 28.121 50.078 28.991 54.463 23.549 54.465 23.379 53.738"/>
      <path d="M27.723,51.14l.541,2.726-4.075,0,3.534-2.728m.8-2.123L22.71,53.5l.366,1.562,6.642,0-1.2-6.043Z" transform="translate(0 0)"/>
    </g>
    <g>
      <polygon points="29.782 54.314 30.652 49.93 35.394 53.588 35.224 54.314 29.782 54.314"/>
      <path d="M31.05,50.991l3.534,2.727H30.509l.541-2.727m-.8-2.122-1.2,6.043H35.7l.366-1.562-5.809-4.481Z" transform="translate(0 0)"/>
    </g>
    <g>
      <rect x="22.744" width="1.794" height="8.256" y="24.829"/>
      <path d="M23.94,25.426v7.061h-.6V25.426h.6m1.2-1.194H22.146v9.449h2.989V24.232Z" transform="translate(0 0)"/>
    </g>
    <g>
      <rect x="34.09" width="1.793" height="8.257" y="24.903"/>
      <path d="M35.287,25.5v7.063h-.6V25.5h.6m1.194-1.194H33.493v9.452h2.988V24.306Z" transform="translate(0 0)"/>
    </g>
    <g>
      <rect x="28.625" width="2.028" height="2.027" y="34.47"/>
      <path d="M30.055,35.067V35.9h-.833v-.833h.833m1.2-1.2H28.027V37.1H31.25V33.872Z" transform="translate(0 0)"/>
    </g>
    <g>
      <path d="M7.83,6.585a12.325,12.325,0,0,1,2.147-.168,3.832,3.832,0,0,1,2.315.516,1.707,1.707,0,0,1,.839,1.511A1.878,1.878,0,0,1,11.788,10.2v.024a2.04,2.04,0,0,1,1.631,2,2.1,2.1,0,0,1-.78,1.668,4.5,4.5,0,0,1-3,.755,14.3,14.3,0,0,1-1.811-.108ZM9.293,9.776h.756c1.019,0,1.6-.48,1.6-1.164,0-.755-.576-1.1-1.511-1.1a4.015,4.015,0,0,0-.84.06Zm0,3.718a6.52,6.52,0,0,0,.78.036c.948,0,1.787-.36,1.787-1.356,0-.935-.816-1.319-1.835-1.319H9.293Z" transform="translate(0 0)"/>
      <path d="M21.914,10.436c0,2.71-1.643,4.257-3.874,4.257-2.279,0-3.718-1.739-3.718-4.114,0-2.482,1.559-4.233,3.838-4.233C20.523,6.346,21.914,8.133,21.914,10.436Zm-6.033.119c0,1.643.827,2.951,2.243,2.951s2.231-1.319,2.231-3.011c0-1.523-.756-2.962-2.231-2.962S15.881,8.888,15.881,10.555Z" transform="translate(0 0)"/>
      <path d="M30.014,11.263c-.048-1.044-.108-2.3-.1-3.394h-.036c-.263.983-.6,2.074-.96,3.094l-1.174,3.5h-1.14l-1.079-3.454c-.313-1.032-.6-2.135-.816-3.142h-.024c-.036,1.055-.084,2.339-.144,3.442l-.179,3.25h-1.38l.54-8.083h1.942l1.056,3.25c.288.947.54,1.907.744,2.806H27.3c.216-.875.492-1.871.8-2.818l1.115-3.238h1.919l.467,8.083H30.17Z" transform="translate(0 0)"/>
      <path d="M33.113,6.585a12.334,12.334,0,0,1,2.147-.168,3.83,3.83,0,0,1,2.315.516,1.707,1.707,0,0,1,.839,1.511A1.88,1.88,0,0,1,37.071,10.2v.024a2.039,2.039,0,0,1,1.631,2,2.1,2.1,0,0,1-.779,1.668,4.5,4.5,0,0,1-3,.755,14.283,14.283,0,0,1-1.811-.108Zm1.463,3.191h.756c1.02,0,1.595-.48,1.595-1.164,0-.755-.575-1.1-1.511-1.1a4.015,4.015,0,0,0-.84.06Zm0,3.718a6.543,6.543,0,0,0,.78.036c.948,0,1.787-.36,1.787-1.356,0-.935-.816-1.319-1.835-1.319h-.732Z" transform="translate(0 0)"/>
      <path d="M44.547,10.975H41.5V13.35h3.405v1.211H40.025V6.478h4.7V7.689H41.5V9.776h3.046Z" transform="translate(0 0)"/>
      <path d="M46.205,6.585a14,14,0,0,1,2.231-.168,3.744,3.744,0,0,1,2.495.648,2.047,2.047,0,0,1,.7,1.619,2.154,2.154,0,0,1-1.463,2.027v.036a2.06,2.06,0,0,1,1.127,1.559,16.163,16.163,0,0,0,.636,2.255H50.4a11.545,11.545,0,0,1-.539-1.907c-.228-1.055-.612-1.391-1.451-1.415h-.744v3.322H46.205Zm1.463,3.575h.876c1,0,1.619-.528,1.619-1.332,0-.888-.624-1.295-1.583-1.295a4.245,4.245,0,0,0-.912.072Z" transform="translate(0 0)"/>
    </g>
  </g>
</svg>