<svg width="60" height="60" xmlns="http://www.w3.org/2000/svg" viewBox="0 0 60 60">
  <rect fill="#999" x="15" width="45" height="60"/>
  <g>
    <rect fill="#999" height="60" width="60"/>
    <polygon fill="#666766" points="31.281 30.545 31.281 0 0 0 31.281 30.545" fill-rule="evenodd"/>
    <polygon fill="#666766" points="60 60 60 30 29.277 30 60 60" fill-rule="evenodd"/>
    <rect fill="#666766" x="2.768" width="57.232" height="32.403"/>
    <rect fill="#cccccb" x="2.768" width="54.496" height="54.702" y="2.649"/>
  </g>
  <g>
    <g>
      <path fill="#333" d="M7.938,15.266a.623.623,0,0,1-.465-.168.634.634,0,0,1-.166-.468V7.394a.647.647,0,0,1,.16-.474.619.619,0,0,1,.459-.161.616.616,0,0,1,.458.161.647.647,0,0,1,.16.474V14.2h3.691a.561.561,0,0,1,.405.137.518.518,0,0,1,.142.39.538.538,0,0,1-.142.4.544.544,0,0,1-.405.144Z"/>
      <path fill="#333" d="M16.21,15.374A2.954,2.954,0,0,1,14.693,15a2.558,2.558,0,0,1-.994-1.055,3.437,3.437,0,0,1-.357-1.609,3.648,3.648,0,0,1,.2-1.26,2.8,2.8,0,0,1,.578-.954,2.469,2.469,0,0,1,.9-.612A3.188,3.188,0,0,1,16.21,9.3a2.93,2.93,0,0,1,1.506.372,2.579,2.579,0,0,1,.994,1.049,3.426,3.426,0,0,1,.357,1.614,3.7,3.7,0,0,1-.2,1.26,2.7,2.7,0,0,1-.577.96,2.471,2.471,0,0,1-.905.606A3.156,3.156,0,0,1,16.21,15.374Zm0-.936a1.534,1.534,0,0,0,.857-.239,1.583,1.583,0,0,0,.578-.709,2.828,2.828,0,0,0,.208-1.152,2.342,2.342,0,0,0-.452-1.559,1.492,1.492,0,0,0-1.191-.529,1.589,1.589,0,0,0-.869.234,1.552,1.552,0,0,0-.577.7,2.848,2.848,0,0,0-.208,1.152,2.373,2.373,0,0,0,.452,1.56A1.487,1.487,0,0,0,16.21,14.438Z"/>
      <path fill="#333" d="M23.043,17.534A5.84,5.84,0,0,1,21.8,17.4a3.512,3.512,0,0,1-1.089-.433.5.5,0,0,1-.238-.233.461.461,0,0,1-.03-.283.527.527,0,0,1,.125-.252.458.458,0,0,1,.232-.144.394.394,0,0,1,.291.048,3.683,3.683,0,0,0,1,.39,4.131,4.131,0,0,0,.875.1,1.678,1.678,0,0,0,1.25-.426,1.727,1.727,0,0,0,.416-1.254V13.7h.107a1.784,1.784,0,0,1-.75,1.044,2.319,2.319,0,0,1-1.321.383,2.53,2.53,0,0,1-1.369-.365,2.46,2.46,0,0,1-.9-1.02,3.438,3.438,0,0,1-.321-1.531,3.587,3.587,0,0,1,.184-1.188,2.74,2.74,0,0,1,.524-.912,2.322,2.322,0,0,1,.822-.594A2.636,2.636,0,0,1,22.662,9.3a2.306,2.306,0,0,1,1.327.383,1.739,1.739,0,0,1,.732,1.044l-.119.2v-1a.609.609,0,0,1,.161-.456.691.691,0,0,1,.875,0,.623.623,0,0,1,.155.456v4.836a2.786,2.786,0,0,1-.7,2.064A2.789,2.789,0,0,1,23.043,17.534Zm-.1-3.359a1.6,1.6,0,0,0,.893-.241,1.564,1.564,0,0,0,.572-.684,2.509,2.509,0,0,0,.2-1.044,2.141,2.141,0,0,0-.446-1.427,1.516,1.516,0,0,0-1.221-.529,1.583,1.583,0,0,0-.881.24,1.625,1.625,0,0,0-.577.678,2.412,2.412,0,0,0-.208,1.038,2.144,2.144,0,0,0,.452,1.44A1.518,1.518,0,0,0,22.947,14.175Z"/>
      <path fill="#333" d="M28.078,8.1a.791.791,0,0,1-.554-.18.649.649,0,0,1-.2-.5.651.651,0,0,1,.2-.51.967.967,0,0,1,1.107,0,.645.645,0,0,1,.2.51.643.643,0,0,1-.2.5A.787.787,0,0,1,28.078,8.1Zm0,7.236a.558.558,0,0,1-.44-.174.7.7,0,0,1-.155-.486V10a.681.681,0,0,1,.155-.48.572.572,0,0,1,.44-.168.589.589,0,0,1,.446.168.67.67,0,0,1,.161.48v4.68a.705.705,0,0,1-.155.486A.573.573,0,0,1,28.078,15.338Z"/>
      <path fill="#333" d="M32.411,15.374a5.077,5.077,0,0,1-1.077-.12,3.184,3.184,0,0,1-1.018-.408.592.592,0,0,1-.214-.24.488.488,0,0,1-.042-.27.439.439,0,0,1,.107-.24.391.391,0,0,1,.226-.126.441.441,0,0,1,.292.061,3.457,3.457,0,0,0,.893.365,3.581,3.581,0,0,0,.845.1,1.636,1.636,0,0,0,.952-.228.714.714,0,0,0,.321-.612.59.59,0,0,0-.214-.486,1.567,1.567,0,0,0-.643-.269l-1.13-.228a2.115,2.115,0,0,1-1.119-.553,1.39,1.39,0,0,1-.381-1.007,1.585,1.585,0,0,1,.3-.96,1.913,1.913,0,0,1,.834-.631A3.211,3.211,0,0,1,32.578,9.3a3.588,3.588,0,0,1,.987.131,3.049,3.049,0,0,1,.858.4.406.406,0,0,1,.2.223.482.482,0,0,1,.018.27.5.5,0,0,1-.125.233.384.384,0,0,1-.232.121.542.542,0,0,1-.3-.066,2.565,2.565,0,0,0-.708-.325,2.629,2.629,0,0,0-.7-.1,1.575,1.575,0,0,0-.947.235.742.742,0,0,0-.315.629.665.665,0,0,0,.19.492,1.156,1.156,0,0,0,.6.277l1.13.228a2.379,2.379,0,0,1,1.173.527,1.315,1.315,0,0,1,.4,1.008,1.537,1.537,0,0,1-.655,1.308A2.868,2.868,0,0,1,32.411,15.374Z"/>
      <path fill="#333" d="M38.554,15.374a2.6,2.6,0,0,1-1.2-.252,1.606,1.606,0,0,1-.726-.744,2.728,2.728,0,0,1-.238-1.2V10.346h-.714a.51.51,0,0,1-.369-.126.454.454,0,0,1-.131-.342.447.447,0,0,1,.131-.347.521.521,0,0,1,.369-.121h.714V8.175a.6.6,0,0,1,.161-.456.614.614,0,0,1,.446-.157.594.594,0,0,1,.441.157.62.62,0,0,1,.154.456V9.41h1.393a.521.521,0,0,1,.369.121.444.444,0,0,1,.131.347.45.45,0,0,1-.131.342.51.51,0,0,1-.369.126H37.589v2.736a1.479,1.479,0,0,0,.268.96,1.071,1.071,0,0,0,.875.324,1.491,1.491,0,0,0,.375-.042,2.3,2.3,0,0,1,.268-.054.279.279,0,0,1,.214.091.508.508,0,0,1,.083.341.867.867,0,0,1-.065.336.338.338,0,0,1-.232.2,2.722,2.722,0,0,1-.387.09A2.6,2.6,0,0,1,38.554,15.374Z"/>
      <path fill="#333" d="M41.125,8.1a.789.789,0,0,1-.554-.18.646.646,0,0,1-.2-.5.648.648,0,0,1,.2-.51.967.967,0,0,1,1.107,0,.648.648,0,0,1,.2.51.647.647,0,0,1-.2.5A.79.79,0,0,1,41.125,8.1Zm0,7.236a.559.559,0,0,1-.441-.174.705.705,0,0,1-.155-.486V10a.686.686,0,0,1,.155-.48.573.573,0,0,1,.441-.168.592.592,0,0,1,.446.168.669.669,0,0,1,.16.48v4.68a.705.705,0,0,1-.154.486A.573.573,0,0,1,41.125,15.338Z"/>
      <path fill="#333" d="M45.981,15.374A3.013,3.013,0,0,1,44.439,15a2.579,2.579,0,0,1-1.005-1.068,3.487,3.487,0,0,1-.357-1.625,3.653,3.653,0,0,1,.2-1.254,2.6,2.6,0,0,1,.577-.943,2.565,2.565,0,0,1,.917-.594,3.383,3.383,0,0,1,2.083-.084,2.58,2.58,0,0,1,.851.415.421.421,0,0,1,.2.233.572.572,0,0,1,.013.282.484.484,0,0,1-.131.246.4.4,0,0,1-.244.12.484.484,0,0,1-.31-.078,2.018,2.018,0,0,0-.584-.294,1.965,1.965,0,0,0-.571-.09,1.938,1.938,0,0,0-.756.138,1.5,1.5,0,0,0-.553.4,1.675,1.675,0,0,0-.339.642,3.09,3.09,0,0,0-.114.876,2.359,2.359,0,0,0,.459,1.542,1.59,1.59,0,0,0,1.3.558,2.094,2.094,0,0,0,.571-.084,1.857,1.857,0,0,0,.584-.288.464.464,0,0,1,.31-.072.389.389,0,0,1,.231.126.525.525,0,0,1,.12.24.545.545,0,0,1-.018.282.449.449,0,0,1-.2.24,2.458,2.458,0,0,1-.827.4A3.321,3.321,0,0,1,45.981,15.374Z"/>
      <path fill="#333" d="M51.017,15.374a5.079,5.079,0,0,1-1.078-.12,3.184,3.184,0,0,1-1.018-.408.6.6,0,0,1-.214-.24.488.488,0,0,1-.041-.27.438.438,0,0,1,.106-.24A.39.39,0,0,1,49,13.97a.442.442,0,0,1,.292.061,3.437,3.437,0,0,0,.892.365,3.593,3.593,0,0,0,.845.1,1.633,1.633,0,0,0,.952-.228.713.713,0,0,0,.322-.612.593.593,0,0,0-.214-.486,1.573,1.573,0,0,0-.643-.269l-1.131-.228a2.119,2.119,0,0,1-1.119-.553,1.394,1.394,0,0,1-.381-1.007,1.586,1.586,0,0,1,.3-.96,1.91,1.91,0,0,1,.833-.631A3.214,3.214,0,0,1,51.183,9.3a3.6,3.6,0,0,1,.988.131,3.056,3.056,0,0,1,.857.4.4.4,0,0,1,.2.223.491.491,0,0,1,.019.27.5.5,0,0,1-.125.233.387.387,0,0,1-.233.121.54.54,0,0,1-.3-.066,2.57,2.57,0,0,0-.709-.325,2.629,2.629,0,0,0-.7-.1,1.572,1.572,0,0,0-.946.235.74.74,0,0,0-.316.629.666.666,0,0,0,.191.492,1.152,1.152,0,0,0,.595.277l1.131.228a2.376,2.376,0,0,1,1.172.527,1.311,1.311,0,0,1,.4,1.008,1.537,1.537,0,0,1-.655,1.308A2.865,2.865,0,0,1,51.017,15.374Z"/>
    </g>
    <g>
      <path fill="#333" d="M16.756,53.732a4.25,4.25,0,0,1-2.179-.528A3.485,3.485,0,0,1,13.19,51.7a5.175,5.175,0,0,1-.481-2.31,5.511,5.511,0,0,1,.273-1.793,3.884,3.884,0,0,1,.792-1.369,3.369,3.369,0,0,1,1.273-.87,4.6,4.6,0,0,1,1.709-.3,4.739,4.739,0,0,1,1.351.192,3.481,3.481,0,0,1,1.124.552.639.639,0,0,1,.269.318.611.611,0,0,1,.023.354.57.57,0,0,1-.161.282.465.465,0,0,1-.3.126.643.643,0,0,1-.4-.132,2.746,2.746,0,0,0-.868-.444,3.44,3.44,0,0,0-1-.144,2.871,2.871,0,0,0-1.524.378,2.388,2.388,0,0,0-.941,1.1,4.291,4.291,0,0,0-.321,1.752,4.334,4.334,0,0,0,.321,1.758,2.379,2.379,0,0,0,.941,1.1,2.871,2.871,0,0,0,1.524.378,3.359,3.359,0,0,0,1-.15,3.278,3.278,0,0,0,.911-.45.665.665,0,0,1,.387-.12.467.467,0,0,1,.291.12.534.534,0,0,1,.161.27.6.6,0,0,1-.012.336.545.545,0,0,1-.232.294,3.372,3.372,0,0,1-1.155.6A4.726,4.726,0,0,1,16.756,53.732Z"/>
      <path fill="#333" d="M21.505,53.708a.58.58,0,0,1-.44-.162.621.621,0,0,1-.155-.45v-7.4a.618.618,0,0,1,.155-.456.6.6,0,0,1,.44-.156.619.619,0,0,1,.447.156.607.607,0,0,1,.16.456v3.324h-.166A1.99,1.99,0,0,1,22.767,48a2.414,2.414,0,0,1,1.286-.342,2.313,2.313,0,0,1,1.148.258,1.592,1.592,0,0,1,.685.78,3.314,3.314,0,0,1,.226,1.314V53.1a.626.626,0,0,1-.155.45.58.58,0,0,1-.44.162.6.6,0,0,1-.453-.162.625.625,0,0,1-.154-.45V50.084a1.7,1.7,0,0,0-.292-1.1,1.122,1.122,0,0,0-.91-.348,1.527,1.527,0,0,0-1.161.456,1.7,1.7,0,0,0-.435,1.224V53.1A.539.539,0,0,1,21.505,53.708Z"/>
      <path fill="#333" d="M29.624,53.732a2.412,2.412,0,0,1-1.09-.24,1.928,1.928,0,0,1-.756-.647,1.629,1.629,0,0,1-.273-.925,1.515,1.515,0,0,1,.327-1.026,1.926,1.926,0,0,1,1.083-.54,10.179,10.179,0,0,1,2.042-.162h.559v.744h-.547a8.71,8.71,0,0,0-1.357.084,1.349,1.349,0,0,0-.709.283.713.713,0,0,0-.208.545.952.952,0,0,0,.309.738,1.228,1.228,0,0,0,.857.282,1.42,1.42,0,0,0,.774-.21,1.524,1.524,0,0,0,.53-.57,1.7,1.7,0,0,0,.2-.827V49.88a1.4,1.4,0,0,0-.285-.984,1.256,1.256,0,0,0-.941-.3,3.471,3.471,0,0,0-.791.1,3.716,3.716,0,0,0-.851.324.523.523,0,0,1-.346.06.37.37,0,0,1-.226-.162.534.534,0,0,1-.089-.276.565.565,0,0,1,.071-.293.479.479,0,0,1,.268-.217,4.584,4.584,0,0,1,1.036-.36,4.673,4.673,0,0,1,.964-.108,3,3,0,0,1,1.315.252,1.614,1.614,0,0,1,.768.768,3.061,3.061,0,0,1,.25,1.332V53.1a.654.654,0,0,1-.143.45.525.525,0,0,1-.416.162.549.549,0,0,1-.417-.162.625.625,0,0,1-.154-.45v-.78h.106a1.785,1.785,0,0,1-.351.762,1.669,1.669,0,0,1-.636.486A2.138,2.138,0,0,1,29.624,53.732Z"/>
      <path fill="#333" d="M34.766,53.708a.6.6,0,0,1-.452-.162.621.621,0,0,1-.155-.45V48.3a.618.618,0,0,1,.155-.456.673.673,0,0,1,.862,0,.637.637,0,0,1,.149.456v.876h-.119a1.893,1.893,0,0,1,.7-1.092,2.506,2.506,0,0,1,1.31-.432.435.435,0,0,1,.339.108.529.529,0,0,1,.137.372.513.513,0,0,1-.107.4.576.576,0,0,1-.405.174l-.226.024a1.809,1.809,0,0,0-1.179.492,1.6,1.6,0,0,0-.4,1.152V53.1a.641.641,0,0,1-.149.45A.593.593,0,0,1,34.766,53.708Z"/>
      <path fill="#333" d="M41.4,53.732a2.6,2.6,0,0,1-1.2-.252,1.606,1.606,0,0,1-.726-.744,2.746,2.746,0,0,1-.237-1.2V48.7h-.715a.51.51,0,0,1-.369-.126.52.52,0,0,1,0-.69.525.525,0,0,1,.369-.12h.715V46.532a.607.607,0,0,1,.16-.456.614.614,0,0,1,.446-.156.593.593,0,0,1,.441.156.622.622,0,0,1,.155.456v1.236h1.392a.525.525,0,0,1,.369.12.52.52,0,0,1,0,.69.51.51,0,0,1-.369.126H40.432V51.44a1.481,1.481,0,0,0,.267.96,1.074,1.074,0,0,0,.875.324,1.491,1.491,0,0,0,.375-.042,2,2,0,0,1,.268-.054.275.275,0,0,1,.214.091.507.507,0,0,1,.084.341.853.853,0,0,1-.066.336.34.34,0,0,1-.232.2,2.689,2.689,0,0,1-.387.09A2.59,2.59,0,0,1,41.4,53.732Z"/>
      <path fill="#333" d="M45.3,53.732a5.077,5.077,0,0,1-1.077-.12,3.208,3.208,0,0,1-1.018-.408.592.592,0,0,1-.214-.24.488.488,0,0,1-.042-.27.447.447,0,0,1,.107-.24.385.385,0,0,1,.226-.126.445.445,0,0,1,.292.06,3.427,3.427,0,0,0,.893.366,3.634,3.634,0,0,0,.845.1,1.643,1.643,0,0,0,.952-.228.712.712,0,0,0,.321-.612.593.593,0,0,0-.213-.486,1.56,1.56,0,0,0-.643-.269L44.6,51.032a2.114,2.114,0,0,1-1.119-.552,1.4,1.4,0,0,1-.381-1.008,1.581,1.581,0,0,1,.3-.96,1.9,1.9,0,0,1,.833-.63,3.214,3.214,0,0,1,1.238-.222,3.6,3.6,0,0,1,.988.132,3.029,3.029,0,0,1,.857.4.4.4,0,0,1,.2.222.483.483,0,0,1,.018.27.5.5,0,0,1-.125.234.378.378,0,0,1-.232.12.529.529,0,0,1-.3-.065,2.583,2.583,0,0,0-.709-.325,2.629,2.629,0,0,0-.7-.1,1.577,1.577,0,0,0-.946.234.743.743,0,0,0-.316.63.669.669,0,0,0,.191.492,1.148,1.148,0,0,0,.595.276l1.131.228a2.38,2.38,0,0,1,1.172.528,1.311,1.311,0,0,1,.4,1.008,1.537,1.537,0,0,1-.655,1.308A2.873,2.873,0,0,1,45.3,53.732Z"/>
    </g>
    <path fill="#cc2028" stroke-width="0.804" d="M37.883,20.377V40.706l-.109-.038-.024-.01-.051-.024-.073-.039-.178-.1-.183-.095-.062-.034-.1-.056-.019-.011-.046-.031-.115-.085-.179-.14L36.687,40l-.128-.114-.166-.148-.147-.126-.063-.053-.162-.153-.064-.055-.114-.1-.037-.032-.2-.183-.212-.178-.127-.1-.158-.143-.213-.2-.162-.146-.126-.119-.1-.107-.058-.063L34.4,37.9l-.06-.074-.125-.158-.135-.167c-.136-.173-.21-.265-.222-.275l-.065-.071-.127-.139-.211-.226-.126-.119-.166-.165-.146-.146L32.95,36.3l-.1-.1-.143-.159-.13-.149-.122-.15-.09-.124-.106-.158-.085-.132,0,0-.12-.191-.175-.267-.031-.081-.031-.087-.057-.17-.027-.1-.005-.013-.033-.148-.019-.073-.056-.262-.017-.062-.059-.191L31.49,33.5l-.007-.015-.024-.085-.019-.087-.016-.079-.016-.088h0L31.386,33l-.047-.306,0-.013-.024-.1-.005-.025-.015-.063-.005-.028-.021-.2-.021-.187-.013-.1-.021-.148-.019-.138-.006-.04,0-.031-.006-.107,0-.132v-.434c0-.225,0-.351,0-.376l0-.117,0-.248V30.16l.007-.048.007-.04.049-.228.045-.206c.042-.209.064-.322.065-.336h0l.037-.269.013-.109.011-.118.029-.22.026-.232.017-.19.019-.175.023-.058.072-.154c.09-.182.137-.278.141-.29l.023-.057.007-.018.065-.14.029-.068.046-.1.029-.063.064-.148.051-.119.066-.159.025-.07.031-.056.009-.017.15-.227.059-.1.121-.2.085-.153.043-.079.1-.169.083-.143.088-.151.008-.015.067-.124.038-.07L33.038,25l.035-.069.066-.13.063-.106.165-.226.008-.009.094-.126.136-.177.127-.18.109-.161.046-.068.139-.18c.15-.174.227-.264.231-.271l.1-.129.071-.085.093-.11.132-.145.016-.02.194-.2.019-.022.089-.093.039-.032.088-.071q.261-.193.294-.228l.065-.063.1-.084.042-.033.2-.135.2-.141a4.182,4.182,0,0,0,.332-.257l.078-.072.039-.034c.133-.082.226-.144.281-.185.122-.088.193-.141.214-.159l.12-.1.113-.075.136-.076.034-.022c.1-.055.183-.108.259-.159l.043-.03.116-.078.109-.075" stroke-linejoin="round" stroke-linecap="round" stroke="#cd2037"/>
    <path fill="none" stroke-width="1.459" d="M53.054,30.418c0,.082,0,.163,0,.246s0,.166-.007.249,0,.164-.011.246-.009.165-.016.248-.013.164-.022.247-.018.163-.027.246-.022.163-.034.244-.025.163-.038.244-.03.162-.046.243-.032.162-.049.242-.035.161-.055.241-.041.161-.061.24-.043.159-.066.238-.047.159-.072.237-.05.157-.077.235-.054.156-.082.233-.057.155-.087.232-.061.153-.093.228-.064.153-.1.229-.067.149-.1.224-.07.149-.107.224-.074.146-.113.219-.077.145-.117.217l-.123.216c-.042.071-.084.141-.127.211s-.087.141-.132.209-.09.139-.136.206-.095.135-.143.2-.1.133-.145.2l-.151.2-.155.192q-.077.1-.159.189t-.162.186c-.055.061-.112.122-.168.181s-.113.119-.17.178-.117.117-.177.175l-.178.169-.183.166-.188.162-.189.157-.194.153c-.065.05-.132.1-.2.149s-.134.1-.2.143-.135.094-.2.14-.138.09-.208.135-.139.087-.21.129-.14.085-.211.126l-.215.12c-.073.04-.146.078-.219.116s-.147.075-.221.11-.148.072-.224.106-.148.068-.224.1-.152.066-.228.1l-.23.09q-.115.043-.231.084c-.078.028-.156.055-.234.08l-.234.075-.238.069-.24.063c-.079.02-.159.039-.239.057s-.16.038-.241.054-.161.033-.242.048l-.242.04c-.081.014-.163.026-.244.037l-.246.031c-.081.009-.163.018-.246.025s-.163.014-.245.02-.165.009-.246.013l-.248.01h-.493l-.247-.01c-.083,0-.164-.007-.246-.013s-.165-.012-.247-.02-.164-.016-.246-.025l-.244-.031c-.081-.011-.163-.023-.244-.037l-.243-.04-.241-.048c-.081-.016-.162-.034-.242-.054s-.159-.037-.239-.057l-.238-.063-.238-.069c-.08-.024-.158-.049-.236-.075s-.155-.052-.233-.08-.155-.055-.232-.084l-.23-.09c-.076-.032-.152-.064-.226-.1s-.152-.065-.226-.1-.15-.07-.224-.106-.147-.072-.219-.11-.147-.076-.218-.116l-.217-.12c-.071-.041-.142-.082-.212-.126s-.14-.084-.21-.129-.138-.089-.207-.135-.136-.092-.2-.14-.133-.1-.2-.143l-.2-.149q-.1-.075-.2-.153l-.191-.157-.186-.162c-.062-.055-.123-.11-.183-.166s-.121-.112-.179-.169l-.175-.175c-.058-.058-.116-.117-.172-.178s-.112-.12-.167-.181-.11-.124-.163-.186-.107-.125-.159-.189-.1-.127-.154-.192-.1-.131-.151-.2-.1-.133-.146-.2-.1-.135-.142-.2-.091-.137-.136-.206-.089-.138-.134-.209-.085-.14-.127-.211-.082-.144-.122-.216-.08-.144-.118-.217-.076-.146-.113-.219-.072-.149-.107-.224-.069-.149-.1-.224-.066-.153-.1-.229-.061-.151-.091-.228-.059-.155-.088-.232-.056-.155-.082-.233-.052-.156-.077-.235-.048-.157-.071-.237-.045-.158-.066-.238-.041-.159-.061-.24-.038-.16-.056-.241-.034-.161-.05-.242-.029-.162-.043-.243-.027-.163-.038-.244-.025-.163-.034-.244-.02-.165-.029-.246-.015-.165-.021-.247-.013-.165-.018-.248-.008-.163-.011-.246,0-.165,0-.249,0-.163,0-.246,0-.165,0-.248.008-.165.011-.248.011-.164.018-.247.013-.163.021-.246.018-.164.029-.246.021-.164.034-.245.024-.163.038-.244.029-.161.043-.243.033-.161.05-.242.037-.161.056-.241.039-.161.061-.24.043-.159.066-.239.046-.158.071-.236.05-.158.077-.235.054-.156.082-.233.058-.155.088-.232.061-.154.091-.229.065-.152.1-.228.067-.15.1-.224.071-.15.107-.224.075-.146.113-.219.078-.145.118-.217.081-.144.122-.216.084-.141.127-.211.089-.141.134-.21.09-.138.136-.2.094-.137.142-.2.1-.133.146-.2.1-.131.151-.2.1-.129.154-.192.105-.128.159-.19.108-.124.163-.185.11-.122.167-.182l.172-.179c.057-.057.116-.116.175-.173s.119-.113.179-.169.121-.111.183-.166l.186-.163.191-.156c.065-.052.13-.1.2-.153s.131-.1.2-.15.132-.1.2-.143l.2-.14c.069-.045.138-.089.207-.135s.14-.087.21-.129.142-.084.212-.125.144-.081.217-.121.144-.079.218-.116.146-.074.219-.109.148-.072.224-.107.15-.068.226-.1.15-.065.226-.1l.23-.09c.077-.03.154-.057.232-.084s.155-.055.233-.081l.236-.074c.078-.023.157-.047.238-.069s.158-.043.238-.063l.239-.058c.08-.019.161-.037.242-.053s.161-.033.241-.048.163-.028.243-.04.163-.026.244-.037.163-.022.244-.031.164-.018.246-.026l.247-.019c.081,0,.163-.011.246-.015l.247-.008h.493c.083,0,.165,0,.248.01s.163.007.246.013.164.011.245.019.165.016.246.026.164.02.246.031.163.023.244.037l.242.041c.081.014.162.03.242.047s.161.034.241.053l.239.058c.081.02.16.042.24.063l.238.069c.078.023.156.048.234.074l.234.081c.077.027.154.054.231.084s.154.059.23.09.152.064.228.1.151.066.224.1.15.07.224.107.148.071.221.109.146.076.219.116l.215.121c.071.041.143.082.214.125s.139.085.208.131.139.088.207.133.137.093.2.14l.2.143.2.15c.065.05.13.1.194.153s.128.1.19.156.126.108.188.163l.183.166c.059.055.119.112.178.169s.119.117.176.175.115.117.17.177.113.121.169.182.108.122.162.185.108.126.16.19.1.127.154.192.1.13.151.2.1.133.146.2l.142.2c.046.068.091.137.136.2s.089.139.131.21.086.14.127.211.084.143.124.216l.117.217c.039.073.076.147.112.22s.073.147.108.222.069.149.1.224.067.153.1.229.064.152.094.228.059.155.087.232.056.155.081.233.053.157.078.235.048.158.072.237.044.159.065.238.042.159.062.24.037.161.054.242.034.161.05.241.031.163.045.243.027.163.039.245.023.163.034.246.019.164.027.245.016.164.022.246.012.166.016.248.009.164.011.247S53.053,30.335,53.054,30.418Z" stroke-linejoin="round" stroke-linecap="round" stroke="#cd2037"/>
    <g>
      <g>
        <path fill="#cc2028" d="M12.746,28.217a.113.113,0,0,1,0,.026V28.3l0,.026,0,.026,0,.025,0,.025,0,.026,0,.025-.006.026-.006.024-.006.026-.007.025-.007.024-.008.024-.008.025-.01.024-.009.024-.011.023-.011.024-.011.023-.012.023-.012.022-.013.023-.013.022-.014.022-.014.022-.015.021-.015.021-.016.02-.016.02-.017.02L12.451,29l-.016.019-.019.019-.018.018-.018.018-.019.016-.02.018-.02.016-.021.016-.021.016-.02.015-.023.014-.021.015-.022.014-.022.012-.023.013-.023.012-.023.012-.023.01-.023.011-.025.01-.023.009-.025.01-.023.008-.025.007-.025.009-.026.006-.024,0-.025.006-.026,0-.025.005-.026,0-.026,0-.026,0-.025,0h-.156l-.026,0-.025,0-.026,0-.026,0-.026-.005-.025,0-.024-.006-.027,0-.024-.006-.025-.009-.024-.007-.025-.008L11.2,29.3l-.024-.009-.024-.01-.023-.011-.024-.01-.022-.012-.024-.012-.022-.013-.023-.012-.021-.014-.022-.015-.022-.014-.021-.015-.02-.016-.02-.016-.021-.016-.02-.018-.019-.016-.018-.018-.019-.018-.018-.019L10.754,29l-.017-.019-.016-.02-.017-.02-.015-.02-.016-.021-.015-.021-.014-.022-.014-.022-.013-.022-.013-.023-.013-.022-.012-.023-.01-.023-.011-.024-.011-.023-.009-.024-.01-.024L10.52,28.6l-.008-.024-.007-.024-.007-.025-.007-.026-.006-.024,0-.026,0-.025,0-.026,0-.025,0-.025,0-.026,0-.026v-.128l0-.026,0-.026,0-.026,0-.026,0-.025,0-.025,0-.025.006-.026.007-.025.007-.024.007-.025.008-.025.008-.023.01-.025.009-.024.011-.023.011-.024.01-.023.012-.024a.159.159,0,0,0,.013-.022l.013-.023.013-.022.014-.021.014-.022.015-.021.016-.021.015-.021.017-.02.016-.02.017-.02.017-.019.018-.017.019-.019.018-.018.019-.017.02-.017.021-.016.02-.016.02-.016.021-.015.022-.015.022-.014.021-.013.023-.013.022-.013.024-.011L11.1,27.2l.024-.011.023-.011.024-.01.024-.01.024-.008.025-.009.024-.008.025-.007.024-.007.027-.006.024,0a.119.119,0,0,1,.026,0l.025,0,.026,0,.026,0,.025,0,.026,0h.156l.025,0,.026,0,.026,0,.026,0a.123.123,0,0,1,.025,0,.119.119,0,0,1,.026,0l.025,0,.024.006.026.007.025.007.025.008.023.009.025.008.023.01.025.01.023.011.023.011.023.012.023.011.023.013.022.013.022.013.021.014.023.015.02.015.021.016.021.016.02.016.02.017.019.017.018.018.018.019.019.017.016.019.018.02.017.02.016.02.016.021.015.021.015.021.014.022.014.021.013.022.013.023.012.022.012.024.011.023.011.024.011.023.009.024.01.025.008.023.008.025.007.025.007.024.006.025.006.026.006.025,0,.025,0,.025,0,.026,0,.026,0,.026,0,.026v.05Z"/>
        <path fill="#cc2028" d="M11.629,27.087h-.077l-.026,0-.027,0-.024,0-.026,0-.026,0-.025.005a.119.119,0,0,0-.026,0l-.025,0-.026.006-.024.007-.025.007-.025.008-.024.008-.024.009-.025.009-.023.011-.024.01L11.1,27.2l-.023.012-.023.012-.022.012-.023.013-.021.013-.023.014-.021.016-.021.014-.02.016-.021.016-.02.016-.02.017-.019.018-.019.017-.018.019-.018.018-.018.018-.016.021-.017.019-.016.021-.016.02-.015.021-.016.022-.014.021-.014.021-.012.023-.013.022-.013.022-.012.024-.011.023-.01.024-.011.024-.009.023-.01.025-.008.024-.008.024-.007.025-.007.024-.007.025-.006.026-.005.025,0,.026,0,.024,0,.026,0,.026,0,.026v.181l0,.025,0,.026,0,.025,0,.026,0,.024.005.026.006.025.007.026.007.024.007.025.008.024.008.024.01.025.009.023.011.024.01.023.011.024.012.022.013.023.013.022.012.023.014.022.014.021.016.022.015.021.016.02.016.02.017.02.016.019.018.018.018.019.018.019.019.018.019.016.02.018.02.015.021.017.02.015.021.016.021.014.023.014.021.014.023.013.022.013.023.012.023.011.023.011.024.011.023.009.025.01.024.009.024.009.025.007.025.008.024.006.026.006.025.006.024,0,.027.005.026,0,.026,0,.024,0,.027,0h.026l.026,0h.051l.026,0h.026l.025,0,.026,0,.026,0,.026,0,.025-.005.026,0,.025-.006.024-.006.026-.006.025-.008.025-.007.023-.009.025-.009.023-.01.025-.009.023-.011.023-.011.023-.011.023-.012.023-.013.022-.013.022-.014.021-.014.023-.014.02-.016.021-.015.021-.017.02-.015.02-.018.019-.016.018-.018.018-.019.019-.019L12.451,29l.018-.019.017-.02.016-.02.016-.02.015-.021.015-.022.015-.021.014-.022.013-.023.012-.022.012-.023.012-.022.012-.024.01-.023.011-.024.01-.023.009-.025.008-.024.008-.024.007-.025.007-.024.006-.026.006-.025.006-.026,0-.024,0-.026,0-.025,0-.026v-.025l0-.027v-.051a.113.113,0,0,0,0-.026v-.051l0-.026v-.026l0-.026,0-.026,0-.024,0-.026-.006-.025-.006-.026-.006-.025-.007-.024-.007-.025-.008-.024-.008-.024-.009-.025-.01-.023-.011-.024-.01-.024-.012-.023-.012-.024-.012-.022-.012-.022a.1.1,0,0,1-.013-.023l-.014-.021-.015-.021-.015-.022-.015-.021-.016-.02-.016-.021-.017-.019-.018-.021-.016-.018-.019-.018-.018-.019-.018-.017-.019-.018-.02-.017-.02-.016-.021-.016-.021-.016-.02-.014-.023-.016-.021-.014-.022-.013-.022-.013-.023-.012-.023-.012L12.1,27.2l-.023-.011-.023-.01-.025-.011-.023-.009-.025-.009-.023-.008-.025-.008-.025-.007-.026-.007-.024-.006-.025,0a.119.119,0,0,0-.026,0l-.025-.005-.026,0-.026,0-.026,0-.025,0-.026,0Z"/>
      </g>
      <g>
        <path fill="#cc2028" d="M15.879,28.255v.1l0,.026,0,.026,0,.024,0,.026,0,.026-.005.025-.006.026-.007.025-.007.024-.007.025-.008.024-.008.024-.01.025-.009.023-.011.024-.011.023-.01.024-.012.022-.013.024-.013.022-.013.022-.014.022-.014.021-.015.021-.015.022-.016.02-.016.02-.017.02-.016.02-.018.019-.018.017-.018.019-.019.018-.019.016-.02.018-.02.016-.021.016-.02.015-.021.016-.021.015-.023.014-.021.013-.023.013-.022.013-.024.012-.022.012-.024.01-.023.011-.024.011-.024.008-.024.009-.024.009-.025.008-.025.007-.024.006-.026.007-.025,0-.026,0-.025,0-.026,0-.026,0-.024,0-.027,0h-.156l-.025,0-.026,0-.026,0-.026,0-.025,0-.026,0-.024,0-.025-.007-.026-.006-.025-.007-.024-.008-.024-.009-.025-.009-.023-.008-.025-.011-.023-.011-.023-.01-.023-.012-.023-.012-.023-.013-.021-.013-.023-.013-.021-.014-.023-.015-.02-.016-.021-.015-.02-.016L14,29.14l-.02-.018-.019-.016-.018-.018-.018-.019-.019-.017-.016-.019-.018-.02-.016-.02-.017-.02-.015-.02-.016-.022-.015-.021-.014-.021-.014-.022-.013-.022-.013-.022-.012-.024-.011-.022-.012-.024-.011-.023-.011-.024-.009-.023-.01-.025-.008-.024-.008-.024-.007-.025-.007-.024-.006-.025-.006-.026-.005-.025,0-.026,0-.026,0-.024,0-.026,0-.026,0-.026V28.2l0-.026,0-.026,0-.026,0-.024,0-.026,0-.026.005-.025L13.624,28l.006-.026.007-.025.007-.025.008-.024.008-.024.01-.024.009-.024.011-.024.011-.023.012-.024.011-.022.012-.024.013-.022.013-.021.014-.023.014-.021.015-.021.016-.022.015-.019.017-.021.016-.02.018-.018.016-.019.019-.019.018-.019.018-.018.019-.016.02-.018.021-.016.02-.016.021-.015.02-.016.023-.014.021-.014.023-.014.021-.013.023-.013.023-.012.023-.011.023-.011.023-.011.025-.009.023-.01.025-.009.024-.009.024-.008.025-.007.026-.006.025-.006.024-.006.026,0,.025,0,.026,0,.026,0,.026,0,.025,0h.156l.027,0,.024,0,.026,0,.026,0,.025,0,.026,0,.025.006.026.006.024.006.025.007.025.008.024.009.024.009.024.01.024.009.023.011.024.011.022.011.024.012.022.013.023.013.021.014.023.014.021.014.021.016.02.015.021.016.02.016.02.018.019.016.019.018.018.019.018.019.018.019.016.018.017.02.016.021.016.019.015.022.015.021.014.021.014.023.013.021.013.022.013.024.012.022.01.024.011.023.011.024.009.024.01.024.008.024.008.024.007.025.007.025.007.026.006.024.005.025,0,.026,0,.026,0,.024,0,.026,0,.026v.078Z"/>
        <path fill="#cc2028" d="M15.257,28.078h0m-.509-.954h-.09l-.025,0-.026,0-.026,0-.026,0-.025,0-.026,0-.024.006-.025.006-.026.006-.025.007-.024.008-.024.008-.024.01-.024.01-.025.009-.023.011-.023.01-.023.012-.023.012-.023.013-.021.013-.023.014-.021.014-.023.014-.02.016-.021.015-.02.016-.02.016-.021.018-.018.016-.019.018-.018.019-.019.019-.016.019-.018.018-.016.02-.017.02-.015.02-.016.022-.015.021-.014.021-.014.023-.013.021-.013.022-.012.024-.011.022-.012.024-.011.023-.01.024-.01.023-.01.025-.008.024-.008.024-.007.025-.007.024L13.625,28l-.005.024-.006.025-.005.026,0,.026,0,.024,0,.026,0,.026V28.2l0,.026V28.3l0,.026v.026l0,.026,0,.026,0,.024,0,.026.005.026.006.025.005.026.006.025.007.024.007.025.008.025.008.023.01.025.01.023.01.024.011.023.012.024.011.022.012.024a.159.159,0,0,1,.013.022.171.171,0,0,1,.013.023l.014.021.014.021.015.022.016.021.015.02.017.02.016.02.018.02.016.019.019.018.018.018.019.018.018.016.021.018.02.017.02.015.021.016.02.015.023.015.021.015.023.013.021.012.023.013.023.012.023.012.023.011.023.01.025.011.024.008.024.009.024.009.024.008.025.007.026.006.025.007.024.005.026,0,.025,0,.026,0,.026,0,.026,0,.025,0h.026l.026,0h.052l.026,0h.026l.026,0,.024,0,.027,0,.026,0,.024,0,.026,0,.025-.005.026-.007.025-.006.024-.007.025-.008.025-.009.023-.009.025-.008.023-.011.024-.01.023-.011.023-.012.023-.012.023-.013.022-.012.021-.013.023-.015.021-.015.022-.015.02-.016.02-.015.02-.017.02-.018.019-.016.019-.018.019-.018.017-.018.018-.019.016-.02.017-.02.017-.02.015-.02.015-.021.016-.022.014-.021.014-.021.013-.023.013-.022.012-.024.012-.022.011-.024.01-.023.011-.024.01-.023.009-.025.008-.023.008-.025.007-.025.007-.024.007-.025.006-.026.005-.025,0-.026,0-.026,0-.024,0-.026,0-.026v-.18l0-.026,0-.026,0-.024,0-.026,0-.026-.005-.025L15.847,28l-.007-.027-.007-.024-.007-.025-.008-.024-.008-.024L15.8,27.85l-.01-.023L15.78,27.8l-.01-.023-.011-.024-.012-.022-.012-.024-.013-.022-.013-.021-.014-.023-.014-.021-.016-.021-.015-.022-.015-.02-.017-.02-.017-.02-.016-.018-.018-.019-.017-.019-.019-.019-.019-.018-.019-.016-.02-.018-.02-.016-.02-.016-.02-.015-.022-.016-.021-.014-.023-.014-.021-.014-.022-.013-.023-.013-.023-.012-.023-.012-.023-.01-.024-.011-.023-.009-.025-.01-.023-.01-.025-.008-.025-.008-.024-.007-.025-.006-.026-.006-.025-.006-.026,0-.024,0-.026,0-.027,0-.024,0-.026,0h-.066Z"/>
      </g>
      <path fill="none" stroke-width="0.59" d="M25.082,28.128v.085l0,.02,0,.021,0,.022,0,.02,0,.021,0,.02,0,.021-.005.021-.006.02-.006.02-.006.02-.007.02-.007.02-.009.02L25,28.518l-.008.018-.009.019-.01.019-.01.019-.011.017-.011.019-.01.018-.012.016-.012.018L24.9,28.7l-.013.018-.013.015-.014.017-.013.016-.015.016-.014.014-.016.015-.015.015-.016.014-.015.014-.016.013-.017.013-.017.013-.017.011-.018.012-.017.012-.018.012-.018.01-.019.01-.018.01-.019.01-.019.008-.019.009L24.5,29l-.02.008-.021.007-.02.007-.02.006-.02.006-.021.006-.021,0-.02,0-.02,0-.022,0-.021,0-.02,0-.021,0h-.17l-.021,0-.02,0-.022,0-.021,0-.02,0-.021,0-.021,0-.02-.006-.02-.006-.02-.006-.021-.007-.02-.007L23.8,29l-.019-.008-.019-.009-.018-.008-.019-.01-.019-.01-.019-.01-.017-.01-.018-.012-.018-.012-.017-.012L23.6,28.89l-.016-.013-.017-.013-.016-.013-.016-.014-.015-.014-.016-.015-.015-.015-.015-.014-.015-.016-.013-.016-.014-.017-.013-.015L23.4,28.7l-.012-.016-.012-.018-.012-.016-.011-.018-.01-.019-.011-.017-.011-.019-.009-.019-.01-.019-.008-.018-.008-.019-.008-.02-.007-.02-.007-.02-.007-.02-.006-.02-.006-.02,0-.021,0-.021,0-.02,0-.021,0-.02,0-.022,0-.021,0-.02v-.148l0-.022,0-.021,0-.02,0-.021,0-.021,0-.02,0-.02,0-.022.006-.02.006-.02.007-.02.007-.02.007-.019.008-.02.008-.019.008-.019.01-.019.009-.019.011-.018.011-.019.01-.018.011-.017.012-.018.012-.018.012-.016.013-.017.013-.016.014-.017.013-.015.015-.016.015-.015.015-.016.016-.014.015-.014.016-.013.016-.014.017-.013.016-.013.018-.012.017-.011.018-.012.018-.011.017-.01.019-.011.019-.01.019-.009.018-.01.019-.008.019-.008.02-.007.02-.009.021-.006.02-.007.02-.005.02,0,.021,0,.021,0,.02-.005.021,0,.022,0,.02,0,.021,0,.021,0h.127l.022,0,.021,0,.02,0,.021,0,.022,0,.02.005.02,0,.021,0,.021,0,.02.005.02.007.02.006.021.009.02.007.018.008.019.008.019.01.019.009.018.01.019.011.018.01.018.011.017.012.018.011.017.012.017.013.017.013.016.014.015.013.016.014.015.014.016.016.014.015.015.016.013.015.014.017.013.016.013.017.013.016.012.018.012.018.01.017.011.018.011.019.01.018.01.019.009.019L25,27.76l.008.019.009.02.007.019.007.02.006.02.006.02.006.02.005.022,0,.02,0,.02,0,.021,0,.021,0,.02,0,.021,0,.022v.063Z" stroke-linejoin="round" stroke-linecap="square" stroke="#cc2028"/>
      <g>
        <rect fill="#cc2028" x="9.277" width="9.396" height="3.623" y="21.757"/>
        <path fill="#cc2028" d="M18.378,22.053v3.031h-8.8V22.053h8.805m.591-.592H8.982v4.215h9.987V21.461Z"/>
      </g>
      <g>
        <polygon fill="#cc2028" points="16.753 26.643 16.749 26.425 21.195 26.509 21.195 26.823 16.753 26.643"/>
        <polygon fill="#cc2028" points="16.449 26.124 16.463 26.926 21.49 27.13 21.49 26.22 16.449 26.124"/>
      </g>
      <g>
        <polygon fill="#cc2028" points="20.41 26.027 22.54 26.149 21.398 27.599 20.459 27.611 20.41 26.027"/>
        <path fill="#cc2028" d="M20.714,26.34l1.244.071-.7.895-.51.006-.03-.972m-.609-.625.068,2.2,1.37-.018,1.579-2-3.017-.172Z"/>
      </g>
      <g>
        <rect fill="#cc2028" x="20.216" width="0.739" height="2.97" y="24.626"/>
        <path fill="#cc2028" d="M20.612,24.968v2.285h-.054V24.968h.054m.686-.685H19.873v3.656H21.3V24.283Z"/>
      </g>
      <g>
        <rect fill="#cc2028" x="21.053" width="1.646" height="0.94" y="24.668"/>
        <path fill="#cc2028" d="M22.4,24.962v.351H21.348v-.351H22.4m.59-.589H20.758V25.9h2.235V24.373Z"/>
      </g>
      <g>
        <rect fill="#cc2028" x="20.19" width="2.592" height="0.289" y="24.581"/>
        <polygon fill="#cc2028" points="23.077 24.285 19.895 24.285 19.895 25.164 23.077 25.164 23.077 24.285"/>
      </g>
      <g>
        <polygon fill="#cc2028" points="22.857 25.016 22.866 24.999 24.059 24.999 24.086 25.018 22.857 25.016"/>
        <polygon fill="#cc2028" points="24.154 24.704 22.681 24.704 22.387 25.31 25.001 25.315 24.154 24.704"/>
      </g>
      <g>
        <rect fill="#cc2028" x="19.883" width="0.573" height="4.173" y="22.471"/>
        <polygon fill="#cc2028" points="20.456 22.471 19.883 22.471 19.883 26.644 20.456 26.644 20.456 22.471"/>
      </g>
      <g>
        <rect fill="#cc2028" x="20.519" width="1.654" height="0.299" y="22.6"/>
        <polygon fill="#cc2028" points="22.467 22.306 20.224 22.306 20.224 23.195 22.467 23.195 22.467 22.306"/>
      </g>
      <g>
        <rect fill="#cc2028" x="22.332" width="0.556" height="2.479" y="22.592"/>
        <polygon fill="#cc2028" points="22.888 22.592 22.332 22.592 22.332 25.071 22.888 25.071 22.888 22.592"/>
      </g>
      <g>
        <rect fill="#cc2028" x="16.892" width="1.78" height="1.748" y="24.781"/>
        <path fill="#cc2028" d="M18.375,25.077v1.155H17.189V25.077h1.186m.594-.593H16.6v2.342h2.374V24.484Z"/>
      </g>
      <g>
        <rect fill="#cc2028" x="11.215" width="0.347" height="0.347" y="21.503"/>
        <polygon fill="#cc2028" points="11.857 21.208 10.92 21.208 10.92 22.144 11.857 22.144 11.857 21.208"/>
      </g>
      <g>
        <rect fill="#cc2028" x="13.657" width="0.347" height="0.347" y="21.503"/>
        <polygon fill="#cc2028" points="14.299 21.208 13.363 21.208 13.363 22.144 14.299 22.144 14.299 21.208"/>
      </g>
      <g>
        <rect fill="#cc2028" x="15.952" width="0.347" height="0.347" y="21.503"/>
        <polygon fill="#cc2028" points="16.594 21.208 15.657 21.208 15.657 22.144 16.594 22.144 16.594 21.208"/>
      </g>
      <g>
        <path fill="#cc2028" d="M21.306,27.644a.923.923,0,0,1-.158-.024.872.872,0,0,1-.127-.033.528.528,0,0,1-.088-.049l-.05-.032-.038-.043a.636.636,0,0,1-.07-.107,1.509,1.509,0,0,1-.1-.253,2.339,2.339,0,0,1-.084-.3,1.66,1.66,0,0,1-.032-.255,2.136,2.136,0,0,1,.006-.325,1.839,1.839,0,0,1,.054-.319,1.593,1.593,0,0,1,.062-.193,1.2,1.2,0,0,1,.056-.107.72.72,0,0,1,.069-.094.924.924,0,0,1,.1-.1c.043-.034.081-.064.112-.084s.108-.064.236-.136l.091-.04,1.237.115h.027a.293.293,0,0,0,.21-.088c.057-.012.1-.021.1-.022.058-.011.092-.017.135-.023l.23-.03c.09-.011.161-.019.211-.023s.177-.008.377-.013l.385-.01.115,0,.118.006c.028,0,.07.011.134.023a1.226,1.226,0,0,1,.341.121.831.831,0,0,1,.138.095.656.656,0,0,1,.108.122.461.461,0,0,1,.06.1c.009.024.016.044.021.061l-.088-.048a2.9,2.9,0,0,0-.288-.1,1.465,1.465,0,0,0-.322-.056q-.041,0-.084,0a2.273,2.273,0,0,0-.306.024,2.228,2.228,0,0,0-.406.093,3.218,3.218,0,0,0-.345.141,2.275,2.275,0,0,0-.355.211,2.46,2.46,0,0,0-.286.24,2.346,2.346,0,0,0-.193.211c-.048.062-.088.116-.12.164s-.078.123-.141.231l-.158.267c-.045.075-.085.139-.122.194s-.074.105-.121.163a1.3,1.3,0,0,1-.142.145.639.639,0,0,1-.143.1l-.105.052-.048.011a.516.516,0,0,1-.094.017.733.733,0,0,1-.083,0Z"/>
        <path fill="#cc2028" d="M23.257,25.406a2.582,2.582,0,0,0-.333.2,2.7,2.7,0,0,0-.32.269,2.563,2.563,0,0,0-.221.242c-.051.066-.094.125-.13.178s-.084.132-.149.244l-.159.268c-.041.069-.079.13-.113.181s-.065.091-.1.137a1.158,1.158,0,0,1-.107.112.423.423,0,0,1-.081.054l-.068.034-.033.009a.273.273,0,0,1-.048.01l-.053,0h-.018a.818.818,0,0,1-.111-.018l-.079-.018-.042-.026-.013-.008-.005-.006a.37.37,0,0,1-.04-.064,1.363,1.363,0,0,1-.079-.2,1.987,1.987,0,0,1-.075-.265,1.679,1.679,0,0,1-.026-.217,1.891,1.891,0,0,1,.006-.276,1.5,1.5,0,0,1,.045-.266c.029-.107.045-.146.044-.146h0c.014-.029.028-.056.043-.083a.423.423,0,0,1,.033-.044.665.665,0,0,1,.066-.064c.041-.033.073-.058.086-.067.03-.019.1-.058.2-.116l.02-.01,1.159.108a.5.5,0,0,0,.055,0,.589.589,0,0,0,.343-.11l.027-.007.025,0c.021,0,.049-.009.084-.014l.165-.021m1.009-.642h-.031l-.372.01c-.207,0-.338.01-.391.014s-.13.012-.229.024l-.228.031c-.053.007-.095.014-.125.02a.392.392,0,0,0-.055.012l-.1.021a.2.2,0,0,0-.128.077L21.3,24.85l-.115.055-.066.029c-.137.076-.223.126-.259.149s-.079.057-.134.1a1.162,1.162,0,0,0-.142.136,1.008,1.008,0,0,0-.1.133,1.421,1.421,0,0,0-.07.135,1.9,1.9,0,0,0-.078.237,2.069,2.069,0,0,0-.064.372,2.557,2.557,0,0,0-.007.366,2.26,2.26,0,0,0,.037.3,2.712,2.712,0,0,0,.094.337,1.9,1.9,0,0,0,.123.3.946.946,0,0,0,.109.162l.062.069s.031.022.084.055a.858.858,0,0,0,.133.074,1.2,1.2,0,0,0,.182.05,1.262,1.262,0,0,0,.211.031h.042a.989.989,0,0,0,.113-.005.758.758,0,0,0,.144-.027l.084-.023.124-.061a1,1,0,0,0,.205-.138,1.547,1.547,0,0,0,.173-.179c.053-.065.1-.127.139-.186s.083-.129.13-.208.1-.169.159-.269.1-.171.131-.215.065-.091.106-.145a2.29,2.29,0,0,1,.17-.185,2.187,2.187,0,0,1,.253-.211,1.914,1.914,0,0,1,.307-.183,2.707,2.707,0,0,1,.315-.128,1.815,1.815,0,0,1,.351-.081,2.1,2.1,0,0,1,.265-.02h.066a1.192,1.192,0,0,1,.256.045c.081.024.159.051.231.08s.131.071.179.094a.668.668,0,0,0,.095.038.293.293,0,0,0,.045.009h0a.273.273,0,0,0,.065-.013.207.207,0,0,0,.08-.035.139.139,0,0,0,.039-.051.416.416,0,0,0,.021-.135.52.52,0,0,0,0-.154,1.048,1.048,0,0,0-.037-.119.7.7,0,0,0-.1-.175.914.914,0,0,0-.162-.181,1.181,1.181,0,0,0-.186-.127,1.507,1.507,0,0,0-.2-.089,1.444,1.444,0,0,0-.228-.062,1.348,1.348,0,0,0-.165-.027c-.027,0-.07,0-.131-.007-.045,0-.085,0-.118,0Z"/>
      </g>
      <g>
        <path fill="#cc2028" d="M9.583,26.722a.819.819,0,0,1-.131-.191,1.6,1.6,0,0,1-.092-.2,1.791,1.791,0,0,1-.055-.242c-.021-.115-.032-.182-.035-.2s0-.075,0-.189a1.473,1.473,0,0,1,.015-.236l.02-.1v.007a.088.088,0,0,0,.015-.024.323.323,0,0,1,.033-.06A.269.269,0,0,1,9.4,25.24a.434.434,0,0,1,.067-.048.494.494,0,0,1,.1-.044.55.55,0,0,1,.107-.031A1,1,0,0,1,9.82,25.1c.065,0,.113,0,.143-.008l-.025,0,.271.019c.194.014.355.023.482.028.066,0,.136,0,.212,0s.153,0,.237,0l.347-.013.56-.037.377-.024.72-.026c.1,0,.324-.009.672-.016q.345-.006.567-.006h.187q.232,0,.423.021c.126.011.234.022.32.033s.2.032.355.064a3.1,3.1,0,0,1,.386.1c.107.037.173.06.2.073s.068.04.142.088l.138.092s.025.027.062.067a.97.97,0,0,1,.086.1c.016.023.037.058.063.1a.912.912,0,0,1,.057.127.8.8,0,0,1,.038.134,1.124,1.124,0,0,1,0,.208,1.28,1.28,0,0,1-.014.18h0s-.014.033-.063.115c-.018.03-.032.055-.045.073l-.023.011c.006,0-.016-.006-.042-.008a.56.56,0,0,1-.081-.011.451.451,0,0,1-.057-.032,1.378,1.378,0,0,1-.158-.15c-.091-.094-.16-.166-.206-.218s-.09-.1-.112-.122l-.168-.171a.3.3,0,0,0-.033-.028,2.83,2.83,0,0,0-.232-.163c-.037-.021-.073-.039-.108-.056a.932.932,0,0,0-.269-.07,1.461,1.461,0,0,0-.228-.021l-.113.006a.586.586,0,0,0-.143.024,1.367,1.367,0,0,0-.174.053,1.589,1.589,0,0,0-.2.094c-.071.038-.215.122-.434.254l-.255.161a2.5,2.5,0,0,1-.325.173.626.626,0,0,1-.137.038.607.607,0,0,1-.071.005l-.046,0a.92.92,0,0,1-.156-.037,1.191,1.191,0,0,1-.228-.1q-.155-.087-.246-.147c-.072-.046-.138-.088-.2-.126s-.138-.077-.205-.108a1.774,1.774,0,0,0-.2-.079,1.652,1.652,0,0,0-.2-.055,1.2,1.2,0,0,0-.255-.026h0a1.181,1.181,0,0,0-.225.017,1.357,1.357,0,0,0-.2.057,1.857,1.857,0,0,0-.205.09c-.062.033-.109.06-.142.081s-.074.05-.12.084-.115.088-.205.164-.173.154-.259.239-.16.159-.232.233l-.09.072c-.025,0-.129.009-.142.01Z"/>
        <path fill="#cc2028" d="M14.383,25.316h.182l.064,0a1.487,1.487,0,0,0-.156.05,1.937,1.937,0,0,0-.237.11c-.05.026-.15.082-.456.267l-.242.153a2.033,2.033,0,0,1-.286.153.273.273,0,0,1-.069.02.184.184,0,0,1-.037,0h0a.583.583,0,0,1-.108-.026.953.953,0,0,1-.17-.08c-.1-.054-.172-.1-.231-.138s-.143-.091-.212-.131a2.371,2.371,0,0,0-.225-.119,1.948,1.948,0,0,0-.223-.091,1.81,1.81,0,0,0-.237-.065l-.058-.012.046,0,.343-.023.368-.023.352-.014.368-.012q.147-.006.663-.015c.229,0,.416-.006.562-.006m-4.445.076.25.017c.2.014.362.024.492.029.069,0,.144,0,.223,0h.114c-.042.012-.087.026-.136.044a1.953,1.953,0,0,0-.239.106c-.069.037-.123.068-.17.1l-.121.084c-.059.043-.131.1-.228.183s-.185.164-.274.253q-.08.078-.153.153a1.028,1.028,0,0,1-.058-.129,1.582,1.582,0,0,1-.043-.2c-.015-.081-.025-.138-.03-.167s0-.089,0-.165a1.869,1.869,0,0,1,.01-.188l.009-.044,0,0,0-.008,0,0a.085.085,0,0,1,.023-.016.286.286,0,0,1,.045-.02.442.442,0,0,1,.068-.018.554.554,0,0,1,.1-.009l.107,0m5.852.079c.063.016.119.033.17.051.078.026.133.045.163.057s.063.038.111.07l.1.068.043.045.055.059c.016.024.034.055.051.083a.681.681,0,0,1,.039.085.741.741,0,0,1,.025.084.861.861,0,0,1,0,.11c-.077-.08-.135-.142-.173-.184-.058-.067-.1-.112-.117-.128l-.176-.179a.557.557,0,0,0-.065-.055c-.121-.092-.185-.136-.232-.166m-1.407-.745c-.149,0-.34,0-.572.006q-.526.011-.676.016l-.367.013c-.143,0-.262.009-.358.014s-.222.012-.381.024l-.347.023-.208.013-.342.013-.228,0q-.108,0-.2,0c-.125,0-.283-.014-.473-.027L9.939,24.8l-.13.006a1.4,1.4,0,0,0-.2.02.944.944,0,0,0-.154.044.9.9,0,0,0-.142.066.777.777,0,0,0-.112.08.53.53,0,0,0-.079.081.6.6,0,0,0-.065.108.478.478,0,0,0-.041.093c0,.013-.009.047-.02.1a1.713,1.713,0,0,0-.021.293c0,.14,0,.216,0,.229s.013.086.037.217a2.041,2.041,0,0,0,.067.285,1.929,1.929,0,0,0,.109.242,1.176,1.176,0,0,0,.178.257l.1.107h.008c.02,0,.077,0,.172-.007a.668.668,0,0,0,.2-.028.747.747,0,0,0,.091-.064l.09-.075c.072-.073.148-.15.229-.23s.161-.154.243-.224.143-.12.186-.15.078-.056.107-.074.068-.041.12-.069a1.5,1.5,0,0,1,.167-.074,1.2,1.2,0,0,1,.158-.045.875.875,0,0,1,.157-.011h.016a.886.886,0,0,1,.2.02,1.27,1.27,0,0,1,.17.046,1.4,1.4,0,0,1,.165.067c.058.027.117.058.176.093s.125.076.192.119.153.1.262.157a1.58,1.58,0,0,0,.286.13,1.183,1.183,0,0,0,.213.048.651.651,0,0,0,.077,0,.783.783,0,0,0,.108-.007.892.892,0,0,0,.2-.054,3.038,3.038,0,0,0,.38-.2l.25-.158q.317-.192.419-.246a1.267,1.267,0,0,1,.166-.078,1.23,1.23,0,0,1,.138-.043c.047-.011.073-.016.076-.016h0l.076,0h.034a1.3,1.3,0,0,1,.182.017.777.777,0,0,1,.188.045c.029.014.06.03.089.046s.1.064.2.143l.17.172c.019.019.052.056.1.109s.119.129.213.227a1.622,1.622,0,0,0,.209.191.587.587,0,0,0,.12.063.637.637,0,0,0,.157.028c.035,0,.064,0,.087,0a.276.276,0,0,0,.05,0,.365.365,0,0,0,.072-.025.485.485,0,0,0,.07-.043.614.614,0,0,0,.107-.152.9.9,0,0,0,.094-.188,1.353,1.353,0,0,0,.024-.246,1.32,1.32,0,0,0-.01-.273,1.22,1.22,0,0,0-.051-.184A1.392,1.392,0,0,0,17,25.614c-.03-.049-.055-.09-.075-.12a1.383,1.383,0,0,0-.114-.135,1.363,1.363,0,0,0-.1-.1c-.012-.01-.063-.044-.152-.1a2.048,2.048,0,0,0-.18-.109c-.032-.014-.107-.042-.227-.083a3.456,3.456,0,0,0-.422-.112c-.163-.034-.289-.056-.377-.067s-.2-.024-.334-.035-.28-.018-.441-.022Z"/>
      </g>
    </g>
    <g>
      <g>
        <path fill="#333" d="M21.805,39.583v-.026l0-.026v-.026l0-.026,0-.026,0-.024,0-.026.006-.025.006-.026.006-.025.007-.024.007-.025.008-.024.008-.024.009-.025.01-.023.011-.024.01-.023.012-.024.012-.024.012-.022.013-.022.012-.023L21.988,39,22,38.978l.016-.022.015-.021.016-.02.016-.021.017-.019.017-.021.017-.018.019-.018.017-.019.019-.017.019-.018.02-.017.02-.016.02-.016.022-.016.02-.014.022-.016.022-.014.022-.013.021-.013.024-.012.022-.012.024-.012.022-.011.024-.01.024-.011.024-.009.025-.009.023-.008.025-.008.024-.007.027-.007.024-.006.025,0a.119.119,0,0,1,.026-.005l.024-.005.027,0,.026,0,.026,0,.024,0H22.9l.026,0h.052l.026,0h.026l.026,0,.025,0,.026,0,.026,0,.025.005a.132.132,0,0,1,.026.005l.024,0,.026.006.025.007.025.007.024.008.025.008.023.009.025.009.024.011.023.01.024.011.022.012.024.012.022.012.022.013.022.013.022.014.021.016.022.014.02.016.02.016.02.016.021.017.018.018.019.017.019.019.018.018.017.018.017.021.016.019.017.021.015.02.016.021.015.022.014.021.014.021.013.023.013.022a.1.1,0,0,0,.013.022l.011.024.011.024.011.023.01.024.01.023.009.025.009.024.008.024.007.025.007.024.007.025.005.026,0,.025,0,.026,0,.024,0,.026,0,.026,0,.026v.05a.245.245,0,0,1,0,.027v.025l0,.026v.052l0,.026,0,.026,0,.025,0,.025,0,.025,0,.026-.005.025-.007.025-.007.025-.007.025-.008.023-.009.025-.009.025L24,40.06l-.01.024-.011.023-.011.024-.011.022-.013.022-.013.023-.013.022-.014.023-.014.021-.015.021-.016.022-.015.02-.017.02-.016.02-.017.018-.017.019-.018.019-.019.019-.019.017-.018.017-.021.017-.02.016-.02.016-.02.016-.022.015-.021.015-.022.014-.022.014-.022.013-.022.013-.024.011-.022.012-.024.011-.023.01-.024.01-.025.01-.023.009-.025.009-.024.007-.025.008-.025.006-.026.006-.024.006-.025,0-.026.005-.026,0-.026,0-.025,0-.026,0h-.157l-.024,0-.026,0-.026,0-.027,0-.024-.005-.026,0-.025-.006-.024-.006-.027-.006-.024-.008-.025-.007-.023-.009-.025-.009-.024-.01-.024-.01-.024-.01-.022-.011-.024-.012-.022-.011-.024-.013-.021-.013-.022-.014-.022-.014-.022-.015-.02-.015-.022-.016-.02-.016-.02-.016-.02-.017-.019-.017-.019-.017-.017-.019-.019-.019-.017-.019-.017-.018-.017-.02-.016-.02-.016-.02-.015-.022L22,40.264l-.014-.021-.014-.023-.012-.022-.013-.023-.012-.022-.012-.022-.012-.024-.01-.023-.011-.024-.01-.023-.009-.025-.008-.025-.008-.023-.007-.025-.007-.025-.006-.025-.006-.025-.006-.026,0-.025,0-.025,0-.025,0-.026c0-.008,0-.017,0-.026l0-.026v-.052a.1.1,0,0,1,0-.025Z"/>
        <path fill="#333" d="M22.922,38.478h-.053l-.024,0-.026,0-.026,0-.027,0-.024,0-.026,0-.025.005-.024.006-.027.007-.024.007-.025.008-.023.008-.025.009-.024.009-.024.011-.024.011-.022.01-.024.012-.022.012-.024.013-.021.013-.022.012-.022.014-.022.016-.02.014-.022.017-.02.015-.02.017-.02.016-.019.018-.019.018-.017.018-.019.018-.017.019-.017.02-.017.02-.016.02-.016.02-.015.022L22,38.977,21.988,39l-.014.021a.126.126,0,0,1-.013.023l-.013.022-.011.023-.012.023-.012.024-.011.023-.01.024-.01.023-.009.025-.009.024-.008.024-.007.025-.007.025,0,.024-.006.026-.006.025,0,.026,0,.024,0,.027,0,.026v.026l0,.025v.051a.113.113,0,0,0,0,.026v.052l0,.026a.235.235,0,0,0,0,.026l0,.025,0,.025,0,.026,0,.025.006.026.006.024,0,.026.007.025.007.024.008.024.009.025.009.024.01.024.01.023.011.024.012.023.012.023.011.022.013.023.013.022.014.022.014.022.016.021.015.021.016.02.016.02.017.02.017.019.017.019.019.018.017.019.019.018.019.016.02.018.02.015.02.017.022.015.02.016.022.014.022.015.022.014.021.012.024.013.022.012.024.012.022.01.024.011.024.01.024.009.025.01.023.008.025.007.024.009.027.006.024,0,.025.006.026.005.024.005.027,0,.026,0,.026,0,.024,0h.156l.026,0,.025,0,.026,0,.026,0,.026-.005.025-.005.025-.006.026,0,.024-.006.025-.009.025-.007.024-.008.024-.01.024-.009.024-.01.023-.011.024-.01.022-.012.024-.012.022-.013.023-.012.021-.014.022-.015.022-.014.021-.016.02-.015.02-.017.021-.015.02-.018.019-.016.018-.018.019-.019.018-.018.017-.019.017-.019.016-.02.017-.02.015-.02.016-.021.015-.021.014-.022.014-.022.013-.022.013-.023.013-.022.012-.023.01-.023.011-.024L24,40.06l.009-.024.01-.024.008-.025.008-.024.007-.024.007-.025.007-.026.006-.024,0-.026,0-.025,0-.026,0-.025,0-.025,0-.026v-.1c0-.009,0-.017,0-.026v-.05l0-.026,0-.026,0-.027,0-.024,0-.026,0-.025-.006-.026-.007-.024-.007-.025-.007-.025-.008-.024-.008-.024-.01-.025L24,39.181l-.011-.024-.011-.023-.01-.024-.012-.023-.013-.023-.013-.022-.013-.023L23.906,39l-.014-.021-.015-.021-.016-.022-.015-.02-.017-.02-.016-.02-.017-.02-.017-.019-.018-.018-.019-.018-.018-.018-.019-.018-.02-.016-.021-.017-.02-.015-.02-.017-.021-.014-.022-.016-.022-.014-.021-.012-.023-.013-.022-.013-.024-.012-.022-.012-.024-.01-.023-.011-.024-.011-.024-.009-.024-.009-.024-.008-.025-.008-.025-.007-.024-.007-.026-.006-.025-.005-.026,0a.1.1,0,0,0-.025,0l-.026,0-.026,0-.025,0-.026,0h-.1Z"/>
      </g>
      <g>
        <path fill="#333" d="M18.673,39.619v-.051l0-.027,0-.025,0-.025,0-.026.005-.026,0-.024.006-.025.007-.026.007-.025.007-.024.008-.025.008-.024.009-.024.01-.024.011-.023.01-.024.011-.023.012-.023.013-.023.012-.023.013-.021.014-.022.014-.022.016-.021.015-.021.016-.02.016-.02.017-.02.016-.019.018-.019L19,38.855l.019-.019.019-.017.019-.017.02-.017.02-.017.02-.015.021-.016.021-.015.021-.015.023-.014.021-.014.022-.013.023-.013.023-.011.023-.012.023-.011.024-.01.023-.01.025-.01.023-.009.025-.009.025-.008.024-.007.025-.006.026,0,.025-.006.026-.005.024,0,.027,0,.026,0,.024,0,.026,0h.157l.025,0,.026,0,.026,0,.026,0,.024,0,.027.005.024.006.025,0,.026.006.025.007.024.008.024.009.024.009.024.01.024.01.024.01.022.011.024.012.022.011.024.013.021.013.023.014.021.014.022.015.021.015.021.016.02.015.02.017.021.017.018.017.019.017.018.019.018.019.017.019.018.019.016.02.017.02.015.02.016.021.015.021.014.022.014.022.013.021.013.023.011.023.012.023.012.023.011.024.01.023.01.024.009.024.008.024.009.025.007.024.007.025,0,.026.006.025.006.024.005.026,0,.026,0,.025,0,.025,0,.027v.077a.1.1,0,0,1,0,.025v.077l0,.026,0,.026,0,.025,0,.026-.005.026-.006.024-.006.026,0,.025-.007.025L20.907,40l-.009.025-.008.023-.009.025-.01.023-.01.024-.011.023-.012.024-.012.022-.011.024-.013.022-.013.023-.014.021-.014.021-.015.022-.016.021-.015.02-.017.02-.016.02-.018.02-.017.019-.018.018-.018.018-.019.018-.018.017-.021.017-.02.017-.02.015-.021.016-.021.015-.022.015-.021.015-.023.013-.021.013-.024.012-.022.012-.024.012-.022.011-.024.01-.024.011-.024.008-.024.01-.024.008-.024.008-.025.007-.026.006-.025.007-.024.005-.027,0L20,40.786l-.026,0-.026,0-.026,0-.025,0h-.026l-.026,0H19.79l-.027,0h-.026l-.026,0-.024,0-.026,0-.027,0-.024-.005-.026,0-.025-.005-.026-.007-.025-.006-.024-.007-.025-.008-.025-.008-.023-.01-.025-.008-.023-.011-.024-.01-.023-.011-.023-.012-.023-.012-.023-.012-.022-.013-.021-.013-.023-.015-.021-.015-.021-.015-.021-.016-.02-.015-.02-.017-.02-.017-.019-.017-.019-.018L19,40.46l-.017-.018-.018-.019-.016-.02-.017-.02-.016-.02-.016-.02-.015-.021L18.87,40.3l-.014-.021-.014-.021-.013-.023-.012-.022-.013-.024-.012-.022-.011-.024-.01-.023L18.76,40.1l-.01-.023-.009-.025-.008-.023L18.725,40l-.007-.024-.007-.025-.007-.025L18.7,39.9l0-.024-.005-.026,0-.026,0-.025,0-.026,0-.026V39.7a.235.235,0,0,1,0-.026v-.051Z"/>
        <path fill="#333" d="M19.294,39.468h0m.509-.954h-.066l-.026,0-.025,0-.026,0-.026,0-.025.005-.026,0-.024.005-.026.006-.025.006-.025.007-.024.008-.025.009-.023.009-.025.01-.024.009-.023.011-.024.011-.022.012-.024.011-.022.013-.022.013-.022.014-.022.014-.021.015-.022.015-.02.016-.02.015-.02.016-.021.018-.018.017-.019.017L19,38.854l-.018.019-.017.019-.017.019-.016.02-.017.02-.015.02-.016.021-.015.021-.014.022-.014.022-.013.021-.013.023-.013.023-.011.023-.011.023-.011.024-.01.023-.01.024-.009.024-.009.024-.008.025-.007.024-.007.025-.007.026,0,.024,0,.025-.005.026,0,.026,0,.025,0,.025,0,.026v.052l0,.026v.025a.246.246,0,0,0,0,.026v.051l0,.026,0,.026,0,.025,0,.026.005.026,0,.024,0,.027.007.024.007.025.007.024.008.025.009.024.009.024.01.024.01.023.011.024.011.023.011.023.013.023.013.023.013.022.014.021.014.022.015.021.016.021.015.02.017.02.016.02.017.02.017.019.018.018.019.019.019.017.018.017.021.017.02.017.02.015.02.016.022.015.021.016.022.014.022.013.022.013.022.013.024.011.022.012.024.011.023.01.024.011.025.008.023.01.025.008.024.009.025.007.025.006.026.007.024,0,.026.005.025,0,.026,0,.026,0,.025,0,.026,0h.156l.024,0,.027,0,.026,0,.026,0,.024,0,.026-.005.025,0,.025-.007.026-.006.024-.007a.106.106,0,0,1,.025-.009l.024-.008.024-.01.024-.008.024-.011.024-.01.022-.011.024-.012.022-.011.024-.013.021-.013.023-.013.021-.014.022-.016.021-.015.021-.016.02-.015.02-.017.02-.017.019-.017.019-.017.018-.019.018-.018.017-.019.018-.02.016-.02.017-.02.015-.02.015-.021.016-.021.014-.022.014-.021a.159.159,0,0,1,.013-.022.1.1,0,0,1,.013-.023l.011-.023.012-.023.012-.023.011-.024.01-.023.01-.024.009-.024.008-.024L20.905,40l.007-.024.007-.025.006-.024.006-.027.006-.024,0-.026,0-.026,0-.025,0-.026,0-.026v-.077a.1.1,0,0,0,0-.025v-.078l0-.026,0-.025,0-.025,0-.026,0-.026-.006-.025-.006-.024-.006-.026-.007-.025-.007-.024-.008-.025-.008-.024-.009-.024-.01-.024-.01-.023-.011-.024-.012-.023-.012-.023-.011-.023-.013-.023-.013-.021-.014-.022-.014-.022-.016-.021-.015-.021-.015-.02-.017-.02-.016-.02-.018-.019-.017-.019-.018-.019-.018-.019-.019-.017-.019-.017-.02-.018-.02-.016-.02-.015-.021-.016-.021-.015-.022-.015-.021-.014-.023-.014-.021-.013-.024-.013-.022-.011-.024-.012-.022-.011-.024-.011-.024-.009-.024-.01-.024-.009-.024-.009-.025-.008-.024-.007-.026-.006-.025-.006-.025-.005-.026,0L20,38.528l-.026,0-.026,0-.027,0-.024,0H19.8Z"/>
      </g>
      <path fill="none" stroke-width="0.59" d="M9.469,39.5v-.042l0-.021,0-.022,0-.019,0-.022,0-.021.005-.02,0-.02,0-.021.006-.02.006-.021.007-.019.007-.021.007-.018.008-.021.008-.018.008-.02.01-.019.01-.019.01-.018.011-.019.011-.017.01-.018L9.63,39l.012-.017.013-.017.012-.016.013-.017.015-.017.013-.015.015-.015.014-.016.015-.015.016-.015.015-.014.016-.012.016-.015.017-.013.016-.013.018-.011.018-.012.017-.012.018-.01.018-.011.018-.011.019-.009.019-.01.019-.009.018-.009.019-.008.02-.007.02-.008.021-.006.02-.007.02-.006.02-.005.022-.005.02,0,.02-.005.021,0,.022,0,.02,0,.021,0,.022,0h.126l.022,0,.021,0,.02,0,.022,0,.021,0,.02.005.02,0,.022.005.02.005.02.006.02.007.02.006.021.008.02.007.019.008.018.009.019.009.019.01.019.009.018.011.018.011.018.01.017.012.018.012.018.011.016.013.017.013.016.015.016.012.015.014.016.015.015.015.014.016.016.015.013.015.014.017.012.017.013.016.013.017.012.017.012.018.01.018.011.017.011.019.01.018.01.019.009.019.009.02.008.018.008.021.007.018.007.021.007.019.006.021,0,.02.005.021,0,.02.005.02,0,.021,0,.022,0,.019,0,.022,0,.021V39.6l0,.02,0,.022,0,.021,0,.02,0,.021-.005.02,0,.022-.005.02,0,.02-.006.02-.007.02-.007.02-.007.02-.008.02-.008.019-.009.019-.009.018-.01.019-.01.019L11.205,40l-.011.018-.01.018-.012.016-.012.018-.013.017-.013.017-.012.016-.014.016-.013.017-.016.015-.014.014-.015.016-.016.014-.015.014L11,40.241l-.016.013-.017.013-.016.013-.018.012-.018.011-.017.012-.018.012-.018.011-.018.009-.019.011-.019.009-.019.009-.018.008-.019.008-.02.009-.021.007-.02.007-.02.006-.02.006-.02.005-.022,0-.02.005-.02,0-.021,0-.022,0-.02,0-.021,0h-.022l-.021,0h-.084l-.021,0h-.022l-.021,0-.02,0-.022,0-.021,0-.02,0-.02-.005-.022,0-.02-.005-.02-.006-.02-.006-.021-.007-.02-.007-.02-.009-.019-.008-.018-.008-.019-.009-.019-.009-.019-.011-.018-.009-.018-.011L9.9,40.315,9.884,40.3l-.018-.011-.018-.012-.016-.013-.017-.013L9.8,40.241l-.016-.014-.015-.014L9.752,40.2l-.015-.016-.014-.014-.015-.015L9.7,40.137l-.015-.016L9.667,40.1l-.012-.017-.013-.017-.012-.018-.012-.016-.01-.018L9.6,40l-.011-.018-.01-.019-.01-.019-.01-.018-.008-.019-.008-.019-.008-.02-.007-.02-.007-.02-.007-.02-.006-.02-.006-.02,0-.02,0-.022-.005-.02,0-.021,0-.02,0-.021,0-.022,0-.02V39.5Z" stroke-linejoin="round" stroke-linecap="square" stroke="#333"/>
      <g>
        <rect fill="#333" x="15.878" width="9.396" height="3.623" y="33.147"/>
        <path fill="#333" d="M16.173,33.443h8.805v3.031H16.173V33.443m-.591-.591v4.214h9.987V32.852Z"/>
      </g>
      <g>
        <polygon fill="#333" points="13.356 38.213 13.356 37.899 17.802 37.815 17.798 38.033 13.356 38.213"/>
        <polygon fill="#333" points="13.061 37.61 13.061 38.52 18.088 38.316 18.102 37.514 13.061 37.61"/>
      </g>
      <g>
        <polygon fill="#333" points="14.092 39.001 13.153 38.989 12.011 37.539 14.141 37.418 14.092 39.001"/>
        <path fill="#333" d="M13.836,37.73l-.029.973L13.3,38.7l-.7-.895,1.243-.071m.609-.625-3.016.173,1.579,2,1.37.018.067-2.2Z"/>
      </g>
      <g>
        <rect fill="#333" x="13.596" width="0.739" height="2.97" y="36.016"/>
        <path fill="#333" d="M13.939,36.359h.054v2.285h-.054V36.359m-.686-.686v3.656h1.425V35.673Z"/>
      </g>
      <g>
        <rect fill="#333" x="11.852" width="1.646" height="0.94" y="36.058"/>
        <path fill="#333" d="M12.146,36.353H13.2v.35H12.147v-.35m-.59-.59,0,1.53h2.234v-1.53Z"/>
      </g>
      <g>
        <rect fill="#333" x="11.768" width="2.592" height="0.289" y="35.971"/>
        <polygon fill="#333" points="11.474 36.555 14.655 36.555 14.655 35.676 11.474 35.676 11.474 36.555"/>
      </g>
      <g>
        <polygon fill="#333" points="10.465 36.409 10.492 36.39 11.685 36.39 11.694 36.407 10.465 36.409"/>
        <polygon fill="#333" points="9.55 36.705 12.164 36.7 11.87 36.094 10.397 36.094 9.55 36.705"/>
      </g>
      <g>
        <rect fill="#333" x="14.095" width="0.573" height="4.173" y="33.861"/>
        <polygon fill="#333" points="14.095 38.034 14.668 38.034 14.668 33.861 14.095 33.861 14.095 38.034"/>
      </g>
      <g>
        <rect fill="#333" x="12.378" width="1.654" height="0.299" y="33.991"/>
        <polygon fill="#333" points="12.084 34.585 14.326 34.585 14.326 33.696 12.084 33.696 12.084 34.585"/>
      </g>
      <g>
        <rect fill="#333" x="11.663" width="0.556" height="2.479" y="33.982"/>
        <polygon fill="#333" points="11.662 36.461 12.219 36.461 12.219 33.982 11.662 33.982 11.662 36.461"/>
      </g>
      <g>
        <rect fill="#333" x="15.879" width="1.78" height="1.748" y="36.171"/>
        <path fill="#333" d="M16.175,36.468h1.187v1.154H16.175V36.468m-.593-.594v2.342h2.374V35.874Z"/>
      </g>
      <g>
        <rect fill="#333" x="22.989" width="0.347" height="0.347" y="32.893"/>
        <polygon fill="#333" points="22.694 33.534 23.631 33.534 23.631 32.598 22.694 32.598 22.694 33.534"/>
      </g>
      <g>
        <rect fill="#333" x="20.547" width="0.347" height="0.347" y="32.893"/>
        <polygon fill="#333" points="20.252 33.534 21.188 33.534 21.188 32.598 20.252 32.598 20.252 33.534"/>
      </g>
      <g>
        <rect fill="#333" x="18.252" width="0.347" height="0.347" y="32.893"/>
        <polygon fill="#333" points="17.957 33.534 18.893 33.534 18.893 32.598 17.957 32.598 17.957 33.534"/>
      </g>
      <g>
        <path fill="#333" d="M13.209,39.034a.715.715,0,0,1-.082,0,.5.5,0,0,1-.094-.018L12.984,39l-.1-.051a.752.752,0,0,1-.144-.1,1.5,1.5,0,0,1-.141-.146c-.047-.057-.087-.112-.122-.162s-.077-.12-.121-.2l-.158-.267c-.063-.108-.11-.185-.141-.23s-.072-.1-.12-.165a2.673,2.673,0,0,0-.193-.211,2.49,2.49,0,0,0-.287-.24,2.229,2.229,0,0,0-.354-.21,3.049,3.049,0,0,0-.346-.142,2.208,2.208,0,0,0-.406-.093,2.232,2.232,0,0,0-.3-.023c-.029,0-.057,0-.084,0a1.409,1.409,0,0,0-.322.057,2.593,2.593,0,0,0-.288.1l-.088.047c.005-.017.012-.037.02-.061a.534.534,0,0,1,.061-.1.69.69,0,0,1,.108-.122.734.734,0,0,1,.138-.094,1.011,1.011,0,0,1,.16-.072,1.154,1.154,0,0,1,.181-.049,1.2,1.2,0,0,1,.134-.023l.118-.006c.036,0,.069,0,.115,0l.385.01c.2.005.325.01.377.013s.121.012.211.023l.23.031c.043.006.077.011.135.023l.1.022a.3.3,0,0,0,.209.087h.028l1.237-.115.091.041c.127.071.208.117.236.135s.069.05.112.084a.923.923,0,0,1,.1.1.653.653,0,0,1,.069.093c.02.035.039.071.056.107a1.464,1.464,0,0,1,.061.193,1.83,1.83,0,0,1,.055.32,2.259,2.259,0,0,1,.006.324,1.657,1.657,0,0,1-.032.256,2.377,2.377,0,0,1-.084.3,1.539,1.539,0,0,1-.1.254.636.636,0,0,1-.07.107l-.038.042-.05.032a.528.528,0,0,1-.088.049.858.858,0,0,1-.128.033,1.049,1.049,0,0,1-.157.025Z"/>
        <path fill="#333" d="M11.294,36.8l.165.022.084.013.024,0,.027.006a.593.593,0,0,0,.344.111l.055,0,1.158-.108.021.01c.106.059.174.1.2.116l.086.067a.8.8,0,0,1,.066.064.346.346,0,0,1,.032.045.908.908,0,0,1,.044.082h0s.015.039.045.146a1.519,1.519,0,0,1,.044.266,1.776,1.776,0,0,1,.007.276,1.508,1.508,0,0,1-.027.217,2.142,2.142,0,0,1-.074.266,1.309,1.309,0,0,1-.079.2.37.37,0,0,1-.04.064l0,.006-.014.009a.379.379,0,0,1-.041.025c-.013,0-.042.01-.079.018a.658.658,0,0,1-.111.018H13.21a.427.427,0,0,1-.052,0,.37.37,0,0,1-.048-.009l-.034-.01-.067-.033a.429.429,0,0,1-.081-.055,1.052,1.052,0,0,1-.107-.112,1.469,1.469,0,0,1-.1-.137c-.035-.051-.072-.111-.114-.181l-.158-.267c-.065-.112-.116-.2-.15-.244s-.079-.113-.13-.179a2.827,2.827,0,0,0-.22-.242,2.8,2.8,0,0,0-.32-.269,2.652,2.652,0,0,0-.333-.2m-1.009-.642c-.033,0-.073,0-.118,0-.061,0-.1,0-.131.007s-.081.011-.165.027a1.442,1.442,0,0,0-.228.063,1.379,1.379,0,0,0-.2.088,1.2,1.2,0,0,0-.186.127.943.943,0,0,0-.162.181.751.751,0,0,0-.1.176,1.094,1.094,0,0,0-.036.119.538.538,0,0,0,0,.153.451.451,0,0,0,.022.136.145.145,0,0,0,.039.05.222.222,0,0,0,.08.036.347.347,0,0,0,.064.013H9.17a.207.207,0,0,0,.045-.009.53.53,0,0,0,.094-.038c.049-.023.108-.054.18-.093s.149-.056.231-.08a1.081,1.081,0,0,1,.256-.045l.066,0a1.958,1.958,0,0,1,.265.021,1.883,1.883,0,0,1,.35.08,2.49,2.49,0,0,1,.315.129,1.947,1.947,0,0,1,.308.182,2.187,2.187,0,0,1,.253.211,2.255,2.255,0,0,1,.169.185c.042.054.078.1.107.146s.072.115.13.214l.16.269c.047.08.09.149.129.208s.086.121.14.186a1.642,1.642,0,0,0,.173.18,1.082,1.082,0,0,0,.205.138c.076.038.117.058.124.06l.084.023a.831.831,0,0,0,.144.028c.034,0,.072.005.112.005h.043a1.247,1.247,0,0,0,.211-.03,1.073,1.073,0,0,0,.182-.051.887.887,0,0,0,.133-.073c.053-.034.081-.053.084-.056s.023-.027.061-.068a.939.939,0,0,0,.11-.163,1.842,1.842,0,0,0,.123-.3,2.769,2.769,0,0,0,.094-.338,2.092,2.092,0,0,0,.036-.294,2.3,2.3,0,0,0-.007-.366,2.084,2.084,0,0,0-.063-.373,1.9,1.9,0,0,0-.078-.237c-.022-.047-.046-.092-.071-.135a.994.994,0,0,0-.1-.133,1.162,1.162,0,0,0-.142-.136c-.055-.044-.1-.078-.134-.1s-.122-.072-.259-.149l-.066-.029-.115-.054-1.318.122a.19.19,0,0,0-.127-.076l-.1-.022a.475.475,0,0,0-.055-.011c-.03-.007-.072-.014-.125-.021l-.228-.03c-.1-.013-.176-.021-.229-.025s-.184-.008-.392-.014l-.371-.009Z"/>
      </g>
      <g>
        <path fill="#333" d="M24.958,38.123c-.012,0-.116-.007-.141-.01-.008-.005-.09-.072-.09-.072l-.232-.233c-.086-.084-.172-.164-.259-.238s-.16-.132-.205-.165l-.12-.084c-.033-.021-.08-.047-.143-.08a1.7,1.7,0,0,0-.205-.091,1.48,1.48,0,0,0-.2-.057,1.287,1.287,0,0,0-.225-.016h0a1.2,1.2,0,0,0-.255.026,1.66,1.66,0,0,0-.2.054,2,2,0,0,0-.195.079c-.067.031-.135.067-.206.108s-.129.08-.2.126-.143.089-.246.147a1.191,1.191,0,0,1-.228.1.92.92,0,0,1-.156.037l-.046,0a.623.623,0,0,1-.072,0,.581.581,0,0,1-.136-.038,2.442,2.442,0,0,1-.326-.172l-.254-.161c-.219-.133-.363-.217-.434-.255a1.822,1.822,0,0,0-.2-.094,1.569,1.569,0,0,0-.175-.053.573.573,0,0,0-.142-.024l-.113-.006a1.493,1.493,0,0,0-.229.022.94.94,0,0,0-.268.069c-.036.017-.071.035-.109.056s-.111.073-.232.163l-.032.029c-.1.1-.154.155-.168.17s-.06.064-.112.122-.115.125-.206.219a1.384,1.384,0,0,1-.158.149.273.273,0,0,1-.058.032.379.379,0,0,1-.081.011c-.026,0-.047,0-.041.008l-.024-.011c-.012-.018-.026-.042-.044-.073a1.225,1.225,0,0,1-.063-.114h0a1.156,1.156,0,0,1-.014-.181,1.2,1.2,0,0,1,0-.208.918.918,0,0,1,.1-.261c.025-.044.047-.079.063-.1a.95.95,0,0,1,.086-.1c.037-.039.062-.066.062-.067.015-.011.061-.042.138-.092s.123-.079.141-.088.095-.036.2-.073a3.364,3.364,0,0,1,.387-.1c.152-.032.27-.053.355-.063s.194-.023.32-.034.268-.017.423-.02l.187,0q.222,0,.567.006c.348.007.571.012.672.016,0,0,.625.022.72.027s.219.012.376.023l.561.037.346.013c.084,0,.163,0,.238,0s.146,0,.212,0c.127-.005.288-.014.482-.028l.27-.019-.025,0c.031,0,.079.006.143.009a.988.988,0,0,1,.154.015.714.714,0,0,1,.108.031.562.562,0,0,1,.1.044.382.382,0,0,1,.067.049.249.249,0,0,1,.04.04.4.4,0,0,1,.034.06.088.088,0,0,0,.015.024v-.007l.02.105a1.443,1.443,0,0,1,.015.236c0,.113,0,.181,0,.188s-.015.087-.035.2a1.754,1.754,0,0,1-.055.242,1.666,1.666,0,0,1-.092.2.874.874,0,0,1-.131.191Z"/>
        <path fill="#333" d="M20.167,36.706c.147,0,.334,0,.563.006q.516.009.663.015l.367.013c.143,0,.259.009.353.014s.214.012.368.023.273.017.343.023l.046,0-.058.011a1.931,1.931,0,0,0-.237.065,2.149,2.149,0,0,0-.223.091,2.371,2.371,0,0,0-.225.119c-.069.041-.139.084-.212.132s-.136.084-.231.137a.88.88,0,0,1-.171.081.78.78,0,0,1-.108.026h0a.16.16,0,0,1-.036,0,.3.3,0,0,1-.07-.019,2.535,2.535,0,0,1-.285-.153l-.242-.153c-.307-.186-.407-.242-.456-.268a1.937,1.937,0,0,0-.237-.11c-.052-.019-.1-.036-.156-.05l.064,0h.181m4.446.076.107,0a.744.744,0,0,1,.1.009.357.357,0,0,1,.067.019.2.2,0,0,1,.046.02.179.179,0,0,1,.023.015l0,0,0,.008,0,0,.008.044a1.305,1.305,0,0,1,.01.188c0,.076,0,.132,0,.165l-.029.167a1.457,1.457,0,0,1-.043.2.958.958,0,0,1-.058.129q-.073-.075-.153-.153c-.09-.089-.182-.174-.274-.253s-.169-.14-.229-.182-.087-.062-.12-.084c-.048-.031-.1-.062-.17-.1a2.315,2.315,0,0,0-.239-.106c-.049-.018-.094-.032-.136-.044h.114c.079,0,.154,0,.223,0,.13-.005.294-.014.492-.028l.25-.018m-5.853.079c-.047.03-.11.074-.232.166a.675.675,0,0,0-.064.056l-.176.178c-.017.017-.059.062-.118.129-.037.042-.1.1-.172.183a.824.824,0,0,1,0-.109.583.583,0,0,1,.025-.085.611.611,0,0,1,.039-.085c.016-.028.035-.059.051-.082l.055-.06.043-.045.1-.068c.048-.031.085-.055.111-.07s.085-.031.163-.057c.05-.017.107-.034.169-.051m1.407-.745-.193,0q-.242,0-.441.021c-.133.012-.244.023-.334.035s-.214.034-.377.067a3.725,3.725,0,0,0-.423.112c-.119.041-.194.069-.226.083s-.091.052-.18.11l-.153.1c-.012.01-.046.044-.1.1a1.632,1.632,0,0,0-.115.134c-.02.031-.045.071-.074.12a1.228,1.228,0,0,0-.131.356,1.343,1.343,0,0,0-.009.274,1.381,1.381,0,0,0,.023.245.979.979,0,0,0,.1.188.651.651,0,0,0,.107.153.48.48,0,0,0,.07.042.365.365,0,0,0,.072.025.267.267,0,0,0,.05,0c.022,0,.051,0,.086,0a.677.677,0,0,0,.157-.027.628.628,0,0,0,.121-.064,1.633,1.633,0,0,0,.208-.191c.095-.1.166-.173.214-.226s.081-.09.1-.11.076-.078.17-.172c.1-.079.171-.126.2-.143s.06-.032.09-.046a.778.778,0,0,1,.188-.044,1.187,1.187,0,0,1,.181-.018h.034l.077.005h0s.029,0,.077.016.093.026.138.043a1.7,1.7,0,0,1,.166.078q.1.054.419.247l.25.158a3.07,3.07,0,0,0,.379.2.905.905,0,0,0,.2.054.811.811,0,0,0,.109.008c.026,0,.051,0,.077,0A1.312,1.312,0,0,0,21.686,38a1.422,1.422,0,0,0,.285-.13c.11-.061.2-.113.263-.157s.131-.083.191-.119.119-.066.177-.093a1.507,1.507,0,0,1,.165-.067,1.44,1.44,0,0,1,.17-.046.88.88,0,0,1,.2-.02h.016a.772.772,0,0,1,.156.012,1.018,1.018,0,0,1,.158.044,1.355,1.355,0,0,1,.168.075c.052.027.092.05.12.068l.106.074c.044.031.106.081.187.15s.163.145.243.224.157.157.228.23l.091.076a.784.784,0,0,0,.091.063.668.668,0,0,0,.2.028l.172.008h.007s.035-.036.1-.107a1.153,1.153,0,0,0,.178-.257,1.867,1.867,0,0,0,.109-.242,1.9,1.9,0,0,0,.066-.285c.024-.131.037-.2.038-.217s0-.088,0-.228a1.737,1.737,0,0,0-.021-.294c-.011-.055-.018-.089-.02-.1a.557.557,0,0,0-.041-.093.67.67,0,0,0-.065-.108.583.583,0,0,0-.079-.08.689.689,0,0,0-.112-.08.779.779,0,0,0-.142-.066.854.854,0,0,0-.154-.044,1.165,1.165,0,0,0-.2-.02l-.13-.006s-.1.006-.291.02-.348.022-.473.027c-.062,0-.129,0-.2,0s-.148,0-.228,0c-.162-.005-.276-.009-.342-.013l-.209-.013-.346-.023-.381-.024-.358-.014-.367-.013q-.15-.006-.676-.015c-.233,0-.424-.007-.573-.007Z"/>
      </g>
    </g>
  </g>
</svg>