<svg width="60" height="60" xmlns="http://www.w3.org/2000/svg" viewBox="0 0 60 60">
  <rect fill="#fff" height="60" width="60"/>
  <g>
    <g>
      <path fill="#cb2026" d="M18.533,44.683v.127l0,.126c0,.043,0,.085-.006.127s-.005.085-.008.127l-.012.126c0,.042-.009.084-.014.126s-.011.084-.017.126-.013.084-.02.125-.015.084-.023.125-.017.083-.026.125-.018.082-.028.123-.021.082-.031.123-.023.082-.035.123-.024.081-.036.121-.026.081-.04.121-.027.08-.042.119-.029.08-.045.119-.031.079-.047.118-.033.078-.051.116-.034.077-.052.116l-.056.114-.058.113-.06.111c-.021.037-.042.074-.064.11s-.043.073-.065.109-.045.072-.068.107-.047.071-.07.106-.048.07-.073.1l-.075.1c-.026.034-.051.068-.078.1l-.079.1c-.027.032-.054.065-.082.1l-.084.095L17,48.6c-.029.031-.059.061-.088.091s-.06.06-.091.09l-.092.087-.094.085-.1.083-.1.081-.1.078c-.033.026-.067.051-.1.076l-.1.074-.105.072-.107.069c-.035.023-.071.045-.108.067l-.109.064-.111.062c-.037.02-.074.04-.112.059l-.114.057-.114.054-.116.051-.118.049L14.9,50l-.119.043-.12.041-.121.038-.122.035q-.062.018-.123.033l-.123.03-.124.027c-.041.008-.083.017-.125.024l-.125.022-.125.018-.126.016-.126.013-.127.01-.127.007-.127,0-.126,0-.127,0-.127,0-.127-.007-.126-.01-.127-.013-.126-.016-.125-.018-.125-.022c-.042-.007-.083-.016-.125-.024l-.124-.027-.123-.03q-.062-.015-.123-.033l-.122-.035-.121-.038-.12-.041L10.931,50l-.118-.047L10.7,49.9l-.116-.051-.114-.054-.114-.057-.112-.059-.111-.062-.109-.064c-.037-.022-.073-.044-.108-.067L9.8,49.42,9.7,49.348l-.1-.074c-.034-.025-.068-.05-.1-.076l-.1-.078-.1-.081-.1-.083-.094-.085-.092-.087c-.031-.03-.061-.059-.091-.09s-.059-.06-.088-.091L8.75,48.51l-.084-.095c-.028-.032-.055-.065-.082-.1l-.079-.1c-.027-.033-.052-.067-.078-.1l-.075-.1-.073-.1c-.023-.035-.047-.07-.07-.106s-.046-.071-.068-.107-.044-.072-.065-.109-.043-.073-.063-.11-.041-.074-.061-.111l-.058-.113c-.019-.038-.037-.076-.055-.114s-.036-.077-.053-.116l-.051-.116c-.016-.039-.032-.078-.047-.118s-.03-.079-.045-.119-.029-.079-.042-.119-.027-.081-.04-.121-.025-.081-.036-.121-.024-.082-.034-.123-.022-.082-.032-.123-.019-.082-.028-.123-.018-.083-.026-.125-.015-.083-.023-.125-.013-.083-.02-.125-.011-.084-.017-.126-.01-.084-.014-.126l-.012-.126c0-.042-.006-.084-.008-.127l-.006-.127,0-.126v-.127l0-.127c0-.042,0-.085.006-.127s0-.084.008-.127l.012-.126c0-.042.009-.084.014-.126s.011-.084.017-.126.013-.084.02-.125.015-.084.023-.125.017-.083.026-.124.018-.083.028-.124.021-.082.032-.123.022-.082.034-.122.024-.081.036-.122.026-.08.04-.12.027-.08.042-.12.029-.079.045-.119.031-.078.047-.118l.051-.116c.017-.039.034-.077.053-.115s.036-.077.055-.115l.058-.113c.02-.037.04-.074.061-.111s.041-.074.063-.11.043-.073.065-.109.045-.072.068-.107.047-.071.07-.106l.073-.1.075-.1.078-.1.079-.1c.027-.032.054-.065.082-.1l.084-.095.086-.093c.029-.031.059-.061.088-.091s.06-.06.091-.089.061-.059.092-.088l.094-.085.1-.083.1-.08.1-.079c.033-.026.067-.051.1-.076l.1-.074.105-.071c.035-.024.071-.047.107-.07s.071-.045.108-.066.072-.044.109-.065l.111-.061c.037-.021.075-.04.112-.06l.114-.056.114-.055.116-.051.118-.049.118-.046.119-.044.12-.041.121-.038.122-.035.123-.033.123-.03.124-.027.125-.024c.041-.008.083-.015.125-.021l.125-.019.126-.016.127-.013.126-.01.127-.007.127,0h.253l.127,0,.127.007.127.01.126.013.126.016.125.019c.042.006.084.013.125.021l.125.024.124.027.123.03.123.033.122.035.121.038.12.041.119.044.119.046.117.049.116.051.114.055.114.056c.038.02.075.039.112.06l.111.061c.037.021.073.043.109.065s.073.044.108.066.072.046.107.07l.105.071.1.074c.034.025.068.05.1.076l.1.079.1.08.1.083.094.085.093.088.09.089c.03.03.059.06.088.091l.086.093.084.095.082.1c.027.032.053.065.08.1l.077.1.075.1.073.1c.024.035.047.07.07.106s.046.071.068.107l.066.109.063.11.06.112c.02.037.039.075.058.112s.037.076.056.115.035.076.052.115.034.078.051.117.032.078.047.117.031.079.045.119.029.08.042.12.027.08.04.12.025.081.037.122.023.081.034.122.021.082.031.123.019.082.028.124.018.083.026.124.016.083.023.125.013.083.02.125.012.084.017.126.01.084.014.126l.012.126c0,.043.006.085.008.127s0,.085.006.127Z" fill-rule="evenodd"/>
      <path fill="#cb2026" d="M50.759,44.613v.127l0,.127-.006.127q0,.063-.009.126c0,.042-.007.085-.011.127s-.009.084-.014.126-.011.084-.017.126-.013.083-.02.125-.015.083-.023.125-.017.083-.026.124-.018.083-.028.124-.021.082-.032.123-.022.081-.034.122-.024.081-.036.121-.026.081-.04.121-.028.08-.042.12l-.045.119q-.023.059-.048.117c-.016.039-.033.078-.05.117s-.035.077-.053.115-.036.076-.055.114-.038.076-.058.113-.04.075-.061.112-.041.073-.063.11l-.065.109c-.022.036-.045.071-.068.107l-.07.1-.073.1-.075.1c-.026.034-.051.067-.078.1s-.052.067-.079.1-.054.065-.082.1l-.084.095c-.028.032-.057.063-.086.094l-.088.091c-.03.03-.06.06-.091.089s-.061.059-.092.087l-.094.085-.1.083-.1.081c-.033.027-.066.053-.1.078l-.1.077-.1.074-.1.071c-.036.024-.071.047-.107.069s-.071.045-.108.067l-.109.064-.111.062-.112.059q-.057.03-.114.057c-.038.019-.076.037-.115.054l-.116.052c-.038.017-.077.033-.117.049l-.118.046-.119.043c-.04.015-.08.028-.12.041s-.081.026-.121.038-.081.025-.122.036l-.123.032q-.061.017-.123.03c-.041.01-.083.019-.124.027l-.125.025-.125.021-.125.019c-.042.005-.084.011-.126.015l-.127.013-.126.01-.127.007-.127,0h-.253l-.127,0-.127-.007-.127-.01-.126-.013c-.042,0-.084-.01-.126-.015l-.125-.019-.125-.021-.125-.025c-.041-.008-.083-.017-.124-.027s-.082-.019-.123-.03l-.123-.032c-.041-.011-.081-.023-.122-.036s-.081-.024-.121-.038-.08-.026-.12-.041l-.119-.043-.119-.046-.117-.049-.116-.052q-.057-.025-.114-.054t-.114-.057c-.038-.019-.075-.039-.112-.059l-.111-.062-.109-.064c-.037-.022-.073-.044-.108-.067s-.072-.045-.107-.069l-.105-.071-.1-.074-.1-.077c-.034-.025-.067-.051-.1-.078s-.066-.053-.1-.081l-.1-.083-.094-.085q-.046-.042-.093-.087l-.09-.089c-.03-.03-.059-.061-.088-.091s-.058-.062-.086-.094l-.084-.095c-.028-.032-.055-.064-.082-.1s-.053-.065-.08-.1-.052-.066-.077-.1l-.075-.1c-.025-.034-.049-.069-.073-.1s-.047-.07-.07-.1-.046-.071-.068-.107l-.066-.109-.063-.11-.06-.112c-.02-.037-.039-.075-.058-.113s-.038-.076-.056-.114-.035-.077-.052-.115-.034-.078-.051-.117-.032-.078-.047-.117-.031-.079-.045-.119-.029-.08-.042-.12-.027-.08-.04-.12-.025-.081-.037-.122-.023-.081-.034-.122-.021-.082-.031-.123-.019-.083-.028-.124-.018-.083-.026-.124-.016-.083-.023-.125-.014-.084-.02-.125-.012-.084-.017-.126-.01-.084-.014-.126l-.012-.127c0-.042-.006-.084-.008-.126s-.005-.085-.006-.127l0-.127v-.127l0-.127c0-.042,0-.084.006-.127s.005-.084.008-.126l.012-.127c0-.042.009-.084.014-.126s.011-.084.017-.125.013-.084.02-.126.015-.083.023-.125.017-.083.026-.124.018-.083.028-.124.021-.082.031-.123.023-.081.034-.122.024-.081.037-.121.026-.081.04-.121.027-.08.042-.12.029-.079.045-.118.031-.079.047-.118.033-.078.051-.117.034-.077.052-.115.037-.076.056-.114.038-.076.058-.113l.06-.112.063-.11.066-.109c.022-.036.045-.071.068-.107s.046-.07.07-.1.048-.07.073-.1l.075-.1c.025-.034.051-.067.077-.1s.053-.067.08-.1.054-.065.082-.1l.084-.1c.028-.032.057-.063.086-.094s.058-.061.088-.091l.09-.089.093-.087.094-.085.1-.083.1-.081c.033-.026.066-.053.1-.078l.1-.077.1-.074L42.03,40c.035-.024.071-.047.107-.069s.071-.045.108-.067l.109-.064.111-.062c.037-.02.074-.04.112-.059s.076-.039.114-.057l.114-.054.116-.052.117-.049.119-.046.119-.043c.04-.015.08-.028.12-.041l.121-.038.122-.036.123-.032q.061-.017.123-.03c.041-.01.083-.019.124-.027l.125-.025.125-.021.125-.019.126-.015.126-.013.127-.01.127-.007.127-.005h.253l.127.005.127.007.126.01.127.013.126.015.125.019.125.021.125.025c.041.008.083.017.124.027s.082.019.123.03l.123.032.122.036.121.038.12.041.119.043.118.046.118.049.115.052c.039.017.077.035.115.054s.076.037.114.057l.112.059.111.062.109.064c.037.022.073.044.108.067s.071.046.107.069.07.047.105.072l.1.073.1.077c.034.025.067.052.1.078l.1.081.1.083.094.085.092.087c.031.029.061.059.091.089l.088.092c.029.03.058.061.086.093l.084.1c.028.032.055.064.082.1l.079.1c.027.033.052.067.078.1l.075.1.073.1.07.1c.023.036.046.072.068.108s.044.072.065.108.043.073.063.11.041.075.061.112.039.075.058.113.037.076.055.114.036.077.053.115.034.078.05.117.033.078.048.118l.045.118c.014.04.029.08.042.12s.027.08.04.121.025.081.036.121.024.082.034.122.022.082.032.123.019.083.028.124.018.083.026.124.015.084.023.125.013.084.02.126.011.083.017.125.01.084.014.126.008.085.011.127.007.084.009.127l.006.126Z" fill-rule="evenodd"/>
      <rect fill="#cb2026" x="7.028" width="13.8" height="6.62" y="35.169"/>
      <rect fill="#cb2026" x="6.028" width="2.224" height="3.492" y="36.301"/>
      <rect fill="#cb2026" x="27.447" width="9.832" height="3.546" y="40.994"/>
      <polygon fill="#cb2026" points="20.649 43.589 36.022 43.589 35.623 45.861 21.299 45.87 20.649 43.589" fill-rule="evenodd"/>
      <polygon fill="#cb2026" points="16.789 37.175 24.087 42.01 24.194 45.68 14.968 40.532 16.789 37.175" fill-rule="evenodd"/>
      <polygon fill="#cb2026" points="27.405 38.524 29.059 38.594 32.818 41.219 27.415 44.421 27.405 38.524" fill-rule="evenodd"/>
      <rect fill="#cb2026" x="34.411" width="17.013" height="5.121" y="37.527"/>
      <polygon fill="#cb2026" points="36.238 33.671 38.566 33.671 40.304 38.595 35.659 38.88 36.238 33.671" fill-rule="evenodd"/>
      <polygon fill="#cb2026" points="42.822 33.69 52.736 33.69 52.736 45.064 38.298 39.844 42.822 33.69" fill-rule="evenodd"/>
      <rect fill="#cb2026" x="50.403" width="3.569" height="2.97" y="42.033"/>
      <polygon fill="#cb2026" points="22.117 30.206 23.659 30.764 19.87 36.865 18.157 36.865 22.117 30.206" fill-rule="evenodd"/>
      <rect fill="#cb2026" x="51.339" width="2.224" height="3.492" y="35.535"/>
    </g>
    <g>
      <path fill="#cb2026" d="M10.375,11.214H12.3V21.721h3.243V23.35H10.375Z"/>
      <path fill="#cb2026" d="M16.926,11.4a10.476,10.476,0,0,1,2.315-.234,4.25,4.25,0,0,1,3.007.886,3.15,3.15,0,0,1,.916,2.453,3.21,3.21,0,0,1-1.907,3.075v.036c.854.306,1.3,1.111,1.544,2.548a18.24,18.24,0,0,0,.741,3.191H21.548a16.314,16.314,0,0,1-.625-2.948c-.235-1.58-.683-2.093-1.644-2.093h-.441V23.35H16.926Zm1.912,5.431h.5a1.912,1.912,0,0,0,1.878-2.13c0-1.2-.482-2-1.734-2.019a2.166,2.166,0,0,0-.644.073Z"/>
      <path fill="#cb2026" d="M24.9,11.4a8.816,8.816,0,0,1,2.156-.234,4.4,4.4,0,0,1,3.135,1.005c1,.881,1.6,2.47,1.6,4.9,0,2.6-.651,4.237-1.581,5.134a4.714,4.714,0,0,1-3.545,1.233,12.1,12.1,0,0,1-1.768-.129Zm1.912,10.418a2.232,2.232,0,0,0,.471.036c1.314,0,2.522-1.108,2.522-4.807,0-2.747-.778-4.334-2.442-4.334a2.073,2.073,0,0,0-.551.062Z"/>
      <path fill="#cb2026" d="M39.743,23.034a7.116,7.116,0,0,1-2.347.424,4.015,4.015,0,0,1-3.077-1.191A6.87,6.87,0,0,1,32.8,17.4c.041-4.557,2.512-6.29,4.889-6.29a4.378,4.378,0,0,1,1.872.355L39.2,13.119a3.006,3.006,0,0,0-1.393-.286c-1.562,0-3,1.156-3,4.583,0,3.286,1.263,4.408,2.526,4.408a1.569,1.569,0,0,0,.64-.1v-3.39h-1.3V16.757h3.08Z"/>
      <path fill="#cb2026" d="M43.849,23.35V22.073l1.08-1.425c1.465-1.935,2.884-3.8,2.884-5.71,0-1.1-.542-1.821-1.57-1.821a3.139,3.139,0,0,0-1.727.612l-.381-1.47a4.418,4.418,0,0,1,2.458-.757c2.283,0,3.119,1.589,3.119,3.305,0,2.2-1.4,4.122-2.794,5.873l-.736.938v.036H49.9v1.7Z"/>
    </g>
  </g>
</svg>