<svg width="60" height="60" xmlns="http://www.w3.org/2000/svg" viewBox="0 0 60 60">
  <rect fill="#999" x="15" width="45" height="60"/>
  <g>
    <rect fill="#999" height="60" width="60"/>
    <polygon fill="#666766" points="31.281 30.545 31.281 0 0 0 31.281 30.545" fill-rule="evenodd"/>
    <polygon fill="#666766" points="60 60 60 30 29.277 30 60 60" fill-rule="evenodd"/>
    <rect fill="#666766" x="2.768" width="57.232" height="32.403"/>
    <rect fill="#cccccb" x="2.768" width="54.496" height="54.702" y="2.649"/>
  </g>
  <g>
    <g>
      <rect fill="#333" x="25.834" width="4.848" height="12.162" y="24.616" transform="translate(-0.332 0.309) rotate(-0.623)"/>
      <path fill="#333" d="M30.1,25.116l.12,11.121-3.808.04L26.3,25.157l3.806-.041m1.03-1.053-5.887.065.139,13.2,5.89-.062-.142-13.2Z"/>
    </g>
    <g>
      <polygon fill="#333" points="30.53 29.944 38.666 29.931 38.815 32.155 30.679 32.169 30.53 29.944"/>
      <path fill="#333" d="M38.179,30.452l.08,1.183-7.093.013-.08-1.185,7.093-.011m.974-1.042-9.179.014.218,3.267,9.179-.017-.218-3.264Z"/>
    </g>
    <g>
      <polygon fill="#333" points="34.121 16.164 35.816 16.117 35.876 30.775 34.183 30.821 34.121 16.164"/>
      <path fill="#333" d="M35.3,16.652l.056,13.617-.652.017-.057-13.615.653-.019m1.037-1.07-2.736.077.067,15.7,2.733-.075-.064-15.7Z"/>
    </g>
    <g>
      <polygon fill="#333" points="30.682 24.587 33.7 24.557 33.783 31.566 30.765 31.595 30.682 24.587"/>
      <path fill="#333" d="M33.186,25.083l.071,5.967-1.978.019L31.208,25.1l1.978-.019m1.029-1.051-4.06.04.1,8.048,4.059-.039-.095-8.049Z"/>
    </g>
    <g>
      <polygon fill="#333" points="26.912 18.958 27.456 19.142 25.392 27.579 23.999 27.881 26.912 18.958"/>
      <path fill="#333" d="M25.49,24.99l-.526,2.149-.19.041.716-2.19M26.58,18.3,23.222,28.581l2.6-.562L28.075,18.8l-1.5-.506Z"/>
    </g>
    <g>
      <path d="M12.49,27.965l-.112-.026c-.016-.008-.1-.043-.118-.05s-.092-.049-.1-.053-.068-.061-.081-.071-.071-.077-.086-.091a.449.449,0,0,0-.063-.1c-.005-.011-.053-.116-.059-.127l-.026-.1-.015-.134c0-.025.008-.126.008-.152l.031-.1.047-.117a.993.993,0,0,0,.049-.091l.08-.1c.018-.015.07-.06.086-.077s.077-.048.09-.057.1-.049.106-.051a.443.443,0,0,0,.093-.038.868.868,0,0,0,.1-.015c.012,0,.089,0,.1,0l.133.018.1.027a.424.424,0,0,0,.11.039c.013.009.1.071.117.078a.974.974,0,0,0,.083.074,1.376,1.376,0,0,0,.091.111c.01.021.048.091.06.11s.033.094.036.1a1.261,1.261,0,0,0,.028.125l.009.136c0,.008-.021.121-.022.13s-.027.087-.029.1l-.043.095s-.052.084-.056.09l-.072.092-.085.075-.115.075a.829.829,0,0,0-.1.041c-.016,0-.13.037-.145.043l-.093,0S12.516,27.965,12.49,27.965Z"/>
      <path fill="#333" d="M12.606,26.939h0l.024,0h.013l.034.007.039.016.014.006.013.009.016.011.009.006.007,0,.011.01,0,0,.022.029.013.019.006.011.007.014,0,.011,0,.007v0c0,.016.007.031.012.047l0,.011v.062h0l-.011.045v0l0,0v0l-.01.022-.006.011,0,.006h0l0,0,0,0-.024.029-.033.031-.014.01h0l-.016.01-.026.012h0l-.024.009-.02.006h0l-.018,0h0l-.03,0h0l-.029,0h-.005l-.016,0h-.008l-.021-.007-.01,0-.014-.006-.022-.01-.025-.017-.011-.008h0l-.018-.016-.009-.009-.006-.006v0l-.01-.013-.017-.026,0-.006-.007-.014-.005-.012,0-.009h0l-.005-.016h0l0-.018,0-.007h0l0-.025v-.036l0-.026h0v-.007h0l.011-.036,0-.007.01-.022h0l.007-.013.014-.022.009-.012,0,0,0,0,.007-.006a.253.253,0,0,0,.026-.022l.008-.006.025-.017.024-.011.035-.012.013,0,.008,0h.018l.025,0h0m.029-1.042h-.058a.851.851,0,0,1-.058.005.137.137,0,0,0-.029,0l-.029,0-.03,0-.029,0-.029,0a.15.15,0,0,1-.029.006l-.029.007-.027.006-.029.008-.027.009-.03.008-.027.01-.027.009-.029.01L12.092,26l-.025.012-.027.013-.027.012-.025.013-.025.014-.027.017-.025.014-.023.017a.123.123,0,0,0-.025.017l-.023.016-.025.017-.023.019-.023.019-.02.018-.023.019-.021.021-.021.021-.021.02-.019.021-.02.023-.019.023-.019.023-.016.023-.017.023-.019.025-.014.025-.017.023a.117.117,0,0,0-.015.027l-.014.025-.015.025-.012.027-.013.025-.012.027-.013.027-.01.027-.011.027c0,.01-.007.019-.01.029l-.008.027-.009.027-.008.029-.008.03-.007.027-.006.029,0,.029,0,.029,0,.029,0,.029a.153.153,0,0,1,0,.03.264.264,0,0,0,0,.029.146.146,0,0,1,0,.029v.087a.146.146,0,0,1,0,.029.264.264,0,0,0,0,.029.153.153,0,0,1,0,.03l0,.029,0,.029,0,.029,0,.029a.167.167,0,0,1,.006.029l.007.028.008.029.008.029.009.027.008.029.01.027.011.027.01.027.013.027.012.027.013.025.012.027.015.025.014.027.015.025.017.023.014.025.019.025.017.023.016.023.019.023.019.023.02.023.019.021.021.02.021.021.021.021.023.019.02.018.023.019.023.019.025.017.023.016a.123.123,0,0,0,.025.017l.023.017.025.016.027.015.025.014.025.013.027.012.027.013.025.012.027.011.029.012.027.009.027.01.03.008.027.009.029.008.027.006.029.006.029.007.029,0,.029,0,.03,0a.137.137,0,0,0,.029,0,.137.137,0,0,0,.029,0,.142.142,0,0,0,.029,0l.027,0h.062l.028,0a246926001537.859,246926001537.859,0,0,1,.058,0,.142.142,0,0,0,.029,0l.029,0,.029,0,.029,0,.03-.007.029-.006a.107.107,0,0,1,.027-.006l.029-.008.027-.009.029-.008.027-.01.027-.009.027-.012a.109.109,0,0,0,.027-.011l.028-.012.027-.013.027-.012.025-.013.025-.014a.117.117,0,0,1,.027-.015l.023-.016.025-.017a.159.159,0,0,0,.025-.017l.022-.016.025-.017.023-.019.023-.019.021-.018a.137.137,0,0,1,.023-.019l.021-.021.021-.021.02-.02.019-.021.021-.023.019-.023L13.624,28a.106.106,0,0,0,.019-.023l.017-.023.016-.025.017-.025.017-.023.014-.025.015-.027.014-.025.013-.027.012-.025.013-.027.012-.027a.218.218,0,0,1,.011-.027l.01-.027a.109.109,0,0,1,.011-.027l.008-.029.008-.027.009-.029.006-.029.008-.028,0-.029a.246.246,0,0,0,.007-.029l0-.029,0-.029,0-.029c0-.01,0-.02,0-.03s0-.019,0-.029,0-.019,0-.029v-.087c0-.01,0-.02,0-.029s0-.02,0-.029,0-.02,0-.03l0-.029,0-.029,0-.029a.246.246,0,0,0-.007-.029l0-.029-.008-.027-.006-.03-.009-.029-.008-.027-.008-.027a.172.172,0,0,1-.011-.029l-.01-.027L13.8,26.7l-.012-.027-.013-.027-.012-.025-.013-.027-.014-.025-.015-.025-.014-.027-.017-.023-.017-.025-.016-.025-.017-.023a.106.106,0,0,0-.019-.023l-.016-.023-.019-.023-.021-.023-.019-.021-.02-.02-.021-.021-.021-.021-.023-.019-.021-.018-.023-.019-.023-.019-.025-.017-.022-.016a.159.159,0,0,0-.025-.017L13.3,26.1l-.025-.014-.027-.017a.2.2,0,0,1-.025-.014l-.025-.013-.027-.012-.027-.013L13.118,26a.169.169,0,0,0-.027-.011l-.027-.012-.027-.009-.027-.01-.029-.008-.027-.009-.029-.008-.027-.006-.029-.007a.159.159,0,0,1-.03-.006l-.029,0-.029,0-.029,0-.029,0a246926001537.848,246926001537.848,0,0,1-.058,0,.153.153,0,0,0-.03,0Z"/>
    </g>
    <g>
      <polygon fill="#333" points="14.84 18.462 15.297 17.584 25.213 21.749 25.186 24.595 14.84 18.462"/>
      <path fill="#333" d="M15.538,18.249l9.151,3.845-.015,1.593-9.145-5.422.009-.016m-.481-1.331-.906,1.741L25.7,25.5l.04-4.1-10.68-4.487Z"/>
    </g>
    <path fill="none" stroke-width="2.89" d="M21.915,36.621c0,.03,0,.059,0,.09s0,.06,0,.089,0,.062,0,.092l0,.09-.008.089c0,.031-.008.061-.011.092l-.012.089c0,.03-.009.059-.015.09l-.016.087c-.006.031-.012.061-.019.09s-.012.058-.019.087-.014.058-.023.088l-.025.087-.025.087-.029.086-.029.085-.033.086-.034.083c-.011.028-.022.055-.035.083l-.037.083-.04.082-.042.079c-.014.027-.028.054-.043.079l-.044.079c-.015.026-.031.052-.048.077s-.031.052-.048.077l-.05.075c-.016.025-.034.05-.052.075l-.054.073-.054.071c-.02.023-.038.047-.056.07l-.059.071c-.02.022-.041.044-.06.067l-.062.066c-.021.023-.042.044-.063.065s-.042.044-.064.065l-.065.062-.069.06-.068.059-.069.058-.071.056-.073.054-.073.052-.075.05a.78.78,0,0,1-.077.05c-.025.017-.05.033-.077.048l-.077.046c-.026.015-.052.03-.079.044s-.053.029-.081.043l-.079.04c-.028.012-.056.026-.083.039s-.054.025-.082.036l-.085.035-.083.033-.086.032-.085.029c-.029.008-.057.017-.085.027l-.088.025-.087.023-.088.021-.089.018c-.029.007-.058.014-.088.019l-.089.015-.09.012-.089.013-.092.008-.089.008-.09,0-.091,0h-.181l-.09,0-.092,0-.089-.008-.09-.008-.089-.013-.09-.012c-.03,0-.06-.009-.089-.015s-.059-.012-.09-.019l-.087-.018-.088-.021-.087-.023-.088-.025-.087-.027-.085-.029L16.5,40.41l-.083-.033-.083-.035q-.042-.016-.084-.036l-.081-.039-.081-.04L16,40.184c-.028-.014-.054-.029-.079-.044l-.079-.046-.077-.048c-.025-.015-.05-.032-.075-.05l-.075-.05c-.025-.016-.049-.034-.073-.052l-.073-.054-.071-.056-.07-.058c-.024-.02-.047-.039-.069-.059s-.045-.041-.067-.06l-.066-.062-.065-.065c-.021-.021-.042-.042-.062-.065l-.061-.066-.06-.067-.058-.071c-.02-.023-.039-.047-.057-.07l-.056-.071c-.018-.024-.035-.048-.052-.073l-.052-.075c-.018-.025-.035-.05-.05-.075s-.033-.051-.05-.077l-.046-.077-.046-.079-.041-.079c-.015-.027-.029-.053-.042-.079s-.027-.055-.039-.082a.884.884,0,0,1-.038-.083l-.037-.083-.034-.083c-.011-.028-.021-.057-.031-.086s-.021-.056-.031-.085-.019-.056-.027-.086-.019-.058-.027-.087-.016-.058-.023-.087-.016-.059-.023-.088L14,37.519c-.007-.029-.013-.059-.019-.09l-.016-.087-.013-.09c0-.03-.009-.06-.012-.089s-.008-.061-.011-.092l-.008-.089q0-.043-.006-.09l0-.092c0-.029,0-.059,0-.089v-.09c0-.03,0-.061,0-.091l0-.09c0-.03,0-.061.006-.091l.008-.09c0-.03.007-.06.011-.089s.007-.061.012-.09l.013-.089.016-.09c.006-.029.012-.058.019-.087l.021-.09c.007-.029.015-.058.023-.087s.014-.059.023-.088.017-.057.027-.085.017-.058.027-.088.02-.056.031-.085.02-.055.031-.083.023-.058.034-.086l.037-.081c.011-.027.024-.055.038-.083s.025-.055.039-.081.027-.055.042-.081l.041-.08.046-.079c.016-.025.031-.05.046-.077s.033-.05.05-.077.032-.05.05-.075.034-.049.052-.072.034-.05.052-.073.037-.05.056-.073.037-.048.057-.071l.058-.069.06-.069c.02-.022.04-.043.061-.064l.062-.067.065-.062.066-.063.067-.06q.033-.032.069-.06c.023-.02.047-.038.07-.056l.071-.057.073-.054.073-.054.075-.05.075-.05c.026-.015.052-.031.077-.048l.079-.046L16,33.147l.079-.042c.026-.014.054-.027.081-.039s.054-.028.081-.04l.084-.038.083-.033.083-.033c.029-.011.058-.022.086-.031l.085-.029.087-.028.088-.025c.029-.008.058-.016.087-.022s.059-.016.088-.023.058-.014.087-.019l.09-.017.089-.016.09-.013c.029,0,.059-.008.089-.01l.09-.011.089-.006c.031,0,.061,0,.092-.006s.06,0,.09,0,.061,0,.091,0,.059,0,.09,0,.061,0,.091,0l.09.006c.03,0,.06,0,.089.006l.092.011c.029,0,.059.006.089.01l.09.013.089.016.088.017c.029.005.059.012.089.019s.059.014.088.023.058.014.087.022l.088.025.085.028.085.029c.03.009.058.02.086.031l.085.033.083.033.082.038c.027.012.055.026.083.04l.081.039.079.042c.027.015.053.03.079.043l.077.046.077.048.077.05.075.052.073.052.073.054c.024.018.047.037.071.057s.046.036.069.056.046.039.068.06l.069.06.065.063.064.062.063.067c.02.021.041.043.062.067s.04.044.06.066.039.047.059.069.036.047.056.071.036.048.054.073.036.047.054.073.036.047.052.072l.05.075.048.077.048.077.044.079.043.08q.021.039.042.081c.014.026.027.053.04.081l.037.083c.013.027.024.054.035.081l.034.086.033.083.029.085.029.088.025.085.025.088c.009.029.016.058.023.087s.013.059.019.09.013.058.019.087l.016.09c.006.029.011.059.015.089l.012.09c0,.029.007.059.011.089l.008.09.006.091c0,.029,0,.059,0,.09S21.915,36.591,21.915,36.621Z" stroke-linejoin="round" stroke="#333"/>
    <g>
      <rect fill="#cb2026" x="9.941" width="1.026" height="1.026" y="33.723"/>
      <polygon fill="#333" points="11.488 33.203 9.421 33.203 9.421 35.27 11.488 35.27 11.488 33.203 11.488 33.203"/>
    </g>
    <g>
      <rect fill="#333" x="11.834" width="16.815" height="1.276" y="27.625"/>
      <path fill="#333" d="M28.129,28.146v.235H12.354v-.235H28.129m1.041-1.041H11.313v2.317H29.17V27.105Z"/>
    </g>
    <g>
      <path fill="#333" d="M25.467,36.789a1.181,1.181,0,0,0-.075-.141q-.057-.1-.123-.237c-.044-.092-.082-.177-.115-.253s-.048-.117-.063-.164l-.355-1.231-.091-.295-.093-.274-.1-.27-.111-.276c-.043-.1-.087-.2-.132-.294s-.095-.2-.147-.294-.11-.2-.169-.3-.121-.2-.188-.3-.137-.194-.216-.3-.158-.208-.235-.3l-.2-.227-.205-.223-.328-.332-.193-.189c-.2-.173-.351-.293-.466-.384-.131-.1-.224-.171-.282-.21s-.13-.086-.23-.147-.209-.129-.346-.21-.258-.149-.355-.2-.191-.1-.252-.126c-.04-.018-.092-.039-.156-.064l6.105-.455.049.075c.038.078.1.209.167.346s.115.241.148.325.079.2.124.327.1.311.166.545a5.231,5.231,0,0,1,.132.559,4.454,4.454,0,0,1,.043.474c.006.171.006.327,0,.463s-.018.276-.029.4l-.034.34c-.01.094-.023.19-.038.283l-.105.544-.109.454-.17.642a1.645,1.645,0,0,0-.04.174s-.159.517-.189.6-.06.165-.1.253c-.027.065-.045.107-.056.129l-.117.2a2.329,2.329,0,0,1-.134.214,1.7,1.7,0,0,1-.137.153.826.826,0,0,1-.115.1,1.165,1.165,0,0,1-.258.075Z"/>
      <path fill="#333" d="M26.05,29.645l.052.109c.056.117.1.212.134.295s.071.182.112.3.1.292.156.512a4.719,4.719,0,0,1,.117.494,3.688,3.688,0,0,1,.039.414c.006.158.006.3,0,.419-.008.138-.017.264-.026.366l-.035.342c-.009.087-.02.172-.032.245-.016.093-.033.185-.055.292s-.034.174-.044.222l-.051.215-.049.208-.064.24-.054.206c-.021.074-.041.149-.055.207s-.023.088-.031.123l-.028.1c-.016.059-.041.141-.077.259-.029.1-.057.188-.088.278-.022.066-.049.134-.084.217-.014.033-.026.06-.035.08l-.106.184c-.023.039-.043.074-.061.1l-.047-.1c-.022-.055-.04-.1-.046-.119l-.056-.181c-.018-.059-.035-.122-.057-.2l-.06-.208-.062-.222-.048-.16-.074-.26c-.03-.105-.062-.207-.093-.3s-.065-.2-.1-.3-.067-.183-.107-.289l-.117-.291c-.043-.1-.089-.2-.135-.3s-.1-.213-.16-.32-.118-.214-.178-.315-.135-.219-.209-.329-.145-.2-.224-.31c-.088-.12-.174-.229-.258-.329l-.208-.241c-.064-.071-.135-.149-.219-.238l-.252-.258-.277-.271c-.018-.017-.037-.035-.057-.051-.181-.152-.331-.275-.455-.372-.079-.062-.146-.113-.2-.153l.046,0,.358-.027.133-.009.241-.017.358-.027.346-.026.358-.027.358-.027.369-.026.358-.027.349-.026.357-.027.358-.027.077-.006m.568-1.085-.358.025c-.12.01-.239.019-.359.027s-.238.019-.358.027-.238.019-.358.027l-.36.027-.358.028-.358.025-.358.027-.358.027c-.12.008-.239.017-.358.027s-.239.017-.358.027l-.361.025c-.119.009-.238.019-.358.027s-.238.018-.358.027-.239.019-.358.027-.239.017-.358.027l-.358.025c-.119.01-.239.019-.358.027l-.36.027-.358.027-.359.027-.358.027-.358.025c-.119.01-.238.019-.358.027s-.239.019-.358.027l-.36.027-.358.026-.358.027c-.12.008-.239.017-.358.027l-.358.025-.358.025-.357.025a.888.888,0,0,0,.14-.007l.131-.01.248-.015.3-.012.279-.006c.09,0,.172,0,.247,0l.256,0c.093,0,.218.007.373.014s.292.016.408.027.19.019.217.023l.123.021.226.033.263.044c.079.013.15.025.212.038s.145.036.246.066.195.06.281.088.182.059.289.1l.29.1.281.1c.1.036.176.066.229.09s.125.06.218.11.2.112.336.189.244.146.337.2.163.1.214.138.134.1.248.185.255.206.427.35l.273.266.231.238c.07.075.135.145.193.21s.12.139.19.221.141.173.214.272.143.2.2.284.117.177.171.268.105.181.154.273.094.183.137.275.084.179.121.266.072.177.106.265.065.173.1.258.06.174.09.264.057.181.085.275l.071.25c.021.073.039.136.056.189l.05.181c.019.065.04.138.062.217s.042.153.063.223l.058.189c.02.058.046.128.079.208s.077.172.125.275.1.192.14.267a1.605,1.605,0,0,0,.141.21.972.972,0,0,0,.133.146.455.455,0,0,0,.088.056.158.158,0,0,0,.056.007l.058,0c.056-.006.133-.018.231-.035a2.176,2.176,0,0,0,.25-.059.8.8,0,0,0,.192-.089,1.337,1.337,0,0,0,.206-.177,2.381,2.381,0,0,0,.183-.206,2.951,2.951,0,0,0,.167-.263l.12-.208a1.568,1.568,0,0,0,.082-.179c.043-.1.079-.2.11-.287s.065-.2.1-.315.063-.209.081-.274l.031-.113c0-.011.011-.05.029-.116s.034-.132.053-.2.036-.138.058-.221.044-.164.064-.243.039-.157.057-.233.035-.149.052-.221.032-.16.052-.263.04-.2.058-.308.03-.207.042-.314.022-.222.035-.346.021-.262.029-.412.009-.321,0-.514a4.83,4.83,0,0,0-.05-.535,5.815,5.815,0,0,0-.143-.616Q27.4,30.2,27.33,30c-.049-.136-.093-.251-.132-.346s-.09-.211-.16-.354-.136-.281-.2-.412l-.216-.327Z"/>
    </g>
    <g>
      <polygon fill="#333" points="27.096 18.327 27.578 16.698 33.089 16.214 33.093 18.327 27.096 18.327"/>
      <path fill="#333" d="M32.57,16.782l0,1.025H27.793l.184-.622,4.593-.4m1.039-1.136-6.429.564L26.4,18.848h7.216l-.006-3.2Z"/>
    </g>
    <g>
      <rect fill="#333" x="39.034" width="11.057" height="26.02" y="6.134"/>
      <path fill="#333" d="M49.571,6.654V31.633H39.555V6.654H49.571m1.041-1.041h-12.1V32.674h12.1V5.613Z"/>
    </g>
  </g>
  <g>
    <path fill="#333" d="M9.848,53.185a.556.556,0,0,1-.423-.155.6.6,0,0,1-.149-.433V45.145a.581.581,0,0,1,.155-.437.57.57,0,0,1,.417-.151.708.708,0,0,1,.386.09.825.825,0,0,1,.256.319l3.119,5.868H13.24l3.107-5.868a.857.857,0,0,1,.25-.319.678.678,0,0,1,.381-.09.528.528,0,0,1,.4.151.606.606,0,0,1,.143.437V52.6a.635.635,0,0,1-.136.433.52.52,0,0,1-.411.155.536.536,0,0,1-.417-.155.618.618,0,0,1-.143-.433V46.406h.262l-2.762,5.147a.79.79,0,0,1-.2.264.466.466,0,0,1-.3.084.5.5,0,0,1-.309-.09.818.818,0,0,1-.214-.258l-2.786-5.16H10.4v6.2a.63.63,0,0,1-.137.433A.516.516,0,0,1,9.848,53.185Z"/>
    <path fill="#333" d="M21.228,53.21a2.415,2.415,0,0,1-1.09-.24,1.93,1.93,0,0,1-.756-.648,1.625,1.625,0,0,1-.273-.925,1.514,1.514,0,0,1,.327-1.025,1.92,1.92,0,0,1,1.083-.54,10.106,10.106,0,0,1,2.042-.162h.559v.744h-.547a8.587,8.587,0,0,0-1.357.084,1.341,1.341,0,0,0-.709.282.717.717,0,0,0-.208.546.949.949,0,0,0,.309.737,1.224,1.224,0,0,0,.857.282,1.428,1.428,0,0,0,.774-.209,1.527,1.527,0,0,0,.53-.571,1.694,1.694,0,0,0,.2-.827V49.357a1.4,1.4,0,0,0-.285-.983,1.256,1.256,0,0,0-.941-.3,3.416,3.416,0,0,0-.791.1,3.67,3.67,0,0,0-.851.324.522.522,0,0,1-.346.059.37.37,0,0,1-.226-.162.531.531,0,0,1-.089-.275.568.568,0,0,1,.071-.294.479.479,0,0,1,.268-.217,4.531,4.531,0,0,1,1.036-.359,4.678,4.678,0,0,1,.964-.109,3,3,0,0,1,1.315.252,1.611,1.611,0,0,1,.768.769,3.058,3.058,0,0,1,.25,1.332v3.084a.651.651,0,0,1-.143.449.522.522,0,0,1-.416.162.545.545,0,0,1-.417-.162.623.623,0,0,1-.154-.449v-.78h.107a1.788,1.788,0,0,1-.352.761,1.681,1.681,0,0,1-.636.487A2.155,2.155,0,0,1,21.228,53.21Z"/>
    <path fill="#333" d="M26.37,53.185a.591.591,0,0,1-.452-.162.619.619,0,0,1-.155-.449v-4.8a.621.621,0,0,1,.155-.456.677.677,0,0,1,.862,0,.64.64,0,0,1,.149.456v.876H26.81a1.9,1.9,0,0,1,.7-1.092,2.506,2.506,0,0,1,1.31-.431.434.434,0,0,1,.339.107.529.529,0,0,1,.137.372.515.515,0,0,1-.107.4.575.575,0,0,1-.4.173l-.226.025a1.809,1.809,0,0,0-1.179.492,1.591,1.591,0,0,0-.4,1.151v2.725a.639.639,0,0,1-.149.449A.589.589,0,0,1,26.37,53.185Z"/>
    <path fill="#333" d="M30.8,53.185a.577.577,0,0,1-.441-.162.623.623,0,0,1-.154-.449v-7.4a.62.62,0,0,1,.154-.456.594.594,0,0,1,.441-.157.614.614,0,0,1,.446.157.606.606,0,0,1,.161.456V49.8h.024l2.226-2.233a2.7,2.7,0,0,1,.345-.3.7.7,0,0,1,.4-.107.517.517,0,0,1,.382.132.436.436,0,0,1,.131.317.566.566,0,0,1-.179.379l-2.357,2.352v-.565l2.571,2.58a.511.511,0,0,1,.179.385.444.444,0,0,1-.155.317.519.519,0,0,1-.357.126.78.78,0,0,1-.435-.107,2.628,2.628,0,0,1-.374-.324l-2.381-2.328h-.024v2.148A.538.538,0,0,1,30.8,53.185Z"/>
    <path fill="#333" d="M38.94,53.21a3.426,3.426,0,0,1-1.637-.366A2.579,2.579,0,0,1,36.244,51.8a3.648,3.648,0,0,1-.006-3.21,2.721,2.721,0,0,1,1.012-1.069,3.009,3.009,0,0,1,2.547-.185,2.234,2.234,0,0,1,.815.576,2.489,2.489,0,0,1,.512.918,3.969,3.969,0,0,1,.172,1.212.378.378,0,0,1-.118.3.535.535,0,0,1-.358.1h-4v-.744h3.666l-.2.168a2.69,2.69,0,0,0-.173-1.021,1.36,1.36,0,0,0-.511-.641,1.5,1.5,0,0,0-.84-.222,1.573,1.573,0,0,0-1.535.995,2.723,2.723,0,0,0-.2,1.093v.071a2.272,2.272,0,0,0,.494,1.591,1.863,1.863,0,0,0,1.435.533,3.245,3.245,0,0,0,.756-.1,2.454,2.454,0,0,0,.755-.325.641.641,0,0,1,.364-.107.413.413,0,0,1,.261.107.418.418,0,0,1,.125.241.488.488,0,0,1-.047.293.692.692,0,0,1-.25.271,2.986,2.986,0,0,1-.941.414A4.143,4.143,0,0,1,38.94,53.21Z"/>
    <path fill="#333" d="M43.213,53.185a.592.592,0,0,1-.452-.162.619.619,0,0,1-.155-.449v-4.8a.621.621,0,0,1,.155-.456.678.678,0,0,1,.863,0,.64.64,0,0,1,.148.456v.876h-.119a1.9,1.9,0,0,1,.7-1.092,2.506,2.506,0,0,1,1.31-.431.434.434,0,0,1,.339.107.529.529,0,0,1,.137.372.515.515,0,0,1-.107.4.575.575,0,0,1-.405.173l-.226.025a1.806,1.806,0,0,0-1.178.492,1.588,1.588,0,0,0-.405,1.151v2.725a.634.634,0,0,1-.149.449A.589.589,0,0,1,43.213,53.185Z"/>
    <path fill="#333" d="M49.022,53.21a5.077,5.077,0,0,1-1.077-.12,3.186,3.186,0,0,1-1.018-.409.592.592,0,0,1-.214-.24.486.486,0,0,1-.042-.269.453.453,0,0,1,.107-.241A.391.391,0,0,1,47,51.805a.446.446,0,0,1,.292.061,3.388,3.388,0,0,0,.893.365,3.589,3.589,0,0,0,.845.1,1.633,1.633,0,0,0,.952-.229.71.71,0,0,0,.322-.611.593.593,0,0,0-.214-.486,1.559,1.559,0,0,0-.643-.27L48.32,50.51a2.125,2.125,0,0,1-1.119-.552,1.4,1.4,0,0,1-.381-1.008,1.579,1.579,0,0,1,.3-.96,1.91,1.91,0,0,1,.833-.631,3.233,3.233,0,0,1,1.238-.222,3.6,3.6,0,0,1,.988.132,3.031,3.031,0,0,1,.857.4.4.4,0,0,1,.2.221.486.486,0,0,1,.018.271.5.5,0,0,1-.125.233.368.368,0,0,1-.232.12.522.522,0,0,1-.3-.065,2.563,2.563,0,0,0-1.405-.421,1.572,1.572,0,0,0-.946.235.743.743,0,0,0-.316.629.67.67,0,0,0,.191.493,1.16,1.16,0,0,0,.595.276l1.131.228a2.38,2.38,0,0,1,1.172.528,1.311,1.311,0,0,1,.4,1.008,1.535,1.535,0,0,1-.655,1.307A2.866,2.866,0,0,1,49.022,53.21Z"/>
  </g>
</svg>