<svg width="60" height="60" xmlns="http://www.w3.org/2000/svg" viewBox="0 0 60 60">
  <rect fill="#fff" height="60" width="60"/>
  <g>
    <path fill="#cb2026" stroke-width="0.122" d="M6.288,33.7l46.325.224-.32,1.459L6.336,35.367Z" stroke-linejoin="round" stroke-linecap="round" stroke="#cb2026"/>
    <path fill="#cb2026" stroke-width="0.122" d="M49.045,32.875l4.8-.275-1.525,2.718-3.416.009Z" stroke-linejoin="round" stroke-linecap="round" stroke="#cb2026"/>
    <path fill="#cb2026" stroke-width="0.122" d="M33.957,32.846h15.4v1.145h-15.4Z" stroke-linejoin="round" stroke-linecap="round" stroke="#cb2026"/>
    <path fill="#cb2026" stroke-width="0.122" d="M34.58,31.577h4.994v1.67H34.58Z" stroke-linejoin="round" stroke-linecap="round" stroke="#cb2026"/>
    <path fill="#cb2026" stroke-width="0.122" d="M39.2,31.848h4.99v1.089H39.2Z" stroke-linejoin="round" stroke-linecap="round" stroke="#cb2026"/>
    <path fill="#cb2026" stroke-width="0.122" d="M34.987,30.4h4.5v1.351h-4.5Z" stroke-linejoin="round" stroke-linecap="round" stroke="#cb2026"/>
    <path fill="#cb2026" stroke-width="0.122" d="M41.289,30.712l.746,0,.318.327L41.3,32.171Z" stroke-linejoin="round" stroke-linecap="round" stroke="#cb2026"/>
    <path fill="#cb2026" stroke-width="0.122" d="M41.491,31.108h.87v.869h-.87Z" stroke-linejoin="round" stroke-linecap="round" stroke="#cb2026"/>
    <path fill="#cb2026" stroke-width="0.122" d="M40.725,30.944l.919,0v.519l-.512-.029Z" stroke-linejoin="round" stroke-linecap="round" stroke="#cb2026"/>
    <path fill="#cb2026" stroke-width="0.122" d="M42.086,31.063l1.664,0v.146l-1.606.066Z" stroke-linejoin="round" stroke-linecap="round" stroke="#cb2026"/>
    <path fill="#cb2026" stroke-width="0.122" d="M45.31,31.773l.746,0,.318.326L45.32,33.233Z" stroke-linejoin="round" stroke-linecap="round" stroke="#cb2026"/>
    <path fill="#cb2026" stroke-width="0.122" d="M45.512,32.169h.87v.87h-.87Z" stroke-linejoin="round" stroke-linecap="round" stroke="#cb2026"/>
    <path fill="#cb2026" stroke-width="0.122" d="M44.746,32.005l.919,0v.519l-.512-.029Z" stroke-linejoin="round" stroke-linecap="round" stroke="#cb2026"/>
    <path fill="#cb2026" stroke-width="0.122" d="M46.107,32.125l1.664,0v.146l-1.606.066Z" stroke-linejoin="round" stroke-linecap="round" stroke="#cb2026"/>
    <path fill="#cb2026" stroke-width="0.122" d="M44.073,32.727h4.075v.2H44.073Z" stroke-linejoin="round" stroke-linecap="round" stroke="#cb2026"/>
    <path fill="#cb2026" stroke-width="0.122" d="M44.985,31.31l.005.2-.8.517L42.9,31.9Z" stroke-linejoin="round" stroke-linecap="round" stroke="#cb2026"/>
    <path fill="#cb2026" stroke-width="0.122" d="M40.107,31.632h4.116v.643H40.107Z" stroke-linejoin="round" stroke-linecap="round" stroke="#cb2026"/>
    <path fill="#cb2026" stroke-width="0.122" d="M47.327,32.437h.425v.426h-.425Z" stroke-linejoin="round" stroke-linecap="round" stroke="#cb2026"/>
    <path fill="#cb2026" stroke-width="0.122" d="M48.945,32.426h.3v.209h-.3Z" stroke-linejoin="round" stroke-linecap="round" stroke="#cb2026"/>
    <path fill="#cb2026" stroke-width="0.122" d="M48.8,32.754h.681v.106H48.8Z" stroke-linejoin="round" stroke-linecap="round" stroke="#cb2026"/>
    <path fill="#cb2026" stroke-width="0.122" d="M49.169,32.5v.681h-.107V32.5Z" stroke-linejoin="round" stroke-linecap="round" stroke="#cb2026"/>
    <path fill="#cb2026" stroke-width="0.122" d="M31.577,30.077l1.786-.15.348,4.243-1.675.041Z" stroke-linejoin="round" stroke-linecap="round" stroke="#cb2026"/>
    <path fill="#cb2026" stroke-width="0.122" d="M26.556,30.686l1.129-.177.4,3.6-1.373.383Z" stroke-linejoin="round" stroke-linecap="round" stroke="#cb2026"/>
    <path fill="#cb2026" stroke-width="0.122" d="M29.148,32.457h1.337v1.925H29.148Z" stroke-linejoin="round" stroke-linecap="round" stroke="#cb2026"/>
    <path fill="#cb2026" stroke-width="0.122" d="M30.215,33H31v1.132h-.787Z" stroke-linejoin="round" stroke-linecap="round" stroke="#cb2026"/>
    <path fill="#cb2026" stroke-width="0.122" d="M12.491,32.857H22.767V34.1H12.489Z" stroke-linejoin="round" stroke-linecap="round" stroke="#cb2026"/>
    <path fill="#cb2026" stroke-width="0.122" d="M11.825,32.159l3.486.558v.421l-3.487-.559Z" stroke-linejoin="round" stroke-linecap="round" stroke="#cb2026"/>
    <path fill="#cb2026" stroke-width="0.122" d="M12.472,32.554h4.177v.564H12.472Z" stroke-linejoin="round" stroke-linecap="round" stroke="#cb2026"/>
    <path fill="#cb2026" stroke-width="0.122" d="M16.7,32.321h.585v.729H16.7Z" stroke-linejoin="round" stroke-linecap="round" stroke="#cb2026"/>
    <path fill="#cb2026" stroke-width="0.122" d="M17.483,32.337h1.692V33H17.483Z" stroke-linejoin="round" stroke-linecap="round" stroke="#cb2026"/>
    <path fill="#cb2026" stroke-width="0.122" d="M19.094,31.329h1.481v.4H19.094Z" stroke-linejoin="round" stroke-linecap="round" stroke="#cb2026"/>
    <path fill="#cb2026" stroke-width="0.122" d="M19.257,31.689h.5v1.3h-.5Z" stroke-linejoin="round" stroke-linecap="round" stroke="#cb2026"/>
    <path fill="#cb2026" stroke-width="0.122" d="M21.684,31.881l.529-.086.412.571-.886,1.145Z" stroke-linejoin="round" stroke-linecap="round" stroke="#cb2026"/>
    <path fill="#cb2026" stroke-width="0.122" d="M21.2,31.849h.288v.709H21.2Z" stroke-linejoin="round" stroke-linecap="round" stroke="#cb2026"/>
    <path fill="#cb2026" stroke-width="0.122" d="M22.23,32.372v.2h-1v-.2Z" stroke-linejoin="round" stroke-linecap="round" stroke="#cb2026"/>
    <path fill="#cb2026" stroke-width="0.122" d="M11.479,32.659l-.746.005-.318.326,1.054,1.129Z" stroke-linejoin="round" stroke-linecap="round" stroke="#cb2026"/>
    <path fill="#cb2026" stroke-width="0.122" d="M11.277,33.055h-.87v.87h.87Z" stroke-linejoin="round" stroke-linecap="round" stroke="#cb2026"/>
    <path fill="#cb2026" stroke-width="0.122" d="M12.043,32.891l-.919,0v.52l.512-.029Z" stroke-linejoin="round" stroke-linecap="round" stroke="#cb2026"/>
    <path fill="#cb2026" stroke-width="0.122" d="M10.682,33.011l-1.663,0v.146l1.606.066Z" stroke-linejoin="round" stroke-linecap="round" stroke="#cb2026"/>
    <path fill="#cb2026" stroke-width="0.122" d="M15.93,31.677l-.526,0-.224.23.743.795Z" stroke-linejoin="round" stroke-linecap="round" stroke="#cb2026"/>
    <path fill="#cb2026" stroke-width="0.122" d="M15.787,31.955h-.612v.613h.612Z" stroke-linejoin="round" stroke-linecap="round" stroke="#cb2026"/>
    <path fill="#cb2026" stroke-width="0.122" d="M16.327,31.84l-.647,0V32.2l.36-.02Z" stroke-linejoin="round" stroke-linecap="round" stroke="#cb2026"/>
    <path fill="#cb2026" stroke-width="0.122" d="M15.368,31.924l-1.172,0v.1l1.131.047Z" stroke-linejoin="round" stroke-linecap="round" stroke="#cb2026"/>
    <path fill="#cb2026" stroke-width="0.122" d="M18.888,28.058h.1v5h-.1Z" stroke-linejoin="round" stroke-linecap="round" stroke="#cb2026"/>
    <path fill="#cb2026" stroke-width="0.122" d="M18.588,28.86h.791v.107h-.791Z" stroke-linejoin="round" stroke-linecap="round" stroke="#cb2026"/>
    <path fill="#cb2026" stroke-width="0.122" d="M33.255,21.857h.19v2.3h-.19Z" stroke-linejoin="round" stroke-linecap="round" stroke="#cb2026"/>
    <path fill="#cb2026" stroke-width="0.122" d="M33.428,22.672l.137-.068L34.671,31.7l-.239.1Z" stroke-linejoin="round" stroke-linecap="round" stroke="#cb2026"/>
    <path fill="#cb2026" stroke-width="0.122" d="M33.956,26.406l-.1-.051-.827,6.789.18.073Z" stroke-linejoin="round" stroke-linecap="round" stroke="#cb2026"/>
    <path fill="#cb2026" stroke-width="0.122" d="M34.736,29.281h1.092v.568H34.737Z" stroke-linejoin="round" stroke-linecap="round" stroke="#cb2026"/>
    <path fill="#cb2026" stroke-width="0.122" d="M35.1,29.757h.5v1h-.5Z" stroke-linejoin="round" stroke-linecap="round" stroke="#cb2026"/>
    <path fill="#cb2026" stroke-width="0.122" d="M35.963,29.388h.5l.392,1.162-.894-.153Z" stroke-linejoin="round" stroke-linecap="round" stroke="#cb2026"/>
  </g>
  <g>
    <path fill="#cb2026" d="M15.139,49.569c-.046-.906-.1-2.007-.077-2.9h-.04c-.157.883-.373,1.864-.569,2.636l-.834,3.29h-.878l-.795-3.2c-.206-.822-.43-1.825-.57-2.728h-.034c-.01.914-.065,1.983-.111,2.941l-.142,3.08H9.973l.535-8.084h1.365l.779,3.274c.245,1.043.449,1.891.606,2.808h.03c.139-.909.318-1.756.552-2.808l.764-3.274h1.377l.478,8.084H15.3Z"/>
    <path fill="#cb2026" d="M21.505,49.758c0,2.354-1.213,3.028-2.1,3.028-1.239,0-2.084-1.035-2.084-3,0-2.109,1.036-3.029,2.127-3.029C20.673,46.756,21.505,47.832,21.505,49.758Zm-2.907.007c0,.982.166,2.033.848,2.033.637,0,.783-1.152.783-2.033,0-.848-.146-2.021-.807-2.021C18.737,47.744,18.6,48.917,18.6,49.765Z"/>
    <path fill="#cb2026" d="M23.242,46.852l.421,2.668c.1.631.2,1.236.254,1.812h.041c.089-.576.218-1.23.342-1.789l.585-2.691h.988l.555,2.623c.135.656.252,1.251.338,1.857H26.8c.057-.579.146-1.187.255-1.837l.446-2.643h1.271L27.284,52.69H26.206L25.663,50.3a16.891,16.891,0,0,1-.309-1.794h-.023a16.81,16.81,0,0,1-.341,1.814L24.4,52.69H23.311L21.88,46.852Z"/>
    <path fill="#cb2026" d="M29.5,44.391h1.28v3.078H30.8a1.733,1.733,0,0,1,.5-.5,1.478,1.478,0,0,1,.783-.211c.924,0,1.435.767,1.435,2.246V52.69h-1.28V49.045c0-.633-.131-1.211-.673-1.211-.337,0-.609.224-.738.722a2.394,2.394,0,0,0-.051.438v3.7H29.5Z"/>
    <path fill="#cb2026" d="M37.19,52.69l-.075-.594h-.029a1.428,1.428,0,0,1-1.236.69,1.554,1.554,0,0,1-1.469-1.726c0-1.5,1.268-2.134,2.589-2.147v-.154c0-.608-.238-1.035-.872-1.035a1.972,1.972,0,0,0-1.089.323l-.246-.873a3.24,3.24,0,0,1,1.613-.418c1.5,0,1.888,1.029,1.888,2.271v2.334a8.994,8.994,0,0,0,.075,1.329ZM37,49.767c-.5.006-1.4.145-1.4,1.162,0,.658.351.9.632.9a.777.777,0,0,0,.739-.668,1.242,1.242,0,0,0,.03-.3Z"/>
    <path fill="#cb2026" d="M40.186,46.852l.42,2.668c.1.631.2,1.236.254,1.812H40.9c.09-.576.218-1.23.342-1.789l.585-2.691h.987l.557,2.623c.135.656.252,1.251.337,1.857h.035c.057-.579.146-1.187.254-1.837l.446-2.643h1.272L44.228,52.69H43.149L42.606,50.3a16.9,16.9,0,0,1-.308-1.794h-.024a16.81,16.81,0,0,1-.341,1.814l-.585,2.371H40.254l-1.431-5.838Z"/>
    <path fill="#cb2026" d="M47.711,49.479h.024c.108-.291.2-.522.3-.743l.934-1.884h1.382L48.883,49.3,50.46,52.69H49.033l-1.025-2.556-.3.523V52.69H46.438v-8.3h1.273Z"/>
  </g>
  <g>
    <path fill="#cb2026" d="M8.762,7.032a17.662,17.662,0,0,1,2.751-.2,5.758,5.758,0,0,1,3.847,1.09,4.225,4.225,0,0,1,1.48,3.475,4.893,4.893,0,0,1-1.47,3.756,6.355,6.355,0,0,1-4.276,1.285,18.777,18.777,0,0,1-2.332-.124Zm1.724,8a6.631,6.631,0,0,0,.961.046c2.24.011,3.572-1.231,3.572-3.621A3.006,3.006,0,0,0,11.662,8.17a5.8,5.8,0,0,0-1.176.1Z"/>
    <path fill="#cb2026" d="M18.324,7.032a17.662,17.662,0,0,1,2.751-.2,5.758,5.758,0,0,1,3.847,1.09,4.225,4.225,0,0,1,1.48,3.475,4.893,4.893,0,0,1-1.47,3.756,6.355,6.355,0,0,1-4.276,1.285,18.777,18.777,0,0,1-2.332-.124Zm1.724,8a6.631,6.631,0,0,0,.961.046c2.24.011,3.572-1.231,3.572-3.621A3.006,3.006,0,0,0,21.224,8.17a5.8,5.8,0,0,0-1.176.1Z"/>
    <path fill="#cb2026" d="M36,8.382H35.97l-1.581.853L34.153,8.3l1.989-1.059h1.045v9.1H36Z"/>
    <path fill="#cb2026" d="M39.861,16.9l3.9-10.155h.959L40.8,16.9Z"/>
    <path fill="#cb2026" d="M45.3,16.343v-.75l.967-.938c2.324-2.216,3.382-3.4,3.389-4.772A1.618,1.618,0,0,0,47.862,8.1a3.144,3.144,0,0,0-1.936.771l-.393-.862a4,4,0,0,1,2.575-.926A2.558,2.558,0,0,1,50.89,9.726c0,1.691-1.219,3.05-3.135,4.889l-.721.68v.028h4.08v1.02Z"/>
  </g>
</svg>