<svg width="60" height="60" xmlns="http://www.w3.org/2000/svg" viewBox="0 0 60 60">
  <rect fill="#fff" height="60" width="60"/>
  <g>
    <path fill="#cb2026" stroke-width="0.124" d="M2.58,33.757H57.526V35.4l-55.241-.1Z" stroke-linejoin="round" stroke-linecap="round" stroke="#cb2026"/>
    <path fill="#cb2026" stroke-width="0.124" d="M56.244,32.606l1.747-.214L57.547,35.4h-3.1Z" stroke-linejoin="round" stroke-linecap="round" stroke="#cb2026"/>
    <path fill="#cb2026" stroke-width="0.124" d="M48.079,32.975l8.376-.372v1.3H48.044Z" stroke-linejoin="round" stroke-linecap="round" stroke="#cb2026"/>
    <path fill="#cb2026" stroke-width="0.124" d="M49.7,32.513h.616v.616H49.7Z" stroke-linejoin="round" stroke-linecap="round" stroke="#cb2026"/>
    <path fill="#cb2026" stroke-width="0.124" d="M48.985,32.619h1.437V33.1H48.985Z" stroke-linejoin="round" stroke-linecap="round" stroke="#cb2026"/>
    <path fill="#cb2026" stroke-width="0.124" d="M48.164,32.731H49.6v.476H48.164Z" stroke-linejoin="round" stroke-linecap="round" stroke="#cb2026"/>
    <path fill="#cb2026" stroke-width="0.124" d="M45.155,31.941h2.216v.774H45.155Z" stroke-linejoin="round" stroke-linecap="round" stroke="#cb2026"/>
    <path fill="#cb2026" stroke-width="0.124" d="M47.349,32.033l.4-.016.33.491-.727.571Z" stroke-linejoin="round" stroke-linecap="round" stroke="#cb2026"/>
    <path fill="#cb2026" stroke-width="0.124" d="M45.8,32.491h2.263v1.453H45.8Z" stroke-linejoin="round" stroke-linecap="round" stroke="#cb2026"/>
    <path fill="#cb2026" stroke-width="0.124" d="M47.654,32.232h2.254v.192H47.654Z" stroke-linejoin="round" stroke-linecap="round" stroke="#cb2026"/>
    <path fill="#cb2026" stroke-width="0.124" d="M45.276,32.684h.314v.561h-.314Z" stroke-linejoin="round" stroke-linecap="round" stroke="#cb2026"/>
    <path fill="#cb2026" stroke-width="0.124" d="M34.208,32.257H44.931V33.9H34.208Z" stroke-linejoin="round" stroke-linecap="round" stroke="#cb2026"/>
    <path fill="#cb2026" stroke-width="0.124" d="M44.808,33.065h1.14v.77h-1.14Z" stroke-linejoin="round" stroke-linecap="round" stroke="#cb2026"/>
    <path fill="#cb2026" stroke-width="0.124" d="M40.77,31.042h2.217v.773H40.77Z" stroke-linejoin="round" stroke-linecap="round" stroke="#cb2026"/>
    <path fill="#cb2026" stroke-width="0.124" d="M42.964,31.134l.4-.017.331.491-.728.572Z" stroke-linejoin="round" stroke-linecap="round" stroke="#cb2026"/>
    <path fill="#cb2026" stroke-width="0.124" d="M41.41,31.592h2.264v1.453H41.41Z" stroke-linejoin="round" stroke-linecap="round" stroke="#cb2026"/>
    <path fill="#cb2026" stroke-width="0.124" d="M43.269,31.333h2.254v.193H43.269Z" stroke-linejoin="round" stroke-linecap="round" stroke="#cb2026"/>
    <path fill="#cb2026" stroke-width="0.124" d="M41.4,30.473h.3v.3h-.3Z" stroke-linejoin="round" stroke-linecap="round" stroke="#cb2026"/>
    <path fill="#cb2026" stroke-width="0.124" d="M41.557,30.176h.122v.947h-.122Z" stroke-linejoin="round" stroke-linecap="round" stroke="#cb2026"/>
    <path fill="#cb2026" stroke-width="0.124" d="M41.869,30.478h.084l-.3.438h-.084Z" stroke-linejoin="round" stroke-linecap="round" stroke="#cb2026"/>
    <path fill="#cb2026" stroke-width="0.124" d="M37.057,29.6h2.458v2.874H37.057Z" stroke-linejoin="round" stroke-linecap="round" stroke="#cb2026"/>
    <path fill="#cb2026" stroke-width="0.124" d="M36.521,30.253h.77v.434h-.77Z" stroke-linejoin="round" stroke-linecap="round" stroke="#cb2026"/>
    <path fill="#cb2026" stroke-width="0.124" d="M37.25,27.9h.406v1.715H37.25Z" stroke-linejoin="round" stroke-linecap="round" stroke="#cb2026"/>
    <path fill="#cb2026" stroke-width="0.124" d="M36.757,28.1h.232v1.1h-.232Z" stroke-linejoin="round" stroke-linecap="round" stroke="#cb2026"/>
    <path fill="#cb2026" stroke-width="0.124" d="M36.9,28.736h1.67v.4H36.9Z" stroke-linejoin="round" stroke-linecap="round" stroke="#cb2026"/>
    <path fill="#cb2026" stroke-width="0.124" d="M36.96,29.1h1.507v.84H36.96Z" stroke-linejoin="round" stroke-linecap="round" stroke="#cb2026"/>
    <path fill="#cb2026" stroke-width="0.124" d="M37.65,28.171h.716v.82H37.65Z" stroke-linejoin="round" stroke-linecap="round" stroke="#cb2026"/>
    <path fill="#cb2026" stroke-width="0.124" d="M38.964,29.076h.715v.82h-.715Z" stroke-linejoin="round" stroke-linecap="round" stroke="#cb2026"/>
    <path fill="#cb2026" stroke-width="0.124" d="M39.837,31.967H40.1v.3h-.262Z" stroke-linejoin="round" stroke-linecap="round" stroke="#cb2026"/>
    <path fill="#cb2026" stroke-width="0.124" d="M43.849,31.909h.306v.579h-.306Z" stroke-linejoin="round" stroke-linecap="round" stroke="#cb2026"/>
    <path fill="#cb2026" stroke-width="0.124" d="M44.355,31.987h.3v.578h-.3Z" stroke-linejoin="round" stroke-linecap="round" stroke="#cb2026"/>
    <path fill="#cb2026" stroke-width="0.124" d="M35.408,30.888H35.7v.324h-.293Z" stroke-linejoin="round" stroke-linecap="round" stroke="#cb2026"/>
    <path fill="#cb2026" stroke-width="0.124" d="M35.483,31.131h.143V32.32h-.143Z" stroke-linejoin="round" stroke-linecap="round" stroke="#cb2026"/>
    <path fill="#cb2026" stroke-width="0.124" d="M34.85,31.316h.143v1.189H34.85Z" stroke-linejoin="round" stroke-linecap="round" stroke="#cb2026"/>
    <path fill="#cb2026" stroke-width="0.124" d="M34.626,31.705H35.3v.612h-.671Z" stroke-linejoin="round" stroke-linecap="round" stroke="#cb2026"/>
    <path fill="#cb2026" stroke-width="0.124" d="M34.914,20.776l.164.012,1.388,11.453-.315.012Z" stroke-linejoin="round" stroke-linecap="round" stroke="#cb2026"/>
    <path fill="#cb2026" stroke-width="0.124" d="M28.8,28.162h1.911l.63,4.257-2.087.114Z" stroke-linejoin="round" stroke-linecap="round" stroke="#cb2026"/>
    <path fill="#cb2026" stroke-width="0.124" d="M30.985,31.48v1.705h4.333Z" stroke-linejoin="round" stroke-linecap="round" stroke="#cb2026"/>
    <path fill="#cb2026" stroke-width="0.124" d="M25.373,32.552h8.963v1.374H25.373Z" stroke-linejoin="round" stroke-linecap="round" stroke="#cb2026"/>
    <path fill="#cb2026" stroke-width="0.124" d="M25.323,28.285l1.135.05.969,4.379-1.5-.013Z" stroke-linejoin="round" stroke-linecap="round" stroke="#cb2026"/>
    <path fill="#cb2026" stroke-width="0.124" d="M15.987,33.031h9.558v1.16H15.987Z" stroke-linejoin="round" stroke-linecap="round" stroke="#cb2026"/>
    <path fill="#cb2026" stroke-width="0.124" d="M15.987,32.208h3.784v1.145H15.987Z" stroke-linejoin="round" stroke-linecap="round" stroke="#cb2026"/>
    <path fill="#cb2026" stroke-width="0.124" d="M19.043,30.112h.872v.735h-.872Z" stroke-linejoin="round" stroke-linecap="round" stroke="#cb2026"/>
    <path fill="#cb2026" stroke-width="0.124" d="M17.936,30.649h.651v.686h-.651Z" stroke-linejoin="round" stroke-linecap="round" stroke="#cb2026"/>
    <path fill="#cb2026" stroke-width="0.124" d="M15.871,31.707h.652v.685h-.652Z" stroke-linejoin="round" stroke-linecap="round" stroke="#cb2026"/>
    <path fill="#cb2026" stroke-width="0.124" d="M17,31.74h2.753v.521H17Z" stroke-linejoin="round" stroke-linecap="round" stroke="#cb2026"/>
    <path fill="#cb2026" stroke-width="0.124" d="M18.052,31.237h1.719v.532H18.052Z" stroke-linejoin="round" stroke-linecap="round" stroke="#cb2026"/>
    <path fill="#cb2026" stroke-width="0.124" d="M19.244,30.7h.419v.615h-.419Z" stroke-linejoin="round" stroke-linecap="round" stroke="#cb2026"/>
    <path fill="#cb2026" stroke-width="0.124" d="M14.007,20.784l.2.016,1.641,13.121-.346.085Z" stroke-linejoin="round" stroke-linecap="round" stroke="#cb2026"/>
    <path fill="#cb2026" stroke-width="0.124" d="M21.39,32.05h2.059v1.319H21.39Z" stroke-linejoin="round" stroke-linecap="round" stroke="#cb2026"/>
    <path fill="#cb2026" stroke-width="0.124" d="M20.25,31.633h4.394v.579H20.25Z" stroke-linejoin="round" stroke-linecap="round" stroke="#cb2026"/>
    <path fill="#cb2026" stroke-width="0.124" d="M14.818,32.7h-.727v.241h.727Z" stroke-linejoin="round" stroke-linecap="round" stroke="#cb2026"/>
    <path fill="#cb2026" stroke-width="0.124" d="M15.209,32.893H12.993v.774h2.216Z" stroke-linejoin="round" stroke-linecap="round" stroke="#cb2026"/>
    <path fill="#cb2026" stroke-width="0.124" d="M13.015,32.986l-.4-.017-.331.491.727.572Z" stroke-linejoin="round" stroke-linecap="round" stroke="#cb2026"/>
    <path fill="#cb2026" stroke-width="0.124" d="M14.569,33.443H12.306V34.9h2.263Z" stroke-linejoin="round" stroke-linecap="round" stroke="#cb2026"/>
    <path fill="#cb2026" stroke-width="0.124" d="M12.71,33.184H10.457v.192H12.71Z" stroke-linejoin="round" stroke-linecap="round" stroke="#cb2026"/>
    <path fill="#cb2026" stroke-width="0.124" d="M14.719,32.423h-.488v.161h.488Z" stroke-linejoin="round" stroke-linecap="round" stroke="#cb2026"/>
    <path fill="#cb2026" stroke-width="0.124" d="M14.453,32.747v-.488h.162v.488Z" stroke-linejoin="round" stroke-linecap="round" stroke="#cb2026"/>
    <path fill="#cb2026" stroke-width="0.124" d="M17.05,31.041H17.5v.449H17.05Z" stroke-linejoin="round" stroke-linecap="round" stroke="#cb2026"/>
    <path fill="#cb2026" stroke-width="0.124" d="M17.122,31.4h.356v.357h-.356Z" stroke-linejoin="round" stroke-linecap="round" stroke="#cb2026"/>
  </g>
  <g>
    <path fill="#cb2026" d="M19.294,52.69V44.606h1.185l1.351,3.451c.286.733.691,1.783.941,2.562H22.8c-.063-1.037-.138-2.282-.138-3.728V44.606H23.79V52.69H22.605L21.24,49.25a24.921,24.921,0,0,1-.886-2.57H20.33c.056.933.1,2.08.1,3.751V52.69Z"/>
    <path fill="#cb2026" d="M27.563,52.69l-.075-.594h-.03a1.428,1.428,0,0,1-1.236.69,1.554,1.554,0,0,1-1.469-1.726c0-1.5,1.268-2.134,2.59-2.147v-.154c0-.608-.238-1.035-.873-1.035a1.977,1.977,0,0,0-1.089.323l-.246-.873a3.244,3.244,0,0,1,1.614-.418c1.5,0,1.887,1.029,1.887,2.271v2.334a8.988,8.988,0,0,0,.076,1.329Zm-.186-2.923c-.5.006-1.4.145-1.4,1.162,0,.658.352.9.633.9a.776.776,0,0,0,.738-.668,1.193,1.193,0,0,0,.031-.3Z"/>
    <path fill="#cb2026" d="M31.148,45.322a.689.689,0,1,1-.689-.744A.684.684,0,0,1,31.148,45.322ZM29.833,52.69V46.852h1.279V52.69Z"/>
    <path fill="#cb2026" d="M34.774,52.69,34.7,52.1H34.67a1.428,1.428,0,0,1-1.236.69,1.554,1.554,0,0,1-1.469-1.726c0-1.5,1.268-2.134,2.589-2.147v-.154c0-.608-.238-1.035-.872-1.035a1.972,1.972,0,0,0-1.089.323l-.246-.873a3.24,3.24,0,0,1,1.613-.418c1.5,0,1.888,1.029,1.888,2.271v2.334a8.994,8.994,0,0,0,.075,1.329Zm-.186-2.923c-.5.006-1.4.145-1.4,1.162,0,.658.351.9.632.9a.777.777,0,0,0,.739-.668,1.242,1.242,0,0,0,.03-.3Z"/>
    <path fill="#cb2026" d="M40.96,44.391v6.721c0,.48.029,1.13.048,1.578h-1.1L39.834,52H39.8a1.382,1.382,0,0,1-1.219.788c-1.129,0-1.764-1.238-1.764-3,0-2.049.881-3.032,1.825-3.032a1.06,1.06,0,0,1,1.021.634h.024v-3Zm-1.273,4.693a2.331,2.331,0,0,0-.019-.36c-.055-.469-.317-.884-.7-.884-.647,0-.879.921-.879,1.966,0,1.165.31,1.924.847,1.924.241,0,.539-.126.7-.723a1.361,1.361,0,0,0,.044-.376Z"/>
  </g>
  <g>
    <g>
      <path fill="#cb2026" d="M42.074,25.18l-1.166,3.3h-.682l3.414-9.441h.647l3.4,9.441H47l-1.187-3.3Zm3.533-.56-1.148-3.155c-.231-.655-.357-1.128-.494-1.664H43.93a16.865,16.865,0,0,1-.491,1.636L42.284,24.62Z"/>
      <path fill="#cb2026" d="M50.265,25.18l-1.166,3.3h-.684l3.415-9.441h.648l3.4,9.441h-.69L54,25.18Zm3.533-.56-1.149-3.155c-.231-.655-.357-1.128-.494-1.664H52.12a16.849,16.849,0,0,1-.49,1.636L50.475,24.62Z"/>
    </g>
    <g>
      <path fill="#cb2026" d="M17.572,16.064a6.1,6.1,0,0,1-2.45.427A4.46,4.46,0,0,1,10.3,11.735a4.754,4.754,0,0,1,5.053-4.98,5.292,5.292,0,0,1,2.287.417l-.374,1.375a4.488,4.488,0,0,0-1.842-.37,3.142,3.142,0,0,0-3.309,3.472,3.087,3.087,0,0,0,3.287,3.4,5.035,5.035,0,0,0,1.882-.341Z"/>
      <path fill="#cb2026" d="M19.025,6.9h1.726V14.9h3.882v1.447H19.025Z"/>
      <path fill="#cb2026" d="M31.359,16.343v-.75l.967-.938c2.324-2.216,3.383-3.4,3.389-4.772A1.618,1.618,0,0,0,33.921,8.1a3.152,3.152,0,0,0-1.938.771l-.392-.862a4,4,0,0,1,2.575-.926,2.557,2.557,0,0,1,2.781,2.642c0,1.691-1.218,3.05-3.135,4.889l-.719.68v.028h4.08v1.02Z"/>
      <path fill="#cb2026" d="M37.9,16.9l3.9-10.155h.959L38.841,16.9Z"/>
      <path fill="#cb2026" d="M48.547,8.1a5.2,5.2,0,0,0-.932.066A3.66,3.66,0,0,0,44.46,11.4h.033a2.774,2.774,0,0,1,4.951,1.882A3.05,3.05,0,0,1,46.41,16.5c-1.94,0-3.214-1.516-3.214-3.876a5.709,5.709,0,0,1,1.541-4.107,4.943,4.943,0,0,1,2.912-1.349A5.146,5.146,0,0,1,48.54,7.1Zm-.353,5.261a1.851,1.851,0,0,0-1.872-2.087,2.029,2.029,0,0,0-1.774,1.117,1.165,1.165,0,0,0-.132.54c.019,1.5.709,2.618,2,2.618C47.479,15.551,48.194,14.665,48.194,13.363Z"/>
    </g>
  </g>
</svg>