<!-- Generator: Adobe Illustrator 25.2.3, SVG Export Plug-In . SVG Version: 6.00 Build 0)  --><svg x="0px" enable-background="new 0 0 60 60" y="0px" width="60px" xmlns:xlink="http://www.w3.org/1999/xlink" viewBox="0 0 60 60" height="60px" id="Layer_1" xmlns="http://www.w3.org/2000/svg" xml:space="preserve" version="1.1">
<rect width="60" fill="#640D0D" x="-0.012" height="60" id="UnitColor_2_" y="-0.085"/>
<rect width="60" fill="#EE1E3A" height="20.189" id="CS_2_" y="11.533" display="none"/>
<g id="Gar" display="none">
	<rect width="14.843" fill="none" x="0.73" height="8.039" y="2.802" display="inline"/>
	<path fill="#F7ED38" d="M11.03,10.06c-0.472,0.163-1.361,0.379-2.249,0.379c-1.231,0-2.119-0.308-2.739-0.903   C5.424,8.949,5.085,8.072,5.089,7.083C5.097,4.842,6.73,3.567,8.936,3.567c0.87,0,1.539,0.165,1.873,0.323L10.49,5.111   C10.117,4.95,9.664,4.825,8.922,4.825c-1.27,0-2.235,0.714-2.235,2.18c0,1.391,0.878,2.205,2.125,2.205   c0.344,0,0.623-0.04,0.745-0.095V7.699H8.516V6.512h2.514V10.06z" display="inline"/>
</g>
<g id="Eng" display="none">
	<rect width="27.832" fill="none" x="1.1" height="8.039" y="2.802" display="inline"/>
	<path fill="#F7ED38" d="M17.011,7.521h-2.479v1.602h2.771v1.248h-4.294V3.634h4.15v1.248h-2.626v1.403h2.479   V7.521z" display="inline"/>
</g>
<g id="P2" display="none">
	<path fill="#F7ED38" d="M19.024,28.186c0.472-1.148,0.803-2.149,0.992-3.001c0.282-1.24,0.423-2.417,0.423-3.534   c0-1.066-0.099-2.078-0.295-3.035c-0.197-0.957-0.575-2.146-1.135-3.568h1.146c0.628,1.03,1.101,2.092,1.419,3.186   c0.319,1.094,0.478,2.185,0.478,3.274c0,1.094-0.159,2.218-0.476,3.374s-0.786,2.257-1.407,3.305H19.024z" display="inline"/>
</g>
<g id="P1" display="none">
	<path fill="#F7ED38" d="M8.327,28.186H7.182c-0.605-1.025-1.071-2.111-1.396-3.257s-0.487-2.257-0.487-3.333   c0-1.162,0.163-2.296,0.489-3.401c0.326-1.105,0.795-2.154,1.408-3.148h1.146c-0.56,1.422-0.938,2.611-1.135,3.568   c-0.197,0.957-0.295,1.969-0.295,3.035c0,1.103,0.139,2.27,0.416,3.5C7.522,26.016,7.855,27.028,8.327,28.186z" display="inline"/>
</g>
<g id="Type">
	<path fill="#F7ED38" d="M53.265,12.893v17.022H26.785V12.893H53.265z M51.846,14.312H28.204v14.185h23.642V14.312z M33.444,26.415   h-1.43V16.353c0.909-0.15,1.831-0.224,2.754-0.219c1.138-0.108,2.275,0.19,3.215,0.84c0.569,0.481,0.889,1.194,0.87,1.939   c-0.026,1.24-0.884,2.308-2.09,2.6v0.037c0.873,0.347,1.493,1.135,1.625,2.065c0.198,0.957,0.482,1.895,0.852,2.8h-1.486   c-0.324-0.788-0.567-1.605-0.728-2.443c-0.33-1.396-0.929-1.938-2.226-1.978h-1.356V26.415z M33.443,17.273l0.002,3.724h1.463   c1.532,0,2.502-0.768,2.502-1.937c0-1.324-1.04-1.902-2.549-1.904C34.386,17.146,33.91,17.185,33.443,17.273z M42.292,26.415h-1.43   V16.353c0.909-0.15,1.832-0.224,2.754-0.219c1.138-0.108,2.276,0.19,3.215,0.84c0.568,0.481,0.888,1.194,0.869,1.939   c-0.026,1.24-0.884,2.308-2.09,2.6v0.037c0.874,0.347,1.494,1.135,1.627,2.065c0.198,0.957,0.482,1.895,0.851,2.8h-1.484   c-0.324-0.788-0.568-1.605-0.729-2.443c-0.328-1.396-0.928-1.938-2.225-1.978h-1.357V26.415z M42.287,17.273l0.005,3.724h1.463   c1.533,0,2.504-0.768,2.504-1.937c0-1.324-1.04-1.902-2.553-1.904C43.23,17.146,42.754,17.185,42.287,17.273z"/>
</g>
<g id="STK">
	<path fill="#F7ED38" d="M18.101,21.68c0,3.77-1.473,6.13-4.277,6.13c-2.693,0-4.128-2.456-4.151-6.017   c0-3.641,1.549-6.083,4.283-6.083C16.786,15.71,18.101,18.237,18.101,21.68z M11.897,21.789c-0.006,2.854,0.775,4.33,1.998,4.33   c1.313,0,1.982-1.585,1.982-4.389c0-2.727-0.641-4.323-1.98-4.323C12.723,17.407,11.894,18.863,11.897,21.789z"/>
</g>
<g id="ECH">
	<rect width="27.832" x="26.078" fill="none" height="8.039" y="2.802"/>
	<path fill="#F7ED38" d="M39.688,7.237v1.012h-2.614V7.237H39.688z"/>
	<path fill="#F7ED38" d="M42.908,7.237v1.012h-2.614V7.237H42.908z"/>
</g>
<g id="PF">
	<rect width="60" x="0" fill="none" height="15.475" y="44.525"/>
	<path fill="#F7ED38" d="M29.696,52.494v0.939H27.71v-0.939H29.696z"/>
	<path fill="#F7ED38" d="M32.285,52.494v0.939H30.3v-0.939H32.285z"/>
</g>
<g id="Des">
	<rect width="60" x="0" fill="none" height="14.525" y="31.722"/>
	<path fill="#F7ED38" d="M16.729,35.361h-0.036l-1.967,1.065l-0.342-1.503l2.587-1.415h1.652v11.703h-1.894V35.361z"/>
	<path fill="#F7ED38" d="M27.667,39.319c0,4.231-1.447,6.037-3.257,6.037c-2.219,0-3.185-2.584-3.185-5.955   c0-3.627,1.12-6.037,3.309-6.037C26.875,33.364,27.667,36.112,27.667,39.319z M23.155,39.36c-0.021,2.778,0.382,4.349,1.34,4.349   c0.892,0,1.242-1.611,1.242-4.349c0-2.614-0.33-4.349-1.25-4.349C23.578,35.012,23.145,36.603,23.155,39.36z"/>
	<path fill="#F7ED38" d="M32.027,45.212V33.076h1.778l2.029,5.18c0.43,1.101,1.037,2.678,1.413,3.847h0.036   c-0.096-1.557-0.208-3.427-0.208-5.598v-3.429h1.701v12.136h-1.778l-2.05-5.166c-0.448-1.114-0.982-2.577-1.331-3.857h-0.036   c0.085,1.401,0.146,3.123,0.146,5.632v3.392H32.027z"/>
	<path fill="#F7ED38" d="M40.102,44.08l3.988-9.287v-0.046h-3.636v-1.671h5.799v1.383l-3.865,9.028v0.055h3.848v1.67h-6.134V44.08z"/>
</g>
<g>
</g>
<g>
</g>
<g>
</g>
<g>
</g>
<g>
</g>
<g>
</g>
</svg>