<!-- Generator: Adobe Illustrator 25.2.3, SVG Export Plug-In . SVG Version: 6.00 Build 0)  --><svg x="0px" enable-background="new 0 0 60 60" y="0px" width="60px" xmlns:xlink="http://www.w3.org/1999/xlink" viewBox="0 0 60 60" height="60px" id="Layer_1" xmlns="http://www.w3.org/2000/svg" xml:space="preserve" version="1.1">
<rect width="60" fill="#640D0D" x="-0.012" height="60" id="UnitColor_2_" y="-0.085"/>
<rect width="60" fill="#EE1E3A" height="20.189" id="CS_2_" y="11.533" display="none"/>
<g id="Gar" display="none">
	<rect width="14.843" fill="none" x="0.73" height="8.039" y="2.802" display="inline"/>
	<path fill="#F7ED38" d="M11.03,10.06c-0.472,0.163-1.361,0.379-2.249,0.379c-1.231,0-2.119-0.308-2.739-0.903   C5.424,8.949,5.085,8.072,5.089,7.083C5.097,4.842,6.73,3.567,8.936,3.567c0.87,0,1.539,0.165,1.873,0.323L10.49,5.111   C10.117,4.95,9.664,4.825,8.922,4.825c-1.27,0-2.235,0.714-2.235,2.18c0,1.391,0.878,2.205,2.125,2.205   c0.344,0,0.623-0.04,0.745-0.095V7.699H8.516V6.512h2.514V10.06z" display="inline"/>
</g>
<g id="Eng" display="none">
	<rect width="27.832" fill="none" x="1.1" height="8.039" y="2.802" display="inline"/>
	<path fill="#F7ED38" d="M17.011,7.521h-2.479v1.602h2.771v1.248h-4.294V3.634h4.15v1.248h-2.626v1.403h2.479   V7.521z" display="inline"/>
</g>
<g id="P2" display="none">
	<path fill="#F7ED38" d="M19.024,28.186c0.472-1.148,0.803-2.149,0.992-3.001c0.282-1.24,0.423-2.417,0.423-3.534   c0-1.066-0.099-2.078-0.295-3.035c-0.197-0.957-0.575-2.146-1.135-3.568h1.146c0.628,1.03,1.101,2.092,1.419,3.186   c0.319,1.094,0.478,2.185,0.478,3.274c0,1.094-0.159,2.218-0.476,3.374s-0.786,2.257-1.407,3.305H19.024z" display="inline"/>
</g>
<g id="P1" display="none">
	<path fill="#F7ED38" d="M8.327,28.186H7.182c-0.605-1.025-1.071-2.111-1.396-3.257s-0.487-2.257-0.487-3.333   c0-1.162,0.163-2.296,0.489-3.401c0.326-1.105,0.795-2.154,1.408-3.148h1.146c-0.56,1.422-0.938,2.611-1.135,3.568   c-0.197,0.957-0.295,1.969-0.295,3.035c0,1.103,0.139,2.27,0.416,3.5C7.522,26.016,7.855,27.028,8.327,28.186z" display="inline"/>
</g>
<g id="Type">
	<path fill="#F7ED38" d="M53.265,12.893v17.022H26.785V12.893H53.265z M28.204,14.312v13.357l4.091-2.454   c-0.431-0.213-0.834-0.488-1.18-0.844c-0.792-0.819-1.217-1.895-1.198-3.033c0.038-2.312,1.878-4.152,4.19-4.189   c0.003,0,0.005,0.002,0.007,0.002v-0.002h11.625l4.729-2.837H28.204z M51.846,28.497V15.139l-4.093,2.456   c1.43,0.708,2.412,2.181,2.385,3.878c-0.038,2.311-1.88,4.151-4.189,4.189c-0.005,0-0.009,0-0.013,0v0.004H34.3l-4.717,2.831   H51.846z M31.336,21.36c-0.012,0.758,0.271,1.477,0.8,2.022c0.482,0.5,1.12,0.788,1.807,0.844l9.433-5.659H34.13   C32.589,18.592,31.361,19.819,31.336,21.36z M48.718,21.449c0.023-1.504-1.136-2.747-2.615-2.865l-9.438,5.664h9.242   c0.006,0,0.012-0.004,0.017-0.004C47.466,24.219,48.693,22.992,48.718,21.449z"/>
</g>
<g id="STK">
	<path fill="#F7ED38" d="M13.307,17.911h-0.036l-2.139,1.074l-0.386-1.671l2.857-1.406h1.847v11.703h-2.144V17.911z"/>
</g>
<g id="ECH">
	<rect width="27.832" x="26.078" fill="none" height="8.039" y="2.802"/>
	<path fill="#F7ED38" d="M39.33,3.634v6.736h-1.523V3.634H39.33z"/>
	<path fill="#F7ED38" d="M42.18,3.634v6.736h-1.522V3.634H42.18z"/>
</g>
<g id="PF">
	<rect width="60" x="0" fill="none" height="15.475" y="44.525"/>
	<path fill="#F7ED38" d="M22.804,55.723V54.84l0.646-0.825c0.842-1.071,1.529-1.963,1.529-2.89c0-0.523-0.291-0.888-0.83-0.888   c-0.408,0-0.737,0.18-0.975,0.325l-0.23-1.012c0.298-0.195,0.853-0.404,1.443-0.404c1.421,0,1.883,0.951,1.883,1.882   c0,1.22-0.765,2.192-1.509,3.062l-0.389,0.459v0.02h1.985v1.154H22.804z"/>
	<path fill="#F7ED38" d="M28.99,55.723v-6.736h1.202l1.037,2.643c0.203,0.519,0.531,1.381,0.721,1.964h0.02   c-0.046-0.704-0.133-1.88-0.133-3.118v-1.488h1.15v6.736h-1.202l-1.021-2.562c-0.229-0.568-0.533-1.42-0.688-2.023h-0.02   c0.039,0.678,0.086,1.717,0.086,3.071v1.515H28.99z"/>
	<path fill="#F7ED38" d="M33.678,54.956l2.135-4.8v-0.027h-1.938v-1.143h3.412v0.967l-2.04,4.598v0.029h2.03v1.143h-3.6V54.956z"/>
</g>
<g id="Des">
	<rect width="60" x="0" fill="none" height="14.525" y="31.722"/>
	<path fill="#F7ED38" d="M9.587,45.212v-1.277l1.079-1.425c1.466-1.935,2.885-3.805,2.885-5.71c0-1.103-0.543-1.821-1.57-1.821   c-0.785,0-1.358,0.379-1.728,0.612l-0.38-1.47c0.478-0.345,1.395-0.757,2.458-0.757c2.284,0,3.12,1.589,3.12,3.305   c0,2.196-1.405,4.122-2.794,5.873l-0.736,0.938v0.036h3.719v1.696H9.587z"/>
	<path fill="#F7ED38" d="M20.337,45.212V33.076h1.778l2.029,5.18c0.43,1.101,1.038,2.678,1.414,3.847h0.036   c-0.095-1.557-0.208-3.427-0.208-5.598v-3.429h1.702v12.136h-1.778l-2.05-5.166c-0.448-1.114-0.983-2.577-1.331-3.857h-0.036   c0.085,1.401,0.146,3.123,0.146,5.632v3.392H20.337z"/>
	<path fill="#F7ED38" d="M28.412,44.08l3.989-9.287v-0.046h-3.636v-1.671h5.799v1.383l-3.866,9.028v0.055h3.847v1.67h-6.133V44.08z"/>
	<path fill="#F7ED38" d="M44.36,45.019c-0.354,0.176-0.992,0.302-1.784,0.302c-2.77,0-4.35-2.261-4.35-6.009   c0-4.67,2.463-6.344,4.622-6.344c0.789,0,1.345,0.157,1.586,0.309l-0.354,1.627c-0.285-0.134-0.584-0.249-1.152-0.249   c-1.322,0-2.672,1.209-2.672,4.523c0,3.268,1.224,4.436,2.682,4.436c0.451,0,0.909-0.103,1.197-0.214L44.36,45.019z"/>
	<path fill="#F7ED38" d="M46.357,36.446l0.867,4.367c0.126,0.693,0.257,1.478,0.375,2.308h0.044   c0.101-0.816,0.231-1.555,0.357-2.308l0.854-4.367h1.898l-2.324,8.766h-1.745l-2.35-8.766H46.357z"/>
</g>
<g>
</g>
<g>
</g>
<g>
</g>
<g>
</g>
<g>
</g>
<g>
</g>
</svg>