<svg width="60" height="60" xmlns="http://www.w3.org/2000/svg" viewBox="0 0 60 60">
  <rect fill="#ffcd34" height="60" width="60"/>
  <g>
    <path d="M27.035,22.133c0,4.56-1.594,6.366-3.74,6.366-2.417,0-3.622-2.566-3.622-6.232,0-3.636,1.376-6.192,3.807-6.192C26.022,16.075,27.035,18.858,27.035,22.133Zm-5.364.154c0,2.638.5,4.536,1.722,4.536,1.253,0,1.644-2.185,1.644-4.608,0-2.2-.366-4.465-1.662-4.465C22.17,17.75,21.671,19.746,21.671,22.287Z" transform="translate(0 0)"/>
    <path d="M28.6,16.219h4.982v1.668h-3.06v3.63h2.867v1.606H30.525v5.231H28.6Z" transform="translate(0 0)"/>
    <path d="M35.28,16.219h4.983v1.668H37.2v3.63h2.866v1.606H37.2v5.231H35.28Z" transform="translate(0 0)"/>
  </g>
  <g>
    <path d="M14.762,32.146a10.414,10.414,0,0,1,2.315-.235,4.251,4.251,0,0,1,3.007.887A3.148,3.148,0,0,1,21,35.251a3.209,3.209,0,0,1-1.907,3.074v.036c.854.306,1.3,1.112,1.544,2.548a18.359,18.359,0,0,0,.74,3.192H19.384a16.332,16.332,0,0,1-.625-2.949c-.235-1.58-.683-2.092-1.644-2.092h-.441V44.1H14.762Zm1.912,5.43h.5a1.912,1.912,0,0,0,1.878-2.13c0-1.2-.482-2-1.734-2.018a2.169,2.169,0,0,0-.644.072Z" transform="translate(0 0)"/>
    <path d="M29.538,37.879c0,4.56-1.594,6.366-3.74,6.366-2.417,0-3.622-2.566-3.622-6.232,0-3.636,1.376-6.192,3.807-6.192C28.525,31.821,29.538,34.6,29.538,37.879Zm-5.364.154c0,2.638.5,4.536,1.722,4.536,1.252,0,1.644-2.185,1.644-4.608,0-2.2-.366-4.465-1.663-4.465C24.673,33.5,24.174,35.492,24.174,38.033Z" transform="translate(0 0)"/>
    <path d="M32.488,40.938,31.833,44.1H29.971l2.7-12.136h2.245L37.424,44.1H35.545L34.9,40.938ZM34.7,39.432l-.508-2.786c-.144-.793-.306-1.914-.438-2.763H33.7c-.134.857-.314,2.013-.461,2.77l-.531,2.779Z" transform="translate(0 0)"/>
    <path d="M38.846,32.146A8.748,8.748,0,0,1,41,31.911a4.4,4.4,0,0,1,3.136,1c.995.882,1.6,2.471,1.6,4.9,0,2.6-.651,4.238-1.581,5.134a4.715,4.715,0,0,1-3.545,1.234,12.09,12.09,0,0,1-1.767-.129Zm1.911,10.417a2.182,2.182,0,0,0,.472.037c1.313,0,2.522-1.109,2.522-4.807,0-2.747-.778-4.335-2.442-4.335a2.08,2.08,0,0,0-.552.063Z" transform="translate(0 0)"/>
  </g>
</svg>