<svg width="60" height="60" xmlns="http://www.w3.org/2000/svg" viewBox="0 0 60 60">
  <rect fill="#999" x="15" width="45" height="60"/>
  <g>
    <rect fill="#999" height="60" width="60"/>
    <polygon fill="#666766" points="31.281 30.545 31.281 0 0 0 31.281 30.545" fill-rule="evenodd"/>
    <polygon fill="#666766" points="60 60 60 30 29.277 30 60 60" fill-rule="evenodd"/>
    <rect fill="#666766" x="2.768" width="57.232" height="32.403"/>
    <rect fill="#cccccb" x="2.768" width="54.496" height="54.702" y="2.649"/>
  </g>
  <g>
    <path fill="#333" d="M23.813,26.71a4.609,4.609,0,0,1-2.423-.623,4.139,4.139,0,0,1-1.6-1.764,6,6,0,0,1-.563-2.681,6.4,6.4,0,0,1,.32-2.093,4.576,4.576,0,0,1,.916-1.6,3.931,3.931,0,0,1,1.445-1.015,4.921,4.921,0,0,1,1.9-.35,4.64,4.64,0,0,1,2.431.616,4.124,4.124,0,0,1,1.59,1.75,5.951,5.951,0,0,1,.562,2.674,6.484,6.484,0,0,1-.319,2.1,4.6,4.6,0,0,1-.924,1.61A3.944,3.944,0,0,1,25.7,26.36,4.913,4.913,0,0,1,23.813,26.71Zm0-1.26A2.974,2.974,0,0,0,25.473,25a2.85,2.85,0,0,0,1.055-1.3,5.19,5.19,0,0,0,.368-2.058,4.345,4.345,0,0,0-.8-2.8,2.765,2.765,0,0,0-2.278-.994,3.006,3.006,0,0,0-1.659.441A2.8,2.8,0,0,0,21.1,19.584a5.19,5.19,0,0,0-.368,2.058,4.345,4.345,0,0,0,.813,2.8A2.751,2.751,0,0,0,23.813,25.45Z"/>
    <path fill="#333" d="M32.354,26.71a2.039,2.039,0,0,1-1.632-.637,2.744,2.744,0,0,1-.549-1.841v-6.9a.72.72,0,0,1,.181-.532.693.693,0,0,1,.514-.182.719.719,0,0,1,.521.182.707.707,0,0,1,.187.532v6.818a1.607,1.607,0,0,0,.285,1.043,1.01,1.01,0,0,0,.826.343c.084,0,.157,0,.222-.007s.13-.012.2-.021a.235.235,0,0,1,.236.091.874.874,0,0,1,.069.427.724.724,0,0,1-.125.455.6.6,0,0,1-.4.2c-.083.009-.171.016-.263.021S32.437,26.71,32.354,26.71Z"/>
    <path fill="#333" d="M36.937,26.71a2.745,2.745,0,0,1-2.611-1.659,4.422,4.422,0,0,1-.375-1.883,4.348,4.348,0,0,1,.375-1.89,2.887,2.887,0,0,1,1.049-1.218,2.819,2.819,0,0,1,1.562-.434,2.653,2.653,0,0,1,1.534.441,2.133,2.133,0,0,1,.868,1.183h-.152V17.33a.724.724,0,0,1,.18-.532.693.693,0,0,1,.514-.182.719.719,0,0,1,.521.182.707.707,0,0,1,.187.532v8.638a.73.73,0,0,1-.18.525.793.793,0,0,1-1.028,0,.731.731,0,0,1-.181-.525V24.736l.153.308a2.2,2.2,0,0,1-.868,1.211A2.619,2.619,0,0,1,36.937,26.71Zm.361-1.092a1.792,1.792,0,0,0,1-.28,1.849,1.849,0,0,0,.673-.826,3.3,3.3,0,0,0,.243-1.344,2.735,2.735,0,0,0-.527-1.82,1.739,1.739,0,0,0-1.389-.616,1.853,1.853,0,0,0-1.014.273,1.8,1.8,0,0,0-.674.819,3.3,3.3,0,0,0-.242,1.344,2.764,2.764,0,0,0,.527,1.82A1.738,1.738,0,0,0,37.3,25.618Z"/>
    <path fill="#333" d="M14.433,43.51a4.958,4.958,0,0,1-2.542-.617,4.059,4.059,0,0,1-1.618-1.757,6.025,6.025,0,0,1-.562-2.694,6.434,6.434,0,0,1,.319-2.094,4.519,4.519,0,0,1,.924-1.595,3.923,3.923,0,0,1,1.485-1.015,5.357,5.357,0,0,1,1.994-.351,5.5,5.5,0,0,1,1.576.225,4.04,4.04,0,0,1,1.312.644.728.728,0,0,1,.312.371.7.7,0,0,1,.028.413.668.668,0,0,1-.187.329.537.537,0,0,1-.354.146.758.758,0,0,1-.466-.153,3.168,3.168,0,0,0-1.013-.518,4.011,4.011,0,0,0-1.167-.168,3.35,3.35,0,0,0-1.777.441A2.779,2.779,0,0,0,11.6,36.4a5,5,0,0,0-.375,2.044,5.05,5.05,0,0,0,.375,2.051,2.777,2.777,0,0,0,1.1,1.288,3.35,3.35,0,0,0,1.777.44,3.914,3.914,0,0,0,1.173-.174,3.817,3.817,0,0,0,1.063-.525.781.781,0,0,1,.451-.14.544.544,0,0,1,.34.14.621.621,0,0,1,.188.315.71.71,0,0,1-.014.392.645.645,0,0,1-.271.343,3.947,3.947,0,0,1-1.347.7A5.539,5.539,0,0,1,14.433,43.51Z"/>
    <path fill="#333" d="M19.973,43.482a.675.675,0,0,1-.513-.189.727.727,0,0,1-.181-.526V34.13a.724.724,0,0,1,.181-.533.69.69,0,0,1,.513-.181.718.718,0,0,1,.521.181.711.711,0,0,1,.188.533v3.878h-.2a2.326,2.326,0,0,1,.958-1.183,2.808,2.808,0,0,1,1.5-.4,2.708,2.708,0,0,1,1.34.3,1.861,1.861,0,0,1,.8.91,3.875,3.875,0,0,1,.264,1.534v3.6a.731.731,0,0,1-.18.526.68.68,0,0,1-.515.189.694.694,0,0,1-.527-.189.727.727,0,0,1-.181-.526V39.254a1.989,1.989,0,0,0-.34-1.288,1.308,1.308,0,0,0-1.062-.407,1.78,1.78,0,0,0-1.354.533,1.985,1.985,0,0,0-.507,1.428v3.247A.629.629,0,0,1,19.973,43.482Z"/>
    <path fill="#333" d="M29.444,43.51a2.806,2.806,0,0,1-1.27-.28,2.235,2.235,0,0,1-.882-.757,1.882,1.882,0,0,1-.319-1.077,1.763,1.763,0,0,1,.382-1.2,2.244,2.244,0,0,1,1.263-.63A11.871,11.871,0,0,1,31,39.38h.652v.868h-.638a10.2,10.2,0,0,0-1.583.1,1.582,1.582,0,0,0-.826.33.833.833,0,0,0-.244.637,1.108,1.108,0,0,0,.361.861,1.432,1.432,0,0,0,1,.329,1.653,1.653,0,0,0,.9-.245,1.776,1.776,0,0,0,.618-.665,1.982,1.982,0,0,0,.229-.966V39.015a1.631,1.631,0,0,0-.333-1.147,1.464,1.464,0,0,0-1.1-.351,4.042,4.042,0,0,0-.924.113,4.345,4.345,0,0,0-.993.378.605.605,0,0,1-.4.07.428.428,0,0,1-.263-.19.606.606,0,0,1-.1-.321.653.653,0,0,1,.083-.344.567.567,0,0,1,.312-.252,5.353,5.353,0,0,1,1.209-.419,5.444,5.444,0,0,1,1.125-.126,3.5,3.5,0,0,1,1.534.294,1.887,1.887,0,0,1,.9.9,3.579,3.579,0,0,1,.291,1.554v3.6a.768.768,0,0,1-.166.526.617.617,0,0,1-.487.189.639.639,0,0,1-.485-.189.727.727,0,0,1-.181-.526v-.909h.125a2.094,2.094,0,0,1-.41.889,1.956,1.956,0,0,1-.743.567A2.5,2.5,0,0,1,29.444,43.51Z"/>
    <path fill="#333" d="M35.444,43.482a.7.7,0,0,1-.528-.189.727.727,0,0,1-.181-.526v-5.6a.722.722,0,0,1,.181-.532.787.787,0,0,1,1.007,0,.741.741,0,0,1,.174.532V38.19h-.139a2.2,2.2,0,0,1,.819-1.274,2.925,2.925,0,0,1,1.528-.5.505.505,0,0,1,.4.126.62.62,0,0,1,.16.433.6.6,0,0,1-.125.47.677.677,0,0,1-.472.2L38,37.672a2.112,2.112,0,0,0-1.375.574,1.859,1.859,0,0,0-.472,1.344v3.177a.751.751,0,0,1-.173.526A.693.693,0,0,1,35.444,43.482Z"/>
    <path fill="#333" d="M43.179,43.51a3.037,3.037,0,0,1-1.4-.294,1.872,1.872,0,0,1-.847-.869,3.186,3.186,0,0,1-.278-1.4v-3.3h-.833a.593.593,0,0,1-.43-.146.53.53,0,0,1-.153-.4.522.522,0,0,1,.153-.405.609.609,0,0,1,.43-.14h.833V35.11a.643.643,0,0,1,.708-.714.7.7,0,0,1,.515.181.73.73,0,0,1,.18.533v1.442h1.625a.61.61,0,0,1,.43.14.522.522,0,0,1,.153.405.53.53,0,0,1-.153.4.594.594,0,0,1-.43.146H42.054v3.193a1.725,1.725,0,0,0,.312,1.12,1.254,1.254,0,0,0,1.021.378,1.775,1.775,0,0,0,.438-.049,2.374,2.374,0,0,1,.312-.064.326.326,0,0,1,.25.106.6.6,0,0,1,.1.4,1,1,0,0,1-.076.393.4.4,0,0,1-.271.238,3.232,3.232,0,0,1-.451.1A3.1,3.1,0,0,1,43.179,43.51Z"/>
    <path fill="#333" d="M47.734,43.51a5.947,5.947,0,0,1-1.257-.14,3.722,3.722,0,0,1-1.187-.477.692.692,0,0,1-.25-.279.568.568,0,0,1-.049-.315.516.516,0,0,1,.125-.281.439.439,0,0,1,.264-.146.518.518,0,0,1,.34.07,3.985,3.985,0,0,0,1.042.427,4.258,4.258,0,0,0,.986.119,1.913,1.913,0,0,0,1.111-.267.83.83,0,0,0,.375-.713.691.691,0,0,0-.25-.567,1.827,1.827,0,0,0-.75-.315l-1.319-.266a2.465,2.465,0,0,1-1.306-.644,1.63,1.63,0,0,1-.444-1.176,1.846,1.846,0,0,1,.347-1.12,2.214,2.214,0,0,1,.972-.736,3.759,3.759,0,0,1,1.444-.258,4.188,4.188,0,0,1,1.153.154,3.492,3.492,0,0,1,1,.462.469.469,0,0,1,.236.259.568.568,0,0,1,.021.315.584.584,0,0,1-.146.272.438.438,0,0,1-.271.141.613.613,0,0,1-.354-.077,2.987,2.987,0,0,0-.826-.378,3.063,3.063,0,0,0-.813-.112,1.846,1.846,0,0,0-1.1.273.869.869,0,0,0-.368.735.783.783,0,0,0,.222.574,1.347,1.347,0,0,0,.7.322l1.319.266a2.782,2.782,0,0,1,1.368.616,1.53,1.53,0,0,1,.465,1.176,1.79,1.79,0,0,1-.764,1.526A3.353,3.353,0,0,1,47.734,43.51Z"/>
  </g>
</svg>