<svg width="60" height="60" xmlns="http://www.w3.org/2000/svg" viewBox="0 0 60 60">
  <rect fill="#ffcd34" height="60" width="60"/>
  <g>
    <path d="M29.825,22.133c0,4.56-1.594,6.366-3.74,6.366-2.417,0-3.622-2.566-3.622-6.232,0-3.636,1.376-6.192,3.807-6.192C28.812,16.075,29.825,18.858,29.825,22.133Zm-5.364.154c0,2.638.5,4.536,1.722,4.536,1.253,0,1.644-2.185,1.644-4.608,0-2.2-.366-4.465-1.662-4.465C24.96,17.75,24.461,19.746,24.461,22.287Z" transform="translate(0 0)"/>
    <path d="M31.334,22.346c0-1.185-.044-2.023-.071-2.757h1.68l.1,1.06h.035a2.023,2.023,0,0,1,1.848-1.2c1.742,0,2.63,1.88,2.63,4.511,0,3.183-1.356,4.543-2.787,4.543a1.675,1.675,0,0,1-1.485-.925h-.036v4.238H31.334Zm1.912,2.8a2.332,2.332,0,0,0,.1.733c.221.854.673,1.033.99,1.033.971,0,1.3-1.381,1.3-2.931,0-1.737-.419-2.91-1.3-2.91-.485,0-.921.539-1.014,1.125a2.3,2.3,0,0,0-.079.644Z" transform="translate(0 0)"/>
  </g>
  <g>
    <path d="M13.828,42.05a4.1,4.1,0,0,0,1.881.483,1.631,1.631,0,0,0,1.831-1.685c0-.982-.6-1.534-1.59-2.218a4.3,4.3,0,0,1-2.286-3.38,3.287,3.287,0,0,1,3.554-3.394,3.7,3.7,0,0,1,1.812.441l-.357,1.649a2.745,2.745,0,0,0-1.5-.414A1.475,1.475,0,0,0,15.562,35c0,.94.485,1.368,1.722,2.166a4.036,4.036,0,0,1,2.155,3.48,3.465,3.465,0,0,1-3.732,3.559,4.647,4.647,0,0,1-2.2-.507Z" transform="translate(0 0)"/>
    <path d="M23.065,32.987v2.348h1.7v1.394h-1.7v4.545c0,1.074.417,1.346.9,1.346a2.939,2.939,0,0,0,.594-.054l.039,1.5a4.409,4.409,0,0,1-1.256.147,2.09,2.09,0,0,1-1.552-.546,3.126,3.126,0,0,1-.644-2.369V36.729h-1.05V35.335h1.05V33.478Z" transform="translate(0 0)"/>
    <path d="M29.644,44.1l-.113-.893h-.044a2.144,2.144,0,0,1-1.856,1.037,2.335,2.335,0,0,1-2.206-2.593c0-2.252,1.9-3.2,3.887-3.221V38.2c0-.913-.356-1.554-1.309-1.554a2.955,2.955,0,0,0-1.634.486L26,35.818a4.883,4.883,0,0,1,2.422-.627c2.256,0,2.834,1.545,2.834,3.411v3.5a13.532,13.532,0,0,0,.113,2Zm-.28-4.39c-.748.011-2.1.219-2.1,1.744,0,.989.528,1.347.95,1.347a1.165,1.165,0,0,0,1.108-1,1.8,1.8,0,0,0,.046-.445Z" transform="translate(0 0)"/>
    <path d="M39.026,35.335c-.038.714-.082,1.572-.082,2.757v4.956c0,2.078-.323,3.036-.973,3.7a3.529,3.529,0,0,1-2.617.952,4.93,4.93,0,0,1-2.074-.422l.385-1.489a3.814,3.814,0,0,0,1.656.376c1.148,0,1.712-.743,1.712-2.374V43.1H37a1.755,1.755,0,0,1-1.619.956c-1.78,0-2.663-1.968-2.663-4.281,0-3.056,1.387-4.588,2.867-4.588A1.785,1.785,0,0,1,37.2,36.27h.036l.1-.935Zm-1.993,3.119a2.335,2.335,0,0,0-.085-.641c-.129-.474-.407-1-.982-1-.914,0-1.345,1.241-1.345,2.9,0,1.906.569,2.817,1.321,2.817.362,0,.769-.175.988-.913a2.207,2.207,0,0,0,.1-.734Z" transform="translate(0 0)"/>
    <path d="M42.222,40.234c.02,1.958.929,2.492,1.953,2.492a4.04,4.04,0,0,0,1.573-.312l.273,1.383a5.562,5.562,0,0,1-2.2.412c-2.26,0-3.472-1.64-3.472-4.353,0-2.9,1.39-4.665,3.261-4.665,1.844,0,2.773,1.666,2.773,4.016a7.838,7.838,0,0,1-.051,1.027Zm2.385-1.368c.015-1.407-.447-2.243-1.128-2.243-.834,0-1.21,1.215-1.25,2.243Z" transform="translate(0 0)"/>
  </g>
</svg>