<svg width="60" height="60" xmlns="http://www.w3.org/2000/svg" viewBox="0 0 60 60">
  <rect fill="#999" x="15" width="45" height="60"/>
  <g>
    <rect fill="#999" height="60" width="60"/>
    <polygon fill="#666766" points="31.281 30.545 31.281 0 0 0 31.281 30.545" fill-rule="evenodd"/>
    <polygon fill="#666766" points="60 60 60 30 29.277 30 60 60" fill-rule="evenodd"/>
    <rect fill="#666766" x="2.768" width="57.232" height="32.403"/>
    <rect fill="#cccccb" x="2.768" width="54.496" height="54.702" y="2.649"/>
  </g>
  <g>
    <path fill="#333" d="M15.472,51.21a4.55,4.55,0,0,1-1.488-.222,2.726,2.726,0,0,1-1.078-.666,2.9,2.9,0,0,1-.66-1.1,4.7,4.7,0,0,1-.226-1.525V43.181a.621.621,0,0,1,.16-.467.748.748,0,0,1,.917,0,.621.621,0,0,1,.16.467V47.67a2.639,2.639,0,0,0,.566,1.847,2.132,2.132,0,0,0,1.649.613,2.126,2.126,0,0,0,1.654-.613,2.658,2.658,0,0,0,.56-1.847V43.181a.554.554,0,0,1,.607-.624.61.61,0,0,1,.452.157.635.635,0,0,1,.155.467v4.512a4.365,4.365,0,0,1-.387,1.939,2.573,2.573,0,0,1-1.149,1.181A4.058,4.058,0,0,1,15.472,51.21Z"/>
    <path fill="#333" d="M21.388,51.185a.576.576,0,0,1-.429-.155.606.606,0,0,1-.155-.444V43.181a.657.657,0,0,1,.149-.461.512.512,0,0,1,.4-.163.572.572,0,0,1,.327.079,1.294,1.294,0,0,1,.268.282l4.9,6.515h-.3V43.145a.6.6,0,0,1,.149-.431.655.655,0,0,1,.851,0,.614.614,0,0,1,.142.431V50.6a.64.64,0,0,1-.136.433.461.461,0,0,1-.364.155.666.666,0,0,1-.351-.084,1.114,1.114,0,0,1-.291-.288l-4.881-6.5h.274v6.277a.637.637,0,0,1-.143.444A.535.535,0,0,1,21.388,51.185Z"/>
    <path fill="#333" d="M30.268,51.185a.6.6,0,0,1-.459-.168.646.646,0,0,1-.161-.467V43.193a.645.645,0,0,1,.161-.473.726.726,0,0,1,.917,0,.645.645,0,0,1,.16.473V50.55a.657.657,0,0,1-.155.467A.594.594,0,0,1,30.268,51.185Z"/>
    <path fill="#333" d="M35.505,51.185a.6.6,0,0,1-.459-.168.646.646,0,0,1-.16-.467V43.685H32.362a.547.547,0,0,1-.393-.137.518.518,0,0,1-.142-.39.5.5,0,0,1,.142-.385.558.558,0,0,1,.393-.132h6.273a.574.574,0,0,1,.405.132.5.5,0,0,1,.143.385.518.518,0,0,1-.143.39.562.562,0,0,1-.405.137H36.112V50.55a.678.678,0,0,1-.149.467A.577.577,0,0,1,35.505,51.185Z"/>
    <path fill="#333" d="M42.623,51.21a6.87,6.87,0,0,1-1.071-.084,5.184,5.184,0,0,1-.988-.258,3.913,3.913,0,0,1-.834-.427.686.686,0,0,1-.244-.3.6.6,0,0,1-.035-.33.566.566,0,0,1,.136-.281.424.424,0,0,1,.608-.049,3.962,3.962,0,0,0,1.131.511,4.965,4.965,0,0,0,1.3.161,2.475,2.475,0,0,0,1.494-.365,1.143,1.143,0,0,0,.482-.954.931.931,0,0,0-.345-.762,2.765,2.765,0,0,0-1.155-.45l-1.273-.265a3.3,3.3,0,0,1-1.685-.792,2,2,0,0,1-.554-1.487,2.284,2.284,0,0,1,.233-1.032,2.446,2.446,0,0,1,.648-.811,2.933,2.933,0,0,1,1-.521,4.306,4.306,0,0,1,1.274-.18,4.868,4.868,0,0,1,1.387.191,3.534,3.534,0,0,1,1.161.588.532.532,0,0,1,.208.271.639.639,0,0,1,.024.317.509.509,0,0,1-.137.265.441.441,0,0,1-.274.126.584.584,0,0,1-.369-.114,3.383,3.383,0,0,0-.947-.451,3.9,3.9,0,0,0-1.065-.137,2.649,2.649,0,0,0-1.018.179,1.5,1.5,0,0,0-.666.5,1.287,1.287,0,0,0-.232.769,1.046,1.046,0,0,0,.321.8,2.24,2.24,0,0,0,1.072.457l1.261.263a3.8,3.8,0,0,1,1.774.78,1.808,1.808,0,0,1,.583,1.405,2.216,2.216,0,0,1-.226,1.013,2.261,2.261,0,0,1-.643.775,3.008,3.008,0,0,1-1.006.5A4.714,4.714,0,0,1,42.623,51.21Z"/>
    <path fill="#cc1f36" d="M47.682,51.149a.738.738,0,0,1-.774-.767.729.729,0,0,1,.215-.546.763.763,0,0,1,.559-.21.728.728,0,0,1,.548.21.756.756,0,0,1,.2.546.776.776,0,0,1-.2.551A.713.713,0,0,1,47.682,51.149Zm0-2.327a.362.362,0,0,1-.292-.12.62.62,0,0,1-.125-.336l-.285-5.017a.786.786,0,0,1,.154-.576.674.674,0,0,1,.548-.216.645.645,0,0,1,.524.216.757.757,0,0,1,.143.576l-.286,5.017a.559.559,0,0,1-.113.336A.334.334,0,0,1,47.682,48.822Z"/>
  </g>
  <g>
    <path fill="#333" d="M16.687,36.726a4.25,4.25,0,0,1-2.179-.527,3.485,3.485,0,0,1-1.387-1.506,5.181,5.181,0,0,1-.482-2.31,5.49,5.49,0,0,1,.274-1.794,3.854,3.854,0,0,1,.792-1.369,3.392,3.392,0,0,1,1.273-.87,4.62,4.62,0,0,1,1.709-.3,4.779,4.779,0,0,1,1.351.191,3.481,3.481,0,0,1,1.124.552.643.643,0,0,1,.268.319.611.611,0,0,1,.024.354.567.567,0,0,1-.161.281.465.465,0,0,1-.3.126.637.637,0,0,1-.4-.132,2.718,2.718,0,0,0-.869-.443,3.406,3.406,0,0,0-1-.144,2.885,2.885,0,0,0-1.524.377,2.389,2.389,0,0,0-.94,1.1,4.955,4.955,0,0,0,0,3.509,2.38,2.38,0,0,0,.94,1.1,2.876,2.876,0,0,0,1.524.378,3.335,3.335,0,0,0,1.006-.151,3.264,3.264,0,0,0,.911-.45.659.659,0,0,1,.386-.119.474.474,0,0,1,.292.119.537.537,0,0,1,.161.271.622.622,0,0,1-.012.336.55.55,0,0,1-.232.294,3.407,3.407,0,0,1-1.155.6A4.7,4.7,0,0,1,16.687,36.726Z"/>
    <path fill="#333" d="M21.436,36.7a.584.584,0,0,1-.44-.162.623.623,0,0,1-.155-.45V28.686A.619.619,0,0,1,21,28.23a.6.6,0,0,1,.44-.156.618.618,0,0,1,.446.156.609.609,0,0,1,.161.456v3.325h-.167A2,2,0,0,1,22.7,31a2.413,2.413,0,0,1,1.285-.341,2.32,2.32,0,0,1,1.149.257,1.587,1.587,0,0,1,.684.781,3.306,3.306,0,0,1,.227,1.314v3.084a.627.627,0,0,1-.155.45.584.584,0,0,1-.441.162A.6.6,0,0,1,25,36.541a.627.627,0,0,1-.155-.45V33.078a1.708,1.708,0,0,0-.291-1.1,1.123,1.123,0,0,0-.911-.348,1.529,1.529,0,0,0-1.16.456,1.7,1.7,0,0,0-.435,1.224v2.785A.539.539,0,0,1,21.436,36.7Z"/>
    <path fill="#333" d="M29.554,36.726a2.421,2.421,0,0,1-1.089-.239,1.922,1.922,0,0,1-.756-.648,1.616,1.616,0,0,1-.273-.924,1.511,1.511,0,0,1,.327-1.027,1.926,1.926,0,0,1,1.083-.54,10.168,10.168,0,0,1,2.041-.162h.56v.744H30.9a8.7,8.7,0,0,0-1.356.084,1.357,1.357,0,0,0-.709.283.715.715,0,0,0-.208.546.954.954,0,0,0,.309.738,1.231,1.231,0,0,0,.857.282,1.42,1.42,0,0,0,.774-.21,1.531,1.531,0,0,0,.53-.57,1.7,1.7,0,0,0,.2-.828V32.874a1.4,1.4,0,0,0-.286-.984,1.257,1.257,0,0,0-.94-.3,3.477,3.477,0,0,0-.792.095,3.756,3.756,0,0,0-.851.325.526.526,0,0,1-.345.06.373.373,0,0,1-.226-.163.522.522,0,0,1-.089-.275.556.556,0,0,1,.071-.294.479.479,0,0,1,.268-.217,4.55,4.55,0,0,1,1.036-.36,4.669,4.669,0,0,1,.964-.107,3,3,0,0,1,1.315.252,1.609,1.609,0,0,1,.768.768,3.055,3.055,0,0,1,.25,1.332v3.084a.66.66,0,0,1-.143.45.528.528,0,0,1-.416.162.553.553,0,0,1-.417-.162.623.623,0,0,1-.155-.45V35.31h.107a1.8,1.8,0,0,1-.351.763,1.66,1.66,0,0,1-.637.485A2.119,2.119,0,0,1,29.554,36.726Z"/>
    <path fill="#333" d="M34.7,36.7a.6.6,0,0,1-.452-.162.627.627,0,0,1-.155-.45v-4.8a.623.623,0,0,1,.155-.456.675.675,0,0,1,.863,0,.639.639,0,0,1,.149.456v.876h-.119a1.9,1.9,0,0,1,.7-1.092,2.5,2.5,0,0,1,1.309-.432.441.441,0,0,1,.34.108.533.533,0,0,1,.137.372.511.511,0,0,1-.107.4.584.584,0,0,1-.405.175l-.226.023a1.8,1.8,0,0,0-1.179.493,1.592,1.592,0,0,0-.405,1.151v2.725a.643.643,0,0,1-.148.45A.6.6,0,0,1,34.7,36.7Z"/>
    <path fill="#333" d="M41.327,36.726a2.6,2.6,0,0,1-1.2-.252,1.606,1.606,0,0,1-.726-.744,2.726,2.726,0,0,1-.238-1.2V31.7h-.714a.51.51,0,0,1-.369-.126.456.456,0,0,1-.131-.343.447.447,0,0,1,.131-.347.526.526,0,0,1,.369-.121h.714V29.527a.6.6,0,0,1,.161-.456.614.614,0,0,1,.446-.157.594.594,0,0,1,.441.157.62.62,0,0,1,.154.456v1.235h1.393a.526.526,0,0,1,.369.121.447.447,0,0,1,.131.347.456.456,0,0,1-.131.343.51.51,0,0,1-.369.126H40.362v2.735a1.479,1.479,0,0,0,.268.96,1.071,1.071,0,0,0,.875.325,1.491,1.491,0,0,0,.375-.042,1.944,1.944,0,0,1,.268-.054.278.278,0,0,1,.214.09.508.508,0,0,1,.083.341.864.864,0,0,1-.065.336.341.341,0,0,1-.232.2,2.608,2.608,0,0,1-.387.089A2.5,2.5,0,0,1,41.327,36.726Z"/>
    <path fill="#333" d="M45.231,36.726a5.079,5.079,0,0,1-1.078-.12,3.2,3.2,0,0,1-1.017-.407.609.609,0,0,1-.215-.24.5.5,0,0,1-.041-.271.433.433,0,0,1,.107-.239.377.377,0,0,1,.226-.126.441.441,0,0,1,.292.06,3.492,3.492,0,0,0,.892.366,3.647,3.647,0,0,0,.846.1,1.646,1.646,0,0,0,.952-.227.716.716,0,0,0,.321-.612.592.592,0,0,0-.214-.487,1.567,1.567,0,0,0-.643-.269l-1.131-.228a2.108,2.108,0,0,1-1.118-.553,1.39,1.39,0,0,1-.381-1.007,1.585,1.585,0,0,1,.3-.96,1.907,1.907,0,0,1,.834-.631,3.209,3.209,0,0,1,1.237-.221,3.629,3.629,0,0,1,.988.131,3.062,3.062,0,0,1,.858.4.41.41,0,0,1,.2.223.491.491,0,0,1,.018.27.5.5,0,0,1-.125.233.384.384,0,0,1-.233.121.54.54,0,0,1-.3-.066,2.565,2.565,0,0,0-.708-.325,2.642,2.642,0,0,0-.7-.1,1.574,1.574,0,0,0-.946.235.742.742,0,0,0-.315.63.665.665,0,0,0,.19.491,1.152,1.152,0,0,0,.595.277l1.131.228a2.379,2.379,0,0,1,1.173.527,1.315,1.315,0,0,1,.4,1.008,1.538,1.538,0,0,1-.655,1.309A2.875,2.875,0,0,1,45.231,36.726Z"/>
  </g>
  <g>
    <path fill="#333" d="M15.174,23.7a6.913,6.913,0,0,1-3.635-.934A6.21,6.21,0,0,1,9.144,20.12,8.988,8.988,0,0,1,8.3,16.1a9.65,9.65,0,0,1,.479-3.139,6.883,6.883,0,0,1,1.375-2.394A5.908,5.908,0,0,1,12.32,9.042a7.435,7.435,0,0,1,2.854-.525,6.95,6.95,0,0,1,3.646.925,6.178,6.178,0,0,1,2.385,2.625,8.914,8.914,0,0,1,.843,4.01,9.709,9.709,0,0,1-.479,3.15,6.865,6.865,0,0,1-1.385,2.415,5.928,5.928,0,0,1-2.177,1.534A7.37,7.37,0,0,1,15.174,23.7Zm0-1.89a4.455,4.455,0,0,0,2.49-.672,4.27,4.27,0,0,0,1.583-1.953A7.773,7.773,0,0,0,19.8,16.1a6.508,6.508,0,0,0-1.208-4.2,4.15,4.15,0,0,0-3.417-1.492,4.514,4.514,0,0,0-2.489.662A4.208,4.208,0,0,0,11.1,13.011,7.783,7.783,0,0,0,10.55,16.1a6.521,6.521,0,0,0,1.219,4.2A4.129,4.129,0,0,0,15.174,21.81Z"/>
    <path fill="#333" d="M26.027,23.658a1.062,1.062,0,0,1-.8-.293,1.139,1.139,0,0,1-.281-.819V9.82a1,1,0,0,1,1.1-1.114h4.979a5.381,5.381,0,0,1,3.666,1.135,4.045,4.045,0,0,1,1.291,3.212,4.388,4.388,0,0,1-.583,2.311,3.705,3.705,0,0,1-1.7,1.469,6.453,6.453,0,0,1-2.677.505l.187-.294h.542a2.5,2.5,0,0,1,1.448.42,3.748,3.748,0,0,1,1.114,1.343l1.791,3.36a1.426,1.426,0,0,1,.2.725.742.742,0,0,1-.25.557,1,1,0,0,1-.678.209,1.252,1.252,0,0,1-.739-.2,1.848,1.848,0,0,1-.511-.6l-2.187-4.075a2.474,2.474,0,0,0-1-1.1,3.3,3.3,0,0,0-1.479-.283H27.11v5.145a1.166,1.166,0,0,1-.27.819A1.057,1.057,0,0,1,26.027,23.658Zm1.083-7.9h3.562a3.684,3.684,0,0,0,2.4-.671,2.44,2.44,0,0,0,.812-2,2.416,2.416,0,0,0-.812-1.974,3.69,3.69,0,0,0-2.4-.672H27.11Z"/>
    <path fill="#333" d="M45.817,23.7a8.231,8.231,0,0,1-4.042-.913,5.945,5.945,0,0,1-2.489-2.614,9.042,9.042,0,0,1-.844-4.054,9.5,9.5,0,0,1,.49-3.16,6.725,6.725,0,0,1,1.417-2.394,6.069,6.069,0,0,1,2.27-1.523,8.357,8.357,0,0,1,3.052-.525,9.407,9.407,0,0,1,2.458.326A6.589,6.589,0,0,1,50.337,9.9a.949.949,0,0,1,.375.482,1.013,1.013,0,0,1,.011.557,1.108,1.108,0,0,1-.271.493.806.806,0,0,1-.479.252.9.9,0,0,1-.615-.168,5.852,5.852,0,0,0-1.708-.829,7.02,7.02,0,0,0-1.979-.263,5.223,5.223,0,0,0-2.739.672,4.176,4.176,0,0,0-1.677,1.943,7.576,7.576,0,0,0-.563,3.076,6.123,6.123,0,0,0,1.313,4.243A4.992,4.992,0,0,0,45.9,21.81a9.578,9.578,0,0,0,3.583-.693l-.438,1.093V17.317H46.358A.933.933,0,0,1,45.7,17.1a.8.8,0,0,1-.239-.62.736.736,0,0,1,.239-.6,1,1,0,0,1,.656-.2h3.6a.9.9,0,0,1,.667.231.919.919,0,0,1,.229.672v5.292a1.39,1.39,0,0,1-.135.641.833.833,0,0,1-.448.389,11.12,11.12,0,0,1-2.1.577A13.1,13.1,0,0,1,45.817,23.7Z"/>
  </g>
</svg>