<svg width="60" height="60" xmlns="http://www.w3.org/2000/svg" viewBox="0 0 60 60">
  <rect fill="#999" x="15" width="45" height="60"/>
  <g>
    <rect fill="#999" height="60" width="60"/>
    <polygon fill="#666766" points="31.281 30.545 31.281 0 0 0 31.281 30.545" fill-rule="evenodd"/>
    <polygon fill="#666766" points="60 60 60 30 29.277 30 60 60" fill-rule="evenodd"/>
    <rect fill="#666766" x="2.768" width="57.232" height="32.403"/>
    <rect fill="#cccccb" x="2.768" width="54.496" height="54.702" y="2.649"/>
  </g>
  <g>
    <g>
      <path fill="#010101" stroke-width="0.014" d="M36.084,23.2H53.366l3.252,17.539H36.139Z" stroke-linejoin="round" stroke-linecap="round" stroke="#010101"/>
      <path fill="#010101" stroke-width="0.014" d="M35.505,17.574h7.917v2.808H35.505Z" stroke-linejoin="round" stroke-linecap="round" stroke="#010101"/>
      <path fill="#010101" stroke-width="0.014" d="M36.012,16.3l6.8.027.612,1.243H35.5Z" stroke-linejoin="round" stroke-linecap="round" stroke="#010101"/>
      <path fill="#010101" stroke-width="0.014" d="M36.013,21.641l6.8-.027.611-1.243H35.5Z" stroke-linejoin="round" stroke-linecap="round" stroke="#010101"/>
      <path fill="#010101" stroke-width="0.014" d="M36,16.366l6.813-.037.613-1.657H35.486Z" stroke-linejoin="round" stroke-linecap="round" stroke="#010101"/>
      <path fill="#010101" stroke-width="0.014" d="M23.916,23.293H6.634L3.382,40.832H23.861Z" stroke-linejoin="round" stroke-linecap="round" stroke="#010101"/>
      <path fill="#010101" stroke-width="0.014" d="M24.5,17.67H16.578v2.809H24.5Z" stroke-linejoin="round" stroke-linecap="round" stroke="#010101"/>
      <path fill="#010101" stroke-width="0.014" d="M23.988,16.4l-6.795.027-.612,1.243H24.5Z" stroke-linejoin="round" stroke-linecap="round" stroke="#010101"/>
      <path fill="#010101" stroke-width="0.014" d="M23.987,21.738l-6.8-.028-.611-1.242H24.5Z" stroke-linejoin="round" stroke-linecap="round" stroke="#010101"/>
      <path fill="#010101" stroke-width="0.014" d="M24,16.462l-6.813-.036-.613-1.657h7.943Z" stroke-linejoin="round" stroke-linecap="round" stroke="#010101"/>
      <path fill="#010101" stroke-width="0.014" d="M16.542,14.728v.011l0,.011,0,.011.007.011.008.011.01.011.012.011.014.011.016.011.019.011.02.01.022.011.024.011.026.01.028.011.03.01.032.01.034.011.035.01.038.01.039.01.041.009.043.01.045.01.047.009.048.009.05.01.051.009.054.009.054.008.057.009.058.008.06.009.061.008.062.008.064.007.066.008.067.007.068.007.069.007.071.007.072.007.073.006.075.007.075.006.077,0,.077.006.079.005.08,0,.08.005.082,0,.082.005.083,0,.084,0,.085,0,.085,0,.086,0,.086,0,.087,0,.088,0,.088,0,.088,0,.089,0,.089,0h1.077l.089,0,.089,0,.089,0,.088,0,.087,0,.087,0,.087,0,.086,0,.085,0,.084,0,.084,0,.083,0,.083-.005.081,0,.081-.005.079,0,.079-.005.078-.006.076,0,.076-.006.074-.007.073-.006.072-.007.071-.007.07-.007.068-.007.067-.007.065-.008.064-.007.063-.008.061-.008.059-.009.059-.008.056-.009.055-.008.053-.009.052-.009.05-.01.048-.009.046-.009.045-.01.043-.01.041-.009.04-.01.037-.01.036-.01.033-.011.032-.01.03-.01.028-.011.026-.01.024-.011.023-.011.02-.01.018-.011.016-.011.014-.011.013-.011.01-.011.008-.011.006-.011,0-.011,0-.011v-.011l0-.011,0-.011L24.5,14.7l-.008-.011-.01-.011-.013-.011-.014-.01-.016-.011-.018-.011-.02-.011-.022-.011-.025-.01-.026-.011-.028-.01-.03-.011-.032-.01-.033-.01-.036-.01-.037-.01-.04-.01-.041-.01-.043-.01-.045-.009-.046-.01-.048-.009-.05-.009-.052-.009-.053-.009-.055-.009-.056-.008-.059-.009-.059-.008-.061-.008-.063-.008-.064-.008-.065-.007-.067-.008-.068-.007-.07-.007-.071-.007-.072-.006-.073-.007-.074-.006-.076-.006-.076-.006-.078-.005-.079-.006-.079,0-.081-.005-.081-.005-.083,0-.083,0-.084,0-.084,0-.085,0-.086,0-.087,0-.087,0-.087,0-.088,0-.089,0-.089,0h-.089l-.089,0h-.9l-.089,0H19.9l-.089,0-.088,0-.088,0-.088,0-.087,0-.086,0-.086,0-.085,0-.085,0-.084,0-.083,0-.082.005-.082,0-.08.005-.08,0-.079.006-.077.005-.077.006-.075.006-.075.006-.073.007-.072.006-.071.007-.069.007-.068.007-.067.008-.066.007-.064.008-.062.008-.061.008-.06.008-.058.009-.057.008-.054.009-.054.009-.051.009-.05.009-.049.009-.046.01-.045.009-.043.01-.041.01-.039.01-.038.01-.035.01-.034.01-.032.01-.03.011-.028.01L16.7,14.6l-.024.01-.022.011-.02.011-.019.011-.016.011-.014.01-.012.011-.01.011-.008.011-.007.011,0,.011Z" stroke-linejoin="round" stroke-linecap="round" stroke="#010101"/>
      <path fill="#010101" stroke-width="0.014" d="M43.458,14.631v.011l0,.012,0,.011-.007.011-.008.01-.01.011-.012.011-.014.011-.016.011-.019.011-.02.011-.022.01-.024.011-.026.01-.028.011-.03.01-.032.011-.034.01-.035.01-.038.01-.039.01-.041.01-.043.009-.045.01-.047.009-.048.01-.05.009-.051.009-.054.009-.054.008-.057.009-.058.008-.06.009-.061.008-.062.008-.064.008L42.177,15,42.11,15l-.068.008-.069.007-.071.006-.072.007-.073.007-.075.006-.075.006-.077.006-.077.005-.079,0-.08.006-.08.005-.082,0-.082.005-.083,0-.084,0-.085,0-.085,0-.086,0-.086,0-.087,0-.088,0-.088,0-.088,0H40.1l-.089,0h-.089l-.09,0h-.719l-.09,0h-.089l-.089,0h-.089l-.089,0-.088,0-.087,0-.087,0-.087,0-.086,0-.085,0-.084,0-.084,0-.083,0-.083-.005-.081,0-.081-.005-.079-.006-.079,0-.078-.005-.076-.006-.076-.006-.074-.006-.073-.007-.072-.007-.071-.006-.07-.007L36.836,15,36.769,15l-.065-.007-.064-.008-.063-.008-.061-.008-.059-.009-.058-.008-.057-.009-.055-.008-.053-.009-.052-.009-.05-.009-.048-.01-.046-.009-.045-.01-.043-.009-.041-.01-.04-.01-.037-.01-.036-.01-.033-.01-.032-.011-.03-.01-.028-.011-.026-.01-.024-.011-.023-.01-.02-.011-.018-.011-.016-.011-.014-.011-.013-.011-.01-.011-.008-.01-.006-.011,0-.012,0-.011v-.011l0-.011,0-.011L35.5,14.6l.008-.011.01-.01.013-.011.014-.011.016-.011.018-.011.02-.011.023-.01.024-.011.026-.01.028-.011.03-.01.032-.011.033-.01.036-.01.037-.01.04-.01.041-.01.043-.009.045-.01.046-.009.048-.01.05-.009.052-.009.053-.009.055-.009.056-.008.059-.009.059-.008.061-.008.063-.008.064-.008.065-.007.067-.008.068-.007.07-.007.071-.007.072-.006.073-.007.074-.006.076-.006.076-.006.078,0,.079-.006.079-.005.081,0,.081,0,.083-.005.083,0,.084,0,.084,0,.085,0,.086,0,.087,0,.087,0,.087,0,.088,0,.089,0h.089l.089,0h.089l.09,0h.719l.09,0h.089l.089,0h.089l.088,0,.088,0,.088,0,.087,0,.086,0,.086,0,.085,0,.085,0,.084,0,.083,0,.082.005.082,0,.08,0,.08.005.079.006.077,0,.077.006.075.006.075.006.073.007.072.006.071.007.069.007.068.007.067.008.066.007.064.008.062.008.061.008.06.008.058.009.057.008.054.009.054.009.051.009.05.009.049.01.046.009.045.01.043.009.041.01.039.01.038.01.035.01.034.01.032.011.03.01.028.011.026.01.024.011.022.01.02.011.019.011.016.011.014.011.012.011.01.01.008.011.007.011,0,.011Z" stroke-linejoin="round" stroke-linecap="round" stroke="#010101"/>
    </g>
    <g>
      <path fill="#cb9831" stroke-width="0.014" d="M35.987,40.593h20.62v1.739H35.987Z" stroke-linejoin="round" stroke-linecap="round" stroke="#cb9831"/>
      <path fill="#cb9831" stroke-width="0.014" d="M43.712,42.212H56.461v2.726H43.712Z" stroke-linejoin="round" stroke-linecap="round" stroke="#cb9831"/>
      <path fill="#cb9831" stroke-width="0.014" d="M43.756,44.927H51v.817l-7.031.01Z" stroke-linejoin="round" stroke-linecap="round" stroke="#cb9831"/>
      <path fill="#cb9831" stroke-width="0.014" d="M56.412,44.926H49.17v.817l7.031.009Z" stroke-linejoin="round" stroke-linecap="round" stroke="#cb9831"/>
      <path fill="#cb9831" stroke-width="0.014" d="M35.264,21.469H53.709v1.873H35.264Z" stroke-linejoin="round" stroke-linecap="round" stroke="#cb9831"/>
      <path fill="#cb9831" stroke-width="0.014" d="M26.986,42.354h6.78v1.265h-6.78Z" stroke-linejoin="round" stroke-linecap="round" stroke="#cb9831"/>
      <path fill="#cb9831" stroke-width="0.014" d="M28.306,41.285h4.14v1.508h-4.14Z" stroke-linejoin="round" stroke-linecap="round" stroke="#cb9831"/>
      <path fill="#cb9831" stroke-width="0.014" d="M26.986,40.2h6.78v1.266h-6.78Z" stroke-linejoin="round" stroke-linecap="round" stroke="#cb9831"/>
      <path fill="#cb9831" stroke-width="0.014" d="M26.986,25.548h6.78v1.266h-6.78Z" stroke-linejoin="round" stroke-linecap="round" stroke="#cb9831"/>
      <path fill="#cb9831" stroke-width="0.014" d="M28.66,22.962l3.313-.044,1.034.928-5.262,0Z" stroke-linejoin="round" stroke-linecap="round" stroke="#cb9831"/>
      <path fill="#cb9831" stroke-width="0.014" d="M24.013,40.69H3.393v1.739h20.62Z" stroke-linejoin="round" stroke-linecap="round" stroke="#cb9831"/>
      <path fill="#cb9831" stroke-width="0.014" d="M16.288,42.309H3.539v2.726H16.288Z" stroke-linejoin="round" stroke-linecap="round" stroke="#cb9831"/>
      <path fill="#cb9831" stroke-width="0.014" d="M16.244,45.024H9v.817l7.031.01Z" stroke-linejoin="round" stroke-linecap="round" stroke="#cb9831"/>
      <path fill="#cb9831" stroke-width="0.014" d="M3.588,45.023H10.83v.817L3.8,45.849Z" stroke-linejoin="round" stroke-linecap="round" stroke="#cb9831"/>
      <path fill="#cb9831" stroke-width="0.014" d="M24.736,21.566H6.291v1.873H24.736Z" stroke-linejoin="round" stroke-linecap="round" stroke="#cb9831"/>
    </g>
    <g>
      <path fill="#666766" stroke-width="0.014" d="M19.7,23.766H41.055v1.762H19.7Z" stroke-linejoin="round" stroke-linecap="round" stroke="#fcb325"/>
      <path fill="#666766" stroke-width="0.014" d="M19.125,37.934h22.5v2.231h-22.5Z" stroke-linejoin="round" stroke-linecap="round" stroke="#fcb325"/>
      <path fill="#666766" stroke-width="0.014" d="M31.816,26.8V37.9h-2.88V26.8Z" stroke-linejoin="round" stroke-linecap="round" stroke="#fcb325"/>
    </g>
  </g>
</svg>