<svg width="60" height="60" xmlns="http://www.w3.org/2000/svg" viewBox="0 0 60 60">
  <rect fill="#ffcd34" height="60" width="60"/>
  <g>
    <path d="M3.875,17.571a20.011,20.011,0,0,1,3.394-.25,5.439,5.439,0,0,1,3.573.993A3.412,3.412,0,0,1,12.03,21,3.708,3.708,0,0,1,11,23.75,5.369,5.369,0,0,1,7.16,25.056a5.407,5.407,0,0,1-1.085-.085v4.58h-2.2Zm2.2,5.657a4.4,4.4,0,0,0,1.086.1c1.656,0,2.668-.826,2.668-2.247,0-1.338-.936-2.057-2.471-2.057a6.487,6.487,0,0,0-1.283.105Z"/>
    <path d="M15.994,18.333a1.176,1.176,0,0,1-1.264,1.2,1.2,1.2,0,1,1,1.264-1.2ZM13.646,29.551V20.786h2.218v8.765Z"/>
    <path d="M18.254,23.392c0-1.013-.032-1.848-.072-2.606h1.937l.109,1.316h.051a3.19,3.19,0,0,1,2.793-1.515c1.529,0,3.116.985,3.116,3.757v5.207H23.97V24.606c0-1.258-.461-2.217-1.672-2.217a1.84,1.84,0,0,0-1.724,1.3,2.154,2.154,0,0,0-.1.7v5.158H18.254Z"/>
    <path d="M28.55,23.392c0-1.013-.032-1.848-.072-2.606h1.937l.108,1.316h.052a3.19,3.19,0,0,1,2.793-1.515c1.528,0,3.116.985,3.116,3.757v5.207H34.266V24.606c0-1.258-.461-2.217-1.672-2.217a1.842,1.842,0,0,0-1.725,1.3,2.21,2.21,0,0,0-.1.7v5.158H28.55Z"/>
    <path d="M40.405,25.782c.06,1.589,1.288,2.283,2.707,2.283a6.672,6.672,0,0,0,2.419-.406l.328,1.525a7.932,7.932,0,0,1-3.062.557A4.153,4.153,0,0,1,38.283,25.3c0-2.42,1.468-4.709,4.287-4.709,2.85,0,3.778,2.343,3.778,4.264a4.675,4.675,0,0,1-.078.931Zm3.856-1.545A1.887,1.887,0,0,0,42.433,22.1,2.169,2.169,0,0,0,40.4,24.237Z"/>
    <path d="M56.209,16.767V27.093c0,.9.032,1.864.072,2.458H54.309l-.1-1.387h-.04a3.13,3.13,0,0,1-2.847,1.586c-2.093,0-3.751-1.786-3.751-4.48-.012-2.937,1.823-4.683,3.93-4.683a2.776,2.776,0,0,1,2.457,1.143h.036V16.767Zm-2.215,7.67a2.981,2.981,0,0,0-.05-.577A1.946,1.946,0,0,0,52.039,22.3c-1.429,0-2.22,1.259-2.22,2.884s.8,2.788,2.2,2.788A1.966,1.966,0,0,0,53.927,26.4a2.6,2.6,0,0,0,.067-.647Z"/>
  </g>
</svg>