<svg width="60" height="60" xmlns="http://www.w3.org/2000/svg" viewBox="0 0 60 60">
  <rect fill="#d1e8c6" height="60" width="60"/>
  <g>
    <polygon fill="#010101" points="39.981 12.286 26.516 12.723 26.191 15.57 39.981 15.57 39.981 12.286" fill-rule="evenodd"/>
    <rect fill="#010101" x="31.172" width="3.102" height="0.311" y="9.376"/>
    <rect fill="#010101" x="30.807" width="3.783" height="0.506" y="9.466"/>
    <rect fill="#010101" x="30.724" width="4.249" height="0.278" y="9.662"/>
    <rect fill="#010101" x="30.384" width="4.972" height="0.706" y="9.82"/>
    <path fill="#010101" d="M31.081,10.369c.075.09.11.128.105.115l-.007-.016,0,0,0-.006,0,0s0,0-.006,0l-.027-.028-.025-.027-.009-.011v-.005a.678.678,0,0,0-.048-.058,1.193,1.193,0,0,1-.1-.135h.006v.038S31.006,10.279,31.081,10.369Z" fill-rule="evenodd" transform="translate(0 0)"/>
    <rect fill="#010101" x="30.038" width="5.612" height="0.867" y="10.309"/>
    <polygon fill="#010101" points="35.83 11.121 29.896 11.121 30.21 12.402 35.582 12.067 35.83 11.121" fill-rule="evenodd"/>
    <polygon fill="#010101" points="40.067 12.228 35.012 11.358 34.71 12.832 39.6 14.07 40.067 12.228" fill-rule="evenodd"/>
    <polygon fill="#010101" points="31.197 11.938 22.624 12.563 21.181 18.927 31.113 18.679 31.197 11.938" fill-rule="evenodd"/>
    <path fill="#010101" d="M20.693,14.121l-.007.042,0,.042-.005.043,0,.042,0,.042,0,.043,0,.042v.211l0,.041,0,.042,0,.041,0,.042,0,.041.005.04.006.041.007.04.008.04.008.039.008.039.01.039.01.038.01.038.012.038.012.037.012.037.014.036.013.035.015.035.015.035.015.034.017.033.017.033.017.032.018.032.018.031.019.03.02.029.02.029.021.028.021.028.021.026.022.026.023.025.023.025.023.023.024.023.025.022.024.021.025.021.026.019.026.019.026.018.027.016.027.017.027.015.027.014.028.013.028.013.029.011.028.011.029.009.029.009.029.008.03.007.029,0,.03.005.03,0,.03,0,.03,0h.091l.031,0,.03,0,.031,0,.03,0,.031-.006.03-.006.03-.008.031-.008.03-.009.03-.011.03-.011.03-.012.03-.013.03-.014.029-.015.029-.016.03-.016.029-.018.028-.018L22.511,16l.028-.02.028-.021.027-.022.028-.023.027-.023.026-.024.027-.025.026-.026.025-.026.026-.027.024-.028.025-.029.024-.029.024-.03.023-.031.022-.031.023-.032.021-.033.022-.033.02-.034.021-.034.019-.035.02-.036.018-.036.018-.036.018-.037.017-.037.016-.038.016-.038.016-.039.014-.039.014-.039.014-.04.012-.04.013-.041.011-.04.011-.041.01-.041.01-.042.009-.041.008-.042.008-.042.007-.042.006-.042.006-.042.005-.042,0-.043,0-.042,0-.042,0-.043,0-.042V14.05l0-.042,0-.042,0-.041,0-.041,0-.041,0-.041-.006-.04-.007-.041-.007-.039-.008-.04L23.3,13.6l-.009-.039-.01-.038-.011-.038-.011-.038-.012-.037-.013-.036-.013-.036-.014-.036-.014-.035-.015-.035L23.16,13.2l-.016-.033-.017-.033-.018-.032-.017-.031-.019-.031-.019-.031-.02-.029-.02-.029-.02-.028-.021-.027-.022-.027-.022-.026-.023-.025-.023-.025-.023-.023-.024-.023-.024-.022-.025-.021-.025-.021-.026-.019-.025-.019-.027-.017-.026-.017-.027-.016-.027-.015-.028-.015-.028-.013-.028-.012-.028-.012-.029-.01-.029-.01-.029-.009-.029-.007-.029-.007-.03-.006-.03-.005-.03,0-.03,0-.03,0h-.091l-.03,0-.031,0-.03,0-.031,0-.03.006-.031.006-.03.008-.03.008-.031.01-.03.01-.03.011-.03.012-.03.013-.029.014-.03.015-.029.016-.029.016-.029.018-.029.018-.028.02-.028.02-.028.021-.028.021-.027.023-.027.023-.027.024-.026.025-.026.026-.026.026-.025.028-.025.028-.025.028-.024.03-.023.03-.023.03-.023.032-.022.032-.022.032-.021.033-.021.034-.02.034-.02.035-.019.036-.019.036-.018.036-.018.037-.017.038-.016.037-.016.039-.015.038-.015.039-.014.04-.013.039-.013.04-.012.041-.012.04-.011.041-.01.041-.01.042L20.715,14l-.008.042-.007.042Z" fill-rule="evenodd" transform="translate(0 0)"/>
    <rect fill="#010101" x="29.678" width="7.071" height="6.301" y="12.389" transform="translate(17.131 48.493) rotate(-89.061)"/>
    <rect fill="#010101" x="26.531" width="2.076" height="2.076" y="11.861" transform="translate(-0.835 1.96) rotate(-4.011)"/>
    <rect fill="#010101" x="19.591" width="1.925" height="1.925" y="13.336" transform="translate(-0.248 0.363) rotate(-1.007)"/>
    <polygon fill="#010101" points="19.834 13.58 17.591 13.645 17.536 14.993 19.827 15.15 19.834 13.58" fill-rule="evenodd"/>
    <polygon fill="#010101" points="17.655 13.602 17.309 13.844 17.262 14.703 17.605 14.98 17.655 13.602" fill-rule="evenodd"/>
    <polygon fill="#010101" points="17.821 13.903 11.673 13.69 11.647 14.302 17.81 14.723 17.821 13.903" fill-rule="evenodd"/>
    <rect fill="#010101" x="29.128" width="1.193" height="0.216" y="11.702"/>
    <polygon fill="#010101" points="29.367 11.71 29.144 11.71 29.069 12.192 29.367 12.12 29.367 11.71" fill-rule="evenodd"/>
    <polygon fill="#010101" points="42.819 15.995 40.648 15.939 40.371 16.502 43.039 16.549 42.819 15.995" fill-rule="evenodd"/>
    <polygon fill="#010101" points="39.865 15.975 37.694 15.919 37.417 16.482 40.085 16.529 39.865 15.975" fill-rule="evenodd"/>
    <polygon fill="#010101" points="47.515 16.498 43.332 16.224 43.353 16.551 48.064 16.76 47.515 16.498" fill-rule="evenodd"/>
    <rect fill="#010101" x="45.175" width="1.218" height="4.318" y="15.095" transform="translate(26.856 62.372) rotate(-87.89)"/>
    <polygon fill="#010101" points="50.418 18.142 49.208 18.108 49.175 19.319 51.248 19.139 50.418 18.142" fill-rule="evenodd"/>
    <polygon fill="#010101" points="50.998 19.139 48.664 19.124 48.648 21.458 51.566 21.632 50.998 19.139" fill-rule="evenodd"/>
    <rect fill="#010101" x="47.873" width="3.105" height="3.105" y="21.155" transform="translate(-0.074 0.161) rotate(-0.187)"/>
    <polygon fill="#010101" points="49.244 17.609 42.841 16.566 42.967 19.324 49.244 19.324 49.244 17.609" fill-rule="evenodd"/>
    <rect fill="#010101" x="33.965" width="9.014" height="2.683" y="16.496"/>
    <rect fill="#010101" x="35.861" width="0.819" height="0.819" y="16.108" transform="translate(19.048 52.459) rotate(-88.881)"/>
    <rect fill="#010101" x="35.612" width="0.822" height="0.822" y="15.516" transform="translate(-2.181 6.346) rotate(-9.773)"/>
    <rect fill="#010101" x="17.603" width="4.345" height="2.276" y="16.646"/>
    <polygon fill="#010101" points="22.449 16.308 18.909 16.454 18.909 18.506 22.086 18.535 22.449 16.308" fill-rule="evenodd"/>
    <polygon fill="#010101" points="16.924 17.479 16.927 17.483 16.929 17.486 16.932 17.49 16.936 17.493 16.939 17.496 16.943 17.499 16.947 17.502 16.951 17.504 16.955 17.507 16.96 17.509 16.965 17.511 16.97 17.513 16.975 17.514 16.98 17.516 16.986 17.517 16.992 17.518 16.998 17.519 17.004 17.52 17.01 17.521 17.017 17.521 17.024 17.521 17.031 17.521 17.038 17.521 17.045 17.521 17.052 17.52 17.06 17.52 17.068 17.519 17.076 17.518 17.084 17.517 17.092 17.515 17.101 17.514 17.109 17.512 17.118 17.51 17.127 17.508 17.136 17.506 17.145 17.504 17.154 17.501 17.163 17.498 17.173 17.495 17.182 17.492 17.192 17.489 17.202 17.485 17.212 17.482 17.221 17.478 17.231 17.474 17.241 17.47 17.252 17.466 17.262 17.462 17.272 17.457 17.282 17.452 17.293 17.448 17.303 17.443 17.314 17.438 17.324 17.432 17.335 17.427 17.345 17.421 17.356 17.416 17.366 17.41 17.377 17.404 17.387 17.398 17.398 17.392 17.408 17.386 17.419 17.38 17.429 17.373 17.44 17.367 17.45 17.36 17.461 17.353 17.471 17.346 17.482 17.339 17.492 17.332 17.502 17.325 17.512 17.318 17.522 17.311 17.532 17.303 17.542 17.296 17.552 17.289 17.562 17.281 17.572 17.273 17.581 17.266 17.591 17.258 17.6 17.25 17.609 17.243 17.618 17.235 17.627 17.227 17.636 17.219 17.645 17.211 17.654 17.203 17.662 17.195 17.67 17.187 17.679 17.179 17.687 17.171 17.695 17.163 17.702 17.155 17.71 17.147 17.717 17.14 17.724 17.132 17.731 17.124 17.738 17.116 17.745 17.108 17.751 17.1 17.758 17.092 17.764 17.084 17.77 17.077 17.775 17.069 17.781 17.061 17.786 17.054 17.791 17.046 17.796 17.039 17.801 17.031 17.805 17.024 17.809 17.017 17.813 17.01 17.817 17.003 17.821 16.996 17.824 16.989 17.827 16.982 17.83 16.975 17.833 16.969 17.835 16.962 17.837 16.956 17.839 16.949 17.841 16.943 17.842 16.937 17.844 16.931 17.845 16.925 17.845 16.92 17.846 16.914 17.846 16.908 17.846 16.903 17.846 16.898 17.846 16.893 17.845 16.888 17.844 16.883 17.843 16.879 17.842 16.874 17.84 16.87 17.838 16.866 17.836 16.862 17.834 16.858 17.831 16.854 17.828 16.85 17.825 16.847 17.822 16.844 17.819 16.841 17.815 16.838 17.811 16.835 17.807 16.833 17.803 16.83 17.798 16.828 17.793 16.826 17.788 16.824 17.783 16.823 17.778 16.821 17.772 16.82 17.766 16.819 17.76 16.818 17.754 16.817 17.747 16.816 17.741 16.816 17.734 16.815 17.727 16.815 17.72 16.816 17.713 16.816 17.705 16.816 17.698 16.817 17.69 16.818 17.682 16.819 17.674 16.82 17.665 16.821 17.657 16.823 17.648 16.825 17.64 16.827 17.631 16.829 17.622 16.831 17.613 16.833 17.604 16.836 17.594 16.839 17.585 16.842 17.575 16.845 17.566 16.848 17.556 16.851 17.546 16.855 17.536 16.859 17.526 16.863 17.516 16.867 17.506 16.871 17.496 16.875 17.486 16.88 17.475 16.884 17.465 16.889 17.455 16.894 17.444 16.899 17.434 16.904 17.423 16.91 17.413 16.915 17.402 16.921 17.391 16.927 17.381 16.933 17.37 16.939 17.36 16.945 17.349 16.951 17.339 16.957 17.328 16.964 17.318 16.97 17.307 16.977 17.297 16.984 17.286 16.99 17.276 16.997 17.266 17.004 17.256 17.012 17.245 17.019 17.235 17.026 17.225 17.033 17.215 17.041 17.206 17.048 17.196 17.056 17.186 17.063 17.177 17.071 17.167 17.079 17.158 17.086 17.148 17.094 17.139 17.102 17.13 17.11 17.121 17.118 17.113 17.126 17.104 17.134 17.096 17.142 17.087 17.149 17.079 17.157 17.071 17.165 17.063 17.173 17.055 17.181 17.048 17.189 17.041 17.197 17.033 17.205 17.026 17.213 17.019 17.221 17.013 17.229 17.006 17.237 17 17.245 16.994 17.252 16.988 17.26 16.982 17.268 16.977 17.275 16.972 17.283 16.966 17.29 16.962 17.298 16.957 17.305 16.953 17.313 16.948 17.32 16.944 17.327 16.941 17.334 16.937 17.341 16.934 17.348 16.931 17.355 16.928 17.362 16.925 17.368 16.923 17.375 16.92 17.381 16.918 17.387 16.917 17.394 16.915 17.4 16.914 17.406 16.913 17.412 16.912 17.417 16.912 17.423 16.911 17.428 16.911 17.434 16.912 17.439 16.912 17.444 16.913 17.449 16.914 17.454 16.915 17.458 16.916 17.463 16.918 17.467 16.92 17.471 16.922 17.475 16.924 17.479" fill-rule="evenodd"/>
    <polygon fill="#010101" points="17.805 16.919 16.974 17.466 16.97 18.978 18.8 18.982 17.805 16.919" fill-rule="evenodd"/>
    <rect fill="#010101" x="14.612" width="3.159" height="0.314" y="17.749"/>
    <rect fill="#010101" x="15.821" width="1.222" height="0.425" y="18.006"/>
    <rect fill="#010101" x="15.431" width="1.652" height="0.916" y="18.186"/>
    <path fill="#010101" d="M13.586,18.822l.036,0,.063-.006a.514.514,0,0,0,.072-.015c.025-.007.047-.015.066-.022a.5.5,0,0,0,.057-.027.533.533,0,0,0,.056-.032.5.5,0,0,0,.055-.044.622.622,0,0,0,.045-.047.312.312,0,0,0,.034-.047.374.374,0,0,0,.028-.052.425.425,0,0,0,.019-.053.32.32,0,0,0,.011-.057.4.4,0,0,0,0-.06.253.253,0,0,0-.009-.064.394.394,0,0,0-.055-.13.411.411,0,0,0-.04-.052c-.013-.014-.028-.028-.044-.043a.414.414,0,0,0-.055-.041.484.484,0,0,0-.067-.038.5.5,0,0,0-.076-.03.515.515,0,0,0-.086-.021.683.683,0,0,0-.112-.01" fill-rule="evenodd" transform="translate(0 0)"/>
    <rect fill="#010101" x="14.224" width="0.637" height="0.637" y="18.127"/>
    <rect fill="#010101" x="14.725" width="0.292" height="0.292" y="18.335"/>
    <rect fill="#010101" x="14.311" width="0.473" height="0.473" y="18.703"/>
    <rect fill="#010101" x="13.752" width="0.284" height="0.694" y="18.602"/>
    <path fill="#010101" d="M12.373,19.846l.046,0a.581.581,0,0,0,.08-.006c.028,0,.058-.008.09-.014a.836.836,0,0,0,.084-.022.761.761,0,0,0,.072-.025c.024-.01.047-.02.07-.032a.6.6,0,0,0,.07-.043c.023-.016.042-.032.058-.045a.476.476,0,0,0,.043-.046.316.316,0,0,0,.034-.05.489.489,0,0,0,.025-.052.285.285,0,0,0,.013-.054.292.292,0,0,0,0-.059.246.246,0,0,0-.011-.062.361.361,0,0,0-.027-.064.346.346,0,0,0-.043-.062.611.611,0,0,0-.051-.051c-.016-.013-.035-.027-.055-.041a.5.5,0,0,0-.07-.04.6.6,0,0,0-.085-.037.879.879,0,0,0-.095-.029,1.055,1.055,0,0,0-.109-.021,1.322,1.322,0,0,0-.142-.009" fill-rule="evenodd" transform="translate(0 0)"/>
    <path fill="#010101" d="M10.63,19.971h.047l.079-.006a.768.768,0,0,0,.09-.015c.032-.006.06-.014.085-.021s.048-.016.072-.026.046-.02.07-.031a.52.52,0,0,0,.069-.043c.023-.017.042-.032.058-.046a.368.368,0,0,0,.043-.045.41.41,0,0,0,.035-.05.474.474,0,0,0,.024-.052.3.3,0,0,0,.014-.055.282.282,0,0,0,0-.058.242.242,0,0,0-.012-.062.263.263,0,0,0-.027-.065.3.3,0,0,0-.043-.061.409.409,0,0,0-.051-.051c-.016-.013-.034-.027-.055-.041a.7.7,0,0,0-.069-.041c-.027-.013-.055-.025-.085-.036s-.063-.021-.1-.03a1.014,1.014,0,0,0-.109-.02,1.322,1.322,0,0,0-.142-.009" fill-rule="evenodd" transform="translate(0 0)"/>
    <polygon fill="#010101" points="10.388 19.377 8.162 21.199 8.405 21.655 10.51 19.989 10.388 19.377" fill-rule="evenodd"/>
    <polygon fill="#010101" points="48.862 18.435 15.608 18.65 15.954 24.525 48.705 24.525 48.862 18.435" fill-rule="evenodd"/>
    <polygon fill="#010101" points="16.445 18.956 10.353 19.401 8.762 21.203 16.242 25.29 16.445 18.956" fill-rule="evenodd"/>
    <path fill="#010101" d="M9.188,23.472c0,.026,0,.053,0,.079s0,.053,0,.08,0,.053,0,.079,0,.053,0,.079,0,.053,0,.08.005.052.007.079l.009.079c0,.026.007.052.011.078l.012.079.015.078c.005.026.01.052.016.078s.011.051.017.077l.02.077.021.076c.007.026.015.051.023.076s.016.051.025.076.017.05.026.075.019.049.028.074l.03.074.031.073.033.072c.012.024.023.048.035.071l.036.071.038.07.039.069c.014.023.028.045.041.068l.043.067c.014.022.029.044.044.066l.045.065.047.064.049.063.049.062c.017.02.034.041.052.061s.034.04.052.059l.054.059.055.057.057.056.057.054.059.053.06.052.062.051c.02.017.041.033.062.049l.063.048.065.046.066.045.066.043.068.042c.022.014.045.027.068.04l.069.039.071.037.071.036.071.033.073.033.073.03.074.029.075.028.075.025.076.024.076.022.077.021.077.018.077.017.078.016.079.013.078.012.079.01.079.008.079.006.079.005.08,0h.159l.079,0,.079-.005.079-.006.079-.008.079-.01.079-.011.078-.014.078-.015.078-.017L13.563,27l.077-.021.076-.022.076-.024.075-.025.074-.027.074-.029.074-.031.072-.032.072-.034.071-.035.07-.038c.024-.012.047-.025.07-.038l.068-.04.068-.042.066-.043.066-.045.065-.046.063-.048.063-.049.061-.05.06-.052.059-.054.058-.054c.019-.018.038-.037.056-.056l.055-.057c.019-.019.037-.039.054-.058l.053-.06.051-.06c.017-.021.034-.041.05-.062s.033-.042.048-.063l.047-.064.046-.065.044-.066.043-.067c.013-.023.027-.045.041-.068l.039-.069.038-.07.036-.071c.012-.023.024-.047.035-.071l.033-.072c.011-.024.021-.049.032-.073s.02-.049.029-.074.019-.049.029-.074l.026-.075c.008-.025.017-.05.025-.075s.015-.051.023-.076L16.1,24.5c.007-.025.013-.051.02-.077s.012-.051.017-.077.011-.052.017-.078.009-.052.014-.078.009-.052.012-.078.008-.053.011-.079l.009-.079c0-.026,0-.053.007-.079l.006-.079c0-.027,0-.053,0-.08s0-.053,0-.079,0-.053,0-.079,0-.053,0-.08,0-.053,0-.079,0-.053,0-.079,0-.053-.007-.08l-.009-.078c0-.027-.007-.053-.011-.079s-.008-.052-.013-.079-.009-.052-.014-.078-.01-.052-.016-.077-.011-.052-.018-.078-.012-.051-.019-.077l-.021-.076c-.008-.026-.015-.051-.023-.076s-.016-.051-.025-.076-.017-.05-.026-.075-.019-.049-.028-.074l-.03-.074c-.01-.024-.021-.048-.032-.073s-.021-.048-.033-.072-.022-.048-.034-.071l-.036-.071-.038-.07c-.013-.023-.026-.046-.04-.069s-.027-.045-.041-.068l-.042-.067-.044-.066-.046-.065c-.015-.022-.031-.043-.047-.064s-.032-.042-.048-.063-.033-.041-.05-.062l-.051-.061-.052-.059-.054-.059-.055-.057-.057-.056-.058-.054-.058-.053-.061-.052-.061-.051-.062-.049-.064-.048-.064-.046-.066-.045-.066-.043-.068-.042-.068-.04-.07-.039-.07-.037-.071-.035-.072-.034-.072-.033-.074-.03-.073-.029-.075-.028-.075-.025-.076-.024-.076-.022-.077-.021-.077-.018-.078-.017q-.039-.009-.078-.015l-.078-.014-.078-.012L13.1,20.1l-.079-.009-.079-.006-.08,0c-.026,0-.053,0-.079,0h-.159l-.079,0-.08,0-.079.006-.079.008-.078.01c-.027,0-.053.007-.079.012l-.078.013-.078.015-.078.017-.077.019-.077.02-.076.022-.076.024-.075.025-.075.028-.074.029-.073.03-.073.032-.071.034c-.024.012-.048.023-.071.036l-.071.037-.069.038-.069.04-.067.042-.067.043-.065.045-.065.046-.063.048-.063.049-.061.051-.06.051-.059.054-.058.054-.056.056-.056.057-.054.058-.052.06c-.017.02-.035.04-.051.061l-.05.061-.049.063-.047.064L9.8,21.61l-.044.066-.043.067c-.014.023-.027.046-.041.068l-.039.069-.038.07-.037.071c-.011.023-.023.047-.034.071s-.023.048-.033.072-.022.049-.032.073l-.03.074c-.009.025-.019.049-.028.074s-.018.05-.026.075-.017.05-.025.076-.016.05-.023.076l-.021.076c-.007.026-.014.051-.02.077l-.018.077c0,.026-.011.052-.016.078s-.01.052-.014.078-.009.052-.013.079-.007.052-.01.078-.007.053-.009.079-.006.053-.008.079,0,.053,0,.08S9.189,23.445,9.188,23.472Z" fill-rule="evenodd" transform="translate(0 0)"/>
    <path fill="#010101" d="M38.423,26.416a.353.353,0,0,0,0,.046v.047l0,.047,0,.046,0,.047.005.046.007.046.007.046.008.046.01.046.01.045.012.046.012.044.014.045.014.044.016.044.016.044.018.043.018.043.02.043.02.042.021.041.023.041.023.04.024.04.025.04.026.039.026.038.028.037.028.037.03.037.03.035.031.035.031.035.033.033.033.033.034.032.034.031.036.031.036.029.036.029.038.028.038.027.038.027.039.025.04.025.04.023.041.023.041.022.042.021.042.02.043.018.043.018.043.017.044.016.044.015.045.014.044.013.045.012.046.011.045.01.046.009.046.008.046.007.046.006.047.005.046,0,.047,0h.186l.047,0,.047,0,.046-.005.046-.006.046-.007.046-.008.046-.009.046-.01.045-.011.045-.012.045-.013.044-.014.045-.015.043-.016.044-.017.043-.018.042-.018.043-.02.041-.021.042-.022.04-.023.041-.023.039-.025.039-.025.039-.027.038-.027.037-.028.037-.029.036-.029.035-.031.035-.031.034-.032.033-.033.032-.033.032-.035.031-.035.03-.035.029-.037.028-.037.028-.037.027-.038.026-.039.025-.04.024-.04.023-.04.022-.041.021-.041.021-.042.019-.043.019-.043.017-.043.017-.044.015-.044.015-.044.013-.045.013-.044.011-.046.011-.045.009-.046.008-.046.008-.046.006-.046.005-.046,0-.047,0-.046,0-.047v-.14l0-.046,0-.047,0-.046-.005-.047-.006-.046-.008-.046-.008-.046L42.5,26l-.011-.045-.011-.045-.013-.045-.013-.045-.015-.044-.015-.044-.017-.044-.017-.043-.019-.043-.019-.042-.021-.042-.021-.042-.022-.041-.023-.04-.024-.04-.025-.039-.026-.039-.027-.039-.028-.037-.028-.037-.029-.036-.03-.036-.031-.035-.032-.034-.032-.034-.033-.033-.034-.032-.035-.031-.035-.03-.036-.03-.037-.029-.037-.028-.038-.027-.039-.026-.039-.026-.039-.024-.041-.024-.04-.023-.042-.021-.041-.021-.043-.02-.042-.019-.043-.018-.044-.017-.043-.016-.045-.015-.044-.014-.045-.013-.045-.012-.045-.011-.046-.01-.046-.009-.046-.008-.046-.007-.046,0-.046,0-.047,0-.047,0H40.44l-.047,0-.047,0-.046,0-.047,0-.046,0-.046.007-.046.008-.046.009-.045.01-.046.011-.045.012-.045.013-.044.014-.044.015-.044.016-.043.017-.043.018-.043.019-.042.02-.042.021-.041.021-.041.023-.04.024-.04.024-.039.026-.038.026-.038.027-.038.028-.036.029-.036.03-.036.03-.034.031-.034.032-.033.033-.033.034-.031.034-.031.035-.03.036-.03.036-.028.037-.028.037-.026.039-.026.039-.025.039-.024.04-.023.04-.023.041-.021.042-.02.042-.02.042-.018.043-.018.043-.016.044-.016.044-.014.044-.014.045-.012.045-.012.045L38.47,26l-.01.046-.008.046-.007.046-.007.046-.005.047,0,.046,0,.047,0,.046Z" fill-rule="evenodd" transform="translate(0 0)"/>
    <path fill="#010101" d="M33.941,26.565v.094l0,.046,0,.047,0,.046.006.046.006.047.007.046.009.046.009.045.011.046.011.045.012.045.014.045.015.044.015.044.017.043.017.044.018.043.02.042.02.042.022.041.022.041.023.041.024.04.025.039.026.039.027.038.027.038.029.037.029.036.03.036.031.035.032.034.032.034.033.032.034.032.035.032.035.03.036.03.037.029.037.028.038.027.038.026.039.026.04.024.04.024.041.022.041.022.042.021.042.02.043.019.043.018.043.017.044.016.044.015.045.014.045.013.045.012.045.011.046.01.045.009.046.008.046.006.047.006.046,0,.047,0,.046,0,.047,0h.093l.047,0,.046,0,.047,0,.046,0,.046-.006.047-.006.046-.008.045-.009.046-.01.045-.011.045-.012.045-.013.045-.014.044-.015.044-.016.043-.017.043-.018.043-.019.042-.02.042-.021.041-.022.041-.022.04-.024.039-.024.04-.026.038-.026.038-.027.037-.028L37.3,28.2l.036-.03.035-.03.035-.032.034-.032.033-.032.032-.034.032-.034.031-.035.03-.036.029-.036.029-.037.027-.038.027-.038.026-.039.025-.039.024-.04.023-.041.022-.041.022-.041.02-.042.019-.042.019-.043.017-.044.017-.043.015-.044.015-.044.013-.045L38,27.119l.011-.045.011-.046.009-.045.009-.046.007-.046.006-.047.006-.046,0-.046,0-.047,0-.046v-.14l0-.047,0-.047,0-.046-.006-.046-.006-.047-.007-.046L38.03,26.2l-.009-.046L38.01,26.1,38,26.058l-.013-.045-.013-.044-.015-.045-.015-.044-.017-.043-.017-.044-.019-.042-.019-.043-.02-.042-.022-.041-.022-.041-.023-.041-.024-.04-.025-.039-.026-.039-.027-.038-.027-.038-.029-.037-.029-.036-.03-.036-.031-.035-.032-.034-.032-.033-.033-.033-.034-.032-.035-.032-.035-.03-.036-.03-.037-.029-.037-.028-.038-.027-.038-.026-.04-.025-.039-.025-.04-.024-.041-.022-.041-.022-.042-.021-.042-.02-.043-.019-.043-.018-.043-.017-.044-.016-.044-.015-.045-.014-.045-.013-.045-.012-.045-.011-.046-.01-.045-.009-.046-.007-.047-.007-.046-.006-.046,0-.047,0-.046,0-.047,0h-.093l-.047,0-.046,0-.047,0-.046,0-.047.006-.046.007-.046.007-.045.009-.046.01-.045.011-.045.012-.045.013-.045.014-.044.015-.044.016-.043.017-.043.018-.043.019-.042.02-.042.021-.041.022-.041.022-.04.024-.04.025-.039.025-.038.026-.038.027-.037.028-.037.029-.036.03-.035.03-.035.032-.034.032-.033.033-.033.033-.031.034-.031.035-.03.036-.029.036-.029.037-.027.038-.027.038-.026.039-.025.039-.024.04-.023.041-.022.041-.022.041-.02.042-.02.043-.018.042-.017.044-.017.043-.015.044-.015.045-.014.044-.012.045L34,26.1l-.011.046-.009.046-.009.045-.007.046-.006.047-.006.046,0,.047,0,.046,0,.047Z" fill-rule="evenodd" transform="translate(0 0)"/>
    <path fill="#010101" d="M29.429,26.6v.093l0,.047,0,.047.005.046,0,.046.006.047.008.046.008.045.009.046.011.046.011.045.013.045.013.044.015.045.015.044.017.043.017.044.019.042.019.043.021.042.021.041.022.041.023.041.024.04.025.039.026.039.027.038.028.038.028.037.029.036.03.036.031.035.032.034.032.033.033.033.034.032.035.032.035.03.036.03.037.029.037.028.038.027.039.026.039.025.039.025.041.024.04.022.042.022.041.021.043.02.042.019.043.018.044.017.043.016.045.015.044.014.045.013.045.012.045.011.046.01.046.009.046.007.046.007.046.006.046,0,.047,0,.047,0,.046,0h.093l.047,0,.047,0,.046,0,.047,0,.046-.006.046-.007.046-.007.046-.009.045-.01L32,28.619l.045-.012.045-.013.044-.014.044-.015.044-.016.043-.017.043-.018.043-.019.042-.02.042-.021.041-.022.041-.022.04-.024.04-.025.039-.025.038-.026.038-.027.038-.028.036-.029.036-.03.036-.03.034-.032.034-.032.033-.033.033-.033L33.024,28l.031-.035.03-.036.03-.036.028-.037.028-.038.026-.038.026-.039.025-.039.024-.04.023-.041.023-.041.021-.041.02-.042.02-.043.018-.042.018-.044.016-.043.016-.044.014-.045.014-.044.012-.045L33.5,27.1l.01-.046.01-.046.008-.045.007-.046.007-.047.005-.046,0-.046,0-.047,0-.047v-.046a.369.369,0,0,0,0-.047v-.047l0-.046,0-.047,0-.046-.005-.046-.007-.047-.007-.046-.008-.046-.01-.045-.01-.046-.012-.045-.012-.045L33.461,26l-.014-.044-.016-.044-.016-.043-.018-.044-.018-.043-.02-.042-.02-.042-.021-.041-.023-.041-.023-.041-.024-.04-.025-.039-.026-.039-.026-.038-.028-.038-.028-.037-.03-.036-.03-.036-.031-.035-.031-.034-.033-.034-.033-.032-.034-.032-.034-.032-.036-.03-.036-.03-.036-.029-.038-.028-.038-.027-.038-.026-.039-.026-.04-.024-.04-.024-.041-.022-.041-.022-.042-.021-.042-.02-.043-.019-.043-.018-.043-.017-.044-.016-.044-.015-.044-.014-.045-.013L32,24.618l-.046-.011-.045-.01-.046-.009-.046-.008-.046-.006-.046-.006-.047-.005-.046,0-.047,0-.047,0h-.093l-.046,0-.047,0-.047,0-.046.005-.046.006-.046.006-.046.008-.046.009-.046.01-.045.011-.045.012-.045.013-.044.014-.045.015-.043.016-.044.017-.043.018-.042.019-.043.02-.041.021-.042.022-.04.022-.041.024-.039.024-.039.026-.039.026-.038.027-.037.028-.037.029-.036.03-.035.03-.035.032-.034.032-.033.032-.032.034-.032.034-.031.035-.03.036-.029.036-.028.037-.028.038-.027.038-.026.039-.025.039-.024.04-.023.041-.022.041-.021.041-.021.042-.019.042-.019.043-.017.044-.017.043-.015.044L29.524,26l-.013.045-.013.045-.011.045-.011.046-.009.045-.008.046-.008.046-.006.047,0,.046-.005.046,0,.047,0,.047Z" fill-rule="evenodd" transform="translate(0 0)"/>
    <path fill="#010101" d="M24.828,26.6v.093l0,.047,0,.047,0,.046.006.046.006.047.007.046.009.045.009.046.011.046.011.045.013.045.013.044.015.045.015.044.017.043.017.044.019.042.019.043.02.042.022.041.022.041.023.041.024.04.025.039.026.039.027.038.027.038.029.037.029.036.03.036L25.36,28l.032.034.032.033.033.033.034.032.035.032.035.03.036.03.037.029.037.028.038.027.038.026.04.025.039.025.04.024.041.022.041.022.042.021.042.02.043.019.043.018.043.017.044.016.044.015.045.014.045.013.045.012.045.011.046.01.045.009.046.007.047.007.046.006.046,0,.047,0,.046,0,.047,0h.093l.047,0,.046,0,.047,0,.046,0,.047-.006.046-.007.046-.007.045-.009.046-.01.045-.011.045-.012.045-.013.045-.014.044-.015.044-.016.043-.017.043-.018.043-.019.042-.02.042-.021.041-.022.041-.022.04-.024.04-.025.039-.025.038-.026.038-.027.037-.028.037-.029.036-.03.035-.03.035-.032.034-.032.033-.033.033-.033L28.423,28l.031-.035.03-.036.029-.036.029-.037.027-.038.027-.038.026-.039.025-.039.024-.04.023-.041.022-.041.022-.041.02-.042.02-.043.018-.042.017-.044.017-.043.015-.044.015-.045.014-.044.012-.045L28.9,27.1l.011-.046.009-.046.009-.045.007-.046.006-.047.006-.046,0-.046,0-.047,0-.047v-.14l0-.046,0-.047,0-.046-.006-.046-.006-.047-.007-.046-.009-.046-.009-.045-.011-.046-.011-.045-.012-.045L28.86,26l-.015-.044-.015-.044-.017-.043-.017-.044-.018-.043-.02-.042-.02-.042-.022-.041-.022-.041-.023-.041-.024-.04-.025-.039-.026-.039-.027-.038-.027-.038-.029-.037-.029-.036-.03-.036-.031-.035-.031-.034-.033-.034-.033-.032-.034-.032-.035-.032-.035-.03-.036-.03-.037-.029-.037-.028-.038-.027-.038-.026L28,24.875l-.04-.024-.04-.024-.041-.022-.041-.022-.042-.021-.042-.02-.043-.019-.043-.018-.043-.017-.044-.016-.044-.015-.045-.014-.045-.013-.045-.012-.045-.011-.046-.01-.045-.009-.046-.008-.046-.006-.047-.006-.046-.005-.047,0-.046,0-.047,0h-.093l-.047,0-.046,0-.047,0-.046.005-.046.006-.047.006-.046.008-.045.009-.046.01-.045.011-.045.012-.045.013-.045.014-.044.015-.044.016-.043.017-.043.018-.043.019-.042.02-.042.021-.041.022-.041.022-.04.024-.039.024-.04.026-.038.026-.038.027-.037.028-.037.029-.036.03-.035.03-.035.032-.034.032-.033.032-.032.034-.032.034-.031.035-.03.036-.029.036-.029.037-.027.038-.027.038-.026.039-.025.039-.024.04-.023.041-.022.041-.022.041-.02.042-.019.042-.019.043-.017.044-.017.043-.015.044L24.923,26l-.013.045-.013.045-.011.045-.011.046-.009.045-.009.046-.007.046-.006.047-.006.046,0,.046,0,.047,0,.047Z" fill-rule="evenodd" transform="translate(0 0)"/>
    <path fill="#010101" d="M20.316,26.505V26.6l0,.046,0,.047,0,.046,0,.047.006.046.008.046.008.046.01.046.01.045.011.045.013.045.013.045.015.044.016.044.016.044.017.043.019.043.019.042.021.042.021.042.022.041.023.04.025.04.025.039.025.039.027.039.028.037.028.037.029.036.03.036.031.035.032.034.032.034.034.033.033.032.035.031.035.03.036.03.037.029.037.028.038.027.039.026.039.026.04.024.04.024.041.023.041.021.041.021.043.02.042.019.043.018.044.017.044.016.044.015.044.014.045.013.045.012.045.011.046.01.046.009.046.008.046.007.046,0,.047,0,.046,0,.047,0,.046,0h.094l.046,0,.047,0,.046,0,.047,0,.046,0,.046-.007.046-.008.046-.009.045-.01.046-.011.045-.012.045-.013.044-.014.044-.015.044-.016.044-.017.043-.018.042-.019.042-.02.042-.021.041-.021.041-.023.04-.024.04-.024.039-.026.039-.026.038-.027.037-.028.036-.029.036-.03.036-.03.034-.031.034-.032.033-.033.033-.034.032-.034.03-.035.03-.036.03-.036.028-.037.028-.037.026-.039.026-.039.025-.039.024-.04.024-.04.022-.041.021-.042.02-.042.02-.042.018-.043.018-.043.016-.044.016-.044.014-.044.014-.045.012-.045.012-.045.01-.045.01-.046.008-.046.007-.046.007-.046,0-.047,0-.046,0-.047,0-.046v-.14l0-.047,0-.046,0-.047,0-.046-.007-.046-.007-.046-.008-.046-.01-.046-.01-.045L24.374,26l-.012-.045-.014-.044-.014-.044-.016-.044-.016-.044-.018-.043-.018-.043-.019-.043-.021-.042-.021-.041-.022-.041-.024-.041-.024-.039-.025-.04-.026-.039-.026-.038-.028-.038L24,25.253l-.03-.037-.03-.035-.03-.035-.032-.035-.033-.033-.033-.033-.034-.032-.034-.031-.036-.031-.036-.029-.036-.029-.037-.028-.038-.027-.039-.027-.039-.025-.04-.025-.04-.023-.041-.023-.041-.022-.042-.021-.042-.02-.042-.019-.043-.018L23.11,24.6l-.044-.017-.044-.015-.044-.014-.045-.013-.045-.012-.046-.01-.045-.01-.046-.009-.046-.008-.046-.007-.046-.006-.047-.005-.046,0-.047,0h-.186l-.047,0-.046,0-.047.005-.046.006-.046.007-.046.008-.046.009-.046.01-.045.01-.045.012-.045.013-.044.014-.044.016-.044.016-.044.017-.043.017-.042.019-.043.02-.041.021-.041.022-.041.023-.04.023-.04.025-.039.025-.039.027-.038.027-.037.028-.037.029-.036.029-.035.031-.035.031-.033.032-.034.033-.032.033-.032.035-.031.035-.03.035-.029.037-.028.037-.028.037-.027.038-.025.039-.025.04-.025.04-.023.04-.022.041-.021.041-.021.042-.019.043-.019.043-.017.043-.017.044-.015.044-.015.044-.013.045L20.385,26l-.011.046-.01.045-.01.046-.008.046-.008.046-.006.046,0,.046,0,.047,0,.046,0,.047Z" fill-rule="evenodd" transform="translate(0 0)"/>
    <path fill="#010101" d="M15.864,26.685v.093l0,.047,0,.046,0,.047.005.046.007.046.007.046.008.046.01.046.01.045.012.045.012.045.014.045.014.044.016.044.016.044.018.043.018.043.02.042.02.042.021.042.022.041.024.04.024.04.025.04.026.039.026.038.028.037.028.037.03.037.03.035.03.035.032.035.033.033.033.033.034.032.034.031.036.031.036.029.036.029.037.028.038.027.039.027.039.025.04.025.04.023.041.023.041.022.042.021.042.019.042.019.043.018.044.017.044.016.044.015.044.014.045.013.045.012.046.011.045.01.046.009.046.008.046.007.046.006.047,0,.046,0,.047,0h.186l.047,0,.046,0,.047,0,.046-.006.046-.007.046-.008.046-.009.046-.01.045-.011.045-.012.045-.013.044-.014.044-.015.044-.016.044-.017.043-.018.042-.019.043-.019.041-.021.041-.022.041-.023.04-.023.04-.025.039-.025.039-.027.038-.027.037-.028.037-.029.036-.029.035-.031.035-.031.033-.032.034-.033.032-.033.032-.035.031-.035.03-.035.029-.037.028-.037.028-.037.027-.038.025-.039.025-.04.025-.04.023-.04.022-.041.021-.042.021-.042.019-.042.019-.043.017-.043.016-.044.016-.044.015-.044.013-.045.013-.045.011-.045.01-.045.01-.046.008-.046.008-.046.006-.046.005-.046,0-.047,0-.046,0-.047v-.14l0-.046,0-.047,0-.046-.005-.047-.006-.046-.008-.046-.008-.046-.01-.046-.01-.045-.011-.045-.013-.045-.013-.045-.015-.044L19.866,26l-.016-.044-.017-.043-.019-.043-.019-.042-.021-.042-.021-.042-.022-.041-.023-.04-.025-.04-.025-.04-.025-.038-.027-.039-.028-.037-.028-.037-.029-.037-.03-.035-.031-.035-.032-.034-.032-.034-.034-.033-.033-.032-.035-.031-.035-.031-.036-.029-.037-.029-.037-.028-.038-.027-.039-.027-.039-.025-.04-.024-.04-.024-.041-.023-.041-.022-.041-.02-.043-.02-.042-.019L18.7,24.8l-.044-.017-.044-.016-.044-.015-.044-.014-.045-.013-.045-.012-.045-.011-.046-.01-.046-.009-.046-.008-.046-.007-.046-.006-.047,0-.046,0-.047,0h-.186l-.047,0-.046,0-.047,0-.046.006-.046.007-.046.008-.046.009-.045.01-.046.011-.045.012-.045.013-.044.014-.044.015-.044.016-.044.017-.043.018-.042.019-.042.02-.042.02-.041.022-.041.023-.04.024-.04.024-.039.025-.039.027-.038.027-.037.028-.036.029-.036.029-.036.031-.034.031-.034.032-.033.033-.033.034-.032.034-.03.035-.03.035-.03.037-.028.037-.028.037-.026.039-.026.038-.025.04-.024.04-.024.04-.022.041-.021.042-.021.042-.019.042-.018.043-.018.043L15.99,26l-.016.044-.014.044-.014.045-.012.045-.012.045-.01.045-.01.046-.008.046-.007.046-.007.046-.005.047,0,.046,0,.047,0,.046Z" fill-rule="evenodd" transform="translate(0 0)"/>
    <rect fill="#010101" x="12.821" width="32.445" height="3.074" y="22.96"/>
    <path fill="#010101" d="M43.433,23.272v.066l0,.066,0,.066,0,.066.006.066.007.065.009.066.011.065.012.065.013.065.015.064.016.064.018.064.019.063.021.063.021.062.024.062.025.061.026.061.027.06.029.06.03.058.032.059.033.057.034.056.035.056.037.055.038.054.039.054.04.052.042.052.042.05.044.05.045.048.046.048.047.046.048.046.049.044.05.043.051.042.052.041.053.04.053.038.055.037.055.036.057.035.057.034.057.032.059.031.059.029.06.028.06.027.061.026.062.024.062.023.062.021.063.02.064.018.064.017.064.016.064.014.065.012.065.011.066.01.065.008.066.007.066.005.066,0,.066,0h.132l.066,0,.066,0,.066-.005.066-.007.066-.008.065-.01.065-.011.065-.012.064-.014.065-.016.064-.017L47.2,26.1l.063-.02.063-.021.062-.023.061-.024.061-.026.061-.027.059-.028.06-.029.058-.031.058-.032.057-.034.056-.035.055-.036.055-.037.054-.038.053-.04.051-.041.051-.042.051-.043.049-.044.048-.046.047-.046.046-.048.044-.048.044-.05.043-.05.041-.052.04-.052.04-.054.037-.054.037-.055.035-.055.035-.057.032-.057.032-.059.03-.058.029-.06.028-.06.026-.061.024-.061.024-.062.022-.062.02-.063.02-.063.017-.064.017-.064.014-.064.014-.065.012-.065.01-.065.009-.066.007-.065.006-.066.005-.066,0-.066v-.066q0-.033,0-.066v-.066l0-.066-.005-.066-.006-.066-.007-.066-.009-.065-.01-.066-.012-.065-.014-.064-.014-.065-.017-.064-.017-.064-.02-.063-.02-.063L49.1,22.3l-.024-.062-.024-.061-.026-.061L49,22.057,48.973,22l-.03-.059-.032-.058-.032-.057-.035-.057-.035-.056-.037-.055-.037-.054-.04-.053-.04-.053-.041-.051-.043-.051-.044-.049-.044-.049-.046-.047L48.39,21.2l-.048-.045-.049-.045-.051-.043-.051-.042-.051-.041-.053-.039-.054-.039-.055-.037-.055-.036-.056-.035-.057-.033-.058-.032-.058-.031-.06-.03-.059-.028-.061-.027-.061-.025-.061-.024-.062-.023-.063-.021-.063-.02-.063-.019-.064-.017-.065-.015-.064-.014-.065-.013-.065-.011-.065-.01-.066-.008-.066-.007-.066,0-.066,0-.066,0h-.132l-.066,0-.066,0-.066,0-.066.007-.065.008-.066.01-.065.011-.065.013-.064.014-.064.015-.064.017-.064.019-.063.02-.062.021-.062.023-.062.024-.061.025-.06.027-.06.028-.059.03-.059.031-.057.032-.057.033-.057.035-.055.036-.055.037-.053.039-.053.039-.052.041-.051.042-.05.043-.049.045-.048.045-.047.047-.046.047-.045.049-.044.049-.042.051-.042.051-.04.053-.039.053-.038.054-.037.055-.035.056-.034.057-.033.057-.032.058-.03.059-.029.059-.027.06-.026.061-.025.061-.024.062-.022.062-.02.063-.019.064-.018.063-.016.064-.015.065-.013.064-.012.065-.011.066-.009.065-.007.066-.006.066,0,.066,0,.066Z" fill-rule="evenodd" transform="translate(0 0)"/>
    <polygon fill="#010101" points="38.917 28.013 38.412 28.037 38.282 28.765 39.035 28.765 38.917 28.013" fill-rule="evenodd"/>
    <polygon fill="#010101" points="39.238 28.735 38.316 28.772 38.396 29.33 39.505 29.33 39.238 28.735" fill-rule="evenodd"/>
    <polygon fill="#010101" points="38.035 28.002 37.53 28.025 37.401 28.754 38.153 28.754 38.035 28.002" fill-rule="evenodd"/>
    <polygon fill="#010101" points="38.356 28.723 37.434 28.76 37.514 29.318 38.623 29.318 38.356 28.723" fill-rule="evenodd"/>
    <polygon fill="#010101" points="37.083 27.99 36.577 28.013 36.448 28.742 37.2 28.742 37.083 27.99" fill-rule="evenodd"/>
    <polygon fill="#010101" points="37.403 28.711 36.482 28.748 36.562 29.306 37.671 29.306 37.403 28.711" fill-rule="evenodd"/>
    <polygon fill="#010101" points="36.177 27.978 35.672 28.002 35.543 28.73 36.295 28.73 36.177 27.978" fill-rule="evenodd"/>
    <polygon fill="#010101" points="36.498 28.699 35.576 28.737 35.656 29.295 36.765 29.295 36.498 28.699" fill-rule="evenodd"/>
    <polygon fill="#010101" points="35.237 27.943 34.731 27.966 34.602 28.695 35.354 28.695 35.237 27.943" fill-rule="evenodd"/>
    <polygon fill="#010101" points="35.557 28.664 34.636 28.701 34.716 29.259 35.825 29.259 35.557 28.664" fill-rule="evenodd"/>
    <polygon fill="#010101" points="34.272 27.931 33.767 27.954 33.638 28.683 34.39 28.683 34.272 27.931" fill-rule="evenodd"/>
    <polygon fill="#010101" points="34.593 28.652 33.671 28.69 33.751 29.248 34.861 29.248 34.593 28.652" fill-rule="evenodd"/>
    <polygon fill="#010101" points="33.261 28.013 32.756 28.037 32.627 28.765 33.379 28.765 33.261 28.013" fill-rule="evenodd"/>
    <polygon fill="#010101" points="33.582 28.735 32.66 28.772 32.74 29.33 33.849 29.33 33.582 28.735" fill-rule="evenodd"/>
    <polygon fill="#010101" points="32.332 28.002 31.827 28.025 31.698 28.754 32.45 28.754 32.332 28.002" fill-rule="evenodd"/>
    <polygon fill="#010101" points="32.653 28.723 31.731 28.76 31.811 29.318 32.92 29.318 32.653 28.723" fill-rule="evenodd"/>
    <polygon fill="#010101" points="31.38 28.013 30.875 28.037 30.745 28.765 31.497 28.765 31.38 28.013" fill-rule="evenodd"/>
    <polygon fill="#010101" points="31.7 28.735 30.779 28.772 30.859 29.33 31.968 29.33 31.7 28.735" fill-rule="evenodd"/>
    <polygon fill="#010101" points="30.31 27.966 29.805 27.99 29.675 28.718 30.427 28.718 30.31 27.966" fill-rule="evenodd"/>
    <polygon fill="#010101" points="30.63 28.688 29.709 28.725 29.789 29.283 30.898 29.283 30.63 28.688" fill-rule="evenodd"/>
    <polygon fill="#010101" points="29.404 28.013 28.899 28.037 28.77 28.765 29.522 28.765 29.404 28.013" fill-rule="evenodd"/>
    <polygon fill="#010101" points="29.725 28.735 28.803 28.772 28.883 29.33 29.992 29.33 29.725 28.735" fill-rule="evenodd"/>
    <polygon fill="#010101" points="28.523 28.025 28.017 28.049 27.888 28.777 28.64 28.777 28.523 28.025" fill-rule="evenodd"/>
    <polygon fill="#010101" points="28.843 28.746 27.921 28.784 28.002 29.342 29.111 29.342 28.843 28.746" fill-rule="evenodd"/>
    <polygon fill="#010101" points="27.547 28.002 27.041 28.025 26.912 28.754 27.664 28.754 27.547 28.002" fill-rule="evenodd"/>
    <polygon fill="#010101" points="27.867 28.723 26.945 28.76 27.026 29.318 28.135 29.318 27.867 28.723" fill-rule="evenodd"/>
    <polygon fill="#010101" points="26.566 27.989 26.06 28.013 25.931 28.742 26.683 28.742 26.566 27.989" fill-rule="evenodd"/>
    <polygon fill="#010101" points="26.886 28.711 25.965 28.748 26.045 29.306 27.154 29.306 26.886 28.711" fill-rule="evenodd"/>
    <polygon fill="#010101" points="25.561 27.929 25.055 27.952 24.926 28.681 25.678 28.681 25.561 27.929" fill-rule="evenodd"/>
    <polygon fill="#010101" points="25.881 28.65 24.96 28.688 25.04 29.246 26.149 29.246 25.881 28.65" fill-rule="evenodd"/>
    <polygon fill="#010101" points="24.689 27.989 24.183 28.013 24.054 28.742 24.806 28.742 24.689 27.989" fill-rule="evenodd"/>
    <polygon fill="#010101" points="25.009 28.711 24.088 28.748 24.168 29.306 25.277 29.306 25.009 28.711" fill-rule="evenodd"/>
    <polygon fill="#010101" points="23.781 27.941 23.275 27.964 23.146 28.693 23.898 28.693 23.781 27.941" fill-rule="evenodd"/>
    <polygon fill="#010101" points="24.101 28.662 23.179 28.7 23.26 29.258 24.369 29.258 24.101 28.662" fill-rule="evenodd"/>
    <polygon fill="#010101" points="22.763 27.965 22.258 27.989 22.129 28.717 22.881 28.717 22.763 27.965" fill-rule="evenodd"/>
    <polygon fill="#010101" points="23.084 28.686 22.162 28.724 22.242 29.282 23.351 29.282 23.084 28.686" fill-rule="evenodd"/>
    <polygon fill="#010101" points="21.795 27.941 21.289 27.964 21.16 28.693 21.912 28.693 21.795 27.941" fill-rule="evenodd"/>
    <polygon fill="#010101" points="22.115 28.662 21.194 28.7 21.274 29.258 22.383 29.258 22.115 28.662" fill-rule="evenodd"/>
    <polygon fill="#010101" points="20.826 27.989 20.321 28.013 20.191 28.742 20.943 28.742 20.826 27.989" fill-rule="evenodd"/>
    <polygon fill="#010101" points="21.146 28.711 20.225 28.748 20.305 29.306 21.414 29.306 21.146 28.711" fill-rule="evenodd"/>
    <polygon fill="#010101" points="19.966 28.026 19.461 28.049 19.332 28.778 20.084 28.778 19.966 28.026" fill-rule="evenodd"/>
    <polygon fill="#010101" points="20.287 28.747 19.365 28.784 19.445 29.342 20.554 29.342 20.287 28.747" fill-rule="evenodd"/>
    <polygon fill="#010101" points="18.949 28.014 18.444 28.037 18.314 28.766 19.067 28.766 18.949 28.014" fill-rule="evenodd"/>
    <polygon fill="#010101" points="19.269 28.735 18.348 28.772 18.428 29.33 19.537 29.33 19.269 28.735" fill-rule="evenodd"/>
    <polygon fill="#010101" points="17.944 28.014 17.439 28.037 17.309 28.766 18.061 28.766 17.944 28.014" fill-rule="evenodd"/>
    <polygon fill="#010101" points="18.264 28.735 17.343 28.772 17.423 29.33 18.532 29.33 18.264 28.735" fill-rule="evenodd"/>
    <polygon fill="#010101" points="17.601 27.919 17.143 27.704 16.688 28.288 17.353 28.639 17.601 27.919" fill-rule="evenodd"/>
    <polygon fill="#010101" points="17.547 28.707 16.715 28.309 16.525 28.84 17.506 29.358 17.547 28.707" fill-rule="evenodd"/>
    <polygon fill="#010101" points="16.748 27.473 16.289 27.261 15.839 27.849 16.507 28.195 16.748 27.473" fill-rule="evenodd"/>
    <polygon fill="#010101" points="16.701 28.261 15.866 27.87 15.68 28.402 16.664 28.913 16.701 28.261" fill-rule="evenodd"/>
    <polygon fill="#010101" points="15.8 27.237 15.334 27.041 14.904 27.644 15.584 27.967 15.8 27.237" fill-rule="evenodd"/>
    <polygon fill="#010101" points="15.78 28.026 14.932 27.664 14.765 28.203 15.767 28.678 15.78 28.026" fill-rule="evenodd"/>
    <polygon fill="#010101" points="14.813 26.9 14.343 26.713 13.925 27.324 14.611 27.634 14.813 26.9" fill-rule="evenodd"/>
    <polygon fill="#010101" points="14.809 27.689 13.953 27.344 13.797 27.886 14.808 28.342 14.809 27.689" fill-rule="evenodd"/>
    <polygon fill="#010101" points="13.769 26.494 13.288 26.337 12.909 26.973 13.612 27.239 13.769 26.494" fill-rule="evenodd"/>
    <polygon fill="#010101" points="13.813 27.282 12.938 26.991 12.815 27.541 13.852 27.934 13.813 27.282" fill-rule="evenodd"/>
    <polygon fill="#010101" points="12.7 26.102 12.207 25.987 11.885 26.653 12.609 26.857 12.7 26.102" fill-rule="evenodd"/>
    <polygon fill="#010101" points="12.812 26.883 11.915 26.668 11.841 27.227 12.908 27.528 12.812 26.883" fill-rule="evenodd"/>
    <rect fill="#010101" x="16.314" width="0.515" height="0.515" y="28.441" transform="matrix(0.344, -0.939, 0.939, 0.344, -16.076, 34.389)"/>
    <rect fill="#010101" x="15.374" width="0.482" height="0.482" y="28.204" transform="translate(-16.641 31.983) rotate(-67.494)"/>
    <rect fill="#010101" x="14.433" width="0.467" height="0.467" y="27.878" transform="translate(-16.823 31.826) rotate(-69.176)"/>
    <rect fill="#010101" x="13.501" width="0.46" height="0.46" y="27.534" transform="translate(-17.127 30.443) rotate(-68.645)"/>
    <rect fill="#010101" x="12.652" width="0.464" height="0.464" y="27.257" transform="translate(-17.447 28.788) rotate(-67.341)"/>
    <rect fill="#010101" x="11.729" width="0.47" height="0.47" y="26.877" transform="translate(-17.654 28.089) rotate(-68.078)"/>
    <rect fill="#010101" x="10.845" width="0.485" height="0.485" y="26.479" transform="translate(-17.753 24.451) rotate(-62.964)"/>
    <rect fill="#010101" x="9.992" width="0.424" height="0.424" y="25.973" transform="translate(-15.206 14.18) rotate(-43.421)"/>
    <rect fill="#010101" x="9.41" width="0.4" height="0.4" y="25.246" transform="translate(-10.105 6.706) rotate(-25.763)"/>
    <rect fill="#010101" x="9.011" width="0.372" height="0.372" y="24.42" transform="translate(-3.372 1.539) rotate(-8.091)"/>
    <rect fill="#010101" x="8.928" width="0.335" height="0.335" y="23.388" transform="translate(-15.764 27.984) rotate(-78.987)"/>
    <rect fill="#010101" x="9.152" width="0.308" height="0.308" y="22.453" transform="translate(-15.131 21.888) rotate(-65.942)"/>
    <rect fill="#010101" x="9.486" width="0.306" height="0.306" y="21.679" transform="translate(-14.008 18.618) rotate(-58.439)"/>
    <polygon fill="#010101" points="40.594 27.732 40.09 27.827 40.064 28.577 40.819 28.47 40.594 27.732" fill-rule="evenodd"/>
    <polygon fill="#010101" points="41.018 28.41 40.098 28.578 40.258 29.127 41.371 28.97 41.018 28.41" fill-rule="evenodd"/>
    <rect fill="#010101" x="40.888" width="0.473" height="0.473" y="28.613" transform="translate(-4.931 8.79) rotate(-11.514)"/>
    <polygon fill="#010101" points="41.48 27.346 40.971 27.501 41.03 28.278 41.796 28.082 41.48 27.346" fill-rule="evenodd"/>
    <polygon fill="#010101" points="41.995 27.997 41.065 28.276 41.293 28.824 42.423 28.534 41.995 27.997" fill-rule="evenodd"/>
    <rect fill="#010101" x="41.91" width="0.491" height="0.491" y="28.193" transform="translate(-6.68 14.265) rotate(-17.82)"/>
    <polygon fill="#010101" points="42.222 27.192 41.723 27.38 41.83 28.152 42.584 27.908 42.222 27.192" fill-rule="evenodd"/>
    <polygon fill="#010101" points="42.777 27.811 41.866 28.148 42.127 28.681 43.238 28.321 42.777 27.811" fill-rule="evenodd"/>
    <rect fill="#010101" x="42.719" width="0.492" height="0.492" y="27.996" transform="translate(-7.343 17.625) rotate(-21.401)"/>
    <polygon fill="#010101" points="43.073 26.67 42.564 26.89 42.714 27.689 43.486 27.397 43.073 26.67" fill-rule="evenodd"/>
    <polygon fill="#010101" points="43.682 27.286 42.751 27.682 43.049 28.224 44.188 27.793 43.682 27.286" fill-rule="evenodd"/>
    <rect fill="#010101" x="43.643" width="0.512" height="0.512" y="27.469" transform="translate(-7.504 20.409) rotate(-24.175)"/>
    <polygon fill="#010101" points="44.067 26.291 43.539 26.487 43.648 27.303 44.446 27.049 44.067 26.291" fill-rule="evenodd"/>
    <polygon fill="#010101" points="44.651 26.948 43.686 27.299 43.959 27.863 45.135 27.488 44.651 26.948" fill-rule="evenodd"/>
    <rect fill="#010101" x="44.587" width="0.52" height="0.52" y="27.144" transform="translate(-6.864 18.013) rotate(-21.134)"/>
    <polygon fill="#010101" points="45.026 25.928 44.5 26.093 44.567 26.898 45.36 26.688 45.026 25.928" fill-rule="evenodd"/>
    <polygon fill="#010101" points="45.565 26.599 44.604 26.895 44.844 27.461 46.013 27.152 45.565 26.599" fill-rule="evenodd"/>
    <rect fill="#010101" x="45.48" width="0.509" height="0.509" y="26.8" transform="translate(-6.176 15.702) rotate(-18.271)"/>
    <polygon fill="#010101" points="45.875 25.568 45.353 25.749 45.443 26.553 46.232 26.32 45.875 25.568" fill-rule="evenodd"/>
    <polygon fill="#010101" points="46.435 26.225 45.48 26.55 45.737 27.11 46.9 26.766 46.435 26.225" fill-rule="evenodd"/>
    <rect fill="#010101" x="46.363" width="0.51" height="0.51" y="26.421" transform="translate(-6.302 17.494) rotate(-19.936)"/>
    <polygon fill="#010101" points="46.772 25.119 46.269 25.312 46.383 26.092 47.143 25.84 46.772 25.119" fill-rule="evenodd"/>
    <polygon fill="#010101" points="47.338 25.74 46.419 26.087 46.687 26.624 47.808 26.252 47.338 25.74" fill-rule="evenodd"/>
    <rect fill="#010101" x="47.282" width="0.497" height="0.497" y="25.926" transform="translate(-6.325 19.551) rotate(-21.83)"/>
    <polygon fill="#010101" points="47.624 24.981 47.151 25.179 47.281 25.916 47.996 25.656 47.624 24.981" fill-rule="evenodd"/>
    <polygon fill="#010101" points="48.178 25.557 47.315 25.911 47.584 26.414 48.639 26.03 48.178 25.557" fill-rule="evenodd"/>
    <rect fill="#010101" x="48.137" width="0.473" height="0.473" y="25.727" transform="translate(-6.337 21.393) rotate(-23.448)"/>
    <polygon fill="#010101" points="48.196 24.357 47.73 24.622 47.958 25.373 48.669 25.012 48.196 24.357" fill-rule="evenodd"/>
    <polygon fill="#010101" points="48.846 24.885 47.993 25.363 48.337 25.852 49.385 25.319 48.846 24.885" fill-rule="evenodd"/>
    <rect fill="#010101" x="48.853" width="0.495" height="0.495" y="25.036" transform="translate(-6.043 28.331) rotate(-30.409)"/>
    <polygon fill="#010101" points="48.333 23.743 47.938 24.151 48.393 24.847 49.008 24.268 48.333 23.743" fill-rule="evenodd"/>
    <polygon fill="#010101" points="49.15 24.086 48.426 24.826 48.921 25.221 49.828 24.367 49.15 24.086" fill-rule="evenodd"/>
    <rect fill="#010101" x="49.266" width="0.524" height="0.524" y="24.153" transform="translate(-2.196 43.749) rotate(-46.736)"/>
    <polygon fill="#010101" points="39.753 27.885 39.25 27.979 39.223 28.727 39.976 28.621 39.753 27.885" fill-rule="evenodd"/>
    <polygon fill="#010101" points="40.175 28.562 39.257 28.728 39.416 29.276 40.526 29.121 40.175 28.562" fill-rule="evenodd"/>
    <rect fill="#010101" x="17.472" width="22.009" height="0.465" y="28.933"/>
  </g>
</svg>