<svg width="60" height="60" xmlns="http://www.w3.org/2000/svg" viewBox="0 0 60 60">
  <rect fill="#fff" height="60" width="60"/>
  <g>
    <path fill="#cb2026" d="M6.853,7.033a14.359,14.359,0,0,1,2.517-.2,4.582,4.582,0,0,1,2.7.6,2.015,2.015,0,0,1,.974,1.777,2.174,2.174,0,0,1-1.571,2.034v.037a2.384,2.384,0,0,1,1.911,2.338,2.483,2.483,0,0,1-.9,1.949,5.3,5.3,0,0,1-3.508.872,16.239,16.239,0,0,1-2.121-.124Zm1.711,3.728h.884c1.2,0,1.861-.563,1.861-1.361,0-.887-.672-1.295-1.758-1.295a4.683,4.683,0,0,0-.987.076Zm0,4.33a5.472,5.472,0,0,0,.913.049c1.1,0,2.1-.415,2.1-1.58,0-1.1-.966-1.547-2.151-1.549H8.564Z"/>
    <path fill="#cb2026" d="M14.917,7.033a14.359,14.359,0,0,1,2.517-.2,4.582,4.582,0,0,1,2.7.6,2.015,2.015,0,0,1,.974,1.777,2.174,2.174,0,0,1-1.571,2.034v.037a2.384,2.384,0,0,1,1.911,2.338,2.483,2.483,0,0,1-.9,1.949,5.3,5.3,0,0,1-3.508.872,16.239,16.239,0,0,1-2.121-.124Zm1.711,3.728h.884c1.2,0,1.861-.563,1.861-1.361,0-.887-.672-1.295-1.758-1.295a4.683,4.683,0,0,0-.987.076Zm0,4.33a5.472,5.472,0,0,0,.913.049c1.1,0,2.1-.415,2.1-1.58,0-1.1-.966-1.547-2.151-1.549h-.858Z"/>
    <path fill="#cb2026" d="M33.617,8.1a5.191,5.191,0,0,0-.932.066,3.659,3.659,0,0,0-3.155,3.236h.033a2.774,2.774,0,0,1,4.952,1.882A3.052,3.052,0,0,1,31.479,16.5c-1.939,0-3.213-1.516-3.213-3.876a5.709,5.709,0,0,1,1.541-4.107,4.943,4.943,0,0,1,2.912-1.349,5.142,5.142,0,0,1,.89-.069Zm-.353,5.261a1.85,1.85,0,0,0-1.871-2.087,2.03,2.03,0,0,0-1.776,1.117,1.165,1.165,0,0,0-.131.54c.018,1.5.708,2.618,2,2.618C32.549,15.552,33.264,14.666,33.264,13.364Z"/>
    <path fill="#cb2026" d="M34.957,16.905,38.86,6.75h.959L35.9,16.905Z"/>
    <path fill="#cb2026" d="M43.077,8.383h-.028l-1.581.853L41.232,8.3,43.221,7.24h1.045v9.1H43.077Z"/>
    <path fill="#cb2026" d="M47.578,16.344v-.75l.967-.938c2.324-2.216,3.383-3.4,3.39-4.772A1.619,1.619,0,0,0,50.14,8.1a3.147,3.147,0,0,0-1.937.771l-.392-.862a4,4,0,0,1,2.575-.926,2.557,2.557,0,0,1,2.781,2.642c0,1.691-1.219,3.05-3.135,4.889l-.72.68v.028h4.08v1.02Z"/>
  </g>
  <g>
    <path fill="#cb2026" stroke-width="0.173" d="M3.5,33.969l54.915.047.457,1.329H2.174Z" stroke-linejoin="round" stroke-linecap="round" stroke="#cb2026"/>
    <path fill="#cb2026" stroke-width="0.173" d="M11.613,33.276h3.269v.809H11.613Z" stroke-linejoin="round" stroke-linecap="round" stroke="#cb2026"/>
    <path fill="#cb2026" stroke-width="0.173" d="M11.925,33.151h3.266v.529H11.925Z" stroke-linejoin="round" stroke-linecap="round" stroke="#cb2026"/>
    <path fill="#cb2026" stroke-width="0.173" d="M11.778,33.123l2.625-.349.129.8H11.778Z" stroke-linejoin="round" stroke-linecap="round" stroke="#cb2026"/>
    <path fill="#cb2026" stroke-width="0.173" d="M15.106,32.7l-.017,0-.015-.005-.006,0-.015-.008-.009,0h0l-.006,0-.012-.01-.007-.006h0l0,0,0-.005L15,32.633l0-.006-.007-.01-.006-.01H14.4v.683h.735V32.7h-.02" stroke-linejoin="round" stroke-linecap="round" stroke="#cb2026"/>
    <path fill="#cb2026" stroke-width="0.173" d="M12.911,32.333h.341v.622l-.536-.184Z" stroke-linejoin="round" stroke-linecap="round" stroke="#cb2026"/>
    <path fill="#cb2026" stroke-width="0.173" d="M12.6,32.694h1.933v.4H12.6Z" stroke-linejoin="round" stroke-linecap="round" stroke="#cb2026"/>
    <path fill="#cb2026" stroke-width="0.173" d="M9.158,33.305l2.965-.087v.311l-2.965-.094Z" stroke-linejoin="round" stroke-linecap="round" stroke="#cb2026"/>
    <path fill="#cb2026" stroke-width="0.173" d="M10.21,33.753h.468v.467H10.21Z" stroke-linejoin="round" stroke-linecap="round" stroke="#cb2026"/>
    <path fill="#cb2026" stroke-width="0.173" d="M8.132,33.68h.331v.331H8.132Z" stroke-linejoin="round" stroke-linecap="round" stroke="#cb2026"/>
    <path fill="#cb2026" stroke-width="0.173" d="M2.363,34l1.5-.028-.039,1.382H2.149Z" stroke-linejoin="round" stroke-linecap="round" stroke="#cb2026"/>
    <path fill="#cb2026" stroke-width="0.173" d="M2.4,33.826h.9v.167H2.4Z" stroke-linejoin="round" stroke-linecap="round" stroke="#cb2026"/>
    <path fill="#cb2026" stroke-width="0.173" d="M2.17,31.359l.08,0L2.8,34.168l-.248-.19Z" stroke-linejoin="round" stroke-linecap="round" stroke="#cb2026"/>
    <path fill="#cb2026" stroke-width="0.173" d="M2.452,33.022l.108,0,.86,1-.235-.072Z" stroke-linejoin="round" stroke-linecap="round" stroke="#cb2026"/>
    <path fill="#cb2026" stroke-width="0.173" d="M6.665,33.776h.479v.243H6.665Z" stroke-linejoin="round" stroke-linecap="round" stroke="#cb2026"/>
    <path fill="#cb2026" stroke-width="0.173" d="M3.734,33.758l.1.022.126.208H3.734Z" stroke-linejoin="round" stroke-linecap="round" stroke="#cb2026"/>
    <path fill="#cb2026" stroke-width="0.173" d="M3.592,33.765l-.1.023L3.368,34h.223Z" stroke-linejoin="round" stroke-linecap="round" stroke="#cb2026"/>
    <path fill="#cb2026" stroke-width="0.173" d="M15.783,32.258h3.269v.809H15.783Z" stroke-linejoin="round" stroke-linecap="round" stroke="#cb2026"/>
    <path fill="#cb2026" stroke-width="0.173" d="M16.1,32.133h3.265v.529H16.1Z" stroke-linejoin="round" stroke-linecap="round" stroke="#cb2026"/>
    <path fill="#cb2026" stroke-width="0.173" d="M15.948,32.1l2.626-.349.128.8H15.948Z" stroke-linejoin="round" stroke-linecap="round" stroke="#cb2026"/>
    <path fill="#cb2026" stroke-width="0.173" d="M19.276,31.677l-.016,0-.016,0-.006,0-.015-.008-.009,0h0l-.006,0-.012-.01-.006-.006h0l0,0,0,0-.007-.008-.006-.007-.007-.009-.006-.01h-.583v.683h.734v-.593h-.02" stroke-linejoin="round" stroke-linecap="round" stroke="#cb2026"/>
    <path fill="#cb2026" stroke-width="0.173" d="M17.855,31.3l.4.007v.622l-.435-.094Z" stroke-linejoin="round" stroke-linecap="round" stroke="#cb2026"/>
    <path fill="#cb2026" stroke-width="0.173" d="M17.174,31.715h1.934v.4H17.174Z" stroke-linejoin="round" stroke-linecap="round" stroke="#cb2026"/>
    <path fill="#cb2026" stroke-width="0.173" d="M13.328,32.287l2.964-.087v.31l-2.964-.093Z" stroke-linejoin="round" stroke-linecap="round" stroke="#cb2026"/>
    <path fill="#cb2026" stroke-width="0.173" d="M15.724,32.471H19.06V34.3H15.724Z" stroke-linejoin="round" stroke-linecap="round" stroke="#cb2026"/>
    <path fill="#cb2026" stroke-width="0.173" d="M18.784,33.1H58.329v1.092H18.784Z" stroke-linejoin="round" stroke-linecap="round" stroke="#cb2026"/>
    <path fill="#cb2026" stroke-width="0.173" d="M42.618,31.445H39.35v.81h3.268Z" stroke-linejoin="round" stroke-linecap="round" stroke="#cb2026"/>
    <path fill="#cb2026" stroke-width="0.173" d="M42.306,31.32H39.04v.53h3.266Z" stroke-linejoin="round" stroke-linecap="round" stroke="#cb2026"/>
    <path fill="#cb2026" stroke-width="0.173" d="M42.453,31.292l-2.625-.349-.129.8h2.754Z" stroke-linejoin="round" stroke-linecap="round" stroke="#cb2026"/>
    <path fill="#cb2026" stroke-width="0.173" d="M39.125,30.864l.016,0,.016,0,.006,0,.015-.007.009-.006h0l.006,0,.012-.01.007-.006h0l0,0,0-.005.008-.007.005-.008.007-.009.006-.01h.584v.683h-.735v-.593h.02" stroke-linejoin="round" stroke-linecap="round" stroke="#cb2026"/>
    <path fill="#cb2026" stroke-width="0.173" d="M41.321,30.5h-.343v.622l.536-.184Z" stroke-linejoin="round" stroke-linecap="round" stroke="#cb2026"/>
    <path fill="#cb2026" stroke-width="0.173" d="M41.63,30.863H39.7v.4H41.63Z" stroke-linejoin="round" stroke-linecap="round" stroke="#cb2026"/>
    <path fill="#cb2026" stroke-width="0.173" d="M45.073,31.475l-2.965-.088V31.7l2.965-.094Z" stroke-linejoin="round" stroke-linecap="round" stroke="#cb2026"/>
    <path fill="#cb2026" stroke-width="0.173" d="M46.715,32.492H43.446V33.3h3.269Z" stroke-linejoin="round" stroke-linecap="round" stroke="#cb2026"/>
    <path fill="#cb2026" stroke-width="0.173" d="M46.4,32.367H43.137V32.9H46.4Z" stroke-linejoin="round" stroke-linecap="round" stroke="#cb2026"/>
    <path fill="#cb2026" stroke-width="0.173" d="M46.549,32.339l-2.625-.35-.129.8h2.754Z" stroke-linejoin="round" stroke-linecap="round" stroke="#cb2026"/>
    <path fill="#cb2026" stroke-width="0.173" d="M43.222,31.911l.016,0,.016-.006.005,0,.015-.008.009-.006h0l.006,0,.012-.01.006-.006h0l0,0,.005,0,.007-.008.006-.006.007-.01.005-.01h.584v.683h-.734v-.593h.02" stroke-linejoin="round" stroke-linecap="round" stroke="#cb2026"/>
    <path fill="#cb2026" stroke-width="0.173" d="M45.417,31.549h-.342v.622l.535-.184Z" stroke-linejoin="round" stroke-linecap="round" stroke="#cb2026"/>
    <path fill="#cb2026" stroke-width="0.173" d="M45.727,31.909H43.793v.4h1.934Z" stroke-linejoin="round" stroke-linecap="round" stroke="#cb2026"/>
    <path fill="#cb2026" stroke-width="0.173" d="M49.17,32.521l-2.965-.087v.31l2.965-.094Z" stroke-linejoin="round" stroke-linecap="round" stroke="#cb2026"/>
    <path fill="#cb2026" stroke-width="0.173" d="M19.949,31.231H23.52V33.38H19.949Z" stroke-linejoin="round" stroke-linecap="round" stroke="#cb2026"/>
    <path fill="#cb2026" stroke-width="0.173" d="M22.773,30.6h1.09v.656h-1.09Z" stroke-linejoin="round" stroke-linecap="round" stroke="#cb2026"/>
    <path fill="#cb2026" stroke-width="0.173" d="M20.079,30.807H21.13v.633H20.079Z" stroke-linejoin="round" stroke-linecap="round" stroke="#cb2026"/>
    <path fill="#cb2026" stroke-width="0.173" d="M21.236,29.307H22.2V30.1h-.959Z" stroke-linejoin="round" stroke-linecap="round" stroke="#cb2026"/>
    <path fill="#cb2026" stroke-width="0.173" d="M21.51,29.992h.548v1.323H21.51Z" stroke-linejoin="round" stroke-linecap="round" stroke="#cb2026"/>
    <path fill="#cb2026" stroke-width="0.173" d="M20.5,30.3h.632v.667H20.5Z" stroke-linejoin="round" stroke-linecap="round" stroke="#cb2026"/>
    <path fill="#cb2026" stroke-width="0.173" d="M22.4,25.629h.108v5.812H22.4Z" stroke-linejoin="round" stroke-linecap="round" stroke="#cb2026"/>
    <path fill="#cb2026" stroke-width="0.173" d="M28.458,31.13h10.4v2.245h-10.4Z" stroke-linejoin="round" stroke-linecap="round" stroke="#cb2026"/>
    <path fill="#cb2026" stroke-width="0.173" d="M30.231,27.967h1.928v3.321l-2.307-.008Z" stroke-linejoin="round" stroke-linecap="round" stroke="#cb2026"/>
    <path fill="#cb2026" stroke-width="0.173" d="M28.718,30.722h1.5v.59h-1.5Z" stroke-linejoin="round" stroke-linecap="round" stroke="#cb2026"/>
    <path fill="#cb2026" stroke-width="0.173" d="M32.766,30.946h1.4v.285h-1.4Z" stroke-linejoin="round" stroke-linecap="round" stroke="#cb2026"/>
    <path fill="#cb2026" stroke-width="0.173" d="M33.976,29.01l5.093.049-.28,1.126H33.976Z" stroke-linejoin="round" stroke-linecap="round" stroke="#cb2026"/>
    <path fill="#cb2026" stroke-width="0.173" d="M34.312,30.049h4.532v1.228H34.312Z" stroke-linejoin="round" stroke-linecap="round" stroke="#cb2026"/>
    <path fill="#cb2026" stroke-width="0.173" d="M33.573,30.007h1.8v.414h-1.8Z" stroke-linejoin="round" stroke-linecap="round" stroke="#cb2026"/>
    <path fill="#cb2026" stroke-width="0.173" d="M38.764,30.246h.69v.522h-.69Z" stroke-linejoin="round" stroke-linecap="round" stroke="#cb2026"/>
    <path fill="#cb2026" stroke-width="0.173" d="M34.99,28.3h4.093v.835H34.99Z" stroke-linejoin="round" stroke-linecap="round" stroke="#cb2026"/>
    <path fill="#cb2026" stroke-width="0.173" d="M35.451,26.579h.716v1.9h-.716Z" stroke-linejoin="round" stroke-linecap="round" stroke="#cb2026"/>
    <path fill="#cb2026" stroke-width="0.173" d="M36.819,27.172l.806.4.066.777h-.872Z" stroke-linejoin="round" stroke-linecap="round" stroke="#cb2026"/>
    <path fill="#cb2026" stroke-width="0.173" d="M38.425,28.126H39.2V28.9h-.772Z" stroke-linejoin="round" stroke-linecap="round" stroke="#cb2026"/>
    <path fill="#cb2026" stroke-width="0.173" d="M34.254,26.213l.781-.006.081.853-.267.061Z" stroke-linejoin="round" stroke-linecap="round" stroke="#cb2026"/>
    <path fill="#cb2026" stroke-width="0.173" d="M35.775,26.2l-.73,0-.076.45.25.032Z" stroke-linejoin="round" stroke-linecap="round" stroke="#cb2026"/>
    <path fill="#cb2026" stroke-width="0.173" d="M34.63,26.693h.343v2.358H34.63Z" stroke-linejoin="round" stroke-linecap="round" stroke="#cb2026"/>
    <path fill="#cb2026" stroke-width="0.173" d="M34.544,26.671h.309l-.57,2.361h-.308Z" stroke-linejoin="round" stroke-linecap="round" stroke="#cb2026"/>
    <path fill="#cb2026" stroke-width="0.173" d="M35.083,23.018h.174v3.353h-.174Z" stroke-linejoin="round" stroke-linecap="round" stroke="#cb2026"/>
    <path fill="#cb2026" stroke-width="0.173" d="M38.633,31.942h3.956v1.449H38.633Z" stroke-linejoin="round" stroke-linecap="round" stroke="#cb2026"/>
    <path fill="#cb2026" stroke-width="0.173" d="M49.059,32.973H50.1v.26H49.059Z" stroke-linejoin="round" stroke-linecap="round" stroke="#cb2026"/>
    <path fill="#cb2026" stroke-width="0.173" d="M50.382,32.808h.3v.418h-.3Z" stroke-linejoin="round" stroke-linecap="round" stroke="#cb2026"/>
    <path fill="#cb2026" stroke-width="0.173" d="M51.221,32.94h.28v.235h-.28Z" stroke-linejoin="round" stroke-linecap="round" stroke="#cb2026"/>
    <path fill="#cb2026" stroke-width="0.173" d="M52.093,33.015h.28v.235h-.28Z" stroke-linejoin="round" stroke-linecap="round" stroke="#cb2026"/>
    <path fill="#cb2026" stroke-width="0.173" d="M58.072,31.324h.116v2.025h-.116Z" stroke-linejoin="round" stroke-linecap="round" stroke="#cb2026"/>
    <path fill="#cb2026" stroke-width="0.173" d="M24.05,30.8l2.959-.419-.146.606-2.852-.1Z" stroke-linejoin="round" stroke-linecap="round" stroke="#cb2026"/>
    <path fill="#cb2026" stroke-width="0.173" d="M26.875,30.417l1.865,1.05-.193.415-1.672-.894Z" stroke-linejoin="round" stroke-linecap="round" stroke="#cb2026"/>
    <path fill="#cb2026" stroke-width="0.173" d="M26.284,32.656v.055l0,.008v.016l0,.007,0,.008,0,.008,0,.007,0,.008,0,.007,0,.008,0,.007,0,.007,0,.008,0,.007,0,.007,0,.007,0,.007,0,.007,0,.007,0,.006,0,.007,0,.006-.005.006,0,.007,0,.006,0,.006-.006.005-.005.006-.006.006-.006.005-.006.005-.006.006-.006,0-.006.005-.006,0-.007.005-.006.005-.007,0-.007,0-.007,0-.007,0-.007,0-.007,0-.007,0-.007,0-.008,0-.007,0-.007,0-.008,0-.008,0-.007,0-.008,0-.008,0-.007,0h-.024l-.008,0h-.079l-.008,0H25.86l-.007,0-.008,0-.008,0-.008,0-.007,0-.008,0-.007,0-.008,0-.007,0-.007,0-.007,0-.008,0-.007,0-.007,0-.006,0-.007,0-.007,0-.007-.005-.006-.005-.006,0-.007-.005-.006,0-.006-.006-.006-.005,0-.005-.006-.006-.006-.006,0-.005-.005-.006,0-.006-.006-.007,0-.006,0-.006,0-.007,0-.006,0-.007-.005-.007,0-.007,0-.007,0-.007,0-.007,0-.008,0-.007,0-.007,0-.008,0-.007,0-.008,0-.007,0-.008,0-.008,0-.007v-.008l0-.008V32.6l0-.008v-.008l0-.007,0-.008,0-.007,0-.008,0-.008,0-.007,0-.008,0-.007,0-.007,0-.008,0-.007,0-.007,0-.007,0-.007.005-.007,0-.007,0-.006,0-.007,0-.006,0-.006.006-.007,0-.006.005-.005,0-.006.006-.006.006-.006,0,0L25.7,32.4l.006-.006.006-.005.007,0,.006,0,.006,0,.007-.005.007,0,.007,0,.006,0,.007,0,.007,0,.008,0,.007,0,.007,0,.007,0,.008,0,.007,0,.008,0,.007,0,.008,0,.008,0,.008,0h.007l.008,0H26l.008,0h.007l.008,0,.008,0,.007,0,.008,0,.008,0,.007,0,.007,0,.008,0,.007,0,.007,0,.007,0,.007,0,.007,0,.007,0,.007,0,.007,0,.006,0,.007,0,.006,0,.006,0,.006.005.006.006.006.005.006,0,.006.006.005.006.006.006,0,.005,0,.007,0,.006.005.006,0,.006,0,.007,0,.006,0,.007,0,.007,0,.007,0,.007,0,.007,0,.007,0,.008,0,.007,0,.007,0,.008,0,.007,0,.008,0,.008,0,.007,0,.008,0,.007V32.6l0,.008v.048Z" stroke-linejoin="round" stroke-linecap="round" stroke="#cb2026"/>
    <path fill="#cb2026" stroke-width="0.173" d="M24.837,32.549V32.6l0,0v.013l0,0,0,0v0l0,0,0,0,0,0,0,0,0,0,0,0,0,0,0,0,0,0,0,0,0,0,0,0,0,0,0,0,0,0,0,0,0,0,0,0,0,0,0,0,0,0,0,0,0,0,0,0,0,0,0,0,0,0,0,0,0,0,0,0,0,0,0,0,0,0,0,0,0,0h0l0,0h0l0,0h-.114l0,0h0l0,0h0l0,0,0,0,0,0,0,0,0,0,0,0,0,0,0,0,0,0,0,0,0,0,0,0,0,0,0,0,0,0,0,0,0,0,0,0,0,0,0,0,0,0,0,0,0,0,0,0,0,0,0,0,0,0,0,0,0,0,0,0,0,0,0,0,0,0,0,0,0,0,0,0v0l0,0v0l0,0V32.5l0-.005v0l0,0v0l0,0,0,0,0-.005,0,0,0,0,0,0,0,0,0,0,0,0,0,0,0,0,0,0,0,0,0,0,0,0,0,0,0,0,0,0,0,0,0,0,0,0,0,0,0,0,0,0,0,0,0,0,0,0,0,0,0,0,0,0,0,0,0,0h0l0,0h0l0,0,0,0h0l0,0H24.7l0,0h0l0,0,0,0h0l0,0h0l0,0,0,0,0,0,0,0,0,0,0,0,0,0,0,0,0,0,0,0,0,0,0,0,0,0,0,0,0,0,0,0,0,0,0,0,0,0,0,0,0,0,0,0,0,0,0,0,0,0,0,0,0,0,0,0,0,0,0,.005,0,0v0l0,0,0,0V32.5l0,.005v.043Z" stroke-linejoin="round" stroke-linecap="round" stroke="#cb2026"/>
    <path fill="#cb2026" stroke-width="0.173" d="M27.292,32.541V32.6l0,0v0l0,0v0l0,0,0,0v.005l0,0,0,0,0,.005,0,0,0,0,0,0,0,0,0,0,0,0,0,0,0,0,0,0,0,0,0,0,0,0,0,0,0,0,0,0,0,0,0,0,0,0,0,0,0,0,0,0,0,0,0,0,0,0,0,0,0,0,0,0,0,0,0,0h0l0,0,0,0h-.013l0,0h-.1l0,0h-.012l0,0,0,0h0l0,0,0,0,0,0,0,0,0,0,0,0,0,0,0,0,0,0,0,0,0,0,0,0,0,0,0,0,0,0,0,0,0,0,0,0,0,0,0,0,0,0,0,0,0,0,0,0,0,0,0,0,0,0,0,0,0,0,0-.005,0,0,0,0,0-.005,0,0v0l0,0v0l0,0v-.119l0,0v0l0,0v-.005l0,0,0,0,0,0,0,0,0,0,0,0,0,0,0,0,0,0,0,0,0,0,0,0,0,0,0,0,0,0,0,0,0,0,0,0,0,0,0,0,0,0,0,0,0,0,0,0,0,0,0,0,0,0,0,0,0,0,0,0,0,0,0,0,0,0,0,0h0l0,0h0l0,0h0l0,0h.106l0,0h0l0,0h0l0,0h0l0,0,0,0,0,0,0,0,0,0,0,0,0,0,0,0,0,0,0,0,0,0,0,0,0,0,0,0,0,0,0,0,0,0,0,0,0,0,0,0,0,0,0,0,0,0,0,0,0,0,0,0,0,0,0,0,0,0,0,0,0,0,0,0v0l0,0,0,.005v0l0,0v0l0,0v.052Z" stroke-linejoin="round" stroke-linecap="round" stroke="#cb2026"/>
    <path fill="#cb2026" stroke-width="0.173" d="M24.18,31.632h3.48V31.8H24.179Z" stroke-linejoin="round" stroke-linecap="round" stroke="#cb2026"/>
    <path fill="#cb2026" stroke-width="0.173" d="M24.155,32.241h3.48v.168h-3.48Z" stroke-linejoin="round" stroke-linecap="round" stroke="#cb2026"/>
    <path fill="#cb2026" stroke-width="0.173" d="M25.032,32.005h1.751v.085H25.032Z" stroke-linejoin="round" stroke-linecap="round" stroke="#cb2026"/>
    <path fill="#cb2026" stroke-width="0.173" d="M25.726,31.742h.4v.652h-.4Z" stroke-linejoin="round" stroke-linecap="round" stroke="#cb2026"/>
    <path fill="#cb2026" stroke-width="0.173" d="M25.72,32.926h.411l.39.349-1.2-.012Z" stroke-linejoin="round" stroke-linecap="round" stroke="#cb2026"/>
  </g>
  <g>
    <path fill="#cb2026" d="M9.065,53.9a19.254,19.254,0,0,1-1.98-.967,1.1,1.1,0,0,0-.34-.151c-1.467,0-2.418-1.436-2.418-4.151,0-2.408.917-4.124,2.548-4.124,1.7,0,2.356,1.859,2.356,4.035,0,2.095-.481,3.321-1.284,3.731v.049c.525.234,1.083.413,1.574.592ZM7.9,48.6c0-1.525-.251-2.974-1.1-2.974-.826,0-1.152,1.463-1.145,2.994-.013,1.621.285,3.049,1.145,3.049C7.625,51.67,7.9,50.242,7.9,48.6Z"/>
    <path fill="#cb2026" d="M10.247,48.5c0-.66-.03-1.128-.049-1.645h1.11l.065.687H11.4a1.576,1.576,0,0,1,1.381-.783c.973,0,1.492.756,1.492,2.109V52.69h-1.28v-3.7c0-.583-.124-1.153-.682-1.153-.317,0-.6.244-.716.715a2.011,2.011,0,0,0-.065.531v3.61H10.247Z"/>
    <path fill="#cb2026" d="M15.449,51.9a.833.833,0,0,1,.781-.894.8.8,0,0,1,.775.894.785.785,0,0,1-.781.882A.8.8,0,0,1,15.449,51.9Z"/>
    <path fill="#cb2026" d="M23.264,49.007H21.34v2.572h2.181V52.69H20.06V44.606h3.318v1.112H21.34v2.22h1.924Z"/>
    <path fill="#cb2026" d="M24.394,44.391h1.28v8.3h-1.28Z"/>
    <path fill="#cb2026" d="M28.23,45.322a.684.684,0,0,1-.708.738.677.677,0,0,1-.665-.738.689.689,0,1,1,1.373,0ZM26.914,52.69V46.852h1.28V52.69Z"/>
    <path fill="#cb2026" d="M28.989,51.894l1.618-3.053c.173-.312.392-.664.51-.907V47.9h-1.93V46.852h3.334v.863L30.93,50.688c-.18.326-.385.672-.517.92v.032h2.135v1.05H28.989Z"/>
    <path fill="#cb2026" d="M35.865,52.69,35.79,52.1h-.029a1.428,1.428,0,0,1-1.237.69,1.554,1.554,0,0,1-1.468-1.726c0-1.5,1.268-2.134,2.589-2.147v-.154c0-.608-.238-1.035-.873-1.035a1.969,1.969,0,0,0-1.088.323l-.246-.873a3.24,3.24,0,0,1,1.613-.418c1.5,0,1.887,1.029,1.887,2.271v2.334a8.988,8.988,0,0,0,.076,1.329Zm-.186-2.923c-.5.006-1.4.145-1.4,1.162,0,.658.352.9.633.9a.776.776,0,0,0,.738-.668,1.193,1.193,0,0,0,.031-.3Z"/>
    <path fill="#cb2026" d="M38.081,52.69c.02-.434.048-1.1.048-1.578V44.391H39.4v3.1h.025a1.337,1.337,0,0,1,1.223-.731c1.034,0,1.629,1.176,1.629,2.9,0,2.075-.838,3.131-1.844,3.131a1.218,1.218,0,0,1-1.152-.817h-.034l-.075.721ZM39.4,50.614a1.233,1.233,0,0,0,.052.368c.168.616.467.748.686.748.622,0,.862-.814.862-1.986,0-1.082-.252-1.9-.873-1.9-.328,0-.6.38-.68.763a1.81,1.81,0,0,0-.047.378Z"/>
    <path fill="#cb2026" d="M44.252,50.115c.014,1.3.619,1.659,1.3,1.659a2.66,2.66,0,0,0,1.048-.208l.181.922a3.719,3.719,0,0,1-1.462.275c-1.505,0-2.312-1.092-2.312-2.9,0-1.932.926-3.107,2.172-3.107,1.228,0,1.847,1.109,1.847,2.675a5.043,5.043,0,0,1-.034.684Zm1.589-.911c.01-.937-.3-1.494-.752-1.494-.555,0-.806.81-.832,1.494Z"/>
    <path fill="#cb2026" d="M49.491,45.287v1.565h1.133v.928H49.491v3.028c0,.714.279.9.6.9a2.005,2.005,0,0,0,.395-.036l.026,1a2.939,2.939,0,0,1-.836.1,1.4,1.4,0,0,1-1.034-.364,2.083,2.083,0,0,1-.429-1.579V47.78h-.7v-.928h.7V45.614Z"/>
    <path fill="#cb2026" d="M51.394,44.391h1.28v3.078H52.7a1.746,1.746,0,0,1,.5-.5,1.483,1.483,0,0,1,.783-.211c.924,0,1.436.767,1.436,2.246V52.69h-1.28V49.045c0-.633-.131-1.211-.673-1.211-.337,0-.609.224-.738.722a2.394,2.394,0,0,0-.051.438v3.7h-1.28Z"/>
  </g>
</svg>