<svg xmlns:sodipodi="http://sodipodi.sourceforge.net/DTD/sodipodi-0.dtd" width="60" xmlns:svg="http://www.w3.org/2000/svg" xmlns:inkscape="http://www.inkscape.org/namespaces/inkscape" sodipodi:docname="Railhead.svg" inkscape:version="1.1 (c68e22c387, 2021-05-23)" height="60" id="svg36" viewBox="0 0 60 60" xmlns="http://www.w3.org/2000/svg" version="1.1">
  <defs id="defs40"/>
  <sodipodi:namedview bordercolor="#666666" inkscape:window-height="1148" inkscape:pagecheckerboard="0" inkscape:zoom="14.55" id="namedview38" inkscape:current-layer="svg36" inkscape:window-y="195" inkscape:cy="30.034364" inkscape:window-x="230" inkscape:cx="19.931271" showgrid="false" inkscape:pageopacity="0.0" inkscape:pageshadow="2" inkscape:window-width="1751" inkscape:window-maximized="0" borderopacity="1.0" pagecolor="#ffffff"/>
  <rect fill="#ffcd34" width="60" id="rect2" height="60"/>
  <g id="g34" transform="rotate(90,30.15825,29.84175)">
    <g id="g8">
      <path fill="#010101" id="path4" d="m 30.044,22.055 -0.433,-0.04 -0.4,-0.065 -0.311,-0.068 -0.513,-0.15 -0.286,-0.106 -0.394,-0.169 -0.274,-0.137 -0.365,-0.211 -0.355,-0.236 -0.339,-0.262 -0.218,-0.188 -0.211,-0.2 -0.306,-0.325 -0.183,-0.217 -0.259,-0.348 -0.232,-0.358 -0.205,-0.367 -0.126,-0.262 -0.119,-0.273 -0.143,-0.4 -0.047,-0.146 -0.1,-0.379 -0.084,-0.414 -0.057,-0.455 -0.021,-0.293 -0.008,-0.3 0.015,-0.431 0.043,-0.426 0.074,-0.429 0.1,-0.419 0.125,-0.4 0.088,-0.234 0.2,-0.447 0.191,-0.365 0.224,-0.364 0.256,-0.356 0.16,-0.2 0.21,-0.24 0.212,-0.22 0.211,-0.2 0.323,-0.27 0.356,-0.263 0.354,-0.223 0.244,-0.136 0.277,-0.139 0.269,-0.119 0.389,-0.145 0.426,-0.129 0.281,-0.069 0.4,-0.072 0.29,-0.037 0.44,-0.03 h 0.294 l 0.426,0.019 0.4,0.046 0.318,0.054 0.291,0.064 0.39,0.111 0.151,0.048 0.377,0.144 0.265,0.118 0.286,0.141 0.37,0.214 0.351,0.234 0.212,0.159 0.255,0.21 0.213,0.194 0.2,0.2 0.271,0.3 0.182,0.225 0.252,0.353 0.209,0.337 0.154,0.28 0.18,0.382 0.067,0.157 0.087,0.229 0.1,0.3 c 0,0 0.065,0.233 0.066,0.238 l 0.077,0.329 0.072,0.422 0.033,0.28 0.022,0.316 v 0.551 l -0.019,0.29 -0.033,0.291 -0.072,0.411 -0.067,0.3 -0.074,0.265 -0.125,0.37 -0.108,0.275 -0.137,0.3 -0.2,0.386 -0.225,0.362 -0.162,0.232 -0.186,0.243 -0.278,0.318 -0.316,0.319 -0.308,0.27 -0.35,0.269 -0.353,0.233 -0.357,0.2 -0.3,0.149 -0.343,0.148 -0.292,0.107 -0.28,0.088 -0.423,0.109 -0.42,0.087 -0.3,0.038 -0.427,0.028 h -0.134 z"/>
      <path fill="#010101" id="path6" d="m 30.486,10 h 0.135 0.068 0.042 l 0.091,0.006 h 0.023 l 0.164,0.017 0.107,0.01 0.127,0.017 0.148,0.025 0.106,0.018 0.083,0.017 0.03,0.006 c 0.055,0.013 0.111,0.026 0.167,0.037 l 0.094,0.025 0.073,0.021 0.086,0.025 0.1,0.029 0.079,0.026 0.051,0.016 0.132,0.048 0.093,0.036 0.056,0.021 0.093,0.038 0.107,0.046 0.087,0.041 0.053,0.025 0.054,0.026 0.055,0.028 0.089,0.043 0.079,0.045 0.059,0.033 0.1,0.059 0.084,0.049 0.133,0.086 0.079,0.054 0.056,0.038 0.077,0.051 0.1,0.075 0.1,0.078 0.074,0.059 0.124,0.105 0.068,0.059 0.118,0.11 0.086,0.083 0.093,0.093 0.108,0.116 0.088,0.1 0.072,0.084 0.089,0.109 0.078,0.1 0.055,0.073 0.093,0.132 0.073,0.107 0.067,0.106 0.065,0.1 0.08,0.135 0.047,0.084 0.073,0.14 0.025,0.051 c 0.008,0.019 0.017,0.038 0.026,0.056 l 0.058,0.124 0.049,0.11 0.039,0.091 0.057,0.149 0.039,0.1 0.051,0.157 0.031,0.1 0.034,0.124 0.032,0.112 0.033,0.144 0.027,0.122 0.019,0.1 0.014,0.079 0.012,0.072 0.019,0.122 0.013,0.11 0.013,0.114 v 0.078 l 0.005,0.076 0.009,0.114 v 0.115 0.17 0.16 0.113 l -0.006,0.114 -0.013,0.156 -0.012,0.113 -0.014,0.112 -0.024,0.157 -0.02,0.112 -0.013,0.122 -0.026,0.124 -0.027,0.111 -0.047,0.169 -0.019,0.064 -0.025,0.078 -0.023,0.074 -0.038,0.11 -0.054,0.149 -0.035,0.092 -0.046,0.111 -0.065,0.143 -0.042,0.091 -0.072,0.14 -0.055,0.105 -0.068,0.122 -0.038,0.064 c -0.012,0.018 -0.023,0.036 -0.034,0.055 l -0.037,0.06 c -0.012,0.018 -0.024,0.036 -0.035,0.055 l -0.052,0.081 -0.068,0.1 -0.07,0.1 -0.1,0.129 -0.068,0.089 -0.072,0.085 -0.081,0.1 -0.107,0.117 -0.063,0.069 -0.09,0.09 -0.114,0.111 -0.095,0.087 -0.1,0.085 -0.1,0.081 -0.1,0.077 -0.1,0.079 -0.1,0.075 -0.1,0.07 -0.13,0.084 -0.083,0.054 -0.051,0.031 -0.081,0.048 -0.122,0.069 -0.1,0.055 -0.089,0.046 -0.128,0.063 -0.12,0.054 -0.1,0.046 H 32.623 L 32.55,20.981 32.5,21 l -0.126,0.045 -0.052,0.02 -0.055,0.02 -0.148,0.048 -0.1,0.029 -0.141,0.04 -0.125,0.031 -0.126,0.03 -0.146,0.028 -0.112,0.021 -0.146,0.022 -0.125,0.017 -0.111,0.014 -0.113,0.009 -0.105,0.007 h -0.055 l -0.112,0.006 h -0.11 -0.11 L 30.22,21.381 H 30.107 L 30,21.375 29.843,21.359 29.698,21.344 29.613,21.333 29.457,21.306 29.342,21.287 29.215,21.261 C 29.156,21.246 29.102,21.234 29.081,21.23 L 28.965,21.2 28.823,21.16 28.714,21.127 28.64,21.103 28.608,21.093 28.5,21.055 28.471,21.045 28.364,21 28.218,20.94 28.1,20.9 27.979,20.844 27.874,20.794 c -0.048,-0.025 -0.091,-0.048 -0.108,-0.055 l -0.121,-0.068 -0.1,-0.058 -0.057,-0.034 -0.048,-0.028 -0.064,-0.042 -0.068,-0.043 -0.114,-0.078 -0.1,-0.067 -0.078,-0.056 -0.059,-0.047 -0.063,-0.048 -0.1,-0.078 -0.1,-0.083 -0.1,-0.085 -0.116,-0.108 -0.07,-0.067 L 26.321,19.66 26.213,19.543 26.151,19.478 26.046,19.354 26,19.279 25.9,19.154 25.821,19.047 25.746,18.947 25.7,18.87 25.614,18.735 25.552,18.635 25.489,18.528 25.425,18.412 25.368,18.307 25.297,18.162 25.256,18.076 25.191,17.928 25.152,17.839 25.11,17.73 25.056,17.581 25.018,17.471 25,17.419 24.975,17.342 24.937,17.207 24.908,17.097 24.873,16.952 24.859,16.884 c 0,-0.019 -0.007,-0.037 -0.011,-0.055 l -0.022,-0.1 -0.02,-0.115 -0.011,-0.079 -0.01,-0.078 -0.019,-0.158 -0.011,-0.113 -0.009,-0.108 -0.006,-0.114 -0.006,-0.161 V 15.69 15.577 l 0.006,-0.16 0.006,-0.114 0.009,-0.11 0.016,-0.159 0.014,-0.111 0.017,-0.113 0.013,-0.078 0.014,-0.078 0.021,-0.113 0.023,-0.1 0.038,-0.153 0.029,-0.111 0.03,-0.11 0.049,-0.152 0.038,-0.11 0.039,-0.109 0.059,-0.147 0.056,-0.135 0.022,-0.047 0.027,-0.057 0.04,-0.089 0.037,-0.073 0.016,-0.034 0.036,-0.067 0.038,-0.071 0.039,-0.073 0.023,-0.042 0.024,-0.04 0.052,-0.086 0.051,-0.082 0.059,-0.092 0.012,-0.018 0.073,-0.1 c 0.012,-0.017 0.044,-0.062 0.055,-0.08 0.011,-0.018 0.025,-0.033 0.037,-0.05 l 0.073,-0.1 0.065,-0.082 0.078,-0.1 0.081,-0.091 0.044,-0.051 0.061,-0.068 0.092,-0.1 0.062,-0.064 0.107,-0.105 0.044,-0.04 0.032,-0.03 0.063,-0.054 0.085,-0.074 0.071,-0.059 0.1,-0.079 0.058,-0.045 0.042,-0.033 0.1,-0.075 0.064,-0.046 0.045,-0.032 0.1,-0.065 0.066,-0.043 0.036,-0.023 0.115,-0.069 0.109,-0.061 c 0.018,-0.01 0.035,-0.019 0.052,-0.03 l 0.086,-0.046 0.107,-0.054 0.1,-0.048 0.133,-0.061 0.092,-0.04 0.011,-0.006 0.112,-0.045 0.17,-0.062 0.088,-0.031 0.118,-0.039 0.125,-0.038 0.154,-0.043 0.056,-0.014 c 0.018,0 0.056,-0.012 0.074,-0.017 l 0.084,-0.021 0.153,-0.029 0.112,-0.022 0.112,-0.017 0.161,-0.022 0.109,-0.013 L 30,10.019 30.125,10.01 30.237,10 h 0.249 M 30.509,8.647 H 30.35 c -0.054,0 -0.107,0 -0.16,0 -0.053,0 -0.107,0 -0.159,0.008 l -0.16,0.011 c -0.052,0 -0.1,0.008 -0.157,0.013 L 29.555,8.698 29.398,8.72 c -0.052,0.007 -0.105,0.015 -0.157,0.024 -0.052,0.009 -0.105,0.019 -0.157,0.03 -0.052,0.011 -0.105,0.019 -0.157,0.03 l -0.154,0.038 c -0.052,0.01 -0.1,0.023 -0.154,0.037 l -0.154,0.044 c -0.051,0.014 -0.1,0.03 -0.155,0.046 l -0.148,0.048 c -0.051,0.017 -0.1,0.035 -0.152,0.055 -0.052,0.02 -0.1,0.035 -0.149,0.054 L 27.713,9.185 27.567,9.25 27.423,9.315 27.28,9.385 c -0.049,0.024 -0.1,0.048 -0.143,0.073 -0.043,0.025 -0.093,0.049 -0.138,0.076 l -0.141,0.078 -0.135,0.082 -0.135,0.086 -0.133,0.087 -0.13,0.092 c -0.043,0.03 -0.086,0.062 -0.13,0.094 l -0.124,0.1 c -0.042,0.032 -0.083,0.066 -0.124,0.1 -0.041,0.034 -0.083,0.067 -0.122,0.1 l -0.119,0.1 -0.119,0.109 -0.114,0.11 q -0.057,0.057 -0.111,0.114 c -0.038,0.038 -0.075,0.077 -0.111,0.116 -0.036,0.039 -0.071,0.078 -0.105,0.119 l -0.106,0.119 -0.1,0.122 c -0.034,0.042 -0.067,0.084 -0.1,0.127 -0.033,0.043 -0.064,0.084 -0.094,0.127 -0.03,0.043 -0.063,0.085 -0.092,0.13 l -0.092,0.13 -0.087,0.135 C 24.446,11.954 24.418,12 24.391,12.046 l -0.081,0.136 -0.076,0.14 -0.075,0.141 -0.071,0.141 c -0.023,0.048 -0.046,0.1 -0.067,0.146 -0.021,0.046 -0.045,0.094 -0.065,0.143 -0.02,0.049 -0.043,0.1 -0.062,0.149 -0.019,0.049 -0.04,0.1 -0.06,0.149 -0.02,0.049 -0.036,0.1 -0.054,0.148 -0.018,0.048 -0.035,0.1 -0.051,0.152 l -0.049,0.151 -0.043,0.152 c -0.015,0.052 -0.028,0.1 -0.041,0.154 -0.013,0.054 -0.025,0.1 -0.038,0.154 -0.013,0.054 -0.024,0.1 -0.035,0.157 -0.011,0.057 -0.021,0.1 -0.03,0.157 l -0.027,0.157 c -0.009,0.052 -0.017,0.1 -0.024,0.157 -0.007,0.057 -0.014,0.1 -0.019,0.157 l -0.016,0.159 c -0.006,0.052 -0.01,0.106 -0.014,0.16 -0.004,0.054 -0.006,0.1 -0.008,0.156 l -0.005,0.16 c 0,0.054 0,0.107 0,0.16 0,0.053 0,0.107 0,0.159 l 0.005,0.16 c 0,0.052 0,0.1 0.008,0.159 0.008,0.059 0.008,0.105 0.014,0.157 0.006,0.052 0.009,0.108 0.016,0.16 0.007,0.052 0.012,0.1 0.019,0.157 l 0.022,0.157 q 0.014,0.081 0.027,0.159 c 0.01,0.053 0.021,0.1 0.032,0.154 0.011,0.054 0.02,0.105 0.033,0.157 0.013,0.052 0.025,0.1 0.037,0.154 0.012,0.054 0.027,0.1 0.041,0.155 0.014,0.055 0.029,0.1 0.043,0.154 l 0.049,0.151 c 0.016,0.051 0.033,0.1 0.051,0.152 0.018,0.052 0.036,0.1 0.054,0.149 0.018,0.049 0.037,0.1 0.057,0.148 0.02,0.048 0.041,0.1 0.062,0.146 l 0.065,0.146 c 0.022,0.049 0.045,0.1 0.068,0.144 0.023,0.044 0.047,0.1 0.07,0.143 l 0.076,0.141 c 0.025,0.047 0.05,0.093 0.076,0.138 l 0.081,0.138 q 0.041,0.067 0.084,0.135 l 0.086,0.135 c 0.029,0.043 0.059,0.087 0.09,0.13 0.031,0.043 0.062,0.086 0.094,0.13 0.032,0.044 0.062,0.085 0.1,0.127 0.038,0.042 0.065,0.085 0.1,0.127 l 0.1,0.122 c 0.034,0.041 0.069,0.082 0.1,0.121 0.031,0.039 0.072,0.079 0.108,0.117 l 0.108,0.116 q 0.054,0.057 0.111,0.114 c 0.038,0.038 0.077,0.075 0.116,0.111 l 0.117,0.108 c 0.039,0.036 0.079,0.071 0.119,0.105 l 0.121,0.1 c 0.042,0.034 0.083,0.068 0.125,0.1 l 0.124,0.1 0.13,0.095 c 0.043,0.031 0.087,0.061 0.13,0.089 0.043,0.028 0.087,0.061 0.132,0.09 l 0.136,0.086 0.135,0.081 0.138,0.079 0.141,0.078 0.14,0.073 0.144,0.068 c 0.048,0.023 0.1,0.046 0.146,0.067 0.046,0.021 0.1,0.043 0.146,0.063 l 0.146,0.059 0.148,0.057 0.152,0.054 0.151,0.049 0.152,0.046 0.154,0.043 0.154,0.041 c 0.052,0.01 0.1,0.022 0.154,0.035 l 0.157,0.032 0.157,0.027 0.157,0.027 0.157,0.022 0.159,0.016 0.157,0.016 0.16,0.011 0.159,0.006 0.16,0.005 h 0.16 0.159 c 0.053,0 0.105,0 0.157,-0.008 l 0.16,-0.011 c 0.054,0 0.107,-0.008 0.159,-0.013 l 0.157,-0.019 0.16,-0.022 0.157,-0.024 q 0.078,-0.014 0.156,-0.03 c 0.053,-0.009 0.1,-0.019 0.155,-0.03 l 0.157,-0.037 c 0.05,-0.013 0.1,-0.026 0.154,-0.038 l 0.154,-0.044 c 0.05,-0.014 0.1,-0.029 0.151,-0.046 l 0.152,-0.048 c 0.05,-0.017 0.1,-0.035 0.149,-0.054 l 0.151,-0.055 0.146,-0.059 0.146,-0.065 0.146,-0.065 0.144,-0.07 0.14,-0.073 c 0.047,-0.023 0.094,-0.049 0.141,-0.076 0.047,-0.027 0.093,-0.051 0.138,-0.078 0.045,-0.027 0.09,-0.054 0.135,-0.081 0.045,-0.027 0.092,-0.058 0.135,-0.087 l 0.133,-0.087 c 0.045,-0.03 0.089,-0.061 0.132,-0.092 0.043,-0.031 0.084,-0.062 0.127,-0.094 0.043,-0.032 0.086,-0.065 0.128,-0.1 0.042,-0.035 0.083,-0.065 0.124,-0.1 0.041,-0.035 0.08,-0.066 0.122,-0.1 l 0.119,-0.106 c 0.039,-0.034 0.078,-0.069 0.116,-0.105 0.038,-0.036 0.076,-0.075 0.114,-0.111 l 0.113,-0.114 0.108,-0.116 0.109,-0.119 0.1,-0.119 0.1,-0.122 c 0.033,-0.041 0.065,-0.084 0.1,-0.127 l 0.1,-0.127 0.092,-0.13 c 0.031,-0.043 0.06,-0.087 0.089,-0.13 0.029,-0.043 0.06,-0.09 0.087,-0.135 0.027,-0.045 0.056,-0.088 0.084,-0.135 0.028,-0.047 0.055,-0.09 0.081,-0.136 0.026,-0.046 0.053,-0.093 0.078,-0.14 0.025,-0.047 0.05,-0.094 0.073,-0.141 0.023,-0.047 0.05,-0.094 0.073,-0.14 0.023,-0.046 0.046,-0.1 0.068,-0.147 l 0.065,-0.143 0.062,-0.149 c 0.02,-0.048 0.039,-0.1 0.057,-0.148 l 0.054,-0.149 c 0.018,-0.051 0.035,-0.1 0.051,-0.152 l 0.049,-0.151 c 0.016,-0.051 0.031,-0.1 0.043,-0.152 0.012,-0.052 0.029,-0.1 0.043,-0.154 0.014,-0.054 0.026,-0.1 0.038,-0.154 l 0.033,-0.157 c 0.011,-0.052 0.02,-0.1 0.029,-0.157 0.009,-0.057 0.02,-0.1 0.028,-0.157 0.008,-0.057 0.017,-0.1 0.024,-0.156 0.007,-0.056 0.013,-0.105 0.019,-0.157 0.006,-0.052 0.012,-0.108 0.016,-0.16 0.004,-0.052 0.01,-0.105 0.014,-0.159 0.004,-0.054 0.006,-0.105 0.008,-0.157 0.002,-0.052 0.005,-0.108 0.005,-0.16 0,-0.052 0,-0.107 0,-0.16 V 15.536 L 37.462,15.376 37.452,15.217 37.441,15.06 37.425,14.9 C 37.419,14.848 37.413,14.8 37.406,14.743 37.399,14.686 37.39,14.638 37.381,14.584 l -0.027,-0.157 c -0.009,-0.052 -0.019,-0.1 -0.03,-0.154 -0.011,-0.054 -0.022,-0.105 -0.035,-0.157 -0.013,-0.052 -0.022,-0.1 -0.035,-0.154 -0.013,-0.054 -0.029,-0.1 -0.043,-0.154 -0.014,-0.054 -0.027,-0.1 -0.043,-0.155 -0.016,-0.055 -0.031,-0.1 -0.049,-0.151 L 37.07,13.35 c -0.018,-0.048 -0.037,-0.1 -0.057,-0.148 -0.02,-0.048 -0.037,-0.1 -0.056,-0.149 -0.019,-0.049 -0.041,-0.1 -0.063,-0.146 -0.022,-0.046 -0.041,-0.1 -0.065,-0.146 -0.024,-0.046 -0.044,-0.1 -0.067,-0.144 -0.023,-0.044 -0.045,-0.1 -0.07,-0.143 -0.025,-0.043 -0.048,-0.094 -0.073,-0.14 -0.025,-0.046 -0.052,-0.093 -0.079,-0.138 -0.027,-0.045 -0.054,-0.093 -0.081,-0.138 -0.027,-0.045 -0.055,-0.091 -0.084,-0.136 -0.029,-0.045 -0.056,-0.09 -0.086,-0.135 -0.03,-0.045 -0.059,-0.086 -0.09,-0.13 l -0.092,-0.13 c -0.03,-0.043 -0.062,-0.085 -0.094,-0.127 -0.032,-0.042 -0.066,-0.085 -0.1,-0.127 l -0.1,-0.121 c -0.034,-0.042 -0.069,-0.083 -0.105,-0.122 -0.036,-0.039 -0.069,-0.079 -0.1,-0.117 l -0.109,-0.116 -0.113,-0.114 -0.114,-0.11 c -0.04,-0.036 -0.078,-0.072 -0.116,-0.109 l -0.119,-0.105 c -0.042,-0.034 -0.082,-0.068 -0.122,-0.1 l -0.124,-0.1 -0.127,-0.1 C 34.622,10.026 34.58,9.995 34.536,9.964 34.492,9.933 34.449,9.904 34.404,9.875 34.359,9.846 34.316,9.814 34.271,9.786 L 34.139,9.699 34,9.624 C 33.955,9.597 33.909,9.571 33.862,9.545 33.815,9.519 33.771,9.492 33.724,9.467 L 33.581,9.397 C 33.534,9.371 33.486,9.348 33.437,9.326 33.388,9.304 33.343,9.28 33.294,9.259 33.245,9.238 33.194,9.216 33.148,9.197 33.102,9.178 33.048,9.155 32.999,9.137 32.95,9.119 32.899,9.098 32.85,9.08 L 32.7,9.026 32.548,8.977 C 32.498,8.961 32.448,8.946 32.394,8.932 L 32.243,8.888 C 32.19,8.874 32.143,8.86 32.088,8.848 L 31.931,8.812 31.775,8.78 31.62,8.753 31.461,8.726 31.3,8.7 31.143,8.684 30.983,8.668 30.824,8.657 h -0.16 L 30.507,8.651 Z"/>
    </g>
    <g id="g14">
      <rect fill="#010101" x="29.179001" width="2.3510001" id="rect10" y="20.732" height="38.591999"/>
      <path fill="#010101" id="path12" d="m 30.853,21.408 v 37.24 h -1 v -37.24 h 1 m 1.352,-1.352 H 28.5 V 60 h 3.7 V 20.056 Z"/>
    </g>
    <g id="g20">
      <rect fill="#010101" x="22.025" width="16.507999" id="rect16" y="29.267" height="3.3900001"/>
      <path fill="#010101" id="path18" d="m 22.705,29.946 h 15.147 v 2.027 H 22.707 v -2.029 m -1.362,-1.362 v 4.753 h 17.87 v -4.75 h -17.87 z"/>
    </g>
    <g id="g26">
      <rect fill="#010101" x="22.1" width="16.509001" id="rect22" y="40.709" height="3.388"/>
      <path fill="#010101" id="path24" d="m 37.927,41.39 v 2.026 H 22.781 V 41.39 h 15.146 m 1.361,-1.362 H 21.417 v 4.75 H 39.29 v -4.75 z"/>
    </g>
    <g id="g32">
      <rect fill="#010101" x="22.025" width="16.507999" id="rect28" y="52.057999" height="3.3889999"/>
      <path fill="#010101" id="path30" d="m 37.852,52.739 v 2.026 H 22.707 v -2.026 h 15.145 m 1.361,-1.362 h -17.87 v 4.75 h 17.87 z"/>
    </g>
  </g>
</svg>