<svg width="60" height="60" xmlns="http://www.w3.org/2000/svg" viewBox="0 0 60 60">
  <rect fill="#ffcd34" height="60" width="60"/>
  <g>
    <g>
      <path fill="#010101" d="M40.477,11.269c0,.059,0,.118,0,.178s0,.118,0,.178,0,.118-.008.177-.008.118-.013.177-.01.119-.016.178-.013.117-.019.176-.016.118-.025.177-.018.117-.028.176-.02.116-.032.175-.023.116-.036.173-.026.117-.04.175-.028.115-.044.172-.03.114-.047.171-.033.114-.051.17-.037.113-.056.17L40,14.06c-.021.056-.041.111-.063.166s-.044.11-.067.165-.046.109-.071.163-.048.108-.073.162-.052.107-.079.16-.052.106-.08.159-.056.1-.085.156-.059.1-.088.154L39.3,15.5c-.031.05-.063.1-.1.15s-.065.1-.1.148-.067.1-.1.145-.07.1-.106.145-.071.094-.108.141-.074.093-.112.138l-.115.137-.117.133c-.04.044-.08.087-.121.13s-.082.086-.124.128-.084.084-.127.125l-.128.122-.133.12-.134.116-.138.113-.14.111-.142.106c-.047.035-.1.069-.145.1s-.1.068-.146.1l-.15.1c-.05.032-.1.063-.151.093l-.153.091-.156.086-.157.084-.159.079-.161.076-.163.072c-.055.024-.109.047-.164.069l-.166.065c-.055.021-.111.041-.167.06s-.112.04-.169.057-.113.037-.17.054l-.171.05q-.084.024-.171.045l-.173.043-.175.038q-.086.018-.174.033c-.058.011-.117.021-.175.03s-.117.019-.176.026l-.177.023-.176.017-.178.015-.178.01-.178.006-.177,0-.178,0-.178-.006-.178-.01c-.059-.005-.119-.009-.178-.015l-.176-.017-.177-.023c-.059-.007-.118-.016-.177-.026l-.175-.03q-.087-.015-.174-.033l-.174-.038-.173-.043c-.057-.014-.115-.029-.172-.045l-.171-.05c-.057-.017-.113-.035-.169-.054s-.113-.036-.169-.057-.111-.039-.167-.06l-.166-.065q-.082-.033-.165-.069t-.162-.072l-.161-.076c-.053-.026-.106-.052-.158-.079l-.158-.084-.155-.086L28.54,18.1c-.051-.03-.1-.061-.152-.093l-.148-.1c-.05-.032-.1-.066-.148-.1l-.144-.1-.142-.106-.14-.111-.138-.113-.135-.116-.132-.12-.128-.122c-.044-.041-.086-.083-.128-.125s-.083-.084-.123-.128-.081-.086-.12-.13-.08-.089-.119-.133-.077-.091-.114-.137-.075-.092-.112-.138-.073-.094-.108-.141-.071-.1-.105-.145-.069-.1-.1-.145-.067-.1-.1-.148-.063-.1-.095-.15-.062-.1-.091-.153-.06-.1-.089-.154-.057-.1-.085-.156-.055-.106-.081-.159-.052-.106-.077-.16-.05-.108-.074-.162-.048-.108-.071-.163-.045-.11-.067-.165-.042-.11-.062-.166-.041-.112-.06-.168-.038-.113-.056-.17-.035-.113-.051-.17L25,13.381c-.015-.057-.03-.115-.044-.172l-.039-.175c-.012-.057-.025-.115-.037-.173s-.021-.117-.031-.175-.02-.117-.028-.176-.017-.118-.025-.177-.014-.117-.02-.176-.011-.118-.015-.178-.009-.118-.013-.177,0-.119-.007-.177,0-.119,0-.178,0-.12,0-.179,0-.118,0-.178,0-.118.007-.178.008-.117.013-.176.009-.119.015-.178.013-.118.02-.177.016-.118.025-.176.018-.118.028-.176.02-.117.031-.176.025-.115.037-.173l.039-.174c.014-.058.029-.115.044-.172l.048-.172c.016-.057.034-.114.051-.169s.037-.114.056-.17.039-.112.06-.168.041-.112.062-.167.044-.11.067-.164.046-.11.071-.163.048-.109.074-.162.051-.107.077-.16.054-.106.081-.159l.085-.157.089-.154c.029-.051.06-.1.091-.152L26,7.066l.1-.147c.033-.05.067-.1.1-.146s.069-.1.105-.144.072-.094.108-.141l.112-.139c.037-.045.075-.091.114-.136s.078-.089.119-.133.079-.088.12-.131.082-.086.123-.127.084-.085.128-.126.085-.081.128-.121.088-.081.132-.12.09-.078.135-.116l.138-.113c.046-.038.093-.074.14-.111l.142-.106.144-.1c.049-.034.1-.068.148-.1s.1-.065.148-.1.1-.063.152-.094.1-.061.154-.09l.155-.087.158-.083.158-.08.161-.076.162-.071.165-.07.166-.064.167-.061c.056-.02.112-.039.169-.057s.112-.036.169-.054l.171-.05c.057-.016.115-.03.172-.045s.115-.029.173-.042l.174-.038.175-.034.174-.03c.059-.01.118-.018.177-.026l.177-.022.176-.018.178-.014.178-.01c.059,0,.118,0,.178-.006l.178,0,.177,0c.06,0,.119,0,.178.006l.178.01.178.014c.059,0,.117.011.176.018l.177.022c.059.008.117.016.176.026l.175.03.176.034.173.038c.058.013.116.028.173.042s.115.029.172.045l.17.05c.058.018.114.035.17.054s.113.037.169.057l.167.061.166.064.164.07.163.071.161.076.159.08.157.083.156.087c.051.029.1.06.153.09l.152.094c.05.031.1.063.149.1l.146.1c.049.034.1.069.145.1l.142.106c.047.037.094.073.14.111l.138.113c.045.038.09.076.134.116s.089.079.133.12.086.08.128.121.085.083.127.126.083.084.124.127.081.087.121.131l.117.134.115.135.112.139q.055.071.108.141l.106.144c.034.048.068.1.1.146s.067.1.1.148.065.1.1.15l.092.152c.029.052.059.1.088.154l.085.157c.028.053.054.106.08.159s.053.106.079.16.05.107.073.162.048.108.071.163.045.109.067.164.042.112.063.167.04.112.059.168.038.113.056.17.035.113.051.169.032.114.047.172.031.115.045.173l.039.173c.013.058.025.116.036.175s.023.116.032.174.019.117.028.176.017.117.025.176.013.118.019.177.012.118.016.178.009.117.013.176,0,.119.008.178S40.477,11.209,40.477,11.269Z" transform="translate(0 0)"/>
      <path fill="#010101" d="M52.466,22.349q0,.1,0,.2c0,.065,0,.129,0,.194l-.009.2c0,.065-.008.129-.014.193s-.011.13-.018.2-.013.129-.021.193-.017.129-.027.194-.019.128-.03.192-.023.128-.036.191-.025.128-.039.191-.028.127-.043.19-.031.126-.048.188-.034.126-.053.188-.037.125-.056.187-.039.124-.06.185-.043.123-.065.184l-.069.182c-.024.06-.048.121-.073.181s-.051.12-.077.179-.054.118-.082.177-.056.117-.085.175-.058.116-.088.174l-.093.171c-.032.056-.064.113-.1.169l-.1.166c-.034.055-.069.11-.1.164s-.072.11-.108.164-.074.106-.112.158-.076.106-.115.158-.079.1-.119.154-.081.1-.122.152-.084.1-.126.149-.085.1-.129.146-.087.1-.132.143-.089.094-.135.141-.092.091-.138.136l-.142.134c-.048.044-.1.088-.145.131s-.1.085-.147.127-.1.083-.151.123-.1.082-.152.121l-.157.118-.157.112c-.054.038-.108.074-.161.11s-.109.072-.164.106-.11.07-.166.1-.111.066-.168.1-.113.065-.17.1-.115.061-.172.09-.116.059-.175.087-.117.057-.176.084-.118.053-.178.078-.12.052-.18.076l-.181.071-.182.067c-.062.022-.124.042-.186.063l-.186.058c-.061.019-.124.037-.186.054l-.188.051-.19.046-.19.041-.191.037c-.065.012-.129.023-.193.032s-.128.02-.192.029-.129.018-.194.025l-.193.019-.194.016-.2.011-.2.007-.194,0-.2,0-.194-.007-.2-.011-.194-.016-.194-.019c-.064-.007-.128-.016-.193-.025s-.129-.018-.193-.029-.128-.02-.192-.032l-.191-.037-.19-.041-.189-.046-.189-.051c-.063-.017-.125-.035-.187-.054l-.185-.058c-.062-.021-.124-.041-.185-.063l-.183-.067-.181-.071c-.061-.024-.121-.049-.18-.076s-.119-.051-.178-.078-.118-.055-.177-.084-.116-.057-.174-.087-.115-.059-.172-.09-.114-.063-.17-.1-.113-.064-.168-.1-.111-.068-.166-.1-.109-.069-.164-.106-.107-.072-.16-.11-.106-.074-.159-.112-.1-.078-.155-.118-.1-.08-.153-.121-.1-.081-.151-.123l-.148-.127L38,28.778c-.048-.044-.095-.089-.142-.134l-.139-.136-.135-.141c-.045-.047-.089-.1-.132-.143s-.086-.1-.128-.146-.085-.1-.127-.149-.081-.1-.122-.152-.079-.1-.118-.154-.077-.105-.115-.158-.076-.105-.112-.158l-.109-.162-.1-.166c-.034-.055-.067-.111-.1-.166s-.065-.113-.1-.169-.063-.114-.093-.171-.06-.116-.09-.174-.057-.116-.085-.175l-.081-.177c-.026-.059-.052-.119-.077-.179s-.049-.121-.073-.181-.047-.121-.069-.182-.044-.122-.065-.184-.041-.123-.06-.185-.038-.124-.056-.187-.037-.124-.053-.187l-.048-.189c-.015-.063-.029-.126-.044-.19l-.039-.191c-.012-.063-.024-.127-.034-.191s-.022-.128-.032-.192-.018-.129-.025-.194-.016-.128-.023-.193-.013-.13-.018-.2-.009-.128-.013-.193-.007-.13-.009-.2,0-.129,0-.194,0-.13,0-.2,0-.13,0-.194,0-.13.009-.2.008-.13.013-.194.011-.13.018-.195.014-.129.023-.193.016-.129.025-.193.02-.129.032-.192.022-.128.034-.192l.039-.19c.015-.065.029-.128.044-.191l.048-.188c.016-.063.034-.126.053-.188s.036-.125.056-.187.039-.123.06-.185.042-.123.065-.184.045-.122.069-.182.048-.121.073-.18.051-.12.077-.179l.081-.178c.028-.058.056-.116.085-.174s.059-.116.09-.174.061-.114.093-.172.063-.113.1-.169.066-.111.1-.166l.1-.165.109-.162c.036-.053.074-.107.112-.16s.076-.105.115-.156l.118-.156.122-.151c.042-.05.084-.1.127-.149s.085-.1.128-.146.087-.1.132-.143l.135-.14.139-.137c.047-.045.094-.09.142-.134l.144-.13c.05-.043.1-.086.148-.127s.1-.084.151-.125.1-.081.153-.12.1-.079.155-.117l.159-.114.16-.109.164-.106c.055-.035.11-.07.166-.1s.111-.067.168-.1l.17-.1.172-.09.174-.087c.059-.029.118-.056.177-.083s.118-.054.178-.08.119-.051.18-.074.12-.049.181-.072.122-.046.183-.067.123-.043.185-.063l.185-.058.187-.055.189-.049c.062-.016.125-.032.189-.046s.127-.028.19-.041l.191-.038.192-.033.193-.029.193-.023c.065-.008.13-.014.2-.02l.193-.016c.065,0,.13-.008.2-.01l.194-.007.2,0,.194,0,.2.007c.065,0,.13.006.2.01l.194.016c.064.006.129.012.193.02l.194.023.192.029.193.033.191.038c.063.013.126.026.19.041s.126.03.19.046l.188.049.186.055.187.058.185.064c.061.021.122.043.182.066s.121.047.181.072.12.048.18.074.119.052.179.08.117.054.175.083.117.057.175.087l.172.09.17.1q.086.048.168.1c.056.033.111.068.166.1l.164.106.161.109.157.114c.053.038.1.077.157.117s.1.079.153.12l.15.125c.05.041.1.084.147.127l.145.13.142.134c.046.045.093.091.138.137s.091.093.135.14.089.095.132.143.087.1.129.147l.126.148.122.151.119.156c.039.051.078.1.115.156s.075.107.112.16l.108.162c.035.055.07.11.1.165s.068.11.1.166.065.113.1.17l.093.171c.03.058.059.115.088.174s.058.116.085.174.056.118.082.178.052.118.077.179.049.119.073.18l.069.182c.022.061.044.123.065.184s.041.123.06.185.038.124.056.187.036.125.053.188.033.125.048.188.03.127.043.191.027.126.039.19.025.128.036.192.021.128.03.192.019.128.027.193.015.129.021.194.013.129.018.194.01.129.014.194l.009.2C52.464,22.219,52.465,22.284,52.466,22.349Z" transform="translate(0 0)"/>
      <path fill="#010101" d="M31.078,18.088v.1l0,.1,0,.1-.007.1c0,.034-.006.067-.01.1s-.007.067-.011.1-.009.067-.014.1l-.015.1c-.006.033-.013.067-.019.1s-.013.066-.02.1l-.023.1c-.008.033-.017.066-.026.1s-.017.066-.026.1l-.029.1-.033.1q-.015.048-.033.1c-.012.032-.023.063-.036.095s-.025.063-.038.094-.026.063-.04.093-.028.062-.043.093-.029.061-.044.091l-.046.09c-.016.03-.032.06-.049.09l-.05.088-.052.087-.055.085-.056.085-.058.083-.061.081c-.02.028-.04.055-.061.081s-.042.053-.064.079l-.066.079c-.021.025-.044.05-.067.076l-.068.073-.072.074-.071.072-.074.069-.076.068c-.025.023-.051.045-.076.066l-.078.065-.081.063-.08.061-.083.058-.084.058-.085.055-.087.054-.087.051-.089.05c-.029.016-.059.032-.089.046l-.092.046-.091.044-.093.041-.094.039-.094.037-.1.035-.095.032-.1.031-.1.029-.1.025c-.033.009-.066.016-.1.024s-.066.016-.1.022l-.1.019-.1.017-.1.016-.1.012-.1.01-.1.008-.1.005c-.034,0-.068,0-.1,0h-.2c-.033,0-.067,0-.1,0l-.1-.005-.1-.008-.1-.01-.1-.012-.1-.016-.1-.017-.1-.019c-.033-.006-.066-.014-.1-.022s-.066-.015-.1-.024l-.1-.025-.1-.029-.1-.031-.1-.032L25,22.341,24.9,22.3l-.094-.039-.093-.041-.091-.044-.091-.046c-.03-.014-.059-.03-.089-.046l-.09-.05-.087-.051-.086-.054-.085-.055-.084-.058-.083-.058-.081-.061-.08-.063-.078-.065c-.026-.021-.052-.043-.077-.066l-.075-.068-.074-.069c-.024-.024-.049-.048-.072-.072s-.048-.049-.071-.074l-.069-.073-.067-.076L23.12,21c-.022-.026-.043-.052-.064-.079s-.042-.053-.062-.081-.04-.054-.06-.081l-.058-.083-.057-.085-.054-.085-.052-.087-.05-.088-.05-.09c-.015-.03-.031-.06-.045-.09l-.045-.091-.043-.093q-.02-.045-.039-.093l-.039-.094-.036-.095-.033-.1-.032-.1c-.01-.033-.02-.065-.029-.1s-.019-.066-.028-.1l-.024-.1c-.008-.033-.016-.066-.023-.1l-.021-.1-.018-.1c-.006-.033-.011-.066-.015-.1s-.01-.067-.015-.1l-.011-.1c0-.035-.007-.068-.009-.1s0-.067-.007-.1,0-.068,0-.1,0-.069,0-.1,0-.068,0-.1,0-.067,0-.1,0-.067,0-.1,0-.068.007-.1,0-.067.009-.1l.011-.1c0-.034.009-.067.015-.1s.009-.066.015-.1l.018-.1.021-.1c.007-.033.015-.066.023-.1l.024-.1c.009-.033.019-.066.028-.1s.019-.065.029-.1l.032-.1.033-.1L22.4,16.5c.013-.032.026-.064.039-.094l.039-.094.043-.092.045-.092c.014-.03.03-.06.045-.09l.05-.09.05-.088.052-.086.054-.086.057-.085.058-.083c.02-.027.039-.055.06-.081s.041-.055.062-.081.042-.053.064-.079.043-.052.065-.077.044-.052.067-.076.046-.051.069-.075.047-.049.071-.073.048-.048.072-.072l.074-.07.075-.067c.025-.023.051-.046.077-.067l.078-.065.08-.063.081-.06.083-.059L24.1,14.4c.028-.02.057-.038.085-.056l.086-.054.087-.051.09-.049.089-.047.091-.046.091-.044.093-.04.094-.039L25,13.938c.031-.013.063-.025.095-.036l.1-.032.1-.031.1-.028.1-.026.1-.024.1-.021c.033-.008.066-.014.1-.02l.1-.017.1-.015.1-.013.1-.01.1-.008.1-.005.1,0h.2l.1,0,.1.005.1.008.1.01.1.013.1.015.1.017c.033.006.066.012.1.02l.1.021.1.024.1.026.1.028.1.031.1.032.095.036.094.037c.032.012.063.025.094.039l.093.041.091.043.092.046.089.047c.03.016.06.032.089.049l.088.051.086.054.085.056.084.057.083.059.08.06.081.063.078.065c.025.021.051.044.076.067l.076.067.074.07c.024.024.048.047.071.072l.072.073c.023.024.046.049.068.075s.046.05.067.076l.066.077c.022.026.043.052.064.079l.061.081.061.081.058.083.056.085.055.086c.017.028.035.057.052.087s.034.058.05.087.033.06.049.09l.046.09.044.092c.015.031.029.061.043.092s.027.062.04.094.026.062.038.094.024.063.036.095.023.063.033.1l.033.1.029.1c.009.032.018.065.026.1s.018.065.026.1l.023.1c.007.033.014.066.02.1s.013.066.019.1l.015.1c0,.033.01.066.014.1s.008.067.011.1.007.067.01.1l.007.1,0,.1Z" transform="translate(0 0)"/>
      <path fill="#010101" d="M25.087,23.344v.1l0,.1,0,.1-.007.1-.009.1c0,.033-.006.066-.011.1s-.008.065-.013.1-.01.064-.016.1-.011.065-.018.1-.013.064-.02.1l-.021.1-.025.1c-.008.031-.017.063-.027.1s-.018.063-.028.094-.02.063-.031.094-.021.062-.032.093-.023.062-.035.092-.024.062-.037.092l-.039.091-.041.089-.044.088c-.014.03-.029.06-.045.089s-.03.058-.047.086-.032.058-.049.086l-.05.085-.054.083c-.018.027-.036.055-.055.082s-.036.054-.056.081-.038.053-.058.079l-.06.079c-.02.026-.041.051-.062.077l-.063.075c-.022.025-.044.05-.066.073s-.044.049-.067.073l-.069.072-.07.069c-.023.022-.047.045-.072.067l-.072.066-.075.065c-.025.022-.051.042-.076.063l-.078.061-.079.059c-.027.02-.053.039-.08.057s-.054.038-.082.056l-.083.054c-.027.018-.055.035-.083.051l-.085.051-.087.048-.087.046-.088.044-.09.042c-.029.014-.06.027-.09.04l-.091.038c-.03.013-.061.024-.091.036l-.093.034-.094.032-.094.03-.095.027-.095.025c-.032.009-.064.016-.1.024l-.1.02-.1.019-.1.017-.1.014-.1.013-.1.01-.1.007q-.049,0-.1.006c-.032,0-.065,0-.1,0l-.1,0-.1,0c-.033,0-.066,0-.1,0s-.066,0-.1-.006l-.1-.007-.1-.01-.1-.013-.1-.014-.1-.017-.1-.019-.1-.02c-.032-.008-.064-.015-.1-.024l-.1-.025-.094-.027-.1-.03-.093-.032-.093-.034c-.03-.012-.061-.023-.091-.036l-.092-.038-.089-.04-.09-.042-.088-.044-.087-.046-.086-.048c-.03-.017-.058-.034-.085-.051s-.057-.033-.084-.051l-.083-.054c-.028-.018-.055-.037-.082-.056l-.08-.057-.08-.059-.077-.061-.076-.063-.075-.065-.072-.066-.073-.067-.069-.069-.07-.072-.067-.073-.065-.073-.063-.075c-.021-.026-.042-.051-.062-.077l-.06-.079c-.02-.026-.039-.052-.058-.079s-.039-.054-.057-.081-.037-.055-.055-.082l-.053-.083-.05-.085c-.017-.028-.034-.057-.049-.086s-.032-.057-.047-.086-.031-.059-.046-.089l-.042-.088c-.015-.03-.028-.06-.042-.089l-.039-.091c-.013-.03-.025-.061-.037-.092s-.023-.061-.034-.092l-.034-.093c-.011-.031-.021-.063-.03-.094l-.029-.094c-.009-.032-.018-.064-.026-.1s-.017-.064-.025-.1l-.022-.1-.02-.1c-.006-.033-.012-.066-.017-.1s-.011-.065-.016-.1-.009-.066-.013-.1-.008-.065-.011-.1-.007-.065-.009-.1,0-.066-.007-.1,0-.066,0-.1,0-.067,0-.1,0-.066,0-.1,0-.065,0-.1,0-.066,0-.1,0-.065.007-.1,0-.066.009-.1.007-.066.011-.1.008-.065.013-.1.01-.066.016-.1.011-.064.017-.1l.02-.1.022-.1c.008-.032.016-.064.025-.1s.017-.064.026-.095l.029-.095c.009-.031.019-.063.03-.094l.034-.093c.011-.03.022-.061.034-.091s.024-.062.037-.092l.039-.091c.014-.03.027-.06.042-.09l.042-.089c.015-.029.03-.058.046-.087s.03-.059.047-.087.031-.058.048-.086l.051-.084.053-.084c.018-.027.036-.055.055-.081s.037-.055.057-.082.038-.053.058-.079l.06-.079.062-.076.063-.076.065-.074.067-.072.07-.071q.034-.036.069-.069c.024-.023.048-.046.073-.068s.048-.045.072-.066l.075-.065.076-.063c.026-.021.051-.041.077-.06l.08-.059.08-.058c.027-.019.054-.038.082-.056l.083-.054.084-.051c.027-.018.055-.034.085-.051l.086-.048.087-.046.088-.043c.029-.015.059-.029.09-.043l.089-.04.092-.038.091-.036q.047-.018.093-.033l.093-.033.1-.029.094-.028.1-.026.1-.022.1-.021.1-.019.1-.017.1-.014.1-.013.1-.01.1-.008.1,0,.1,0h.2l.1,0,.1,0,.1.008.1.01.1.013.1.014.1.017.1.019.1.021.1.022.095.026.095.028.094.029c.031.011.063.021.094.033s.062.021.093.033l.091.036.091.038.09.04.09.043.088.043.087.046.087.048.085.051.083.051.083.054c.028.018.055.037.082.056s.053.038.08.058l.079.059.078.06.076.063.075.065c.024.021.049.043.072.066s.049.045.072.068.047.045.07.069l.069.071.067.072.066.074.063.076.062.076.06.079.058.08q.03.039.057.081l.054.081.054.084c.017.028.034.056.05.084s.034.057.049.086.032.058.047.087.031.058.045.087l.044.089c.014.03.028.06.041.09l.039.091c.013.03.025.06.037.092s.023.061.035.091.022.062.032.093.022.063.031.094.019.063.028.095.019.063.027.095l.025.1.021.1c.007.032.014.065.02.1s.013.065.018.1.011.064.016.1.009.064.013.1.008.066.011.1l.009.1.007.1,0,.1Z" transform="translate(0 0)"/>
      <path fill="#010101" d="M20.316,25.394c0,.031,0,.062,0,.092s0,.062,0,.093,0,.061,0,.092l-.007.093c0,.03-.005.061-.008.091s-.007.062-.011.092-.007.061-.012.092-.009.061-.014.09-.011.061-.017.091-.012.061-.019.091-.013.06-.02.09l-.023.09c-.008.029-.016.059-.025.088l-.026.089-.029.087c-.01.03-.02.059-.031.088l-.033.086c-.011.029-.023.058-.035.086s-.024.057-.036.085l-.038.084-.041.082c-.013.028-.027.055-.042.082s-.029.055-.044.082l-.046.08q-.023.039-.048.078c-.015.027-.032.053-.049.079s-.033.052-.051.077l-.053.076-.055.074-.056.073-.058.072c-.019.024-.039.047-.059.07s-.041.047-.061.07l-.063.068-.064.066-.066.065L19,28.442l-.069.061c-.023.021-.046.041-.07.06s-.047.04-.071.06l-.073.057c-.024.018-.048.037-.074.054s-.049.037-.074.055l-.076.052-.078.05-.079.049-.079.046-.081.046-.082.042c-.027.015-.055.028-.082.042l-.084.039-.084.038-.085.036-.086.033-.087.032-.087.03-.089.028-.088.025c-.03.009-.06.016-.09.024l-.089.021-.091.02-.09.018-.091.016-.091.013-.092.011-.092.009-.091.008-.093,0-.093,0h-.185l-.091,0-.093,0-.092-.008L15.77,29.5l-.092-.011-.092-.013-.09-.016-.091-.018-.09-.02-.09-.021-.089-.024-.089-.025-.088-.028-.087-.03-.087-.032-.086-.033-.085-.036-.085-.038-.083-.039-.083-.042-.082-.042c-.027-.015-.054-.03-.08-.046l-.081-.046-.078-.049-.077-.05-.076-.052-.075-.055c-.025-.017-.05-.036-.074-.054l-.072-.057c-.025-.02-.049-.039-.072-.06s-.047-.039-.07-.06l-.069-.061-.067-.064-.066-.065-.063-.066-.063-.068c-.021-.023-.041-.046-.061-.07s-.04-.046-.06-.07l-.058-.072-.056-.073-.055-.074-.052-.076c-.018-.025-.035-.051-.052-.077s-.033-.052-.049-.079l-.048-.078-.046-.08c-.015-.027-.029-.054-.043-.082s-.029-.054-.043-.082-.027-.055-.04-.082L12.5,27.1l-.036-.085c-.012-.028-.023-.057-.035-.086l-.033-.086c-.011-.029-.021-.058-.03-.088l-.029-.087-.027-.088-.025-.089-.022-.09q-.012-.045-.021-.09l-.018-.091c-.006-.03-.012-.06-.017-.091l-.015-.09-.012-.092-.011-.092c0-.03-.006-.061-.008-.091l-.007-.093,0-.092c0-.031,0-.062,0-.093s0-.061,0-.092,0-.061,0-.092l0-.093.007-.091c0-.031.005-.062.008-.092l.011-.092.012-.092.015-.091c.005-.03.011-.06.017-.091l.018-.09q.009-.045.021-.09l.022-.089.025-.09.027-.088.029-.088c.009-.029.019-.058.03-.086l.033-.088c.012-.028.023-.056.035-.085l.036-.085.039-.083c.013-.029.026-.056.04-.083l.043-.083.043-.082.046-.079.048-.079.049-.079.052-.076c.017-.026.035-.051.052-.076l.055-.075.056-.072.058-.073.06-.07c.02-.023.04-.047.061-.07l.063-.067.063-.067.066-.065.067-.062.069-.063.07-.06c.023-.02.047-.039.072-.058s.048-.039.072-.057.049-.038.074-.056l.075-.054.076-.053.077-.05.078-.048.081-.047.08-.045.082-.043.083-.042.083-.039.085-.037.085-.035c.028-.012.057-.024.086-.034l.087-.032.087-.029.088-.028.089-.026.089-.024.09-.022.09-.019c.03-.007.06-.013.091-.018l.09-.016.092-.013.092-.011.091-.01.092-.007.093,0,.091,0h.185l.093,0,.093,0,.091.007.092.01.092.011.091.013.091.016c.03,0,.061.011.09.018l.091.019.089.022.09.024.088.026.089.028.087.029.087.032c.028.01.057.022.086.034l.085.035.084.037.084.039.082.042.082.043.081.045.079.047.079.048.078.05.076.053.074.054c.026.018.05.036.074.056s.049.037.073.057l.071.058.071.06L19,22.44l.067.062.066.065.064.067.063.067.061.07.059.07c.02.024.039.048.058.073l.056.072.055.075c.018.025.036.05.053.076s.035.051.051.076.034.053.049.079.033.052.048.079.031.053.046.079l.044.082c.015.028.029.055.042.083s.027.054.041.083l.039.083.035.085c.012.029.024.057.035.085l.033.088c.011.028.021.057.031.087l.029.087c.009.029.017.059.026.088s.017.06.025.09l.023.089c.007.03.014.06.02.09s.013.06.019.09.011.061.017.091.01.061.014.091.009.062.012.092.008.061.011.092.006.061.008.092l.007.091c0,.031,0,.062,0,.093S20.316,25.363,20.316,25.394Z" transform="translate(0 0)"/>
      <path fill="#010101" d="M19.164,30.464v.1l0,.095,0,.095c0,.032,0,.064-.006.1s0,.064-.008.095l-.011.095c0,.032-.009.063-.014.094s-.009.064-.014.095-.011.063-.017.093-.013.063-.02.094l-.021.093-.024.093L19,31.687c-.009.031-.019.061-.028.091s-.02.061-.031.09-.02.061-.031.091l-.033.089-.036.089-.038.087-.039.086-.043.086c-.014.029-.029.057-.043.085s-.03.056-.045.084l-.048.083c-.016.027-.032.055-.049.081l-.051.081-.053.079-.054.079-.057.076-.058.076c-.02.024-.039.049-.06.073s-.04.049-.061.073-.042.049-.064.072l-.063.07-.068.068c-.022.023-.044.046-.067.067s-.046.045-.069.066l-.07.064-.073.063-.074.06c-.024.019-.049.039-.075.058l-.076.058c-.025.019-.051.037-.077.055s-.052.037-.079.054-.053.035-.08.052l-.081.051-.082.048-.084.046c-.027.015-.055.03-.084.044l-.085.043-.086.041-.087.038-.088.037-.089.035-.089.032c-.031.011-.061.022-.091.031l-.09.028c-.031.01-.061.019-.092.027l-.093.025-.091.022c-.032.008-.063.014-.094.02l-.093.019-.094.016c-.032,0-.064.01-.1.013l-.094.013-.1.01-.095.006-.1.006-.1,0-.1,0-.095,0c-.032,0-.064,0-.1,0s-.064,0-.095-.006l-.1-.006-.1-.01-.095-.013c-.032,0-.063-.008-.094-.013l-.094-.016-.094-.019c-.031-.006-.062-.012-.093-.02l-.093-.022-.092-.025c-.03-.008-.061-.017-.091-.027l-.091-.028c-.03-.009-.061-.02-.09-.031l-.09-.032-.088-.035-.088-.037-.088-.038-.086-.041-.085-.043-.085-.044-.082-.046-.083-.048-.081-.051-.08-.052-.078-.054c-.027-.018-.052-.036-.078-.055l-.077-.058c-.024-.019-.049-.039-.075-.058l-.072-.06-.073-.063-.07-.064c-.024-.021-.047-.043-.07-.066s-.046-.044-.068-.067l-.066-.068-.065-.07c-.021-.023-.042-.047-.062-.072s-.042-.048-.062-.073l-.06-.073-.058-.076-.056-.076-.055-.079-.053-.079-.051-.081-.049-.081-.047-.083c-.016-.028-.031-.055-.046-.084l-.044-.085c-.014-.028-.028-.057-.041-.086l-.04-.086c-.013-.029-.025-.058-.037-.087s-.025-.059-.036-.089-.023-.059-.033-.089-.022-.06-.033-.091l-.029-.09c-.01-.03-.019-.06-.028-.091s-.018-.061-.026-.091-.016-.063-.023-.093-.015-.062-.021-.093-.013-.063-.019-.094-.012-.061-.017-.093-.011-.063-.016-.095l-.012-.094c-.005-.031-.008-.063-.011-.095l-.009-.095c0-.031,0-.063-.006-.1s0-.063,0-.095,0-.063,0-.095v-.1q0-.048,0-.1c0-.031,0-.063,0-.095s0-.063.006-.095l.009-.1c0-.031.006-.063.011-.094l.012-.1c0-.031.01-.063.016-.094s.011-.063.017-.094.012-.062.019-.093.013-.062.021-.092.015-.063.023-.093.017-.061.026-.092.018-.061.028-.092l.029-.09c.011-.03.021-.06.033-.09s.021-.059.033-.089.023-.059.036-.088.024-.059.037-.088l.04-.087c.013-.028.027-.057.041-.085l.044-.085c.015-.028.03-.056.046-.084l.047-.082.049-.082.051-.081.053-.079.055-.078c.018-.026.037-.052.056-.077s.038-.051.058-.075l.06-.075.062-.073.062-.071.065-.07.066-.069.068-.066.07-.066.07-.064.073-.062.072-.061.075-.059.077-.057.078-.056L12.609,27l.08-.051.081-.05c.027-.017.055-.033.083-.048l.082-.047.085-.044.085-.044.086-.04.088-.039.088-.036.088-.034.09-.034.09-.03.091-.029.091-.027.092-.023c.032-.009.062-.016.093-.023l.093-.021.094-.018.094-.016.094-.014c.032,0,.063-.008.095-.011l.1-.01.1-.008.095-.006.1,0h.191l.1,0,.1.006.095.008.1.01c.031,0,.063.006.094.011l.1.014.094.016.093.018.094.021c.03.007.061.014.091.023l.093.023.092.027.09.029.091.03.089.034.089.034.088.036.087.039.086.04.085.044c.029.014.057.029.084.044l.084.047c.028.015.055.031.082.048l.081.05.08.051.079.054.077.056.076.057c.026.019.051.039.075.059l.074.061.073.062.07.064.069.066.067.066.068.069.064.07.063.071.061.073c.021.024.04.049.06.075s.039.049.058.075l.057.077.055.078c.018.026.035.053.052.079l.051.081c.017.027.033.054.049.082l.048.082.045.084c.014.029.029.057.043.085s.029.057.043.085l.039.087.038.088.036.088.033.089c.011.03.022.06.031.09s.021.061.031.09.019.061.028.092l.024.092q.012.045.024.093l.021.092c.007.031.014.062.02.093s.012.063.017.094.01.063.014.094.01.063.014.1l.011.094c0,.032,0,.064.008.1s0,.064.006.095l0,.1Z" transform="translate(0 0)"/>
      <path fill="#010101" d="M51.724,30.007q0,.045,0,.093c0,.031,0,.062,0,.094l0,.094-.007.093c0,.032,0,.063-.007.093l-.012.094q0,.046-.012.093c0,.031-.01.061-.016.093s-.01.061-.016.091-.013.063-.019.093-.013.061-.02.091l-.024.091c-.008.03-.017.06-.026.09s-.017.061-.026.09-.019.06-.03.09-.02.058-.031.088-.021.058-.032.087l-.036.088c-.012.029-.024.057-.037.086l-.039.085c-.013.028-.027.056-.041.085s-.028.055-.043.082-.03.056-.045.083-.031.055-.047.082-.031.053-.048.08-.033.054-.05.08L51,32.394l-.053.076c-.018.025-.036.051-.055.076l-.057.075c-.019.025-.039.049-.059.073l-.061.071c-.021.024-.041.048-.062.071l-.064.069c-.021.022-.042.045-.065.067s-.044.044-.067.066l-.068.065c-.022.021-.046.042-.069.062l-.071.062-.073.059-.073.058c-.025.02-.05.038-.075.056l-.076.055-.079.053c-.026.017-.052.035-.078.051s-.053.034-.079.049-.054.033-.082.048l-.081.046-.083.044-.084.041c-.028.014-.057.028-.085.04s-.057.026-.086.038l-.086.037-.089.034-.087.032c-.03.011-.059.021-.089.03l-.09.028-.089.027-.092.024-.09.022-.092.02-.092.018-.093.016-.092.013-.093.012-.094.009-.094.008-.093.005-.094,0h-.188l-.093,0-.094-.005-.093-.008-.094-.009q-.047,0-.093-.012l-.093-.013-.092-.016-.092-.018-.092-.02-.092-.022-.09-.024-.089-.027L46.282,34c-.03-.009-.06-.019-.089-.03l-.089-.032-.087-.034-.086-.037c-.029-.012-.058-.024-.086-.038s-.057-.026-.085-.04l-.084-.041-.083-.044c-.027-.015-.055-.03-.081-.046s-.055-.031-.082-.048-.053-.032-.079-.049-.053-.034-.079-.051l-.078-.053-.076-.055c-.025-.018-.05-.036-.075-.056l-.074-.058-.072-.059-.071-.062c-.024-.02-.047-.041-.07-.062l-.068-.065q-.035-.033-.066-.066c-.023-.022-.045-.045-.066-.067l-.064-.069c-.021-.023-.041-.047-.061-.071l-.061-.071c-.02-.024-.04-.048-.059-.073s-.039-.05-.057-.075L44.2,32.47l-.054-.076-.051-.078c-.017-.026-.034-.053-.05-.08l-.049-.08c-.016-.027-.032-.054-.047-.082s-.03-.054-.044-.083-.029-.055-.043-.082-.028-.057-.041-.085-.027-.057-.039-.085-.025-.057-.037-.086l-.036-.088c-.011-.029-.022-.058-.032-.087s-.022-.059-.032-.088-.02-.06-.029-.09-.019-.06-.028-.09l-.024-.09-.024-.091-.021-.091c-.007-.03-.013-.061-.019-.093s-.011-.061-.017-.091-.01-.062-.014-.093-.009-.062-.013-.093l-.011-.094c0-.03,0-.061-.008-.093s-.005-.062-.006-.093l-.005-.094,0-.094v-.093l0-.094.005-.094c0-.031,0-.063.006-.094s0-.063.008-.094l.011-.093c0-.031.008-.062.013-.092s.009-.063.014-.093.011-.061.017-.092.012-.062.019-.093l.021-.09.024-.092.024-.091c.009-.029.019-.059.028-.089s.019-.06.029-.089.021-.059.032-.089.021-.058.032-.087l.036-.087c.012-.029.024-.058.037-.086s.025-.057.039-.085.027-.057.041-.085.028-.056.043-.084.029-.055.044-.082.031-.054.047-.081.032-.054.049-.081.033-.053.05-.079l.051-.078.054-.076c.019-.027.037-.052.056-.076s.037-.051.057-.075.039-.049.059-.073.04-.048.061-.072.04-.047.061-.07l.064-.069c.021-.023.043-.045.066-.067s.043-.045.066-.066L44.756,27l.07-.063c.023-.021.047-.041.071-.061l.072-.06.074-.058.075-.056.076-.054.078-.054c.026-.017.052-.034.079-.05s.052-.034.079-.05l.082-.048.081-.046.083-.043.084-.042.085-.04.086-.038.086-.037.087-.033.089-.033.089-.03.09-.028.089-.027.09-.023c.031-.008.062-.016.092-.022l.092-.021.092-.018.092-.015.093-.014.093-.012.094-.009.093-.008.094-.005.093,0,.094,0,.094,0,.094,0,.093.005.094.008.094.009.093.012.092.014.093.015.092.018.092.021c.03.006.06.014.09.022l.092.023.089.027.09.028.089.03.087.033.089.033.086.037.086.038.085.04.084.042.083.043.081.046.082.048.079.05.078.05.079.054.076.054.075.056.073.058c.025.02.049.039.073.06l.071.061L50.39,27l.068.065c.023.021.046.043.067.066s.044.044.065.067l.064.069.062.07.061.072c.02.024.04.048.059.073s.038.049.057.075.037.049.055.076.036.05.053.076l.053.078c.017.026.034.052.05.079s.033.054.048.081.033.054.047.081l.045.082c.015.028.029.056.043.084s.028.056.041.085l.039.085c.013.028.025.057.037.086l.036.087c.011.029.022.058.032.087s.022.06.031.089.021.059.03.089.019.06.028.089l.024.091.024.092c.007.03.014.06.02.09s.013.062.019.093l.018.092c.005.031.01.062.014.093s.009.062.012.092l.012.094c0,.031.005.062.007.093l.007.094,0,.094C51.723,29.944,51.724,29.976,51.724,30.007Z" transform="translate(0 0)"/>
      <path fill="#010101" d="M5.784,35.97a6.765,6.765,0,0,1,.041-.8,6.652,6.652,0,0,1,.22-1.23,7.857,7.857,0,0,1,.364-1.049c.134-.3.257-.565.371-.788a5.23,5.23,0,0,1,.483-.746q.312-.413.525-.659t.539-.558a8.317,8.317,0,0,1,.78-.649,8.03,8.03,0,0,1,.941-.6,9.511,9.511,0,0,1,1.049-.483,8.029,8.029,0,0,1,1.207-.362,9.125,9.125,0,0,1,1.3-.189,7.265,7.265,0,0,1,1.287.015c.422.043.752.088.99.137s.473.106.705.176.434.136.6.2.344.137.529.223l.456.212a4.6,4.6,0,0,1,.522.309c.229.15.4.267.522.349a4.9,4.9,0,0,1,.472.38q.293.258.531.484a6.209,6.209,0,0,1,.579.656,7.854,7.854,0,0,1,.548.774q.209.342.319.561c.074.147.122.247.146.3l.059.134c.017.036.034.078.051.124s.038.1.061.151.079.2.167.442a5.884,5.884,0,0,1,.23.863q.1.5.129.793t.042.834" transform="translate(0 0)"/>
      <path fill="#010101" d="M44.553,36.122a4.86,4.86,0,0,1,.027-.527,4.374,4.374,0,0,1,.145-.809,5.136,5.136,0,0,1,.241-.69q.13-.3.244-.519a3.338,3.338,0,0,1,.317-.491q.206-.271.346-.434c.094-.108.212-.23.354-.368a5.571,5.571,0,0,1,.513-.426,5.443,5.443,0,0,1,.62-.395,5.883,5.883,0,0,1,.691-.318,5.262,5.262,0,0,1,.794-.238,5.973,5.973,0,0,1,.852-.125,4.88,4.88,0,0,1,.847.01q.417.042.651.09c.156.032.311.07.465.117s.286.088.4.129.226.09.348.148l.3.14a2.941,2.941,0,0,1,.344.2l.344.229a3.573,3.573,0,0,1,.31.251c.128.113.244.219.35.318a4.136,4.136,0,0,1,.381.433,5.19,5.19,0,0,1,.36.509c.091.15.161.273.21.37s.081.161.1.2.029.064.039.089.022.051.033.081.025.064.04.1.052.133.11.291a3.851,3.851,0,0,1,.152.568q.066.33.085.521c.012.126.022.309.028.549" transform="translate(0 0)"/>
      <path fill="#010101" d="M18.065,24.431H46.39V36.018H18.065Z" transform="translate(0 0)"/>
      <path fill="#010101" d="M24.319,17.534H38.774v9.2H24.319Z" transform="translate(0 0)"/>
      <path fill="#010101" d="M42.95,17.8v.122l0,.122-.006.121c0,.041-.005.081-.008.122s-.006.081-.011.122-.008.08-.013.12-.011.081-.017.121-.012.081-.019.121-.014.079-.022.119-.016.08-.025.12-.017.079-.027.119-.019.078-.03.117-.021.079-.032.117l-.036.118c-.012.039-.025.077-.038.115s-.026.077-.04.115l-.043.114c-.015.038-.03.076-.046.113s-.031.075-.048.112l-.051.111c-.017.037-.035.073-.053.109s-.037.073-.056.109l-.058.107-.06.106c-.021.035-.042.07-.064.1s-.042.069-.065.1l-.067.1-.07.1-.072.1c-.025.032-.049.064-.075.1s-.05.064-.076.1l-.078.093-.081.091c-.027.031-.055.061-.082.09l-.085.088-.088.085-.088.084-.09.082-.092.079-.094.078q-.048.039-.1.075l-.1.073c-.033.024-.066.048-.1.071l-.1.069c-.033.023-.067.045-.1.067l-.1.063-.1.062-.107.059c-.035.019-.071.039-.107.057l-.11.055c-.036.018-.073.035-.109.051s-.075.034-.112.051l-.112.047-.114.043-.114.043-.116.039-.116.037L39,23.051l-.117.032-.119.029-.119.025-.12.024-.119.02-.121.018-.121.014c-.04.006-.081.01-.122.013l-.121.01-.121.006c-.041,0-.082,0-.122,0h-.244c-.04,0-.081,0-.122,0l-.122-.006-.121-.01c-.041,0-.081-.007-.121-.013L36.83,23.2c-.04-.005-.081-.011-.121-.018l-.12-.02c-.04-.008-.08-.015-.119-.024l-.12-.025-.118-.029-.118-.032L36,23.018l-.116-.037-.117-.039-.114-.043-.113-.043-.113-.047c-.037-.017-.074-.033-.111-.051s-.073-.033-.11-.051l-.109-.055c-.036-.018-.072-.038-.108-.057s-.071-.039-.106-.059l-.1-.062-.1-.063-.1-.067-.1-.069c-.034-.023-.067-.047-.1-.071l-.1-.073q-.048-.036-.1-.075l-.094-.078-.092-.079-.091-.082-.088-.084-.087-.085c-.028-.029-.057-.058-.085-.088s-.055-.059-.082-.09-.055-.06-.081-.091l-.079-.093c-.026-.031-.051-.063-.076-.1l-.075-.1-.071-.1-.071-.1c-.022-.034-.044-.068-.067-.1s-.044-.069-.064-.1-.043-.069-.064-.1l-.061-.106-.058-.107-.056-.109c-.018-.036-.035-.072-.052-.109s-.034-.074-.052-.111l-.048-.112c-.015-.037-.031-.075-.046-.113l-.042-.114c-.014-.038-.028-.076-.04-.115s-.026-.076-.038-.115-.025-.078-.036-.118-.022-.077-.033-.117l-.03-.117c-.009-.04-.018-.079-.026-.119s-.018-.08-.025-.12-.016-.08-.022-.119-.014-.081-.019-.121-.012-.08-.017-.121l-.014-.12c0-.041-.008-.081-.011-.122s0-.081-.008-.122,0-.081-.005-.121,0-.082,0-.122V17.8c0-.041,0-.081,0-.122s0-.081.005-.121,0-.082.008-.122.007-.081.011-.121l.014-.122c0-.04.011-.08.017-.121s.012-.08.019-.119.014-.081.022-.121.016-.079.025-.119.017-.079.026-.118l.03-.119.033-.117c.011-.039.023-.078.036-.116s.024-.078.038-.117.026-.077.04-.115l.042-.114c.015-.037.031-.075.046-.113l.048-.112c.018-.037.035-.074.052-.11s.034-.073.052-.11.038-.072.056-.108l.058-.108.061-.105c.021-.035.042-.07.064-.1s.042-.068.064-.1l.067-.1.071-.1.071-.1.075-.1c.025-.032.05-.064.076-.095s.053-.063.079-.093l.08-.092.083-.089.085-.088c.028-.029.057-.057.087-.086L33.9,13.9l.091-.081.092-.08.094-.077.1-.076c.032-.024.064-.049.1-.072s.066-.048.1-.071.066-.047.1-.069.068-.045.1-.066l.1-.065.1-.061c.035-.021.07-.04.106-.06l.108-.057.109-.055.11-.051c.037-.017.074-.034.111-.049s.075-.032.113-.047.075-.031.113-.045l.114-.041.117-.039L36,12.7l.116-.035.118-.031.118-.028.12-.026.119-.023.12-.022.121-.017c.04-.006.08-.011.121-.015s.08-.009.121-.012l.121-.01.122-.007.122-.005h.244l.122.005.121.007.121.01c.041,0,.082.007.122.012l.121.015.121.017.119.022.12.023.119.026.119.028.117.031.118.035.115.037c.039.012.077.025.116.039l.114.041q.057.021.114.045c.038.015.075.03.112.047s.075.032.112.049l.109.053.11.053.107.057c.036.02.072.039.107.06l.1.061.1.065c.034.021.068.043.1.066s.068.045.1.069.067.047.1.071l.1.072.1.076.094.077.092.08.09.081.088.084.088.086.085.088.082.089.081.092q.039.045.078.093c.026.031.052.063.076.095s.05.064.075.1.049.064.072.1l.07.1.067.1c.023.035.044.069.065.1l.064.1.06.105.058.108c.019.036.038.072.056.108s.036.073.053.11.035.073.051.11.033.075.048.112.031.076.046.113l.043.114c.014.039.027.077.04.115s.026.078.038.117l.036.116c.011.039.022.078.032.117s.02.079.03.119.019.079.027.118.017.08.025.12.015.079.022.12.013.08.019.119.012.081.017.121.01.081.013.122.008.08.011.121.006.081.008.122l.006.121Z" transform="translate(0 0)"/>
    </g>
    <g>
      <path fill="none" d="M4.606,54.65l2.2-3.114" transform="translate(0 0)" stroke-linejoin="round" stroke-linecap="round" stroke="#010101"/>
      <path fill="none" d="M8.17,49.608l1.677-2.372" transform="translate(0 0)" stroke-linejoin="round" stroke-linecap="round" stroke="#010101"/>
      <path fill="none" d="M11.209,45.31l1.8-2.544" transform="translate(0 0)" stroke-linejoin="round" stroke-linecap="round" stroke="#010101"/>
      <path fill="none" d="M14.364,40.847,15.9,38.676" transform="translate(0 0)" stroke-linejoin="round" stroke-linecap="round" stroke="#010101"/>
      <path fill="none" d="M17.256,36.757l.636-.9" transform="translate(0 0)" stroke-linejoin="round" stroke-linecap="round" stroke="#010101"/>
      <path fill="none" d="M8.408,54.618l2.728-3.86" transform="translate(0 0)" stroke-linejoin="round" stroke-linecap="round" stroke="#010101"/>
      <path fill="none" d="M12.5,48.838l2.85-4.031" transform="translate(0 0)" stroke-linejoin="round" stroke-linecap="round" stroke="#010101"/>
      <path fill="none" d="M16.7,42.886l1.909-2.7" transform="translate(0 0)" stroke-linejoin="round" stroke-linecap="round" stroke="#010101"/>
      <path fill="none" d="M19.972,38.261l1.722-2.436" transform="translate(0 0)" stroke-linejoin="round" stroke-linecap="round" stroke="#010101"/>
      <path fill="none" d="M12.245,54.619,13.957,52.2" transform="translate(0 0)" stroke-linejoin="round" stroke-linecap="round" stroke="#010101"/>
      <path fill="none" d="M15.315,50.277l2.672-3.78" transform="translate(0 0)" stroke-linejoin="round" stroke-linecap="round" stroke="#010101"/>
      <path fill="none" d="M19.344,44.577,21.5,41.533" transform="translate(0 0)" stroke-linejoin="round" stroke-linecap="round" stroke="#010101"/>
      <path fill="none" d="M22.862,39.6l2.67-3.776" transform="translate(0 0)" stroke-linejoin="round" stroke-linecap="round" stroke="#010101"/>
      <path fill="none" d="M16.116,54.623l1.322-1.871" transform="translate(0 0)" stroke-linejoin="round" stroke-linecap="round" stroke="#010101"/>
      <path fill="none" d="M18.811,50.81,21.4,47.147" transform="translate(0 0)" stroke-linejoin="round" stroke-linecap="round" stroke="#010101"/>
      <path fill="none" d="M22.765,45.217l1.841-2.6" transform="translate(0 0)" stroke-linejoin="round" stroke-linecap="round" stroke="#010101"/>
      <path fill="none" d="M25.991,40.655l.99-1.4" transform="translate(0 0)" stroke-linejoin="round" stroke-linecap="round" stroke="#010101"/>
      <path fill="none" d="M28.346,37.324,29.4,35.83" transform="translate(0 0)" stroke-linejoin="round" stroke-linecap="round" stroke="#010101"/>
      <path fill="none" d="M19.715,54.692l2.13-3.013" transform="translate(0 0)" stroke-linejoin="round" stroke-linecap="round" stroke="#010101"/>
      <path fill="none" d="M23.225,49.728l1.452-2.054" transform="translate(0 0)" stroke-linejoin="round" stroke-linecap="round" stroke="#010101"/>
      <path fill="none" d="M26.046,45.737l1.1-1.551" transform="translate(0 0)" stroke-linejoin="round" stroke-linecap="round" stroke="#010101"/>
      <path fill="none" d="M28.5,42.261l1.375-1.943" transform="translate(0 0)" stroke-linejoin="round" stroke-linecap="round" stroke="#010101"/>
      <path fill="none" d="M31.236,38.4,33,35.9" transform="translate(0 0)" stroke-linejoin="round" stroke-linecap="round" stroke="#010101"/>
      <path fill="none" d="M23.3,54.752l2-2.824" transform="translate(0 0)" stroke-linejoin="round" stroke-linecap="round" stroke="#010101"/>
      <path fill="none" d="M26.675,49.974,28.212,47.8" transform="translate(0 0)" stroke-linejoin="round" stroke-linecap="round" stroke="#010101"/>
      <path fill="none" d="M29.617,45.813,31.3,43.431" transform="translate(0 0)" stroke-linejoin="round" stroke-linecap="round" stroke="#010101"/>
      <path fill="none" d="M32.714,41.433l.693-.981" transform="translate(0 0)" stroke-linejoin="round" stroke-linecap="round" stroke="#010101"/>
      <path fill="none" d="M34.769,38.524l1.815-2.564" transform="translate(0 0)" stroke-linejoin="round" stroke-linecap="round" stroke="#010101"/>
      <path fill="none" d="M27.1,54.719l.3-.43" transform="translate(0 0)" stroke-linejoin="round" stroke-linecap="round" stroke="#010101"/>
      <path fill="none" d="M28.762,52.368l1.977-2.8" transform="translate(0 0)" stroke-linejoin="round" stroke-linecap="round" stroke="#010101"/>
      <path fill="none" d="M32.1,47.654l1.74-2.461" transform="translate(0 0)" stroke-linejoin="round" stroke-linecap="round" stroke="#010101"/>
      <path fill="none" d="M35.2,43.263l1.2-1.7" transform="translate(0 0)" stroke-linejoin="round" stroke-linecap="round" stroke="#010101"/>
      <path fill="none" d="M37.757,39.648l2.629-3.722" transform="translate(0 0)" stroke-linejoin="round" stroke-linecap="round" stroke="#010101"/>
      <path fill="none" d="M30.936,54.721l3.728-5.273" transform="translate(0 0)" stroke-linejoin="round" stroke-linecap="round" stroke="#010101"/>
      <path fill="none" d="M36.047,47.491l2.221-3.139" transform="translate(0 0)" stroke-linejoin="round" stroke-linecap="round" stroke="#010101"/>
      <path fill="none" d="M39.655,42.389l.968-1.37" transform="translate(0 0)" stroke-linejoin="round" stroke-linecap="round" stroke="#010101"/>
      <path fill="none" d="M41.985,39.093l2.239-3.165" transform="translate(0 0)" stroke-linejoin="round" stroke-linecap="round" stroke="#010101"/>
    </g>
  </g>
</svg>