<svg xmlns:sodipodi="http://sodipodi.sourceforge.net/DTD/sodipodi-0.dtd" width="60" xmlns:svg="http://www.w3.org/2000/svg" xmlns:inkscape="http://www.inkscape.org/namespaces/inkscape" sodipodi:docname="Range.svg" inkscape:version="1.1 (c68e22c387, 2021-05-23)" height="60" id="svg56" viewBox="0 0 60 60" xmlns="http://www.w3.org/2000/svg" version="1.1">
  <defs id="defs60"/>
  <sodipodi:namedview bordercolor="#666666" inkscape:window-height="1081" inkscape:pagecheckerboard="0" inkscape:zoom="14.55" id="namedview58" inkscape:current-layer="svg56" inkscape:window-y="200" inkscape:cy="30" inkscape:window-x="694" inkscape:cx="30" showgrid="false" inkscape:pageopacity="0.0" inkscape:pageshadow="2" inkscape:window-width="1544" inkscape:window-maximized="0" borderopacity="1.0" pagecolor="#ffffff"/>
  <rect fill="#999" x="15" width="45" id="rect2" height="60"/>
  <g id="g14">
    <rect fill="#999" width="60" id="rect4" height="60"/>
    <polygon fill="#666766" id="polygon6" fill-rule="evenodd" points="31.281 30.545 31.281 0 0 0 31.281 30.545"/>
    <polygon fill="#666766" id="polygon8" fill-rule="evenodd" points="60 60 60 30 29.277 30 60 60"/>
    <rect fill="#666766" x="2.768" width="57.232" id="rect10" height="32.403"/>
    <rect fill="#cccccb" x="2.768" width="54.496" id="rect12" y="2.649" height="54.702"/>
  </g>
  <g id="g187" transform="translate(0.5746831,0.73081614)">
    <path fill="#333333" id="path20" d="m 38.076552,34.629628 a 5.84,5.84 0 0 1 -1.243,-0.134 3.512,3.512 0 0 1 -1.089,-0.433 0.5,0.5 0 0 1 -0.238,-0.233 0.461,0.461 0 0 1 -0.03,-0.283 0.527,0.527 0 0 1 0.125,-0.252 0.458,0.458 0 0 1 0.232,-0.144 0.394,0.394 0 0 1 0.291,0.048 3.683,3.683 0 0 0 1,0.39 4.131,4.131 0 0 0 0.875,0.1 1.678,1.678 0 0 0 1.25,-0.426 1.727,1.727 0 0 0 0.416,-1.254 v -1.213 h 0.107 a 1.784,1.784 0 0 1 -0.75,1.044 2.319,2.319 0 0 1 -1.321,0.383 2.53,2.53 0 0 1 -1.369,-0.365 2.46,2.46 0 0 1 -0.9,-1.02 3.438,3.438 0 0 1 -0.321,-1.531 3.587,3.587 0 0 1 0.184,-1.188 2.74,2.74 0 0 1 0.524,-0.912 2.322,2.322 0 0 1 0.822,-0.594 2.636,2.636 0 0 1 1.054,-0.217 2.306,2.306 0 0 1 1.327,0.383 1.739,1.739 0 0 1 0.732,1.044 l -0.119,0.2 v -1 a 0.609,0.609 0 0 1 0.161,-0.456 0.691,0.691 0 0 1 0.875,0 0.623,0.623 0 0 1 0.155,0.456 v 4.836 a 2.786,2.786 0 0 1 -0.7,2.064 2.789,2.789 0 0 1 -2.05,0.707 z m -0.1,-3.359 a 1.6,1.6 0 0 0 0.893,-0.241 1.564,1.564 0 0 0 0.572,-0.684 2.509,2.509 0 0 0 0.2,-1.044 2.141,2.141 0 0 0 -0.446,-1.427 1.516,1.516 0 0 0 -1.221,-0.529 1.583,1.583 0 0 0 -0.881,0.24 1.625,1.625 0 0 0 -0.577,0.678 2.412,2.412 0 0 0 -0.208,1.038 2.144,2.144 0 0 0 0.452,1.44 1.518,1.518 0 0 0 1.22,0.529 z"/>
    <path fill="#333333" d="m 46.610782,32.725973 a 3.4356,3.4356 0 0 1 -1.638,-0.36 2.5788,2.5788 0 0 1 -1.0584,-1.044 3.2904,3.2904 0 0 1 -0.3756,-1.614 3.3096,3.3096 0 0 1 0.372,-1.602 2.7192,2.7192 0 0 1 1.0116,-1.068 3.0156,3.0156 0 0 1 2.5476,-0.186 2.232,2.232 0 0 1 0.8148,0.576 2.4624,2.4624 0 0 1 0.5112,0.918 3.9252,3.9252 0 0 1 0.174,1.212 0.3828,0.3828 0 0 1 -0.12,0.306 0.5328,0.5328 0 0 1 -0.36,0.102 h -3.9984 v -0.744 h 3.666 l -0.2028,0.168 a 2.7012,2.7012 0 0 0 -0.1716,-1.02 1.3656,1.3656 0 0 0 -0.5124,-0.642 1.5036,1.5036 0 0 0 -0.84,-0.222 1.6368,1.6368 0 0 0 -0.9468,0.264 1.656,1.656 0 0 0 -0.5892,0.732 2.7408,2.7408 0 0 0 -0.2028,1.092 v 0.072 a 2.2704,2.2704 0 0 0 0.4944,1.59 1.8612,1.8612 0 0 0 1.44,0.534 3.246,3.246 0 0 0 0.756,-0.096 2.4432,2.4432 0 0 0 0.756,-0.324 0.6288,0.6288 0 0 1 0.36,-0.108 0.4032,0.4032 0 0 1 0.3864,0.348 0.4944,0.4944 0 0 1 -0.0468,0.294 0.7056,0.7056 0 0 1 -0.2472,0.27 2.9844,2.9844 0 0 1 -0.9408,0.414 4.1196,4.1196 0 0 1 -1.0392,0.138 z" id="path18" style="stroke-width:1.2"/>
    <path fill="#333333" d="m 27.684795,32.57436 a 0.5796,0.5796 0 0 1 -0.4404,-0.162 0.6252,0.6252 0 0 1 -0.1548,-0.45 v -4.8 a 0.6192,0.6192 0 0 1 0.1548,-0.456 0.6744,0.6744 0 0 1 0.8628,0 0.6324,0.6324 0 0 1 0.1488,0.456 v 0.936 l -0.1308,-0.216 a 1.9932,1.9932 0 0 1 0.822,-1.014 2.4096,2.4096 0 0 1 1.2852,-0.342 2.3064,2.3064 0 0 1 1.1484,0.258 1.584,1.584 0 0 1 0.684,0.78 3.3096,3.3096 0 0 1 0.2268,1.32 v 3.084 a 0.6252,0.6252 0 0 1 -0.1548,0.45 0.5796,0.5796 0 0 1 -0.4404,0.162 0.6,0.6 0 0 1 -0.4524,-0.162 0.6252,0.6252 0 0 1 -0.1548,-0.45 v -3.018 a 1.7052,1.7052 0 0 0 -0.2916,-1.104 1.1196,1.1196 0 0 0 -0.9108,-0.348 1.5288,1.5288 0 0 0 -1.1604,0.456 1.7016,1.7016 0 0 0 -0.4344,1.224 v 2.784 a 0.5388,0.5388 0 0 1 -0.6072,0.612 z" id="path22" style="stroke-width:1.2"/>
    <path fill="#333333" d="m 21.027981,32.45265 a 2.4,2.4 0 0 1 -1.0884,-0.24 1.92,1.92 0 0 1 -0.756,-0.648 1.6128,1.6128 0 0 1 -0.2748,-0.924 1.5132,1.5132 0 0 1 0.3276,-1.026 1.9368,1.9368 0 0 1 1.08,-0.54 10.1724,10.1724 0 0 1 2.04,-0.162 h 0.5592 v 0.744 h -0.5424 a 8.7,8.7 0 0 0 -1.3572,0.084 1.3548,1.3548 0 0 0 -0.708,0.282 0.72,0.72 0 0 0 -0.2088,0.546 0.9492,0.9492 0 0 0 0.3096,0.738 1.23,1.23 0 0 0 0.858,0.282 1.4148,1.4148 0 0 0 0.7728,-0.21 1.5132,1.5132 0 0 0 0.5292,-0.57 1.6896,1.6896 0 0 0 0.198,-0.828 v -1.38 a 1.3968,1.3968 0 0 0 -0.2868,-0.984 1.2552,1.2552 0 0 0 -0.9396,-0.3 3.4968,3.4968 0 0 0 -0.792,0.096 3.7668,3.7668 0 0 0 -0.8508,0.324 0.5256,0.5256 0 0 1 -0.3456,0.06 0.3804,0.3804 0 0 1 -0.2268,-0.1608 0.5484,0.5484 0 0 1 -0.0888,-0.2772 0.57,0.57 0 0 1 0.072,-0.294 0.48,0.48 0 0 1 0.2676,-0.216 4.5504,4.5504 0 0 1 1.0356,-0.36 4.68,4.68 0 0 1 0.96,-0.108 2.9928,2.9928 0 0 1 1.32,0.2532 1.6032,1.6032 0 0 1 0.7668,0.7668 3.0576,3.0576 0 0 1 0.2508,1.3332 v 3.0828 a 0.66,0.66 0 0 1 -0.1428,0.45 0.5292,0.5292 0 0 1 -0.4176,0.162 0.5496,0.5496 0 0 1 -0.4164,-0.162 0.6252,0.6252 0 0 1 -0.1548,-0.45 v -0.78 h 0.108 a 1.8144,1.8144 0 0 1 -0.3516,0.762 1.6728,1.6728 0 0 1 -0.6372,0.4872 2.16,2.16 0 0 1 -0.8688,0.1668 z" id="path48" style="stroke-width:1.2"/>
    <path fill="#333333" d="m 10.499374,32.452866 a 0.6,0.6 0 0 1 -0.4572,-0.168 0.6468,0.6468 0 0 1 -0.1608002,-0.468 v -7.272 a 0.6288,0.6288 0 0 1 0.1668002,-0.474 0.636,0.636 0 0 1 0.4644,-0.162 h 2.843999 a 3.0756,3.0756 0 0 1 2.095201,0.648 2.3136,2.3136 0 0 1 0.738,1.836 2.508,2.508 0 0 1 -0.3336,1.32 2.1108,2.1108 0 0 1 -0.9696,0.84 3.696,3.696 0 0 1 -1.530001,0.288 l 0.108,-0.168 h 0.3096 a 1.4328,1.4328 0 0 1 0.8268,0.24 2.142,2.142 0 0 1 0.637201,0.768 l 1.0236,1.92 a 0.8112,0.8112 0 0 1 0.1128,0.414 0.42,0.42 0 0 1 -0.1428,0.318 0.5724,0.5724 0 0 1 -0.3864,0.12 0.7128,0.7128 0 0 1 -0.4224,-0.12 1.0512,1.0512 0 0 1 -0.2928,-0.342 l -1.249201,-2.328 a 1.4208,1.4208 0 0 0 -0.5712,-0.63 1.89,1.89 0 0 0 -0.839999,-0.162 h -1.344 v 2.946 a 0.6708,0.6708 0 0 1 -0.1548,0.468 0.6072,0.6072 0 0 1 -0.4716,0.168 z m 0.6204,-4.512 h 2.039999 a 2.1096,2.1096 0 0 0 1.3692,-0.384 1.3968,1.3968 0 0 0 0.463201,-1.14 1.3824,1.3824 0 0 0 -0.463201,-1.128 2.1096,2.1096 0 0 0 -1.3692,-0.384 h -2.039999 z" id="path16" style="stroke-width:1.2"/>
  </g>
</svg>