<svg width="60" height="60" xmlns="http://www.w3.org/2000/svg" viewBox="0 0 60 60">
  <rect fill="#999" x="15" width="45" height="60"/>
  <g>
    <rect fill="#999" height="60" width="60"/>
    <polygon fill="#666766" points="31.281 30.545 31.281 0 0 0 31.281 30.545" fill-rule="evenodd"/>
    <polygon fill="#666766" points="60 60 60 30 29.277 30 60 60" fill-rule="evenodd"/>
    <rect fill="#666766" x="2.768" width="57.232" height="32.403"/>
    <rect fill="#cccccb" x="2.768" width="54.496" height="54.702" y="2.649"/>
  </g>
  <g>
    <path fill="#333" d="M10.106,15.63a.5.5,0,0,1-.381-.14.539.539,0,0,1-.134-.39V9.04a.524.524,0,0,1,.139-.395.53.53,0,0,1,.387-.135h2.37a2.563,2.563,0,0,1,1.746.54,1.928,1.928,0,0,1,.615,1.53,2.09,2.09,0,0,1-.278,1.1,1.759,1.759,0,0,1-.808.7,3.08,3.08,0,0,1-1.275.24l.09-.14h.258a1.194,1.194,0,0,1,.689.2,1.785,1.785,0,0,1,.531.64l.853,1.6a.676.676,0,0,1,.094.345.35.35,0,0,1-.119.265.477.477,0,0,1-.322.1.594.594,0,0,1-.352-.1.876.876,0,0,1-.244-.285l-1.041-1.94a1.184,1.184,0,0,0-.476-.525,1.575,1.575,0,0,0-.7-.135h-1.12V15.1a.559.559,0,0,1-.129.39A.506.506,0,0,1,10.106,15.63Zm.517-3.76h1.7a1.758,1.758,0,0,0,1.141-.32,1.164,1.164,0,0,0,.386-.95,1.152,1.152,0,0,0-.386-.94,1.758,1.758,0,0,0-1.141-.32h-1.7Z"/>
    <path fill="#333" d="M18.35,15.65a2.863,2.863,0,0,1-1.365-.3,2.149,2.149,0,0,1-.882-.87,2.742,2.742,0,0,1-.313-1.345A2.758,2.758,0,0,1,16.1,11.8a2.266,2.266,0,0,1,.843-.89,2.513,2.513,0,0,1,2.123-.155,1.86,1.86,0,0,1,.679.48,2.052,2.052,0,0,1,.426.765,3.271,3.271,0,0,1,.145,1.01.319.319,0,0,1-.1.255.444.444,0,0,1-.3.085H16.584v-.62h3.055l-.169.14a2.251,2.251,0,0,0-.143-.85,1.138,1.138,0,0,0-.427-.535,1.253,1.253,0,0,0-.7-.185,1.364,1.364,0,0,0-.789.22,1.38,1.38,0,0,0-.491.61,2.284,2.284,0,0,0-.169.91v.06a1.892,1.892,0,0,0,.412,1.325,1.551,1.551,0,0,0,1.2.445,2.705,2.705,0,0,0,.63-.08,2.036,2.036,0,0,0,.63-.27.524.524,0,0,1,.3-.09.336.336,0,0,1,.322.29.412.412,0,0,1-.039.245A.588.588,0,0,1,20,15.19a2.487,2.487,0,0,1-.784.345A3.433,3.433,0,0,1,18.35,15.65Z"/>
    <path fill="#333" d="M21.9,9.59a.658.658,0,0,1-.461-.15.626.626,0,0,1,0-.845.807.807,0,0,1,.923,0,.629.629,0,0,1,0,.845A.66.66,0,0,1,21.9,9.59Zm0,6.03a.465.465,0,0,1-.367-.145.59.59,0,0,1-.129-.4v-3.9a.568.568,0,0,1,.129-.4.476.476,0,0,1,.367-.14.491.491,0,0,1,.372.14.551.551,0,0,1,.134.4v3.9a.59.59,0,0,1-.129.4A.476.476,0,0,1,21.9,15.62Z"/>
    <path fill="#333" d="M24.311,15.63a.483.483,0,0,1-.367-.135.521.521,0,0,1-.129-.375v-4a.516.516,0,0,1,.129-.38.562.562,0,0,1,.719,0,.527.527,0,0,1,.124.38v.78l-.109-.18a1.661,1.661,0,0,1,.685-.845,2.008,2.008,0,0,1,1.071-.285,1.922,1.922,0,0,1,.957.215,1.32,1.32,0,0,1,.57.65,2.758,2.758,0,0,1,.189,1.1v2.57a.521.521,0,0,1-.129.375.483.483,0,0,1-.367.135.5.5,0,0,1-.377-.135.521.521,0,0,1-.129-.375V12.61a1.421,1.421,0,0,0-.243-.92.933.933,0,0,0-.759-.29,1.274,1.274,0,0,0-.967.38,1.418,1.418,0,0,0-.362,1.02v2.32A.449.449,0,0,1,24.311,15.63Z"/>
    <path fill="#333" d="M30.322,15.63a.5.5,0,0,1-.372-.135.51.51,0,0,1-.134-.375V11.46h-.555a.412.412,0,0,1-.3-.105.376.376,0,0,1-.109-.285.371.371,0,0,1,.109-.29.423.423,0,0,1,.3-.1H30.1l-.288.27v-.36A2.076,2.076,0,0,1,30.3,9.1a2.185,2.185,0,0,1,1.419-.6l.307-.02a.376.376,0,0,1,.268.05.314.314,0,0,1,.129.18.475.475,0,0,1,.005.225.445.445,0,0,1-.1.205.289.289,0,0,1-.2.1l-.188.01a1.281,1.281,0,0,0-.853.335,1.221,1.221,0,0,0-.268.865v.39l-.139-.16h1.1a.436.436,0,0,1,.313.1.384.384,0,0,1,.1.29.389.389,0,0,1-.1.285.424.424,0,0,1-.313.105h-.962v3.66A.445.445,0,0,1,30.322,15.63Z"/>
    <path fill="#333" d="M34.935,15.65a2.458,2.458,0,0,1-1.265-.31,2.139,2.139,0,0,1-.828-.88,2.851,2.851,0,0,1-.3-1.34,3.024,3.024,0,0,1,.169-1.05,2.3,2.3,0,0,1,.481-.795,2.048,2.048,0,0,1,.754-.51,2.649,2.649,0,0,1,.987-.175,2.437,2.437,0,0,1,1.254.31,2.154,2.154,0,0,1,.829.875,2.855,2.855,0,0,1,.3,1.345,3.1,3.1,0,0,1-.168,1.05,2.269,2.269,0,0,1-.481.8,2.082,2.082,0,0,1-.754.5A2.622,2.622,0,0,1,34.935,15.65Zm0-.78a1.283,1.283,0,0,0,.714-.2,1.326,1.326,0,0,0,.481-.59,2.353,2.353,0,0,0,.174-.96,1.952,1.952,0,0,0-.377-1.3,1.245,1.245,0,0,0-.992-.44,1.328,1.328,0,0,0-.725.195,1.282,1.282,0,0,0-.48.585,2.353,2.353,0,0,0-.174.96,1.976,1.976,0,0,0,.377,1.3A1.241,1.241,0,0,0,34.935,14.87Z"/>
    <path fill="#333" d="M38.942,15.63a.5.5,0,0,1-.377-.135.521.521,0,0,1-.129-.375v-4a.516.516,0,0,1,.129-.38.562.562,0,0,1,.719,0,.527.527,0,0,1,.124.38v.73h-.1a1.576,1.576,0,0,1,.586-.91,2.078,2.078,0,0,1,1.09-.36.36.36,0,0,1,.283.09.438.438,0,0,1,.114.31.422.422,0,0,1-.089.335.484.484,0,0,1-.337.145l-.189.02a1.508,1.508,0,0,0-.982.41,1.328,1.328,0,0,0-.337.96v2.27a.532.532,0,0,1-.124.375A.5.5,0,0,1,38.942,15.63Z"/>
    <path fill="#333" d="M44.2,15.65a2.5,2.5,0,0,1-1.284-.315,2.144,2.144,0,0,1-.838-.89,2.9,2.9,0,0,1-.3-1.355,3.034,3.034,0,0,1,.169-1.045,2.071,2.071,0,0,1,1.244-1.28,2.8,2.8,0,0,1,1.736-.07,2.166,2.166,0,0,1,.71.345.348.348,0,0,1,.163.2.468.468,0,0,1,.01.235.406.406,0,0,1-.109.205.336.336,0,0,1-.2.1.416.416,0,0,1-.258-.065,1.658,1.658,0,0,0-.962-.32,1.606,1.606,0,0,0-.63.115,1.239,1.239,0,0,0-.461.33,1.4,1.4,0,0,0-.283.535,2.576,2.576,0,0,0-.094.73,1.971,1.971,0,0,0,.381,1.285,1.327,1.327,0,0,0,1.087.465,1.781,1.781,0,0,0,.476-.07,1.594,1.594,0,0,0,.486-.24.391.391,0,0,1,.258-.06.314.314,0,0,1,.193.105.436.436,0,0,1,.1.2.441.441,0,0,1-.016.235.37.37,0,0,1-.168.2,2.1,2.1,0,0,1-.69.33A2.791,2.791,0,0,1,44.2,15.65Z"/>
    <path fill="#333" d="M48.872,15.65a2.863,2.863,0,0,1-1.365-.3,2.149,2.149,0,0,1-.882-.87,2.742,2.742,0,0,1-.313-1.345,2.758,2.758,0,0,1,.308-1.33,2.259,2.259,0,0,1,.843-.89,2.511,2.511,0,0,1,2.122-.155,1.855,1.855,0,0,1,.68.48,2.052,2.052,0,0,1,.426.765,3.272,3.272,0,0,1,.144,1.01.319.319,0,0,1-.1.255.444.444,0,0,1-.3.085H47.105v-.62h3.056l-.169.14a2.251,2.251,0,0,0-.143-.85,1.138,1.138,0,0,0-.427-.535,1.253,1.253,0,0,0-.7-.185,1.364,1.364,0,0,0-.789.22,1.38,1.38,0,0,0-.491.61,2.284,2.284,0,0,0-.169.91v.06a1.892,1.892,0,0,0,.412,1.325,1.55,1.55,0,0,0,1.2.445,2.705,2.705,0,0,0,.63-.08,2.036,2.036,0,0,0,.63-.27.524.524,0,0,1,.3-.09.336.336,0,0,1,.322.29.412.412,0,0,1-.039.245.588.588,0,0,1-.209.225,2.487,2.487,0,0,1-.784.345A3.433,3.433,0,0,1,48.872,15.65Z"/>
    <path fill="#333" d="M29.4,27.65a3.042,3.042,0,0,1-1.235-.23,1.833,1.833,0,0,1-.8-.64,1.67,1.67,0,0,1-.277-.96,2.113,2.113,0,0,1,.089-.63,1.856,1.856,0,0,1,.272-.545,2.883,2.883,0,0,1,.457-.49,5.129,5.129,0,0,1,.62-.455l.327-.21-.139.22a3.885,3.885,0,0,1-.649-.88,1.782,1.782,0,0,1-.194-.8,1.584,1.584,0,0,1,.223-.845,1.488,1.488,0,0,1,.635-.565,2.175,2.175,0,0,1,.958-.2,1.771,1.771,0,0,1,1.2.395,1.36,1.36,0,0,1,.456,1.085,1.707,1.707,0,0,1-.144.69,2,2,0,0,1-.471.64,4.876,4.876,0,0,1-.893.64l.01-.25,1.785,1.97h-.218a3.5,3.5,0,0,0,.234-.52,5.015,5.015,0,0,0,.178-.63,5.3,5.3,0,0,0,.1-.71.525.525,0,0,1,.139-.315.426.426,0,0,1,.308-.105.408.408,0,0,1,.317.12.421.421,0,0,1,.08.35,5.822,5.822,0,0,1-.149.925,5.533,5.533,0,0,1-.268.81,4.485,4.485,0,0,1-.367.7l-.01-.27.972,1.03a.42.42,0,0,1,.144.3.343.343,0,0,1-.119.255.461.461,0,0,1-.313.1.585.585,0,0,1-.292-.065,1.057,1.057,0,0,1-.243-.205l-.695-.76h.239a2.992,2.992,0,0,1-1.007.77A2.928,2.928,0,0,1,29.4,27.65Zm.049-.81a2,2,0,0,0,.943-.215,2.3,2.3,0,0,0,.734-.635l-.03.28-2.073-2.23.406.03-.3.19a4.6,4.6,0,0,0-.61.47,1.389,1.389,0,0,0-.337.465,1.369,1.369,0,0,0-.105.545,1,1,0,0,0,.353.805A1.545,1.545,0,0,0,29.444,26.84Zm.239-5.68a.894.894,0,0,0-.64.23.81.81,0,0,0-.244.62,1.151,1.151,0,0,0,.06.375,1.428,1.428,0,0,0,.223.39q.163.215.441.525h-.247a6.866,6.866,0,0,0,.714-.49,1.537,1.537,0,0,0,.377-.42.9.9,0,0,0,.119-.45.741.741,0,0,0-.223-.575A.824.824,0,0,0,29.683,21.16Z"/>
    <path fill="#333" d="M9.988,39.63a.536.536,0,0,1-.353-.11.808.808,0,0,1-.223-.34L7.28,33.05a.457.457,0,0,1,.034-.435.469.469,0,0,1,.412-.175.53.53,0,0,1,.342.1.653.653,0,0,1,.194.32L10.2,38.6H9.829l1.984-5.72a.915.915,0,0,1,.208-.33.447.447,0,0,1,.317-.11.429.429,0,0,1,.313.11.953.953,0,0,1,.2.34L14.8,38.6h-.328l1.954-5.74a.685.685,0,0,1,.194-.315.5.5,0,0,1,.332-.105.435.435,0,0,1,.382.175.443.443,0,0,1,.025.435l-2.143,6.14a.829.829,0,0,1-.218.33.514.514,0,0,1-.347.11.528.528,0,0,1-.357-.11.75.75,0,0,1-.208-.34L12.21,33.77h.218l-1.9,5.42a.784.784,0,0,1-.2.33A.5.5,0,0,1,9.988,39.63Z"/>
    <path fill="#333" d="M19.361,33.59a.658.658,0,0,1-.461-.15.626.626,0,0,1,0-.845.807.807,0,0,1,.923,0,.629.629,0,0,1,0,.845A.66.66,0,0,1,19.361,33.59Zm0,6.03a.465.465,0,0,1-.367-.145.586.586,0,0,1-.129-.405v-3.9a.569.569,0,0,1,.129-.4.476.476,0,0,1,.367-.14.491.491,0,0,1,.372.14.553.553,0,0,1,.134.4v3.9a.586.586,0,0,1-.129.405A.476.476,0,0,1,19.361,39.62Z"/>
    <path fill="#333" d="M23.339,39.65a2.166,2.166,0,0,1-1-.21,1.332,1.332,0,0,1-.605-.62,2.283,2.283,0,0,1-.2-1V35.46h-.595a.423.423,0,0,1-.308-.105.38.38,0,0,1-.109-.285.375.375,0,0,1,.109-.29.444.444,0,0,1,.308-.1h.595V33.65a.46.46,0,0,1,.506-.51.492.492,0,0,1,.367.13.517.517,0,0,1,.129.38v1.03H23.7a.442.442,0,0,1,.308.1.371.371,0,0,1,.109.29.376.376,0,0,1-.109.285.422.422,0,0,1-.308.105h-1.16v2.28a1.229,1.229,0,0,0,.223.8.9.9,0,0,0,.729.27,1.222,1.222,0,0,0,.313-.035,1.717,1.717,0,0,1,.223-.045.23.23,0,0,1,.178.075.425.425,0,0,1,.07.285.721.721,0,0,1-.055.28.284.284,0,0,1-.193.17,2.319,2.319,0,0,1-.323.075A2.188,2.188,0,0,1,23.339,39.65Z"/>
    <path fill="#333" d="M25.482,39.63a.483.483,0,0,1-.367-.135.521.521,0,0,1-.129-.375V32.95a.517.517,0,0,1,.129-.38.492.492,0,0,1,.367-.13.46.46,0,0,1,.506.51v2.77h-.139a1.661,1.661,0,0,1,.685-.845,2.008,2.008,0,0,1,1.071-.285,1.933,1.933,0,0,1,.957.215,1.325,1.325,0,0,1,.57.65,2.76,2.76,0,0,1,.189,1.1V39.12a.521.521,0,0,1-.129.375.485.485,0,0,1-.367.135.5.5,0,0,1-.377-.135.521.521,0,0,1-.129-.375V36.61a1.422,1.422,0,0,0-.243-.92.936.936,0,0,0-.759-.29,1.274,1.274,0,0,0-.967.38,1.418,1.418,0,0,0-.362,1.021V39.12A.449.449,0,0,1,25.482,39.63Z"/>
    <path fill="#333" d="M32.544,39.65a1.96,1.96,0,0,1-1.864-1.185,3.147,3.147,0,0,1-.268-1.345,3.1,3.1,0,0,1,.268-1.35,2.06,2.06,0,0,1,.749-.87,2.008,2.008,0,0,1,1.115-.31,1.9,1.9,0,0,1,1.1.315,1.531,1.531,0,0,1,.62.845h-.11v-2.8a.517.517,0,0,1,.129-.38.494.494,0,0,1,.367-.13.513.513,0,0,1,.373.13.507.507,0,0,1,.133.38v6.17a.521.521,0,0,1-.129.375.565.565,0,0,1-.733,0,.517.517,0,0,1-.13-.375v-.88l.11.22a1.574,1.574,0,0,1-.621.865A1.867,1.867,0,0,1,32.544,39.65Zm.258-.78a1.286,1.286,0,0,0,.715-.2A1.32,1.32,0,0,0,34,38.08a2.371,2.371,0,0,0,.173-.96,1.952,1.952,0,0,0-.377-1.3,1.243,1.243,0,0,0-.992-.44,1.322,1.322,0,0,0-.724.2,1.29,1.29,0,0,0-.481.585,2.353,2.353,0,0,0-.174.96,1.976,1.976,0,0,0,.377,1.3A1.243,1.243,0,0,0,32.8,38.87Z"/>
    <path fill="#333" d="M37.067,39.63a.5.5,0,0,1-.377-.135.525.525,0,0,1-.128-.375v-4a.523.523,0,0,1,.128-.38.481.481,0,0,1,.358-.13.476.476,0,0,1,.362.13.53.53,0,0,1,.124.38v.73h-.1a1.575,1.575,0,0,1,.585-.91,2.078,2.078,0,0,1,1.091-.36.363.363,0,0,1,.283.09.447.447,0,0,1,.114.31.426.426,0,0,1-.09.335.482.482,0,0,1-.337.145l-.188.02a1.508,1.508,0,0,0-.982.41,1.325,1.325,0,0,0-.337.96v2.27a.537.537,0,0,1-.124.375A.5.5,0,0,1,37.067,39.63Z"/>
    <path fill="#333" d="M41.759,39.65a2,2,0,0,1-.907-.2,1.6,1.6,0,0,1-.63-.54,1.344,1.344,0,0,1-.229-.77,1.261,1.261,0,0,1,.273-.855,1.614,1.614,0,0,1,.9-.45,8.477,8.477,0,0,1,1.7-.135h.466v.62H42.88a7.25,7.25,0,0,0-1.131.07,1.129,1.129,0,0,0-.59.235.6.6,0,0,0-.174.455.791.791,0,0,0,.258.615,1.025,1.025,0,0,0,.715.235,1.179,1.179,0,0,0,.644-.175,1.261,1.261,0,0,0,.441-.475,1.408,1.408,0,0,0,.165-.69V36.44a1.164,1.164,0,0,0-.239-.82,1.046,1.046,0,0,0-.783-.25,2.914,2.914,0,0,0-.66.08,3.139,3.139,0,0,0-.709.27.438.438,0,0,1-.288.05.317.317,0,0,1-.189-.134.457.457,0,0,1-.074-.231.475.475,0,0,1,.06-.245.4.4,0,0,1,.223-.18,3.792,3.792,0,0,1,.863-.3,3.9,3.9,0,0,1,.8-.09,2.494,2.494,0,0,1,1.1.211,1.336,1.336,0,0,1,.639.639,2.548,2.548,0,0,1,.209,1.111V39.12a.55.55,0,0,1-.119.375.441.441,0,0,1-.348.135.458.458,0,0,1-.347-.135.521.521,0,0,1-.129-.375v-.65h.09a1.512,1.512,0,0,1-.293.635,1.394,1.394,0,0,1-.531.406A1.8,1.8,0,0,1,41.759,39.65Z"/>
    <path fill="#333" d="M47.255,39.63a.625.625,0,0,1-.362-.105.692.692,0,0,1-.244-.335L45.191,35.3a.64.64,0,0,1-.049-.356A.386.386,0,0,1,45.3,34.7a.537.537,0,0,1,.323-.09.476.476,0,0,1,.293.085.664.664,0,0,1,.193.325l1.3,3.69h-.237l1.349-3.73a.6.6,0,0,1,.188-.28.5.5,0,0,1,.307-.09.52.52,0,0,1,.313.09.528.528,0,0,1,.183.28l1.32,3.73h-.219L51.927,35a.578.578,0,0,1,.2-.31.506.506,0,0,1,.283-.08.417.417,0,0,1,.3.1.393.393,0,0,1,.12.255.759.759,0,0,1-.055.336L51.322,39.19a.732.732,0,0,1-.243.33.587.587,0,0,1-.352.11.6.6,0,0,1-.363-.11.724.724,0,0,1-.242-.33L48.733,35.4h.5L47.85,39.19a.671.671,0,0,1-.233.33A.6.6,0,0,1,47.255,39.63Z"/>
    <path fill="#333" d="M12.314,51.65a5.577,5.577,0,0,1-.893-.07,4.182,4.182,0,0,1-.824-.215,3.3,3.3,0,0,1-.694-.354.583.583,0,0,1-.2-.25.492.492,0,0,1-.03-.276.484.484,0,0,1,.114-.235.351.351,0,0,1,.506-.04,3.351,3.351,0,0,0,.942.426,4.154,4.154,0,0,0,1.082.134,2.056,2.056,0,0,0,1.245-.3.955.955,0,0,0,.4-.8.777.777,0,0,0-.288-.635,2.317,2.317,0,0,0-.962-.375l-1.061-.22a2.767,2.767,0,0,1-1.4-.66,1.675,1.675,0,0,1-.461-1.24,1.906,1.906,0,0,1,.194-.86,2.029,2.029,0,0,1,.54-.675,2.426,2.426,0,0,1,.833-.435,3.587,3.587,0,0,1,1.062-.15,4.035,4.035,0,0,1,1.155.16,2.928,2.928,0,0,1,.968.49.445.445,0,0,1,.173.225.525.525,0,0,1,.02.265.421.421,0,0,1-.114.22.374.374,0,0,1-.228.106.487.487,0,0,1-.308-.1,2.805,2.805,0,0,0-.788-.375A3.249,3.249,0,0,0,12.4,45.3a2.2,2.2,0,0,0-.848.149,1.256,1.256,0,0,0-.556.42,1.072,1.072,0,0,0-.193.641.871.871,0,0,0,.268.669,1.881,1.881,0,0,0,.892.38l1.052.22a3.153,3.153,0,0,1,1.478.65,1.5,1.5,0,0,1,.486,1.17,1.849,1.849,0,0,1-.189.845,1.877,1.877,0,0,1-.535.645,2.5,2.5,0,0,1-.839.415A3.918,3.918,0,0,1,12.314,51.65Z"/>
    <path fill="#333" d="M18.176,51.65a2.508,2.508,0,0,1-1.285-.315,2.144,2.144,0,0,1-.838-.89,2.915,2.915,0,0,1-.3-1.355,3.062,3.062,0,0,1,.169-1.045,2.156,2.156,0,0,1,.481-.784,2.128,2.128,0,0,1,.764-.5,2.8,2.8,0,0,1,1.736-.07,2.152,2.152,0,0,1,.709.345.357.357,0,0,1,.164.2.479.479,0,0,1,.01.235.4.4,0,0,1-.109.206.34.34,0,0,1-.2.1.417.417,0,0,1-.258-.065,1.658,1.658,0,0,0-.962-.32,1.6,1.6,0,0,0-.629.115,1.253,1.253,0,0,0-.462.33,1.409,1.409,0,0,0-.283.535,2.585,2.585,0,0,0-.094.73,1.976,1.976,0,0,0,.382,1.286,1.328,1.328,0,0,0,1.086.464,1.736,1.736,0,0,0,.476-.07,1.572,1.572,0,0,0,.486-.24.392.392,0,0,1,.258-.06.321.321,0,0,1,.194.105.443.443,0,0,1,.084.435.375.375,0,0,1-.168.2,2.114,2.114,0,0,1-.69.331A2.794,2.794,0,0,1,18.176,51.65Z"/>
    <path fill="#333" d="M21.171,51.63A.485.485,0,0,1,20.8,51.5a.521.521,0,0,1-.129-.375V44.95a.519.519,0,0,1,.129-.38.494.494,0,0,1,.367-.13.46.46,0,0,1,.506.51v2.77h-.138a1.654,1.654,0,0,1,.684-.845,2.013,2.013,0,0,1,1.071-.285,1.93,1.93,0,0,1,.957.215,1.327,1.327,0,0,1,.571.65,2.779,2.779,0,0,1,.188,1.1V51.12a.521.521,0,0,1-.129.375.483.483,0,0,1-.367.135.5.5,0,0,1-.377-.135.521.521,0,0,1-.129-.375V48.61a1.429,1.429,0,0,0-.242-.92.937.937,0,0,0-.76-.29,1.272,1.272,0,0,0-.966.38,1.418,1.418,0,0,0-.363,1.021V51.12A.449.449,0,0,1,21.171,51.63Z"/>
    <path fill="#333" d="M28.661,51.65a2.851,2.851,0,0,1-1.365-.3,2.149,2.149,0,0,1-.882-.87,3.034,3.034,0,0,1-.005-2.674,2.269,2.269,0,0,1,.843-.891,2.513,2.513,0,0,1,2.123-.155,1.86,1.86,0,0,1,.679.48A2.052,2.052,0,0,1,30.48,48a3.278,3.278,0,0,1,.145,1.011.316.316,0,0,1-.1.254.444.444,0,0,1-.3.085H26.9v-.62H29.95l-.169.14a2.259,2.259,0,0,0-.143-.85,1.137,1.137,0,0,0-.427-.535,1.253,1.253,0,0,0-.7-.184,1.308,1.308,0,0,0-1.28.829,2.284,2.284,0,0,0-.168.91v.06a1.894,1.894,0,0,0,.411,1.326,1.554,1.554,0,0,0,1.2.444,2.653,2.653,0,0,0,.63-.08,2.036,2.036,0,0,0,.63-.27.542.542,0,0,1,.3-.09.336.336,0,0,1,.322.29.411.411,0,0,1-.039.245.575.575,0,0,1-.209.225,2.443,2.443,0,0,1-.784.345A3.433,3.433,0,0,1,28.661,51.65Z"/>
    <path fill="#333" d="M33.561,51.65A1.96,1.96,0,0,1,31.7,50.465a3.147,3.147,0,0,1-.268-1.345,3.1,3.1,0,0,1,.268-1.35,2.067,2.067,0,0,1,.749-.87,2.009,2.009,0,0,1,1.116-.31,1.9,1.9,0,0,1,1.1.315,1.531,1.531,0,0,1,.62.845h-.109v-2.8a.519.519,0,0,1,.128-.38.5.5,0,0,1,.368-.13.459.459,0,0,1,.5.51v6.17a.525.525,0,0,1-.128.375.566.566,0,0,1-.734,0,.517.517,0,0,1-.13-.375v-.88l.11.22a1.577,1.577,0,0,1-.62.865A1.871,1.871,0,0,1,33.561,51.65Zm.257-.78a1.286,1.286,0,0,0,.715-.2,1.32,1.32,0,0,0,.481-.59,2.37,2.37,0,0,0,.174-.96,1.952,1.952,0,0,0-.377-1.3,1.245,1.245,0,0,0-.993-.44,1.325,1.325,0,0,0-.724.2,1.29,1.29,0,0,0-.481.585,2.37,2.37,0,0,0-.174.96,1.976,1.976,0,0,0,.377,1.3A1.243,1.243,0,0,0,33.818,50.87Z"/>
    <path fill="#333" d="M39.3,51.65a1.969,1.969,0,0,1-.977-.22,1.354,1.354,0,0,1-.585-.655,2.684,2.684,0,0,1-.194-1.095V47.12a.514.514,0,0,1,.129-.385.507.507,0,0,1,.367-.125.525.525,0,0,1,.372.125.5.5,0,0,1,.134.385v2.57a1.32,1.32,0,0,0,.238.87.936.936,0,0,0,.754.28,1.186,1.186,0,0,0,.918-.385,1.448,1.448,0,0,0,.352-1.015V47.12a.448.448,0,0,1,.505-.51.448.448,0,0,1,.5.51v4c0,.34-.163.51-.486.51a.471.471,0,0,1-.358-.135.521.521,0,0,1-.129-.375v-.85l.129.22a1.693,1.693,0,0,1-.635.86A1.766,1.766,0,0,1,39.3,51.65Z"/>
    <path fill="#333" d="M44.779,51.65a1.45,1.45,0,0,1-1.165-.455,1.961,1.961,0,0,1-.392-1.315V44.95a.519.519,0,0,1,.129-.38.492.492,0,0,1,.367-.13.46.46,0,0,1,.506.51v4.87a1.152,1.152,0,0,0,.2.745.724.724,0,0,0,.59.245c.06,0,.113,0,.159-.005s.093-.008.139-.015a.169.169,0,0,1,.168.065.61.61,0,0,1,.05.3.52.52,0,0,1-.089.325.43.43,0,0,1-.288.145c-.059.006-.122.011-.188.015S44.839,51.65,44.779,51.65Z"/>
    <path fill="#333" d="M48.48,51.65a2.851,2.851,0,0,1-1.365-.3,2.157,2.157,0,0,1-.883-.87,3.038,3.038,0,0,1,0-2.674,2.262,2.262,0,0,1,.843-.891,2.511,2.511,0,0,1,2.122-.155,1.855,1.855,0,0,1,.68.48A2.052,2.052,0,0,1,50.3,48a3.279,3.279,0,0,1,.144,1.011.315.315,0,0,1-.1.254.445.445,0,0,1-.3.085H46.713v-.62h3.056l-.169.14a2.259,2.259,0,0,0-.143-.85,1.143,1.143,0,0,0-.427-.535,1.255,1.255,0,0,0-.7-.184,1.308,1.308,0,0,0-1.28.829,2.284,2.284,0,0,0-.169.91v.06a1.894,1.894,0,0,0,.412,1.326,1.553,1.553,0,0,0,1.2.444,2.659,2.659,0,0,0,.63-.08,2.036,2.036,0,0,0,.63-.27.538.538,0,0,1,.3-.09.336.336,0,0,1,.322.29.411.411,0,0,1-.039.245.582.582,0,0,1-.209.225,2.443,2.443,0,0,1-.784.345A3.433,3.433,0,0,1,48.48,51.65Z"/>
  </g>
</svg>