<svg width="60" height="60" xmlns="http://www.w3.org/2000/svg" viewBox="0 0 60 60">
  <rect fill="#ffcd34" width="60" height="60"/>
  <g>
    <path d="M7.773,17.433a10.538,10.538,0,0,1,2.315-.233,4.257,4.257,0,0,1,3.007.886,3.15,3.15,0,0,1,.915,2.454A3.209,3.209,0,0,1,12.1,23.614v.036c.854.306,1.3,1.111,1.544,2.548a18.364,18.364,0,0,0,.74,3.191H12.4a16.293,16.293,0,0,1-.625-2.948c-.235-1.58-.683-2.093-1.645-2.093h-.44v5.041H7.773Zm1.912,5.432h.5a1.911,1.911,0,0,0,1.877-2.13c0-1.2-.481-2-1.733-2.019a2.158,2.158,0,0,0-.644.073Z" transform="translate(0 0)"/>
    <path d="M17.08,25.523c.021,1.958.93,2.491,1.953,2.491a4.037,4.037,0,0,0,1.573-.311l.272,1.382a5.556,5.556,0,0,1-2.194.413c-2.259,0-3.472-1.64-3.472-4.353,0-2.9,1.39-4.665,3.261-4.665,1.844,0,2.773,1.666,2.773,4.016a7.662,7.662,0,0,1-.051,1.027Zm2.385-1.368c.015-1.407-.447-2.243-1.128-2.243-.834,0-1.211,1.214-1.249,2.243Z" transform="translate(0 0)"/>
    <path d="M22.5,27.574a3.083,3.083,0,0,0,1.512.461.971.971,0,0,0,1.105-1c0-.549-.255-.91-1.068-1.423a2.94,2.94,0,0,1-1.777-2.51,2.552,2.552,0,0,1,2.68-2.619,3.467,3.467,0,0,1,1.681.427l-.393,1.419a2.214,2.214,0,0,0-1.2-.373.9.9,0,0,0-.992.912c0,.477.214.75,1.055,1.286a3.078,3.078,0,0,1,1.788,2.654,2.6,2.6,0,0,1-2.9,2.693,3.423,3.423,0,0,1-1.876-.505Z" transform="translate(0 0)"/>
    <path d="M29.716,25.523c.02,1.958.93,2.491,1.953,2.491a4.037,4.037,0,0,0,1.573-.311l.273,1.382a5.568,5.568,0,0,1-2.2.413c-2.259,0-3.472-1.64-3.472-4.353,0-2.9,1.389-4.665,3.26-4.665,1.844,0,2.774,1.666,2.774,4.016a7.618,7.618,0,0,1-.052,1.027ZM32.1,24.155c.015-1.407-.447-2.243-1.128-2.243-.834,0-1.211,1.214-1.249,2.243Z" transform="translate(0 0)"/>
    <path d="M35.271,23.093c0-.811-.042-1.724-.071-2.469h1.681l.1,1.322h.056a2.075,2.075,0,0,1,1.78-1.466,2.206,2.206,0,0,1,.409.03v1.922a2.529,2.529,0,0,0-.412-.02,1.715,1.715,0,0,0-1.539,1.505,3.96,3.96,0,0,0-.08.84v4.632H35.271Z" transform="translate(0 0)"/>
    <path d="M41.894,20.624l.867,4.367c.126.693.257,1.477.375,2.307h.044c.1-.816.231-1.554.357-2.307l.854-4.367h1.9l-2.324,8.765H42.22l-2.351-8.765Z" transform="translate(0 0)"/>
    <path d="M48.615,25.523c.021,1.958.93,2.491,1.953,2.491a4.042,4.042,0,0,0,1.574-.311l.272,1.382a5.56,5.56,0,0,1-2.194.413c-2.26,0-3.473-1.64-3.473-4.353,0-2.9,1.391-4.665,3.262-4.665,1.844,0,2.772,1.666,2.772,4.016a7.662,7.662,0,0,1-.051,1.027ZM51,24.155c.015-1.407-.447-2.243-1.129-2.243-.834,0-1.21,1.214-1.249,2.243Z" transform="translate(0 0)"/>
  </g>
  <path d="M29.565,35.285h-.036l-1.967,1.066-.342-1.5,2.587-1.415h1.652v11.7H29.565Z" transform="translate(0 0)"/>
</svg>