<svg width="60" height="60" xmlns="http://www.w3.org/2000/svg" viewBox="0 0 60 60">
  <rect fill="#ffcd34" height="60" width="60"/>
  <g>
    <g>
      <path d="M15.884,10.291a8.167,8.167,0,0,1,1.8-.183,3.312,3.312,0,0,1,2.339.69,2.449,2.449,0,0,1,.712,1.909A2.5,2.5,0,0,1,19.253,15.1v.028c.664.239,1.009.865,1.2,1.983a14.228,14.228,0,0,0,.576,2.482H19.479a12.73,12.73,0,0,1-.486-2.294c-.182-1.228-.531-1.628-1.279-1.628h-.343v3.922H15.884Zm1.487,4.225h.389a1.488,1.488,0,0,0,1.461-1.657c0-.934-.375-1.555-1.349-1.57a1.716,1.716,0,0,0-.5.055Z"/>
      <path d="M23.123,16.583c.016,1.524.723,1.938,1.52,1.938a3.119,3.119,0,0,0,1.223-.242l.212,1.076a4.338,4.338,0,0,1-1.707.32c-1.758,0-2.7-1.275-2.7-3.385,0-2.257,1.082-3.63,2.538-3.63,1.434,0,2.157,1.3,2.157,3.125a5.963,5.963,0,0,1-.04.8Zm1.856-1.064c.011-1.1-.348-1.745-.878-1.745-.649,0-.942.945-.972,1.745Z"/>
      <path d="M27.444,14.917c0-.921-.034-1.574-.056-2.145H28.7l.075.825H28.8a1.569,1.569,0,0,1,1.436-.937c1.356,0,2.047,1.463,2.047,3.509,0,2.476-1.054,3.535-2.169,3.535a1.3,1.3,0,0,1-1.155-.719h-.028v3.3H27.444ZM28.931,17.1a1.849,1.849,0,0,0,.076.571c.173.665.524.8.77.8.756,0,1.015-1.073,1.015-2.279,0-1.352-.327-2.265-1.011-2.265-.377,0-.716.42-.788.876a1.753,1.753,0,0,0-.062.5Z"/>
      <path d="M36.3,19.591l-.088-.694h-.034a1.669,1.669,0,0,1-1.445.807,1.816,1.816,0,0,1-1.715-2.017c0-1.753,1.481-2.493,3.024-2.507V15c0-.71-.277-1.209-1.019-1.209a2.3,2.3,0,0,0-1.271.377l-.288-1.02a3.8,3.8,0,0,1,1.885-.488c1.755,0,2.2,1.2,2.2,2.653v2.726a10.558,10.558,0,0,0,.088,1.552Zm-.218-3.415c-.582.009-1.637.17-1.637,1.358,0,.769.41,1.048.74,1.048a.906.906,0,0,0,.861-.782,1.378,1.378,0,0,0,.036-.345Z"/>
      <path d="M40.481,10.985a.8.8,0,0,1-.827.861.79.79,0,0,1-.776-.861.8.8,0,1,1,1.6,0Zm-1.537,8.606V12.772h1.495v6.819Z"/>
      <path d="M41.808,14.694c0-.632-.035-1.342-.056-1.922H43.06l.076,1.029h.044a1.614,1.614,0,0,1,1.384-1.141,1.579,1.579,0,0,1,.318.024v1.5a2.028,2.028,0,0,0-.32-.015,1.333,1.333,0,0,0-1.2,1.17,3.05,3.05,0,0,0-.062.654v3.6H41.808Z"/>
    </g>
    <g>
      <path d="M14.5,24.675h3.876v1.3H15.993V28.8h2.231v1.249H15.993v4.07H14.5Z"/>
      <path d="M22.048,34.116l-.088-.694h-.034a1.667,1.667,0,0,1-1.444.807,1.817,1.817,0,0,1-1.716-2.017c0-1.753,1.482-2.493,3.025-2.507v-.181c0-.71-.278-1.209-1.02-1.209a2.305,2.305,0,0,0-1.271.378l-.288-1.02a3.8,3.8,0,0,1,1.885-.488c1.756,0,2.2,1.2,2.2,2.653v2.725a10.563,10.563,0,0,0,.088,1.553ZM21.831,30.7c-.582.009-1.637.17-1.637,1.358,0,.769.41,1.047.739,1.047a.9.9,0,0,0,.861-.781,1.336,1.336,0,0,0,.037-.346Z"/>
      <path d="M28.272,33.976a2.7,2.7,0,0,1-1.148.224c-1.62,0-2.7-1.2-2.7-3.439,0-2.043,1.129-3.56,2.937-3.56a2.354,2.354,0,0,1,.981.2l-.228,1.186a1.867,1.867,0,0,0-.723-.152c-.974,0-1.476,1.043-1.476,2.3,0,1.395.563,2.245,1.476,2.245a1.6,1.6,0,0,0,.729-.163Z"/>
      <path d="M30.612,25.51a.8.8,0,1,1-.8-.868A.8.8,0,0,1,30.612,25.51Zm-1.538,8.606V27.3h1.495v6.819Z"/>
      <path d="M31.944,24.423h1.5v9.693h-1.5Z"/>
      <path d="M36.421,25.51a.8.8,0,1,1-.8-.868A.8.8,0,0,1,36.421,25.51Zm-1.537,8.606V27.3h1.495v6.819Z"/>
      <path d="M39.54,25.47V27.3h1.323v1.084H39.54v3.536c0,.835.324,1.048.7,1.048a2.424,2.424,0,0,0,.462-.042l.03,1.163a3.433,3.433,0,0,1-.977.114,1.63,1.63,0,0,1-1.207-.424,2.432,2.432,0,0,1-.5-1.843V28.381h-.816V27.3h.816V25.852Z"/>
      <path d="M42.864,27.3l.774,3.716c.1.459.16.861.232,1.259H43.9c.061-.366.143-.811.221-1.244l.674-3.731h1.47l-1.268,4.868a10.555,10.555,0,0,1-1.6,3.889,3.508,3.508,0,0,1-1.407,1.057l-.483-1.285a2.973,2.973,0,0,0,.93-.7,3.277,3.277,0,0,0,.591-.963.826.826,0,0,0,.086-.316.769.769,0,0,0-.044-.252l-1.8-6.3Z"/>
    </g>
    <g>
      <path d="M8.7,39.341a6.849,6.849,0,0,1,1.677-.183,3.429,3.429,0,0,1,2.439.782c.774.686,1.247,1.922,1.247,3.815,0,2.023-.506,3.3-1.23,3.993a3.665,3.665,0,0,1-2.758.96,9.219,9.219,0,0,1-1.375-.1Zm1.487,8.1a1.681,1.681,0,0,0,.367.029c1.022,0,1.962-.863,1.962-3.74,0-2.136-.606-3.372-1.9-3.372a1.636,1.636,0,0,0-.429.048Z"/>
      <path d="M18.079,48.642l-.089-.7h-.033a1.667,1.667,0,0,1-1.445.807A1.817,1.817,0,0,1,14.8,46.737c0-1.753,1.482-2.493,3.025-2.507v-.18c0-.71-.278-1.209-1.019-1.209a2.3,2.3,0,0,0-1.272.378L15.243,42.2a3.8,3.8,0,0,1,1.884-.488c1.756,0,2.205,1.2,2.205,2.653v2.726a10.58,10.58,0,0,0,.088,1.553Zm-.218-3.415c-.582.008-1.637.169-1.637,1.357,0,.77.41,1.048.739,1.048a.907.907,0,0,0,.862-.781,1.391,1.391,0,0,0,.036-.346Z"/>
      <path d="M20.723,43.744c0-.77-.035-1.318-.056-1.922h1.3l.076.815h.028a1.846,1.846,0,0,1,1.584-.927,1.442,1.442,0,0,1,1.461.981h.028a2.206,2.206,0,0,1,.684-.73,1.805,1.805,0,0,1,.948-.251c1.088,0,1.709.835,1.709,2.519v4.413H27V44.511c0-.825-.105-1.557-.775-1.557-.381,0-.69.293-.826.8a2.454,2.454,0,0,0-.05.543v4.347H23.862V44.278c0-.609-.087-1.324-.762-1.324-.355,0-.7.283-.83.835a2.384,2.384,0,0,0-.06.544v4.309H20.723Z"/>
      <path d="M32.765,48.642l-.088-.7h-.034a1.667,1.667,0,0,1-1.445.807,1.817,1.817,0,0,1-1.716-2.017c0-1.753,1.482-2.493,3.025-2.507v-.18c0-.71-.278-1.209-1.019-1.209a2.3,2.3,0,0,0-1.272.378L29.929,42.2a3.8,3.8,0,0,1,1.884-.488c1.755,0,2.205,1.2,2.205,2.653v2.726a10.726,10.726,0,0,0,.087,1.553Zm-.218-3.415c-.582.008-1.637.169-1.637,1.357,0,.77.41,1.048.739,1.048a.907.907,0,0,0,.862-.781,1.391,1.391,0,0,0,.036-.346Z"/>
      <path d="M40.062,41.822c-.029.556-.063,1.224-.063,2.145v3.855c0,1.617-.252,2.363-.758,2.881a2.743,2.743,0,0,1-2.035.74,3.837,3.837,0,0,1-1.614-.328l.3-1.158a2.971,2.971,0,0,0,1.289.292c.891,0,1.331-.578,1.331-1.847v-.536h-.029a1.359,1.359,0,0,1-1.258.743c-1.385,0-2.073-1.531-2.073-3.33,0-2.378,1.079-3.569,2.231-3.569a1.391,1.391,0,0,1,1.261.839h.027l.076-.727Zm-1.55,2.427a1.8,1.8,0,0,0-.067-.5c-.1-.369-.316-.775-.763-.775-.711,0-1.046.965-1.046,2.255,0,1.484.443,2.193,1.027,2.193.281,0,.6-.137.769-.711a1.724,1.724,0,0,0,.08-.57Z"/>
      <path d="M42.548,45.634c.015,1.523.723,1.937,1.519,1.937a3.124,3.124,0,0,0,1.224-.242l.212,1.076a4.337,4.337,0,0,1-1.707.321c-1.758,0-2.7-1.276-2.7-3.386,0-2.257,1.081-3.63,2.537-3.63,1.434,0,2.157,1.3,2.157,3.125a5.981,5.981,0,0,1-.04.8ZM44.4,44.569c.012-1.094-.347-1.745-.878-1.745-.648,0-.941.946-.971,1.745Z"/>
      <path d="M51.448,38.948V46.8c0,.559.034,1.319.057,1.843H50.221l-.088-.809h-.04a1.613,1.613,0,0,1-1.422.921c-1.319,0-2.061-1.447-2.061-3.5,0-2.394,1.029-3.542,2.13-3.542a1.24,1.24,0,0,1,1.194.741h.028v-3.5ZM49.962,44.43a2.628,2.628,0,0,0-.023-.421c-.063-.548-.371-1.033-.811-1.033-.756,0-1.026,1.076-1.026,2.3,0,1.362.362,2.249.989,2.249.281,0,.63-.147.818-.845a1.541,1.541,0,0,0,.053-.439Z"/>
    </g>
  </g>
</svg>