<svg width="60" height="60" xmlns="http://www.w3.org/2000/svg" viewBox="0 0 60 60">
  <rect fill="#ffcd34" height="60" width="60"/>
  <g>
    <path d="M6.077,15.907a10.53,10.53,0,0,1,2.315-.234,4.248,4.248,0,0,1,3.006.887,3.145,3.145,0,0,1,.916,2.453,3.209,3.209,0,0,1-1.907,3.074v.037c.855.3,1.3,1.111,1.545,2.547a18.359,18.359,0,0,0,.74,3.192H10.7a16.5,16.5,0,0,1-.625-2.948c-.234-1.581-.682-2.093-1.644-2.093H7.988v5.041H6.077Zm1.911,5.431h.5a1.911,1.911,0,0,0,1.878-2.13c0-1.2-.482-2-1.734-2.018a2.2,2.2,0,0,0-.644.072Z" transform="translate(0 0)"/>
    <path d="M19.8,23.459c0,3.536-1.821,4.547-3.154,4.547-1.859,0-3.127-1.554-3.127-4.506,0-3.166,1.554-4.546,3.192-4.546C18.547,18.954,19.8,20.57,19.8,23.459Zm-4.364.011c0,1.476.249,3.053,1.272,3.053.957,0,1.175-1.731,1.175-3.053,0-1.271-.218-3.033-1.211-3.033C15.641,20.437,15.433,22.2,15.433,23.47Z" transform="translate(0 0)"/>
    <path d="M24.962,27.863l-.112-.893h-.044a2.143,2.143,0,0,1-1.856,1.036,2.333,2.333,0,0,1-2.206-2.591c0-2.252,1.9-3.2,3.887-3.222V21.96c0-.913-.357-1.554-1.309-1.554a2.955,2.955,0,0,0-1.634.486l-.371-1.311a4.877,4.877,0,0,1,2.423-.627c2.256,0,2.834,1.545,2.834,3.41v3.5a13.526,13.526,0,0,0,.113,2Zm-.279-4.39c-.748.011-2.1.219-2.1,1.744,0,.99.527,1.347.95,1.347a1.165,1.165,0,0,0,1.108-1,1.846,1.846,0,0,0,.046-.445Z" transform="translate(0 0)"/>
    <path d="M34.242,15.4V25.494c0,.718.044,1.7.072,2.369H32.665l-.113-1.04H32.5a2.07,2.07,0,0,1-1.828,1.183c-1.7,0-2.649-1.859-2.649-4.5,0-3.076,1.322-4.551,2.739-4.551a1.593,1.593,0,0,1,1.533.952h.036V15.4Zm-1.911,7.046a3.562,3.562,0,0,0-.028-.541c-.082-.7-.477-1.327-1.044-1.327-.971,0-1.319,1.382-1.319,2.951,0,1.749.466,2.889,1.272,2.889.361,0,.809-.188,1.053-1.087a1.985,1.985,0,0,0,.066-.563Z" transform="translate(0 0)"/>
  </g>
  <g>
    <path d="M10.824,38.08H7.937v3.861H11.21v1.668h-5.2V31.474H11v1.668H7.937v3.332h2.887Z" transform="translate(0 0)"/>
    <path d="M12.553,37.313c0-.99-.044-1.693-.073-2.469h1.666l.1,1.031h.036A2.363,2.363,0,0,1,16.352,34.7c1.461,0,2.239,1.135,2.239,3.167v5.742H16.669V38.051c0-.876-.185-1.732-1.023-1.732-.476,0-.9.367-1.074,1.073a3,3,0,0,0-.1.8v5.42H12.553Z" transform="translate(0 0)"/>
    <path d="M26.244,31.149V41.24c0,.719.044,1.7.072,2.369H24.667l-.113-1.04H24.5a2.072,2.072,0,0,1-1.829,1.184c-1.695,0-2.648-1.859-2.648-4.5,0-3.076,1.322-4.552,2.738-4.552a1.6,1.6,0,0,1,1.534.952h.036v-4.5ZM24.333,38.2a3.568,3.568,0,0,0-.028-.541c-.083-.7-.477-1.327-1.044-1.327-.971,0-1.319,1.383-1.319,2.951,0,1.749.465,2.89,1.272,2.89.361,0,.809-.189,1.052-1.087a1.987,1.987,0,0,0,.067-.563Z" transform="translate(0 0)"/>
    <path d="M27.867,41.794a3.083,3.083,0,0,0,1.512.461.97.97,0,0,0,1.105-1c0-.549-.255-.91-1.068-1.423a2.94,2.94,0,0,1-1.777-2.51,2.553,2.553,0,0,1,2.68-2.619A3.47,3.47,0,0,1,32,35.127l-.394,1.419a2.208,2.208,0,0,0-1.2-.373.9.9,0,0,0-.992.912c0,.477.214.75,1.055,1.286a3.079,3.079,0,0,1,1.788,2.654,2.6,2.6,0,0,1-2.9,2.693,3.414,3.414,0,0,1-1.876-.505Z" transform="translate(0 0)"/>
  </g>
  <polygon points="52.894 30 40.917 23.085 40.917 36.915 52.894 30"/>
</svg>