<!-- Generator: Adobe Illustrator 25.2.3, SVG Export Plug-In . SVG Version: 6.00 Build 0)  --><svg x="0px" enable-background="new 0 0 60 60" y="0px" width="60px" xmlns:xlink="http://www.w3.org/1999/xlink" viewBox="0 0 60 60" height="60px" id="Layer_1" xmlns="http://www.w3.org/2000/svg" xml:space="preserve" version="1.1">
<rect width="60" fill="#991B1E" x="-0.012" height="60" id="UnitColor_3_" y="-0.085"/>
<rect width="60" fill="#EE1E3A" height="20.189" id="CS_2_" y="11.533" display="none"/>
<g id="Gar" display="none">
	<rect width="14.843" fill="none" x="0.73" height="8.039" y="2.802" display="inline"/>
	<path fill="#FFFFFF" d="M11.03,10.06c-0.472,0.163-1.361,0.379-2.249,0.379c-1.231,0-2.119-0.308-2.739-0.903   C5.424,8.949,5.085,8.072,5.089,7.083C5.097,4.842,6.73,3.567,8.936,3.567c0.87,0,1.539,0.165,1.873,0.323L10.49,5.111   C10.117,4.95,9.664,4.825,8.922,4.825c-1.27,0-2.235,0.714-2.235,2.18c0,1.391,0.878,2.205,2.125,2.205   c0.344,0,0.623-0.04,0.745-0.095V7.699H8.516V6.512h2.514V10.06z" display="inline"/>
</g>
<g id="Eng" display="none">
	<rect width="27.832" fill="none" x="1.1" height="8.039" y="2.802" display="inline"/>
	<path fill="#FFFFFF" d="M17.011,7.521h-2.479v1.602h2.771v1.248h-4.294V3.634h4.15v1.248h-2.626v1.403h2.479   V7.521z" display="inline"/>
</g>
<g id="P2" display="none">
	<path fill="#FFFFFF" d="M19.024,28.186c0.472-1.148,0.803-2.149,0.992-3.001c0.282-1.24,0.423-2.417,0.423-3.534   c0-1.066-0.099-2.078-0.295-3.035c-0.197-0.957-0.575-2.146-1.135-3.568h1.146c0.628,1.03,1.101,2.092,1.419,3.186   c0.319,1.094,0.478,2.185,0.478,3.274c0,1.094-0.159,2.218-0.476,3.374s-0.786,2.257-1.407,3.305H19.024z" display="inline"/>
</g>
<g id="P1" display="none">
	<path fill="#FFFFFF" d="M8.327,28.186H7.182c-0.605-1.025-1.071-2.111-1.396-3.257s-0.487-2.257-0.487-3.333   c0-1.162,0.163-2.296,0.489-3.401c0.326-1.105,0.795-2.154,1.408-3.148h1.146c-0.56,1.422-0.938,2.611-1.135,3.568   c-0.197,0.957-0.295,1.969-0.295,3.035c0,1.103,0.139,2.27,0.416,3.5C7.522,26.016,7.855,27.028,8.327,28.186z" display="inline"/>
</g>
<g id="Type">
	<path fill="#FFFFFF" d="M53.265,12.893v17.022H26.785V12.893H53.265z M51.846,14.312H28.204v14.185h23.642V14.312z M30.457,19.579   c-0.004-0.042-0.006-0.113-0.004-0.216c0.002-0.105,0.009-0.19,0.021-0.256c0.015-0.074,0.033-0.137,0.058-0.195   c0.026-0.059,0.05-0.105,0.072-0.139c0.028-0.041,0.064-0.08,0.111-0.125c0.051-0.047,0.109-0.087,0.171-0.12   c0.059-0.031,0.113-0.055,0.164-0.07c0.056-0.018,0.089-0.026,0.102-0.029l0.065-0.013c0.055-0.009,0.101-0.016,0.146-0.021   c0.052-0.004,0.104,0.003,0.158-0.006c0.053,0,0.126,0.007,0.218,0.019c0.095,0.013,0.163,0.025,0.204,0.038   c0.045,0.013,0.082,0.026,0.113,0.04c0.03,0.013,0.073,0.037,0.127,0.071c0.05,0.03,0.1,0.067,0.145,0.109   c0.042,0.038,0.078,0.075,0.107,0.111c0.008,0.011,0.062,0.083,0.067,0.097l0.022,0.029c0.07,0.108,0.115,0.185,0.159,0.271   c0.043,0.079,0.106,0.208,0.19,0.386l0.206,0.423c0.037,0.072,0.061,0.12,0.086,0.176c0.021,0.046,0.06,0.112,0.11,0.196   c0.036,0.06,0.061,0.099,0.073,0.118c0.01,0.009,0.018,0.021,0.029,0.034c0.015,0.017,0.035,0.037,0.062,0.062   c0.026,0.024,0.043,0.04,0.055,0.047c0.035,0.019,0.055,0.028,0.106,0.042c0.04,0.012,0.087,0.019,0.143,0.023   c0.06,0.005,0.108,0.004,0.147,0.003c0.045-0.001,0.119-0.012,0.226-0.03c0.096-0.017,0.153-0.028,0.173-0.032   c-0.001,0,0.056-0.016,0.157-0.044c0.107-0.03,0.218-0.063,0.343-0.103c0.124-0.041,0.22-0.073,0.286-0.097l0.207-0.072   c0.07-0.025,0.13-0.045,0.182-0.064l0.17-0.061c0.056-0.021,0.141-0.054,0.256-0.098c0.113-0.043,0.236-0.097,0.371-0.156   c0.127-0.058,0.237-0.115,0.327-0.173c0.058-0.036,0.096-0.062,0.118-0.076c0.005-0.007,0.008-0.011,0.012-0.015   c-0.005-0.01-0.018-0.034-0.074-0.092c-0.046-0.047-0.081-0.083-0.105-0.103c-0.027-0.024-0.064-0.053-0.112-0.089   c-0.052-0.039-0.096-0.069-0.131-0.092l-0.255-0.193c-0.097-0.077-0.16-0.132-0.19-0.162c-0.032-0.035-0.065-0.078-0.103-0.128   c-0.039-0.053-0.071-0.105-0.095-0.154c-0.021-0.042-0.046-0.1-0.072-0.174c-0.027-0.073-0.052-0.167-0.071-0.283   c-0.02-0.122-0.026-0.195-0.026-0.222c0.002-0.034,0.004-0.072,0.012-0.12c0.009-0.052,0.021-0.102,0.04-0.151   c0.02-0.052,0.043-0.098,0.07-0.142c0.026-0.044,0.057-0.083,0.086-0.117c0.028-0.031,0.059-0.061,0.091-0.085   c0.033-0.025,0.069-0.048,0.107-0.066c0.031-0.014,0.069-0.028,0.113-0.042c0.048-0.014,0.1-0.023,0.154-0.027   c0.05-0.005,0.104-0.006,0.158-0.005c0.052,0.003,0.155,0.021,0.312,0.056c0.09,0.02,0.155,0.035,0.196,0.045   c0.022,0.002,0.048,0.009,0.103,0.025l0.843,0.261c0.146,0.047,0.253,0.081,0.349,0.11l0.687,0.203   c0.093,0.027,0.149,0.044,0.169,0.05c0.012,0.004,0.11,0.033,0.288,0.087c0.179,0.054,0.335,0.099,0.47,0.134   c0.128,0.035,0.269,0.062,0.422,0.083c0.15,0.019,0.27,0.031,0.367,0.026c0.092-0.002,0.177-0.008,0.254-0.02   c0.072-0.011,0.125-0.02,0.159-0.03c0.034-0.01,0.088-0.027,0.158-0.052l0.381-0.14c0.051-0.021,0.124-0.053,0.222-0.096   l0.205-0.093c0.042-0.018,0.112-0.051,0.215-0.1c0.106-0.05,0.192-0.09,0.256-0.118l0.512-0.229c0.152-0.066,0.26-0.114,0.323-0.14   c0.063-0.027,0.18-0.073,0.35-0.137c0.171-0.063,0.28-0.103,0.33-0.12c0.055-0.018,0.165-0.045,0.335-0.082   c0.236-0.052,0.328-0.058,0.372-0.054c0.067,0,0.134,0.01,0.193,0.027c0.064,0.016,0.104,0.029,0.134,0.047   c0.021,0.011,0.049,0.031,0.084,0.06c0.05,0.038,0.07,0.063,0.081,0.08c0.039,0.057,0.057,0.085,0.076,0.122   c0.019,0.035,0.034,0.075,0.052,0.12c0.018,0.051,0.028,0.088,0.035,0.118l0.034,0.139c0.021,0.079,0.028,0.116,0.034,0.146   c0.007,0.034,0.008,0.066,0.008,0.09c0.004,0.051-0.005,0.154-0.029,0.447c-0.033,0.425-0.056,0.483-0.109,0.541   c-0.008,0.02-0.024,0.063-0.038,0.08l-0.053,0.063c-0.056,0.053-0.088,0.077-0.122,0.097c-0.029,0.018-0.066,0.037-0.11,0.055   c-0.051,0.022-0.077,0.032-0.112,0.036l-0.351,0.09c-0.034,0.008-0.065,0.017-0.099,0.028c-0.038,0.012-0.082,0.03-0.137,0.055   l-0.08,0.036c-0.003,0.001-0.007,0.003-0.01,0.004c-0.047,0.032-0.071,0.05-0.096,0.07c-0.021,0.015-0.039,0.033-0.058,0.052   l-0.026,0.059l0.003,0.066c0.008,0.02,0.018,0.04,0.029,0.059l-0.079,0.211l0.134-0.146c0.023,0.021,0.043,0.04,0.062,0.054   c0.021,0.015,0.04,0.027,0.062,0.042c0.024,0.014,0.07,0.037,0.134,0.068c0.063,0.03,0.121,0.056,0.174,0.076   c0.052,0.019,0.09,0.032,0.114,0.04l0.169,0.054c0.081,0.024,0.14,0.042,0.174,0.051c0.037,0.011,0.097,0.027,0.183,0.048   l0.627,0.147c0.066,0.014,0.134,0.025,0.199,0.035c0.063,0.01,0.139,0.018,0.227,0.023c0.086,0.007,0.129,0.011,0.191,0.009   c0.035,0,0.081-0.004,0.138-0.012l0.149-0.03c0.044-0.011,0.079-0.021,0.104-0.03l0.064-0.023c0.011-0.005,0.039-0.021,0.084-0.044   c0.034-0.019,0.056-0.031,0.065-0.037l0.002,0.002c0.049-0.04,0.087-0.069,0.132-0.105c0.062-0.075,0.124-0.15,0.157-0.206   c0.069-0.139,0.128-0.303,0.17-0.472c0.042-0.166,0.061-0.246,0.065-0.266c0.001-0.013,0.002-0.025,0.003-0.032   c0.008-0.057,0.015-0.117,0.022-0.198c0.009-0.101,0.016-0.173,0.02-0.242c0.005-0.086,0.012-0.157,0.019-0.215   c0.008-0.06,0.017-0.122,0.029-0.188c0.014-0.07,0.024-0.115,0.031-0.136c0.009-0.026,0.022-0.062,0.043-0.103   c0.017-0.034,0.031-0.062,0.043-0.083c0.019-0.031,0.043-0.061,0.08-0.103c0.045-0.047,0.101-0.086,0.171-0.118   c0.019-0.008,0.038-0.015,0.06-0.017c0.081-0.01,0.124-0.006,0.146-0.003c0.031,0.004,0.061,0.011,0.093,0.021   c0.029,0.01,0.066,0.026,0.113,0.051c0.048,0.026,0.103,0.066,0.161,0.119c0.06,0.055,0.098,0.093,0.116,0.113   c0.019,0.024,0.042,0.055,0.07,0.098c0.025,0.036,0.055,0.081,0.084,0.132c0.028,0.048,0.051,0.089,0.065,0.121l0.05,0.104   c0.018,0.041,0.038,0.094,0.062,0.159l0.096,0.295c0.017,0.056,0.031,0.119,0.05,0.193c0.017,0.077,0.033,0.163,0.048,0.26   l0.03,0.207c0.007,0.046,0.014,0.103,0.02,0.168c0.007,0.063,0.014,0.156,0.021,0.274l0.024,0.889   c0.001,0.058,0.001,0.125-0.001,0.199c-0.001,0.07-0.003,0.146-0.007,0.224c-0.004,0.081-0.01,0.176-0.024,0.288l-0.033,0.268   c-0.017,0.129-0.031,0.224-0.048,0.318l-0.011,0.058c-0.012,0.067-0.021,0.12-0.03,0.157c0,0.003-0.019,0.096-0.02,0.1   c-0.004,0.018-0.012,0.055-0.022,0.112l-0.088,0.437c-0.021,0.109-0.036,0.179-0.043,0.207l-0.113,0.453   c-0.015,0.049-0.024,0.083-0.033,0.121c-0.02,0.07-0.027,0.1-0.031,0.12c-0.001,0.004-0.016,0.054-0.017,0.058l-0.062,0.218   c-0.008,0.03-0.029,0.091-0.061,0.179c-0.034,0.097-0.069,0.18-0.105,0.252c-0.036,0.075-0.068,0.131-0.093,0.173   c-0.026,0.046-0.062,0.095-0.103,0.148c-0.038,0.048-0.084,0.102-0.14,0.161c-0.055,0.061-0.121,0.119-0.195,0.173   c-0.077,0.055-0.134,0.091-0.171,0.11c-0.034,0.018-0.089,0.042-0.158,0.067c-0.064,0.025-0.123,0.043-0.171,0.054   c-0.045,0.011-0.102,0.021-0.169,0.032c-0.071,0.011-0.122,0.017-0.155,0.018l-0.129,0.004c-0.073,0.003-0.129,0-0.182-0.004   c-0.05-0.002-0.102-0.008-0.151-0.016c-0.052-0.007-0.097-0.015-0.134-0.024c-0.038-0.009-0.079-0.021-0.122-0.035   c-0.046-0.016-0.094-0.038-0.145-0.065c-0.067-0.037-0.092-0.052-0.111-0.07c-0.002-0.002-0.035-0.031-0.037-0.033   c-0.041-0.039-0.061-0.061-0.069-0.073c-0.013-0.018-0.037-0.062-0.077-0.142c-0.041-0.081-0.064-0.138-0.075-0.186   c-0.009-0.036-0.017-0.074-0.021-0.112c-0.014-0.186-0.018-0.287-0.017-0.31l0.002-0.067c0-0.034,0.002-0.074,0.007-0.119   l0.183-1.076c0.007-0.035,0.015-0.079,0.024-0.129c0.006-0.048,0.013-0.098,0.019-0.149c0.003-0.04,0.004-0.075,0.003-0.103   c-0.002-0.024-0.008-0.057-0.017-0.095l-0.033-0.111c-0.018-0.04-0.032-0.067-0.049-0.09c-0.018-0.026-0.047-0.06-0.088-0.102   c-0.043-0.044-0.079-0.079-0.106-0.102c-0.025-0.02-0.055-0.04-0.084-0.058c-0.033-0.02-0.076-0.043-0.129-0.07   c-0.051-0.027-0.111-0.053-0.177-0.08c-0.069-0.027-0.143-0.055-0.217-0.082c-0.077-0.027-0.178-0.062-0.302-0.103   c-0.122-0.042-0.216-0.072-0.279-0.091l-1.758-0.495c-0.045-0.014-0.118-0.034-0.218-0.061c-0.104-0.028-0.205-0.055-0.303-0.08   c-0.099-0.024-0.229-0.054-0.392-0.089l-0.618-0.138c-0.128-0.029-0.2-0.045-0.216-0.048l-0.201-0.037   c-0.113-0.021-0.182-0.033-0.202-0.036l-0.413-0.039c-0.035-0.001-0.086-0.001-0.147,0c-0.064,0.002-0.123,0.005-0.176,0.011   c-0.055,0.005-0.164,0.026-0.327,0.063c-0.169,0.038-0.27,0.062-0.304,0.071c-0.035,0.009-0.097,0.028-0.187,0.058   c-0.093,0.03-0.277,0.094-0.553,0.19c-0.277,0.098-0.534,0.186-0.768,0.263c-0.234,0.079-0.426,0.141-0.574,0.186l-1.57,0.472   c-0.066,0.017-0.147,0.04-0.246,0.067c-0.1,0.028-0.182,0.051-0.246,0.071c-0.062,0.019-0.118,0.039-0.171,0.06   c-0.048,0.019-0.095,0.041-0.137,0.064c-0.047,0.025-0.103,0.061-0.168,0.109c-0.063,0.044-0.107,0.079-0.13,0.1   c-0.023,0.022-0.046,0.047-0.068,0.074c-0.02,0.024-0.036,0.044-0.048,0.064c-0.011,0.021-0.028,0.051-0.048,0.088l-0.041,0.078   c-0.014,0.046-0.021,0.069-0.027,0.094l-0.014,0.102c-0.001,0.008-0.002,0.049,0.024,0.199c0.017,0.101,0.029,0.165,0.035,0.187   l0.042,0.126c0.023,0.066,0.046,0.125,0.065,0.178l0.026,0.062l-0.158,0.136l0.183-0.078c0.029,0.069,0.045,0.112,0.064,0.166   l0.065,0.181c0.024,0.07,0.052,0.152,0.082,0.247s0.054,0.172,0.07,0.231l0.037,0.133c0.009,0.031,0.018,0.068,0.027,0.109   l0.024,0.103c0.008,0.032,0.018,0.071,0.024,0.112c0.008,0.042,0.017,0.096,0.025,0.161c0.009,0.084,0.008,0.154-0.004,0.214   c-0.014,0.061-0.037,0.166-0.145,0.208c-0.032,0.023-0.053,0.03-0.069,0.036c-0.028,0.006-0.047,0.01-0.074,0.01   c-0.026,0-0.062-0.003-0.125-0.008c-0.087-0.009-0.164-0.024-0.229-0.045l-0.137-0.065c-0.032-0.017-0.064-0.036-0.099-0.057   l-0.087-0.051c-0.027-0.017-0.071-0.044-0.126-0.081c-0.051-0.034-0.104-0.073-0.156-0.113c-0.052-0.04-0.096-0.076-0.135-0.109   l-0.196-0.179c-0.04-0.041-0.072-0.072-0.099-0.1c-0.028-0.03-0.074-0.083-0.138-0.158l-0.505-0.602   c-0.081-0.095-0.132-0.158-0.155-0.188l-0.093-0.126c-0.042-0.056-0.087-0.119-0.133-0.19l-0.073-0.109   c-0.013-0.018-0.06-0.093-0.143-0.23c-0.08-0.13-0.141-0.234-0.182-0.308l-0.172-0.321c-0.075-0.141-0.122-0.229-0.139-0.265   l-0.41-0.875c-0.027-0.062-0.051-0.117-0.072-0.17c-0.02-0.049-0.061-0.159-0.124-0.327c-0.062-0.167-0.112-0.306-0.149-0.415   c-0.039-0.112-0.071-0.206-0.095-0.281c-0.024-0.074-0.041-0.128-0.05-0.16c-0.009-0.029-0.028-0.097-0.056-0.201   c-0.028-0.104-0.05-0.193-0.066-0.268c-0.016-0.075-0.029-0.139-0.038-0.197C30.468,19.663,30.46,19.615,30.457,19.579z"/>
</g>
<g id="STK">
	<path fill="#FFFFFF" d="M13.307,17.911h-0.036l-2.139,1.074l-0.386-1.671l2.857-1.406h1.847v11.703h-2.144V17.911z"/>
</g>
<g id="ECH">
	<rect width="27.832" x="26.078" fill="none" height="8.039" y="2.802"/>
	<path fill="#FFFFFF" d="M39.33,3.634v6.736h-1.523V3.634H39.33z"/>
	<path fill="#FFFFFF" d="M42.18,3.634v6.736h-1.522V3.634H42.18z"/>
</g>
<g id="PF">
	<rect width="60" x="0" fill="none" height="15.475" y="44.525"/>
	<path fill="#FFFFFF" d="M29.696,52.494v0.939H27.71v-0.939H29.696z"/>
	<path fill="#FFFFFF" d="M32.285,52.494v0.939H30.3v-0.939H32.285z"/>
</g>
<g id="Des">
	<rect width="60" x="0" fill="none" height="14.525" y="31.722"/>
	<path fill="#FFFFFF" d="M13.31,35.361h-0.036l-1.967,1.065l-0.342-1.503l2.587-1.415h1.652v11.703H13.31V35.361z"/>
	<path fill="#FFFFFF" d="M20.986,43.161c0.453,0.272,1.242,0.483,1.882,0.483c1.184,0,1.831-0.693,1.831-1.686   c0-0.981-0.597-1.533-1.59-2.218c-1.342-0.859-2.287-2.068-2.287-3.38c0-1.897,1.289-3.394,3.554-3.394   c0.782,0,1.489,0.232,1.812,0.44l-0.357,1.649c-0.329-0.216-0.843-0.414-1.499-0.414c-1.091,0-1.611,0.742-1.611,1.472   c0,0.94,0.485,1.368,1.721,2.166c1.542,0.998,2.155,2.176,2.155,3.48c0,2.17-1.563,3.559-3.732,3.559   c-0.913,0-1.823-0.258-2.201-0.507L20.986,43.161z"/>
	<path fill="#FFFFFF" d="M29.792,42.049l-0.655,3.163h-1.863l2.699-12.136h2.244l2.51,12.136h-1.878l-0.645-3.163H29.792z    M32.003,40.543l-0.508-2.786c-0.144-0.793-0.306-1.913-0.438-2.763h-0.052c-0.133,0.857-0.313,2.014-0.46,2.771l-0.531,2.778   H32.003z"/>
	<path fill="#FFFFFF" d="M36.149,33.257c0.67-0.16,1.511-0.234,2.314-0.234c1.247,0,2.293,0.216,3.007,0.887   c0.676,0.641,0.915,1.451,0.915,2.453c0,1.414-0.679,2.506-1.906,3.074v0.036c0.854,0.306,1.297,1.111,1.544,2.548   c0.255,1.486,0.546,2.777,0.741,3.191h-1.994c-0.159-0.348-0.417-1.538-0.625-2.948c-0.234-1.58-0.683-2.093-1.644-2.093h-0.441   v5.041h-1.911V33.257z M38.061,38.688h0.5c1.156,0,1.878-0.898,1.878-2.13c0-1.2-0.481-1.998-1.734-2.019   c-0.242,0-0.489,0.018-0.644,0.072V38.688z"/>
	<path fill="#FFFFFF" d="M49.696,45.019c-0.354,0.176-0.992,0.302-1.784,0.302c-2.77,0-4.35-2.261-4.35-6.009   c0-4.67,2.463-6.344,4.622-6.344c0.789,0,1.345,0.157,1.586,0.309l-0.354,1.627c-0.285-0.134-0.584-0.249-1.152-0.249   c-1.322,0-2.672,1.209-2.672,4.523c0,3.268,1.224,4.436,2.682,4.436c0.451,0,0.909-0.103,1.197-0.214L49.696,45.019z"/>
</g>
<g>
</g>
<g>
</g>
<g>
</g>
<g>
</g>
<g>
</g>
<g>
</g>
</svg>