<!-- Generator: Adobe Illustrator 25.2.3, SVG Export Plug-In . SVG Version: 6.00 Build 0)  --><svg x="0px" enable-background="new 0 0 60 60" y="0px" width="60px" xmlns:xlink="http://www.w3.org/1999/xlink" viewBox="0 0 60 60" height="60px" id="Layer_1" xmlns="http://www.w3.org/2000/svg" xml:space="preserve" version="1.1">
<rect width="60" fill="#991B1E" x="-0.012" height="60" id="UnitColor_3_" y="-0.085"/>
<rect width="60" fill="#EE1E3A" height="20.189" id="CS_2_" y="11.533" display="none"/>
<g id="Gar" display="none">
	<rect width="14.843" fill="none" x="0.73" height="8.039" y="2.802" display="inline"/>
	<path fill="#FFFFFF" d="M11.03,10.06c-0.472,0.163-1.361,0.379-2.249,0.379c-1.231,0-2.119-0.308-2.739-0.903   C5.424,8.949,5.085,8.072,5.089,7.083C5.097,4.842,6.73,3.567,8.936,3.567c0.87,0,1.539,0.165,1.873,0.323L10.49,5.111   C10.117,4.95,9.664,4.825,8.922,4.825c-1.27,0-2.235,0.714-2.235,2.18c0,1.391,0.878,2.205,2.125,2.205   c0.344,0,0.623-0.04,0.745-0.095V7.699H8.516V6.512h2.514V10.06z" display="inline"/>
</g>
<g id="Eng" display="none">
	<rect width="27.832" fill="none" x="1.1" height="8.039" y="2.802" display="inline"/>
	<path fill="#FFFFFF" d="M17.011,7.521h-2.479v1.602h2.771v1.248h-4.294V3.634h4.15v1.248h-2.626v1.403h2.479   V7.521z" display="inline"/>
</g>
<g id="P2" display="none">
	<path fill="#FFFFFF" d="M19.024,28.186c0.472-1.148,0.803-2.149,0.992-3.001c0.282-1.24,0.423-2.417,0.423-3.534   c0-1.066-0.099-2.078-0.295-3.035c-0.197-0.957-0.575-2.146-1.135-3.568h1.146c0.628,1.03,1.101,2.092,1.419,3.186   c0.319,1.094,0.478,2.185,0.478,3.274c0,1.094-0.159,2.218-0.476,3.374s-0.786,2.257-1.407,3.305H19.024z" display="inline"/>
</g>
<g id="P1" display="none">
	<path fill="#FFFFFF" d="M8.327,28.186H7.182c-0.605-1.025-1.071-2.111-1.396-3.257s-0.487-2.257-0.487-3.333   c0-1.162,0.163-2.296,0.489-3.401c0.326-1.105,0.795-2.154,1.408-3.148h1.146c-0.56,1.422-0.938,2.611-1.135,3.568   c-0.197,0.957-0.295,1.969-0.295,3.035c0,1.103,0.139,2.27,0.416,3.5C7.522,26.016,7.855,27.028,8.327,28.186z" display="inline"/>
</g>
<g id="Type">
	<path fill="#FFFFFF" d="M53.265,12.893v17.022H26.785V12.893H53.265z M28.204,15.139v12.53l10.443-6.265L28.204,15.139z    M50.468,14.312H29.583l10.443,6.265L50.468,14.312z M29.583,28.497h20.885l-10.442-6.265L29.583,28.497z M41.404,21.404   l10.441,6.265v-12.53L41.404,21.404z"/>
</g>
<g id="STK">
	<path fill="#FFFFFF" d="M13.307,17.911h-0.036l-2.139,1.074l-0.386-1.671l2.857-1.406h1.847v11.703h-2.144V17.911z"/>
</g>
<g id="ECH">
	<rect width="27.832" x="26.078" fill="none" height="8.039" y="2.802"/>
	<path fill="#FFFFFF" d="M39.33,3.634v6.736h-1.523V3.634H39.33z"/>
	<path fill="#FFFFFF" d="M42.18,3.634v6.736h-1.522V3.634H42.18z"/>
</g>
<g id="PF">
	<rect width="60" x="0" fill="none" height="15.475" y="44.525"/>
	<path fill="#FFFFFF" d="M19.713,54.48c0.257,0.149,0.626,0.257,0.967,0.257c0.637,0,0.989-0.398,0.989-0.941   c0-0.725-0.559-1.027-1.22-1.035h-0.18v-0.957h0.128c0.481-0.008,1.093-0.211,1.093-0.837c0-0.47-0.293-0.747-0.754-0.747   c-0.292,0-0.58,0.104-0.817,0.253l-0.175-0.984c0.267-0.176,0.796-0.342,1.335-0.342c1.142,0,1.719,0.735,1.719,1.567   c0,0.649-0.361,1.187-0.935,1.456v0.021c0.629,0.217,1.112,0.777,1.112,1.652c0,0.995-0.758,1.96-2.173,1.96   c-0.525,0-0.991-0.128-1.272-0.286L19.713,54.48z"/>
	<path fill="#FFFFFF" d="M23.324,56.122l2.344-7.216h0.852l-2.344,7.216H23.324z"/>
	<path fill="#FFFFFF" d="M26.588,55.723V54.84l0.646-0.825c0.842-1.071,1.529-1.963,1.529-2.89c0-0.523-0.291-0.888-0.83-0.888   c-0.408,0-0.737,0.18-0.975,0.325l-0.23-1.012c0.298-0.195,0.853-0.404,1.443-0.404c1.421,0,1.883,0.951,1.883,1.882   c0,1.22-0.765,2.192-1.509,3.062l-0.389,0.459v0.02h1.985v1.154H26.588z"/>
	<path fill="#FFFFFF" d="M32.623,54.38c0.271,0.156,0.734,0.265,1.107,0.265c0.618,0,0.927-0.321,0.927-0.765   c0-0.481-0.306-0.729-0.876-1.093c-0.921-0.565-1.27-1.271-1.27-1.883c0-1.082,0.718-1.978,2.129-1.978   c0.447,0,0.863,0.124,1.059,0.241l-0.209,1.127c-0.192-0.12-0.479-0.229-0.856-0.229c-0.562,0-0.831,0.339-0.831,0.695   c0,0.404,0.203,0.617,0.927,1.054c0.894,0.536,1.219,1.219,1.219,1.925c0,1.237-0.91,2.043-2.224,2.043   c-0.544,0-1.066-0.136-1.291-0.271L32.623,54.38z"/>
	<path fill="#FFFFFF" d="M37.78,54.185l-0.295,1.538h-1.271l1.463-6.736h1.568l1.31,6.736h-1.275l-0.287-1.538H37.78z    M38.877,53.168l-0.226-1.41c-0.064-0.409-0.154-1.086-0.221-1.531h-0.024c-0.072,0.447-0.172,1.144-0.242,1.533l-0.246,1.408   H38.877z"/>
</g>
<g id="Des">
	<rect width="60" x="0" fill="none" height="14.525" y="31.722"/>
	<path fill="#FFFFFF" d="M10.34,35.361h-0.036l-1.967,1.065l-0.342-1.503l2.587-1.415h1.652v11.703H10.34V35.361z"/>
	<path fill="#FFFFFF" d="M18.117,32.752h1.922v12.46h-1.922V32.752z"/>
	<path fill="#FFFFFF" d="M21.897,38.916c0-0.99-0.044-1.693-0.072-2.47H23.5l0.098,1.047h0.036c0.417-0.677,1.121-1.19,2.037-1.19   c0.907,0,1.566,0.424,1.877,1.261h0.036c0.224-0.384,0.542-0.724,0.879-0.939c0.352-0.214,0.769-0.321,1.219-0.321   c1.397,0,2.195,1.073,2.195,3.236v5.673h-1.912v-5.311c0-1.061-0.136-2-0.997-2c-0.49,0-0.887,0.376-1.062,1.025   c-0.044,0.176-0.064,0.434-0.064,0.698v5.587h-1.912v-5.608c0-0.783-0.111-1.702-0.979-1.702c-0.456,0-0.905,0.363-1.066,1.072   c-0.046,0.188-0.077,0.44-0.077,0.7v5.538h-1.912V38.916z"/>
	<path fill="#FFFFFF" d="M33.828,33.076h1.922v10.507h3.242v1.629h-5.164V33.076z"/>
	<path fill="#FFFFFF" d="M42.14,34.099v2.348h1.7v1.394h-1.7v4.546c0,1.073,0.417,1.346,0.898,1.346   c0.227,0,0.406-0.018,0.594-0.054l0.039,1.496c-0.291,0.09-0.712,0.146-1.256,0.146c-0.622,0-1.17-0.154-1.553-0.546   c-0.423-0.432-0.645-1.066-0.645-2.369V37.84h-1.049v-1.394h1.049v-1.857L42.14,34.099z"/>
	<path fill="#FFFFFF" d="M47.09,33.076v5.021h2.883v-5.021h1.922v12.136h-1.922v-5.346H47.09v5.346h-1.922V33.076H47.09z"/>
</g>
<g>
</g>
<g>
</g>
<g>
</g>
<g>
</g>
<g>
</g>
<g>
</g>
</svg>