<!-- Generator: Adobe Illustrator 25.2.3, SVG Export Plug-In . SVG Version: 6.00 Build 0)  --><svg x="0px" enable-background="new 0 0 60 60" y="0px" width="60px" xmlns:xlink="http://www.w3.org/1999/xlink" viewBox="0 0 60 60" height="60px" id="Layer_1" xmlns="http://www.w3.org/2000/svg" xml:space="preserve" version="1.1">
<rect width="60" fill="#991B1E" x="-0.012" height="60" id="UnitColor_3_" y="-0.085"/>
<rect width="60" fill="#EE1E3A" height="20.189" id="CS_2_" y="11.533" display="none"/>
<g id="Gar" display="none">
	<rect width="14.843" fill="none" x="0.73" height="8.039" y="2.802" display="inline"/>
	<path fill="#FFFFFF" d="M11.03,10.06c-0.472,0.163-1.361,0.379-2.249,0.379c-1.231,0-2.119-0.308-2.739-0.903   C5.424,8.949,5.085,8.072,5.089,7.083C5.097,4.842,6.73,3.567,8.936,3.567c0.87,0,1.539,0.165,1.873,0.323L10.49,5.111   C10.117,4.95,9.664,4.825,8.922,4.825c-1.27,0-2.235,0.714-2.235,2.18c0,1.391,0.878,2.205,2.125,2.205   c0.344,0,0.623-0.04,0.745-0.095V7.699H8.516V6.512h2.514V10.06z" display="inline"/>
</g>
<g id="Eng" display="none">
	<rect width="27.832" fill="none" x="1.1" height="8.039" y="2.802" display="inline"/>
	<path fill="#FFFFFF" d="M17.011,7.521h-2.479v1.602h2.771v1.248h-4.294V3.634h4.15v1.248h-2.626v1.403h2.479   V7.521z" display="inline"/>
</g>
<g id="P2" display="none">
	<path fill="#FFFFFF" d="M19.024,28.186c0.472-1.148,0.803-2.149,0.992-3.001c0.282-1.24,0.423-2.417,0.423-3.534   c0-1.066-0.099-2.078-0.295-3.035c-0.197-0.957-0.575-2.146-1.135-3.568h1.146c0.628,1.03,1.101,2.092,1.419,3.186   c0.319,1.094,0.478,2.185,0.478,3.274c0,1.094-0.159,2.218-0.476,3.374s-0.786,2.257-1.407,3.305H19.024z" display="inline"/>
</g>
<g id="P1" display="none">
	<path fill="#FFFFFF" d="M8.327,28.186H7.182c-0.605-1.025-1.071-2.111-1.396-3.257s-0.487-2.257-0.487-3.333   c0-1.162,0.163-2.296,0.489-3.401c0.326-1.105,0.795-2.154,1.408-3.148h1.146c-0.56,1.422-0.938,2.611-1.135,3.568   c-0.197,0.957-0.295,1.969-0.295,3.035c0,1.103,0.139,2.27,0.416,3.5C7.522,26.016,7.855,27.028,8.327,28.186z" display="inline"/>
</g>
<g id="Type">
	<path fill="#FFFFFF" d="M53.265,12.893v17.022H26.785V12.893H53.265z M28.204,15.139v12.53l10.443-6.265L28.204,15.139z    M50.468,14.312H29.583l10.443,6.265L50.468,14.312z M29.583,28.497h20.885l-10.442-6.265L29.583,28.497z M41.404,21.404   l10.441,6.265v-12.53L41.404,21.404z"/>
</g>
<g id="STK">
	<path fill="#FFFFFF" d="M13.307,17.911h-0.036l-2.139,1.074l-0.386-1.671l2.857-1.406h1.847v11.703h-2.144V17.911z"/>
</g>
<g id="ECH">
	<rect width="27.832" x="26.078" fill="none" height="8.039" y="2.802"/>
	<path fill="#FFFFFF" d="M39.33,3.634v6.736h-1.523V3.634H39.33z"/>
	<path fill="#FFFFFF" d="M42.18,3.634v6.736h-1.522V3.634H42.18z"/>
</g>
<g id="PF">
	<rect width="60" x="0" fill="none" height="15.475" y="44.525"/>
	<path fill="#FFFFFF" d="M21.074,50.459h-0.02l-1.101,0.565l-0.221-1.026l1.489-0.771h1.147v6.496h-1.295V50.459z"/>
	<path fill="#FFFFFF" d="M23.324,56.122l2.344-7.216h0.852l-2.344,7.216H23.324z"/>
	<path fill="#FFFFFF" d="M28.134,50.459h-0.02l-1.101,0.565l-0.221-1.026l1.489-0.771h1.147v6.496h-1.295V50.459z"/>
	<path fill="#FFFFFF" d="M32.623,54.38c0.271,0.156,0.734,0.265,1.107,0.265c0.618,0,0.927-0.321,0.927-0.765   c0-0.481-0.306-0.729-0.876-1.093c-0.921-0.565-1.27-1.271-1.27-1.883c0-1.082,0.718-1.978,2.129-1.978   c0.447,0,0.863,0.124,1.059,0.241l-0.209,1.127c-0.192-0.12-0.479-0.229-0.856-0.229c-0.562,0-0.831,0.339-0.831,0.695   c0,0.404,0.203,0.617,0.927,1.054c0.894,0.536,1.219,1.219,1.219,1.925c0,1.237-0.91,2.043-2.224,2.043   c-0.544,0-1.066-0.136-1.291-0.271L32.623,54.38z"/>
	<path fill="#FFFFFF" d="M37.78,54.185l-0.295,1.538h-1.271l1.463-6.736h1.568l1.31,6.736h-1.275l-0.287-1.538H37.78z    M38.877,53.168l-0.226-1.41c-0.064-0.409-0.154-1.086-0.221-1.531h-0.024c-0.072,0.447-0.172,1.144-0.242,1.533l-0.246,1.408   H38.877z"/>
</g>
<g id="Des">
	<rect width="60" x="0" fill="none" height="14.525" y="31.722"/>
	<path fill="#FFFFFF" d="M11.167,33.257c0.558-0.149,1.329-0.234,2.156-0.234c1.414,0,2.408,0.339,3.135,1.005   c0.995,0.882,1.603,2.471,1.603,4.902c0,2.603-0.651,4.237-1.581,5.134c-0.807,0.832-1.99,1.233-3.545,1.233   c-0.666,0-1.336-0.06-1.768-0.129V33.257z M13.078,43.675c0.16,0.036,0.345,0.036,0.471,0.036c1.314,0,2.522-1.108,2.522-4.807   c0-2.747-0.778-4.335-2.442-4.335c-0.19,0-0.386,0.016-0.551,0.062V43.675z"/>
	<path fill="#FFFFFF" d="M24.436,39.683h-2.887v3.861h3.273v1.668h-5.195V33.076h4.982v1.668h-3.06v3.332h2.887V39.683z"/>
	<path fill="#FFFFFF" d="M33.197,38.99c0,4.561-1.595,6.366-3.741,6.366c-2.417,0-3.622-2.566-3.622-6.232   c0-3.636,1.376-6.191,3.807-6.191C32.184,32.933,33.197,35.716,33.197,38.99z M27.833,39.145c0,2.638,0.499,4.536,1.721,4.536   c1.252,0,1.644-2.186,1.644-4.608c0-2.197-0.366-4.465-1.662-4.465C28.332,34.607,27.833,36.604,27.833,39.145z"/>
	<path fill="#FFFFFF" d="M34.765,33.257c0.67-0.16,1.511-0.234,2.314-0.234c1.247,0,2.293,0.216,3.007,0.887   c0.676,0.641,0.915,1.451,0.915,2.453c0,1.414-0.679,2.506-1.906,3.074v0.036c0.854,0.306,1.297,1.111,1.544,2.548   c0.255,1.486,0.546,2.777,0.741,3.191h-1.994c-0.159-0.348-0.417-1.538-0.625-2.948c-0.234-1.58-0.683-2.093-1.644-2.093h-0.441   v5.041h-1.911V33.257z M36.676,38.688h0.5c1.156,0,1.878-0.898,1.878-2.13c0-1.2-0.481-1.998-1.734-2.019   c-0.242,0-0.489,0.018-0.644,0.072V38.688z"/>
	<path fill="#FFFFFF" d="M42.921,45.212V37.84h-1.147v-1.394h1.147v-0.395c0-0.771,0.282-1.903,1.041-2.593   c0.553-0.504,1.323-0.851,2.574-0.851c0.939,0,1.919,0.221,2.486,0.463v12.141h-1.922V34.285c-0.216-0.094-0.5-0.152-0.854-0.152   c-1.041,0-1.403,0.871-1.403,1.816v0.497h1.382v1.394h-1.382v7.372H42.921z"/>
</g>
<g>
</g>
<g>
</g>
<g>
</g>
<g>
</g>
<g>
</g>
<g>
</g>
</svg>