<!-- Generator: Adobe Illustrator 25.2.3, SVG Export Plug-In . SVG Version: 6.00 Build 0)  --><svg x="0px" enable-background="new 0 0 60 60" y="0px" width="60px" xmlns:xlink="http://www.w3.org/1999/xlink" viewBox="0 0 60 60" height="60px" id="Layer_1" xmlns="http://www.w3.org/2000/svg" xml:space="preserve" version="1.1">
<rect width="60" fill="#991B1E" x="-0.012" height="60" id="UnitColor_3_" y="-0.085"/>
<rect width="60" fill="#EE1E3A" height="20.189" id="CS_2_" y="11.533" display="none"/>
<g id="Gar" display="none">
	<rect width="14.843" fill="none" x="0.73" height="8.039" y="2.802" display="inline"/>
	<path fill="#FFFFFF" d="M11.03,10.06c-0.472,0.163-1.361,0.379-2.249,0.379c-1.231,0-2.119-0.308-2.739-0.903   C5.424,8.949,5.085,8.072,5.089,7.083C5.097,4.842,6.73,3.567,8.936,3.567c0.87,0,1.539,0.165,1.873,0.323L10.49,5.111   C10.117,4.95,9.664,4.825,8.922,4.825c-1.27,0-2.235,0.714-2.235,2.18c0,1.391,0.878,2.205,2.125,2.205   c0.344,0,0.623-0.04,0.745-0.095V7.699H8.516V6.512h2.514V10.06z" display="inline"/>
</g>
<g id="Eng" display="none">
	<rect width="27.832" fill="none" x="1.1" height="8.039" y="2.802" display="inline"/>
	<path fill="#FFFFFF" d="M17.011,7.521h-2.479v1.602h2.771v1.248h-4.294V3.634h4.15v1.248h-2.626v1.403h2.479   V7.521z" display="inline"/>
</g>
<g id="P2" display="none">
	<path fill="#FFFFFF" d="M19.024,28.186c0.472-1.148,0.803-2.149,0.992-3.001c0.282-1.24,0.423-2.417,0.423-3.534   c0-1.066-0.099-2.078-0.295-3.035c-0.197-0.957-0.575-2.146-1.135-3.568h1.146c0.628,1.03,1.101,2.092,1.419,3.186   c0.319,1.094,0.478,2.185,0.478,3.274c0,1.094-0.159,2.218-0.476,3.374s-0.786,2.257-1.407,3.305H19.024z" display="inline"/>
</g>
<g id="P1" display="none">
	<path fill="#FFFFFF" d="M8.327,28.186H7.182c-0.605-1.025-1.071-2.111-1.396-3.257s-0.487-2.257-0.487-3.333   c0-1.162,0.163-2.296,0.489-3.401c0.326-1.105,0.795-2.154,1.408-3.148h1.146c-0.56,1.422-0.938,2.611-1.135,3.568   c-0.197,0.957-0.295,1.969-0.295,3.035c0,1.103,0.139,2.27,0.416,3.5C7.522,26.016,7.855,27.028,8.327,28.186z" display="inline"/>
</g>
<g id="Type">
	<path fill="#FFFFFF" d="M53.265,12.893v17.022H26.785V12.893H53.265z M37.969,21.737v-0.739l-9.765-5.859v12.53l9.887-5.932H37.969   z M50.468,14.312H29.583l9.574,5.744v-1.456h-1.186l2.054-3.272l2.054,3.272h-1.185v1.456L50.468,14.312z M37.97,24.541v-1.076   l-8.387,5.032h20.885l-8.387-5.032v1.076h-1.188v2.938h-1.737v-2.938H37.97z M39.156,22.752l-1.01,0.606h1.01V22.752z    M40.894,23.359h1.011l-1.011-0.606V23.359z M51.846,27.669v-12.53l-9.766,5.859v0.739h-0.121L51.846,27.669z"/>
</g>
<g id="STK">
	<path fill="#FFFFFF" d="M13.307,17.911h-0.036l-2.139,1.074l-0.386-1.671l2.857-1.406h1.847v11.703h-2.144V17.911z"/>
</g>
<g id="ECH">
	<rect width="27.832" x="26.078" fill="none" height="8.039" y="2.802"/>
	<path fill="#FFFFFF" d="M39.33,3.634v6.736h-1.523V3.634H39.33z"/>
	<path fill="#FFFFFF" d="M42.18,3.634v6.736h-1.522V3.634H42.18z"/>
</g>
<g id="PF">
	<rect width="60" x="0" fill="none" height="15.475" y="44.525"/>
	<path fill="#FFFFFF" d="M24.604,50.459h-0.02l-1.101,0.565l-0.221-1.026l1.489-0.771h1.147v6.496h-1.295V50.459z"/>
	<path fill="#FFFFFF" d="M29.093,54.38c0.271,0.156,0.735,0.265,1.108,0.265c0.618,0,0.926-0.321,0.926-0.765   c0-0.481-0.305-0.729-0.876-1.093c-0.92-0.565-1.269-1.271-1.269-1.883c0-1.082,0.717-1.978,2.128-1.978   c0.447,0,0.864,0.124,1.059,0.241l-0.209,1.127c-0.191-0.12-0.479-0.229-0.856-0.229c-0.562,0-0.831,0.339-0.831,0.695   c0,0.404,0.203,0.617,0.927,1.054c0.894,0.536,1.218,1.219,1.218,1.925c0,1.237-0.909,2.043-2.223,2.043   c-0.544,0-1.067-0.136-1.292-0.271L29.093,54.38z"/>
	<path fill="#FFFFFF" d="M34.25,54.185l-0.295,1.538h-1.271l1.463-6.736h1.568l1.31,6.736h-1.275l-0.287-1.538H34.25z    M35.347,53.168l-0.226-1.41c-0.064-0.409-0.154-1.086-0.221-1.531h-0.024c-0.072,0.447-0.172,1.144-0.242,1.533l-0.246,1.408   H35.347z"/>
</g>
<g id="Des">
	<rect width="60" x="0" fill="none" height="14.525" y="31.722"/>
	<path fill="#FFFFFF" d="M8.628,33.257c0.62-0.145,1.4-0.234,2.262-0.234c1.274,0,2.305,0.234,3.022,0.915   c0.658,0.612,0.974,1.556,0.974,2.595c0,1.227-0.342,2.071-0.896,2.72c-0.715,0.849-1.89,1.251-2.911,1.251   c-0.196,0-0.363,0-0.539-0.016v4.725H8.628V33.257z M10.54,38.911c0.139,0.026,0.278,0.034,0.464,0.034   c1.264,0,1.965-0.867,1.965-2.262c0-1.143-0.466-2.104-1.762-2.104c-0.266,0-0.502,0.036-0.667,0.09V38.911z"/>
	<path fill="#FFFFFF" d="M16.129,38.916c0-0.812-0.044-1.725-0.072-2.47h1.681l0.098,1.322h0.056   c0.339-0.889,1.065-1.466,1.781-1.466c0.187,0,0.292,0.01,0.408,0.03v1.922c-0.118-0.021-0.244-0.021-0.411-0.021   c-0.665,0-1.334,0.556-1.539,1.505c-0.049,0.211-0.08,0.507-0.08,0.841v4.632h-1.922V38.916z"/>
	<path fill="#FFFFFF" d="M22.417,41.346c0.021,1.958,0.93,2.491,1.953,2.491c0.64,0,1.183-0.145,1.573-0.312l0.272,1.383   c-0.547,0.258-1.393,0.412-2.194,0.412c-2.259,0-3.472-1.64-3.472-4.353c0-2.901,1.39-4.665,3.261-4.665   c1.844,0,2.773,1.666,2.773,4.016c0,0.5-0.021,0.796-0.051,1.027H22.417z M24.802,39.978c0.016-1.407-0.447-2.243-1.128-2.243   c-0.834,0-1.21,1.215-1.249,2.243H24.802z"/>
	<path fill="#FFFFFF" d="M27.833,43.396c0.329,0.208,0.93,0.461,1.512,0.461c0.685,0,1.105-0.366,1.105-1.003   c0-0.549-0.255-0.91-1.068-1.423c-1.303-0.776-1.777-1.619-1.777-2.51c0-1.51,1.101-2.619,2.681-2.619   c0.709,0,1.259,0.2,1.681,0.427l-0.394,1.419c-0.334-0.211-0.728-0.373-1.198-0.373c-0.665,0-0.992,0.44-0.992,0.912   c0,0.478,0.214,0.75,1.055,1.286c1.166,0.696,1.787,1.56,1.787,2.654c0,1.782-1.247,2.692-2.896,2.692   c-0.689,0-1.485-0.198-1.876-0.505L27.833,43.396z"/>
	<path fill="#FFFFFF" d="M33.425,43.161c0.452,0.272,1.241,0.483,1.882,0.483c1.184,0,1.83-0.693,1.83-1.686   c0-0.981-0.597-1.533-1.589-2.218c-1.343-0.859-2.287-2.068-2.287-3.38c0-1.897,1.289-3.394,3.555-3.394   c0.781,0,1.488,0.232,1.812,0.44l-0.357,1.649c-0.329-0.216-0.844-0.414-1.499-0.414c-1.092,0-1.612,0.742-1.612,1.472   c0,0.94,0.485,1.368,1.722,2.166c1.543,0.998,2.155,2.176,2.155,3.48c0,2.17-1.563,3.559-3.732,3.559   c-0.912,0-1.822-0.258-2.2-0.507L33.425,43.161z"/>
	<path fill="#FFFFFF" d="M42.662,34.099v2.348h1.7v1.394h-1.7v4.546c0,1.073,0.417,1.346,0.898,1.346   c0.227,0,0.406-0.018,0.594-0.054l0.039,1.496c-0.291,0.09-0.712,0.146-1.256,0.146c-0.622,0-1.17-0.154-1.553-0.546   c-0.423-0.432-0.645-1.066-0.645-2.369V37.84h-1.049v-1.394h1.049v-1.857L42.662,34.099z"/>
	<path fill="#FFFFFF" d="M45.513,38.916c0-0.99-0.043-1.693-0.071-2.47h1.665l0.098,1.031h0.036   c0.416-0.702,1.154-1.175,2.072-1.175c1.461,0,2.239,1.135,2.239,3.167v5.742H49.63v-5.559c0-0.876-0.186-1.731-1.022-1.731   c-0.478,0-0.905,0.366-1.075,1.072c-0.057,0.193-0.098,0.477-0.098,0.798v5.42h-1.922V38.916z"/>
</g>
<g>
</g>
<g>
</g>
<g>
</g>
<g>
</g>
<g>
</g>
<g>
</g>
</svg>