<svg width="60" height="60" xmlns="http://www.w3.org/2000/svg" viewBox="0 0 60 60">
  <rect fill="#f8f4b2" height="60" width="60"/>
  <g>
    <path stroke-linecap="round" transform="translate(0 0)" fill="#010101" stroke-linejoin="round" d="M5.138,35.521h-.1c-.013,0-.039,0-.079-.005H4.909l-.044,0H4.849l-.049,0H4.785l-.09.005-.037,0-.049,0-.035,0h0a1.1,1.1,0,0,0-.127.008l-.036,0-.022,0h-.15l-.064,0H4.124l-.045,0-.044,0H4.023l-.035-.005c-.023,0-.058-.007-.1-.011a.6.6,0,0,0-.066-.005l-.076,0-.069,0H3.665l-.13,0-.091,0H3.366l-.125,0-.061,0-.119,0L3,35.5H2.886c-.045,0-.079,0-.1,0l-.117.012-.023-.028-.022-.029L2.6,35.427l-.021-.03-.02-.031-.02-.03L2.518,35.3,2.5,35.273l-.017-.032-.017-.033-.016-.032-.015-.033-.014-.034-.014-.034-.013-.034-.012-.034-.011-.035-.011-.035L2.35,34.9l-.009-.035-.008-.035L2.326,34.8l-.007-.036,0-.036,0-.036,0-.036,0-.037,0-.036,0-.036v-.11l0-.036,0-.036,0-.037,0-.036,0-.036,0-.036.007-.036.007-.035.008-.036.009-.035.01-.035L2.371,34l.011-.035.012-.034.013-.034.014-.034.014-.033L2.45,33.8l.016-.033.017-.032L2.5,33.7l.018-.032.019-.031.02-.031.02-.03.021-.03.021-.029.022-.029.023-.028.027-.032.042.02.044.017.054.018.009,0,.049.01.01,0a.445.445,0,0,0,.06.011.533.533,0,0,0,.053.008.556.556,0,0,0,.064,0H3.1l.058-.006h0l.048-.007a.551.551,0,0,0,.062-.012l.039-.011h.1l.023,0,.048.006.057.005.086.006.058.006h.009l.029,0,.037.006.054.006.045.006.055.006L4,33.55l.1.012.069.01.058.008.081.013.048.007.082.012.112.014.09.013.035,0,.088.01c.03,0,.055,0,.075,0l.061,0,.1,0h.238l.061,0,.023.04.017.032.017.032.016.033.015.034.015.033.014.034.012.034.012.034L5.446,34l.01.035.01.035.009.035.008.036.008.035.006.036.006.036,0,.036,0,.036,0,.037,0,.036v.182l0,.036,0,.037,0,.036,0,.036L5.5,34.76l-.006.036-.008.036-.008.035-.009.035-.01.035-.01.035-.012.035-.012.034-.012.034-.014.034-.015.034-.015.033-.016.032-.017.033-.017.032L5.3,35.3l-.019.032-.019.03-.02.031-.021.03-.022.029-.022.029-.029.036" stroke="#010101" stroke-width="0.116"/>
    <path stroke-linecap="round" transform="translate(0 0)" fill="#010101" stroke-linejoin="round" d="M2.7,33.423l54.141.032.544,2.084H2.7Z" stroke="#010101" stroke-width="0.116"/>
    <path stroke-linecap="round" transform="translate(0 0)" fill="#010101" stroke-linejoin="round" d="M14.2,32.546H56.834V33.7H14.2Z" stroke="#010101" stroke-width="0.116"/>
    <path stroke-linecap="round" transform="translate(0 0)" fill="#010101" stroke-linejoin="round" d="M11.634,32.335l3.2-.207.026,1.446H11.635Z" stroke="#010101" stroke-width="0.116"/>
    <path stroke-linecap="round" transform="translate(0 0)" fill="#010101" stroke-linejoin="round" d="M9.288,32.6l2.48-.155.028.451-2.508-.132Z" stroke="#010101" stroke-width="0.116"/>
    <path stroke-linecap="round" transform="translate(0 0)" fill="#010101" stroke-linejoin="round" d="M48.86,31.575l-2.48-.156-.029.451,2.509-.131Z" stroke="#010101" stroke-width="0.116"/>
    <path stroke-linecap="round" transform="translate(0 0)" fill="#010101" stroke-linejoin="round" d="M43.412,31.185l2.809.054.309.777-3.508.1Z" stroke="#010101" stroke-width="0.116"/>
    <path stroke-linecap="round" transform="translate(0 0)" fill="#010101" stroke-linejoin="round" d="M43.789,31.979h2.739v.885H43.789Z" stroke="#010101" stroke-width="0.116"/>
    <path stroke-linecap="round" transform="translate(0 0)" fill="#010101" stroke-linejoin="round" d="M38.51,31.665h3.282v1.076H38.51Z" stroke="#010101" stroke-width="0.116"/>
    <path stroke-linecap="round" transform="translate(0 0)" fill="#010101" stroke-linejoin="round" d="M38.725,30.593h2.791v1.335H38.725Z" stroke="#010101" stroke-width="0.116"/>
    <path stroke-linecap="round" transform="translate(0 0)" fill="#010101" stroke-linejoin="round" d="M39.221,29.813H41.5v1.033H39.221Z" stroke="#010101" stroke-width="0.116"/>
    <path stroke-linecap="round" transform="translate(0 0)" fill="#010101" stroke-linejoin="round" d="M37.034,27.612h1.188v3.466H37.034Z" stroke="#010101" stroke-width="0.116"/>
    <path stroke-linecap="round" transform="translate(0 0)" fill="#010101" stroke-linejoin="round" d="M36.885,30.921h1.482v1.868H36.885Z" stroke="#010101" stroke-width="0.116"/>
    <path stroke-linecap="round" transform="translate(0 0)" fill="#010101" stroke-linejoin="round" d="M34.536,27.667h1.188v3.466H34.536Z" stroke="#010101" stroke-width="0.116"/>
    <path stroke-linecap="round" transform="translate(0 0)" fill="#010101" stroke-linejoin="round" d="M34.388,30.887h1.481v1.869H34.388Z" stroke="#010101" stroke-width="0.116"/>
    <path stroke-linecap="round" transform="translate(0 0)" fill="#010101" stroke-linejoin="round" d="M24.269,32.1h1.81l.679.589-3.426.163Z" stroke="#010101" stroke-width="0.116"/>
    <path stroke-linecap="round" transform="translate(0 0)" fill="#010101" stroke-linejoin="round" d="M29.981,32.178H31.79l.679.588-3.425.164Z" stroke="#010101" stroke-width="0.116"/>
    <path stroke-linecap="round" transform="translate(0 0)" fill="#010101" stroke-linejoin="round" d="M21.577,27.59h1.188v3.466H21.577Z" stroke="#010101" stroke-width="0.116"/>
    <path stroke-linecap="round" transform="translate(0 0)" fill="#010101" stroke-linejoin="round" d="M21.412,30.823h1.482v1.868H21.412Z" stroke="#010101" stroke-width="0.116"/>
    <path stroke-linecap="round" transform="translate(0 0)" fill="#010101" stroke-linejoin="round" d="M18.925,27.645h1.188v3.466H18.925Z" stroke="#010101" stroke-width="0.116"/>
    <path stroke-linecap="round" transform="translate(0 0)" fill="#010101" stroke-linejoin="round" d="M18.8,30.816h1.482v1.869H18.8Z" stroke="#010101" stroke-width="0.116"/>
    <path stroke-linecap="round" transform="translate(0 0)" fill="#010101" stroke-linejoin="round" d="M24.338,18.65l.139.066.309,13.661h-.449Z" stroke="#010101" stroke-width="0.116"/>
    <path stroke-linecap="round" transform="translate(0 0)" fill="#010101" stroke-linejoin="round" d="M22.328,26.554h4.357v.2H22.328Z" stroke="#010101" stroke-width="0.116"/>
  </g>
  <g>
    <path d="M8.026,51.324a2.732,2.732,0,0,0,1.254.322A1.086,1.086,0,0,0,10.5,50.523c0-.653-.4-1.02-1.059-1.476A2.869,2.869,0,0,1,7.917,46.8a2.189,2.189,0,0,1,2.368-2.26,2.465,2.465,0,0,1,1.207.293l-.238,1.1a1.829,1.829,0,0,0-1-.276.982.982,0,0,0-1.073.98c0,.627.323.912,1.147,1.443a2.687,2.687,0,0,1,1.435,2.318,2.308,2.308,0,0,1-2.486,2.371,3.094,3.094,0,0,1-1.466-.338Z" transform="translate(0 0)"/>
    <path d="M15.292,52.69l-.075-.594h-.029a1.431,1.431,0,0,1-1.237.69,1.554,1.554,0,0,1-1.469-1.726c0-1.5,1.268-2.134,2.59-2.147v-.154c0-.608-.238-1.035-.873-1.035a1.977,1.977,0,0,0-1.089.323l-.246-.873a3.244,3.244,0,0,1,1.614-.418c1.5,0,1.887,1.029,1.887,2.271v2.334a8.988,8.988,0,0,0,.076,1.329Zm-.186-2.923c-.5.006-1.4.145-1.4,1.162,0,.658.352.9.633.9a.776.776,0,0,0,.738-.668,1.193,1.193,0,0,0,.031-.3Z" transform="translate(0 0)"/>
    <path d="M17.562,48.5c0-.66-.03-1.128-.049-1.645h1.11l.065.687h.023a1.575,1.575,0,0,1,1.381-.783c.973,0,1.491.756,1.491,2.109V52.69H20.3v-3.7c0-.583-.124-1.153-.682-1.153-.317,0-.6.244-.716.715a2.011,2.011,0,0,0-.065.531v3.61H17.562Z" transform="translate(0 0)"/>
    <path d="M29.035,52.479a4.729,4.729,0,0,1-1.563.284,2.679,2.679,0,0,1-2.05-.794,4.576,4.576,0,0,1-1.012-3.244c.027-3.036,1.673-4.19,3.257-4.19a2.915,2.915,0,0,1,1.247.236l-.244,1.1a2.012,2.012,0,0,0-.928-.189c-1.04,0-2,.769-2,3.051,0,2.189.842,2.937,1.683,2.937a1.042,1.042,0,0,0,.427-.066V49.351h-.867V48.3h2.051Z" transform="translate(0 0)"/>
    <path d="M31.477,45.322a.685.685,0,0,1-.707.738.677.677,0,0,1-.666-.738.689.689,0,1,1,1.373,0ZM30.161,52.69V46.852H31.44V52.69Z" transform="translate(0 0)"/>
    <path d="M36.579,49.758c0,2.354-1.214,3.028-2.1,3.028-1.239,0-2.083-1.035-2.083-3,0-2.109,1.036-3.029,2.126-3.029C35.746,46.756,36.579,47.832,36.579,49.758Zm-2.908.007c0,.982.167,2.033.849,2.033.636,0,.782-1.152.782-2.033,0-.848-.146-2.021-.807-2.021C33.811,47.744,33.671,48.917,33.671,49.765Z" transform="translate(0 0)"/>
    <path d="M37.535,48.5c0-.541-.028-1.149-.048-1.645h1.12l.065.88h.038a1.383,1.383,0,0,1,1.186-.976,1.482,1.482,0,0,1,.272.02v1.281a1.592,1.592,0,0,0-.273-.014,1.143,1.143,0,0,0-1.026,1,2.577,2.577,0,0,0-.054.56V52.69h-1.28Z" transform="translate(0 0)"/>
    <path d="M44.693,46.852c-.025.475-.054,1.047-.054,1.836v3.3a3.248,3.248,0,0,1-.649,2.466,2.349,2.349,0,0,1-1.742.634,3.293,3.293,0,0,1-1.382-.281l.257-.992a2.531,2.531,0,0,0,1.1.25c.763,0,1.139-.494,1.139-1.581v-.458h-.023a1.168,1.168,0,0,1-1.078.636c-1.186,0-1.775-1.31-1.775-2.851,0-2.037.924-3.056,1.909-3.056a1.192,1.192,0,0,1,1.081.718H43.5l.065-.622ZM43.365,48.93a1.585,1.585,0,0,0-.055-.427c-.086-.316-.272-.663-.656-.663-.608,0-.9.826-.9,1.931,0,1.27.38,1.876.881,1.876.24,0,.511-.116.657-.608a1.47,1.47,0,0,0,.068-.488Z" transform="translate(0 0)"/>
    <path d="M47.113,45.322a.684.684,0,0,1-.708.738.677.677,0,0,1-.665-.738.689.689,0,1,1,1.373,0ZM45.8,52.69V46.852h1.28V52.69Z" transform="translate(0 0)"/>
    <path d="M52.215,49.758c0,2.354-1.214,3.028-2.1,3.028-1.238,0-2.083-1.035-2.083-3,0-2.109,1.036-3.029,2.126-3.029C51.382,46.756,52.215,47.832,52.215,49.758Zm-2.908.007c0,.982.167,2.033.847,2.033.638,0,.784-1.152.784-2.033,0-.848-.146-2.021-.807-2.021C49.446,47.744,49.307,48.917,49.307,49.765Z" transform="translate(0 0)"/>
  </g>
  <g>
    <path d="M17.572,16.064a6.1,6.1,0,0,1-2.45.427A4.46,4.46,0,0,1,10.3,11.735a4.754,4.754,0,0,1,5.053-4.98,5.292,5.292,0,0,1,2.287.417l-.374,1.375a4.488,4.488,0,0,0-1.842-.37,3.142,3.142,0,0,0-3.309,3.472,3.087,3.087,0,0,0,3.287,3.4,5.035,5.035,0,0,0,1.882-.341Z" transform="translate(0 0)"/>
    <path d="M19.025,6.9h1.726V14.9h3.882v1.447H19.025Z" transform="translate(0 0)"/>
    <path d="M31.359,16.343v-.75l.967-.938c2.324-2.216,3.383-3.4,3.389-4.772A1.618,1.618,0,0,0,33.921,8.1a3.152,3.152,0,0,0-1.938.771l-.392-.862a4,4,0,0,1,2.575-.926,2.557,2.557,0,0,1,2.781,2.642c0,1.691-1.218,3.05-3.135,4.889l-.719.68v.028h4.08v1.02Z" transform="translate(0 0)"/>
    <path d="M37.9,16.9l3.9-10.155h.959L38.841,16.9Z" transform="translate(0 0)"/>
    <path d="M48.547,8.1a5.2,5.2,0,0,0-.932.066A3.66,3.66,0,0,0,44.46,11.4h.033a2.774,2.774,0,0,1,4.951,1.882A3.05,3.05,0,0,1,46.41,16.5c-1.94,0-3.214-1.516-3.214-3.876a5.709,5.709,0,0,1,1.541-4.107,4.943,4.943,0,0,1,2.912-1.349A5.146,5.146,0,0,1,48.54,7.1Zm-.353,5.261a1.851,1.851,0,0,0-1.872-2.087,2.029,2.029,0,0,0-1.774,1.117,1.165,1.165,0,0,0-.132.54c.019,1.5.709,2.618,2,2.618C47.479,15.551,48.194,14.665,48.194,13.363Z" transform="translate(0 0)"/>
  </g>
</svg>