<svg width="60" height="60" xmlns="http://www.w3.org/2000/svg" viewBox="0 0 60 60">
  <rect fill="#ffcd34" height="60" width="60"/>
  <g>
    <path fill="#010101" d="M48.7,39.1a.1.1,0,0,1,0,.025v.026a.235.235,0,0,1,0,.026c0,.009,0,.017,0,.026l0,.025,0,.026,0,.026,0,.025,0,.026-.006.026-.005.024-.007.026-.006.026-.009.024-.008.024-.008.025-.009.024-.01.024-.011.023a.109.109,0,0,1-.01.025l-.011.023-.012.023-.013.023-.012.023-.013.022-.014.021-.015.022-.015.021-.015.021-.016.021-.016.019-.016.021-.018.02-.017.019-.018.018-.019.018-.019.018-.019.018-.02.016-.02.018-.021.014-.02.017-.02.015-.022.014-.022.014-.023.013-.021.014-.023.012-.023.012-.023.013-.023.01-.025.011-.024.01-.023.009-.025.01-.025.008-.025.008-.024.007-.026.006-.024.007-.026.006-.025,0-.026.005-.026,0-.026,0-.025,0H47.6l-.025,0h-.053l-.026,0h-.051l-.026,0-.026,0-.025,0-.026-.005-.026,0-.024-.006-.026-.007-.026-.006-.024-.007-.024-.008-.025-.008-.024-.01-.025-.009-.024-.01-.024-.011-.023-.01-.023-.013-.023-.012-.023-.012L46.96,40.1l-.023-.013-.022-.014-.02-.014-.022-.015-.02-.017-.02-.014-.02-.018-.021-.016-.019-.018-.019-.018-.017-.018-.019-.018-.018-.019-.017-.02-.017-.021-.016-.019-.016-.021-.015-.021-.015-.021-.013-.022-.015-.021-.014-.022-.012-.023-.012-.023-.012-.023-.011-.023a.112.112,0,0,1-.011-.025l-.011-.023-.009-.024-.01-.024-.008-.025-.008-.024-.008-.024-.007-.026-.007-.026-.005-.024-.006-.026,0-.026,0-.025,0-.026,0-.026,0-.025V39.18l0-.026v-.026a.1.1,0,0,1,0-.025v-.027l0-.026v-.026l0-.026,0-.025,0-.026,0-.026,0-.025.006-.026.005-.024.007-.026.007-.025.008-.025.008-.025.008-.024.01-.024.009-.025.011-.023a.128.128,0,0,1,.011-.024l.011-.023.012-.023.012-.023.012-.022.014-.023.015-.021.013-.022.015-.022.015-.02.016-.02.016-.021.017-.02.017-.019.018-.019.019-.019.017-.019.019-.017.019-.018.021-.016.02-.016.02-.017.02-.016.022-.015.02-.015.022-.013.023-.014.022-.013.023-.012.023-.013.023-.012.023-.011.024-.01.024-.01.025-.009.024-.01.025-.008.024-.008.024-.007L47.27,38,47.3,38l.024-.005.026-.006.026,0,.025,0,.026,0,.026,0,.025,0H47.5l.026,0h.053l.025,0h.026l.026,0,.025,0,.026,0,.026,0,.026,0,.025.006L47.81,38l.024.005.026.007.024.007.025.008.025.008.025.01.023.009.024.01.025.01.023.011.023.012.023.013.023.012.021.013.023.014.022.013.022.015.02.015.02.016.021.017.02.016.02.016.019.018.019.017.019.019.018.019.017.019.018.019.016.02.016.021.016.02.015.02.015.022.015.022.014.021.013.023.012.022.013.023.012.023.011.023a.122.122,0,0,1,.01.024l.011.023.01.025.009.024.008.024.008.025.009.025.006.025.007.026.005.024.006.026,0,.025,0,.026,0,.026,0,.025,0,.026c0,.009,0,.018,0,.026a.235.235,0,0,1,0,.026Z" transform="translate(0 0)"/>
    <path fill="#010101" d="M53.416,37.253v.025l0,.026v.053l0,.026,0,.025,0,.026,0,.026-.006.025,0,.025-.006.025-.006.026-.007.025-.007.024-.008.026-.01.024-.008.024-.011.023-.009.025-.011.023-.012.024-.011.023-.012.023-.014.022-.013.023-.014.021-.014.022-.015.022-.015.02-.016.02L53.153,38l-.016.02-.018.019-.017.019-.018.019-.019.017-.019.019-.019.017-.019.017-.02.016-.02.017-.022.016-.02.015-.022.015-.021.013-.022.014-.023.013-.023.012-.023.013-.023.012-.023.011-.024.01-.023.01-.025.009-.024.009-.025.009-.025.007-.025.008-.025.007-.025.005-.025.005-.026.006-.026,0-.026,0-.025,0-.026,0-.026,0H52.32l-.026,0h-.052l-.027,0H52.19l-.026,0-.026,0-.026,0-.025,0-.026,0-.024-.006-.026-.005-.026-.005-.024-.007-.026-.008-.024-.007-.025-.009-.024-.009-.024-.009-.025-.01-.023-.01-.024-.011-.023-.012-.023-.013-.022-.012-.023-.013-.021-.014-.022-.013-.022-.015-.021-.015-.021-.016-.02-.017-.02-.016-.019-.017-.02-.017-.019-.019-.018-.017-.019-.019-.016-.019-.018-.019L51.382,38l-.017-.021-.014-.02-.017-.02-.015-.022-.013-.022-.014-.021a.1.1,0,0,1-.013-.023l-.014-.022-.012-.023-.012-.023-.011-.024-.011-.023-.011-.025-.009-.023-.01-.024-.008-.024-.008-.026-.008-.024-.007-.025-.005-.026-.007-.025-.005-.025,0-.025,0-.026,0-.026,0-.025,0-.026a.217.217,0,0,0,0-.026.245.245,0,0,0,0-.027v-.077a.246.246,0,0,0,0-.026.226.226,0,0,0,0-.026l0-.025,0-.026,0-.026,0-.025,0-.026.005-.026.007-.026.005-.024.007-.026.008-.024.008-.024.008-.025.01-.024.009-.024.011-.025.011-.023.011-.023.012-.023.012-.023.014-.023a.12.12,0,0,1,.013-.021l.014-.022.013-.022.015-.021.017-.021.014-.021.017-.021.017-.019.018-.02.016-.019.019-.019.018-.017.019-.018.02-.018.019-.017.02-.016.02-.017.021-.015.021-.015.022-.014.022-.014.021-.015.023-.012.022-.014.023-.012.023-.011.024-.01.023-.011.025-.01.024-.009.024-.01.025-.008.024-.008.026-.007.024-.006.026-.007.026-.006.024,0,.026-.005.025,0,.026,0,.026,0h.051l.027,0h.052l.026,0h.051l.026,0,.025,0,.026,0,.026.005.026,0,.025.006.025.007.025.006.025.007.025.008.025.008.024.01.025.009.023.01.024.011.023.01.023.011.023.012.023.014.023.012.022.015.021.014.022.014.02.015.022.015.02.017.02.016.019.017.019.018.019.018.019.017.018.019.017.019.018.02.016.019.017.021.016.021.015.021.015.021.014.022.014.022.013.021.014.023.012.023.011.023.012.023.011.023.009.025.011.024.008.024.01.025.008.024.007.024.007.026.006.024.006.026,0,.026.006.026,0,.025,0,.026,0,.026,0,.025v.052Z" transform="translate(0 0)"/>
    <path fill="#010101" d="M55.542,39.934v.078l0,.026v.026l0,.025,0,.026,0,.026,0,.025-.006.026-.006.025-.006.025-.008.025-.007.025-.008.025-.008.024-.009.024-.01.025-.011.023-.011.024-.01.023-.013.023-.012.023-.013.022-.014.023-.013.022-.014.021-.015.022-.016.02-.016.02-.015.021-.018.02-.016.019-.019.019-.018.019-.017.019-.019.017-.02.018-.019.016-.021.016-.02.017-.02.016-.022.015-.022.015-.021.013-.022.014-.023.013-.022.013-.023.012-.023.012-.024.011L54.849,41l-.024.009-.025.01-.024.009-.024.008-.025.008-.025.007-.025.007-.026,0a.1.1,0,0,1-.025.006l-.025.005-.025,0-.026,0-.026,0-.025,0-.026,0-.027,0h-.1l-.026,0-.026,0-.025,0-.027,0-.025,0-.025,0-.026-.005a.11.11,0,0,1-.026-.006l-.026,0-.024-.007-.024-.007-.026-.008-.024-.008-.025-.009-.024-.01L53.941,41l-.024-.011-.023-.011-.023-.012-.023-.012-.023-.013L53.8,40.93l-.022-.014-.022-.013-.021-.015-.021-.015-.021-.016-.021-.017-.02-.016-.019-.016-.019-.018-.019-.017-.019-.019-.017-.019-.018-.019-.018-.019-.016-.02-.016-.021-.016-.02-.015-.02-.015-.022-.015-.021-.014-.022-.013-.023-.014-.022-.012-.023-.011-.023-.012-.023-.011-.024-.009-.023-.011-.025-.008-.024-.009-.024-.009-.025-.006-.025-.007-.025-.007-.025-.005-.025-.006-.026-.005-.025,0-.026,0-.026,0-.025v-.026l0-.026v-.13l0-.025v-.026l0-.026,0-.026,0-.025.005-.026.006-.026.005-.024.007-.026.007-.024L53.3,39.6l.009-.024.009-.025.008-.024.011-.024.009-.023.011-.025.012-.023.011-.023.012-.023.014-.023.013-.021.014-.022.015-.022.015-.021.015-.021.016-.02.016-.02.016-.021.018-.019.018-.02.017-.017.019-.019.019-.018.019-.018.019-.016.02-.017.021-.015.021-.017.021-.014.021-.015.022-.014.022-.013.023-.014.023-.012.023-.012.023-.012.023-.011.024-.011.023-.01.024-.009.025-.009.024-.009.026-.008.024-.007.024-.006.026-.007.026-.005.026-.005.025,0,.025,0,.027,0,.025,0,.026,0h.156l.026,0,.025,0,.026,0,.026,0,.025,0,.025.005.025.005.026.007.025.006.025.007.025.008.024.009.024.009.025.009.024.01.023.011.024.011.023.012.023.012.022.012.023.014.022.013.021.014.022.015.022.014.02.017.02.016.021.016.019.016.02.018.019.018.017.019.018.017.019.02.016.019.018.021.016.02.015.02.016.021.015.021.014.022.013.022.014.021.013.023.012.023.013.023.01.023.011.025.011.023.01.024.009.024.008.025.008.024.008.026.007.024.006.026.006.024.006.026,0,.026,0,.025,0,.026,0,.026v.026l0,.025v.052Z" transform="translate(0 0)"/>
    <path fill="#010101" d="M57.255,42.52v2.4H36.023v-2.4Z" transform="translate(0 0)"/>
    <path fill="#010101" d="M57.186,48.238v2.4H28.876v-2.4Z" transform="translate(0 0)"/>
    <path fill="#010101" d="M57.147,52.717v2.4H14.681v-2.4Z" transform="translate(0 0)"/>
    <path fill="#010101" d="M29.837,45.713v.053l0,.025v.026l0,.026,0,.025,0,.026,0,.026,0,.026,0,.025,0,.025-.007.025-.007.025-.008.025-.008.025-.008.024-.01.024-.009.025-.011.023-.011.024-.011.023-.012.023-.012.023-.012.022-.014.023-.015.022-.013.021-.015.022-.016.02-.015.02-.017.021-.017.02-.016.019-.018.019-.019.019-.018.019-.018.017-.019.018-.021.016-.02.017-.02.016-.021.016-.021.015-.021.015L29.3,46.7l-.021.014-.022.013-.023.013-.023.012-.023.012-.024.011-.023.011-.025.009-.024.01-.024.009-.025.008-.024.008L29,46.832l-.026.007-.026.005-.024.006-.026,0-.026,0-.025,0-.026,0-.026,0-.026,0-.025,0h-.1l-.026,0-.026,0-.026,0-.025,0-.026,0-.026,0-.025,0-.026-.006-.025-.005-.025-.007-.025-.007-.024-.008-.026-.008-.024-.009-.023-.01-.024-.009-.025-.011-.023-.011-.023-.012-.023-.012-.023-.013-.021-.013-.023-.014-.022-.013-.022-.015-.02-.015-.02-.016-.022-.016L27.95,46.6l-.02-.016-.019-.018-.019-.017-.019-.019-.018-.019-.017-.019-.018-.019-.016-.02-.016-.021-.017-.02-.015-.02-.014-.022-.015-.021-.014-.022-.013-.023-.012-.022-.013-.023-.012-.023-.012-.023-.011-.024-.009-.023-.01-.025-.009-.024L27.6,46.1a.106.106,0,0,1-.009-.025l-.008-.025-.006-.025L27.574,46l-.006-.025-.005-.025,0-.026,0-.026,0-.026,0-.025,0-.026v-.051l0-.028v-.025l0-.026v-.051l0-.026,0-.026,0-.026,0-.025,0-.026.005-.026.006-.024.007-.026.006-.025.008-.025a.117.117,0,0,1,.009-.024l.008-.025.009-.024.01-.024.009-.023.011-.025.012-.023.012-.023.013-.023.012-.023.013-.021.014-.022.015-.022.014-.021.015-.021.017-.021L27.8,45l.016-.021.018-.018.017-.021.018-.017.019-.019.019-.018.019-.017.02-.017.019-.017.02-.015.022-.016.02-.015.022-.015.022-.014.023-.013.021-.014.023-.012.023-.012.023-.012.023-.011.025-.011.024-.009.023-.01.024-.009.026-.009.024-.008.025-.006.025-.007.025-.007.026-.005.025,0,.026-.006.026,0,.025,0,.026,0,.026,0h.155l.026,0,.026,0,.026,0,.025,0,.026.006.026,0,.024.005.026.007.026.007.024.006.024.008.025.009.024.009.024.01.025.009.023.011.024.011.023.012.023.012.023.012.022.014.021.013.023.014.021.015.021.015.021.016.02.015.02.017.021.017.019.017.018.018.018.019.019.017.018.021.016.018.017.021.017.019.015.021.016.021.015.021.013.022.015.022.014.021.012.023.012.023.012.023.011.023.011.025.011.023.009.024.01.024.008.025.008.024.008.026.007.024.007.026,0,.024,0,.026,0,.026,0,.025,0,.026,0,.026,0,.026v.025l0,.026Z" transform="translate(0 0)"/>
    <path fill="#010101" d="M32.148,42.57v.052a.218.218,0,0,1,0,.025v.026l0,.026,0,.025,0,.026,0,.026,0,.026-.005.025-.006.025-.007.025L32.1,42.9l-.008.025-.009.025-.008.024L32.07,43l-.01.024-.011.023-.01.024-.011.023-.012.023L32,43.141l-.012.023-.013.022-.015.022-.014.021-.014.022-.017.02-.015.022-.016.019-.018.02-.016.019-.017.02-.019.018-.018.019-.019.017-.019.018-.02.016-.02.017a.166.166,0,0,1-.021.016l-.02.016-.022.015-.021.015-.022.013-.022.014-.021.013-.023.013-.023.012-.023.012-.025.011-.023.011-.024.009-.024.01-.025.009-.024.008-.024.008-.026.007-.025.007-.025.007-.025.005-.025,0-.026,0-.026,0-.025,0-.026,0h-.026l-.026,0h-.1l-.025,0H30.9l-.026,0-.026,0-.025,0-.026,0-.026,0-.025-.005-.025-.007-.026-.007-.024-.007-.026-.008-.024-.008-.024-.009-.025-.01-.023-.009-.024-.011-.023-.011-.023-.012-.023-.012-.023-.013-.022-.013-.023-.014-.021-.013-.022-.015-.02-.015-.022-.016-.02-.016-.019-.017-.021-.016-.019-.018-.018-.017-.019-.019-.018-.018-.018-.02-.017-.019-.016-.02-.017-.019-.016-.022-.015-.02-.015-.022-.015-.021-.013-.022-.014-.022L30,43.141l-.012-.023-.012-.023-.012-.023-.011-.024-.01-.023L29.933,43l-.01-.025-.009-.024-.008-.025L29.9,42.9l-.007-.025-.007-.025-.005-.025,0-.025,0-.026-.006-.026,0-.026,0-.025,0-.026v-.026l0-.025v-.079l0-.026v-.025l0-.026,0-.026,0-.025.006-.026,0-.026,0-.026.005-.024.007-.026.007-.024.007-.026.008-.024.009-.025.01-.024.009-.024.01-.023.011-.025.012-.023.012-.023L30,42.023,30.011,42l.014-.023.013-.022.015-.022.015-.021.015-.021.016-.02.017-.02.016-.02.017-.019.018-.019.018-.019.019-.019.018-.018.019-.017.021-.017.019-.016.02-.016.022-.016.02-.015.022-.015.021-.014.023-.013.022-.014.023-.012.023-.012.023-.012.023-.011.024-.011.023-.009.025-.01.024-.009.024-.009.026-.008.024-.006.026-.007.025-.006.025,0,.026-.005.026,0,.025-.005.026,0a.109.109,0,0,1,.026,0l.026,0h.155l.026,0,.026,0,.025,0,.026.005.026,0,.025.005.025,0,.025.006.025.007.026.006.024.008.024.009.025.009.024.01.024.009.023.011.025.011.023.012.023.012.023.012.021.014.022.013.022.014.021.015.022.015.02.016.021.016.02.016.02.017.019.017.019.018.018.019.019.019.017.019.016.019.018.02.016.02.015.02.017.021.014.021.014.022.015.022.013.023.012.021.013.023.012.023.011.023.01.025.011.023.01.024.009.024.008.025.009.024.008.026.006.024.007.026.006.024.005.026,0,.026,0,.026,0,.025,0,.026,0,.026v.025a.235.235,0,0,1,0,.026Z" transform="translate(0 0)"/>
    <path fill="#010101" d="M35.384,38.039a.113.113,0,0,1,0,.026v.077l0,.027,0,.026,0,.025,0,.026,0,.024,0,.026-.006.026-.007.024-.006.026-.008.024-.009.025-.008.024-.009.024-.01.025-.01.024a.163.163,0,0,1-.011.023l-.011.023-.012.023-.013.023-.012.023-.013.022-.015.023-.014.021-.014.021-.015.021-.017.021-.016.02-.016.019-.018.02-.017.019-.018.019-.019.018-.019.017L35,38.912l-.02.017-.02.017-.021.016-.02.015-.02.015-.022.015-.022.014-.023.014-.021.012-.023.014-.023.012-.023.011-.023.011-.025.01-.024.011-.023.01-.024.008-.026.008-.024.008-.025.007-.026.007-.024.006-.026.006-.025,0-.026,0-.026,0-.025,0-.026,0-.026,0-.026,0h-.1l-.026,0-.025,0-.026,0-.026,0-.025,0-.026,0-.026,0-.026-.006-.024-.006-.026-.007-.024-.007-.024-.008-.025-.008-.024-.008-.024-.01-.025-.011-.024-.01-.023-.011-.023-.011-.023-.012-.023-.014-.022-.012-.023-.014-.021-.014-.021-.015-.021-.015-.021-.015-.02-.016-.02-.017-.021-.017-.019-.018-.018-.017-.018-.018L33.4,38.84l-.018-.019-.017-.02-.016-.019-.017-.02-.016-.021L33.3,38.72l-.015-.021-.015-.021-.013-.023-.014-.022-.012-.023-.012-.023-.012-.023-.011-.023a.1.1,0,0,1-.011-.023l-.011-.024-.009-.025-.01-.024-.008-.024-.008-.025-.008-.024-.007-.026-.007-.024-.005-.026-.005-.026,0-.024L33.1,38.22l0-.025,0-.026,0-.027a.217.217,0,0,1,0-.026.211.211,0,0,1,0-.026v-.025a.113.113,0,0,1,0-.026v-.026a.228.228,0,0,1,0-.026.244.244,0,0,1,0-.027l0-.025,0-.026,0-.026.005-.025,0-.025.005-.026.005-.025.007-.025.007-.025.008-.025.008-.025.008-.025.01-.024.009-.023.011-.024a.082.082,0,0,1,.011-.023l.011-.025.012-.023.012-.021.012-.024.014-.021.013-.023.015-.022.015-.02.015-.022.016-.02.017-.02.016-.021.017-.019.018-.019.019-.019.018-.017.018-.018.019-.017.021-.018.02-.016.02-.016.021-.015.021-.017L33.6,37.1l.021-.015.023-.013.022-.014.023-.012.023-.012.023-.011.023-.012.024-.01.025-.011.024-.009.024-.008.025-.008.024-.008.024-.009.026-.005.024-.007.026-.005.026-.006.026,0,.025,0,.026,0,.026,0,.025,0h.052l.026,0,.027,0h.051l.026,0,.026,0,.025,0,.026,0,.026,0,.025.006.026.005.024.007.026.005.025.009.024.008.026.008.024.008.023.009.024.011.025.01.023.012.023.011.023.012.023.012.021.014.023.013.022.015.022.013.02.017.02.015.021.016.02.016.02.018.019.017.019.018.019.017.018.019.017.019.018.019.016.021.016.02.017.02.015.022.014.02.014.022.015.023.013.021.012.024.013.021.012.023.011.025a.123.123,0,0,1,.011.023l.01.024.01.023.009.024.008.025.009.025.008.025.006.025.007.025.006.025,0,.026,0,.025,0,.025,0,.026,0,.026,0,.025v.079Z" transform="translate(0 0)"/>
    <path fill="#010101" d="M33.536,45.944V46l0,.027,0,.025,0,.026,0,.026,0,.026,0,.025,0,.026,0,.024-.007.026-.005.026-.008.024-.007.024-.008.026-.008.025-.01.024-.009.023-.011.024-.011.023-.011.025-.012.023-.012.023-.014.021-.013.023-.014.022-.013.022-.015.021-.016.021-.017.02-.015.02-.017.021-.018.018-.017.019-.018.019-.018.018-.019.019-.02.016-.019.018-.02.016-.02.016-.021.016-.021.015-.022.014L33,46.927l-.021.013-.023.014-.022.012-.023.012-.023.012L32.866,47l-.023.011-.025.01-.024.009-.024.008-.025.01-.024.006-.026.008-.024.007-.026.006-.026.005-.024,0-.026.005-.025,0-.026,0-.026,0-.026,0h-.155l-.026,0-.026,0-.027,0-.025,0-.025-.005-.026,0-.025-.005L32.1,47.07l-.024-.007-.026-.008-.024-.006-.025-.01-.024-.008-.025-.009-.022-.01L31.91,47l-.023-.011-.023-.012-.023-.012-.023-.012L31.8,46.94l-.022-.013-.021-.015L31.73,46.9l-.02-.015-.022-.016-.02-.016-.02-.016-.019-.018L31.61,46.8l-.019-.019-.019-.018-.018-.019-.017-.019-.018-.018-.016-.021-.016-.02-.017-.02-.015-.021-.014-.021-.015-.022-.014-.022-.013-.023-.014-.021-.012-.023-.011-.023-.012-.025-.011-.023L31.33,46.4l-.011-.023-.008-.024-.01-.025-.008-.026-.007-.024-.007-.024-.006-.026-.006-.026,0-.024-.006-.026,0-.025,0-.026,0-.026,0-.026,0-.025V46l0-.026v-.026l0-.026v-.025l0-.026,0-.026,0-.025,0-.026,0-.026.006-.026,0-.025.006-.026.006-.024.007-.026.007-.024.008-.025.01-.024.008-.024.011-.025.009-.024.011-.023.012-.023.011-.023.012-.023.014-.023.013-.022.014-.022.015-.021.014-.022.015-.02.017-.022.016-.02.016-.019.018-.02.017-.019.018-.019.019-.018.019-.017.019-.018.019-.018.02-.016.02-.016.022-.015.02-.015L31.752,45l.021-.013.022-.015.023-.012.023-.014.023-.012.023-.011.023-.011.025-.011.022-.009.025-.01.024-.009.025-.008.024-.008.026-.007.024-.007.026-.007.025-.005.026,0,.025-.005.025,0,.027,0,.026,0h.026l.025,0h.1l.027,0h.026l.026,0,.026,0,.025,0,.026.005.024,0,.026.005.026.007.024.007.026.007.024.008.025.008.024.009.024.01.025.009.023.011.024.011.023.011.023.012.022.014.023.012.021.015.022.013.022.015.021.015.021.015.02.016.02.016.019.018.02.018.019.017.018.018.018.019.017.019.018.02.017.019.017.02.015.022.016.02.015.022.013.021.014.022.013.022.014.023.012.023.012.023.011.023.011.023.011.024.009.025.01.024.008.024.008.025.008.024.007.026.005.024.007.026,0,.025,0,.026,0,.026,0,.026,0,.025,0,.026,0,.026,0,.025Z" transform="translate(0 0)"/>
    <path fill="#010101" d="M38.113,40.351v.025l0,.026v.026l0,.025,0,.027,0,.026,0,.026,0,.024-.006.026-.005.026-.006.025,0,.025-.008.025-.007.025-.008.024-.01.025-.008.024-.009.024-.011.025L38,40.853l-.011.023-.012.023-.012.023-.014.023-.013.021-.014.023-.014.021-.015.021-.015.022-.016.02-.017.021-.016.019-.018.02-.017.019-.018.019-.019.017-.019.018-.019.018-.019.017-.02.016-.02.017-.02.014-.022.015-.022.015-.021.015-.022.014-.023.012-.023.013-.022.013-.024.01-.023.011-.023.011-.025.011-.024.009-.024.008-.025.009-.024.008-.026.006-.024.007-.026.007-.025.005-.026.006-.024,0-.026,0-.026,0-.027,0-.026,0-.025,0h-.1l-.027,0-.026,0-.026,0-.026,0-.025,0-.026,0-.024-.006-.026-.005-.026-.007-.024-.007-.026-.006-.024-.008-.025-.009-.024-.008-.024-.009-.025-.011-.023-.011-.023-.011-.024-.01-.023-.013-.022-.013-.023-.012-.021-.014-.022-.015-.022-.015-.021-.015-.021-.014-.02-.017-.02-.016-.019-.017-.02-.018-.018-.018-.019-.017-.018-.019-.017-.019-.018-.02-.016-.019-.016-.021-.016-.02-.015-.022-.015-.021L36,40.989l-.014-.023-.013-.021-.014-.023L35.95,40.9l-.012-.023-.011-.023-.011-.023-.011-.025-.009-.024-.01-.024-.008-.025-.008-.024-.007-.025-.008-.025,0-.025-.007-.025,0-.026,0-.026,0-.024,0-.026,0-.026v-.027l0-.025,0-.026v-.077l0-.026,0-.027v-.026l0-.025,0-.026,0-.026,0-.026,0-.024.007-.026,0-.025.008-.025.007-.024.008-.026.008-.024.01-.024.009-.023.011-.025.011-.023.011-.024.012-.023.012-.022.014-.023.013-.023L36,39.737l.015-.021.015-.02.015-.022.016-.02a.106.106,0,0,1,.016-.021l.016-.02.018-.019.017-.019.018-.019.019-.017.018-.018.02-.018.019-.017.02-.017.02-.016.021-.015.021-.016.022-.013.022-.015.021-.014.023-.013.022-.013.023-.012.024-.011.023-.012.023-.009.025-.011.024-.01.024-.008.025-.009.024-.007.026-.008.024-.007.026-.005.026-.006.024,0,.026,0,.025,0,.026,0,.026,0,.026,0,.027,0h.1l.025,0,.026,0,.027,0,.026,0,.026,0,.024,0,.026,0,.025.006.026.005.024.007.026.008.024.007.025.009.024.008.024.01.025.011.023.009.023.012.024.011.022.012.023.013.023.013.022.014.021.015.022.013.022.016.02.015.02.016.02.017.019.017.019.018.019.018.019.017.018.019.017.019.018.019.016.02.017.021.016.02.015.022.015.02.014.021.014.022.013.023.014.023.012.022.012.023.011.024.011.023.011.025.009.023.008.024.01.024.008.026.007.024.008.025,0,.025.007.026,0,.026.006.024,0,.026,0,.026,0,.025,0,.026,0,.027v.026Z" transform="translate(0 0)"/>
    <path fill="#010101" d="M37.271,43.718V43.8l0,.027,0,.028,0,.027,0,.027-.006.027,0,.027-.005.026-.007.027-.007.027-.006.025-.009.026-.008.027-.009.026-.01.026-.01.024-.011.026-.011.024-.012.024-.012.025-.014.024-.013.024-.014.023-.015.023-.015.023-.016.022-.016.023-.016.022-.018.02-.018.022-.017.02-.019.02-.019.019L36.9,44.6l-.02.017-.021.019-.02.018-.022.017-.021.017-.022.017-.022.015-.023.016-.023.015-.023.014-.023.015-.024.012-.024.013-.025.013-.024.012-.026.011-.024.01-.026.01-.026.009-.025.008-.027.009-.026.008-.026.006-.027.007-.027.006-.027.005-.027.005-.027,0-.027,0-.027,0-.027,0H35.98l-.027,0-.027,0-.027,0-.027,0-.028-.005-.027-.005-.027-.006-.025-.007-.027-.006-.026-.008-.026-.009-.026-.008-.025-.009-.026-.01-.026-.01-.024-.011-.026-.012-.024-.013-.025-.013-.023-.012-.024-.015-.023-.014-.023-.015-.022-.016-.023-.015-.021-.017-.022-.017-.02-.017-.022-.018-.02-.019-.019-.017-.02-.021-.019-.019-.019-.02-.018-.02-.017-.022-.018-.02-.016-.022-.017-.023-.014-.022-.017-.023-.013-.023-.015-.023-.014-.024-.012-.024-.013-.025-.013-.024-.01-.024-.011-.026-.011-.024-.01-.026-.008-.026-.009-.027-.008-.026-.007-.025-.007-.027-.005-.027a.122.122,0,0,1-.006-.026l-.005-.027,0-.027,0-.027,0-.027,0-.028,0-.027v-.028l0-.027a.122.122,0,0,0,0-.027l0-.027v-.027l0-.029,0-.027,0-.027,0-.027,0-.027.005-.027a.11.11,0,0,1,.006-.026l.005-.027.007-.027.007-.026.008-.025.009-.027.008-.026.01-.026.011-.024.011-.026.01-.024.013-.025.013-.024.012-.024.014-.025.015-.023.013-.023.017-.023.014-.021.017-.023.016-.022.018-.02.017-.022.018-.02.019-.021.019-.019.02-.019.019-.018.02-.019.022-.018.02-.018.022-.016.021-.017.023-.015.022-.017.023-.014.023-.014.024-.015.023-.012.025-.014.024-.012.026-.011.024-.012.026-.009.026-.011.025-.01.026-.008.026-.008.026-.008.027-.007.025-.006.027-.006.027,0,.028,0,.027,0,.027,0,.027,0,.027,0h.054l.028,0,.027,0h.055l.027,0,.027,0,.027,0,.027,0,.027,0,.027,0,.027.006.027.006.026.007.026.008.027.008.025.008.026.01.026.011.024.009.026.012.024.011.025.012.024.014.024.012.023.015.023.014.023.014.023.017.022.015.022.017.021.016.022.018.02.018.021.019a.112.112,0,0,1,.02.018l.019.019.019.019.019.021.017.02.018.022.018.02.016.022.016.023.016.021.015.023.015.023.014.023.013.025.014.024.012.024.012.025.011.024.011.026.01.024.01.026.009.026.008.027.009.025.006.026.007.027.007.027.005.026,0,.027.006.027,0,.027,0,.027,0,.027,0,.029v.054Z" transform="translate(0 0)"/>
    <path fill="#010101" d="M42.227,40.165v.053a.217.217,0,0,0,0,.026l0,.025,0,.026,0,.026,0,.025,0,.026,0,.026-.006.024-.006.026-.006.026-.007.024-.008.026-.008.024-.008.025-.009.024-.01.024-.011.023-.01.025-.011.023-.012.023-.013.023-.013.021-.014.023-.013.022-.014.022-.015.021L42,40.868l-.015.02-.016.02-.018.02-.017.019-.018.019-.017.019L41.878,41l-.019.018-.02.017-.019.017-.02.016-.021.016-.02.016-.022.015-.021.015-.022.014-.022.013-.023.014-.021.012-.023.012-.023.012-.025.011-.023.011-.024.009-.024.01-.025.009-.024.009-.025.006-.025.008-.025.007-.025.006-.026.005-.024.005-.026,0-.026.005-.026,0-.025,0-.026,0H41l-.025,0-.026,0-.026,0-.026-.005-.025,0-.026-.005-.026-.005-.025-.006-.025-.007-.024-.008-.026-.006-.024-.009-.025-.009-.024-.01-.023-.009-.024-.011-.023-.011-.023-.012-.023-.012-.023-.012-.023-.014-.022-.013-.022-.014-.021-.015L40.4,41.1l-.021-.016-.021-.016-.02-.016-.019-.017-.019-.017L40.282,41l-.019-.019-.017-.019-.018-.019-.017-.019-.017-.02-.016-.02-.016-.02-.015-.021-.015-.021-.015-.022-.013-.022-.014-.023-.013-.021-.013-.023-.01-.023-.013-.023-.01-.025-.01-.023L40.01,40.6,40,40.573l-.009-.025-.008-.024-.007-.026-.007-.024-.007-.026,0-.026-.006-.024-.005-.026,0-.026,0-.025,0-.026,0-.026v-.025l0-.026v-.079l0-.025v-.026l0-.026,0-.025,0-.026,0-.026.005-.026.006-.025,0-.026.007-.024.007-.026.007-.024.008-.025L40,39.785l.008-.025.011-.024.01-.024.01-.023.013-.023.01-.023.013-.023.013-.023.014-.022.013-.022.015-.021.015-.022.015-.02.016-.022.016-.02.017-.019.017-.02.018-.019.017-.018.019-.019.019-.018.019-.017.019-.016.02-.018.021-.015.021-.016.021-.015.021-.015.022-.013a.1.1,0,0,1,.022-.014l.023-.013.023-.014.023-.011.023-.012.023-.011.024-.011.023-.009.024-.01L40.7,39.1l.024-.008.026-.008.024-.007.025-.007.025-.007.026,0,.026,0,.025,0,.026,0,.026,0,.026,0H41l.026,0h.1l.027,0h.026l.025,0,.026,0,.026,0,.026,0,.024,0,.026,0,.025.007.025.007.025.007.025.008.024.008.025.009.024.01.024.009.023.011.025.011.023.012.023.011.021.014.023.013a.135.135,0,0,1,.022.014l.022.013.021.015.022.015.02.016.021.015.02.018.019.016.02.017.019.018.018.019.019.018.016.019.017.02.018.019.016.02L42,39.49l.016.02.015.022.014.021.013.022a.1.1,0,0,1,.014.022l.013.023.013.023.012.023.011.023.01.023.011.024.01.024.009.025.008.024.008.025.008.024.007.026.006.024.006.026.006.025,0,.026,0,.026,0,.026,0,.025,0,.026,0,.026a.218.218,0,0,0,0,.025Z" transform="translate(0 0)"/>
    <path fill="#010101" d="M26.023,24.39c-.136-.018-.281-.045-.437-.081s-.25-.058-.281-.068a.649.649,0,0,1-.092-.039,1.864,1.864,0,0,1-.17-.114c-.084-.061-.189-.143-.315-.244s-.224-.176-.291-.23-.132-.1-.191-.139-.119-.077-.178-.11a2.784,2.784,0,0,0-.253-.117q-.165-.069-.315-.117a2.6,2.6,0,0,0-.292-.074,4.27,4.27,0,0,0-.52-.044,4.5,4.5,0,0,0-.574,0c-.131.014-.241.024-.331.032s-.225.019-.4.037-.334.03-.47.036-.266,0-.393,0-.291-.014-.493-.021-.374-.007-.509,0-.243.011-.318.021a2.489,2.489,0,0,0-.3.062,2.462,2.462,0,0,0-.336.109,3.268,3.268,0,0,0-.372.2c-.151.092-.264.161-.337.207s-.208.126-.4.241-.358.2-.481.267a4.275,4.275,0,0,1-.409.18,5.3,5.3,0,0,1-.69.186q-.466.1-.614.115c-.1.009-.241.02-.427.032a4.4,4.4,0,0,0-.472.048,2.594,2.594,0,0,0-.33.073c-.091.028-.142.043-.152.044s-.1.044-.281.128a2.9,2.9,0,0,0-.436.249,2.659,2.659,0,0,0-.311.26,2.74,2.74,0,0,0-.277.321c-.09.123-.149.208-.177.256s-.066.117-.111.208a3.415,3.415,0,0,0-.243.778,2.445,2.445,0,0,0-.029.272c0,.074,0,.182,0,.322s.007.241.006.3,0,.115,0,.171a1.015,1.015,0,0,1-.027.2,1.364,1.364,0,0,1-.088.246c-.041.088-.062.135-.065.142s-.036.057-.1.145a1.642,1.642,0,0,1-.22.246,2.874,2.874,0,0,1-.236.2c-.076.057-.137.1-.184.131s-.087.056-.121.075-.088.053-.165.1a2.061,2.061,0,0,0-.207.151,1.99,1.99,0,0,0-.188.183,2.429,2.429,0,0,0-.178.216,2.785,2.785,0,0,0-.169.279q-.088.166-.117.237c-.019.048-.039.1-.059.169a1.74,1.74,0,0,0-.042.176c-.008.052-.012.086-.013.1s-.01.065-.026.151-.032.164-.049.236-.03.137-.046.2-.023.1-.027.108-.027.1-.07.264-.084.317-.119.455-.071.269-.107.4-.067.225-.093.3-.079.2-.16.373a6.776,6.776,0,0,1-.424.737c-.2.314-.32.491-.356.532s-.066.075-.094.1-.057.055-.086.082-.06.058-.1.095-.079.087-.128.149-.1.125-.145.189-.1.14-.163.226-.124.182-.19.286L7.27,36.3a2.746,2.746,0,0,1-.185.249c-.073.086-.127.147-.163.184a1.328,1.328,0,0,1-.111.1c-.039.032-.125.1-.26.192a3.5,3.5,0,0,1-.329.218l-.159.092c-.023.014-.09.044-.2.091s-.2.081-.258.1l-.171.063-.187.074q-.106.045-.261.126c-.1.053-.2.109-.287.166s-.187.126-.3.206a3.587,3.587,0,0,0-.3.237,2.978,2.978,0,0,0-.239.237,4.116,4.116,0,0,0-.272.346c-.109.152-.18.255-.212.309l-.054.088s-.039.072-.106.2a5.444,5.444,0,0,0-.233.549c-.087.236-.14.383-.159.443s-.038.129-.056.206-.041.172-.067.285-.05.209-.072.286-.04.135-.054.178-.061.184-.14.425-.139.447-.181.618a3.55,3.55,0,0,0-.08.389,2.777,2.777,0,0,0-.016.329,2.075,2.075,0,0,0,.035.375,2.3,2.3,0,0,0,.07.282c.025.067.054.137.088.208l.091.184a1.627,1.627,0,0,0,.118.2,2.683,2.683,0,0,0,.161.218c.055.066.113.137.174.214s.119.147.168.21l.165.218.106.139.108.15.152.2c.036.048.091.135.166.258l.159.257c.03.048.066.112.108.191s.09.174.146.287.094.191.114.236.046.109.08.2a2.792,2.792,0,0,1,.086.273c.025.092.049.2.071.325s.044.276.065.456.035.322.046.428.023.212.037.319.033.2.053.3.046.186.075.286a2.692,2.692,0,0,0,.1.3,2.419,2.419,0,0,0,.13.265l.086.149c.01.018.077.106.2.263a2.779,2.779,0,0,0,.324.361,2.539,2.539,0,0,0,.257.206,2.055,2.055,0,0,0,.183.113c.044.024.11.056.2.1s.164.077.232.106.148.056.242.086l.149.045.139.034c.087.021.179.042.278.062a3.834,3.834,0,0,0,.557.034,3.508,3.508,0,0,0,.627-.037,2.04,2.04,0,0,0,.276-.065,1.5,1.5,0,0,0,.154-.073,1.227,1.227,0,0,0,.172-.105.964.964,0,0,0,.169-.17A1.086,1.086,0,0,0,9.4,51.19c.023-.044.036-.069.039-.076a.922.922,0,0,0,.032-.1.817.817,0,0,0,.031-.169c0-.054,0-.087,0-.1a.241.241,0,0,1,0-.038.693.693,0,0,0-.023-.135,1.077,1.077,0,0,0-.054-.182,1.621,1.621,0,0,0-.084-.162,1.7,1.7,0,0,0-.106-.162c-.033-.045-.089-.114-.168-.2l-.2-.239c-.057-.069-.128-.166-.214-.291a3.47,3.47,0,0,1-.2-.312,2.363,2.363,0,0,1-.107-.216,2.818,2.818,0,0,1-.1-.288,2.879,2.879,0,0,1-.088-.375c-.02-.12-.034-.217-.041-.29s-.01-.181-.009-.323a3.292,3.292,0,0,1,.016-.351c.011-.091.021-.163.032-.215s.021-.094.029-.129.028-.107.063-.22.073-.22.114-.318.091-.2.148-.321.085-.176.086-.18l.106-.233a2.731,2.731,0,0,0,.17-.513,1.817,1.817,0,0,0,.058-.459,1.206,1.206,0,0,0-.033-.263,1.126,1.126,0,0,0-.045-.132.936.936,0,0,0-.054-.1,1.6,1.6,0,0,0-.146-.182,3.287,3.287,0,0,0-.628-.431q-.518-.306-.669-.377c-.1-.047-.207-.1-.322-.147s-.227-.1-.337-.161a2.2,2.2,0,0,1-.241-.141,1.026,1.026,0,0,1-.149-.126,1.464,1.464,0,0,1-.151-.185,1.66,1.66,0,0,1-.14-.241,1.294,1.294,0,0,1-.07-.167,1.087,1.087,0,0,1-.021-.15.9.9,0,0,1,.005-.2,1.019,1.019,0,0,1,.066-.223,1.077,1.077,0,0,1,.114-.223,1.168,1.168,0,0,1,.12-.16,1.357,1.357,0,0,1,.135-.126c.051-.04.077-.061.08-.065a1.117,1.117,0,0,1,.1-.064,2.506,2.506,0,0,1,.407-.157,3.993,3.993,0,0,1,.655-.147c.232-.033.4-.055.5-.068s.218-.025.346-.036.246-.024.356-.037.193-.025.246-.036.138-.029.252-.055a3.011,3.011,0,0,0,.306-.083c.089-.031.149-.053.18-.065s.109-.05.238-.113a2.367,2.367,0,0,0,.34-.193,1.926,1.926,0,0,0,.246-.2,1.979,1.979,0,0,0,.19-.22c.059-.08.1-.14.124-.179s.053-.089.088-.154a1.455,1.455,0,0,0,.146-.494c.008-.08.013-.141.015-.185a1.432,1.432,0,0,0,0-.166,2.287,2.287,0,0,0-.037-.241c-.018-.093-.033-.165-.046-.213s-.031-.122-.058-.22-.045-.164-.054-.2-.018-.073-.024-.1-.014-.079-.024-.167a1.809,1.809,0,0,1-.01-.251c0-.08.006-.123.006-.13s.011-.056.032-.145a.863.863,0,0,1,.1-.244,1.2,1.2,0,0,1,.127-.184,1.394,1.394,0,0,1,.18-.169,2.638,2.638,0,0,1,.248-.181c.088-.058.168-.108.239-.152l.173-.1c.045-.026.105-.06.18-.105l.145-.083c.022-.013.062-.04.121-.082s.1-.075.131-.1a1.21,1.21,0,0,0,.105-.111c.043-.049.072-.082.087-.1a1.76,1.76,0,0,0,.1-.187,1.589,1.589,0,0,0,.125-.379,2.894,2.894,0,0,0,.056-.388,2.343,2.343,0,0,0-.005-.363c-.012-.13-.026-.251-.043-.362s-.028-.2-.033-.254S13,32.809,13,32.755a1.576,1.576,0,0,1,.01-.193.905.905,0,0,1,.048-.211.583.583,0,0,1,.089-.17.9.9,0,0,1,.092-.1.876.876,0,0,1,.091-.064.724.724,0,0,1,.16-.067.859.859,0,0,1,.173-.039c.044-.005.084-.007.119-.008s.07,0,.1-.006a.944.944,0,0,0,.123-.014c.049-.009.106-.019.171-.033a.982.982,0,0,0,.181-.057,1.333,1.333,0,0,0,.136-.067,2.551,2.551,0,0,0,.223-.18,2.145,2.145,0,0,0,.245-.243,1.809,1.809,0,0,0,.139-.2,1.64,1.64,0,0,0,.106-.208l.048-.112a1.477,1.477,0,0,0,.04-.148c.022-.088.04-.174.053-.256l.023-.162c0-.025.008-.073.014-.142s.012-.139.017-.206.02-.185.047-.353a2.269,2.269,0,0,1,.095-.4,1.131,1.131,0,0,1,.093-.2.893.893,0,0,1,.075-.1.751.751,0,0,1,.079-.081,1.227,1.227,0,0,1,.121-.09,1.076,1.076,0,0,1,.193-.1,1.429,1.429,0,0,1,.218-.07,1.394,1.394,0,0,1,.157-.03l.092-.012.175-.027.334-.06c.13-.024.215-.041.256-.051s.1-.029.171-.055.175-.067.3-.123a2.917,2.917,0,0,0,.277-.138,4.586,4.586,0,0,0,.389-.292q.3-.24.344-.276c.027-.024.086-.08.178-.169s.248-.233.47-.429.385-.334.49-.413a2.443,2.443,0,0,1,.406-.241A1.507,1.507,0,0,1,20.819,26c.134-.018.208-.027.221-.027a1.321,1.321,0,0,1,.208.066,1.8,1.8,0,0,1,.28.125c.061.038.124.078.188.12s.152.11.263.2l.265.222c.066.055.153.123.26.206s.208.151.3.209.217.128.371.207a2.569,2.569,0,0,0,.385.167c.1.031.187.053.255.068s.161.026.279.037a3.034,3.034,0,0,0,.359.015c.123,0,.248-.006.377-.017l.431-.039c.159-.016.275-.026.349-.032s.173,0,.3,0,.218.008.288.015a2.417,2.417,0,0,1,.309.06,2.8,2.8,0,0,1,.388.13,1.854,1.854,0,0,1,.383.224,1.964,1.964,0,0,1,.3.264,2.421,2.421,0,0,1,.232.32,1.258,1.258,0,0,1,.143.271,1.009,1.009,0,0,1,.022.139.66.66,0,0,1,0,.1.2.2,0,0,0,0,.04.452.452,0,0,1-.021.088.869.869,0,0,1-.09.19,1.569,1.569,0,0,1-.19.248c-.083.091-.133.144-.149.16s-.083.069-.2.162-.237.181-.36.264-.215.145-.274.187-.191.145-.393.308a5.344,5.344,0,0,0-.465.416,3.481,3.481,0,0,0-.322.391,3.8,3.8,0,0,0-.237.361c-.052.093-.1.18-.134.259a2.153,2.153,0,0,0-.092.221,2.964,2.964,0,0,0-.084.361c-.033.175-.055.309-.067.4s-.021.2-.031.3-.024.238-.044.392-.034.257-.041.312a2.563,2.563,0,0,1-.1.352,3.178,3.178,0,0,1-.159.4c-.045.089-.084.164-.119.223s-.081.132-.142.218a2.764,2.764,0,0,1-.191.251,3.463,3.463,0,0,1-.269.277c-.113.107-.192.178-.239.214s-.128.093-.24.168-.2.135-.271.182-.1.072-.105.072l-.16.108c-.105.073-.211.148-.319.228s-.226.167-.355.264-.24.181-.337.25-.174.124-.231.163-.093.063-.106.07l-.207.123c-.125.074-.234.137-.326.19s-.177.1-.259.138-.16.075-.241.107-.154.058-.219.077-.133.037-.205.055-.176.043-.312.071a2.17,2.17,0,0,1-.341.046,1.365,1.365,0,0,1-.248-.015l-.125-.023a.753.753,0,0,1-.092-.033.8.8,0,0,1-.118-.055.383.383,0,0,1-.079-.06.735.735,0,0,1-.085-.11,1.761,1.761,0,0,1-.126-.266c-.052-.128-.095-.231-.128-.309a1.193,1.193,0,0,0-.1-.181c-.031-.045-.05-.072-.058-.081s-.03-.024-.064-.048a.518.518,0,0,0-.113-.056.524.524,0,0,0-.094-.028l-.1-.01a.763.763,0,0,0-.28.075,1.308,1.308,0,0,0-.344.191c-.089.072-.153.127-.191.165s-.124.146-.261.324-.235.3-.293.383-.09.122-.1.134-.053.068-.135.17-.173.206-.27.313-.207.22-.33.337-.234.22-.336.3a3.341,3.341,0,0,1-.276.212l-.215.142q-.088.059-.252.171c-.109.074-.17.115-.184.123l-.189.108a2.7,2.7,0,0,1-.283.146c-.075.033-.134.057-.179.073s-.1.033-.174.053-.166.038-.28.057-.182.027-.205.028-.064,0-.128,0-.132,0-.2.006a2.385,2.385,0,0,0-.246.03c-.1.016-.152.027-.172.031L12.2,40.7a.83.83,0,0,0-.092.041.941.941,0,0,0-.116.069,1.024,1.024,0,0,0-.16.147,1.253,1.253,0,0,0-.123.153.83.83,0,0,0-.05.1.669.669,0,0,0-.028.069.853.853,0,0,0-.021.1.886.886,0,0,0-.01.123c0,.031,0,.076,0,.134a1.577,1.577,0,0,1-.015.249,2.118,2.118,0,0,1-.044.253,1.158,1.158,0,0,1-.058.175l-.038.09a1.04,1.04,0,0,1-.054.1,1.661,1.661,0,0,1-.115.172q-.063.082-.123.15c-.04.046-.073.082-.1.11s-.062.069-.106.121a1.483,1.483,0,0,0-.111.151,1.592,1.592,0,0,0-.084.16,1.2,1.2,0,0,0-.063.161,1.094,1.094,0,0,0-.039.22,1.32,1.32,0,0,0-.01.189.54.54,0,0,0,.015.082c.007.026.02.067.039.121s.04.112.061.173.038.115.05.161a1.493,1.493,0,0,1,.033.146c.009.051.015.108.02.172a1.806,1.806,0,0,1-.008.263c-.009.111-.03.263-.064.456s-.066.375-.1.549-.064.334-.091.481-.051.316-.075.507-.04.366-.046.524-.008.288,0,.392.011.212.022.32a2.773,2.773,0,0,0,.04.293,2.883,2.883,0,0,0,.1.34,3.454,3.454,0,0,0,.134.345,5.3,5.3,0,0,0,.268.474,5.625,5.625,0,0,0,.314.478c.074.094.127.161.159.2s.091.1.178.182a2.293,2.293,0,0,0,.18.163c.033.024.078.058.135.1s.114.086.172.127a2.364,2.364,0,0,0,.2.127q.115.068.231.126l.138.07c.016.008.056.025.122.053s.14.052.219.076a3.252,3.252,0,0,0,.364.072,3.18,3.18,0,0,0,.367.04c.081,0,.174,0,.278,0a2.886,2.886,0,0,0,.333-.04,1.708,1.708,0,0,0,.323-.086,1.727,1.727,0,0,0,.183-.075,1.049,1.049,0,0,0,.161-.126,1.007,1.007,0,0,0,.22-.285.848.848,0,0,0,.107-.271.682.682,0,0,0,0-.2.834.834,0,0,0-.057-.2c-.027-.064-.044-.1-.052-.119s-.048-.072-.117-.17-.143-.2-.223-.309-.175-.236-.287-.383l-.267-.352c-.066-.087-.121-.161-.162-.222s-.082-.121-.118-.182a1.905,1.905,0,0,1-.089-.172c-.024-.054-.053-.127-.085-.221a2.4,2.4,0,0,1-.08-.268,2.628,2.628,0,0,1-.048-.436,2.509,2.509,0,0,1,.014-.5,1.808,1.808,0,0,1,.084-.329,1.488,1.488,0,0,1,.134-.275,1.829,1.829,0,0,1,.126-.188A1.265,1.265,0,0,1,14.333,46c.063-.057.142-.123.24-.2s.159-.123.185-.141.064-.042.114-.072.134-.072.25-.127.2-.094.259-.116.171-.079.346-.17a3.362,3.362,0,0,0,.369-.211,1.652,1.652,0,0,0,.193-.159,1.341,1.341,0,0,0,.141-.157,1.143,1.143,0,0,0,.1-.164A1.459,1.459,0,0,0,16.6,44.3c.02-.065.035-.124.047-.177s.019-.09.023-.113.01-.085.019-.19.028-.267.053-.479.048-.369.07-.466a1.858,1.858,0,0,1,.075-.254,1.36,1.36,0,0,1,.143-.263,1.07,1.07,0,0,1,.233-.253,1.464,1.464,0,0,1,.307-.182,1.931,1.931,0,0,1,.275-.106c.067-.018.127-.032.181-.041l.088-.014.311-.009a3.661,3.661,0,0,1,.559.026c.171.021.339.047.5.075l.345.061c.065.011.147.021.245.03a2.023,2.023,0,0,0,.264.007,2.107,2.107,0,0,0,.241-.026.975.975,0,0,0,.322-.142,3.266,3.266,0,0,0,.317-.218c.077-.063.143-.118.2-.165l.2-.172c.077-.067.132-.112.164-.136a1.559,1.559,0,0,1,.247-.126c.132-.061.2-.093.217-.1a.625.625,0,0,0,.065-.021,2.029,2.029,0,0,1,.35-.011,3.229,3.229,0,0,1,.463.032c.106.017.232.042.378.077s.278.062.4.085.241.042.366.058a2.114,2.114,0,0,0,.36.02,1.685,1.685,0,0,0,.284-.028.949.949,0,0,0,.216-.073,1.321,1.321,0,0,0,.274-.185,1.359,1.359,0,0,0,.264-.279,1.567,1.567,0,0,0,.142-.247A2,2,0,0,0,25.9,40c.032-.13.055-.238.069-.323s.033-.2.058-.339a2.425,2.425,0,0,1,.089-.356,1.861,1.861,0,0,1,.15-.318,2.2,2.2,0,0,1,.19-.28,1.854,1.854,0,0,1,.17-.184,3.456,3.456,0,0,1,.285-.23c.136-.1.236-.173.3-.214s.144-.09.241-.146.174-.1.233-.142.121-.081.184-.13a3.306,3.306,0,0,0,.253-.232,2.752,2.752,0,0,0,.234-.255,2.053,2.053,0,0,0,.15-.233,1.6,1.6,0,0,0,.138-.362,1.512,1.512,0,0,0,.059-.43,2.3,2.3,0,0,0-.041-.379,2.056,2.056,0,0,0-.11-.361,2.507,2.507,0,0,0-.105-.244c-.022-.04-.048-.092-.079-.157s-.063-.147-.1-.25a1.278,1.278,0,0,1-.066-.252.975.975,0,0,1,.008-.242.753.753,0,0,1,.045-.2.551.551,0,0,1,.036-.071,1.967,1.967,0,0,1,.16-.15A1.386,1.386,0,0,1,28.8,33.3c.134-.061.229-.1.285-.122s.138-.047.249-.081.2-.065.264-.091l.121-.048c.014-.007.066-.041.155-.1a1.852,1.852,0,0,0,.248-.209,2.565,2.565,0,0,0,.265-.318c.1-.138.2-.271.283-.4a3.188,3.188,0,0,1,.217-.287,1.819,1.819,0,0,1,.2-.193,2.225,2.225,0,0,1,.315-.209,2.732,2.732,0,0,1,.315-.155,2.225,2.225,0,0,1,.312-.092c.129-.032.227-.053.3-.063a2.988,2.988,0,0,1,.411,0,2.593,2.593,0,0,1,.428.04,1.3,1.3,0,0,1,.218.075.811.811,0,0,1,.155.088.868.868,0,0,1,.1.084.6.6,0,0,1,.065.073.5.5,0,0,1,.043.066c.014.025.05.09.11.195A2.693,2.693,0,0,1,34,31.84c.036.091.064.16.086.21a1.214,1.214,0,0,0,.057.118,1.921,1.921,0,0,0,.158.2,1.553,1.553,0,0,0,.3.269,2.206,2.206,0,0,0,.236.146c.041.02.091.041.149.063a3.009,3.009,0,0,0,.31.088c.15.036.279.064.39.086s.194.039.253.053.132.03.22.053a1.4,1.4,0,0,1,.248.088,1.816,1.816,0,0,1,.215.117,1.169,1.169,0,0,1,.2.172.994.994,0,0,1,.134.16.974.974,0,0,1,.046.088.219.219,0,0,0,.023.047.659.659,0,0,1,.03.11,1.5,1.5,0,0,1,.027.158,1.286,1.286,0,0,1,.007.151q0,.088-.006.327c0,.158,0,.3,0,.416s.009.2.014.24.018.117.041.224a1.563,1.563,0,0,0,.12.342,1.616,1.616,0,0,0,.2.333c.077.1.123.156.137.169s.081.064.2.151a1.4,1.4,0,0,0,.441.2,1.935,1.935,0,0,0,.39.072c.088,0,.174,0,.257,0a1.637,1.637,0,0,0,.249-.034,3.721,3.721,0,0,0,.482-.172l.43-.172c.049-.019.12-.042.215-.07a1.553,1.553,0,0,1,.252-.052,1.01,1.01,0,0,1,.191,0,1.6,1.6,0,0,1,.168.033c.057.015.139.042.243.08a1.527,1.527,0,0,1,.21.089q.052.03.111.069c.038.026.076.055.115.087l.129.107c.046.037.115.089.207.154s.183.127.276.184.167.1.223.127a1.466,1.466,0,0,0,.154.069.577.577,0,0,1,.086.037,3.2,3.2,0,0,0,.358.048,2.029,2.029,0,0,0,.627-.016,1.276,1.276,0,0,0,.421-.138,2.008,2.008,0,0,0,.246-.182,1.685,1.685,0,0,0,.163-.159.682.682,0,0,0,.082-.118c.022-.038.047-.088.075-.147a1.6,1.6,0,0,0,.086-.32,2.214,2.214,0,0,0,.046-.442c0-.144,0-.259-.005-.348s-.009-.184-.012-.29-.005-.179,0-.22.009-.1.021-.186a1.34,1.34,0,0,1,.045-.2,2.565,2.565,0,0,1,.118-.26c.06-.121.108-.209.142-.263a2.264,2.264,0,0,1,.172-.223c.08-.095.146-.167.2-.217s.1-.1.156-.159.109-.119.164-.186A2.156,2.156,0,0,0,46,32.754a1.435,1.435,0,0,0,.069-.2,1.453,1.453,0,0,0,.039-.2,1.285,1.285,0,0,0,.008-.2,1.415,1.415,0,0,0-.022-.222c-.015-.075-.029-.142-.044-.2s-.035-.126-.061-.2-.052-.14-.074-.19-.058-.127-.11-.229-.09-.184-.116-.247a1.669,1.669,0,0,1-.056-.159c-.011-.042-.019-.079-.024-.109s-.009-.084-.012-.159a.987.987,0,0,1,.017-.223,1.527,1.527,0,0,1,.1-.28c.051-.114.079-.177.086-.19s.072-.089.2-.232a1.769,1.769,0,0,1,.518-.39,2.206,2.206,0,0,1,.513-.214,1.754,1.754,0,0,1,.29-.041,1.371,1.371,0,0,1,.2.01.9.9,0,0,1,.184.046A1.579,1.579,0,0,1,47.89,29a1.739,1.739,0,0,1,.174.1c.052.036.079.054.082.055l.1.087q.092.084.189.18c.066.064.118.111.154.142a1.316,1.316,0,0,0,.136.095,2.653,2.653,0,0,0,.377.159,3.5,3.5,0,0,0,.355.119,1.76,1.76,0,0,0,.236.011,1.678,1.678,0,0,0,.377-.039,1.367,1.367,0,0,0,.426-.179,1.925,1.925,0,0,0,.352-.258,1.814,1.814,0,0,0,.168-.18c.031-.039.058-.075.081-.11s.078-.115.161-.246l.144-.223c.012-.017.034-.045.066-.083a1.134,1.134,0,0,1,.1-.1,2.763,2.763,0,0,1,.279-.184,2.494,2.494,0,0,1,.352-.187,2.024,2.024,0,0,1,.426-.089,2.386,2.386,0,0,1,.532-.017,2.53,2.53,0,0,1,.4.068,3.052,3.052,0,0,1,.433.168c.18.082.285.132.317.15s.081.049.152.1.116.076.135.086.066.037.145.082.139.084.184.115.1.071.173.117.111.074.125.082a1.565,1.565,0,0,0,.144.075,1.5,1.5,0,0,0,.18.079,1.688,1.688,0,0,0,.3.041,1.667,1.667,0,0,0,.374,0,1.176,1.176,0,0,0,.2-.048,1.058,1.058,0,0,0,.131-.055,1.94,1.94,0,0,0,.221-.15,1.833,1.833,0,0,0,.2-.167,1.143,1.143,0,0,0,.1-.124l.073-.1c.011-.016.048-.1.111-.263a1.6,1.6,0,0,0,.115-.429,1.678,1.678,0,0,0,0-.331,1.229,1.229,0,0,0-.075-.29,1.837,1.837,0,0,0-.093-.208,1.051,1.051,0,0,0-.1-.14,1.663,1.663,0,0,0-.119-.131c-.037-.035-.1-.085-.179-.149a1.624,1.624,0,0,0-.338-.187,3.205,3.205,0,0,0-.33-.126c-.078-.022-.158-.05-.24-.082a2.474,2.474,0,0,1-.258-.123l-.171-.1c-.024-.014-.06-.038-.107-.072a1.391,1.391,0,0,1-.113-.09c-.03-.026-.05-.043-.059-.052s-.048-.049-.12-.118-.12-.116-.146-.138-.056-.048-.091-.077-.088-.07-.159-.123-.144-.105-.217-.153a2,2,0,0,0-.221-.128,2.039,2.039,0,0,0-.2-.088c-.059-.02-.118-.039-.179-.056a1.832,1.832,0,0,0-.268-.048,1.971,1.971,0,0,0-.3-.017c-.081,0-.139.006-.176.01s-.083.013-.137.023-.18.045-.375.1-.327.1-.394.129-.193.086-.376.176-.326.158-.425.2-.2.09-.307.134-.188.076-.248.1-.132.042-.216.064-.209.048-.373.078-.3.051-.4.061-.22.017-.346.021-.255,0-.382,0-.217-.005-.268-.01-.144-.015-.279-.034-.289-.038-.465-.057-.324-.03-.446-.037-.248-.014-.379-.018a4.782,4.782,0,0,0-.542.026,5.232,5.232,0,0,0-.626.089,4.088,4.088,0,0,0-.5.134c-.145.051-.313.12-.5.2a4.238,4.238,0,0,0-.6.339,3.609,3.609,0,0,0-.516.4,2.656,2.656,0,0,0-.33.387c-.088.131-.139.21-.151.236s-.05.115-.107.267a4.114,4.114,0,0,0-.152.471,4.929,4.929,0,0,0-.108.715c-.031.314-.048.516-.052.6s-.008.19-.013.3-.01.194-.014.243-.01.2-.023.447-.024.439-.035.565a3.231,3.231,0,0,1-.05.348c-.021.1-.041.191-.061.257s-.045.146-.08.243a3.329,3.329,0,0,1-.222.448,2.93,2.93,0,0,1-.228.37,1.2,1.2,0,0,1-.16.151,1.652,1.652,0,0,1-.206.148,1.679,1.679,0,0,1-.215.111,1.769,1.769,0,0,1-.314.093,2.306,2.306,0,0,1-.315.055,1.433,1.433,0,0,1-.244,0,.993.993,0,0,1-.2-.035.543.543,0,0,1-.148-.083c-.05-.039-.151-.133-.3-.284A3.117,3.117,0,0,1,40,32.734c-.039-.058-.059-.088-.059-.09s-.04-.053-.118-.153-.163-.213-.253-.339-.164-.227-.218-.3-.1-.121-.123-.149l-.053-.06c-.009-.01-.057-.056-.145-.135s-.164-.142-.23-.192-.146-.1-.239-.157-.173-.1-.237-.138-.128-.07-.19-.1-.123-.06-.184-.088l-.365-.174a3.248,3.248,0,0,1-.405-.217,1.888,1.888,0,0,1-.2-.145c-.044-.038-.087-.077-.129-.118s-.117-.119-.227-.235-.228-.242-.355-.379-.221-.235-.285-.294-.169-.147-.313-.265-.221-.179-.231-.186-.077-.051-.2-.131a2.947,2.947,0,0,0-.428-.218,3.358,3.358,0,0,0-.4-.141,2.644,2.644,0,0,0-.3-.063c-.1-.014-.177-.022-.242-.026s-.128-.006-.191-.007-.129,0-.2,0-.169.013-.3.027l-.337.04c-.1.011-.194.022-.291.031s-.189.015-.278.017a2.048,2.048,0,0,1-.27-.012c-.09-.009-.148-.015-.173-.019a1.109,1.109,0,0,1-.134-.031,1.84,1.84,0,0,1-.327-.153c-.155-.083-.241-.131-.26-.143s-.063-.05-.136-.113a1.856,1.856,0,0,1-.218-.234q-.11-.139-.147-.192a1.358,1.358,0,0,1-.093-.16c-.038-.071-.067-.128-.086-.172s-.047-.118-.084-.228-.08-.236-.128-.381-.1-.276-.149-.4a2.854,2.854,0,0,0-.156-.322c-.054-.095-.087-.152-.1-.172s-.059-.071-.138-.157a2.38,2.38,0,0,0-.256-.237,3.1,3.1,0,0,0-.274-.192q-.14-.085-.327-.18a3.634,3.634,0,0,0-.38-.168c-.129-.048-.254-.088-.375-.122s-.212-.056-.273-.069-.121-.022-.179-.031-.171-.022-.341-.035-.28-.021-.334-.023-.117,0-.187,0-.221,0-.448-.008A.962.962,0,0,1,26.023,24.39Z" transform="translate(0 0)"/>
    <path fill="#010101" d="M52.167,33.739a.113.113,0,0,1,0,.026v.026a.2.2,0,0,1,0,.025.244.244,0,0,1,0,.027l0,.026,0,.026,0,.026,0,.025,0,.026L52.141,34l-.006.026-.006.026-.007.024-.008.024-.008.026-.008.025-.01.024-.009.023-.011.024a.163.163,0,0,1-.011.023l-.011.025-.012.023-.012.021-.012.023L52,34.356l-.013.022-.015.022-.015.02-.015.022-.016.02-.017.02-.016.02-.017.019-.018.019-.018.019-.019.018-.018.017-.019.018-.021.018-.02.016-.02.016-.021.015-.02.016-.022.014-.021.015-.023.013-.022.014-.023.012-.023.012-.023.011L51.5,34.8l-.024.01-.025.01-.023.01-.024.008-.026.01-.024.006-.025.008-.025.007-.025.006-.025,0-.026.005-.026,0-.025.005-.026,0-.026,0-.026,0h-.155l-.026,0-.026,0-.025,0-.026-.005-.026,0-.025-.005-.025,0-.026-.006-.025-.007-.025-.008-.024-.006-.024-.01-.025-.008-.024-.01-.024-.01-.025-.01-.023-.012-.023-.011-.023-.012-.023-.012-.021-.014-.024-.013-.021-.015-.021-.014-.021-.016-.02-.015-.021-.016-.02-.016-.02-.018-.019-.018-.019-.017-.018-.018-.019-.019-.017-.019L50.15,34.5l-.016-.02-.016-.02-.017-.02-.015-.022-.014-.02-.014-.022-.015-.022-.013-.023-.013-.023-.012-.021-.012-.023-.011-.025a.163.163,0,0,1-.011-.023l-.01-.024-.01-.023-.009-.024-.008-.025-.009-.026-.008-.024-.007-.024-.006-.026L49.9,34l-.005-.024,0-.026,0-.025,0-.026,0-.026,0-.026v-.078a.113.113,0,0,1,0-.026v-.077l0-.026,0-.027,0-.026,0-.024,0-.026.005-.025.006-.026.006-.024.007-.026.008-.024.009-.025.008-.024.009-.025.01-.024.01-.024.011-.023.011-.023.012-.023.012-.023.013-.023.013-.022.015-.023.014-.02.014-.022.015-.022.017-.02.016-.02L50.15,33l.018-.02.017-.019.019-.019.018-.018.019-.017.019-.018.02-.018.02-.016.021-.016.02-.015.021-.015.021-.015.021-.015.024-.013.021-.012.023-.014.023-.012.023-.011.023-.011.025-.011.024-.01.024-.01.025-.008.024-.008.024-.008.025-.007.025-.007.026-.007.025-.005.025-.005.026,0,.026-.005.025,0,.026,0h.026l.026,0h.1l.025,0h.026l.026,0,.026,0,.025.005.026,0,.026.005.025.005.025.007.025.007.025.007.024.008.026.008.024.008.023.01.025.01.024.011.023.011.023.011.023.012.023.014.022.012.023.013.021.015.022.015.02.015.021.015.02.016.02.016.021.018.019.018.018.017.019.018.018.019.018.019.017.02.016.019.017.02.016.02.015.022.015.022.015.02.013.023.014.022.012.023.012.023.012.023.011.023.011.023.011.024.009.024.01.025.008.024.008.025.008.024.007.026.006.024.006.026.005.025,0,.026,0,.024,0,.026,0,.027,0,.026a.217.217,0,0,1,0,.026.2.2,0,0,1,0,.025Z" transform="translate(0 0)"/>
    <path fill="#010101" d="M56.282,32.769v.025a.226.226,0,0,1,0,.026.217.217,0,0,1,0,.026l0,.026,0,.025,0,.026,0,.026,0,.025,0,.026-.006.026-.005.026-.007.024-.007.026-.006.024-.009.024-.009.025-.01.024-.009.024-.009.025-.011.023-.012.023-.011.023-.014.023-.012.023-.014.022-.013.021-.015.022-.015.022-.015.02-.016.021-.016.021L56,33.531l-.018.02-.018.019-.017.018-.019.018-.019.018-.019.018-.02.016-.019.018-.021.016-.021.015-.021.015-.021.014-.022.014-.023.015-.022.012-.023.014-.023.012-.023.011-.023.01-.024.011-.023.01-.024.009-.025.01-.024.008-.026.008-.024.007-.026.006-.024.007-.026.006-.026,0-.025.005-.026,0-.026,0-.026,0h-.051l-.026,0h-.051l-.027,0H55.03l-.025,0-.026,0-.026,0-.025-.005-.026,0-.025-.006-.025-.007-.025-.006L54.8,33.88l-.025-.008-.024-.008-.024-.01-.025-.009-.024-.01-.023-.011-.024-.01L54.61,33.8l-.023-.012-.022-.014-.023-.012-.022-.015-.021-.014-.022-.014-.022-.015-.02-.015-.02-.016-.021-.018-.019-.016-.02-.018-.019-.018-.017-.018L54.3,33.57l-.018-.019-.016-.02-.018-.019-.016-.021-.015-.021-.016-.02-.015-.022-.014-.022-.015-.021-.012-.022-.013-.023-.012-.023-.013-.023-.01-.023-.011-.023-.011-.025-.01-.024-.009-.024-.008-.025-.008-.024-.008-.024-.007-.026-.006-.024-.006-.026L54.007,33l0-.026,0-.025,0-.026,0-.026,0-.025,0-.026v-.13l0-.026,0-.025,0-.026,0-.026,0-.026,0-.025.006-.025.006-.025.006-.026.007-.024.008-.025.008-.026.008-.024.009-.024.01-.023.011-.025.011-.024.01-.023.013-.023.012-.023.013-.022.012-.023.015-.021.014-.022.015-.022.016-.02.015-.02.016-.021.018-.02.016-.019.018-.019.019-.019.017-.017.019-.019.02-.016.019-.018.021-.016.02-.017.02-.016.022-.015.022-.015.021-.013.022-.014.023-.013.022-.012.023-.013.023-.012.024-.011.023-.01.024-.01.025-.009.024-.008.024-.01.025-.007.025-.008.025-.007.025,0,.025,0,.026-.006.025,0,.026,0,.026,0,.025,0,.026,0h.026l.027,0h.051l.026,0h.026l.025,0,.026,0,.026,0,.026,0,.025,0,.026.006.026,0,.024,0,.026.007.024.008.026.007.024.01.025.008.024.009.023.01.024.01.023.011.023.012.023.013.023.012.022.013.023.014.022.013.021.015.021.015.021.016.021.017.019.016.02.018.019.016.019.019.019.017.017.019.018.019.018.019.016.02.016.021.016.02.015.022.015.02.015.022.013.021.014.023.012.022.014.023.011.023.012.024.011.023.009.025.009.023.01.024.009.024.009.026.006.025.007.024.007.026.005.025.006.025,0,.025,0,.026,0,.026,0,.026,0,.025,0,.026a.244.244,0,0,1,0,.027A.217.217,0,0,1,56.282,32.769Z" transform="translate(0 0)"/>
    <path fill="#010101" d="M25.862,29.856v.026l0,.026v.051l0,.026,0,.026,0,.025,0,.026,0,.026,0,.025-.006.025-.006.025-.007.026-.008.025-.007.024-.01.024-.009.025-.01.024-.009.023-.011.024-.012.023-.012.023-.012.023-.013.023-.013.022-.014.022-.015.021-.014.022-.015.02-.017.022L25.6,30.6l-.016.02-.018.019-.017.02-.018.018-.019.019-.019.018-.019.017-.02.016-.019.018-.02.015-.022.016-.02.015-.022.015-.022.013-.023.014-.021.014-.023.012-.023.012-.023.012-.023.011-.025.011-.023.009-.024.01-.024.009-.026.008-.024.008-.025.007L25,30.981l-.025.007-.026,0-.025,0L24.894,31l-.026,0-.025,0-.026,0h-.026l-.025,0h-.1l-.025,0H24.61l-.026,0-.026,0-.025,0L24.507,31l-.026,0-.024,0-.026-.007-.025-.007-.025-.007-.024-.008-.025-.008-.024-.009-.024-.01-.025-.009-.023-.011-.024-.011-.023-.012-.023-.012-.023-.012-.022-.014-.021-.014-.023-.013-.021-.015-.021-.015-.021-.016-.02-.015-.02-.018-.021-.016-.019-.017-.018-.018-.018-.019-.019-.018-.018-.02-.016-.019-.017-.02-.017-.019-.015-.022-.016-.02-.015-.022-.013-.021-.015-.022-.014-.022-.012-.023L23.7,30.4l-.012-.023-.011-.023-.011-.024-.011-.023-.009-.024-.01-.025-.008-.024-.008-.024-.008-.025-.007-.026-.007-.025-.005-.025,0-.025,0-.026,0-.026,0-.025,0-.026,0-.026v-.026l0-.025v-.079l0-.026v-.025l0-.026,0-.026,0-.025,0-.026,0-.026,0-.026L23.6,29.6l.007-.026.007-.024.008-.026.008-.024.008-.024.01-.025.009-.024.011-.023.011-.025.011-.023.012-.023.012-.023.012-.021.014-.023.015-.022.013-.022.015-.021.016-.021.015-.02.017-.02.017-.02.016-.019.018-.019.019-.019.018-.019.018-.018.019-.017.021-.017.02-.016.02-.016.021-.016.021-.015.021-.015L24.1,28.9l.021-.013.022-.014.023-.012.023-.012.023-.012.024-.011.023-.011.025-.009.024-.01.024-.009.025-.008.024-.009.025-.006.025-.007.026-.006.024,0,.026-.005.026,0,.025,0,.026,0,.026,0,.026,0h.155l.026,0a.115.115,0,0,1,.026,0l.025,0,.026,0,.026,0,.025.005.026,0,.025.006.025.007.025.006.024.009.026.008.024.009.024.01.023.009.025.011.023.011.023.012.023.012.023.012.021.014.023.013.022.014.022.015.02.015.022.016.02.016.019.016.02.017.019.017.019.018.019.019.018.019.017.019.018.019.016.02.016.02.017.02.015.021.014.021.015.022.014.022.013.023.013.021.012.023.012.023.012.023.011.025.009.023.01.024.009.025.01.024.008.024.007.026.007.024.006.026.006.024,0,.026,0,.026,0,.026,0,.025,0,.026,0,.026v.051Z" transform="translate(0 0)"/>
    <path fill="#010101" d="M21.839,31.012v.077l0,.026,0,.026,0,.025,0,.026-.005.026,0,.025-.006.026-.005.025-.007.025-.007.026-.008.024a.121.121,0,0,1-.008.025l-.008.024-.009.024-.01.025-.009.023-.011.024-.012.023-.011.023-.014.023-.012.023-.013.022-.014.021-.015.022-.015.022-.015.02-.016.022-.016.019-.016.02-.018.019-.018.02-.017.018-.019.019-.019.017-.019.018-.02.016-.019.018-.022.015-.02.016-.021.015-.021.015-.022.013-.023.014-.021.013-.024.012-.023.013-.023.012-.023.011-.024.01-.023.01L21.1,32.1l-.025.01-.024.008-.026.008L21,32.13l-.026.007-.024.006-.026.006-.026,0-.025.005-.026,0-.026,0-.025,0h-.026l-.026,0h-.1l-.026,0h-.026l-.025,0-.026,0-.026,0-.025-.005-.026,0-.024-.006-.026-.006-.026-.007-.024-.007-.025-.008-.024-.008-.024-.01-.025-.009-.024-.01-.023-.01-.024-.011-.023-.012-.023-.013-.023-.012-.022-.013-.022-.014-.021-.013-.022-.015-.022-.015-.02-.016-.02-.015-.021-.018-.02-.016-.019-.018-.019-.017-.017-.019-.019-.018-.018-.02-.016-.019-.018-.02-.016-.019-.015-.022-.016-.02-.015-.022-.014-.022-.014-.021-.014-.022-.012-.023-.012-.023-.013-.023-.01-.023-.011-.024-.011-.023-.009-.025-.01-.024-.008-.024-.008-.025-.008-.024-.007-.026-.007-.025,0-.025-.006-.026,0-.025,0-.026,0-.026,0-.025,0-.026,0-.026v-.13l0-.025,0-.026,0-.026,0-.026,0-.025,0-.026.006-.026,0-.024.007-.026.007-.024.008-.026.008-.024.008-.025.01-.024.009-.024.011-.023.011-.025.01-.023.013-.023.012-.023.012-.021.014-.023.014-.022.014-.022.015-.021.016-.021.015-.02.016-.02.018-.021.016-.019.018-.018.019-.019.017-.019.019-.018.019-.018.02-.016.021-.016.02-.016.02-.017.022-.014.022-.015.021-.014.022-.013.022-.014.023-.012L20.167,30l.023-.012.024-.011.023-.011.024-.01.025-.009.024-.01.024-.008.025-.008.024-.007.026-.006.026-.006.024,0,.026-.006.025,0,.026,0,.026,0,.025,0,.026,0h.156l.026,0a.1.1,0,0,1,.025,0l.026,0,.026,0,.025,0,.026.006.026,0,.024.006.026.006.024.007.026.008.024.008.025.01.024.009.023.01.024.011.023.011.023.012.023.012.024.012.021.014.023.013.022.014.021.015.021.014.02.017.022.016.019.016.02.016.019.018.019.018.019.019.017.019.018.018.018.019.016.021.016.02.016.02.015.021.015.021.015.022.014.022.013.023.012.021.014.023.011.023.012.023.011.025.009.023.01.024.009.024.008.025a.113.113,0,0,1,.008.024l.008.026.007.024.007.026.005.024.006.026,0,.026.005.025,0,.026,0,.026,0,.026,0,.025v.053Z" transform="translate(0 0)"/>
    <path fill="#010101" d="M23.041,35.4v.077l0,.026v.025l0,.026,0,.026,0,.026,0,.025-.006.026,0,.026L23,35.711,23,35.737l-.007.024-.008.025-.009.024-.008.024-.011.025-.01.024-.01.023-.013.023-.01.023-.013.023L22.883,36l-.014.022-.013.021-.015.022-.015.022-.015.02-.016.022-.016.02-.017.019-.017.02-.018.019-.017.018-.019.019-.019.017-.019.018-.019.016-.02.018-.021.014-.021.017-.021.015-.021.015-.022.013-.022.014-.023.013-.023.014-.023.012-.023.011-.023.01-.024.011-.023.01-.024.009-.025.01-.024.008-.026.008-.024.007-.025.007-.025.006-.026.006-.026,0-.025,0-.025,0-.026,0-.027,0h-.051l-.026,0h-.051l-.026,0h-.053l-.025,0-.026,0-.026,0-.026,0-.024,0-.026-.006-.025-.006-.025-.007-.025-.007-.025-.008-.024-.008-.024-.01-.025-.009-.024-.01-.023-.011-.025-.01-.023-.011-.023-.012-.021-.014L21.3,36.4l-.022-.014-.022-.013-.021-.015-.022-.015-.02-.017-.02-.014-.021-.018-.019-.016-.02-.018-.018-.017-.019-.019-.017-.018-.018-.019-.017-.02-.017-.019-.016-.02-.016-.022-.016-.02-.014-.022-.015-.022-.013-.021L20.9,36l-.013-.023-.013-.023-.012-.023-.011-.023-.01-.023-.011-.024-.01-.025-.009-.024-.008-.024-.008-.025-.008-.024-.007-.026-.006-.024-.006-.026-.006-.026,0-.025,0-.026,0-.026,0-.026v-.025l0-.026v-.13l0-.026V35.3l0-.026,0-.026,0-.026,0-.025.006-.025.006-.025.006-.026.007-.024.008-.026.008-.024.008-.025L20.824,35l.01-.025.011-.023.01-.024.011-.023.012-.023.013-.023.013-.022.014-.023.013-.021.015-.022.014-.022.016-.02.016-.02a.156.156,0,0,1,.016-.02l.017-.021.017-.019.018-.019.017-.019.019-.019.018-.017.02-.018.019-.016.021-.016.02-.016.02-.017.022-.015.021-.014.022-.014.022-.014.023-.013.021-.012.023-.012.023-.013.025-.01.023-.011.024-.01.025-.009.024-.01.024-.008.025-.007.025-.008.025-.006.025-.006.026-.005.024-.006.026,0,.026,0,.026,0,.025,0,.026,0h.027l.026,0h.051l.026,0h.026l.025,0,.027,0,.026,0,.025,0,.025,0,.026.006.026.005.025.006.025.006.024.008.026.007.024.008.025.01.024.009.023.01.024.011.023.01.023.013.023.012.023.012.023.013.022.014.022.014.021.014.021.015.021.017.021.016.02.016.019.016.019.018.019.017.019.019.017.019.018.019.017.019.017.021.016.02.016.02.015.02.015.022.015.022.013.021.014.023.013.022.013.023.01.023.013.023.01.024.01.025.011.023.008.024.009.025.008.024L23,35.1l.007.024.007.026,0,.025a.129.129,0,0,1,.006.025l0,.025,0,.026,0,.026,0,.026v.025l0,.026V35.4Z" transform="translate(0 0)"/>
    <path fill="#010101" d="M24.335,32.815v.077l0,.026,0,.025,0,.026,0,.026,0,.025,0,.026-.006.026L24.3,33.1l-.007.024-.007.026-.008.024-.008.024-.008.025-.009.024-.01.025-.011.024-.011.023-.01.023-.013.023-.012.023-.013.023-.012.022-.015.021-.014.022-.015.022-.016.021-.015.02-.016.021-.018.019-.016.02-.018.019L24,33.635l-.018.018-.019.017-.019.018-.02.017-.021.017-.02.016-.02.015-.022.015-.022.014L23.8,33.8l-.022.014-.021.012-.024.014-.022.012-.024.011-.024.01-.023.011-.024.01-.025.009-.024.01-.024.008-.025.008-.025.007-.025.006-.025.007-.025.006-.026,0-.025,0-.026,0-.026,0-.025,0H23.24l-.027,0h-.051l-.026,0h-.051l-.026,0-.026,0-.026,0-.025,0-.026,0-.026-.006-.024-.007-.026-.006-.024-.007-.026-.008-.024-.008-.025-.01-.024-.009-.023-.01-.024-.011-.023-.01-.023-.011-.023-.012-.023-.014-.022-.012-.023-.014-.022-.015-.021-.014-.021-.015-.021-.015-.021-.016-.019-.017-.02-.017-.019-.018-.019-.017-.019-.018-.017-.019-.018-.019-.018-.02-.016-.019-.016-.021-.016-.02-.015-.021-.015-.022-.015-.022-.013-.021-.014-.022-.012-.023-.014-.023-.01-.023-.013-.023-.011-.023-.009-.024-.009-.025-.01-.024L22.1,33.2l-.009-.024-.006-.024-.007-.026-.007-.024,0-.026-.006-.026,0-.026,0-.025,0-.026,0-.026,0-.025,0-.026v-.13l0-.026,0-.025,0-.026,0-.026,0-.026,0-.025.006-.025,0-.025.007-.026.007-.024.006-.025.009-.026.009-.024.01-.024.009-.023.009-.025.011-.023.013-.024.01-.023.014-.023.012-.022.014-.023.013-.021.015-.022.015-.02.015-.022.016-.02L22.3,32.1l.016-.02.018-.019.018-.019.017-.019L22.39,32l.019-.019.019-.016.02-.018.019-.016.021-.017.021-.014.021-.017.021-.013.022-.015.023-.014.022-.013.023-.012.023-.013.023-.012.023-.011.024-.009.023-.011.024-.009.025-.008.024-.01.026-.007.024-.008.026-.007.024,0,.026,0,.026-.006.025,0,.026,0,.026,0,.026,0,.025,0h.052l.025,0,.026,0h.053l.026,0,.025,0,.026,0,.026,0,.025,0,.026.006.025,0,.025,0,.025.007.025.008.025.007.024.01.024.008.025.009.024.011.023.009.024.011.024.012.022.013.024.012.021.013.022.014.021.015.022.013.022.017.02.014.02.017.021.016.02.018.019.016.019.019L24,32.02l.018.019.018.019.016.019.018.02.016.021.015.02.016.022.015.02.014.022.015.021.012.023.013.022.012.023.013.023.01.024.011.023.011.025.01.023.009.024.008.024.008.026.008.025.007.024.007.026.005.025.006.025,0,.025,0,.026,0,.026,0,.026,0,.025,0,.026v.053Z" transform="translate(0 0)"/>
    <path fill="#010101" d="M16.845,36.1v.1l0,.026,0,.025,0,.026,0,.026,0,.026,0,.024-.006.026-.007.025-.006.025-.008.024-.009.026-.008.024-.009.025-.01.023-.01.024-.011.023-.011.024-.012.023-.013.023-.012.022-.013.023-.015.022-.014.021-.015.021-.016.021-.015.021-.016.02-.018.02-.016.019-.017.019-.019.019-.018.018-.019.019-.019.016-.02.017-.02.017-.021.016-.02.015-.022.016-.02.013-.023.015-.022.014-.021.013-.023.013-.023.012-.023.012-.025.011-.023.009-.024.011-.024.01-.025.008-.024.009-.024.007-.025.008-.026.007-.025.005-.025.006-.025,0-.026,0-.026,0-.025,0-.026,0-.026,0-.026,0h-.1l-.026,0-.025,0-.026,0-.026,0-.025,0-.026,0-.026,0-.026-.006-.024-.005-.026-.007-.024-.008-.024-.007-.026-.009-.024-.008-.023-.01-.025-.011-.024-.009-.023-.011-.023-.012-.023-.012-.023-.013-.022-.013-.023-.014-.022-.015-.021-.013-.02-.016L15,37.02,14.978,37l-.019-.017-.021-.017-.019-.016-.019-.019-.019-.018-.017-.019-.018-.019-.017-.019-.016-.02-.017-.02L14.78,36.8l-.015-.021-.015-.021-.015-.021-.013-.022-.014-.023-.012-.022-.012-.023-.012-.023L14.66,36.6l-.011-.023-.01-.024-.009-.023-.01-.025-.008-.024a.2.2,0,0,1-.008-.026L14.6,36.43l-.007-.025-.007-.025-.005-.026-.005-.024-.006-.026,0-.026,0-.026,0-.025,0-.026v-.026l0-.027v-.077l0-.026V36.02l0-.026,0-.026,0-.026,0-.025.006-.026.005-.026.005-.025.007-.025.007-.025.008-.025a.225.225,0,0,1,.008-.024l.008-.025.01-.024.009-.024.01-.025.011-.023.012-.023.012-.023.012-.023.012-.023.014-.021.013-.022.015-.022.015-.021.015-.022.016-.02.017-.021.016-.018.017-.021.018-.019.017-.019.019-.017.019-.018.019-.017.021-.018.019-.016L15,35.2l.022-.014.02-.015.021-.015.022-.015.023-.014.022-.012.023-.013.023-.013.023-.01.023-.011.024-.011.025-.011.023-.008.024-.009.026-.009.024-.008.024-.006L15.416,35l.024-.007.026-.005.026-.006.026,0,.025,0,.026,0,.026,0,.025,0h.156l.026,0,.026,0,.025,0,.026,0,.026,0,.025.006.025.005L15.98,35l.026.007.025.006.024.008.024.009.025.009.024.008.024.011.023.011.025.011.023.01.023.013.023.013.021.012.022.014.023.015.02.015.022.015.02.014.021.017.02.016.02.018.019.017.019.018.018.017.019.019.017.019.016.021.018.018.016.021.015.02.016.022.015.021.014.022.015.022.013.021.012.023.013.023.012.023.011.023.011.023.01.025.01.024.009.024.008.025.009.024.008.025.006.025.007.025.006.025,0,.026,0,.026,0,.025,0,.026,0,.026,0,.026V36.1Z" transform="translate(0 0)"/>
    <path fill="#010101" d="M26.185,47.192v.079l0,.025,0,.026,0,.026,0,.025,0,.026,0,.026-.006.026-.005.024-.007.026-.007.024-.007.026-.008.024-.009.024-.01.025-.009.024-.01.023-.01.024-.013.024-.01.023-.014.023-.012.023-.014.021L26,47.831l-.015.021-.015.022-.015.02-.016.021-.016.02-.017.02-.017.019-.018.019-.017.019-.019.019-.019.018-.019.017-.02.017-.019.016-.021.016-.021.016-.021.015-.021.015-.022.014-.023.013-.022.014-.023.012-.023.012-.023.012-.023.011-.024.011-.023.009-.024.01-.025.009L25.4,48.3l-.026.009-.024.006-.026.007-.024.006-.026.005-.026.005-.025,0-.026,0-.026.005-.026,0-.025,0h-.156l-.026,0-.025,0-.026-.005-.026,0-.026,0-.025-.005-.025-.005-.025-.006-.025-.007-.025-.006L24.68,48.3l-.024-.008-.024-.009-.025-.01-.024-.009-.023-.011-.025-.011-.023-.012-.023-.012-.023-.012-.021-.014-.022-.013-.022-.014-.021-.015-.022-.015-.02-.016-.02-.016-.021-.016-.02-.017-.019-.017-.019-.018-.018-.019-.019-.019-.017-.019-.016-.019-.018-.02-.016-.02-.015-.021-.016-.02-.015-.022-.014-.021-.015-.022-.012-.021-.013-.023-.013-.023-.012-.023L24,47.7l-.01-.024-.011-.023-.01-.024-.009-.025-.008-.024-.008-.024-.009-.026-.006-.024-.007-.026,0-.024-.006-.026,0-.026,0-.026,0-.025,0-.026,0-.026,0-.025v-.13l0-.026,0-.026,0-.026,0-.025,0-.026,0-.026.006-.025,0-.025.007-.025.006-.025.009-.026.008-.024.008-.024.009-.025.01-.024.011-.023.01-.024.011-.023.012-.023.013-.023.013-.023.012-.022.015-.022.014-.021.015-.022.016-.02.015-.021.016-.02.018-.02.016-.019.017-.019.019-.019.018-.019.019-.018.019-.017.02-.016.021-.017.02-.016.02-.016.022-.015.021-.015.022-.013.022-.014.021-.014.023-.012.023-.012.023-.012.025-.011.023-.011.024-.009.025-.01.024-.009.024-.008.025-.008.025-.007.025-.007.025-.005.025-.007.025,0,.026,0,.026,0,.026,0,.025,0h.026l.026,0h.1l.026,0h.025l.026,0,.026,0,.026,0,.025,0,.026,0,.026.007.024.005.026.007.024.007.026.008.024.008.025.009.024.01.023.009.024.011.023.011.023.012.023.012.023.012.022.014.023.014.022.013.021.015.021.015.021.016.021.016.019.017.02.016.019.017.019.018.019.019.017.019.018.019.017.019.017.02.016.02.016.021.015.02.015.022L26,46.58l.013.022.014.022.012.023.014.023.01.023.013.023.01.024.01.023.009.024.01.025.009.024.008.024.007.026.007.025.007.025.005.025.006.025,0,.026,0,.026,0,.025,0,.026,0,.026,0,.026v.051Z" transform="translate(0 0)"/>
    <path fill="#010101" d="M24.428,50.244v.077l0,.027,0,.026,0,.026,0,.025,0,.026,0,.024L24.4,50.5l0,.026-.007.024-.007.026-.008.024a.081.081,0,0,1-.008.025l-.008.025-.009.023-.01.025-.009.024-.011.023-.012.024-.013.023-.012.022-.012.023-.013.022-.014.023-.015.021-.015.021-.015.021-.016.021-.016.02-.016.02-.018.019-.018.019-.017.019-.019.018-.019.017-.019.018-.02.018L24,51.151l-.022.016-.02.015-.02.015-.022.015-.022.015-.023.013-.021.012-.023.014-.023.012-.023.011-.023.012-.025.009-.024.011-.023.01-.025.008-.024.008-.026.008-.024.008-.026.006-.024.006-.026.006-.025.005-.026,0-.026,0-.026,0-.025,0-.026,0H23.2l-.025,0-.026,0-.026,0-.026,0-.025,0-.026-.005-.024-.006L23,51.369l-.026-.006-.024-.008-.025-.008-.024-.008-.024-.008-.025-.01-.024-.011L22.8,51.3l-.024-.012-.023-.011-.023-.012-.023-.014-.022-.012-.022-.013-.021-.015-.022-.015-.022-.015-.02-.015-.02-.016-.021-.016-.02-.018L22.5,51.1l-.019-.017-.017-.018-.019-.019-.018-.019-.016-.019-.018-.02-.016-.02-.015-.021-.016-.021-.015-.021-.014-.021L22.3,50.86l-.014-.022-.012-.023-.012-.022-.012-.023-.011-.024-.011-.023-.011-.024-.009-.025-.01-.023-.008-.025-.008-.025-.008-.024-.007-.026-.007-.024-.005-.026-.006-.026,0-.024,0-.026,0-.025,0-.026,0-.026,0-.027v-.128l0-.028,0-.025,0-.026,0-.026,0-.025,0-.025.006-.025.005-.026.007-.025.007-.025.008-.025.008-.024.008-.026.01-.023.009-.024.011-.024.011-.023.011-.023.012-.025.012-.021.012-.023.014-.022.014-.023.014-.022.015-.02.016-.022.015-.02.016-.02.018-.021.016-.019.018-.019.019-.018.017-.018.019-.018.019-.017.02-.018.021-.016.02-.016.02-.015.022-.015.022-.015.021-.015.022-.013.022-.013.023-.013.023-.012.023-.011.024-.011.023-.011.024-.011.025-.009.024-.008.024-.008.025-.008.024-.007L23,49.145l.026-.007.024,0,.026-.006.025,0,.026,0,.026,0,.026,0,.025,0h.156l.026,0,.025,0,.026,0,.026,0,.026,0,.025.006.026,0,.024.007.026.007.024.007.026.008.024.008.025.008.023.009.024.011.025.011.023.011.023.011.023.012.023.013.021.013.023.013.022.015.022.015.02.015.02.015.022.016.019.016.02.018.019.017.019.018.019.018.017.018.018.019.018.021.016.019.016.02.016.02.015.022.015.02.015.022.014.023.013.022.012.023.012.021.013.025.012.023.011.023.009.024.01.024.009.023.008.026a.075.075,0,0,1,.008.024l.008.025.007.025.007.025,0,.026.006.025,0,.026,0,.024,0,.026,0,.026,0,.027,0,.026v.051Z" transform="translate(0 0)"/>
    <path fill="#010101" d="M21.238,47.747v.078l0,.026,0,.026,0,.026,0,.025,0,.026,0,.026-.006.025,0,.025-.007.026-.007.024-.008.026-.006.024-.01.024-.009.025-.01.024-.009.023-.011.024-.012.023-.012.023-.013.023-.012.022-.013.023-.014.022-.015.021-.015.022-.015.02-.016.021-.016.02-.016.02-.018.019-.017.019-.018.019-.019.019-.019.018-.019.017-.02.016-.019.017-.02.016-.022.016-.02.015-.022.015-.022.014-.023.013-.021.014-.023.012-.023.012-.023.012-.023.011-.025.011-.023.009-.024.01-.025.009-.025.008-.025.008-.024.007-.026.007-.024.005-.026.006-.025.005-.026,0-.026,0-.026,0a.1.1,0,0,1-.025,0l-.026,0-.026,0h-.1l-.026,0-.025,0a.115.115,0,0,1-.026,0l-.026,0-.026,0-.025,0-.026-.005-.024-.006-.026-.005-.026-.007-.024-.007-.025-.008-.024-.008-.024-.009-.025-.01-.024-.009-.023-.011-.024-.011-.023-.012-.023-.012-.023-.012-.022-.014-.022-.013-.023-.014-.02-.015-.022-.015-.02-.016-.02-.016-.021-.017-.02-.016-.019-.017-.019-.018-.017-.019-.019-.019-.018-.019-.016-.019-.018-.02-.016-.02-.015-.021-.016-.02-.015-.022-.014-.021-.014-.022-.014-.023-.012-.022-.012-.023-.012-.023-.011-.023-.011-.024-.011-.023-.009-.024-.01-.025L19,48.13,19,48.106l-.008-.026-.007-.024-.007-.026,0-.025-.006-.025,0-.026,0-.026,0-.025,0-.026,0-.026,0-.026V47.7l0-.025,0-.026,0-.026,0-.025,0-.026,0-.026.006-.025,0-.025.007-.026.007-.024L19,47.415,19,47.391l.008-.024.01-.025.009-.024.011-.023.011-.024.011-.023.012-.023.012-.023.012-.023.014-.022.014-.022.014-.021.015-.022.016-.02.015-.022.016-.019.018-.02.016-.019.018-.021.019-.017.017-.019.019-.018.019-.017.02-.017.021-.017.02-.015.02-.016.022-.015.02-.015.023-.014.022-.013.022-.014.023-.012.023-.012.023-.012.024-.011.023-.011.024-.009.025-.01.024-.009.024-.008.025-.008.024-.007.026-.007.026-.007.024,0,.026,0,.025-.006.026,0,.026,0,.026,0,.025,0h.156l.026,0,.025,0,.026,0,.026,0,.026.006.025,0,.026,0,.024.007.026.007.024.007.025.008.025.008.025.009.024.01.023.009.025.011.023.011.023.012.023.012.023.012.021.014.023.013.022.014.022.015.02.015.022.016.02.016.019.016.02.017.019.017.019.018.019.019.018.017.017.021.018.019.016.02.016.019.016.022.015.02.015.022.015.021.014.022.013.022.012.023.013.023.012.023.012.023.011.024.009.023.01.024.009.025.01.024.008.024.006.026.007.024.007.026,0,.025.006.025,0,.026,0,.026,0,.025,0,.026,0,.026,0,.025v.052Z" transform="translate(0 0)"/>
    <path fill="#010101" d="M20.406,34.71v.052l0,.026v.026l0,.025,0,.026,0,.026,0,.026,0,.025-.006.026-.005.024-.007.026-.007.024-.007.026-.008.025-.009.024-.01.024-.009.025-.01.023-.01.024-.013.023-.011.023-.013.023-.012.022-.014.023-.013.021-.015.022-.015.022-.015.02-.016.02-.016.021-.017.02-.017.019-.018.019-.017.019-.019.019-.019.017-.019.018L20,35.6l-.018.016-.021.017-.021.016-.021.015-.021.015-.022.013-.023.014-.022.013-.023.012-.023.013-.023.012-.023.011-.024.01-.023.01-.025.009-.024.01-.024.008-.026.008-.024.007-.026.007-.024.005-.026,0-.026.006-.026,0-.025,0-.026,0-.026,0-.025,0H19.31l-.026,0h-.051l-.027,0H19.18l-.026,0-.026,0-.025,0-.026,0-.026,0-.025-.006-.025,0-.025-.005-.025-.007-.025-.007-.025-.008-.024-.008-.025-.01-.024-.009-.024-.01-.023-.01-.025-.011-.023-.012-.023-.013-.023-.012-.021-.013-.022-.014-.022-.013-.021-.015-.022-.015-.02-.016-.021-.017-.02-.016-.02-.016-.019-.018-.019-.017-.018-.019-.019-.019-.017-.019-.016-.019-.018-.02-.016-.021-.015-.02-.016-.02-.015-.022-.014-.022-.015-.021-.013-.023-.012-.022-.013-.023-.012-.023-.011-.023-.01-.024-.011-.023-.01-.025-.009-.024-.008-.024-.008-.025-.009-.026-.006-.024-.007-.026-.006-.024,0-.026,0-.025,0-.026,0-.026,0-.026,0-.025v-.182l0-.025,0-.026,0-.026,0-.025,0-.026,0-.026.006-.024.007-.026.006-.026.009-.024.008-.024.008-.025.009-.024.01-.024.011-.023.01-.025.011-.023.012-.023.013-.023.012-.023.013-.022L18.3,34.1l.014-.022.015-.021.016-.021.015-.021.016-.021.018-.019.016-.02.017-.019.019-.018.018-.018.019-.018.019-.018.02-.016.02-.018.021-.014.02-.017.022-.015.021-.014.022-.014.022-.013.021-.014.023-.012.023-.012.023-.013.025-.01.023-.011.024-.01.024-.009.025-.01.024-.008.025-.008.025-.007.025-.006L19,33.6l.025-.006.025,0,.026-.005.026,0,.025,0,.026,0h.052l.027,0h.051l.026,0h.051l.026,0,.026,0,.025,0,.026.005.026,0,.026.006.024.007.026.006.024.007.026.008.024.008.024.01.025.009.023.01.024.011.023.01.023.013.023.012.023.012.022.014.023.013.022.014.021.014.021.015.021.017.021.014.018.018.021.016.019.018.019.018.019.018.017.018.018.019.017.02.017.021.016.019.016.021.015.021.015.021.015.022.013.021.014.022.012.023.013.023.011.023.013.023.01.025.01.023.009.024.01.024.009.025.008.024.007.024.007.026.007.026.005.024.006.026,0,.026,0,.025,0,.026,0,.026,0,.025v.026l0,.026Z" transform="translate(0 0)"/>
    <path fill="#010101" d="M14.719,38.732v.078l0,.026v.026l0,.026,0,.025,0,.026-.006.026,0,.024-.006.026-.006.025-.008.025-.007.026-.008.024-.008.024-.009.025-.01.023-.011.024-.011.024-.01.023-.012.023-.013.023-.013.022-.014.023-.013.022-.015.021-.015.022-.015.02-.015.021-.017.02-.017.02-.017.019-.018.019-.017.019-.019.019-.018.018-.02.017-.019.016-.021.017-.02.016-.02.016-.022.015-.021.015-.022.013-.022.014-.023.014-.021.012-.023.012-.023.012-.025.011-.023.011L14,39.809l-.025.01-.024.009-.024.008-.025.007-.025.008-.025.007-.025.005-.026.006-.025.005-.025,0-.026,0-.026,0-.025,0-.026,0-.027,0h-.1l-.026,0-.025,0-.026,0-.027,0-.026,0-.024,0-.026-.005-.026-.006-.025-.005-.025-.007-.024-.008-.026-.007-.024-.008-.025-.009-.024-.01-.023-.009-.024-.011-.023-.011-.023-.012-.023-.012L13,39.742l-.023-.014-.022-.014-.022-.013-.021-.015-.021-.015-.021-.016-.021-.016-.02-.017-.019-.016-.019-.017-.019-.018-.019-.019-.017-.019-.018-.019-.017-.019-.017-.02-.016-.02-.016-.021-.015-.02-.015-.022-.015-.021-.013-.022-.014-.023-.013-.022-.013-.023-.012-.023-.011-.023-.01-.024-.01-.024-.011-.023-.008-.025-.009-.024-.008-.024-.007-.026-.007-.025-.007-.025,0-.026-.006-.024-.005-.026,0-.026,0-.025,0-.026v-.026l0-.026v-.13l0-.025v-.026l0-.026,0-.025,0-.026.005-.026.006-.026,0-.025.007-.025.007-.025.007-.025.008-.024.009-.024.008-.025.011-.024.01-.024.01-.024.011-.023.012-.023.013-.023.013-.023.014-.021.013-.022.015-.022.015-.021.015-.02.016-.022.016-.02L12.7,38l.017-.021.018-.019.017-.017.019-.019.019-.018.019-.017.019-.017.02-.017.021-.016.021-.015.021-.015.021-.015.022-.014.022-.013L13,37.749l.023-.013.023-.012.023-.011.023-.011.024-.011.023-.009.024-.01.025-.009.024-.008.026-.009.024-.006.025-.007.025-.007.026,0,.026,0,.024-.006.026,0,.027-.005.026,0,.025,0h.156l.026,0,.025,0,.026.005.026,0,.025.006.025,0,.026,0,.025.007.025.007.025.006.025.009.024.008.024.009.025.01.024.009.023.011.025.011.023.011.023.012.021.013.023.014.022.013.022.014.021.015.022.015.02.016.02.015.021.017.019.017.02.017.018.018.019.019.017.017.018.019L14.44,38l.018.019.016.02.015.022.015.02.015.021.015.022.013.022.014.021.013.023.013.023.012.023.01.023.011.024.011.024.01.024.009.025.008.024.008.024.007.025.008.025.006.025.006.025.006.026,0,.026,0,.026,0,.025,0,.026v.026l0,.025v.052Z" transform="translate(0 0)"/>
    <path fill="#010101" d="M10.7,41.922v.053l0,.025v.026l0,.026,0,.025,0,.026,0,.026,0,.026-.005.024-.007.026,0,.025-.007.025-.008.026-.008.024-.008.024-.01.025-.009.023L10.6,42.4l-.011.024-.011.023-.012.023-.012.023-.014.022-.012.023-.015.022-.013.021-.015.022-.016.02-.015.021-.016.02-.018.02L10.4,42.7l-.018.019-.019.019-.017.019-.019.018-.021.017-.019.016-.02.017-.02.016-.021.016-.021.015-.022.015-.021.013-.022.014-.023.014-.022.012-.023.012-.023.012-.024.011L10,42.99,9.98,43l-.025.01-.024.009-.025.008-.024.007-.026.008-.024.007-.026,0-.024.006-.026.005-.026,0-.025,0-.026,0-.026,0-.025,0-.026,0H9.5l-.026,0-.026,0-.025,0-.026,0-.026,0-.026,0-.025-.005-.026-.006-.024,0-.026-.007-.025-.008-.025-.007-.025-.008-.024-.009L9.119,43,9.1,42.99l-.025-.011-.023-.011-.023-.012L9,42.944l-.023-.012-.023-.014L8.935,42.9l-.022-.013-.022-.015-.02-.015-.022-.016-.02-.016-.019-.017L8.79,42.8l-.019-.017-.019-.018-.019-.019-.018-.019L8.7,42.7l-.018-.019-.016-.02-.016-.02-.017-.021-.014-.02L8.6,42.582l-.015-.021-.014-.022-.013-.023-.014-.022-.012-.023-.011-.023-.012-.023L8.5,42.4l-.009-.024-.01-.023-.009-.025-.01-.024-.008-.024-.007-.026-.006-.025-.007-.025-.006-.026-.005-.024-.005-.026,0-.026,0-.026,0-.025,0-.026v-.051l0-.027v-.026l0-.026v-.051l0-.026,0-.026,0-.025,0-.026.005-.026.005-.026.006-.025.007-.025.006-.025.007-.025.008-.024.01-.024.009-.025.01-.024.009-.025.011-.023.012-.023.011-.023.012-.023.014-.023.013-.021.014-.022.015-.022.015-.021.014-.02.017-.022.016-.02.016-.019.018-.021.017-.019.018-.017.019-.019.019-.018.019-.017.02-.017.019-.017.02-.016.022-.015L8.891,41l.022-.015.022-.014.021-.013.023-.014L9,40.926l.023-.012.023-.011.023-.011.025-.011.023-.009.024-.01.024-.009.025-.008.025-.009.025-.006.026-.007.024-.007.026-.005.025,0,.026-.006.026,0,.026-.005.025,0,.026,0h.156l.025,0,.026,0,.026.005.025,0,.026.006.026,0,.024.005.026.007.024.007.026.006.024.009.025.008.024.009.025.01.024.009.023.011.024.011.023.011.023.012.022.013.023.014a.179.179,0,0,1,.022.013l.021.014.022.015.021.015.021.016.02.015.02.017.019.017.021.017.019.018.017.019.019.017.018.019.016.021.018.019.016.02.015.022.016.02.015.021.013.022.015.022.012.021.014.023.012.023.012.023.011.023.011.023.011.025.009.024.01.025.008.024.008.024.008.025.007.025,0,.025.007.025.005.026,0,.026,0,.026,0,.025,0,.026,0,.026v.025l0,.026Z" transform="translate(0 0)"/>
    <path fill="#010101" d="M30.136,49.427v.027l0,.027v.055l0,.027,0,.027,0,.027,0,.027,0,.028a.131.131,0,0,1-.006.027l0,.025-.007.027-.007.026-.008.027-.009.026-.008.026-.01.025-.011.025-.01.025-.011.025-.012.024L30,50l-.012.025-.014.024-.015.023-.013.023-.016.023-.015.022-.016.023-.017.021-.017.021-.018.021-.019.021-.017.02-.019.019-.021.02-.019.018-.02.019-.022.017-.02.018-.022.018-.021.016-.023.015-.022.016-.023.015-.023.013-.024.015L29.5,50.5l-.025.012-.024.012-.026.012-.024.011-.026.011-.026.009-.025.01-.026.008a.112.112,0,0,1-.026.008l-.025.008-.027.007-.026.007-.027.005-.027.006-.027,0-.027,0-.027,0-.028,0-.027,0-.027,0h-.109l-.027,0-.027,0-.027,0-.029,0-.027,0-.026,0-.027-.006-.027-.005-.027-.007-.026-.007-.027-.008-.025-.008-.026-.008-.026-.01-.026-.009-.024-.011-.026-.011-.024-.012-.024-.012-.025-.012-.024-.014-.023-.015-.023-.013-.023-.015-.023-.016-.022-.015L28.19,50.4l-.022-.018-.022-.018-.02-.017-.02-.019-.021-.018-.019-.02-.018-.019-.019-.02-.018-.021-.018-.021-.017-.021-.016-.021-.017-.023-.016-.022-.015-.023-.015-.023-.013-.023-.014-.024L27.857,50a.136.136,0,0,1-.013-.024l-.012-.024-.011-.025-.01-.025-.011-.025-.01-.025-.009-.026-.008-.026-.008-.027-.007-.026-.007-.027-.007-.025,0-.027,0-.028-.005-.027,0-.027,0-.027,0-.027v-.027l0-.028V49.4l0-.027v-.028l0-.027,0-.027,0-.027.005-.027,0-.027,0-.026.007-.027.007-.027.007-.026.008-.026.008-.027.009-.025L27.8,49l.011-.026.01-.025.011-.025.012-.024.013-.024.013-.025.014-.024L27.9,48.8l.015-.023.015-.023.016-.022.017-.023.016-.021.017-.021.018-.021.018-.021.019-.02.018-.019.019-.019.021-.019.02-.019.02-.017.022-.018.022-.016.021-.016.022-.017.023-.016.023-.015.023-.013.023-.014.024-.013.025-.014.024-.012.024-.011.026-.012.024-.01.026-.01.026-.01.026-.008.025-.008.027-.008.026-.007.027-.007.027-.005.027-.006.026,0,.027,0,.029,0,.027,0,.027,0,.027,0h.109l.027,0,.027,0,.028,0,.027,0,.027,0,.027,0,.027.006.027.005.026.007.027.007.025.008.026.008.026.008.025.01.026.01.026.01.024.012.026.011.024.012.025.014.023.013.024.014.023.013.023.015.022.016.023.017.021.016.022.016.02.018.022.017.02.019.019.019.021.019.019.019.019.02.017.021.018.021.017.021.017.021.016.023.015.022.016.023.013.023.015.023.014.024.013.025.013.024.012.024.011.025.01.025.011.026.01.025.008.025.009.027.008.026.007.026.007.027,0,.027a.131.131,0,0,1,.006.027l0,.026,0,.027,0,.027,0,.027,0,.028V49.4Z" transform="translate(0 0)"/>
    <path fill="#010101" d="M15.99,53.9v.055l0,.027v.027l0,.027,0,.027,0,.027,0,.028,0,.027-.005.027-.006.027-.007.025-.008.027-.008.026-.008.026-.009.026-.01.025-.009.026-.011.024-.012.026-.013.025-.012.024-.012.024-.013.023-.015.023-.015.023-.015.023-.015.023-.016.022-.018.022-.016.021-.018.021-.019.02-.017.02-.019.02-.021.019-.018.019-.021.018-.021.019-.021.016-.021.018-.022.016-.023.016-.022.015-.023.015-.024.015-.023.013-.024.014-.025.012a.09.09,0,0,1-.024.012l-.025.012-.024.011-.026.011-.025.01-.026.009-.026.01-.025.008-.028.006-.025.009-.027,0-.026.007-.027,0-.027,0-.027,0-.027,0a.124.124,0,0,1-.027,0l-.027,0-.029,0h-.108l-.027,0-.029,0a.124.124,0,0,1-.027,0l-.027,0-.027,0-.027,0-.026,0-.027-.007-.027,0-.025-.009-.028-.006-.025-.008-.026-.01-.026-.009-.025-.01-.026-.011-.024-.011-.025-.012-.024-.012-.025-.012-.024-.014-.023-.013-.023-.015-.023-.015-.023-.015-.022-.016-.023-.016-.02-.018L14,54.843l-.02-.019-.02-.018-.02-.019-.019-.019-.019-.02-.019-.02-.018-.02-.017-.021-.018-.021-.018-.022-.015-.022-.016-.023-.015-.023-.015-.023-.013-.023-.014-.023-.013-.024-.012-.024-.013-.025-.012-.026-.011-.024-.009-.026-.01-.025-.009-.026-.008-.026-.008-.026-.008-.027L13.6,54.2l-.006-.027-.005-.027-.005-.027,0-.028,0-.027,0-.027,0-.027v-.027l0-.027v-.082l0-.028v-.027l0-.027,0-.027,0-.027,0-.027.005-.027.005-.027.006-.027.007-.026.008-.027.008-.026.008-.025.009-.026.01-.026.009-.025.011-.025.012-.026.013-.024.012-.024.013-.025.014-.023.013-.023.015-.024.015-.022.016-.023.015-.021.018-.022.018-.022.017-.02.018-.02.019-.021.019-.02.019-.019.02-.019.02-.017.02-.019.022-.018.02-.016.023-.016.022-.017.023-.014.023-.015.023-.015.023-.014.024-.013.025-.012.024-.013.025-.012.024-.011.026-.01.025-.01.026-.009.026-.01.025-.008.028-.007.025-.008.027,0,.027-.007.026,0,.027-.005.027,0,.027,0,.027,0,.029,0h.164l.027,0,.027,0,.027,0,.027,0,.027.005.027,0,.026.007.027,0,.025.008.028.007.025.008.026.01.026.009.025.01.026.01.024.011.025.012a.136.136,0,0,1,.024.013l.025.012.024.013.023.014.024.015.023.015.022.014.023.017.022.016.021.018.021.016.021.019.021.017.018.019.021.019.019.02.017.021.019.02.018.02.016.022.018.022.016.021.015.023.015.022.015.024.015.023.013.023.012.025.014.024.011.024.012.026.011.025.009.025.01.026.009.026.008.025.008.026.008.027.007.026.006.027.005.027,0,.027,0,.027,0,.027,0,.027,0,.027v.027l0,.028Z" transform="translate(0 0)"/>
  </g>
  <g>
    <path d="M16.924,9.287a3.762,3.762,0,0,0,1.792.472c.864,0,1.348-.406,1.348-1.012,0-.56-.376-.891-1.314-1.23-1.225-.435-2.007-1.092-2.007-2.155,0-1.215,1.015-2.129,2.624-2.129a3.939,3.939,0,0,1,1.778.367L20.82,4.692a3.211,3.211,0,0,0-1.481-.352c-.86,0-1.225.458-1.225.893,0,.57.429.837,1.419,1.214,1.288.492,1.907,1.139,1.907,2.2,0,1.194-.9,2.228-2.812,2.228a4.312,4.312,0,0,1-2-.471Z" transform="translate(0 0)"/>
    <path d="M24.145,8.668l-.632,2.1h-1.4l2.38-7.415h1.725l2.409,7.415H27.172l-.672-2.1Zm2.132-1.024-.585-1.827c-.142-.46-.264-.963-.376-1.394h-.024c-.108.434-.222.948-.353,1.389l-.572,1.832Z" transform="translate(0 0)"/>
    <path d="M29.654,10.764V3.349H31.2l1.916,3.182A20.858,20.858,0,0,1,34.38,9.017l.026-.008c-.095-.985-.121-1.94-.121-3.072V3.349h1.252v7.415h-1.4L32.2,7.5A25.405,25.405,0,0,1,30.87,4.943l-.036.008c.055.963.072,1.943.072,3.16v2.653Z" transform="translate(0 0)"/>
    <path d="M37.09,3.45a14.026,14.026,0,0,1,2.161-.159,4.52,4.52,0,0,1,3.021.856,3.317,3.317,0,0,1,1.163,2.729,3.843,3.843,0,0,1-1.155,2.95,4.987,4.987,0,0,1-3.358,1.01,14.651,14.651,0,0,1-1.832-.1Zm1.354,6.28a5.088,5.088,0,0,0,.755.037A2.547,2.547,0,0,0,42,6.923a2.359,2.359,0,0,0-2.636-2.578,4.538,4.538,0,0,0-.924.079Z" transform="translate(0 0)"/>
  </g>
  <g>
    <path d="M13.613,19.544a3.762,3.762,0,0,0,1.792.472c.864,0,1.348-.407,1.348-1.012,0-.561-.376-.891-1.314-1.231-1.225-.434-2.007-1.091-2.007-2.154,0-1.215,1.015-2.129,2.624-2.129a3.946,3.946,0,0,1,1.777.366l-.324,1.093a3.211,3.211,0,0,0-1.481-.352c-.86,0-1.225.458-1.225.893,0,.57.429.837,1.419,1.214,1.288.492,1.907,1.139,1.907,2.2,0,1.194-.9,2.228-2.812,2.228a4.312,4.312,0,0,1-2-.471Z" transform="translate(0 0)"/>
    <path d="M20.771,14.743H18.655V13.605h5.609v1.138H22.127v6.278H20.771Z" transform="translate(0 0)"/>
    <path d="M31.4,17.238c0,2.484-1.5,3.9-3.548,3.9-2.1,0-3.421-1.6-3.421-3.772,0-2.276,1.438-3.886,3.53-3.886C30.122,13.484,31.4,15.119,31.4,17.238Zm-5.539.105c0,1.512.765,2.715,2.059,2.715,1.309,0,2.049-1.218,2.049-2.769,0-1.4-.694-2.721-2.045-2.721S25.859,15.819,25.859,17.343Z" transform="translate(0 0)"/>
    <path d="M32.559,13.707a12.232,12.232,0,0,1,2.054-.159,3.438,3.438,0,0,1,2.286.6,1.863,1.863,0,0,1,.64,1.489,1.96,1.96,0,0,1-1.35,1.852v.032a1.864,1.864,0,0,1,1.035,1.435,16.332,16.332,0,0,0,.586,2.067H36.419a9.669,9.669,0,0,1-.5-1.75c-.213-.966-.565-1.28-1.334-1.3H33.9v3.047H32.559ZM33.9,16.979h.8c.919,0,1.484-.484,1.484-1.22,0-.807-.568-1.187-1.443-1.19a3.77,3.77,0,0,0-.842.07Z" transform="translate(0 0)"/>
    <path d="M45.08,18c-.045-.957-.094-2.108-.089-3.119h-.03c-.245.909-.555,1.909-.875,2.848L43,20.933H41.956l-.983-3.165c-.291-.952-.556-1.959-.75-2.892H40.2c-.032.971-.076,2.155-.133,3.164L39.9,21.021H38.638l.493-7.416h1.78l.966,2.979c.267.876.5,1.756.682,2.582h.032c.2-.811.454-1.716.741-2.588l1.028-2.973h1.758l.426,7.416h-1.32Z" transform="translate(0 0)"/>
  </g>
</svg>