<svg width="60" height="60" xmlns="http://www.w3.org/2000/svg" viewBox="0 0 60 60">
  <rect fill="#ffcd34" height="60" width="60"/>
  <g>
    <g>
      <path fill="#010101" d="M18.557,25.714l-.276-.029-.13-.02-.377-.09-.336-.105-.321-.123-.444-.206-.223-.112-.355-.2-.442-.282-.239-.164-.464-.349-.362-.3-.516-.467-.434-.429-.36-.388-.418-.487-.367-.471-.36-.51-.328-.508-.29-.507-.259-.508-.169-.378L10.9,18.6l-.142-.453c0-.015-.084-.348-.084-.348l-.042-.209-.05-.39s-.012-.281-.013-.294.015-.334.015-.334c0-.016.022-.136.024-.152s.023-.114.026-.127.032-.117.038-.137l.039-.112c.008-.015.04-.085.047-.1s.058-.1.066-.118.065-.088.072-.1l.068-.079.087-.077.125-.088.11-.06.206-.072.254-.045.132-.01.143,0,.126,0,.268.026.248.047.278.068.159.045.433.159.374.167.474.244.189.107.486.308.256.177.457.346.524.439.28.254.331.321.318.329.392.439.239.282.372.479.441.633.376.609.341.638.17.367.146.351.134.373.143.474.082.369.057.38.016.266v.282c0,.014-.018.219-.018.219l-.019.122-.051.2-.035.1-.06.143-.059.1-.065.093-.088.1-.075.068-.081.06-.1.063,0,0a.82.82,0,0,0-.078.042l-.187.062-.158.032-.235.025-.1,0Z"/>
      <path fill="#010101" d="M12.077,16.04h0m-.047,0,.08,0,.114.01.08.009.054.009.057.01.018,0,.1.021.062.013.081.021.079.021.1.03.08.026.085.029.057.021c.019.008.037.015.056.021l.063.024.057.023.031.012.031.014.061.028c.027.012.04.017.067.027l.056.027.066.03.193.095.121.063L14,16.7l.111.064.1.055.106.067c.015.009.11.069.125.077l.083.054.042.027.072.046.118.081c.037.027.075.053.112.078l.049.037.069.052.058.041.045.033.046.034.036.028.112.087.126.1.116.1.1.08.092.078.122.107.063.056.03.027c.049.047.1.093.117.107l.116.114.094.089.108.105c.04.042.081.084.122.125l.089.091.113.12.111.123.057.059c.045.053.092.106.111.126l.107.125.1.125.09.106.074.094.1.123.1.126.079.1.095.131.068.095c.039.057.079.114.094.134l.071.1.108.162.045.069c.013.022.026.042.04.063l.062.1.039.065a.792.792,0,0,0,.042.069l.04.068c.012.021.025.043.039.064l.056.095.035.063.025.046.051.09.07.132.07.137.045.088.062.132.051.108.05.111.044.1c.007.018.015.035.023.053l.034.079L19,22.4c.007.018.014.036.022.055l.029.076.044.126.032.1.042.128.019.062c.006.021.012.038.019.059s.011.045.018.068l.019.069.007.023.007.03.015.064.012.053c.006.029.023.11.03.139l.019.093.012.085.012.079c.006.045.011.087.014.113s.006.084.009.11l.007.142v.124c0,.02,0,.04,0,.06s0,.059-.006.077v.022l-.007.054c0,.025-.009.053-.012.079l-.011.046-.012.047-.029.1-.028.063-.019.035-.021.032-.019.024,0,0-.035.034-.053.032,0,0-.037.017-.023.008-.032.011-.043.011-.086.017c-.023,0-.057,0-.08.008l-.054,0-.068,0c-.024,0-.076,0-.1,0s-.088-.009-.122-.011l-.068-.008-.015,0-.085-.014-.047-.008-.053-.011-.1-.021-.081-.021-.085-.023-.094-.029c-.017,0-.079-.025-.1-.029l-.072-.024-.058-.022-.068-.025-.052-.019-.065-.026-.009,0-.106-.048c-.027-.012-.04-.017-.067-.027l-.061-.029-.066-.03-.188-.093c-.027-.015-.055-.029-.083-.042l-.061-.031-.091-.051-.076-.043-.085-.049-.063-.036-.116-.072-.066-.042-.043-.027L16.187,24l-.047-.03-.079-.051-.085-.059-.044-.03-.082-.056-.1-.072-.113-.083-.063-.048-.062-.047-.085-.066-.125-.1-.065-.052-.036-.029-.11-.091c-.044-.039-.087-.077-.127-.11l-.092-.082-.063-.056-.027-.024c-.05-.047-.1-.093-.122-.112l-.092-.087c-.047-.047-.094-.094-.114-.111-.038-.039-.078-.078-.118-.116s-.075-.076-.113-.113l-.034-.035-.054-.058-.058-.061-.055-.058-.06-.065c-.017-.021-.035-.04-.053-.06l-.086-.092-.083-.1-.108-.125-.08-.093c-.037-.045-.074-.09-.112-.134l-.073-.093-.1-.128-.048-.063-.045-.058-.079-.1-.1-.143-.07-.1-.089-.13-.068-.1-.107-.161-.044-.069-.042-.065-.059-.092-.06-.095-.079-.132-.079-.136-.059-.107-.052-.093-.071-.134-.07-.137L12,19.283l-.06-.123-.053-.119c-.008-.017-.042-.093-.05-.109l-.056-.125-.046-.113-.03-.078-.019-.051-.03-.077-.039-.105-.031-.1c-.009-.026-.015-.044-.025-.07s-.015-.052-.023-.077l-.02-.066c-.006-.02-.012-.04-.019-.06l-.013-.043c-.01-.04-.021-.08-.032-.118l-.025-.107-.019-.079-.019-.095-.016-.081-.015-.1-.016-.1-.007-.052-.01-.092-.005-.086c0-.026,0-.084,0-.11v-.054c0-.024,0-.051,0-.07s0-.06,0-.088l.005-.063.008-.062c.006-.033.008-.048.012-.081a.4.4,0,0,0,.01-.059c.014-.039.026-.074.036-.113l.006-.014c.009-.019.017-.038.025-.057l.017-.033.006-.009.013-.022.026-.033.012-.015,0,0,.047-.035.019-.013,0,0,.055-.024.025-.009.012,0,.043-.012.079-.017c.028,0,.059,0,.087-.009l.056,0h.1m-.593.217h0m.6-1.709h-.149l-.1.006c-.032,0-.064,0-.1.009s-.063,0-.093.009-.06.009-.089.015l-.09.018q-.045.009-.087.021c-.029.006-.058.013-.086.021s-.055.018-.081.026l-.08.03a.7.7,0,0,0-.078.033c-.026.01-.051.021-.077.033l-.075.039-.072.041-.068.045-.066.045c-.022.016-.044.033-.065.051l-.063.05-.06.057-.056.057q-.027.03-.054.063a.623.623,0,0,0-.051.062q-.027.033-.051.066c-.016.022-.031.045-.047.068l-.042.072a.552.552,0,0,0-.042.075.737.737,0,0,0-.039.074.587.587,0,0,0-.036.081l-.035.08-.03.084c-.01.028-.019.057-.027.086s-.019.057-.027.087-.015.061-.021.092-.015.061-.021.093-.011.062-.015.1-.01.064-.014.1l-.012.1q0,.051-.009.1c0,.033,0,.068,0,.1s0,.069,0,.105a.955.955,0,0,0,0,.107c0,.036,0,.073,0,.11a1.06,1.06,0,0,0,.006.111l.006.11.012.114c0,.039.008.078.014.116l.018.116.018.12.024.119q.012.063.024.123l.03.122.03.125c.012.04.023.082.032.126s.025.083.039.125.025.083.039.125.026.086.042.128l.042.132c.016.041.031.084.047.128s.033.087.051.131.033.088.051.132l.054.131.059.134c.018.044.038.088.06.131s.04.089.06.135l.065.134c.022.044.045.089.069.134l.068.135c.024.043.048.088.072.134l.075.134c.024.046.048.091.074.134l.078.135c.028.045.055.09.08.134s.056.09.084.134.057.091.086.134.057.091.087.135.06.088.089.134l.09.131c.03.044.061.089.093.134l.095.132.1.131.1.128.1.132c.034.041.068.084.1.128s.067.084.1.128.071.084.105.126l.107.125.108.125c.035.042.072.084.11.125l.11.12c.036.042.073.082.111.122l.113.12.114.119c.039.038.078.076.116.116s.078.076.116.114.079.075.117.113l.119.113c.04.036.08.073.119.111l.12.107c.039.036.08.072.122.108s.08.068.119.1l.123.1.125.1c.04.032.081.064.122.1l.123.1.125.1c.042.03.083.06.122.09s.084.063.126.092.083.059.125.087.084.059.125.086.084.055.126.081.083.055.125.081.082.053.122.077l.126.078.125.071.125.072.123.069c.041.022.083.042.125.062s.08.043.122.063l.123.06c.041.02.082.038.122.056a1.329,1.329,0,0,0,.122.054l.12.054.119.047.119.045q.06.024.12.045l.116.039c.04.014.079.026.116.036l.117.035.113.03.114.03.11.024.11.024.111.018.107.018.108.012c.033,0,.068.006.1.008a.88.88,0,0,0,.1.009l.1,0,.1,0c.03,0,.06,0,.091,0h.008l.095-.007.1-.008.092-.01c.03,0,.06-.008.09-.014l.089-.018q.045-.009.087-.021c.028-.006.056-.013.083-.021s.056-.019.084-.027l.08-.03q.039-.015.078-.033c.026-.009.052-.02.078-.032a.737.737,0,0,1,.074-.039l.072-.042.068-.045c.022-.014.044-.028.066-.045s.044-.032.066-.05.04-.033.059-.051a.544.544,0,0,0,.06-.057c.02-.018.04-.036.06-.056s.036-.041.053-.063a.779.779,0,0,0,.051-.063c.018-.022.035-.043.051-.065A.818.818,0,0,0,20.5,25.6c.016-.024.031-.048.044-.071s.028-.049.042-.075.027-.049.039-.075.024-.052.036-.08.023-.053.033-.081.023-.056.032-.083.019-.057.027-.087l.024-.086q.012-.045.024-.093c.006-.03.013-.061.021-.092s.011-.064.015-.1.011-.063.015-.1l.012-.1.006-.1a.9.9,0,0,0,.006-.105c0-.033,0-.068,0-.1v-.108c0-.035,0-.072,0-.11l-.006-.11q0-.054-.009-.111c0-.038,0-.075-.009-.113s-.011-.079-.015-.117l-.018-.116L20.8,23.27l-.024-.12c-.008-.042-.017-.082-.027-.122s-.017-.083-.027-.122L20.7,22.78l-.036-.125c-.01-.042-.022-.084-.036-.125s-.025-.084-.039-.126l-.042-.128c-.013-.044-.028-.087-.044-.131s-.029-.085-.045-.129-.033-.087-.051-.131-.033-.087-.051-.131-.036-.088-.056-.131-.037-.089-.057-.135l-.06-.131c-.019-.044-.04-.088-.062-.134s-.041-.089-.063-.134l-.069-.135c-.021-.043-.044-.088-.068-.134l-.072-.134c-.024-.044-.048-.089-.074-.134s-.049-.091-.075-.135-.053-.09-.08-.134-.053-.091-.081-.134-.053-.091-.081-.135-.056-.09-.086-.134-.057-.09-.087-.134-.059-.088-.089-.134l-.09-.132c-.032-.043-.062-.087-.092-.131s-.064-.09-.1-.134l-.095-.131-.1-.129-.1-.131-.1-.128-.1-.129-.107-.125c-.034-.042-.069-.083-.105-.125l-.107-.126c-.038-.041-.075-.083-.111-.125s-.072-.08-.11-.119l-.11-.123-.114-.119c-.038-.04-.076-.08-.116-.119s-.076-.077-.114-.117l-.116-.113-.119-.114-.117-.113-.119-.11-.119-.108c-.042-.036-.083-.071-.123-.107l-.122-.1-.122-.1c-.04-.034-.081-.068-.123-.1l-.122-.1L16.1,16.3l-.126-.1-.125-.089c-.04-.032-.081-.063-.122-.093l-.126-.086-.125-.087c-.042-.028-.084-.055-.125-.08s-.084-.055-.126-.081-.083-.054-.125-.078-.083-.051-.122-.077l-.126-.072-.125-.071-.122-.066q-.063-.036-.126-.066c-.039-.022-.08-.043-.122-.062l-.122-.06-.123-.057a1.021,1.021,0,0,0-.122-.053l-.119-.054-.12-.048c-.039-.016-.079-.031-.119-.045l-.119-.045L13.4,14.8l-.116-.039c-.04-.01-.079-.021-.116-.033l-.114-.03-.113-.029-.114-.024c-.035-.009-.072-.016-.11-.024l-.107-.018-.108-.018-.107-.012q-.051-.006-.105-.009c-.033,0-.067-.007-.1-.009l-.1,0Z"/>
    </g>
    <g>
      <path fill="#010101" d="M19.049,21.237l-.467-.036-.43-.054-.425-.067-.685-.141-.361-.087-.333-.089-.592-.184-.582-.209-.549-.225-.457-.207-.511-.261-.475-.273-.273-.168-.426-.291-.415-.321-.272-.237-.259-.248-.241-.265c-.06-.07-.1-.114-.134-.157l-.169-.228-.127-.2-.139-.26-.079-.2-.052-.174-.024-.1-.02-.23,0-.114c0-.018.012-.087.015-.105L10.593,16c.008-.019.031-.084.037-.1s.038-.079.047-.1l.063-.1.062-.08.1-.11.1-.091.092-.074.11-.077.172-.107.265-.126.179-.071.281-.091.273-.073.14-.031.576-.089.5-.04.4-.01.808.031.586.06.6.092.256.047.619.14.918.26.6.206.706.285.532.248.653.346.374.223.3.2.386.275.2.155.284.237.328.311.172.182.218.255.2.275.125.2.127.26.057.141c0,.008.04.131.043.139l.033.143c0,.017.02.143.023.16v.1l-.006.113-.016.1-.018.078c-.009.021-.03.082-.037.1s-.051.1-.055.111l-.056.089-.064.088-.09.1-.088.083-.1.078-.2.138c-.009,0-.279.146-.285.148l-.24.1-.182.063-.18.052-.221.056-.275.057-.381.055-.512.042-.4.012Z"/>
      <path fill="#010101" d="M11.387,16.067h0m-.016,0h0m.016.006h0m2.569-2.194c-.048,0-.1,0-.146,0l-.14,0-.143.006c-.046,0-.092.006-.138.009l-.14.009-.134.015-.134.011-.132.018-.131.018-.128.021-.126.021-.122.024-.122.027-.117.03-.116.029c-.04.01-.079.021-.116.033l-.111.033-.107.036q-.054.018-.108.039l-.1.038-.1.042c-.033.014-.066.029-.1.045s-.064.029-.1.045l-.092.048-.09.047c-.027.018-.055.035-.083.051s-.058.036-.084.054l-.08.053q-.039.027-.078.057c-.024.018-.047.037-.071.057l-.072.06-.066.059c-.022.02-.043.041-.065.063s-.04.04-.06.062-.039.044-.057.066a.766.766,0,0,0-.053.066c-.018.022-.035.044-.051.068a.533.533,0,0,0-.048.069q-.024.036-.045.072c-.013.024-.026.047-.038.071a.517.517,0,0,0-.036.075l-.036.071q-.015.039-.027.078c-.01.026-.019.051-.027.078l-.024.077-.017.078c-.006.027-.011.054-.015.08a.61.61,0,0,0-.012.081c0,.028-.007.056-.009.083l-.006.081v.086q0,.042,0,.084l.006.084c0,.029.005.058.009.086s.009.059.015.087.009.059.015.089.014.059.02.087l.024.089.03.09.03.089.036.09c.012.029.025.059.039.089a.953.953,0,0,0,.038.093l.048.089a.817.817,0,0,0,.048.093c.016.03.033.06.051.092s.036.06.056.09.037.062.057.092.043.061.063.093l.065.092q.033.045.069.09l.071.092q.039.045.075.093c.026.03.053.06.081.089s.052.063.08.093l.084.089c.028.032.056.063.086.093s.061.059.093.089.06.06.092.09l.1.089c.032.03.064.06.1.09s.068.056.1.086l.1.09c.036.028.072.056.108.086s.074.057.11.087l.113.083q.057.045.114.087l.119.083.119.084q.06.042.123.081l.122.083.128.078c.042.028.085.055.129.08l.131.078.131.078.137.077.135.075c.046.024.092.048.14.071l.14.075c.046.024.093.047.14.069l.144.071c.049.022.1.045.146.069l.146.065.149.066c.048.022.1.043.149.063s.1.043.15.062.1.043.152.063l.152.06.152.056.155.057.156.054.155.053.158.051.155.048c.054.018.106.034.158.048l.158.047.158.042q.081.024.162.045c.051.014.1.027.158.039l.158.039.161.035.158.036.158.033.158.03.158.03.159.027.158.023.158.024c.052.006.1.013.155.021l.155.018.155.018q.078.006.156.015l.152.012.152.009.152.009.149.006.149.006q.075,0,.147,0h.146c.048,0,.095,0,.143,0s.1,0,.143,0l.141-.006c.047,0,.094,0,.14-.009s.091-.005.137-.009l.137-.012.135-.015.131-.018c.044,0,.087-.01.131-.018l.125-.018.129-.024.122-.024c.04-.007.08-.016.119-.026l.12-.027c.04-.01.078-.021.116-.033l.114-.03.113-.036.107-.036c.036-.012.072-.024.108-.038s.067-.025.1-.039l.1-.042c.033-.014.066-.029.1-.045s.064-.028.1-.044l.089-.048q.048-.024.09-.048l.086-.05.084-.054.08-.054.078-.054.071-.059q.036-.027.072-.057t.066-.063l.065-.059.06-.066q.03-.033.057-.066a.605.605,0,0,0,.053-.065q.027-.033.051-.069t.048-.069c.016-.023.031-.047.045-.071s.027-.048.038-.072l.036-.072c.012-.025.023-.05.033-.074a.624.624,0,0,0,.03-.078.712.712,0,0,0,.027-.074l.024-.081.018-.077c.006-.026.01-.053.014-.081l.012-.08q.006-.042.009-.081t0-.084c0-.027,0-.055,0-.083s0-.057,0-.087l-.006-.083-.012-.087a.594.594,0,0,0-.012-.086l-.017-.09c-.006-.028-.013-.057-.021-.086a.749.749,0,0,0-.024-.09c-.008-.03-.017-.06-.027-.089l-.03-.09-.036-.089c-.012-.03-.025-.06-.038-.09s-.026-.06-.042-.092-.029-.06-.045-.09-.032-.06-.048-.092-.033-.06-.05-.09-.037-.062-.057-.092-.04-.063-.06-.093-.04-.061-.059-.092l-.066-.09-.069-.092-.071-.093-.078-.092q-.036-.045-.078-.09a1.171,1.171,0,0,0-.08-.092l-.084-.09-.089-.092q-.042-.045-.09-.09c-.03-.03-.06-.06-.092-.089l-.1-.09-.1-.089-.105-.087c-.033-.03-.068-.059-.1-.087l-.107-.089-.108-.084-.113-.086-.117-.087-.116-.083-.119-.084L21.3,16.1c-.041-.028-.083-.055-.125-.081s-.083-.055-.125-.08l-.129-.081-.131-.078-.134-.077c-.044-.026-.089-.051-.134-.075s-.092-.051-.138-.074-.091-.051-.137-.075L20.1,15.4l-.143-.071q-.069-.036-.144-.069c-.047-.024-.095-.046-.143-.068l-.146-.069-.149-.066L19.229,15q-.075-.033-.15-.063l-.152-.063c-.049-.02-.1-.038-.152-.056l-.152-.06c-.052-.018-.1-.037-.155-.057l-.155-.053-.159-.054L18,14.542l-.158-.048-.158-.047-.158-.048-.158-.042-.158-.042-.159-.041c-.053-.014-.107-.027-.161-.039l-.158-.036-.158-.036c-.054-.01-.106-.021-.158-.033l-.161-.029-.158-.03-.159-.027-.155-.024L15.624,14c-.052-.006-.1-.013-.155-.021l-.158-.018-.152-.015L15,13.927l-.153-.015c-.051,0-.1-.006-.152-.008l-.152-.009-.149-.006-.149-.006H14.1l-.146,0Z"/>
    </g>
    <g>
      <path fill="#010101" d="M48.59,29.157l-.048-.011-.1-.051a.791.791,0,0,1-.125-.077,1,1,0,0,1-.129-.122,1.6,1.6,0,0,1-.123-.136c-.021-.029-.05-.075-.082-.129s-.082-.17-.163-.35-.161-.38-.228-.558-.14-.375-.211-.587-.108-.312-.119-.344c0,0-.04-.123-.118-.334-.073-.19-.159-.4-.265-.637a6.2,6.2,0,0,0-.409-.772,3.957,3.957,0,0,0-.528-.688,2.494,2.494,0,0,0-.489-.415,2.319,2.319,0,0,0-.354-.191,3.565,3.565,0,0,0-.857-.234,3.292,3.292,0,0,0-.423-.031c-.126,0-.221.007-.3.014s-.235.03-.458.073c-.178.036-.4.075-.675.119s-.5.077-.706.1l-.34.041-.164,0c-.126,0-.2,0-.269-.009a1.737,1.737,0,0,1-.29-.065,2.082,2.082,0,0,1-.24-.076,2.172,2.172,0,0,1-.208-.132,1,1,0,0,1-.2-.168.835.835,0,0,1-.115-.16.943.943,0,0,1-.058-.157,1.275,1.275,0,0,1,.012-.273,1.769,1.769,0,0,1,.1-.36,2.7,2.7,0,0,1,.142-.329c.066-.118.109-.2.135-.256.015-.027.044-.072.083-.133.057-.085.125-.183.2-.286s.2-.266.332-.454.224-.316.26-.371.1-.146.172-.28.14-.253.2-.381a4.164,4.164,0,0,0,.194-.564,2.79,2.79,0,0,0,.111-.732v-.118l-.037-.111a4.678,4.678,0,0,0-.573-1.2,4.933,4.933,0,0,0-.48-.646c-.088-.092-.28-.271-.579-.539a17.493,17.493,0,0,0-1.486-1.116c-.672-.466-1.1-.762-1.3-.888l-.31-.206c.12.035.211.064.273.088.078.03.235.1.466.2s.4.187.53.254.293.161.5.283.427.254.655.4.441.291.624.42.378.272.576.423.4.306.581.45.415.328.693.554.532.439.773.647.423.376.57.519.333.328.541.54.428.448.672.717.373.414.411.461c.06.068.2.242.451.543s.4.485.456.559.228.306.508.69.464.63.543.746l.364.549c.165.249.338.529.523.839s.33.569.436.764.237.45.394.764.277.586.382.852.206.533.289.77a6.67,6.67,0,0,1,.184.652,3.027,3.027,0,0,1,.072.6,3.286,3.286,0,0,1-.011.491,1.657,1.657,0,0,1-.053.264l-.014.046-.082.115a.387.387,0,0,1-.111.057,1.244,1.244,0,0,1-.313.062,1.875,1.875,0,0,1-.221.015Z"/>
      <path fill="#010101" d="M42.474,18.389q.126.114.225.21c.148.145.325.322.523.524s.421.441.653.7.358.4.424.476c.046.052.185.221.422.51s.384.464.438.535.221.3.5.684c.272.367.447.606.52.714s.2.3.362.544.325.508.5.8.323.554.423.738.232.441.383.744q.212.424.359.8c.105.262.2.506.273.726.066.2.122.392.163.57a2.45,2.45,0,0,1,.056.472c0,.09,0,.161,0,.215l-.029-.029h0a.481.481,0,0,1-.03-.047c-.032-.061-.077-.161-.133-.285-.082-.19-.156-.368-.22-.536s-.132-.358-.206-.576c-.056-.159-.091-.26-.093-.262-.009-.032-.055-.173-.152-.435-.073-.189-.164-.41-.276-.666a7.337,7.337,0,0,0-.459-.865,4.643,4.643,0,0,0-.614-.8,3.218,3.218,0,0,0-1.11-.79A4.931,4.931,0,0,0,44.9,22.9a4.612,4.612,0,0,0-.569-.118,4.025,4.025,0,0,0-.534-.036h-.008c-.13,0-.243.009-.335.017a5.4,5.4,0,0,0-.537.085q-.255.05-.65.114c-.255.041-.478.073-.683.1l-.3.036h-.15c-.06,0-.115,0-.151,0a1.39,1.39,0,0,1-.167-.04l-.128-.038-.1-.068-.044-.031V22.9a1.071,1.071,0,0,1,.062-.209,1.791,1.791,0,0,1,.095-.225c.06-.111.1-.2.136-.258.013-.022.03-.048.048-.076.052-.079.113-.164.171-.243q.141-.186.35-.478c.148-.208.241-.341.257-.367.052-.075.124-.19.2-.327a4.2,4.2,0,0,0,.477-1.139,3.441,3.441,0,0,0,.138-.929v-.235l-.01-.029M36,12.906l-.169,0a1.717,1.717,0,0,0-.367.077,1.119,1.119,0,0,0-.224.165c0,.079,0,.153,0,.22s.108.187.319.359.438.337.675.5.447.3.638.426.618.418,1.28.878a16.789,16.789,0,0,1,1.414,1.059q.419.373.535.495a5.385,5.385,0,0,1,.405.552,4.028,4.028,0,0,1,.481,1.015,2.012,2.012,0,0,1-.084.531,3.211,3.211,0,0,1-.155.456,3.277,3.277,0,0,1-.167.32c-.062.107-.11.187-.146.238s-.116.168-.245.349-.238.33-.325.445-.161.223-.227.322a2.435,2.435,0,0,0-.128.212c-.022.046-.062.122-.12.227a3.432,3.432,0,0,0-.185.424,2.586,2.586,0,0,0-.137.5,2.127,2.127,0,0,0-.015.525,1.867,1.867,0,0,0,.135.376,1.518,1.518,0,0,0,.205.295,1.747,1.747,0,0,0,.35.3,2.488,2.488,0,0,0,.31.191,2.618,2.618,0,0,0,.355.119,2.448,2.448,0,0,0,.424.09c.092.008.192.012.3.012H41.2a2.1,2.1,0,0,0,.22-.006l.341-.042q.318-.036.743-.105t.7-.122c.183-.036.309-.057.379-.063s.147-.01.238-.012a2.476,2.476,0,0,1,.317.024,3.125,3.125,0,0,1,.367.078,3.184,3.184,0,0,1,.3.1,1.758,1.758,0,0,1,.257.14,1.994,1.994,0,0,1,.349.3,3.181,3.181,0,0,1,.423.555,5.476,5.476,0,0,1,.361.68q.15.341.248.6c.064.171.1.267.105.289s.047.147.125.367.149.428.221.615.153.386.244.6.161.351.2.427.084.135.12.184a1.9,1.9,0,0,0,.179.206,1.754,1.754,0,0,0,.223.209,1.673,1.673,0,0,0,.242.149c.094.048.146.076.158.084a1.047,1.047,0,0,0,.185.045,1,1,0,0,0,.189.015,2.773,2.773,0,0,0,.313-.021,2.026,2.026,0,0,0,.507-.114,1.3,1.3,0,0,0,.236-.116.934.934,0,0,0,.128-.113,1.134,1.134,0,0,0,.131-.17q.066-.1.078-.114a1.128,1.128,0,0,0,.062-.176,2.449,2.449,0,0,0,.078-.385,4.532,4.532,0,0,0-.072-1.351,6.984,6.984,0,0,0-.209-.731c-.085-.247-.185-.513-.3-.8s-.248-.589-.409-.913-.3-.585-.406-.788-.259-.463-.45-.788-.371-.611-.54-.868-.294-.444-.373-.561-.267-.374-.555-.764-.459-.625-.516-.7-.216-.269-.475-.582-.407-.493-.45-.543-.187-.213-.436-.489-.481-.52-.692-.737-.4-.4-.552-.552-.356-.334-.6-.549-.51-.434-.791-.663-.516-.415-.7-.561-.382-.3-.591-.456-.405-.3-.6-.439-.407-.28-.648-.435-.47-.3-.689-.424-.4-.227-.531-.3-.328-.164-.573-.275-.414-.181-.5-.215-.226-.077-.415-.131-.341-.088-.463-.11-.235-.04-.343-.054A2.275,2.275,0,0,0,36,12.906Z"/>
    </g>
    <path fill="none" stroke-width="2.208" d="M11,42.266,39.53,23.827" stroke-linejoin="round" stroke-linecap="round" stroke="#010101"/>
    <path fill="none" stroke-width="2.208" d="M44.381,37.683,15.853,19.243" stroke-linejoin="round" stroke-linecap="round" stroke="#010101"/>
    <g>
      <rect fill="#010101" x="16.105" width="9.356" height="2.518" y="21.093" transform="translate(-9.412 26.801) rotate(-55.466)"/>
      <path fill="#010101" d="M22.59,18.822l.845.582-4.458,6.478-.846-.582,4.459-6.478m-.384-2.075-6.149,8.937,3.3,2.273,6.149-8.936-3.3-2.274Z"/>
    </g>
    <path fill="none" stroke-width="1.492" d="M44.969,42q-.021-.018-.042-.033l-.035-.03-.036-.03a.25.25,0,0,1-.033-.032l-.036-.033-.03-.036q-.018-.018-.033-.036a.4.4,0,0,0-.029-.039.42.42,0,0,1-.03-.038l-.03-.042a413793239989.552,413793239989.552,0,0,1-.054-.084q-.012-.021-.024-.045a.361.361,0,0,1-.023-.044q-.012-.024-.024-.045a.5.5,0,0,0-.021-.048c-.006-.016-.013-.032-.021-.05l-.018-.048-.018-.051-.018-.054c-.006-.018-.011-.034-.015-.05a.544.544,0,0,1-.015-.054l-.012-.057c-.006-.018-.011-.036-.015-.053a.34.34,0,0,0-.008-.057q-.006-.03-.009-.06a.5.5,0,0,1-.009-.056q0-.03-.009-.06l-.006-.06a.568.568,0,0,0,0-.059q0-.03,0-.063t0-.063V40.3c0-.022,0-.044,0-.065l.006-.063.006-.066.006-.065q0-.033.009-.069t.009-.066c0-.022.005-.043.009-.065l.011-.069.012-.069c.006-.022.011-.043.015-.065s.011-.047.015-.069l.018-.069c.006-.021.012-.044.018-.068l.018-.069c.006-.022.013-.045.021-.068s.013-.045.021-.069.013-.045.021-.069.015-.044.023-.068l.024-.069c.01-.022.019-.045.027-.068a.707.707,0,0,0,.027-.069q.015-.033.027-.066c.01-.024.02-.046.03-.068s.02-.045.03-.069.02-.044.032-.066a.713.713,0,0,1,.033-.068q.015-.033.033-.066c.01-.022.021-.043.033-.066l.036-.068.035-.063q.018-.033.039-.066l.036-.065.039-.063.042-.066.038-.062.042-.06q.021-.033.042-.063c.016-.019.031-.039.045-.059a.582.582,0,0,1,.044-.06.469.469,0,0,1,.045-.06l.045-.059.045-.057.047-.057.048-.056.048-.054.048-.057.05-.05q.024-.027.051-.054l.051-.051.051-.051.05-.047.051-.048.054-.048c.018-.016.036-.03.053-.044s.036-.031.054-.045l.051-.042a.626.626,0,0,1,.057-.045l.053-.039c.018-.013.036-.027.054-.038l.054-.039c.018-.014.037-.027.056-.039l.054-.036c.018-.009.037-.021.057-.033l.054-.032.056-.033.054-.03.057-.027.056-.03.054-.024a.494.494,0,0,0,.057-.026l.056-.021q.027-.012.054-.021a.479.479,0,0,1,.057-.021l.054-.018.056-.018.054-.015.054-.015.053-.012.054-.012a.507.507,0,0,1,.054-.009L47.5,36.2l.054-.006.054-.005a.475.475,0,0,0,.051,0h.155l.047,0,.051,0,.048.006a.249.249,0,0,0,.051.009.389.389,0,0,1,.047.009l.045.012a.211.211,0,0,1,.048.012l.045.012.044.015.045.018.045.018a.411.411,0,0,1,.042.021.317.317,0,0,1,.041.021.4.4,0,0,1,.042.02l.039.024a572339268740.037,572339268740.037,0,0,1,.078.054.26.26,0,0,1,.038.027l.036.03.036.033c.012.01.024.02.036.032l.021.021" stroke-linejoin="round" stroke-linecap="round" stroke="#010101"/>
    <path fill="none" stroke-width="1.435" d="M48.667,36.469l.542.348-3.762,5.548-.48-.306" stroke-linejoin="round" stroke-linecap="round" stroke="#010101"/>
  </g>
</svg>