<svg width="60" height="60" xmlns="http://www.w3.org/2000/svg" viewBox="0 0 60 60">
  <rect fill="#ffcd34" height="60" width="60"/>
  <g>
    <g>
      <path d="M15.577,18a3.187,3.187,0,0,0,1.464.376,1.269,1.269,0,0,0,1.424-1.312c0-.763-.465-1.192-1.237-1.725a3.349,3.349,0,0,1-1.779-2.628,2.558,2.558,0,0,1,2.765-2.641,2.88,2.88,0,0,1,1.41.343l-.278,1.283a2.136,2.136,0,0,0-1.166-.322,1.147,1.147,0,0,0-1.254,1.144c0,.733.378,1.065,1.34,1.686a3.139,3.139,0,0,1,1.676,2.707,2.7,2.7,0,0,1-2.9,2.768,3.612,3.612,0,0,1-1.712-.394Z" transform="translate(0 0)"/>
      <path d="M22.594,10.15v3.9h2.243v-3.9h1.5v9.441h-1.5V15.433H22.594v4.158H21.1V10.15Z" transform="translate(0 0)"/>
      <path d="M33.278,14.751c0,3.548-1.24,4.953-2.909,4.953-1.881,0-2.818-2-2.818-4.849,0-2.828,1.071-4.816,2.962-4.816C32.491,10.039,33.278,12.2,33.278,14.751Zm-4.172.12c0,2.052.388,3.529,1.339,3.529.974,0,1.279-1.7,1.279-3.585,0-1.709-.285-3.474-1.293-3.474C29.494,11.341,29.106,12.894,29.106,14.871Z" transform="translate(0 0)"/>
      <path d="M34.5,10.291a8.189,8.189,0,0,1,1.8-.183,3.312,3.312,0,0,1,2.339.69,2.452,2.452,0,0,1,.712,1.909A2.5,2.5,0,0,1,37.865,15.1v.028c.665.239,1.01.865,1.2,1.983a14.393,14.393,0,0,0,.577,2.482H38.092A12.792,12.792,0,0,1,37.6,17.3c-.182-1.228-.531-1.628-1.279-1.628h-.343v3.922H34.5Zm1.487,4.225h.39a1.488,1.488,0,0,0,1.461-1.657c0-.934-.375-1.555-1.35-1.57a1.721,1.721,0,0,0-.5.055Z" transform="translate(0 0)"/>
      <path d="M41.654,11.521H39.961V10.15h4.89v1.371h-1.7v8.07H41.654Z" transform="translate(0 0)"/>
    </g>
    <g>
      <path d="M14.407,32.521a3.2,3.2,0,0,0,1.464.375A1.269,1.269,0,0,0,17.3,31.585c0-.763-.464-1.192-1.236-1.725a3.35,3.35,0,0,1-1.779-2.629,2.557,2.557,0,0,1,2.765-2.64,2.869,2.869,0,0,1,1.41.343l-.278,1.283a2.136,2.136,0,0,0-1.166-.322,1.147,1.147,0,0,0-1.254,1.144c0,.732.377,1.065,1.339,1.686a3.137,3.137,0,0,1,1.676,2.707,2.7,2.7,0,0,1-2.9,2.768,3.615,3.615,0,0,1-1.712-.394Z" transform="translate(0 0)"/>
      <path d="M21.593,25.47V27.3h1.322v1.084H21.593v3.536c0,.835.324,1.048.7,1.048a2.424,2.424,0,0,0,.462-.042l.03,1.163a3.428,3.428,0,0,1-.977.114,1.627,1.627,0,0,1-1.207-.424,2.432,2.432,0,0,1-.5-1.843V28.381h-.817V27.3H20.1V25.852Z" transform="translate(0 0)"/>
      <path d="M28.334,30.69c0,2.751-1.417,3.539-2.453,3.539-1.447,0-2.434-1.21-2.434-3.506,0-2.464,1.21-3.538,2.484-3.538C27.362,27.185,28.334,28.442,28.334,30.69Zm-3.395.008c0,1.149.194,2.376.99,2.376.744,0,.914-1.346.914-2.376,0-.988-.17-2.359-.942-2.359C25.1,28.339,24.939,29.71,24.939,30.7Z" transform="translate(0 0)"/>
      <path d="M29.446,29.219c0-.632-.034-1.342-.056-1.922H30.7l.076,1.029h.044A1.616,1.616,0,0,1,32.2,27.185a1.579,1.579,0,0,1,.318.024v1.5a1.9,1.9,0,0,0-.32-.016A1.334,1.334,0,0,0,31,29.859a3.035,3.035,0,0,0-.063.654v3.6H29.446Z" transform="translate(0 0)"/>
      <path d="M34.337,31.108c.016,1.524.724,1.938,1.519,1.938A3.124,3.124,0,0,0,37.08,32.8l.212,1.076a4.338,4.338,0,0,1-1.707.32c-1.758,0-2.7-1.275-2.7-3.386,0-2.256,1.081-3.629,2.537-3.629,1.434,0,2.157,1.3,2.157,3.125a5.963,5.963,0,0,1-.04.8Zm1.855-1.064c.012-1.095-.347-1.745-.878-1.745-.648,0-.941.945-.971,1.745Z" transform="translate(0 0)"/>
      <path d="M38.549,32.7a2.4,2.4,0,0,0,1.176.358.755.755,0,0,0,.86-.78c0-.428-.2-.708-.831-1.106a2.29,2.29,0,0,1-1.383-1.953,1.987,1.987,0,0,1,2.085-2.038,2.7,2.7,0,0,1,1.309.333l-.307,1.1a1.718,1.718,0,0,0-.932-.29.7.7,0,0,0-.771.71c0,.37.166.583.82,1A2.4,2.4,0,0,1,41.966,32.1a2.024,2.024,0,0,1-2.253,2.1,2.665,2.665,0,0,1-1.46-.392Z" transform="translate(0 0)"/>
      <path d="M42.162,34.677l3.162-10.114h1.022L43.183,34.677Z" transform="translate(0 0)"/>
    </g>
    <g>
      <path d="M18.128,48.642l-1.7-9.442h1.55l.609,4.118c.165,1.127.275,2.2.394,3.357h.04c.127-1.179.335-2.2.548-3.368L20.33,39.2h1.23l.736,4.052c.19,1.085.372,2.145.5,3.423h.035c.134-1.291.274-2.312.421-3.393l.606-4.082h1.462l-1.739,9.442H22.056l-.714-3.766c-.17-.935-.326-2-.446-3.1h-.029c-.152,1.111-.312,2.145-.518,3.128l-.77,3.742Z" transform="translate(0 0)"/>
      <path d="M28.747,48.642l-.089-.7h-.033a1.667,1.667,0,0,1-1.445.807,1.817,1.817,0,0,1-1.716-2.017c0-1.753,1.482-2.493,3.025-2.507v-.18c0-.71-.278-1.209-1.019-1.209a2.3,2.3,0,0,0-1.272.378L25.911,42.2A3.8,3.8,0,0,1,27.8,41.71c1.756,0,2.2,1.2,2.2,2.653v2.726a10.58,10.58,0,0,0,.088,1.553Zm-.218-3.415c-.582.008-1.637.169-1.637,1.357,0,.77.41,1.048.739,1.048a.907.907,0,0,0,.862-.781,1.391,1.391,0,0,0,.036-.346Z" transform="translate(0 0)"/>
      <path d="M33.038,39.995v1.827H34.36v1.084H33.038v3.536c0,.835.324,1.048.7,1.048a2.338,2.338,0,0,0,.462-.042l.031,1.163a3.4,3.4,0,0,1-.977.115,1.635,1.635,0,0,1-1.208-.424,2.438,2.438,0,0,1-.5-1.844V42.906h-.816V41.822h.816V40.377Z" transform="translate(0 0)"/>
      <path d="M36.346,45.634c.015,1.523.723,1.937,1.519,1.937a3.124,3.124,0,0,0,1.224-.242l.212,1.076a4.337,4.337,0,0,1-1.707.321c-1.758,0-2.7-1.276-2.7-3.386,0-2.257,1.081-3.63,2.537-3.63,1.434,0,2.157,1.3,2.157,3.125a5.981,5.981,0,0,1-.04.8ZM38.2,44.569c.012-1.094-.347-1.745-.878-1.745-.648,0-.941.946-.971,1.745Z" transform="translate(0 0)"/>
      <path d="M40.666,43.744c0-.632-.034-1.342-.056-1.922h1.308l.076,1.03h.044a1.615,1.615,0,0,1,1.385-1.142,1.653,1.653,0,0,1,.317.024v1.495a2.015,2.015,0,0,0-.319-.015,1.333,1.333,0,0,0-1.2,1.171,3.025,3.025,0,0,0-.063.653v3.6h-1.5Z" transform="translate(0 0)"/>
    </g>
  </g>
</svg>