<svg width="60" height="60" xmlns="http://www.w3.org/2000/svg" viewBox="0 0 60 60">
  <rect fill="#999" x="15" width="45" height="60"/>
  <g>
    <rect fill="#999" height="60" width="60"/>
    <polygon fill="#666766" points="31.281 30.545 31.281 0 0 0 31.281 30.545" fill-rule="evenodd"/>
    <polygon fill="#666766" points="60 60 60 30 29.277 30 60 60" fill-rule="evenodd"/>
    <rect fill="#666766" x="2.768" width="57.232" height="32.403"/>
    <rect fill="#cccccb" x="2.768" width="54.496" height="54.702" y="2.649"/>
  </g>
  <g>
    <path fill="#333" d="M12.252,18.173a.7.7,0,0,1-.534-.2.759.759,0,0,1-.188-.546V9.423H8.586a.633.633,0,0,1-.458-.161.6.6,0,0,1-.167-.455.581.581,0,0,1,.167-.448.652.652,0,0,1,.458-.154h7.319a.674.674,0,0,1,.472.154.581.581,0,0,1,.167.448.6.6,0,0,1-.167.455.654.654,0,0,1-.472.161H12.961v8.008a.8.8,0,0,1-.174.546A.678.678,0,0,1,12.252,18.173Z"/>
    <path fill="#333" d="M19.585,18.2a3.989,3.989,0,0,1-1.909-.427,3,3,0,0,1-1.237-1.218A3.839,3.839,0,0,1,16,14.673a3.864,3.864,0,0,1,.431-1.862,3.176,3.176,0,0,1,1.18-1.246,3.518,3.518,0,0,1,2.972-.217,2.608,2.608,0,0,1,.951.672,2.9,2.9,0,0,1,.6,1.071,4.608,4.608,0,0,1,.2,1.414.442.442,0,0,1-.139.357.629.629,0,0,1-.417.119H17.113v-.868h4.278l-.237.2a3.14,3.14,0,0,0-.2-1.19,1.583,1.583,0,0,0-.6-.749,1.756,1.756,0,0,0-.979-.259,1.913,1.913,0,0,0-1.1.308,1.938,1.938,0,0,0-.688.854,3.2,3.2,0,0,0-.236,1.274v.084a2.646,2.646,0,0,0,.577,1.855,2.168,2.168,0,0,0,1.673.623A3.759,3.759,0,0,0,20.481,17a2.906,2.906,0,0,0,.882-.378.742.742,0,0,1,.423-.126.479.479,0,0,1,.306.126.492.492,0,0,1,.146.28.57.57,0,0,1-.056.343.812.812,0,0,1-.291.315,3.451,3.451,0,0,1-1.1.483A4.846,4.846,0,0,1,19.585,18.2Z"/>
    <path fill="#333" d="M24.571,18.173a.7.7,0,0,1-.528-.189.727.727,0,0,1-.181-.525v-5.6a.723.723,0,0,1,.181-.532.787.787,0,0,1,1.007,0,.743.743,0,0,1,.174.532v1.022h-.139a2.2,2.2,0,0,1,.819-1.274,2.925,2.925,0,0,1,1.528-.5.505.505,0,0,1,.4.126.621.621,0,0,1,.16.434.6.6,0,0,1-.125.469.677.677,0,0,1-.472.2l-.264.028a2.112,2.112,0,0,0-1.375.574,1.86,1.86,0,0,0-.472,1.344v3.178a.746.746,0,0,1-.174.525A.689.689,0,0,1,24.571,18.173Z"/>
    <path fill="#333" d="M29.751,18.173a.7.7,0,0,1-.528-.189.727.727,0,0,1-.181-.525v-5.6a.723.723,0,0,1,.181-.532.787.787,0,0,1,1.007,0,.747.747,0,0,1,.173.532v1.022h-.139a2.207,2.207,0,0,1,.82-1.274,2.921,2.921,0,0,1,1.527-.5.506.506,0,0,1,.4.126.626.626,0,0,1,.16.434.6.6,0,0,1-.125.469.68.68,0,0,1-.473.2l-.263.028a2.112,2.112,0,0,0-1.375.574,1.856,1.856,0,0,0-.472,1.344v3.178a.746.746,0,0,1-.174.525A.692.692,0,0,1,29.751,18.173Z"/>
    <path fill="#333" d="M36.319,18.2a2.81,2.81,0,0,1-1.271-.28,2.231,2.231,0,0,1-.881-.756,1.881,1.881,0,0,1-.32-1.078,1.764,1.764,0,0,1,.382-1.2,2.247,2.247,0,0,1,1.264-.63,11.871,11.871,0,0,1,2.382-.189h.652v.868h-.639a10.073,10.073,0,0,0-1.583.1,1.578,1.578,0,0,0-.826.329.836.836,0,0,0-.243.637,1.108,1.108,0,0,0,.361.861,1.43,1.43,0,0,0,1,.329,1.656,1.656,0,0,0,.9-.245,1.773,1.773,0,0,0,.617-.665,1.982,1.982,0,0,0,.23-.966v-1.61a1.632,1.632,0,0,0-.334-1.148,1.464,1.464,0,0,0-1.1-.35,4.031,4.031,0,0,0-.923.112A4.31,4.31,0,0,0,35,12.7a.607.607,0,0,1-.4.07.436.436,0,0,1-.264-.189.609.609,0,0,1-.1-.322.657.657,0,0,1,.083-.343.565.565,0,0,1,.313-.252,5.318,5.318,0,0,1,1.208-.42,5.459,5.459,0,0,1,1.125-.126,3.5,3.5,0,0,1,1.534.294,1.883,1.883,0,0,1,.9.9,3.563,3.563,0,0,1,.292,1.554v3.6a.768.768,0,0,1-.167.525.613.613,0,0,1-.486.189.639.639,0,0,1-.486-.189.727.727,0,0,1-.181-.525v-.91h.125a2.093,2.093,0,0,1-.409.889,1.963,1.963,0,0,1-.743.567A2.489,2.489,0,0,1,36.319,18.2Z"/>
    <path fill="#333" d="M42.3,9.717a.921.921,0,0,1-.645-.21.757.757,0,0,1-.229-.588.752.752,0,0,1,.229-.6,1.128,1.128,0,0,1,1.291,0,.752.752,0,0,1,.229.6.757.757,0,0,1-.229.588A.922.922,0,0,1,42.3,9.717Zm0,8.442a.651.651,0,0,1-.513-.2.82.82,0,0,1-.181-.567v-5.46a.794.794,0,0,1,.181-.56.664.664,0,0,1,.513-.2.69.69,0,0,1,.521.2.779.779,0,0,1,.188.56v5.46a.825.825,0,0,1-.181.567A.67.67,0,0,1,42.3,18.159Z"/>
    <path fill="#333" d="M45.679,18.173a.677.677,0,0,1-.514-.189.727.727,0,0,1-.181-.525v-5.6a.723.723,0,0,1,.181-.532.787.787,0,0,1,1.007,0,.743.743,0,0,1,.174.532v1.092l-.153-.252a2.33,2.33,0,0,1,.958-1.183,2.817,2.817,0,0,1,1.5-.4,2.711,2.711,0,0,1,1.34.3,1.862,1.862,0,0,1,.8.91,3.888,3.888,0,0,1,.263,1.533v3.6a.73.73,0,0,1-.18.525.679.679,0,0,1-.514.189.7.7,0,0,1-.528-.189.73.73,0,0,1-.18-.525V13.945a2,2,0,0,0-.34-1.288,1.309,1.309,0,0,0-1.063-.406,1.781,1.781,0,0,0-1.354.532,1.985,1.985,0,0,0-.507,1.428v3.248A.628.628,0,0,1,45.679,18.173Z"/>
    <path fill="#333" d="M10.4,34.876a.776.776,0,0,1-.576-.2.794.794,0,0,1-.2-.582v-8.3a.792.792,0,0,1,.2-.581.776.776,0,0,1,.576-.2h5.069a.617.617,0,0,1,.445.147.565.565,0,0,1,.152.427.608.608,0,0,1-.152.448.6.6,0,0,1-.445.154H11.009v3.094h4.153a.594.594,0,0,1,.451.154.609.609,0,0,1,.146.434.6.6,0,0,1-.146.441.612.612,0,0,1-.451.147H11.009V33.7h4.458a.6.6,0,0,1,.445.154.59.59,0,0,1,.152.434.583.583,0,0,1-.152.441.613.613,0,0,1-.445.148Z"/>
    <path fill="#333" d="M18.689,34.973a.7.7,0,0,1-.521-.188.715.715,0,0,1-.187-.526V29.135H17.2a.574.574,0,0,1-.416-.147.606.606,0,0,1,0-.8.593.593,0,0,1,.416-.14h1.181l-.4.378v-.5a2.907,2.907,0,0,1,.681-2.093,3.059,3.059,0,0,1,1.985-.833l.431-.028a.533.533,0,0,1,.375.07.451.451,0,0,1,.18.252.645.645,0,0,1,.007.315.632.632,0,0,1-.145.287.4.4,0,0,1-.278.14l-.264.014a1.8,1.8,0,0,0-1.194.469,1.714,1.714,0,0,0-.375,1.211v.546l-.2-.224h1.542a.61.61,0,0,1,.437.14.628.628,0,0,1,0,.8.59.59,0,0,1-.437.147H19.384v5.124A.623.623,0,0,1,18.689,34.973Z"/>
    <path fill="#333" d="M23.245,34.973a.7.7,0,0,1-.521-.188.716.716,0,0,1-.188-.526V29.135h-.778a.576.576,0,0,1-.416-.147.606.606,0,0,1,0-.8.6.6,0,0,1,.416-.14h1.181l-.4.378v-.5a2.907,2.907,0,0,1,.681-2.093,3.06,3.06,0,0,1,1.986-.833l.43-.028a.531.531,0,0,1,.375.07.448.448,0,0,1,.181.252.657.657,0,0,1,.006.315.622.622,0,0,1-.145.287.4.4,0,0,1-.278.14l-.264.014a1.8,1.8,0,0,0-1.194.469,1.714,1.714,0,0,0-.375,1.211v.546l-.194-.224h1.541a.61.61,0,0,1,.437.14.628.628,0,0,1,0,.8.59.59,0,0,1-.437.147H23.939v5.124A.622.622,0,0,1,23.245,34.973Z"/>
    <path fill="#333" d="M29.938,35a3.989,3.989,0,0,1-1.909-.428,2.991,2.991,0,0,1-1.236-1.218,4.252,4.252,0,0,1-.007-3.745,3.176,3.176,0,0,1,1.18-1.246,3.518,3.518,0,0,1,2.972-.217,2.6,2.6,0,0,1,.951.672,2.9,2.9,0,0,1,.6,1.071,4.608,4.608,0,0,1,.2,1.414.442.442,0,0,1-.139.357.629.629,0,0,1-.417.119H27.466v-.868h4.278l-.237.2a3.14,3.14,0,0,0-.2-1.19,1.588,1.588,0,0,0-.6-.749,1.756,1.756,0,0,0-.979-.259,1.837,1.837,0,0,0-1.791,1.163,3.171,3.171,0,0,0-.237,1.273v.084a2.645,2.645,0,0,0,.577,1.855,2.168,2.168,0,0,0,1.673.623,3.759,3.759,0,0,0,.882-.112,2.906,2.906,0,0,0,.882-.378.742.742,0,0,1,.423-.126.472.472,0,0,1,.452.406.569.569,0,0,1-.056.343.8.8,0,0,1-.291.315,3.479,3.479,0,0,1-1.1.484A4.86,4.86,0,0,1,29.938,35Z"/>
    <path fill="#333" d="M37.2,35a3.509,3.509,0,0,1-1.8-.442,3,3,0,0,1-1.173-1.246,4.07,4.07,0,0,1-.417-1.9,4.256,4.256,0,0,1,.236-1.463,3.029,3.029,0,0,1,.673-1.1,2.978,2.978,0,0,1,1.07-.693,3.923,3.923,0,0,1,2.43-.1,3.042,3.042,0,0,1,.993.483.5.5,0,0,1,.229.273.655.655,0,0,1,.014.329.555.555,0,0,1-.153.287.467.467,0,0,1-.284.14.576.576,0,0,1-.361-.091,2.333,2.333,0,0,0-.681-.343,2.3,2.3,0,0,0-.666-.105,2.239,2.239,0,0,0-.882.162,1.73,1.73,0,0,0-.646.461,1.963,1.963,0,0,0-.4.749,3.624,3.624,0,0,0-.132,1.022,2.751,2.751,0,0,0,.535,1.8,1.855,1.855,0,0,0,1.521.651,2.425,2.425,0,0,0,.666-.1,2.192,2.192,0,0,0,.681-.336.548.548,0,0,1,.361-.084.452.452,0,0,1,.271.147.622.622,0,0,1,.117.609.527.527,0,0,1-.236.28,2.914,2.914,0,0,1-.965.462A3.848,3.848,0,0,1,37.2,35Z"/>
    <path fill="#333" d="M43.6,35a3.042,3.042,0,0,1-1.4-.294,1.872,1.872,0,0,1-.847-.869,3.18,3.18,0,0,1-.278-1.4v-3.3h-.834a.6.6,0,0,1-.43-.147.606.606,0,0,1,0-.8.615.615,0,0,1,.43-.14h.834V26.6a.71.71,0,0,1,.187-.532.719.719,0,0,1,.521-.182.7.7,0,0,1,.514.182.727.727,0,0,1,.18.532v1.442H44.1a.618.618,0,0,1,.431.14.606.606,0,0,1,0,.8.6.6,0,0,1-.431.147H42.478v3.192a1.725,1.725,0,0,0,.313,1.12,1.252,1.252,0,0,0,1.021.378,1.725,1.725,0,0,0,.437-.049,2.179,2.179,0,0,1,.313-.063.327.327,0,0,1,.25.1.606.606,0,0,1,.1.4,1,1,0,0,1-.077.392.4.4,0,0,1-.27.238A3.636,3.636,0,0,1,43.6,35Z"/>
    <path fill="#333" d="M48.158,35a5.892,5.892,0,0,1-1.257-.141,3.729,3.729,0,0,1-1.187-.476.694.694,0,0,1-.25-.28.564.564,0,0,1-.048-.315.509.509,0,0,1,.125-.28.443.443,0,0,1,.263-.147.527.527,0,0,1,.341.07,3.98,3.98,0,0,0,1.041.427,4.217,4.217,0,0,0,.986.119,1.912,1.912,0,0,0,1.111-.266A.832.832,0,0,0,49.658,33a.69.69,0,0,0-.25-.567,1.841,1.841,0,0,0-.75-.315l-1.319-.266a2.473,2.473,0,0,1-1.306-.644,1.628,1.628,0,0,1-.444-1.176,1.854,1.854,0,0,1,.347-1.12,2.231,2.231,0,0,1,.972-.735,3.764,3.764,0,0,1,1.445-.259,4.219,4.219,0,0,1,1.152.154,3.506,3.506,0,0,1,1,.462.472.472,0,0,1,.236.259.57.57,0,0,1,.021.315.578.578,0,0,1-.146.273.434.434,0,0,1-.271.14.608.608,0,0,1-.354-.077,2.969,2.969,0,0,0-1.638-.49,1.844,1.844,0,0,0-1.1.273.868.868,0,0,0-.369.735.78.78,0,0,0,.223.574,1.335,1.335,0,0,0,.694.322l1.319.266a2.782,2.782,0,0,1,1.368.616,1.533,1.533,0,0,1,.466,1.176,1.792,1.792,0,0,1-.764,1.526A3.35,3.35,0,0,1,48.158,35Z"/>
    <path fill="#333" d="M17.793,51.8a4.956,4.956,0,0,1-2.541-.617,4.053,4.053,0,0,1-1.618-1.757,6.029,6.029,0,0,1-.562-2.695,6.428,6.428,0,0,1,.319-2.093,4.524,4.524,0,0,1,.923-1.595A3.929,3.929,0,0,1,15.8,42.029a5.375,5.375,0,0,1,1.993-.35,5.545,5.545,0,0,1,1.577.224,4.062,4.062,0,0,1,1.312.645.738.738,0,0,1,.312.371.7.7,0,0,1,.028.412.664.664,0,0,1-.187.329.539.539,0,0,1-.355.147.753.753,0,0,1-.465-.154A3.14,3.14,0,0,0,19,43.136a3.971,3.971,0,0,0-1.166-.168,3.348,3.348,0,0,0-1.777.44,2.786,2.786,0,0,0-1.1,1.281,5.777,5.777,0,0,0,0,4.095,2.774,2.774,0,0,0,1.1,1.288,3.348,3.348,0,0,0,1.777.441,3.947,3.947,0,0,0,1.173-.174,3.847,3.847,0,0,0,1.063-.526.772.772,0,0,1,.451-.139.537.537,0,0,1,.34.139.624.624,0,0,1,.188.316.706.706,0,0,1-.014.391.638.638,0,0,1-.271.343,3.912,3.912,0,0,1-1.347.7A5.546,5.546,0,0,1,17.793,51.8Z"/>
    <path fill="#333" d="M23.334,51.773a.677.677,0,0,1-.514-.188.733.733,0,0,1-.18-.526V42.422a.728.728,0,0,1,.18-.533.693.693,0,0,1,.514-.181.718.718,0,0,1,.521.181.711.711,0,0,1,.188.533V46.3h-.2a2.332,2.332,0,0,1,.958-1.184,2.816,2.816,0,0,1,1.5-.4,2.708,2.708,0,0,1,1.34.3,1.861,1.861,0,0,1,.8.91,3.875,3.875,0,0,1,.264,1.534v3.6a.733.733,0,0,1-.181.526.677.677,0,0,1-.514.188.7.7,0,0,1-.528-.188.733.733,0,0,1-.18-.526V47.546a1.993,1.993,0,0,0-.34-1.288,1.309,1.309,0,0,0-1.063-.407,1.782,1.782,0,0,0-1.354.533,1.98,1.98,0,0,0-.506,1.427v3.248A.629.629,0,0,1,23.334,51.773Z"/>
    <path fill="#333" d="M32.805,51.8a2.806,2.806,0,0,1-1.27-.281,2.225,2.225,0,0,1-.882-.756,1.88,1.88,0,0,1-.319-1.078,1.764,1.764,0,0,1,.381-1.2,2.251,2.251,0,0,1,1.264-.63,11.883,11.883,0,0,1,2.382-.188h.652v.867h-.638a10.055,10.055,0,0,0-1.583.1,1.578,1.578,0,0,0-.827.33.834.834,0,0,0-.243.636,1.112,1.112,0,0,0,.361.862,1.437,1.437,0,0,0,1,.329,1.662,1.662,0,0,0,.9-.245,1.783,1.783,0,0,0,.618-.665,2,2,0,0,0,.229-.966V47.307a1.632,1.632,0,0,0-.333-1.148,1.471,1.471,0,0,0-1.1-.35,3.979,3.979,0,0,0-.923.113,4.254,4.254,0,0,0-.993.378.611.611,0,0,1-.4.069.432.432,0,0,1-.264-.189.615.615,0,0,1-.1-.322.661.661,0,0,1,.083-.343.565.565,0,0,1,.313-.252,5.313,5.313,0,0,1,1.208-.419,5.459,5.459,0,0,1,1.125-.126,3.51,3.51,0,0,1,1.535.293,1.9,1.9,0,0,1,.9.9,3.583,3.583,0,0,1,.291,1.555v3.6a.775.775,0,0,1-.166.526.616.616,0,0,1-.487.188.64.64,0,0,1-.486-.188.733.733,0,0,1-.18-.526v-.91h.125a2.1,2.1,0,0,1-.41.889,1.946,1.946,0,0,1-.743.567A2.486,2.486,0,0,1,32.805,51.8Z"/>
    <path fill="#333" d="M38.805,51.773a.7.7,0,0,1-.528-.188.729.729,0,0,1-.181-.526v-5.6a.72.72,0,0,1,.181-.532.784.784,0,0,1,1.007,0,.744.744,0,0,1,.174.532v1.021h-.14a2.207,2.207,0,0,1,.82-1.273,2.916,2.916,0,0,1,1.528-.5.505.505,0,0,1,.4.126.626.626,0,0,1,.16.434.6.6,0,0,1-.125.469.675.675,0,0,1-.472.2l-.264.029a2.107,2.107,0,0,0-1.375.573,1.857,1.857,0,0,0-.472,1.345v3.177a.749.749,0,0,1-.174.526A.69.69,0,0,1,38.805,51.773Z"/>
    <path fill="#333" d="M46.54,51.8a3.047,3.047,0,0,1-1.4-.294,1.872,1.872,0,0,1-.847-.869,3.194,3.194,0,0,1-.278-1.4v-3.3h-.833a.593.593,0,0,1-.43-.147.606.606,0,0,1,0-.8.613.613,0,0,1,.43-.139h.833V43.4a.645.645,0,0,1,.708-.714.693.693,0,0,1,.514.182.723.723,0,0,1,.181.532v1.443H47.04a.615.615,0,0,1,.43.139.606.606,0,0,1,0,.8.6.6,0,0,1-.43.147H45.415v3.193a1.724,1.724,0,0,0,.312,1.119,1.251,1.251,0,0,0,1.021.379,1.725,1.725,0,0,0,.438-.05,2.348,2.348,0,0,1,.312-.063.329.329,0,0,1,.25.105.6.6,0,0,1,.1.4,1.018,1.018,0,0,1-.076.392.4.4,0,0,1-.271.238,3.231,3.231,0,0,1-.452.106A3.09,3.09,0,0,1,46.54,51.8Z"/>
  </g>
</svg>