<svg width="60" height="60" xmlns="http://www.w3.org/2000/svg" viewBox="0 0 60 60">
  <rect fill="#999" x="15" width="45" height="60"/>
  <g>
    <rect fill="#999" height="60" width="60"/>
    <polygon fill="#666766" points="31.281 30.545 31.281 0 0 0 31.281 30.545" fill-rule="evenodd"/>
    <polygon fill="#666766" points="60 60 60 30 29.277 30 60 60" fill-rule="evenodd"/>
    <rect fill="#666766" x="2.768" width="57.232" height="32.403"/>
    <rect fill="#cccccb" x="2.768" width="54.496" height="54.702" y="2.649"/>
  </g>
  <g>
    <path fill="#333" d="M10.189,38.145a6.827,6.827,0,0,1-2.231-.333,4.081,4.081,0,0,1-1.616-1,4.328,4.328,0,0,1-.991-1.656,7.05,7.05,0,0,1-.339-2.286V26.1a.939.939,0,0,1,.24-.7.95.95,0,0,1,.688-.234.945.945,0,0,1,.687.234.936.936,0,0,1,.242.7v6.732a3.961,3.961,0,0,0,.848,2.772,3.2,3.2,0,0,0,2.472.918,3.194,3.194,0,0,0,2.482-.918,3.989,3.989,0,0,0,.84-2.772V26.1a.935.935,0,0,1,.241-.7,1.088,1.088,0,0,1,1.348,0,.961.961,0,0,1,.232.7v6.768a6.544,6.544,0,0,1-.581,2.907,3.867,3.867,0,0,1-1.722,1.773A6.115,6.115,0,0,1,10.189,38.145Z"/>
    <path fill="#333" d="M19.064,38.109a.864.864,0,0,1-.643-.234.9.9,0,0,1-.232-.666V26.1a.987.987,0,0,1,.223-.693.773.773,0,0,1,.6-.243.862.862,0,0,1,.491.117,2,2,0,0,1,.4.423l7.356,9.774h-.446V26.049a.9.9,0,0,1,.223-.648.988.988,0,0,1,1.277,0,.923.923,0,0,1,.214.648V37.227a.947.947,0,0,1-.205.648.69.69,0,0,1-.545.234.99.99,0,0,1-.526-.126,1.691,1.691,0,0,1-.438-.432L19.492,27.8H19.9v9.414a.949.949,0,0,1-.214.666A.806.806,0,0,1,19.064,38.109Z"/>
    <path fill="#333" d="M32.384,38.109a.908.908,0,0,1-.688-.252.977.977,0,0,1-.24-.7V26.121a.971.971,0,0,1,.24-.711,1.094,1.094,0,0,1,1.375,0,.967.967,0,0,1,.242.711V37.155a1,1,0,0,1-.233.7A.9.9,0,0,1,32.384,38.109Z"/>
    <path fill="#333" d="M40.24,38.109a.9.9,0,0,1-.687-.252.973.973,0,0,1-.241-.7v-10.3H35.526a.812.812,0,0,1-.589-.207.775.775,0,0,1-.214-.585.745.745,0,0,1,.214-.576.834.834,0,0,1,.589-.2h9.41a.862.862,0,0,1,.607.2.745.745,0,0,1,.214.576.775.775,0,0,1-.214.585.838.838,0,0,1-.607.207H41.151v10.3a1.027,1.027,0,0,1-.223.7A.875.875,0,0,1,40.24,38.109Z"/>
    <path fill="#333" d="M50.918,38.145a10.25,10.25,0,0,1-1.607-.126,7.666,7.666,0,0,1-1.482-.387,5.847,5.847,0,0,1-1.25-.639,1.027,1.027,0,0,1-.366-.45.889.889,0,0,1-.053-.495.849.849,0,0,1,.205-.423.632.632,0,0,1,.91-.072,5.983,5.983,0,0,0,1.7.765,7.387,7.387,0,0,0,1.946.243,3.7,3.7,0,0,0,2.241-.55,1.712,1.712,0,0,0,.723-1.43,1.4,1.4,0,0,0-.518-1.143,4.156,4.156,0,0,0-1.732-.675l-1.91-.4A4.971,4.971,0,0,1,47.2,31.179a3.013,3.013,0,0,1-.83-2.232,3.437,3.437,0,0,1,.348-1.548,3.673,3.673,0,0,1,.973-1.215,4.367,4.367,0,0,1,1.5-.783,6.452,6.452,0,0,1,1.911-.27,7.3,7.3,0,0,1,2.08.288,5.261,5.261,0,0,1,1.741.882.8.8,0,0,1,.312.405.942.942,0,0,1,.036.477.75.75,0,0,1-.2.4.663.663,0,0,1-.411.189A.859.859,0,0,1,54.1,27.6a5.02,5.02,0,0,0-1.419-.675,5.8,5.8,0,0,0-1.6-.207,3.967,3.967,0,0,0-1.527.27,2.248,2.248,0,0,0-1,.756,1.926,1.926,0,0,0-.348,1.152,1.571,1.571,0,0,0,.482,1.206,3.371,3.371,0,0,0,1.607.684l1.893.4a5.684,5.684,0,0,1,2.66,1.17,2.7,2.7,0,0,1,.875,2.106,3.342,3.342,0,0,1-.339,1.521,3.39,3.39,0,0,1-.964,1.16,4.5,4.5,0,0,1-1.509.748A7.066,7.066,0,0,1,50.918,38.145Z"/>
  </g>
</svg>