<svg width="60" height="60" xmlns="http://www.w3.org/2000/svg" viewBox="0 0 60 60">
  <rect fill="#ffcd34" height="60" width="60"/>
  <g>
    <path stroke-linecap="round" transform="translate(0 0)" fill="none" stroke-linejoin="round" d="M18.874,28.583V28.7l0,.116-.006.117c0,.037,0,.075-.008.114s-.006.077-.01.114-.008.078-.013.117-.009.075-.016.114-.011.075-.017.112-.014.077-.022.115l-.023.112c-.008.038-.016.075-.025.113s-.019.074-.029.112l-.031.112c-.01.037-.021.073-.033.111s-.024.072-.037.108-.024.073-.037.111l-.042.106c-.013.037-.027.072-.043.107s-.029.072-.045.107-.033.069-.048.1l-.05.105c-.018.035-.037.069-.055.1s-.035.067-.054.1-.037.068-.058.1-.039.067-.058.1l-.062.1c-.021.032-.042.065-.064.1l-.066.095-.07.093c-.023.031-.046.061-.07.091s-.047.061-.071.091-.05.059-.076.087-.05.059-.076.087-.052.057-.079.086l-.079.081c-.028.029-.055.056-.082.082l-.085.079-.085.078c-.029.025-.058.051-.088.075l-.089.074c-.029.024-.06.048-.091.071l-.091.07-.095.066-.095.066-.1.062-.1.062-.1.058c-.034.02-.068.038-.1.056l-.1.055-.1.05-.1.05-.107.047c-.035.016-.07.03-.107.045l-.106.042-.109.039-.108.037c-.038.013-.074.024-.111.035l-.11.033-.113.029c-.037.01-.074.019-.112.027l-.112.025c-.038.008-.076.015-.115.021s-.075.014-.112.02l-.114.017-.115.014c-.039.005-.077.009-.116.011s-.076.008-.114.01l-.117.008-.114,0h-.231l-.116,0-.114-.008c-.039,0-.078-.006-.117-.01s-.077-.006-.114-.011l-.114-.014-.115-.017c-.038-.006-.077-.012-.114-.02s-.075-.013-.112-.021l-.115-.025c-.037-.008-.075-.017-.112-.027l-.111-.029-.11-.033c-.038-.011-.074-.022-.111-.035l-.11-.037-.109-.039-.106-.042c-.036-.015-.072-.029-.107-.045l-.106-.047-.1-.05-.1-.05-.1-.055c-.034-.018-.068-.036-.1-.056l-.1-.058-.1-.062c-.034-.021-.066-.041-.1-.062l-.1-.066-.093-.066-.093-.07-.091-.071-.089-.074-.087-.075c-.029-.025-.057-.051-.086-.078s-.056-.052-.083-.079-.056-.053-.083-.082l-.08-.081-.077-.086q-.039-.042-.078-.087c-.024-.028-.049-.057-.073-.087s-.05-.06-.074-.091-.047-.06-.07-.091l-.068-.093c-.023-.031-.045-.063-.066-.095s-.043-.065-.064-.1-.042-.065-.062-.1-.04-.065-.06-.1l-.058-.1-.054-.1c-.018-.034-.036-.068-.052-.1s-.035-.07-.051-.105-.033-.07-.048-.1-.031-.071-.047-.107-.028-.07-.042-.107-.028-.071-.041-.106-.026-.074-.039-.111-.025-.072-.037-.108-.021-.074-.033-.111l-.031-.112L8.8,29.841l-.027-.113-.023-.112L8.727,29.5c-.007-.037-.013-.074-.018-.112l-.015-.114c-.006-.039-.01-.078-.014-.117s-.007-.075-.01-.114l-.007-.114q0-.059-.006-.117c0-.038,0-.077,0-.116v-.114c0-.039,0-.078,0-.117s0-.077.006-.114l.007-.116c0-.038.006-.076.01-.114s.008-.077.014-.115l.015-.114c.005-.039.011-.077.018-.115s.014-.077.021-.114l.023-.112.027-.113.027-.112c.011-.038.021-.074.031-.111s.023-.075.033-.112.024-.073.037-.109l.039-.108c.013-.036.026-.072.041-.109l.042-.106c.016-.036.031-.072.047-.107s.031-.07.048-.105.033-.069.051-.1.034-.068.052-.1l.054-.1.058-.1q.03-.051.06-.1c.02-.033.04-.065.062-.1s.042-.065.064-.1.043-.063.066-.095l.068-.093c.023-.031.047-.061.07-.091l.074-.089L9.9,25.3l.078-.088c.026-.028.051-.056.077-.083s.053-.056.08-.083l.083-.082c.027-.027.055-.053.083-.079l.086-.078.087-.075.089-.074.091-.072.093-.068.093-.067.1-.066c.031-.021.063-.042.1-.062l.1-.062.1-.058c.032-.02.066-.039.1-.057l.1-.054.1-.05.1-.051.106-.046c.035-.016.071-.031.107-.045l.106-.042.109-.039.11-.037.111-.035.11-.033.111-.029.112-.027.115-.025.112-.022.114-.019.115-.017.114-.014.114-.012c.039,0,.078-.007.117-.009s.075-.005.114-.006.078,0,.116,0l.115,0,.116,0c.039,0,.077,0,.114,0s.078,0,.117.006.076.006.114.009.077.007.116.012l.115.014.114.017.112.019.115.022.112.025.112.027.113.029.11.033.111.035.108.037.109.039.106.042c.037.014.072.029.107.045l.107.046.1.051.1.05.1.054.1.057c.033.019.066.038.1.058s.067.041.1.062l.1.062.095.066c.032.022.064.044.095.067s.061.045.091.068l.091.072.089.074c.03.024.059.049.088.075l.085.078.085.079.082.082c.027.027.053.055.079.083s.054.055.079.083l.076.088c.026.029.051.059.076.089s.048.059.071.089.048.06.07.091l.07.093.066.095c.022.032.043.064.064.1l.062.1c.019.032.039.065.058.1s.04.067.058.1l.056.1c.017.035.035.069.053.1l.05.1c.015.035.032.07.048.105s.031.071.045.107.03.07.043.106l.042.109c.013.036.025.072.037.108s.025.073.037.111.023.073.033.11.021.073.031.111.02.075.029.112.017.075.025.113l.023.112c.008.037.015.076.022.114s.012.076.017.115.012.075.016.114.009.076.013.115.007.076.01.114.006.077.008.116l.006.114Z" stroke="#010101" stroke-width="2.558"/>
    <path stroke-linecap="round" transform="translate(0 0)" fill="none" stroke-linejoin="round" d="M35.953,28.583V28.7c0,.039,0,.078,0,.116s0,.078-.006.117l-.008.114q0,.058-.009.114c0,.039-.009.078-.014.117l-.015.114-.02.112-.019.115-.023.112-.028.113-.027.112-.031.112c-.011.037-.023.073-.035.111l-.034.108c-.013.037-.026.073-.039.111s-.027.07-.041.106-.028.072-.043.107-.031.072-.046.107-.032.069-.049.1-.032.07-.05.105-.034.069-.052.1l-.055.1-.058.1q-.029.051-.06.1c-.019.032-.04.065-.062.1s-.042.065-.064.1L35,31.616l-.067.093-.07.091-.074.091c-.024.03-.049.059-.074.087s-.051.059-.077.087l-.078.086-.081.081c-.026.029-.053.056-.081.082s-.055.053-.084.079l-.085.078c-.03.025-.059.051-.089.075l-.089.074-.089.071-.093.07-.094.066-.1.066c-.031.021-.064.041-.1.062l-.1.062-.1.058c-.034.02-.067.038-.1.056l-.1.055-.1.05-.105.05-.1.047c-.034.016-.07.03-.106.045l-.109.042-.108.039-.109.037c-.036.013-.073.024-.11.035l-.111.033-.112.029q-.054.015-.111.027l-.114.025c-.037.008-.075.015-.112.021s-.077.014-.115.02l-.114.017-.114.014c-.039.005-.077.009-.115.011s-.077.008-.116.01l-.114.008-.117,0h-.23l-.115,0-.116-.008c-.039,0-.077-.006-.114-.01s-.078-.006-.117-.011l-.114-.014-.114-.017c-.038-.006-.075-.012-.113-.02l-.114-.021L29.7,33.62c-.038-.008-.075-.017-.113-.027l-.112-.029-.111-.033c-.036-.011-.073-.022-.11-.035l-.109-.037-.108-.039-.109-.042-.106-.045-.105-.047-.105-.05-.1-.05-.1-.055c-.034-.018-.067-.036-.1-.056l-.1-.058-.1-.062-.1-.062-.095-.066-.095-.066c-.031-.023-.062-.046-.091-.07l-.092-.071-.089-.074-.087-.075c-.03-.025-.058-.051-.085-.078l-.085-.079c-.028-.026-.055-.053-.082-.082s-.054-.054-.079-.081-.054-.057-.08-.086-.051-.057-.075-.087-.051-.057-.076-.087-.048-.06-.072-.091-.047-.06-.069-.091l-.07-.093-.066-.095c-.022-.032-.043-.065-.064-.1l-.062-.1-.06-.1c-.02-.033-.038-.067-.056-.1s-.039-.067-.057-.1-.035-.068-.052-.1l-.05-.105c-.017-.035-.033-.07-.049-.1s-.03-.071-.044-.107-.031-.07-.045-.107-.026-.071-.041-.106-.025-.074-.036-.111-.026-.072-.037-.108-.023-.074-.033-.111-.022-.075-.031-.112-.02-.075-.029-.112-.018-.075-.025-.113-.017-.075-.024-.112-.015-.076-.021-.115-.012-.074-.018-.112-.011-.077-.015-.114-.01-.078-.014-.117l-.011-.114-.008-.114,0-.117,0-.116v-.114l0-.117,0-.114.008-.116.011-.114c0-.039.009-.077.014-.115s.009-.077.015-.114.011-.077.018-.115.014-.077.021-.114.014-.075.024-.112.016-.075.025-.113.018-.075.029-.112.019-.074.031-.111.021-.075.033-.112.024-.073.037-.109.023-.072.036-.108.028-.072.041-.109.029-.071.045-.106.029-.072.044-.107.032-.07.049-.105l.05-.1.052-.1c.018-.033.037-.067.057-.1s.036-.067.056-.1l.06-.1.062-.1c.021-.033.042-.065.064-.1l.066-.095.07-.093c.022-.031.045-.061.069-.091s.047-.06.072-.089.05-.06.076-.089.049-.059.075-.088l.078-.083.081-.083.082-.082.085-.079c.027-.026.055-.052.085-.078s.058-.051.087-.075l.089-.074c.03-.025.061-.048.092-.072s.06-.046.091-.068.062-.045.095-.067l.095-.066.1-.062.1-.062.1-.058c.034-.02.067-.039.1-.057l.1-.054.1-.05.105-.051.105-.046.106-.045.109-.042.108-.039.109-.037.11-.035.111-.033.112-.029.113-.027.112-.025.114-.022.113-.019.114-.017.114-.014q.059-.007.117-.012c.037,0,.075-.007.114-.009l.116-.006c.038,0,.076,0,.115,0l.116,0,.114,0c.039,0,.078,0,.117,0s.077,0,.114.006.078.006.116.009l.115.012.114.014.114.017.115.019.112.022.114.025.111.027.112.029.111.033.11.035.111.037.106.039.109.042c.036.014.072.029.106.045l.1.046.105.051.1.05.1.054c.034.018.067.037.1.057l.1.058.1.062c.033.02.066.041.1.062l.1.066.094.067.093.068c.029.025.06.049.091.072l.087.074c.03.024.059.049.089.075l.085.078c.029.026.056.052.084.079l.083.082.079.083.078.083.077.088.074.089.074.089.07.091.067.093.066.095c.022.032.044.064.064.1s.043.064.062.1.041.065.06.1l.058.1.055.1.052.1c.018.035.035.07.05.1s.033.07.049.105.031.071.046.107.029.07.043.106.028.073.041.109l.039.108c.011.036.023.073.034.111s.024.073.035.11.021.073.031.111l.027.112.028.113.023.112.019.114.02.115.015.114c0,.038.01.076.014.115s.007.076.009.114l.008.116q0,.058.006.114C35.952,28.505,35.953,28.544,35.953,28.583Z" stroke="#010101" stroke-width="2.558"/>
    <path stroke-linecap="round" transform="translate(0 0)" fill="none" stroke-linejoin="round" d="M52.911,28.523v.114c0,.039,0,.078,0,.116s0,.076-.006.115l-.007.116c0,.037-.006.075-.01.114s-.008.077-.014.115l-.015.114-.019.114-.02.115-.023.112-.027.112-.027.113c-.011.037-.021.074-.031.11s-.024.075-.035.111-.024.074-.035.11l-.039.109c-.013.036-.026.072-.041.108s-.028.072-.042.107-.031.072-.047.107-.031.069-.048.1-.033.07-.051.105-.034.068-.052.1l-.054.1-.058.1q-.03.051-.06.1l-.062.1-.064.1c-.022.031-.044.062-.066.1l-.068.093c-.023.031-.047.061-.07.091l-.074.089-.073.089-.078.087c-.026.029-.051.057-.077.084l-.082.083q-.039.041-.081.081c-.027.028-.055.054-.083.08l-.086.077c-.029.026-.059.052-.089.076s-.058.049-.089.074l-.089.071c-.031.024-.062.046-.093.068l-.093.068-.1.066c-.031.021-.063.041-.1.062l-.1.062-.1.058c-.033.02-.067.038-.1.056l-.1.055-.1.05-.105.05-.1.047-.107.044c-.036.015-.072.028-.108.041s-.071.028-.109.041l-.108.037-.111.035-.11.033-.113.029-.11.027-.115.025c-.037.008-.075.015-.112.021l-.114.02-.115.017-.114.014c-.039.005-.077.009-.114.011l-.117.01c-.037,0-.075.005-.114.006s-.078,0-.116,0l-.115,0-.116,0c-.039,0-.077,0-.114,0s-.078,0-.117-.006l-.114-.01c-.039,0-.077-.006-.116-.011l-.115-.014L47,33.626l-.112-.02c-.039-.006-.077-.013-.115-.021l-.112-.025-.112-.027-.113-.029-.11-.033-.111-.035L46.1,33.4l-.109-.041c-.036-.013-.072-.026-.108-.041l-.107-.044-.105-.047-.1-.05-.1-.05-.1-.055c-.033-.018-.067-.036-.1-.056l-.1-.058-.1-.062-.1-.062-.095-.066-.095-.068c-.031-.022-.061-.044-.091-.068s-.062-.047-.091-.071l-.089-.074c-.03-.024-.059-.05-.088-.076s-.058-.051-.085-.077-.057-.052-.085-.08l-.082-.081c-.027-.027-.053-.055-.079-.083s-.054-.055-.08-.084l-.075-.087-.076-.089c-.024-.03-.048-.059-.071-.089s-.048-.06-.07-.091l-.07-.093c-.022-.033-.044-.064-.066-.1l-.064-.1-.062-.1-.06-.1c-.019-.033-.038-.067-.056-.1l-.056-.1-.053-.1-.05-.105c-.017-.035-.033-.07-.048-.1s-.031-.071-.045-.107-.03-.07-.045-.107-.026-.072-.04-.108-.026-.073-.037-.109-.025-.073-.037-.11-.023-.073-.033-.111-.022-.073-.031-.11-.02-.075-.029-.113-.017-.074-.025-.112-.017-.075-.023-.112-.015-.076-.022-.115-.012-.075-.017-.114-.012-.076-.016-.114-.009-.076-.013-.115l-.012-.114-.008-.116,0-.115,0-.116v-.114l0-.117,0-.116.008-.114.012-.115c0-.038.008-.077.013-.116s.009-.076.016-.114.011-.075.017-.113.014-.077.022-.114.014-.075.023-.112.016-.077.025-.115.019-.073.029-.11.019-.075.031-.113.021-.073.033-.11.024-.072.037-.109.024-.074.037-.11.027-.072.04-.107.029-.072.045-.108.029-.07.045-.105.031-.07.048-.105l.05-.1c.017-.035.035-.069.053-.1s.037-.067.056-.1l.056-.1.06-.1.062-.1.064-.095.066-.1.07-.093c.022-.031.045-.061.07-.091s.047-.062.071-.091.05-.059.076-.088.05-.058.075-.087l.078-.085.081-.081c.028-.029.055-.056.082-.082l.085-.079c.027-.027.056-.053.085-.078s.058-.051.088-.075L44.6,24.6c.029-.025.06-.049.091-.072l.091-.069c.031-.023.063-.044.095-.066l.095-.066c.032-.022.064-.043.1-.062s.065-.042.1-.062.065-.039.1-.058l.1-.057.1-.054.1-.05c.035-.018.069-.035.1-.051l.105-.046.107-.045.108-.043.109-.038.108-.037c.038-.013.074-.025.111-.035l.11-.033.113-.029c.037-.01.074-.019.112-.027s.075-.018.112-.025l.115-.022c.037-.007.075-.014.112-.019l.114-.017.115-.016.116-.012.114-.007.117-.008.114,0h.231l.116,0,.114.008q.059,0,.117.009l.114.012c.039,0,.077.008.114.014l.115.017c.038.005.077.012.114.019l.112.022c.038.007.076.016.115.025s.074.017.11.027l.113.029c.037.011.074.021.11.033s.074.022.111.035l.11.037.107.038.108.043c.036.014.072.029.107.045l.1.046.105.051.1.05.1.054c.033.018.067.037.1.057l.1.058.1.062a1.067,1.067,0,0,1,.1.062l.1.066.093.066.093.069.091.072c.03.024.059.049.087.074s.06.049.089.075l.086.078c.028.026.056.052.083.079s.056.053.083.082l.08.081.077.085.078.087c.024.029.049.058.073.088s.05.06.074.091.047.06.07.091l.068.093.066.1c.022.032.043.064.064.1s.042.063.062.1.04.065.06.1l.058.1.054.1c.018.034.036.068.052.1s.035.07.051.1.033.07.048.105l.047.105.042.108c.015.035.028.071.041.107l.039.11.035.109c.011.037.023.074.035.11l.031.113.027.11.027.115.023.112.02.114.019.113.015.114c.006.039.01.078.014.116s.007.076.01.115l.007.116c0,.037.005.076.006.114S52.911,28.484,52.911,28.523Z" stroke="#010101" stroke-width="2.558"/>
    <path stroke-linecap="round" transform="translate(0 0)" fill="#010101" stroke-linejoin="round" d="M1.061,21.476H59.076v1.676H1.061Z" stroke="#010101" stroke-width="0.969"/>
    <path stroke-linecap="round" transform="translate(0 0)" fill="#010101" stroke-linejoin="round" d="M1.2,33.742H59.21V35.42H1.2Z" stroke="#010101" stroke-width="0.969"/>
  </g>
</svg>