<svg width="60" height="60" xmlns="http://www.w3.org/2000/svg" viewBox="0 0 60 60">
  <rect fill="#ffcd34" height="60" width="60"/>
  <g>
    <path stroke-linecap="round" transform="translate(0 0)" fill="none" stroke-linejoin="round" d="M18.944,28.518v.114l0,.116q0,.058-.006.117c0,.037,0,.075-.008.114s0,.077-.009.114-.009.078-.014.117-.009.075-.015.114-.011.075-.018.113-.013.076-.021.114l-.023.112c-.008.038-.017.075-.026.113s-.018.075-.029.112L18.74,30c-.01.036-.021.072-.033.11s-.024.072-.036.109-.024.073-.037.11-.029.07-.043.107-.027.071-.043.106-.029.072-.044.107-.033.07-.049.105l-.05.1-.054.1c-.017.034-.035.067-.055.1s-.037.067-.058.1-.038.066-.058.1l-.062.1c-.021.033-.042.065-.064.1s-.044.064-.066.095l-.069.093-.07.091c-.024.031-.047.062-.072.091s-.05.059-.076.088-.049.058-.075.087l-.08.085c-.025.027-.052.054-.079.082s-.054.055-.082.081-.056.054-.085.079l-.085.078-.087.076-.089.073c-.03.025-.061.049-.092.072l-.091.07c-.032.022-.064.043-.1.066l-.095.066-.1.061-.1.063-.1.058-.1.056-.1.054-.1.051-.1.05-.107.046c-.035.016-.07.031-.106.045l-.107.043-.108.038c-.037.013-.073.026-.109.037s-.074.025-.111.035l-.11.033-.112.029a1.157,1.157,0,0,1-.113.027l-.112.026-.115.021c-.037.008-.075.014-.112.019l-.114.018-.115.013c-.039,0-.077.009-.116.012l-.114.01-.117.007-.114,0h-.231l-.116,0-.114-.007-.117-.01c-.038,0-.077-.007-.114-.012l-.114-.013c-.039-.006-.077-.011-.115-.018s-.077-.011-.114-.019l-.113-.021-.114-.026a1.138,1.138,0,0,1-.112-.027l-.111-.029c-.037-.01-.074-.021-.11-.033s-.075-.022-.111-.035-.074-.024-.11-.037l-.109-.038-.106-.043c-.037-.014-.072-.029-.107-.045l-.107-.046-.1-.05-.105-.051-.1-.054c-.035-.018-.068-.037-.1-.056l-.1-.058-.1-.063c-.034-.02-.066-.041-.1-.061l-.1-.066-.093-.066-.093-.07-.091-.072-.089-.073-.088-.076c-.028-.025-.056-.05-.085-.078s-.056-.052-.083-.079-.056-.053-.084-.081l-.079-.082L10.041,32l-.077-.087-.074-.088c-.024-.029-.049-.06-.073-.091s-.047-.06-.07-.091l-.068-.093c-.023-.031-.045-.062-.066-.095s-.043-.064-.064-.1-.043-.064-.062-.1-.041-.065-.06-.1l-.058-.1-.054-.1c-.019-.034-.036-.068-.053-.1s-.035-.07-.05-.1-.033-.07-.049-.105-.031-.07-.046-.107-.029-.07-.043-.106-.028-.072-.041-.107-.025-.074-.038-.11-.025-.073-.037-.109-.021-.074-.033-.11l-.031-.113-.027-.112-.027-.113-.024-.112q-.009-.057-.021-.114c-.006-.038-.012-.075-.017-.113l-.016-.114c-.005-.039-.01-.078-.013-.117s-.008-.075-.01-.114l-.008-.114-.006-.117c0-.038,0-.077,0-.116v-.114c0-.039,0-.078,0-.116s0-.078.006-.115l.008-.116c0-.038.006-.076.01-.114s.008-.077.013-.115l.016-.114c0-.039.011-.077.017-.115s.015-.077.021-.114l.024-.112.027-.113.027-.112c.01-.038.021-.074.031-.111s.023-.075.033-.112.024-.073.037-.109l.038-.108c.013-.036.027-.073.041-.109s.029-.071.043-.106.031-.072.046-.107.032-.07.049-.105.032-.069.05-.1.034-.068.053-.1l.054-.1.058-.1c.019-.033.039-.066.06-.1s.04-.065.062-.1.042-.065.064-.1.043-.063.066-.095l.068-.093c.023-.031.046-.062.07-.091l.073-.09.074-.089.077-.087.078-.083c.026-.029.052-.056.079-.084l.084-.081c.027-.027.055-.054.083-.079l.085-.078.088-.076.089-.073.091-.072.093-.068.093-.068.1-.066.1-.062.1-.062.1-.058c.033-.019.066-.038.1-.056l.1-.054.105-.051.1-.05c.037-.015.072-.031.107-.047s.07-.03.107-.044l.106-.043.109-.039.11-.036.111-.035c.036-.012.073-.023.11-.033l.111-.029.112-.027.114-.026.113-.021.114-.019c.038-.007.076-.013.115-.018l.114-.013c.039-.006.077-.009.114-.012l.117-.01.114,0c.039,0,.078,0,.116,0s.076,0,.115,0,.077,0,.116,0,.077,0,.114,0l.117,0,.114.01c.039,0,.077.006.116.012l.115.013.114.018.112.019.115.021.112.026.113.027.112.029.11.033.111.035.109.036.108.039.107.043.106.044.107.047.1.05.1.051.1.054.1.056.1.058.1.062.1.062.095.066c.033.022.064.045.1.068s.062.045.091.068l.092.072.089.073.087.076.085.078c.029.025.057.052.085.079l.082.081c.027.028.054.055.079.084s.054.055.08.083l.075.087.076.089c.025.03.048.06.072.09s.048.06.07.091l.069.093.066.095c.022.032.043.064.064.1l.062.1c.02.032.039.065.058.1s.04.068.058.1.039.067.057.1.034.069.052.1l.05.1c.016.035.032.07.049.105s.03.071.044.107.03.07.043.106l.043.109c.013.036.025.072.037.108s.025.073.036.111.023.073.033.11.021.073.031.111.02.075.029.112.018.075.026.113l.023.112c.008.037.015.076.021.114s.012.076.018.115.011.075.015.114.01.076.014.115.007.076.009.114.007.077.008.116,0,.077.006.115Z" stroke="#010101" stroke-width="2.559"/>
    <path stroke-linecap="round" transform="translate(0 0)" fill="none" stroke-linejoin="round" d="M36.024,28.518v.114c0,.039,0,.078,0,.116s0,.078-.006.117l-.008.114q0,.059-.009.114c0,.039-.009.078-.014.117l-.015.114-.02.113-.019.114-.023.112-.028.113-.027.112L35.822,30c-.011.036-.023.072-.035.11l-.034.109-.039.11c-.013.035-.027.07-.041.107s-.028.071-.043.106-.031.072-.046.107-.032.07-.049.105-.032.069-.05.1-.034.069-.052.1l-.055.1-.058.1c-.019.033-.039.066-.06.1s-.04.065-.062.1-.042.065-.064.1-.044.064-.066.095-.044.062-.068.093-.046.062-.069.091-.049.062-.074.091l-.074.088L34.706,32l-.078.085-.081.082q-.039.042-.081.081c-.028.027-.055.054-.084.079l-.085.078-.089.076c-.029.024-.058.049-.089.073l-.09.072-.093.07-.093.066-.1.066-.1.061-.1.063-.1.058-.1.056-.1.054-.1.051-.105.05-.1.046c-.035.016-.07.031-.106.045l-.109.043c-.035.013-.071.026-.108.038s-.073.026-.109.037-.073.025-.11.035l-.111.033-.112.029a1.056,1.056,0,0,1-.111.027l-.114.026-.113.021c-.038.008-.077.014-.114.019s-.076.012-.114.018l-.115.013-.114.012-.116.01-.115.007-.116,0H30.8l-.114,0-.116-.007-.115-.01-.116-.012-.114-.013-.115-.018c-.037-.005-.075-.011-.112-.019l-.114-.021-.113-.026a1.138,1.138,0,0,1-.112-.027l-.113-.029-.11-.033c-.036-.01-.073-.022-.111-.035s-.072-.024-.108-.037l-.109-.038L29,33.313l-.107-.045-.1-.046-.1-.05-.1-.051-.1-.054-.1-.056-.1-.058-.1-.063-.1-.061-.095-.066-.1-.066-.091-.07c-.031-.023-.062-.047-.091-.072l-.089-.073-.088-.076c-.029-.025-.058-.05-.085-.078s-.057-.052-.085-.079-.055-.053-.082-.081l-.079-.082L27.121,32c-.025-.029-.051-.058-.075-.087s-.051-.058-.076-.088-.048-.06-.071-.091-.048-.06-.07-.091l-.07-.093c-.022-.031-.044-.062-.066-.095s-.043-.064-.064-.1l-.062-.1c-.019-.032-.039-.065-.06-.1l-.056-.1c-.02-.034-.038-.067-.056-.1s-.036-.068-.053-.1l-.05-.1c-.017-.035-.033-.07-.049-.105s-.03-.07-.044-.107-.031-.07-.045-.106-.026-.072-.04-.107-.026-.074-.037-.11-.026-.073-.037-.109-.023-.074-.033-.11-.022-.075-.031-.113-.02-.075-.029-.112-.018-.075-.025-.113-.017-.075-.024-.112l-.021-.114c-.006-.038-.012-.075-.017-.113s-.012-.077-.016-.114-.01-.078-.013-.117l-.012-.114-.008-.114,0-.117,0-.116v-.114l0-.116,0-.115.008-.116.012-.114c0-.039.008-.077.013-.115s.009-.077.016-.114.011-.077.017-.115.014-.077.021-.114.015-.075.024-.112.016-.075.025-.113.019-.075.029-.112.019-.074.031-.111.021-.075.033-.112.024-.073.037-.109.024-.072.037-.108.027-.073.04-.109.029-.071.045-.106.029-.072.044-.107.032-.07.049-.105l.05-.1c.017-.034.034-.068.053-.1s.036-.067.056-.1l.056-.1c.021-.033.041-.066.06-.1l.062-.1c.021-.033.042-.065.064-.1l.066-.095.07-.093c.022-.031.045-.062.07-.091l.071-.09.076-.089c.024-.029.05-.058.075-.087l.078-.083c.027-.029.054-.056.081-.084l.082-.081c.028-.027.057-.054.085-.079s.056-.052.085-.078l.088-.076.089-.073c.029-.025.06-.049.091-.072s.06-.046.091-.068l.1-.068.095-.066.1-.062.1-.062.1-.058.1-.056.1-.054.1-.051.1-.05.1-.047L29,23.837l.108-.043.109-.039c.036-.012.072-.025.108-.036l.111-.035.11-.033.113-.029.112-.027.113-.026L30,23.548l.112-.019.115-.018.114-.013c.039-.006.078-.009.116-.012l.115-.01.116,0c.037,0,.076,0,.114,0s.078,0,.117,0,.076,0,.114,0,.077,0,.116,0l.115,0,.116.01c.037,0,.076.006.114.012l.115.013c.038,0,.077.011.114.018l.114.019.113.021.114.026.111.027.112.029q.055.015.111.033l.11.035.11.036.107.039.109.043.106.044.1.047.105.05.1.051.1.054.1.056.1.058.1.062.1.062.1.066.093.068.093.068c.03.025.06.048.092.072l.087.073.089.076.085.078c.029.025.056.052.084.079l.083.081.079.084.078.083.077.087.074.089.074.09c.023.029.046.06.069.091s.046.062.068.093l.066.095c.022.032.044.064.064.1s.043.064.062.1.041.065.06.1l.058.1.055.1.052.1c.018.035.035.069.05.1s.033.07.049.105.031.071.046.107.029.07.043.106.028.073.041.109l.039.108c.011.036.023.073.034.111s.024.073.035.11.021.073.031.111l.027.112.028.113.023.112.019.114.02.115.015.114c.005.038.01.076.014.115s.007.076.009.114l.008.116c0,.039.005.077.006.115S36.024,28.479,36.024,28.518Z" stroke="#010101" stroke-width="2.559"/>
    <path stroke-linecap="round" transform="translate(0 0)" fill="none" stroke-linejoin="round" d="M52.984,28.458v.114c0,.039,0,.078,0,.116s0,.076-.006.115l-.008.116c0,.037-.006.076-.009.114s-.009.077-.014.115l-.016.114-.019.114-.019.115-.024.112-.027.113-.027.112c-.01.038-.021.074-.031.11s-.023.075-.035.111-.023.074-.035.11l-.038.109c-.013.036-.027.072-.041.109s-.029.071-.043.106-.031.072-.046.107-.032.07-.049.1-.032.07-.05.105l-.052.1-.055.1-.058.1q-.028.051-.06.1c-.019.033-.04.065-.062.1s-.042.065-.064.1l-.066.095c-.022.031-.044.062-.068.093l-.069.091-.074.089-.074.09c-.026.028-.051.057-.077.087l-.078.083-.081.083c-.026.028-.053.055-.082.082s-.055.053-.083.079l-.085.078-.089.075c-.029.025-.059.05-.09.074s-.059.049-.089.072l-.093.068L50.8,32.7l-.1.065c-.031.021-.063.042-.1.062l-.1.063-.1.058-.1.056-.1.054-.105.05-.1.051-.1.046c-.035.016-.07.031-.107.045l-.108.041c-.035.014-.071.027-.109.04l-.108.037-.111.035c-.036.012-.073.023-.11.033l-.113.029-.11.027c-.039.009-.077.018-.114.025l-.113.022-.114.019c-.038.007-.076.012-.115.018l-.114.013-.114.012-.117.009q-.056,0-.114.006c-.039,0-.077,0-.116,0l-.115,0-.116,0c-.039,0-.077,0-.114,0s-.078,0-.116-.006-.077-.005-.115-.009-.077-.007-.116-.012l-.114-.013-.115-.018-.112-.019-.115-.022c-.037-.007-.075-.016-.112-.025l-.112-.027-.113-.029-.11-.033-.111-.035-.108-.037-.109-.04-.108-.041-.107-.045-.1-.046-.1-.051-.1-.05-.1-.054-.1-.056-.1-.058-.1-.063-.1-.062-.095-.065c-.033-.022-.064-.045-.095-.068s-.062-.045-.091-.068-.062-.047-.091-.072l-.09-.074q-.044-.036-.087-.075c-.03-.026-.058-.052-.085-.078l-.085-.079-.082-.082c-.027-.027-.053-.055-.079-.083s-.054-.055-.08-.083l-.075-.087-.076-.09-.072-.089c-.024-.03-.047-.06-.069-.091l-.07-.093-.066-.095c-.022-.032-.043-.064-.064-.1l-.062-.1-.06-.1c-.02-.033-.038-.067-.056-.1s-.038-.068-.057-.1l-.052-.1-.05-.105c-.017-.034-.033-.069-.049-.1s-.03-.071-.044-.107-.031-.07-.045-.106-.026-.073-.041-.109-.025-.072-.036-.109-.026-.073-.037-.11-.023-.073-.033-.111-.022-.072-.031-.11-.02-.075-.029-.112-.018-.075-.026-.113-.016-.075-.023-.112-.015-.076-.021-.115-.012-.075-.018-.114-.011-.076-.015-.114-.01-.076-.014-.115l-.011-.114-.008-.116,0-.115,0-.116v-.114l0-.117,0-.116.008-.114L42.79,28c0-.038.009-.077.014-.116s.009-.076.015-.114.011-.075.018-.113.013-.077.021-.114.014-.075.023-.112.017-.077.026-.115.018-.073.029-.11.019-.075.031-.113.021-.073.033-.11.024-.072.037-.109.023-.074.036-.11.028-.072.041-.107.029-.072.045-.108.029-.07.044-.105.032-.07.049-.105l.05-.1c.017-.035.034-.07.052-.1s.037-.067.057-.1.036-.067.056-.1.041-.066.06-.1.041-.066.062-.1l.064-.095c.022-.033.044-.064.066-.095l.07-.093c.022-.031.045-.062.069-.091s.048-.062.072-.092l.076-.087q.036-.045.075-.087L44.159,25l.081-.082c.027-.028.054-.055.082-.081s.056-.054.085-.08a1.036,1.036,0,0,1,.085-.077l.087-.076.09-.073c.029-.025.06-.049.091-.072l.091-.07.095-.066.095-.066c.032-.021.064-.042.1-.062l.1-.062.1-.058.1-.056.1-.054.1-.051c.034-.018.069-.035.1-.05l.1-.047.107-.044.108-.043.109-.039.108-.036c.038-.013.074-.025.111-.035l.11-.033c.038-.011.075-.02.113-.029a1.074,1.074,0,0,1,.112-.027l.112-.026c.038-.007.076-.015.115-.021s.075-.014.112-.019l.115-.018.114-.015.116-.012.115-.008.116-.007.114,0h.231l.116,0,.114.007.117.01c.037,0,.075.006.114.012s.077.008.114.013.077.011.115.018.077.011.114.019.075.014.113.021l.114.026a1.038,1.038,0,0,1,.11.027c.038.009.075.018.113.029s.074.021.11.033.075.022.111.035l.11.036.107.039.108.043c.037.014.072.029.107.044l.1.047.1.05.105.051.1.054.1.056.1.058.1.062c.034.02.066.041.1.062l.1.066.093.066.093.07.091.072.088.073.089.076.085.077.083.08q.044.039.084.081c.026.027.052.055.079.082l.078.085c.026.028.051.057.077.087l.074.087.074.092c.023.029.046.06.069.091s.046.062.068.093.044.062.066.095.043.064.064.1.043.063.062.1.041.066.06.1l.058.1.055.1c.018.033.035.068.052.1s.035.069.05.1.033.07.049.105l.046.105.043.108c.014.035.028.071.041.107s.025.073.038.11l.035.109c.012.037.024.074.035.11l.031.113.027.11.027.115.024.112.019.114.019.113.016.114c.005.039.01.078.014.116s.007.076.009.115l.008.116c0,.037.005.076.006.114S52.984,28.419,52.984,28.458Z" stroke="#010101" stroke-width="2.559"/>
    <path stroke-linecap="round" transform="translate(0 0)" fill="#010101" stroke-linejoin="round" d="M1.129,21.41h58.02v1.677H1.129Z" stroke="#010101" stroke-width="0.969"/>
    <path stroke-linecap="round" transform="translate(0 0)" fill="#010101" stroke-linejoin="round" d="M1.265,33.677H59.283v1.679H1.265Z" stroke="#010101" stroke-width="0.969"/>
    <g>
      <path stroke-linecap="round" transform="translate(0 0)" fill="#fff" stroke-linejoin="round" d="M40.476,18.305,33.543,28.341,31.1,26.107Z" stroke="#fff" stroke-width="0.969"/>
      <path stroke-linecap="round" transform="translate(0 0)" fill="#fff" stroke-linejoin="round" d="M41.874,36.974l-10.5-6.216,2.06-2.593Z" stroke="#fff" stroke-width="0.969"/>
      <path stroke-linecap="round" transform="translate(0 0)" fill="#fff" stroke-linejoin="round" d="M25.873,41.58,28.5,29.669l3.107,1.146Z" stroke="#fff" stroke-width="0.969"/>
      <path stroke-linecap="round" transform="translate(0 0)" fill="#fff" stroke-linejoin="round" d="M17.473,26.882l12.2-.178-.4,3.287Z" stroke="#fff" stroke-width="0.969"/>
      <path stroke-linecap="round" transform="translate(0 0)" fill="#fff" stroke-linejoin="round" d="M26.135,15.58l5.917,10.666-3.087,1.2Z" stroke="#fff" stroke-width="0.969"/>
      <path stroke-linecap="round" transform="translate(0 0)" fill="#fff" stroke-linejoin="round" d="M31.981,25.878l1.579,2.688L31.492,30.9l-2.853-1.242.3-3.1Z" stroke="#fff" stroke-width="0.969"/>
    </g>
  </g>
</svg>