<svg width="60" height="60" xmlns="http://www.w3.org/2000/svg" viewBox="0 0 60 60">
  <rect fill="#999" x="15" width="45" height="60"/>
  <g>
    <rect fill="#999" height="60" width="60"/>
    <polygon fill="#666766" points="31.281 30.545 31.281 0 0 0 31.281 30.545" fill-rule="evenodd"/>
    <polygon fill="#666766" points="60 60 60 30 29.277 30 60 60" fill-rule="evenodd"/>
    <rect fill="#666766" x="2.768" width="57.232" height="32.403"/>
    <rect fill="#cccccb" x="2.768" width="54.496" height="54.702" y="2.649"/>
  </g>
  <g>
    <g>
      <path fill="#333" d="M47,39.286a.089.089,0,0,1,0,.023v.024a.185.185,0,0,1,0,.023.193.193,0,0,1,0,.024l0,.023,0,.023,0,.024,0,.023,0,.023-.005.024,0,.022-.006.023-.006.024-.008.022-.007.022-.007.022-.009.022-.009.022-.01.021-.009.022-.01.021-.011.021-.011.021-.011.021-.013.019-.012.02-.013.02-.014.019-.014.019-.014.02-.015.017-.015.018L46.732,40l-.016.017-.016.016-.017.017-.017.016-.017.016-.019.015-.018.016-.019.013-.018.015-.018.014-.02.013-.02.012-.021.013-.019.012-.021.011-.021.011-.021.011-.021.01-.022.01-.022.008-.021.009-.022.009-.024.007-.022.007-.022.007-.023.006-.022.006-.024.005-.023,0-.023,0-.024,0-.023,0-.024,0h-.046l-.024,0h-.048l-.023,0h-.047l-.023,0-.023,0-.024,0-.023,0-.023,0-.022-.005-.024-.006-.023-.006-.022-.007-.022-.007-.023-.007-.022-.009-.022-.009-.022-.008-.022-.01-.021-.01-.021-.011-.021-.011L45.44,40.2l-.019-.012-.021-.013-.02-.012-.018-.013-.02-.014-.018-.015-.019-.013-.018-.016-.019-.015-.017-.016-.017-.016-.016-.017-.017-.016L45.185,40l-.016-.019-.015-.018-.015-.017-.015-.02-.013-.019-.014-.019-.012-.02-.013-.02-.013-.019-.011-.021-.011-.021-.011-.021-.01-.021-.01-.022L45,39.7l-.009-.022-.009-.022-.007-.022-.007-.022-.008-.022-.006-.024-.006-.023-.005-.022,0-.024,0-.023,0-.023,0-.024,0-.023,0-.023v-.071a.089.089,0,0,1,0-.023v-.071l0-.024,0-.023,0-.023,0-.024,0-.023,0-.023.005-.022.006-.024.006-.022.008-.023.007-.022.007-.023.009-.022L45,38.9l.009-.021.01-.022.01-.021.011-.021.011-.02.011-.02.013-.021.013-.02.012-.019.014-.02.013-.019.015-.018.015-.018.015-.019.016-.017.016-.017.017-.017.016-.018.017-.016.017-.016.019-.014.018-.015.019-.015.018-.015.02-.013.018-.014.02-.012.021-.012.019-.013.021-.011.021-.011.021-.011.021-.01.022-.009.022-.009.022-.009.022-.008.023-.008.022-.007.022-.006.023-.006.024-.005.022,0,.023-.005.023,0,.024,0,.023,0,.023,0,.024,0h.141l.023,0,.024,0,.023,0,.024,0,.023,0,.023.005.024,0,.022.005.023.006.022.006.022.007.024.008.022.008.021.009.022.009.022.009.021.01.021.011.021.011.021.011.019.013.021.012.02.012.02.014.018.013.018.015.019.015.018.015.019.014.017.016.017.016.017.018.016.017.016.017.016.017.015.019.015.018.014.018.014.019.014.02.013.019.012.02.013.021.011.02.011.02.011.021.01.021.009.022.01.021.009.022.009.022.007.023.007.022.008.023.006.022.006.024,0,.022.005.023,0,.023,0,.024,0,.023,0,.023,0,.024a.185.185,0,0,1,0,.023.193.193,0,0,1,0,.024Z"/>
      <path fill="#333" d="M51.284,37.606V37.7l0,.024,0,.023,0,.023,0,.024,0,.023-.005.022,0,.024-.006.023-.007.022-.006.022-.007.024-.009.022L51.213,38l-.01.021-.008.022-.01.021-.011.022-.01.021-.011.021-.013.019-.012.021-.012.02-.014.02-.013.019-.014.019-.014.018-.015.019-.015.018-.016.017L51,38.333l-.016.018-.017.016-.017.017-.018.015-.017.016-.018.014-.019.015-.019.015-.019.013-.019.014-.02.012-.02.012-.021.013-.021.011-.02.011-.021.011-.021.01-.022.01-.021.008-.022.009-.023.007-.022.009-.023.006-.022.007-.023.006-.023.005-.023,0-.023.005-.024,0-.023,0-.023,0-.024,0-.023,0h-.141l-.024,0-.023,0-.024,0-.023,0-.023,0-.022-.005-.024,0-.023-.005-.022-.006-.024-.007-.022-.006L49.9,38.6l-.022-.007-.022-.009-.022-.008-.021-.01-.022-.01-.021-.011-.021-.011-.02-.011L49.7,38.51l-.019-.012-.02-.012-.02-.014-.019-.013-.019-.015-.018-.015-.019-.014-.017-.016-.018-.015-.017-.017-.016-.016-.018-.018-.014-.017-.016-.017-.016-.018-.015-.019-.014-.018-.014-.019-.014-.019-.012-.02-.012-.02a.107.107,0,0,1-.013-.021l-.012-.019L49.32,38.1l-.011-.021-.01-.022-.01-.021-.01-.022L49.271,38l-.009-.022-.007-.022-.008-.024-.007-.022-.006-.022-.005-.023-.006-.024,0-.022,0-.023,0-.024,0-.023,0-.023,0-.024c0-.008,0-.016,0-.023a.229.229,0,0,0,0-.025v-.07a.2.2,0,0,0,0-.023c0-.008,0-.016,0-.023l0-.024,0-.023,0-.023,0-.024,0-.023,0-.023.006-.024.005-.022.006-.023.007-.022.008-.023.007-.022.009-.022.008-.022.01-.022.01-.021.01-.021.011-.021.011-.021.012-.021.013-.019.012-.02.012-.02.014-.019.014-.019.014-.019.015-.019.016-.017.016-.018.014-.018.018-.017.016-.016.017-.016.018-.016.017-.016.019-.015.018-.014.019-.014.019-.013.02-.014.02-.012.019-.014.021-.011.02-.012.021-.011.021-.01.022-.01.021-.01.022-.008.022-.009.022-.008.022-.008.022-.007.024-.006.022-.006.023-.007.024,0,.022,0,.023-.005.023,0,.024,0,.023,0h.188l.024,0,.023,0,.023,0,.024.005.023,0,.023,0,.023.007.023.006.022.006.023.007.022.008.023.008.022.009.021.008.022.01.021.01.021.01.02.011.021.012.021.011.02.014.02.012.019.014.019.013.019.014.019.014.018.015.017.016.018.016.017.016.017.016L51,36.9l.016.018.016.018.015.017.015.019.014.019.014.019.013.019.014.02.012.02.012.019.013.021.011.021.01.021.011.021.01.021.008.022.01.022.007.022.009.022.007.023.006.022.007.023.006.022,0,.024.005.023,0,.023,0,.024,0,.023,0,.023,0,.024v.07Z"/>
      <path fill="#333" d="M53.215,40.041v.071l0,.024,0,.023,0,.023,0,.024,0,.023,0,.023-.005.024-.006.022-.005.023-.007.022-.007.024-.007.022-.007.022-.009.022-.008.022-.01.021-.01.022-.01.021-.011.021-.011.021-.012.02-.013.02-.012.02-.012.02-.014.019-.015.019-.014.018-.014.019-.016.018-.015.017-.017.018-.016.017L52.9,40.8l-.017.016-.018.016-.018.015-.018.014-.018.015-.019.015-.02.014-.019.013-.02.012-.02.013-.02.012-.02.011-.021.011-.021.011-.022.01-.021.01-.022.008-.022.009-.022.009-.022.007-.023.007-.023.006-.022.007-.023.005a.1.1,0,0,1-.024,0l-.022.005-.023,0-.024,0-.023,0-.023,0-.024,0H52.22l-.024,0H52.15l-.024,0H52.1l-.023,0-.024,0-.024,0-.023,0-.023,0-.023-.005a.1.1,0,0,1-.024,0l-.023-.005-.022-.007-.022-.006-.024-.007-.022-.007-.022-.009-.022-.009-.021-.008L51.739,41l-.021-.01L51.7,40.98l-.021-.011-.021-.011-.02-.012-.02-.013-.02-.012-.019-.013-.019-.014-.02-.015-.018-.015L51.5,40.85l-.018-.015-.017-.016-.017-.016-.017-.017-.016-.017-.016-.018-.016-.017-.015-.018-.015-.019-.014-.018-.014-.019-.014-.019-.013-.02-.012-.02-.013-.02-.012-.02-.011-.021-.01-.021L51.23,40.5l-.01-.022-.008-.021-.01-.022-.007-.022-.009-.022-.007-.022-.007-.024-.006-.022L51.16,40.3l0-.022-.005-.024,0-.023,0-.023,0-.024,0-.023v-.023l0-.024v-.118l0-.023v-.024l0-.023,0-.023,0-.024,0-.023.005-.023,0-.022.006-.024.006-.022.007-.023.007-.022L51.2,39.7l.007-.022.01-.022.008-.021.01-.022.011-.021.01-.021.011-.021.012-.02.013-.02.012-.02.013-.019.014-.02.014-.018.014-.019.015-.018.015-.019.016-.017.016-.018.016-.016.017-.018.017-.016.017-.016.018-.014.018-.016.018-.014.02-.015.019-.013.019-.014.02-.012.02-.012.02-.013.021-.011.021-.011.021-.011.021-.01.022-.009.021-.009.022-.009.022-.008.022-.008.024-.007.022-.006.022-.006.023-.006.024-.005.023,0,.023,0,.023,0,.024,0,.024,0h.188l.023,0,.023,0,.024,0,.023,0,.022,0,.024.005.023.006.022.006.023.006.023.007.022.008.022.008.022.009.022.009.021.009.022.01.021.011.021.011.02.011.02.013.02.012.02.012.019.014.02.013.019.015.018.015.018.015.018.014.018.016.017.016.016.018.016.016.017.018.015.017.016.019.015.018.013.019.015.018.014.02.012.019.012.02.013.02.012.02.011.021.011.021.01.021.01.022.01.021.008.022.009.022.007.023.007.022.008.023.006.022.005.024.006.022.005.023,0,.023,0,.024,0,.023,0,.023,0,.024,0,.023v.047Z"/>
      <path fill="#333" d="M54.772,42.39v2.179H35.487V42.39Z"/>
      <path fill="#333" d="M54.709,47.584v2.18H29v-2.18Z"/>
      <path fill="#333" d="M54.673,51.651v2.181H16.1V51.651Z"/>
      <path fill="#333" d="M29.868,45.29v.094l0,.024,0,.023,0,.024,0,.023,0,.023-.005.024,0,.022-.006.023-.007.022-.007.024-.007.022-.008.022-.008.022-.009.022-.01.021-.01.022-.009.021-.011.021-.012.021-.011.019-.012.021-.013.02-.013.02-.013.019-.015.019-.013.018-.015.019-.016.018L29.6,46l-.016.018-.017.017-.016.017-.017.016-.017.016L29.5,46.1l-.018.014-.019.015-.018.015-.02.013-.018.014-.021.012-.02.013-.02.012-.021.011-.02.011-.021.011-.022.01-.021.01-.022.008-.023.009-.022.009-.022.007-.022.007-.022.006-.023.007-.024,0-.022.005-.023,0-.024,0-.023,0-.023,0-.024,0-.023,0h-.023l-.024,0H28.8l-.023,0h-.023l-.024,0-.023,0-.024,0-.023,0-.023,0-.024,0-.023-.005-.022,0-.023-.007-.023-.006-.022-.007-.023-.007-.022-.009-.021-.009-.022-.008-.022-.01-.021-.01-.021-.011-.021-.011-.021-.011-.02-.012-.02-.013-.02-.012-.02-.014-.018-.013-.019-.015-.019-.015-.018-.014-.018-.015-.017-.016-.017-.016-.018-.017-.016-.017L28.052,46l-.016-.017-.014-.018-.015-.019-.015-.018-.013-.019-.014-.019-.013-.02-.013-.02-.012-.021-.011-.019-.011-.021-.011-.021-.011-.021-.01-.022-.009-.021-.008-.022-.009-.022-.007-.022-.008-.022-.007-.024-.006-.022-.006-.023,0-.022,0-.024-.005-.023,0-.023,0-.024,0-.023,0-.024v-.023l0-.023v-.072l0-.023V45.22l0-.024,0-.023,0-.023,0-.024L27.8,45.1l0-.023,0-.022.006-.024.006-.023.007-.022.008-.022.007-.023.009-.022.008-.022.009-.021.01-.022.011-.021.011-.021.011-.021.011-.02.012-.02.013-.02.013-.019.014-.02.013-.019.015-.019.015-.017.014-.019.016-.017.016-.019.016-.016.018-.017.017-.016.017-.016.018-.014.018-.016.018-.014.02-.015.018-.013.02-.014.02-.012.02-.012.02-.013.021-.011.021-.011.021-.011.021-.01.022-.009.022-.009.021-.009.022-.008.023-.008.022-.007.023-.006.023-.006.022-.006.023-.005.024,0,.023-.005.023,0,.024,0,.023,0h.188l.024,0,.023,0,.023,0,.024.005.023,0,.022.005.024.006.023.006.022.006.022.007.022.008.022.008.023.009.022.009.021.009.022.01.021.011.02.011.021.011.02.013.02.012.021.012.018.014.02.013.018.015.019.014.018.016.019.014.017.016.017.016.016.017.017.016.016.019.015.017.016.019.015.017.013.019.015.019.013.02.013.019.013.02.012.02.011.02.012.021.011.021.009.021.01.022.01.021.009.022.008.022.008.023.007.022.007.023.007.022.006.024,0,.022.005.023,0,.023,0,.024,0,.023,0,.023,0,.024v.07Z"/>
      <path fill="#333" d="M31.968,42.436v.046a.212.212,0,0,1,0,.024v.023l0,.023,0,.024,0,.023,0,.023,0,.024-.005.023,0,.022-.006.024-.006.022-.007.023-.008.022-.007.022-.009.022-.008.023-.01.02-.01.023-.01.02-.011.021-.011.021-.011.021-.012.02-.014.019-.012.02-.014.02-.014.018-.014.02-.015.017-.016.019-.014.017-.016.018-.018.016-.016.017-.017.016-.017.016-.018.015-.019.015-.018.015-.019.014-.019.014-.02.013-.02.013-.019.012-.02.012-.021.011-.021.011-.021.011-.022.01-.021.01-.022.009-.022.008-.022.009-.022.007-.022.008-.024.006-.022.006-.023.006-.022.005-.024,0-.023,0-.023,0-.024,0-.023,0-.023,0h-.142l-.023,0-.024,0-.023,0-.023,0-.024,0-.023,0-.023-.005-.022-.006-.024-.006-.022-.006-.023-.008-.022-.007-.023-.009-.022-.008-.021-.009-.022-.01-.021-.01-.021-.011-.02-.011-.021-.011-.02-.012-.021-.012-.02-.013-.019-.013-.019-.014-.019-.014-.019-.015-.017-.015-.018-.015-.018-.016L30.2,43.2l-.017-.017-.016-.016-.016-.018-.016-.017-.015-.019-.014-.017-.015-.02-.014-.018-.013-.02-.014-.02L30.039,43l-.012-.02-.011-.021L30,42.933l-.011-.021-.011-.02-.009-.023-.009-.02-.009-.023-.008-.022-.009-.022-.007-.022-.006-.023-.007-.022-.006-.024,0-.022,0-.023,0-.024-.005-.023,0-.023,0-.024,0-.023v-.165l0-.023,0-.024,0-.023.005-.023,0-.024,0-.023,0-.022.006-.023.007-.023.006-.023.007-.022.009-.022.008-.022.009-.022.009-.021L29.982,42l.011-.021L30,41.96l.012-.021.011-.02.012-.021.012-.019.014-.02.013-.02.014-.018.015-.019.014-.018.015-.018.016-.018.016-.017.016-.017L30.2,41.7l.017-.016.018-.016.018-.015.017-.015.019-.014.019-.015.019-.014.019-.013.02-.013.021-.012.02-.012.021-.011.02-.011.021-.011.021-.01.022-.01.021-.009.022-.008.023-.009.022-.007.023-.008.022-.006.024-.006.022-.005.023,0,.023-.005.024,0,.023,0,.023,0,.024,0,.023,0,.023,0h.095l.024,0,.023,0,.023,0,.024,0,.023,0,.023,0,.024.005.022,0,.023.005.022.006.024.006.022.008.022.007.022.009.022.008.022.009.021.01.022.01.021.011.021.011.021.011.02.012.019.012.02.013.02.013.019.014.019.015.018.014.019.015.018.015.017.016.017.016.016.017.018.017.016.017.014.018.016.018.015.018.014.019.014.018.014.02.012.02.014.019.012.021.011.02.011.021.011.021.01.021.01.022.01.021.008.022.009.022.007.022.008.022.007.023.006.023.006.023,0,.022.005.023,0,.024,0,.023,0,.023,0,.024,0,.023v.024a.2.2,0,0,1,0,.023Z"/>
      <path fill="#333" d="M34.907,38.32a.088.088,0,0,1,0,.023v.047l0,.023,0,.025,0,.023,0,.024,0,.023,0,.022,0,.024,0,.023-.007.022-.006.023-.007.022-.008.023-.007.022-.009.022-.008.022-.01.022a.1.1,0,0,1-.01.021l-.01.021-.011.021-.011.021-.011.021-.012.019-.014.021-.012.02-.013.018-.014.02-.015.018-.014.019-.015.017-.016.018-.016.018-.016.017-.017.016-.018.016-.017.016-.018.016-.019.015-.018.014-.019.014-.018.013-.02.014-.019.013-.021.013-.02.011-.021.012-.021.011-.021.01-.02.01-.023.01-.022.009-.021.009-.022.007-.023.008-.022.007-.022.006-.024.006-.022.007-.023.005-.024,0-.023,0-.023,0-.024,0-.023,0-.023,0h-.142l-.023,0-.023,0-.024,0-.023,0-.023,0-.024,0-.023-.005-.022-.007-.024-.006-.022-.006-.022-.007-.022-.008-.022-.007-.022-.009-.022-.009-.023-.01-.02-.01-.021-.01-.021-.011-.021-.012-.02-.011-.021-.013-.019-.013-.019-.014-.019-.013-.019-.014-.018-.014-.019-.015-.018-.016-.017-.016-.018-.016-.016-.016-.017-.017-.016-.018-.016-.018-.015-.017-.014-.019-.015-.018-.014-.02L33,38.92l-.014-.02-.012-.021-.012-.019-.011-.021-.011-.021-.011-.021-.01-.021a.1.1,0,0,1-.01-.021l-.01-.022-.009-.022-.008-.022-.007-.022-.008-.023-.007-.022-.006-.023-.006-.022,0-.023-.005-.024,0-.022,0-.023,0-.024,0-.023,0-.025a.164.164,0,0,1,0-.023c0-.007,0-.015,0-.023v-.024a.088.088,0,0,1,0-.023V38.3c0-.009,0-.016,0-.024a.194.194,0,0,1,0-.024l0-.024,0-.023,0-.023,0-.024,0-.022.005-.023,0-.024.006-.022.006-.023.007-.022.008-.024.007-.022.008-.022.009-.021.01-.022a.1.1,0,0,1,.01-.021l.01-.022.011-.021.011-.019.011-.021.012-.02.012-.021.014-.02.013-.018.014-.02.015-.018.014-.019.015-.018.016-.017.016-.017.017-.018.016-.016.018-.016.017-.016.018-.016.019-.014.018-.015.019-.014.019-.014.019-.013.019-.013.021-.012.02-.013.021-.011.021-.011.021-.01.02-.011.023-.008.022-.01.022-.009.022-.007.022-.008.022-.007.022-.007.024,0,.022-.006.023-.005.024-.005.023,0,.023,0,.024,0,.023,0,.023,0h.142l.023,0,.023,0,.024,0,.023,0,.023,0,.024.005.023.005.022.006.024,0,.022.007.022.007.023.008.022.007.021.009.022.01.023.008.02.011.021.01.021.011.021.011.02.013.021.012.019.013.02.013.018.014.019.014.018.015.019.014.018.016.017.016.018.016.017.016.016.018.016.017.016.017.015.018.014.019.015.018.014.02.013.018.012.02.014.021.012.02.011.021.011.019.011.021.01.022a.1.1,0,0,1,.01.021l.01.022.008.021.009.022.007.022.008.024.007.022.006.023.007.022,0,.024,0,.023,0,.022,0,.024,0,.023,0,.023,0,.024,0,.024v.047Z"/>
      <path fill="#333" d="M33.228,45.5v.047l0,.024,0,.024v.023l0,.023,0,.024,0,.023-.005.023,0,.023-.006.023-.005.023-.007.022-.006.023-.008.023-.007.022-.009.022-.008.021-.01.022-.01.021-.01.022L33.107,46l-.011.021-.012.02-.013.021-.012.019-.012.02-.014.02-.014.018L33,46.156l-.014.019-.016.018-.016.018-.016.017-.016.017-.016.016-.017.017-.018.015-.017.016-.019.015-.018.014-.019.015-.019.014-.02.012-.02.013-.019.013-.021.012-.02.011-.021.011-.021.011-.022.01-.021.01-.022.009-.022.008-.022.008-.022.008-.022.006-.024.008-.022.006-.023,0-.024.005-.022,0-.023,0-.023,0-.024,0-.023,0-.023,0-.025,0h-.093l-.024,0-.023,0-.024,0-.024,0-.024,0-.022,0-.023,0-.023-.005-.024,0-.022-.006-.023-.008-.022-.006-.022-.008-.023-.008-.022-.008-.021-.009-.022-.01-.021-.01-.021-.011-.02-.011-.021-.011-.021-.012-.02-.013-.02-.013-.019-.012-.019-.014-.019-.015-.019-.014-.018-.015-.017-.016-.018-.015-.017-.017-.017-.016-.016-.017-.016-.017-.016-.018-.015-.018-.014-.019-.015-.018-.014-.018-.013-.02-.014-.02-.012-.019-.012-.021-.013-.02L31.263,46l-.01-.021-.011-.022-.009-.021-.009-.022-.01-.021-.007-.022-.009-.022-.007-.023-.006-.023-.007-.022-.006-.023,0-.023-.005-.023,0-.023,0-.023,0-.024,0-.023,0-.023,0-.024v-.118l0-.023,0-.023,0-.024,0-.023,0-.023,0-.024.005-.023,0-.024.006-.022.007-.023.006-.022.007-.022.009-.022.007-.023.01-.022.009-.022.009-.021.011-.021.01-.02.011-.021.013-.021.012-.02.012-.02.014-.019.013-.02.014-.018.015-.02.014-.018.015-.018.016-.018.016-.017.016-.018.017-.016.017-.015.018-.016.017-.016.018-.015.019-.015.019-.013.019-.014.019-.014.02-.012.02-.013.021-.011.021-.013.02-.011.021-.01.021-.009.022-.01.021-.009.022-.008.023-.009.022-.007.022-.008.023-.006.022-.006.024-.006.023-.005.023,0,.022-.005.024,0,.024,0,.024,0,.023,0h.142l.023,0,.023,0,.024,0,.023,0,.023.005.022,0,.024.005.023.006.022.006.024.006.022.008.022.007.022.009.022.008.022.009.021.01.022.009.021.01.021.011.02.013.021.011.019.013.02.012.02.014.019.014.019.013.018.015.019.015.017.016.018.016.017.015.016.016.016.018.016.017.016.018.016.018.015.018.014.02.014.018.014.02.012.019.012.02.013.02.012.021.011.021.011.02.01.021.01.021.01.022.008.022.009.023.007.022.008.022.007.022.006.023.005.022.006.024,0,.023.005.024,0,.023,0,.023,0,.024v.023l0,.023,0,.024Z"/>
      <path fill="#333" d="M37.385,40.419v.071l0,.023v.025l0,.023,0,.023,0,.022,0,.024-.005.023,0,.023-.005.023-.008.023-.006.022-.007.022-.009.022-.007.022-.009.023-.01.022-.01.021-.009.02-.011.021-.012.021-.012.021-.012.02L37.217,41l-.014.018-.013.02-.014.019-.015.019-.015.018-.014.018-.016.018-.016.017-.016.017-.017.016-.018.016-.017.016-.017.016L37,41.243l-.019.015-.018.013-.02.014-.02.013-.019.014-.02.012-.021.011-.021.013-.019.011-.023.009-.02.01-.021.01-.023.01-.022.009-.022.007-.022.007-.022.008-.023.006-.023.006-.023.006-.023,0-.024.005-.022,0-.023,0-.023,0-.025,0-.023,0-.024,0H36.3l-.025,0-.023,0-.023,0-.024,0-.023,0-.024,0-.022-.005-.023,0-.023-.006-.022-.006-.024-.006-.022-.008L36,41.414l-.022-.007-.022-.009-.022-.01-.021-.01-.021-.01-.022-.009-.021-.011-.02-.013-.021-.011-.019-.012-.02-.014-.02-.013-.02-.014-.018-.013-.018-.015-.019-.015-.017-.016-.018-.016-.016-.016-.018-.016-.016-.017-.016-.017-.016-.018-.014-.018-.015-.018-.015-.019-.013-.019-.014-.02L35.469,41l-.013-.021-.012-.02-.012-.021-.011-.021L35.41,40.9l-.01-.02-.01-.021-.01-.022-.009-.023-.008-.022-.008-.022-.007-.022-.006-.022-.007-.023-.005-.023-.006-.023,0-.023-.005-.024,0-.022,0-.023,0-.023v-.025l0-.023v-.117l0-.025v-.023l0-.023,0-.024,0-.023.005-.024,0-.022.006-.023.005-.023.007-.023.006-.022.007-.023.008-.022.008-.022.009-.021.01-.022.01-.021.01-.022.011-.021.011-.02.012-.021.012-.021.013-.019.013-.02.014-.018.013-.02.015-.019a.119.119,0,0,1,.015-.018l.014-.018.016-.018.016-.017L35.6,39.7l.018-.016.016-.016.018-.016.017-.016.019-.015.018-.014.018-.014.02-.015.02-.012.02-.014.019-.012.021-.012.02-.011.021-.011.022-.01.021-.011.021-.009.022-.01.022-.008L36,39.448l.022-.008.022-.006.024-.008.022-.006.023-.005.023-.005.022,0,.024,0,.023,0,.024,0,.023,0,.023,0,.025,0h.093l.024,0,.023,0,.025,0,.023,0,.023,0,.022,0,.024,0,.023.005.023.005.023.006.023.008.022.006.022.008.022.008.022.008.023.01.021.009.02.011.023.01.019.011.021.011.021.012.02.012.019.014.02.012.02.015.018.014.019.014.018.015.017.016.017.016.018.016.017.016.016.017.016.017.016.018.014.018.015.018.015.019.014.02.013.018.014.02.012.019.012.021.012.021.012.02.011.021.009.022.01.021.01.022.009.021.007.022.009.022.007.023.006.022.008.023.005.023.006.023,0,.024,0,.022,0,.023,0,.024,0,.023v.023l0,.025v.046Z"/>
      <path fill="#333" d="M36.62,43.478v.1l0,.025,0,.025,0,.024-.005.025,0,.024-.005.024-.006.024-.007.025-.006.023-.007.024-.007.024-.009.024-.009.023-.009.022-.01.023-.01.023-.011.022L36.494,44l-.013.022-.012.022-.012.021-.014.021-.013.021-.015.019-.015.021-.014.02-.016.018-.016.02-.016.019-.018.018-.017.017-.017.019-.018.016-.019.017-.018.016-.02.016-.02.015-.019.016-.02.013-.021.015-.021.013-.021.013-.021.013-.022.011-.022.012L36,44.479l-.022.011-.023.009-.023.01-.023.009-.023.008-.024.008-.024.007-.024.008-.023.006-.024.006-.025.005-.025,0-.024.005-.025,0-.024,0-.025,0-.025,0h-.148l-.025,0-.025,0-.024,0-.025,0-.024-.005-.025,0-.024-.005-.024-.006-.024-.006-.024-.008-.023-.007-.023-.008-.024-.008-.023-.009-.024-.01-.022-.009-.023-.011-.022-.012L35,44.455l-.021-.011-.022-.013-.021-.013-.021-.013-.02-.015-.021-.013-.019-.016-.02-.015-.018-.016-.02-.016-.019-.017-.017-.016-.018-.019-.017-.017-.018-.018-.016-.019-.016-.02-.016-.018-.014-.02-.015-.021-.014-.019-.014-.021-.013-.021-.013-.021-.012-.022L34.552,44l-.013-.022-.011-.022-.01-.023-.01-.023-.009-.022-.009-.023-.007-.024-.009-.024-.007-.024-.006-.023-.007-.025,0-.024a.064.064,0,0,1-.005-.024l-.005-.024,0-.025,0-.024,0-.025,0-.025,0-.024v-.124l0-.026,0-.025,0-.024,0-.025,0-.024.005-.025a.059.059,0,0,1,.005-.023l0-.025.007-.025.006-.023.007-.023.009-.025.007-.023.009-.024.009-.022.01-.023.01-.022L34.539,43l.013-.022.011-.023.012-.022.013-.021.013-.02.014-.021.014-.02.015-.021.014-.02.016-.018.016-.02.016-.018.018-.019.017-.017.018-.017.017-.017.019-.017.02-.016.018-.016.02-.015.019-.016.021-.014.02-.014.021-.014.021-.012.022-.014L35,42.525l.022-.012.022-.011.023-.01.022-.011.024-.009.023-.009.024-.009.023-.007.023-.008.024-.007.024-.006.024-.006.024-.005.025-.005.024,0,.025,0,.024,0,.025,0,.025,0,.024,0h.1l.024,0,.025,0,.025,0,.024,0,.025,0,.024,0,.025.005.025.005.024.006.023.006.024.007.024.008.024.007.023.009.023.009.023.009.023.011L36,42.5l.022.011.022.012.022.011.021.014.021.012.021.014.021.014.02.014.019.016.02.015.02.016.018.016.019.017a.141.141,0,0,1,.018.017l.017.017.017.017.018.019.016.018.016.02.016.018.014.02.015.021.015.02.013.021.014.02.012.021.012.022.013.023.011.022.011.022.01.022.01.023.009.022.009.024.009.023.007.025.007.023.006.023.007.025.006.025.005.023,0,.025.005.024,0,.025,0,.024,0,.025v.075Z"/>
      <path fill="#333" d="M41.122,40.251V40.3a.169.169,0,0,0,0,.023l0,.024,0,.023,0,.023,0,.024,0,.023,0,.024,0,.022-.007.023,0,.023-.006.022-.007.024-.007.022-.008.022-.008.022-.009.022-.01.021-.01.022-.009.021L41,40.75l-.011.021-.012.02-.012.021-.013.019-.012.02-.013.02-.015.018-.014.019-.014.018-.016.018-.016.018-.016.017L40.821,41l-.016.017-.017.016-.019.016-.017.015-.018.015-.019.014L40.7,41.1l-.02.014-.02.013-.019.013-.02.012-.021.012-.02.011-.021.011-.02.011-.023.01-.02.01-.023.009-.022.008-.022.009-.022.007-.022.006-.023.008-.023.006-.023.005-.023,0-.022.005-.024,0-.023,0-.023,0-.024,0-.023,0-.025,0h-.093l-.024,0-.023,0-.023,0-.024,0-.023,0-.023,0-.024-.005-.023,0-.023-.005-.023-.006-.022-.008-.023-.006-.022-.007-.022-.009-.022-.008-.021-.009-.022-.01-.021-.01L39.6,41.19l-.021-.011-.021-.011-.021-.012-.02-.012-.019-.013-.02-.013-.018-.014-.02-.015-.018-.014-.019-.015-.017-.015-.017-.016-.018-.016L39.338,41l-.016-.017-.016-.017-.016-.018-.014-.018-.015-.018-.015-.019-.013-.018-.014-.02-.014-.02-.012-.019-.012-.021-.012-.02-.011-.021-.01-.021-.011-.021-.01-.022-.009-.021-.01-.022-.007-.022-.009-.022-.007-.022-.006-.024-.006-.022-.006-.023-.005-.023,0-.022-.005-.024,0-.023,0-.024,0-.023,0-.023v-.024l0-.023v-.071l0-.024v-.023l0-.023,0-.024,0-.023,0-.023.005-.024,0-.023.005-.023.006-.023.006-.023.006-.022.007-.022.009-.022.007-.022.01-.023.009-.022.01-.021.011-.02.01-.021.011-.021.012-.021.012-.02.012-.02.014-.019.014-.02.013-.018.015-.02.015-.018.014-.018.016-.018.016-.017.016-.016.017-.017.018-.016.017-.016.017-.015.019-.016.018-.014.02-.014.018-.014.02-.013.019-.013.02-.012.021-.012.021-.013.021-.009.021-.012.021-.009.022-.01.021-.009.022-.008.022-.009.022-.007.023-.008.022-.006.023-.006.023-.006.023-.005.024,0,.023-.005.023,0,.024,0,.023,0,.023,0h.142l.023,0,.024,0,.023,0,.023,0,.024.005.022,0,.023.005.023.006.023.006.023.006.022.008.022.007.022.009.022.008.023.009.02.01.023.009.02.012.021.009.02.013.021.012.02.012.019.013.02.013.02.014.018.014.019.014.018.016.017.015.019.016.017.016.016.017.017.016.015.017.016.018.016.018.014.018.014.02.015.018.013.02.012.019.013.02.012.02.012.021.011.021.012.021.009.02.01.021.01.022.009.023.008.022.008.022.007.022.007.022.006.023,0,.023.007.023,0,.023,0,.024,0,.023,0,.023,0,.024,0,.023,0,.023a.193.193,0,0,0,0,.024Z"/>
      <path fill="#333" d="M26.4,25.923c-.123-.017-.255-.041-.4-.074s-.227-.052-.255-.061a.535.535,0,0,1-.083-.036,1.333,1.333,0,0,1-.155-.1c-.076-.056-.172-.13-.286-.222l-.265-.209c-.061-.047-.119-.089-.173-.126s-.108-.07-.161-.1-.13-.065-.23-.107-.2-.077-.286-.105a2.167,2.167,0,0,0-.266-.068,4,4,0,0,0-.472-.039,3.908,3.908,0,0,0-.521,0c-.119.013-.219.022-.3.029s-.2.018-.365.034-.3.027-.427.032-.242,0-.356,0-.265-.012-.449-.018-.339-.007-.462,0a2.858,2.858,0,0,0-.289.019,2.7,2.7,0,0,0-.277.056,2.276,2.276,0,0,0-.3.1,2.859,2.859,0,0,0-.338.179l-.306.188c-.066.042-.189.115-.367.219s-.325.184-.437.242a3.707,3.707,0,0,1-.371.164,4.829,4.829,0,0,1-.627.169q-.425.091-.558.105c-.089.008-.218.018-.387.028a4.253,4.253,0,0,0-.429.044,2.2,2.2,0,0,0-.3.067q-.125.038-.138.039t-.255.117a2.313,2.313,0,0,0-.93.753c-.082.112-.135.189-.161.233s-.06.106-.1.189a3.122,3.122,0,0,0-.221.707,2.373,2.373,0,0,0-.026.247c0,.067,0,.165,0,.293s.005.218,0,.271,0,.105,0,.156a.885.885,0,0,1-.025.182,1.173,1.173,0,0,1-.08.224l-.059.129a1.409,1.409,0,0,1-.091.132,1.543,1.543,0,0,1-.2.223,2.586,2.586,0,0,1-.215.184c-.069.051-.124.091-.167.119s-.079.05-.11.067-.08.049-.149.094a2.114,2.114,0,0,0-.189.137,1.868,1.868,0,0,0-.17.166,2.1,2.1,0,0,0-.161.2,2.258,2.258,0,0,0-.154.253c-.054.1-.09.173-.107.215s-.035.095-.053.154a1.167,1.167,0,0,0-.038.16c-.007.047-.011.078-.012.092s-.009.059-.024.138-.029.149-.044.214-.028.125-.042.18-.021.088-.024.1-.025.089-.064.239-.076.288-.108.413-.065.245-.1.359-.061.2-.084.272-.072.18-.145.339a6.127,6.127,0,0,1-.385.669c-.184.285-.291.446-.323.483s-.06.069-.086.095l-.078.075c-.025.024-.054.052-.087.086a1.756,1.756,0,0,0-.117.135l-.132.172c-.044.058-.093.127-.147.2s-.113.166-.173.26l-.163.251a2.3,2.3,0,0,1-.168.226c-.066.078-.115.133-.148.167a1.081,1.081,0,0,1-.1.093c-.036.029-.114.087-.236.175a3.562,3.562,0,0,1-.3.2l-.145.083c-.021.013-.082.04-.183.083s-.18.073-.235.092-.107.038-.155.057l-.17.067q-.1.041-.237.114c-.093.049-.18.1-.26.152s-.17.114-.271.186a3.269,3.269,0,0,0-.27.216,2.453,2.453,0,0,0-.217.215,3.882,3.882,0,0,0-.247.314c-.1.138-.163.232-.193.281s-.046.075-.049.08-.035.065-.1.184a4.9,4.9,0,0,0-.211.5c-.08.214-.128.348-.145.4s-.034.117-.051.187-.037.156-.061.259-.045.19-.065.26-.036.123-.05.162-.055.167-.126.386-.126.406-.165.56a3.017,3.017,0,0,0-.072.354,2.516,2.516,0,0,0-.015.3,1.888,1.888,0,0,0,.032.341,1.866,1.866,0,0,0,.064.255,1.76,1.76,0,0,0,.08.19l.082.167a1.565,1.565,0,0,0,.107.178c.048.072.1.138.146.2s.1.125.159.194.107.133.152.191.095.124.15.2l.1.126.1.137.137.185c.033.045.083.123.151.235s.117.189.144.234.061.1.1.173.082.158.133.261.086.173.1.214.042.1.072.18A2.576,2.576,0,0,1,6.816,47c.023.083.044.181.064.295s.04.251.059.414.032.292.041.388.022.193.035.29.029.187.048.27.041.168.067.259a2.638,2.638,0,0,0,.091.268,2.348,2.348,0,0,0,.118.241c.043.074.069.119.079.135s.069.1.181.239a2.445,2.445,0,0,0,.294.328,2.539,2.539,0,0,0,.233.187c.071.047.126.082.166.1s.1.051.18.088.148.07.21.1.135.052.22.079.129.04.135.04l.127.031q.117.03.252.057a3.467,3.467,0,0,0,.506.03,3.041,3.041,0,0,0,.569-.033,1.858,1.858,0,0,0,.251-.059,1.443,1.443,0,0,0,.14-.066,1.154,1.154,0,0,0,.156-.1.923.923,0,0,0,.154-.154,1,1,0,0,0,.114-.164l.036-.069a.9.9,0,0,0,.028-.09.668.668,0,0,0,.028-.154.744.744,0,0,0,0-.091.193.193,0,0,1,0-.034.586.586,0,0,0-.021-.123.959.959,0,0,0-.049-.165,1.519,1.519,0,0,0-.076-.147c-.034-.057-.066-.107-.1-.148s-.081-.1-.152-.185-.132-.156-.184-.218-.116-.15-.194-.264a3.175,3.175,0,0,1-.177-.283,2.065,2.065,0,0,1-.1-.2,2.316,2.316,0,0,1-.088-.261,2.645,2.645,0,0,1-.08-.341c-.018-.109-.031-.2-.037-.263a2.823,2.823,0,0,1-.009-.294q0-.194.015-.318c.01-.083.02-.148.029-.2s.019-.085.026-.116.026-.1.058-.2.066-.2.1-.289.083-.185.134-.291.078-.16.079-.163.033-.074.1-.212a2.472,2.472,0,0,0,.155-.466,1.627,1.627,0,0,0,.052-.416,1.1,1.1,0,0,0-.03-.24.906.906,0,0,0-.041-.119.7.7,0,0,0-.049-.089,1.394,1.394,0,0,0-.133-.165,2.9,2.9,0,0,0-.57-.392c-.313-.185-.516-.3-.607-.341s-.189-.089-.293-.134-.206-.095-.306-.147a1.811,1.811,0,0,1-.219-.128.888.888,0,0,1-.135-.114,1.321,1.321,0,0,1-.138-.168,1.591,1.591,0,0,1-.126-.219,1.134,1.134,0,0,1-.064-.151.877.877,0,0,1-.019-.137.854.854,0,0,1,0-.184.9.9,0,0,1,.06-.2,1.1,1.1,0,0,1,.1-.2,1.242,1.242,0,0,1,.11-.145,1.121,1.121,0,0,1,.123-.114c.046-.036.07-.056.072-.059a.925.925,0,0,1,.094-.058,2.2,2.2,0,0,1,.37-.143,3.723,3.723,0,0,1,.595-.134c.21-.029.362-.05.456-.061s.2-.023.314-.033l.324-.033c.1-.012.175-.023.224-.034s.125-.026.228-.049a2.668,2.668,0,0,0,.278-.076c.081-.028.136-.047.163-.059s.1-.045.217-.1a2.036,2.036,0,0,0,.308-.176,1.643,1.643,0,0,0,.224-.182,1.8,1.8,0,0,0,.172-.2c.054-.073.092-.127.113-.162s.048-.081.08-.141a1.2,1.2,0,0,0,.085-.215,1.225,1.225,0,0,0,.048-.233c.007-.072.012-.128.013-.169a1.361,1.361,0,0,0,0-.15,1.791,1.791,0,0,0-.034-.218c-.016-.086-.03-.15-.041-.2s-.029-.11-.053-.2-.041-.149-.049-.185-.017-.066-.023-.088-.011-.071-.021-.151a1.488,1.488,0,0,1-.009-.228c0-.073.005-.112.006-.118s.009-.051.028-.132a.822.822,0,0,1,.087-.221,1.1,1.1,0,0,1,.116-.167,1.189,1.189,0,0,1,.163-.154,2.611,2.611,0,0,1,.225-.165c.081-.052.153-.1.218-.138l.157-.092c.041-.023.1-.054.164-.094L14,35.786c.02-.011.056-.036.11-.073s.093-.068.119-.091.057-.057.1-.1.065-.075.078-.092a1.5,1.5,0,0,0,.094-.17,1.446,1.446,0,0,0,.113-.344,2.623,2.623,0,0,0,.052-.353,2.29,2.29,0,0,0-.005-.329c-.011-.118-.024-.228-.04-.329s-.025-.177-.029-.231-.007-.1-.009-.152a1.513,1.513,0,0,1,.01-.176.87.87,0,0,1,.043-.192A.555.555,0,0,1,14.711,33a.813.813,0,0,1,.084-.094.705.705,0,0,1,.082-.059.73.73,0,0,1,.145-.06.824.824,0,0,1,.158-.036c.04,0,.076-.006.108-.007s.063,0,.094-.005.069-.006.112-.013l.155-.03a.91.91,0,0,0,.165-.052,1,1,0,0,0,.123-.061,2.05,2.05,0,0,0,.2-.164,1.831,1.831,0,0,0,.222-.22,1.625,1.625,0,0,0,.223-.373c.025-.059.04-.093.044-.1s.016-.053.036-.134.036-.158.048-.233l.02-.147c0-.023.008-.066.014-.129s.011-.126.015-.187.018-.168.043-.321a2.026,2.026,0,0,1,.086-.361.955.955,0,0,1,.085-.185.809.809,0,0,1,.067-.093.725.725,0,0,1,.073-.074.949.949,0,0,1,.285-.169,1.288,1.288,0,0,1,.2-.064c.061-.014.109-.023.142-.027l.084-.011.159-.025.3-.054c.118-.022.2-.038.232-.047s.088-.026.155-.049.159-.061.273-.112a2.659,2.659,0,0,0,.252-.125,4.376,4.376,0,0,0,.353-.266c.184-.145.288-.228.312-.251s.079-.072.163-.153.225-.211.426-.39.35-.3.445-.375a2.273,2.273,0,0,1,.369-.219,1.407,1.407,0,0,1,.41-.135c.123-.016.189-.024.2-.024a1.185,1.185,0,0,1,.189.06,1.654,1.654,0,0,1,.255.113c.055.034.112.071.171.109s.137.1.238.183l.241.2c.06.05.138.112.236.187s.188.137.273.19.2.116.337.188a2.294,2.294,0,0,0,.349.152c.092.028.17.048.232.061s.146.024.253.035a2.922,2.922,0,0,0,.326.013c.111,0,.226-.006.343-.016l.391-.036.317-.028c.068,0,.157-.005.268,0s.2.008.262.013a2.213,2.213,0,0,1,.28.056,2.358,2.358,0,0,1,.353.118,1.711,1.711,0,0,1,.348.2,1.946,1.946,0,0,1,.275.24,2.229,2.229,0,0,1,.21.291,1.215,1.215,0,0,1,.131.246.993.993,0,0,1,.019.127.669.669,0,0,1,0,.093.152.152,0,0,0,0,.036.5.5,0,0,1-.02.08.822.822,0,0,1-.081.173,1.434,1.434,0,0,1-.174.225c-.075.083-.12.131-.135.145s-.075.063-.182.148-.215.164-.327.239-.2.132-.249.17-.173.132-.357.28a4.879,4.879,0,0,0-.423.378,3.942,3.942,0,0,0-.507.683c-.047.085-.088.163-.122.235s-.062.14-.084.2a3.2,3.2,0,0,0-.076.329q-.043.239-.06.366c-.01.086-.019.178-.028.275s-.022.216-.041.356l-.037.283a2.239,2.239,0,0,1-.091.32,3,3,0,0,1-.144.365c-.04.081-.077.149-.108.2s-.074.119-.129.2a2.77,2.77,0,0,1-.173.227,3.049,3.049,0,0,1-.245.252c-.1.1-.175.162-.217.2s-.116.084-.218.152-.183.122-.246.166-.094.065-.1.065l-.145.1c-.095.066-.191.135-.29.207l-.322.24c-.116.088-.218.164-.306.227s-.158.112-.21.148-.084.057-.1.063L22.05,38c-.114.068-.213.125-.3.172s-.161.091-.235.126-.146.068-.219.1-.14.053-.2.07-.121.034-.187.05-.16.039-.283.064a1.747,1.747,0,0,1-.309.042,1.127,1.127,0,0,1-.225-.013l-.115-.021a.822.822,0,0,1-.083-.03.742.742,0,0,1-.107-.05.341.341,0,0,1-.071-.054.673.673,0,0,1-.078-.1,1.641,1.641,0,0,1-.114-.242c-.048-.116-.087-.21-.117-.28a1,1,0,0,0-.089-.165c-.027-.041-.045-.066-.052-.074s-.028-.022-.058-.043a.5.5,0,0,0-.1-.051.451.451,0,0,0-.085-.025l-.092-.01a.711.711,0,0,0-.255.069,1.174,1.174,0,0,0-.312.173c-.081.066-.139.116-.173.15s-.113.133-.238.294-.213.277-.265.348-.082.111-.089.122-.048.062-.123.155-.157.186-.244.283-.189.2-.3.307-.213.2-.3.276a2.857,2.857,0,0,1-.251.193l-.2.129c-.054.035-.131.087-.229.155s-.155.105-.167.112l-.172.1a2.5,2.5,0,0,1-.257.133q-.1.045-.162.066c-.041.014-.093.03-.159.048a2.577,2.577,0,0,1-.254.052c-.1.016-.166.025-.186.026s-.059,0-.117,0-.119,0-.182.006a1.851,1.851,0,0,0-.223.027c-.086.015-.139.024-.157.029s-.039.011-.065.019-.052.022-.083.037a.881.881,0,0,0-.106.063.907.907,0,0,0-.145.134,1.025,1.025,0,0,0-.112.139.67.67,0,0,0-.045.088.574.574,0,0,0-.026.063.85.85,0,0,0-.019.091.9.9,0,0,0-.01.112c0,.028,0,.069,0,.121a1.375,1.375,0,0,1-.013.227,2.066,2.066,0,0,1-.04.229,1.059,1.059,0,0,1-.053.159l-.034.082a.991.991,0,0,1-.049.088,1.636,1.636,0,0,1-.105.156c-.038.05-.075.095-.111.136s-.067.074-.092.1-.056.062-.1.109a1.33,1.33,0,0,0-.1.138,1.158,1.158,0,0,0-.076.145,1.076,1.076,0,0,0-.058.146,1.024,1.024,0,0,0-.036.2,1.1,1.1,0,0,0-.008.17.418.418,0,0,0,.013.075c.007.024.019.061.036.11s.036.1.055.157.034.105.046.146.021.087.029.133.014.1.019.156a1.618,1.618,0,0,1-.008.239c-.008.1-.027.239-.058.414s-.059.341-.091.5-.057.3-.082.437-.047.287-.069.461-.036.332-.042.475-.006.262,0,.357.01.192.02.29.021.186.036.267a2.708,2.708,0,0,0,.089.308c.043.125.083.229.122.314a4.884,4.884,0,0,0,.243.43q.185.3.285.434c.068.086.116.146.145.18a2.134,2.134,0,0,0,.161.166c.079.076.134.125.164.148l.123.093c.051.04.1.079.156.116s.114.075.184.115.141.08.21.115l.126.064.111.048c.06.024.127.047.2.068a2.719,2.719,0,0,0,.33.066,2.91,2.91,0,0,0,.333.037q.111,0,.252,0a2.508,2.508,0,0,0,.3-.036,1.615,1.615,0,0,0,.294-.078c.088-.033.143-.056.166-.068a.988.988,0,0,0,.146-.114.923.923,0,0,0,.2-.26.76.76,0,0,0,.1-.245.635.635,0,0,0,0-.179.736.736,0,0,0-.052-.179q-.037-.087-.048-.108c-.008-.014-.043-.066-.106-.155s-.13-.182-.2-.28-.159-.215-.261-.348l-.242-.32c-.061-.079-.11-.147-.148-.2s-.074-.11-.107-.166a1.464,1.464,0,0,1-.081-.156c-.022-.048-.048-.115-.077-.2a2.114,2.114,0,0,1-.073-.243,2.438,2.438,0,0,1-.043-.4,2.151,2.151,0,0,1,.013-.451,1.568,1.568,0,0,1,.076-.3,1.4,1.4,0,0,1,.121-.25,1.86,1.86,0,0,1,.115-.17,1.132,1.132,0,0,1,.124-.13c.056-.051.129-.111.217-.18s.145-.112.169-.128.058-.038.1-.065.122-.066.228-.116.184-.085.234-.106.156-.071.315-.153a3.049,3.049,0,0,0,.334-.192,1.463,1.463,0,0,0,.176-.145,1.123,1.123,0,0,0,.128-.143.933.933,0,0,0,.088-.148,1.205,1.205,0,0,0,.068-.17c.018-.059.032-.113.043-.161s.018-.082.021-.1.009-.077.017-.173.025-.242.048-.436.044-.334.064-.422a1.611,1.611,0,0,1,.068-.231,1.273,1.273,0,0,1,.13-.239.974.974,0,0,1,.211-.23,1.369,1.369,0,0,1,.28-.165,1.806,1.806,0,0,1,.249-.1c.061-.016.116-.028.165-.037l.08-.012c.005,0,.1,0,.282-.008a3.279,3.279,0,0,1,.508.023c.155.02.307.043.457.069l.314.055q.089.015.222.027a1.821,1.821,0,0,0,.24.006,1.942,1.942,0,0,0,.219-.023.876.876,0,0,0,.292-.129,2.983,2.983,0,0,0,.288-.2c.071-.057.13-.107.18-.15l.179-.156c.071-.061.12-.1.149-.124a1.464,1.464,0,0,1,.225-.115c.119-.055.185-.084.2-.087a.469.469,0,0,0,.059-.018,1.74,1.74,0,0,1,.319-.01,2.912,2.912,0,0,1,.42.028c.1.016.21.039.343.07s.253.057.36.078.219.038.332.052a1.935,1.935,0,0,0,.327.019,1.5,1.5,0,0,0,.258-.026.878.878,0,0,0,.2-.066,1.224,1.224,0,0,0,.248-.169,1.172,1.172,0,0,0,.24-.253,1.425,1.425,0,0,0,.129-.224,1.758,1.758,0,0,0,.086-.273c.03-.118.051-.215.063-.293s.03-.181.053-.308a2.2,2.2,0,0,1,.081-.323,1.6,1.6,0,0,1,.136-.289,2.086,2.086,0,0,1,.172-.254,1.625,1.625,0,0,1,.155-.167,3.048,3.048,0,0,1,.258-.209q.186-.139.273-.2c.058-.037.131-.082.219-.132s.158-.095.212-.13.109-.073.167-.117.133-.115.23-.211a2.541,2.541,0,0,0,.212-.232,1.987,1.987,0,0,0,.137-.211,1.517,1.517,0,0,0,.125-.329,1.375,1.375,0,0,0,.053-.391,2.026,2.026,0,0,0-.037-.344,1.771,1.771,0,0,0-.1-.328c-.044-.112-.076-.186-.095-.221s-.044-.084-.072-.143a2.167,2.167,0,0,1-.089-.227,1.219,1.219,0,0,1-.061-.229.85.85,0,0,1,.008-.22.665.665,0,0,1,.04-.177.571.571,0,0,1,.033-.064,1.477,1.477,0,0,1,.146-.136,1.238,1.238,0,0,1,.318-.2c.122-.056.208-.093.259-.111s.126-.042.226-.074.18-.058.24-.082l.11-.044c.013-.006.06-.037.141-.094a1.706,1.706,0,0,0,.225-.189,2.29,2.29,0,0,0,.241-.289c.091-.125.176-.246.257-.361a2.8,2.8,0,0,1,.2-.261,1.765,1.765,0,0,1,.185-.176,2.021,2.021,0,0,1,.286-.189A2.584,2.584,0,0,1,31.582,32a2.08,2.08,0,0,1,.282-.084c.118-.029.207-.047.268-.056a2.578,2.578,0,0,1,.374,0,2.43,2.43,0,0,1,.388.037,1.12,1.12,0,0,1,.2.068.717.717,0,0,1,.142.08.781.781,0,0,1,.09.076.566.566,0,0,1,.058.066.417.417,0,0,1,.04.06q.018.035.1.177a2.4,2.4,0,0,1,.131.266c.032.082.059.145.078.19a.9.9,0,0,0,.052.107,1.81,1.81,0,0,0,.144.181,1.367,1.367,0,0,0,.275.245,2.059,2.059,0,0,0,.214.132c.038.019.083.037.135.057a2.4,2.4,0,0,0,.282.08c.136.033.254.059.354.079s.177.035.23.048.12.027.2.047a1.423,1.423,0,0,1,.225.08,1.624,1.624,0,0,1,.2.107,1.088,1.088,0,0,1,.185.156.906.906,0,0,1,.122.146.681.681,0,0,1,.041.079.164.164,0,0,0,.021.043.73.73,0,0,1,.027.1,1.154,1.154,0,0,1,.025.144,1.291,1.291,0,0,1,.006.136c0,.054,0,.154-.005.3s0,.269,0,.377.008.18.012.219.017.106.037.2a1.46,1.46,0,0,0,.11.311,1.44,1.44,0,0,0,.184.3c.071.09.112.142.124.154s.074.058.185.136a1.268,1.268,0,0,0,.4.18,1.778,1.778,0,0,0,.354.065c.081,0,.159,0,.234,0a1.349,1.349,0,0,0,.226-.031,3.343,3.343,0,0,0,.438-.156l.391-.156c.044-.017.109-.038.2-.064a1.3,1.3,0,0,1,.229-.046.829.829,0,0,1,.173,0,1.265,1.265,0,0,1,.152.029c.053.014.127.038.222.073a1.348,1.348,0,0,1,.19.081c.032.018.066.039.1.062s.069.05.105.079l.116.1c.043.035.106.081.188.14s.167.116.251.168.152.09.2.115.1.047.14.063a.431.431,0,0,1,.078.033,2.745,2.745,0,0,0,.325.044,1.884,1.884,0,0,0,.57-.014,1.156,1.156,0,0,0,.382-.126A1.733,1.733,0,0,0,43,37.313a1.458,1.458,0,0,0,.147-.144.58.58,0,0,0,.075-.107c.02-.035.042-.08.068-.134a1.433,1.433,0,0,0,.078-.29,2.02,2.02,0,0,0,.042-.4c0-.13,0-.235,0-.316s-.008-.167-.011-.263,0-.162,0-.2a1.522,1.522,0,0,1,.019-.168,1.2,1.2,0,0,1,.041-.184,2.25,2.25,0,0,1,.107-.236c.055-.109.1-.189.129-.238a1.981,1.981,0,0,1,.156-.2c.073-.086.132-.152.178-.2s.092-.092.142-.145.1-.107.148-.168a1.6,1.6,0,0,0,.138-.2,1.685,1.685,0,0,0,.1-.2,1.559,1.559,0,0,0,.063-.186,1.3,1.3,0,0,0,.035-.183,1.312,1.312,0,0,0,.008-.182,1.428,1.428,0,0,0-.021-.2c-.013-.068-.027-.128-.04-.182s-.031-.114-.055-.183-.047-.127-.068-.172-.052-.115-.1-.208-.082-.167-.106-.225a1.261,1.261,0,0,1-.05-.143.776.776,0,0,1-.022-.1c0-.028-.008-.076-.011-.144a.819.819,0,0,1,.016-.2,1.3,1.3,0,0,1,.087-.254c.046-.1.071-.161.077-.172s.066-.081.181-.212a1.639,1.639,0,0,1,.471-.354,2.079,2.079,0,0,1,.466-.194,1.565,1.565,0,0,1,.263-.037,1.259,1.259,0,0,1,.18.009.779.779,0,0,1,.168.042,1.438,1.438,0,0,1,.174.076,1.669,1.669,0,0,1,.159.093l.073.051s.032.028.088.078.113.106.172.164.106.1.14.129a1.04,1.04,0,0,0,.123.086,2.349,2.349,0,0,0,.343.145,3.044,3.044,0,0,0,.322.108,1.68,1.68,0,0,0,.214.01,1.489,1.489,0,0,0,.343-.036,1.225,1.225,0,0,0,.387-.162,1.771,1.771,0,0,0,.32-.235,1.742,1.742,0,0,0,.152-.163c.028-.035.052-.069.074-.1s.07-.105.146-.223l.13-.2a.884.884,0,0,1,.061-.075,1.054,1.054,0,0,1,.094-.095,2.6,2.6,0,0,1,.254-.167,2.344,2.344,0,0,1,.319-.17,1.853,1.853,0,0,1,.387-.081,2.177,2.177,0,0,1,.483-.015,2.268,2.268,0,0,1,.362.062,2.8,2.8,0,0,1,.393.152c.163.075.259.12.288.137s.074.044.138.087.105.068.122.078l.132.074c.07.042.126.077.167.105s.094.064.158.106l.113.075c.011.008.055.03.131.067a1.431,1.431,0,0,0,.164.073,1.64,1.64,0,0,0,.271.037,1.474,1.474,0,0,0,.34,0,.968.968,0,0,0,.184-.043.929.929,0,0,0,.119-.05,1.751,1.751,0,0,0,.2-.137,1.494,1.494,0,0,0,.185-.151,1.016,1.016,0,0,0,.089-.113l.066-.093c.01-.015.044-.095.1-.239a1.421,1.421,0,0,0,.1-.39,1.388,1.388,0,0,0,0-.3,1.11,1.11,0,0,0-.068-.263,1.458,1.458,0,0,0-.085-.189.877.877,0,0,0-.092-.127,1.52,1.52,0,0,0-.108-.119c-.033-.032-.088-.077-.162-.135a1.472,1.472,0,0,0-.308-.17,2.44,2.44,0,0,0-.3-.114c-.07-.021-.143-.046-.217-.075a2.145,2.145,0,0,1-.235-.112c-.082-.045-.133-.074-.155-.087s-.054-.034-.1-.065-.077-.059-.1-.082L52.9,27.2c-.007-.01-.044-.045-.109-.107s-.109-.105-.133-.126l-.083-.07c-.031-.026-.08-.063-.145-.112s-.13-.094-.2-.139a1.781,1.781,0,0,0-.2-.115,1.707,1.707,0,0,0-.179-.08c-.053-.019-.107-.036-.162-.052a1.789,1.789,0,0,0-.244-.043,1.861,1.861,0,0,0-.269-.016c-.073,0-.126.006-.16.01s-.075.011-.124.021-.163.04-.34.093-.3.092-.358.117-.175.078-.342.16-.3.144-.386.186-.183.081-.279.121-.171.069-.225.088-.12.038-.2.057-.189.044-.338.072-.271.046-.366.055-.2.015-.315.018-.231,0-.346,0-.2,0-.244-.008-.131-.014-.253-.031-.263-.035-.423-.052-.294-.027-.4-.034-.226-.013-.344-.016a5.518,5.518,0,0,0-1.061.105,3.637,3.637,0,0,0-.451.121q-.2.07-.458.186a3.831,3.831,0,0,0-.547.307,3.315,3.315,0,0,0-.468.364,2.313,2.313,0,0,0-.3.352c-.08.118-.126.19-.138.213s-.044.105-.1.243a3.869,3.869,0,0,0-.137.427,4.334,4.334,0,0,0-.1.651c-.028.285-.043.468-.046.548s-.008.172-.013.275-.009.176-.012.22-.009.18-.021.407-.022.4-.032.513-.026.22-.045.316-.038.173-.056.233-.041.133-.072.222a3.048,3.048,0,0,1-.2.406,2.521,2.521,0,0,1-.208.336,1.039,1.039,0,0,1-.145.138,1.662,1.662,0,0,1-.186.134,1.905,1.905,0,0,1-.2.1,1.687,1.687,0,0,1-.285.084,1.88,1.88,0,0,1-.287.049,1.263,1.263,0,0,1-.221,0,.878.878,0,0,1-.182-.032.493.493,0,0,1-.134-.075,3.685,3.685,0,0,1-.274-.258A2.55,2.55,0,0,1,39.1,33.5q-.054-.078-.054-.081s-.036-.048-.107-.139-.148-.194-.23-.308-.149-.206-.2-.271a1.564,1.564,0,0,0-.112-.135l-.048-.054c-.008-.01-.052-.051-.131-.123s-.149-.13-.209-.175-.132-.091-.218-.142-.157-.094-.215-.126-.116-.063-.172-.091-.111-.054-.167-.079l-.332-.158a2.83,2.83,0,0,1-.368-.2,1.81,1.81,0,0,1-.178-.131c-.04-.035-.079-.07-.117-.107s-.106-.108-.206-.214-.207-.22-.322-.344-.2-.214-.259-.267-.153-.134-.284-.241-.2-.163-.211-.168-.069-.047-.184-.12a2.521,2.521,0,0,0-.389-.2,2.962,2.962,0,0,0-.36-.128,2.379,2.379,0,0,0-.275-.058c-.088-.012-.161-.02-.22-.023s-.116-.006-.173-.007-.118,0-.182,0-.154.012-.27.025l-.306.035c-.088.011-.176.02-.264.029s-.172.013-.253.016a2.036,2.036,0,0,1-.245-.011c-.082-.009-.134-.014-.157-.018a.92.92,0,0,1-.122-.028,1.671,1.671,0,0,1-.3-.139c-.14-.075-.219-.119-.236-.13s-.058-.045-.123-.1a1.592,1.592,0,0,1-.2-.213c-.067-.084-.111-.142-.134-.174a1.377,1.377,0,0,1-.085-.145c-.034-.065-.06-.117-.077-.157s-.043-.107-.077-.207-.072-.215-.116-.346-.09-.251-.136-.36a2.574,2.574,0,0,0-.141-.292c-.049-.087-.079-.139-.091-.157s-.053-.064-.125-.142a2.143,2.143,0,0,0-.233-.215,2.755,2.755,0,0,0-.249-.175c-.085-.052-.183-.106-.3-.163A3.2,3.2,0,0,0,28.6,26.2c-.117-.043-.231-.08-.34-.11s-.193-.052-.249-.063-.109-.02-.162-.028-.156-.02-.31-.032-.254-.02-.3-.021-.106,0-.17,0-.2,0-.407-.007A.883.883,0,0,1,26.4,25.923Z"/>
      <path fill="#333" d="M50.15,34.415v.046a.179.179,0,0,1,0,.024.193.193,0,0,1,0,.024l0,.024,0,.023,0,.023,0,.024,0,.023-.005.022,0,.023-.006.024-.006.022-.007.022-.008.023-.007.023-.009.022-.008.021-.01.022a.2.2,0,0,1-.01.021l-.01.022-.011.021-.011.019-.011.021L50,34.975l-.013.02-.013.019-.014.019-.013.02-.015.018-.015.018-.014.019-.016.017-.016.017-.016.017-.018.016-.017.016-.017.016-.018.016-.019.015-.018.015-.019.013-.018.015-.02.012-.019.014-.021.012-.02.013-.021.011-.021.011-.021.01-.021.011-.022.008-.022.01-.021.009-.022.007-.023.009-.022.006-.023.007-.023.006-.022.005-.023.005-.024,0-.023,0-.023,0-.024,0-.023,0-.023,0h-.142l-.023,0-.024,0-.023,0-.023,0-.024,0-.023,0-.022-.005-.023-.005-.024-.006-.022-.007-.022-.006-.022-.009L48.74,35.4l-.022-.009-.023-.01-.022-.008-.021-.011-.021-.01-.02-.011-.021-.011-.02-.013-.021-.012-.02-.014-.018-.012-.02-.015-.018-.013-.019-.015-.018-.015-.018-.016-.018-.016-.017-.016-.016-.016-.017-.017-.016-.017-.016-.017-.015-.019-.014-.018-.015-.018-.014-.02-.013-.019-.013-.019-.013-.02-.012-.021-.011-.021-.012-.019-.011-.021-.009-.022a.1.1,0,0,1-.01-.021l-.01-.022-.009-.021-.008-.022-.008-.023-.007-.023-.007-.022L48.1,34.7l-.006-.024-.005-.023,0-.022,0-.023,0-.024,0-.023,0-.023,0-.024v-.071a.088.088,0,0,1,0-.023v-.07l0-.024,0-.024,0-.024,0-.022,0-.023,0-.024.005-.023.006-.022.007-.023.007-.023.007-.022.008-.022.008-.022.009-.022.01-.022.01-.021.009-.021.011-.021.012-.021.011-.021.012-.019.013-.021.013-.019.013-.019.014-.02.015-.019.014-.018.015-.017.016-.019.016-.017.017-.017.016-.016.017-.016.018-.016.018-.016.018-.015.019-.014.018-.014.02-.013.018-.014.02-.014.021-.012.02-.011.021-.012.02-.011.021-.01.021-.01.022-.01.023-.01.022-.008.022-.008.022-.007.022-.007.022-.006.024-.007.023-.006.022,0,.023-.005.024,0,.023,0,.023,0,.024,0h.023l.024,0h.094l.024,0H49.2l.023,0,.024,0,.023,0,.023,0,.024.005.023,0,.022.006.023.007.023.006.022.007.023.007.022.008.021.008.022.01.022.01.021.01.021.01.021.011.021.012.02.011.021.012.019.014.02.014.018.013.019.014.018.014.019.015.018.016.017.016.017.016.018.016.016.017.016.017.016.019.014.017.015.018.015.019.013.02.014.019.013.019.013.021.012.019.011.021.011.021.011.021.01.021.01.021.01.022.008.022.009.022.007.022.008.022.007.023.006.023.006.022,0,.023.005.024,0,.023,0,.022,0,.024,0,.024,0,.024a.169.169,0,0,1,0,.023.164.164,0,0,1,0,.023Z"/>
      <path fill="#333" d="M53.888,33.533v.024c0,.007,0,.015,0,.023a.164.164,0,0,1,0,.023v.024l0,.023,0,.023,0,.024,0,.023,0,.023-.005.024-.005.023-.006.022-.006.024-.006.022-.007.022-.009.022-.009.022-.008.022-.009.022-.01.021-.011.021-.01.021-.012.021-.011.021-.012.02-.013.019-.013.02-.014.019-.013.019-.015.02-.015.018-.014.017-.016.019-.016.017-.016.016-.018.017-.017.016-.017.016-.018.015-.018.016-.018.015-.02.013-.018.014-.02.013-.019.012-.021.014-.02.011-.021.012-.021.011-.021.01-.021.01-.022.01-.021.008-.022.009-.022.009-.022.007-.023.007-.023.007-.023.006-.022.006-.023.005-.024,0-.023,0-.023,0-.024,0-.023,0h-.047l-.023,0h-.047l-.025,0h-.046l-.024,0-.023,0-.023,0-.024,0-.023,0-.022-.005-.024-.006-.022-.006-.023-.007-.022-.007-.022-.007-.022-.009-.023-.009-.022-.008-.021-.01-.022-.01-.021-.01-.02-.011-.02-.012-.021-.011-.02-.014-.019-.012-.02-.013-.02-.014-.018-.013-.019-.015-.018-.016-.017-.015-.019-.016-.017-.016-.016-.017-.017-.016-.016-.017-.015-.019-.016-.017-.015-.018-.013-.02L52,34.151l-.013-.019-.013-.02-.013-.019-.011-.02-.012-.021-.012-.021-.011-.021-.009-.021-.01-.021-.01-.022-.009-.022-.008-.022-.008-.022-.007-.022-.007-.022-.007-.024-.005-.022-.006-.023-.005-.024,0-.023,0-.023,0-.024,0-.023,0-.023v-.165l0-.023,0-.024,0-.023,0-.024,0-.023.005-.022.006-.023.005-.024.007-.022.007-.022.007-.023.008-.022.008-.023.009-.02.01-.023.01-.022.009-.021.011-.021.012-.02.012-.02L51.958,33l.013-.02.013-.019.013-.02.015-.018.013-.019.015-.018.016-.019.015-.017.016-.017.017-.017.016-.016.017-.018.019-.014.017-.016.018-.015.019-.015.018-.015.02-.013.02-.014.019-.012.02-.012.021-.012.02-.012.02-.011.021-.011.022-.009.021-.01.022-.009.023-.009.022-.007.022-.009.022-.006.023-.007.022-.006.024,0,.022-.005.023-.005.024,0,.023,0,.023,0,.024,0,.023,0h.141l.024,0,.023,0,.024,0,.023,0,.023,0,.024.005.023.005.022,0,.023.006.023.007.023.006.022.009.022.007.022.009.021.009.022.01.021.009.021.011.021.011.021.012.02.012.021.012.019.012.02.014.018.013.02.015.018.015.018.015.018.016.017.014.017.018.018.016.016.017.016.017.016.017.014.019.015.018.015.019.013.019.014.019.013.019.013.02.012.021.011.02.012.02.01.021.011.023.01.02.009.023.008.02.009.023.009.022.007.023.006.022.006.022.006.024.005.023.005.022,0,.023,0,.024,0,.023,0,.024,0,.023v.023a.211.211,0,0,1,0,.025C53.887,33.517,53.888,33.525,53.888,33.533Z"/>
      <path fill="#333" d="M26.258,30.888v.023l0,.024v.046l0,.024,0,.023,0,.023,0,.024,0,.023,0,.023,0,.023-.006.023-.006.023-.007.022-.007.022-.008.023-.009.022-.008.022-.009.021-.01.022-.011.021-.011.021-.011.021-.011.02-.012.02-.013.02-.013.019-.014.02-.013.019-.015.019-.015.017-.014.019-.016.017-.016.019-.016.016-.018.017-.017.016-.017.016-.019.014-.017.016-.018.014-.02.015-.018.013-.02.014-.02.012-.021.012-.019.013-.021.011-.021.011-.021.011-.021.01-.022.009-.021.009-.022.009-.022.008-.023.008-.023.007-.022.006-.023.006-.022.006-.023.005-.024,0-.023,0-.024,0-.023,0-.023,0h-.188l-.024,0-.023,0-.023,0-.024,0-.023,0-.022-.005-.024-.006-.023-.006-.022-.006-.022-.007-.022-.008-.022-.008-.023-.009-.022-.009-.021-.009-.022-.01-.021-.011-.021-.011L24.7,31.8l-.02-.013-.02-.012-.021-.012-.018-.014-.02-.013-.018-.015-.019-.014-.018-.016-.019-.014-.017-.016-.017-.016-.016-.017-.017-.016-.016-.019-.015-.017-.016-.019-.015-.017-.013-.019-.015-.019-.013-.02-.013-.019-.013-.02-.013-.02-.011-.02-.011-.021-.011-.021-.01-.021-.009-.022-.01-.021-.009-.022-.008-.022-.008-.023-.007-.022-.008-.022-.006-.023-.006-.023,0-.023-.005-.023,0-.023,0-.024,0-.023,0-.023,0-.024v-.164l0-.024,0-.023,0-.024,0-.023,0-.023.005-.024,0-.022.006-.023.006-.022.008-.024.007-.022.008-.022.008-.022.009-.022.01-.021.009-.022.01-.021.011-.021.011-.021.011-.019.013-.021.013-.02.013-.02.013-.019.015-.019.013-.018.015-.019.016-.018.015-.017.016-.018.017-.017.016-.017.017-.016.017-.016.019-.015.018-.014.019-.015.018-.015.02-.013.018-.014.021-.012.02-.013.02-.012.02-.011.021-.011.021-.011.022-.01.021-.01.022-.008.023-.009.022-.009.022-.007.022-.007.022-.006.023-.007.024,0,.022,0,.023-.005.024,0,.023,0,.023,0,.024,0,.023,0h.023l.024,0h.048l.023,0h.023l.024,0a.085.085,0,0,1,.023,0l.023,0,.024,0,.023,0,.024.005.023,0,.022,0,.023.007.022.006.023.007.023.007.022.009.022.009.021.008.022.01.021.01.021.011.021.011.021.011.019.012.021.013.02.012.02.014.018.013.02.015.018.015.017.014.019.015.017.016.017.016.018.017.016.017.016.018.016.017.014.018.015.019.015.018.013.019.014.019.013.02.013.02.012.021.011.019.011.021.011.021.011.021.01.022.009.021.008.022.009.022.008.022.008.022.006.024.006.022.006.023,0,.022,0,.024,0,.023,0,.023,0,.024,0,.023,0,.024v.046Z"/>
      <path fill="#333" d="M22.6,31.938v.093l0,.023,0,.024,0,.023,0,.023,0,.024-.005.023,0,.022-.006.024-.006.023-.008.022-.007.022-.008.022-.008.023-.009.022-.008.021-.01.022-.011.021-.01.02-.012.021-.011.021-.013.02-.012.02-.014.019-.013.02-.014.018-.014.02-.015.017-.015.019-.016.017-.016.018-.016.016-.017.018-.017.016-.017.016-.019.014-.017.016-.02.014-.018.014-.019.014-.019.014-.02.012-.021.012-.02.012-.02.011-.021.012-.021.011L22,32.9l-.022.01-.021.009-.022.008-.022.009-.023.007-.023.008-.022.006-.023.006-.022.006-.024,0-.023,0-.024.005-.023,0-.023,0-.024,0-.023,0h-.141l-.024,0-.023,0-.023,0-.024,0-.023-.005-.023,0-.023,0-.023-.006-.023-.006-.022-.006-.023-.008-.022-.007-.022-.009-.022-.008-.022-.009-.021-.01-.022-.009-.021-.011-.021-.012-.021-.011-.019-.012L21,32.829l-.02-.012-.02-.014-.019-.014-.019-.014-.018-.014-.018-.016-.019-.014-.017-.016-.017-.016-.016-.018-.018-.016-.015-.018-.015-.017-.016-.019-.015-.017-.013-.02-.015-.018-.014-.02-.012-.019-.014-.02-.012-.02-.011-.021-.011-.021-.011-.02-.01-.021-.01-.022-.01-.021-.008-.022-.009-.023-.007-.022-.008-.022-.007-.022-.006-.023-.006-.024,0-.022,0-.023,0-.024,0-.023,0-.023,0-.024,0-.023v-.165l0-.023,0-.023,0-.024,0-.023,0-.023,0-.024,0-.022.006-.023.006-.022.007-.024.008-.022.007-.022.009-.022.008-.022.01-.021.01-.022.01-.021.011-.021.011-.021.011-.02.012-.021.014-.019.012-.02.014-.02.015-.018.013-.018.015-.019.016-.018.015-.018.015-.017.018-.017.016-.017.017-.016.017-.016.019-.015.018-.015.018-.014.019-.015.019-.014.02-.013.02-.012.02-.013.019-.012.021-.011.021-.011.021-.011.022-.01.021-.01.022-.009.022-.008.022-.009.022-.007.023-.007.022-.007.023-.006.023,0,.023,0,.023-.005.023,0,.024,0,.023,0,.023,0,.024,0h.023l.023,0h.048l.024,0h.023l.023,0a.093.093,0,0,1,.024,0l.023,0,.023,0,.024,0,.023.005.024,0,.022,0,.023.006.022.007.023.007.023.007.022.009.022.008.021.009L22,31l.021.01.021.011.021.011.02.011.02.012.021.013.02.012.019.013.019.014.018.015.02.014.017.015.019.015.017.016.017.016.017.017.016.017.016.017.016.018.015.018.015.019.014.018.014.018.013.02.014.02.012.019.013.021.011.02.012.021.01.021.011.021.01.022.008.021.009.022.008.022.008.022.007.022.008.024.006.022.006.023,0,.022.005.024,0,.023,0,.023,0,.024,0,.023,0,.023v.072Z"/>
      <path fill="#333" d="M23.7,35.927V36l0,.023v.023l0,.024,0,.023,0,.023-.005.024,0,.023,0,.023-.006.023-.006.023-.006.022-.007.022-.009.022-.007.022-.01.023-.009.022-.01.021-.011.021-.01.02-.011.021-.012.021-.012.02-.012.02-.014.019-.014.02-.013.018-.015.02-.015.018-.014.018-.016.018-.016.017-.016.016-.017.017-.018.016-.017.016-.017.015-.019.016-.018.014-.02.014-.018.014-.02.013-.019.013-.02.012-.021.012-.021.013-.021.011-.021.01-.021.009-.022.01-.021.009-.022.008L23,36.921l-.022.007-.023.008-.022.006-.023.006-.023.006-.023.005-.024,0-.023.005-.022,0-.023,0-.025,0-.023,0h-.142l-.023,0-.023,0-.024,0-.023,0-.024-.005-.022,0-.023-.005-.023-.006-.022-.006-.024-.006-.022-.008-.022-.007-.022-.009-.022-.008L22.24,36.9l-.02-.01-.023-.009-.02-.01-.021-.011-.02-.013-.021-.012-.02-.012-.019-.013-.02-.013-.02-.014-.018-.014L22,36.75l-.019-.016-.017-.015-.019-.016-.015-.016-.018-.017-.016-.016-.016-.017-.016-.018L21.85,36.6l-.015-.018-.015-.02-.015-.018-.012-.02-.013-.019-.013-.02-.012-.02-.012-.021-.011-.021-.012-.02-.009-.021-.01-.021-.01-.022-.009-.023-.008-.022-.008-.022-.007-.022-.007-.022-.006-.023-.005-.023-.007-.023,0-.023,0-.024,0-.023,0-.023,0-.024V36.02l0-.023v-.118l0-.024v-.023l0-.023,0-.024,0-.023,0-.024,0-.022.007-.023.005-.023.006-.022.007-.024.007-.022.008-.022.008-.022.009-.022.01-.021.01-.022.009-.021.012-.021.011-.021.012-.02.012-.021.013-.019.013-.02.012-.02.015-.018.015-.019a.119.119,0,0,1,.015-.018l.014-.018.016-.018.016-.017.016-.017.018-.017.015-.016.019-.016.017-.015L22,35.126l.018-.014.018-.015.02-.014.02-.013.019-.013.02-.012.021-.012.02-.011.021-.011L22.2,35l.023-.01.02-.01.023-.009.022-.008.022-.009.022-.007.022-.006.024-.008.022-.006.023-.005.023,0,.022-.005.024,0,.023,0,.024,0,.023,0,.023,0,.025,0H22.7l.024,0,.023,0,.025,0,.023,0,.022,0,.023,0,.024.005.023,0,.023.005.023.006.022.008.023.006.022.007.022.009.022.008.021.009.022.01.021.01.021.011.021.011.021.011.021.012.02.012.019.013.02.013.018.014.02.015.018.014.019.015.017.015.017.016.018.016.017.017.016.017.016.017.016.018.014.018.015.018.015.019.013.018.014.02.014.02.012.019.012.021.012.02.011.021.01.021.011.021.01.022.009.022.01.021.007.022.009.022.007.022.006.024.006.022.006.023,0,.023,0,.022.005.024,0,.023,0,.024,0,.023v.023l0,.024v.048Z"/>
      <path fill="#333" d="M24.871,33.575v.093l0,.024,0,.023,0,.023,0,.024,0,.023-.005.024,0,.023-.006.022-.006.023-.008.023-.007.022-.008.022-.008.022-.009.022-.01.022-.01.021-.009.021-.011.021-.011.021-.013.021-.011.019-.013.02-.013.02-.013.019-.015.02-.013.018-.015.019-.016.017-.015.018-.016.018-.017.017-.016.016-.017.016-.017.016-.019.016-.018.015-.019.014-.018.014-.02.013-.02.014-.019.013-.02.013-.02.011-.02.012-.021.011-.021.01-.022.01-.021.01-.022.008-.023.009-.022.008-.022.008-.022.007-.023.006-.022.006-.024.007-.022,0-.023,0-.024.005-.023,0-.023,0-.024,0h-.188l-.023,0-.023,0-.024,0-.023-.005-.024,0-.023,0-.022-.007-.023-.006-.022-.006-.024-.007-.022-.008-.022-.008-.022-.009-.021-.008-.022-.01-.021-.01-.021-.01-.021-.011-.021-.012-.02-.011-.02-.013-.02-.013-.02-.014-.018-.013-.02-.014-.018-.014-.018-.015-.018-.016-.017-.016-.017-.016-.018-.016-.016-.017-.016-.018-.016-.018-.014-.017-.015-.019L23,34.213l-.013-.02-.014-.019-.013-.02-.013-.02-.012-.019-.011-.021-.012-.021-.01-.021-.011-.021-.01-.021-.009-.022-.008-.022-.009-.022-.008-.022-.008-.022-.006-.023-.006-.023-.006-.022,0-.023,0-.024-.005-.023,0-.024,0-.023,0-.023,0-.024v-.046l0-.024v-.023l0-.023V33.5l0-.024,0-.023,0-.023,0-.024.005-.023,0-.022,0-.024.006-.023.006-.022.006-.022.008-.024.008-.022.009-.022.008-.021.009-.022.01-.021.011-.022.01-.021.012-.021.011-.019.012-.021.013-.02.013-.02.014-.018L23,32.96l.015-.018.015-.019.014-.018.016-.017.016-.017.016-.018.018-.016.017-.017.017-.015.018-.016.018-.014.018-.015.02-.014.018-.014.02-.013.02-.013.02-.012.02-.013.021-.011.021-.011.021-.011.021-.01.022-.008.021-.01.022-.009.022-.007L23.5,32.6l.024-.006.022-.007.023-.006.022-.005.023,0,.024-.005.023,0,.024,0,.023,0,.023,0,.024,0H23.9l.023,0,.024,0,.023,0,.023,0,.024,0,.023.005.022,0,.024.005.022.006.023.007.022.006.022.009.022.007.023.009.022.01.021.008.022.01.021.011.021.011.02.011.02.013.02.012.019.013.02.013.02.014.018.014.019.015.018.014.019.016.017.015.017.017.016.016.017.018.016.017.015.017.016.018.015.019.013.018.015.02L24.69,33l.013.02.013.02.011.021.013.019.011.021.011.021.009.022.01.021.01.022.009.021.008.022.008.022.007.024.008.022.006.022.006.023,0,.024.005.022,0,.023,0,.024,0,.023,0,.023,0,.024v.071Z"/>
      <path fill="#333" d="M18.068,36.556v.1l0,.023,0,.023,0,.024,0,.023,0,.023,0,.023-.005.023-.006.023-.006.022-.008.022-.007.024-.007.022L18,36.948l-.008.021-.01.022-.01.021-.01.022-.011.021-.011.021-.011.02-.013.02-.013.02-.012.02-.014.018-.015.02-.013.018-.015.019-.016.018-.015.017-.016.018-.017.017-.016.016-.017.017-.017.015-.019.016-.018.015-.019.014-.018.014-.02.015-.018.012-.021.013-.02.013-.019.012-.021.011-.021.011-.021.011-.022.01-.021.009-.022.009-.022.009-.022.007-.023.009-.022.006-.022.008-.023.006-.023.005-.023,0-.023,0-.023,0-.024,0-.023,0-.023,0-.024,0h-.046l-.025,0-.023,0h-.047l-.023,0-.024,0-.023,0-.024,0-.023,0-.023,0-.024,0-.022-.005-.023-.006-.022-.008-.022-.006-.024-.009-.022-.007-.021-.009-.022-.009-.022-.009-.021-.01-.021-.011-.021-.011-.021-.011-.019-.012-.021-.013-.02-.013-.019-.012-.019-.015-.018-.014-.02-.014-.017-.015-.019-.016-.017-.015-.017-.017-.017-.016-.016-.017-.016-.018-.016-.017-.015-.018-.015-.019-.014-.018-.014-.02-.014-.018-.013-.02-.012-.02-.013-.02-.011-.02-.011-.021-.011-.021-.011-.022-.01-.021-.008-.022-.009-.021-.009-.022L16.04,36.9a.1.1,0,0,1-.007-.024l-.008-.022-.006-.022-.006-.023-.005-.023,0-.023L16,36.744l0-.023,0-.024,0-.023,0-.023v-.165l0-.023,0-.024,0-.023,0-.024L16,36.369l0-.023.005-.024.006-.022.006-.023.008-.022.007-.022.007-.022.009-.023.009-.022.008-.022.01-.021.011-.021.011-.021.011-.02.011-.021.013-.02.012-.02.013-.019.014-.02.014-.02.014-.018.015-.019.015-.017.016-.018.016-.017.016-.018.017-.016.017-.016.017-.016.019-.016.017-.014.018-.015.02-.014.019-.013.019-.014.02-.013.021-.012.019-.011.021-.013.021-.011.021-.01.021-.01.022-.009.022-.01.021-.008.022-.008.024-.008.022-.007.022-.006.023-.006.022-.006.024-.005.023,0,.023,0,.024,0,.023,0,.024,0h.188l.023,0,.023,0,.024,0,.023,0,.023,0,.023.005.023.006.023.006.022.006.022.007.023.008.022.008.022.008.022.01.021.009.022.01.021.01.021.011.021.013.019.011.02.012.021.013.018.014.02.013.018.014.019.015.018.014.019.016.017.016.017.016.016.016.017.018.016.017.015.018.016.017.015.019.013.018.015.02.014.02L17.9,36l.013.02.013.02.011.021.011.02.011.021.01.021.01.021.01.022.008.022.009.023.007.022.007.022.008.022.006.023.006.022.005.024,0,.023,0,.023,0,.024,0,.023,0,.024,0,.023v.07Z"/>
      <path fill="#333" d="M26.552,46.633v.025l0,.023v.047l0,.023,0,.024,0,.023,0,.023,0,.024,0,.023-.005.022-.006.024-.006.022-.006.023-.008.022L26.488,47l-.009.023-.009.022-.008.021-.01.022-.011.021-.01.02-.012.021-.011.021-.013.02-.012.02-.013.019-.014.02-.013.018-.015.019-.015.018-.015.019-.016.017-.016.017-.016.017-.017.018-.017.016-.017.016-.019.014-.017.015-.018.015-.02.015-.018.013-.02.014-.02.012-.021.012-.019.012-.021.011-.021.012-.021.011-.021.009-.022.01-.021.009-.022.009-.022.008-.022.007-.024.008-.022.006-.023.006-.022.005-.024,0-.023.005-.023,0-.024,0-.023,0-.023,0-.024,0h-.141l-.024,0-.023,0-.023,0-.024,0-.023,0-.023-.005-.022,0-.024-.005-.022-.006-.023-.006-.022-.008-.023-.007-.022-.008-.022-.009L25.1,47.6l-.021-.01-.022-.009-.021-.011-.021-.012-.021-.011-.019-.012-.02-.012-.02-.012-.019-.014-.02-.013-.018-.015-.019-.015-.018-.015-.019-.014-.017-.016-.017-.016-.016-.018-.017-.017-.016-.017-.015-.017-.016-.019-.015-.018-.013-.019-.015-.018-.014-.02-.012-.019-.013-.02-.012-.02-.012-.021-.011-.021-.011-.02-.01-.021-.01-.022-.009-.021-.009-.022L24.529,47l-.007-.022-.007-.022-.008-.023-.006-.022L24.5,46.89l-.005-.022,0-.023,0-.024,0-.023,0-.023,0-.024,0-.023v-.165l0-.023,0-.023,0-.024,0-.023,0-.023,0-.024L24.5,46.4l.006-.023.006-.022.008-.024.007-.022.007-.022.009-.022.009-.022.009-.021.01-.022.01-.021.011-.021.011-.021.012-.021.012-.02.013-.019.012-.02.014-.02.015-.018L24.689,46l.015-.019.016-.018.015-.018.016-.017.017-.017.016-.017.017-.016.017-.016.019-.015.018-.015.019-.014.018-.015.02-.014.019-.013.02-.012.02-.013.019-.012.021-.011.021-.011.021-.011.022-.01.021-.01.022-.008.022-.009.022-.009.023-.007.022-.007.023-.007.022-.006.024,0,.022-.006.023,0,.023,0,.024,0,.023,0,.023,0h.047l.025,0h.046l.024,0H25.6l.023,0,.023,0,.024,0,.023,0,.023,0,.024.006.022,0,.023.006.022.007.024.007.022.007.022.009.022.009.021.008.022.01.021.01.021.011.021.011.021.011.019.012.021.013.02.012.02.013.018.014.02.015.018.014.017.015.019.015.017.016.017.016.017.017.016.017.016.017.016.018.015.018.015.019.015.018.013.018.014.02.013.02.012.019.013.02.011.021.012.021.01.021.011.021.01.022.008.021.009.022.009.022.008.022.008.022.006.024.006.022.006.023.005.022,0,.024,0,.023,0,.023,0,.024,0,.023,0,.023v.047Z"/>
      <path fill="#333" d="M24.956,49.405v.047l0,.023V49.5l0,.023,0,.024,0,.023,0,.023,0,.023,0,.023-.005.023-.006.022-.006.024-.007.022-.008.022-.007.023-.009.021-.008.022-.009.023-.01.02-.011.023-.011.02-.011.02-.011.021-.012.02-.013.021-.013.019-.014.019-.013.019-.015.019-.015.018L24.7,50.1l-.016.017-.016.017-.016.017-.017.016-.018.016L24.6,50.2l-.018.016-.018.015-.019.015-.019.013-.018.014-.02.013-.019.014-.021.012-.02.011-.021.012-.021.012-.021.009-.021.011-.022.009-.022.01-.021.008-.022.008-.022.007-.023.008-.022.007-.024.005-.022.006-.023.005-.024,0-.023,0-.023,0-.024,0-.023,0-.023,0h-.142l-.023,0-.023,0-.024,0-.023,0-.024,0-.023,0-.022-.005-.023-.006-.024-.005-.022-.007-.022-.008-.022-.007-.022-.008-.022-.008-.023-.01-.02-.009-.023-.011-.02-.009-.021-.012-.021-.012-.02-.011-.02-.012-.019-.014-.02-.013-.02-.014-.018-.013-.018-.015-.019-.015-.018-.016-.018-.016-.017-.016-.016-.016-.017-.017-.016-.017-.015-.017-.016-.019-.014-.018-.014-.019-.015-.019-.013-.019-.013-.019-.013-.021-.012-.02L23,49.924l-.011-.02-.011-.02-.01-.023-.01-.02-.01-.023-.009-.022-.008-.021-.008-.023-.007-.022-.007-.022-.006-.024-.007-.022-.005-.023,0-.023,0-.023,0-.023,0-.023,0-.024,0-.023,0-.025v-.116l0-.025,0-.023,0-.024,0-.023,0-.023,0-.022,0-.024.005-.023.007-.022.006-.024.007-.022.007-.022.008-.023.008-.021.009-.022.01-.022.01-.021.01-.021.011-.022L23,48.91l.011-.021.012-.02.013-.02.013-.02.013-.019.015-.019.014-.019.014-.018.016-.019.015-.017.016-.017.017-.017.016-.016.017-.016.018-.016.018-.016.019-.015.018-.015.018-.013.02-.014.02-.013.019-.014.02-.012.02-.011.021-.012.021-.011.02-.01.023-.01.02-.01.023-.01.022-.008.022-.008.022-.007.022-.007.022-.007.024-.006.023-.006L23.7,48.4l.023-.005.024,0,.023,0,.024,0,.023,0,.023,0,.024,0h.094l.024,0,.023,0,.023,0,.024,0,.023,0,.023,0,.024.005.023.005.022.006.024.006.022.007.023.007.022.007.022.008.021.008.022.01.022.01.021.01.021.01.021.011.021.012.02.011.021.012.019.014.02.013.018.014.019.013.019.015.018.015.018.016.017.016.018.016.017.016.016.017.016.017.016.019.014.017.015.018.015.019.013.019.014.019.013.02.013.02.012.02.011.021.011.02.011.022.011.021.01.021.009.022.008.022.009.021.007.023.008.022.007.022.006.024.006.022.005.023,0,.024,0,.023,0,.022,0,.023,0,.024,0,.024v.024l0,.023Z"/>
      <path fill="#333" d="M22.059,47.137v.024l0,.024v.047l0,.023,0,.024,0,.023,0,.023,0,.024-.005.023,0,.022-.006.024-.006.022-.008.023L22,47.485,22,47.507l-.009.023-.009.022-.008.021-.01.022-.011.021-.011.02-.011.021-.011.02L21.9,47.7l-.012.02-.013.019-.014.02-.013.018-.015.019-.015.018-.015.019-.016.017-.016.017-.016.017-.017.018-.017.016-.017.016-.019.014-.017.015-.018.015-.02.015L21.614,48l-.02.014-.02.012-.021.012-.019.012-.021.011-.021.012-.021.011-.021.009-.022.01-.021.009-.022.009-.022.008-.024.007-.022.008-.022.006-.023.006-.022.005-.024.005-.023,0-.023,0-.024,0-.023,0-.023,0-.024,0h-.141l-.023,0-.024,0-.023,0-.024,0-.023,0-.023,0-.022-.005-.024-.005-.023-.006-.022-.006-.022-.008-.023-.007-.022-.008-.022-.009-.022-.009-.021-.01-.022-.009-.021-.011-.021-.012-.021-.011-.019-.012-.02-.012-.021-.012L20.419,48l-.02-.013-.018-.015-.019-.015-.018-.015-.019-.014-.017-.016-.017-.016-.016-.018-.017-.017-.016-.017-.015-.017-.016-.019-.015-.018-.013-.019-.015-.018-.014-.02-.012-.019-.013-.02-.013-.021-.011-.02-.011-.021-.011-.02-.01-.021-.01-.022-.009-.021-.009-.022-.009-.023-.007-.022-.007-.022-.008-.023-.006-.022L20,47.394l0-.022,0-.023,0-.024,0-.023,0-.023,0-.024,0-.023v-.165l0-.023,0-.023,0-.024,0-.023,0-.023,0-.024,0-.022.006-.023.006-.022.008-.024.007-.022.007-.022.009-.022.009-.022.009-.021.01-.022.01-.021.011-.021.011-.021.011-.021.013-.02.013-.019.012-.02.014-.02.015-.018.013-.02.015-.017.016-.018.015-.018.016-.018.017-.016.016-.017.017-.016.017-.016.019-.015.018-.016.019-.013.018-.015.02-.014.018-.013.021-.012.02-.013.019-.012.021-.011.021-.011.021-.011.022-.01.021-.01.022-.008.022-.009.022-.009.023-.007.022-.007.022-.007.023-.006.024-.006.022-.005.023,0,.023-.005.024,0,.023,0,.024,0h.046l.024,0h.048l.023,0h.047l.023,0,.023,0,.024,0,.023.005.023,0,.024.005.022.006.023.006.022.007.022.007.024.007.022.009.022.009.021.008.022.01.021.01.021.011.021.011.021.011.019.012.021.013.02.012.02.013.018.014.02.015.018.014.017.015.019.015.017.016.017.016.017.017.016.016.016.018.016.018.015.018.015.017.015.02.013.018.014.02.013.02.012.019.013.02.011.021.011.021.011.021.011.021.01.022.008.021.009.022.009.022.008.022.008.022.006.024.006.022.006.023,0,.022.005.024,0,.023,0,.023,0,.024,0,.023,0,.023v.047Z"/>
      <path fill="#333" d="M21.3,35.3v.023l0,.025v.047l0,.023,0,.023,0,.024,0,.023,0,.023-.005.024,0,.022-.006.023-.006.022-.006.024-.008.022-.008.022-.009.022-.009.022-.008.021-.01.022-.011.021-.01.021-.012.021-.011.02-.013.021-.012.019-.013.02-.014.019-.013.019-.015.018-.015.019-.015.018-.016.017-.016.018L21,36.041l-.017.017-.017.016-.017.016-.019.015-.017.015-.018.014-.02.015-.018.014-.02.013-.02.012L20.8,36.2l-.019.012-.021.011-.021.011-.021.011-.021.01-.022.01-.021.008-.022.009-.022.009-.022.007-.024.007-.022.007-.023.006-.022,0-.024.005-.023,0-.023,0-.024,0-.023,0-.023,0-.024,0h-.023l-.023,0h-.047l-.025,0h-.023l-.023,0-.024,0-.023,0-.024,0-.023,0-.023,0-.022-.005-.024,0-.022-.006-.023-.007-.022-.007-.022-.007-.023-.009-.022-.009-.022-.008-.021-.01-.022-.01-.021-.011-.021-.011-.021-.011-.019-.012-.02-.013-.02-.012-.019-.013-.02-.014-.018-.015-.019-.014-.018-.015-.019-.015-.017-.016-.017-.016-.016-.017-.017-.017-.016-.018-.015-.017-.016-.018-.015-.019-.013-.018-.015-.019L19.4,35.9l-.012-.02-.013-.019-.013-.021-.011-.02-.011-.021-.011-.021-.01-.021-.009-.022-.01-.021-.009-.022-.009-.022-.007-.022-.007-.022-.008-.024-.006-.022-.006-.023,0-.022,0-.024,0-.023,0-.023,0-.024,0-.023,0-.023v-.165l0-.023,0-.024,0-.023,0-.024,0-.023,0-.023,0-.022.006-.024.006-.023.008-.022.007-.022.007-.022.009-.023.009-.022.01-.021.009-.022.01-.021.011-.021.011-.02.011-.021.013-.02.013-.02.012-.019.014-.02.015-.018.013-.02.015-.019.016-.017.015-.018.016-.017.017-.016.016-.018.017-.016.017-.016.019-.014.018-.016.019-.014.018-.015.02-.013.019-.014.02-.012.02-.012.019-.012.021-.012.021-.011.021-.011.022-.01.021-.009.022-.009.022-.009.023-.008.022-.008.022-.007.023-.006L20,34.3l.024-.006.022-.005.023,0,.023-.005.024,0,.023,0,.024,0,.023,0h.141l.024,0,.023,0,.023,0,.024,0,.023.005.023,0,.024.005.022.006.023.006.022.006.024.007.022.008.022.008.022.009.021.009.022.009.021.01.021.011.021.011.021.012.019.012.021.012.02.012.02.014.018.013.02.015.018.014.017.016.019.014.017.016.017.016.017.018.016.016.016.017.016.018.015.019.015.017.015.02.013.018.014.02.013.019.012.02.013.02.011.021.012.02.01.021.011.021.01.022.008.021.009.022.009.023.008.022.008.022.006.022.006.023.006.024,0,.022.005.023,0,.023,0,.024,0,.023,0,.024,0,.023v.047Z"/>
      <path fill="#333" d="M16.137,38.949v.072l0,.023,0,.023,0,.024,0,.023,0,.023,0,.024,0,.022-.006.023,0,.024-.008.022-.006.023-.007.022-.007.022-.009.022-.009.021-.01.022-.009.023-.01.021-.011.02-.011.021-.013.02-.012.021-.012.02-.014.019-.013.02-.014.018-.013.019-.016.018-.015.019-.016.017-.016.017-.016.017-.017.017-.016.016-.019.016-.017.015-.018.015-.019.015-.018.014-.02.014-.019.013-.02.013-.02.012-.021.012-.019.011-.021.011-.021.012-.022.009-.021.01-.022.009-.022.008-.023.009-.022.007-.022.007-.023.007-.022.006-.024,0-.023.005-.022.005-.023,0-.024,0-.023,0-.024,0-.023,0h-.141L15,40l-.023,0-.025,0-.023,0-.022,0-.023-.005-.024-.005-.023,0-.022-.006-.022-.007-.024-.007-.022-.007-.022-.009-.022-.008-.021-.009-.022-.01L14.64,39.9l-.021-.012-.021-.011-.021-.011-.021-.012-.019-.012-.02-.013-.02-.013-.018-.014-.02-.014-.018-.015-.019-.015-.017-.015-.017-.016-.017-.016-.017-.017-.016-.017-.016-.017-.016-.017-.015-.019-.015-.018-.015-.019-.013-.018-.014-.02-.013-.019-.012-.02-.013-.021-.012-.02-.011-.021-.011-.02-.01-.021-.01-.023-.009-.022-.009-.021-.008-.022-.008-.022-.008-.022-.006-.023-.006-.022-.006-.024-.005-.023-.005-.022,0-.024,0-.023,0-.023,0-.024v-.023l0-.023V39l0-.024v-.024l0-.023V38.9l0-.024v-.023l0-.023,0-.024,0-.023,0-.024.005-.023.005-.023.006-.022.006-.024.006-.022.008-.022.008-.022.008-.022.009-.022.009-.022.01-.021.01-.021.011-.021.011-.021.012-.021.013-.02.012-.019.013-.02.014-.02.013-.018.015-.02.015-.018.015-.017.016-.019.016-.017.016-.016.017-.017.017-.016.017-.016.017-.015.019-.016.018-.015.02-.013.018-.014.02-.013.02-.013.019-.012.021-.012.021-.012.021-.011.021-.01.021-.01.022-.01.021-.009.022-.008.022-.009.022-.007.024-.008.022-.006.022-.006.023-.006.024-.005.023,0,.022-.005.023,0,.025,0,.023,0h.024l.023,0h.093l.025,0h.023l.024,0,.023,0,.024,0,.023.005.022,0,.023.005.024.006.022.006.023.006.022.008.022.007.023.009.022.008.022.009.021.01.022.01.021.01.021.011.019.012.021.012.02.012.02.013.019.013.02.014.018.015.019.013.018.016.017.015.019.016.016.016.017.017.016.016.016.017.016.019.016.017.015.018.013.02.014.018.013.02.014.02.012.019.012.02.013.021.011.021.011.021.01.021.009.021.01.022.009.022.009.022.007.022.007.022.006.022.008.024,0,.022.006.023,0,.023,0,.024,0,.023,0,.024,0,.023,0,.023,0,.024v.046Z"/>
      <path fill="#333" d="M12.484,41.847v.071l0,.023,0,.024,0,.023,0,.023,0,.024,0,.023,0,.022-.007.024-.005.023-.006.022-.007.023-.007.023-.008.022-.008.022-.009.021-.01.022-.01.022-.01.021-.011.021-.011.021-.012.019-.011.021-.014.02-.012.02-.013.019-.015.019-.014.018-.014.019-.016.018-.015.017-.016.017-.017.018-.016.017-.017.016-.019.016-.017.015-.019.014-.018.015-.018.015-.02.013-.02.014L12,42.739l-.02.012-.021.013-.02.011-.021.011L11.9,42.8l-.022.01-.021.01-.022.008-.022.009-.022.008-.022.008-.022.006-.023.007-.023.006-.023.005-.022,0-.024.005-.023,0-.023,0-.024,0-.023,0-.023,0h-.142l-.023,0-.023,0-.024,0-.023,0-.023,0-.024-.005-.023,0-.022-.005-.024-.006-.022-.007-.023-.006-.022-.008-.022-.008-.022-.009-.021-.008-.022-.01-.021-.01-.021-.011-.021-.011-.021-.011-.021-.013-.02-.012-.019-.012-.02-.014-.018-.013-.02-.015-.019-.015-.017-.014-.018-.015-.017-.016-.018-.016-.017-.017-.016-.018-.016-.017-.016-.017-.015-.018-.014-.019-.015-.018-.014-.019-.013-.019-.014-.02-.012-.02-.012-.021-.012-.019-.012-.021-.009-.021L10.5,42.3l-.01-.022-.009-.022-.008-.021-.009-.022-.009-.022-.007-.023-.006-.023-.006-.022-.006-.023-.005-.024,0-.022-.005-.023,0-.024,0-.023,0-.023,0-.024v-.023l0-.023v-.072l0-.023v-.023l0-.024,0-.023,0-.023,0-.024.005-.023,0-.024.005-.023.006-.022.006-.023.006-.022.007-.023.009-.022.009-.022.008-.022.009-.022.01-.021.011-.021.009-.021.012-.021.012-.021.012-.019.012-.02.014-.02.013-.019.014-.019.015-.019.014-.019.015-.017.016-.018.016-.018.016-.016.017-.017.018-.016.017-.016.018-.015.017-.016.019-.014.02-.014.018-.013.02-.014.019-.012.02-.012.021-.013.021-.012.021-.011.021-.01.021-.01.022-.01.021-.008.022-.009.022-.008.022-.008.023-.007.022-.006.024-.006.022-.007.023,0,.024,0,.023-.005.023,0,.024,0,.023,0h.188l.023,0,.024,0,.023,0,.023.005.024,0,.022,0,.023.007.023.006.023.006.022.007.022.008.022.008.022.009.022.008.021.01.022.01.021.01.021.011.02.012.021.013.02.012.019.012.02.014.02.013.018.015.018.013.019.016.017.015.019.016.017.016.016.017.017.016.016.018.015.018.016.017.014.019.014.019.015.019.013.019.012.02.014.02.011.019.012.021.011.021.011.021.01.021.01.021.01.022.009.022.008.022.008.022.007.023.007.022.006.023.005.022.007.023,0,.024,0,.023,0,.024,0,.023,0,.023,0,.024,0,.023v.047Z"/>
      <path fill="#333" d="M30.14,48.663v.025l0,.024v.051l0,.024,0,.025,0,.024,0,.025,0,.024a.184.184,0,0,1,0,.025l0,.023-.006.025-.006.023-.008.025-.008.023-.008.024-.008.023-.01.022-.01.023-.01.023-.011.022-.012.022L30,49.21l-.012.022-.014.021-.012.021-.015.021-.014.019-.014.021-.015.02-.016.018-.016.02-.017.019-.016.018-.017.017-.019.019-.017.016-.019.017-.019.016-.019.016-.019.016-.02.015-.021.013-.019.015-.021.013-.021.013-.022.013-.021.012-.022.011-.023.012-.023.011-.022.009-.023.01-.024.009-.023.009-.023.007a.109.109,0,0,1-.024.007l-.023.008-.025.006-.023.006-.025,0-.024.005-.025.005-.024,0-.025,0-.025,0-.024,0h-.149l-.025,0-.024,0-.026,0-.025,0-.023-.005-.025-.005-.024,0-.025-.006-.023-.006-.025-.008-.023-.007-.023-.007-.024-.009-.023-.009-.022-.01-.024-.009-.022-.011-.022-.012-.022-.011-.022-.012-.021-.013-.021-.013-.021-.013-.021-.015-.019-.013-.02-.015-.02-.016-.019-.016-.019-.016-.018-.017-.019-.016-.017-.019-.017-.017-.017-.018-.016-.019-.016-.02-.016-.018-.015-.02-.015-.021-.014-.019-.014-.021-.014-.021-.012-.021-.012-.022-.012-.022-.011-.022-.011-.022-.01-.023-.01-.023-.01-.022-.009-.023L28,49.029l-.008-.023-.007-.025-.006-.023-.006-.025-.006-.023,0-.025-.005-.024,0-.025,0-.024,0-.025,0-.024v-.175l0-.025,0-.024,0-.025,0-.024.005-.025,0-.023.006-.025.006-.024.006-.024.007-.023L28,48.321l.008-.023.009-.022.01-.024.01-.023.01-.022.011-.022.011-.022.012-.023.012-.022.012-.021.014-.02.014-.021.014-.02.015-.021.015-.02.016-.018.016-.02.016-.018.017-.019.017-.017.017-.017.019-.017.018-.017.019-.016.019-.016.02-.015.02-.015.019-.015.021-.014.021-.014.021-.012.021-.012.022-.013.022-.012.022-.011.022-.01.024-.011.022-.009.023-.009.024-.009.023-.007.023-.008.025-.007.023-.006.025-.006.024,0,.025-.005.023,0,.025,0,.026,0,.024,0h.025l.025,0h.1l.025,0h.024l.025,0,.025,0,.024,0,.025,0,.024.005.025,0,.023.006.025.006.023.007.024.008.023.007.023.009.024.009.023.009.022.011.023.01.023.011.022.012.021.013.022.012.021.012.021.014.019.014.021.015.02.015.019.015.019.016.019.016.019.017.017.017.019.017.017.017.017.019.016.018.016.02.016.018.015.02.014.021.014.02.015.021.012.02.014.021L30,48.14l.012.023.011.022.011.022.01.022.01.023.01.024.008.022.008.023.008.025.008.023.006.024.006.024,0,.025a.2.2,0,0,1,0,.024l0,.024,0,.024,0,.025,0,.024,0,.026v.049Z"/>
      <path fill="#333" d="M17.291,52.729v.1l0,.024,0,.025,0,.025,0,.024,0,.025-.005.024,0,.025-.006.023-.008.025-.007.023-.008.024-.008.023-.009.023-.008.024-.01.022-.011.023-.011.022-.011.022-.011.023-.013.02-.013.021-.014.021-.013.021-.014.021-.015.02-.016.019-.014.02-.016.018-.017.019-.016.018-.018.019-.018.017-.017.017-.019.016-.019.017-.019.015-.02.016-.019.015-.021.015-.02.013-.021.014-.022.013-.021.013-.022.012-.022.011-.022.011-.022.011-.022.01-.024.01-.023.008-.023.009-.024.009-.023.007-.025.006-.023.007-.025,0-.023.006-.025.005-.024,0-.025,0-.024,0-.025,0-.024,0h-.026l-.025,0h-.049l-.025,0h-.024l-.026,0-.025,0-.024,0-.025,0-.024,0-.024-.005-.024-.006-.025,0L15.9,53.8l-.025-.006-.023-.007-.024-.009-.023-.009-.023-.008-.024-.01-.022-.01-.022-.011-.022-.011-.022-.011-.022-.012-.021-.013-.021-.013-.021-.014-.021-.013-.02-.015-.02-.015L15.5,53.6l-.02-.015-.018-.017-.018-.016-.019-.017-.017-.017L15.4,53.5l-.017-.018-.016-.019-.016-.018-.016-.02-.016-.019-.014-.02-.015-.021-.013-.021-.014-.021-.012-.021-.012-.02-.013-.023-.011-.022-.011-.022-.011-.023-.01-.022-.008-.024-.009-.023-.008-.023-.008-.024-.007-.023-.008-.025L15.124,53l-.005-.025,0-.024,0-.025,0-.024,0-.025,0-.025,0-.024v-.074a.113.113,0,0,1,0-.026v-.073l0-.025,0-.025,0-.024,0-.025,0-.024,0-.025.005-.025.006-.023.008-.024.007-.024.008-.023.008-.024.009-.023.008-.023.01-.022.011-.024.011-.022.011-.022.013-.022.012-.021.012-.021.014-.022.013-.02L15.3,52.1l.014-.019.016-.02.016-.02.016-.018.016-.018.017-.019.017-.018.017-.018.019-.017.018-.016.018-.017.02-.016.019-.015.02-.014.02-.015.021-.014.021-.013.021-.014.021-.012.022-.012.022-.011.022-.011.022-.012.022-.009.024-.01.023-.009.023-.008.024-.009.023-.007.025-.007.023-.007.025-.005.024-.006.024,0,.024,0,.025,0,.024,0,.025,0,.026,0h.149l.024,0,.025,0,.024,0,.025,0,.024,0,.025,0,.023.006.025.005.023.007.025.007.023.007.024.009.023.008.023.009.024.01.022.009.022.012.022.011.022.011.022.012.021.012.022.014.021.013.02.014.021.015.019.014.02.016.019.015.019.017.019.016.017.017.018.018.018.018.016.019.017.018.016.018.014.02.016.02.015.019.014.021.013.02.014.022.013.021.013.021.011.022.012.022.01.022.011.024.01.022.008.023.009.023.008.024.008.023.007.024.008.024.006.023,0,.025.005.025,0,.024,0,.025,0,.024,0,.025,0,.025v.073Z"/>
    </g>
    <g>
      <path fill="#333" d="M8.619,18.728a.557.557,0,0,1-.377-.123.878.878,0,0,1-.234-.37l-2.873-8.2A.486.486,0,0,1,5.18,9.57a.505.505,0,0,1,.436-.188.523.523,0,0,1,.351.11.854.854,0,0,1,.221.345l2.691,7.89H8.424l2.743-7.852a.972.972,0,0,1,.221-.37.488.488,0,0,1,.351-.123.448.448,0,0,1,.331.123,1.037,1.037,0,0,1,.215.37l2.7,7.852h-.4L17.3,9.837a.684.684,0,0,1,.2-.339.535.535,0,0,1,.358-.116.462.462,0,0,1,.4.181.487.487,0,0,1,.026.469l-2.886,8.2a.923.923,0,0,1-.228.37.551.551,0,0,1-.383.123.534.534,0,0,1-.371-.123,1.044,1.044,0,0,1-.24-.37L11.57,10.707h.286L9.217,18.235a.965.965,0,0,1-.221.37A.53.53,0,0,1,8.619,18.728Z"/>
      <path fill="#333" d="M21.931,18.755a3.529,3.529,0,0,1-1.723-.4,2.769,2.769,0,0,1-1.118-1.124,3.6,3.6,0,0,1-.4-1.743,3.622,3.622,0,0,1,.39-1.722,2.932,2.932,0,0,1,1.072-1.151,2.979,2.979,0,0,1,1.58-.416,2.913,2.913,0,0,1,1.144.215,2.381,2.381,0,0,1,.864.617,2.737,2.737,0,0,1,.546.976,4.087,4.087,0,0,1,.189,1.287.375.375,0,0,1-.117.3.516.516,0,0,1-.338.1H19.5v-.688h4.277l-.208.168a3.042,3.042,0,0,0-.208-1.189,1.634,1.634,0,0,0-.605-.748,1.779,1.779,0,0,0-.994-.259,1.991,1.991,0,0,0-1.125.3,1.884,1.884,0,0,0-.7.845,3.131,3.131,0,0,0-.234,1.254v.079a2.581,2.581,0,0,0,.578,1.819,2.133,2.133,0,0,0,1.645.624,3.367,3.367,0,0,0,.877-.117,2.941,2.941,0,0,0,.852-.389.575.575,0,0,1,.331-.111.37.37,0,0,1,.241.091.425.425,0,0,1,.123.208.414.414,0,0,1-.026.267.535.535,0,0,1-.227.246,3.241,3.241,0,0,1-1.014.482A4.181,4.181,0,0,1,21.931,18.755Z"/>
      <path fill="#333" d="M27.989,18.755a2.6,2.6,0,0,1-1.164-.254,2.055,2.055,0,0,1-.812-.7,1.724,1.724,0,0,1-.3-.987,1.6,1.6,0,0,1,.357-1.105,2.11,2.11,0,0,1,1.183-.573,11.855,11.855,0,0,1,2.256-.169H30.1v.689h-.572a10.961,10.961,0,0,0-1.658.1,1.573,1.573,0,0,0-.845.332.882.882,0,0,0-.24.663,1.123,1.123,0,0,0,.37.87,1.436,1.436,0,0,0,1.008.339,1.7,1.7,0,0,0,.916-.247,1.75,1.75,0,0,0,.624-.677,2.069,2.069,0,0,0,.228-.987V14.569a1.708,1.708,0,0,0-.325-1.164,1.383,1.383,0,0,0-1.066-.357,3.681,3.681,0,0,0-.91.116,4.683,4.683,0,0,0-.962.377.457.457,0,0,1-.312.059.363.363,0,0,1-.208-.136.464.464,0,0,1-.091-.241.458.458,0,0,1,.058-.267.522.522,0,0,1,.228-.208,5.169,5.169,0,0,1,1.131-.416,4.742,4.742,0,0,1,1.066-.13,3.014,3.014,0,0,1,1.352.267,1.708,1.708,0,0,1,.793.806,3.2,3.2,0,0,1,.26,1.384v3.523a.6.6,0,0,1-.124.4.446.446,0,0,1-.357.142.483.483,0,0,1-.377-.142.579.579,0,0,1-.13-.4V17.168h.117a1.91,1.91,0,0,1-.4.845,2,2,0,0,1-.721.546A2.3,2.3,0,0,1,27.989,18.755Z"/>
      <path fill="#333" d="M35.425,18.755a2.622,2.622,0,0,1-1.241-.267,1.693,1.693,0,0,1-.748-.78,2.874,2.874,0,0,1-.247-1.255V13.138h-.871a.471.471,0,0,1-.338-.11.4.4,0,0,1-.117-.306.378.378,0,0,1,.117-.3.489.489,0,0,1,.338-.1h.871v-1.5a.519.519,0,0,1,.143-.4.541.541,0,0,1,.39-.137.519.519,0,0,1,.383.137.536.536,0,0,1,.137.4v1.5H35.88a.49.49,0,0,1,.338.1.378.378,0,0,1,.117.3.4.4,0,0,1-.117.306.473.473,0,0,1-.338.11H34.242v3.211a1.746,1.746,0,0,0,.312,1.125,1.233,1.233,0,0,0,1.014.384,1.48,1.48,0,0,0,.422-.053,1.091,1.091,0,0,1,.293-.051.213.213,0,0,1,.2.077.484.484,0,0,1,.078.312.7.7,0,0,1-.058.286.339.339,0,0,1-.2.183,3.271,3.271,0,0,1-.41.1A2.66,2.66,0,0,1,35.425,18.755Z"/>
      <path fill="#333" d="M38.038,18.728a.5.5,0,0,1-.39-.142.579.579,0,0,1-.13-.4V9.914a.551.551,0,0,1,.13-.4.512.512,0,0,1,.39-.136.542.542,0,0,1,.39.136.523.523,0,0,1,.143.4v3.809H38.4a2.146,2.146,0,0,1,.891-1.137,2.634,2.634,0,0,1,1.423-.384,2.6,2.6,0,0,1,1.254.273,1.7,1.7,0,0,1,.748.826,3.446,3.446,0,0,1,.247,1.4v3.483a.563.563,0,0,1-.137.4.506.506,0,0,1-.383.142.525.525,0,0,1-.4-.142.567.567,0,0,1-.136-.4V14.763a1.987,1.987,0,0,0-.345-1.293,1.358,1.358,0,0,0-1.1-.41,1.818,1.818,0,0,0-1.384.54,1.994,1.994,0,0,0-.514,1.436v3.146A.477.477,0,0,1,38.038,18.728Z"/>
      <path fill="#333" d="M47.749,18.755a3.529,3.529,0,0,1-1.723-.4,2.763,2.763,0,0,1-1.118-1.124,3.6,3.6,0,0,1-.4-1.743,3.634,3.634,0,0,1,.389-1.722,2.941,2.941,0,0,1,1.073-1.151,2.979,2.979,0,0,1,1.58-.416,2.916,2.916,0,0,1,1.144.215,2.381,2.381,0,0,1,.864.617,2.753,2.753,0,0,1,.546.976A4.117,4.117,0,0,1,50.3,15.3a.375.375,0,0,1-.116.3.516.516,0,0,1-.338.1H45.317v-.688H49.6l-.208.168a3.042,3.042,0,0,0-.208-1.189,1.64,1.64,0,0,0-.605-.748,1.779,1.779,0,0,0-.994-.259,1.991,1.991,0,0,0-1.125.3,1.878,1.878,0,0,0-.7.845,3.131,3.131,0,0,0-.235,1.254v.079a2.582,2.582,0,0,0,.579,1.819,2.133,2.133,0,0,0,1.645.624,3.372,3.372,0,0,0,.877-.117,2.941,2.941,0,0,0,.852-.389.575.575,0,0,1,.331-.111.37.37,0,0,1,.241.091.432.432,0,0,1,.123.208.414.414,0,0,1-.026.267.532.532,0,0,1-.228.246,3.236,3.236,0,0,1-1.013.482A4.181,4.181,0,0,1,47.749,18.755Z"/>
      <path fill="#333" d="M52.351,18.728a.524.524,0,0,1-.4-.142.563.563,0,0,1-.137-.4V12.761a.551.551,0,0,1,.131-.4.5.5,0,0,1,.377-.137.519.519,0,0,1,.383.137.536.536,0,0,1,.137.4v1.053h-.131a2.057,2.057,0,0,1,.794-1.182,2.561,2.561,0,0,1,1.443-.443.428.428,0,0,1,.312.085.444.444,0,0,1,.13.331.463.463,0,0,1-.1.351.553.553,0,0,1-.364.157l-.208.025a2.083,2.083,0,0,0-1.359.566,1.829,1.829,0,0,0-.474,1.332v3.146a.563.563,0,0,1-.137.4A.523.523,0,0,1,52.351,18.728Z"/>
    </g>
  </g>
</svg>