<svg width="17.889" height="13.308" xmlns="http://www.w3.org/2000/svg" viewBox="0 0 17.889 13.308">
  <g>
    <path d="M24.818,35.851,23.983,33.4c-.26-.772-.486-1.506-.716-2.356h-.044c-.215.846-.429,1.643-.628,2.407l-.7,2.4H19.326l2.479-6.8-2.384-6.5h2.7L22.892,25c.21.7.4,1.383.608,2.144h.04c.215-.8.386-1.451.56-2.172l.673-2.431h2.59l-2.494,6.612,2.632,6.7Z" transform="translate(-19.326 -22.542)"/>
    <path d="M34.656,25.452h-.039l-2.175,1.116-.435-2.026,2.94-1.525h2.268V35.851H34.656Z" transform="translate(-19.326 -22.542)"/>
  </g>
</svg>