<svg width="30.974" height="13.466" xmlns="http://www.w3.org/2000/svg" viewBox="0 0 30.974 13.466">
  <g>
    <path d="M19.626,35.851,18.792,33.4c-.26-.772-.486-1.506-.717-2.356h-.044c-.215.846-.429,1.643-.628,2.407l-.7,2.4H14.135l2.478-6.8-2.384-6.5h2.7L17.7,25c.21.7.4,1.383.608,2.144h.039c.215-.8.386-1.451.561-2.172l.673-2.431h2.59l-2.5,6.611,2.633,6.7Z" transform="translate(-14.135 -22.543)"/>
    <path d="M45.109,29.371c0,4.61-1.673,6.638-3.754,6.638-2.793,0-3.734-3.211-3.734-6.513,0-3.691,1.175-6.638,3.831-6.638C44.433,22.858,45.109,26.318,45.109,29.371Zm-4.891.063c-.031,3,.336,4.361,1.214,4.361.792,0,1.081-1.42,1.081-4.361,0-2.755-.258-4.362-1.085-4.362C40.616,25.072,40.2,26.461,40.218,29.434Z" transform="translate(-14.135 -22.543)"/>
    <path d="M29.039,25.453H29l-2.175,1.116-.436-2.026,2.941-1.525H31.6V35.852H29.039Z" transform="translate(-14.135 -22.543)"/>
  </g>
</svg>