<svg width="43.988" height="13.467" xmlns="http://www.w3.org/2000/svg" viewBox="0 0 43.988 13.467">
  <path d="M13.857,35.851,13.023,33.4c-.26-.772-.486-1.506-.717-2.356h-.044c-.215.846-.429,1.643-.628,2.407l-.7,2.4H8.366l2.478-6.8-2.384-6.5h2.695L11.932,25c.21.7.4,1.383.608,2.144h.039c.215-.8.386-1.451.561-2.172l.672-2.431H16.4l-2.495,6.612,2.633,6.7Z" transform="translate(-8.366 -22.542)"/>
  <path d="M39.341,29.371c0,4.609-1.674,6.637-3.754,6.637-2.793,0-3.734-3.211-3.734-6.513,0-3.691,1.174-6.637,3.831-6.637C38.664,22.858,39.341,26.318,39.341,29.371Zm-4.892.062c-.031,3,.336,4.361,1.214,4.361.792,0,1.081-1.42,1.081-4.361,0-2.754-.258-4.361-1.085-4.361C34.848,25.072,34.434,26.46,34.449,29.433Z" transform="translate(-8.366 -22.542)"/>
  <path d="M23.27,25.452h-.04l-2.174,1.116-.436-2.026,2.941-1.525h2.267V35.851H23.27Z" transform="translate(-8.366 -22.542)"/>
  <path d="M52.354,29.372c0,4.61-1.673,6.638-3.753,6.638-2.793,0-3.735-3.211-3.735-6.514,0-3.691,1.175-6.637,3.831-6.637C51.678,22.859,52.354,26.319,52.354,29.372Zm-4.891.062c-.031,3,.336,4.362,1.214,4.362.792,0,1.081-1.42,1.081-4.362,0-2.754-.258-4.361-1.085-4.361S47.447,26.461,47.463,29.434Z" transform="translate(-8.366 -22.542)"/>
</svg>