<svg width="60" height="60" xmlns="http://www.w3.org/2000/svg" viewBox="0 0 60 60">
  <rect fill="#fff" height="60" width="60"/>
  <g>
    <path fill="#cb2026" stroke-width="0.188" d="M2.306,33.821H57.524v1.648L2.009,35.364Z" stroke-linejoin="round" stroke-linecap="round" stroke="#cb2026"/>
    <path fill="#cb2026" stroke-width="0.188" d="M56.236,32.665l1.755-.216-.446,3.028H54.426Z" stroke-linejoin="round" stroke-linecap="round" stroke="#cb2026"/>
    <path fill="#cb2026" stroke-width="0.188" d="M48.03,33.035l8.417-.374v1.306H48Z" stroke-linejoin="round" stroke-linecap="round" stroke="#cb2026"/>
    <path fill="#cb2026" stroke-width="0.188" d="M49.663,32.571h.619v.619h-.619Z" stroke-linejoin="round" stroke-linecap="round" stroke="#cb2026"/>
    <path fill="#cb2026" stroke-width="0.188" d="M48.94,32.677h1.444v.479H48.94Z" stroke-linejoin="round" stroke-linecap="round" stroke="#cb2026"/>
    <path fill="#cb2026" stroke-width="0.188" d="M48.115,32.79H49.56v.479H48.115Z" stroke-linejoin="round" stroke-linecap="round" stroke="#cb2026"/>
    <path fill="#cb2026" stroke-width="0.188" d="M45.091,32h2.228v.778H45.091Z" stroke-linejoin="round" stroke-linecap="round" stroke="#cb2026"/>
    <path fill="#cb2026" stroke-width="0.188" d="M47.3,32.089l.4-.017.332.494-.73.574Z" stroke-linejoin="round" stroke-linecap="round" stroke="#cb2026"/>
    <path fill="#cb2026" stroke-width="0.188" d="M45.735,32.549h2.274v1.46H45.735Z" stroke-linejoin="round" stroke-linecap="round" stroke="#cb2026"/>
    <path fill="#cb2026" stroke-width="0.188" d="M47.6,32.288h2.264v.194H47.6Z" stroke-linejoin="round" stroke-linecap="round" stroke="#cb2026"/>
    <path fill="#cb2026" stroke-width="0.188" d="M45.213,32.743h.315v.564h-.315Z" stroke-linejoin="round" stroke-linecap="round" stroke="#cb2026"/>
    <path fill="#cb2026" stroke-width="0.188" d="M34.09,32.314H44.866v1.65H34.09Z" stroke-linejoin="round" stroke-linecap="round" stroke="#cb2026"/>
    <path fill="#cb2026" stroke-width="0.188" d="M44.743,33.126h1.146V33.9H44.743Z" stroke-linejoin="round" stroke-linecap="round" stroke="#cb2026"/>
    <path fill="#cb2026" stroke-width="0.188" d="M40.685,31.092h2.227v.778H40.685Z" stroke-linejoin="round" stroke-linecap="round" stroke="#cb2026"/>
    <path fill="#cb2026" stroke-width="0.188" d="M42.89,31.185l.4-.017.332.494-.731.574Z" stroke-linejoin="round" stroke-linecap="round" stroke="#cb2026"/>
    <path fill="#cb2026" stroke-width="0.188" d="M41.328,31.645H43.6V33.1H41.328Z" stroke-linejoin="round" stroke-linecap="round" stroke="#cb2026"/>
    <path fill="#cb2026" stroke-width="0.188" d="M43.2,31.385h2.265v.194H43.2Z" stroke-linejoin="round" stroke-linecap="round" stroke="#cb2026"/>
    <path fill="#cb2026" stroke-width="0.188" d="M41.317,30.521h.3v.3h-.3Z" stroke-linejoin="round" stroke-linecap="round" stroke="#cb2026"/>
    <path fill="#cb2026" stroke-width="0.188" d="M41.475,30.222H41.6v.952h-.123Z" stroke-linejoin="round" stroke-linecap="round" stroke="#cb2026"/>
    <path fill="#cb2026" stroke-width="0.188" d="M41.789,30.526h.084l-.306.441h-.084Z" stroke-linejoin="round" stroke-linecap="round" stroke="#cb2026"/>
    <path fill="#cb2026" stroke-width="0.188" d="M36.953,29.639h2.47v2.888h-2.47Z" stroke-linejoin="round" stroke-linecap="round" stroke="#cb2026"/>
    <path fill="#cb2026" stroke-width="0.188" d="M36.415,30.3h.773v.436h-.773Z" stroke-linejoin="round" stroke-linecap="round" stroke="#cb2026"/>
    <path fill="#cb2026" stroke-width="0.188" d="M37.147,27.934h.408v1.724h-.408Z" stroke-linejoin="round" stroke-linecap="round" stroke="#cb2026"/>
    <path fill="#cb2026" stroke-width="0.188" d="M36.652,28.139h.233v1.1h-.233Z" stroke-linejoin="round" stroke-linecap="round" stroke="#cb2026"/>
    <path fill="#cb2026" stroke-width="0.188" d="M36.8,28.775h1.678v.407H36.8Z" stroke-linejoin="round" stroke-linecap="round" stroke="#cb2026"/>
    <path fill="#cb2026" stroke-width="0.188" d="M36.856,29.137H38.37v.844H36.856Z" stroke-linejoin="round" stroke-linecap="round" stroke="#cb2026"/>
    <path fill="#cb2026" stroke-width="0.188" d="M37.55,28.208h.719v.824H37.55Z" stroke-linejoin="round" stroke-linecap="round" stroke="#cb2026"/>
    <path fill="#cb2026" stroke-width="0.188" d="M38.869,29.117h.719v.824h-.719Z" stroke-linejoin="round" stroke-linecap="round" stroke="#cb2026"/>
    <path fill="#cb2026" stroke-width="0.188" d="M39.747,32.022h.263v.3h-.263Z" stroke-linejoin="round" stroke-linecap="round" stroke="#cb2026"/>
    <path fill="#cb2026" stroke-width="0.188" d="M43.779,31.964h.307v.581h-.307Z" stroke-linejoin="round" stroke-linecap="round" stroke="#cb2026"/>
    <path fill="#cb2026" stroke-width="0.188" d="M44.287,32.042h.307v.581h-.307Z" stroke-linejoin="round" stroke-linecap="round" stroke="#cb2026"/>
    <path fill="#cb2026" stroke-width="0.188" d="M35.3,30.938h.294v.326H35.3Z" stroke-linejoin="round" stroke-linecap="round" stroke="#cb2026"/>
    <path fill="#cb2026" stroke-width="0.188" d="M35.371,31.182h.144v1.2h-.144Z" stroke-linejoin="round" stroke-linecap="round" stroke="#cb2026"/>
    <path fill="#cb2026" stroke-width="0.188" d="M34.736,31.368h.143v1.2h-.143Z" stroke-linejoin="round" stroke-linecap="round" stroke="#cb2026"/>
    <path fill="#cb2026" stroke-width="0.188" d="M34.51,31.759h.674v.615H34.51Z" stroke-linejoin="round" stroke-linecap="round" stroke="#cb2026"/>
    <path fill="#cb2026" stroke-width="0.188" d="M34.8,20.776l.165.012,1.4,11.509-.316.013Z" stroke-linejoin="round" stroke-linecap="round" stroke="#cb2026"/>
    <path fill="#cb2026" stroke-width="0.188" d="M28.654,28.2h1.92l.633,4.278-2.1.114Z" stroke-linejoin="round" stroke-linecap="round" stroke="#cb2026"/>
    <path fill="#cb2026" stroke-width="0.188" d="M30.851,31.533v1.713h4.354Z" stroke-linejoin="round" stroke-linecap="round" stroke="#cb2026"/>
    <path fill="#cb2026" stroke-width="0.188" d="M25.212,32.61h9.007v1.381H25.212Z" stroke-linejoin="round" stroke-linecap="round" stroke="#cb2026"/>
    <path fill="#cb2026" stroke-width="0.188" d="M25.162,28.322l1.14.05.974,4.4-1.507-.013Z" stroke-linejoin="round" stroke-linecap="round" stroke="#cb2026"/>
    <path fill="#cb2026" stroke-width="0.188" d="M15.779,33.091h9.605v1.166h-9.6Z" stroke-linejoin="round" stroke-linecap="round" stroke="#cb2026"/>
    <path fill="#cb2026" stroke-width="0.188" d="M15.78,32.265h3.8v1.15h-3.8Z" stroke-linejoin="round" stroke-linecap="round" stroke="#cb2026"/>
    <path fill="#cb2026" stroke-width="0.188" d="M18.85,30.158h.876V30.9H18.85Z" stroke-linejoin="round" stroke-linecap="round" stroke="#cb2026"/>
    <path fill="#cb2026" stroke-width="0.188" d="M17.737,30.7h.655v.689h-.655Z" stroke-linejoin="round" stroke-linecap="round" stroke="#cb2026"/>
    <path fill="#cb2026" stroke-width="0.188" d="M15.663,31.76h.655v.689h-.655Z" stroke-linejoin="round" stroke-linecap="round" stroke="#cb2026"/>
    <path fill="#cb2026" stroke-width="0.188" d="M16.792,31.794h2.767v.523H16.792Z" stroke-linejoin="round" stroke-linecap="round" stroke="#cb2026"/>
    <path fill="#cb2026" stroke-width="0.188" d="M17.855,31.288h1.727v.535H17.855Z" stroke-linejoin="round" stroke-linecap="round" stroke="#cb2026"/>
    <path fill="#cb2026" stroke-width="0.188" d="M19.052,30.748h.422v.618h-.422Z" stroke-linejoin="round" stroke-linecap="round" stroke="#cb2026"/>
    <path fill="#cb2026" stroke-width="0.188" d="M13.79,20.784l.2.016,1.649,13.186-.347.085Z" stroke-linejoin="round" stroke-linecap="round" stroke="#cb2026"/>
    <path fill="#cb2026" stroke-width="0.188" d="M21.209,32.106h2.069v1.326H21.209Z" stroke-linejoin="round" stroke-linecap="round" stroke="#cb2026"/>
    <path fill="#cb2026" stroke-width="0.188" d="M20.063,31.686h4.416v.583H20.063Z" stroke-linejoin="round" stroke-linecap="round" stroke="#cb2026"/>
    <path fill="#cb2026" stroke-width="0.188" d="M14.6,32.763h-.73v.242h.73Z" stroke-linejoin="round" stroke-linecap="round" stroke="#cb2026"/>
    <path fill="#cb2026" stroke-width="0.188" d="M15,32.953H12.771v.777H15Z" stroke-linejoin="round" stroke-linecap="round" stroke="#cb2026"/>
    <path fill="#cb2026" stroke-width="0.188" d="M12.792,33.046l-.4-.017-.332.493.73.575Z" stroke-linejoin="round" stroke-linecap="round" stroke="#cb2026"/>
    <path fill="#cb2026" stroke-width="0.188" d="M14.354,33.506H12.08v1.46h2.274Z" stroke-linejoin="round" stroke-linecap="round" stroke="#cb2026"/>
    <path fill="#cb2026" stroke-width="0.188" d="M12.486,33.245H10.221v.194h2.265Z" stroke-linejoin="round" stroke-linecap="round" stroke="#cb2026"/>
    <path fill="#cb2026" stroke-width="0.188" d="M14.505,32.48h-.49v.163h.49Z" stroke-linejoin="round" stroke-linecap="round" stroke="#cb2026"/>
    <path fill="#cb2026" stroke-width="0.188" d="M14.237,32.806v-.49H14.4v.49Z" stroke-linejoin="round" stroke-linecap="round" stroke="#cb2026"/>
    <path fill="#cb2026" stroke-width="0.188" d="M16.847,31.092H17.3v.451h-.452Z" stroke-linejoin="round" stroke-linecap="round" stroke="#cb2026"/>
    <path fill="#cb2026" stroke-width="0.188" d="M16.919,31.453h.358v.358h-.358Z" stroke-linejoin="round" stroke-linecap="round" stroke="#cb2026"/>
  </g>
  <g>
    <path fill="#cb2026" d="M23.071,52.69V49.45l-1.78-4.844h1.363l.625,1.972c.173.539.355,1.158.5,1.765h.024c.129-.6.3-1.2.474-1.8l.57-1.936h1.329L24.351,49.4V52.69Z"/>
    <path fill="#cb2026" d="M30.088,49.758c0,2.354-1.213,3.028-2.1,3.028-1.239,0-2.084-1.035-2.084-3,0-2.109,1.036-3.029,2.127-3.029C29.256,46.756,30.088,47.832,30.088,49.758Zm-2.907.007c0,.982.166,2.033.848,2.033.637,0,.783-1.152.783-2.033,0-.848-.146-2.021-.807-2.021C27.32,47.744,27.181,48.917,27.181,49.765Z"/>
    <path fill="#cb2026" d="M31.045,48.5c0-.541-.029-1.149-.048-1.645h1.119l.066.88h.037a1.384,1.384,0,0,1,1.186-.976,1.49,1.49,0,0,1,.272.02v1.281a1.586,1.586,0,0,0-.274-.014,1.142,1.142,0,0,0-1.025,1,2.65,2.65,0,0,0-.053.56V52.69h-1.28Z"/>
    <path fill="#cb2026" d="M35.594,49.479h.024c.108-.291.2-.522.3-.743l.933-1.884h1.383L36.766,49.3l1.577,3.388H36.916l-1.025-2.556-.3.523V52.69H34.32v-8.3h1.274Z"/>
  </g>
  <g>
    <path fill="#cb2026" d="M16.6,16.065a6.1,6.1,0,0,1-2.451.427,4.46,4.46,0,0,1-4.818-4.756,4.754,4.754,0,0,1,5.053-4.98,5.308,5.308,0,0,1,2.287.417L16.3,8.548a4.483,4.483,0,0,0-1.841-.37,3.142,3.142,0,0,0-3.309,3.472,3.086,3.086,0,0,0,3.287,3.4,5.029,5.029,0,0,0,1.881-.341Z"/>
    <path fill="#cb2026" d="M20.043,13.675l-.8,2.669H17.455L20.485,6.9h2.2l3.068,9.441H23.9l-.854-2.669Zm2.715-1.3-.744-2.327c-.181-.585-.337-1.226-.48-1.774H21.5c-.137.554-.282,1.207-.448,1.769l-.729,2.332Z"/>
    <path fill="#cb2026" d="M36.3,16.344V13.86H32.072v-.8L36.129,7.24h1.334v5.665H38.74v.955H37.463v2.484Zm0-3.439V9.859c0-.476.015-.95.047-1.428L36.3,8.424c-.284.543-.506.934-.757,1.355l-2.22,3.1,0,.028Z"/>
    <path fill="#cb2026" d="M39.029,16.905l3.9-10.155h.959L39.967,16.905Z"/>
    <path fill="#cb2026" d="M44.367,14.037a2.63,2.63,0,0,1,1.8-2.447l0-.043a2.236,2.236,0,0,1-1.456-2.041,2.562,2.562,0,0,1,2.829-2.421,2.35,2.35,0,0,1,2.646,2.239,2.309,2.309,0,0,1-1.5,2.127V11.5a2.525,2.525,0,0,1,1.83,2.35c0,1.59-1.355,2.652-3.1,2.652C45.518,16.5,44.367,15.367,44.367,14.037Zm4.9-.064c0-1.1-.771-1.636-2-1.98a1.98,1.98,0,0,0-1.643,1.876A1.682,1.682,0,0,0,47.443,15.6,1.647,1.647,0,0,0,49.266,13.973ZM45.881,9.418c-.007.914.687,1.407,1.731,1.684A1.782,1.782,0,0,0,49,9.447a1.415,1.415,0,0,0-1.542-1.478A1.44,1.44,0,0,0,45.881,9.418Z"/>
  </g>
</svg>